<?xml version="1.0" standalone="no"?>
<!DOCTYPE svg PUBLIC "-//W3C//DTD SVG 20010904//EN"
 "http://www.w3.org/TR/2001/REC-SVG-20010904/DTD/svg10.dtd">
<svg version="1.0" xmlns="http://www.w3.org/2000/svg"
 width="300.000000pt" height="300.000000pt" viewBox="0 0 300.000000 300.000000"
 preserveAspectRatio="xMidYMid meet">
<metadata>
Created by potrace 1.10, written by Peter Selinger 2001-2011
</metadata>
<g transform="translate(0.000000,300.000000) scale(0.100000,-0.100000)"
fill="#000000" stroke="none">
<path d="M1331 2413 c-1 -12 -8 -26 -17 -31 -14 -8 -14 -13 -5 -28 10 -14 11
-15 7 -2 -5 18 16 42 27 31 9 -9 8 7 -3 32 -8 19 -9 19 -9 -2z"/>
<path d="M1421 2414 c-1 -25 34 -61 44 -45 3 6 0 11 -7 11 -8 0 -19 12 -25 28
-9 23 -11 24 -12 6z"/>
<path d="M1516 2405 c-3 -8 -1 -15 4 -15 6 0 10 7 10 15 0 8 -2 15 -4 15 -2 0
-6 -7 -10 -15z"/>
<path d="M1356 2364 c-9 -24 -2 -26 12 -4 7 11 8 20 3 20 -5 0 -12 -7 -15 -16z"/>
<path d="M1396 2365 c4 -8 8 -15 10 -15 2 0 4 7 4 15 0 8 -4 15 -10 15 -5 0
-7 -7 -4 -15z"/>
<path d="M1486 2365 c4 -8 7 -15 9 -15 2 0 5 7 9 15 3 9 0 15 -9 15 -9 0 -12
-6 -9 -15z"/>
<path d="M1535 2350 c-7 -31 -20 -39 -28 -17 -3 6 -6 -1 -6 -18 -1 -22 2 -26
8 -16 7 11 13 12 23 3 12 -9 14 -7 10 17 -2 16 1 32 7 35 13 9 15 26 2 26 -5
0 -12 -13 -16 -30z"/>
<path d="M1411 2333 c-1 -6 -4 -20 -8 -30 -6 -16 -5 -17 11 -4 15 13 19 13 27
0 7 -11 9 -8 9 10 0 16 -4 21 -14 18 -8 -3 -17 -1 -20 6 -3 9 -5 9 -5 0z"/>
<path d="M1333 2320 c-13 -5 -23 -15 -23 -21 0 -8 4 -8 13 0 10 8 17 7 25 -1
9 -9 12 -7 12 10 0 12 -1 22 -2 21 -2 0 -13 -4 -25 -9z"/>
<path d="M1220 2165 c0 -47 3 -85 8 -85 4 0 7 38 7 85 0 47 -3 85 -7 85 -5 0
-8 -38 -8 -85z"/>
<path d="M1278 2243 c-2 -5 0 -44 3 -88 l5 -80 2 88 c2 78 -1 101 -10 80z"/>
<path d="M1330 2236 c-13 -17 -18 -115 -6 -134 4 -7 12 -10 17 -6 6 4 6 11 -1
19 -7 8 -10 36 -8 62 3 39 8 50 28 60 23 12 24 13 4 13 -12 0 -27 -6 -34 -14z"/>
<path d="M1410 2235 c0 -8 8 -15 18 -15 14 0 15 2 2 10 -12 8 -11 10 7 10 12
0 25 -4 28 -10 9 -14 25 -12 25 3 0 9 -14 14 -40 15 -30 1 -40 -2 -40 -13z"/>
<path d="M1525 2243 c11 -3 23 -10 27 -17 5 -7 8 -5 8 7 0 12 -7 17 -27 16
-22 -1 -23 -2 -8 -6z"/>
<path d="M1582 2221 c-1 -16 2 -32 8 -36 6 -4 10 8 10 29 0 43 -15 48 -18 7z"/>
<path d="M1385 2195 c6 -42 -7 -94 -28 -107 -8 -5 -7 -8 4 -8 32 0 53 104 28
140 -7 11 -9 4 -4 -25z"/>
<path d="M1510 2200 c0 -16 2 -30 4 -30 2 0 6 14 8 30 3 17 1 30 -4 30 -4 0
-8 -13 -8 -30z"/>
<path d="M1442 2145 c0 -36 4 -65 9 -65 11 0 12 117 1 124 -5 3 -9 -24 -10
-59z"/>
<path d="M1542 2165 c-11 -12 -10 -15 3 -15 8 0 15 7 15 15 0 18 -2 18 -18 0z"/>
<path d="M1591 2154 c0 -11 3 -14 6 -6 3 7 2 16 -1 19 -3 4 -6 -2 -5 -13z"/>
<path d="M1511 2119 c-1 -33 1 -37 24 -35 23 1 38 26 16 26 -6 0 -13 -6 -18
-12 -5 -9 -10 -1 -14 22 l-6 35 -2 -36z"/>
<path d="M1631 2094 c0 -11 3 -14 6 -6 3 7 2 16 -1 19 -3 4 -6 -2 -5 -13z"/>
<path d="M1590 2090 c0 -5 5 -10 11 -10 5 0 7 5 4 10 -3 6 -8 10 -11 10 -2 0
-4 -4 -4 -10z"/>
<path d="M960 1958 c0 -99 8 -100 11 -1 l2 72 56 4 56 3 -62 2 -63 2 0 -82z"/>
<path d="M1960 1915 c0 -8 2 -15 4 -15 2 0 6 7 10 15 3 8 1 15 -4 15 -6 0 -10
-7 -10 -15z"/>
<path d="M960 1833 l0 -39 43 5 42 5 -36 6 c-30 4 -36 9 -34 28 1 13 -2 25 -7
28 -4 3 -8 -12 -8 -33z"/>
<path d="M2095 1850 c3 -5 8 -10 11 -10 2 0 4 5 4 10 0 6 -5 10 -11 10 -5 0
-7 -4 -4 -10z"/>
<path d="M1608 1803 c6 -2 18 -2 25 0 6 3 1 5 -13 5 -14 0 -19 -2 -12 -5z"/>
<path d="M1673 1803 c15 -2 39 -2 55 0 15 2 2 4 -28 4 -30 0 -43 -2 -27 -4z"/>
<path d="M960 1435 c0 -175 2 -316 5 -313 7 7 7 619 0 626 -3 3 -5 -138 -5
-313z"/>
<path d="M1280 1621 c0 -76 -4 -111 -12 -113 -7 -3 -6 -7 5 -11 15 -6 17 5 17
113 0 66 -2 120 -5 120 -3 0 -5 -49 -5 -109z"/>
<path d="M1670 1715 c0 -8 4 -15 10 -15 5 0 7 7 4 15 -4 8 -8 15 -10 15 -2 0
-4 -7 -4 -15z"/>
<path d="M1120 1615 c-3 -60 -4 -112 -2 -114 9 -16 12 21 10 115 l-3 109 -5
-110z"/>
<path d="M1435 1645 c2 -102 15 -108 15 -7 0 45 -4 82 -9 82 -4 0 -7 -34 -6
-75z"/>
<path d="M1588 1714 c-2 -5 -2 -22 2 -39 l6 -30 5 27 c6 26 -4 58 -13 42z"/>
<path d="M1350 1638 c0 -40 4 -78 8 -85 4 -6 6 22 4 64 -3 56 -1 78 9 84 11 7
10 9 -3 9 -16 0 -18 -10 -18 -72z"/>
<path d="M1747 1690 c3 -11 7 -20 9 -20 2 0 4 9 4 20 0 11 -4 20 -9 20 -5 0
-7 -9 -4 -20z"/>
<path d="M1513 1610 c0 -30 2 -43 4 -27 2 15 2 39 0 55 -2 15 -4 2 -4 -28z"/>
<path d="M1754 1575 c0 -49 1 -71 3 -48 2 23 2 64 0 90 -2 26 -3 8 -3 -42z"/>
<path d="M1592 1580 c0 -14 2 -19 5 -12 2 6 2 18 0 25 -3 6 -5 1 -5 -13z"/>
<path d="M1837 1345 c1 -141 4 -259 7 -263 8 -8 6 467 -2 496 -4 13 -6 -92 -5
-233z"/>
<path d="M1590 1525 c0 -19 -66 -21 -73 -2 -3 7 -6 5 -6 -5 -1 -15 8 -18 48
-18 44 0 49 2 44 20 -6 24 -13 26 -13 5z"/>
<path d="M1350 1515 c0 -18 6 -21 43 -19 23 1 42 5 42 10 0 4 -15 7 -34 5 -20
-2 -37 3 -42 11 -6 9 -9 8 -9 -7z"/>
<path d="M1688 1503 c12 -2 30 -2 40 0 9 3 -1 5 -23 4 -22 0 -30 -2 -17 -4z"/>
<path d="M1513 1345 c0 -8 4 -12 9 -9 5 3 6 10 3 15 -9 13 -12 11 -12 -6z"/>
<path d="M1751 1345 c-2 -11 -2 -57 -2 -103 1 -46 -1 -87 -3 -91 -3 -4 -19 -6
-35 -3 l-30 4 -4 92 -3 91 -2 -103 -2 -102 48 1 47 2 -3 81 c-3 102 -8 157
-11 131z"/>
<path d="M1283 1295 c0 -33 2 -45 4 -27 2 18 2 45 0 60 -2 15 -4 0 -4 -33z"/>
<path d="M1439 1343 c0 -5 -1 -51 -2 -103 -1 -87 -3 -96 -21 -102 -18 -5 -17
-6 7 -7 l27 -1 0 110 c0 61 -2 110 -5 110 -3 0 -5 -3 -6 -7z"/>
<path d="M1124 1230 c0 -58 1 -81 3 -52 2 28 2 76 0 105 -2 28 -3 5 -3 -53z"/>
<path d="M1052 1295 c0 -16 2 -22 5 -12 2 9 2 23 0 30 -3 6 -5 -1 -5 -18z"/>
<path d="M1591 1274 c0 -11 3 -14 6 -6 3 7 2 16 -1 19 -3 4 -6 -2 -5 -13z"/>
<path d="M1592 1220 c0 -14 2 -19 5 -12 2 6 2 18 0 25 -3 6 -5 1 -5 -13z"/>
<path d="M1280 1186 c0 -26 -5 -46 -12 -49 -8 -3 -6 -6 5 -6 14 -1 17 8 17 49
0 28 -2 50 -5 50 -3 0 -5 -20 -5 -44z"/>
<path d="M1511 1160 c-1 -22 3 -25 34 -26 22 0 31 3 23 8 -7 4 -21 8 -30 8 -9
0 -19 8 -21 18 -3 11 -5 9 -6 -8z"/>
<path d="M1592 1155 c0 -16 2 -22 5 -12 2 9 2 23 0 30 -3 6 -5 -1 -5 -18z"/>
<path d="M1355 1140 c3 -5 14 -10 23 -10 15 0 15 2 2 10 -20 13 -33 13 -25 0z"/>
<path d="M1048 1133 c6 -2 18 -2 25 0 6 3 1 5 -13 5 -14 0 -19 -2 -12 -5z"/>
<path d="M310 1075 c0 -19 5 -35 11 -35 7 0 9 10 7 25 -3 14 -5 26 -4 27 0 1
145 4 321 8 l320 6 -327 2 -328 2 0 -35z"/>
<path d="M1952 1073 c1 -37 1 -37 5 -6 l4 32 117 4 117 3 -122 2 -123 2 2 -37z"/>
<path d="M2208 1103 c7 -3 16 -2 19 1 4 3 -2 6 -13 5 -11 0 -14 -3 -6 -6z"/>
<path d="M2328 1103 c18 -2 45 -2 60 0 15 2 0 4 -33 4 -33 0 -45 -2 -27 -4z"/>
<path d="M2623 1104 c9 -10 87 -11 87 -1 0 4 -21 7 -47 7 -25 0 -43 -3 -40 -6z"/>
<path d="M363 1043 c9 -2 25 -2 35 0 9 3 1 5 -18 5 -19 0 -27 -2 -17 -5z"/>
<path d="M478 1043 c23 -2 61 -2 85 0 23 2 4 4 -43 4 -47 0 -66 -2 -42 -4z"/>
<path d="M878 1043 c6 -2 18 -2 25 0 6 3 1 5 -13 5 -14 0 -19 -2 -12 -5z"/>
<path d="M333 945 c0 -44 2 -61 4 -37 2 23 2 59 0 80 -2 20 -4 1 -4 -43z"/>
<path d="M920 1004 c0 -8 6 -11 15 -8 8 4 15 9 15 13 0 4 -7 8 -15 8 -8 0 -15
-6 -15 -13z"/>
<path d="M1328 1013 c7 -3 16 -2 19 1 4 3 -2 6 -13 5 -11 0 -14 -3 -6 -6z"/>
<path d="M1418 1013 c6 -2 18 -2 25 0 6 3 1 5 -13 5 -14 0 -19 -2 -12 -5z"/>
<path d="M1462 1015 c7 -8 209 -7 216 0 3 3 -46 5 -108 5 -62 0 -111 -2 -108
-5z"/>
<path d="M1728 1013 c6 -2 18 -2 25 0 6 3 1 5 -13 5 -14 0 -19 -2 -12 -5z"/>
<path d="M923 900 c-1 -11 2 -20 7 -20 4 0 7 7 6 15 -3 23 -12 26 -13 5z"/>
<path d="M2387 889 c4 -13 8 -18 11 -10 2 7 -1 18 -6 23 -8 8 -9 4 -5 -13z"/>
<path d="M2236 887 c3 -10 9 -15 12 -12 3 3 0 11 -7 18 -10 9 -11 8 -5 -6z"/>
<path d="M2536 887 c3 -10 7 -103 8 -207 1 -182 0 -189 -19 -192 -16 -3 -14
-5 8 -10 l28 -5 -3 203 c-2 151 -6 206 -16 216 -11 11 -12 10 -6 -5z"/>
<path d="M332 638 c-1 -126 1 -228 6 -228 4 0 6 69 4 152 -4 279 -8 306 -10
76z"/>
<path d="M2404 685 c0 -99 2 -138 3 -87 2 51 2 132 0 180 -1 48 -3 6 -3 -93z"/>
<path d="M616 837 c3 -10 9 -15 12 -12 3 3 0 11 -7 18 -10 9 -11 8 -5 -6z"/>
<path d="M1724 675 c0 -93 2 -133 3 -88 2 45 2 122 0 170 -1 48 -3 12 -3 -82z"/>
<path d="M780 646 c0 -173 0 -175 -22 -179 -20 -4 -19 -4 5 -6 l27 -1 0 180
c0 99 -2 180 -5 180 -3 0 -5 -78 -5 -174z"/>
<path d="M550 637 c-3 -114 -1 -177 5 -177 6 0 9 44 7 117 -5 223 -8 238 -12
60z"/>
<path d="M2634 725 c0 -49 1 -71 3 -48 2 23 2 64 0 90 -2 26 -3 8 -3 -42z"/>
<path d="M2321 784 c0 -11 3 -14 6 -6 3 7 2 16 -1 19 -3 4 -6 -2 -5 -13z"/>
<path d="M2254 675 c0 -49 1 -71 3 -48 2 23 2 64 0 90 -2 26 -3 8 -3 -42z"/>
<path d="M2324 640 c0 -69 1 -97 3 -62 2 34 2 90 0 125 -2 34 -3 6 -3 -63z"/>
<path d="M2467 643 c-4 -65 -3 -121 1 -125 4 -4 9 48 11 117 1 69 1 125 -2
125 -2 0 -7 -53 -10 -117z"/>
<path d="M633 675 c0 -44 2 -61 4 -37 2 23 2 59 0 80 -2 20 -4 1 -4 -43z"/>
<path d="M1544 615 c0 -66 1 -92 3 -57 2 34 2 88 0 120 -2 31 -3 3 -3 -63z"/>
<path d="M1512 645 c0 -16 2 -22 5 -12 2 9 2 23 0 30 -3 6 -5 -1 -5 -18z"/>
<path d="M2252 500 c0 -14 2 -19 5 -12 2 6 2 18 0 25 -3 6 -5 1 -5 -13z"/>
<path d="M2320 495 c0 -8 4 -15 10 -15 5 0 7 7 4 15 -4 8 -8 15 -10 15 -2 0
-4 -7 -4 -15z"/>
<path d="M694 480 c0 -14 7 -20 21 -19 11 0 14 3 8 6 -7 2 -13 11 -13 19 0 8
-4 14 -8 14 -4 0 -8 -9 -8 -20z"/>
<path d="M1722 480 c0 -14 2 -19 5 -12 2 6 2 18 0 25 -3 6 -5 1 -5 -13z"/>
<path d="M2395 490 c-3 -5 -1 -10 4 -10 6 0 11 5 11 10 0 6 -2 10 -4 10 -3 0
-8 -4 -11 -10z"/>
<path d="M2078 483 c7 -3 16 -2 19 1 4 3 -2 6 -13 5 -11 0 -14 -3 -6 -6z"/>
<path d="M2468 483 c7 -3 16 -2 19 1 4 3 -2 6 -13 5 -11 0 -14 -3 -6 -6z"/>
<path d="M1542 455 c0 -16 2 -22 5 -12 2 9 2 23 0 30 -3 6 -5 -1 -5 -18z"/>
<path d="M921 433 c-1 -17 5 -23 20 -23 11 0 17 5 14 10 -4 6 -10 8 -15 5 -5
-3 -11 3 -13 12 -4 14 -5 13 -6 -4z"/>
<path d="M1181 433 c-1 -18 4 -23 22 -22 15 1 17 3 5 6 -9 2 -19 12 -21 21 -3
12 -5 10 -6 -5z"/>
<path d="M1510 419 c0 -5 9 -9 20 -9 11 0 20 2 20 4 0 2 -9 6 -20 9 -11 3 -20
1 -20 -4z"/>
<path d="M1783 413 c9 -2 23 -2 30 0 6 3 -1 5 -18 5 -16 0 -22 -2 -12 -5z"/>
<path d="M1893 413 c9 -2 23 -2 30 0 6 3 -1 5 -18 5 -16 0 -22 -2 -12 -5z"/>
<path d="M1963 413 c9 -2 25 -2 35 0 9 3 1 5 -18 5 -19 0 -27 -2 -17 -5z"/>
<path d="M1008 183 c7 -3 16 -2 19 1 4 3 -2 6 -13 5 -11 0 -14 -3 -6 -6z"/>
<path d="M900 79 c-41 -5 -39 -6 23 -7 67 -2 87 2 45 9 -13 2 -43 1 -68 -2z"/>
<path d="M508 73 c7 -3 16 -2 19 1 4 3 -2 6 -13 5 -11 0 -14 -3 -6 -6z"/>
<path d="M578 73 c17 -2 47 -2 65 0 17 2 3 4 -33 4 -36 0 -50 -2 -32 -4z"/>
<path d="M1093 73 c26 -2 68 -2 95 0 26 2 4 3 -48 3 -52 0 -74 -1 -47 -3z"/>
<path d="M1808 73 c7 -3 16 -2 19 1 4 3 -2 6 -13 5 -11 0 -14 -3 -6 -6z"/>
</g>
</svg>
