<?xml version="1.0" standalone="no"?>
<!DOCTYPE svg PUBLIC "-//W3C//DTD SVG 20010904//EN"
 "http://www.w3.org/TR/2001/REC-SVG-20010904/DTD/svg10.dtd">
<svg version="1.0" xmlns="http://www.w3.org/2000/svg"
 width="300.000000pt" height="300.000000pt" viewBox="0 0 300.000000 300.000000"
 preserveAspectRatio="xMidYMid meet">
<metadata>
Created by potrace 1.10, written by Peter Selinger 2001-2011
</metadata>
<g transform="translate(0.000000,300.000000) scale(0.100000,-0.100000)"
fill="#000000" stroke="none">
<path d="M1490 2806 c0 -2 9 -6 20 -9 11 -3 18 -1 14 4 -5 9 -34 13 -34 5z"/>
<path d="M1445 2776 c-6 -8 -93 -58 -195 -111 -418 -220 -520 -276 -520 -286
0 -5 5 -9 11 -9 5 0 7 -6 3 -12 -4 -8 -3 -10 2 -5 5 5 9 13 9 19 0 11 101 68
365 205 91 48 196 104 234 125 46 26 72 35 80 29 15 -13 31 -1 31 24 0 32 26
24 90 -28 33 -26 78 -60 100 -75 140 -94 513 -376 508 -385 -3 -6 -1 -7 6 -3
7 5 63 -31 140 -88 70 -53 134 -96 141 -96 7 0 -48 44 -121 97 -74 53 -174
127 -224 163 -49 37 -193 142 -320 235 -126 93 -243 179 -258 192 -32 26 -67
30 -82 9z"/>
<path d="M1448 2707 c-25 -24 -171 -98 -184 -93 -8 3 -13 1 -11 -5 1 -8 -479
-265 -527 -282 -5 -2 -6 -8 -2 -15 4 -8 18 -5 44 11 20 11 39 24 42 28 3 3 22
12 43 18 20 7 37 17 37 22 0 6 4 8 10 4 5 -3 18 3 30 15 11 11 26 20 34 20 18
0 204 96 229 118 9 8 17 12 17 9 0 -8 81 33 98 50 8 7 17 11 22 8 4 -3 13 2
20 10 7 8 21 15 31 15 10 0 21 5 24 10 3 6 13 10 21 10 17 0 20 -100 3 -117
-8 -8 -8 -17 0 -31 16 -30 13 -44 -6 -38 -27 8 -46 -8 -39 -32 8 -23 36 -20
36 4 0 8 5 14 10 14 6 0 10 -13 10 -29 0 -26 -7 -33 -57 -55 -31 -15 -59 -24
-62 -21 -3 4 1 10 8 14 7 5 11 13 7 19 -4 6 3 20 15 31 l22 20 -29 -4 c-16 -2
-32 -4 -36 -4 -13 -1 -9 -41 3 -41 8 0 8 -4 0 -13 -7 -9 -7 -17 0 -24 6 -6 -3
-15 -29 -25 l-39 -15 11 31 c6 17 18 36 26 42 11 10 7 11 -20 10 -35 -2 -35
-2 -32 -47 2 -49 14 -40 -140 -108 l-67 -30 6 32 c4 18 13 37 20 42 11 8 8 10
-14 9 -26 -1 -28 -4 -28 -44 0 -41 -2 -43 -55 -71 -30 -15 -58 -28 -63 -29
-13 0 5 54 22 67 13 10 11 11 -14 10 -29 -3 -30 -4 -27 -45 2 -23 1 -42 -1
-42 -3 0 -30 -11 -61 -25 l-56 -25 6 28 c4 15 11 29 16 30 17 7 7 19 -14 18
-21 -1 -23 -5 -20 -42 3 -37 1 -42 -22 -48 -14 -3 -26 -13 -26 -21 0 -19 -4
-20 68 15 33 16 72 32 87 36 14 3 25 10 25 16 0 5 5 6 10 3 6 -3 10 -1 10 5 0
6 5 8 10 5 6 -3 10 -1 10 5 0 6 4 9 9 5 5 -3 12 -1 16 5 4 6 11 8 16 5 5 -4 9
-1 9 5 0 6 5 8 10 5 6 -3 10 -1 10 5 0 6 5 8 10 5 6 -3 10 -2 10 4 0 6 7 7 17
4 11 -4 14 -3 9 5 -4 8 -2 10 7 6 8 -3 21 2 30 10 9 9 20 16 25 16 6 0 25 8
44 17 64 32 70 35 92 39 11 2 26 11 32 19 7 10 18 13 29 8 13 -4 16 -3 11 5
-5 8 -2 10 8 6 11 -4 16 0 16 11 0 9 4 14 9 10 5 -3 12 -1 16 4 3 6 13 7 22 4
12 -5 14 -3 8 7 -6 10 -4 12 8 7 9 -3 17 -1 19 4 2 6 11 7 21 4 25 -10 25
-120 0 -128 -10 -2 -26 -8 -36 -12 -16 -7 -18 -3 -15 29 2 20 8 36 13 36 6 -1
9 -12 8 -26 -1 -16 3 -24 10 -21 7 2 13 24 15 49 l3 46 -75 -31 c-76 -32 -88
-45 -62 -66 11 -9 15 -9 19 1 4 10 6 10 6 0 1 -7 -6 -15 -14 -18 -8 -4 -13
-10 -10 -15 12 -19 35 5 35 37 0 31 2 33 19 22 11 -7 17 -17 13 -23 -4 -5 -7
-16 -7 -24 0 -11 -120 -71 -143 -71 -2 0 -2 20 0 45 2 25 2 45 1 45 -19 0
-133 -57 -133 -66 0 -21 17 -25 35 -8 9 9 19 14 22 10 3 -3 14 4 24 15 16 18
20 19 25 6 8 -23 1 -60 -14 -65 -8 -2 -10 2 -5 14 4 12 2 15 -8 12 -8 -3 -14
-13 -14 -23 0 -10 -6 -20 -12 -22 -7 -3 -13 2 -13 11 0 16 -12 21 -23 9 -4 -3
-2 -12 3 -18 7 -9 -4 -17 -43 -32 l-54 -19 8 40 c5 23 8 44 9 47 0 4 -29 -5
-65 -20 -36 -14 -65 -28 -65 -31 0 -3 5 -12 10 -20 9 -13 12 -13 25 4 7 10 18
15 24 12 5 -3 17 1 26 10 21 21 27 14 19 -23 -4 -21 -14 -33 -36 -41 -25 -9
-29 -9 -24 4 3 8 -1 14 -10 14 -10 0 -14 -6 -10 -15 4 -10 -7 -21 -34 -35 -22
-11 -42 -20 -46 -20 -4 0 -4 20 -1 44 l6 45 -57 -26 c-31 -13 -58 -26 -60 -28
-2 -1 5 -10 14 -20 15 -14 15 -18 3 -26 -11 -7 -11 -9 4 -9 13 0 17 8 17 32 0
25 3 29 12 20 6 -6 13 -20 15 -31 2 -16 -9 -24 -53 -41 -31 -11 -58 -19 -60
-17 -2 2 3 46 10 98 12 83 18 131 31 257 2 17 0 32 -5 32 -4 0 -10 -26 -13
-57 -15 -146 -18 -173 -27 -241 -6 -41 -13 -84 -16 -98 -4 -14 -2 -24 5 -24 6
0 11 5 11 10 0 6 9 10 21 10 11 0 30 5 42 12 21 11 21 10 7 -8 -11 -15 -11
-16 0 -6 28 24 67 14 89 -23 11 -19 16 -35 11 -35 -5 0 -11 9 -15 19 -3 11
-12 25 -20 31 -23 19 -74 -5 -72 -33 2 -58 -4 -87 -19 -87 -8 0 -12 -4 -9 -10
4 -6 21 -2 45 10 48 25 50 25 50 0 0 -11 -7 -20 -15 -20 -18 0 -19 -12 -3 -28
10 -10 10 -15 -2 -22 -13 -9 -13 -11 0 -19 17 -11 14 -16 -17 -25 -20 -6 -21
-5 -13 31 10 43 9 46 -25 48 -18 0 -25 -5 -25 -17 0 -10 3 -17 8 -17 29 5 34
-2 17 -21 -10 -11 -13 -20 -7 -20 22 0 12 -20 -14 -31 -15 -5 -24 -12 -21 -15
3 -4 26 2 52 11 25 10 48 16 50 13 10 -9 -7 -38 -21 -38 -16 0 -18 -12 -5 -25
14 -15 -2 -79 -21 -83 -13 -3 -14 4 -7 44 10 54 8 58 -20 49 -19 -6 -20 -8 -5
-31 15 -22 15 -24 0 -24 -9 0 -16 8 -17 18 0 9 -6 -5 -13 -33 -6 -27 -8 -52
-4 -53 5 -2 28 3 53 12 43 14 45 14 45 -5 0 -11 -10 -24 -22 -29 -13 -5 -17
-9 -10 -9 10 -1 12 -13 8 -48 -4 -25 -7 -47 -8 -48 -2 -1 -38 -10 -80 -19 -43
-10 -78 -22 -78 -28 0 -6 9 -8 23 -4 12 4 34 9 49 11 15 2 46 9 70 16 24 7 46
12 50 11 3 -1 30 6 60 15 59 18 63 19 96 21 12 1 22 7 22 13 0 8 -11 9 -31 5
-27 -5 -30 -4 -24 12 4 9 9 35 12 57 5 39 4 40 -26 40 -32 0 -40 -8 -20 -21 6
-3 9 -18 6 -32 -3 -14 -1 -37 4 -50 5 -14 5 -21 0 -17 -5 3 -20 1 -33 -3 -12
-5 -34 -12 -48 -15 l-26 -6 13 96 c6 54 17 156 23 228 8 89 16 133 26 141 7 6
10 15 6 20 -4 4 1 2 11 -5 15 -12 17 -11 18 5 1 11 1 22 0 27 0 4 7 7 17 7 11
0 13 3 5 8 -15 10 -11 56 8 78 18 22 67 43 89 37 24 -6 44 -50 26 -56 -9 -4
-12 1 -9 13 8 28 -39 37 -74 14 -15 -9 -22 -19 -16 -21 9 -3 9 -12 2 -30 -5
-13 -7 -28 -4 -33 3 -5 -2 -16 -11 -25 -24 -23 -11 -29 25 -11 16 9 37 16 46
16 19 0 20 -29 0 -36 -11 -5 -12 -9 -2 -25 9 -16 9 -21 -1 -28 -10 -6 -10 -10
3 -21 14 -11 12 -14 -11 -26 -14 -8 -30 -14 -34 -14 -21 0 -61 -21 -56 -29 4
-5 18 -4 34 4 15 8 39 17 54 20 23 6 26 4 21 -14 -3 -12 -12 -21 -19 -21 -17
0 -17 -5 -1 -31 8 -15 9 -23 1 -26 -6 -2 -9 -14 -7 -27 3 -16 -1 -25 -13 -30
-23 -9 -23 -7 -15 39 10 54 6 62 -30 57 -30 -4 -30 -5 -12 -26 10 -11 18 -28
17 -36 -1 -8 -2 -23 -3 -32 0 -10 -8 -18 -17 -18 -10 0 -14 7 -12 18 2 9 10
16 18 14 11 -3 11 0 0 15 -22 28 -24 29 -17 11 3 -10 2 -20 -3 -23 -14 -8 -13
-55 1 -55 6 0 18 4 27 9 9 4 29 11 45 15 22 5 27 3 27 -13 0 -11 -9 -23 -21
-26 -14 -5 -17 -10 -10 -19 6 -7 8 -29 4 -50 -5 -34 -4 -38 13 -34 21 4 31 61
33 190 1 37 5 77 10 90 4 13 5 31 2 42 -8 22 11 172 22 169 4 -2 12 -3 18 -3
8 0 9 -19 5 -59 -4 -39 -3 -62 5 -66 7 -5 10 14 7 64 -2 41 1 73 7 76 6 3 1 3
-10 0 -15 -4 -21 0 -22 15 -1 12 4 20 13 20 8 0 12 -4 9 -10 -3 -5 -1 -10 4
-10 6 0 11 12 11 26 0 14 5 35 12 47 10 20 10 21 -5 8 -10 -7 -17 -22 -17 -32
0 -11 -7 -19 -15 -19 -8 0 -15 9 -15 20 0 51 -78 45 -137 -11 -33 -30 -43 -47
-21 -33 8 5 9 2 5 -10 -4 -10 -7 -22 -7 -27 0 -18 -17 -8 -28 16 -9 19 -19 25
-44 26 -27 0 -29 2 -13 9 11 4 63 26 115 48 52 22 149 60 215 86 66 26 143 58
170 71 83 39 160 66 163 55 2 -5 12 -20 23 -34 21 -27 39 -34 39 -15 0 5 -4 7
-10 4 -8 -5 -15 27 -8 38 1 1 -4 12 -11 24 -10 20 -9 23 15 29 20 5 31 2 41
-12 7 -10 37 -30 65 -44 29 -14 52 -29 51 -35 0 -5 14 -27 33 -48 19 -20 34
-44 34 -51 0 -8 4 -18 10 -21 21 -13 -12 51 -43 84 -37 39 -36 38 61 -12 74
-38 90 -52 49 -42 -16 4 -28 0 -38 -12 -12 -16 -12 -17 1 -6 18 14 84 11 102
-5 7 -5 41 -24 76 -42 34 -17 60 -35 57 -40 -3 -5 0 -12 6 -15 6 -4 19 -21 30
-39 10 -17 19 -26 19 -19 0 6 -12 26 -27 44 -30 35 -30 35 40 -1 42 -21 46
-25 28 -32 -12 -4 -21 -10 -21 -12 0 -3 12 -1 26 4 32 13 35 13 31 -2 -1 -7 4
-12 11 -10 20 4 113 -49 105 -61 -3 -6 -1 -7 5 -3 6 4 34 -6 63 -22 31 -18 46
-32 37 -35 -7 -3 -4 -5 7 -4 11 1 20 -2 20 -8 0 -5 -8 -9 -18 -7 -11 1 -17 -3
-15 -10 3 -7 9 -13 14 -13 19 0 33 -16 27 -32 -4 -11 -3 -14 5 -9 7 4 12 2 12
-3 0 -6 -5 -11 -12 -11 -6 0 -3 -7 8 -15 19 -16 19 -16 -1 -13 -12 2 -21 12
-23 26 -3 18 -8 21 -24 16 -16 -5 -20 -3 -15 9 4 11 -1 18 -14 22 -14 5 -19
13 -16 26 3 12 1 17 -6 12 -7 -4 -8 0 -4 11 4 9 3 15 -2 12 -4 -3 -16 3 -26
14 -10 11 -25 20 -34 19 -9 0 -11 -3 -4 -5 7 -3 9 -13 6 -22 -6 -15 -5 -15 10
-3 18 14 20 10 18 -26 -1 -11 3 -24 10 -29 8 -4 9 -3 5 4 -4 7 -2 12 3 12 11
0 17 -57 13 -110 -1 -14 -2 -36 -2 -50 -1 -24 -1 -24 -15 -6 -8 11 -15 28 -15
38 0 11 -5 15 -15 12 -8 -4 -15 -10 -15 -16 0 -5 4 -7 9 -4 5 3 11 -1 15 -9 3
-9 0 -15 -9 -15 -7 0 -17 -4 -20 -10 -3 -5 0 -7 9 -4 18 7 72 -20 80 -41 8
-21 8 -80 0 -73 -3 3 -6 18 -8 34 -2 15 -8 30 -15 32 -14 5 -15 -20 0 -35 6
-6 9 -23 7 -39 -4 -26 -5 -27 -12 -9 -4 11 -11 27 -16 36 -5 9 -6 26 -4 36 4
13 0 23 -11 27 -15 5 -17 2 -10 -26 4 -18 7 -42 6 -54 -1 -31 63 -59 72 -31 2
6 3 5 2 -4 -1 -9 2 -24 7 -33 5 -9 5 -16 0 -16 -18 0 -72 22 -72 29 0 4 -10
12 -23 18 -21 10 -23 22 -40 178 -17 162 -16 196 3 165 6 -8 10 -13 11 -10 0
3 2 12 4 20 2 10 -7 16 -27 17 -25 2 -29 -1 -25 -17 4 -16 2 -17 -18 -8 -16 7
-21 16 -17 34 2 14 0 24 -8 24 -7 0 -9 -8 -5 -20 4 -11 2 -20 -4 -20 -11 0
-15 19 -13 55 2 17 0 18 -9 5 -8 -11 -12 -12 -16 -2 -9 22 -21 12 -15 -12 8
-27 45 -60 86 -76 17 -6 26 -17 26 -32 0 -17 -3 -19 -12 -10 -19 19 -33 14
-15 -6 22 -25 21 -39 -4 -52 -19 -11 -20 -9 -14 22 8 41 -18 83 -35 58 -6 -8
-7 -24 -4 -35 4 -11 7 -32 8 -47 0 -14 4 -24 7 -22 8 5 76 -23 82 -33 3 -5 7
-37 10 -73 3 -36 3 -56 0 -46 -4 15 -7 16 -14 5 -5 -9 -7 6 -5 39 2 28 0 53
-5 54 -5 0 -15 1 -21 2 -7 1 -19 7 -27 14 -18 17 -18 16 -13 -47 4 -52 5 -54
47 -72 40 -18 61 -40 49 -52 -3 -3 -17 1 -32 9 -15 8 -33 14 -39 14 -7 0 -13
5 -13 10 0 6 -11 15 -23 19 -23 9 -25 17 -36 148 -20 224 -22 237 -33 244 -7
5 -7 8 1 10 17 6 -25 67 -55 81 -20 10 -27 9 -34 -2 -5 -8 -6 -18 -4 -22 7
-11 -1 -10 -30 3 -14 7 -26 23 -29 38 -6 32 2 43 10 13 3 -12 9 -22 14 -22 14
0 -16 52 -42 75 l-24 20 18 -21 c27 -33 20 -38 -14 -9 -32 27 -60 30 -65 7 -1
-7 0 -8 3 -2 8 18 23 11 23 -11 0 -18 2 -19 15 -9 8 7 15 11 16 9 0 -2 3 -20
6 -39 2 -19 9 -42 14 -50 11 -17 6 40 -6 62 -3 7 1 4 9 -6 9 -11 16 -35 16
-53 l0 -33 -40 20 c-34 17 -40 25 -40 52 0 30 -1 31 -19 14 -27 -25 -19 -38
43 -69 30 -15 57 -35 60 -43 10 -27 7 -136 -4 -129 -6 3 -7 17 -4 29 4 18 1
25 -17 29 -30 8 -38 0 -11 -10 15 -6 19 -12 13 -22 -7 -11 -13 -11 -32 2 -30
19 -83 21 -66 2 7 -7 15 -9 18 -3 8 12 105 -38 113 -58 3 -9 6 -42 6 -74 l0
-59 -29 10 c-31 11 -48 45 -45 87 1 12 -4 22 -10 22 -6 0 -5 4 3 9 11 7 9 11
-9 21 -27 14 -27 14 -38 -35 -13 -59 0 -79 65 -101 64 -22 73 -37 73 -120 0
-30 4 -54 8 -54 5 0 7 26 4 58 -22 338 -26 452 -17 449 5 -2 10 -14 9 -25 0
-12 2 -20 4 -17 3 3 12 -4 19 -15 15 -21 82 -54 91 -45 3 3 0 5 -7 5 -7 0 -9
5 -5 12 4 7 3 8 -4 4 -8 -4 -12 0 -12 11 0 15 -2 16 -10 3 -9 -13 -10 -13 -10
0 0 12 -2 12 -9 1 -6 -9 -10 -3 -13 20 -6 37 0 69 13 69 5 0 6 -7 2 -16 -5
-13 -2 -15 14 -10 16 5 21 2 19 -11 0 -10 5 -17 12 -16 6 2 12 -4 12 -12 0 -8
-5 -15 -12 -15 -7 0 -5 -5 4 -12 11 -9 18 -36 22 -83 8 -82 -1 -103 -33 -86
-12 7 -19 16 -16 21 3 6 -1 7 -9 4 -11 -4 -16 0 -16 11 0 9 5 13 10 10 6 -3
10 -1 10 4 0 6 -9 11 -20 11 -14 0 -20 -7 -20 -23 0 -17 9 -26 33 -35 62 -22
71 -35 77 -106 3 -40 2 -65 -4 -63 -5 2 -10 25 -10 53 -1 29 -6 52 -14 57 -20
13 -28 -1 -14 -23 14 -23 16 -44 3 -35 -6 3 -15 -3 -21 -12 -8 -15 -9 -13 -4
8 3 15 1 30 -5 33 -6 4 -11 12 -11 17 0 6 5 7 10 4 13 -8 8 18 -5 27 -5 4 -16
8 -24 8 -10 0 -11 -3 -2 -13 15 -19 23 -90 11 -97 -6 -4 14 -15 45 -25 39 -14
55 -24 55 -37 0 -20 -11 -23 -27 -7 -5 5 -24 12 -42 14 -34 4 -42 -13 -16 -35
9 -8 15 -8 15 -2 0 6 -6 13 -12 15 -8 3 -6 6 5 6 12 1 17 -7 17 -24 0 -29 -12
-32 -34 -9 -19 18 -20 14 -4 -21 6 -14 14 -21 18 -16 7 12 50 3 50 -11 0 -5
-9 -4 -20 2 -12 7 -20 7 -20 1 0 -5 8 -12 18 -15 14 -5 17 -19 19 -73 2 -38 5
-94 8 -126 5 -56 4 -58 -16 -55 -12 2 -24 -3 -26 -9 -3 -8 4 -13 16 -13 16 0
21 -6 21 -25 0 -31 -25 -33 -33 -3 -10 38 -15 15 -7 -32 4 -25 8 -35 9 -22 1
28 21 29 21 1 0 -11 4 -17 10 -14 5 3 10 4 10 0 0 -3 -10 -10 -22 -16 -22 -9
-22 -9 2 -5 24 5 25 3 29 -52 3 -31 5 -79 5 -107 1 -27 6 -53 11 -57 6 -4 11
-12 11 -18 1 -5 2 -15 3 -21 0 -5 4 -8 9 -6 4 2 21 -2 37 -10 l30 -14 -31 5
c-18 3 -35 2 -38 -2 -4 -3 -23 -5 -41 -3 l-35 3 7 -64 c3 -37 12 -66 20 -71 7
-5 11 -12 8 -18 -4 -5 3 -9 15 -9 13 0 20 -5 17 -12 -2 -7 -16 -13 -31 -13
-14 1 -25 -4 -23 -10 3 -10 120 -20 154 -13 15 3 15 5 1 18 -20 21 -33 60 -19
60 6 0 11 8 11 18 0 14 -2 15 -10 2 -8 -12 -10 -11 -10 6 0 16 -8 23 -31 28
-42 8 -52 -1 -46 -40 7 -42 2 -43 -18 -4 -19 36 -19 50 -1 50 8 0 18 5 22 11
5 8 -2 10 -22 6 -27 -5 -27 -4 -9 9 12 9 14 14 5 14 -7 0 -11 2 -8 5 8 9 59
-6 53 -15 -3 -4 3 -10 13 -13 9 -2 26 -8 36 -13 14 -5 17 -4 12 4 -4 7 -1 12
6 13 7 0 -3 6 -22 14 -28 10 -32 14 -17 20 10 4 32 0 51 -9 19 -9 39 -16 45
-16 18 0 61 -23 61 -32 0 -5 -14 -7 -31 -3 -29 7 -30 6 -17 -15 10 -18 10 -24
1 -27 -7 -3 -13 -18 -13 -34 0 -18 4 -28 10 -24 6 4 8 11 5 16 -4 5 -1 9 5 9
6 0 9 4 6 9 -3 5 0 14 8 20 8 7 16 8 18 4 3 -4 3 -2 2 5 -2 7 2 21 8 32 11 17
13 17 25 2 7 -10 13 -12 13 -5 0 11 -12 24 -42 48 -7 6 -26 9 -43 9 -16 -1
-41 4 -55 11 -23 13 -24 14 -6 21 12 5 21 3 24 -4 2 -7 13 -12 25 -12 21 0 21
0 -1 16 -13 9 -32 14 -43 11 -27 -7 -79 12 -79 29 0 10 6 11 23 5 12 -4 28 -6
35 -4 6 3 12 -1 12 -9 1 -8 4 -7 11 4 10 18 38 14 52 -8 4 -8 19 -10 40 -7 45
7 47 13 5 13 -32 0 -36 3 -42 31 -3 17 -6 44 -6 60 0 16 -3 29 -8 29 -4 0 -6
-23 -5 -51 3 -65 -6 -58 -17 13 l-8 53 1 -55 c1 -52 -1 -55 -23 -52 -13 1 -28
8 -32 15 -6 9 -8 9 -8 0 0 -7 -7 -13 -15 -13 -17 0 -34 29 -28 48 3 6 0 12 -5
12 -5 0 -12 13 -14 29 -3 23 0 31 16 36 19 7 19 8 3 12 -10 3 -16 11 -14 18 3
7 0 18 -6 24 -8 8 -5 11 13 12 14 0 20 3 13 5 -7 3 -9 13 -6 22 4 13 3 14 -5
3 -14 -20 -32 -4 -32 27 0 15 4 23 8 17 15 -21 32 -15 31 12 -1 17 -3 21 -6
11 -5 -20 -12 -22 -32 -9 -8 5 -11 16 -8 26 4 9 10 14 15 11 4 -2 14 0 22 5
12 7 11 10 -8 15 -18 5 -21 11 -16 28 4 11 11 24 16 27 5 3 3 9 -6 12 -19 7
-22 47 -3 47 6 0 4 5 -5 11 -10 5 -18 20 -18 32 1 21 1 21 15 -3 8 -14 15 -20
15 -15 0 6 7 1 15 -9 8 -11 18 -16 22 -11 5 4 2 10 -4 12 -7 3 -13 15 -13 28
0 16 -7 25 -25 29 -16 4 -25 13 -25 26 0 24 0 24 42 6 18 -8 62 -23 98 -34 36
-12 123 -39 194 -62 70 -23 133 -39 140 -37 18 7 8 97 -11 97 -12 0 -13 -3 -3
-15 6 -8 10 -20 7 -27 -2 -7 0 -22 6 -32 8 -16 6 -18 -8 -13 -9 4 -22 7 -27 7
-6 0 -9 2 -6 6 3 3 2 21 -2 40 -5 20 -4 50 1 67 7 24 6 35 -4 42 -8 6 -21 58
-30 126 -21 145 -21 164 -1 127 18 -35 50 -53 60 -36 10 16 24 -45 17 -72 -6
-23 -33 -35 -33 -15 0 8 -5 15 -10 15 -7 0 -7 -6 -1 -19 6 -10 7 -21 4 -25 -4
-3 8 -12 25 -18 30 -12 42 -31 25 -41 -5 -2 -2 -2 5 -1 15 4 16 -32 2 -41 -11
-7 -4 -45 10 -55 3 -3 10 -13 13 -24 6 -14 4 -17 -9 -12 -12 5 -15 2 -10 -10
3 -8 6 -27 6 -40 0 -13 4 -24 8 -24 5 0 7 15 6 32 -3 30 -3 31 5 8 17 -47 13
-62 -11 -55 -17 4 -14 1 7 -11 36 -20 45 -32 44 -59 0 -18 -1 -18 -9 3 -11 26
-34 30 -26 5 2 -10 7 -33 11 -51 8 -39 24 -42 26 -4 2 25 2 25 6 3 8 -43 -13
-46 -97 -14 -8 4 -18 6 -22 5 -3 -1 -29 5 -57 14 -76 22 -131 26 -124 8 6 -15
23 -19 23 -5 0 5 64 -8 142 -28 107 -27 144 -41 146 -53 3 -15 -4 -17 -50 -13
-29 2 -45 2 -35 -1 9 -3 17 -9 18 -12 1 -4 3 -25 5 -46 3 -40 19 -59 41 -51
14 5 18 0 27 -39 7 -27 6 -28 -10 -15 -16 12 -17 12 -12 -2 3 -9 9 -41 13 -72
7 -51 10 -57 30 -57 15 0 26 -8 30 -20 4 -13 16 -20 33 -21 17 -1 21 -3 10 -6
-10 -2 -18 -9 -18 -14 0 -5 12 -6 26 -3 17 4 29 2 35 -7 14 -22 11 -29 -11
-29 -11 0 -20 -5 -20 -11 0 -6 6 -9 13 -6 10 4 13 -2 9 -19 -3 -18 0 -24 13
-24 13 0 16 6 11 24 -4 16 -1 26 9 30 8 3 12 12 9 20 -3 8 -1 17 5 21 6 3 11
-2 11 -12 0 -11 6 -25 13 -32 10 -11 9 -13 -5 -8 -10 3 -20 2 -23 -3 -4 -6 1
-10 10 -10 8 0 20 -10 25 -22 7 -18 9 -19 9 -5 1 20 19 23 27 3 7 -19 35 -10
56 19 17 22 17 23 -6 21 -13 0 -22 -4 -20 -8 2 -4 0 -9 -6 -13 -5 -3 -10 -2
-10 3 0 6 -7 13 -16 16 -8 3 -12 2 -9 -4 3 -6 0 -10 -8 -10 -7 0 -14 6 -14 13
0 6 -3 23 -7 36 -5 15 -4 21 2 17 6 -3 9 5 8 20 -1 18 -6 24 -18 21 -20 -6
-29 11 -17 34 7 13 4 15 -16 11 -23 -4 -36 -22 -16 -22 5 0 7 -9 4 -20 -3 -11
-10 -20 -15 -20 -6 0 -8 7 -4 15 4 11 -2 15 -20 15 -14 0 -22 -4 -19 -10 3 -5
0 -10 -8 -10 -20 0 -62 251 -44 262 7 4 37 8 67 8 30 0 62 5 70 11 11 7 -4 8
-50 4 -36 -4 -72 -8 -81 -11 -13 -4 -19 11 -32 80 -8 47 -13 95 -10 107 4 14
2 20 -4 16 -7 -4 -11 2 -11 16 1 42 -34 202 -46 212 -11 9 -30 98 -42 200 -4
30 -4 30 7 5 7 -15 13 -20 16 -12 8 21 -5 42 -25 42 -15 0 -18 7 -17 30 1 16
-2 27 -5 25 -4 -3 -13 2 -20 10 -18 21 -29 18 -23 -6 4 -16 8 -17 14 -7 6 9 9
7 9 -9 0 -13 4 -23 9 -23 5 0 7 -10 3 -22 -5 -21 -6 -21 -13 -2 -5 12 -8 13
-8 5 -1 -12 -4 -12 -13 -3 -10 10 -10 15 0 21 11 7 10 10 -3 15 -9 3 -14 10
-11 15 3 5 -2 8 -12 7 -9 0 -17 6 -17 14 0 8 -4 18 -10 22 -9 7 -17 48 -9 48
2 0 20 -8 39 -17 31 -15 34 -18 18 -25 -13 -6 -12 -7 7 -4 14 3 34 -2 44 -10
23 -16 36 -18 36 -5 0 5 -11 12 -24 15 -13 3 -24 11 -23 18 1 41 -6 59 -34 78
-16 12 -33 19 -37 16 -3 -4 0 -11 8 -16 38 -24 50 -36 50 -52 0 -22 -2 -22
-50 2 -33 17 -39 25 -42 56 -2 30 -10 41 -40 61 -31 19 -38 20 -38 8 0 -9 5
-13 10 -10 6 3 10 1 10 -4 0 -6 5 -11 11 -11 6 0 18 -7 26 -16 14 -13 14 -17
2 -25 -10 -6 -10 -9 -1 -9 6 0 12 -5 12 -10 0 -6 -13 -4 -30 5 -17 9 -28 19
-26 24 3 4 -5 7 -17 7 -19 -1 -23 6 -27 42 -4 37 -10 46 -47 68 -33 19 -43 22
-43 11 0 -14 27 -32 42 -29 12 3 40 -46 36 -62 -2 -12 -13 -9 -55 15 -47 27
-53 34 -53 64 0 36 -16 57 -69 88 -27 16 -31 16 -31 3 0 -9 7 -16 15 -16 8 0
15 -4 15 -10 0 -5 6 -10 14 -10 11 0 30 -58 22 -67 -1 -1 -97 52 -214 118
l-212 120 0 47 c0 47 -1 48 -57 82 -75 46 -73 45 -73 20 0 -17 4 -20 20 -15
14 5 20 2 20 -9 0 -15 12 -21 33 -17 4 1 10 -6 13 -14 4 -8 12 -15 20 -15 9 0
14 -12 14 -36 l0 -36 -57 32 c-32 18 -67 41 -79 51 -11 11 -33 19 -48 19 l-27
0 3 68 c3 61 5 67 25 70 17 3 26 -3 32 -22 7 -18 15 -23 30 -19 12 3 18 9 15
14 -3 5 -1 9 5 9 5 0 9 -12 8 -27 -2 -24 2 -28 21 -25 15 2 22 -2 22 -13 0 -9
4 -14 9 -10 6 3 19 -5 31 -17 12 -13 25 -24 31 -24 5 -1 14 -2 20 -3 5 0 7 -5
4 -11 -3 -5 -3 -10 2 -11 26 -2 47 -9 52 -16 3 -4 12 -9 20 -11 16 -4 102 -62
113 -77 5 -7 8 -7 8 0 0 6 4 5 8 -2 4 -6 14 -13 22 -15 8 -2 23 -11 34 -20 10
-10 22 -15 26 -13 5 3 10 -1 13 -8 3 -8 30 -26 61 -42 31 -15 63 -36 72 -47
10 -10 22 -18 29 -18 7 0 31 -13 53 -30 23 -16 44 -30 47 -30 4 0 36 -20 73
-44 37 -24 77 -46 90 -50 12 -4 22 -12 22 -17 0 -5 12 -9 26 -9 14 0 23 4 19
10 -3 6 -14 10 -24 10 -18 0 -36 46 -21 52 4 2 -2 12 -12 23 -20 20 -20 20
-13 -20 5 -28 4 -37 -3 -30 -6 6 -13 25 -15 43 -3 19 -8 36 -11 40 -12 12 -15
-5 -7 -36 8 -25 7 -30 -5 -25 -8 3 -14 19 -14 38 0 18 -7 38 -15 45 -15 12
-22 0 -8 -14 4 -4 9 -19 11 -33 3 -23 1 -25 -12 -13 -9 7 -16 24 -16 39 0 29
-16 59 -25 49 -4 -4 -3 -13 1 -20 11 -17 13 -48 3 -48 -13 0 -20 18 -21 50 -1
17 -7 35 -15 41 -16 14 -17 1 -3 -35 12 -32 7 -32 -37 -5 -29 18 -34 26 -31
51 3 16 -1 33 -9 40 -17 14 -29 3 -16 -14 14 -17 13 -50 -1 -45 -6 2 -13 21
-16 43 -7 46 -18 67 -31 58 -6 -3 -6 -10 -1 -17 5 -7 12 -24 16 -40 6 -26 5
-27 -14 -15 -14 9 -20 23 -20 49 0 20 -7 42 -15 49 -13 10 -15 9 -15 -9 0 -11
4 -21 9 -21 5 0 7 -9 4 -19 -8 -31 -33 -13 -33 24 0 39 -8 65 -21 65 -5 0 -9
-9 -9 -21 0 -11 4 -18 9 -15 5 3 8 -5 7 -19 -1 -29 -1 -28 -26 -15 -15 8 -17
16 -11 38 9 31 -6 62 -31 62 -9 0 -22 10 -31 23 -17 25 -34 17 -21 -10 4 -10
8 -22 9 -28 0 -5 4 -16 8 -22 11 -17 -3 -16 -26 1 -12 9 -17 25 -15 48 2 41
-7 58 -32 58 -11 0 -24 9 -30 20 -6 11 -17 20 -25 20 -19 0 -19 -9 1 -31 8 -9
14 -27 12 -38 -3 -20 -4 -21 -25 -6 -17 12 -23 26 -23 54 0 35 -14 61 -32 61
-11 0 -10 -58 1 -64 5 -4 7 4 3 16 -3 14 -2 19 6 14 13 -8 17 -56 5 -56 -32 2
-63 64 -41 80 12 9 -23 52 -38 46 -7 -3 -22 6 -33 19 -23 30 -41 32 -41 5 0
-13 5 -18 15 -14 11 5 15 -1 15 -25 0 -30 -13 -41 -25 -21 -3 6 -1 10 5 10 6
0 8 5 4 11 -5 8 -9 8 -14 -1 -4 -7 -13 -9 -19 -6 -14 9 -15 66 -1 66 6 0 0 12
-14 27 -14 15 -28 24 -32 20 -4 -4 -16 1 -26 10 -17 15 -18 15 -13 1 4 -9 13
-19 21 -22 8 -3 14 -12 14 -20 0 -10 6 -13 15 -10 10 4 15 0 15 -11 0 -11 -5
-15 -15 -11 -8 3 -15 0 -15 -7 -1 -7 -6 -5 -14 6 -8 10 -26 17 -44 17 l-32 0
3 143 2 142 25 0 c18 0 26 -6 28 -22 2 -13 8 -23 14 -23 11 0 101 -61 106 -72
2 -5 8 -8 13 -8 5 0 18 -8 28 -17 38 -34 51 -44 51 -36 0 4 4 3 8 -2 11 -16
80 -65 90 -65 6 0 12 -3 14 -7 4 -10 74 -63 82 -63 4 0 50 -31 104 -70 53 -38
128 -91 165 -117 38 -27 104 -74 148 -106 78 -56 130 -84 128 -69 0 4 -49 39
-107 77 -59 39 -107 76 -107 82 0 6 -4 15 -9 20 -5 5 -6 3 -2 -4 11 -20 -10
-15 -41 10 -15 13 -39 30 -53 39 -14 9 -52 36 -86 60 -33 24 -129 90 -212 148
-83 58 -149 110 -147 117 2 6 -4 17 -13 25 -15 12 -16 11 -3 -4 7 -10 10 -18
7 -18 -11 0 -118 75 -155 109 -37 33 -71 39 -93 18z m262 -388 c0 -22 -4 -27
-17 -22 -12 5 -14 3 -8 -7 5 -9 4 -11 -4 -6 -6 4 -9 11 -6 16 3 5 1 11 -5 15
-5 3 -10 20 -10 36 0 29 0 29 25 13 17 -11 25 -25 25 -45z m190 -116 c0 -26
-3 -27 -31 -13 -12 7 -19 21 -19 41 l0 30 25 -18 c13 -10 25 -28 25 -40z m97
-35 c11 -15 15 -58 5 -58 -17 1 -37 27 -38 48 -1 24 18 30 33 10z m-1187 -158
c0 -16 -4 -30 -10 -30 -5 0 -10 14 -10 30 0 17 5 30 10 30 6 0 10 -13 10 -30z
m158 -91 c-3 -54 -18 -49 -18 7 0 28 4 43 10 39 6 -4 10 -24 8 -46z m792 41
c0 -5 -2 -10 -4 -10 -3 0 -8 5 -11 10 -3 6 -1 10 4 10 6 0 11 -4 11 -10z m368
-20 c1 -16 -1 -30 -5 -30 -5 0 -9 14 -10 30 -1 17 1 30 5 30 4 0 9 -13 10 -30z
m-1192 -16 c1 -34 -5 -54 -17 -54 -5 0 -8 20 -7 45 3 49 22 56 24 9z m64 2 c0
-3 -4 -8 -10 -11 -5 -3 -10 -1 -10 4 0 6 5 11 10 11 6 0 10 -2 10 -4z m918
-51 c-3 -3 -9 2 -12 12 -6 14 -5 15 5 6 7 -7 10 -15 7 -18z m-1158 -30 c0 -19
-5 -37 -11 -40 -15 -10 -16 -5 -11 42 5 50 22 48 22 -2z m30 31 c0 -8 4 -16 9
-18 4 -1 0 -12 -10 -22 -19 -19 -19 -19 -19 17 0 20 5 37 10 37 6 0 10 -6 10
-14z m1275 -66 c3 -5 1 -10 -4 -10 -6 0 -11 5 -11 10 0 6 2 10 4 10 3 0 8 -4
11 -10z m28 -109 c3 -14 1 -18 -9 -14 -8 3 -14 11 -14 19 0 21 17 17 23 -5z
m-316 -40 c1 -28 -3 -41 -10 -38 -7 2 -13 23 -14 46 -1 28 3 41 10 38 7 -2 13
-23 14 -46z m553 4 c8 19 9 19 9 -3 1 -14 10 -26 26 -32 14 -5 25 -16 25 -25
0 -19 -11 -19 -36 0 -27 20 -37 19 -24 -4 5 -11 7 -27 4 -35 -3 -9 -1 -16 5
-16 6 0 8 -7 5 -15 -4 -10 6 -20 29 -31 31 -15 35 -21 40 -68 3 -28 9 -66 13
-84 l7 -33 -29 12 c-16 7 -33 18 -39 24 -5 6 -17 14 -25 17 -12 4 -20 41 -33
144 -10 77 -19 148 -21 159 -6 36 6 38 21 4 14 -31 16 -32 23 -14z m-170 -18
c0 -17 -5 -23 -20 -22 -28 2 -38 15 -12 15 13 0 22 6 22 15 0 8 2 15 5 15 3 0
5 -10 5 -23z m223 -76 c-15 -11 -13 -31 2 -37 19 -8 20 -24 1 -24 -8 0 -21 20
-29 44 l-15 45 24 -11 c14 -6 21 -14 17 -17z m-383 -27 c0 -8 -4 -12 -10 -9
-5 3 -10 13 -10 21 0 8 5 12 10 9 6 -3 10 -13 10 -21z m131 12 c1 -6 3 -25 5
-43 3 -26 1 -31 -12 -26 -9 3 -14 13 -11 24 3 11 1 22 -4 25 -5 3 -9 11 -9 18
0 15 30 17 31 2z m-1431 -48 c0 -5 -7 -8 -15 -8 -15 0 -20 21 -8 33 7 7 23
-11 23 -25z m1805 -40 c6 -4 2 -8 -7 -8 -10 0 -18 7 -18 17 0 9 3 12 8 7 4 -5
12 -12 17 -16z m-495 -17 c0 -23 16 -37 23 -19 2 7 9 -7 15 -32 l11 -45 -6 54
-5 53 31 -18 c17 -10 32 -23 32 -29 1 -5 3 -20 4 -32 1 -12 5 -29 9 -38 4 -11
2 -15 -6 -11 -7 2 -31 10 -54 16 -35 10 -40 15 -36 35 3 16 -2 27 -17 34 -21
12 -30 51 -11 51 6 0 10 -9 10 -19z m150 -88 c0 -26 5 -36 20 -40 11 -3 20 -9
20 -14 0 -5 -13 -3 -30 6 -26 13 -30 21 -30 56 0 24 4 38 10 34 6 -3 10 -22
10 -42z m91 -2 c1 -9 3 -23 4 -31 1 -8 3 -21 4 -27 0 -7 6 -13 12 -13 7 0 9
12 5 35 -4 22 -3 35 4 35 5 0 10 -13 10 -30 0 -16 5 -30 11 -30 5 0 7 4 4 10
-3 5 -2 18 4 27 7 13 9 8 8 -22 -1 -21 3 -40 10 -42 8 -3 10 8 6 37 -5 35 -3
40 11 34 9 -3 21 -15 26 -25 13 -23 13 -32 -1 -24 -6 4 -5 -2 2 -13 7 -12 11
-24 7 -27 -3 -3 -42 6 -86 21 -84 27 -92 35 -92 96 0 26 2 27 25 16 14 -6 26
-18 26 -27z m-61 -1 c0 -16 -2 -30 -4 -30 -2 0 -6 14 -8 30 -3 17 -1 30 4 30
4 0 8 -13 8 -30z m221 -52 c2 -40 7 -59 14 -65 4 -5 5 2 2 14 -3 13 -1 26 4
29 5 3 9 -9 9 -25 0 -30 -14 -39 -35 -23 -13 9 -18 82 -5 82 6 0 10 -6 11 -12z
m146 -50 c-3 -8 -6 -5 -6 6 -1 11 2 17 5 13 3 -3 4 -12 1 -19z m17 -330 c4
-22 3 -38 -2 -38 -13 0 -22 25 -22 63 0 40 15 24 24 -25z m42 -58 c-2 -8 -4
-1 -5 15 -1 24 -3 27 -12 15 -8 -12 -9 -10 -5 10 3 14 6 32 7 40 0 8 5 -3 10
-25 5 -22 8 -46 5 -55z m11 -42 c-3 -8 -6 -5 -6 6 -1 11 2 17 5 13 3 -3 4 -12
1 -19z m16 -86 c6 -29 5 -31 -8 -19 -8 8 -11 24 -8 36 7 27 8 25 16 -17z m140
-98 c-23 -17 -39 -18 -24 -1 6 8 8 16 5 20 -3 3 4 3 15 0 20 -5 20 -6 4 -19z
m-660 -44 c3 -11 2 -20 -2 -20 -4 0 -6 -13 -3 -30 4 -25 1 -30 -17 -30 -23 0
-27 6 -35 63 -4 35 -3 37 23 37 20 0 30 -6 34 -20z"/>
<path d="M2344 1474 c3 -8 6 -18 6 -20 0 -2 7 -4 15 -4 9 0 20 -11 25 -25 13
-35 19 -31 10 8 -4 17 -12 31 -18 30 -7 -2 -12 1 -12 6 0 5 -7 12 -16 15 -12
5 -15 2 -10 -10z"/>
<path d="M2354 1424 c3 -9 6 -22 6 -29 0 -7 6 -15 13 -18 11 -4 11 2 3 29 -6
19 -15 34 -20 34 -4 0 -5 -7 -2 -16z"/>
<path d="M2401 1374 c0 -11 3 -14 6 -6 3 7 2 16 -1 19 -3 4 -6 -2 -5 -13z"/>
<path d="M2091 1404 c0 -11 3 -14 6 -6 3 7 2 16 -1 19 -3 4 -6 -2 -5 -13z"/>
<path d="M2085 590 c4 -6 11 -8 16 -5 14 9 11 15 -7 15 -8 0 -12 -5 -9 -10z"/>
<path d="M1310 2659 c-19 -11 -30 -19 -23 -19 19 0 63 22 63 32 0 4 -1 7 -2 7
-2 -1 -19 -10 -38 -20z"/>
<path d="M1391 2621 c-17 -11 -7 -45 12 -39 13 5 23 48 10 48 -4 0 -14 -4 -22
-9z"/>
<path d="M1545 2608 c3 -13 8 -32 10 -43 1 -11 7 -19 12 -18 5 1 10 -5 10 -13
0 -21 -13 -17 -41 13 -14 15 -28 24 -32 20 -4 -4 -2 -7 4 -7 7 0 12 -9 12 -21
0 -11 5 -17 10 -14 6 3 10 1 10 -5 0 -6 4 -9 9 -6 5 3 12 -1 15 -10 3 -8 10
-12 16 -9 5 3 10 1 10 -5 0 -6 5 -8 10 -5 6 3 10 -1 10 -9 0 -8 16 -23 35 -32
19 -9 35 -20 35 -25 0 -5 3 -8 8 -8 18 3 32 -2 46 -17 9 -8 16 -11 16 -5 0 6
-8 16 -18 22 -13 8 -16 21 -14 53 3 30 -1 46 -12 55 -21 18 -33 6 -16 -14 7
-9 15 -30 17 -46 l3 -31 -35 22 c-19 12 -39 19 -45 15 -5 -3 -10 1 -10 9 0 8
-8 19 -17 25 -13 7 -17 20 -14 51 2 29 -3 48 -15 61 -23 26 -38 24 -29 -3z"/>
<path d="M1312 2581 c-10 -6 -11 -18 -4 -48 10 -44 17 -37 -94 -92 l-41 -20 7
45 c6 37 4 44 -7 39 -8 -3 -19 -5 -24 -5 -6 0 -6 -8 1 -19 15 -29 13 -71 -4
-71 -8 0 -21 -9 -29 -20 -8 -11 -16 -17 -20 -14 -11 11 -48 -8 -57 -29 -6 -15
-8 -4 -4 36 5 57 1 65 -25 48 -12 -8 -12 -13 -3 -24 17 -20 10 -54 -14 -72
-28 -21 -30 -19 -26 25 4 40 -2 47 -27 31 -8 -5 -9 -11 -3 -15 21 -13 10 -64
-15 -75 -13 -6 -25 -11 -27 -11 -2 0 0 18 4 40 8 41 5 46 -19 31 -9 -6 -10
-14 -5 -22 15 -23 10 -53 -11 -66 -27 -17 -35 -16 -29 2 4 8 1 15 -5 15 -6 0
-11 -9 -11 -20 0 -17 -26 -40 -46 -40 -3 0 -4 18 0 40 5 32 3 38 -9 34 -15 -6
-16 -57 -1 -71 3 -4 -7 -12 -24 -19 -16 -7 -30 -20 -30 -29 0 -12 4 -14 19 -5
11 5 22 15 24 22 4 10 6 10 6 0 1 -10 9 -8 30 7 15 11 31 18 34 14 4 -3 9 2
13 11 3 9 10 13 15 10 5 -3 12 2 15 11 6 13 9 14 16 3 7 -10 13 -8 28 11 11
13 20 19 20 15 0 -5 5 -2 10 6 7 11 10 11 10 2 0 -7 5 -10 10 -7 6 4 8 11 5
16 -3 5 1 6 9 3 9 -3 16 -1 16 6 0 6 5 8 10 5 6 -3 10 -2 10 4 0 6 7 8 15 5 8
-4 17 1 21 9 3 9 12 13 20 10 8 -3 14 -2 13 3 -3 20 2 28 9 16 12 -18 42 -4
34 16 -5 15 -4 16 13 2 17 -14 18 -13 12 3 -3 9 -2 17 3 17 6 0 10 -4 10 -10
0 -5 20 0 45 12 25 12 45 29 45 37 0 14 1 14 10 1 8 -13 10 -12 10 3 0 9 5 17
10 17 6 0 10 -4 10 -9 0 -5 23 2 50 15 28 14 48 29 45 34 -3 5 0 7 8 4 8 -3
14 2 14 11 0 18 -11 19 -37 5 -13 -7 -17 -16 -13 -27 6 -15 5 -16 -9 -3 -9 8
-14 19 -11 24 3 4 -1 13 -8 18 -11 7 -11 11 -1 15 13 5 17 43 5 43 -5 0 -14
-4 -21 -9z m28 -101 c0 -5 -4 -10 -10 -10 -5 0 -10 5 -10 10 0 6 5 10 10 10 6
0 10 -4 10 -10z"/>
<path d="M1362 2560 c0 -19 2 -27 5 -17 2 9 2 25 0 35 -3 9 -5 1 -5 -18z"/>
<path d="M1616 2558 c4 -13 8 -31 9 -41 1 -10 9 -25 18 -34 16 -16 17 -16 17
10 0 16 -7 30 -16 34 -12 4 -13 8 -3 14 10 6 10 11 0 23 -20 23 -34 20 -25 -6z"/>
<path d="M1390 2554 c0 -9 5 -14 12 -12 18 6 21 28 4 28 -9 0 -16 -7 -16 -16z"/>
<path d="M1062 2528 c-29 -17 -51 -32 -48 -35 2 -3 15 2 28 10 12 8 41 25 63
36 22 12 33 21 25 20 -8 0 -39 -14 -68 -31z"/>
<path d="M1760 2545 c7 -9 15 -13 17 -11 7 7 -7 26 -19 26 -6 0 -6 -6 2 -15z"/>
<path d="M1230 2535 c-9 -11 -10 -18 -1 -29 6 -7 9 -21 5 -30 -5 -12 -2 -15
10 -10 11 4 16 18 16 45 0 41 -9 49 -30 24z"/>
<path d="M1282 2520 c0 -19 2 -27 5 -17 2 9 2 25 0 35 -3 9 -5 1 -5 -18z"/>
<path d="M1202 2485 c0 -16 2 -22 5 -12 2 9 2 23 0 30 -3 6 -5 -1 -5 -18z"/>
<path d="M1740 2481 c0 -5 7 -16 15 -25 8 -8 15 -21 15 -28 0 -10 -3 -9 -10 2
-8 13 -10 13 -10 -2 0 -9 4 -19 9 -22 5 -3 8 -14 6 -24 -1 -9 0 -11 2 -4 3 6
8 12 13 12 11 0 1 71 -13 88 -11 14 -27 16 -27 3z"/>
<path d="M1086 2465 c-15 -12 -17 -17 -7 -29 7 -8 10 -20 7 -25 -4 -5 -2 -12
4 -16 14 -8 22 16 18 53 -3 28 -5 29 -22 17z"/>
<path d="M1132 2450 c0 -14 2 -19 5 -12 2 6 2 18 0 25 -3 6 -5 1 -5 -13z"/>
<path d="M1804 2435 c3 -9 6 -21 6 -26 0 -6 5 -7 10 -4 6 3 10 2 10 -4 0 -5
-5 -13 -11 -17 -7 -4 -7 -10 -1 -16 6 -6 8 -18 4 -26 -5 -14 -4 -14 9 -3 21
20 13 84 -13 100 -18 11 -20 11 -14 -4z"/>
<path d="M1397 2413 c-12 -12 -7 -22 8 -17 8 4 15 10 15 15 0 11 -14 12 -23 2z"/>
<path d="M1860 2392 c0 -14 6 -22 16 -22 14 0 14 -3 3 -16 -10 -13 -10 -17 1
-24 8 -5 11 -12 7 -16 -4 -4 -16 1 -27 11 -18 17 -20 17 -20 1 0 -9 4 -15 9
-12 5 3 12 -1 15 -10 4 -9 9 -14 12 -11 4 3 13 -1 21 -9 9 -8 18 -12 22 -9 3
4 -1 12 -9 18 -10 8 -14 25 -12 48 2 25 -3 40 -18 54 -20 18 -20 18 -20 -3z"/>
<path d="M1478 2393 c7 -3 16 -2 19 1 4 3 -2 6 -13 5 -11 0 -14 -3 -6 -6z"/>
<path d="M700 2366 c0 -31 6 -34 13 -6 3 11 1 23 -4 26 -5 3 -9 -6 -9 -20z"/>
<path d="M1780 2360 c0 -6 4 -9 9 -6 5 4 12 1 14 -4 3 -6 4 -5 3 2 -3 15 -26
23 -26 8z"/>
<path d="M1920 2353 c0 -12 6 -24 13 -26 9 -4 8 -8 -3 -16 -11 -8 -12 -11 -2
-11 9 0 11 -7 7 -20 -3 -11 -2 -20 2 -20 5 0 18 -8 29 -18 11 -10 32 -27 47
-37 26 -17 27 -17 20 0 -5 15 -3 17 12 12 15 -6 17 -3 11 25 -3 18 -11 37 -16
42 -14 14 -25 -1 -11 -17 13 -16 4 -50 -11 -45 -6 2 -11 23 -12 46 -1 23 -8
48 -14 54 -15 15 -28 3 -15 -14 12 -15 23 -68 14 -68 -20 1 -34 23 -36 60 -4
46 -35 94 -35 53z"/>
<path d="M1147 2353 c-3 -5 -2 -22 0 -40 6 -40 33 -34 33 7 0 19 6 30 18 33 9
3 3 5 -15 6 -17 0 -34 -2 -36 -6z"/>
<path d="M823 2333 c-18 -7 -16 -33 2 -33 8 0 15 9 15 20 0 11 -1 20 -2 19 -2
0 -9 -3 -15 -6z"/>
<path d="M1087 2328 c-9 -5 -17 -18 -17 -29 0 -11 4 -18 9 -15 5 4 7 -4 3 -16
-3 -14 -2 -19 6 -14 7 4 12 18 12 32 0 15 6 24 15 24 8 0 15 4 15 9 0 14 -25
20 -43 9z"/>
<path d="M1513 2322 c1 -14 5 -18 11 -12 7 7 6 14 -1 21 -9 9 -12 7 -10 -9z"/>
<path d="M720 2245 c0 -14 2 -25 4 -25 2 0 6 11 8 25 3 14 1 25 -3 25 -5 0 -9
-11 -9 -25z"/>
<path d="M943 2262 c-13 -8 -15 -72 -1 -72 5 0 11 8 14 18 3 9 10 25 15 36 7
12 7 16 1 12 -6 -3 -12 -2 -14 4 -1 5 -8 6 -15 2z"/>
<path d="M1550 2261 c0 -5 7 -11 15 -15 8 -3 15 -1 15 3 0 5 -7 11 -15 15 -8
3 -15 1 -15 -3z"/>
<path d="M2070 2251 c0 -6 5 -13 11 -16 6 -4 8 -14 5 -22 -4 -9 -1 -22 5 -29
16 -19 -1 -17 -23 3 -10 9 -18 12 -18 6 0 -5 11 -16 25 -23 14 -7 25 -17 25
-22 0 -4 7 -8 15 -8 8 0 15 -4 15 -10 0 -5 7 -10 15 -10 8 0 15 -4 15 -10 0
-5 6 -10 13 -10 7 0 22 -8 33 -17 43 -38 83 -62 89 -53 3 5 12 7 20 4 12 -5
14 0 8 27 -3 19 -11 37 -17 41 -16 10 -20 0 -7 -15 10 -13 6 -47 -6 -47 -3 0
-17 7 -32 16 -22 13 -26 21 -23 53 3 26 -1 41 -14 52 -16 13 -17 12 -10 -16 4
-16 9 -38 12 -48 5 -14 -8 -10 -56 21 -58 37 -62 42 -65 80 -2 23 -6 46 -10
52 -8 13 -25 13 -25 1z"/>
<path d="M1478 2243 c6 -2 18 -2 25 0 6 3 1 5 -13 5 -14 0 -19 -2 -12 -5z"/>
<path d="M1247 2233 c-2 -5 -1 -19 4 -33 7 -23 7 -23 8 8 1 31 -3 40 -12 25z"/>
<path d="M1595 2230 c3 -5 14 -10 23 -10 15 0 15 2 2 10 -20 13 -33 13 -25 0z"/>
<path d="M2120 2229 c0 -2 7 -22 15 -44 14 -40 14 -40 15 -9 0 17 -7 37 -15
44 -8 7 -15 11 -15 9z"/>
<path d="M1730 2209 c0 -6 9 -13 20 -16 11 -3 20 -12 20 -19 0 -8 7 -14 16
-14 28 0 57 -41 37 -53 -5 -2 -3 -2 4 -1 6 2 14 -5 16 -14 3 -9 5 1 6 23 0 38
-2 42 -53 73 -59 35 -66 37 -66 21z"/>
<path d="M1645 2200 c3 -5 8 -10 11 -10 2 0 4 5 4 10 0 6 -5 10 -11 10 -5 0
-7 -4 -4 -10z"/>
<path d="M798 2195 c-8 -8 4 -65 13 -65 5 0 9 10 9 21 0 12 7 27 16 33 13 10
12 12 -9 14 -13 1 -26 -1 -29 -3z"/>
<path d="M2174 2165 c2 -22 9 -41 16 -43 10 -4 11 4 6 29 -10 50 -26 60 -22
14z"/>
<path d="M1361 2183 c-27 -5 -65 -27 -98 -57 -23 -19 -32 -43 -13 -31 12 8 13
3 0 -29 -12 -31 -26 -33 -35 -5 -9 28 -44 43 -75 30 -24 -9 -23 -10 10 -10 28
-1 41 -8 63 -36 20 -25 26 -40 19 -48 -7 -8 -5 -16 4 -25 15 -14 16 -11 17 36
0 13 6 22 16 23 10 0 12 2 4 6 -22 8 -14 41 16 62 47 34 59 26 57 -38 -2 -56
-26 -51 -26 5 0 36 -3 45 -11 37 -7 -7 -12 -30 -12 -53 0 -26 -5 -44 -13 -47
-8 -3 -14 -15 -13 -27 0 -21 0 -21 9 -1 8 22 76 49 93 38 6 -3 7 -1 3 5 -4 7
-1 12 8 12 8 0 17 -4 21 -9 6 -11 -21 -41 -37 -41 -5 0 -8 -6 -5 -12 2 -7 14
-12 25 -10 22 3 30 -12 12 -23 -5 -3 -10 -1 -10 5 0 6 -5 8 -10 5 -6 -4 -8
-11 -5 -16 4 -5 2 -9 -4 -9 -7 0 -7 -8 -1 -25 9 -24 7 -26 -50 -42 -61 -17
-72 -26 -44 -37 10 -4 13 -2 8 6 -5 7 0 9 14 6 12 -4 20 -3 18 1 -3 4 15 14
40 23 l44 16 0 -24 c0 -17 -7 -25 -25 -30 -24 -6 -25 -8 -10 -23 17 -20 20
-41 4 -41 -6 0 -7 -5 -2 -12 15 -25 11 -39 -13 -49 -34 -12 -36 -12 -25 9 5 9
11 35 12 56 l4 40 -40 1 -41 1 -3 -65 c-1 -36 -5 -69 -7 -73 -8 -13 16 -9 84
11 l62 19 0 -24 c0 -17 -7 -25 -26 -30 -31 -8 -16 -29 21 -29 l24 -1 3 228 c2
179 0 227 -9 223 -7 -2 -13 0 -13 5 0 5 18 8 40 7 40 -1 50 -13 28 -35 -8 -8
-8 -12 -1 -12 7 0 8 -14 3 -40 -4 -22 -5 -40 -1 -40 3 0 7 -11 7 -25 1 -14 -1
-25 -5 -25 -3 0 -12 -9 -18 -19 -10 -16 -9 -18 8 -14 17 5 20 1 17 -23 -2 -16
-10 -34 -18 -41 -13 -11 -13 -12 1 -13 12 0 15 -15 16 -80 1 -56 -2 -80 -10
-80 -8 0 -7 -3 2 -9 7 -5 11 -14 7 -20 -4 -6 -2 -20 4 -31 9 -18 6 -21 -35
-31 -52 -13 -59 -26 -15 -27 17 0 28 3 25 9 -3 5 0 6 8 3 17 -6 20 -154 3
-154 -13 0 15 -20 28 -20 4 0 6 43 3 95 -2 52 -1 95 2 95 4 0 17 -7 29 -16 12
-8 22 -13 22 -9 0 3 17 -2 38 -11 20 -9 51 -18 67 -21 17 -3 39 -10 50 -16 11
-6 28 -12 38 -14 10 -2 31 -10 48 -18 16 -9 29 -13 29 -11 0 3 12 1 28 -5 45
-18 142 -47 142 -43 0 6 -84 40 -132 53 -38 11 -48 18 -48 35 0 11 -3 31 -6
44 -8 26 16 31 37 6 10 -13 10 -17 -2 -25 -11 -7 -11 -9 0 -9 10 0 11 -3 2
-13 -12 -15 -5 -27 17 -27 9 0 12 6 7 18 -11 27 -12 71 -2 75 5 1 -2 8 -17 15
-15 7 -26 8 -26 2 0 -6 -5 -10 -10 -10 -6 0 -9 5 -8 11 2 6 -7 15 -19 20 -18
6 -23 5 -23 -7 0 -8 7 -17 15 -20 17 -7 20 -34 4 -34 -8 0 -8 -5 1 -15 10 -12
10 -15 -1 -15 -9 -1 -8 -5 5 -15 25 -19 16 -19 -31 -1 -21 8 -78 27 -128 41
-146 43 -132 9 -134 330 -2 225 0 275 11 269 8 -5 8 -1 -2 11 -14 17 -13 18 3
12 10 -4 21 -7 23 -7 3 0 0 -8 -5 -18 -12 -22 26 -55 107 -91 l52 -24 0 -74
c0 -42 -4 -73 -10 -73 -5 0 -10 8 -10 18 0 14 -2 15 -10 2 -7 -11 -10 -11 -10
-2 0 7 -4 10 -10 7 -5 -3 -22 1 -37 9 -23 11 -32 12 -46 1 -15 -11 -16 -14 -2
-25 13 -11 14 -10 9 4 -9 22 11 21 73 -6 63 -27 66 -37 61 -181 -2 -53 0 -97
4 -97 4 0 9 -19 11 -42 3 -39 0 117 -8 394 -3 89 -1 106 10 101 11 -4 12 -10
5 -24 -8 -15 -7 -17 5 -13 8 4 15 10 15 16 0 5 5 6 10 3 6 -3 10 -2 10 3 0 5
-13 15 -28 21 -18 8 -33 25 -41 46 -15 42 -66 87 -95 83 -12 -1 -21 2 -21 7 0
6 12 10 27 10 14 0 24 3 21 7 -6 11 -61 10 -68 -2 -3 -5 0 -18 7 -29 17 -28 5
-35 -31 -16 -23 11 -36 13 -50 6 -16 -9 -20 -7 -25 12 -4 19 -49 52 -59 46 -1
-1 -13 -4 -26 -6z m64 -35 c14 -21 14 -24 -2 -35 -9 -7 -19 -10 -22 -7 -3 3 0
8 6 12 21 13 -3 35 -37 34 -17 0 -47 -12 -65 -26 -38 -30 -54 -34 -34 -9 44
53 126 70 154 31z m174 -15 c-1 -5 -1 -19 1 -33 1 -23 2 -23 9 -5 5 11 6 25 3
30 -2 6 10 -4 27 -21 23 -21 33 -42 37 -72 5 -47 5 -48 -37 -26 -25 13 -30 20
-25 40 5 17 2 24 -8 24 -9 0 -12 -7 -9 -20 5 -20 -4 -26 -22 -12 -20 13 -6
102 16 102 5 0 8 -3 8 -7z m-214 -25 c7 -30 3 -68 -7 -68 -4 0 -8 13 -8 29 0
16 -3 36 -6 45 -3 9 -1 16 5 16 6 0 13 -10 16 -22z m92 -13 c0 -15 -26 -30
-35 -20 -3 3 0 5 7 5 7 0 9 5 6 10 -5 8 -11 7 -21 0 -7 -7 -19 -10 -26 -7 -8
3 -3 9 12 15 36 15 57 14 57 -3z m70 -14 c0 -11 -7 -17 -14 -14 -9 4 -9 8 0
19 16 17 16 17 14 -5z m-137 -291 c0 -5 -4 -10 -10 -10 -5 0 -10 5 -10 10 0 6
5 10 10 10 6 0 10 -4 10 -10z m-98 -32 c-3 -13 -13 -28 -21 -35 -14 -10 -14
-12 2 -18 23 -10 22 -35 -3 -35 -17 0 -20 7 -20 50 0 28 5 50 10 50 6 0 10 -8
11 -17 0 -14 2 -13 9 5 5 12 11 22 14 22 2 0 2 -10 -2 -22z m95 -23 c0 -8 -4
-15 -9 -15 -10 0 -11 14 -1 23 9 10 10 9 10 -8z"/>
<path d="M1640 2053 c0 -24 2 -43 4 -43 8 0 12 60 4 72 -4 8 -8 -4 -8 -29z"/>
<path d="M1510 2175 c0 -8 2 -15 4 -15 2 0 6 7 10 15 3 8 1 15 -4 15 -6 0 -10
-7 -10 -15z"/>
<path d="M1047 2147 c-11 -29 -9 -53 4 -40 6 6 9 21 7 34 -3 21 -4 22 -11 6z"/>
<path d="M1745 2151 c-3 -5 -1 -12 5 -16 5 -3 10 1 10 9 0 18 -6 21 -15 7z"/>
<path d="M1790 2139 c0 -5 -4 -7 -10 -4 -5 3 -10 2 -10 -3 0 -6 7 -12 15 -16
10 -4 15 1 15 14 0 11 -2 20 -5 20 -3 0 -5 -5 -5 -11z"/>
<path d="M701 2133 c0 -5 4 -17 9 -28 8 -18 9 -17 9 8 1 15 -3 27 -9 27 -5 0
-10 -3 -9 -7z"/>
<path d="M771 2124 c0 -11 3 -14 6 -6 3 7 2 16 -1 19 -3 4 -6 -2 -5 -13z"/>
<path d="M2255 2114 c10 -46 14 -54 23 -54 13 0 1 58 -15 71 -12 11 -13 8 -8
-17z"/>
<path d="M1896 2105 c4 -8 10 -12 15 -9 5 3 12 -2 15 -10 3 -9 12 -16 20 -16
8 0 14 -7 14 -15 0 -9 6 -12 15 -9 11 5 15 -1 15 -25 0 -17 5 -31 11 -31 6 0
8 7 5 16 -3 9 -6 25 -6 37 0 16 -14 30 -49 50 -56 31 -63 33 -55 12z"/>
<path d="M950 2075 c-10 -12 -10 -15 4 -15 9 0 16 7 16 15 0 8 -2 15 -4 15 -2
0 -9 -7 -16 -15z"/>
<path d="M862 2050 c0 -19 2 -27 5 -17 2 9 2 25 0 35 -3 9 -5 1 -5 -18z"/>
<path d="M1059 2043 l-34 -38 35 30 c19 16 39 33 45 37 5 5 5 8 -1 8 -6 0 -26
-17 -45 -37z"/>
<path d="M2344 2045 c16 -45 30 -58 21 -20 -11 47 -14 55 -24 55 -5 0 -3 -16
3 -35z"/>
<path d="M1113 2054 c-32 -16 -44 -34 -22 -34 5 0 7 -5 3 -11 -4 -7 -7 -26 -6
-42 0 -18 -7 -37 -16 -45 -16 -12 -15 -13 3 -7 78 27 75 24 75 76 0 30 4 49
11 49 8 0 10 -15 7 -45 -3 -25 -2 -48 3 -51 16 -10 9 -33 -11 -39 -16 -5 -18
-10 -10 -25 16 -29 -6 -76 -45 -94 -46 -22 -48 -21 -41 25 4 26 3 38 -4 34
-16 -10 -13 -130 4 -144 8 -6 16 -28 18 -48 4 -32 1 -37 -25 -48 l-30 -12 31
-5 c17 -2 29 -1 27 2 -4 6 60 30 79 30 3 0 4 -10 2 -22 -2 -14 -11 -24 -24
-26 -18 -3 -20 -6 -10 -28 8 -18 14 -21 20 -12 6 11 8 11 8 0 0 -7 -7 -15 -15
-18 -8 -4 -15 -17 -15 -31 0 -19 4 -24 16 -19 9 3 20 6 25 6 5 0 9 33 9 73 0
193 14 436 24 431 6 -3 2 2 -8 10 -11 9 -16 19 -12 23 4 4 11 1 15 -6 5 -7 14
-10 20 -7 8 5 7 11 -2 20 -6 8 -15 12 -19 9 -5 -2 -8 5 -8 15 0 17 -18 32 -38
32 -4 0 -22 -8 -39 -16z m17 -70 c0 -34 -4 -44 -16 -44 -12 0 -15 6 -10 23 3
12 6 35 6 50 0 16 4 26 10 22 6 -3 10 -26 10 -51z m50 -164 c0 -5 -4 -10 -10
-10 -5 0 -10 5 -10 10 0 6 5 10 10 10 6 0 10 -4 10 -10z m-10 -51 c0 -12 -8
-23 -20 -26 -24 -6 -24 -7 -7 -34 9 -17 9 -23 0 -26 -10 -3 -10 -9 0 -24 10
-16 9 -21 -3 -29 -30 -19 -37 -11 -30 33 8 56 4 65 -25 59 -49 -9 -25 32 30
52 53 19 55 19 55 -5z"/>
<path d="M1905 2061 c-3 -5 -1 -12 5 -16 5 -3 10 1 10 9 0 18 -6 21 -15 7z"/>
<path d="M2376 2023 c10 -44 26 -54 22 -14 -2 19 -9 36 -16 39 -9 3 -11 -4 -6
-25z"/>
<path d="M2226 2032 c-3 -6 -2 -13 4 -17 5 -3 10 -15 10 -25 0 -10 5 -22 11
-25 7 -5 9 4 5 25 -5 37 -20 57 -30 42z"/>
<path d="M2414 2015 c2 -11 7 -30 11 -42 4 -14 2 -23 -4 -23 -6 0 -11 5 -11
10 0 6 -5 10 -12 10 -6 0 -26 11 -44 25 -18 14 -39 25 -46 25 -7 0 -4 -6 7
-12 11 -7 26 -18 33 -25 7 -7 17 -13 22 -13 5 0 15 -6 22 -13 7 -7 25 -20 41
-30 23 -15 27 -15 27 -2 0 8 -6 15 -13 15 -9 0 -12 9 -10 28 3 15 -3 36 -12
47 -16 20 -16 20 -11 0z"/>
<path d="M690 1978 c0 -36 4 -35 14 5 4 16 2 27 -4 27 -5 0 -10 -14 -10 -32z"/>
<path d="M1550 1991 c0 -17 30 -40 46 -34 8 3 14 6 12 7 -2 1 -15 10 -30 19
-16 10 -28 13 -28 8z"/>
<path d="M1915 1980 c-3 -6 1 -7 9 -4 18 7 21 14 7 14 -6 0 -13 -4 -16 -10z"/>
<path d="M1780 1966 c0 -8 5 -18 10 -21 6 -3 10 1 10 9 0 8 -4 18 -10 21 -5 3
-10 -1 -10 -9z"/>
<path d="M1298 1958 c-27 -9 -27 -10 -8 -30 11 -12 24 -17 31 -13 8 5 10 4 5
-3 -4 -7 -14 -12 -22 -12 -8 0 -14 -9 -14 -20 0 -13 7 -20 19 -20 25 0 28 6
32 59 4 48 -2 54 -43 39z"/>
<path d="M2070 1960 c0 -5 5 -10 11 -10 5 0 7 5 4 10 -3 6 -8 10 -11 10 -2 0
-4 -4 -4 -10z"/>
<path d="M1620 1944 c0 -8 4 -13 9 -9 5 3 12 1 16 -5 7 -12 25 -13 25 -2 0 5
-11 14 -25 20 -21 10 -25 9 -25 -4z"/>
<path d="M1239 1938 c-1 -7 -1 -16 0 -20 0 -5 -3 -8 -7 -8 -4 0 -8 -9 -8 -19
0 -11 3 -18 7 -15 4 2 7 -12 7 -31 0 -23 -5 -35 -13 -35 -21 0 -27 -17 -9 -24
8 -3 12 -2 9 4 -3 6 1 7 9 4 14 -5 16 6 16 75 0 45 -2 81 -5 81 -3 0 -6 -6 -6
-12z"/>
<path d="M1557 1909 c4 -16 8 -17 14 -7 7 10 9 9 9 -3 0 -9 7 -20 16 -23 14
-5 15 -4 4 9 -7 8 -9 15 -4 15 10 1 -26 30 -37 30 -4 0 -5 -9 -2 -21z"/>
<path d="M2181 1904 c0 -11 3 -14 6 -6 3 7 2 16 -1 19 -3 4 -6 -2 -5 -13z"/>
<path d="M2470 1909 c0 -5 5 -7 10 -4 6 3 10 8 10 11 0 2 -4 4 -10 4 -5 0 -10
-5 -10 -11z"/>
<path d="M677 1881 c-7 -29 7 -44 20 -21 10 14 9 21 -1 29 -10 9 -15 7 -19 -8z"/>
<path d="M1060 1890 c1 -8 6 -22 13 -31 11 -15 17 -18 35 -20 4 0 -4 -5 -18
-10 -24 -10 -24 -11 -6 -25 25 -18 33 -9 38 41 3 37 1 40 -21 37 -14 -1 -28 3
-33 10 -6 10 -8 9 -8 -2z"/>
<path d="M1620 1890 c0 -9 39 -25 46 -18 2 3 -7 10 -21 16 -14 6 -25 7 -25 2z"/>
<path d="M1755 1880 c10 -11 22 -17 28 -13 6 4 3 12 -8 20 -28 20 -41 16 -20
-7z"/>
<path d="M2205 1891 c-3 -5 -1 -12 5 -16 5 -3 10 1 10 9 0 18 -6 21 -15 7z"/>
<path d="M645 1855 c2 -19 1 -37 -4 -39 -8 -5 -6 -64 3 -73 3 -4 6 1 6 10 0
10 5 17 11 17 6 0 8 -7 5 -16 -3 -9 -6 -27 -6 -40 0 -13 -4 -24 -9 -24 -5 0
-7 9 -4 20 3 11 1 20 -5 20 -5 0 -13 -28 -17 -62 -4 -35 -9 -71 -11 -80 -1
-10 3 -18 11 -18 7 0 16 10 18 23 4 19 4 18 6 -5 0 -16 -2 -28 -6 -28 -5 0 -8
-13 -8 -30 0 -16 3 -30 8 -30 4 0 7 6 7 14 0 8 7 70 15 138 8 67 17 136 18
151 3 20 0 26 -10 23 -9 -4 -13 5 -13 29 0 19 -4 35 -10 35 -5 0 -8 -15 -5
-35z m25 -60 c0 -8 -2 -15 -4 -15 -2 0 -6 7 -10 15 -3 8 -1 15 4 15 6 0 10 -7
10 -15z m-15 -134 c-3 -6 -11 -11 -17 -11 -6 0 -6 6 2 15 14 17 26 13 15 -4z
m-5 -31 c0 -5 -5 -10 -11 -10 -5 0 -7 5 -4 10 3 6 8 10 11 10 2 0 4 -4 4 -10z"/>
<path d="M1263 1870 c1 -21 10 -18 13 5 1 8 -2 15 -6 15 -5 0 -8 -9 -7 -20z"/>
<path d="M2060 1870 c0 -5 7 -11 15 -11 8 -1 20 -2 27 -3 10 -1 17 -19 20 -53
2 -17 28 -3 28 16 0 14 2 14 10 1 5 -8 10 -10 10 -4 0 26 -38 57 -73 61 -21 2
-37 -1 -37 -7z m90 -30 c0 -3 -6 -7 -13 -7 -7 0 -13 8 -13 18 0 13 3 15 13 7
7 -6 13 -14 13 -18z"/>
<path d="M1794 1858 c-4 -6 -3 -8 4 -4 6 3 13 2 17 -4 3 -5 14 -10 23 -10 15
1 15 2 -2 15 -24 18 -33 19 -42 3z"/>
<path d="M1521 1824 c0 -11 3 -14 6 -6 3 7 2 16 -1 19 -3 4 -6 -2 -5 -13z"/>
<path d="M1750 1820 c0 -11 6 -20 14 -20 24 0 28 18 6 30 -17 9 -20 8 -20 -10z"/>
<path d="M839 1815 c-3 -6 -6 -36 -7 -68 -1 -37 -8 -64 -17 -73 -19 -20 -19
-25 2 -17 10 4 14 3 9 -5 -3 -6 -8 -37 -10 -69 -2 -32 -7 -90 -11 -128 -4 -39
-5 -67 -1 -64 7 7 49 406 43 422 -2 6 -6 7 -8 2z"/>
<path d="M883 1810 c-19 -8 -23 -16 -21 -52 l1 -43 6 45 c6 41 7 43 18 24 9
-16 9 -24 1 -32 -15 -15 -6 -24 16 -16 10 4 16 17 16 35 0 16 0 32 1 36 1 12
-14 12 -38 3z"/>
<path d="M1560 1755 l0 -65 37 -15 c81 -34 83 -34 82 26 -1 34 -3 46 -7 32 -4
-13 -12 -19 -18 -15 -14 9 -25 52 -13 52 5 0 9 -4 9 -10 0 -5 7 -7 16 -3 14 5
12 8 -7 19 -36 20 -38 18 -35 -41 2 -30 -1 -55 -5 -55 -5 0 -9 13 -9 29 0 21
-6 32 -20 36 -26 8 -26 29 1 41 21 10 21 10 -5 22 l-26 12 0 -65z m38 -43 c5
-31 -15 -27 -21 3 -3 16 0 24 7 22 6 -2 12 -13 14 -25z m62 -28 c0 -14 -4 -23
-10 -19 -5 3 -10 15 -10 26 0 10 5 19 10 19 6 0 10 -12 10 -26z"/>
<path d="M1925 1800 c3 -5 13 -10 20 -10 9 0 12 -6 9 -17 -5 -15 -4 -15 5 -3
8 12 11 12 17 -3 3 -9 10 -14 15 -11 17 10 9 20 -26 37 -41 20 -49 21 -40 7z"/>
<path d="M1911 1774 c0 -11 3 -14 6 -6 3 7 2 16 -1 19 -3 4 -6 -2 -5 -13z"/>
<path d="M1227 1774 c-3 -4 -2 -15 4 -25 7 -13 6 -19 -1 -19 -6 0 -10 -12 -8
-27 5 -46 23 -27 26 27 3 46 -4 60 -21 44z"/>
<path d="M2220 1730 c0 -16 4 -30 8 -30 5 0 7 14 4 30 -2 17 -6 30 -8 30 -2 0
-4 -13 -4 -30z"/>
<path d="M1010 1735 c-11 -14 -12 -17 -1 -11 11 7 13 -3 9 -58 -2 -36 0 -62 5
-57 4 4 7 39 5 76 -3 62 -4 67 -18 50z"/>
<path d="M1993 1735 c-8 -9 -9 -16 -3 -20 6 -3 13 1 16 10 9 21 2 26 -13 10z"/>
<path d="M2180 1736 c0 -2 7 -9 15 -16 12 -10 15 -10 15 4 0 9 -7 16 -15 16
-8 0 -15 -2 -15 -4z"/>
<path d="M682 1685 c0 -16 2 -22 5 -12 2 9 2 23 0 30 -3 6 -5 -1 -5 -18z"/>
<path d="M1810 1696 c0 -17 23 -27 40 -16 10 6 8 11 -8 19 -27 14 -32 14 -32
-3z"/>
<path d="M1043 1645 c0 -22 2 -30 4 -17 2 12 2 30 0 40 -3 9 -5 -1 -4 -23z"/>
<path d="M2200 1670 c0 -12 60 -43 68 -35 8 7 -19 25 -29 19 -4 -2 -9 3 -13
11 -6 17 -26 21 -26 5z"/>
<path d="M1850 1655 c0 -18 -5 -18 -33 -4 -22 11 -22 11 1 -10 12 -12 22 -26
22 -32 0 -6 4 -8 8 -5 9 5 15 66 7 66 -3 0 -5 -7 -5 -15z"/>
<path d="M1556 1615 c-11 -43 9 -94 37 -95 4 0 7 8 8 18 1 11 3 9 8 -7 6 -23
7 -23 24 -7 16 17 17 16 17 -3 0 -27 12 -27 25 2 10 20 8 22 -15 22 -14 1 -28
-4 -32 -10 -4 -5 -8 8 -8 30 0 47 -7 60 -36 69 -17 5 -23 2 -28 -19z m25 -4
c-10 -7 -10 -10 -1 -16 7 -4 16 -1 21 6 6 10 9 7 9 -12 0 -30 -21 -44 -39 -26
-20 20 -12 57 13 57 6 0 5 -4 -3 -9z"/>
<path d="M1215 1620 c-3 -5 -1 -10 4 -10 6 0 11 -14 11 -31 0 -16 -4 -28 -9
-25 -5 4 -7 -4 -3 -16 4 -16 2 -19 -9 -13 -12 8 -12 6 0 -8 24 -30 31 -19 31
48 0 60 -9 80 -25 55z"/>
<path d="M1288 1613 c-18 -5 -36 -49 -24 -60 3 -4 6 3 6 15 0 12 5 22 10 22 6
0 10 -6 10 -14 0 -8 8 -17 18 -19 12 -3 10 -5 -7 -6 -17 -1 -21 -5 -17 -17 3
-9 6 -18 6 -20 0 -2 9 -4 19 -4 22 0 30 19 29 73 0 38 -6 42 -50 30z m32 -33
c0 -5 -5 -10 -11 -10 -5 0 -7 5 -4 10 3 6 8 10 11 10 2 0 4 -4 4 -10z m-3 -46
c-3 -3 -12 -4 -19 -1 -8 3 -5 6 6 6 11 1 17 -2 13 -5z"/>
<path d="M1630 1610 c0 -6 6 -10 13 -10 9 0 9 -2 -1 -9 -11 -7 -11 -9 0 -13
14 -6 43 18 30 25 -22 12 -42 15 -42 7z"/>
<path d="M1010 1568 c-1 -13 -3 -47 -5 -75 -2 -30 0 -53 6 -53 5 0 9 34 9 75
0 41 -2 75 -5 75 -3 0 -5 -10 -5 -22z"/>
<path d="M1372 1573 c-8 -7 -8 -14 -2 -18 6 -3 10 -14 10 -24 0 -13 -16 -21
-62 -32 -163 -41 -238 -63 -238 -71 0 -5 10 -6 21 -3 12 4 29 9 38 10 9 2 16
4 16 5 0 1 11 3 25 4 51 5 180 38 180 47 0 4 7 6 15 3 10 -4 15 0 15 14 0 11
7 27 15 36 8 8 15 21 15 28 0 17 -33 18 -48 1z"/>
<path d="M568 1540 c-50 -17 -78 -37 -41 -28 16 4 24 1 28 -13 8 -24 25 -15
26 14 1 18 2 16 10 -8 8 -27 7 -52 -7 -145 -4 -24 -2 -32 5 -25 6 6 12 28 15
49 7 56 16 56 17 0 l1 -49 9 40 c4 22 7 58 7 80 -1 29 -2 32 -5 13 -6 -40 -23
-34 -19 6 1 19 -1 33 -6 30 -10 -7 -10 -1 2 30 5 14 8 25 7 25 -1 -1 -23 -9
-49 -19z m-1 -32 c-3 -8 -6 -5 -6 6 -1 11 2 17 5 13 3 -3 4 -12 1 -19z"/>
<path d="M1068 1553 c-21 -5 -21 -4 -8 -37 5 -14 6 -26 1 -26 -5 0 -7 -9 -4
-20 6 -22 38 -27 45 -7 2 6 6 31 7 55 3 43 -1 46 -41 35z"/>
<path d="M2446 1545 c7 -17 44 -21 44 -4 0 6 -7 9 -15 5 -8 -3 -15 -1 -15 4 0
6 -4 10 -10 10 -5 0 -7 -7 -4 -15z"/>
<path d="M1751 1514 c0 -11 3 -14 6 -6 3 7 2 16 -1 19 -3 4 -6 -2 -5 -13z"/>
<path d="M387 1485 c-109 -33 -135 -45 -104 -45 24 0 21 -27 -4 -35 -11 -4
-23 -4 -26 -1 -3 3 -14 1 -25 -5 -40 -21 -7 -21 64 1 115 35 115 35 94 43 -10
4 -15 3 -11 -3 3 -6 1 -10 -4 -10 -6 0 -11 6 -11 13 0 8 -4 7 -10 -3 -5 -8
-10 -10 -10 -5 0 6 -5 3 -10 -5 -9 -13 -11 -13 -20 0 -8 12 -1 17 32 27 22 7
45 10 51 6 6 -4 7 -1 2 7 -6 10 -2 12 17 8 13 -2 30 1 36 9 7 7 22 13 32 13
11 0 20 5 20 10 0 6 -1 10 -2 9 -2 0 -52 -16 -111 -34z"/>
<path d="M1033 1485 c0 -22 2 -30 4 -17 2 12 2 30 0 40 -3 9 -5 -1 -4 -23z"/>
<path d="M527 1483 c-9 -2 -15 -8 -13 -12 4 -6 -41 -338 -70 -518 -4 -29 -3
-43 5 -43 6 0 11 -5 11 -11 0 -8 -4 -8 -14 0 -9 7 -17 8 -20 3 -3 -6 1 -13 9
-16 8 -3 14 -11 13 -18 -2 -9 8 -12 34 -10 l37 3 -6 -50 c-5 -47 -4 -51 15
-51 21 0 25 8 35 71 4 31 -18 49 -63 49 -16 0 -30 3 -30 8 0 11 68 511 76 560
3 23 5 41 3 41 -2 -1 -12 -3 -22 -6z m17 -670 c-9 -52 -14 -54 -14 -5 0 23 5
42 10 42 7 0 8 -14 4 -37z"/>
<path d="M832 1460 c0 -14 2 -19 5 -12 2 6 2 18 0 25 -3 6 -5 1 -5 -13z"/>
<path d="M475 1458 c-2 -7 -18 -107 -35 -223 -50 -342 -53 -356 -60 -348 -4 4
-2 49 5 98 30 206 65 431 70 452 4 17 1 20 -13 16 -19 -5 -26 -37 -26 -125 -1
-27 -4 -48 -9 -48 -4 0 -5 -17 -2 -37 3 -26 2 -32 -3 -18 -7 15 -10 7 -15 -35
-4 -30 -4 -65 -1 -76 3 -12 1 -25 -5 -28 -5 -4 -7 -14 -4 -22 3 -9 0 -19 -6
-24 -8 -4 -13 -35 -14 -78 -1 -50 -6 -72 -14 -72 -17 0 -19 -15 27 272 22 138
38 253 36 255 -4 5 -58 -310 -82 -479 -6 -46 -6 -46 -40 -41 -31 5 -34 3 -34
-18 0 -18 3 -20 12 -11 16 16 78 16 78 0 0 -9 4 -8 10 2 9 13 14 7 11 -12 0
-5 3 -8 9 -8 5 0 10 5 10 10 0 6 5 10 10 10 7 0 7 -6 2 -17 -5 -10 -7 -23 -5
-30 2 -6 -5 -16 -15 -22 -18 -10 -20 -8 -18 19 1 19 -3 30 -11 30 -8 0 -14
-13 -15 -32 0 -18 -2 -44 -4 -58 -1 -14 -4 -44 -5 -67 -2 -24 -7 -43 -11 -43
-4 0 -8 -11 -8 -24 0 -14 -5 -28 -11 -32 -8 -5 -10 0 -6 17 12 53 38 240 35
251 -2 6 -12 -38 -22 -98 -30 -194 -22 -174 -72 -174 -24 0 -44 -3 -44 -8 0
-4 26 -6 58 -4 31 2 70 3 86 2 43 -1 66 9 59 26 -7 19 -29 18 -37 -2 -15 -38
-17 1 -5 85 12 86 14 91 42 100 22 8 28 16 25 34 -1 13 4 32 11 41 8 9 10 16
5 15 -21 -4 -24 2 -13 24 10 17 88 505 89 555 0 6 -5 12 -10 12 -6 0 -13 -6
-15 -12z"/>
<path d="M660 1448 c0 -5 5 -19 11 -30 9 -16 8 -23 -2 -29 -11 -7 -9 -9 6 -9
15 0 17 -2 6 -9 -9 -6 -10 -11 -2 -15 13 -8 31 33 31 68 0 17 -7 25 -25 28
-14 3 -25 1 -25 -4z"/>
<path d="M1368 1443 c-22 -5 -23 -17 -3 -33 11 -9 13 -23 9 -51 -5 -28 -3 -39
6 -39 7 0 10 7 7 15 -4 8 -2 17 3 20 6 4 10 -3 10 -14 0 -12 5 -21 10 -21 6 0
10 28 10 65 0 69 -2 71 -52 58z m32 -45 c0 -19 -2 -20 -10 -8 -13 19 -13 30 0
30 6 0 10 -10 10 -22z"/>
<path d="M1560 1432 c0 -10 -5 -23 -11 -29 -8 -8 -8 -13 0 -17 6 -4 11 0 11 9
0 11 5 15 15 11 8 -3 15 -1 15 4 0 6 4 10 8 10 5 0 9 -12 9 -28 0 -23 -5 -27
-26 -27 -17 0 -26 -6 -27 -18 -1 -12 -1 -13 3 -2 5 17 12 18 31 7 7 -5 10 -16
7 -24 -4 -10 1 -17 13 -20 18 -5 19 -1 14 61 -2 36 -5 66 -6 67 0 1 -13 4 -28
8 -23 5 -28 3 -28 -12z"/>
<path d="M230 1431 c0 -6 7 -7 17 -4 11 4 14 3 9 -5 -4 -7 -2 -12 4 -12 7 0
10 6 8 13 -6 15 -38 22 -38 8z"/>
<path d="M1003 1422 c-52 -15 -72 -32 -33 -29 11 1 20 5 20 10 0 4 4 6 9 3 16
-10 71 6 71 20 0 16 1 16 -67 -4z"/>
<path d="M2458 1434 c-4 -5 -3 -16 3 -24 5 -8 9 -27 9 -42 0 -16 5 -28 10 -28
6 0 10 11 10 24 0 13 5 27 10 29 6 3 5 4 -2 3 -7 -2 -18 9 -24 23 -5 14 -13
21 -16 15z"/>
<path d="M1268 1423 c-31 -5 -35 -15 -14 -36 8 -8 14 -29 14 -48 0 -49 0 -51
20 -40 14 7 18 23 20 70 1 34 -2 60 -6 60 -4 -1 -19 -4 -34 -6z m19 -65 c-3
-7 -5 -2 -5 12 0 14 2 19 5 13 2 -7 2 -19 0 -25z"/>
<path d="M1333 1370 c0 -36 2 -50 4 -32 2 17 2 47 0 65 -2 17 -4 3 -4 -33z"/>
<path d="M1650 1414 c0 -20 18 -34 33 -28 11 4 17 1 17 -7 0 -23 -17 -42 -30
-34 -8 5 -10 2 -6 -11 3 -11 1 -25 -3 -33 -8 -13 -18 -12 -70 2 -33 9 -66 17
-73 17 -16 0 -1 -13 18 -16 9 -1 23 -6 32 -10 9 -4 24 -8 32 -9 8 -1 33 -7 55
-13 50 -15 68 -14 33 1 -24 11 -25 14 -13 37 l13 25 7 -28 c13 -49 23 -28 18
36 -3 34 -6 63 -7 64 -5 7 -56 13 -56 7z"/>
<path d="M1138 1392 c-31 -4 -33 -7 -15 -40 7 -12 11 -38 9 -57 -4 -31 -9 -36
-41 -44 -57 -15 -155 -31 -184 -31 -14 0 -28 -4 -31 -9 -3 -4 -27 -11 -53 -14
-26 -4 -58 -9 -70 -13 -20 -6 -21 -4 -12 33 5 21 9 50 9 65 0 21 -4 25 -20 21
-27 -7 -33 -19 -17 -35 8 -8 12 -27 9 -50 -4 -39 -16 -45 -130 -65 -24 -5 -43
-11 -43 -15 1 -5 1 -17 1 -29 0 -11 5 -17 10 -14 6 4 8 10 5 15 -10 16 17 27
94 35 24 3 48 8 53 11 9 6 32 10 93 18 31 4 63 11 96 21 11 4 36 8 57 10 20 2
48 6 62 10 14 3 42 8 64 10 21 3 57 10 80 16 44 12 65 16 109 18 16 0 26 4 24
9 -3 4 6 8 19 9 13 1 35 3 49 4 14 1 25 7 25 13 0 6 4 5 9 -3 5 -8 11 -9 15
-3 3 6 16 8 28 4 12 -3 19 -1 15 5 -3 5 3 9 15 9 12 -1 23 5 26 13 4 11 -2 13
-24 8 -16 -3 -69 -15 -119 -26 -49 -10 -103 -21 -120 -24 -16 -3 -46 -9 -65
-12 -31 -7 -33 -6 -17 7 14 11 17 25 15 68 -3 53 -4 55 -30 52z m22 -50 c0
-15 -2 -15 -10 -2 -13 20 -13 33 0 25 6 -3 10 -14 10 -23z"/>
<path d="M1219 1380 c0 -8 -2 -30 -4 -48 -2 -21 1 -32 9 -29 15 5 20 67 7 80
-8 8 -11 7 -12 -3z"/>
<path d="M1766 1357 c-3 -17 -4 -32 -1 -35 3 -3 5 2 5 10 0 9 11 19 25 22 28
7 26 21 -4 29 -15 4 -20 -2 -25 -26z"/>
<path d="M202 1345 c0 -16 2 -22 5 -12 2 9 2 23 0 30 -3 6 -5 -1 -5 -18z"/>
<path d="M1015 1361 c-3 -5 2 -17 11 -25 13 -13 14 -22 6 -46 -9 -24 -8 -28 5
-23 8 3 19 0 24 -8 6 -9 9 8 9 49 0 59 -1 62 -24 62 -14 0 -27 -4 -31 -9z"/>
<path d="M1093 1310 c0 -30 2 -43 4 -27 2 15 2 39 0 55 -2 15 -4 2 -4 -28z"/>
<path d="M1852 1344 c2 -11 11 -18 21 -16 14 2 17 -5 17 -48 0 -29 4 -50 11
-50 6 0 8 11 5 28 -3 15 -7 42 -8 60 -1 17 -5 32 -9 32 -4 0 -15 3 -24 6 -13
5 -16 2 -13 -12z"/>
<path d="M912 1341 l-24 -6 22 -28 c12 -15 17 -27 11 -27 -6 0 -11 -9 -11 -21
0 -11 5 -17 10 -14 6 3 10 1 10 -4 0 -6 4 -11 8 -11 4 0 8 27 9 60 1 33 -1 60
-5 59 -4 -1 -18 -4 -30 -8z"/>
<path d="M1803 1343 c-7 -3 -13 -11 -13 -18 0 -7 -6 -16 -12 -18 -8 -3 -6 -6
5 -6 10 -1 17 6 18 17 0 11 2 12 6 4 3 -7 -1 -19 -7 -27 -10 -12 -10 -18 0
-30 20 -25 30 -17 30 23 0 42 -9 61 -27 55z"/>
<path d="M833 1322 c-26 -4 -29 -15 -9 -34 8 -8 11 -26 8 -46 -2 -19 0 -32 6
-32 11 0 27 77 20 101 -2 8 -13 13 -25 11z"/>
<path d="M988 1289 c-2 -22 0 -43 4 -45 4 -3 8 8 8 25 0 16 3 36 6 45 3 9 2
16 -4 16 -5 0 -12 -18 -14 -41z"/>
<path d="M1950 1320 c0 -13 28 -25 38 -16 3 4 0 11 -8 16 -20 13 -30 12 -30 0z"/>
<path d="M1865 1297 c-8 -8 -7 -20 2 -37 12 -25 13 -24 13 13 0 41 0 42 -15
24z"/>
<path d="M790 1287 c0 -9 -4 -17 -9 -17 -8 0 -5 -59 3 -68 3 -2 8 17 11 43 4
25 5 49 1 52 -3 4 -6 -1 -6 -10z"/>
<path d="M874 1286 c-3 -8 -4 -25 -2 -38 3 -17 5 -13 9 15 5 38 2 47 -7 23z"/>
<path d="M570 1271 c0 -10 -3 -40 -6 -67 -8 -57 11 -52 21 6 9 50 15 50 17 -1
1 -37 2 -39 5 -11 4 32 -15 92 -29 92 -5 0 -8 -8 -8 -19z"/>
<path d="M642 1281 c-21 -5 -22 -8 -8 -26 9 -12 12 -32 8 -54 -3 -23 -2 -32 6
-28 9 7 28 105 21 111 -2 2 -14 0 -27 -3z"/>
<path d="M1486 1281 c-4 -7 -5 -15 -2 -18 9 -9 19 4 14 18 -4 11 -6 11 -12 0z"/>
<path d="M2110 1271 c0 -5 7 -12 16 -15 11 -4 14 -13 10 -31 -5 -18 -2 -25 8
-25 21 0 28 -28 8 -33 -9 -2 -5 -3 11 -1 15 2 27 -1 27 -8 0 -6 3 -8 7 -4 5 4
1 13 -8 19 -9 7 -22 30 -29 52 -12 38 -25 54 -42 55 -5 0 -8 -4 -8 -9z"/>
<path d="M1720 1259 c0 -5 7 -10 15 -10 17 -2 34 -5 38 -9 1 -1 9 -3 17 -5 42
-10 187 -46 198 -50 6 -2 12 -1 12 4 0 4 -33 15 -72 25 -106 24 -107 24 -116
30 -19 11 -92 23 -92 15z"/>
<path d="M175 1250 c3 -5 8 -10 11 -10 2 0 4 5 4 10 0 6 -5 10 -11 10 -5 0 -7
-4 -4 -10z"/>
<path d="M1975 1244 c9 -9 19 -13 23 -10 3 4 0 11 -8 16 -24 15 -33 11 -15 -6z"/>
<path d="M2181 1238 c6 -12 20 -30 29 -40 17 -18 17 -18 13 6 -3 15 -10 23
-16 19 -6 -4 -7 -1 -2 7 4 7 2 16 -6 21 -24 15 -30 10 -18 -13z"/>
<path d="M75 1230 c-38 -11 -55 -19 -45 -23 10 -5 8 -6 -5 -4 -18 4 -21 -1
-20 -39 0 -23 4 -46 9 -51 5 -5 7 -1 3 10 -4 11 -1 17 9 17 13 0 14 -8 9 -39
-4 -25 -2 -47 5 -58 10 -15 11 -15 6 -1 -3 9 -1 18 4 20 4 2 11 25 15 52 7 47
7 49 -14 43 -27 -7 -27 4 -1 21 13 8 20 9 20 1 0 -6 7 -17 15 -25 8 -9 15 -33
15 -55 0 -28 -4 -39 -15 -39 -8 0 -15 -4 -15 -10 0 -15 16 -12 34 6 9 8 16 27
16 42 0 15 3 37 6 50 5 18 2 22 -15 22 -11 0 -21 5 -21 10 0 6 7 10 16 10 9 0
12 5 8 12 -4 7 -3 8 4 4 7 -4 12 -14 12 -22 0 -8 5 -14 11 -14 14 0 5 -86 -11
-105 -7 -9 -8 -15 -1 -19 11 -7 25 40 36 117 4 30 3 47 -4 47 -6 0 -11 9 -11
20 0 23 4 23 -75 0z"/>
<path d="M682 1225 c0 -16 2 -22 5 -12 2 9 2 23 0 30 -3 6 -5 -1 -5 -18z"/>
<path d="M1450 1240 c-19 -5 -74 -14 -122 -21 -49 -7 -88 -15 -88 -19 0 -4 7
-13 15 -20 8 -7 15 -19 15 -27 0 -8 5 -11 10 -8 6 4 8 10 6 14 -3 4 -1 13 4
21 7 12 10 12 16 -3 9 -25 -2 -47 -25 -47 -15 0 -19 -5 -14 -16 4 -11 8 -12
13 -4 5 8 9 7 14 -5 13 -34 7 -45 -24 -45 -16 0 -30 -5 -30 -11 0 -7 12 -9 33
-6 17 3 54 9 80 13 l48 6 -3 -33 c-2 -28 -7 -35 -29 -37 -24 -3 -26 -5 -15
-27 6 -14 18 -25 26 -24 10 0 11 2 3 6 -20 7 -15 33 5 33 27 0 25 -50 -2 -51
-20 0 -20 -1 -2 -8 18 -7 18 -8 2 -14 -10 -4 -23 -4 -29 0 -7 4 -8 0 -4 -11 4
-10 7 -25 7 -34 0 -13 5 -11 20 8 l21 25 -12 -27 c-7 -16 -16 -28 -21 -28 -5
0 -7 -4 -4 -9 3 -4 16 -6 30 -4 l24 5 1 181 c1 118 6 184 13 188 7 5 6 9 -3
12 -14 4 25 1 51 -5 9 -2 16 6 18 20 4 24 4 24 -48 12z m-50 -54 c0 -13 -7
-26 -15 -30 -11 -4 -15 2 -15 24 0 20 5 30 15 30 9 0 15 -9 15 -24z m-49 7 c6
-84 19 -137 19 -80 0 35 26 36 32 2 4 -17 1 -25 -8 -25 -8 0 -14 -4 -14 -10 0
-5 -13 -10 -29 -10 l-28 0 1 65 c1 45 5 65 14 65 6 0 12 -3 13 -7z"/>
<path d="M1518 1231 c8 -4 13 -11 13 -15 -3 -18 0 -20 9 -6 15 23 12 30 -12
30 -17 0 -19 -3 -10 -9z"/>
<path d="M2257 1224 c3 -8 11 -14 19 -14 21 0 17 17 -5 23 -14 3 -18 1 -14 -9z"/>
<path d="M2735 1229 c-22 -4 -60 -8 -85 -8 -38 -1 -42 -3 -30 -15 12 -11 30
-12 93 -4 42 6 77 14 77 19 0 5 8 9 18 8 10 0 12 -3 5 -6 -10 -3 -9 -11 2 -33
8 -16 12 -37 8 -46 -4 -12 -3 -15 5 -10 7 4 12 2 12 -4 0 -6 4 -9 9 -6 8 5 -3
88 -14 107 -7 11 -44 10 -100 -2z"/>
<path d="M2871 1226 c16 -9 29 -28 34 -48 5 -22 9 -27 12 -16 7 29 -20 73 -47
76 l-25 2 26 -14z"/>
<path d="M1564 1221 c4 -5 0 -11 -6 -13 -17 -6 -15 -113 2 -133 7 -8 23 -15
36 -15 54 0 120 -21 120 -38 7 -166 4 -252 -5 -128 -6 76 -7 80 -33 87 -16 4
-28 3 -28 -2 0 -5 6 -9 13 -9 23 0 38 -16 31 -35 -7 -17 -8 -17 -21 1 -8 10
-13 13 -13 5 0 -7 10 -21 23 -32 l22 -19 -25 3 c-14 2 -19 2 -12 0 6 -3 12
-20 12 -38 0 -27 5 -35 28 -44 24 -9 21 -10 -18 -5 -99 11 -146 15 -167 15
-22 -1 -23 3 -23 69 0 38 -5 72 -10 75 -6 4 -7 11 -4 17 4 6 10 5 15 -3 5 -8
9 -9 9 -3 0 6 -3 14 -7 18 -4 3 -6 49 -4 101 2 58 -1 95 -7 95 -15 0 -21 -23
-10 -42 5 -11 5 -18 -1 -18 -5 0 -8 -10 -6 -22 3 -12 -1 -26 -8 -30 -9 -6 -9
-8 1 -8 20 0 13 -133 -8 -142 -12 -5 -12 -7 3 -7 20 -1 22 -14 5 -44 -10 -19
-9 -20 3 -10 12 10 15 7 17 -16 2 -27 0 -28 -59 -35 -79 -8 -175 -6 -138 3 22
5 25 12 28 56 1 28 3 57 3 65 3 44 -1 49 -37 43 -23 -4 -35 -2 -35 6 0 6 4 11
8 11 5 0 9 7 9 15 0 9 -5 14 -11 12 -19 -6 -18 -36 2 -62 16 -20 21 -22 26
-10 7 19 26 19 26 0 0 -8 -4 -15 -9 -15 -5 0 -12 -7 -15 -16 -4 -12 -2 -15 9
-10 8 3 15 1 15 -3 0 -12 -30 -22 -42 -15 -7 4 -7 -2 -3 -17 4 -13 12 -27 18
-31 7 -4 2 -14 -14 -26 l-24 -20 -3 51 c-2 30 1 53 7 55 6 2 11 10 11 19 0 8
-6 13 -12 11 -8 -3 -14 -29 -16 -70 l-3 -65 -61 -7 c-33 -3 -89 -6 -124 -6
-55 0 -82 -8 -69 -22 2 -2 62 2 132 9 70 6 180 15 243 19 63 3 118 8 122 11 7
4 250 -17 428 -37 47 -6 99 -9 115 -9 29 1 30 1 5 9 -14 4 -42 8 -62 9 -26 1
-38 6 -41 19 -4 15 -5 15 -6 -2 -1 -14 -6 -17 -23 -12 -13 3 -26 6 -30 6 -5 0
-9 12 -9 28 -1 20 -2 22 -6 7 -8 -32 -17 -36 -61 -29 l-40 6 -6 82 c-15 200
-14 296 1 296 8 0 11 -4 8 -10 -3 -6 1 -7 10 -4 25 10 7 19 -81 43 -87 23
-118 26 -110 12z m90 -35 c35 -32 35 -59 0 -50 -19 5 -25 4 -20 -5 4 -6 17
-11 29 -11 18 0 22 -6 22 -30 0 -20 -5 -30 -15 -29 -20 1 -58 17 -42 18 6 1
12 8 12 17 0 9 -5 12 -11 8 -9 -5 -10 6 -7 40 6 46 -9 65 -19 26 -7 -28 -36
-21 -38 8 -1 20 2 23 22 19 13 -2 26 0 29 4 7 13 10 12 38 -15z m56 -69 c3
-37 2 -67 -2 -67 -5 0 -8 27 -8 60 0 33 -4 60 -10 60 -5 0 -10 5 -10 11 0 6 6
9 13 7 7 -3 14 -31 17 -71z m-100 -13 c0 -17 -6 -24 -20 -24 -14 0 -20 7 -20
23 0 13 -6 29 -12 35 -10 10 -6 10 20 1 24 -8 32 -17 32 -35z m87 -261 c-3
-10 -5 -4 -5 12 0 17 2 24 5 18 2 -7 2 -21 0 -30z"/>
<path d="M2041 1204 c0 -11 3 -14 6 -6 3 7 2 16 -1 19 -3 4 -6 -2 -5 -13z"/>
<path d="M2317 1188 c16 -85 44 -109 35 -30 -4 43 -15 61 -34 62 -4 0 -5 -15
-1 -32z"/>
<path d="M2081 1194 c0 -11 3 -14 6 -6 3 7 2 16 -1 19 -3 4 -6 -2 -5 -13z"/>
<path d="M1218 1195 c-2 -3 -31 -7 -64 -9 -140 -10 -166 -23 -124 -61 18 -16
20 -16 20 -2 0 10 5 17 10 17 15 0 12 -29 -4 -45 -8 -9 -17 -10 -25 -4 -8 6
-8 6 -1 -3 6 -7 10 -20 10 -31 0 -12 6 -17 18 -15 13 2 18 15 20 61 4 74 26
73 30 -1 3 -42 6 -50 20 -46 9 3 4 -2 -13 -10 -16 -8 -51 -18 -78 -21 -26 -4
-45 -10 -42 -15 3 -5 11 -7 18 -5 7 3 38 8 70 13 l58 9 -4 -31 c-3 -25 -9 -32
-33 -36 -16 -3 -24 -8 -19 -12 6 -3 22 -4 38 -1 19 4 27 12 28 27 5 98 10 163
14 174 3 8 0 12 -7 9 -7 -2 -13 -12 -13 -22 0 -10 -6 -20 -13 -23 -7 -2 -12 6
-12 21 0 28 33 42 74 31 18 -4 23 -11 21 -32 -4 -40 -16 -63 -29 -56 -6 3 -3
-1 7 -9 20 -17 25 -97 5 -97 -9 0 -10 -2 -2 -8 14 -9 15 -62 2 -62 -6 0 -6 -6
1 -14 9 -11 8 -18 -4 -30 -14 -14 -14 -16 -1 -16 8 0 16 -8 18 -17 2 -10 7 69
11 176 7 187 6 207 -5 196z m-1 -21 c-3 -3 -12 -4 -19 -1 -8 3 -5 6 6 6 11 1
17 -2 13 -5z"/>
<path d="M2240 1190 c0 -5 7 -7 15 -4 8 4 15 8 15 10 0 2 -7 4 -15 4 -8 0 -15
-4 -15 -10z"/>
<path d="M2385 1179 c4 -12 8 -31 9 -43 3 -27 14 -46 25 -46 5 0 5 19 0 43 -4
23 -8 45 -9 48 0 4 -7 10 -16 13 -12 5 -14 1 -9 -15z"/>
<path d="M1786 1111 c3 -42 8 -79 12 -83 4 -3 28 -9 55 -13 42 -6 47 -5 47 11
0 15 -2 16 -9 5 -15 -24 -59 -5 -64 27 l-4 27 -2 -27 c0 -16 -5 -28 -9 -28
-14 0 -7 55 8 62 13 6 13 7 0 7 -21 1 -22 48 -1 53 27 8 38 -1 34 -26 -5 -24
12 -44 25 -31 4 4 1 10 -5 12 -23 8 -14 33 12 33 14 0 24 -3 23 -7 -5 -18 14
-294 22 -320 8 -28 8 -28 8 7 0 19 -5 102 -11 184 l-12 148 -67 17 -67 17 5
-75z"/>
<path d="M2280 1161 c0 -12 5 -21 10 -21 6 0 10 6 10 14 0 8 -4 18 -10 21 -5
3 -10 -3 -10 -14z"/>
<path d="M2440 1154 c6 -14 10 -36 10 -50 0 -13 5 -24 10 -24 11 0 13 42 4 78
-4 12 -12 22 -20 22 -10 0 -11 -6 -4 -26z"/>
<path d="M2075 1160 c3 -5 8 -10 11 -10 2 0 4 5 4 10 0 6 -5 10 -11 10 -5 0
-7 -4 -4 -10z"/>
<path d="M979 1156 c-2 -2 -31 -7 -64 -11 -33 -3 -85 -12 -115 -20 -30 -7 -85
-16 -122 -20 -46 -4 -68 -11 -68 -20 0 -17 25 -37 35 -27 5 4 5 -1 2 -11 -4
-10 -7 -21 -7 -23 0 -3 -6 -2 -12 2 -10 6 -10 4 0 -7 21 -23 15 -49 -13 -49
-14 0 -25 -4 -25 -9 0 -9 39 -7 93 4 13 2 17 -4 17 -26 0 -23 -4 -29 -21 -29
-18 0 -19 -2 -9 -15 7 -8 9 -15 4 -15 -10 0 17 -20 27 -20 4 0 10 44 14 98 9
127 12 141 36 139 15 -1 19 -7 15 -27 -7 -36 -20 -183 -18 -194 2 -5 -4 -6
-13 -3 -8 4 -15 2 -15 -2 0 -9 30 -24 35 -19 2 2 9 60 16 131 9 90 17 127 26
127 7 0 13 -4 13 -10 0 -5 6 -10 14 -10 29 0 27 -21 -3 -31 -20 -7 -31 -18
-31 -31 0 -10 5 -16 10 -13 6 3 10 13 10 21 0 23 24 11 28 -13 2 -15 -5 -22
-30 -30 -29 -10 -30 -11 -8 -12 14 0 44 4 67 8 35 7 43 5 46 -8 2 -9 7 21 12
66 l8 83 33 6 c19 3 34 10 34 15 0 9 -13 12 -21 5z m-94 -46 c4 -6 11 -8 16
-5 5 4 9 1 9 -4 0 -6 -5 -11 -11 -11 -5 0 -7 -4 -4 -10 3 -5 0 -10 -7 -11 -10
0 -10 -2 0 -6 17 -7 15 -50 -4 -57 -28 -11 -30 -7 -24 49 4 34 2 56 -4 59 -6
2 -3 5 6 5 9 1 20 -4 23 -9z m-198 -32 c9 -11 10 -34 4 -85 0 -7 -8 -13 -16
-13 -12 0 -15 11 -13 55 3 56 8 65 25 43z"/>
<path d="M1243 1115 c0 -27 2 -38 4 -22 2 15 2 37 0 50 -2 12 -4 0 -4 -28z"/>
<path d="M2505 1119 c6 -35 23 -66 31 -56 7 9 -14 91 -25 95 -10 3 -12 -5 -6
-39z"/>
<path d="M2136 1135 c4 -8 15 -15 27 -15 23 0 22 2 -10 19 -19 10 -22 9 -17
-4z"/>
<path d="M2878 1143 c7 -3 16 -2 19 1 4 3 -2 6 -13 5 -11 0 -14 -3 -6 -6z"/>
<path d="M1938 1133 c7 -3 16 -2 19 1 4 3 -2 6 -13 5 -11 0 -14 -3 -6 -6z"/>
<path d="M2915 1133 c-22 -3 -44 -9 -50 -15 -7 -7 -3 -8 13 -3 13 4 22 2 22
-4 0 -6 -4 -11 -10 -11 -5 0 -10 -4 -10 -10 0 -5 7 -10 15 -10 8 0 15 9 15 20
0 15 7 20 30 21 42 2 47 3 56 12 7 7 -7 7 -81 0z"/>
<path d="M2085 1120 c3 -5 8 -10 11 -10 2 0 4 5 4 10 0 6 -5 10 -11 10 -5 0
-7 -4 -4 -10z"/>
<path d="M2226 1109 c2 -4 13 -7 24 -6 23 2 17 10 -10 12 -10 1 -17 -2 -14 -6z"/>
<path d="M2696 1109 c-57 -8 -89 -20 -50 -18 48 2 185 27 149 27 -22 0 -67 -4
-99 -9z"/>
<path d="M978 1100 c-9 -19 -11 -37 -9 -80 2 -33 3 -34 12 -10 11 27 8 115 -3
90z"/>
<path d="M2150 1095 c0 -8 5 -17 10 -20 6 -3 10 -2 10 4 0 6 13 8 33 4 42 -8
32 2 -15 15 -30 8 -38 8 -38 -3z"/>
<path d="M2936 1102 c-16 -4 -16 -4 0 -16 9 -7 14 -18 10 -24 -10 -16 -26 -15
-26 2 0 9 -7 12 -18 9 -10 -2 -18 -12 -18 -22 0 -12 6 -17 18 -13 13 3 18 -1
18 -17 0 -18 2 -20 14 -9 8 8 10 15 4 19 -5 4 -3 9 5 12 10 4 17 -2 21 -16 9
-35 8 -37 -29 -37 -19 0 -35 -3 -35 -7 1 -25 14 -53 26 -53 8 0 14 -4 14 -9 0
-5 3 -16 6 -24 3 -10 -2 -17 -13 -20 -16 -4 -16 -5 0 -6 18 -1 25 -21 7 -21
-5 0 -10 -7 -10 -16 0 -10 6 -14 14 -11 8 3 17 -1 20 -9 10 -27 7 -44 -10 -44
-8 0 -12 -5 -9 -10 4 -6 10 -8 15 -5 4 3 10 -4 13 -15 3 -11 0 -18 -5 -17 -6
1 -12 -3 -15 -10 -3 -7 3 -9 16 -6 12 3 21 1 21 -5 0 -6 -10 -13 -22 -15 -20
-4 -19 -4 5 -6 30 -1 31 1 18 47 -7 23 -6 32 2 32 8 0 9 3 1 8 -11 7 -29 69
-38 132 -3 19 -8 45 -12 58 -4 15 -2 22 8 22 19 0 44 -90 28 -100 -8 -5 -6 -9
5 -14 14 -5 16 1 13 39 -3 24 -7 48 -11 51 -12 12 -8 62 6 67 7 3 5 6 -5 6
-22 1 -24 21 -3 21 10 0 15 10 15 28 0 27 -15 33 -64 24z m54 -26 c0 -8 -7
-16 -15 -20 -10 -4 -15 1 -15 14 0 11 7 20 15 20 8 0 15 -6 15 -14z m-60 -124
c0 -15 -2 -15 -10 -2 -13 20 -13 33 0 25 6 -3 10 -14 10 -23z"/>
<path d="M2 1080 c0 -14 2 -19 5 -12 2 6 2 18 0 25 -3 6 -5 1 -5 -13z"/>
<path d="M1890 1088 c0 -11 -7 -14 -25 -10 -23 4 -24 2 -17 -19 5 -13 13 -24
18 -26 11 -4 39 56 30 64 -3 4 -6 -1 -6 -9z"/>
<path d="M564 1083 c-18 -3 -22 -13 -28 -71 -10 -108 -5 -135 10 -62 8 36 15
77 15 93 0 15 4 27 8 27 8 0 6 -38 -5 -115 -3 -22 -7 -51 -9 -64 -2 -13 0 -20
5 -15 5 5 14 52 20 104 7 52 14 98 17 103 4 7 3 7 -33 0z"/>
<path d="M1002 1060 c0 -14 2 -19 5 -12 2 6 2 18 0 25 -3 6 -5 1 -5 -13z"/>
<path d="M2091 1064 c0 -11 3 -14 6 -6 3 7 2 16 -1 19 -3 4 -6 -2 -5 -13z"/>
<path d="M2234 1056 c-3 -14 -4 -33 -1 -43 3 -10 5 -5 6 14 1 34 15 51 27 32
4 -7 3 -9 -2 -6 -9 5 20 -235 31 -258 2 -5 2 21 -1 59 -3 50 -1 72 8 78 10 6
9 8 -3 8 -24 0 -35 100 -14 116 14 10 14 12 -1 18 -29 11 -44 6 -50 -18z"/>
<path d="M2310 1054 c0 -10 28 -34 39 -34 20 0 11 -20 -11 -30 -13 -5 -18 -9
-12 -9 17 -1 26 -44 11 -53 -8 -5 -7 -8 6 -8 12 0 17 8 17 27 0 41 7 24 13
-35 6 -48 5 -51 -12 -42 -17 9 -18 7 -6 -27 7 -21 11 -49 9 -63 -3 -24 -2 -23
12 5 13 26 14 27 10 5 -3 -14 -6 -31 -6 -38 0 -10 -8 -12 -27 -8 -16 3 -35 1
-43 -5 -12 -8 -10 -9 7 -4 13 3 28 3 35 -1 7 -4 24 -9 38 -10 124 -12 158 -16
176 -20 20 -5 20 -3 13 48 -4 29 -8 61 -8 71 -1 9 -7 17 -15 17 -13 0 -13 -4
-1 -27 15 -29 10 -48 -5 -23 -6 9 -10 10 -10 3 0 -6 4 -14 9 -17 5 -3 11 -17
13 -31 5 -22 2 -25 -26 -24 -17 0 -26 3 -21 5 6 2 9 22 7 44 -2 22 -7 38 -11
36 -4 -3 -5 10 -4 27 2 18 -2 66 -9 107 l-13 75 -50 9 c-27 4 -67 14 -87 22
-21 8 -38 11 -38 8z m108 -54 c4 -12 8 -35 7 -53 0 -36 10 -47 43 -47 12 0 22
-4 22 -9 0 -5 3 -17 6 -25 5 -13 -1 -16 -32 -14 -38 3 -39 2 -41 -32 l-1 -35
7 35 c7 33 8 34 14 10 3 -14 8 -42 10 -62 3 -34 0 -38 -19 -38 -27 0 -28 4
-45 143 -10 84 -16 107 -28 108 -11 0 -12 2 -3 6 6 2 12 11 12 19 0 22 40 17
48 -6z m50 -37 c-5 -7 -8 -22 -5 -33 3 -11 2 -20 -3 -20 -10 0 -20 36 -20 72
0 27 1 27 20 11 14 -13 17 -20 8 -30z m16 -158 c2 -16 5 -32 5 -35 1 -3 6 2
11 10 9 13 10 13 9 0 -5 -79 -38 -67 -45 16 -5 61 10 68 20 9z"/>
<path d="M5 1040 c3 -5 10 -10 16 -10 5 0 9 5 9 10 0 6 -7 10 -16 10 -8 0 -12
-4 -9 -10z"/>
<path d="M2177 1030 c9 -11 19 -17 21 -15 6 6 -18 35 -29 35 -5 0 -1 -9 8 -20z"/>
<path d="M600 1015 c0 -14 4 -25 9 -25 4 0 6 11 3 25 -2 14 -6 25 -8 25 -2 0
-4 -11 -4 -25z"/>
<path d="M1356 1023 c-6 -14 -5 -15 5 -6 7 7 10 15 7 18 -3 3 -9 -2 -12 -12z"/>
<path d="M1620 1031 c0 -6 4 -13 10 -16 6 -3 7 1 4 9 -7 18 -14 21 -14 7z"/>
<path d="M115 970 c-4 -33 -12 -61 -18 -61 -7 -1 -19 -3 -27 -4 -8 -1 -28 -3
-44 -4 -48 -2 -18 -16 34 -16 l49 0 15 56 c18 63 20 89 7 89 -5 0 -12 -27 -16
-60z"/>
<path d="M63 1008 c2 -7 10 -12 17 -10 10 2 11 -1 3 -10 -14 -18 -22 -67 -12
-73 11 -7 16 4 23 58 7 44 6 47 -14 47 -13 0 -20 -5 -17 -12z"/>
<path d="M2156 993 c9 -38 14 -42 14 -10 0 14 -5 29 -10 32 -7 4 -8 -3 -4 -22z"/>
<path d="M5 1000 c-3 -5 1 -10 11 -10 12 0 14 -4 7 -12 -19 -24 -25 -68 -9
-68 12 0 26 46 26 88 0 14 -26 16 -35 2z"/>
<path d="M2103 975 c0 -22 2 -30 4 -17 2 12 2 30 0 40 -3 9 -5 -1 -4 -23z"/>
<path d="M1007 993 c-11 -11 -8 -23 6 -23 8 0 14 7 14 15 0 16 -9 19 -20 8z"/>
<path d="M1070 990 c0 -5 5 -10 11 -10 5 0 7 5 4 10 -3 6 -8 10 -11 10 -2 0
-4 -4 -4 -10z"/>
<path d="M1570 990 c0 -5 14 -10 32 -10 36 0 35 4 -4 14 -17 4 -28 2 -28 -4z"/>
<path d="M1810 990 c0 -5 5 -10 11 -10 5 0 7 5 4 10 -3 6 -8 10 -11 10 -2 0
-4 -4 -4 -10z"/>
<path d="M2180 991 c0 -24 14 -41 34 -40 16 1 17 2 4 6 -16 4 -22 15 -19 36 0
4 -3 7 -9 7 -5 0 -10 -4 -10 -9z"/>
<path d="M787 963 c-14 -14 -6 -45 17 -66 13 -12 24 -26 26 -32 3 -17 10 -19
12 -4 7 69 6 71 -23 65 -30 -6 -40 8 -13 18 8 3 12 10 9 16 -7 12 -19 13 -28
3z"/>
<path d="M954 963 c-6 -5 -14 -22 -17 -40 -5 -25 -3 -31 8 -27 7 3 11 12 9 19
-3 8 -1 22 5 32 9 14 10 9 6 -26 -2 -26 -12 -51 -25 -63 -24 -22 -27 -68 -5
-68 17 0 38 43 24 48 -15 6 -10 22 6 22 15 0 21 28 16 79 -2 22 -1 23 15 7 11
-12 25 -15 44 -11 26 6 27 4 22 -22 -2 -15 -9 -34 -15 -41 -14 -18 -15 -72 0
-72 14 0 19 17 27 85 7 59 1 70 -39 71 -16 1 -39 4 -50 8 -11 3 -25 3 -31 -1z"/>
<path d="M1570 945 c0 -14 4 -25 9 -25 4 0 6 11 3 25 -2 14 -6 25 -8 25 -2 0
-4 -11 -4 -25z"/>
<path d="M1607 963 c-5 -7 -3 -22 3 -33 10 -18 8 -20 -17 -21 -26 -1 -26 -1
-5 -7 13 -4 23 -10 23 -14 -1 -5 -1 -12 -1 -18 0 -5 -9 -10 -20 -10 -32 0 -23
-27 10 -32 l30 -5 -1 51 c-1 63 -12 106 -22 89z"/>
<path d="M2240 944 c0 -14 -4 -23 -9 -19 -5 3 -12 2 -14 -3 -3 -4 6 -12 19
-19 18 -8 22 -8 17 0 -4 7 -6 24 -4 39 1 16 0 28 -3 28 -3 0 -6 -12 -6 -26z"/>
<path d="M900 945 c0 -8 -9 -15 -20 -15 -18 0 -19 -3 -8 -20 10 -16 9 -24 -10
-49 -12 -17 -22 -39 -22 -51 0 -13 -7 -20 -20 -20 -11 0 -20 4 -20 10 0 5 -8
6 -17 3 -14 -6 -9 -10 22 -20 33 -11 34 -12 9 -9 -18 3 -35 2 -38 -2 -4 -3
-24 -8 -46 -9 l-38 -3 5 40 c5 35 3 40 -14 40 -18 0 -20 -4 -13 -40 7 -37 6
-40 -16 -40 -27 0 -28 2 -15 48 8 28 7 32 -9 32 -10 0 -22 -5 -26 -12 -4 -6
-3 -8 3 -5 5 3 9 -8 9 -28 -1 -26 -5 -35 -18 -35 -9 0 -19 8 -21 18 -4 13 -5
11 -6 -5 -1 -20 -7 -23 -41 -23 -42 0 -54 -14 -20 -23 11 -3 18 -2 15 2 -4 7
234 26 240 19 1 -2 6 -13 9 -25 6 -18 3 -20 -13 -16 -16 4 -21 -3 -30 -46 -6
-28 -14 -101 -17 -161 l-7 -110 82 0 c73 0 82 -2 79 -17 -3 -15 -15 -18 -85
-18 -122 0 -86 -12 57 -19 108 -6 123 -5 108 7 -19 15 -24 52 -8 62 5 3 7 20
3 36 -6 30 -5 30 16 18 21 -14 28 -29 12 -29 -5 0 -11 -11 -13 -25 -5 -25 -5
-25 81 -27 169 -5 273 -3 278 5 2 4 0 7 -6 7 -5 0 -9 29 -9 65 0 36 2 65 4 65
2 0 10 -12 18 -27 15 -27 15 -27 16 -5 0 22 25 41 37 29 6 -7 7 -116 0 -123
-11 -12 -37 11 -37 33 0 13 4 22 8 19 12 -7 38 12 29 21 -17 16 -42 -15 -45
-54 l-3 -41 68 -6 c98 -8 184 -6 177 5 -3 5 -40 9 -84 9 l-78 0 1 178 0 178
37 -9 c31 -9 36 -14 36 -39 0 -23 -3 -27 -18 -22 -10 3 -18 1 -18 -4 0 -5 9
-12 21 -15 12 -3 18 -10 14 -16 -3 -6 -12 -9 -18 -5 -7 3 -3 -2 7 -10 19 -15
19 -16 -10 -17 -22 -1 -24 -3 -7 -6 25 -5 39 -33 22 -43 -8 -6 -8 -9 1 -12 10
-3 10 -9 2 -23 -7 -15 -6 -23 4 -33 12 -11 14 8 14 126 0 112 -3 142 -15 152
-8 7 -15 9 -15 4 0 -5 -5 -2 -10 6 -8 13 -10 12 -10 -2 0 -10 7 -18 15 -18 8
0 15 -4 15 -8 0 -5 -13 -7 -30 -4 -25 4 -28 7 -19 23 6 13 6 19 -1 19 -5 0
-10 -7 -10 -15 0 -10 -10 -15 -27 -16 -16 0 -47 -1 -70 -2 -35 -2 -43 1 -46
18 -4 17 -4 17 -6 -3 0 -13 -6 -20 -11 -17 -6 4 -8 11 -5 16 4 5 1 9 -4 9 -6
0 -11 -10 -11 -21 0 -17 -3 -19 -14 -10 -17 15 -26 -13 -26 -86 0 -50 -2 -53
-25 -53 -34 0 -36 40 -2 41 l22 1 -23 6 c-13 4 -23 12 -23 17 0 6 10 13 23 17
21 6 21 6 2 7 -27 1 -27 31 -1 31 11 0 18 2 15 5 -7 7 -88 12 -88 6 0 -9 -95
-5 -110 4 -8 5 -11 4 -6 -3 3 -5 1 -12 -6 -14 -9 -3 -9 -12 0 -38 7 -18 12
-53 12 -76 0 -37 -3 -44 -20 -44 -11 0 -20 -7 -20 -16 0 -8 -4 -12 -10 -9 -5
3 -10 1 -10 -4 0 -6 14 -11 30 -11 24 0 30 4 30 23 0 17 2 19 9 8 7 -10 9 -2
7 25 -2 21 -2 31 1 22 2 -10 10 -18 17 -18 13 0 26 50 26 103 0 15 4 27 9 27
8 0 7 -35 -3 -107 -3 -19 1 -23 26 -23 l30 0 -23 20 c-13 10 -19 19 -13 20 6
0 10 18 9 45 -1 41 1 45 22 45 23 0 24 -3 22 -75 l-2 -75 -28 0 c-16 0 -29 -4
-29 -10 0 -5 14 -10 30 -10 28 0 30 -3 30 -35 0 -32 -2 -35 -30 -35 -27 0 -30
3 -30 30 0 17 -4 30 -9 30 -5 0 -12 10 -14 23 l-4 22 -2 -22 c-1 -16 -7 -23
-20 -23 -11 0 -23 -4 -26 -10 -3 -5 -2 -10 3 -10 6 0 7 -10 4 -22 -6 -23 -6
-23 -13 2 l-7 25 -1 -24 c-1 -17 -5 -21 -17 -17 -9 3 -22 6 -31 6 -9 0 -13 6
-9 15 3 8 -1 21 -9 29 -21 20 -19 39 3 34 10 -3 23 1 30 8 10 11 7 13 -17 8
-29 -6 -30 -5 -24 22 3 16 5 49 5 72 -1 42 0 43 17 28 17 -16 19 -15 24 19 7
45 0 65 -24 65 -10 0 -19 5 -19 10 0 6 -9 10 -20 10 -11 0 -20 -7 -20 -15 0
-16 -12 -20 -23 -8 -4 3 1 15 10 25 15 17 15 20 3 28 -13 8 -12 10 3 10 9 0
17 5 17 10 0 6 9 10 20 10 23 0 26 10 8 28 -9 9 -9 18 0 37 15 32 15 35 2 35
-5 0 -10 -7 -10 -15z m50 -198 c0 -21 -12 -28 -27 -16 -9 9 -13 8 -13 0 0 -15
-37 -14 -43 2 -3 7 -6 5 -6 -5 -1 -27 -66 -21 -79 6 -9 21 -7 21 79 24 72 3
89 1 89 -11z m408 -24 c-35 -4 -38 -7 -38 -36 0 -18 -3 -42 -6 -55 -6 -21 -4
-22 30 -19 20 2 39 0 42 -4 3 -5 -27 -9 -65 -9 -61 0 -71 2 -70 18 0 10 3 12
6 5 2 -7 13 -13 24 -13 16 0 19 7 19 54 0 49 -2 54 -20 49 -12 -3 -20 -14 -20
-27 0 -17 -2 -18 -10 -6 -25 38 -11 46 85 47 35 0 44 -2 23 -4z m-351 -45 c-3
-7 -5 -2 -5 12 0 14 2 19 5 13 2 -7 2 -19 0 -25z m233 -40 c0 -18 -5 -28 -15
-28 -11 0 -15 12 -15 53 1 50 1 51 15 27 8 -14 14 -37 15 -52z m150 33 c0 -36
-2 -40 -25 -38 -14 1 -25 5 -25 10 0 4 0 21 0 37 0 25 4 30 25 30 22 0 25 -4
25 -39z m-564 -37 c-5 -44 -3 -64 4 -59 5 3 10 -2 10 -14 0 -10 3 -27 7 -36 5
-15 3 -16 -15 -6 -13 7 -19 17 -16 26 4 8 2 15 -4 15 -5 0 -9 -19 -9 -42 0
-24 3 -35 6 -25 6 15 9 16 26 3 10 -7 25 -12 31 -9 9 3 10 -5 4 -32 -10 -46
-20 -56 -20 -21 0 15 -7 34 -15 42 -8 9 -15 11 -15 5 0 -6 -12 -11 -26 -11
-25 0 -26 1 -20 63 3 34 6 67 6 72 0 6 7 -1 15 -15 14 -24 14 -22 15 36 0 55
5 74 18 74 3 0 2 -30 -2 -66z m61 60 c-3 -3 -12 -4 -19 -1 -8 3 -5 6 6 6 11 1
17 -2 13 -5z m145 -34 c-2 -22 -6 -40 -8 -40 -2 0 -4 18 -4 40 0 22 3 40 8 40
4 0 6 -18 4 -40z m258 -2 c0 -9 -4 -20 -10 -23 -6 -4 -10 9 -10 32 0 28 3 34
10 23 5 -8 10 -23 10 -32z m-490 -10 c0 -38 -5 -34 -13 10 -4 21 -3 31 3 27 6
-3 10 -20 10 -37z m52 2 c-3 -25 -1 -30 15 -30 17 0 20 -7 19 -50 -1 -39 -4
-50 -16 -48 -9 2 -15 14 -15 30 0 14 -3 30 -7 34 -11 10 -10 106 0 100 5 -3 7
-19 4 -36z m-86 -40 c-3 -19 -6 -59 -6 -87 0 -44 -3 -53 -17 -53 -17 0 -17 8
-9 106 9 94 11 104 24 87 8 -11 11 -31 8 -53z m124 47 c0 -14 -6 -24 -15 -24
-15 0 -21 28 -8 40 13 14 23 6 23 -16z m520 -82 l0 -35 -105 0 -105 0 0 28 0
27 94 -3 c88 -3 95 -5 99 -25 3 -15 5 -12 6 11 1 43 11 41 11 -3z m-219 -12
c0 -16 2 -48 4 -73 5 -67 -4 -110 -24 -110 -14 0 -14 2 -1 10 8 5 12 12 8 15
-3 3 -13 -1 -21 -10 -21 -20 -24 -19 -21 8 1 12 3 25 3 30 1 4 10 7 21 7 11 0
20 4 20 9 0 5 -9 7 -20 4 -11 -3 -20 0 -20 6 0 6 10 12 23 12 16 1 18 2 5 6
-11 3 -18 14 -18 26 1 21 1 21 15 3 13 -18 14 -18 12 3 -1 11 -7 21 -14 21 -8
0 -13 12 -13 30 0 23 4 30 20 30 15 0 20 -7 21 -27z m-143 -98 c0 -36 -5 -65
-9 -65 -5 0 -9 14 -9 30 0 17 -4 30 -10 30 -5 0 -10 5 -10 10 0 6 7 10 15 10
9 0 15 9 15 25 0 14 2 25 5 25 2 0 4 -29 3 -65z m233 33 c0 -13 2 -31 4 -40 2
-12 -3 -18 -16 -18 -11 0 -17 -4 -14 -10 3 -5 -1 -10 -10 -10 -10 0 -13 5 -9
12 5 7 3 8 -5 3 -7 -4 -11 -16 -8 -26 3 -12 0 -19 -8 -19 -7 0 -12 6 -11 13 7
33 20 47 45 48 22 0 23 2 7 8 -18 7 -18 8 -2 14 12 5 17 14 13 27 -3 11 -1 20
4 20 5 0 9 -10 10 -22z m-51 -20 c0 -5 -4 -8 -10 -8 -5 0 -10 10 -10 23 0 18
2 19 10 7 5 -8 10 -18 10 -22z m-320 2 c0 -5 0 -13 -1 -16 0 -4 5 -10 11 -14
20 -12 3 -60 -20 -60 -13 0 -18 5 -14 15 4 8 10 15 15 15 5 0 9 5 9 11 0 5 -4
7 -10 4 -6 -4 -10 7 -10 24 0 17 5 31 10 31 6 0 10 -4 10 -10z m-77 -39 c-5
-3 -13 -15 -18 -26 -8 -19 -9 -19 -12 3 -6 29 -49 31 -58 2 -8 -24 -25 -27
-25 -4 0 9 5 12 12 8 8 -5 9 -2 5 9 -5 15 1 17 49 16 31 -1 52 -4 47 -8z m163
-39 c-11 -10 -15 4 -8 28 l7 25 3 -23 c2 -13 1 -26 -2 -30z m88 40 c-6 -4 -13
-14 -16 -22 -3 -10 -6 -8 -10 8 -5 18 -2 22 15 22 13 0 17 -3 11 -8z m-294
-22 c0 -5 -7 -10 -15 -10 -8 0 -15 5 -15 10 0 6 7 10 15 10 8 0 15 -4 15 -10z
m328 -26 c-10 -10 -28 6 -28 24 0 15 1 15 17 -1 9 -9 14 -19 11 -23z m-200
-37 c2 -12 -3 -17 -17 -17 -12 0 -21 6 -21 13 0 31 32 34 38 4z"/>
<path d="M781 514 c0 -11 3 -14 6 -6 3 7 2 16 -1 19 -3 4 -6 -2 -5 -13z"/>
<path d="M1160 570 c0 -5 5 -10 10 -10 6 0 10 5 10 10 0 6 -4 10 -10 10 -5 0
-10 -4 -10 -10z"/>
<path d="M1808 949 c13 -5 20 -13 17 -19 -3 -5 0 -10 8 -10 10 0 13 7 10 20
-4 14 -13 20 -32 19 -26 0 -26 0 -3 -10z"/>
<path d="M1860 941 c0 -6 8 -11 18 -11 13 0 17 -9 18 -46 1 -40 -1 -45 -18
-41 -10 3 -18 1 -18 -3 0 -19 13 -40 25 -40 15 0 23 37 21 100 -1 39 -4 45
-23 48 -13 2 -23 -1 -23 -7z"/>
<path d="M1133 924 c-7 -7 -13 -20 -13 -29 0 -8 -7 -15 -17 -15 -13 0 -11 -4
7 -20 30 -26 42 -14 38 38 -2 32 -5 37 -15 26z"/>
<path d="M2170 930 c-12 -8 -10 -10 8 -10 13 0 20 4 17 10 -7 12 -6 12 -25 0z"/>
<path d="M2876 925 c4 -8 11 -15 16 -15 6 0 5 6 -2 15 -7 8 -14 15 -16 15 -2
0 -1 -7 2 -15z"/>
<path d="M1990 920 c20 -13 33 -13 25 0 -3 6 -14 10 -23 10 -15 0 -15 -2 -2
-10z"/>
<path d="M996 903 c-10 -24 -7 -103 4 -103 5 0 7 21 3 49 -5 46 -4 49 18 53
24 3 24 3 2 10 -14 4 -24 1 -27 -9z"/>
<path d="M617 903 c-24 -6 -16 -27 11 -31 17 -3 22 2 22 17 0 21 -2 22 -33 14z"/>
<path d="M1821 898 c-1 -10 -5 -18 -11 -18 -5 0 -10 -16 -10 -35 0 -23 5 -35
14 -35 17 0 28 53 16 82 -7 18 -9 19 -9 6z m-4 -70 c-3 -8 -6 -5 -6 6 -1 11 2
17 5 13 3 -3 4 -12 1 -19z"/>
<path d="M1990 890 c0 -5 5 -10 10 -10 6 0 10 5 10 10 0 6 -4 10 -10 10 -5 0
-10 -4 -10 -10z"/>
<path d="M2185 890 c3 -5 8 -10 11 -10 2 0 4 5 4 10 0 6 -5 10 -11 10 -5 0 -7
-4 -4 -10z"/>
<path d="M2062 870 c0 -14 2 -19 5 -12 2 6 2 18 0 25 -3 6 -5 1 -5 -13z"/>
<path d="M2220 885 c0 -5 5 -17 10 -25 5 -8 10 -10 10 -5 0 6 -5 17 -10 25 -5
8 -10 11 -10 5z"/>
<path d="M773 865 c-3 -9 -3 -19 1 -22 3 -4 6 -1 6 5 0 7 7 12 16 12 8 0 12 5
9 10 -9 15 -25 12 -32 -5z"/>
<path d="M1650 850 c0 -39 14 -39 17 0 1 17 -2 30 -7 30 -6 0 -10 -13 -10 -30z"/>
<path d="M83 819 c-1 -29 -7 -57 -14 -63 -9 -8 -10 2 -6 47 6 57 5 57 -21 57
-26 -1 -26 -1 -8 -15 12 -9 15 -15 7 -15 -8 0 -11 -8 -8 -20 3 -11 1 -20 -4
-20 -14 0 -6 -24 11 -32 10 -4 5 -7 -13 -7 -17 -1 -26 -5 -22 -11 4 -6 24 -9
45 -6 24 2 43 -1 49 -8 13 -15 3 -28 -13 -19 -6 4 -28 8 -48 8 -34 1 -37 -1
-31 -19 9 -27 9 -64 -1 -99 -8 -25 -6 -27 20 -27 110 0 129 2 141 14 4 5 -13
7 -39 5 -28 -3 -48 0 -48 6 0 5 -4 4 -9 -4 -6 -9 -11 -10 -15 -2 -4 6 -1 14 8
17 8 3 17 13 21 22 5 13 3 14 -6 5 -6 -6 -18 -9 -27 -6 -8 4 -13 2 -10 -3 8
-11 -19 -50 -28 -41 -4 4 -2 13 4 20 7 8 9 17 5 20 -3 4 -1 7 5 7 6 0 9 9 7
20 -6 32 4 48 30 48 l24 0 -21 -18 c-16 -12 -19 -22 -13 -36 8 -18 8 -18 13 1
2 11 15 32 29 46 15 16 21 29 14 33 -15 9 -2 36 18 36 13 0 13 2 2 9 -8 5 -21
7 -29 4 -10 -4 -13 -1 -9 13 17 58 18 84 5 84 -9 0 -14 -16 -15 -51z"/>
<path d="M2003 863 c-16 -6 -17 -43 -2 -43 8 0 8 -5 -1 -15 -10 -12 -10 -15 4
-15 18 0 22 25 6 35 -7 4 -7 13 0 26 6 10 9 19 8 18 -2 0 -9 -3 -15 -6z"/>
<path d="M2252 850 c0 -14 2 -19 5 -12 2 6 2 18 0 25 -3 6 -5 1 -5 -13z"/>
<path d="M3 820 c0 -25 2 -35 4 -22 2 12 2 32 0 45 -2 12 -4 2 -4 -23z"/>
<path d="M1082 835 c0 -16 2 -22 5 -12 2 9 2 23 0 30 -3 6 -5 -1 -5 -18z"/>
<path d="M2329 848 c0 -7 -2 -23 -3 -36 -2 -13 1 -25 6 -28 4 -3 8 13 8 35 0
23 -2 41 -5 41 -3 0 -5 -6 -6 -12z"/>
<path d="M2840 851 c0 -5 6 -11 14 -14 16 -6 23 -27 61 -188 30 -128 30 -122
5 -114 -23 7 -27 -7 -7 -23 17 -15 57 -11 57 5 0 7 -4 13 -10 13 -12 0 -14 36
-2 43 4 2 2 3 -5 1 -6 -1 -13 5 -16 15 -3 14 2 18 24 19 21 0 29 -5 32 -21 4
-18 5 -17 6 6 1 23 -3 27 -26 27 l-28 1 30 14 c34 15 19 20 -18 6 -22 -9 -25
-6 -35 27 -13 47 -36 155 -34 163 0 3 -10 11 -23 17 -14 7 -25 8 -25 3z"/>
<path d="M424 841 c3 -4 0 -42 -6 -84 -10 -77 -4 -138 11 -121 7 8 31 156 31
190 0 7 -9 14 -20 17 -11 3 -18 2 -16 -2z"/>
<path d="M2980 840 c0 -5 5 -10 10 -10 6 0 10 5 10 10 0 6 -4 10 -10 10 -5 0
-10 -4 -10 -10z"/>
<path d="M360 830 c0 -5 5 -10 11 -10 5 0 7 5 4 10 -3 6 -8 10 -11 10 -2 0 -4
-4 -4 -10z"/>
<path d="M581 824 c0 -11 3 -14 6 -6 3 7 2 16 -1 19 -3 4 -6 -2 -5 -13z"/>
<path d="M720 829 c-13 -9 -12 -10 3 -5 13 4 17 0 17 -20 0 -14 4 -22 10 -19
14 9 12 55 -2 55 -7 0 -20 -5 -28 -11z"/>
<path d="M781 826 c-10 -12 -8 -13 8 -9 12 3 18 9 15 14 -7 12 -10 11 -23 -5z"/>
<path d="M1105 820 c-8 -12 20 -24 35 -15 5 3 10 10 10 16 0 12 -37 12 -45 -1z"/>
<path d="M485 810 c3 -5 8 -10 11 -10 2 0 4 5 4 10 0 6 -5 10 -11 10 -5 0 -7
-4 -4 -10z"/>
<path d="M2230 790 c0 -5 5 -10 11 -10 5 0 7 5 4 10 -3 6 -8 10 -11 10 -2 0
-4 -4 -4 -10z"/>
<path d="M1478 783 c7 -3 16 -2 19 1 4 3 -2 6 -13 5 -11 0 -14 -3 -6 -6z"/>
<path d="M1530 786 c0 -2 9 -6 20 -9 11 -3 18 -1 14 4 -5 9 -34 13 -34 5z"/>
<path d="M366 733 c-4 -27 -9 -60 -12 -75 -6 -31 10 -38 25 -10 5 9 12 43 16
75 6 47 5 57 -8 57 -10 0 -17 -15 -21 -47z"/>
<path d="M1365 770 c3 -5 8 -10 11 -10 2 0 4 5 4 10 0 6 -5 10 -11 10 -5 0 -7
-4 -4 -10z"/>
<path d="M2290 771 c0 -5 5 -13 10 -16 6 -3 10 -2 10 4 0 5 -4 13 -10 16 -5 3
-10 2 -10 -4z"/>
<path d="M1186 757 c3 -10 9 -15 12 -12 3 3 0 11 -7 18 -10 9 -11 8 -5 -6z"/>
<path d="M199 743 c-13 -16 -12 -17 4 -4 9 7 17 15 17 17 0 8 -8 3 -21 -13z"/>
<path d="M1518 753 c7 -3 16 -2 19 1 4 3 -2 6 -13 5 -11 0 -14 -3 -6 -6z"/>
<path d="M1574 725 c-3 -13 -3 -74 0 -137 3 -62 5 -134 6 -160 l0 -48 46 0 47
0 -6 72 c-4 51 -3 68 5 60 6 -6 10 -33 10 -61 -2 -49 -1 -51 26 -51 15 0 44
-3 65 -6 21 -4 37 -3 37 3 0 5 -10 9 -22 9 -21 -1 -23 4 -26 67 l-3 67 -89 0
-90 0 0 30 0 30 85 0 c78 0 85 -2 85 -20 0 -11 5 -20 11 -20 6 0 8 9 3 23 -4
12 -10 51 -13 86 l-6 63 -70 5 c-38 2 -76 6 -82 8 -7 2 -15 -6 -19 -20z m97
-63 c-4 -61 -14 -51 -23 24 -5 35 -3 41 11 37 13 -3 15 -15 12 -61z m59 36 c0
-7 3 -29 6 -49 6 -34 4 -36 -19 -36 -23 0 -26 4 -29 36 -2 23 2 40 12 48 19
16 30 16 30 1z m-90 -28 c0 -23 -4 -30 -20 -30 -14 0 -20 7 -20 23 0 27 7 37
27 37 8 0 13 -12 13 -30z m3 -57 c-7 -2 -21 -2 -30 0 -10 3 -4 5 12 5 17 0 24
-2 18 -5z m3 -115 c-3 -13 -6 -36 -6 -51 0 -16 -4 -26 -10 -22 -5 3 -10 15
-10 26 0 21 -16 26 -23 7 -3 -8 -6 -6 -6 5 -1 9 5 17 13 17 7 0 16 9 19 20 3
11 11 20 17 20 8 0 10 -8 6 -22z m94 0 c0 -17 -6 -23 -25 -24 -29 -2 -33 13
-7 32 25 19 32 17 32 -8z m-30 -48 c0 -5 -4 -10 -10 -10 -5 0 -10 5 -10 10 0
6 5 10 10 10 6 0 10 -4 10 -10z m33 -18 c-2 -10 -14 -19 -26 -19 -22 -2 -22
-2 2 18 29 23 30 24 24 1z m-123 -27 c0 -8 -4 -15 -9 -15 -5 0 -11 7 -15 15
-3 9 0 15 9 15 8 0 15 -7 15 -15z"/>
<path d="M720 726 c0 -9 -4 -14 -10 -11 -5 3 -10 3 -10 -2 0 -4 -32 -9 -71 -9
-48 -1 -74 -6 -80 -15 -6 -10 -9 -11 -9 -1 0 6 -11 12 -25 12 -22 0 -25 -4
-24 -32 0 -18 3 -27 6 -20 2 6 12 12 21 13 13 0 13 2 -3 8 -14 6 -2 9 38 9 32
1 62 4 67 7 6 3 10 -2 10 -12 1 -17 1 -17 14 0 17 22 36 22 36 -2 0 -11 -7
-18 -17 -18 -36 0 -42 -3 -38 -23 2 -11 0 -22 -4 -25 -5 -2 -11 8 -13 25 -2
16 -1 27 4 24 4 -3 8 0 8 6 0 7 -7 9 -16 6 -9 -3 -26 -6 -38 -6 -25 0 -30 -18
-43 -164 -6 -69 -20 -138 -22 -103 -1 18 -31 25 -31 6 0 -5 5 -7 12 -3 7 5 8
3 4 -5 -5 -7 -14 -10 -22 -7 -8 3 -14 0 -14 -7 0 -7 -5 -4 -11 7 -11 18 -8 96
5 127 9 20 -37 39 -95 39 -20 0 -40 6 -42 13 -4 8 -6 6 -6 -4 -1 -19 -57 -29
-162 -29 -44 0 -69 4 -72 13 -3 6 -6 3 -6 -7 -1 -11 -6 -47 -12 -82 -9 -53
-13 -61 -30 -57 -21 6 -27 -12 -6 -20 9 -4 9 -6 0 -6 -7 -1 -13 -6 -13 -11 0
-7 24 -10 63 -8 46 2 62 7 62 18 0 8 -15 18 -37 23 l-37 9 20 21 c11 12 16 23
11 25 -10 3 -3 72 8 72 10 0 20 -26 20 -53 0 -12 9 -37 20 -54 15 -26 27 -33
50 -33 23 0 30 4 30 20 0 10 5 42 11 70 10 46 13 50 39 50 34 0 54 -28 56 -77
1 -27 -3 -33 -20 -33 -14 0 -22 -7 -23 -19 -1 -14 4 -19 18 -18 22 1 25 13 7
20 -7 3 -3 6 10 6 13 1 20 -3 17 -9 -3 -5 -1 -10 4 -10 6 0 11 4 11 9 0 5 10
13 21 16 17 6 19 9 8 16 -10 6 -4 9 19 9 25 0 32 -4 32 -20 0 -16 -7 -20 -35
-20 -25 0 -35 -4 -35 -15 0 -9 -10 -20 -22 -25 -23 -9 -23 -9 -2 -9 12 -1 27
6 34 14 7 8 28 15 46 15 36 0 46 -15 17 -23 -10 -3 11 -4 47 -4 44 0 51 2 23
4 -52 5 -58 23 -8 23 19 0 35 5 35 10 0 6 25 10 55 10 30 0 55 -4 55 -10 0 -5
16 -10 35 -10 19 0 35 5 35 11 0 6 -9 8 -20 4 -18 -6 -20 -2 -20 32 0 50 23
126 35 116 5 -4 3 0 -4 9 -8 10 -10 26 -5 40 4 13 7 35 6 50 0 20 4 28 16 28
13 0 13 2 -4 15 -16 12 -17 14 -2 15 17 0 35 36 24 47 -3 4 -6 -1 -6 -11z
m-140 -111 l-23 -25 22 0 c12 0 19 -4 16 -10 -3 -5 1 -10 10 -10 9 0 13 5 10
10 -3 6 0 10 9 10 8 0 21 2 29 5 10 4 14 -3 15 -30 l1 -35 -65 0 -65 0 5 45
c6 55 12 65 38 65 21 0 21 0 -2 -25z m20 -5 c0 -5 -5 -10 -11 -10 -5 0 -7 5
-4 10 3 6 8 10 11 10 2 0 4 -4 4 -10z m-260 -86 c0 -13 7 -15 30 -10 26 5 30
3 30 -17 0 -27 -8 -38 -37 -54 -28 -16 -33 -16 -33 -2 0 5 4 8 9 4 5 -3 12 -1
16 5 3 5 1 10 -4 10 -6 0 -11 9 -11 21 0 11 -4 18 -9 14 -13 -7 -24 13 -17 30
7 20 26 19 26 -1z m255 -43 c-7 -24 -25 -28 -25 -6 0 8 4 15 10 15 5 0 7 8 3
18 -5 13 -3 14 7 6 7 -7 9 -21 5 -33z m-393 9 c-4 -14 -10 -55 -11 -72 -1 -13
-21 -9 -37 6 -11 11 -11 16 -1 19 8 4 6 6 -4 6 -11 1 -16 11 -16 32 0 28 2 30
36 27 26 -2 35 -7 33 -18z m351 -26 c-3 -9 2 -14 16 -14 34 0 27 -37 -7 -42
-28 -4 -28 -3 -28 49 1 44 3 51 13 37 6 -9 9 -22 6 -30z m-130 21 c-3 -9 -8
-14 -10 -11 -3 3 -2 9 2 15 9 16 15 13 8 -4z m217 -15 c0 -6 -7 -13 -15 -16
-12 -5 -13 -9 -4 -20 7 -8 9 -17 5 -21 -3 -3 -6 -1 -6 6 0 7 -4 9 -10 6 -13
-8 -13 11 0 36 11 20 30 26 30 9z"/>
<path d="M355 489 c-4 -6 -5 -12 -2 -15 2 -3 7 2 10 11 7 17 1 20 -8 4z"/>
<path d="M1525 730 c-13 -6 -15 -9 -5 -9 8 0 22 4 30 9 18 12 2 12 -25 0z"/>
<path d="M1795 721 c-9 -8 -5 -151 6 -226 l11 -75 74 0 c41 0 74 -4 74 -9 0
-5 9 -7 21 -4 16 4 17 8 7 14 -7 5 -9 9 -4 9 5 0 4 6 -2 13 -6 7 -14 69 -18
138 -4 68 -9 127 -13 130 -7 8 -150 17 -156 10z m54 -43 c-1 -18 -2 -19 -6 -5
-2 9 -9 15 -14 12 -5 -4 -9 -1 -9 4 0 6 7 11 15 11 9 0 15 -9 14 -22z m41 5
c0 -14 2 -14 20 2 11 10 22 16 24 14 2 -2 7 -52 11 -111 l7 -108 -26 0 c-26 0
-35 13 -16 25 6 3 10 11 10 17 0 7 -5 7 -14 -1 -11 -9 -15 -4 -20 32 -4 24 -2
56 4 72 6 15 8 30 6 33 -3 2 -8 -7 -12 -22 -5 -23 -8 -24 -21 -10 -14 13 -17
13 -34 -2 -18 -16 -19 -16 -19 17 0 19 4 29 8 23 4 -6 17 -13 30 -17 19 -4 23
-2 22 16 -3 31 -1 37 10 37 6 0 10 -7 10 -17z m-35 -63 c3 -5 1 -10 -4 -10 -6
0 -11 5 -11 10 0 6 2 10 4 10 3 0 8 -4 11 -10z m15 -65 c0 -18 -5 -25 -19 -25
-11 0 -21 -6 -24 -12 -6 -19 -16 -6 -23 30 -6 31 -6 32 30 32 32 0 36 -3 36
-25z m17 -71 c0 -9 -11 -11 -31 -9 l-31 5 28 -12 c32 -14 36 -29 5 -23 -30 6
-41 27 -22 42 20 15 51 13 51 -3z m42 -42 c0 -11 -3 -12 -6 -4 -2 6 -12 12
-21 12 -14 0 -15 2 -2 9 18 12 30 5 29 -17z"/>
<path d="M1904 588 c3 -13 6 -29 6 -35 0 -7 4 -13 10 -13 8 0 8 28 0 50 -2 3
-2 8 -1 13 0 4 -4 7 -10 7 -7 0 -9 -9 -5 -22z"/>
<path d="M1841 554 c0 -11 3 -14 6 -6 3 7 2 16 -1 19 -3 4 -6 -2 -5 -13z"/>
<path d="M2245 720 c-17 -7 -17 -9 -3 -9 10 -1 34 -16 55 -33 l37 -33 -24 33
c-13 17 -30 32 -37 32 -8 0 -11 5 -8 10 7 11 7 11 -20 0z"/>
<path d="M2315 700 c3 -5 13 -10 21 -10 8 0 14 -4 14 -10 0 -15 17 -12 23 4 4
10 1 13 -9 9 -7 -3 -14 0 -14 6 0 6 -9 11 -21 11 -11 0 -17 -4 -14 -10z"/>
<path d="M2390 681 c1 -25 1 -25 15 -7 19 25 19 33 0 33 -10 0 -15 -10 -15
-26z"/>
<path d="M2840 700 c-11 -7 -11 -11 -1 -24 10 -12 10 -16 2 -16 -7 0 -10 -4
-6 -9 3 -5 1 -12 -5 -16 -5 -3 -10 -13 -10 -21 0 -10 7 -13 25 -8 14 3 31 1
39 -5 18 -15 30 1 21 30 -5 14 -12 18 -25 14 -10 -3 -21 -1 -25 5 -3 5 -2 10
4 10 5 0 8 10 6 21 -6 28 -8 30 -25 19z"/>
<path d="M160 690 c-9 -6 -10 -10 -3 -10 6 0 15 5 18 10 8 12 4 12 -15 0z"/>
<path d="M198 688 c5 -5 16 -8 23 -6 8 3 3 7 -10 11 -17 4 -21 3 -13 -5z"/>
<path d="M1103 660 c0 -25 2 -35 4 -22 2 12 2 32 0 45 -2 12 -4 2 -4 -23z"/>
<path d="M2428 683 c-6 -7 -11 -24 -12 -38 -1 -29 -8 -31 -26 -10 -7 8 -19 15
-27 15 -11 0 -11 -4 -3 -20 6 -12 7 -20 1 -20 -5 0 -12 6 -14 13 -3 6 -5 -1
-5 -18 0 -16 2 -24 5 -17 4 10 8 10 19 1 11 -9 14 -6 14 16 0 21 3 25 13 17 7
-6 24 -9 38 -8 23 3 25 0 21 -27 l-5 -30 24 22 c17 16 31 20 49 16 39 -10 57
-54 23 -56 -10 0 -5 -5 12 -10 19 -5 31 -5 36 3 4 6 12 7 19 3 8 -5 11 -4 6 3
-3 6 -2 13 4 17 5 3 10 14 9 23 0 13 -3 12 -11 -5 -16 -33 -38 -29 -38 7 0 17
-3 30 -7 30 -5 0 -8 11 -8 25 0 14 6 25 13 25 6 0 12 4 12 9 0 5 -16 10 -35
10 -55 2 -65 4 -65 10 0 11 -52 6 -62 -6z m65 -40 c3 -16 -1 -32 -9 -40 -12
-12 -14 -11 -14 6 0 12 -4 21 -10 21 -19 0 -10 36 9 37 13 1 20 -7 24 -24z
m50 0 c3 -16 1 -32 -4 -37 -6 -6 -9 -3 -9 8 0 9 -4 15 -9 12 -5 -3 -12 1 -15
10 -10 26 -7 34 13 34 12 0 20 -9 24 -27z m-103 -3 c0 -5 -4 -10 -10 -10 -5 0
-10 5 -10 10 0 6 5 10 10 10 6 0 10 -4 10 -10z"/>
<path d="M940 661 c0 -6 5 -13 10 -16 6 -3 10 1 10 9 0 9 -4 16 -10 16 -5 0
-10 -4 -10 -9z"/>
<path d="M2157 655 c-5 -10 0 -15 14 -15 12 0 19 5 17 12 -6 18 -25 20 -31 3z"/>
<path d="M2622 656 c10 -7 15 -16 11 -19 -3 -4 3 -7 15 -7 12 0 22 5 22 11 0
5 -4 8 -9 5 -5 -3 -11 1 -15 9 -3 8 -13 15 -23 15 -17 -1 -17 -1 -1 -14z"/>
<path d="M391 637 c-10 -13 -10 -17 -1 -17 8 0 10 -8 6 -24 -8 -31 3 -40 26
-19 10 9 18 13 18 9 0 -4 16 2 35 14 19 12 35 17 35 11 0 -6 -4 -11 -9 -11 -5
0 -13 -9 -16 -20 -3 -11 -13 -20 -21 -20 -15 0 -18 -18 -6 -38 7 -10 12 -8 25
5 8 10 17 23 19 28 2 6 6 9 9 8 3 -1 6 3 6 10 0 7 4 28 7 47 4 22 3 30 -3 21
-6 -9 -18 -11 -40 -6 -24 5 -31 3 -29 -7 2 -7 -5 -12 -14 -12 -10 1 -19 -6
-19 -15 -1 -9 -4 -1 -8 18 -5 31 -7 33 -20 18z"/>
<path d="M2610 627 c0 -12 39 -52 52 -52 14 0 20 -15 23 -59 2 -42 1 -45 -24
-49 -25 -4 -25 -4 4 -5 23 -2 33 4 42 23 7 16 8 27 1 31 -5 3 -7 18 -4 33 5
19 4 22 -4 11 -8 -12 -10 -11 -10 8 0 15 -6 22 -20 22 -11 0 -20 6 -20 13 0 7
-9 18 -20 25 -16 10 -20 10 -20 -1z"/>
<path d="M2167 617 c-3 -7 3 -13 13 -13 10 0 16 6 13 13 -3 7 -9 13 -13 13 -4
0 -10 -6 -13 -13z"/>
<path d="M2407 596 c-22 -22 -21 -25 3 -19 12 3 20 0 20 -7 0 -8 -12 -10 -40
-5 -33 6 -40 4 -40 -9 0 -9 7 -16 15 -16 17 0 20 -17 5 -22 -7 -2 -7 -13 0
-35 9 -24 16 -30 31 -26 12 4 16 9 10 12 -6 4 -13 21 -17 38 -5 25 -2 31 15
36 12 3 24 1 27 -4 3 -5 9 -7 14 -4 5 3 11 1 15 -5 4 -6 11 -8 16 -5 5 4 9 1
9 -5 0 -6 5 -8 10 -5 6 3 10 1 10 -5 0 -7 -10 -15 -22 -18 -16 -5 -5 -9 37
-13 33 -3 69 -2 80 2 19 7 19 8 -2 8 -12 1 -27 9 -32 19 -10 16 -10 16 -11 0
0 -10 -5 -18 -11 -18 -5 0 -7 5 -4 10 3 6 0 10 -9 10 -8 0 -16 4 -18 10 -1 5
-12 11 -23 13 -33 5 -52 20 -61 51 -9 27 -11 28 -27 12z m-19 -111 c-3 -3 -9
2 -12 12 -6 14 -5 15 5 6 7 -7 10 -15 7 -18z"/>
<path d="M1530 589 c0 -5 5 -7 10 -4 6 3 10 8 10 11 0 2 -4 4 -10 4 -5 0 -10
-5 -10 -11z"/>
<path d="M2505 571 c-11 -5 -23 -7 -27 -4 -5 2 -8 0 -8 -5 0 -14 45 -21 64
-10 9 5 14 13 11 19 -7 11 -13 11 -40 0z"/>
<path d="M2303 563 c9 -2 23 -2 30 0 6 3 -1 5 -18 5 -16 0 -22 -2 -12 -5z"/>
<path d="M9 548 c-11 -7 -11 -11 -1 -15 13 -5 17 -33 4 -33 -4 0 -8 -19 -8
-42 -2 -50 11 -31 21 32 4 25 12 48 17 51 5 4 3 9 -5 12 -7 3 -20 1 -28 -5z"/>
<path d="M2660 540 c0 -11 -7 -20 -15 -20 -9 0 -15 -9 -15 -21 0 -17 3 -19 13
-10 8 6 16 9 19 6 3 -3 5 11 6 30 1 19 -1 35 -3 35 -3 0 -5 -9 -5 -20z"/>
<path d="M2965 550 c-3 -5 3 -10 14 -10 12 0 21 5 21 10 0 6 -6 10 -14 10 -8
0 -18 -4 -21 -10z"/>
<path d="M1440 535 c0 -8 2 -15 4 -15 2 0 6 7 10 15 3 8 1 15 -4 15 -6 0 -10
-7 -10 -15z"/>
<path d="M2180 525 c-2 -16 -4 -49 -5 -72 l-1 -41 54 -4 54 -3 -6 28 c-5 23
-2 27 19 27 18 0 24 -6 27 -27 3 -26 6 -28 48 -27 25 1 47 -2 50 -7 6 -9 278
-28 458 -32 87 -1 122 1 122 9 0 9 -31 11 -107 9 -60 -2 -100 0 -90 4 11 4
-41 6 -115 5 -171 -2 -138 16 44 23 110 5 126 8 121 22 -4 13 -2 13 10 -2 11
-13 22 -16 41 -11 31 7 25 24 -9 24 -13 0 -26 6 -29 13 -3 9 -8 8 -18 -4 -11
-14 -30 -16 -111 -13 -53 2 -97 0 -97 -4 0 -5 15 -7 33 -5 l32 3 -30 -10 c-33
-10 -236 -29 -247 -23 -5 2 -8 13 -8 24 0 10 -7 19 -15 19 -8 0 -15 -4 -15
-10 0 -5 -12 -10 -27 -10 -24 1 -25 2 -10 11 9 5 17 15 17 20 0 6 -4 8 -9 5
-20 -13 -41 7 -42 38 -1 29 -1 29 -8 6 -8 -30 -37 -39 -44 -13 -4 15 -5 14 -6
-4 -1 -24 -15 -36 -44 -38 -18 -2 -23 10 -30 70 l-4 30 -3 -30z m73 -92 c-7
-2 -19 -2 -25 0 -7 3 -2 5 12 5 14 0 19 -2 13 -5z"/>
<path d="M2980 515 c0 -8 4 -15 10 -15 5 0 7 7 4 15 -4 8 -8 15 -10 15 -2 0
-4 -7 -4 -15z"/>
<path d="M1525 510 c3 -5 14 -10 23 -10 15 0 15 2 2 10 -20 13 -33 13 -25 0z"/>
<path d="M2200 510 c0 -8 5 -22 10 -30 9 -13 10 -13 10 0 0 8 -5 22 -10 30 -9
13 -10 13 -10 0z"/>
<path d="M2431 508 c-1 -9 -7 -19 -13 -21 -10 -4 -10 -6 0 -6 19 -1 42 -26 42
-45 0 -13 10 -16 48 -14 l47 1 -44 4 c-37 4 -42 7 -38 24 3 12 0 19 -8 19 -7
0 -18 12 -23 28 -6 15 -11 20 -11 10z"/>
<path d="M2590 510 c0 -5 4 -10 9 -10 6 0 13 5 16 10 3 6 -1 10 -9 10 -9 0
-16 -4 -16 -10z"/>
<path d="M2737 513 c-16 -15 -5 -23 32 -23 44 0 71 8 71 21 0 10 -93 12 -103
2z"/>
<path d="M2850 506 c0 -9 8 -12 27 -8 25 5 25 6 8 13 -29 11 -35 10 -35 -5z"/>
<path d="M262 489 c-7 -11 -10 -24 -7 -29 3 -4 -1 -15 -9 -22 -22 -23 -29 -55
-12 -61 9 -4 18 -2 21 3 4 6 2 10 -3 10 -5 0 -9 7 -9 15 0 8 6 15 13 15 7 0
15 18 19 41 8 47 4 56 -13 28z"/>
<path d="M1361 494 c0 -11 3 -14 6 -6 3 7 2 16 -1 19 -3 4 -6 -2 -5 -13z"/>
<path d="M473 493 c9 -2 23 -2 30 0 6 3 -1 5 -18 5 -16 0 -22 -2 -12 -5z"/>
<path d="M1993 477 c-3 -6 -1 -7 4 -4 6 4 13 -2 16 -13 7 -29 47 -27 47 3 0
18 -6 22 -30 23 -17 1 -33 -3 -37 -9z"/>
<path d="M2980 480 c-8 -5 -25 -7 -37 -3 -14 3 -23 1 -23 -6 0 -6 5 -11 10
-11 6 0 10 -6 10 -13 0 -10 10 -12 32 -9 28 4 30 6 13 13 -11 4 -15 8 -9 8 7
1 14 8 18 16 6 18 6 18 -14 5z"/>
<path d="M473 473 c9 -2 23 -2 30 0 6 3 -1 5 -18 5 -16 0 -22 -2 -12 -5z"/>
<path d="M2085 472 c17 -12 16 -32 -1 -32 -12 0 -15 -7 -12 -27 3 -24 0 -28
-23 -29 -20 -1 -25 3 -22 16 3 10 0 21 -6 24 -7 4 -11 -1 -11 -13 0 -16 -6
-21 -27 -21 -16 0 -35 -5 -43 -10 -10 -7 19 -10 93 -10 65 0 107 4 107 10 0 6
-7 10 -15 10 -11 0 -15 12 -15 45 0 36 -3 45 -17 45 -10 0 -14 -4 -8 -8z m15
-62 c0 -5 -4 -10 -10 -10 -5 0 -10 5 -10 10 0 6 5 10 10 10 6 0 10 -4 10 -10z"/>
<path d="M2716 468 c3 -5 18 -8 34 -8 16 0 31 3 34 8 2 4 -13 7 -34 7 -21 0
-36 -3 -34 -7z"/>
<path d="M2808 473 c7 -3 16 -2 19 1 4 3 -2 6 -13 5 -11 0 -14 -3 -6 -6z"/>
<path d="M2888 473 c7 -3 16 -2 19 1 4 3 -2 6 -13 5 -11 0 -14 -3 -6 -6z"/>
<path d="M291 454 c0 -11 3 -14 6 -6 3 7 2 16 -1 19 -3 4 -6 -2 -5 -13z"/>
<path d="M1430 448 c0 -5 17 -8 37 -8 20 0 33 3 30 7 -10 9 -67 10 -67 1z"/>
<path d="M1536 448 c3 -4 9 -8 15 -8 5 0 9 4 9 8 0 5 -7 9 -15 9 -8 0 -12 -4
-9 -9z"/>
<path d="M446 415 c4 -8 8 -15 10 -15 2 0 4 7 4 15 0 8 -4 15 -10 15 -5 0 -7
-7 -4 -15z"/>
<path d="M1480 420 c0 -5 5 -10 10 -10 6 0 10 5 10 10 0 6 -4 10 -10 10 -5 0
-10 -4 -10 -10z"/>
<path d="M1520 421 c0 -4 11 -6 25 -3 14 2 25 6 25 8 0 2 -11 4 -25 4 -14 0
-25 -4 -25 -9z"/>
<path d="M2135 400 c3 -5 10 -10 16 -10 5 0 9 5 9 10 0 6 -7 10 -16 10 -8 0
-12 -4 -9 -10z"/>
<path d="M2863 403 c9 -2 25 -2 35 0 9 3 1 5 -18 5 -19 0 -27 -2 -17 -5z"/>
<path d="M2928 403 c7 -3 16 -2 19 1 4 3 -2 6 -13 5 -11 0 -14 -3 -6 -6z"/>
<path d="M1438 393 c12 -2 32 -2 45 0 12 2 2 4 -23 4 -25 0 -35 -2 -22 -4z"/>
<path d="M1538 393 c7 -3 16 -2 19 1 4 3 -2 6 -13 5 -11 0 -14 -3 -6 -6z"/>
<path d="M1830 390 c-11 -7 -7 -10 17 -10 17 0 35 5 38 10 8 13 -35 13 -55 0z"/>
<path d="M2210 390 c-23 -7 -23 -8 -3 -9 12 -1 25 4 28 9 3 6 5 10 3 9 -2 -1
-14 -5 -28 -9z"/>
<path d="M1685 370 c-4 -6 6 -10 24 -10 16 0 33 5 36 10 4 6 -6 10 -24 10 -16
0 -33 -4 -36 -10z"/>
<path d="M2298 373 c7 -3 16 -2 19 1 4 3 -2 6 -13 5 -11 0 -14 -3 -6 -6z"/>
<path d="M565 360 c-4 -6 3 -10 14 -10 25 0 27 6 6 13 -8 4 -17 2 -20 -3z"/>
<path d="M2133 353 c9 -2 25 -2 35 0 9 3 1 5 -18 5 -19 0 -27 -2 -17 -5z"/>
<path d="M2330 344 c-41 -8 -109 -16 -150 -19 -41 -3 -113 -10 -160 -15 -98
-11 -640 -9 -640 2 0 5 55 9 123 10 l122 2 -100 4 c-104 3 -189 -4 -181 -16 2
-4 -53 -9 -122 -10 -230 -6 -140 -12 177 -12 214 0 310 -3 306 -10 -5 -8 35
-9 126 -4 112 6 131 5 124 -7 -6 -11 -5 -11 4 -3 8 7 27 8 52 4 22 -4 41 -4
44 0 9 14 -7 18 -43 13 -26 -4 -34 -2 -27 5 6 6 73 13 150 16 230 10 321 18
301 25 -10 4 26 7 80 8 95 0 184 9 194 19 10 11 -310 0 -380 -12z m183 -1 c-7
-2 -21 -2 -30 0 -10 3 -4 5 12 5 17 0 24 -2 18 -5z"/>
<path d="M2770 341 l-105 -6 98 -8 c54 -4 103 -5 108 -1 5 3 35 7 65 9 31 2
58 6 62 9 6 6 -61 5 -228 -3z"/>
<path d="M78 330 c107 -9 117 -20 17 -20 -43 0 -76 -2 -74 -4 9 -8 249 -14
249 -6 0 5 -8 11 -17 13 -14 4 -12 5 5 6 12 0 22 -5 22 -12 0 -11 32 -15 138
-20 130 -6 405 -20 647 -32 61 -3 173 -8 250 -10 77 -3 185 -7 240 -10 207
-12 282 -15 360 -16 44 0 145 -5 225 -10 224 -14 867 -22 855 -10 -7 7 -179
15 -440 21 -237 6 -506 15 -600 20 -93 5 -298 14 -455 20 -157 6 -442 18 -635
27 -192 10 -400 17 -462 18 -61 0 -106 4 -100 8 12 8 513 1 592 -8 28 -4 34
-3 20 4 -20 8 -711 33 -850 30 l-70 -2 83 -7z"/>
<path d="M1233 333 c9 -2 23 -2 30 0 6 3 -1 5 -18 5 -16 0 -22 -2 -12 -5z"/>
<path d="M1060 321 c0 -5 30 -7 68 -4 96 7 99 11 10 12 -43 1 -78 -3 -78 -8z"/>
<path d="M1850 320 c-40 -6 -37 -7 29 -8 41 -1 72 0 70 2 -11 9 -58 12 -99 6z"/>
<path d="M2593 313 c3 -5 -41 -7 -96 -7 l-102 2 90 -8 c135 -13 508 -31 513
-25 19 18 -90 29 -296 30 -50 0 -92 3 -92 8 0 4 -5 7 -11 7 -5 0 -8 -3 -6 -7z"/>
<path d="M2105 278 c22 -4 66 -7 97 -7 31 -1 60 -6 63 -11 4 -6 12 -7 18 -3 7
4 66 6 132 4 77 -1 116 1 110 7 -6 6 -110 12 -235 14 -124 2 -207 0 -185 -4z"/>
<path d="M23 273 c15 -2 37 -2 50 0 12 2 0 4 -28 4 -27 0 -38 -2 -22 -4z"/>
<path d="M168 263 c17 -2 47 -2 65 0 17 2 3 4 -33 4 -36 0 -50 -2 -32 -4z"/>
<path d="M387 262 c13 -8 172 -17 163 -9 -3 2 -43 7 -90 10 -47 4 -80 3 -73
-1z"/>
<path d="M2600 260 c-54 -4 -41 -6 76 -12 78 -4 172 -6 210 -3 56 3 62 2 29
-5 l-40 -8 45 4 c25 2 53 4 63 5 9 0 17 4 17 10 0 14 -261 20 -400 9z m238 -7
c-10 -2 -26 -2 -35 0 -10 3 -2 5 17 5 19 0 27 -2 18 -5z"/>
<path d="M4 248 c-3 -4 10 -8 28 -8 18 0 96 -2 173 -5 l140 -4 -105 9 c-161
14 -231 17 -236 8z"/>
<path d="M390 229 c-24 -5 -12 -6 39 -3 41 2 76 6 79 9 8 7 -78 4 -118 -6z"/>
<path d="M946 231 c-10 -4 23 -6 75 -4 127 5 144 11 34 11 -49 0 -99 -3 -109
-7z"/>
<path d="M108 203 c18 -2 45 -2 60 0 15 2 0 4 -33 4 -33 0 -45 -2 -27 -4z"/>
<path d="M2833 163 c9 -2 25 -2 35 0 9 3 1 5 -18 5 -19 0 -27 -2 -17 -5z"/>
<path d="M2918 163 c18 -2 45 -2 60 0 15 2 0 4 -33 4 -33 0 -45 -2 -27 -4z"/>
<path d="M298 153 c7 -3 16 -2 19 1 4 3 -2 6 -13 5 -11 0 -14 -3 -6 -6z"/>
<path d="M125 140 c-3 -5 -1 -10 4 -10 6 0 11 5 11 10 0 6 -2 10 -4 10 -3 0
-8 -4 -11 -10z"/>
<path d="M2038 133 c7 -3 16 -2 19 1 4 3 -2 6 -13 5 -11 0 -14 -3 -6 -6z"/>
<path d="M2278 133 c7 -3 16 -2 19 1 4 3 -2 6 -13 5 -11 0 -14 -3 -6 -6z"/>
<path d="M2678 133 c6 -2 18 -2 25 0 6 3 1 5 -13 5 -14 0 -19 -2 -12 -5z"/>
<path d="M38 123 c7 -3 16 -2 19 1 4 3 -2 6 -13 5 -11 0 -14 -3 -6 -6z"/>
<path d="M1730 120 l-95 -6 95 -1 c52 -1 133 2 180 6 l85 8 -85 0 c-47 -1
-128 -4 -180 -7z"/>
<path d="M1605 110 c-3 -6 1 -7 9 -4 18 7 21 14 7 14 -6 0 -13 -4 -16 -10z"/>
<path d="M1478 103 c12 -2 32 -2 45 0 12 2 2 4 -23 4 -25 0 -35 -2 -22 -4z"/>
<path d="M1558 103 c6 -2 18 -2 25 0 6 3 1 5 -13 5 -14 0 -19 -2 -12 -5z"/>
<path d="M2770 99 l-65 -6 80 -1 c44 0 89 3 100 8 23 9 -5 9 -115 -1z"/>
<path d="M2933 103 c15 -2 37 -2 50 0 12 2 0 4 -28 4 -27 0 -38 -2 -22 -4z"/>
<path d="M1160 90 c-20 -6 -21 -8 -5 -8 11 0 31 4 45 8 20 6 21 8 5 8 -11 0
-31 -4 -45 -8z"/>
<path d="M1288 93 c7 -3 16 -2 19 1 4 3 -2 6 -13 5 -11 0 -14 -3 -6 -6z"/>
<path d="M1328 93 c6 -2 18 -2 25 0 6 3 1 5 -13 5 -14 0 -19 -2 -12 -5z"/>
<path d="M2570 90 c-69 -3 -120 -7 -115 -9 17 -4 239 0 244 5 9 8 -6 9 -129 4z"/>
<path d="M1538 83 c29 -2 74 -2 100 0 26 2 2 3 -53 3 -55 0 -76 -1 -47 -3z"/>
<path d="M2318 83 c6 -2 18 -2 25 0 6 3 1 5 -13 5 -14 0 -19 -2 -12 -5z"/>
<path d="M2420 79 c0 -5 5 -7 10 -4 6 3 10 8 10 11 0 2 -4 4 -10 4 -5 0 -10
-5 -10 -11z"/>
<path d="M2870 70 c0 -5 5 -10 10 -10 6 0 10 5 10 10 0 6 -4 10 -10 10 -5 0
-10 -4 -10 -10z"/>
<path d="M958 63 c7 -3 16 -2 19 1 4 3 -2 6 -13 5 -11 0 -14 -3 -6 -6z"/>
<path d="M1000 60 c8 -5 28 -10 44 -10 39 0 30 6 -19 13 -27 4 -35 3 -25 -3z"/>
<path d="M2805 60 c-20 -9 -20 -9 0 -9 11 0 29 4 40 9 20 9 20 9 0 9 -11 0
-29 -4 -40 -9z"/>
<path d="M905 50 c-3 -5 -2 -10 4 -10 5 0 13 5 16 10 3 6 2 10 -4 10 -5 0 -13
-4 -16 -10z"/>
<path d="M1358 53 c7 -3 16 -2 19 1 4 3 -2 6 -13 5 -11 0 -14 -3 -6 -6z"/>
<path d="M1518 38 c5 -5 16 -8 23 -6 8 3 3 7 -10 11 -17 4 -21 3 -13 -5z"/>
<path d="M2618 43 c7 -3 16 -2 19 1 4 3 -2 6 -13 5 -11 0 -14 -3 -6 -6z"/>
<path d="M818 33 c7 -3 16 -2 19 1 4 3 -2 6 -13 5 -11 0 -14 -3 -6 -6z"/>
<path d="M1238 33 c12 -2 30 -2 40 0 9 3 -1 5 -23 4 -22 0 -30 -2 -17 -4z"/>
<path d="M1448 13 c6 -2 18 -2 25 0 6 3 1 5 -13 5 -14 0 -19 -2 -12 -5z"/>
</g>
</svg>
