<?xml version="1.0" standalone="no"?>
<!DOCTYPE svg PUBLIC "-//W3C//DTD SVG 20010904//EN"
 "http://www.w3.org/TR/2001/REC-SVG-20010904/DTD/svg10.dtd">
<svg version="1.0" xmlns="http://www.w3.org/2000/svg"
 width="300.000000pt" height="300.000000pt" viewBox="0 0 300.000000 300.000000"
 preserveAspectRatio="xMidYMid meet">
<metadata>
Created by potrace 1.10, written by Peter Selinger 2001-2011
</metadata>
<g transform="translate(0.000000,300.000000) scale(0.100000,-0.100000)"
fill="#000000" stroke="none">
<path d="M1085 2812 c-29 -18 -63 -52 -52 -52 4 0 22 11 42 24 51 35 101 41
165 19 59 -19 106 -71 96 -105 -2 -10 0 -15 5 -12 13 8 6 46 -14 77 -9 14 -17
32 -17 38 0 7 -3 10 -6 6 -4 -3 -19 0 -35 8 -41 22 -147 19 -184 -3z"/>
<path d="M1320 2805 c0 -8 2 -15 4 -15 2 0 6 7 10 15 3 8 1 15 -4 15 -6 0 -10
-7 -10 -15z"/>
<path d="M1110 2750 c0 -5 7 -7 15 -4 8 4 15 8 15 10 0 2 -7 4 -15 4 -8 0 -15
-4 -15 -10z"/>
<path d="M1066 2739 c5 -8 -3 -10 -25 -7 -17 2 -31 2 -31 -2 0 -10 23 -30 36
-30 7 0 28 -10 48 -22 24 -16 33 -29 31 -43 -2 -11 -6 -63 -9 -115 -8 -134
-34 -556 -46 -740 -6 -85 -15 -225 -20 -310 -5 -85 -12 -184 -15 -220 -4 -58
-14 -200 -30 -445 -3 -44 -14 -210 -25 -369 -11 -158 -17 -292 -14 -297 3 -5
-3 -8 -13 -7 -56 4 -206 -4 -188 -11 11 -5 22 -7 26 -5 3 1 92 5 197 8 106 4
196 7 200 7 22 4 31 -4 34 -28 3 -24 9 -29 42 -34 33 -5 37 -4 23 6 -18 13
-24 65 -7 65 6 0 10 20 10 44 0 30 5 46 15 50 9 3 15 0 15 -9 0 -9 10 -15 26
-15 16 0 24 -5 21 -12 -2 -7 -11 -12 -20 -10 -11 2 -15 -2 -11 -13 3 -8 1 -15
-5 -15 -10 0 -15 14 -12 33 1 5 -2 6 -7 3 -5 -3 -7 -24 -5 -47 3 -28 0 -45 -9
-51 -10 -8 -10 -9 2 -5 8 2 16 16 18 31 3 25 7 28 32 24 l29 -4 3 99 c2 54 1
100 -2 102 -3 1 -14 -1 -24 -5 -14 -4 -16 -9 -8 -14 7 -4 10 -12 7 -17 -10
-16 -25 -10 -25 10 0 11 -4 23 -10 26 -6 4 -10 -7 -10 -24 0 -17 -4 -31 -10
-31 -5 0 -10 5 -10 10 0 6 -8 10 -17 9 -11 0 -13 -3 -5 -6 15 -6 16 -43 1 -43
-7 0 -9 -10 -7 -25 6 -28 -8 -43 -24 -27 -12 12 0 75 13 66 5 -3 9 -1 9 4 0 6
-7 12 -15 16 -9 3 -15 0 -15 -8 0 -7 -7 -19 -15 -26 -13 -10 -15 -9 -15 12 0
13 9 30 20 38 23 17 27 50 5 50 -8 0 -15 5 -15 10 0 14 134 10 162 -4 21 -11
23 -10 24 16 l1 28 -93 0 c-52 0 -97 1 -101 3 -5 1 -9 -13 -11 -30 -3 -25 1
-33 13 -33 33 0 8 -25 -28 -28 -30 -3 -36 0 -40 20 l-4 23 -2 -24 c-1 -22 -4
-23 -41 -17 -33 5 -38 4 -33 -10 4 -11 15 -14 40 -11 32 5 34 3 29 -16 -3 -12
-6 -34 -6 -49 0 -26 -3 -28 -40 -28 -22 0 -40 -5 -40 -11 0 -6 10 -10 23 -9
45 4 57 0 57 -20 0 -23 -3 -24 -30 -8 -16 10 -24 10 -41 0 -11 -7 -30 -10 -41
-6 -13 4 -24 1 -29 -7 -12 -20 -12 17 0 39 9 16 19 153 56 752 21 324 44 692
50 770 2 36 7 110 10 165 5 95 19 324 30 485 2 41 7 132 11 203 4 70 9 127 11
127 21 0 144 -34 148 -41 10 -16 21 -10 22 12 2 16 -1 18 -12 9 -10 -8 -16 -7
-22 5 -11 19 -76 44 -116 45 -15 0 -41 -7 -56 -14 -27 -14 -28 -14 -24 8 3 15
-1 25 -12 29 -10 5 -14 3 -9 -4z m119 -2447 c-3 -7 -5 -31 -5 -52 0 -35 -2
-38 -22 -33 -13 3 -19 2 -15 -3 4 -4 31 -10 60 -11 66 -4 77 -8 77 -30 0 -13
-3 -14 -8 -5 -12 18 -52 24 -52 7 0 -10 -13 -14 -46 -13 l-46 1 6 51 c3 28 6
62 6 77 0 20 5 25 25 25 18 0 24 -4 20 -14z m183 -25 c2 -12 -3 -17 -17 -17
-12 0 -21 5 -21 12 0 9 -3 9 -12 0 -17 -17 -28 -15 -28 4 0 8 4 12 10 9 5 -3
18 -1 27 4 23 13 37 9 41 -12z m-288 -122 c0 -8 -4 -15 -10 -15 -5 0 -10 7
-10 15 0 8 5 15 10 15 6 0 10 -7 10 -15z m180 5 c0 -5 -6 -10 -12 -11 -10 0
-10 -2 0 -6 18 -7 15 -53 -3 -53 -11 0 -15 11 -15 40 0 29 4 40 15 40 8 0 15
-4 15 -10z"/>
<path d="M1280 2719 c0 -5 5 -7 10 -4 6 3 10 8 10 11 0 2 -4 4 -10 4 -5 0 -10
-5 -10 -11z"/>
<path d="M1400 2673 c0 -29 5 -53 10 -53 11 0 47 38 43 45 -6 10 -18 5 -18 -7
0 -6 -6 -13 -12 -15 -16 -6 -18 53 -3 62 6 3 10 1 10 -4 0 -6 5 -11 11 -11 21
0 4 33 -18 35 -21 2 -23 -3 -23 -52z"/>
<path d="M818 2703 c7 -3 16 -2 19 1 4 3 -2 6 -13 5 -11 0 -14 -3 -6 -6z"/>
<path d="M957 2654 c-13 -27 -47 -93 -75 -147 -48 -91 -66 -147 -42 -132 6 3
10 15 10 26 0 19 26 72 75 154 14 22 29 49 34 60 10 20 10 20 10 0 0 -11 -4
-42 -9 -70 -4 -27 -5 -56 0 -64 4 -7 12 38 17 100 6 63 9 116 7 118 -1 2 -14
-19 -27 -45z"/>
<path d="M2445 2680 c-4 -6 5 -9 19 -8 15 1 26 6 26 10 0 12 -38 10 -45 -2z"/>
<path d="M1178 2613 c5 -76 10 -83 11 -15 0 34 -2 62 -7 62 -4 0 -6 -21 -4
-47z"/>
<path d="M1238 2643 c7 -3 16 -2 19 1 4 3 -2 6 -13 5 -11 0 -14 -3 -6 -6z"/>
<path d="M1330 2630 l-25 -8 27 -1 c15 -1 30 4 33 9 7 11 0 11 -35 0z"/>
<path d="M1262 2590 c0 -19 2 -27 5 -17 2 9 2 25 0 35 -3 9 -5 1 -5 -18z"/>
<path d="M1283 2565 c0 -33 2 -45 4 -27 2 18 2 45 0 60 -2 15 -4 0 -4 -33z"/>
<path d="M1448 2613 c7 -3 16 -2 19 1 4 3 -2 6 -13 5 -11 0 -14 -3 -6 -6z"/>
<path d="M1640 2616 c0 -2 8 -10 18 -17 15 -13 16 -12 3 4 -13 16 -21 21 -21
13z"/>
<path d="M1701 2604 c0 -11 3 -14 6 -6 3 7 2 16 -1 19 -3 4 -6 -2 -5 -13z"/>
<path d="M1082 2590 c0 -14 2 -19 5 -12 2 6 2 18 0 25 -3 6 -5 1 -5 -13z"/>
<path d="M1394 2595 c-3 -8 -4 -20 -1 -27 3 -7 6 -2 6 11 1 20 5 22 29 17 20
-5 23 -4 12 4 -21 14 -40 12 -46 -5z"/>
<path d="M1477 2603 c-4 -3 -3 -11 2 -17 6 -7 11 -36 14 -66 l3 -55 2 58 2 59
33 -6 c29 -6 30 -5 8 4 -14 6 -31 8 -39 5 -10 -3 -12 0 -8 10 5 15 -5 21 -17
8z"/>
<path d="M1355 2591 c-3 -5 -1 -12 5 -16 5 -3 10 1 10 9 0 18 -6 21 -15 7z"/>
<path d="M1565 2588 c17 -6 33 -15 36 -20 3 -5 9 -10 12 -10 39 0 47 -12 49
-67 l2 -56 3 50 c4 52 14 65 48 64 20 0 20 0 0 -10 -14 -6 -7 -7 25 -3 34 4
41 3 30 -6 -13 -10 -13 -11 0 -9 8 1 29 -3 45 -10 17 -6 36 -14 43 -16 6 -2
12 -20 12 -40 0 -19 4 -35 10 -35 5 0 8 6 6 13 -3 6 -7 27 -10 44 -5 29 -3 32
12 24 9 -5 29 -13 43 -19 23 -9 27 -18 33 -71 7 -65 26 -86 69 -78 17 2 14 5
-14 11 -36 8 -36 8 -46 77 -5 38 -6 69 -1 69 4 0 8 -4 8 -9 0 -16 25 -18 50
-3 25 14 25 14 -8 8 -18 -3 -31 -2 -28 3 3 5 -9 12 -27 16 -17 4 -48 11 -67
15 -239 54 -240 54 -220 40 12 -8 12 -10 1 -10 -8 0 -20 8 -28 18 -8 9 -12 11
-8 5 8 -17 -5 -16 -19 1 -6 8 -29 16 -51 20 -38 5 -39 5 -10 -6z m285 -68 c20
-6 21 -8 5 -8 -11 0 -29 3 -40 8 -25 11 1 11 35 0z m67 -16 c-3 -3 -12 -4 -19
-1 -8 3 -5 6 6 6 11 1 17 -2 13 -5z m40 -10 c-3 -3 -12 -4 -19 -1 -8 3 -5 6 6
6 11 1 17 -2 13 -5z"/>
<path d="M1463 2535 c0 -27 2 -38 4 -22 2 15 2 37 0 50 -2 12 -4 0 -4 -28z"/>
<path d="M800 2561 c0 -6 4 -13 10 -16 6 -3 7 1 4 9 -7 18 -14 21 -14 7z"/>
<path d="M1355 2551 c-3 -5 -1 -12 5 -16 5 -3 10 1 10 9 0 18 -6 21 -15 7z"/>
<path d="M936 2524 c-4 -14 -5 -28 -3 -31 3 -2 8 8 11 23 4 14 5 28 3 31 -3 2
-8 -8 -11 -23z"/>
<path d="M1261 2534 c0 -11 3 -14 6 -6 3 7 2 16 -1 19 -3 4 -6 -2 -5 -13z"/>
<path d="M1562 2530 c0 -14 2 -19 5 -12 2 6 2 18 0 25 -3 6 -5 1 -5 -13z"/>
<path d="M1587 2502 c7 -69 11 -74 12 -15 1 28 -3 54 -8 57 -5 3 -6 -16 -4
-42z"/>
<path d="M1682 2515 c0 -11 4 -33 8 -50 l8 -30 0 30 c0 17 -3 39 -8 50 -9 20
-9 20 -8 0z"/>
<path d="M60 2508 c0 -5 9 -8 19 -8 11 0 22 3 24 8 3 4 -6 7 -19 7 -13 0 -24
-3 -24 -7z"/>
<path d="M1083 2475 c0 -27 2 -38 4 -22 2 15 2 37 0 50 -2 12 -4 0 -4 -28z"/>
<path d="M1215 2504 l40 -14 -37 5 c-35 5 -37 4 -34 -20 3 -31 3 -31 44 -38
32 -6 32 -6 32 32 0 32 -4 40 -22 45 -45 12 -63 4 -23 -10z m20 -44 c3 -5 -3
-10 -14 -10 -12 0 -21 5 -21 10 0 6 6 10 14 10 8 0 18 -4 21 -10z"/>
<path d="M1780 2460 c0 -29 3 -50 7 -46 7 7 5 87 -3 95 -2 2 -4 -20 -4 -49z"/>
<path d="M1290 2461 c0 -22 2 -41 4 -41 2 0 13 -3 23 -6 15 -6 16 -4 6 7 -17
17 -16 30 1 23 8 -3 17 -15 21 -27 7 -20 8 -20 14 8 6 28 4 31 -29 43 l-35 12
38 -4 c20 -3 37 -1 37 5 0 5 -8 9 -17 9 -10 0 -28 3 -40 6 -21 6 -23 3 -23
-35z"/>
<path d="M924 2455 c-3 -14 -10 -25 -15 -25 -5 0 -9 -6 -9 -14 0 -8 -7 -22
-16 -31 -9 -9 -14 -19 -10 -22 8 -8 7 -9 44 60 17 31 27 57 22 57 -5 0 -12
-11 -16 -25z"/>
<path d="M1400 2471 c0 -10 60 -24 68 -16 8 8 0 12 -35 18 -18 4 -33 3 -33 -2z"/>
<path d="M1762 2440 c0 -19 2 -27 5 -17 2 9 2 25 0 35 -3 9 -5 1 -5 -18z"/>
<path d="M1940 2434 c0 -21 4 -45 9 -53 5 -8 7 5 4 35 -7 61 -13 70 -13 18z"/>
<path d="M2037 2463 c6 -4 13 -22 16 -38 4 -27 5 -27 3 4 0 21 -7 36 -16 38
-10 3 -11 2 -3 -4z"/>
<path d="M1500 2448 c0 -4 6 -8 13 -8 6 0 23 -3 36 -7 16 -4 22 -2 18 4 -8 13
-67 23 -67 11z"/>
<path d="M1852 2430 c0 -19 2 -27 5 -17 2 9 2 25 0 35 -3 9 -5 1 -5 -18z"/>
<path d="M2074 2429 c3 -19 10 -68 16 -109 6 -41 20 -129 30 -195 11 -66 26
-165 35 -220 8 -55 22 -140 30 -190 8 -49 26 -162 39 -250 14 -88 39 -245 56
-350 16 -104 37 -233 45 -285 15 -98 36 -228 80 -503 14 -87 25 -160 25 -162
0 -3 4 -5 8 -5 4 0 -5 78 -20 173 -16 94 -42 258 -58 362 -53 336 -90 566
-115 720 -14 83 -29 179 -34 215 -9 64 -78 501 -106 674 -22 133 -21 139 15
131 19 -4 30 -3 30 4 0 6 -8 11 -17 11 -10 0 -28 3 -41 6 -22 6 -23 4 -18 -27z"/>
<path d="M942 2425 c-14 -31 -15 -46 -2 -25 8 12 10 10 10 -8 0 -13 -4 -20
-10 -17 -6 4 -9 3 -8 -2 3 -11 -13 -57 -22 -63 -5 -3 -19 -25 -32 -50 -13 -25
-36 -63 -50 -85 -14 -22 -28 -60 -31 -85 l-6 -45 20 24 c10 13 19 31 18 40 0
12 -2 12 -9 -4 -8 -18 -9 -18 -9 -2 -1 16 11 39 66 132 7 11 17 30 23 43 6 14
15 20 22 16 6 -4 9 -3 6 2 -3 5 -2 18 3 29 5 12 6 -8 2 -49 -5 -64 -11 -78
-67 -162 -41 -63 -63 -89 -69 -81 -5 7 -6 3 -2 -10 3 -12 1 -24 -5 -28 -6 -4
-11 -21 -11 -38 -1 -70 -5 -113 -13 -125 -4 -7 -6 -25 -5 -40 2 -15 1 -32 -2
-37 -9 -16 -20 -65 -14 -65 2 0 11 16 19 35 9 20 36 62 61 94 25 33 45 64 45
69 0 6 6 12 13 15 6 2 9 7 6 11 -4 4 -32 -27 -63 -70 -48 -66 -56 -73 -56 -50
0 15 4 25 10 21 5 -3 7 0 4 8 -3 8 -1 18 5 22 6 3 11 11 11 16 0 6 -4 7 -10 4
-20 -12 -9 33 17 71 76 111 104 156 100 160 -3 3 -15 -12 -28 -33 -13 -21 -26
-40 -29 -43 -3 -3 -16 -22 -29 -43 -13 -21 -25 -36 -27 -34 -5 5 17 69 28 82
19 22 78 117 78 126 0 5 4 9 10 9 9 0 7 -66 -5 -160 -13 -109 -17 -150 -17
-190 0 -43 0 -43 -7 -10 l-6 35 -25 -35 c-27 -38 -38 -53 -57 -74 -7 -8 -9
-16 -6 -19 6 -7 66 67 76 93 4 11 6 10 7 -5 1 -11 4 -36 5 -55 6 -58 -10 -95
-72 -169 -60 -72 -73 -82 -73 -56 0 8 5 15 11 15 5 0 7 5 4 11 -8 13 28 69 83
129 40 43 57 75 28 51 -8 -7 -16 -8 -18 -4 -3 4 -3 2 -2 -5 3 -12 -2 -20 -60
-87 -24 -28 -25 -28 -26 -8 0 27 10 54 19 49 4 -3 8 4 8 16 2 19 1 19 -18 -3
-12 -14 -19 -35 -18 -54 1 -16 -1 -37 -5 -45 -9 -23 -26 -154 -20 -159 8 -8
23 21 17 35 -4 11 20 42 119 153 l31 35 28 280 c15 155 33 334 40 399 7 64 10
120 7 122 -3 3 -10 -6 -16 -20z"/>
<path d="M1400 2443 c0 -5 12 -14 28 -21 l27 -12 -27 4 c-38 4 -35 -9 3 -23
18 -6 34 -11 35 -11 2 0 4 14 4 30 0 17 -5 30 -12 30 -7 0 -23 3 -35 6 -13 4
-23 2 -23 -3z"/>
<path d="M2032 2420 c0 -19 2 -27 5 -17 2 9 2 25 0 35 -3 9 -5 1 -5 -18z"/>
<path d="M2177 2363 c7 -42 16 -79 19 -82 3 -3 3 10 0 29 -3 19 -8 56 -11 83
-4 26 -10 47 -14 47 -4 0 -1 -34 6 -77z"/>
<path d="M1180 2401 c0 -25 4 -31 22 -31 21 0 21 0 2 16 -17 14 -17 15 -1 10
10 -3 21 -6 23 -6 2 0 4 -9 4 -20 0 -31 17 -24 22 9 4 24 0 31 -18 35 -12 3
-29 9 -38 12 -13 5 -16 -1 -16 -25z"/>
<path d="M1502 2404 c2 -21 9 -28 29 -31 21 -3 28 2 32 19 7 26 10 24 -31 33
-32 7 -33 6 -30 -21z m48 -14 c0 -5 -4 -10 -9 -10 -6 0 -13 5 -16 10 -3 6 1
10 9 10 9 0 16 -4 16 -10z"/>
<path d="M1620 2420 c36 -11 50 -11 50 0 0 6 -17 10 -37 9 -34 -1 -35 -2 -13
-9z"/>
<path d="M1291 2371 c1 -20 3 -28 6 -18 5 20 43 23 43 3 0 -28 18 -26 22 3 4
25 0 29 -34 38 l-38 10 1 -36z"/>
<path d="M1602 2399 c2 -8 14 -15 26 -17 12 -2 22 -8 22 -14 0 -6 -9 -8 -20
-5 -11 3 -22 2 -25 -3 -6 -10 51 -19 64 -10 13 8 2 50 -13 50 -6 0 -22 3 -35
7 -18 4 -23 2 -19 -8z"/>
<path d="M1710 2400 c8 -5 26 -9 40 -9 23 0 23 1 5 9 -11 5 -29 9 -40 9 -17 1
-17 -1 -5 -9z"/>
<path d="M1703 2369 c4 -13 7 -27 7 -31 0 -11 30 -10 30 1 0 5 -6 12 -12 14
-8 3 -6 6 5 6 11 1 17 -6 17 -19 0 -32 15 -23 17 10 2 23 -2 30 -17 30 -10 0
-26 3 -36 7 -14 5 -16 2 -11 -18z"/>
<path d="M1810 2380 c8 -5 24 -10 35 -10 17 0 17 2 5 10 -8 5 -24 10 -35 10
-17 0 -17 -2 -5 -10z"/>
<path d="M902 2360 c-7 -11 -8 -20 -3 -20 9 0 24 30 18 36 -1 2 -8 -6 -15 -16z"/>
<path d="M1400 2371 c0 -5 14 -12 30 -16 17 -4 30 -11 30 -17 0 -6 -13 -8 -30
-6 -16 3 -30 1 -30 -3 0 -4 14 -10 30 -14 17 -4 30 -10 30 -15 0 -5 -14 -5
-31 0 -30 9 -30 8 -27 -23 2 -26 7 -32 26 -31 12 0 22 -3 22 -8 0 -4 3 -8 8
-8 4 0 8 31 9 69 2 64 1 69 -20 75 -32 8 -47 7 -47 -3z m45 -101 c3 -5 -1 -10
-9 -10 -9 0 -16 5 -16 10 0 6 4 10 9 10 6 0 13 -4 16 -10z"/>
<path d="M2041 2364 c0 -11 3 -14 6 -6 3 7 2 16 -1 19 -3 4 -6 -2 -5 -13z"/>
<path d="M2062 2355 c0 -16 2 -22 5 -12 2 9 2 23 0 30 -3 6 -5 -1 -5 -18z"/>
<path d="M1005 2360 c3 -5 8 -10 11 -10 2 0 4 5 4 10 0 6 -5 10 -11 10 -5 0
-7 -4 -4 -10z"/>
<path d="M1800 2345 c0 -14 6 -28 13 -30 32 -11 51 -9 54 5 4 22 -8 36 -39 44
-25 6 -28 4 -28 -19z m40 -15 c0 -5 -2 -10 -4 -10 -3 0 -8 5 -11 10 -3 6 -1
10 4 10 6 0 11 -4 11 -10z"/>
<path d="M1895 2364 c6 -2 9 -19 7 -38 -3 -29 -1 -34 21 -38 21 -4 26 -1 29
24 4 23 1 28 -16 29 -18 1 -17 2 4 8 l25 7 -25 7 c-27 7 -62 8 -45 1z m45 -54
c0 -5 -4 -10 -9 -10 -6 0 -13 5 -16 10 -3 6 1 10 9 10 9 0 16 -4 16 -10z"/>
<path d="M1070 2318 c-3 -26 -1 -43 3 -39 5 5 7 26 5 47 l-3 39 -5 -47z"/>
<path d="M1500 2353 c0 -5 16 -14 35 -20 29 -9 35 -9 35 3 0 8 -6 14 -12 14
-7 0 -23 3 -35 6 -13 4 -23 2 -23 -3z"/>
<path d="M835 2328 c3 -15 1 -30 -5 -33 -5 -3 -10 -16 -10 -27 0 -14 8 -6 25
26 25 46 35 79 13 41 -11 -19 -11 -19 -20 0 -6 16 -7 14 -3 -7z"/>
<path d="M1180 2316 c0 -20 4 -36 9 -36 15 0 22 18 10 22 -7 2 -10 9 -8 15 3
7 12 7 29 1 15 -6 20 -12 13 -15 -18 -7 -16 -23 2 -23 10 0 15 10 15 30 0 17
-5 30 -12 30 -7 0 -23 3 -35 6 -21 6 -23 3 -23 -30z"/>
<path d="M1607 2324 c7 -18 70 -19 70 -1 0 7 -15 13 -38 13 -28 2 -36 -1 -32
-12z"/>
<path d="M880 2324 c0 -5 -16 -33 -35 -63 -19 -29 -35 -60 -35 -69 0 -10 18
16 41 57 22 40 37 76 34 79 -3 3 -5 1 -5 -4z"/>
<path d="M1290 2293 c0 -26 4 -33 20 -33 25 0 25 9 3 26 -17 12 -16 13 5 14
17 0 22 -6 22 -25 0 -14 5 -25 10 -25 6 0 10 15 10 34 0 31 -3 34 -35 38 -34
4 -35 3 -35 -29z"/>
<path d="M1990 2313 c0 -7 9 -13 20 -13 11 0 20 -4 20 -9 0 -5 -10 -7 -22 -4
-16 4 -20 2 -13 -5 16 -17 65 -26 65 -12 0 6 -5 8 -11 4 -8 -5 -10 1 -7 19 4
22 1 26 -24 29 -19 3 -28 0 -28 -9z"/>
<path d="M1500 2311 c0 -10 60 -24 68 -16 8 8 0 12 -35 18 -18 4 -33 3 -33 -2z"/>
<path d="M1711 2270 c2 -46 4 -50 25 -50 13 0 24 -5 24 -11 0 -6 -9 -9 -20 -6
-13 3 -20 0 -20 -9 0 -8 6 -14 14 -14 8 0 20 -2 28 -5 9 -4 13 4 13 26 0 26
-5 31 -28 36 -21 4 -25 8 -15 14 10 7 10 9 1 9 -7 0 -13 7 -13 16 0 9 7 14 18
12 9 -2 17 -9 17 -16 0 -6 5 -11 10 -9 6 1 9 11 7 21 -3 24 -1 22 -34 30 -27
6 -28 6 -27 -44z"/>
<path d="M2072 2295 c0 -16 2 -22 5 -12 2 9 2 23 0 30 -3 6 -5 -1 -5 -18z"/>
<path d="M1660 2285 c0 -8 5 -15 10 -15 6 0 10 7 10 15 0 8 -4 15 -10 15 -5 0
-10 -7 -10 -15z"/>
<path d="M1810 2268 c0 -15 5 -28 11 -28 6 0 9 7 5 15 -3 9 0 15 10 15 10 0
14 -6 11 -15 -4 -8 -2 -17 3 -20 6 -4 10 0 10 9 0 8 3 21 6 29 4 10 -4 16 -25
19 -28 4 -31 2 -31 -24z"/>
<path d="M1510 2253 c0 -20 3 -34 6 -30 3 3 16 2 29 -3 20 -8 23 -5 27 21 3
16 4 29 4 29 -1 0 -16 4 -34 9 -32 10 -32 9 -32 -26z m45 -3 c3 -5 -3 -10 -14
-10 -12 0 -21 5 -21 10 0 6 6 10 14 10 8 0 18 -4 21 -10z"/>
<path d="M1907 2251 c7 -31 3 -27 33 -34 23 -5 25 -3 26 26 0 29 -2 32 -33 33
-30 0 -32 -1 -26 -25z m33 -11 c0 -5 -2 -10 -4 -10 -3 0 -8 5 -11 10 -3 6 -1
10 4 10 6 0 11 -4 11 -10z"/>
<path d="M1172 2259 c2 -8 17 -15 32 -17 24 -3 27 -7 23 -28 -3 -16 0 -24 9
-24 9 0 14 12 14 35 0 27 -4 35 -17 35 -10 0 -29 3 -42 7 -18 4 -23 2 -19 -8z"/>
<path d="M1612 2233 c0 -26 4 -33 19 -33 21 0 26 16 7 23 -7 2 -10 8 -6 12 12
12 30 -6 25 -26 -3 -11 -1 -19 4 -19 5 0 9 6 9 13 0 6 3 22 6 33 5 19 1 22
-29 26 -34 4 -35 3 -35 -29z"/>
<path d="M878 2195 c-21 -35 -38 -67 -38 -72 0 -4 19 23 41 60 23 38 39 70 37
72 -1 2 -20 -25 -40 -60z"/>
<path d="M2000 2232 c0 -23 5 -31 23 -34 28 -5 47 0 47 13 0 6 -5 7 -11 3 -8
-4 -9 0 -4 15 4 15 2 21 -9 21 -8 0 -21 3 -30 6 -12 5 -16 -1 -16 -24z m37 -8
c-3 -3 -12 -4 -19 -1 -8 3 -5 6 6 6 11 1 17 -2 13 -5z"/>
<path d="M2202 2240 c0 -14 2 -19 5 -12 2 6 2 18 0 25 -3 6 -5 1 -5 -13z"/>
<path d="M85 2240 c-3 -5 1 -10 10 -10 9 0 13 5 10 10 -3 6 -8 10 -10 10 -2 0
-7 -4 -10 -10z"/>
<path d="M1142 2230 c0 -14 2 -19 5 -12 2 6 2 18 0 25 -3 6 -5 1 -5 -13z"/>
<path d="M1290 2237 c0 -10 11 -17 28 -19 22 -2 26 -7 24 -25 -2 -13 2 -23 7
-23 6 0 11 16 11 35 0 21 -5 35 -12 35 -7 0 -23 3 -35 6 -17 5 -23 2 -23 -9z"/>
<path d="M1170 2220 c0 -13 7 -20 19 -20 30 0 33 16 6 28 -22 10 -25 9 -25 -8z"/>
<path d="M1400 2216 c0 -10 9 -16 25 -16 16 0 25 -6 25 -15 0 -11 -7 -14 -25
-9 -14 3 -25 2 -25 -3 0 -6 15 -10 33 -11 29 -1 32 2 34 28 1 18 -3 30 -10 30
-7 0 -22 3 -34 6 -17 5 -23 2 -23 -10z"/>
<path d="M1815 2212 c3 -7 5 -21 5 -30 0 -11 9 -18 28 -19 23 -2 27 2 28 27 1
25 -3 29 -33 32 -26 3 -32 1 -28 -10z m43 -30 c2 -7 -2 -10 -12 -6 -9 3 -16
11 -16 16 0 13 23 5 28 -10z"/>
<path d="M2655 2220 c-3 -6 1 -7 9 -4 18 7 21 14 7 14 -6 0 -13 -4 -16 -10z"/>
<path d="M1290 2198 c0 -7 10 -14 21 -15 12 -1 20 -1 18 0 -2 2 -12 9 -21 16
-15 11 -18 11 -18 -1z"/>
<path d="M1510 2196 c0 -10 9 -16 25 -16 14 0 25 -5 25 -11 0 -7 -10 -9 -25
-5 -19 5 -25 2 -25 -10 0 -11 6 -15 20 -11 11 3 23 1 26 -4 11 -18 19 -8 21
26 1 28 -2 35 -17 35 -10 0 -25 3 -34 6 -11 4 -16 1 -16 -10z"/>
<path d="M1910 2194 c0 -7 10 -14 22 -16 12 -2 23 -9 26 -17 3 -9 -2 -11 -17
-6 -12 4 -21 2 -21 -4 0 -6 6 -11 14 -11 8 0 21 -2 28 -5 10 -4 15 4 16 29 2
32 0 34 -33 38 -23 3 -35 0 -35 -8z"/>
<path d="M1170 2157 c0 -31 3 -35 32 -41 37 -7 34 -9 43 32 5 27 4 32 -12 32
-10 0 -28 3 -40 6 -21 6 -23 3 -23 -29z m60 -18 c0 -22 -4 -23 -31 -9 -28 16
-24 38 6 32 16 -3 25 -11 25 -23z"/>
<path d="M1612 2177 c3 -6 14 -13 26 -15 12 -2 22 -10 22 -18 0 -12 -4 -12
-20 -4 -16 9 -20 8 -20 -5 0 -8 9 -15 19 -15 11 0 26 -3 34 -6 13 -4 14 1 10
28 -3 18 -6 33 -6 34 -1 1 -17 4 -35 7 -24 5 -32 3 -30 -6z"/>
<path d="M2010 2159 c0 -21 6 -28 26 -33 16 -4 31 -2 38 5 8 9 8 10 -3 4 -10
-6 -12 -1 -7 21 6 27 4 29 -24 29 -26 0 -30 -4 -30 -26z m40 -9 c0 -5 -7 -7
-15 -4 -8 4 -15 8 -15 10 0 2 7 4 15 4 8 0 15 -4 15 -10z"/>
<path d="M2539 2163 c-13 -16 -12 -17 4 -4 9 7 17 15 17 17 0 8 -8 3 -21 -13z"/>
<path d="M1290 2156 c0 -10 9 -16 25 -16 20 0 25 -5 25 -25 0 -14 5 -25 10
-25 6 0 10 16 10 35 0 21 -5 35 -12 35 -7 0 -23 3 -35 6 -17 5 -23 2 -23 -10z"/>
<path d="M1722 2140 c2 -27 8 -33 29 -36 23 -2 28 2 31 27 4 23 1 29 -13 29
-10 0 -25 3 -34 6 -14 6 -16 1 -13 -26z m38 -10 c0 -5 -7 -7 -15 -4 -8 4 -15
8 -15 10 0 2 7 4 15 4 8 0 15 -4 15 -10z"/>
<path d="M2092 2150 c0 -14 2 -19 5 -12 2 6 2 18 0 25 -3 6 -5 1 -5 -13z"/>
<path d="M2211 2154 c0 -11 3 -14 6 -6 3 7 2 16 -1 19 -3 4 -6 -2 -5 -13z"/>
<path d="M1400 2116 c0 -34 8 -44 23 -29 4 3 2 12 -4 20 -9 10 -7 13 10 13 23
0 28 -19 9 -39 -11 -10 -9 -12 7 -9 29 5 35 68 6 68 -10 0 -26 3 -35 6 -13 5
-16 -1 -16 -30z"/>
<path d="M1822 2119 c2 -28 8 -34 34 -39 28 -6 30 -5 32 27 2 27 -1 33 -17 33
-11 0 -27 3 -36 6 -14 6 -16 1 -13 -27z m48 -9 c0 -5 -6 -10 -14 -10 -8 0 -18
5 -21 10 -3 6 3 10 14 10 12 0 21 -4 21 -10z"/>
<path d="M1510 2116 c0 -10 9 -16 25 -16 20 0 25 -5 25 -25 0 -14 4 -25 9 -25
5 0 9 16 9 35 0 20 -5 35 -11 35 -7 0 -22 3 -34 6 -17 5 -23 2 -23 -10z"/>
<path d="M1920 2114 c0 -26 11 -40 38 -48 17 -6 22 -3 22 9 0 11 -5 15 -14 12
-8 -3 -20 1 -27 9 -11 13 -9 14 13 9 15 -4 29 -2 32 4 4 6 1 11 -6 11 -7 0
-23 3 -35 6 -18 5 -23 2 -23 -12z"/>
<path d="M2219 2107 c6 -16 11 -44 11 -63 0 -20 4 -43 10 -53 5 -10 10 -37 11
-59 2 -23 6 -42 10 -42 9 0 3 56 -11 110 -5 19 -11 53 -14 74 -3 22 -10 44
-16 50 -8 8 -8 3 -1 -17z"/>
<path d="M1288 2113 c7 -3 16 -2 19 1 4 3 -2 6 -13 5 -11 0 -14 -3 -6 -6z"/>
<path d="M2102 2095 c0 -16 2 -22 5 -12 2 9 2 23 0 30 -3 6 -5 -1 -5 -18z"/>
<path d="M2340 2110 c-9 -6 -10 -10 -3 -10 6 0 15 5 18 10 8 12 4 12 -15 0z"/>
<path d="M1170 2094 c0 -9 11 -14 30 -14 20 0 30 -5 30 -15 0 -17 -31 -20 -47
-4 -8 8 -13 8 -18 -1 -10 -16 -3 -20 34 -23 17 -1 31 -6 32 -12 1 -5 5 8 9 30
4 22 7 40 6 41 0 1 -18 4 -38 7 -29 4 -38 2 -38 -9z"/>
<path d="M1621 2073 c0 -21 3 -31 6 -23 13 34 43 39 44 8 1 -19 2 -18 10 6 10
35 12 32 -28 41 -33 7 -33 6 -32 -32z"/>
<path d="M2020 2100 c0 -5 9 -10 20 -10 11 0 20 -5 20 -11 0 -6 -9 -8 -20 -4
-28 9 -26 -14 3 -24 19 -7 23 -5 27 18 3 14 1 29 -5 33 -15 11 -45 10 -45 -2z"/>
<path d="M1053 2045 c0 -33 2 -45 4 -27 2 18 2 45 0 60 -2 15 -4 0 -4 -33z"/>
<path d="M1287 2094 c-4 -4 -7 -25 -7 -46 0 -27 4 -38 15 -38 18 0 20 36 3 43
-7 3 -1 6 15 6 22 1 27 -3 27 -24 0 -38 15 -30 17 10 1 32 -1 35 -27 35 -16 0
-30 5 -32 11 -2 5 -7 7 -11 3z"/>
<path d="M1510 2080 c0 -13 28 -25 38 -16 3 4 0 11 -8 16 -20 13 -30 12 -30 0z"/>
<path d="M1723 2075 c4 -9 7 -25 7 -36 0 -11 7 -19 17 -19 13 0 14 3 5 12 -16
16 -15 28 3 28 9 0 15 -9 15 -25 0 -15 6 -25 15 -25 11 0 13 8 8 33 -7 39 -2
33 -42 42 -29 6 -33 5 -28 -10z"/>
<path d="M2275 2070 c-3 -6 1 -7 9 -4 18 7 21 14 7 14 -6 0 -13 -4 -16 -10z"/>
<path d="M1400 2055 c0 -9 10 -15 24 -15 31 0 43 -18 20 -27 -10 -4 -19 -2
-22 5 -5 17 -22 15 -22 -3 0 -16 6 -19 50 -29 23 -5 25 -2 24 30 -1 41 0 39
-41 47 -25 5 -33 3 -33 -8z"/>
<path d="M1830 2041 c0 -17 4 -31 9 -31 5 0 7 10 3 22 -4 17 -2 20 12 15 10
-4 19 -7 21 -7 2 0 1 -9 -2 -20 -3 -11 -1 -20 5 -20 5 0 12 14 14 30 3 17 0
30 -6 30 -6 0 -21 3 -33 6 -20 6 -23 3 -23 -25z"/>
<path d="M2112 2035 c0 -16 2 -22 5 -12 2 9 2 23 0 30 -3 6 -5 -1 -5 -18z"/>
<path d="M1513 2036 c4 -10 7 -26 7 -37 0 -10 5 -19 11 -19 7 0 9 9 6 21 -4
15 -1 19 10 17 9 -2 18 -9 21 -17 3 -8 0 -11 -7 -7 -6 4 -11 1 -11 -7 0 -8 9
-17 20 -20 17 -4 20 0 18 34 -1 33 -5 39 -24 39 -12 0 -30 3 -40 7 -14 5 -16
3 -11 -11z"/>
<path d="M1930 2031 c0 -35 12 -51 36 -51 13 0 24 -4 24 -9 0 -4 -11 -6 -25
-3 -15 2 -25 0 -25 -7 0 -6 9 -11 20 -11 11 0 20 -7 20 -15 0 -13 -4 -14 -20
-5 -16 8 -20 8 -20 -4 0 -8 5 -18 11 -21 17 -11 59 4 59 21 0 9 -5 12 -12 8
-10 -5 -10 -4 -1 6 9 10 9 18 1 34 -6 11 -11 33 -10 48 1 24 -3 28 -29 28 -22
0 -29 -5 -29 -19z m40 -22 c0 -6 -4 -7 -10 -4 -5 3 -10 11 -10 16 0 6 5 7 10
4 6 -3 10 -11 10 -16z"/>
<path d="M2030 2007 c0 -20 7 -30 26 -37 35 -14 44 -13 44 6 0 8 -5 12 -11 8
-8 -4 -9 2 -5 22 6 27 4 29 -24 29 -26 0 -30 -4 -30 -28z m40 -7 c0 -5 -7 -7
-15 -4 -8 4 -15 8 -15 10 0 2 7 4 15 4 8 0 15 -4 15 -10z"/>
<path d="M1624 1999 c2 -19 4 -38 5 -43 0 -4 10 -6 21 -3 11 3 23 1 26 -4 3
-5 11 -9 17 -8 9 0 9 2 1 5 -8 3 -9 16 -4 39 7 32 6 35 -15 35 -13 0 -30 3
-39 6 -13 5 -15 0 -12 -27z m46 -15 c0 -9 -5 -14 -12 -12 -18 6 -21 28 -4 28
9 0 16 -7 16 -16z"/>
<path d="M1160 1988 c0 -31 3 -35 40 -45 23 -6 39 -9 37 -6 -3 2 -1 20 3 39 6
25 5 34 -5 34 -7 0 -27 3 -44 6 -30 6 -31 5 -31 -28z m60 -18 c0 -17 -3 -19
-19 -10 -32 16 -34 30 -7 30 19 0 26 -5 26 -20z"/>
<path d="M879 1989 c-17 -32 -35 -49 -43 -41 -4 3 -4 -1 0 -11 3 -9 2 -17 -4
-17 -5 0 -12 -10 -15 -21 -7 -25 -3 -22 47 49 21 29 36 55 33 58 -3 3 -11 -5
-18 -17z"/>
<path d="M1730 1996 c0 -10 9 -16 25 -16 20 0 25 -5 25 -25 0 -39 15 -29 16
10 0 19 -4 35 -10 35 -6 0 -21 3 -33 6 -17 5 -23 2 -23 -10z"/>
<path d="M1280 1992 c0 -5 14 -12 30 -15 18 -4 30 -13 30 -22 0 -14 -3 -14
-30 0 -30 15 -30 15 -30 -11 0 -23 3 -25 26 -20 14 4 31 3 37 -3 9 -7 12 2 12
30 1 29 -3 39 -15 39 -8 0 -25 3 -37 6 -13 4 -23 2 -23 -4z"/>
<path d="M1838 1955 c4 -36 15 -44 28 -23 4 6 2 14 -4 16 -7 2 -12 8 -12 13 0
4 7 6 15 3 8 -4 15 -15 15 -25 0 -10 4 -19 8 -19 5 0 9 13 9 29 0 21 -6 31
-21 35 -38 10 -42 7 -38 -29z"/>
<path d="M2119 1952 c5 -34 6 -35 9 -8 2 16 0 32 -5 37 -5 5 -7 -7 -4 -29z"/>
<path d="M1400 1968 c0 -7 12 -14 26 -14 30 -2 38 -9 30 -23 -5 -7 -15 -7 -31
-1 -19 7 -25 6 -25 -4 0 -7 17 -18 38 -23 l37 -10 0 36 c0 27 -5 38 -20 43
-33 10 -55 9 -55 -4z"/>
<path d="M1043 1920 c0 -30 2 -43 4 -27 2 15 2 39 0 55 -2 15 -4 2 -4 -28z"/>
<path d="M1730 1955 c0 -8 9 -15 20 -15 24 0 27 15 4 24 -22 9 -24 8 -24 -9z"/>
<path d="M1518 1923 c3 -35 6 -38 35 -39 29 0 32 3 34 32 1 25 -3 33 -20 38
-46 12 -53 8 -49 -31z m50 5 c-6 -18 -25 -20 -31 -3 -5 10 0 15 14 15 12 0 19
-5 17 -12z"/>
<path d="M2042 1927 c2 -23 9 -32 29 -37 23 -7 25 -5 25 26 0 28 -4 33 -29 37
-26 3 -28 2 -25 -26z m38 -7 c0 -5 -4 -10 -9 -10 -6 0 -13 5 -16 10 -3 6 1 10
9 10 9 0 16 -4 16 -10z"/>
<path d="M108 1943 c7 -3 16 -2 19 1 4 3 -2 6 -13 5 -11 0 -14 -3 -6 -6z"/>
<path d="M2368 1943 c6 -2 18 -2 25 0 6 3 1 5 -13 5 -14 0 -19 -2 -12 -5z"/>
<path d="M1630 1931 c0 -5 10 -11 22 -13 12 -2 23 -9 26 -16 3 -9 -2 -10 -22
-2 -23 8 -26 7 -26 -10 0 -11 5 -20 10 -20 6 0 10 5 10 11 0 5 5 7 10 4 6 -4
7 -11 4 -17 -4 -6 1 -8 11 -6 12 2 18 14 20 35 2 25 -2 33 -19 37 -31 8 -46 7
-46 -3z"/>
<path d="M1160 1915 c0 -10 10 -15 30 -15 25 0 30 -4 30 -25 0 -19 -4 -23 -17
-18 -10 3 -24 13 -30 21 -11 14 -13 13 -13 -6 0 -14 6 -22 18 -22 9 0 26 -3
37 -6 17 -4 20 0 20 35 1 36 -2 40 -28 45 -42 9 -47 8 -47 -9z"/>
<path d="M1733 1916 c4 -10 7 -29 7 -43 0 -15 3 -24 6 -21 3 4 18 3 32 -1 26
-8 27 -7 27 30 1 34 -2 39 -21 39 -12 0 -30 3 -40 7 -14 5 -16 3 -11 -11z m55
-28 c-6 -18 -25 -20 -31 -3 -5 10 0 15 14 15 12 0 19 -5 17 -12z"/>
<path d="M1280 1902 c0 -5 14 -12 30 -15 21 -5 30 -12 30 -26 0 -14 -5 -18
-20 -14 -11 3 -20 12 -20 19 0 8 -4 14 -10 14 -5 0 -10 -10 -10 -23 0 -20 5
-23 34 -23 31 0 35 3 39 31 3 16 4 31 3 32 -6 8 -76 13 -76 5z"/>
<path d="M1845 1892 c3 -7 5 -25 5 -38 0 -23 3 -25 31 -20 32 5 52 16 30 16
-9 0 -11 9 -7 28 6 25 4 27 -29 28 -27 0 -34 -3 -30 -14z m45 -28 c0 -9 -5
-14 -12 -12 -18 6 -21 28 -4 28 9 0 16 -7 16 -16z"/>
<path d="M2132 1890 c0 -14 2 -19 5 -12 2 6 2 18 0 25 -3 6 -5 1 -5 -13z"/>
<path d="M1400 1883 c0 -11 70 -26 79 -18 8 9 -6 16 -43 22 -21 3 -36 2 -36
-4z"/>
<path d="M1950 1856 c0 -29 4 -36 19 -36 11 0 27 -3 35 -6 14 -5 15 -2 7 19
-7 16 -6 28 2 36 8 8 7 11 -3 11 -8 0 -25 3 -37 6 -21 6 -23 3 -23 -30z m38
-5 c3 -8 -1 -12 -9 -9 -7 2 -15 10 -17 17 -3 8 1 12 9 9 7 -2 15 -10 17 -17z"/>
<path d="M2050 1863 c0 -7 9 -13 20 -13 11 0 20 -5 20 -11 0 -6 -8 -8 -19 -4
-15 4 -18 2 -15 -12 3 -11 14 -18 30 -18 21 0 24 4 19 23 -3 12 -1 22 5 22 23
0 -1 18 -30 22 -20 3 -30 0 -30 -9z"/>
<path d="M1520 1860 c0 -5 9 -10 19 -10 11 0 26 -3 35 -6 11 -4 16 -1 16 10 0
12 -10 16 -35 16 -19 0 -35 -4 -35 -10z"/>
<path d="M2261 1858 c1 -7 5 -24 9 -38 8 -24 8 -24 9 7 1 17 -3 35 -9 38 -5 3
-10 0 -9 -7z"/>
<path d="M1630 1845 c0 -9 10 -15 26 -15 23 0 26 -3 22 -30 -4 -24 -1 -30 14
-30 15 0 18 6 15 35 -4 42 -3 40 -44 48 -25 5 -33 3 -33 -8z"/>
<path d="M1401 1833 c-1 -19 4 -23 27 -22 22 1 23 2 5 6 -12 2 -24 12 -26 21
-3 12 -5 10 -6 -5z"/>
<path d="M1460 1825 c0 -14 4 -25 9 -25 4 0 6 11 3 25 -2 14 -6 25 -8 25 -2 0
-4 -11 -4 -25z"/>
<path d="M1152 1799 c3 -43 4 -44 35 -43 18 1 30 -2 27 -7 -3 -5 1 -9 8 -9 9
0 13 15 13 45 1 42 -1 45 -26 45 -15 0 -35 3 -44 6 -14 6 -16 0 -13 -37z m68
-3 c0 -19 -14 -28 -34 -20 -25 10 -19 34 9 34 15 0 25 -6 25 -14z"/>
<path d="M1522 1816 c2 -17 9 -21 35 -22 18 0 33 2 33 5 -1 15 -17 28 -42 33
-23 4 -27 2 -26 -16z"/>
<path d="M1743 1819 c4 -13 7 -29 7 -35 0 -6 15 -15 33 -21 l32 -10 0 39 c0
27 -4 38 -15 38 -8 0 -26 3 -39 7 -22 5 -23 4 -18 -18z m47 -24 c0 -9 -6 -12
-15 -9 -8 4 -15 10 -15 15 0 5 7 9 15 9 8 0 15 -7 15 -15z"/>
<path d="M2315 1830 c-3 -5 -1 -10 4 -10 6 0 11 5 11 10 0 6 -2 10 -4 10 -3 0
-8 -4 -11 -10z"/>
<path d="M1031 1814 c0 -11 3 -14 6 -6 3 7 2 16 -1 19 -3 4 -6 -2 -5 -13z"/>
<path d="M2142 1805 c0 -16 2 -22 5 -12 2 9 2 23 0 30 -3 6 -5 -1 -5 -18z"/>
<path d="M1280 1786 c0 -22 5 -36 13 -36 8 0 7 -4 -3 -10 -11 -8 -8 -9 13 -4
15 3 33 2 40 -4 9 -8 12 0 12 34 0 39 -2 44 -21 44 -12 0 -29 3 -38 6 -13 5
-16 -1 -16 -30z m44 8 c9 -3 16 -15 16 -25 0 -13 -5 -17 -17 -12 -18 7 -33 22
-33 36 0 9 13 9 34 1z"/>
<path d="M1637 1799 c-3 -12 0 -19 8 -19 20 0 25 13 10 27 -10 9 -14 8 -18 -8z"/>
<path d="M1850 1794 c0 -16 4 -35 9 -43 13 -21 48 -4 54 27 6 32 8 30 -31 38
-30 6 -32 5 -32 -22z m50 -9 c0 -8 -4 -15 -9 -15 -5 0 -14 7 -21 15 -10 13 -9
15 9 15 12 0 21 -6 21 -15z"/>
<path d="M1960 1773 c0 -18 1 -33 3 -33 1 0 16 -4 32 -9 29 -8 30 -7 30 30 1
35 -1 38 -32 41 -31 4 -33 2 -33 -29z m40 -14 c0 -11 -4 -17 -10 -14 -5 3 -10
13 -10 21 0 8 5 14 10 14 6 0 10 -9 10 -21z"/>
<path d="M1400 1759 c0 -33 3 -40 16 -35 9 3 21 6 27 6 7 0 4 5 -5 11 -23 13
-24 44 -2 35 9 -3 18 -6 20 -6 2 0 4 -11 4 -25 0 -17 -6 -25 -17 -26 -13 -1
-10 -4 7 -10 21 -7 20 -8 -12 -6 -48 4 -52 -20 -6 -25 23 -2 34 -9 36 -22 4
-17 0 -18 -32 -13 -24 4 -36 2 -36 -6 0 -15 69 -16 72 -2 1 6 2 42 2 82 1 71
1 72 -28 77 -45 9 -46 8 -46 -35z"/>
<path d="M1033 1750 c0 -25 2 -35 4 -22 2 12 2 32 0 45 -2 12 -4 2 -4 -23z"/>
<path d="M2060 1774 c0 -42 12 -66 31 -61 11 3 22 1 25 -4 3 -5 11 -9 17 -9 8
0 7 3 -2 9 -9 6 -12 19 -8 40 5 26 3 31 -12 31 -11 0 -26 3 -35 6 -11 4 -16 0
-16 -12z m50 -25 c0 -5 -7 -9 -15 -9 -8 0 -15 7 -15 15 0 9 6 12 15 9 8 -4 15
-10 15 -15z"/>
<path d="M2273 1775 c0 -8 4 -15 9 -15 4 0 8 7 8 15 0 8 -4 15 -8 15 -5 0 -9
-7 -9 -15z"/>
<path d="M1520 1770 c0 -5 11 -10 24 -10 30 0 38 -11 25 -30 -8 -13 -11 -12
-20 3 -14 23 -29 22 -29 -3 0 -14 7 -20 21 -20 11 0 28 -4 37 -9 15 -8 17 -4
17 27 0 21 -4 40 -10 44 -15 11 -65 10 -65 -2z"/>
<path d="M1637 1764 c-1 -2 -1 -21 1 -43 3 -30 9 -41 21 -41 26 0 40 14 47 47
6 29 4 31 -30 35 -20 2 -38 3 -39 2z m53 -34 c0 -13 -11 -13 -30 0 -12 8 -11
10 8 10 12 0 22 -4 22 -10z"/>
<path d="M2152 1750 c0 -14 4 -38 8 -55 7 -27 8 -27 8 -5 0 14 -4 39 -8 55 -7
27 -8 27 -8 5z"/>
<path d="M1750 1737 c0 -8 6 -15 13 -14 33 1 48 -4 44 -15 -2 -8 -15 -12 -30
-10 -15 2 -27 -1 -27 -7 0 -14 45 -25 61 -15 8 4 9 3 5 -4 -4 -7 -2 -12 4 -12
7 0 9 13 4 38 -8 44 -3 38 -41 47 -26 5 -33 3 -33 -8z"/>
<path d="M1150 1732 c0 -16 69 -27 83 -13 8 8 5 11 -13 11 -14 0 -35 3 -47 6
-14 4 -23 2 -23 -4z"/>
<path d="M1920 1733 c0 -5 -13 -8 -30 -5 -27 4 -30 2 -30 -24 0 -40 12 -54 37
-48 15 4 23 17 28 41 3 19 4 38 1 41 -3 3 -6 1 -6 -5z m-7 -30 c-7 -2 -21 -2
-30 0 -10 3 -4 5 12 5 17 0 24 -2 18 -5z"/>
<path d="M2276 1725 c4 -8 8 -15 10 -15 2 0 4 7 4 15 0 8 -4 15 -10 15 -5 0
-7 -7 -4 -15z"/>
<path d="M1132 1700 c0 -14 2 -19 5 -12 2 6 2 18 0 25 -3 6 -5 1 -5 -13z"/>
<path d="M1275 1710 c3 -5 15 -10 25 -10 27 0 51 -11 45 -21 -3 -4 -18 -6 -34
-3 -20 4 -30 1 -34 -10 -7 -19 0 -24 33 -21 14 1 30 -4 35 -12 7 -9 10 -1 11
31 1 37 -2 45 -20 50 -34 9 -68 7 -61 -4z"/>
<path d="M1970 1703 c0 -7 8 -13 19 -13 10 0 21 -9 24 -20 6 -24 -6 -26 -27
-4 -15 14 -16 14 -16 -1 0 -16 6 -19 55 -29 19 -4 25 -3 16 2 -9 7 -11 19 -7
40 7 28 5 30 -28 34 -25 3 -36 0 -36 -9z"/>
<path d="M1220 1685 c0 -8 5 -15 10 -15 6 0 10 7 10 15 0 8 -4 15 -10 15 -5 0
-10 -7 -10 -15z"/>
<path d="M2077 1664 c7 -48 7 -47 31 -40 21 7 37 66 18 66 -6 0 -21 3 -33 6
-21 6 -22 4 -16 -32z m35 1 c0 -5 -5 -11 -10 -13 -5 -1 -9 4 -9 13 0 9 4 14 9
13 5 -2 10 -8 10 -13z"/>
<path d="M2292 1680 c0 -14 2 -19 5 -12 2 6 2 18 0 25 -3 6 -5 1 -5 -13z"/>
<path d="M1021 1645 c-1 -27 -4 -61 -7 -75 -3 -21 -2 -22 7 -7 5 9 8 43 6 75
l-3 57 -3 -50z"/>
<path d="M1111 1674 c0 -11 3 -14 6 -6 3 7 2 16 -1 19 -3 4 -6 -2 -5 -13z"/>
<path d="M1520 1682 c0 -6 16 -14 34 -18 20 -3 37 -13 39 -23 3 -9 5 -4 6 12
1 19 -4 27 -16 27 -10 0 -28 3 -40 6 -14 4 -23 2 -23 -4z"/>
<path d="M1144 1658 c-7 -11 28 -10 46 2 11 7 8 9 -13 8 -16 -2 -31 -6 -33
-10z"/>
<path d="M1640 1660 c0 -5 9 -10 19 -10 36 0 48 -10 43 -36 -3 -19 -10 -24
-34 -24 -29 0 -30 -2 -24 -31 3 -17 6 -43 7 -58 0 -14 3 -20 6 -13 6 14 39 16
48 2 3 -5 12 -10 18 -10 8 0 7 3 -2 9 -10 6 -12 20 -8 45 6 36 6 36 -31 37
-38 1 -36 3 11 13 23 5 27 11 27 40 0 30 -4 34 -31 40 -42 8 -49 8 -49 -4z
m60 -129 c0 -14 -5 -18 -20 -14 -11 3 -20 12 -20 19 0 8 9 14 20 14 13 0 20
-7 20 -19z"/>
<path d="M1200 1650 c-12 -8 -10 -10 8 -10 13 0 20 4 17 10 -7 12 -6 12 -25 0z"/>
<path d="M1753 1647 c2 -7 18 -13 36 -15 23 -2 31 -8 27 -17 -2 -7 2 -19 10
-25 12 -11 13 -7 8 21 -4 19 -7 34 -8 35 -1 1 -18 4 -39 7 -27 4 -37 3 -34 -6z"/>
<path d="M2294 1642 c3 -6 11 -48 17 -93 5 -46 15 -90 20 -98 10 -15 9 1 -5
74 -2 11 -7 41 -10 67 -4 26 -12 51 -18 54 -6 4 -8 3 -4 -4z"/>
<path d="M1140 1632 c0 -6 16 -14 35 -18 32 -6 35 -9 35 -40 0 -51 15 -41 17
11 2 40 0 45 -20 45 -12 0 -32 3 -44 6 -14 4 -23 2 -23 -4z"/>
<path d="M1870 1631 c0 -5 12 -11 27 -13 17 -2 29 -10 31 -20 3 -14 -4 -18
-30 -19 -31 -1 -31 -1 -8 -9 53 -17 62 -13 55 23 -4 17 -8 33 -9 33 -8 9 -66
13 -66 5z"/>
<path d="M2172 1620 c0 -14 2 -19 5 -12 2 6 2 18 0 25 -3 6 -5 1 -5 -13z"/>
<path d="M1520 1620 c0 -5 8 -11 18 -12 32 -2 37 -4 49 -11 9 -5 11 -3 7 6 -8
23 -74 37 -74 17z"/>
<path d="M1980 1613 c0 -8 12 -13 30 -13 17 0 30 -5 30 -11 0 -7 -12 -10 -30
-7 -41 6 -43 -27 -2 -35 15 -3 28 -5 29 -4 0 1 4 18 8 38 7 36 6 37 -29 41
-25 3 -36 0 -36 -9z"/>
<path d="M867 1585 c-6 -31 -26 -59 -87 -124 -74 -80 -78 -87 -76 -128 0 -24
-2 -44 -6 -46 -4 -1 -11 -45 -17 -97 -6 -52 -13 -120 -16 -150 -6 -51 -5 -54
9 -36 9 11 16 27 16 35 0 14 -1 14 -10 1 -8 -13 -10 -13 -10 2 0 13 137 138
152 138 2 0 2 -16 0 -35 -2 -19 -8 -33 -12 -30 -4 2 -5 -6 -3 -19 4 -18 -1
-27 -19 -37 -12 -6 -27 -18 -31 -25 -4 -8 -15 -14 -22 -14 -8 0 -15 -4 -15 -8
0 -9 -50 -37 -61 -34 -4 1 -10 -9 -13 -21 -5 -22 -8 -22 -98 -16 -51 4 -149
10 -218 13 -69 3 -172 9 -230 12 -58 4 -103 4 -100 1 3 -3 43 -8 90 -11 47 -4
110 -9 140 -11 30 -3 123 -7 206 -10 83 -4 159 -8 170 -10 10 -2 24 -4 31 -4
6 -1 13 -7 16 -13 2 -7 2 -2 0 12 -3 19 3 29 24 42 15 9 38 25 50 35 12 11 34
28 48 39 49 35 52 42 60 126 4 46 9 92 11 103 3 11 7 52 10 90 17 213 15 204
33 198 10 -3 12 -2 4 4 -6 4 -13 22 -15 38 -4 29 -4 28 -11 -10z m-12 -102
c-5 -40 -16 -57 -58 -101 -29 -30 -60 -58 -71 -64 -17 -9 -18 -7 -12 27 5 27
25 55 72 103 35 37 64 70 64 74 0 5 3 8 6 8 4 0 3 -21 -1 -47z m-13 -115 c-3
-38 -11 -50 -70 -105 -69 -65 -91 -78 -72 -42 7 11 9 27 6 35 -3 8 22 41 64
84 38 38 71 70 72 70 2 0 2 -19 0 -42z m-11 -119 c-5 -42 -12 -51 -71 -100
-36 -30 -68 -58 -73 -64 -4 -5 -5 10 -1 35 5 40 14 53 76 113 39 37 72 66 73
65 1 -2 -1 -24 -4 -49z"/>
<path d="M812 1235 c0 -16 2 -22 5 -12 2 9 2 23 0 30 -3 6 -5 -1 -5 -18z"/>
<path d="M736 1173 c-6 -14 -5 -15 5 -6 7 7 10 15 7 18 -3 3 -9 -2 -12 -12z"/>
<path d="M1270 1613 c0 -10 81 -26 89 -17 9 8 -8 16 -48 21 -24 3 -41 2 -41
-4z"/>
<path d="M1428 1613 c7 -3 16 -2 19 1 4 3 -2 6 -13 5 -11 0 -14 -3 -6 -6z"/>
<path d="M1142 1585 c0 -16 2 -22 5 -12 2 9 2 23 0 30 -3 6 -5 -1 -5 -18z"/>
<path d="M1400 1593 c0 -8 13 -13 35 -13 26 0 35 -4 35 -16 0 -13 -7 -15 -35
-10 -28 6 -35 4 -35 -9 0 -13 24 -21 53 -16 4 0 7 -3 7 -9 0 -5 4 -10 8 -10 5
0 9 20 11 44 l2 44 -41 4 c-28 2 -40 0 -40 -9z"/>
<path d="M2083 1603 c4 -6 20 -13 36 -16 21 -4 30 -13 33 -32 4 -19 2 -25 -8
-21 -7 3 -16 0 -20 -5 -4 -7 3 -9 17 -7 21 3 24 8 21 38 -2 19 -5 36 -5 37 -1
0 -20 4 -41 8 -25 5 -37 4 -33 -2z"/>
<path d="M1525 1546 c0 -25 3 -46 8 -46 4 0 7 4 7 8 0 5 14 6 31 4 28 -4 30
-2 28 19 -2 13 0 30 4 37 5 7 3 12 -6 12 -8 0 -28 3 -44 6 -28 6 -29 5 -28
-40z m53 -6 c2 -18 0 -21 -6 -12 -5 8 -13 13 -18 12 -5 0 -11 6 -12 15 -3 12
2 16 15 13 11 -2 19 -13 21 -28z"/>
<path d="M1766 1581 c5 -4 24 -11 42 -15 29 -5 31 -4 18 9 -8 8 -27 15 -42 15
-17 0 -24 -4 -18 -9z"/>
<path d="M1121 1564 c0 -11 3 -14 6 -6 3 7 2 16 -1 19 -3 4 -6 -2 -5 -13z"/>
<path d="M1160 1569 c0 -5 9 -9 20 -9 11 0 20 2 20 4 0 2 -9 6 -20 9 -11 3
-20 1 -20 -4z"/>
<path d="M1270 1565 c0 -7 10 -15 23 -19 39 -10 57 -7 57 12 0 13 -9 17 -40
19 -27 1 -40 -3 -40 -12z"/>
<path d="M2182 1555 c0 -16 4 -43 8 -60 11 -42 11 -1 1 50 -7 34 -9 35 -9 10z"/>
<path d="M1763 1526 c0 -30 4 -35 30 -40 35 -7 33 -9 40 30 6 29 4 32 -25 38
-45 9 -45 9 -45 -28z m55 -9 c2 -12 -3 -17 -17 -17 -15 0 -21 6 -21 21 0 25
33 22 38 -4z"/>
<path d="M1878 1549 c-2 -6 -2 -26 0 -45 3 -25 9 -34 23 -34 10 0 19 5 19 10
0 6 -4 10 -10 10 -5 0 -10 7 -10 15 0 8 7 15 15 15 10 0 15 -11 16 -32 1 -31
1 -32 9 -8 16 50 12 60 -22 60 -25 0 -29 3 -18 10 13 8 13 10 -2 10 -9 0 -18
-5 -20 -11z"/>
<path d="M1148 1543 c6 -2 18 -2 25 0 6 3 1 5 -13 5 -14 0 -19 -2 -12 -5z"/>
<path d="M2090 1540 c0 -5 4 -10 9 -10 6 0 13 5 16 10 3 6 -1 10 -9 10 -9 0
-16 -4 -16 -10z"/>
<path d="M1013 1495 c0 -27 2 -38 4 -22 2 15 2 37 0 50 -2 12 -4 0 -4 -28z"/>
<path d="M1140 1520 c0 -5 16 -10 35 -10 34 0 35 -1 32 -35 -2 -32 -5 -35 -37
-37 l-35 -1 33 -4 c44 -6 62 11 62 58 l0 39 -45 0 c-25 0 -45 -4 -45 -10z"/>
<path d="M1323 1523 c9 -2 23 -2 30 0 6 3 -1 5 -18 5 -16 0 -22 -2 -12 -5z"/>
<path d="M1994 1488 c3 -24 5 -44 5 -45 2 -9 51 -1 51 8 0 5 5 7 10 4 6 -3 10
-1 10 4 0 6 -5 11 -11 11 -7 0 -9 9 -5 24 5 19 1 25 -17 30 -44 12 -48 8 -43
-36z m36 18 c0 -2 3 -11 6 -20 3 -9 1 -16 -5 -16 -6 0 -11 6 -11 14 0 8 -6 17
-12 19 -8 3 -6 6 5 6 9 1 17 -1 17 -3z m7 -52 c-3 -3 -12 -4 -19 -1 -8 3 -5 6
6 6 11 1 17 -2 13 -5z"/>
<path d="M1270 1510 c0 -5 16 -12 35 -16 25 -4 35 -11 35 -25 0 -25 -45 -26
-59 -1 -8 14 -10 10 -10 -18 0 -19 3 -29 6 -22 3 8 16 11 38 6 32 -6 33 -5 37
33 3 21 5 39 4 39 -6 7 -86 10 -86 4z"/>
<path d="M2100 1489 c0 -57 25 -71 58 -31 23 29 15 50 -23 54 -32 4 -35 2 -35
-23z m47 -14 c-9 -9 -14 -9 -24 1 -19 18 -16 22 11 17 19 -4 22 -8 13 -18z"/>
<path d="M1400 1490 c0 -5 13 -10 28 -10 35 0 41 -6 35 -31 -7 -24 -29 -25
-42 -1 -11 18 -12 17 -16 -13 -2 -18 3 -20 35 -17 35 4 38 7 42 38 3 22 -1 35
-10 39 -23 9 -72 6 -72 -5z"/>
<path d="M1573 1493 c9 -2 23 -2 30 0 6 3 -1 5 -18 5 -16 0 -22 -2 -12 -5z"/>
<path d="M1526 1483 c-1 -1 0 -18 2 -38 3 -27 9 -35 24 -35 11 0 27 -4 36 -9
15 -8 17 -3 17 34 0 43 0 43 -38 47 -21 2 -39 2 -41 1z m55 -23 c12 0 12 -27
0 -35 -11 -6 -41 21 -41 37 0 5 7 7 16 4 9 -3 20 -6 25 -6z"/>
<path d="M2250 1481 c0 -6 4 -13 10 -16 6 -3 7 1 4 9 -7 18 -14 21 -14 7z"/>
<path d="M1650 1425 c0 -36 3 -45 18 -45 15 0 15 2 2 11 -11 7 -6 8 20 4 l35
-6 2 40 1 41 -39 0 -39 0 0 -45z m60 9 c0 -10 -7 -14 -22 -12 -32 5 -35 28 -4
28 17 0 26 -5 26 -16z"/>
<path d="M1828 1463 c7 -3 16 -2 19 1 4 3 -2 6 -13 5 -11 0 -14 -3 -6 -6z"/>
<path d="M1168 1453 c7 -3 16 -2 19 1 4 3 -2 6 -13 5 -11 0 -14 -3 -6 -6z"/>
<path d="M1770 1421 l0 -41 40 2 c38 1 40 3 40 35 0 25 -4 33 -17 33 -10 0
-28 3 -40 6 -21 6 -23 3 -23 -35z m54 11 c9 -14 -12 -35 -28 -29 -23 9 -20 37
3 37 11 0 22 -4 25 -8z"/>
<path d="M1889 1455 c-3 -6 -4 -31 -1 -57 l4 -48 42 0 c22 0 36 4 30 8 -7 4
-10 24 -8 45 3 35 1 37 -26 37 -15 0 -30 5 -32 12 -3 7 -7 8 -9 3z m51 -56 c0
-15 -4 -19 -16 -15 -9 3 -18 6 -20 6 -2 0 -4 7 -4 15 0 8 9 15 20 15 14 0 20
-7 20 -21z m-7 -36 c-7 -2 -19 -2 -25 0 -7 3 -2 5 12 5 14 0 19 -2 13 -5z"/>
<path d="M2171 1434 c0 -11 3 -14 6 -6 3 7 2 16 -1 19 -3 4 -6 -2 -5 -13z"/>
<path d="M958 1433 c6 -2 18 -2 25 0 6 3 1 5 -13 5 -14 0 -19 -2 -12 -5z"/>
<path d="M1007 1433 c-4 -3 -7 -16 -6 -27 0 -19 1 -19 10 3 10 24 8 36 -4 24z"/>
<path d="M2060 1432 c0 -5 -13 -7 -30 -4 -29 4 -30 3 -30 -32 0 -29 4 -36 19
-36 11 0 25 -2 33 -5 9 -4 13 7 15 40 1 25 0 45 -3 45 -2 0 -4 -4 -4 -8z m-10
-43 c0 -24 -23 -21 -28 4 -2 10 3 17 12 17 10 0 16 -9 16 -21z"/>
<path d="M2202 1415 c0 -16 2 -22 5 -12 2 9 2 23 0 30 -3 6 -5 -1 -5 -18z"/>
<path d="M1178 1423 c-54 -5 -66 -23 -15 -23 40 0 46 -5 40 -31 -6 -23 -53
-27 -53 -5 0 8 -4 18 -10 21 -6 3 -10 -5 -10 -18 0 -22 5 -25 43 -29 23 -3 43
-4 43 -4 1 1 4 22 6 49 3 26 5 46 4 45 -1 -1 -22 -3 -48 -5z"/>
<path d="M2335 1421 c-3 -5 -1 -12 5 -16 5 -3 10 1 10 9 0 18 -6 21 -15 7z"/>
<path d="M2113 1399 c4 -13 7 -32 7 -41 0 -10 7 -18 15 -18 18 0 19 5 3 30
-13 21 -6 36 11 25 6 -3 11 -18 11 -31 0 -30 24 -28 28 2 3 28 -9 41 -47 49
-32 7 -34 6 -28 -16z"/>
<path d="M2688 1413 c7 -3 16 -2 19 1 4 3 -2 6 -13 5 -11 0 -14 -3 -6 -6z"/>
<path d="M1270 1402 c0 -5 18 -12 40 -16 27 -4 40 -11 40 -22 0 -13 -8 -15
-40 -12 -37 3 -40 2 -39 -22 0 -14 3 -20 5 -13 3 7 18 10 39 6 32 -5 34 -4 41
31 3 20 5 38 3 40 -11 10 -89 17 -89 8z"/>
<path d="M1433 1403 c9 -2 25 -2 35 0 9 3 1 5 -18 5 -19 0 -27 -2 -17 -5z"/>
<path d="M1400 1388 c0 -4 19 -11 43 -16 l42 -10 -42 -1 c-39 -1 -43 -3 -43
-26 0 -22 4 -25 40 -25 31 0 40 4 40 18 0 9 3 27 6 38 5 20 1 22 -40 25 -25 3
-46 1 -46 -3z m53 -55 c-7 -2 -19 -2 -25 0 -7 3 -2 5 12 5 14 0 19 -2 13 -5z"/>
<path d="M2340 1384 c0 -5 5 -27 10 -49 6 -26 5 -42 -2 -46 -6 -4 -4 -15 7
-32 9 -15 15 -32 12 -39 -2 -7 0 -24 5 -38 5 -14 11 -41 14 -60 2 -19 6 -51 9
-70 3 -19 8 -53 10 -74 6 -41 11 -53 20 -44 5 4 -30 225 -64 401 -8 42 -21 76
-21 51z"/>
<path d="M1530 1340 c0 -36 3 -40 24 -40 13 0 31 -3 40 -6 13 -5 16 1 16 34 0
42 -11 52 -56 52 -21 0 -24 -4 -24 -40z m60 0 c0 -21 -8 -24 -34 -14 -25 10
-19 34 9 34 18 0 25 -5 25 -20z"/>
<path d="M1708 1373 c6 -2 18 -2 25 0 6 3 1 5 -13 5 -14 0 -19 -2 -12 -5z"/>
<path d="M2212 1365 c-1 -11 3 -38 7 -60 7 -34 9 -35 9 -10 0 35 -15 101 -16
70z"/>
<path d="M1650 1361 c0 -6 14 -11 30 -11 25 0 30 -4 30 -25 0 -14 -4 -25 -10
-25 -5 0 -10 6 -10 14 0 8 -7 16 -15 20 -11 4 -15 -1 -15 -18 0 -18 7 -25 31
-30 41 -8 49 -2 49 40 0 29 -4 34 -22 34 -13 0 -33 3 -45 6 -14 4 -23 2 -23
-5z"/>
<path d="M1779 1361 c-3 -7 -3 -28 -1 -46 3 -24 10 -35 25 -39 49 -13 57 -8
57 34 0 39 -1 40 -34 40 -19 0 -36 6 -38 13 -4 9 -6 9 -9 -2z m51 -51 c0 -11
-7 -20 -15 -20 -8 0 -15 2 -15 4 0 2 -3 11 -6 20 -4 12 0 16 15 16 14 0 21 -6
21 -20z"/>
<path d="M994 1310 c0 -29 3 -45 8 -38 10 16 11 88 1 88 -5 0 -8 -23 -9 -50z"/>
<path d="M1898 1300 c4 -39 5 -40 43 -40 35 0 39 3 39 25 0 14 -4 25 -10 25
-5 0 -7 7 -4 15 5 12 -2 15 -33 15 l-39 0 4 -40z m52 -6 c0 -33 -33 -30 -38 4
-3 17 2 22 17 22 16 0 21 -6 21 -26z"/>
<path d="M1143 1323 c9 -2 25 -2 35 0 9 3 1 5 -18 5 -19 0 -27 -2 -17 -5z"/>
<path d="M2014 1299 c3 -17 6 -35 6 -40 0 -5 7 -9 16 -9 10 0 14 5 10 15 -3 8
-9 22 -12 30 -4 10 0 15 10 15 10 0 16 -9 16 -24 0 -30 15 -42 24 -20 10 25 7
36 -6 28 -10 -6 -10 -4 0 8 10 13 9 17 -10 22 -51 13 -61 8 -54 -25z"/>
<path d="M1208 1313 c7 -3 16 -2 19 1 4 3 -2 6 -13 5 -11 0 -14 -3 -6 -6z"/>
<path d="M1761 1304 c0 -11 3 -14 6 -6 3 7 2 16 -1 19 -3 4 -6 -2 -5 -13z"/>
<path d="M2123 1306 c4 -10 7 -29 7 -42 0 -20 5 -24 30 -24 17 0 30 5 31 13 0
6 2 22 5 35 3 16 -1 22 -14 22 -9 0 -28 3 -41 7 -20 5 -23 3 -18 -11z m47 -26
c0 -11 -7 -20 -15 -20 -8 0 -15 9 -15 20 0 11 7 20 15 20 8 0 15 -9 15 -20z"/>
<path d="M1130 1301 c0 -6 16 -11 35 -11 30 0 35 -3 35 -24 0 -14 -4 -28 -10
-31 -5 -3 -10 1 -10 10 0 11 -5 15 -15 12 -8 -4 -17 -1 -21 5 -4 7 -9 6 -15
-3 -18 -29 -9 -39 35 -39 42 0 44 1 51 36 3 20 5 37 3 39 -2 1 -22 6 -45 10
-29 4 -43 3 -43 -4z"/>
<path d="M1313 1303 c9 -2 25 -2 35 0 9 3 1 5 -18 5 -19 0 -27 -2 -17 -5z"/>
<path d="M1264 1288 c-3 -5 -2 -9 3 -10 4 0 13 -2 18 -3 6 -2 19 -3 30 -4 18
-1 20 -6 17 -36 -3 -21 0 -35 7 -35 6 0 11 13 11 29 0 16 3 36 6 44 4 12 -5
16 -41 19 -26 2 -49 0 -51 -4z"/>
<path d="M1443 1293 c9 -2 25 -2 35 0 9 3 1 5 -18 5 -19 0 -27 -2 -17 -5z"/>
<path d="M1538 1283 c6 -2 18 -2 25 0 6 3 1 5 -13 5 -14 0 -19 -2 -12 -5z"/>
<path d="M1400 1270 c0 -5 15 -10 34 -10 34 0 35 -1 29 -35 -4 -23 -2 -35 6
-35 6 0 11 13 11 29 0 16 3 36 6 45 5 13 -2 16 -40 16 -25 0 -46 -4 -46 -10z"/>
<path d="M1530 1230 c0 -36 3 -40 25 -40 16 0 25 6 25 15 0 8 -6 15 -14 15 -8
0 -16 7 -20 15 -4 11 1 15 19 15 22 0 25 -4 25 -35 0 -24 5 -35 15 -35 11 0
15 11 15 39 0 41 -13 51 -67 51 -20 0 -23 -5 -23 -40z"/>
<path d="M1270 1251 c0 -5 -3 -16 -6 -25 -5 -13 1 -16 25 -16 36 0 38 3 11 30
-22 22 -30 25 -30 11z"/>
<path d="M1511 1244 c0 -11 3 -14 6 -6 3 7 2 16 -1 19 -3 4 -6 -2 -5 -13z"/>
<path d="M1662 1221 c1 -38 4 -41 35 -47 19 -4 39 -2 45 4 15 15 0 72 -20 72
-9 0 -27 3 -39 6 -21 6 -23 3 -21 -35z m58 -6 c0 -19 -4 -23 -17 -18 -38 14
-43 43 -8 43 20 0 25 -5 25 -25z m17 -27 c-3 -8 -6 -5 -6 6 -1 11 2 17 5 13 3
-3 4 -12 1 -19z"/>
<path d="M1828 1253 c6 -2 18 -2 25 0 6 3 1 5 -13 5 -14 0 -19 -2 -12 -5z"/>
<path d="M988 1204 c-2 -25 0 -48 4 -50 5 -3 8 18 8 45 0 64 -7 66 -12 5z"/>
<path d="M1406 1243 c-3 -4 -6 -15 -6 -25 0 -13 7 -18 25 -18 14 0 25 6 25 13
0 14 -35 39 -44 30z"/>
<path d="M1642 1230 c0 -14 2 -19 5 -12 2 6 2 18 0 25 -3 6 -5 1 -5 -13z"/>
<path d="M1784 1233 c3 -8 6 -28 6 -44 0 -26 3 -29 34 -29 31 0 34 3 41 36 3
20 5 37 3 39 -2 1 -22 5 -46 8 -36 4 -42 3 -38 -10z m54 -31 c3 -21 1 -22 -17
-12 -26 13 -28 43 -3 38 9 -2 18 -14 20 -26z"/>
<path d="M2232 1220 c0 -19 2 -27 5 -17 2 9 2 25 0 35 -3 9 -5 1 -5 -18z"/>
<path d="M2053 1233 c9 -2 25 -2 35 0 9 3 1 5 -18 5 -19 0 -27 -2 -17 -5z"/>
<path d="M1908 1190 c4 -38 6 -40 38 -40 32 0 34 2 28 26 -5 21 -4 25 6 19 10
-6 12 -4 7 9 -4 10 -7 20 -7 22 0 2 -17 4 -38 4 l-38 0 4 -40z m52 -7 c0 -25
0 -26 -20 -8 -11 10 -20 22 -20 27 0 4 9 8 20 8 15 0 20 -7 20 -27z"/>
<path d="M2148 1223 c6 -2 18 -2 25 0 6 3 1 5 -13 5 -14 0 -19 -2 -12 -5z"/>
<path d="M2028 1180 c4 -39 5 -40 43 -40 31 0 39 4 39 18 0 15 -2 15 -11 2 -8
-11 -9 -6 -5 23 l5 37 -37 0 -38 0 4 -40z m46 4 c11 -28 6 -34 -14 -17 -11 10
-20 21 -20 25 0 15 28 8 34 -8z"/>
<path d="M1135 1205 c23 -8 85 -10 85 -3 0 4 -21 8 -47 7 -27 0 -43 -2 -38 -4z"/>
<path d="M2144 1179 c3 -17 6 -35 6 -40 0 -5 7 -9 15 -9 8 0 15 7 15 16 0 8
-4 13 -9 10 -5 -3 -11 3 -14 15 -4 15 -1 19 11 17 10 -2 18 -15 20 -31 4 -30
17 -36 26 -11 10 25 6 41 -5 19 -7 -16 -8 -13 -4 13 4 31 3 32 -31 32 -35 0
-36 -1 -30 -31z"/>
<path d="M1268 1193 c6 -2 18 -2 25 0 6 3 1 5 -13 5 -14 0 -19 -2 -12 -5z"/>
<path d="M1120 1180 c0 -5 18 -10 40 -10 41 0 47 -9 34 -44 -8 -20 -54 -21
-54 -2 0 8 -4 18 -10 21 -6 3 -10 -5 -10 -18 0 -22 5 -25 44 -29 l44 -3 4 42
c3 39 1 42 -26 47 -42 9 -66 7 -66 -4z"/>
<path d="M1338 1183 c7 -3 16 -2 19 1 4 3 -2 6 -13 5 -11 0 -14 -3 -6 -6z"/>
<path d="M1408 1183 c6 -2 18 -2 25 0 6 3 1 5 -13 5 -14 0 -19 -2 -12 -5z"/>
<path d="M1260 1136 c0 -44 1 -46 29 -46 16 0 36 -3 44 -6 12 -4 16 5 19 40 2
37 0 46 -13 46 -9 0 -31 3 -48 6 l-31 7 0 -47z m70 -6 c0 -16 -5 -30 -11 -30
-5 0 -7 5 -4 10 3 6 -3 10 -13 10 -11 0 -22 9 -25 20 -4 17 0 20 24 20 26 0
29 -4 29 -30z"/>
<path d="M1538 1173 c7 -3 16 -2 19 1 4 3 -2 6 -13 5 -11 0 -14 -3 -6 -6z"/>
<path d="M2247 1125 c3 -33 7 -62 9 -64 8 -8 2 74 -7 99 -5 16 -6 4 -2 -35z"/>
<path d="M1400 1126 c0 -44 1 -46 30 -46 17 0 30 5 30 10 0 6 -9 10 -20 10
-15 0 -20 7 -20 25 0 20 5 25 25 25 23 0 25 -4 25 -42 0 -52 12 -43 14 12 2
37 1 40 -25 40 -15 0 -34 3 -43 6 -13 5 -16 -2 -16 -40z"/>
<path d="M1588 1163 c6 -2 18 -2 25 0 6 3 1 5 -13 5 -14 0 -19 -2 -12 -5z"/>
<path d="M1537 1153 c-2 -1 -1 -20 1 -41 4 -37 6 -40 38 -44 22 -3 34 0 34 8
0 6 3 25 6 42 6 29 5 30 -35 34 -23 2 -43 3 -44 1z m47 -19 c17 -6 23 -54 7
-54 -25 0 -41 14 -41 36 0 25 7 28 34 18z"/>
<path d="M1688 1153 c12 -2 32 -2 45 0 12 2 2 4 -23 4 -25 0 -35 -2 -22 -4z"/>
<path d="M1838 1143 c6 -2 18 -2 25 0 6 3 1 5 -13 5 -14 0 -19 -2 -12 -5z"/>
<path d="M978 1133 c-2 -5 -1 -24 3 -43 l6 -35 2 43 c1 39 -3 52 -11 35z"/>
<path d="M1101 1124 c0 -11 3 -14 6 -6 3 7 2 16 -1 19 -3 4 -6 -2 -5 -13z"/>
<path d="M1668 1101 c4 -36 7 -39 38 -43 29 -3 34 -1 34 17 0 11 3 30 6 43 6
20 3 22 -38 22 l-44 0 4 -39z m60 14 c2 -2 1 -13 -3 -25 l-7 -21 -19 22 c-25
29 -24 42 4 33 12 -3 24 -8 25 -9z"/>
<path d="M1938 1133 c12 -2 30 -2 40 0 9 3 -1 5 -23 4 -22 0 -30 -2 -17 -4z"/>
<path d="M1790 1120 c0 -5 14 -10 30 -10 25 0 30 -4 30 -25 0 -14 -5 -25 -11
-25 -5 0 -8 4 -4 9 3 6 -4 15 -15 21 -20 11 -22 9 -24 -20 -1 -16 63 -34 75
-22 4 4 4 24 2 45 -5 36 -7 37 -44 37 -21 0 -39 -4 -39 -10z"/>
<path d="M2048 1123 c12 -2 32 -2 45 0 12 2 2 4 -23 4 -25 0 -35 -2 -22 -4z"/>
<path d="M1918 1080 c3 -31 8 -40 23 -40 23 0 23 4 3 35 -16 24 -15 25 5 25
17 0 21 -6 21 -29 0 -17 4 -32 9 -35 10 -6 21 16 21 42 0 15 -2 15 -10 2 -9
-13 -10 -13 -10 1 0 8 5 20 12 27 9 9 2 12 -33 12 l-45 0 4 -40z"/>
<path d="M2198 1113 c6 -2 18 -2 25 0 6 3 1 5 -13 5 -14 0 -19 -2 -12 -5z"/>
<path d="M781 1094 c0 -11 3 -14 6 -6 3 7 2 16 -1 19 -3 4 -6 -2 -5 -13z"/>
<path d="M2038 1069 c4 -39 5 -40 40 -37 19 2 38 9 40 17 3 9 0 11 -8 6 -10
-6 -12 -1 -7 23 6 31 6 32 -31 32 l-38 0 4 -41z m52 -4 c0 -21 -3 -24 -17 -17
-24 14 -25 42 -2 42 14 0 19 -7 19 -25z"/>
<path d="M2154 1084 c3 -9 6 -27 6 -40 0 -21 5 -24 36 -24 21 0 33 -4 29 -10
-3 -5 -1 -10 4 -10 6 0 11 9 11 21 0 13 -4 18 -12 13 -8 -5 -9 3 -5 29 l6 37
-41 0 c-32 0 -39 -3 -34 -16z m52 -19 c10 -25 -7 -40 -23 -20 -7 11 -13 22
-13 27 0 14 30 9 36 -7z"/>
<path d="M1128 1083 c6 -2 18 -2 25 0 6 3 1 5 -13 5 -14 0 -19 -2 -12 -5z"/>
<path d="M1183 1073 c9 -2 23 -2 30 0 6 3 -1 5 -18 5 -16 0 -22 -2 -12 -5z"/>
<path d="M1120 1045 c0 -14 3 -16 8 -7 5 6 20 11 35 10 22 -2 27 -7 27 -30 0
-25 -3 -28 -36 -28 -33 0 -35 2 -23 17 12 14 12 16 -1 11 -8 -2 -16 -14 -18
-26 -3 -20 1 -22 41 -22 43 0 44 0 54 44 l10 44 -49 4 c-43 3 -48 1 -48 -17z"/>
<path d="M1308 1063 c12 -2 30 -2 40 0 9 3 -1 5 -23 4 -22 0 -30 -2 -17 -4z"/>
<path d="M1408 1063 c7 -3 16 -2 19 1 4 3 -2 6 -13 5 -11 0 -14 -3 -6 -6z"/>
<path d="M1260 1042 c0 -7 4 -11 9 -8 5 3 23 3 41 0 26 -6 31 -11 28 -33 -2
-21 -9 -27 -37 -29 -21 -2 -31 0 -26 7 3 6 1 11 -4 11 -6 0 -11 -7 -11 -16 0
-12 10 -14 48 -12 l47 3 1 42 1 41 -48 4 c-36 2 -49 -1 -49 -10z"/>
<path d="M1468 1053 c7 -3 16 -2 19 1 4 3 -2 6 -13 5 -11 0 -14 -3 -6 -6z"/>
<path d="M1651 1044 c0 -11 3 -14 6 -6 3 7 2 16 -1 19 -3 4 -6 -2 -5 -13z"/>
<path d="M806 997 c-8 -53 -11 -59 -47 -79 -22 -12 -39 -25 -39 -30 0 -11 6
-10 22 5 8 6 24 18 35 24 22 12 22 12 16 -40 -7 -61 -14 -72 -66 -98 -21 -11
-37 -23 -34 -25 3 -3 23 4 46 16 l41 20 0 -20 c0 -13 -4 -18 -11 -14 -8 4 -8
1 -1 -12 6 -11 8 -32 5 -48 -4 -20 -2 -27 6 -22 6 4 11 25 11 47 0 23 7 95 16
160 8 66 14 132 12 147 -3 18 -7 8 -12 -31z"/>
<path d="M1400 1032 c0 -7 4 -11 9 -8 5 3 23 3 40 0 24 -5 30 -11 27 -28 -3
-18 -9 -21 -40 -18 -27 2 -36 -1 -36 -13 0 -11 11 -15 45 -15 l45 0 0 44 0 44
-45 4 c-32 2 -45 -1 -45 -10z"/>
<path d="M1593 1043 c9 -2 23 -2 30 0 6 3 -1 5 -18 5 -16 0 -22 -2 -12 -5z"/>
<path d="M2265 1010 c13 -119 45 -313 51 -307 4 4 -30 236 -46 307 l-9 45 4
-45z"/>
<path d="M1540 990 l0 -45 39 -2 39 -2 4 43 3 44 -42 4 -43 3 0 -45z m58 -2
c5 -42 -35 -32 -43 11 -3 18 0 22 18 19 16 -2 23 -11 25 -30z"/>
<path d="M1723 1033 c9 -2 23 -2 30 0 6 3 -1 5 -18 5 -16 0 -22 -2 -12 -5z"/>
<path d="M1808 1033 c7 -3 16 -2 19 1 4 3 -2 6 -13 5 -11 0 -14 -3 -6 -6z"/>
<path d="M1670 984 c0 -41 1 -42 38 -46 20 -3 38 -5 39 -4 1 1 5 20 9 43 l6
41 -46 3 -46 4 0 -41z m60 -4 c0 -34 -3 -36 -24 -14 -22 22 -20 44 4 44 16 0
20 -7 20 -30z"/>
<path d="M1916 1022 c-3 -5 8 -6 25 -4 16 2 29 6 29 8 0 8 -49 4 -54 -4z"/>
<path d="M975 1011 c-3 -5 -1 -12 5 -16 5 -3 10 1 10 9 0 18 -6 21 -15 7z"/>
<path d="M1241 1004 c0 -11 3 -14 6 -6 3 7 2 16 -1 19 -3 4 -6 -2 -5 -13z"/>
<path d="M1382 1000 c0 -14 2 -19 5 -12 2 6 2 18 0 25 -3 6 -5 1 -5 -13z"/>
<path d="M1800 973 c0 -39 2 -43 25 -43 16 0 25 6 25 15 0 8 -6 14 -12 13 -7
-2 -14 8 -16 20 -3 19 0 23 15 20 13 -2 19 -14 21 -41 4 -48 26 -45 29 4 2 30
1 31 -7 9 -7 -22 -8 -22 -9 -4 -1 11 4 25 10 31 8 8 -2 12 -35 14 l-46 4 0
-42z"/>
<path d="M2030 1011 c0 -4 11 -6 25 -3 14 2 25 6 25 8 0 2 -11 4 -25 4 -14 0
-25 -4 -25 -9z"/>
<path d="M1929 1006 c-2 -3 -3 -23 -1 -45 4 -38 5 -39 48 -43 31 -2 44 1 44
10 0 7 -5 10 -11 7 -7 -5 -8 5 -4 29 7 34 6 36 -18 36 -14 0 -32 2 -39 5 -8 3
-16 3 -19 1z m51 -32 c0 -9 -7 -14 -17 -12 -25 5 -28 28 -4 28 12 0 21 -6 21
-16z m0 -34 c0 -5 -2 -10 -4 -10 -3 0 -8 5 -11 10 -3 6 -1 10 4 10 6 0 11 -4
11 -10z"/>
<path d="M2156 1001 c-4 -5 3 -7 14 -4 23 6 26 13 6 13 -8 0 -17 -4 -20 -9z"/>
<path d="M1072 970 c0 -19 2 -27 5 -17 2 9 2 25 0 35 -3 9 -5 1 -5 -18z"/>
<path d="M1413 993 c9 -2 25 -2 35 0 9 3 1 5 -18 5 -19 0 -27 -2 -17 -5z"/>
<path d="M2050 969 c0 -46 9 -56 53 -61 32 -3 37 -1 37 17 0 17 -2 18 -11 5
-8 -11 -9 -5 -4 23 5 31 3 37 -12 37 -10 0 -28 3 -40 6 -21 6 -23 3 -23 -27z
m50 -21 c-1 -31 -1 -32 -15 -14 -19 25 -19 46 0 46 10 0 15 -10 15 -32z"/>
<path d="M468 983 c6 -2 18 -2 25 0 6 3 1 5 -13 5 -14 0 -19 -2 -12 -5z"/>
<path d="M568 983 c7 -3 16 -2 19 1 4 3 -2 6 -13 5 -11 0 -14 -3 -6 -6z"/>
<path d="M752 970 c0 -14 2 -19 5 -12 2 6 2 18 0 25 -3 6 -5 1 -5 -13z"/>
<path d="M2170 976 c0 -7 3 -28 6 -45 5 -24 12 -31 29 -31 25 0 52 48 41 75
-7 20 -76 21 -76 1z m50 -31 c0 -15 -6 -25 -14 -25 -7 0 -16 11 -18 25 -4 19
-1 25 13 25 14 0 19 -7 19 -25z"/>
<path d="M966 884 c-4 -53 -5 -98 -3 -101 3 -2 8 39 12 92 4 53 5 98 3 101 -3
2 -8 -39 -12 -92z"/>
<path d="M1092 960 c0 -14 2 -19 5 -12 2 6 2 18 0 25 -3 6 -5 1 -5 -13z"/>
<path d="M1118 953 c6 -2 18 -2 25 0 6 3 1 5 -13 5 -14 0 -19 -2 -12 -5z"/>
<path d="M1173 943 c9 -2 23 -2 30 0 6 3 -1 5 -18 5 -16 0 -22 -2 -12 -5z"/>
<path d="M1283 943 c15 -2 37 -2 50 0 12 2 0 4 -28 4 -27 0 -38 -2 -22 -4z"/>
<path d="M1523 900 c0 -30 2 -43 4 -27 2 15 2 39 0 55 -2 15 -4 2 -4 -28z"/>
<path d="M682 920 c0 -14 2 -19 5 -12 2 6 2 18 0 25 -3 6 -5 1 -5 -13z"/>
<path d="M711 924 c0 -11 3 -14 6 -6 3 7 2 16 -1 19 -3 4 -6 -2 -5 -13z"/>
<path d="M1110 923 c0 -6 9 -9 20 -6 26 7 70 -5 70 -18 0 -7 -17 -10 -45 -7
-43 3 -45 2 -45 -23 0 -23 5 -27 42 -32 24 -3 43 -5 44 -4 1 1 4 23 8 49 l7
46 -51 4 c-33 2 -50 -1 -50 -9z m70 -63 c0 -12 -37 -14 -44 -2 -2 4 6 9 20 10
13 1 24 -3 24 -8z"/>
<path d="M1423 933 c15 -2 37 -2 50 0 12 2 0 4 -28 4 -27 0 -38 -2 -22 -4z"/>
<path d="M0 914 c0 -10 10 -14 33 -13 17 0 78 -2 135 -6 71 -5 102 -4 102 4 0
6 -12 11 -27 12 -147 5 -220 10 -230 14 -7 2 -13 -2 -13 -11z"/>
<path d="M1260 919 c0 -15 82 -20 96 -6 4 4 -9 7 -29 7 -19 0 -42 3 -51 6 -10
4 -16 1 -16 -7z"/>
<path d="M1563 923 c15 -2 37 -2 50 0 12 2 0 4 -28 4 -27 0 -38 -2 -22 -4z"/>
<path d="M2246 921 c-4 -7 -5 -15 -2 -18 9 -9 19 4 14 18 -4 11 -6 11 -12 0z"/>
<path d="M1400 910 c0 -5 15 -10 33 -10 35 0 51 -8 55 -27 1 -9 -12 -13 -43
-13 -38 0 -45 -3 -45 -19 0 -16 9 -20 49 -23 l49 -3 1 46 c1 46 0 47 -37 53
-51 8 -62 8 -62 -4z"/>
<path d="M1666 911 c-9 -14 16 -29 53 -33 51 -5 52 -28 2 -28 -34 0 -41 -3
-41 -19 0 -15 9 -20 45 -23 l46 -3 -3 45 -3 45 -50 4 -50 5 50 6 50 7 -47 1
c-26 1 -49 -2 -52 -7z"/>
<path d="M2426 883 c6 -49 9 -64 19 -86 4 -9 5 -28 3 -42 -3 -13 -2 -22 2 -20
4 2 13 -11 20 -30 9 -24 16 -31 21 -23 7 10 11 10 21 0 15 -15 32 -16 22 -1
-3 6 0 15 7 20 9 6 4 7 -16 4 -16 -3 -35 -2 -42 3 -7 4 -20 54 -29 110 -9 56
-21 102 -25 102 -4 0 -6 -17 -3 -37z"/>
<path d="M280 900 c0 -5 8 -11 18 -11 9 -1 29 -3 45 -5 18 -2 27 2 27 12 0 10
-12 14 -45 14 -25 0 -45 -4 -45 -10z"/>
<path d="M1540 901 c0 -6 17 -11 38 -13 25 -2 37 -8 37 -18 0 -11 -10 -15 -38
-14 -33 1 -38 -1 -35 -20 2 -16 11 -22 41 -24 34 -3 37 -1 37 23 0 17 4 24 11
19 15 -9 0 38 -15 48 -16 11 -76 10 -76 -1z"/>
<path d="M1868 903 c7 -3 16 -2 19 1 4 3 -2 6 -13 5 -11 0 -14 -3 -6 -6z"/>
<path d="M1926 902 c-3 -5 8 -6 25 -4 16 2 29 6 29 8 0 8 -49 4 -54 -4z"/>
<path d="M2041 894 c0 -11 3 -14 6 -6 3 7 2 16 -1 19 -3 4 -6 -2 -5 -13z"/>
<path d="M380 891 c0 -8 16 -11 48 -10 26 1 84 -2 130 -6 58 -5 82 -4 82 4 0
6 -6 11 -12 11 -7 0 -66 3 -130 7 -89 4 -118 3 -118 -6z"/>
<path d="M1343 893 c-7 -2 -13 -16 -13 -29 0 -22 -4 -25 -27 -22 -19 2 -29 10
-34 28 -7 23 -7 23 -8 -7 -1 -30 0 -31 49 -35 l50 -3 0 38 c0 20 -1 37 -2 36
-2 0 -9 -3 -15 -6z"/>
<path d="M2073 893 c9 -2 23 -2 30 0 6 3 -1 5 -18 5 -16 0 -22 -2 -12 -5z"/>
<path d="M667 863 c-20 -14 -35 -28 -33 -31 7 -6 76 38 76 49 0 12 1 12 -43
-18z"/>
<path d="M772 860 c0 -19 2 -27 5 -17 2 9 2 25 0 35 -3 9 -5 1 -5 -18z"/>
<path d="M1381 874 c0 -11 3 -14 6 -6 3 7 2 16 -1 19 -3 4 -6 -2 -5 -13z"/>
<path d="M1810 881 c0 -6 18 -11 39 -11 29 0 41 -5 45 -17 3 -11 4 -7 3 7 -2
22 -7 25 -44 28 -26 2 -43 -1 -43 -7z"/>
<path d="M1935 879 c-4 -5 6 -9 22 -9 42 0 55 -12 45 -41 -7 -18 -5 -27 7 -36
13 -10 8 -12 -31 -13 -66 0 -61 -16 6 -19 l53 -2 -9 58 c-5 31 -10 58 -11 59
-11 8 -78 10 -82 3z"/>
<path d="M2198 883 c12 -2 32 -2 45 0 12 2 2 4 -23 4 -25 0 -35 -2 -22 -4z"/>
<path d="M171 864 c0 -11 3 -14 6 -6 3 7 2 16 -1 19 -3 4 -6 -2 -5 -13z"/>
<path d="M1792 860 c0 -14 2 -19 5 -12 2 6 2 18 0 25 -3 6 -5 1 -5 -13z"/>
<path d="M2060 871 c0 -6 14 -11 31 -13 22 -2 34 -10 40 -25 8 -21 5 -23 -26
-23 -19 0 -35 -5 -35 -11 0 -6 16 -9 38 -7 35 3 37 5 38 38 0 27 -4 37 -20 42
-32 9 -66 9 -66 -1z"/>
<path d="M8 863 c7 -3 16 -2 19 1 4 3 -2 6 -13 5 -11 0 -14 -3 -6 -6z"/>
<path d="M721 854 c0 -11 3 -14 6 -6 3 7 2 16 -1 19 -3 4 -6 -2 -5 -13z"/>
<path d="M2180 860 c0 -5 16 -10 36 -10 28 0 35 -3 30 -15 -3 -8 -1 -15 4 -15
16 0 12 -17 -5 -24 -21 -8 -45 3 -46 23 -1 9 -5 -2 -10 -23 -5 -22 -7 -44 -5
-50 2 -6 5 -1 5 12 1 18 7 22 35 22 19 0 37 6 39 13 3 7 6 5 6 -5 1 -14 -7
-18 -34 -18 -48 0 -44 -14 5 -17 45 -3 47 1 29 73 -11 43 -13 44 -50 44 -22 0
-39 -4 -39 -10z"/>
<path d="M752 835 c0 -16 2 -22 5 -12 2 9 2 23 0 30 -3 6 -5 -1 -5 -18z"/>
<path d="M0 830 c0 -14 7 -20 23 -21 12 -1 48 -3 79 -5 47 -3 57 -1 61 14 4
16 5 16 6 0 1 -21 61 -26 61 -5 0 9 2 9 9 -1 7 -11 10 -10 15 3 3 9 6 18 6 20
0 1 -42 3 -94 4 -83 2 -95 0 -99 -16 -4 -16 -5 -16 -6 2 -2 29 -61 33 -61 5z
m200 -10 c0 -5 -5 -10 -11 -10 -5 0 -7 5 -4 10 3 6 8 10 11 10 2 0 4 -4 4 -10z"/>
<path d="M458 843 c6 -2 18 -2 25 0 6 3 1 5 -13 5 -14 0 -19 -2 -12 -5z"/>
<path d="M1810 820 c0 -17 6 -20 33 -19 17 1 40 -2 51 -6 17 -8 18 -7 2 16
-21 34 -86 40 -86 9z"/>
<path d="M1940 823 c0 -17 6 -23 23 -23 16 0 18 3 8 9 -7 5 -17 15 -22 22 -6
10 -9 8 -9 -8z"/>
<path d="M267 816 c-4 -9 -1 -16 6 -16 7 0 22 -3 35 -6 17 -5 22 -2 23 12 0
18 1 17 8 -1 8 -20 8 -20 13 0 5 16 6 17 7 3 1 -16 12 -18 91 -18 70 0 90 3
90 14 0 21 -80 27 -81 6 0 -13 -1 -13 -7 1 -10 24 -177 28 -185 5z"/>
<path d="M2171 814 c0 -11 3 -14 6 -6 3 7 2 16 -1 19 -3 4 -6 -2 -5 -13z"/>
<path d="M2657 823 c-8 -13 -5 -63 4 -63 4 0 7 16 6 35 -2 37 -3 40 -10 28z"/>
<path d="M550 800 c0 -17 7 -20 39 -20 30 0 40 4 44 20 5 18 0 20 -39 20 -37
0 -44 -3 -44 -20z"/>
<path d="M681 804 c0 -11 3 -14 6 -6 3 7 2 16 -1 19 -3 4 -6 -2 -5 -13z"/>
<path d="M1101 816 c2 -2 28 -6 57 -10 37 -5 52 -4 47 4 -3 5 -29 10 -57 10
-28 0 -49 -2 -47 -4z"/>
<path d="M1381 804 c0 -11 3 -14 6 -6 3 7 2 16 -1 19 -3 4 -6 -2 -5 -13z"/>
<path d="M1521 804 c0 -11 3 -14 6 -6 3 7 2 16 -1 19 -3 4 -6 -2 -5 -13z"/>
<path d="M2681 805 c0 -11 4 -29 9 -40 9 -20 9 -20 9 0 0 11 -4 29 -9 40 -9
20 -9 20 -9 0z"/>
<path d="M1255 805 c26 -9 105 -12 105 -4 0 5 -26 9 -57 8 -32 0 -53 -2 -48
-4z"/>
<path d="M1400 802 c0 -6 23 -12 50 -14 28 -1 50 0 50 5 0 4 -15 7 -34 7 -19
0 -41 3 -50 6 -9 3 -16 2 -16 -4z"/>
<path d="M1662 785 c0 -16 2 -22 5 -12 2 9 2 23 0 30 -3 6 -5 -1 -5 -18z"/>
<path d="M2052 795 c0 -28 16 -77 17 -51 1 15 8 17 46 14 25 -2 45 0 45 4 0 5
-22 8 -49 8 -43 0 -50 3 -54 23 -4 18 -4 19 -5 2z"/>
<path d="M1565 790 c45 -11 77 -11 70 0 -3 6 -27 9 -53 9 -42 -1 -44 -2 -17
-9z"/>
<path d="M1690 784 c37 -8 88 -9 84 -2 -3 4 -26 7 -52 7 -26 -1 -40 -3 -32 -5z"/>
<path d="M1808 773 c-5 -7 -8 -18 -5 -25 4 -8 6 -7 6 4 1 13 12 18 54 20 l52
3 -48 5 c-32 4 -52 1 -59 -7z"/>
<path d="M2930 783 c0 -5 5 -15 10 -23 7 -12 9 -10 7 8 -1 19 -17 33 -17 15z"/>
<path d="M145 770 c-3 -5 -1 -10 4 -10 6 0 11 5 11 10 0 6 -2 10 -4 10 -3 0
-8 -4 -11 -10z"/>
<path d="M245 770 c-3 -5 -1 -10 4 -10 6 0 11 5 11 10 0 6 -2 10 -4 10 -3 0
-8 -4 -11 -10z"/>
<path d="M2483 768 c2 -7 10 -12 17 -10 6 1 14 -7 17 -18 7 -26 23 -26 23 0 0
11 -7 20 -15 20 -8 0 -15 5 -15 10 0 6 -7 10 -16 10 -9 0 -14 -6 -11 -12z"/>
<path d="M2860 763 c0 -7 7 -10 16 -6 10 4 24 -4 39 -21 30 -35 39 -33 20 4
-9 17 -20 28 -25 25 -6 -4 -10 -2 -10 2 0 5 -9 9 -20 9 -11 0 -20 -6 -20 -13z"/>
<path d="M2980 769 c0 -5 -4 -7 -10 -4 -5 3 -10 0 -10 -8 0 -8 7 -17 15 -21 8
-3 15 -11 15 -18 0 -9 -3 -9 -10 2 -5 8 -12 11 -16 7 -4 -4 -2 -13 4 -19 18
-18 37 4 24 28 -5 11 -7 25 -5 32 3 6 2 12 -1 12 -3 0 -6 -5 -6 -11z"/>
<path d="M621 754 c0 -11 3 -14 6 -6 3 7 2 16 -1 19 -3 4 -6 -2 -5 -13z"/>
<path d="M1100 760 c0 -5 18 -10 40 -10 l40 0 0 -54 c0 -61 -4 -66 -41 -59
-22 4 -26 10 -27 46 -3 54 -12 62 -12 9 0 -22 -3 -47 -6 -56 -5 -13 3 -16 50
-16 l56 0 0 59 c0 33 3 66 6 75 5 13 -3 16 -50 16 -31 0 -56 -4 -56 -10z"/>
<path d="M1250 716 l0 -56 32 0 c32 0 32 0 10 16 -24 17 -29 40 -9 47 10 4 10
6 0 6 -27 2 -11 21 16 21 30 0 30 -1 26 -50 -2 -27 -6 -54 -10 -60 -8 -13 -45
-13 -45 0 0 6 -4 10 -10 10 -5 0 -10 -6 -10 -14 0 -10 16 -15 54 -18 43 -2 52
0 44 10 -7 8 -8 36 -5 72 l7 60 -34 0 c-19 0 -41 3 -50 6 -13 5 -16 -3 -16
-50z"/>
<path d="M2825 758 c5 -12 -6 -15 -57 -16 -35 0 -64 -1 -66 -1 -2 -1 4 -8 12
-17 9 -8 14 -19 11 -24 -3 -5 0 -12 6 -16 8 -4 9 -3 5 4 -4 7 -3 12 3 12 5 0
11 -6 14 -12 2 -7 2 -1 0 15 -3 15 0 27 6 27 6 0 11 -7 11 -15 0 -8 10 -19 23
-25 20 -10 20 -10 5 3 -24 19 -23 37 2 37 11 0 20 -6 20 -14 0 -17 28 -41 38
-32 4 4 -1 12 -11 17 -9 6 -17 15 -17 22 0 7 4 6 10 -3 8 -12 10 -11 10 6 0
12 -7 27 -15 34 -13 11 -14 10 -10 -2z"/>
<path d="M413 753 c15 -2 37 -2 50 0 12 2 0 4 -28 4 -27 0 -38 -2 -22 -4z"/>
<path d="M742 745 c0 -11 4 -31 8 -45 6 -20 8 -21 8 -5 0 11 -4 31 -8 45 -6
20 -8 21 -8 5z"/>
<path d="M1402 690 l3 -72 48 -3 47 -3 0 72 0 71 -50 3 -51 3 3 -71z m68 -3
c0 -48 -2 -53 -24 -55 -22 -1 -24 2 -28 49 -3 58 -3 59 29 59 21 0 23 -4 23
-53z"/>
<path d="M2550 743 c0 -13 5 -23 10 -23 13 0 13 11 0 30 -8 12 -10 11 -10 -7z"/>
<path d="M0 730 c0 -25 25 -26 40 -2 11 16 11 16 6 0 -4 -15 1 -18 28 -18 29
0 46 13 46 36 0 2 -27 4 -60 4 -53 0 -60 -2 -60 -20z"/>
<path d="M127 736 c-4 -10 -7 -19 -7 -20 0 -8 46 -2 52 7 5 9 8 8 8 -3 0 -21
54 -19 58 2 2 12 -8 17 -42 20 -36 2 -46 0 -47 -12 0 -10 -3 -9 -8 4 -7 18 -8
18 -14 2z"/>
<path d="M644 735 c-10 -8 -14 -15 -8 -15 5 0 19 7 30 15 10 8 14 15 8 15 -5
0 -19 -7 -30 -15z"/>
<path d="M1544 734 c3 -9 6 -40 6 -69 l0 -53 49 -4 c35 -2 47 0 40 8 -5 6 -6
39 -3 73 l7 61 -53 0 c-43 0 -51 -3 -46 -16z m42 -5 c5 -8 9 -8 14 1 4 6 8
-11 9 -40 0 -28 3 -56 7 -61 4 -7 -5 -9 -22 -7 -28 3 -29 6 -32 61 -3 54 7 73
24 46z"/>
<path d="M1680 737 c0 -12 8 -15 35 -10 l35 6 -1 -59 c0 -33 -3 -54 -5 -47 -3
7 -11 10 -19 7 -9 -4 -16 8 -23 38 l-10 43 -1 -52 c-1 -53 -1 -53 30 -53 17 0
39 -5 51 -11 18 -10 19 -9 12 13 -4 12 -8 33 -9 46 0 12 -3 22 -7 22 -5 0 -8
10 -7 23 0 21 1 21 9 2 8 -18 9 -17 9 8 1 23 -3 27 -26 27 -16 0 -38 3 -50 6
-17 5 -23 2 -23 -9z"/>
<path d="M2575 740 c3 -5 10 -10 16 -10 5 0 9 5 9 10 0 6 -7 10 -16 10 -8 0
-12 -4 -9 -10z"/>
<path d="M247 719 c-5 -18 -2 -20 41 -17 35 2 48 7 50 21 3 14 -4 17 -41 17
-37 0 -46 -4 -50 -21z"/>
<path d="M347 720 c-5 -18 0 -20 39 -20 39 0 44 2 43 23 0 21 -1 21 -9 2 -7
-17 -9 -17 -9 -2 -1 26 -57 24 -64 -3z"/>
<path d="M443 720 c3 -20 49 -34 59 -17 13 20 9 25 -27 29 -27 3 -34 1 -32
-12z"/>
<path d="M721 724 c0 -11 3 -14 6 -6 3 7 2 16 -1 19 -3 4 -6 -2 -5 -13z"/>
<path d="M1820 730 c0 -5 14 -10 30 -10 30 0 30 -1 30 -55 l0 -55 -21 21 c-16
16 -18 23 -8 35 8 10 8 14 0 14 -6 0 -11 7 -11 15 0 8 -4 15 -10 15 -11 0 -13
-33 -4 -78 6 -27 10 -30 50 -34 43 -3 44 -2 44 27 0 24 -2 27 -11 15 -7 -11
-8 2 -3 43 l6 57 -46 0 c-25 0 -46 -4 -46 -10z"/>
<path d="M1954 700 c3 -19 6 -49 6 -66 0 -31 2 -32 45 -36 l45 -3 -1 35 -1 35
-9 -30 c-6 -22 -7 -13 -4 32 l4 61 -45 4 -46 3 6 -35z m58 -39 c2 -33 -1 -47
-8 -44 -7 2 -9 13 -7 24 4 13 1 19 -8 17 -9 -2 -14 7 -15 25 -1 19 4 27 17 27
13 0 18 -10 21 -49z"/>
<path d="M1987 693 c-10 -9 -9 -23 1 -23 5 0 9 7 9 15 0 17 -1 18 -10 8z"/>
<path d="M2598 710 c-21 -18 -38 -35 -38 -39 0 -4 16 -5 36 -3 24 3 39 0 45
-9 10 -16 10 9 0 54 l-6 28 -37 -31z m27 -20 c3 -5 -1 -10 -9 -10 -9 0 -16 5
-16 10 0 6 4 10 9 10 6 0 13 -4 16 -10z"/>
<path d="M516 715 c-9 -26 -7 -32 5 -12 6 10 9 21 6 23 -2 3 -7 -2 -11 -11z"/>
<path d="M536 714 c-9 -24 -9 -24 29 -24 28 0 35 4 35 20 0 15 -7 20 -29 20
-17 0 -31 -6 -35 -16z"/>
<path d="M612 710 c0 -14 2 -19 5 -12 2 6 2 18 0 25 -3 6 -5 1 -5 -13z"/>
<path d="M2084 684 c3 -26 6 -57 6 -70 0 -21 5 -24 35 -24 l36 0 -6 63 c-3 42
-2 56 4 42 11 -22 15 -6 5 19 -4 11 -19 16 -46 16 l-41 0 7 -46z m56 -31 c0
-24 -4 -33 -17 -33 -13 0 -14 3 -5 12 7 7 12 21 11 33 0 20 0 20 -8 0 -8 -20
-8 -20 -12 0 -6 25 12 48 23 31 4 -6 8 -26 8 -43z"/>
<path d="M2488 723 c7 -3 16 -2 19 1 4 3 -2 6 -13 5 -11 0 -14 -3 -6 -6z"/>
<path d="M952 695 c0 -16 2 -22 5 -12 2 9 2 23 0 30 -3 6 -5 -1 -5 -18z"/>
<path d="M2205 703 c2 -10 7 -39 10 -65 6 -46 6 -46 49 -50 40 -3 42 -2 38 22
-5 23 -6 23 -13 5 -7 -19 -8 -19 -8 1 -1 12 -4 36 -8 54 -4 24 -3 31 5 26 7
-4 12 -1 12 8 0 12 -11 16 -44 16 -37 0 -44 -3 -41 -17z m52 -35 c-3 -7 -5 -2
-5 12 0 14 2 19 5 13 2 -7 2 -19 0 -25z"/>
<path d="M2898 710 c18 -8 32 -30 18 -30 -3 0 -38 -4 -78 -10 -40 -5 -90 -12
-110 -14 -21 -2 -42 -7 -47 -10 -5 -3 -12 0 -14 6 -4 10 -6 10 -6 1 -1 -7 -12
-13 -26 -13 -16 0 -25 -6 -25 -16 0 -8 -4 -12 -10 -9 -5 3 -10 1 -10 -4 0 -14
2 -14 36 4 15 8 29 13 30 12 1 -1 4 -19 8 -40 7 -36 6 -38 -16 -35 -13 2 -24
11 -26 22 -3 11 0 16 7 12 6 -4 11 -2 11 4 0 7 -7 9 -16 6 -9 -3 -18 -6 -20
-6 -2 0 -4 -11 -4 -24 0 -17 7 -26 24 -30 27 -7 56 1 56 15 0 4 7 6 15 3 8 -4
12 -11 9 -16 -4 -6 4 -4 17 3 13 7 28 12 32 11 5 -1 6 2 2 8 -3 5 -19 8 -35 5
-31 -5 -42 5 -47 41 -3 16 3 23 22 28 14 4 30 4 35 1 6 -4 10 -2 10 3 0 5 12
8 28 8 15 -1 37 2 49 6 12 4 25 3 28 -2 3 -5 13 -6 22 -3 11 4 14 3 9 -5 -4
-7 -16 -12 -27 -12 -10 0 -19 -4 -19 -9 0 -11 31 -24 38 -16 3 3 -1 5 -9 5 -8
0 -4 6 9 16 12 8 20 20 17 25 -4 5 3 9 14 9 12 0 21 5 21 11 0 8 5 8 15 -1 8
-7 21 -10 29 -7 7 3 18 1 23 -4 5 -5 9 0 9 12 0 18 -4 20 -36 14 -19 -4 -32
-3 -28 1 9 9 -22 33 -42 33 -8 0 -5 -4 8 -9z"/>
<path d="M2673 703 c9 -2 17 -11 17 -19 0 -8 5 -12 10 -9 15 9 -8 35 -29 34
-13 -1 -13 -2 2 -6z"/>
<path d="M26 691 c-4 -7 -5 -15 -2 -18 9 -9 19 4 14 18 -4 11 -6 11 -12 0z"/>
<path d="M70 690 c-8 -5 -12 -11 -9 -14 2 -3 11 -1 19 4 8 5 12 11 9 14 -2 3
-11 1 -19 -4z"/>
<path d="M226 675 c4 -8 11 -15 16 -15 6 0 5 6 -2 15 -7 8 -14 15 -16 15 -2 0
-1 -7 2 -15z"/>
<path d="M282 674 c-11 -12 -9 -14 8 -14 11 0 20 4 20 9 0 17 -15 19 -28 5z"/>
<path d="M651 674 c0 -11 3 -14 6 -6 3 7 2 16 -1 19 -3 4 -6 -2 -5 -13z"/>
<path d="M682 670 c0 -14 2 -19 5 -12 2 6 2 18 0 25 -3 6 -5 1 -5 -13z"/>
<path d="M2322 660 c0 -19 2 -27 5 -17 2 9 2 25 0 35 -3 9 -5 1 -5 -18z"/>
<path d="M110 670 c0 -5 6 -10 14 -10 8 0 18 5 21 10 3 6 -3 10 -14 10 -12 0
-21 -4 -21 -10z"/>
<path d="M340 670 c0 -5 5 -10 10 -10 6 0 10 5 10 10 0 6 -4 10 -10 10 -5 0
-10 -4 -10 -10z"/>
<path d="M411 649 c-5 -19 -10 -28 -10 -21 -1 6 -14 12 -30 12 -17 0 -33 5
-36 10 -4 6 -12 7 -18 3 -7 -4 -28 -8 -47 -8 -28 0 -35 -5 -41 -25 -12 -44
-10 -60 9 -60 14 0 14 2 3 9 -18 11 -7 41 15 41 14 0 15 -2 3 -17 -12 -16 -12
-16 7 0 12 10 27 17 34 15 7 -2 17 8 21 22 8 24 9 24 5 -3 -3 -27 -3 -28 42
-25 44 3 47 5 53 38 10 46 3 52 -10 9z"/>
<path d="M612 665 c-11 -12 -10 -15 3 -15 8 0 15 7 15 15 0 18 -2 18 -18 0z"/>
<path d="M149 657 c-9 -7 -18 -19 -22 -27 -4 -12 -6 -11 -6 3 -1 13 -10 17
-42 17 -28 0 -47 -6 -56 -17 -14 -17 -14 -17 -9 0 3 9 1 17 -4 17 -6 0 -10 -9
-10 -20 0 -16 7 -20 30 -20 42 0 40 -31 -5 -56 -11 -6 -21 -19 -23 -28 -3 -13
5 -16 45 -15 26 0 43 3 36 5 -7 3 -9 12 -6 20 3 8 -1 14 -11 14 -10 0 -13 6
-10 15 4 8 12 15 20 15 15 0 19 16 5 22 -4 2 1 12 11 23 16 16 18 17 13 2 -6
-15 0 -17 54 -17 54 0 61 2 61 20 0 11 -3 19 -7 19 -25 -4 -53 2 -48 11 8 13
4 12 -16 -3z m-79 -29 c0 -4 -4 -8 -9 -8 -6 0 -12 4 -15 8 -3 5 1 9 9 9 8 0
15 -4 15 -9z m-20 -102 c-4 -4 -16 -4 -26 2 -16 9 -14 10 8 9 15 -1 23 -6 18
-11z"/>
<path d="M544 658 c-3 -4 2 -8 10 -8 8 0 17 4 20 8 3 5 -2 9 -10 9 -8 0 -17
-4 -20 -9z"/>
<path d="M718 644 c-16 -8 -28 -17 -28 -20 0 -3 5 -2 10 1 6 4 24 10 41 15 29
9 30 8 24 -23 -3 -18 -6 -49 -8 -69 -1 -23 -7 -38 -14 -38 -7 0 -13 -5 -13
-11 0 -5 5 -7 12 -3 8 5 9 -4 5 -32 -4 -21 -7 -52 -8 -69 -2 -26 -3 -25 -8 10
-4 25 -7 -1 -6 -67 0 -60 3 -108 6 -108 4 0 10 30 13 68 4 37 14 125 22 195 7
71 14 137 14 148 0 23 -24 24 -62 3z"/>
<path d="M2940 640 c0 -5 5 -10 11 -10 5 0 7 5 4 10 -3 6 -8 10 -11 10 -2 0
-4 -4 -4 -10z"/>
<path d="M427 620 c-4 -15 0 -20 14 -20 10 0 19 -4 19 -10 0 -5 -4 -10 -9 -10
-5 0 -12 -7 -15 -16 -6 -14 -4 -15 10 -4 13 11 17 11 24 1 5 -9 10 -10 14 -2
4 6 2 11 -3 11 -6 0 -11 7 -11 15 0 8 7 15 16 15 9 0 23 8 30 18 12 14 13 14
8 1 -4 -13 4 -17 47 -21 50 -5 109 8 109 24 0 5 -13 2 -30 -7 -37 -19 -40 -19
-40 4 0 16 -9 19 -89 20 -81 2 -89 0 -94 -19z"/>
<path d="M2895 620 c-3 -5 -1 -11 4 -14 5 -4 12 -2 16 4 8 13 25 3 25 -15 0
-9 -6 -12 -15 -9 -8 4 -15 2 -15 -2 0 -5 -11 -9 -24 -9 -13 0 -22 3 -19 8 8
13 -14 7 -27 -8 -14 -17 -35 -21 -25 -5 3 6 2 10 -3 10 -6 0 -13 -7 -16 -16
-3 -8 -11 -12 -17 -8 -8 4 -9 3 -5 -4 4 -7 2 -12 -4 -12 -18 0 -7 -44 13 -48
9 -2 17 1 17 7 0 6 -7 11 -15 11 -38 0 7 43 49 46 17 2 48 6 69 9 28 4 37 2
37 -9 0 -15 24 -28 34 -19 11 11 6 21 -11 26 -17 4 -17 5 0 6 9 0 17 6 17 12
0 5 5 7 10 4 6 -3 10 -1 10 5 0 6 -6 10 -12 9 -26 -3 -39 1 -33 11 4 6 3 10
-2 9 -4 -1 -10 0 -13 1 -19 7 -41 7 -45 0z"/>
<path d="M743 585 c0 -22 2 -30 4 -17 2 12 2 30 0 40 -3 9 -5 -1 -4 -23z"/>
<path d="M1672 600 c0 -14 2 -19 5 -12 2 6 2 18 0 25 -3 6 -5 1 -5 -13z"/>
<path d="M2172 600 c0 -14 2 -19 5 -12 2 6 2 18 0 25 -3 6 -5 1 -5 -13z"/>
<path d="M2491 605 c0 -11 4 -29 9 -40 9 -20 9 -20 9 0 0 11 -4 29 -9 40 -9
20 -9 20 -9 0z"/>
<path d="M2510 610 c0 -5 14 -10 30 -10 20 0 30 -5 30 -15 0 -9 -9 -15 -25
-15 -14 0 -25 -4 -25 -10 0 -5 14 -10 30 -10 28 0 30 3 30 35 0 33 -2 35 -35
35 -19 0 -35 -4 -35 -10z"/>
<path d="M691 594 c0 -11 3 -14 6 -6 3 7 2 16 -1 19 -3 4 -6 -2 -5 -13z"/>
<path d="M723 570 c0 -25 2 -35 4 -22 2 12 2 32 0 45 -2 12 -4 2 -4 -23z"/>
<path d="M1148 603 c-73 -5 -75 -20 -3 -25 45 -2 55 0 59 15 2 9 3 16 3 15 -1
-1 -28 -3 -59 -5z"/>
<path d="M121 577 c-13 -21 -12 -21 5 -5 10 10 16 20 13 22 -3 3 -11 -5 -18
-17z"/>
<path d="M1238 583 c-6 -8 -8 -16 -4 -20 3 -3 6 -1 6 5 0 16 92 16 109 0 11
-11 13 -10 9 2 -6 21 -105 31 -120 13z"/>
<path d="M160 574 l-25 -14 31 2 c17 1 31 8 31 15 0 16 -5 15 -37 -3z"/>
<path d="M286 575 c-16 -12 -17 -15 -4 -15 9 0 18 7 22 15 7 18 6 18 -18 0z"/>
<path d="M354 582 c3 -5 0 -13 -6 -15 -9 -4 -10 -6 -1 -6 17 -1 25 16 12 25
-7 4 -9 3 -5 -4z"/>
<path d="M507 583 c-4 -3 -7 -11 -7 -17 0 -6 5 -5 12 2 6 6 9 14 7 17 -3 3 -9
2 -12 -2z"/>
<path d="M1400 580 c0 -5 18 -10 39 -10 22 0 47 -3 55 -6 12 -5 15 -2 10 10
-4 12 -19 16 -55 16 -27 0 -49 -4 -49 -10z"/>
<path d="M1550 581 c0 -6 20 -11 44 -11 26 0 47 -5 50 -12 3 -7 5 -4 3 6 -2
15 -12 20 -49 23 -30 3 -48 0 -48 -6z"/>
<path d="M2330 566 c0 -14 4 -27 8 -30 5 -3 6 8 4 25 -5 35 -12 38 -12 5z"/>
<path d="M2750 586 c0 -2 7 -6 15 -10 8 -3 15 -1 15 4 0 6 -7 10 -15 10 -8 0
-15 -2 -15 -4z"/>
<path d="M380 570 c0 -5 5 -10 10 -10 6 0 10 5 10 10 0 6 -4 10 -10 10 -5 0
-10 -4 -10 -10z"/>
<path d="M583 560 c-4 -15 -14 -20 -38 -20 -24 0 -35 -5 -38 -17 -4 -17 -5
-17 -6 0 -1 14 -12 17 -78 18 -43 1 -97 2 -121 4 -25 1 -47 -4 -53 -12 -14
-16 -29 -17 -29 -2 0 5 4 8 9 4 5 -3 12 -1 16 5 3 5 -3 10 -14 10 -16 0 -20
-6 -19 -24 2 -20 7 -23 43 -22 31 1 42 6 47 21 6 19 6 19 7 -2 1 -19 6 -21 43
-20 23 1 43 8 46 15 5 16 23 16 20 0 -3 -12 9 -15 85 -17 25 -1 27 -3 16 -22
-9 -17 -13 -19 -20 -8 -6 9 -9 10 -9 2 0 -29 21 -21 45 17 14 22 28 40 31 40
4 0 1 -6 -5 -14 -9 -11 -7 -15 9 -19 11 -3 20 0 21 6 1 7 3 27 5 45 4 35 -5
44 -13 12z"/>
<path d="M652 560 c0 -14 2 -19 5 -12 2 6 2 18 0 25 -3 6 -5 1 -5 -13z"/>
<path d="M1690 569 c0 -6 9 -9 20 -6 12 3 34 2 50 -3 23 -7 30 -5 30 6 0 10
-13 14 -50 14 -30 0 -50 -4 -50 -11z"/>
<path d="M1830 570 c0 -5 17 -10 38 -10 21 0 44 -6 51 -12 11 -11 13 -10 7 5
-3 10 -6 21 -6 23 0 2 -20 4 -45 4 -25 0 -45 -4 -45 -10z"/>
<path d="M702 550 c0 -14 2 -19 5 -12 2 6 2 18 0 25 -3 6 -5 1 -5 -13z"/>
<path d="M1955 559 c-4 -6 -4 -13 -1 -16 3 -4 6 -1 6 5 0 15 76 16 85 2 10
-16 25 -12 19 5 -7 18 -99 21 -109 4z"/>
<path d="M2096 561 c16 -15 94 -18 94 -4 0 9 -16 13 -52 13 -31 0 -48 -4 -42
-9z"/>
<path d="M2217 558 c-3 -9 9 -13 44 -13 33 0 49 4 49 13 0 8 -15 12 -44 12
-26 0 -46 -5 -49 -12z"/>
<path d="M621 544 c0 -11 3 -14 6 -6 3 7 2 16 -1 19 -3 4 -6 -2 -5 -13z"/>
<path d="M682 535 c0 -16 2 -22 5 -12 2 9 2 23 0 30 -3 6 -5 -1 -5 -18z"/>
<path d="M1097 553 c-10 -10 -8 -23 4 -23 5 0 8 4 5 9 -3 5 10 9 30 9 19 0 38
3 41 6 4 3 -12 6 -34 6 -22 0 -43 -3 -46 -7z"/>
<path d="M1270 549 c0 -5 5 -7 10 -4 6 3 10 8 10 11 0 2 -4 4 -10 4 -5 0 -10
-5 -10 -11z"/>
<path d="M100 540 c6 -4 10 -12 8 -17 -3 -12 0 -13 37 -13 14 0 28 7 32 15 9
25 -5 30 -29 9 -17 -14 -19 -14 -10 -2 12 15 10 17 -18 16 -17 -1 -26 -4 -20
-8z"/>
<path d="M180 517 c-9 -20 -22 -32 -35 -32 -11 0 -20 -7 -20 -15 0 -8 -8 -16
-18 -18 -16 -3 -17 -1 -8 17 6 11 7 22 2 25 -5 3 -12 -5 -15 -19 -4 -14 -12
-25 -18 -25 -9 0 -9 3 0 12 7 7 12 19 12 28 0 8 -9 1 -19 -17 -16 -24 -25 -30
-43 -26 -18 4 -20 3 -8 -6 10 -7 11 -11 3 -11 -7 0 -13 -6 -13 -14 0 -7 10
-13 23 -12 15 1 23 8 25 24 3 19 6 21 18 11 8 -6 14 -17 14 -23 0 -6 -5 -4
-11 4 -9 13 -10 13 -7 0 1 -8 -4 -26 -11 -40 -8 -13 -16 -37 -17 -52 -3 -22 0
-26 19 -25 12 0 25 6 29 12 5 6 8 6 8 -2 0 -8 14 -13 35 -13 30 0 35 3 35 23
-1 22 -1 22 -17 2 -13 -16 -15 -17 -10 -2 4 10 1 17 -7 17 -7 0 -19 6 -25 13
-19 23 24 52 69 48 10 -1 5 -10 -15 -26 -16 -14 -24 -25 -17 -25 7 0 23 11 36
25 18 19 33 25 65 25 36 0 41 3 41 23 0 16 -3 18 -9 9 -7 -11 -9 -11 -14 1 -9
23 -65 10 -70 -17 -4 -21 -4 -20 -6 2 -1 26 -17 28 -45 5 -19 -16 -19 -16 -7
-1 7 9 10 22 7 27 -4 5 -1 13 5 17 6 3 14 1 18 -5 5 -8 13 -5 26 9 12 13 14
20 5 20 -10 0 -10 3 0 15 6 8 10 21 8 29 -2 8 -9 2 -18 -17z m-69 -86 c-8 -5
-10 -14 -6 -22 5 -8 -2 -21 -21 -36 -17 -14 -21 -21 -10 -17 13 5 17 3 14 -6
-2 -7 -11 -14 -20 -16 -20 -3 -17 44 4 60 8 6 17 19 21 29 3 9 12 17 19 17 10
0 10 -2 -1 -9z"/>
<path d="M1458 543 c12 -2 22 -9 22 -14 0 -5 4 -9 10 -9 5 0 7 7 4 15 -4 9
-17 14 -33 14 -23 -2 -24 -2 -3 -6z"/>
<path d="M2853 534 c-4 -11 1 -22 12 -30 18 -13 18 -14 -2 -14 -12 0 -24 -4
-28 -9 -3 -6 6 -6 25 -1 16 5 30 5 30 0 0 -4 8 -7 18 -5 9 2 23 4 31 4 25 2 1
15 -27 16 -15 0 -28 6 -28 13 -1 6 -2 19 -3 27 -1 20 -20 19 -28 -1z m21 -10
c3 -8 2 -12 -4 -9 -6 3 -10 10 -10 16 0 14 7 11 14 -7z"/>
<path d="M1560 531 c0 -6 4 -13 10 -16 6 -3 7 1 4 9 -7 18 -14 21 -14 7z"/>
<path d="M2058 505 c2 -14 6 -25 8 -25 2 0 4 11 4 25 0 14 -4 25 -9 25 -4 0
-6 -11 -3 -25z"/>
<path d="M2506 503 c9 -38 10 -38 60 -38 33 0 43 3 39 13 -3 8 -5 22 -5 33 0
16 -7 19 -37 17 l-38 -1 33 -4 c25 -3 32 -8 28 -20 -3 -8 -6 -17 -6 -19 0 -11
-30 -2 -31 9 0 6 -4 3 -8 -8 -7 -17 -9 -16 -15 13 -4 17 -12 32 -17 32 -5 0
-6 -12 -3 -27z"/>
<path d="M2610 516 c0 -24 12 -46 21 -40 5 3 5 13 -1 23 -5 10 -6 21 -3 25 3
3 1 6 -5 6 -7 0 -12 -6 -12 -14z"/>
<path d="M2678 505 c2 -14 8 -25 12 -25 5 0 11 -8 13 -17 4 -17 5 -17 6 0 0 9
5 17 10 17 13 0 21 39 9 47 -6 3 -8 2 -5 -4 4 -6 0 -19 -8 -29 -13 -18 -14
-18 -20 9 -9 34 -24 36 -17 2z"/>
<path d="M2950 525 c0 -5 5 -17 10 -25 5 -8 10 -10 10 -5 0 6 -5 17 -10 25 -5
8 -10 11 -10 5z"/>
<path d="M2970 521 c0 -6 5 -13 10 -16 6 -3 10 1 10 9 0 9 -4 16 -10 16 -5 0
-10 -4 -10 -9z"/>
<path d="M942 500 c0 -14 2 -19 5 -12 2 6 2 18 0 25 -3 6 -5 1 -5 -13z"/>
<path d="M2330 509 c0 -5 5 -7 10 -4 6 3 10 8 10 11 0 2 -4 4 -10 4 -5 0 -10
-5 -10 -11z"/>
<path d="M30 485 c0 -8 4 -15 10 -15 5 0 7 7 4 15 -4 8 -8 15 -10 15 -2 0 -4
-7 -4 -15z"/>
<path d="M690 489 c0 -5 4 -8 9 -4 5 3 12 -5 14 -17 4 -20 4 -19 6 5 1 18 -4
27 -14 27 -8 0 -15 -5 -15 -11z"/>
<path d="M1061 484 c0 -11 3 -14 6 -6 3 7 2 16 -1 19 -3 4 -6 -2 -5 -13z"/>
<path d="M2300 490 c0 -5 5 -10 11 -10 5 0 7 5 4 10 -3 6 -8 10 -11 10 -2 0
-4 -4 -4 -10z"/>
<path d="M269 473 c-13 -15 -12 -15 9 -4 23 12 28 21 13 21 -5 0 -15 -7 -22
-17z"/>
<path d="M330 480 c0 -5 5 -10 11 -10 5 0 7 5 4 10 -3 6 -8 10 -11 10 -2 0 -4
-4 -4 -10z"/>
<path d="M390 476 c0 -24 17 -28 23 -6 3 13 0 20 -9 20 -8 0 -14 -6 -14 -14z"/>
<path d="M426 473 c-6 -14 -5 -15 5 -6 7 7 10 15 7 18 -3 3 -9 -2 -12 -12z"/>
<path d="M647 483 c-4 -3 -21 -6 -37 -5 -17 0 -30 -4 -28 -9 4 -13 4 -13 51
-4 20 4 40 11 43 16 6 10 -19 12 -29 2z"/>
<path d="M2733 473 c-7 -2 -13 -11 -13 -19 0 -10 -8 -14 -22 -12 -11 2 -23 -3
-26 -11 -3 -10 1 -12 15 -9 16 4 19 1 16 -13 -4 -13 0 -19 10 -19 8 0 18 -6
20 -12 4 -10 6 -10 6 0 1 7 -4 22 -9 33 -18 33 5 62 46 57 19 -2 34 0 34 4 0
9 -57 10 -77 1z"/>
<path d="M2980 473 c5 -2 10 -9 10 -14 0 -6 -5 -7 -11 -3 -8 4 -9 -1 -4 -17
14 -47 21 -49 20 -7 -1 24 -6 43 -13 44 -7 1 -8 0 -2 -3z"/>
<path d="M228 463 c7 -3 16 -2 19 1 4 3 -2 6 -13 5 -11 0 -14 -3 -6 -6z"/>
<path d="M2640 459 c0 -5 -4 -7 -10 -4 -6 3 -7 -1 -4 -9 3 -9 10 -13 15 -10 8
5 14 -27 10 -50 -1 -5 4 -4 12 2 8 7 18 8 22 4 5 -4 5 -1 1 6 -4 7 -12 10 -17
7 -5 -4 -9 0 -9 9 0 8 -3 22 -7 32 -4 10 -2 15 3 11 6 -3 16 -2 24 4 11 6 8 9
-12 9 -16 0 -28 -5 -28 -11z"/>
<path d="M2925 460 c-3 -5 1 -10 10 -10 9 0 13 5 10 10 -3 6 -8 10 -10 10 -2
0 -7 -4 -10 -10z"/>
<path d="M672 440 c0 -14 2 -19 5 -12 2 6 2 18 0 25 -3 6 -5 1 -5 -13z"/>
<path d="M692 440 c0 -14 4 -36 8 -50 6 -20 8 -21 8 -5 0 11 -4 34 -8 50 -7
27 -8 27 -8 5z"/>
<path d="M2881 451 c-8 -5 -11 -17 -6 -30 7 -24 35 -29 35 -6 0 8 -8 15 -17
15 -15 0 -16 2 -3 10 8 5 12 11 9 14 -2 3 -11 1 -18 -3z"/>
<path d="M340 440 c-32 -3 -46 -10 -48 -22 -2 -14 4 -18 33 -18 26 0 35 4 36
18 0 14 2 14 9 -3 7 -16 9 -17 9 -3 2 33 17 26 18 -8 1 -18 -3 -31 -8 -28 -5
3 -9 0 -9 -6 0 -7 6 -10 14 -7 8 3 20 -1 27 -9 7 -8 8 -14 3 -13 -27 5 -44 -3
-44 -21 0 -25 9 -25 26 -3 7 10 15 15 18 12 3 -3 -7 -22 -21 -43 -22 -30 -25
-41 -16 -55 11 -17 7 -70 -6 -72 -3 0 -46 -2 -96 -4 -50 -2 -101 -6 -115 -9
-14 -2 -32 -5 -41 -5 -17 -1 -68 -41 -53 -41 6 0 15 5 22 12 9 9 12 9 12 -2 0
-12 2 -12 9 -2 4 7 27 15 51 17 24 3 47 10 52 17 4 7 8 8 8 3 0 -6 35 -11 81
-13 55 -2 79 0 74 7 -3 6 2 11 14 11 10 0 22 -6 24 -12 4 -10 8 -9 16 2 8 11
7 16 -6 19 -13 2 -13 5 -2 12 11 6 8 9 -8 9 -27 0 -30 15 -7 24 10 4 26 -1 38
-11 19 -17 20 -17 7 0 -11 14 -11 17 0 18 8 0 27 2 42 3 24 1 28 -1 25 -24 -2
-17 -8 -24 -20 -22 -10 2 -18 -2 -18 -8 0 -6 5 -8 10 -5 6 3 10 -2 11 -12 0
-10 3 -13 6 -5 2 6 9 12 14 12 6 0 8 -4 5 -9 -10 -15 22 -21 114 -21 69 0 89
3 94 15 4 12 -6 15 -59 15 -35 0 -66 -4 -69 -9 -3 -5 -20 -6 -38 -2 -39 8 -49
36 -20 57 11 7 20 25 20 40 0 22 -2 24 -10 10 -8 -15 -13 -13 -39 15 -16 17
-29 33 -29 35 0 2 16 4 35 4 28 0 35 4 35 20 0 17 -7 20 -45 20 l-45 0 2 -40
c1 -22 4 -38 6 -35 7 6 32 -15 32 -27 0 -5 -9 -4 -19 2 -14 7 -22 7 -27 -2 -5
-7 -3 -8 7 -3 8 5 11 4 7 0 -15 -16 -58 -15 -58 1 0 9 5 12 11 8 6 -3 15 0 20
7 12 20 11 26 -7 33 -8 3 -12 2 -9 -4 3 -6 0 -10 -8 -10 -8 0 -18 -10 -22 -22
-3 -13 -8 -18 -11 -12 -3 6 0 23 5 37 8 20 18 27 36 27 19 0 25 5 24 23 0 20
-1 21 -8 3 -7 -19 -8 -18 -14 4 -3 13 -3 27 1 30 13 9 45 63 33 56 -6 -4 -15
1 -19 11 -8 19 -41 23 -122 13z m-3 -16 c-3 -3 -12 -4 -19 -1 -8 3 -5 6 6 6
11 1 17 -2 13 -5z m125 -18 c5 4 2 -5 -7 -20 -21 -31 -31 -33 -38 -6 -3 13 0
20 9 20 8 0 15 8 15 18 1 16 2 16 6 -1 2 -9 9 -14 15 -11z m98 -196 c0 -5 -5
-10 -11 -10 -5 0 -7 5 -4 10 3 6 8 10 11 10 2 0 4 -4 4 -10z"/>
<path d="M569 428 c-1 -17 -2 -19 -6 -5 -3 13 -15 17 -49 17 -24 0 -44 -4 -44
-10 0 -5 6 -9 13 -7 6 1 11 -4 10 -10 -2 -9 11 -13 42 -13 41 0 45 2 45 25 0
31 -10 33 -11 3z"/>
<path d="M622 430 c0 -14 2 -19 5 -12 2 6 2 18 0 25 -3 6 -5 1 -5 -13z"/>
<path d="M2525 420 c8 -40 20 -57 29 -41 4 6 22 11 41 11 29 0 32 3 27 23 -3
12 -10 25 -16 29 -16 11 -66 10 -66 -2 0 -5 13 -10 29 -10 17 0 33 -4 36 -10
4 -6 -6 -10 -24 -10 -20 0 -31 -6 -34 -17 -3 -12 -5 -10 -6 7 -1 14 -6 32 -12
40 -7 11 -8 6 -4 -20z"/>
<path d="M2780 436 c0 -25 12 -46 26 -46 20 0 17 17 -3 29 -16 9 -16 12 -3 21
13 8 13 10 -2 10 -10 0 -18 -6 -18 -14z"/>
<path d="M651 419 c0 -13 4 -33 9 -44 7 -14 8 -8 3 20 -7 46 -13 59 -12 24z"/>
<path d="M1113 390 c0 -30 2 -43 4 -27 2 15 2 39 0 55 -2 15 -4 2 -4 -28z"/>
<path d="M931 414 c0 -11 3 -14 6 -6 3 7 2 16 -1 19 -3 4 -6 -2 -5 -13z"/>
<path d="M2277 360 c2 -36 8 -69 12 -73 5 -5 5 13 0 40 -4 26 -10 59 -12 73
-3 14 -3 -4 0 -40z"/>
<path d="M1138 413 c6 -2 18 -2 25 0 6 3 1 5 -13 5 -14 0 -19 -2 -12 -5z"/>
<path d="M2006 370 c18 -171 23 -195 17 -85 -3 61 -9 117 -14 125 -5 9 -7 -6
-3 -40z"/>
<path d="M2300 405 c0 -8 4 -15 10 -15 5 0 7 7 4 15 -4 8 -8 15 -10 15 -2 0
-4 -7 -4 -15z"/>
<path d="M2351 404 c0 -11 3 -14 6 -6 3 7 2 16 -1 19 -3 4 -6 -2 -5 -13z"/>
<path d="M1500 285 l0 -125 157 0 c86 0 153 3 149 7 -4 5 -11 8 -14 9 -4 0
-14 4 -22 7 -30 13 -70 15 -76 5 -4 -6 -10 -5 -15 3 -6 10 -9 11 -9 2 0 -9
-20 -13 -70 -12 -40 1 -70 6 -70 11 0 6 9 8 20 5 17 -4 20 0 20 30 0 20 -4 32
-10 28 -6 -3 -19 -3 -31 0 -16 5 -18 9 -8 21 7 8 20 12 30 9 16 -5 19 -1 19
24 0 24 -5 30 -25 33 -33 4 -32 21 2 32 17 6 33 5 46 -3 10 -7 22 -10 25 -7 3
3 -1 6 -8 6 -11 0 -11 3 -3 11 9 9 23 9 55 0 24 -6 69 -10 101 -8 64 4 62 6
71 -65 l6 -48 -50 0 c-27 0 -51 -3 -53 -7 -3 -5 11 -7 31 -7 100 4 92 1 81 30
-5 15 -9 44 -7 65 2 36 4 39 30 39 20 0 31 -7 38 -22 7 -18 9 -19 9 -5 2 31
21 18 22 -15 0 -18 2 -43 5 -55 2 -14 -2 -23 -14 -26 -16 -4 -16 -5 1 -6 20
-1 23 -31 3 -31 -8 0 -18 -4 -21 -10 -4 -6 3 -9 16 -7 12 1 24 -4 26 -10 5
-13 -24 -17 -93 -13 -18 1 -35 -3 -38 -9 -4 -6 24 -11 74 -13 l81 -3 -5 25
c-9 46 -19 165 -17 185 2 11 7 22 12 23 5 2 9 8 9 13 0 5 -101 9 -240 9 l-240
0 0 -125z"/>
<path d="M2074 355 c3 -27 9 -83 12 -122 l7 -73 79 2 78 1 -6 51 c-8 60 -7 59
-31 52 -15 -5 -18 -14 -15 -46 2 -22 0 -40 -6 -40 -12 0 -22 24 -22 56 0 21
-5 24 -37 25 -37 1 -37 2 -8 8 17 4 29 12 28 19 -2 7 2 12 9 12 6 0 9 3 6 6
-3 3 -15 0 -27 -7 -26 -17 -35 -7 -34 37 1 37 13 58 20 37 3 -10 9 -10 23 -1
25 16 34 6 32 -36 -1 -18 5 -42 13 -52 13 -16 14 -17 9 -1 -7 19 11 24 20 5 4
-7 4 11 2 40 -3 28 -1 52 3 52 10 0 17 -43 27 -147 4 -40 11 -73 17 -73 6 0 7
17 3 43 -4 23 -11 75 -17 116 -5 41 -11 76 -13 78 -2 2 -43 5 -91 6 l-87 2 6
-50z m136 -7 c0 -19 -2 -20 -10 -8 -13 19 -13 30 0 30 6 0 10 -10 10 -22z
m-64 -120 c-4 6 -2 12 3 12 6 0 11 -14 11 -32 0 -17 -3 -28 -7 -25 -3 4 -12 2
-20 -4 -10 -9 -13 -5 -13 22 0 26 -3 30 -10 19 -11 -17 -13 -9 -4 15 6 14 8
14 27 -2 11 -10 17 -12 13 -5z"/>
<path d="M1434 295 c0 -60 1 -84 3 -52 2 32 2 81 0 110 -2 29 -3 3 -3 -58z"/>
<path d="M2947 382 c-10 -11 -26 -18 -36 -15 -14 3 -20 -2 -24 -24 -6 -33 5
-43 50 -43 28 0 34 -5 43 -32 l10 -33 -5 33 c-2 17 0 32 5 32 6 0 10 5 10 11
0 6 -19 9 -50 8 -27 -2 -53 0 -56 4 -8 8 1 10 89 16 20 1 23 31 3 31 -8 0 -16
7 -18 16 -3 14 -6 13 -21 -4z m33 -22 c12 -8 9 -10 -12 -10 -16 0 -28 5 -28
10 0 13 20 13 40 0z"/>
<path d="M601 374 c0 -11 3 -14 6 -6 3 7 2 16 -1 19 -3 4 -6 -2 -5 -13z"/>
<path d="M631 374 c0 -11 3 -14 6 -6 3 7 2 16 -1 19 -3 4 -6 -2 -5 -13z"/>
<path d="M927 371 c-4 -17 -3 -21 5 -13 5 5 8 16 6 23 -3 8 -7 3 -11 -10z"/>
<path d="M2750 379 c0 -5 5 -7 10 -4 6 3 10 8 10 11 0 2 -4 4 -10 4 -5 0 -10
-5 -10 -11z"/>
<path d="M519 363 c-13 -16 -12 -17 4 -4 9 7 17 15 17 17 0 8 -8 3 -21 -13z"/>
<path d="M566 363 c-6 -14 -5 -15 5 -6 7 7 10 15 7 18 -3 3 -9 -2 -12 -12z"/>
<path d="M683 366 c4 -10 7 -21 7 -25 0 -4 7 -8 15 -8 20 0 19 3 -7 29 -17 17
-20 18 -15 4z"/>
<path d="M1987 275 c5 -102 8 -125 16 -114 2 2 -2 54 -9 114 l-13 110 6 -110z"/>
<path d="M2614 372 c5 -9 -6 -12 -37 -12 l-43 0 20 -95 19 -95 131 -1 c72 -1
168 -3 214 -5 49 -2 82 0 82 6 0 6 -36 11 -82 11 -112 2 -121 3 -135 12 -8 5
-13 4 -13 -3 0 -7 -15 -10 -37 -8 -36 3 -37 5 -48 52 -6 29 -16 51 -25 53 -10
3 -11 2 -4 -4 6 -4 11 -25 11 -45 0 -37 -1 -38 -37 -38 -33 0 -37 3 -37 24 0
18 5 24 18 23 11 -1 19 -5 19 -9 0 -4 5 -8 10 -8 6 0 10 9 10 21 0 15 -5 19
-17 15 -22 -7 -55 13 -35 21 22 9 13 24 -12 19 -15 -3 -27 1 -30 10 -3 8 -2
14 2 15 4 0 17 2 30 5 12 2 22 -1 22 -7 0 -5 5 -7 10 -4 14 8 13 42 -2 51 -7
4 -8 3 -4 -4z m-34 -92 c0 -5 -5 -10 -11 -10 -5 0 -7 5 -4 10 3 6 8 10 11 10
2 0 4 -4 4 -10z"/>
<path d="M2650 355 c-8 -10 -9 -15 -2 -15 6 0 9 -7 5 -16 -5 -13 -8 -13 -15
-2 -8 10 -9 10 -5 -2 2 -8 12 -17 22 -19 15 -2 17 2 12 28 -5 25 -3 31 11 31
10 0 23 -5 29 -11 6 -6 17 -8 25 -3 9 6 6 10 -12 15 -40 11 -57 10 -70 -6z"/>
<path d="M2763 355 c-9 -24 1 -27 15 -5 8 13 8 20 2 20 -6 0 -13 -7 -17 -15z"/>
<path d="M2804 344 c3 -9 6 -20 6 -25 0 -5 7 -9 15 -9 20 0 19 19 -1 27 -13 5
-13 7 -2 14 10 7 8 9 -6 9 -12 0 -16 -5 -12 -16z"/>
<path d="M633 340 c-60 -9 -66 -21 -7 -14 47 5 62 10 53 17 -2 2 -23 0 -46 -3z"/>
<path d="M1760 339 c0 -5 5 -7 10 -4 16 10 11 -17 -5 -29 -13 -9 -11 -11 10
-12 21 -2 25 2 25 27 0 22 -5 29 -20 29 -11 0 -20 -5 -20 -11z"/>
<path d="M3 318 c-2 -18 0 -20 7 -8 12 18 13 30 2 30 -4 0 -9 -10 -9 -22z"/>
<path d="M170 320 c0 -16 7 -20 35 -20 26 0 35 4 36 18 0 15 1 15 8 -2 7 -18
8 -18 14 -2 4 10 7 20 7 22 0 2 -22 4 -50 4 -43 0 -50 -3 -50 -20z"/>
<path d="M276 324 c-3 -9 -6 -18 -6 -20 0 -2 23 -4 50 -4 43 0 50 3 50 20 0
17 -7 20 -44 20 -31 0 -46 -5 -50 -16z"/>
<path d="M1703 333 c9 -2 23 -2 30 0 6 3 -1 5 -18 5 -16 0 -22 -2 -12 -5z"/>
<path d="M2733 333 c-22 -8 -14 -33 10 -32 12 0 17 3 10 5 -7 3 -9 12 -6 20 5
15 5 15 -14 7z"/>
<path d="M690 290 c-2 -33 -3 -33 -10 -10 -10 30 -12 5 -3 -28 4 -18 8 -20 14
-10 6 9 9 2 9 -20 0 -29 3 -32 29 -30 19 1 27 7 24 15 -3 7 -8 11 -12 9 -16
-10 -30 12 -39 59 -9 47 -10 48 -12 15z"/>
<path d="M712 295 c0 -16 2 -22 5 -12 2 9 2 23 0 30 -3 6 -5 -1 -5 -18z"/>
<path d="M41 283 c-10 -11 -16 -13 -19 -5 -2 7 -8 10 -13 6 -14 -8 0 -24 22
-24 11 0 18 -4 15 -9 -3 -4 7 -7 22 -7 15 1 33 -3 40 -8 7 -5 12 -4 12 2 0 7
10 7 30 -1 17 -6 30 -14 30 -18 0 -3 32 -10 70 -13 51 -5 70 -11 70 -22 0 -19
14 -18 33 4 13 15 13 19 0 31 -12 11 -14 11 -11 0 1 -8 -2 -14 -7 -14 -5 0 -9
6 -7 12 2 10 -15 12 -63 11 -48 -2 -69 2 -75 12 -5 8 -6 18 -4 22 3 4 0 8 -5
8 -6 0 -11 -4 -11 -10 0 -6 -9 -6 -22 -1 -13 5 -22 14 -20 21 1 6 -2 9 -8 5
-6 -3 -8 -10 -5 -15 6 -10 -42 -23 -56 -14 -5 3 -7 14 -4 25 8 23 5 23 -14 2z
m272 -70 c-7 -2 -21 -2 -30 0 -10 3 -4 5 12 5 17 0 24 -2 18 -5z"/>
<path d="M76 285 c-3 -9 0 -15 9 -15 16 0 20 16 6 24 -5 3 -11 -1 -15 -9z"/>
<path d="M626 266 c4 -16 2 -26 -4 -26 -6 0 -12 10 -14 23 -3 20 -4 20 -9 -5
-5 -24 -3 -28 17 -28 19 0 24 5 24 24 0 14 -5 28 -10 31 -7 4 -9 -2 -4 -19z"/>
<path d="M650 260 c0 -16 4 -30 8 -30 5 0 7 14 4 30 -2 17 -6 30 -8 30 -2 0
-4 -13 -4 -30z"/>
<path d="M2718 260 c12 -11 22 -27 22 -35 0 -9 9 -15 23 -15 l22 1 -22 18
c-13 11 -23 22 -23 26 0 4 7 2 15 -5 18 -15 27 -10 17 7 -4 7 -23 15 -42 18
l-35 6 23 -21z"/>
<path d="M2292 240 c0 -19 4 -46 8 -60 6 -20 8 -21 8 -5 1 11 -3 38 -7 60 l-9
40 0 -35z"/>
<path d="M2310 259 c0 -5 5 -7 10 -4 6 3 10 8 10 11 0 2 -4 4 -10 4 -5 0 -10
-5 -10 -11z"/>
<path d="M2824 248 c3 -13 6 -26 6 -30 0 -5 9 -8 20 -8 13 0 18 5 14 15 -4 8
-12 15 -20 15 -17 0 -18 17 -1 23 7 3 4 6 -7 6 -14 1 -17 -4 -12 -21z"/>
<path d="M2918 240 c3 -21 10 -30 23 -30 23 0 24 13 4 33 -11 12 -12 17 -2 20
6 3 3 6 -9 6 -17 1 -20 -4 -16 -29z"/>
<path d="M318 253 c7 -3 16 -2 19 1 4 3 -2 6 -13 5 -11 0 -14 -3 -6 -6z"/>
<path d="M1102 240 c0 -14 2 -19 5 -12 2 6 2 18 0 25 -3 6 -5 1 -5 -13z"/>
<path d="M1700 239 c0 -5 5 -7 10 -4 6 3 10 8 10 11 0 2 -4 4 -10 4 -5 0 -10
-5 -10 -11z"/>
<path d="M20 220 c-12 -7 -12 -10 -1 -10 8 0 11 -6 7 -16 -3 -8 -2 -12 4 -9
17 10 62 -7 56 -21 -3 -8 -1 -14 3 -14 5 0 11 7 15 15 3 10 -3 17 -19 21 -14
3 -25 10 -25 15 0 5 -7 9 -16 9 -8 0 -12 5 -9 10 8 12 4 12 -15 0z"/>
<path d="M70 216 c0 -2 9 -6 20 -9 11 -3 18 -1 14 4 -5 9 -34 13 -34 5z"/>
<path d="M141 211 c-9 -6 -11 -15 -6 -27 8 -17 9 -17 12 4 3 12 9 20 14 17 5
-4 9 -1 9 4 0 13 -10 14 -29 2z"/>
<path d="M615 186 c-19 -20 -24 -31 -16 -39 8 -8 11 -7 11 2 0 7 9 24 20 38
11 14 20 21 20 14 0 -6 9 -11 20 -11 11 0 20 6 20 14 0 24 -47 13 -75 -18z"/>
<path d="M1000 201 c-13 -26 -13 -31 4 -31 7 0 16 11 18 25 6 30 -7 33 -22 6z"/>
<path d="M1840 210 c0 -11 21 -18 43 -12 27 7 20 17 -13 19 -17 1 -30 -2 -30
-7z"/>
<path d="M1784 198 c-5 -8 -2 -9 9 -5 10 3 17 2 17 -3 0 -6 5 -10 10 -10 6 0
10 7 10 15 0 18 -36 20 -46 3z"/>
<path d="M708 173 c7 -3 16 -2 19 1 4 3 -2 6 -13 5 -11 0 -14 -3 -6 -6z"/>
<path d="M1390 145 c0 -19 2 -35 4 -35 2 0 6 16 8 35 2 19 0 35 -4 35 -4 0 -8
-16 -8 -35z"/>
<path d="M1427 165 c-4 -8 -2 -17 3 -20 6 -4 10 3 10 14 0 25 -6 27 -13 6z"/>
<path d="M453 156 c0 -8 9 -17 18 -19 16 -4 17 -2 8 14 -12 22 -26 25 -26 5z"/>
<path d="M16 141 c-4 -6 -2 -11 3 -11 6 0 11 -4 11 -10 0 -5 -8 -7 -18 -4 -14
5 -14 3 2 -7 19 -12 19 -12 1 -25 -16 -12 -7 -14 73 -14 51 0 92 3 92 8 0 4
-33 6 -74 4 -71 -3 -74 -3 -69 17 3 12 14 21 25 21 10 0 17 4 13 10 -3 5 -13
6 -21 3 -9 -3 -20 0 -24 7 -5 8 -9 9 -14 1z"/>
<path d="M2527 144 c-1 -1 -162 -5 -357 -9 -330 -6 -455 -9 -668 -19 -60 -2
-88 -8 -100 -20 -15 -15 -12 -16 35 -16 32 0 53 5 55 12 4 10 13 10 41 1 20
-6 35 -7 31 -2 -6 10 -6 10 136 14 58 2 164 6 235 10 107 5 460 8 460 5 0 -1
8 -3 18 -5 9 -2 17 1 17 6 0 5 8 9 18 9 14 0 14 -2 3 -9 -10 -6 -1 -9 27 -8
23 1 42 4 42 7 0 3 41 5 90 6 50 0 90 -4 90 -9 0 -5 7 -4 16 4 12 10 20 10 34
1 14 -9 18 -8 16 4 -2 12 -25 15 -120 17 -65 1 -118 1 -119 1z m-1054 -51 c-7
-2 -19 -2 -25 0 -7 3 -2 5 12 5 14 0 19 -2 13 -5z"/>
<path d="M2788 143 c7 -3 16 -2 19 1 4 3 -2 6 -13 5 -11 0 -14 -3 -6 -6z"/>
<path d="M2824 141 c3 -5 15 -7 25 -4 10 3 22 0 25 -6 4 -6 13 -11 19 -11 7 0
6 4 -3 10 -10 6 3 9 43 9 32 -1 61 2 64 5 4 3 -35 6 -86 6 -53 0 -90 -4 -87
-9z"/>
<path d="M454 120 c-5 -5 -26 -10 -46 -12 -43 -2 -41 -18 3 -18 28 0 68 25 57
35 -2 3 -9 0 -14 -5z"/>
<path d="M2798 118 c5 -5 16 -8 23 -6 8 3 3 7 -10 11 -17 4 -21 3 -13 -5z"/>
<path d="M258 113 c7 -3 16 -2 19 1 4 3 -2 6 -13 5 -11 0 -14 -3 -6 -6z"/>
<path d="M485 110 c3 -5 0 -10 -7 -13 -7 -2 -4 -2 7 0 11 3 26 5 33 5 23 2 12
16 -13 16 -13 0 -22 -4 -20 -8z"/>
<path d="M2950 110 c-8 -5 -10 -10 -5 -10 6 0 17 5 25 10 8 5 11 10 5 10 -5 0
-17 -5 -25 -10z"/>
<path d="M2105 100 c3 -5 8 -10 11 -10 2 0 4 5 4 10 0 6 -5 10 -11 10 -5 0 -7
-4 -4 -10z"/>
<path d="M745 88 c-44 -3 -183 -9 -309 -13 -185 -6 -227 -5 -221 5 5 9 4 11
-3 6 -35 -22 6 -26 243 -26 197 0 255 3 255 13 0 8 4 7 11 -3 8 -11 12 -12 16
-2 3 8 36 12 111 13 59 1 121 5 137 9 35 10 -115 9 -240 -2z"/>
<path d="M1963 93 c9 -2 23 -2 30 0 6 3 -1 5 -18 5 -16 0 -22 -2 -12 -5z"/>
<path d="M2420 90 c-8 -5 -10 -10 -5 -10 6 0 17 5 25 10 8 5 11 10 5 10 -5 0
-17 -5 -25 -10z"/>
<path d="M268 83 c7 -3 16 -2 19 1 4 3 -2 6 -13 5 -11 0 -14 -3 -6 -6z"/>
<path d="M338 83 c6 -2 18 -2 25 0 6 3 1 5 -13 5 -14 0 -19 -2 -12 -5z"/>
<path d="M1115 80 c-4 -6 -15 -8 -26 -5 -11 4 -19 2 -19 -6 0 -8 10 -9 32 -5
36 7 62 26 36 26 -9 0 -20 -5 -23 -10z"/>
<path d="M1317 75 c-5 -11 0 -14 16 -13 12 1 54 -2 92 -6 39 -5 67 -5 64 -2
-4 4 -26 9 -50 12 -24 3 -53 7 -64 10 -11 3 -27 8 -36 10 -9 3 -19 -2 -22 -11z"/>
<path d="M1507 79 c7 -7 15 -10 18 -7 3 3 -2 9 -12 12 -14 6 -15 5 -6 -5z"/>
<path d="M1670 73 c0 -7 9 -13 20 -13 11 0 20 5 20 10 0 7 6 8 16 2 18 -10 64
-4 64 8 0 4 -27 7 -60 6 -41 -1 -60 -5 -60 -13z"/>
<path d="M2668 83 c7 -3 16 -2 19 1 4 3 -2 6 -13 5 -11 0 -14 -3 -6 -6z"/>
<path d="M2713 83 c9 -2 23 -2 30 0 6 3 -1 5 -18 5 -16 0 -22 -2 -12 -5z"/>
<path d="M2760 78 c0 -22 1 -22 36 -3 27 14 27 15 7 15 -13 0 -23 -6 -23 -12
0 -9 -4 -8 -10 2 -8 13 -10 12 -10 -2z"/>
<path d="M1630 70 c-9 -6 -10 -10 -3 -10 6 0 15 5 18 10 8 12 4 12 -15 0z"/>
<path d="M2128 73 c6 -2 18 -2 25 0 6 3 1 5 -13 5 -14 0 -19 -2 -12 -5z"/>
<path d="M2178 73 c7 -3 16 -2 19 1 4 3 -2 6 -13 5 -11 0 -14 -3 -6 -6z"/>
<path d="M2540 65 c0 -8 4 -15 8 -15 5 0 9 7 9 15 0 8 -4 15 -9 15 -4 0 -8 -7
-8 -15z"/>
<path d="M2870 70 c-20 -6 -17 -7 19 -8 28 0 39 3 30 9 -16 10 -15 10 -49 -1z"/>
<path d="M2978 73 c7 -3 16 -2 19 1 4 3 -2 6 -13 5 -11 0 -14 -3 -6 -6z"/>
<path d="M1010 56 c4 -4 16 -4 26 2 16 9 14 10 -8 9 -15 -1 -23 -6 -18 -11z"/>
<path d="M1183 63 c9 -2 23 -2 30 0 6 3 -1 5 -18 5 -16 0 -22 -2 -12 -5z"/>
<path d="M1580 59 c0 -5 5 -7 10 -4 6 3 10 8 10 11 0 2 -4 4 -10 4 -5 0 -10
-5 -10 -11z"/>
<path d="M1935 60 c-3 -5 -1 -10 4 -10 6 0 11 5 11 10 0 6 -2 10 -4 10 -3 0
-8 -4 -11 -10z"/>
<path d="M27 53 c-3 -5 9 -9 26 -10 24 -2 28 0 17 7 -18 12 -37 13 -43 3z"/>
<path d="M1538 53 c7 -3 16 -2 19 1 4 3 -2 6 -13 5 -11 0 -14 -3 -6 -6z"/>
<path d="M1728 48 c-13 -4 21 -6 75 -5 53 1 97 -2 97 -6 0 -5 5 -5 10 -2 25
15 4 21 -74 21 -47 -1 -95 -4 -108 -8z"/>
<path d="M1973 53 c9 -2 23 -2 30 0 6 3 -1 5 -18 5 -16 0 -22 -2 -12 -5z"/>
<path d="M2157 54 c-4 -4 -55 -9 -114 -11 -60 -3 -110 -7 -113 -9 -2 -3 45 -5
105 -5 362 -2 535 -5 535 -9 0 -3 15 -5 33 -4 17 1 47 2 65 3 30 1 32 3 18 16
-17 17 -30 20 -21 5 3 -5 -3 -10 -14 -10 -12 0 -21 5 -21 10 0 6 -8 10 -17 10
-14 0 -15 -2 -5 -9 8 -5 -27 -8 -84 -9 -64 0 -93 2 -84 8 9 6 10 10 3 10 -6 0
-20 3 -30 7 -16 6 -16 5 -4 -10 12 -15 11 -17 -3 -17 -9 0 -16 5 -16 11 0 5
-5 7 -12 3 -17 -10 -68 -11 -68 0 0 5 -6 4 -12 -1 -7 -6 -42 -8 -77 -5 -40 3
-58 8 -50 13 8 5 9 9 3 9 -6 0 -14 -3 -17 -6z"/>
<path d="M155 39 c-28 -6 -26 -7 13 -8 42 -1 53 3 30 11 -7 2 -26 1 -43 -3z"/>
<path d="M378 43 c6 -2 18 -2 25 0 6 3 1 5 -13 5 -14 0 -19 -2 -12 -5z"/>
<path d="M770 40 c0 -6 7 -10 15 -10 8 0 15 2 15 4 0 2 -7 6 -15 10 -8 3 -15
1 -15 -4z"/>
<path d="M878 43 c7 -3 16 -2 19 1 4 3 -2 6 -13 5 -11 0 -14 -3 -6 -6z"/>
<path d="M2722 28 c-9 -4 6 -7 35 -7 28 -1 54 3 57 7 6 10 -67 10 -92 0z"/>
<path d="M2845 31 c-6 -11 13 -26 22 -17 4 3 1 6 -6 6 -7 0 -9 5 -6 10 3 6 4
10 1 10 -3 0 -7 -4 -11 -9z"/>
<path d="M2874 31 c3 -5 15 -7 26 -4 28 7 25 13 -6 13 -14 0 -23 -4 -20 -9z"/>
<path d="M78 23 c6 -2 18 -2 25 0 6 3 1 5 -13 5 -14 0 -19 -2 -12 -5z"/>
<path d="M828 23 c7 -3 16 -2 19 1 4 3 -2 6 -13 5 -11 0 -14 -3 -6 -6z"/>
<path d="M2940 18 c0 -5 14 -8 30 -8 17 0 30 4 30 10 0 5 -13 8 -30 7 -16 -1
-30 -5 -30 -9z"/>
<path d="M356 11 c-3 -4 6 -8 20 -9 13 -1 24 0 24 2 0 7 -40 14 -44 7z"/>
<path d="M728 13 c7 -3 16 -2 19 1 4 3 -2 6 -13 5 -11 0 -14 -3 -6 -6z"/>
<path d="M1578 13 c7 -3 16 -2 19 1 4 3 -2 6 -13 5 -11 0 -14 -3 -6 -6z"/>
<path d="M138 3 c7 -3 16 -2 19 1 4 3 -2 6 -13 5 -11 0 -14 -3 -6 -6z"/>
<path d="M443 3 c9 -2 23 -2 30 0 6 3 -1 5 -18 5 -16 0 -22 -2 -12 -5z"/>
<path d="M533 3 c15 -2 37 -2 50 0 12 2 0 4 -28 4 -27 0 -38 -2 -22 -4z"/>
<path d="M918 3 c7 -3 16 -2 19 1 4 3 -2 6 -13 5 -11 0 -14 -3 -6 -6z"/>
<path d="M1308 3 c6 -2 18 -2 25 0 6 3 1 5 -13 5 -14 0 -19 -2 -12 -5z"/>
</g>
</svg>
