<?xml version="1.0" standalone="no"?>
<!DOCTYPE svg PUBLIC "-//W3C//DTD SVG 20010904//EN"
 "http://www.w3.org/TR/2001/REC-SVG-20010904/DTD/svg10.dtd">
<svg version="1.0" xmlns="http://www.w3.org/2000/svg"
 width="300.000000pt" height="300.000000pt" viewBox="0 0 300.000000 300.000000"
 preserveAspectRatio="xMidYMid meet">
<metadata>
Created by potrace 1.10, written by Peter Selinger 2001-2011
</metadata>
<g transform="translate(0.000000,300.000000) scale(0.100000,-0.100000)"
fill="#000000" stroke="none">
<path d="M1407 2710 c-16 -28 -25 -55 -21 -62 4 -6 3 -8 -3 -5 -14 9 -84 -128
-77 -147 8 -20 24 -21 24 -1 0 8 3 15 8 15 12 0 2 -232 -11 -254 -11 -19 -12
-15 -15 28 -2 27 2 54 7 59 6 6 11 16 11 21 0 6 -5 4 -10 -4 -7 -11 -10 4 -10
50 -1 106 -10 104 -77 -17 -118 -212 -116 -206 -122 -333 -5 -88 -10 -122 -25
-147 -16 -26 -17 -35 -7 -60 12 -29 10 -71 -5 -94 -4 -8 -3 -9 5 -5 14 9 13
-62 -2 -81 -6 -9 -6 -13 1 -13 12 0 13 -68 2 -75 -9 -5 -4 -244 4 -253 3 -3 1
-11 -5 -19 -9 -9 -8 -13 0 -13 6 0 15 11 20 23 12 30 40 31 47 1 7 -29 -2 -45
-21 -37 -10 3 -15 -2 -15 -17 0 -11 5 -18 10 -15 6 4 10 -6 10 -24 0 -16 -5
-33 -10 -36 -17 -11 -11 -27 8 -21 14 5 14 4 -2 -9 -11 -8 -14 -15 -8 -15 16
0 15 -47 0 -54 -10 -5 -10 -7 0 -12 10 -5 8 -10 -8 -21 -12 -8 -24 -12 -27 -9
-4 3 -1 6 5 6 7 0 12 5 12 11 0 5 -5 7 -12 3 -8 -5 -9 -2 -4 12 4 10 9 59 11
107 2 49 9 95 16 103 6 8 10 16 8 18 -2 2 -43 -34 -91 -80 l-88 -83 -1 -98
c-1 -54 -4 -138 -8 -188 l-6 -90 -67 -3 c-36 -1 -101 2 -142 6 -61 7 -76 6
-76 -5 0 -10 9 -12 35 -7 23 4 35 2 35 -5 0 -6 7 -11 15 -11 12 0 15 -17 15
-91 0 -77 2 -90 15 -85 8 3 15 2 15 -3 0 -5 -9 -11 -19 -14 -13 -3 -22 3 -30
19 -6 13 -16 24 -22 24 -6 0 1 -20 15 -44 14 -25 26 -53 26 -63 0 -12 -6 -8
-21 16 -26 43 -38 33 -12 -11 16 -29 25 -33 63 -36 33 -1 41 0 29 8 -10 5 -15
20 -14 35 3 19 -1 25 -16 25 -10 0 -19 5 -19 10 0 6 8 10 18 10 14 0 19 8 19
30 0 26 -3 29 -20 24 -13 -4 -17 -2 -13 5 4 6 14 11 22 11 8 0 14 7 14 15 0 8
-9 15 -21 15 -11 0 -18 4 -14 10 3 5 12 7 20 3 12 -4 15 5 15 41 0 37 3 46 18
46 14 0 17 -7 13 -46 -3 -43 -2 -46 18 -39 12 4 21 2 21 -4 0 -6 -9 -11 -20
-11 -18 0 -20 -7 -19 -95 l0 -95 28 0 c25 0 27 2 23 36 -4 29 -8 35 -22 31
-13 -3 -17 0 -13 9 3 8 11 14 19 14 11 0 14 18 14 81 0 71 -2 80 -15 69 -12
-10 -15 -10 -15 4 0 9 7 16 15 16 8 0 15 7 15 15 0 8 8 15 18 15 17 0 18 -11
14 -150 -4 -147 -4 -150 17 -150 12 0 21 6 21 16 0 8 -4 12 -10 9 -15 -9 -12
12 3 26 14 13 11 66 -4 85 -11 14 -1 24 18 17 11 -4 14 -23 12 -87 l-2 -81 29
0 c28 0 28 1 25 48 -2 34 1 47 11 47 10 0 10 2 1 8 -7 4 -12 24 -11 45 1 20 5
34 10 31 4 -3 8 0 8 5 0 6 5 11 11 11 6 0 9 -12 8 -28 -2 -15 0 -32 4 -39 4
-6 4 -14 0 -16 -5 -3 -7 -34 -6 -69 l2 -65 -49 3 c-27 2 -52 -1 -55 -7 -4 -5
-11 -7 -16 -4 -5 4 -9 1 -9 -5 0 -11 30 -8 83 6 9 3 17 0 17 -6 0 -8 20 -10
64 -7 l64 3 7 -30 c5 -22 9 -26 12 -13 2 9 9 17 14 17 6 0 8 -4 4 -9 -3 -5 3
-12 12 -14 17 -4 17 -5 1 -6 -19 -1 -26 -41 -8 -41 6 0 10 7 10 15 0 8 5 15
10 15 6 0 10 13 10 28 0 26 -3 28 -30 24 -16 -2 -30 0 -30 4 0 5 12 9 28 10
15 1 34 3 42 5 12 3 16 -9 20 -51 5 -42 7 -49 12 -30 14 52 15 79 4 73 -7 -4
-8 -3 -1 4 6 6 26 13 45 16 19 3 29 3 23 0 -7 -2 -13 -20 -13 -39 0 -21 -4
-33 -10 -29 -5 3 -10 2 -10 -4 0 -5 6 -12 13 -14 10 -4 10 -6 0 -6 -30 -2 -10
-21 22 -21 28 0 35 -4 35 -20 0 -16 -7 -20 -30 -20 -16 0 -30 5 -30 11 0 11
-25 39 -35 39 -3 0 -4 -4 0 -9 3 -5 -3 -16 -13 -23 -10 -7 -25 -24 -32 -38
l-13 -25 25 23 c28 25 38 28 38 8 0 -7 8 -20 18 -27 14 -11 15 -11 5 1 -20 22
-16 25 27 25 35 1 40 -2 40 -21 0 -26 30 -37 48 -17 15 15 8 33 -14 33 -8 0
-13 8 -11 20 4 22 17 40 17 22 0 -7 10 -12 23 -12 18 0 19 -2 7 -10 -11 -7 -5
-10 25 -10 22 0 50 -3 63 -6 13 -4 22 -2 22 5 0 6 -3 10 -7 10 -5 -1 -24 0
-43 1 l-35 2 31 7 c17 4 36 11 42 15 6 3 16 -3 22 -14 6 -11 8 -20 4 -20 -3 0
-2 -6 3 -12 5 -7 6 -24 2 -38 -4 -14 -7 -18 -8 -10 -2 25 -109 25 -141 1 -30
-23 -21 -38 12 -20 29 15 108 20 108 7 0 -6 -12 -8 -26 -5 -15 3 -22 1 -16 -5
8 -8 258 -27 365 -28 23 0 36 -4 32 -10 -3 -6 -3 -10 2 -10 4 0 82 -7 173 -15
198 -18 370 -20 370 -4 0 6 8 8 18 5 55 -17 542 -49 542 -35 0 3 -84 11 -187
18 -360 23 -341 20 -345 50 -2 15 -8 25 -16 23 -8 -1 -11 2 -7 7 7 12 -26 31
-54 31 -12 0 -21 5 -21 11 0 6 7 9 15 5 10 -4 15 1 15 14 0 11 7 20 15 20 8 0
15 -9 15 -21 0 -11 5 -17 10 -14 6 4 8 10 5 15 -3 5 9 5 27 -1 21 -5 36 -5 42
1 14 14 59 13 74 -2 9 -9 12 -8 12 5 0 15 6 17 35 11 26 -5 35 -3 35 7 1 9 6
7 15 -5 8 -11 15 -14 15 -8 0 7 5 12 11 12 5 0 7 -4 4 -10 -3 -5 6 -12 20 -16
30 -7 23 -20 -15 -27 -14 -3 -6 -5 20 -5 25 0 74 -3 110 -6 46 -3 60 -2 47 5
-9 6 -15 14 -13 18 3 4 -5 7 -17 6 -38 -4 -50 14 -24 35 l22 19 -32 -1 c-18
-1 -33 -5 -33 -10 0 -5 -5 -6 -12 -2 -7 5 -9 2 -5 -8 4 -12 -1 -15 -18 -14
-17 1 -21 5 -15 16 7 13 -6 16 -98 18 -85 3 -108 7 -118 20 -10 14 -15 15 -25
5 -11 -11 -10 -13 4 -13 9 0 17 -4 17 -9 0 -4 -12 -6 -26 -3 -16 3 -30 -1 -35
-9 -7 -11 -9 -11 -9 -1 0 7 -4 10 -10 7 -5 -3 -10 1 -10 9 0 14 18 21 43 17 4
0 7 3 7 9 0 5 -8 10 -19 10 -10 0 -21 9 -24 20 -3 11 -11 20 -17 20 -7 0 -10
-8 -7 -20 3 -11 1 -17 -5 -14 -5 3 -21 3 -36 -1 l-27 -7 33 -11 c19 -7 32 -16
30 -22 -4 -13 -50 -15 -65 -3 -7 6 -13 7 -13 2 0 -5 -4 -4 -8 3 -4 7 -17 10
-31 6 -16 -4 -19 -8 -10 -14 17 -10 -26 -21 -61 -16 -17 3 -26 11 -28 28 -2
13 -9 30 -14 37 -8 9 -5 12 11 12 25 0 28 15 5 24 -26 10 -34 7 -34 -11 -1
-14 -4 -13 -14 6 -13 23 -66 38 -66 19 0 -11 -37 -10 -44 0 -3 5 -18 7 -34 4
-24 -3 -29 -8 -24 -25 3 -11 1 -18 -4 -15 -5 3 -14 0 -21 -7 -10 -10 -9 -14 3
-19 8 -3 13 -2 10 2 -9 14 65 45 77 33 18 -18 48 -13 66 11 l18 21 5 -21 c4
-15 2 -22 -8 -22 -8 0 -14 -5 -14 -11 0 -7 -8 -17 -17 -24 -15 -11 -15 -13 6
-24 12 -7 30 -10 39 -6 16 6 16 7 0 16 -19 11 -25 39 -8 39 6 0 10 -4 10 -10
0 -5 9 -10 20 -10 11 0 20 -4 20 -10 0 -5 -6 -10 -12 -10 -9 0 -8 -4 2 -10 13
-9 13 -10 0 -11 -8 0 0 -5 18 -10 36 -11 45 -32 10 -24 -13 2 -38 7 -57 9 -19
3 -38 11 -42 18 -4 7 -10 10 -14 7 -3 -3 4 -14 16 -25 15 -14 38 -19 85 -21
59 -2 83 8 52 20 -8 4 -7 6 4 6 32 2 25 -24 -11 -41 -22 -10 -29 -17 -18 -17
10 -1 28 6 41 14 19 13 32 14 74 4 70 -14 72 -25 6 -21 -46 3 -53 2 -48 -12 3
-9 12 -16 20 -16 8 0 14 -5 14 -10 0 -11 -51 -25 -82 -23 -68 3 -82 6 -63 10
18 5 35 20 35 33 0 8 -52 30 -71 30 -10 0 -27 -12 -38 -26 -21 -26 -22 -27
-84 -17 -39 7 -66 7 -74 1 -8 -6 -15 -3 -23 9 -10 16 -10 15 -5 -4 4 -13 2
-23 -3 -23 -5 0 -12 9 -15 21 -4 15 0 23 13 26 16 4 18 9 9 25 -6 11 -9 21 -7
22 2 2 12 9 24 17 16 10 19 19 13 34 -7 19 -8 19 -8 -3 -1 -13 -5 -20 -11 -17
-5 3 -10 2 -10 -4 0 -5 -14 -12 -30 -16 -34 -7 -107 24 -102 44 1 6 -3 11 -9
11 -5 0 -7 5 -4 10 4 6 -6 10 -22 10 -15 0 -38 3 -50 6 -17 5 -23 2 -23 -10 0
-9 -4 -16 -10 -16 -5 0 -7 7 -4 15 5 12 -3 15 -35 15 -40 0 -40 0 -29 -25 13
-29 23 -32 127 -39 74 -5 91 -14 91 -48 0 -25 -68 -33 -115 -14 -43 18 -59 20
-50 6 3 -5 1 -10 -5 -10 -6 0 -8 10 -5 23 4 16 0 24 -17 32 -13 6 -29 25 -37
43 -14 30 -41 45 -41 22 0 -5 -11 -10 -24 -10 -14 0 -28 -4 -31 -10 -8 -13
-72 -13 -80 1 -11 17 2 21 23 8 16 -10 23 -10 36 0 8 7 27 16 43 21 19 6 8 7
-37 3 -36 -3 -70 -10 -77 -15 -7 -6 -18 -8 -25 -5 -9 4 -7 6 3 6 9 1 20 8 23
17 9 23 8 25 -10 22 -14 -3 -16 9 -15 91 2 98 16 143 47 155 14 5 15 4 4 -9
-11 -13 -9 -15 14 -15 34 0 35 27 0 36 -17 4 -23 11 -20 21 3 8 6 19 6 24 0 5
9 9 20 9 15 0 20 7 20 25 0 20 -5 25 -26 25 -14 0 -23 -4 -20 -9 8 -12 -16
-71 -29 -71 -5 0 -4 -4 4 -9 14 -9 13 -14 -14 -60 -13 -24 -14 -24 -18 20 -3
36 -4 32 -5 -21 -1 -36 -6 -76 -10 -90 -6 -21 -8 -19 -12 20 -3 25 -3 69 1 98
3 28 2 52 -2 52 -3 0 -9 19 -12 41 -4 30 -1 46 9 57 22 22 9 26 -20 6 l-27
-17 3 57 c2 31 8 56 13 56 6 0 4 4 -3 8 -20 13 -11 93 13 115 20 19 20 19 0
12 -34 -11 -40 -10 -36 5 3 8 6 55 7 105 2 77 5 92 23 106 27 22 27 33 0 18
-15 -7 -19 -8 -15 0 4 6 7 57 7 113 0 80 3 106 16 120 13 14 13 18 2 18 -8 0
-10 3 -4 8 6 4 17 16 25 27 15 20 15 20 -9 0 -13 -11 -27 -30 -32 -43 -5 -13
-14 -20 -19 -17 -6 4 -17 1 -25 -5 -21 -17 -19 -1 3 24 16 20 16 20 0 7 -10
-7 -18 -9 -18 -3 0 14 28 35 38 28 9 -5 40 22 41 37 1 4 4 7 9 8 4 0 12 5 19
10 7 6 13 6 17 0 3 -5 16 -6 28 -3 21 5 21 6 -6 13 -19 5 -35 4 -43 -3 -9 -7
-13 -7 -13 1 0 23 2 26 14 23 7 -1 21 7 31 18 14 15 15 20 4 20 -10 1 -8 5 6
16 15 11 20 27 21 59 0 25 -3 45 -7 45 -12 0 -20 -35 -13 -54 4 -10 -1 -25
-11 -36 -9 -10 -14 -23 -11 -28 3 -5 0 -14 -7 -20 -9 -8 -11 14 -9 105 2 63 6
112 9 109 3 -3 12 6 20 21 15 30 12 41 -7 18 -7 -8 -16 -15 -20 -15 -11 0 1
92 14 109 9 12 8 13 -4 6 -9 -5 -8 0 4 13 11 12 20 22 21 22 1 0 3 -20 3 -44
1 -28 -4 -49 -13 -56 -25 -20 -17 -32 9 -14 20 13 25 23 24 57 -1 23 -6 48
-11 55 -7 9 -6 17 1 24 17 17 15 54 -3 82 -14 21 -14 24 0 36 17 14 22 116 5
105 -5 -3 -10 -26 -10 -49 0 -27 -6 -48 -16 -56 -27 -23 -16 79 12 109 22 23
23 32 22 186 0 89 -4 168 -9 176 -9 15 -12 -23 -11 -157 0 -54 -4 -76 -19 -95
l-19 -24 0 60 c0 37 4 55 9 47 12 -20 20 28 9 54 -7 17 -8 16 -4 -3 2 -13 0
-26 -5 -29 -5 -3 -9 24 -9 60 0 36 3 66 8 66 10 0 32 50 32 75 0 12 5 26 10
31 6 6 12 21 15 34 14 73 16 -6 11 -372 -4 -294 -2 -409 6 -414 8 -5 9 8 6 45
-4 43 -3 51 9 47 8 -4 17 -6 19 -6 2 0 4 -7 4 -15 0 -8 5 -23 11 -33 9 -14 8
-25 -5 -49 -12 -24 -13 -33 -3 -41 8 -7 11 -44 9 -126 l-3 -115 -24 11 c-15 7
-22 16 -18 27 4 13 3 13 -5 2 -10 -14 -5 -47 5 -37 3 3 27 -6 54 -19 27 -14
55 -25 64 -25 11 0 15 -11 15 -40 0 -29 4 -40 15 -40 8 0 15 6 15 14 0 8 3 22
7 32 4 11 3 15 -5 10 -6 -3 -13 -2 -17 4 -8 13 8 13 39 -1 18 -9 26 -21 29
-48 l4 -36 1 40 c2 33 6 41 21 41 14 0 17 -4 10 -12 -15 -18 -18 -72 -5 -90 7
-9 30 -19 52 -23 l40 -8 -2 49 c-2 35 1 48 9 45 34 -12 84 70 58 96 -14 14
-14 47 -1 47 6 0 10 11 10 25 0 14 -4 25 -10 25 -5 0 -10 -11 -10 -25 0 -14
-5 -25 -11 -25 -5 0 -7 -4 -4 -10 3 -5 2 -10 -3 -10 -12 0 -14 88 -2 110 7 14
6 17 -8 16 -14 -1 -17 8 -18 52 -1 28 0 52 2 52 11 0 42 -40 32 -40 -8 -1 -6
-6 4 -14 13 -10 15 -15 6 -24 -9 -9 -9 -12 0 -12 6 0 9 -7 6 -15 -4 -8 -2 -15
4 -15 6 0 16 -2 24 -5 10 -4 13 6 13 40 0 54 -12 60 -18 8 l-4 -38 -1 42 c-2
32 -7 43 -22 48 -11 3 -20 11 -20 16 0 12 6 11 40 -6 l29 -15 4 48 c2 26 5 2
7 -58 2 -65 5 -86 7 -55 3 27 9 55 15 62 7 9 7 13 -1 13 -6 0 -11 18 -11 43 0
40 -3 45 -36 61 -41 19 -59 15 -22 -6 20 -11 23 -18 17 -48 l-6 -35 -2 38 c0
20 -5 37 -9 37 -5 0 -8 -14 -7 -30 1 -22 -2 -29 -12 -26 -7 3 -13 1 -13 -4 0
-5 -6 -7 -14 -4 -17 7 -17 93 1 111 6 7 10 33 10 58 -1 25 1 45 6 45 4 0 7 -7
7 -15 0 -9 9 -15 23 -14 16 1 18 2 5 6 -10 2 -18 9 -18 14 0 12 6 11 40 -6 18
-9 30 -11 30 -5 0 6 -11 16 -25 22 -19 9 -25 19 -25 45 0 18 -3 33 -8 33 -4 0
-7 -14 -7 -32 0 -54 -23 -44 -27 12 -2 35 1 50 10 50 6 0 12 -4 12 -9 0 -5 9
-13 20 -16 15 -5 20 -15 20 -41 0 -19 4 -34 9 -34 14 0 20 37 7 50 -8 8 -7 10
7 5 15 -6 17 -21 17 -115 0 -81 3 -109 13 -113 10 -4 12 -18 7 -58 -4 -29 -6
-68 -4 -86 2 -20 -1 -31 -6 -28 -6 4 -10 2 -10 -4 0 -5 5 -13 10 -16 8 -5 8
-11 0 -20 -8 -10 -1 -17 32 -30 l43 -18 -3 -102 -3 -103 -30 11 c-30 12 -39
32 -16 40 9 3 10 13 1 46 -10 36 -9 41 3 37 8 -3 18 -6 21 -6 4 0 0 -5 -8 -10
-10 -6 -11 -10 -3 -10 15 0 6 -61 -11 -72 -6 -5 -2 -8 11 -8 21 0 22 4 22 85
0 47 -4 85 -9 85 -6 0 -10 -11 -10 -25 0 -14 -4 -25 -10 -25 -5 0 -7 13 -4 28
4 19 1 32 -10 41 -24 20 -34 5 -34 -47 0 -139 -1 -145 -19 -137 -10 3 -31 9
-48 12 -23 4 -27 2 -15 -6 10 -7 11 -11 3 -11 -18 0 -16 -47 2 -54 11 -4 15 2
15 24 0 44 20 37 21 -7 l2 -38 7 35 7 35 3 -40 3 -40 6 39 c7 44 21 55 41 31
7 -8 18 -15 26 -15 9 0 11 -10 7 -37 -6 -43 12 -36 20 7 3 16 5 11 6 -17 l1
-41 -30 11 c-28 11 -41 27 -21 27 13 0 9 38 -4 43 -6 3 -11 -12 -12 -34 -1
-37 0 -39 40 -50 49 -13 80 -33 69 -44 -4 -4 3 -4 16 0 14 4 51 -2 94 -16 62
-19 69 -23 52 -33 -10 -6 -20 -19 -22 -29 -2 -10 -7 -28 -13 -40 -8 -20 -9
-21 -8 -2 2 42 -1 68 -8 61 -5 -4 -8 -49 -8 -99 0 -68 -3 -92 -12 -91 -7 1
-24 2 -37 3 -19 1 -24 6 -22 25 0 13 4 22 9 19 4 -2 7 10 7 26 0 17 -4 31 -9
31 -6 0 -6 12 0 30 6 16 9 37 7 47 -3 16 -6 15 -17 -6 -16 -29 -16 -158 0
-178 8 -9 8 -13 0 -13 -6 0 -11 -8 -11 -18 0 -18 -18 -42 -32 -42 -4 0 -7 20
-6 45 0 26 5 45 12 45 7 0 11 27 10 83 -3 130 -3 134 -13 118 -5 -7 -9 -52 -9
-98 -1 -47 -3 -87 -5 -90 -3 -2 -33 2 -67 9 -61 12 -62 13 -56 41 3 16 6 36 6
43 0 8 4 14 9 14 4 0 6 -11 4 -25 -3 -15 2 -31 13 -42 17 -17 17 -17 11 0 -3
9 -2 29 3 42 9 23 7 26 -19 31 -28 6 -29 8 -29 60 0 39 4 54 14 54 16 0 16 -3
5 -52 -8 -33 -6 -38 11 -44 23 -7 38 4 20 15 -9 5 -9 16 -2 41 15 51 13 57
-20 57 -24 0 -32 -6 -37 -26 -4 -14 -6 -35 -5 -46 0 -10 -4 -25 -10 -32 -6 -7
-7 -13 -2 -13 5 0 8 -27 7 -59 -1 -55 1 -60 23 -65 13 -4 22 -12 19 -19 -15
-49 -15 -67 0 -67 12 0 15 6 10 20 -7 21 2 60 13 60 4 0 7 -14 7 -32 0 -43 25
-50 26 -6 l1 33 8 -30 c6 -24 8 -26 9 -7 0 12 6 22 12 22 6 0 8 -7 5 -16 -3
-9 -6 -29 -6 -46 0 -29 -2 -30 -30 -25 -29 6 -30 5 -30 -28 0 -25 6 -37 21
-45 11 -7 23 -9 27 -6 3 3 0 6 -6 6 -7 0 -12 14 -11 33 0 27 2 29 9 12 7 -17
9 -17 9 -2 1 9 5 17 9 17 5 0 7 -13 4 -29 -3 -25 1 -32 29 -46 19 -10 29 -12
23 -5 -17 17 -5 50 17 50 11 0 19 5 19 10 0 6 -7 10 -15 10 -9 0 -15 9 -15 25
0 22 3 24 19 16 22 -12 31 -5 31 26 0 13 5 23 11 23 7 0 9 -10 5 -26 -5 -20
-3 -27 14 -31 11 -3 20 -10 20 -15 0 -6 -9 -8 -19 -5 -12 3 -22 -1 -25 -10 -8
-20 -8 -23 5 -23 5 0 7 5 3 11 -4 7 2 9 17 7 16 -2 23 -9 21 -20 -2 -12 6 -20
23 -24 14 -3 25 -10 25 -14 0 -4 10 -10 23 -13 20 -5 20 -5 5 7 -10 7 -18 16
-18 19 0 10 45 -2 55 -16 8 -11 29 -15 38 -7 1 1 11 3 22 5 11 2 25 11 31 19
15 21 24 20 24 -1 0 -12 3 -14 8 -6 4 6 7 50 7 97 l0 85 48 -3 c26 -1 47 1 47
6 0 9 -19 11 -62 8 -18 -1 -28 4 -28 12 0 10 -3 9 -10 -2 -5 -8 -10 -45 -10
-82 0 -52 -3 -68 -14 -68 -8 0 -23 -3 -33 -7 -13 -4 -11 0 7 17 16 15 19 21 8
17 -10 -3 -20 -1 -24 4 -3 6 -18 8 -32 4 l-27 -7 27 21 c14 12 37 21 50 22 19
0 17 3 -12 14 -46 18 -58 18 -36 2 18 -13 18 -14 1 -21 -11 -4 -22 -1 -26 6
-6 10 -12 8 -24 -7 -16 -19 -16 -19 -12 8 4 27 -7 38 -16 15 -4 -10 -8 -9 -16
2 -8 12 -12 9 -21 -15 -6 -15 -9 -34 -6 -42 7 -18 -5 -16 -34 7 l-25 20 24 0
c16 0 21 4 17 15 -3 8 0 15 7 15 8 0 6 4 -3 10 -10 6 -11 10 -3 10 15 0 33 63
21 71 -13 8 1 99 14 99 7 0 8 -17 5 -45 -5 -34 -3 -45 7 -45 16 0 27 22 25 53
-1 17 -3 15 -9 -8 l-8 -30 -1 33 c0 17 4 32 9 32 6 0 10 15 10 34 l0 34 -105
29 -106 29 1 476 c0 262 -2 500 -6 530 l-6 54 -116 64 c-64 36 -155 86 -202
111 -47 25 -125 69 -174 98 -49 28 -89 51 -90 51 -1 0 -14 -23 -29 -50z m173
-61 c0 -4 -5 -11 -12 -15 -7 -4 -8 -3 -4 4 4 7 3 12 -3 12 -6 0 -10 -26 -10
-60 0 -33 5 -60 10 -60 5 0 9 17 9 38 0 20 5 44 10 52 7 10 10 -11 10 -67 0
-46 2 -83 4 -83 2 0 10 -2 18 -5 10 -4 13 6 12 42 -1 27 5 58 12 69 9 16 10
21 1 20 -7 0 -12 2 -12 5 0 4 -9 16 -19 28 -24 26 -13 27 22 2 15 -10 44 -26
65 -36 39 -18 48 -51 14 -49 -15 2 -17 -4 -13 -30 l6 -31 -14 35 -14 35 -1
-62 c-1 -35 -4 -63 -8 -63 -5 1 -19 7 -33 15 -38 22 -40 19 -40 -40 0 -30 2
-55 4 -55 2 0 13 -3 23 -6 14 -6 15 -4 6 6 -7 8 -8 22 -3 40 5 17 4 32 -3 39
-7 7 1 6 21 -1 30 -12 32 -15 32 -65 0 -29 -2 -53 -5 -53 -3 0 -31 13 -63 29
-106 53 -102 54 -102 -36 1 -43 -1 -89 -4 -102 -7 -31 3 -71 18 -71 6 0 24 -7
40 -15 16 -9 32 -13 35 -10 7 8 -17 23 -49 32 -32 8 -37 17 -32 53 6 40 18 38
16 -2 -1 -26 0 -27 3 -5 6 38 23 34 23 -7 0 -40 25 -56 34 -23 12 44 7 54 -34
66 -22 6 -40 16 -40 21 0 13 6 13 41 -6 34 -17 54 -10 26 10 -18 14 -24 32 -7
21 6 -4 13 7 16 24 10 48 23 26 18 -29 -3 -47 -2 -51 26 -65 34 -18 40 -18 40
-5 0 6 -11 16 -25 22 -20 9 -25 18 -25 50 l0 39 31 -16 c23 -12 30 -13 28 -3
-1 7 0 24 1 38 2 24 3 23 9 -5 4 -16 3 -42 -1 -56 -12 -34 -6 -211 7 -216 6
-2 9 39 7 112 -2 94 0 114 12 109 9 -3 13 -19 11 -47 -1 -25 -1 -29 2 -9 5 34
9 37 45 23 22 -8 23 -11 20 -120 -3 -105 -4 -110 -22 -101 -30 16 -31 14 -31
-57 1 -38 -1 -87 -2 -110 -2 -26 1 -44 9 -47 8 -3 11 9 10 40 -1 29 3 44 11
44 9 0 11 -13 6 -47 -7 -58 -7 -59 -35 -46 -21 9 -22 15 -19 114 3 129 6 142
32 129 13 -8 19 -7 19 1 0 6 -9 13 -20 16 -15 4 -20 14 -20 39 0 19 4 34 10
34 5 0 7 -13 3 -31 -5 -25 -3 -31 8 -27 20 7 23 94 3 102 -30 12 -39 -3 -36
-62 2 -45 -2 -62 -18 -82 -11 -14 -20 -20 -19 -15 5 35 -6 44 -88 79 -99 41
-100 41 -100 22 0 -8 6 -12 13 -9 7 2 21 0 32 -6 14 -7 18 -18 15 -43 -3 -25
-2 -29 6 -18 6 8 11 23 11 33 0 9 4 17 9 17 5 0 7 -24 5 -54 -3 -52 -2 -54 27
-66 32 -14 54 -4 26 11 -11 7 -17 22 -17 44 0 20 -5 35 -12 35 -6 0 -9 2 -7 5
3 2 19 0 35 -6 l29 -11 -3 -110 c-2 -79 -7 -108 -15 -105 -7 2 -43 15 -82 27
-77 26 -81 28 -73 36 3 3 21 -1 39 -9 l34 -14 1 54 c0 31 -4 53 -11 53 -6 0
-10 -18 -10 -40 0 -37 -1 -39 -25 -33 -33 8 -38 13 -13 13 14 0 22 8 26 26 3
18 1 24 -9 20 -7 -3 -18 2 -24 10 -10 11 -10 14 1 14 7 0 -2 13 -20 29 l-33
29 2 184 c1 100 1 253 1 338 0 85 2 158 5 161 5 9 124 -61 124 -72z m215 -104
c6 0 10 -9 10 -19 0 -11 7 -21 15 -23 13 -4 13 -3 0 6 -13 10 -13 11 0 11 24
-1 131 -66 123 -75 -5 -4 -2 -5 5 -1 29 17 41 -13 37 -95 -2 -45 0 -79 6 -79
5 0 9 23 9 50 0 28 5 50 11 50 7 0 9 -28 5 -82 -2 -46 -5 -97 -5 -115 -1 -31
-2 -31 -31 -20 -28 11 -41 27 -21 27 5 0 8 18 7 40 0 22 4 40 9 40 6 0 2 5 -9
11 -15 9 -16 13 -5 20 12 8 12 10 0 18 -8 5 -20 7 -27 4 -9 -3 -12 3 -8 23 3
15 8 32 11 37 4 6 1 7 -7 2 -10 -6 -12 -1 -7 23 4 19 2 32 -3 32 -6 0 -10 -49
-10 -120 0 -98 3 -122 15 -126 8 -4 13 -10 10 -15 -3 -4 6 -16 20 -25 33 -22
36 -80 4 -80 -18 0 -18 2 -5 12 22 16 20 45 -4 51 -11 3 -20 11 -20 18 0 16
-69 75 -87 75 -17 0 -17 16 1 23 7 3 16 17 18 31 4 19 0 27 -13 31 -11 4 -19
10 -19 15 0 4 11 3 25 -3 22 -10 25 -19 25 -61 0 -60 6 -57 12 5 5 45 4 47
-31 64 -23 11 -31 19 -23 24 16 10 34 71 21 71 -21 0 -24 -2 -21 -15 1 -7 -2
-16 -8 -20 -12 -7 -13 -65 -1 -83 11 -18 -10 -61 -26 -55 -7 3 -13 13 -13 22
0 14 2 14 10 1 7 -10 10 21 10 97 0 122 -15 159 -26 63 -6 -57 -15 -72 -29
-50 -3 6 -2 10 3 10 6 0 10 10 9 23 -1 50 7 105 15 101 4 -3 8 -1 8 4 0 6 -7
12 -15 16 -8 3 -15 10 -15 16 0 7 5 8 13 3 6 -4 17 -8 22 -8z m-53 -130 c-3
-126 -2 -135 15 -134 11 0 13 3 5 6 -10 4 -10 8 -1 19 6 8 9 23 6 34 -3 11 -1
20 4 20 5 0 9 -25 9 -55 l0 -56 -30 16 -29 15 0 122 c0 102 7 148 23 148 1 0
0 -61 -2 -135z m-445 -42 c0 -32 -4 -64 -11 -72 -8 -11 -8 -13 0 -8 8 5 11 -8
9 -41 -2 -45 -18 -92 -31 -92 -7 0 4 98 12 111 3 5 2 9 -3 9 -12 0 -8 102 6
128 6 12 13 22 14 22 2 0 4 -26 4 -57z m390 25 c-3 -8 -6 -5 -6 6 -1 11 2 17
5 13 3 -3 4 -12 1 -19z m110 -50 c-3 -8 -6 -5 -6 6 -1 11 2 17 5 13 3 -3 4
-12 1 -19z m-549 -119 c-2 -65 -1 -120 2 -122 3 -1 3 -49 0 -107 l-5 -105 -7
160 c-11 226 -10 308 3 300 6 -4 9 -50 7 -126z m302 69 c0 -33 -3 -39 -16 -34
-9 3 -18 6 -20 6 -2 0 -4 18 -4 39 0 34 3 38 20 34 16 -4 20 -14 20 -45z
m-150 -6 c-9 -54 -30 -79 -30 -39 0 26 27 93 35 85 2 -1 0 -22 -5 -46z m175
29 c3 -5 1 -12 -5 -16 -5 -3 -10 1 -10 9 0 18 6 21 15 7z m368 -81 c1 -23 -2
-45 -8 -46 -6 -2 -10 19 -11 51 -1 64 15 60 19 -5z m-727 -57 c-2 -60 -7 -116
-11 -125 -4 -12 -3 -18 5 -18 13 0 10 -38 -5 -74 -6 -14 -5 -17 3 -12 14 8 17
-65 5 -78 -5 -4 -8 -31 -8 -59 0 -29 -5 -61 -10 -72 -7 -17 -6 -18 6 -8 13 10
14 7 11 -25 -2 -20 -6 -44 -9 -52 -4 -8 -5 -21 -4 -27 1 -7 -2 -13 -8 -13 -5
0 -11 18 -13 41 -3 29 1 43 12 49 10 6 11 10 3 10 -14 0 -19 90 -5 90 8 0 6
394 -2 416 -5 13 19 64 30 64 2 0 2 -48 0 -107z m629 77 c3 -5 1 -10 -4 -10
-6 0 -11 5 -11 10 0 6 2 10 4 10 3 0 8 -4 11 -10z m-509 -92 c-16 -22 -16 -22
-16 10 0 19 6 43 13 55 12 21 12 21 15 -10 2 -18 -4 -43 -12 -55z m-160 35
c-4 -9 -7 -58 -7 -107 0 -81 -3 -95 -26 -131 -17 -26 -27 -54 -27 -81 -1 -48
-16 -73 -16 -28 0 22 -3 26 -10 14 -5 -8 -10 -10 -10 -4 0 6 7 17 15 24 8 7
12 16 9 22 -3 5 -1 14 4 21 6 7 11 26 13 42 2 17 6 35 10 40 3 6 9 19 13 29 5
16 4 17 -9 6 -18 -15 -20 0 -2 19 10 11 10 13 0 7 -16 -9 -17 8 -3 35 6 11 7
19 1 19 -8 0 9 40 32 78 12 18 20 15 13 -5z m112 -105 l-13 -23 -3 27 c-2 15
3 37 10 50 l13 23 3 -27 c2 -15 -3 -37 -10 -50z m53 -41 c-6 -6 -11 -19 -11
-28 0 -10 -3 -20 -7 -22 -5 -3 -6 25 -5 61 4 77 25 105 30 40 2 -22 -2 -46 -7
-51z m414 83 c3 -5 -1 -10 -9 -10 -9 0 -16 5 -16 10 0 6 4 10 9 10 6 0 13 -4
16 -10z m255 -124 l0 -105 -30 10 c-16 6 -30 15 -30 20 0 6 8 5 19 -1 11 -5
21 -10 23 -10 8 0 6 90 -2 90 -6 0 -10 -16 -10 -36 0 -54 -22 -37 -24 19 -2
52 -2 51 25 36 17 -9 20 -8 19 8 -4 30 0 73 5 73 3 0 5 -47 5 -104z m-620 79
c0 -2 -7 -8 -15 -15 -12 -10 -15 -10 -15 2 0 8 7 15 15 15 8 0 15 -1 15 -2z
m-105 -114 c-15 -15 -16 -12 -12 30 6 66 21 85 25 30 2 -30 -2 -49 -13 -60z
m98 12 l-18 -27 -3 32 c-2 20 4 44 15 60 l18 27 3 -32 c2 -19 -4 -43 -15 -60z
m-57 -75 c-16 -22 -16 -22 -16 10 0 19 6 43 13 55 12 21 12 21 15 -10 2 -18
-4 -43 -12 -55z m452 24 c-4 -65 -23 -64 -23 2 0 40 3 52 13 48 9 -3 12 -20
10 -50z m-607 -15 c-14 -14 -14 -40 -1 -32 7 4 8 -7 5 -32 -4 -21 -8 -46 -9
-57 -1 -10 -10 -22 -19 -28 -14 -7 -17 -4 -17 22 0 16 5 30 10 30 6 0 10 5 10
11 0 5 -6 7 -12 3 -10 -6 -10 -4 0 7 14 16 16 33 2 24 -18 -11 -10 40 12 75
21 33 22 34 26 11 2 -13 -1 -28 -7 -34z m119 28 c-7 -9 -15 -13 -19 -10 -3 3
1 10 9 15 21 14 24 12 10 -5z m-9 -88 c-17 -17 -14 -42 2 -29 11 9 12 3 6 -36
-19 -119 -29 -118 -29 4 0 67 4 104 13 113 10 10 13 7 15 -15 2 -14 -1 -31 -7
-37z m414 54 c3 -5 1 -12 -4 -15 -5 -3 -11 1 -15 9 -6 16 9 21 19 6z m315
-128 c0 -57 -2 -103 -5 -103 -2 0 -15 5 -28 11 -21 9 -24 17 -24 69 0 53 2 58
18 49 23 -12 27 -3 18 41 -6 31 -7 32 -8 8 -2 -44 -26 -34 -26 10 0 38 0 38
27 28 l28 -10 0 -103z m-669 70 c-4 -40 -5 -44 -12 -23 -6 21 -7 20 -8 -14 -1
-33 1 -37 14 -26 8 7 15 9 15 4 0 -5 -12 -18 -27 -28 -14 -11 -22 -13 -18 -6
5 8 7 35 6 62 -2 41 11 76 29 78 3 0 3 -21 1 -47z m-94 -83 c-2 -55 -2 -102 0
-104 9 -8 5 -198 -4 -207 -5 -5 -9 84 -11 201 -1 131 2 210 8 210 6 0 9 -40 7
-100z m432 36 c-9 -8 -10 -7 -5 7 3 10 7 24 7 30 1 7 3 4 6 -7 3 -10 -1 -23
-8 -30z m-72 4 l73 -24 -1 -108 c-1 -72 -5 -108 -13 -108 -6 0 -44 11 -85 23
l-75 23 0 63 c-1 66 0 67 56 46 11 -5 15 4 15 40 0 37 -4 45 -19 45 -21 0 -26
-45 -5 -54 6 -3 1 -3 -13 0 -14 4 -28 11 -31 16 -9 15 3 69 15 65 6 -2 44 -14
83 -27z m-495 -55 c3 -14 1 -28 -3 -31 -5 -3 -9 9 -9 25 0 38 6 40 12 6z m602
-21 c-1 -34 0 -35 3 -6 4 30 7 33 36 29 l32 -3 3 -113 3 -113 -23 7 c-13 4
-30 12 -38 17 -11 7 -10 8 8 5 27 -6 30 9 2 16 -27 7 -29 67 -2 66 10 0 12 -3
5 -6 -19 -7 -16 -53 2 -53 10 0 15 11 15 35 0 24 -5 35 -14 35 -8 0 -18 5 -22
11 -4 8 0 9 15 4 19 -6 21 -3 21 39 0 34 -3 44 -13 40 -17 -6 -18 -34 -3 -53
8 -11 8 -13 -1 -8 -24 15 -39 -3 -35 -41 3 -20 1 -33 -4 -29 -12 11 -11 168 1
164 5 -2 9 -21 9 -43z m-371 -1 c-3 -21 -10 -42 -14 -47 -13 -15 -11 -26 4
-20 15 5 11 -73 -5 -93 -5 -7 -7 -16 -4 -21 3 -6 -1 -15 -10 -22 -10 -9 -11
-15 -4 -20 7 -5 6 -11 -5 -20 -11 -9 -15 -9 -15 -1 0 7 -4 9 -10 6 -18 -11
-11 6 10 23 17 15 20 31 22 117 1 71 6 105 16 118 21 24 22 22 15 -20z m-182
-32 c-8 -14 -8 -22 0 -27 10 -6 9 -38 -4 -92 -5 -17 -3 -22 7 -19 11 4 12 -2
5 -31 -11 -47 -11 -54 -1 -48 5 3 5 -16 1 -42 -4 -26 -5 -50 -3 -54 2 -4 0 -9
-6 -13 -5 -3 -10 -1 -10 5 0 6 -4 8 -10 5 -5 -3 -10 -10 -10 -15 0 -14 29 -5
53 18 28 26 45 29 26 5 -11 -14 -8 -13 9 2 19 16 25 17 32 5 5 -8 6 -18 3 -23
-3 -5 -9 -3 -14 4 -11 17 -10 21 -9 -128 1 -92 -2 -123 -11 -123 -7 0 -25 -12
-41 -27 -15 -14 -30 -24 -33 -22 -2 3 12 18 33 34 l37 28 -1 83 c-1 45 -5 87
-8 93 -4 6 -2 11 3 11 6 0 11 9 11 21 0 11 -5 17 -10 14 -6 -4 -8 -9 -6 -13 2
-4 -2 -16 -10 -27 -14 -19 -14 -19 -15 1 -1 10 -1 23 0 28 1 5 -4 5 -11 -1 -7
-6 -21 -10 -31 -10 -16 0 -17 6 -11 41 3 23 9 43 13 46 11 8 11 51 0 44 -6 -3
-8 -13 -5 -21 3 -8 1 -11 -5 -8 -5 4 -15 2 -22 -3 -12 -11 -13 -8 -6 133 1 28
3 33 6 15 3 -14 10 -31 16 -39 9 -11 9 -13 1 -8 -7 4 -14 0 -18 -8 -3 -8 -2
-15 3 -15 4 0 6 -15 4 -32 -3 -32 -3 -32 8 -8 6 14 16 35 21 47 11 23 3 47
-13 38 -5 -4 -8 9 -8 27 2 29 2 30 7 8 9 -38 18 55 11 107 -5 34 -2 43 10 45
20 4 26 -24 12 -51z m-32 -29 c-3 -44 -29 -56 -28 -13 0 24 1 24 9 6 8 -18 9
-17 9 8 1 16 -3 26 -9 22 -5 -3 -10 -1 -10 4 0 6 7 11 15 11 12 0 15 -9 14
-38z m166 10 c-1 -15 -7 -37 -13 -47 -10 -18 -11 -16 -12 16 0 19 5 40 12 47
16 16 16 16 13 -16z m536 -87 c4 -40 -1 -63 -17 -69 -9 -4 -13 -2 -8 5 3 6 6
32 6 57 -1 44 15 50 19 7z m-620 -38 c-12 -12 -15 -31 -3 -24 4 3 8 -15 9 -39
1 -24 -3 -44 -8 -44 -5 0 -9 -4 -9 -9 0 -5 12 -8 27 -5 23 4 25 3 12 -12 -9
-11 -15 -12 -17 -4 -3 7 -14 3 -31 -12 -14 -12 -20 -16 -13 -8 8 9 12 47 12
105 0 59 4 95 13 104 10 10 13 7 15 -15 2 -14 -1 -31 -7 -37z m82 21 c-7 -61
-23 -72 -23 -16 0 28 5 48 13 51 6 3 13 6 13 6 1 1 -1 -18 -3 -41z m417 6 c0
-8 -5 -12 -10 -9 -6 4 -8 11 -5 16 9 14 15 11 15 -7z m227 -56 c-3 -7 -5 -2
-5 12 0 14 2 19 5 13 2 -7 2 -19 0 -25z m-184 -4 c12 -5 17 -17 17 -43 0 -36
-1 -37 -30 -33 -28 4 -30 7 -30 49 0 32 3 43 13 39 6 -3 20 -9 30 -12z m-652
-177 c-13 -13 -15 15 -3 53 7 24 7 23 10 -9 2 -18 -1 -38 -7 -44z m188 -44
c-3 -111 -10 -143 -30 -143 -12 0 -7 83 6 92 6 5 5 12 -3 20 -6 6 -12 17 -12
23 0 5 5 3 11 -5 8 -11 9 -8 4 14 -8 35 4 116 17 116 6 0 9 -46 7 -117z m-110
-3 c13 0 -3 -73 -17 -78 -15 -5 -17 54 -2 63 7 4 7 12 0 24 -5 10 -6 22 -2 26
4 4 8 -3 10 -14 2 -12 7 -21 11 -21z m13 -92 c-7 -7 -12 -26 -12 -44 0 -17 -7
-38 -16 -45 -15 -12 -16 -9 -11 36 3 28 6 51 6 52 1 1 10 4 41 12 2 0 -1 -4
-8 -11z m-131 -12 c11 6 6 -46 -5 -65 -5 -8 -3 -17 5 -22 11 -7 11 -9 1 -9
-10 0 -10 -5 -1 -21 8 -15 8 -24 0 -32 -15 -15 -14 -30 1 -21 7 4 8 3 4 -4 -8
-14 -16 -15 -34 -4 -9 7 -10 15 -3 35 8 20 7 27 -2 27 -8 0 -8 3 2 9 8 5 11
16 7 29 -8 22 4 106 11 84 3 -6 9 -10 14 -6z m1016 -48 c-3 -8 -6 -5 -6 6 -1
11 2 17 5 13 3 -3 4 -12 1 -19z m-1067 -33 c0 -13 -4 -27 -10 -30 -5 -3 -10
-11 -10 -16 0 -6 5 -7 10 -4 6 4 10 -8 10 -29 0 -19 -6 -36 -12 -39 -7 -2 -9
-8 -5 -13 5 -5 15 -1 23 10 7 11 16 17 19 14 4 -3 -4 -14 -17 -24 -15 -13 -22
-27 -20 -43 2 -13 -1 -28 -7 -34 -19 -19 -12 -28 12 -16 18 9 20 9 10 -2 -7
-7 -13 -26 -13 -41 0 -15 -4 -28 -10 -28 -5 0 -10 -5 -10 -11 0 -5 5 -7 10 -4
6 3 10 2 10 -4 0 -5 -8 -12 -19 -16 -13 -4 -17 -12 -13 -30 2 -14 -1 -32 -8
-40 -7 -8 -8 -15 -3 -15 4 0 7 -18 5 -40 -4 -40 12 -75 29 -65 4 3 7 -13 6
-35 -2 -51 -27 -56 -27 -5 0 21 -6 37 -16 43 -11 6 -15 17 -11 31 3 11 1 24
-4 27 -5 3 -9 0 -9 -7 0 -7 -2 -10 -5 -7 -9 8 6 38 16 32 5 -3 6 2 3 10 -3 9
-10 13 -15 10 -15 -9 -10 13 6 30 8 8 16 23 18 33 2 10 9 31 15 46 15 35 16
70 2 62 -5 -3 -11 -21 -11 -38 -2 -31 -2 -31 -6 -4 -3 16 0 34 6 40 13 16 31
97 22 97 -4 0 -13 -6 -21 -12 -8 -7 -7 -4 3 8 13 15 18 42 20 106 1 64 5 84
15 81 6 -3 12 -16 12 -28z m268 5 c0 -16 -4 -30 -9 -30 -5 0 -9 -9 -9 -21 0
-11 3 -18 8 -15 10 6 9 -66 -2 -83 -5 -8 -3 -16 5 -22 8 -5 11 -9 7 -9 -3 0
-13 -2 -21 -5 -12 -5 -13 10 -9 97 4 85 11 115 28 118 1 0 1 -13 2 -30z m-308
-40 c0 -16 -4 -30 -10 -30 -11 0 -14 43 -3 53 11 12 13 8 13 -23z m255 8 c0
-13 -4 -29 -9 -37 -6 -10 -5 -16 2 -19 7 -2 9 -8 6 -14 -9 -14 -11 -97 -3 -92
4 2 7 -48 6 -113 -2 -86 -5 -117 -15 -121 -17 -5 -14 109 2 121 8 5 8 9 0 15
-14 8 -16 62 -3 62 5 0 9 5 9 11 0 6 -6 9 -12 6 -10 -3 -12 19 -10 99 2 74 7
104 16 104 6 0 12 -10 11 -22z m-45 -32 c0 -13 -7 -29 -15 -36 -18 -15 -20
-34 -2 -27 8 3 12 -7 12 -32 0 -20 -6 -40 -12 -44 -7 -4 -13 -13 -13 -19 0 -7
4 -7 13 1 11 9 14 2 15 -33 1 -28 -3 -48 -13 -56 -13 -11 -15 -8 -15 17 0 16
6 35 13 42 10 11 9 13 -5 8 -15 -5 -18 0 -18 38 0 29 4 45 13 46 10 0 10 2 0
6 -17 6 -17 85 -1 101 18 18 28 14 28 -12z m917 -33 c-3 -10 -5 -2 -5 17 0 19
2 27 5 18 2 -10 2 -26 0 -35z m63 43 c0 -3 -4 -8 -10 -11 -5 -3 -10 -1 -10 4
0 6 5 11 10 11 6 0 10 -2 10 -4z m-1190 -61 c0 -19 -5 -35 -11 -35 -6 0 -8 13
-5 33 5 38 5 37 11 37 3 0 5 -16 5 -35z m152 9 c-2 -14 -13 -31 -23 -37 -11
-7 -19 -18 -19 -25 0 -9 5 -9 23 3 23 14 23 14 19 -23 -2 -20 -9 -43 -16 -51
-9 -12 -8 -13 7 -8 18 7 20 1 17 -48 -1 -16 -6 -31 -11 -33 -16 -6 -10 -22 9
-22 15 -1 15 -2 2 -10 -11 -6 -15 -23 -15 -54 1 -31 -3 -47 -13 -51 -21 -8
-30 4 -12 15 10 7 11 10 3 10 -7 0 -13 11 -13 25 0 14 6 25 13 25 8 0 7 4 -3
11 -11 8 -12 12 -2 16 6 2 12 9 12 14 0 6 -4 7 -10 4 -24 -15 -8 45 18 65 18
15 21 20 8 15 -11 -3 -23 0 -29 7 -6 9 -7 8 -3 -4 3 -10 1 -18 -4 -18 -12 0
-13 16 -1 57 6 19 5 35 -1 41 -12 12 7 88 25 95 22 9 24 7 19 -19z m1103 9
c11 -15 15 -15 29 -4 16 14 22 4 8 -14 -10 -14 -65 -12 -70 3 -2 7 1 12 8 12
6 0 8 5 5 10 -11 17 7 11 20 -7z m-1176 -79 c-8 -9 -9 -18 -3 -22 13 -10 17
-59 5 -67 -6 -3 -11 -11 -11 -16 0 -6 6 -7 13 -3 8 5 8 2 -2 -9 -14 -17 -41
-23 -41 -9 0 4 4 23 10 41 7 25 6 39 -3 50 -10 12 -9 13 1 7 10 -6 11 -1 6 19
-4 18 -1 32 12 47 l19 20 3 -21 c2 -12 -2 -29 -9 -37z m995 3 c-9 -24 -24 -11
-24 21 0 24 2 25 15 11 9 -9 13 -23 9 -32z m284 36 c-22 -5 -23 -22 -3 -29 8
-4 15 -12 15 -20 0 -15 -43 -29 -59 -20 -12 8 -3 36 11 36 6 0 8 -7 4 -15 -3
-9 0 -15 10 -15 12 0 12 4 4 20 -13 25 -47 26 -53 3 -3 -10 -5 -5 -6 12 -1 23
-3 27 -11 15 -5 -8 -10 -10 -10 -5 -1 6 -5 0 -10 -12 -12 -31 -35 -29 -36 2
-1 14 2 23 6 20 5 -3 11 -2 13 2 3 5 36 8 74 9 37 1 60 -1 51 -3z m-1366 -78
c-2 -14 -6 -25 -8 -25 -2 0 -4 11 -4 25 0 14 4 25 9 25 4 0 6 -11 3 -25z m318
-85 c0 -91 -3 -110 -15 -110 -12 0 -15 18 -15 98 0 86 8 122 27 122 2 0 3 -49
3 -110z m-226 -82 c-3 -40 -8 -75 -10 -77 -2 -2 5 -10 15 -18 11 -7 22 -23 24
-36 4 -18 5 -17 6 6 0 16 5 26 10 22 19 -11 51 51 52 104 2 37 6 51 16 51 14
0 13 -24 -4 -84 -3 -12 -1 -16 6 -12 6 4 11 3 11 -3 0 -5 -9 -13 -20 -16 -11
-3 -20 -11 -20 -16 0 -14 28 -11 33 4 2 6 2 -13 -1 -43 -3 -30 -10 -58 -16
-62 -8 -6 -6 -11 4 -18 13 -9 13 -11 0 -20 -10 -6 -11 -10 -2 -10 8 0 12 -17
12 -51 0 -31 4 -48 10 -44 6 4 10 60 10 136 0 79 4 129 10 129 6 0 10 -10 11
-22 7 -175 5 -233 -7 -245 -15 -16 -44 -17 -44 -2 0 5 -6 7 -12 2 -7 -4 -29
-8 -48 -8 l-35 -1 3 63 c2 35 8 61 13 57 5 -3 9 0 9 5 0 6 -4 11 -9 11 -6 0
-11 21 -13 48 -3 42 -5 47 -26 45 -22 -3 -22 0 -21 75 1 42 6 83 12 90 21 27
27 9 21 -60z m-63 -11 c-8 -8 -11 -4 -11 14 0 33 14 47 18 19 2 -12 -1 -27 -7
-33z m-224 -39 c-3 -8 -6 -5 -6 6 -1 11 2 17 5 13 3 -3 4 -12 1 -19z m233 -23
c0 -25 -4 -45 -8 -45 -5 0 -9 20 -11 45 -1 26 2 45 9 45 5 0 10 -20 10 -45z
m320 19 c0 -12 3 -30 7 -40 4 -12 3 -15 -5 -10 -7 4 -12 2 -12 -3 0 -6 4 -11
9 -11 4 0 6 -28 4 -62 -5 -74 3 -125 20 -131 7 -2 0 -3 -15 -1 -16 2 -28 -1
-28 -6 0 -5 -15 -9 -32 -8 l-33 1 3 145 c2 96 6 142 13 135 5 -5 11 -26 12
-46 2 -20 6 -39 10 -43 4 -4 2 -14 -5 -21 -9 -11 -9 -19 1 -35 7 -11 8 -17 3
-14 -6 3 -8 -13 -6 -42 2 -26 3 -53 4 -60 0 -7 5 -10 10 -7 6 3 10 40 10 81 0
52 4 74 13 74 9 0 9 2 -1 9 -7 4 -12 12 -11 17 5 29 -2 84 -11 79 -11 -7 -14
8 -4 18 15 14 44 2 44 -19z m-394 -81 c-10 -10 -19 5 -10 18 6 11 8 11 12 0 2
-7 1 -15 -2 -18z m-66 -3 c0 -5 -4 -10 -10 -10 -5 0 -10 5 -10 10 0 6 5 10 10
10 6 0 10 -4 10 -10z m0 -34 c0 -3 -4 -8 -10 -11 -5 -3 -10 -1 -10 4 0 6 5 11
10 11 6 0 10 -2 10 -4z m137 -96 c-2 -28 -6 -40 -17 -40 -12 0 -15 9 -12 40 5
54 31 55 29 0z m381 -112 c0 -33 -5 -48 -14 -48 -10 0 -14 14 -14 48 0 36 4
49 15 49 11 0 14 -12 13 -49z m652 -12 c0 -2 -7 -6 -15 -10 -8 -3 -15 -1 -15
4 0 6 7 10 15 10 8 0 15 -2 15 -4z m-270 -72 c0 -2 -9 -4 -20 -4 -11 0 -20 4
-20 9 0 5 9 7 20 4 11 -3 20 -7 20 -9z m-175 -4 c-3 -6 1 -13 10 -16 39 -15
43 -88 4 -91 -10 -1 -19 2 -19 6 0 13 26 32 33 24 4 -3 7 -1 7 6 0 7 -9 15
-21 18 -12 3 -18 11 -15 19 3 8 1 14 -3 14 -5 0 -11 7 -15 15 -3 9 0 15 10 15
8 0 12 -5 9 -10z m745 -20 c0 -5 6 -8 13 -7 6 2 2 -1 -10 -7 -31 -13 -29 -28
2 -20 15 4 25 2 25 -5 0 -16 -46 -13 -60 4 -9 10 -9 15 -1 15 6 0 11 7 11 15
0 8 5 15 10 15 6 0 10 -4 10 -10z m57 -15 c0 -8 -4 -12 -9 -9 -5 3 -6 10 -3
15 9 13 12 11 12 -6z m-477 -30 c0 -3 -8 -18 -17 -33 -9 -15 -18 -28 -19 -30
0 -1 -8 0 -17 4 -21 8 -10 34 14 34 10 0 18 3 18 8 -3 14 1 22 11 22 6 0 10
-2 10 -5z m915 -5 c3 -5 2 -10 -4 -10 -5 0 -13 5 -16 10 -3 6 -2 10 4 10 5 0
13 -4 16 -10z m-1108 -34 c4 -3 -15 -6 -40 -6 -26 0 -47 4 -47 8 0 9 78 7 87
-2z m669 -20 c21 -21 18 -26 -16 -26 -16 0 -30 5 -30 10 0 6 5 10 11 10 5 0 7
5 4 10 -9 15 15 12 31 -4z m-229 -11 c3 -9 3 -19 -1 -22 -10 -10 -180 -3 -191
8 -5 6 20 7 68 3 66 -6 77 -5 83 10 8 20 33 21 41 1z m277 -10 c-4 -8 -10 -12
-15 -9 -14 8 -10 24 6 24 9 0 12 -6 9 -15z m-81 -32 c-7 -2 -19 -2 -25 0 -7 3
-2 5 12 5 14 0 19 -2 13 -5z"/>
<path d="M1500 2639 c0 -15 5 -19 16 -15 8 3 12 2 9 -4 -3 -6 -1 -10 4 -10 18
0 12 24 -9 38 -18 11 -20 10 -20 -9z"/>
<path d="M1523 2578 c1 -8 -6 -12 -18 -10 -20 4 -20 4 0 -12 28 -22 35 -20 35
9 0 14 -4 25 -10 25 -5 0 -9 -6 -7 -12z"/>
<path d="M1653 2583 c-14 -5 -19 -123 -5 -123 4 0 6 20 5 44 -1 29 3 49 13 57
25 21 17 35 -13 22z"/>
<path d="M1487 2529 c-3 -10 -2 -20 1 -24 3 -3 7 -22 9 -42 1 -20 8 -41 15
-45 10 -7 9 -8 -2 -7 -29 3 -38 -1 -36 -16 3 -22 16 -31 16 -11 0 14 6 17 23
13 20 -5 22 -2 23 33 1 27 -2 37 -11 34 -7 -3 -15 2 -19 11 -4 12 -1 15 13 10
10 -3 26 -3 35 1 17 7 22 34 6 34 -5 0 -10 -7 -10 -16 0 -11 -6 -14 -22 -9
-35 11 -48 29 -15 21 33 -8 35 5 3 20 -21 10 -25 9 -29 -7z"/>
<path d="M1550 2439 c0 -24 4 -38 10 -34 6 3 10 22 10 41 0 19 -4 34 -10 34
-5 0 -10 -18 -10 -41z"/>
<path d="M1642 2385 c0 -16 2 -22 5 -12 2 9 2 23 0 30 -3 6 -5 -1 -5 -18z"/>
<path d="M1550 2380 c0 -5 5 -10 10 -10 6 0 10 5 10 10 0 6 -4 10 -10 10 -5 0
-10 -4 -10 -10z"/>
<path d="M1640 2251 c0 -32 16 -42 26 -16 3 8 -1 22 -10 30 -15 15 -16 14 -16
-14z"/>
<path d="M1742 2198 c5 -32 28 -35 28 -4 0 17 -5 26 -16 26 -10 0 -14 -7 -12
-22z"/>
<path d="M1600 2141 c0 -46 2 -50 32 -60 39 -14 50 -6 14 10 -20 10 -26 19
-26 46 0 18 5 33 10 33 6 0 10 -16 10 -35 0 -36 13 -47 24 -19 13 34 6 52 -25
63 -18 6 -34 11 -35 11 -2 0 -4 -22 -4 -49z"/>
<path d="M1522 2068 c-1 -10 -10 -18 -19 -18 -15 0 -14 -2 3 -16 16 -13 16
-15 2 -10 -10 3 -18 1 -18 -4 0 -11 70 -43 78 -36 7 8 -9 26 -23 26 -9 0 -15
14 -18 38 -2 20 -4 29 -5 20z"/>
<path d="M1636 2014 c-4 -9 -4 -19 -1 -22 2 -3 7 3 11 12 4 9 4 19 1 22 -2 3
-7 -3 -11 -12z"/>
<path d="M1580 1910 c0 -47 2 -51 33 -64 17 -7 34 -11 37 -8 3 3 0 7 -6 9 -9
3 -9 12 -1 32 14 39 3 64 -24 56 -13 -5 -19 -3 -15 3 3 5 -1 12 -9 16 -12 4
-15 -4 -15 -44z m56 4 c-3 -9 -6 -24 -6 -35 0 -10 -4 -19 -8 -19 -4 0 -6 16
-4 35 2 19 9 35 14 35 6 0 7 -7 4 -16z"/>
<path d="M1849 2481 c11 -7 11 -9 0 -13 -7 -2 -10 -11 -6 -21 8 -21 23 -22 31
-1 5 12 2 15 -10 10 -13 -5 -14 -4 -6 7 12 14 6 27 -12 27 -6 0 -5 -4 3 -9z"/>
<path d="M1895 2460 c3 -6 1 -10 -4 -10 -7 0 -11 -24 -11 -60 0 -33 3 -60 8
-60 4 0 7 19 6 43 0 23 5 52 12 64 11 18 11 22 -2 27 -8 3 -12 2 -9 -4z"/>
<path d="M1963 2417 c-1 -7 -4 -31 -8 -54 -5 -30 -4 -43 4 -43 6 0 11 12 10
28 0 15 2 37 4 49 3 13 2 25 -2 27 -4 3 -8 0 -8 -7z"/>
<path d="M1980 2210 c0 -27 5 -50 10 -50 6 0 10 23 10 50 0 28 -4 50 -10 50
-5 0 -10 -22 -10 -50z"/>
<path d="M1522 2305 c0 -16 2 -22 5 -12 2 9 2 23 0 30 -3 6 -5 -1 -5 -18z"/>
<path d="M1272 1800 c0 -14 2 -19 5 -12 2 6 2 18 0 25 -3 6 -5 1 -5 -13z"/>
<path d="M1967 1802 c8 -5 9 -19 4 -44 -6 -27 -5 -38 4 -42 9 -3 14 9 17 40 2
30 -1 45 -10 49 -20 7 -29 6 -15 -3z"/>
<path d="M1522 1805 c0 -16 2 -22 5 -12 2 9 2 23 0 30 -3 6 -5 -1 -5 -18z"/>
<path d="M1600 1766 c0 -40 3 -45 30 -54 28 -10 51 0 30 13 -5 3 -8 16 -4 29
3 14 -1 28 -12 37 -15 13 -16 11 -13 -23 3 -23 1 -34 -6 -32 -6 3 -9 20 -7 39
3 21 0 35 -7 35 -6 0 -11 -18 -11 -44z"/>
<path d="M1544 1705 c-4 -9 -4 -26 -2 -39 4 -19 1 -23 -11 -19 -12 3 -11 0 3
-11 32 -26 41 -19 43 34 2 39 -1 50 -13 50 -8 0 -17 -7 -20 -15z"/>
<path d="M1522 1685 c0 -16 2 -22 5 -12 2 9 2 23 0 30 -3 6 -5 -1 -5 -18z"/>
<path d="M1600 1669 c0 -21 0 -42 -1 -46 0 -5 12 -13 28 -20 29 -11 29 -11 30
28 1 21 -2 39 -8 39 -5 0 -9 6 -9 14 0 7 -9 16 -20 19 -17 4 -20 0 -20 -34z
m32 -18 c2 -24 -1 -37 -7 -34 -9 3 -9 73 0 73 2 0 5 -17 7 -39z"/>
<path d="M1730 1505 c0 -13 5 -27 10 -30 6 -3 10 -2 10 4 0 5 3 16 6 24 3 8
-2 17 -10 20 -12 5 -16 0 -16 -18z"/>
<path d="M1261 854 c0 -11 3 -14 6 -6 3 7 2 16 -1 19 -3 4 -6 -2 -5 -13z"/>
<path d="M1128 654 c-5 -4 -8 -17 -8 -30 0 -12 -6 -25 -12 -27 -10 -4 -9 -8 2
-17 11 -9 12 -13 3 -17 -7 -2 -13 -9 -13 -14 0 -6 5 -7 10 -4 6 4 10 -13 10
-44 0 -30 -5 -51 -11 -51 -6 0 -3 -7 6 -16 9 -9 18 -14 21 -12 2 3 3 58 2 123
-2 64 -6 113 -10 109z"/>
<path d="M1082 500 c0 -14 2 -19 5 -12 2 6 2 18 0 25 -3 6 -5 1 -5 -13z"/>
<path d="M1371 2534 c0 -11 3 -14 6 -6 3 7 2 16 -1 19 -3 4 -6 -2 -5 -13z"/>
<path d="M1322 2450 c0 -14 2 -19 5 -12 2 6 2 18 0 25 -3 6 -5 1 -5 -13z"/>
<path d="M1882 2030 c4 -43 3 -43 -27 -30 -11 5 -14 9 -7 9 14 1 17 51 3 51
-5 0 -7 -8 -4 -19 3 -10 0 -22 -6 -25 -18 -11 -13 -23 13 -30 13 -3 30 -8 38
-11 10 -4 13 6 13 40 0 29 -5 47 -13 50 -11 4 -13 -4 -10 -35z"/>
<path d="M1434 1894 c3 -9 6 -21 7 -27 0 -7 4 -3 8 8 9 22 5 35 -11 35 -5 0
-7 -7 -4 -16z"/>
<path d="M1440 1840 c-11 -49 -1 -80 25 -80 6 0 5 4 -2 8 -6 4 -13 25 -16 47
-2 22 -5 33 -7 25z"/>
<path d="M1397 1814 c-3 -3 -3 -12 0 -20 3 -8 -2 -23 -10 -32 -16 -18 -20 -65
-4 -55 4 3 6 8 3 11 -3 3 1 14 11 24 18 20 26 65 14 73 -5 2 -11 2 -14 -1z"/>
<path d="M1830 1742 c0 -5 10 -12 23 -15 12 -2 30 -8 40 -12 9 -4 17 -3 17 3
0 5 -11 13 -24 16 -13 3 -31 9 -40 12 -9 3 -16 2 -16 -4z"/>
<path d="M1442 1720 c0 -14 2 -19 5 -12 2 6 2 18 0 25 -3 6 -5 1 -5 -13z"/>
<path d="M1870 1687 c0 -14 7 -28 16 -31 12 -5 15 0 12 21 -4 35 -28 43 -28
10z"/>
<path d="M1860 1640 c20 -13 43 -13 35 0 -3 6 -16 10 -28 10 -18 0 -19 -2 -7
-10z"/>
<path d="M1048 1611 c-7 -12 -32 -33 -55 -46 -44 -26 -58 -52 -48 -85 8 -26
-36 -46 -65 -28 -14 9 -24 9 -42 0 -20 -11 -20 -11 -2 -7 30 8 57 -4 44 -19
-7 -9 -2 -11 20 -8 17 2 33 8 36 13 10 16 44 10 38 -6 -4 -8 -1 -15 5 -15 6 0
11 4 11 9 0 5 9 13 20 16 30 10 24 26 -6 19 -18 -5 -25 -3 -20 4 3 6 -4 14
-16 18 -21 6 -21 7 -3 20 10 8 13 14 7 14 -22 0 -12 18 13 24 30 8 65 40 65
60 0 8 6 16 13 19 6 2 9 8 5 12 -4 4 -13 -3 -20 -14z"/>
<path d="M1870 1581 c0 -22 -6 -42 -12 -45 -7 -3 -2 -4 12 -3 22 2 25 7 26 39
1 23 -4 39 -12 42 -10 4 -14 -5 -14 -33z"/>
<path d="M1442 1575 c0 -16 2 -22 5 -12 2 9 2 23 0 30 -3 6 -5 -1 -5 -18z"/>
<path d="M1486 1580 c7 -26 21 -47 28 -39 11 12 16 49 7 49 -6 0 -11 -5 -11
-12 0 -6 -7 -3 -16 8 -14 18 -15 18 -8 -6z"/>
<path d="M520 1579 c0 -5 8 -9 18 -9 9 0 26 -7 36 -15 30 -22 42 -18 16 5 -13
11 -26 20 -29 21 -3 0 -14 2 -23 4 -10 2 -18 -1 -18 -6z"/>
<path d="M1395 1580 c-3 -5 -1 -10 4 -10 6 0 11 5 11 10 0 6 -2 10 -4 10 -3 0
-8 -4 -11 -10z"/>
<path d="M1540 1554 c0 -14 4 -23 10 -19 6 3 10 15 10 26 0 10 -4 19 -10 19
-5 0 -10 -12 -10 -26z"/>
<path d="M1632 1535 c0 -16 2 -22 5 -12 2 9 2 23 0 30 -3 6 -5 -1 -5 -18z"/>
<path d="M2075 1553 c-11 -3 -24 -9 -29 -14 -10 -9 92 -2 107 8 4 2 7 -7 7
-21 0 -14 -6 -26 -12 -26 -9 0 -8 -3 2 -10 18 -11 34 22 25 51 -6 19 -50 24
-100 12z"/>
<path d="M195 1530 c-3 -5 -2 -10 4 -10 5 0 13 5 16 10 3 6 2 10 -4 10 -5 0
-13 -4 -16 -10z"/>
<path d="M485 1530 c3 -5 11 -10 16 -10 6 0 7 5 4 10 -3 6 -11 10 -16 10 -6 0
-7 -4 -4 -10z"/>
<path d="M1430 1537 c0 -4 17 -11 38 -17 74 -22 147 -42 171 -46 14 -3 28 -7
33 -10 4 -3 8 -3 8 1 0 8 -50 27 -84 31 -17 3 -33 9 -36 14 -4 6 -22 12 -41
14 -19 2 -46 7 -61 11 -16 4 -28 5 -28 2z"/>
<path d="M2235 1529 c-15 -6 -10 -7 19 -4 22 3 45 0 53 -6 11 -10 12 -9 7 5
-7 18 -46 20 -79 5z"/>
<path d="M560 1515 c-10 -13 -9 -15 9 -15 11 0 21 4 21 9 0 18 -18 21 -30 6z"/>
<path d="M2080 1509 c0 -5 5 -7 10 -4 6 3 10 8 10 11 0 2 -4 4 -10 4 -5 0 -10
-5 -10 -11z"/>
<path d="M2180 1499 c0 -5 5 -7 10 -4 6 3 10 8 10 11 0 2 -4 4 -10 4 -5 0 -10
-5 -10 -11z"/>
<path d="M1447 1489 c7 -7 15 -10 18 -7 3 3 -2 9 -12 12 -14 6 -15 5 -6 -5z"/>
<path d="M1382 1465 c0 -16 2 -22 5 -12 2 9 2 23 0 30 -3 6 -5 -1 -5 -18z"/>
<path d="M2195 1480 c-3 -5 1 -10 9 -10 9 0 16 5 16 10 0 6 -4 10 -9 10 -6 0
-13 -4 -16 -10z"/>
<path d="M2246 1464 c-17 -12 -17 -14 -4 -14 9 0 20 5 23 11 11 17 2 18 -19 3z"/>
<path d="M766 1455 c-11 -8 -17 -17 -14 -20 5 -5 68 23 68 31 0 10 -36 2 -54
-11z"/>
<path d="M1455 1458 c-3 -7 -6 -57 -8 -110 -2 -54 -6 -100 -10 -104 -7 -8 17
-34 32 -34 8 0 7 -7 -1 -20 -12 -18 -13 -19 -20 -2 -5 12 -7 8 -5 -13 3 -39
37 -49 37 -11 0 38 20 42 21 4 l1 -33 13 30 c13 28 14 21 15 -81 l0 -112 -37
9 c-21 5 -41 9 -45 9 -5 0 -8 9 -8 19 0 14 5 18 19 14 15 -4 19 2 23 32 4 32
2 36 -16 33 -12 -2 -22 -12 -24 -23 -2 -11 -5 -26 -7 -33 -3 -7 -4 -15 -4 -18
0 -4 -5 -11 -13 -15 -10 -7 -9 -9 5 -9 14 0 17 -9 17 -55 0 -54 0 -55 -30 -55
l-30 0 3 125 c1 69 -1 125 -5 125 -5 0 -8 -60 -8 -133 l0 -133 35 4 35 4 0
-64 c0 -66 10 -88 42 -88 14 0 16 -6 12 -30 -4 -19 -2 -30 5 -30 6 0 11 14 11
30 0 17 5 30 11 30 11 0 11 -76 2 -207 l-5 -71 -47 -4 -46 -3 -3 58 c-3 52 7
73 23 47 3 -6 2 -10 -2 -10 -5 0 -10 -11 -11 -24 -1 -18 4 -25 23 -28 23 -5
25 -3 25 37 0 40 -2 43 -30 47 -25 4 -31 1 -35 -16 -6 -28 -8 -54 -6 -97 l1
-37 45 6 c32 3 45 1 45 -8 0 -7 9 -1 20 12 17 22 20 44 22 164 l3 139 25 -2
c14 -1 19 0 13 3 -8 4 -13 27 -13 66 0 51 2 59 18 56 11 -2 16 -11 14 -26 -2
-12 2 -22 7 -22 7 0 12 29 12 73 1 58 3 65 9 37 l7 -35 2 33 c0 17 6 32 11 32
7 0 8 -13 5 -34 -6 -27 -3 -34 12 -38 15 -4 18 2 20 29 1 18 -3 33 -9 33 -6 0
-9 2 -6 5 3 3 13 3 22 -1 14 -5 16 -21 13 -110 -2 -113 -3 -114 -64 -98 -23 6
-33 44 -13 44 6 0 10 15 9 33 l-1 32 -10 -32 c-6 -18 -15 -33 -19 -33 -15 0
-10 -40 6 -46 8 -4 12 -10 9 -15 -3 -5 -10 -7 -15 -4 -5 4 -9 -7 -9 -24 0 -19
-8 -35 -21 -45 l-21 -15 30 -32 c16 -17 35 -29 41 -25 18 11 13 26 -9 26 -16
0 -20 7 -20 31 0 26 3 29 20 24 17 -6 20 -2 20 30 0 20 4 34 8 31 5 -3 7 -19
4 -37 -3 -22 -1 -30 7 -25 6 4 11 18 11 32 0 13 3 24 8 24 4 0 6 -62 4 -137
-2 -106 0 -135 9 -126 7 7 11 43 12 87 0 52 3 76 11 76 14 0 16 -133 4 -146
-16 -15 -7 -24 12 -12 18 12 20 24 20 133 0 77 4 125 11 132 7 7 9 22 4 40
l-8 28 -6 -24 c-12 -44 -26 -32 -29 25 -2 32 1 54 6 50 5 -3 7 10 3 32 -7 44
-8 72 -1 72 3 0 15 -3 28 -6 25 -7 30 -41 7 -50 -17 -7 -21 -74 -5 -74 6 0 10
16 10 35 0 25 4 33 14 29 8 -3 14 1 13 8 -1 34 4 48 18 48 12 0 15 -18 15
-105 l0 -105 -30 0 c-28 0 -30 -2 -30 -41 0 -24 4 -38 10 -34 5 3 10 17 10 31
0 13 5 24 10 24 6 0 10 -27 10 -61 0 -57 1 -60 23 -57 12 2 25 8 30 13 4 6 11
4 17 -5 7 -12 3 -18 -22 -28 -26 -11 -32 -11 -39 0 -5 8 -8 -4 -8 -32 0 -25 3
-40 5 -34 3 7 14 10 24 7 11 -3 18 -8 16 -12 -3 -4 4 -7 15 -7 21 0 25 12 7
19 -7 3 -4 6 7 6 12 1 16 4 9 9 -8 5 -2 16 17 35 19 18 29 23 29 14 0 -8 -7
-20 -15 -27 -19 -16 -19 -30 1 -30 8 0 12 5 9 11 -4 6 2 13 14 16 21 5 30 33
10 33 -5 0 -7 5 -3 11 4 8 9 7 15 -2 4 -7 11 -10 16 -6 13 13 -14 23 -56 20
-22 -1 -43 3 -47 8 -3 5 -14 7 -25 4 -10 -4 -23 -4 -28 0 -14 8 -2 35 16 35
13 0 13 3 3 15 -7 8 -16 12 -21 9 -5 -3 -9 5 -9 18 0 21 4 24 31 22 32 -2 54
-14 27 -14 -11 0 -14 -6 -11 -20 7 -25 25 -21 33 7 4 16 10 18 25 12 17 -6 17
-8 3 -8 -10 -1 -18 -5 -18 -10 0 -5 10 -7 22 -3 13 3 19 1 15 -5 -4 -7 4 -8
25 -4 35 7 49 41 17 41 -11 0 -28 6 -39 12 -14 9 -23 10 -28 3 -11 -16 -38
-11 -33 5 3 8 6 42 6 75 3 100 5 115 15 115 5 0 7 -13 4 -29 -4 -16 -1 -32 5
-35 7 -4 11 0 11 11 0 11 7 28 15 39 13 18 14 17 15 -18 0 -21 -5 -38 -10 -38
-14 0 10 -26 25 -28 38 -3 66 -10 72 -15 9 -9 33 -9 33 1 0 4 -10 12 -22 17
-16 7 -22 17 -20 35 3 31 8 35 26 21 24 -20 97 13 96 43 0 6 -6 4 -13 -5 -20
-26 -58 -42 -70 -30 -28 28 -74 -8 -60 -46 6 -14 -6 -16 -31 -7 -11 4 -16 18
-15 43 l2 36 6 -35 7 -35 13 25 c8 14 21 29 29 34 12 7 12 10 1 17 -19 12 -31
11 -23 -2 5 -8 1 -8 -14 0 -11 6 -33 11 -49 11 -43 0 -73 11 -73 26 0 8 6 14
14 14 9 0 16 13 19 33 3 28 4 26 5 -10 2 -55 17 -56 17 -2 0 36 -2 41 -27 46
-19 4 -28 12 -28 25 0 14 5 18 15 14 11 -4 15 2 15 25 0 41 -19 33 -36 -16
-11 -33 -11 -42 -1 -50 9 -7 11 -21 6 -43 -8 -41 -13 -46 -36 -38 -15 6 -15 8
-3 16 12 7 12 12 2 22 -7 7 -12 41 -12 89 0 74 1 78 21 74 16 -3 18 -1 10 9
-6 7 -8 15 -5 18 9 10 5 201 -4 207 -5 3 -11 12 -13 19 -2 6 -2 -44 0 -113 3
-107 1 -125 -12 -125 -37 0 -47 12 -47 58 0 53 8 53 12 -1 3 -51 13 -46 15 8
1 33 -2 45 -13 45 -10 0 -14 14 -14 57 0 31 -3 54 -6 50 -3 -3 -6 -43 -6 -88
1 -53 -4 -92 -14 -110 -7 -15 -14 -44 -14 -64 0 -24 -4 -35 -15 -35 -20 0 -21
85 -2 93 18 7 20 222 3 235 -6 5 -24 12 -39 16 -18 4 -25 11 -20 19 4 8 1 7
-10 -2 -16 -12 -22 -8 -18 12 1 5 -4 5 -10 2 -8 -5 -8 -10 0 -18 6 -6 12 -29
13 -51 l1 -41 4 38 c6 50 21 47 25 -5 3 -48 28 -66 28 -21 0 16 -5 34 -11 40
-9 9 -7 12 10 10 20 -1 21 -6 21 -115 0 -103 -2 -113 -17 -108 -10 3 -30 8
-45 12 l-28 6 -2 112 c-1 61 -3 90 -5 64 -3 -33 -9 -48 -21 -51 -15 -4 -15 -5
1 -6 16 -1 18 -9 16 -62 -2 -44 1 -63 12 -69 11 -8 11 -12 -5 -23 -22 -16 -16
-47 9 -47 9 0 15 9 15 24 0 38 20 42 21 4 2 -30 2 -31 6 -5 7 46 23 30 23 -23
0 -38 -4 -50 -15 -50 -10 0 -15 -11 -15 -35 0 -19 -5 -35 -11 -35 -7 0 -10 13
-7 34 3 30 0 36 -19 41 -15 3 -23 13 -23 28 -1 21 -1 21 -12 3 -8 -15 -8 -22
4 -30 17 -13 8 -74 -14 -87 -10 -7 -10 -9 0 -9 7 0 10 -4 7 -10 -3 -5 1 -10
10 -10 24 0 17 -83 -8 -88 -11 -2 -17 2 -15 15 3 41 -3 74 -12 68 -6 -3 -10
-51 -10 -110 l0 -103 -42 5 c-24 3 -45 8 -48 10 -9 8 -9 223 0 223 5 0 7 -13
4 -30 -4 -19 -2 -30 5 -30 6 0 11 11 11 25 0 14 5 25 11 25 7 0 10 -12 7 -30
-3 -19 0 -31 10 -35 21 -8 22 -7 22 19 0 14 7 32 16 40 8 9 12 16 7 16 -5 0
-9 27 -10 60 -1 50 1 60 15 60 11 0 13 3 6 8 -6 4 -13 26 -15 49 -4 38 -2 43
20 48 15 4 20 9 14 13 -6 4 -11 14 -11 22 4 63 -5 202 -11 185 -4 -11 -7 -63
-7 -116 l2 -95 -48 9 -48 10 2 121 c1 66 3 102 5 79 2 -24 9 -43 14 -43 6 0 7
14 3 35 -4 23 -2 35 5 35 6 0 11 -17 11 -39 0 -26 5 -41 15 -45 17 -6 20 0 29
50 5 29 2 32 -33 43 -48 14 -51 14 -56 -1z m85 -24 c0 -2 -7 -4 -15 -4 -8 0
-15 4 -15 10 0 5 7 7 15 4 8 -4 15 -8 15 -10z m231 -316 c1 -18 1 -38 0 -45
-1 -6 2 -14 7 -17 4 -2 9 6 10 18 1 13 6 34 11 47 7 18 10 -5 10 -85 1 -108 1
-108 -21 -102 -13 3 -26 6 -30 6 -11 0 -8 210 3 210 5 0 10 -15 10 -32z m-41
-118 c0 -44 -4 -60 -14 -60 -9 0 -13 16 -14 60 0 45 3 60 14 60 10 0 14 -15
14 -60z m-40 -1 c0 -48 -1 -51 -22 -45 -13 3 -33 6 -45 6 -17 0 -23 6 -23 21
0 16 4 19 18 14 36 -15 47 -11 50 23 5 51 22 37 22 -19z m181 -89 c12 -7 19
-20 18 -38 -1 -17 -3 -20 -6 -9 -8 29 -20 19 -15 -13 3 -18 0 -30 -7 -30 -6 0
-11 15 -11 34 0 19 -3 41 -6 50 -7 19 0 20 27 6z m-1 -150 c0 -27 -4 -50 -9
-50 -6 0 -10 23 -9 50 0 28 4 50 9 50 5 0 9 -22 9 -50z m17 -7 c-3 -10 -5 -4
-5 12 0 17 2 24 5 18 2 -7 2 -21 0 -30z m-155 -65 c-4 -13 -7 -35 -6 -50 0
-16 -4 -28 -10 -28 -7 0 -12 21 -13 50 -2 43 0 50 17 50 16 0 18 -4 12 -22z
m258 -18 c12 -8 9 -10 -13 -10 -16 0 -26 4 -22 10 8 12 16 12 35 0z m-80 -120
c0 -5 -5 -10 -11 -10 -5 0 -7 5 -4 10 3 6 8 10 11 10 2 0 4 -4 4 -10z m-40
-31 c0 -15 -5 -20 -22 -17 -12 2 -23 10 -25 18 -4 13 -3 13 6 0 9 -13 11 -13
11 3 0 9 7 17 15 17 9 0 15 -9 15 -21z"/>
<path d="M1770 1001 c0 -44 19 -58 22 -16 0 14 1 30 2 37 1 6 -5 13 -11 16 -9
2 -13 -9 -13 -37z"/>
<path d="M2166 1455 c4 -8 11 -15 16 -15 6 0 5 6 -2 15 -7 8 -14 15 -16 15 -2
0 -1 -7 2 -15z"/>
<path d="M2078 1443 c6 -2 12 -15 12 -28 0 -17 7 -24 31 -29 19 -4 38 -1 46 6
11 9 16 9 23 -1 5 -9 9 -10 14 -2 4 6 12 9 17 6 5 -4 9 -1 9 5 0 8 -19 10 -65
5 -45 -5 -65 -4 -65 4 0 6 4 11 9 11 5 0 11 7 15 15 4 12 -2 15 -27 14 -18 0
-26 -3 -19 -6z"/>
<path d="M1340 1406 c0 -20 5 -36 10 -36 6 0 10 13 10 29 0 17 -4 33 -10 36
-6 4 -10 -8 -10 -29z"/>
<path d="M1815 1430 c6 -9 71 -30 90 -29 11 0 -27 17 -68 29 -16 5 -25 5 -22
0z"/>
<path d="M2145 1430 c-3 -5 -1 -10 4 -10 6 0 11 5 11 10 0 6 -2 10 -4 10 -3 0
-8 -4 -11 -10z"/>
<path d="M2981 1419 c-12 -20 -24 -119 -14 -119 2 0 11 7 20 15 12 12 13 19 3
30 -10 12 -10 15 1 15 11 0 11 2 -1 10 -13 9 -13 10 0 10 12 0 13 2 1 9 -10 6
-10 10 -1 13 7 2 11 12 9 21 -4 16 -6 15 -18 -4z"/>
<path d="M810 1420 c-13 -8 -13 -10 2 -10 9 0 20 5 23 10 8 13 -5 13 -25 0z"/>
<path d="M2228 1423 c7 -3 16 -2 19 1 4 3 -2 6 -13 5 -11 0 -14 -3 -6 -6z"/>
<path d="M730 1410 c0 -5 7 -7 15 -4 8 4 15 8 15 10 0 2 -7 4 -15 4 -8 0 -15
-4 -15 -10z"/>
<path d="M1370 1410 c0 -6 7 -10 15 -10 8 0 15 2 15 4 0 2 -7 6 -15 10 -8 3
-15 1 -15 -4z"/>
<path d="M1796 1388 c5 -8 2 -9 -10 -5 -9 4 -15 3 -12 -1 3 -5 6 -30 7 -56 3
-56 17 -73 16 -18 -1 20 3 49 7 65 6 18 5 27 -4 27 -6 0 -8 -5 -4 -12z"/>
<path d="M758 1378 c-9 -5 -4 -8 15 -8 15 0 27 4 27 8 0 11 -25 11 -42 0z"/>
<path d="M865 1372 c-4 -10 0 -12 11 -8 8 3 30 6 46 6 41 0 29 11 -16 14 -23
2 -37 -2 -41 -12z"/>
<path d="M2938 1370 c-11 -38 -10 -56 3 -43 6 6 9 23 7 39 l-3 29 -7 -25z"/>
<path d="M1320 1355 c0 -9 6 -12 15 -9 8 4 12 10 9 15 -8 14 -24 10 -24 -6z"/>
<path d="M1475 1360 c-3 -5 -1 -10 4 -10 6 0 11 5 11 10 0 6 -2 10 -4 10 -3 0
-8 -4 -11 -10z"/>
<path d="M950 1350 c0 -5 14 -10 30 -10 17 0 30 4 30 8 0 4 -13 9 -30 10 -16
1 -30 -2 -30 -8z"/>
<path d="M1500 1350 c0 -4 9 -10 20 -13 11 -3 20 -2 20 3 0 4 -9 10 -20 13
-11 3 -20 2 -20 -3z"/>
<path d="M1960 1296 c0 -60 1 -64 25 -68 24 -5 36 7 14 14 -7 2 -7 13 1 33 20
52 20 63 0 58 -10 -3 -21 1 -25 8 -6 8 -4 10 5 4 9 -5 11 -4 6 3 -17 27 -26 8
-26 -52z m33 16 c-6 -4 -13 -21 -16 -37 -4 -27 -4 -27 -6 8 -1 29 3 37 17 37
11 0 13 -3 5 -8z"/>
<path d="M2912 1338 c-1 -10 -11 -22 -22 -28 -11 -6 -27 -27 -35 -46 -12 -29
-19 -35 -32 -29 -10 5 -35 9 -55 9 -21 1 -38 5 -38 9 0 5 -6 5 -12 1 -13 -8
-19 -9 -95 -12 -24 -1 -43 -7 -43 -13 0 -8 36 -9 122 -3 l121 7 -27 -36 c-33
-43 -38 -45 -143 -45 l-83 0 -1 51 c0 38 -3 47 -9 32 -5 -11 -9 -37 -9 -58
l-1 -38 105 3 105 3 0 -43 c0 -43 0 -43 -29 -37 -17 3 -32 2 -36 -4 -4 -7 7
-11 29 -11 32 0 36 -3 36 -26 0 -36 -19 -50 -67 -49 -24 0 -43 -4 -43 -8 0 -5
21 -7 48 -6 68 4 64 -15 -5 -22 l-58 -6 61 -1 61 -2 1 -39 2 -40 -51 1 c-28 0
-53 -3 -56 -6 -4 -3 19 -6 50 -6 43 0 57 -4 57 -15 0 -12 -29 -14 -180 -14
-104 0 -182 5 -186 10 -3 5 -15 7 -25 4 -11 -4 -25 -2 -32 3 -18 15 -29 15
-38 0 -8 -13 -12 -14 -45 -17 -8 0 -13 -5 -10 -10 3 -5 20 -6 37 -2 40 8 109
2 109 -10 0 -5 -11 -9 -25 -9 -15 0 -24 -5 -22 -12 1 -8 -7 -12 -19 -11 -17 2
-21 -2 -17 -16 4 -16 9 -17 34 -8 16 7 27 17 25 23 -3 7 4 14 14 17 12 3 20
-2 23 -14 3 -13 11 -17 21 -13 29 11 18 -30 -12 -44 -49 -24 -59 -27 -44 -11
14 16 16 43 2 34 -6 -4 -8 -11 -5 -16 4 -5 -1 -9 -10 -9 -10 0 -14 5 -9 13 6
9 4 9 -6 0 -12 -11 -10 -16 7 -33 21 -19 21 -19 48 1 15 12 41 21 63 22 20 0
29 2 20 4 -21 5 -23 23 -5 42 10 11 9 13 -5 8 -13 -4 -16 -1 -13 14 3 13 0 19
-8 16 -7 -3 -11 -10 -9 -16 3 -17 -25 -13 -32 4 -6 17 -20 16 186 18 99 1 158
-2 159 -8 5 -43 -4 -212 -12 -221 -5 -6 -30 -12 -56 -12 -25 -1 -48 -4 -51 -6
-2 -3 -14 0 -26 6 -19 10 -20 9 -8 -5 7 -8 21 -15 30 -15 38 1 117 -15 124
-26 7 -10 12 -1 9 17 0 4 4 7 9 7 6 0 10 -4 10 -8 0 -12 -36 -43 -42 -37 -3 3
-18 1 -33 -5 -20 -8 -38 -7 -64 2 -20 6 -41 12 -48 12 -7 1 -19 10 -27 21 -9
11 -16 15 -16 8 0 -18 31 -45 46 -39 8 3 14 1 14 -4 0 -6 8 -10 18 -10 14 0
15 -2 2 -10 -11 -7 -7 -10 17 -10 17 0 34 -4 37 -9 3 -4 17 -6 31 -3 19 3 23
8 16 15 -19 19 -12 26 27 22 l37 -3 3 79 c2 51 0 79 -7 79 -6 0 -11 -19 -11
-44 0 -31 -5 -46 -16 -50 -27 -10 -40 -6 -22 8 12 9 18 29 19 69 1 32 6 57 11
57 4 0 8 -7 8 -15 0 -8 5 -15 10 -15 6 0 10 9 10 20 0 11 -5 20 -11 20 -7 0
-10 23 -7 65 1 36 1 67 -2 68 -3 2 1 2 8 1 6 -2 12 1 12 6 0 6 -5 10 -11 10
-8 0 -8 5 1 15 7 8 10 30 8 50 -2 19 1 36 7 38 5 3 7 8 3 12 -15 16 -27 -8
-23 -43 4 -31 3 -33 -5 -14 -16 37 -16 252 -1 252 5 0 7 -42 6 -92 -3 -82 -2
-91 11 -74 14 19 14 19 14 -2 0 -15 5 -20 15 -16 8 4 15 10 15 16 0 5 -4 6
-10 3 -5 -3 -10 -1 -10 4 0 6 4 11 9 11 6 0 9 22 9 48 -1 50 7 76 22 67 5 -3
11 3 14 12 3 10 22 28 41 41 21 13 33 27 29 34 -5 8 -10 6 -18 -4 -6 -8 -17
-13 -25 -10 -10 3 -12 0 -8 -11 3 -9 -1 -18 -10 -21 -23 -9 -28 0 -15 29 7 15
8 25 2 25 -6 0 -10 9 -10 20 0 11 5 20 10 20 6 0 10 15 11 33 0 26 2 28 9 12
4 -11 5 -33 2 -50 -5 -28 -5 -29 12 -13 13 14 16 31 13 75 -2 32 -4 50 -5 41z
m-63 -172 c1 -40 -2 -55 -14 -59 -8 -4 -15 -16 -15 -28 0 -12 -3 -19 -7 -16
-11 11 -3 128 10 143 20 22 23 16 26 -40z m-33 -139 c1 -9 -3 -17 -10 -17 -6
0 -12 9 -13 21 -2 24 19 21 23 -4z m-101 -495 c-3 -3 -11 0 -18 7 -9 10 -8 11
6 5 10 -3 15 -9 12 -12z m-14 -85 c-10 -9 -11 -8 -5 6 3 10 9 15 12 12 3 -3 0
-11 -7 -18z"/>
<path d="M2827 1164 c-4 -4 -7 -17 -7 -28 1 -19 1 -20 11 -3 11 19 8 43 -4 31z"/>
<path d="M1344 1334 c-6 -2 -8 -18 -6 -34 2 -17 -1 -37 -8 -45 -7 -9 -9 -19
-5 -23 4 -4 10 -1 12 6 3 6 8 10 12 8 4 -3 8 17 10 45 1 27 1 49 -1 48 -2 0
-8 -3 -14 -5z"/>
<path d="M1472 1293 c1 -37 1 -37 5 -5 5 40 23 42 23 2 0 -38 27 -41 36 -5 8
31 8 31 -33 40 -33 7 -33 6 -31 -32z"/>
<path d="M2070 1313 c0 -8 8 -17 18 -20 14 -3 17 -12 14 -39 -3 -21 0 -34 7
-34 10 0 12 6 15 43 1 6 5 15 10 19 6 4 -3 10 -18 14 -17 4 -23 9 -16 14 8 5
5 9 -9 13 -14 3 -21 0 -21 -10z"/>
<path d="M1660 1308 c0 -4 9 -8 20 -8 11 0 20 4 20 8 0 4 -9 8 -20 8 -11 0
-20 -4 -20 -8z"/>
<path d="M2930 1255 c0 -31 5 -47 15 -51 19 -8 20 -54 1 -54 -17 0 -28 -42
-20 -75 4 -15 2 -25 -5 -25 -6 0 -11 14 -11 32 0 17 -2 29 -5 26 -3 -2 -6 -54
-8 -114 -2 -60 -7 -117 -12 -127 -6 -13 -4 -16 9 -11 10 4 15 13 12 20 -3 8 3
20 14 26 11 7 20 23 20 36 0 14 -4 21 -11 17 -6 -4 -8 -13 -5 -21 3 -8 1 -14
-4 -14 -15 0 -12 26 5 40 10 8 15 30 15 61 0 26 5 51 10 54 6 3 10 -2 11 -12
0 -14 2 -14 9 5 5 12 14 22 20 22 5 0 10 5 10 11 0 8 -4 8 -13 0 -11 -9 -13 7
-11 92 2 74 0 95 -7 77 -6 -14 -8 -32 -6 -42 3 -11 0 -15 -10 -11 -11 5 -14
15 -9 44 4 24 2 39 -4 39 -5 0 -10 -20 -10 -45z m35 -133 c-5 -4 -10 -13 -10
-21 0 -8 -6 -16 -12 -18 -8 -3 -13 4 -13 15 0 23 8 32 29 32 9 0 12 -3 6 -8z
m-38 -112 c2 -11 -2 -20 -7 -20 -5 0 -9 11 -8 25 3 27 10 25 15 -5z"/>
<path d="M1631 1259 c2 -31 2 -31 6 -6 6 39 23 33 23 -8 0 -46 26 -48 33 -2 6
38 8 35 -31 43 -31 6 -32 6 -31 -27z"/>
<path d="M1380 1245 c0 -8 4 -15 10 -15 5 0 7 7 4 15 -4 8 -8 15 -10 15 -2 0
-4 -7 -4 -15z"/>
<path d="M1485 1240 c3 -5 18 -10 32 -10 32 0 28 5 -10 14 -19 4 -26 3 -22 -4z"/>
<path d="M1960 1176 c0 -44 1 -46 28 -46 18 0 23 3 14 9 -10 6 -11 13 -1 34
14 30 13 32 -18 41 -22 7 -23 4 -23 -38z m17 -13 c-3 -10 -5 -2 -5 17 0 19 2
27 5 18 2 -10 2 -26 0 -35z"/>
<path d="M2911 1204 c0 -11 3 -14 6 -6 3 7 2 16 -1 19 -3 4 -6 -2 -5 -13z"/>
<path d="M1376 1192 c-2 -4 -1 -14 5 -22 7 -12 9 -10 9 8 0 23 -5 28 -14 14z"/>
<path d="M1337 1183 c-4 -3 -7 -15 -7 -26 0 -11 -7 -29 -17 -39 -15 -17 -15
-18 0 -18 10 0 17 5 17 11 0 5 4 8 8 5 5 -3 9 13 10 35 3 39 1 45 -11 32z"/>
<path d="M2100 1151 c0 -16 6 -34 14 -40 12 -10 13 -9 9 7 -2 11 0 29 6 41 10
18 9 21 -9 21 -15 0 -20 -7 -20 -29z"/>
<path d="M2273 1163 c9 -2 23 -2 30 0 6 3 -1 5 -18 5 -16 0 -22 -2 -12 -5z"/>
<path d="M2456 1159 c3 -5 12 -9 21 -9 19 0 9 13 -12 16 -8 1 -13 -2 -9 -7z"/>
<path d="M2210 1123 c0 -43 5 -41 13 5 4 18 2 32 -3 32 -6 0 -10 -16 -10 -37z"/>
<path d="M2310 1142 c0 -7 -16 -12 -40 -12 -27 0 -39 -4 -37 -12 3 -17 18 -28
37 -27 10 0 8 3 -5 9 -17 7 -15 9 11 9 29 1 53 25 39 39 -3 3 -5 0 -5 -6z"/>
<path d="M1431 1131 c-1 -8 -7 -11 -18 -7 -14 6 -13 2 4 -15 26 -27 33 -24 22
11 -4 14 -7 19 -8 11z"/>
<path d="M1475 1120 c-16 -7 -14 -9 13 -7 17 1 32 5 32 9 0 10 -19 9 -45 -2z"/>
<path d="M2563 1123 c-13 -3 -23 -12 -23 -21 0 -13 2 -14 9 -4 4 7 17 14 29
15 11 0 18 5 16 9 -3 4 -6 7 -7 7 -1 -1 -12 -4 -24 -6z"/>
<path d="M2643 1113 c20 -2 54 -2 75 0 20 2 3 4 -38 4 -41 0 -58 -2 -37 -4z"/>
<path d="M1635 1090 c-19 -8 -19 -9 2 -9 12 -1 25 4 28 9 7 12 -2 12 -30 0z"/>
<path d="M2571 1089 c20 -12 182 -12 174 1 -3 5 -47 9 -97 9 -59 0 -86 -4 -77
-10z"/>
<path d="M1310 1079 c-13 -9 -12 -10 3 -5 14 4 17 -1 17 -29 0 -19 5 -35 10
-35 6 0 10 18 10 40 0 41 -11 50 -40 29z"/>
<path d="M1501 1053 c0 -31 2 -34 9 -18 12 28 12 55 0 55 -5 0 -10 -17 -9 -37z"/>
<path d="M2433 1083 c9 -2 23 -2 30 0 6 3 -1 5 -18 5 -16 0 -22 -2 -12 -5z"/>
<path d="M2858 1073 c0 -10 -2 -56 -4 -103 -1 -47 -2 -95 -3 -107 -1 -16 -6
-21 -16 -17 -9 4 -15 0 -15 -8 0 -8 7 -15 15 -15 8 0 15 4 15 9 0 5 5 6 12 2
7 -4 8 -3 4 5 -4 6 -3 17 3 24 12 15 12 155 0 163 -5 3 -2 15 6 28 14 21 12
36 -7 36 -4 0 -9 -8 -10 -17z"/>
<path d="M2566 1061 c9 -9 34 -9 34 -1 0 5 -9 8 -20 7 -10 -1 -17 -3 -14 -6z"/>
<path d="M2610 1059 c0 -5 14 -9 30 -9 17 0 30 -4 30 -10 0 -5 -14 -7 -30 -5
-17 2 -28 0 -25 -4 7 -12 125 -13 125 -1 0 5 -10 8 -22 6 -13 -1 -28 4 -34 12
-11 15 -74 25 -74 11z"/>
<path d="M2989 1043 c0 -16 -3 -22 -6 -15 -10 26 -23 -2 -23 -53 0 -46 -4 -57
-27 -76 -16 -12 -20 -19 -10 -16 14 5 16 2 11 -19 -7 -27 -8 -39 -6 -71 2 -16
7 -20 22 -16 11 3 20 10 20 15 0 6 -7 8 -15 4 -10 -4 -15 1 -15 14 0 11 5 20
11 20 5 0 7 -4 4 -10 -3 -5 -1 -10 4 -10 7 0 11 26 11 64 0 83 19 99 22 19 l2
-58 3 53 c3 34 -1 59 -9 70 -10 12 -10 14 0 8 7 -4 12 -1 12 8 0 9 -7 16 -15
16 -8 0 -15 5 -15 10 0 6 7 10 15 10 10 0 15 10 15 30 0 38 -10 40 -11 3z
m-38 -184 c-5 -13 -10 -19 -10 -12 -1 15 10 45 15 40 3 -2 0 -15 -5 -28z"/>
<path d="M2430 1049 c0 -5 5 -7 10 -4 6 3 10 8 10 11 0 2 -4 4 -10 4 -5 0 -10
-5 -10 -11z"/>
<path d="M1955 1030 c-19 -8 -19 -9 2 -9 12 -1 25 4 28 9 7 12 -2 12 -30 0z"/>
<path d="M2530 1030 c-9 -6 -10 -10 -3 -10 6 0 15 5 18 10 8 12 4 12 -15 0z"/>
<path d="M2420 1022 c0 -4 9 -8 20 -8 11 0 20 4 20 8 0 4 -9 8 -20 8 -11 0
-20 -4 -20 -8z"/>
<path d="M1305 1000 c-3 -5 1 -10 9 -10 9 0 16 5 16 10 0 6 -4 10 -9 10 -6 0
-13 -4 -16 -10z"/>
<path d="M2610 999 c37 -10 130 -10 130 0 0 5 -35 9 -77 9 -50 -1 -69 -4 -53
-9z"/>
<path d="M2428 993 c7 -3 16 -2 19 1 4 3 -2 6 -13 5 -11 0 -14 -3 -6 -6z"/>
<path d="M2547 994 c-4 -4 -7 -12 -7 -18 0 -6 4 -4 10 4 8 12 10 12 16 -3 3
-9 10 -17 16 -17 5 0 7 4 4 9 -4 5 -3 11 1 14 5 2 3 3 -3 1 -6 -1 -16 2 -21 7
-5 5 -12 6 -16 3z"/>
<path d="M218 963 c12 -2 22 -9 22 -14 0 -5 5 -9 11 -9 8 0 8 5 -1 15 -7 8
-22 14 -34 14 -20 -2 -20 -2 2 -6z"/>
<path d="M2420 958 c0 -5 21 -8 48 -8 34 1 43 3 31 10 -18 11 -79 9 -79 -2z"/>
<path d="M1340 955 c-1 -5 -1 -20 -1 -31 1 -12 -5 -24 -13 -27 -9 -4 -16 -13
-16 -21 0 -10 6 -13 15 -10 21 9 18 -77 -4 -93 -9 -6 -13 -14 -10 -17 3 -3 13
0 22 7 18 12 30 117 14 117 -4 0 -4 8 1 18 5 9 6 28 1 42 -4 14 -8 21 -9 15z"/>
<path d="M2080 940 c0 -7 24 -20 36 -20 13 0 1 19 -16 23 -11 3 -20 2 -20 -3z"/>
<path d="M2820 917 c0 -20 0 -40 -1 -44 0 -4 4 -9 9 -11 12 -4 11 72 -1 84 -4
4 -7 -9 -7 -29z"/>
<path d="M2610 929 c0 -5 -4 -7 -10 -4 -5 3 -10 2 -10 -4 0 -5 8 -12 18 -14 9
-3 -28 -5 -82 -6 -121 -1 -122 -12 -2 -13 47 0 89 -4 92 -9 3 -5 -18 -9 -45
-9 -28 0 -51 -4 -51 -9 0 -5 11 -8 25 -5 16 3 25 0 25 -8 0 -8 3 -9 8 -3 9 13
32 18 32 7 0 -5 6 -9 14 -9 11 0 12 6 6 22 -5 12 -7 34 -6 49 2 14 -1 26 -5
26 -5 0 -9 -5 -9 -11z"/>
<path d="M2420 920 c0 -5 -17 -11 -37 -11 -24 -1 -29 -3 -15 -6 30 -6 28 -18
-3 -21 -14 -1 -25 3 -25 9 0 6 -5 7 -12 2 -7 -4 -19 -8 -26 -9 -23 -4 -26 -13
-8 -20 10 -4 22 -2 27 3 5 5 25 7 44 5 28 -3 33 -7 25 -17 -18 -22 23 -28 65
-11 21 9 41 13 46 10 5 -3 9 0 9 5 0 16 -51 13 -84 -4 -23 -12 -26 -13 -17 -1
8 10 9 16 2 21 -7 4 -4 14 8 27 16 17 29 20 75 16 31 -2 56 -1 56 4 0 4 -29 8
-65 8 -37 0 -65 -4 -65 -10z"/>
<path d="M2560 920 c0 -5 5 -10 10 -10 6 0 10 5 10 10 0 6 -4 10 -10 10 -5 0
-10 -4 -10 -10z"/>
<path d="M2096 907 c-25 -11 -26 -14 -13 -25 12 -10 18 -10 31 3 9 9 16 21 16
26 0 11 2 11 -34 -4z"/>
<path d="M2176 911 c-3 -5 1 -11 9 -15 9 -3 15 0 15 9 0 16 -16 20 -24 6z"/>
<path d="M2695 910 c-30 -8 -30 -8 8 -9 23 -1 36 3 32 9 -3 6 -7 9 -8 9 -1 -1
-15 -5 -32 -9z"/>
<path d="M2646 881 c-3 -4 18 -9 47 -10 28 -1 49 0 47 2 -10 8 -90 15 -94 8z"/>
<path d="M210 859 c-58 -10 -115 -16 -127 -14 -22 5 -23 2 -23 -48 0 -30 -3
-95 -7 -146 -6 -86 -7 -90 -21 -69 -12 16 -12 23 -4 26 17 5 15 22 -2 22 -21
0 -27 -27 -10 -45 13 -13 13 -15 1 -15 -9 0 -15 -10 -15 -24 0 -17 5 -23 14
-19 8 3 12 9 9 13 -3 5 1 7 7 6 22 -3 20 -18 -3 -30 -32 -16 -34 -33 -4 -33
15 0 24 4 22 11 -5 14 42 46 69 46 22 0 40 -25 24 -35 -4 -3 -24 -3 -44 -1
-27 4 -36 1 -36 -9 0 -10 10 -15 30 -15 17 0 30 -4 30 -10 0 -5 -11 -10 -25
-10 -24 0 -32 -10 -19 -23 8 -7 64 20 64 31 0 4 13 8 30 7 25 0 29 -3 25 -20
-3 -11 -2 -15 1 -8 3 7 12 9 21 6 12 -5 14 -3 8 7 -5 9 -4 11 4 6 6 -4 9 -11
7 -15 -3 -4 -1 -13 5 -21 6 -10 9 -11 9 -2 0 17 27 15 38 -4 6 -11 16 -13 35
-9 15 4 27 11 27 16 0 5 -11 7 -24 3 -19 -4 -26 -1 -31 15 -3 11 -12 18 -19
15 -8 -3 -23 5 -35 17 -12 14 -32 22 -51 22 -29 0 -30 2 -30 47 0 42 -2 46
-22 44 -13 -1 -29 -3 -35 -3 -7 -1 -13 -12 -13 -26 0 -14 -4 -25 -10 -25 -11
0 -14 197 -4 224 4 11 18 16 43 15 32 -1 33 -2 11 -9 -22 -6 -23 -8 -7 -15 11
-5 24 -2 36 9 12 11 27 14 49 10 18 -4 29 -10 26 -15 -3 -5 -1 -9 5 -9 5 0 13
5 16 10 3 6 15 10 25 10 10 0 21 3 23 8 3 4 -34 8 -81 9 -48 2 -99 3 -114 4
-30 0 -45 25 -20 33 64 19 275 44 326 39 43 -4 57 -3 52 5 -11 18 -135 13
-256 -9z"/>
<path d="M2170 863 c0 -7 5 -13 10 -13 6 0 10 5 10 10 0 6 8 10 18 10 16 -1
16 -1 0 -11 -25 -14 -22 -24 7 -25 28 -2 29 0 15 27 -12 21 -60 23 -60 2z"/>
<path d="M828 863 c7 -3 16 -2 19 1 4 3 -2 6 -13 5 -11 0 -14 -3 -6 -6z"/>
<path d="M2153 852 c4 -18 2 -22 -12 -17 -11 3 -18 0 -18 -10 0 -11 7 -13 26
-8 35 8 35 9 16 35 l-17 23 5 -23z"/>
<path d="M742 835 c-7 -15 -8 -25 -2 -25 6 0 10 7 10 15 0 8 5 15 10 15 6 0
10 5 10 10 0 19 -17 10 -28 -15z"/>
<path d="M2254 853 c10 -11 37 -12 30 -2 -3 5 -12 9 -21 9 -9 0 -13 -3 -9 -7z"/>
<path d="M1373 795 c0 -33 2 -45 4 -27 2 18 2 45 0 60 -2 15 -4 0 -4 -33z"/>
<path d="M1462 820 c1 -44 18 -48 18 -6 0 20 -4 36 -9 36 -5 0 -9 -14 -9 -30z"/>
<path d="M1497 818 c-4 -30 5 -47 26 -48 4 0 7 14 7 30 0 17 0 33 1 38 0 4 -6
8 -14 10 -10 2 -16 -8 -20 -30z"/>
<path d="M2345 840 c-3 -5 1 -10 9 -10 9 0 16 5 16 10 0 6 -4 10 -9 10 -6 0
-13 -4 -16 -10z"/>
<path d="M2895 835 c-3 -8 -7 -22 -10 -30 -2 -8 0 -17 6 -21 5 -3 7 -15 3 -26
-5 -18 -4 -19 9 -7 8 8 13 17 11 21 -3 4 -5 23 -6 43 -1 37 -6 44 -13 20z"/>
<path d="M2040 829 c0 -14 33 -19 48 -7 13 11 14 11 8 -1 -6 -9 -5 -12 3 -10
7 3 11 9 9 14 -3 11 -68 14 -68 4z"/>
<path d="M1650 796 c0 -21 6 -36 15 -40 11 -4 15 1 15 18 0 14 3 31 6 40 4 12
0 16 -15 16 -17 0 -21 -6 -21 -34z"/>
<path d="M2608 823 c7 -3 16 -2 19 1 4 3 -2 6 -13 5 -11 0 -14 -3 -6 -6z"/>
<path d="M2989 810 c-1 -11 -2 -25 -3 -31 0 -6 -34 -28 -75 -49 -44 -22 -69
-40 -63 -44 7 -4 12 -12 12 -17 0 -6 -4 -7 -10 -4 -6 4 -10 -7 -10 -25 0 -18
4 -29 10 -25 13 8 13 -1 -1 -27 -9 -17 -8 -19 8 -16 12 2 19 14 21 36 3 27 1
31 -15 26 -17 -6 -17 -6 0 7 9 8 19 25 22 38 2 13 6 24 7 25 2 0 13 6 25 13
17 10 23 10 26 0 3 -7 6 -4 6 6 1 10 6 15 11 12 6 -3 10 0 10 7 0 9 3 9 10 -2
11 -18 11 -19 16 43 2 26 2 47 -1 47 -3 0 -6 -9 -6 -20z"/>
<path d="M1774 785 c-6 -24 0 -44 10 -34 11 11 17 59 7 59 -6 0 -13 -11 -17
-25z"/>
<path d="M2208 803 c7 -3 16 -2 19 1 4 3 -2 6 -13 5 -11 0 -14 -3 -6 -6z"/>
<path d="M2800 790 c0 -12 5 -18 10 -15 6 3 10 1 10 -4 0 -6 -6 -11 -13 -11
-9 0 -13 -12 -13 -35 1 -37 12 -41 30 -12 8 13 7 20 -4 27 -11 7 -11 10 -2 10
9 0 12 10 10 27 -4 32 -28 44 -28 13z"/>
<path d="M2847 791 c-3 -14 -1 -18 9 -14 8 3 14 11 14 19 0 21 -17 17 -23 -5z"/>
<path d="M584 733 c0 -39 4 -66 8 -60 10 16 9 86 -1 112 -5 13 -8 -7 -7 -52z"/>
<path d="M1923 793 c-15 -5 -18 -63 -4 -63 5 0 11 9 14 20 7 27 27 25 28 -2 0
-22 1 -22 9 -3 8 18 9 18 10 -5 2 -18 4 -20 7 -7 6 22 19 22 27 0 6 -14 8 -14
21 3 22 30 22 30 -57 37 -10 1 -18 4 -18 8 0 10 -23 17 -37 12z"/>
<path d="M2104 789 c-6 -11 20 -17 49 -12 42 8 39 18 -5 18 -22 0 -42 -3 -44
-6z"/>
<path d="M343 773 c9 -2 23 -2 30 0 6 3 -1 5 -18 5 -16 0 -22 -2 -12 -5z"/>
<path d="M2165 765 c-16 -8 -23 -14 -15 -14 8 0 26 6 40 14 32 18 15 18 -25 0z"/>
<path d="M2225 770 c3 -6 -1 -13 -9 -16 -9 -3 -13 -10 -10 -15 3 -5 10 -7 15
-3 5 3 15 2 22 -4 28 -21 47 -22 47 -2 0 13 -7 20 -19 20 -10 0 -21 7 -25 15
-3 8 -10 15 -16 15 -6 0 -8 -5 -5 -10z"/>
<path d="M2286 771 c-3 -4 6 -6 19 -3 14 2 25 6 25 8 0 8 -39 4 -44 -5z"/>
<path d="M2488 761 c3 -9 9 -19 14 -22 16 -10 108 -10 108 1 0 5 -20 10 -45
10 -25 0 -45 3 -45 8 0 4 27 7 60 7 62 0 68 -3 48 -23 -16 -16 -19 -45 -4 -39
8 3 12 -6 12 -29 0 -27 -5 -36 -25 -43 -26 -9 -25 -9 7 -10 17 -1 32 3 32 8 0
5 8 12 18 14 16 4 16 5 0 6 -11 1 -18 9 -18 21 0 15 9 21 40 26 44 7 55 24 15
24 -14 0 -25 -4 -25 -10 0 -5 -7 -10 -15 -10 -13 0 -15 9 -11 40 l4 41 -88 -2
c-77 -1 -88 -4 -82 -18z"/>
<path d="M457 763 c18 -2 50 -2 70 0 21 2 7 4 -32 4 -38 0 -55 -2 -38 -4z"/>
<path d="M2056 749 c-19 -18 -19 -20 -3 -36 16 -16 17 -16 17 5 0 15 6 22 20
22 12 0 17 -5 14 -14 -4 -10 4 -13 33 -11 51 3 53 3 53 15 0 6 -15 7 -36 4
-32 -5 -36 -3 -30 11 4 13 2 16 -9 12 -8 -4 -17 -2 -20 3 -9 14 -17 12 -39
-11z"/>
<path d="M2858 764 c-5 -4 -8 -16 -8 -28 0 -14 3 -17 11 -9 6 6 9 19 7 28 -1
9 -6 13 -10 9z"/>
<path d="M0 750 c0 -5 9 -10 20 -10 11 0 20 5 20 10 0 6 -9 10 -20 10 -11 0
-20 -4 -20 -10z"/>
<path d="M290 740 c-14 -11 -38 -20 -55 -20 -21 0 -26 -3 -16 -9 7 -5 21 -7
30 -6 9 2 19 4 22 4 11 2 52 41 48 45 -2 3 -15 -4 -29 -14z"/>
<path d="M610 710 c0 -27 4 -50 10 -50 5 0 9 23 9 50 -1 28 -6 50 -10 50 -5 0
-9 -22 -9 -50z"/>
<path d="M648 704 c-2 -28 1 -49 9 -56 10 -8 13 -2 13 27 0 32 3 37 19 32 14
-3 19 1 19 19 0 26 -13 32 -21 12 -4 -10 -6 -10 -6 0 -1 6 -7 12 -15 12 -9 0
-15 -15 -18 -46z"/>
<path d="M367 729 c-10 -6 -21 -8 -24 -5 -8 7 -43 -13 -43 -25 0 -6 7 -6 20 1
11 6 25 8 31 4 6 -3 18 1 28 10 19 17 74 18 67 1 -2 -6 14 -9 43 -8 25 1 55 2
65 2 28 1 12 12 -21 16 -15 1 -55 5 -88 9 -38 4 -67 2 -78 -5z"/>
<path d="M2233 693 c1 -23 4 -39 7 -35 3 4 19 8 35 9 25 2 26 1 10 -6 -19 -8
-18 -10 9 -20 34 -14 96 -16 146 -6 19 4 40 8 47 8 7 0 12 3 11 6 -2 24 5 31
12 11 8 -24 8 -24 9 -2 1 14 7 22 19 22 11 0 29 9 42 20 l23 20 -45 0 c-38 0
-47 -4 -58 -25 -9 -16 -19 -24 -28 -20 -13 5 -13 3 -1 -11 11 -14 10 -16 -11
-12 -14 1 -28 7 -32 12 -3 5 -14 2 -23 -8 -10 -9 -24 -15 -32 -12 -8 3 -24 6
-36 6 -17 0 -19 2 -8 9 12 8 13 12 1 26 -8 9 -17 12 -22 7 -15 -15 -55 -2 -66
21 -9 19 -10 15 -9 -20z m335 11 c-4 -3 -12 -6 -20 -8 -7 -1 -19 -5 -25 -9 -7
-5 -13 -4 -13 2 0 5 6 12 13 14 17 7 51 8 45 1z"/>
<path d="M1965 711 c6 -12 75 -19 75 -9 0 4 -6 9 -12 9 -7 1 -25 3 -41 5 -15
1 -25 -1 -22 -5z"/>
<path d="M2190 702 l-23 -19 26 -5 c31 -6 37 -1 28 25 -7 18 -8 18 -31 -1z"/>
<path d="M2963 708 c-20 -10 -32 -28 -18 -28 12 0 55 24 55 32 0 10 -9 9 -37
-4z"/>
<path d="M153 703 c-35 -7 -27 -18 12 -19 28 0 32 2 24 13 -7 7 -12 12 -13 12
0 -1 -11 -4 -23 -6z"/>
<path d="M1372 685 c0 -16 2 -22 5 -12 2 9 2 23 0 30 -3 6 -5 -1 -5 -18z"/>
<path d="M2128 693 c7 -3 16 -2 19 1 4 3 -2 6 -13 5 -11 0 -14 -3 -6 -6z"/>
<path d="M2816 691 c-4 -7 -5 -15 -2 -18 9 -9 19 4 14 18 -4 11 -6 11 -12 0z"/>
<path d="M2906 683 c-8 -21 7 -36 30 -30 16 4 15 5 -3 6 -24 1 -31 17 -11 23
8 3 9 6 1 11 -6 4 -14 -1 -17 -10z"/>
<path d="M390 680 c0 -7 14 -8 38 -4 51 9 53 14 4 14 -23 0 -42 -5 -42 -10z"/>
<path d="M687 676 c-4 -10 -1 -13 8 -9 8 3 12 9 9 14 -7 12 -11 11 -17 -5z"/>
<path d="M2065 681 c4 -7 -3 -11 -16 -11 -18 0 -20 -3 -11 -12 8 -8 15 -8 27
2 8 7 18 10 21 7 9 -9 -6 -27 -22 -27 -12 0 -12 -4 2 -27 14 -25 14 -26 0 -9
-12 14 -16 16 -16 5 0 -24 14 -34 48 -35 21 -1 32 3 32 12 0 7 10 19 23 25 41
22 51 53 13 43 -15 -3 -40 3 -66 16 -23 12 -39 17 -35 11z m91 -53 c5 -8 2 -9
-9 -5 -10 3 -17 3 -17 -2 0 -5 -11 -8 -25 -8 -23 0 -31 7 -20 18 10 10 64 8
71 -3z"/>
<path d="M2981 681 c-10 -6 -10 -10 -1 -16 13 -8 24 -1 19 14 -3 6 -10 7 -18
2z"/>
<path d="M7 660 c3 -11 7 -20 9 -20 2 0 4 9 4 20 0 11 -4 20 -9 20 -5 0 -7 -9
-4 -20z"/>
<path d="M280 660 c0 -15 -7 -20 -25 -20 -21 0 -25 -5 -25 -29 0 -37 -10 -62
-21 -55 -5 3 -9 -7 -9 -23 1 -25 2 -26 14 -10 7 9 21 17 31 17 13 0 15 3 6 13
-12 16 5 63 27 72 16 6 6 -36 -12 -47 -7 -5 -6 -8 3 -8 8 0 12 -3 8 -6 -3 -4
1 -13 9 -21 8 -8 11 -20 7 -26 -4 -7 2 -5 13 3 29 22 30 24 14 18 -12 -4 -17
2 -18 24 -4 44 7 68 29 68 10 0 19 5 19 10 0 6 9 10 21 10 11 0 18 4 15 9 -3
4 -17 6 -31 3 -15 -2 -25 0 -25 7 0 6 -11 11 -25 11 -18 0 -25 -5 -25 -20z"/>
<path d="M2585 670 c-4 -6 -10 -8 -14 -6 -4 3 -8 -1 -8 -8 0 -7 11 -13 24 -12
13 1 23 4 23 9 0 4 0 12 0 17 0 13 -17 13 -25 0z"/>
<path d="M2680 671 c0 -9 24 -21 41 -21 5 0 9 7 9 15 0 9 -9 15 -25 15 -14 0
-25 -4 -25 -9z"/>
<path d="M465 660 c-3 -5 -1 -18 5 -27 10 -16 10 -15 5 4 -5 17 -1 22 17 26
23 4 23 4 1 6 -12 0 -25 -3 -28 -9z"/>
<path d="M2963 647 c2 -11 -5 -14 -48 -16 -18 -1 -25 -7 -25 -21 0 -11 4 -20
10 -20 16 0 60 23 60 32 0 4 3 7 8 7 33 -6 45 15 12 24 -11 3 -18 0 -17 -6z"/>
<path d="M503 627 c-23 -18 -36 -21 -73 -17 -50 6 -90 2 -90 -9 0 -4 21 -7 48
-7 39 1 47 -2 46 -16 -1 -10 3 -18 8 -18 6 0 8 9 5 20 -6 22 0 25 23 10 13 -9
13 -11 0 -20 -13 -9 -13 -10 0 -10 13 0 13 -1 0 -10 -10 -6 -11 -10 -2 -10 6
0 12 -11 12 -24 0 -13 -6 -27 -12 -30 -10 -5 -10 -7 0 -12 6 -3 12 -10 12 -15
0 -6 -7 -6 -18 0 -10 6 -28 7 -40 4 -13 -3 -22 -1 -22 6 0 5 8 8 18 5 9 -3 4
2 -12 11 -19 11 -25 20 -17 24 7 4 -1 8 -16 8 -21 0 -29 -5 -29 -19 0 -10 6
-18 13 -18 7 0 13 -4 13 -10 0 -5 -5 -10 -11 -10 -8 0 -9 -4 0 -13 6 -8 8 -17
4 -20 -3 -4 -1 -7 5 -7 7 0 12 7 12 16 0 11 5 14 16 10 9 -3 18 -6 20 -6 2 0
4 -6 4 -13 0 -14 -153 -42 -173 -31 -9 5 -9 4 1 -7 19 -20 15 -27 -15 -23 -16
2 -21 1 -11 -2 9 -3 19 -12 22 -20 6 -16 -9 -19 -19 -4 -4 6 -11 8 -16 5 -5
-4 -25 10 -46 30 -39 38 -50 37 -56 -9 -6 -49 -25 -42 -30 11 l-3 48 -2 -57
c-2 -53 -1 -56 20 -52 l23 5 -22 -10 c-13 -6 -23 -17 -23 -24 0 -8 -7 -20 -15
-27 -8 -7 -15 -23 -15 -36 0 -13 -3 -23 -7 -23 -21 3 -33 -2 -33 -16 0 -8 8
-15 18 -15 15 0 17 -9 14 -82 -4 -82 2 -102 11 -42 3 17 10 41 16 52 15 27 14
32 -4 32 -8 0 -15 5 -15 10 0 6 17 10 38 10 21 0 43 5 50 12 18 18 22 7 30
-83 6 -74 7 -79 12 -39 3 31 10 45 20 45 8 0 16 10 18 23 3 17 -2 22 -17 22
-14 0 -21 6 -21 19 0 23 32 26 268 30 84 1 160 5 169 8 9 4 14 2 11 -3 -4 -5
18 -8 50 -7 103 3 286 2 332 -3 154 -16 239 -25 265 -30 17 -3 57 -5 90 -5 43
0 56 -2 45 -10 -11 -7 -8 -8 13 -3 17 4 27 2 27 -5 0 -6 8 -11 18 -11 14 0 15
2 2 10 -8 5 -10 10 -5 10 12 0 35 -20 35 -31 0 -13 -90 -60 -122 -64 -30 -4
-79 5 -243 44 -44 11 -116 27 -160 36 -44 9 -99 21 -123 27 -23 6 -45 9 -47 6
-3 -3 19 -10 47 -17 128 -28 321 -74 417 -97 67 -17 113 -23 130 -18 14 4 29
8 34 9 4 2 16 3 27 4 11 0 20 7 20 15 0 7 9 16 21 19 13 4 18 10 13 18 -5 9 8
11 57 6 71 -8 64 -7 349 -47 217 -31 358 -46 285 -31 -22 4 -93 16 -157 26
-65 10 -118 22 -118 26 0 12 36 11 80 -1 37 -9 145 -18 270 -20 53 -2 68 -4
50 -10 -21 -7 -18 -8 20 -10 25 -1 53 -1 63 0 10 1 24 -2 30 -7 7 -5 91 -9
187 -10 158 -1 165 0 75 7 -184 14 -250 21 -320 30 -38 5 -99 12 -135 15 -36
3 -103 10 -150 15 -47 5 -192 21 -322 35 -131 14 -254 33 -273 40 -40 18 -56
19 -35 4 11 -8 5 -9 -25 -5 -22 3 -47 6 -55 6 -13 0 -13 1 0 10 11 7 5 10 -25
11 l-40 2 35 6 c23 5 -3 8 -73 9 -60 1 -113 4 -118 7 -13 8 -703 7 -861 -1
-86 -5 -128 -3 -128 4 0 6 35 12 83 15 45 2 145 10 222 17 98 9 155 9 187 3
37 -8 48 -7 52 3 6 16 -10 28 -19 14 -3 -5 -16 -10 -28 -9 -21 1 -20 2 3 10
18 6 11 7 -24 3 -30 -4 -46 -2 -42 4 3 6 0 13 -6 15 -7 3 -3 6 10 6 14 1 22 7
22 19 0 15 -6 17 -36 14 -19 -2 -38 -11 -41 -18 -7 -20 -31 -17 -36 4 -4 13
-5 11 -6 -5 -1 -24 -21 -33 -21 -10 0 8 -2 9 -8 1 -9 -15 -188 -19 -197 -5 -4
7 13 11 49 11 43 0 56 3 56 15 0 11 11 15 39 15 26 0 41 5 45 16 5 13 8 14 27
1 11 -8 30 -12 41 -9 19 5 20 10 15 71 -4 40 -3 60 2 52 6 -9 9 6 8 45 -1 32
-8 65 -14 72 -11 11 -13 -4 -14 -75 -2 -143 0 -138 -34 -141 -79 -9 -158 -6
-162 6 -3 6 2 12 11 12 9 0 16 3 16 8 0 9 81 9 98 -1 8 -6 12 0 12 22 0 17 -5
31 -11 31 -6 0 -9 -7 -5 -15 3 -8 1 -15 -4 -15 -6 0 -10 7 -10 15 0 8 -4 15
-10 15 -5 0 -10 4 -10 9 0 5 11 8 25 5 14 -2 34 0 43 5 10 6 12 11 5 11 -8 0
-13 14 -13 38 0 29 3 34 11 22 9 -13 10 -12 5 2 -3 11 6 30 24 50 17 18 30 28
30 23 0 -5 7 0 15 11 14 18 14 17 15 -15 0 -25 4 -32 14 -28 9 4 15 0 14 -11
0 -9 3 -28 7 -42 4 -14 7 -37 7 -52 -1 -18 4 -28 13 -28 9 0 12 6 9 15 -4 9 0
15 9 15 10 0 14 -9 13 -25 0 -14 -4 -25 -9 -25 -4 0 -5 -11 -1 -25 4 -15 2
-25 -5 -25 -6 0 -8 8 -5 18 4 12 0 10 -15 -7 -21 -23 -22 -23 -36 -5 -17 23
-19 36 -4 51 8 8 8 13 0 18 -6 3 -11 3 -10 -2 3 -20 -2 -27 -11 -13 -7 11 -10
2 -10 -32 0 -28 5 -48 13 -51 6 -3 40 -2 75 1 58 5 62 4 62 -17 0 -28 18 -27
22 1 2 13 9 22 16 20 8 -1 11 2 7 8 -3 5 -1 10 4 10 6 0 11 -4 11 -10 0 -5 7
-10 15 -10 8 0 15 -4 15 -10 0 -5 -7 -7 -15 -4 -8 4 -15 1 -15 -5 0 -6 9 -11
20 -11 13 0 20 -7 20 -20 0 -14 7 -20 23 -20 20 1 20 2 4 11 -9 6 -14 15 -11
21 4 6 0 14 -7 19 -10 6 -6 9 14 9 23 0 27 -4 28 -27 1 -17 3 -21 6 -10 5 18
23 24 23 7 0 -5 13 -7 28 -5 18 2 29 -2 29 -9 0 -8 -11 -10 -29 -8 -20 3 -28
0 -28 -10 0 -10 12 -15 35 -16 19 -1 35 3 35 9 0 6 5 7 10 4 6 -3 10 1 10 10
0 9 -4 13 -10 10 -5 -3 -10 1 -10 9 0 16 -4 18 -53 21 -30 2 -51 15 -24 15 10
0 17 5 17 10 0 6 5 10 11 10 5 0 8 -4 4 -9 -3 -6 14 -11 37 -13 43 -3 43 -3
41 -41 -1 -20 2 -37 8 -37 25 0 -1 -26 -32 -32 -30 -5 -29 -6 11 -5 l45 2 3
47 c2 26 9 60 17 75 8 15 13 28 12 29 -1 0 -17 8 -36 17 -26 13 -31 14 -21 2
10 -12 7 -16 -14 -25 -28 -10 -86 -3 -86 11 0 5 -12 6 -26 3 -22 -6 -25 -4
-19 7 8 12 6 12 -8 0 -9 -7 -15 -16 -13 -20 3 -4 -8 -7 -24 -6 -15 0 -26 3
-23 7 2 5 -5 8 -15 8 -11 0 -25 7 -32 15 -14 17 -50 20 -50 5 0 -5 9 -10 19
-10 11 0 22 -4 25 -9 10 -15 -24 -21 -44 -8 -22 13 -27 37 -9 37 6 0 9 7 6 15
-4 8 -1 17 5 21 7 4 5 10 -6 16 -9 5 -16 16 -16 23 0 8 -7 15 -15 15 -8 0 -15
5 -15 10 0 6 6 10 14 10 18 0 27 36 17 64 -6 14 -4 25 6 35 19 17 2 30 -33 23
-14 -2 -24 0 -24 7 0 7 -20 11 -49 11 -36 0 -57 -6 -78 -23z m110 6 c-7 -2
-19 -2 -25 0 -7 3 -2 5 12 5 14 0 19 -2 13 -5z m3 -50 c-10 -10 -19 5 -10 18
6 11 8 11 12 0 2 -7 1 -15 -2 -18z m34 -8 c0 -17 6 -25 18 -26 16 -1 16 -2 0
-6 -10 -2 -18 -9 -18 -14 0 -6 -4 -8 -9 -5 -5 3 -9 22 -9 41 0 19 4 35 9 35 5
0 9 -11 9 -25z m-517 -215 c-3 -19 -1 -30 6 -30 6 0 11 -7 11 -16 0 -8 -4 -12
-10 -9 -6 4 -10 -11 -11 -37 -1 -24 -4 -34 -6 -23 -3 11 -13 25 -22 32 -15 11
-15 12 2 18 9 4 17 12 16 19 -4 36 2 86 11 81 5 -3 7 -19 3 -35z m181 15 c-4
-8 -2 -15 3 -15 5 0 9 -9 8 -20 -1 -21 -15 -41 -15 -22 0 7 -7 12 -15 12 -8 0
-14 -5 -12 -12 1 -7 -16 -11 -53 -10 -30 1 -49 -1 -42 -4 6 -3 10 -10 7 -14
-3 -5 12 -7 32 -5 38 5 38 4 -4 -6 -42 -10 -53 -22 -33 -34 6 -3 10 -1 10 4 0
12 78 15 104 5 9 -3 16 -12 16 -18 0 -9 -21 -12 -69 -12 -57 0 -71 3 -81 19
-9 16 -9 21 2 28 10 6 10 13 2 26 -13 24 -7 57 9 45 24 -19 64 -22 77 -7 7 8
17 12 24 8 6 -3 6 0 -2 8 -10 11 -8 16 10 26 29 16 28 16 22 -2z m719 -21 c9
-9 -4 -35 -14 -28 -5 3 -9 12 -9 20 0 14 12 19 23 8z m-669 -30 c18 -7 12 -24
-10 -24 -8 0 -14 7 -14 15 0 17 2 18 24 9z m216 -49 c0 -8 -4 -15 -10 -15 -5
0 -10 7 -10 15 0 8 5 15 10 15 6 0 10 -7 10 -15z m-468 -40 c2 -11 11 -19 21
-19 9 1 17 -4 17 -12 0 -19 -36 -18 -44 2 -4 10 -13 13 -26 9 -14 -5 -20 -2
-20 10 0 9 4 14 9 11 5 -3 11 4 15 16 6 25 22 16 28 -17z m253 15 c19 -8 19
-9 -2 -9 -12 -1 -25 4 -28 9 -7 12 2 12 30 0z m-269 -64 c21 -21 18 -26 -16
-26 -16 0 -30 5 -30 10 0 6 8 10 18 10 14 0 15 2 2 10 -11 7 -12 10 -2 10 7 0
20 -6 28 -14z m1189 -16 l30 -8 -35 0 c-19 0 -57 3 -85 8 l-50 7 55 0 c30 1
69 -3 85 -7z m348 -77 c-7 -2 -21 -2 -30 0 -10 3 -4 5 12 5 17 0 24 -2 18 -5z
m65 0 c-10 -2 -26 -2 -35 0 -10 3 -2 5 17 5 19 0 27 -2 18 -5z m49 1 c-3 -3
-12 -4 -19 -1 -8 3 -5 6 6 6 11 1 17 -2 13 -5z m61 -21 c-10 -2 -28 -2 -40 0
-13 2 -5 4 17 4 22 1 32 -1 23 -4z m57 -3 c-3 -5 -13 -10 -21 -10 -8 0 -12 5
-9 10 3 6 13 10 21 10 8 0 12 -4 9 -10z"/>
<path d="M2005 640 c-3 -6 1 -7 9 -4 18 7 21 14 7 14 -6 0 -13 -4 -16 -10z"/>
<path d="M2816 634 c-10 -25 -7 -74 4 -74 6 0 10 20 10 45 0 47 -4 55 -14 29z"/>
<path d="M1900 630 c-8 -5 -11 -12 -7 -17 11 -10 77 -12 71 -1 -3 4 -1 8 4 8
5 0 17 -16 26 -35 9 -19 21 -35 26 -35 16 0 25 53 10 58 -10 4 -9 6 1 13 9 6
2 7 -18 3 -21 -4 -33 -2 -33 4 0 7 -13 5 -36 -4 -33 -14 -36 -14 -31 0 7 19 7
19 -13 6z"/>
<path d="M2209 617 c17 -17 21 -18 62 -3 l44 15 -35 2 c-97 6 -92 7 -71 -14z"/>
<path d="M2544 621 c9 -10 13 -21 9 -25 -5 -4 5 -4 21 0 22 5 27 4 21 -6 -5
-9 -4 -11 3 -6 18 11 15 14 -29 35 -38 19 -40 19 -25 2z"/>
<path d="M2450 621 c0 -5 -10 -7 -22 -4 -13 3 -20 2 -16 -2 4 -4 26 -9 49 -10
36 -2 58 -16 59 -37 0 -3 -10 -4 -22 -1 -13 3 -20 2 -16 -2 11 -12 80 -8 92 6
8 8 5 10 -9 9 -33 -4 -45 -1 -45 11 0 5 6 7 13 4 6 -4 3 0 -7 9 -10 8 -22 13
-27 11 -4 -3 -10 -1 -14 5 -8 12 -35 13 -35 1z"/>
<path d="M2684 617 c-3 -9 -10 -14 -15 -11 -11 7 -45 -12 -52 -29 -4 -10 3
-12 24 -9 16 2 29 9 29 14 0 5 4 7 9 4 15 -10 36 23 23 36 -8 8 -13 7 -18 -5z"/>
<path d="M168 613 c12 -2 30 -2 40 0 9 3 -1 5 -23 4 -22 0 -30 -2 -17 -4z"/>
<path d="M2293 603 c-13 -2 -23 -8 -23 -13 0 -15 26 -18 43 -5 17 13 23 26 10
24 -5 -1 -18 -4 -30 -6z"/>
<path d="M2970 600 c-13 -8 -13 -10 2 -10 9 0 20 5 23 10 8 13 -5 13 -25 0z"/>
<path d="M1490 585 c0 -8 5 -15 10 -15 6 0 10 7 10 15 0 8 -4 15 -10 15 -5 0
-10 -7 -10 -15z"/>
<path d="M2154 589 c-3 -5 1 -9 8 -10 7 0 34 -4 60 -8 26 -4 45 -4 42 1 -3 4
-19 8 -35 8 -17 0 -28 4 -25 9 3 5 -6 9 -19 9 -14 0 -28 -4 -31 -9z"/>
<path d="M2371 584 c13 -16 29 -19 29 -5 0 5 -9 11 -21 14 -16 4 -18 3 -8 -9z"/>
<path d="M2710 586 c-9 -12 -8 -15 9 -13 12 1 21 7 21 14 0 17 -15 16 -30 -1z"/>
<path d="M198 583 c7 -3 16 -2 19 1 4 3 -2 6 -13 5 -11 0 -14 -3 -6 -6z"/>
<path d="M360 561 c0 -20 5 -29 15 -27 21 3 31 16 12 16 -10 0 -14 6 -11 14 3
8 1 17 -5 21 -7 4 -11 -5 -11 -24z"/>
<path d="M391 574 c0 -11 3 -14 6 -6 3 7 2 16 -1 19 -3 4 -6 -2 -5 -13z"/>
<path d="M410 579 c0 -5 5 -7 10 -4 6 3 10 8 10 11 0 2 -4 4 -10 4 -5 0 -10
-5 -10 -11z"/>
<path d="M1650 575 c0 -8 5 -15 10 -15 6 0 10 7 10 15 0 8 -4 15 -10 15 -5 0
-10 -7 -10 -15z"/>
<path d="M1770 535 c0 -34 4 -55 11 -55 8 0 7 -6 -2 -17 -8 -9 -13 -19 -12
-22 2 -3 -3 -6 -10 -7 -6 0 -25 -4 -40 -9 -18 -5 -33 -3 -40 4 -6 6 -26 11
-44 11 -23 0 -33 5 -33 15 0 8 6 15 14 15 9 0 15 14 18 40 3 34 1 40 -15 40
-13 0 -18 -6 -16 -22 1 -13 -4 -36 -11 -52 -13 -25 -12 -30 4 -41 16 -12 15
-14 -13 -20 -27 -6 -31 -11 -30 -38 2 -31 2 -31 6 -4 2 15 9 27 15 27 6 0 8
-9 5 -20 -3 -11 -1 -23 4 -26 5 -3 9 9 9 27 0 18 3 29 7 25 4 -4 8 -17 8 -29
0 -27 31 -35 38 -10 4 15 5 15 6 2 0 -9 12 -19 26 -21 22 -5 25 -2 25 27 0 31
1 32 37 30 21 -2 48 1 60 6 18 7 23 5 24 -9 0 -10 3 -12 6 -4 2 6 11 12 19 12
8 0 14 8 14 19 0 14 6 17 28 14 21 -3 24 -2 11 6 -9 6 -35 12 -58 13 -43 3
-42 2 -55 69 -2 9 0 23 5 32 6 10 4 17 -6 21 -12 4 -15 -5 -15 -49z m50 -87
c0 -4 5 -7 11 -5 6 1 14 -4 16 -10 3 -7 -2 -13 -11 -13 -9 0 -16 4 -16 8 0 5
-10 14 -22 20 l-23 10 23 -1 c12 -1 22 -5 22 -9z m-155 -48 c-3 -5 -15 -10
-26 -10 -11 0 -17 5 -14 10 3 6 15 10 26 10 11 0 17 -4 14 -10z"/>
<path d="M2468 583 c7 -3 16 -2 19 1 4 3 -2 6 -13 5 -11 0 -14 -3 -6 -6z"/>
<path d="M324 572 c3 -5 0 -13 -6 -15 -9 -4 -10 -6 -1 -6 17 -1 25 16 12 25
-7 4 -9 3 -5 -4z"/>
<path d="M2302 566 c-34 -20 -34 -22 3 -18 21 3 35 10 35 18 0 17 -7 16 -38 0z"/>
<path d="M2406 567 l-29 -13 41 -13 c23 -8 42 -18 42 -23 0 -5 10 -3 22 3 16
9 23 9 26 0 2 -6 11 -11 20 -11 12 0 10 5 -8 17 -14 10 -37 16 -53 14 -25 -2
-28 0 -22 18 7 24 2 25 -39 8z"/>
<path d="M2903 573 c-7 -3 -13 -16 -13 -30 0 -21 3 -23 23 -17 12 4 27 7 34 7
14 0 25 35 13 42 -4 3 -10 -4 -13 -15 -3 -13 -14 -20 -29 -20 -18 0 -20 2 -8
9 8 6 18 7 22 5 4 -3 8 1 8 9 0 14 -14 17 -37 10z"/>
<path d="M2973 561 c-1 -14 3 -18 13 -14 17 6 19 33 1 33 -7 0 -13 -9 -14 -19z"/>
<path d="M2355 560 c-3 -5 -1 -10 4 -10 6 0 11 5 11 10 0 6 -2 10 -4 10 -3 0
-8 -4 -11 -10z"/>
<path d="M1490 520 c0 -22 5 -40 10 -40 6 0 10 18 10 40 0 22 -4 40 -10 40 -5
0 -10 -18 -10 -40z"/>
<path d="M2045 550 c-4 -6 6 -7 25 -4 25 5 29 4 24 -9 -3 -9 -1 -24 6 -34 10
-16 11 -14 7 10 -3 18 1 31 12 37 12 7 5 9 -26 10 -23 0 -45 -4 -48 -10z"/>
<path d="M2845 518 c2 -24 4 -51 4 -60 1 -10 5 -18 10 -18 6 0 10 27 10 60 -1
43 -4 60 -14 60 -9 0 -12 -12 -10 -42z"/>
<path d="M420 540 c0 -5 7 -10 15 -10 8 0 15 5 15 10 0 6 -7 10 -15 10 -8 0
-15 -4 -15 -10z"/>
<path d="M1650 508 c0 -49 5 -47 14 5 4 23 3 37 -4 37 -5 0 -10 -19 -10 -42z"/>
<path d="M2195 540 c-11 -4 -24 -5 -29 -2 -5 3 -6 0 -2 -6 4 -7 1 -12 -9 -12
-9 0 -13 -4 -10 -10 3 -5 0 -10 -8 -10 -9 0 -14 -9 -13 -23 1 -15 7 -23 18
-22 23 2 36 15 15 15 -9 0 -17 5 -17 11 0 7 11 9 29 6 25 -5 30 -2 35 18 8 33
25 32 18 0 l-4 -25 86 2 c77 1 89 -1 107 -20 11 -12 27 -22 37 -21 13 0 12 2
-4 9 -31 12 -39 30 -15 30 10 0 21 -6 23 -12 3 -8 9 -4 17 9 10 19 9 22 -4 17
-10 -4 -15 -2 -13 6 2 7 -3 15 -11 18 -9 3 -12 0 -9 -10 4 -10 -3 -14 -27 -15
-25 0 -35 4 -38 18 -6 23 2 24 31 3 25 -17 30 -10 8 12 -11 11 -32 13 -87 9
-39 -2 -79 -1 -88 4 -9 5 -25 5 -36 1z m160 -30 c6 -9 -6 -12 -75 -14 -37 -2
-49 7 -20 15 38 11 88 10 95 -1z"/>
<path d="M2538 543 c7 -3 16 -2 19 1 4 3 -2 6 -13 5 -11 0 -14 -3 -6 -6z"/>
<path d="M2809 508 c-1 -24 -1 -46 0 -51 1 -4 -10 -5 -23 -1 -14 3 -27 1 -32
-7 -5 -9 -2 -10 9 -6 12 4 17 1 17 -9 0 -12 -6 -15 -22 -11 -23 6 -23 6 1 -14
21 -17 22 -22 10 -30 -12 -7 -12 -9 1 -9 10 0 11 -3 4 -8 -16 -10 -15 -62 1
-62 7 0 15 9 18 19 3 15 1 18 -11 14 -10 -4 -13 -2 -8 5 4 7 9 22 11 34 3 12
11 26 20 30 19 11 20 29 0 22 -8 -4 -15 -1 -15 6 0 6 8 10 18 8 18 -3 31 -48
13 -48 -17 0 -13 -41 7 -63 16 -19 16 -20 0 -14 -14 5 -18 1 -17 -16 0 -12 3
-17 5 -10 6 13 57 7 62 -8 2 -5 8 -9 13 -9 6 0 7 5 4 10 -3 6 -2 10 3 10 5 0
9 14 10 30 0 23 -4 30 -19 30 -10 0 -19 5 -19 10 0 6 5 10 10 10 6 0 10 6 10
14 0 9 -8 12 -25 8 -15 -2 -25 0 -25 7 0 6 12 12 28 12 26 2 26 2 2 6 -37 7
-48 27 -42 83 3 33 1 50 -7 50 -6 0 -12 -18 -12 -42z m42 -142 c5 3 9 -5 9
-16 0 -16 5 -20 15 -16 9 3 15 0 15 -8 0 -8 -9 -16 -20 -19 -11 -3 -18 -2 -15
3 3 4 -2 10 -10 14 -9 3 -15 17 -14 33 0 15 3 22 6 15 2 -6 9 -10 14 -6z"/>
<path d="M1966 515 c-17 -13 -18 -15 -3 -15 9 0 17 4 17 9 0 5 9 7 20 4 11 -3
20 0 20 6 0 16 -31 13 -54 -4z"/>
<path d="M410 509 c0 -5 5 -7 10 -4 6 3 10 8 10 11 0 2 -4 4 -10 4 -5 0 -10
-5 -10 -11z"/>
<path d="M2060 500 c-6 -11 -8 -21 -5 -21 14 -4 26 -7 33 -9 7 -2 -43 -14
-115 -26 -18 -4 -33 -12 -33 -19 0 -7 -6 -16 -12 -18 -7 -3 -3 -6 9 -6 16 -1
21 -6 17 -16 -4 -8 -1 -15 4 -15 6 0 14 9 17 20 3 11 11 20 16 20 6 0 7 -4 4
-10 -8 -12 27 -13 77 -1 24 6 38 5 41 -2 2 -7 9 -7 23 1 14 8 15 12 4 12 -11
0 -10 4 5 17 19 15 19 15 -5 8 -14 -5 -45 -9 -69 -10 -24 -1 -47 -9 -52 -16
-5 -8 -9 -12 -10 -9 0 3 -2 13 -4 24 -3 15 2 17 30 14 18 -2 31 0 28 4 -2 5 6
7 19 4 18 -3 24 1 24 15 0 10 -6 19 -13 19 -6 0 -15 5 -19 12 -4 7 -3 8 4 4 8
-5 10 -2 6 8 -8 21 -11 20 -24 -4z m-67 -77 c-7 -2 -21 -2 -30 0 -10 3 -4 5
12 5 17 0 24 -2 18 -5z"/>
<path d="M2600 513 c14 -3 28 -10 32 -16 4 -6 10 -8 15 -4 11 12 -18 27 -47
25 l-25 -1 25 -4z"/>
<path d="M2940 502 c0 -14 2 -14 9 -3 8 12 12 12 25 2 13 -11 16 -11 16 1 0 7
-11 15 -25 16 -18 1 -25 -3 -25 -16z"/>
<path d="M286 496 l-28 -13 33 -7 c27 -5 31 -9 19 -16 -12 -8 -11 -10 7 -10
16 0 21 4 17 15 -4 8 -13 15 -21 15 -13 0 -13 3 -3 15 14 17 14 17 -24 1z"/>
<path d="M2486 493 c-8 -20 -7 -33 2 -31 13 3 76 -14 89 -24 7 -5 18 -8 25 -5
8 4 7 6 -4 6 -9 1 -21 7 -25 14 -4 7 -25 22 -45 34 -31 18 -37 19 -42 6z"/>
<path d="M2670 506 c0 -2 9 -6 20 -9 11 -3 18 -1 14 4 -5 9 -34 13 -34 5z"/>
<path d="M2887 490 c-6 -25 9 -35 48 -31 46 5 67 20 28 21 -17 0 -38 7 -47 15
-19 20 -23 19 -29 -5z"/>
<path d="M1970 491 c-8 -6 -18 -7 -22 -5 -4 3 -8 1 -8 -4 0 -6 -10 -8 -22 -4
-20 5 -21 3 -10 -10 9 -12 21 -14 46 -8 42 9 58 19 51 31 -8 11 -16 11 -35 0z"/>
<path d="M2186 462 c2 -3 -1 -11 -7 -19 -6 -7 -8 -13 -3 -13 5 0 2 -5 -6 -11
-13 -9 -13 -10 2 -6 19 6 34 -8 40 -38 4 -19 4 -18 10 3 4 13 1 28 -8 36 -20
21 -17 27 11 23 35 -4 40 -14 25 -41 -20 -38 -7 -53 45 -58 36 -2 45 0 43 12
-2 8 -15 16 -30 18 -14 2 -29 10 -32 18 -6 16 10 19 19 3 4 -6 13 -8 21 -5 7
3 16 1 18 -3 7 -11 108 -1 125 13 11 8 13 8 7 -1 -4 -8 -1 -13 8 -13 9 0 16
-9 16 -20 0 -12 -7 -20 -17 -20 -33 0 3 -21 63 -36 64 -16 179 -26 205 -18 18
5 16 37 -4 62 -6 8 -6 12 2 12 6 0 10 9 8 20 -5 29 -17 37 -17 11 0 -28 -20
-17 -21 12 0 12 -3 16 -6 10 -6 -15 -33 -17 -33 -3 0 6 -9 10 -21 10 -11 0
-17 5 -14 10 3 6 1 10 -4 10 -15 0 -14 -13 2 -29 10 -11 8 -13 -10 -8 -14 3
-23 0 -23 -6 0 -7 -7 -3 -15 7 -17 23 -20 14 -5 -15 9 -15 7 -19 -5 -19 -9 0
-13 -4 -10 -10 3 -5 2 -10 -4 -10 -5 0 -13 5 -16 10 -3 6 -11 10 -18 10 -6 0
-2 -7 9 -15 10 -8 17 -15 14 -15 -37 -8 -40 -7 -40 16 0 20 5 24 32 24 17 0
28 3 24 7 -4 4 -22 6 -41 5 -25 -2 -35 2 -35 12 0 7 6 14 13 13 32 -1 48 4 42
13 -5 8 -11 8 -19 1 -7 -6 -15 -8 -18 -5 -3 3 -22 -2 -42 -10 -20 -8 -36 -12
-36 -8 0 4 -5 0 -10 -8 -7 -12 -10 -12 -10 -1 0 8 -6 11 -17 7 -16 -6 -16 -5
-1 11 16 17 14 18 -18 19 -31 0 -33 -1 -19 -16 8 -9 15 -19 15 -22 0 -8 -39
-3 -64 7 -16 7 -16 9 -2 17 9 5 16 13 16 18 0 12 -22 8 -32 -5 -5 -7 -14 -6
-28 3 -11 6 -28 12 -38 12 -10 0 -23 4 -28 9 -6 5 -9 6 -8 3z m492 -84 c-2 -7
-7 -16 -11 -19 -5 -3 1 -9 12 -12 13 -3 19 -1 15 5 -4 6 -1 9 7 6 8 -3 14 -13
14 -24 0 -16 -7 -19 -52 -18 -43 1 -53 -2 -53 -15 -1 -15 -2 -15 -13 0 -7 9
-21 19 -32 21 -24 6 -9 13 48 23 23 4 37 11 37 20 0 18 -21 20 -38 3 -9 -9
-12 -8 -12 5 0 13 9 17 40 17 27 0 39 -4 38 -12z m-402 -7 c5 -5 20 -11 34
-14 16 -3 10 -5 -17 -6 -32 -1 -43 3 -43 14 0 17 11 20 26 6z m454 -71 c0 -5
-5 -10 -11 -10 -5 0 -7 5 -4 10 3 6 8 10 11 10 2 0 4 -4 4 -10z"/>
<path d="M2340 460 c19 -13 30 -13 30 0 0 6 -10 10 -22 10 -19 0 -20 -2 -8
-10z"/>
<path d="M0 450 c0 -5 7 -10 15 -10 10 0 15 -10 15 -30 0 -20 -5 -30 -15 -30
-8 0 -15 -4 -15 -10 0 -5 7 -10 15 -10 20 0 19 -17 -2 -29 -10 -5 -15 -13 -11
-16 17 -17 35 24 37 83 1 56 -1 62 -19 62 -11 0 -20 -4 -20 -10z"/>
<path d="M2965 450 c-16 -4 -22 -8 -13 -9 10 -1 19 -13 23 -32 9 -38 18 -31
19 16 1 19 1 34 1 34 0 -1 -13 -5 -30 -9z"/>
<path d="M716 434 c-9 -24 1 -30 34 -17 23 9 32 8 41 -3 15 -18 29 -18 29 1 0
8 -9 15 -20 15 -11 0 -20 5 -20 10 0 17 -57 11 -64 -6z"/>
<path d="M820 440 c0 -6 4 -10 10 -10 5 0 7 -6 4 -14 -3 -8 0 -17 7 -22 8 -4
10 -3 5 4 -4 7 -2 12 4 12 6 0 8 5 4 12 -5 8 3 9 29 5 21 -3 37 -2 37 4 0 5
-3 9 -7 10 -5 0 -27 2 -50 5 -25 2 -43 0 -43 -6z"/>
<path d="M2498 443 c7 -3 16 -2 19 1 4 3 -2 6 -13 5 -11 0 -14 -3 -6 -6z"/>
<path d="M2905 416 c0 -13 3 -22 8 -19 4 2 7 -1 7 -6 0 -14 37 -14 45 -1 4 6
-5 10 -20 10 -22 0 -25 3 -20 20 4 13 2 20 -7 20 -7 0 -13 -11 -13 -24z"/>
<path d="M1890 420 c0 -5 4 -10 9 -10 6 0 13 5 16 10 3 6 -1 10 -9 10 -9 0
-16 -4 -16 -10z"/>
<path d="M2428 423 c6 -2 18 -2 25 0 6 3 1 5 -13 5 -14 0 -19 -2 -12 -5z"/>
<path d="M176 404 c-3 -7 -2 -15 1 -18 10 -10 41 -7 49 5 5 9 -1 10 -22 5
l-29 -6 25 14 c24 14 24 15 3 13 -12 -1 -25 -7 -27 -13z"/>
<path d="M260 410 c0 -5 5 -10 10 -10 6 0 10 5 10 10 0 6 -4 10 -10 10 -5 0
-10 -4 -10 -10z"/>
<path d="M870 416 c0 -2 7 -9 15 -16 13 -11 14 -10 9 4 -5 14 -24 23 -24 12z"/>
<path d="M1448 403 c6 -3 12 -9 12 -14 0 -6 -4 -7 -10 -4 -5 3 -10 -3 -10 -14
0 -14 6 -21 20 -21 31 0 28 55 -2 57 -13 0 -17 -1 -10 -4z"/>
<path d="M780 389 c0 -5 11 -9 25 -9 14 0 25 2 25 4 0 2 -11 6 -25 8 -14 3
-25 1 -25 -3z"/>
<path d="M1410 381 c0 -12 5 -21 10 -21 6 0 10 6 10 14 0 8 -4 18 -10 21 -5 3
-10 -3 -10 -14z"/>
<path d="M1854 391 c-5 -5 -18 -11 -29 -14 -15 -4 -13 -5 8 -6 15 0 27 -5 27
-11 0 -5 10 -10 23 -9 21 0 21 1 2 10 -17 8 -16 9 8 6 15 -3 27 0 27 5 0 5 5
6 12 2 7 -4 8 -3 4 4 -4 7 -18 9 -33 6 -15 -4 -28 -2 -32 5 -4 6 -11 7 -17 2z"/>
<path d="M2155 391 c-3 -5 0 -13 6 -17 7 -4 9 -3 5 4 -3 6 3 12 16 15 23 4 23
4 1 6 -12 0 -24 -3 -28 -8z"/>
<path d="M956 381 c-4 -5 3 -7 14 -4 23 6 26 13 6 13 -8 0 -17 -4 -20 -9z"/>
<path d="M1496 374 c-7 -20 23 -31 35 -13 13 20 11 25 -10 26 -11 1 -22 -5
-25 -13z"/>
<path d="M1767 364 c-2 -15 0 -24 8 -24 6 0 17 -11 23 -25 13 -28 24 -31 41
-11 9 11 8 15 -5 20 -24 9 -31 7 -14 -5 10 -7 11 -9 2 -7 -18 5 -16 23 2 23 8
0 18 4 22 8 8 7 -5 10 -46 8 -14 0 -19 2 -12 5 16 7 15 21 -2 27 -9 4 -16 -3
-19 -19z"/>
<path d="M1088 354 c3 -16 -1 -30 -9 -36 -11 -7 -11 -11 -1 -15 6 -2 12 -11
12 -18 0 -7 -6 -12 -12 -11 -7 0 -15 -3 -18 -9 -3 -6 23 -11 68 -13 67 -3 72
-1 72 18 0 11 -5 20 -11 20 -6 0 -9 -7 -5 -15 3 -8 1 -15 -4 -15 -5 0 -11 15
-13 33 l-4 32 -1 -32 c-3 -54 -22 -37 -24 20 l-2 52 -3 -47 c-2 -27 -9 -48
-15 -48 -6 0 -8 3 -5 7 4 3 2 12 -4 20 -6 7 -7 13 -2 13 5 0 9 11 9 25 0 14
-5 25 -10 25 -6 0 -4 5 4 10 12 8 11 10 -6 10 -17 0 -20 -5 -16 -26z"/>
<path d="M2370 360 c-12 -8 -12 -10 3 -16 10 -3 21 -4 24 0 4 3 1 6 -6 6 -7 0
-9 5 -6 10 8 12 4 12 -15 0z"/>
<path d="M2922 325 c0 -32 4 -45 14 -45 35 0 38 82 3 88 -12 2 -16 -8 -17 -43z"/>
<path d="M2988 345 c-6 -30 -3 -43 8 -33 3 4 4 19 2 35 l-3 28 -7 -30z"/>
<path d="M1725 350 c3 -5 10 -10 16 -10 5 0 9 5 9 10 0 6 -7 10 -16 10 -8 0
-12 -4 -9 -10z"/>
<path d="M1938 348 c9 -9 15 -9 24 0 9 9 7 12 -12 12 -19 0 -21 -3 -12 -12z"/>
<path d="M2458 353 c7 -3 16 -2 19 1 4 3 -2 6 -13 5 -11 0 -14 -3 -6 -6z"/>
<path d="M1883 326 c-24 -11 -31 -26 -13 -26 6 0 13 0 18 0 4 0 7 4 7 9 0 5 3
13 8 17 4 4 7 0 7 -9 0 -11 5 -14 15 -11 12 5 13 10 4 20 -13 16 -15 16 -46 0z"/>
<path d="M2287 311 c-4 -17 -3 -21 5 -13 5 5 8 16 6 23 -3 8 -7 3 -11 -10z"/>
<path d="M18 295 c-23 -31 -23 -44 2 -38 14 4 20 14 20 34 0 35 0 35 -22 4z"/>
<path d="M1210 310 c0 -5 5 -10 10 -10 6 0 10 5 10 10 0 6 -4 10 -10 10 -5 0
-10 -4 -10 -10z"/>
<path d="M1994 309 c-3 -6 -1 -16 5 -22 8 -8 11 -5 11 11 0 24 -5 28 -16 11z"/>
<path d="M2028 313 c6 -2 18 -2 25 0 6 3 1 5 -13 5 -14 0 -19 -2 -12 -5z"/>
<path d="M2239 318 c-9 -18 -3 -48 8 -48 10 0 13 6 9 16 -3 8 -2 12 4 9 6 -3
10 1 10 9 0 13 -26 24 -31 14z"/>
<path d="M425 300 c-3 -5 -1 -10 4 -10 6 0 11 5 11 10 0 6 -2 10 -4 10 -3 0
-8 -4 -11 -10z"/>
<path d="M652 290 c0 -14 2 -19 5 -12 2 6 2 18 0 25 -3 6 -5 1 -5 -13z"/>
<path d="M738 293 c-38 -19 -35 -33 6 -33 19 0 37 -6 39 -12 4 -8 6 -9 6 -2 1
6 -5 17 -13 24 -8 6 -12 18 -9 26 6 16 6 16 -29 -3z"/>
<path d="M2060 289 c0 -5 5 -7 10 -4 6 3 10 8 10 11 0 2 -4 4 -10 4 -5 0 -10
-5 -10 -11z"/>
<path d="M680 280 c0 -5 5 -10 11 -10 5 0 7 5 4 10 -3 6 -8 10 -11 10 -2 0 -4
-4 -4 -10z"/>
<path d="M1210 269 c0 -11 4 -18 10 -14 5 3 7 12 3 20 -7 21 -13 19 -13 -6z"/>
<path d="M1835 277 c-4 -10 -5 -21 -1 -24 10 -10 18 4 13 24 -4 17 -4 17 -12
0z"/>
<path d="M1911 274 c0 -11 3 -14 6 -6 3 7 2 16 -1 19 -3 4 -6 -2 -5 -13z"/>
<path d="M2970 282 c0 -10 -33 -27 -69 -37 -16 -5 -21 -4 -17 4 9 14 0 14 -25
1 -35 -19 -20 -25 61 -25 l79 0 -1 32 c-1 20 -6 33 -15 33 -7 0 -13 -4 -13 -8z
m20 -32 c0 -5 -4 -10 -9 -10 -6 0 -13 5 -16 10 -3 6 1 10 9 10 9 0 16 -4 16
-10z"/>
<path d="M1860 264 c0 -8 9 -14 21 -14 11 0 19 5 17 12 -6 17 -38 19 -38 2z"/>
<path d="M1991 250 c-33 -18 -33 -19 -10 -25 33 -7 118 -2 112 8 -2 4 -22 7
-44 5 -21 -1 -42 2 -46 7 -5 4 0 5 10 2 11 -4 17 -1 17 8 0 18 3 18 -39 -5z"/>
<path d="M2045 260 c-3 -5 1 -10 9 -10 9 0 16 5 16 10 0 6 -4 10 -9 10 -6 0
-13 -4 -16 -10z"/>
<path d="M810 252 c0 -11 32 -32 40 -27 20 12 10 33 -15 31 -14 0 -25 -2 -25
-4z"/>
<path d="M0 229 c0 -5 5 -7 10 -4 5 3 10 8 10 11 0 2 -4 4 -10 4 -5 0 -10 -5
-10 -11z"/>
<path d="M968 233 c6 -2 18 -2 25 0 6 3 1 5 -13 5 -14 0 -19 -2 -12 -5z"/>
<path d="M1171 231 c-8 -6 -9 -11 -3 -15 6 -3 14 -1 17 5 9 14 2 20 -14 10z"/>
<path d="M1688 233 c7 -3 16 -2 19 1 4 3 -2 6 -13 5 -11 0 -14 -3 -6 -6z"/>
<path d="M2610 219 c0 -4 4 -10 9 -13 5 -3 11 -17 13 -31 7 -33 -14 -28 -24 6
-7 23 -7 23 -4 -3 2 -23 -1 -27 -23 -30 -14 -2 74 -3 197 -3 122 0 222 3 222
7 0 5 -10 8 -22 8 -136 3 -328 17 -335 24 -10 10 9 26 29 26 34 0 12 12 -27
15 -19 1 -35 -2 -35 -6z"/>
<path d="M768 213 c7 -3 16 -2 19 1 4 3 -2 6 -13 5 -11 0 -14 -3 -6 -6z"/>
<path d="M1722 209 c17 -11 88 -12 88 -1 0 5 -23 8 -51 9 -31 0 -45 -3 -37 -8z"/>
<path d="M1940 208 c0 -5 14 -11 32 -15 28 -6 30 -7 13 -15 -16 -7 -15 -8 8
-5 15 3 27 -1 27 -7 0 -6 5 -4 10 4 6 10 10 11 10 3 0 -7 7 -13 15 -13 8 0 15
5 15 11 0 5 4 8 9 4 6 -3 15 4 21 15 12 23 6 24 -53 11 -20 -5 -39 -5 -42 -1
-7 11 -65 18 -65 8z"/>
<path d="M2920 209 c0 -7 8 -17 17 -24 18 -14 43 -9 43 7 0 6 -7 7 -15 4 -9
-3 -18 1 -21 9 -7 18 -24 20 -24 4z"/>
<path d="M2466 194 c-3 -8 -2 -12 4 -9 6 3 10 1 10 -5 0 -6 4 -8 10 -5 5 3 18
1 27 -4 16 -9 15 -10 -5 -11 -13 0 -20 -4 -17 -10 3 -5 15 -10 26 -10 14 0 19
7 19 25 0 16 -6 25 -16 25 -8 0 -12 5 -9 10 3 6 -5 10 -18 10 -14 0 -28 -7
-31 -16z"/>
<path d="M2265 170 c3 -5 8 -10 11 -10 2 0 4 5 4 10 0 6 -5 10 -11 10 -5 0 -7
-4 -4 -10z"/>
<path d="M730 160 c8 -5 24 -10 34 -10 26 0 18 6 -19 14 -22 5 -26 4 -15 -4z"/>
<path d="M225 149 c-4 -5 8 -9 25 -9 30 0 31 -2 29 -35 -3 -27 3 -41 26 -65
37 -39 44 -31 11 13 -35 45 -34 66 2 60 24 -4 22 -2 -12 17 -47 26 -73 32 -81
19z"/>
<path d="M683 149 c10 -6 30 -12 45 -15 36 -6 8 11 -33 20 -24 5 -27 4 -12 -5z"/>
<path d="M2230 146 c0 -18 45 -23 55 -6 3 6 0 10 -9 10 -8 0 -21 3 -30 6 -11
4 -16 1 -16 -10z"/>
<path d="M638 143 c7 -3 16 -2 19 1 4 3 -2 6 -13 5 -11 0 -14 -3 -6 -6z"/>
<path d="M83 75 c0 -38 2 -53 4 -32 2 20 2 52 0 70 -2 17 -4 1 -4 -38z"/>
<path d="M368 133 c7 -3 16 -2 19 1 4 3 -2 6 -13 5 -11 0 -14 -3 -6 -6z"/>
<path d="M2753 133 c20 -2 54 -2 75 0 20 2 3 4 -38 4 -41 0 -58 -2 -37 -4z"/>
<path d="M2968 123 c6 -2 18 -2 25 0 6 3 1 5 -13 5 -14 0 -19 -2 -12 -5z"/>
<path d="M224 100 c1 -17 36 -27 36 -11 0 6 -6 8 -14 5 -8 -3 -16 0 -19 8 -3
9 -4 8 -3 -2z"/>
<path d="M821 116 c2 -2 29 -11 59 -20 30 -9 50 -12 45 -8 -15 13 -117 41
-104 28z"/>
<path d="M941 85 c5 -4 107 -32 150 -40 12 -3 36 -9 53 -14 17 -5 51 -12 76
-15 56 -7 35 0 -137 43 -118 30 -151 36 -142 26z"/>
<path d="M131 64 c0 -11 3 -14 6 -6 3 7 2 16 -1 19 -3 4 -6 -2 -5 -13z"/>
<path d="M2483 53 c9 -2 23 -2 30 0 6 3 -1 5 -18 5 -16 0 -22 -2 -12 -5z"/>
<path d="M190 30 c0 -5 5 -10 11 -10 5 0 7 5 4 10 -3 6 -8 10 -11 10 -2 0 -4
-4 -4 -10z"/>
<path d="M2673 33 c9 -2 23 -2 30 0 6 3 -1 5 -18 5 -16 0 -22 -2 -12 -5z"/>
<path d="M448 23 c7 -3 16 -2 19 1 4 3 -2 6 -13 5 -11 0 -14 -3 -6 -6z"/>
<path d="M2268 23 c7 -3 16 -2 19 1 4 3 -2 6 -13 5 -11 0 -14 -3 -6 -6z"/>
<path d="M228 3 c6 -2 18 -2 25 0 6 3 1 5 -13 5 -14 0 -19 -2 -12 -5z"/>
<path d="M1548 3 c6 -2 18 -2 25 0 6 3 1 5 -13 5 -14 0 -19 -2 -12 -5z"/>
<path d="M1603 3 c9 -2 25 -2 35 0 9 3 1 5 -18 5 -19 0 -27 -2 -17 -5z"/>
<path d="M2978 3 c7 -3 16 -2 19 1 4 3 -2 6 -13 5 -11 0 -14 -3 -6 -6z"/>
</g>
</svg>
