<?xml version="1.0" standalone="no"?>
<!DOCTYPE svg PUBLIC "-//W3C//DTD SVG 20010904//EN"
 "http://www.w3.org/TR/2001/REC-SVG-20010904/DTD/svg10.dtd">
<svg version="1.0" xmlns="http://www.w3.org/2000/svg"
 width="300.000000pt" height="300.000000pt" viewBox="0 0 300.000000 300.000000"
 preserveAspectRatio="xMidYMid meet">
<metadata>
Created by potrace 1.10, written by Peter Selinger 2001-2011
</metadata>
<g transform="translate(0.000000,300.000000) scale(0.100000,-0.100000)"
fill="#000000" stroke="none">
<path d="M1465 2648 c-38 -5 -86 -10 -106 -11 -19 -2 -40 -6 -45 -9 -5 -3 -30
-9 -57 -13 -26 -4 -49 -11 -52 -15 -3 -4 -28 -14 -57 -20 -49 -12 -117 -47
-181 -92 -33 -24 -29 -36 5 -15 56 35 140 77 160 79 13 2 28 7 35 11 47 29
255 69 359 69 91 -1 301 -77 347 -126 9 -11 19 -17 22 -14 10 9 -41 53 -90 78
-28 14 -52 27 -55 30 -7 7 -84 29 -155 43 -39 8 -84 10 -130 5z"/>
<path d="M1872 2562 c9 -23 129 -123 166 -137 23 -10 42 -21 42 -26 0 -11 50
-32 57 -25 11 11 -65 64 -114 81 -29 10 -53 24 -53 31 0 7 -20 29 -44 48 -42
35 -61 45 -54 28z"/>
<path d="M992 2450 c0 -14 2 -19 5 -12 2 6 2 18 0 25 -3 6 -5 1 -5 -13z"/>
<path d="M939 2392 c-48 -51 -59 -108 -59 -312 1 -218 1 -222 -17 -235 -18
-14 -56 -152 -50 -184 3 -14 14 -53 25 -86 11 -33 24 -82 31 -108 16 -68 31
-81 91 -78 22 1 23 3 8 12 -10 5 -24 9 -30 8 -35 -4 -46 10 -54 74 -2 16 -15
62 -30 103 -27 79 -27 132 2 203 8 19 12 36 9 39 -3 3 4 11 14 18 14 10 18 24
16 56 -2 24 0 48 5 53 8 11 5 120 -5 224 -5 45 -4 62 4 57 6 -4 11 -2 11 3 0
6 -5 11 -10 11 -6 0 -4 10 4 23 7 12 16 34 20 48 3 14 17 38 31 55 42 49 29
63 -16 16z"/>
<path d="M2097 2330 c3 -11 10 -20 15 -20 6 0 8 -9 5 -20 -3 -11 -1 -22 3 -25
21 -13 5 -318 -17 -334 -11 -8 -12 -72 -2 -65 9 5 33 79 34 104 0 8 4 29 8 45
10 42 17 137 11 147 -3 5 -6 36 -8 71 -1 40 -8 72 -20 90 -21 32 -36 36 -29 7z"/>
<path d="M901 2184 c0 -11 3 -14 6 -6 3 7 2 16 -1 19 -3 4 -6 -2 -5 -13z"/>
<path d="M2126 1832 c12 -9 29 -32 37 -51 22 -44 33 -126 18 -135 -12 -8 -15
-56 -3 -56 14 0 35 111 23 123 -6 6 -11 23 -11 39 0 46 -31 98 -60 98 l-25 0
21 -18z"/>
<path d="M2150 1555 c0 -14 -4 -25 -9 -25 -5 0 -7 -8 -4 -19 6 -22 -17 -68
-46 -95 -16 -14 -24 -16 -34 -7 -16 13 -28 5 -20 -15 9 -25 48 -15 83 21 19
19 31 35 27 35 -4 0 -4 8 1 18 15 29 25 112 13 112 -6 0 -11 -11 -11 -25z"/>
<path d="M2001 1385 c-1 -5 -5 -31 -7 -58 -5 -52 -31 -106 -69 -141 -14 -13
-25 -26 -25 -29 0 -3 -11 -17 -25 -31 -25 -25 -25 -27 -25 -190 0 -91 4 -176
9 -189 11 -29 65 -87 81 -87 5 0 10 -5 10 -10 0 -10 114 -70 132 -70 22 0 2
18 -44 39 -65 30 -132 85 -158 129 -18 29 -20 52 -20 188 l0 155 45 45 c25 24
45 48 45 54 0 5 4 10 9 10 5 0 19 21 30 46 16 34 21 60 18 97 -2 29 -5 48 -6
42z"/>
<path d="M990 1370 c-4 -25 2 -104 8 -115 4 -5 7 -17 9 -25 1 -8 7 -16 12 -18
6 -2 11 -10 11 -18 0 -8 4 -14 8 -14 4 0 22 -18 39 -41 17 -22 35 -41 39 -42
5 -1 8 -69 9 -152 0 -177 -10 -211 -77 -266 -44 -37 -130 -81 -223 -114 -27
-10 -54 -21 -60 -25 -5 -4 -44 -13 -85 -20 -41 -7 -89 -19 -107 -26 -17 -8
-34 -14 -37 -14 -14 0 -95 -66 -96 -77 0 -6 -6 -13 -12 -16 -7 -2 -10 -7 -7
-10 3 -4 25 11 49 33 24 22 50 40 56 40 7 0 14 4 16 10 4 13 167 53 195 47 13
-2 23 1 23 7 0 6 26 19 58 29 104 33 152 53 145 62 -5 4 2 6 14 3 15 -4 23 0
26 13 3 11 9 18 14 17 13 -4 63 33 57 43 -3 5 2 9 11 9 8 0 20 11 25 24 5 13
14 27 20 31 7 4 10 66 10 188 l-2 181 -29 18 c-16 10 -29 23 -29 29 0 7 -11
22 -25 35 -13 12 -27 33 -30 46 -23 102 -33 141 -35 128z"/>
<path d="M2100 576 c0 -8 13 -17 30 -21 16 -3 48 -15 71 -27 23 -11 60 -22 83
-24 42 -4 137 -25 146 -31 2 -2 -2 -9 -10 -14 -12 -9 -12 -10 3 -5 9 3 32 -3
50 -13 36 -20 106 -81 94 -81 -4 0 -3 -6 3 -12 51 -61 61 -78 66 -110 4 -21
10 -35 15 -32 8 5 14 -24 10 -53 -1 -7 3 -13 9 -13 5 0 10 -7 10 -15 0 -13
-142 -15 -1162 -16 -1305 -1 -1199 -2 -1205 4 -7 8 19 97 28 97 5 0 9 6 9 13
0 17 35 85 56 108 14 15 15 22 6 31 -9 9 -15 5 -24 -20 -7 -18 -16 -32 -20
-32 -4 0 -14 -17 -23 -37 -9 -21 -20 -45 -24 -53 -11 -20 -43 -132 -39 -134 2
0 540 1 1196 4 655 3 1192 2 1192 -2 0 -5 12 -8 27 -8 21 0 24 3 15 12 -7 7
-12 22 -12 34 0 13 -4 26 -10 29 -5 3 -10 14 -10 23 0 10 -9 34 -20 55 -11 20
-20 40 -20 44 0 5 -6 15 -13 23 -7 9 -16 22 -20 30 -25 53 -79 105 -151 142
-28 15 -57 26 -63 23 -7 -2 -13 0 -13 4 0 5 -23 12 -51 16 -28 4 -90 22 -137
41 -48 19 -88 34 -89 34 -2 0 -3 -6 -3 -14z"/>
<path d="M2158 513 c7 -3 16 -2 19 1 4 3 -2 6 -13 5 -11 0 -14 -3 -6 -6z"/>
</g>
</svg>
