<?xml version="1.0" standalone="no"?>
<!DOCTYPE svg PUBLIC "-//W3C//DTD SVG 20010904//EN"
 "http://www.w3.org/TR/2001/REC-SVG-20010904/DTD/svg10.dtd">
<svg version="1.0" xmlns="http://www.w3.org/2000/svg"
 width="300.000000pt" height="300.000000pt" viewBox="0 0 300.000000 300.000000"
 preserveAspectRatio="xMidYMid meet">
<metadata>
Created by potrace 1.10, written by Peter Selinger 2001-2011
</metadata>
<g transform="translate(0.000000,300.000000) scale(0.100000,-0.100000)"
fill="#000000" stroke="none">
<path d="M531 2843 c-1 -87 -3 -184 -4 -215 -1 -32 1 -54 5 -50 4 4 8 68 9
144 2 96 6 135 13 132 8 -3 12 20 13 71 2 67 0 75 -16 75 -17 0 -19 -12 -20
-157z"/>
<path d="M725 2988 c2 -7 6 -38 9 -68 5 -41 4 -51 -4 -40 -8 11 -10 4 -6 -30
9 -87 18 -135 28 -145 6 -7 7 -1 3 15 -11 46 -5 198 10 258 4 18 1 22 -19 22
-16 0 -24 -5 -21 -12z"/>
<path d="M853 2973 c-13 -31 -17 -207 -4 -183 5 8 13 49 20 90 6 41 14 85 17
98 9 33 -18 28 -33 -5z"/>
<path d="M1056 2984 c-4 -10 -2 -13 6 -8 7 5 9 -1 5 -17 -17 -71 -19 -102 -7
-109 9 -6 10 -62 2 -263 -10 -227 -13 -260 -32 -296 -14 -29 -27 -41 -42 -41
-15 0 -19 -3 -12 -10 14 -14 42 -3 55 21 5 11 13 17 18 15 4 -3 13 24 20 59 7
35 16 64 20 63 18 -2 24 3 12 11 -12 8 -14 46 -13 213 2 208 -3 272 -19 247
-5 -9 -9 -10 -9 -2 0 19 12 43 19 38 4 -2 5 9 3 26 -2 16 1 35 7 43 6 7 8 16
4 19 -11 12 -31 7 -37 -9z"/>
<path d="M1150 2976 c0 -13 -3 -33 -6 -43 -5 -16 -4 -16 10 1 18 22 22 66 6
66 -5 0 -10 -11 -10 -24z"/>
<path d="M1243 2988 c0 -7 -3 -40 -7 -73 -6 -55 -5 -58 9 -41 8 11 15 27 16
35 0 9 2 33 4 54 3 25 0 37 -9 37 -7 0 -13 -6 -13 -12z"/>
<path d="M1438 2938 c-1 -37 1 -64 6 -61 5 3 6 -18 2 -48 -3 -30 -7 -91 -8
-136 0 -45 -5 -80 -9 -77 -5 2 -6 11 -2 19 3 8 0 15 -6 15 -6 0 -11 -18 -11
-43 0 -23 -9 -59 -20 -80 -23 -42 -24 -47 -10 -47 6 0 9 3 8 8 0 4 7 25 17 47
15 34 19 37 24 20 6 -21 31 -33 31 -14 0 5 5 7 12 3 7 -4 8 -3 4 4 -4 7 -14
12 -22 12 -8 0 -14 5 -14 11 0 6 8 8 19 4 15 -5 18 -1 14 20 -3 13 -9 22 -14
19 -5 -3 -6 2 -3 11 5 12 9 13 20 4 9 -8 14 -8 14 -1 0 6 -4 14 -10 17 -15 9
-12 28 4 22 9 -4 16 4 20 25 7 37 46 71 64 56 9 -8 12 -6 12 6 0 10 4 15 8 12
4 -2 22 2 39 10 26 13 32 23 41 72 16 81 23 162 13 137 -5 -12 -16 -27 -25
-34 -13 -11 -16 -11 -16 1 0 8 -6 22 -13 32 -11 16 -13 11 -13 -33 0 -28 3
-51 8 -51 4 0 5 6 2 14 -7 18 8 27 25 17 10 -6 10 -19 3 -52 -5 -24 -10 -36
-11 -26 -1 10 -6 15 -11 12 -7 -4 -7 -12 0 -25 14 -26 13 -33 -5 -26 -9 3 -15
0 -15 -8 0 -8 -12 -17 -27 -21 -16 -3 -36 -16 -46 -28 l-19 -22 5 23 c6 25
-15 86 -26 76 -3 -4 -2 -15 3 -24 7 -13 5 -32 -5 -60 -8 -23 -12 -47 -8 -54 4
-7 1 -7 -8 1 -13 10 -15 36 -13 142 2 95 -1 134 -11 147 -11 16 -14 11 -17
-48z"/>
<path d="M1507 2988 c9 -16 13 -35 15 -68 0 -14 9 -36 19 -49 11 -13 19 -37
19 -52 0 -16 4 -29 10 -29 12 0 4 50 -16 104 -11 28 -12 41 -4 46 7 5 6 11 -5
20 -8 7 -15 19 -15 26 0 8 -7 14 -16 14 -10 0 -12 -5 -7 -12z"/>
<path d="M1566 2984 c-10 -25 1 -29 14 -5 6 12 7 21 1 21 -5 0 -12 -7 -15 -16z"/>
<path d="M1900 2986 c0 -8 4 -17 8 -20 4 -2 8 4 8 15 0 10 -4 19 -8 19 -4 0
-8 -6 -8 -14z"/>
<path d="M1977 2993 c-4 -3 -7 -24 -7 -45 0 -21 -5 -37 -10 -35 -6 1 -12 -24
-14 -61 -1 -34 1 -57 6 -50 4 7 8 32 8 56 0 24 5 42 11 42 8 0 10 -15 7 -45
-5 -39 -4 -44 9 -33 10 8 13 21 8 42 -9 46 -10 68 -1 104 7 30 -1 42 -17 25z"/>
<path d="M2040 2977 c0 -13 4 -27 9 -32 5 -6 11 -18 13 -27 2 -12 7 -15 17 -9
12 8 12 12 -2 25 -8 9 -14 27 -13 41 2 16 -2 25 -10 25 -8 0 -14 -10 -14 -23z"/>
<path d="M2198 2987 c11 -13 11 -26 -2 -77 -9 -34 -16 -71 -16 -81 0 -16 -5
-19 -19 -14 -11 3 -23 0 -27 -6 -4 -7 -3 -9 4 -5 6 3 17 -3 25 -15 8 -11 26
-22 39 -23 14 -2 35 -13 48 -26 l22 -22 -40 5 c-28 3 -39 1 -36 -7 3 -7 15
-12 27 -13 50 -1 57 -4 57 -22 0 -11 5 -23 10 -26 6 -4 7 -11 4 -17 -4 -6 -10
-5 -15 3 -7 11 -9 10 -9 -3 0 -10 4 -18 10 -18 13 0 34 -41 24 -49 -14 -10
-10 -51 6 -61 13 -8 12 -12 -5 -24 -13 -10 -15 -15 -6 -16 7 0 11 -6 8 -14 -3
-7 -1 -18 5 -24 6 -6 6 -12 0 -16 -11 -6 -4 -56 8 -56 5 0 7 -16 6 -35 -2 -20
0 -38 4 -40 5 -3 6 -15 3 -28 -4 -19 -3 -20 6 -5 9 14 10 98 1 118 -1 3 -2 9
-1 13 1 5 -2 6 -6 4 -5 -3 -9 17 -10 44 -1 27 -1 49 1 49 2 0 14 -19 26 -42
12 -23 28 -47 36 -53 12 -8 11 -21 -6 -84 -23 -81 -37 -114 -48 -107 -4 2 -8
-30 -8 -73 l-1 -76 11 50 c11 44 13 47 19 24 4 -14 18 -43 33 -64 24 -35 25
-42 14 -84 -16 -68 -41 -131 -52 -131 -5 0 -8 -8 -7 -17 4 -24 -20 -121 -38
-156 -12 -23 -17 -26 -29 -16 -17 14 -18 5 -3 -20 9 -14 7 -34 -11 -92 -12
-41 -26 -79 -31 -85 -9 -11 -10 -88 -1 -79 3 2 20 -21 39 -53 l34 -57 -15 -55
c-8 -30 -21 -73 -29 -95 -13 -34 -13 -54 -2 -140 14 -106 31 -175 43 -175 4 0
6 18 4 40 -4 35 -1 40 22 46 16 4 23 10 19 18 -11 16 -11 76 -1 82 4 3 8 -4 8
-15 0 -12 4 -21 9 -21 5 0 7 -9 4 -19 -5 -19 26 -46 41 -36 3 3 4 2 1 -1 -2
-4 16 -32 40 -64 24 -32 49 -76 54 -99 10 -47 -2 -54 -23 -12 -28 53 -120 141
-146 140 -16 0 -19 -3 -10 -6 46 -18 141 -121 171 -185 14 -31 73 -70 87 -56
17 17 28 -8 30 -74 2 -29 6 -38 20 -37 9 0 12 2 7 5 -6 2 -9 24 -7 49 2 24 -2
58 -9 75 -14 29 -29 40 -29 20 0 -18 -46 -11 -65 10 -15 16 -15 22 -5 35 7 8
18 15 26 15 10 0 9 7 -4 32 -9 18 -20 35 -23 38 -3 3 -22 30 -41 60 -70 108
-143 195 -181 213 -43 22 -43 25 -18 92 16 40 65 194 88 275 2 9 12 -4 24 -30
11 -25 29 -54 39 -65 17 -18 18 -26 9 -60 -23 -90 -40 -125 -62 -125 -19 0
-20 -1 -3 -13 15 -11 16 -19 6 -61 -6 -27 -7 -52 -2 -55 4 -3 19 -22 32 -41
13 -19 27 -37 30 -40 3 -3 20 -25 38 -49 18 -25 32 -42 32 -37 0 4 14 -1 30
-11 17 -9 30 -21 30 -25 0 -4 7 -8 15 -8 8 0 15 -5 15 -11 0 -5 4 -8 9 -5 4 3
15 -2 24 -12 15 -16 23 -96 16 -157 -2 -17 6 -192 17 -360 2 -27 3 -60 4 -73
0 -14 4 -21 11 -17 6 4 8 13 5 21 -3 8 -8 98 -11 201 -3 104 -8 204 -11 223
l-5 35 24 -35 c13 -19 32 -56 42 -83 17 -46 33 -67 20 -27 -4 11 -8 34 -10 51
-4 32 -38 82 -49 72 -4 -4 -6 6 -6 23 3 76 -20 138 -60 159 -14 8 -37 25 -52
40 -16 14 -28 22 -28 18 0 -4 -12 10 -26 32 -18 28 -23 33 -18 15 14 -52 14
-54 -2 -20 -10 19 -29 60 -44 90 -53 107 -55 122 -26 194 14 35 26 75 27 88 0
15 6 7 20 -28 10 -27 28 -60 40 -73 17 -18 20 -30 14 -59 -9 -53 -25 -102 -33
-101 -23 4 -42 -2 -37 -11 4 -6 11 -8 16 -5 5 4 9 -3 9 -15 0 -38 17 -12 40
61 l23 71 12 -34 c7 -18 15 -40 19 -48 5 -12 0 -16 -20 -15 -15 0 -29 -4 -30
-10 -2 -5 14 -10 36 -11 22 -1 40 -1 40 0 0 1 -13 34 -28 74 l-28 74 23 46
c13 26 27 67 31 92 l7 45 19 -50 c10 -28 30 -65 44 -84 l25 -34 -19 -66 c-19
-63 -21 -66 -48 -63 -20 2 -27 -1 -23 -10 2 -7 10 -12 16 -10 6 1 11 -5 11
-13 0 -49 41 24 60 107 6 28 8 30 14 13 22 -60 41 -96 58 -111 14 -13 17 -26
13 -53 -4 -25 -3 -30 3 -16 8 18 10 18 25 -10 34 -66 49 -246 23 -280 -9 -11
-15 -29 -15 -40 0 -14 6 -7 21 20 18 35 20 59 22 189 1 110 4 150 14 153 13 5
17 43 5 43 -5 0 -8 15 -8 33 0 17 -4 48 -8 67 -4 23 -4 30 2 20 6 -8 14 -11
18 -6 4 4 1 13 -7 19 -8 7 -15 23 -16 37 0 14 -4 100 -8 193 -5 114 -4 167 4
167 5 0 10 5 10 11 0 5 -4 7 -10 4 -6 -4 -10 42 -10 132 0 76 -4 154 -10 173
-7 23 -6 36 0 40 6 4 8 15 4 24 -4 11 -1 21 7 27 12 7 12 12 1 29 -7 11 -9 26
-5 33 4 6 8 28 8 48 1 19 7 50 14 67 12 29 15 30 26 16 18 -25 31 -10 29 33
-1 21 2 43 7 48 9 13 -7 43 -17 32 -4 -4 -6 -30 -5 -58 1 -32 -2 -48 -9 -44
-5 3 -10 20 -10 37 0 40 -14 27 -16 -14 -1 -17 -6 -33 -11 -37 -6 -3 -13 -13
-17 -21 -3 -8 -4 -3 -1 13 3 15 1 36 -5 46 -5 11 -6 21 -1 23 11 4 30 145 20
155 -4 5 -9 15 -12 23 -2 8 -3 4 -2 -10 1 -14 -1 -52 -5 -85 -7 -55 -7 -52 -8
40 -1 55 -3 179 -5 275 -3 131 -2 162 5 122 6 -30 12 -51 15 -48 10 9 -9 127
-21 132 -7 3 -11 20 -10 42 l3 37 -7 -34 -7 -35 -33 62 c-31 60 -32 64 -16 93
8 17 13 33 11 35 -2 3 -10 -9 -17 -26 -16 -38 -36 -38 -58 0 -9 16 -21 30 -26
30 -11 0 23 -52 41 -63 30 -18 9 -57 -49 -88 -12 -7 -29 -18 -36 -26 -7 -7
-18 -13 -23 -13 -20 0 -19 30 6 105 27 85 29 94 16 80 -4 -6 -14 -32 -21 -60
-18 -67 -26 -78 -54 -64 -20 11 -20 11 2 -10 12 -12 22 -27 22 -34 -1 -15 -70
59 -70 74 0 8 6 7 17 -2 15 -13 15 -12 2 8 -9 16 -16 19 -21 10 -6 -9 -8 -8
-8 2 0 8 -3 12 -6 9 -7 -8 30 -81 50 -97 9 -7 13 -18 9 -24 -3 -6 -1 -7 5 -3
7 4 12 1 12 -6 0 -16 22 -47 62 -90 l27 -28 -20 -71 c-24 -86 -45 -129 -63
-129 -7 0 -28 28 -46 61 l-32 61 20 37 c11 20 23 52 27 71 4 19 12 38 17 41 7
4 7 13 -1 25 -10 18 -10 18 -11 -3 0 -13 -6 -23 -14 -23 -7 0 -21 -11 -30 -25
-19 -28 -10 -35 10 -8 7 10 15 15 19 12 9 -9 -26 -90 -36 -83 -5 3 -6 -2 -3
-10 3 -9 1 -16 -6 -16 -7 0 -9 -8 -5 -20 7 -21 -24 -136 -49 -184 -13 -26 -14
-26 -31 -9 -24 23 -65 113 -64 138 0 20 1 20 8 1 7 -18 9 -17 18 10 6 16 14
37 18 47 4 10 3 17 -4 17 -6 0 -11 -9 -11 -19 0 -11 -5 -23 -12 -27 -7 -5 -9
-2 -5 9 3 8 -1 21 -9 28 -8 6 -13 17 -11 23 3 6 -2 27 -10 46 -10 25 -12 52
-7 95 l6 59 24 -46 c13 -26 31 -51 40 -56 10 -6 15 -16 11 -25 -3 -9 1 -18 10
-21 8 -4 13 -13 9 -21 -3 -8 -1 -15 4 -15 5 0 18 -10 30 -22 27 -30 25 -14 -3
25 -13 18 -29 46 -36 64 -7 17 -19 34 -27 37 -8 3 -14 11 -14 17 0 8 5 7 17
-2 9 -8 19 -13 22 -12 3 0 5 -3 4 -8 -2 -5 2 -9 9 -9 6 0 9 -3 5 -6 -7 -7 27
-79 42 -88 5 -3 7 3 4 14 -3 12 0 20 6 20 7 0 10 4 6 10 -3 5 -12 7 -21 3 -8
-3 -14 -2 -12 3 1 5 -3 18 -9 30 -11 20 -2 68 37 187 10 33 4 57 -16 57 -8 0
-14 4 -14 9 0 10 19 9 36 -2 7 -4 14 -1 17 7 4 10 -4 13 -34 13 -44 -1 -49 -9
-17 -31 l22 -16 -22 -87 c-23 -89 -31 -107 -39 -85 -3 6 -10 12 -18 12 -7 0
-18 14 -25 30 -7 17 -17 33 -22 36 -5 3 -2 -11 7 -32 24 -57 8 -54 -17 4 -13
28 -27 51 -33 50 -5 -1 -20 16 -32 38 -13 21 -23 34 -23 28 0 -18 28 -67 48
-84 16 -13 17 -22 9 -68 -7 -44 -11 -51 -23 -41 -8 6 -14 19 -14 29 0 19 -30
50 -49 50 -7 0 -11 6 -8 14 3 8 9 32 13 53 3 21 15 53 25 71 10 17 14 32 9 32
-6 0 -10 -5 -10 -10 0 -7 -8 -6 -22 1 -21 11 -22 11 -10 -4z m588 -184 c21
-34 17 -96 -11 -165 -23 -57 -38 -77 -57 -78 -4 0 -21 29 -38 64 -29 59 -31
66 -17 88 19 28 57 156 57 189 0 18 6 13 26 -26 14 -28 32 -60 40 -72z m-94
19 c-5 -15 -17 -48 -27 -74 -15 -42 -19 -47 -36 -38 -20 11 -69 78 -69 95 0 5
9 -1 20 -15 16 -20 20 -22 20 -7 0 9 5 17 10 17 6 0 20 11 32 25 12 14 28 25
35 25 7 0 13 6 14 13 0 9 2 9 6 -1 3 -7 1 -25 -5 -40z m-482 -26 c0 -8 -4 -17
-9 -21 -12 -7 -24 12 -16 25 9 15 25 12 25 -4z m30 -6 c0 -5 -4 -10 -10 -10
-5 0 -10 5 -10 10 0 6 5 10 10 10 6 0 10 -4 10 -10z m474 -243 c14 -11 14 -18
-3 -82 -19 -74 -46 -135 -60 -135 -13 0 -37 31 -61 79 -21 42 -21 46 -6 73 23
38 56 136 56 167 1 21 7 14 29 -32 16 -32 36 -63 45 -70z m88 -29 c2 -54 1
-95 -2 -90 -3 4 -17 30 -29 59 l-24 51 24 58 c26 64 26 64 31 -78z m-261 -48
c14 0 11 -40 -11 -115 -32 -106 -33 -113 -12 -75 11 19 25 61 32 94 l12 59 25
-44 c13 -24 34 -54 45 -66 19 -21 19 -23 3 -80 -9 -32 -26 -77 -37 -101 -17
-37 -22 -41 -36 -30 -8 7 -28 41 -44 76 -16 34 -37 71 -46 80 -31 31 -65 111
-54 125 13 16 38 80 52 135 l11 44 25 -51 c14 -28 30 -51 35 -51z m268 -226
c0 -76 3 -159 7 -184 8 -58 -6 -44 -35 36 l-22 61 20 39 c12 21 21 46 21 54
-1 8 -12 -7 -26 -33 -14 -27 -30 -47 -37 -45 -7 2 -27 34 -45 71 l-33 67 19
25 c11 14 27 55 37 92 9 38 19 74 21 82 3 8 20 -17 38 -56 33 -69 34 -73 35
-209z m-379 66 c11 -21 29 -48 40 -58 19 -18 19 -19 1 -83 -10 -36 -26 -80
-35 -98 -22 -41 -34 -32 -71 50 -24 54 -25 62 -11 72 9 7 24 45 34 84 9 40 18
73 19 73 2 0 12 -18 23 -40z m251 -77 c11 -27 29 -57 39 -68 19 -20 19 -22 -4
-96 -44 -142 -60 -150 -105 -54 -17 36 -31 67 -31 70 0 2 11 21 25 41 14 20
30 63 37 95 7 33 14 59 15 59 2 0 13 -21 24 -47z m-133 -126 c14 -15 14 -25 5
-72 -14 -65 -48 -145 -62 -145 -5 0 -24 29 -41 64 l-32 65 19 28 c22 31 53
115 54 147 0 14 7 6 20 -24 11 -25 28 -53 37 -63z m227 -29 c10 -29 24 -62 32
-73 26 -39 7 -141 -39 -206 l-17 -24 -20 23 c-11 13 -29 47 -40 76 l-20 53 24
47 c13 26 29 72 36 101 7 30 15 55 19 55 3 0 14 -24 25 -52z m-145 -119 l29
-37 -20 -73 c-23 -85 -43 -121 -63 -113 -7 3 -27 34 -44 70 l-30 65 23 42 c13
23 29 68 36 101 l13 59 13 -39 c8 -22 27 -55 43 -75z m-196 -3 c3 -14 18 -39
32 -56 26 -31 27 -33 14 -88 -7 -31 -20 -74 -30 -95 -16 -37 -18 -38 -34 -22
-10 10 -14 25 -11 33 3 9 3 13 -2 9 -4 -4 -15 7 -25 25 -15 26 -17 28 -12 8 3
-14 18 -46 31 -72 24 -44 25 -50 13 -100 -15 -61 -36 -108 -50 -108 -11 0 -48
69 -60 110 -5 16 -3 30 5 37 7 6 22 49 34 95 12 45 30 102 41 126 11 23 23 60
26 82 7 45 19 52 28 16z m298 -183 l20 -22 -28 -88 c-38 -114 -55 -118 -102
-20 -31 63 -33 70 -18 86 18 19 56 123 57 155 0 13 10 1 26 -34 13 -30 34 -65
45 -77z m90 -45 c2 -59 1 -104 -3 -100 -3 4 -16 35 -28 70 l-22 63 20 43 c12
23 22 49 22 57 3 30 8 -31 11 -133z m-258 0 c15 -16 15 -21 0 -85 -9 -37 -23
-81 -31 -96 -18 -37 -32 -26 -67 54 l-27 60 20 42 c11 23 25 64 32 91 l12 49
22 -49 c12 -27 29 -57 39 -66z m250 -116 c30 -58 10 -181 -36 -220 -19 -15
-34 5 -71 93 -24 58 -24 59 -6 84 10 14 28 60 40 101 l22 74 17 -50 c10 -27
25 -64 34 -82z m-204 23 c0 -7 14 -31 31 -55 31 -42 31 -45 20 -94 -6 -28 -21
-71 -32 -95 l-20 -45 -20 20 c-11 11 -30 46 -43 77 l-23 57 23 46 c13 25 26
66 30 91 6 42 8 45 20 28 8 -10 14 -24 14 -30z m-113 -117 c13 -14 13 -25 3
-75 -7 -32 -20 -73 -30 -92 l-17 -34 -21 23 c-12 13 -30 48 -40 79 -18 54 -18
57 -1 86 10 16 24 53 30 82 l12 52 24 -52 c13 -28 31 -59 40 -69z m-193 39 c3
-13 17 -41 31 -61 20 -30 25 -46 20 -70 -10 -46 -39 -136 -45 -136 -9 0 -48
64 -60 101 -11 31 -10 43 9 93 11 31 21 66 21 76 0 28 17 25 24 -3z m447 -179
l21 -18 -29 -87 c-34 -105 -50 -114 -85 -50 -48 85 -49 98 -17 162 16 32 29
66 29 76 0 51 14 48 36 -8 13 -32 33 -66 45 -75z m-176 -14 c26 -33 26 -34 10
-94 -34 -131 -53 -140 -96 -44 l-30 67 19 46 c11 25 26 66 32 91 l13 45 13
-39 c8 -22 25 -54 39 -72z m259 -132 c-1 -1 -13 30 -28 70 -22 61 -24 74 -12
87 7 9 18 27 22 41 7 18 10 -5 14 -85 3 -60 5 -111 4 -113z m-31 46 c10 -29
23 -69 27 -88 10 -42 17 -246 9 -254 -3 -4 -14 3 -24 14 -16 18 -17 23 -5 48
23 44 23 48 0 20 -12 -16 -26 -28 -31 -28 -10 0 -45 65 -65 123 -13 36 -12 41
5 63 11 14 28 56 37 94 10 38 20 67 23 65 2 -3 13 -29 24 -57z m-379 -286 c-1
-2 -11 4 -21 13 -14 12 -18 25 -15 47 l5 32 17 -45 c9 -24 16 -45 14 -47z
m-124 17 c0 -4 -7 -6 -15 -3 -8 4 -15 10 -15 15 0 4 7 6 15 3 8 -4 15 -10 15
-15z m25 -15 c-6 -2 -9 -24 -7 -49 3 -35 0 -46 -12 -51 -9 -4 -20 -3 -24 1 -4
4 -1 10 6 12 17 6 15 33 -3 47 -8 6 -11 16 -7 21 10 15 46 33 52 27 3 -2 0 -6
-5 -8z m515 -123 c-1 -22 -3 -19 -15 14 -18 50 -18 55 0 31 8 -11 15 -31 15
-45z"/>
<path d="M2685 1210 c-3 -5 -1 -10 4 -10 6 0 11 5 11 10 0 6 -2 10 -4 10 -3 0
-8 -4 -11 -10z"/>
<path d="M2755 1210 c-4 -6 9 -10 32 -10 28 0 34 3 23 10 -20 13 -47 13 -55 0z"/>
<path d="M2331 2944 c-22 -58 -28 -92 -10 -62 12 22 40 111 35 115 -2 2 -13
-22 -25 -53z"/>
<path d="M2777 2968 c-4 -21 -12 -38 -17 -38 -6 0 -10 -4 -10 -10 0 -5 7 -10
15 -10 17 0 28 36 23 71 -3 19 -5 17 -11 -13z"/>
<path d="M2820 2994 c0 -6 7 -19 15 -30 8 -10 14 -14 14 -9 0 6 -6 19 -14 29
-8 11 -15 15 -15 10z"/>
<path d="M2850 2996 c0 -2 7 -9 15 -16 13 -11 14 -10 9 4 -5 14 -24 23 -24 12z"/>
<path d="M2942 2970 c0 -19 2 -27 5 -17 2 9 2 25 0 35 -3 9 -5 1 -5 -18z"/>
<path d="M2987 2678 c3 -178 6 -327 8 -333 2 -5 4 140 4 323 1 182 -3 332 -7
332 -5 0 -7 -145 -5 -322z"/>
<path d="M1188 2803 c-2 -98 -2 -180 -1 -182 10 -15 14 21 16 122 1 63 5 114
8 112 6 -5 -7 114 -14 121 -3 3 -7 -75 -9 -173z"/>
<path d="M918 2938 c0 -18 -1 -39 -1 -45 1 -7 -3 -13 -8 -13 -5 0 -9 -7 -9
-15 0 -23 17 -18 25 8 14 46 17 97 6 97 -6 0 -12 -15 -13 -32z"/>
<path d="M992 2950 c0 -14 2 -19 5 -12 2 6 2 18 0 25 -3 6 -5 1 -5 -13z"/>
<path d="M1591 2954 c0 -11 3 -14 6 -6 3 7 2 16 -1 19 -3 4 -6 -2 -5 -13z"/>
<path d="M2250 2962 c0 -22 30 -73 40 -67 6 4 10 11 10 16 0 6 -4 8 -9 5 -5
-3 -16 9 -25 27 -8 17 -16 26 -16 19z"/>
<path d="M1695 2950 c-4 -7 -2 -16 5 -20 9 -5 11 -23 7 -55 -3 -29 -1 -42 4
-34 11 18 11 90 0 108 -7 10 -10 10 -16 1z"/>
<path d="M1027 2926 c-11 -8 -14 -17 -8 -20 5 -4 15 3 21 14 13 23 11 24 -13
6z"/>
<path d="M2821 2908 c-1 -21 4 -38 9 -38 11 0 11 14 0 50 -7 22 -8 21 -9 -12z"/>
<path d="M2020 2920 c0 -5 5 -10 10 -10 16 0 11 -38 -7 -48 -23 -14 -9 -46 18
-39 18 5 20 2 14 -23 -7 -32 4 -44 23 -24 7 8 8 14 2 14 -14 0 -13 47 3 54 8
3 6 10 -9 23 -12 11 -25 29 -28 41 -7 22 -26 31 -26 12z m50 -66 c0 -2 -7 -4
-15 -4 -8 0 -15 4 -15 10 0 5 7 7 15 4 8 -4 15 -8 15 -10z"/>
<path d="M987 2906 c-4 -10 -7 -25 -6 -34 0 -11 4 -9 10 7 5 13 8 29 6 35 -2
5 -6 2 -10 -8z"/>
<path d="M2095 2907 c-5 -12 -2 -32 9 -54 14 -28 19 -33 31 -23 8 6 19 9 24 6
5 -4 9 2 8 13 -1 16 -5 17 -24 10 -25 -9 -29 -5 -36 41 -3 22 -4 23 -12 7z"/>
<path d="M2861 2893 c0 -25 1 -26 9 -8 12 27 12 35 0 35 -5 0 -10 -12 -9 -27z"/>
<path d="M2900 2911 c0 -6 5 -13 10 -16 6 -3 10 1 10 9 0 9 -4 16 -10 16 -5 0
-10 -4 -10 -9z"/>
<path d="M1141 2864 c0 -11 3 -14 6 -6 3 7 2 16 -1 19 -3 4 -6 -2 -5 -13z"/>
<path d="M2940 2873 c0 -5 5 -15 10 -23 7 -12 9 -10 7 8 -1 19 -17 33 -17 15z"/>
<path d="M1421 2844 c0 -11 3 -14 6 -6 3 7 2 16 -1 19 -3 4 -6 -2 -5 -13z"/>
<path d="M582 2830 c0 -14 2 -19 5 -12 2 6 2 18 0 25 -3 6 -5 1 -5 -13z"/>
<path d="M931 2808 c-7 -23 -18 -53 -24 -67 -13 -33 -18 -89 -6 -70 5 8 9 22
9 32 0 10 5 15 10 12 6 -3 10 -3 11 2 0 4 2 17 4 28 10 55 16 105 12 105 -2 0
-9 -19 -16 -42z"/>
<path d="M971 2834 c0 -11 3 -14 6 -6 3 7 2 16 -1 19 -3 4 -6 -2 -5 -13z"/>
<path d="M1741 2834 c0 -11 3 -14 6 -6 3 7 2 16 -1 19 -3 4 -6 -2 -5 -13z"/>
<path d="M2860 2840 c0 -5 5 -10 10 -10 6 0 10 5 10 10 0 6 -4 10 -10 10 -5 0
-10 -4 -10 -10z"/>
<path d="M1240 2816 c0 -36 15 -40 18 -5 1 16 -2 29 -8 29 -5 0 -10 -11 -10
-24z"/>
<path d="M2085 2820 c-3 -5 1 -10 10 -10 9 0 13 5 10 10 -3 6 -8 10 -10 10 -2
0 -7 -4 -10 -10z"/>
<path d="M1140 2811 c0 -6 4 -13 10 -16 6 -3 7 1 4 9 -7 18 -14 21 -14 7z"/>
<path d="M2000 2785 c0 -9 6 -12 15 -9 8 4 15 10 15 15 0 5 -7 9 -15 9 -8 0
-15 -7 -15 -15z"/>
<path d="M1832 2770 c6 -10 18 -16 25 -13 7 3 13 -2 13 -11 0 -9 5 -16 10 -16
6 0 10 -8 10 -17 0 -13 3 -14 11 -6 9 9 8 16 -5 28 -9 9 -16 20 -16 25 0 4
-13 13 -30 18 -27 10 -29 9 -18 -8z"/>
<path d="M2121 2764 c-10 -22 -9 -30 6 -48 10 -11 19 -23 20 -25 1 -2 17 -5
35 -7 23 -3 29 -1 18 5 -8 6 -17 8 -21 5 -4 -2 -9 3 -13 11 -3 8 -12 15 -21
15 -18 0 -19 12 -3 28 9 9 9 12 0 12 -6 0 -9 7 -6 15 10 26 -2 16 -15 -11z"/>
<path d="M1937 2754 c-3 -16 0 -28 9 -31 16 -6 13 -71 -3 -82 -6 -3 -12 -12
-15 -20 -2 -9 -16 4 -36 35 -68 107 -76 114 -101 109 -12 -3 -34 -13 -47 -21
-19 -13 -21 -18 -10 -29 7 -7 25 -12 39 -12 31 2 37 17 7 17 -21 0 -27 15 -10
25 6 3 10 1 10 -5 0 -6 4 -9 9 -6 17 11 42 -6 36 -24 -3 -10 0 -22 6 -26 9 -5
10 -2 6 9 -3 10 -2 17 3 17 6 0 10 -8 10 -18 0 -10 16 -37 35 -59 19 -23 35
-46 35 -52 0 -6 4 -11 9 -11 5 0 7 9 4 20 -6 23 2 26 21 8 16 -15 8 -58 -10
-58 -8 0 -14 -4 -14 -9 0 -13 38 -9 44 4 7 18 -2 65 -14 80 -8 10 -9 15 -2 15
6 0 18 -10 27 -22 l17 -23 -6 23 c-3 12 -9 32 -12 44 -6 20 -5 21 9 9 17 -13
33 -74 28 -100 -2 -12 0 -12 12 -3 16 14 27 6 27 -19 0 -10 5 -21 10 -24 7 -4
9 2 4 19 -4 15 -2 26 4 26 6 0 13 15 17 33 4 17 9 40 12 51 3 12 1 16 -6 12
-7 -4 -9 -1 -5 7 3 8 0 18 -6 22 -18 11 -20 2 -10 -34 14 -49 -20 -110 -37
-65 -3 8 0 21 7 27 10 9 11 9 6 0 -5 -9 -2 -11 10 -6 14 5 14 8 -6 23 -13 10
-20 22 -17 27 4 6 0 16 -8 23 -10 9 -15 9 -15 1 0 -6 -4 -11 -10 -11 -5 0 -10
6 -10 14 0 8 -10 23 -23 33 -14 11 -21 26 -19 41 5 31 -15 28 -21 -4z"/>
<path d="M2095 2771 c-3 -5 -1 -12 5 -16 5 -3 10 1 10 9 0 18 -6 21 -15 7z"/>
<path d="M2885 2771 c-3 -5 -1 -12 5 -16 5 -3 10 1 10 9 0 18 -6 21 -15 7z"/>
<path d="M1226 2763 c-9 -10 -7 -25 3 -19 17 11 17 -117 0 -151 -9 -17 -19
-58 -22 -90 l-5 -58 15 37 c11 27 19 35 31 30 16 -5 16 -5 0 11 -15 16 -15 21
-2 53 11 26 13 54 8 110 -7 71 -14 91 -28 77z"/>
<path d="M1635 2750 c-9 -10 -20 -19 -24 -18 -30 3 -55 -30 -64 -89 -3 -17 -8
-38 -12 -45 -3 -7 0 -4 9 7 8 11 20 25 25 31 5 7 15 31 22 55 9 36 13 41 19
24 4 -11 4 -28 -1 -37 -14 -27 -10 -32 10 -14 15 13 20 14 24 4 4 -9 6 -7 6 4
1 9 9 21 18 27 10 5 14 13 10 17 -4 5 -17 2 -28 -5 -31 -19 -36 -5 -10 29 25
34 23 40 -4 10z"/>
<path d="M2010 2741 c0 -12 5 -21 10 -21 6 0 10 6 10 14 0 8 -4 18 -10 21 -5
3 -10 -3 -10 -14z"/>
<path d="M2941 2733 c-1 -17 4 -35 9 -38 12 -7 12 22 0 50 -7 17 -9 15 -9 -12z"/>
<path d="M2052 2733 c-8 -15 -9 -24 -1 -28 15 -10 21 0 17 27 l-3 23 -13 -22z"/>
<path d="M2165 2730 c3 -5 8 -10 11 -10 2 0 4 5 4 10 0 6 -5 10 -11 10 -5 0
-7 -4 -4 -10z"/>
<path d="M1517 2688 c-11 -23 -16 -69 -17 -153 -3 -150 -2 -180 6 -172 4 3 8
71 10 150 2 79 8 156 14 172 15 40 6 42 -13 3z"/>
<path d="M1917 2695 c-4 -8 -2 -17 3 -20 6 -4 10 -4 10 -1 0 2 3 11 6 20 3 9
2 16 -4 16 -5 0 -12 -7 -15 -15z"/>
<path d="M930 2693 c0 -6 4 -23 9 -37 7 -18 6 -28 -4 -36 -8 -7 -13 -16 -10
-20 6 -10 -24 -209 -35 -230 -5 -9 -5 -22 -1 -29 10 -15 28 26 35 79 3 19 13
78 21 130 15 86 15 98 1 125 -9 17 -16 25 -16 18z"/>
<path d="M1677 2680 c-17 -20 -11 -25 17 -14 16 6 23 34 8 34 -4 0 -15 -9 -25
-20z"/>
<path d="M1128 2660 c-3 -16 -1 -35 4 -42 4 -8 8 4 8 30 0 49 -6 55 -12 12z"/>
<path d="M1790 2670 c14 -11 28 -20 33 -20 4 0 7 -8 7 -18 0 -25 7 -31 30 -25
25 7 16 24 -30 58 -41 30 -78 35 -40 5z"/>
<path d="M755 2669 c-4 -6 -5 -12 -2 -15 2 -3 7 2 10 11 7 17 1 20 -8 4z"/>
<path d="M1693 2654 c-19 -14 -37 -41 -44 -63 -6 -22 -22 -45 -38 -54 -19 -12
-22 -17 -9 -17 10 0 32 19 49 43 42 59 64 69 106 49 18 -9 33 -19 33 -24 0
-12 -13 -10 -35 6 -17 12 -22 12 -33 0 -11 -12 -8 -14 16 -14 16 0 46 -11 66
-25 20 -14 39 -25 41 -25 24 0 -40 95 -65 96 -37 2 -52 13 -45 34 8 27 -3 25
-42 -6z"/>
<path d="M413 2590 c0 -47 2 -66 4 -42 2 23 2 61 0 85 -2 23 -4 4 -4 -43z"/>
<path d="M2139 2657 c-10 -8 -16 -27 -16 -52 0 -22 2 -30 4 -17 2 12 9 22 15
22 5 0 8 6 5 13 -10 26 8 38 29 20 30 -27 53 -29 30 -4 -11 12 -21 19 -24 16
-3 -3 -10 -1 -16 4 -7 6 -17 5 -27 -2z"/>
<path d="M2831 2634 c0 -11 3 -14 6 -6 3 7 2 16 -1 19 -3 4 -6 -2 -5 -13z"/>
<path d="M2370 2636 c0 -2 7 -6 15 -10 8 -3 15 -1 15 4 0 6 -7 10 -15 10 -8 0
-15 -2 -15 -4z"/>
<path d="M1593 2615 c1 -11 -3 -26 -7 -34 -7 -11 -5 -13 7 -8 9 3 18 3 20 -1
2 -4 3 -2 1 4 -1 6 3 17 9 23 8 8 7 11 -5 11 -9 0 -19 6 -22 13 -3 6 -5 3 -3
-8z"/>
<path d="M2197 2599 c7 -7 15 -10 18 -7 3 3 -2 9 -12 12 -14 6 -15 5 -6 -5z"/>
<path d="M726 2585 c-3 -8 -1 -15 4 -15 6 0 10 7 10 15 0 8 -2 15 -4 15 -2 0
-6 -7 -10 -15z"/>
<path d="M1187 2593 c-4 -3 -7 -16 -6 -27 0 -19 1 -19 10 3 10 24 8 36 -4 24z"/>
<path d="M1116 2575 c-9 -26 -7 -32 5 -12 6 10 9 21 6 23 -2 3 -7 -2 -11 -11z"/>
<path d="M1864 2565 c26 -20 36 -19 36 3 0 13 -2 14 -9 3 -6 -9 -11 -10 -15
-2 -4 6 -13 11 -19 11 -7 0 -3 -7 7 -15z"/>
<path d="M2097 2565 c-8 -20 -4 -29 11 -24 5 2 6 13 2 23 -6 19 -7 19 -13 1z"/>
<path d="M2170 2555 c0 -21 4 -26 16 -21 14 5 15 4 4 -9 -8 -10 -9 -15 -2 -15
7 0 9 -7 5 -17 -4 -9 -2 -14 3 -11 5 4 18 -1 29 -9 14 -11 15 -14 3 -10 -11 4
-18 -1 -21 -15 -3 -11 -3 -17 0 -14 7 7 33 -13 33 -26 0 -5 -4 -6 -10 -3 -15
9 -8 -44 7 -57 11 -9 10 -14 -3 -29 -10 -11 -12 -19 -7 -19 22 0 29 -43 48
-304 2 -28 0 -43 -5 -36 -5 8 -18 15 -30 17 l-22 3 21 -26 c24 -31 36 -97 26
-153 -10 -61 -20 -50 -19 21 1 69 -8 98 -32 98 -13 0 -13 -2 -2 -14 10 -9 15
-44 17 -105 2 -79 -1 -97 -19 -128 -21 -35 -21 -51 -1 -38 6 3 11 12 11 19 0
8 7 19 15 26 13 11 13 8 1 -28 -8 -22 -18 -66 -22 -98 -4 -32 -14 -65 -22 -73
-12 -13 -14 -38 -9 -151 4 -74 12 -151 17 -170 10 -31 20 -131 22 -218 0 -17
5 -32 10 -32 6 0 8 -9 5 -20 -3 -11 -1 -17 4 -14 5 3 7 20 4 37 -6 35 -20 184
-35 375 -8 107 -6 138 10 228 11 58 24 122 30 142 5 21 12 58 15 82 3 25 10
61 16 80 6 19 12 129 14 244 4 175 2 211 -11 223 -11 11 -12 19 -4 28 8 10 8
15 0 20 -6 4 -9 13 -6 20 2 7 -1 18 -7 24 -8 8 -7 11 4 11 11 0 11 2 1 9 -9 5
-14 34 -15 83 -1 42 -5 74 -8 72 -4 -2 -12 3 -19 11 -7 8 -18 15 -24 15 -6 0
-4 -4 4 -10 8 -5 11 -12 7 -16 -4 -4 -16 1 -27 11 -20 18 -20 17 -20 -10z m61
-46 c-5 -13 -10 -19 -10 -12 -1 15 10 45 15 40 3 -2 0 -15 -5 -28z"/>
<path d="M2875 2570 c3 -5 8 -10 11 -10 2 0 4 5 4 10 0 6 -5 10 -11 10 -5 0
-7 -4 -4 -10z"/>
<path d="M2142 2557 c-7 -8 -6 -19 3 -37 14 -25 14 -25 15 13 0 40 -2 43 -18
24z"/>
<path d="M1560 2535 c0 -14 5 -25 10 -25 6 0 10 11 10 25 0 14 -4 25 -10 25
-5 0 -10 -11 -10 -25z"/>
<path d="M1164 2526 c-3 -8 -1 -34 4 -58 l10 -43 -1 57 c-2 61 -4 67 -13 44z"/>
<path d="M1770 2527 c0 -8 7 -14 15 -14 8 0 15 6 15 14 0 7 -7 13 -15 13 -8 0
-15 -6 -15 -13z"/>
<path d="M1886 2525 c3 -11 11 -38 17 -60 14 -57 27 -66 27 -19 0 29 -3 35
-10 24 -8 -12 -10 -12 -10 5 0 11 -8 31 -16 45 -10 17 -13 18 -8 5z"/>
<path d="M2952 2520 c0 -14 2 -19 5 -12 2 6 2 18 0 25 -3 6 -5 1 -5 -13z"/>
<path d="M1447 2514 c-4 -4 -3 -12 0 -17 4 -6 6 -30 4 -52 -1 -28 3 -46 13
-54 11 -9 16 -10 16 -2 0 6 -4 11 -10 11 -5 0 -10 7 -10 16 0 9 5 12 13 8 10
-6 10 -4 0 7 -14 14 -18 33 -5 25 4 -2 6 11 4 30 -4 33 -12 41 -25 28z"/>
<path d="M1644 2508 c-11 -18 -12 -48 -2 -54 4 -3 8 5 8 18 0 13 5 29 12 36 9
9 9 12 1 12 -7 0 -15 -6 -19 -12z"/>
<path d="M1836 2495 c19 -29 29 -27 19 4 -3 12 -13 21 -21 21 -12 0 -12 -4 2
-25z"/>
<path d="M2857 2485 c4 -22 8 -56 9 -75 4 -73 17 -121 35 -130 12 -7 20 -7 24
0 3 5 -3 10 -13 10 -17 0 -21 10 -27 68 -9 92 -13 116 -25 144 -8 18 -9 15 -3
-17z"/>
<path d="M1271 2503 c0 -6 -4 -20 -7 -30 -5 -14 -4 -15 5 -7 7 7 11 20 8 30
-3 11 -5 14 -6 7z"/>
<path d="M1415 2500 c3 -5 8 -10 11 -10 2 0 4 5 4 10 0 6 -5 10 -11 10 -5 0
-7 -4 -4 -10z"/>
<path d="M1945 2500 c-3 -5 -1 -10 4 -10 6 0 11 5 11 10 0 6 -2 10 -4 10 -3 0
-8 -4 -11 -10z"/>
<path d="M2902 2490 c0 -14 2 -19 5 -12 2 6 2 18 0 25 -3 6 -5 1 -5 -13z"/>
<path d="M1118 2494 c-5 -4 -8 -19 -8 -33 0 -18 3 -22 11 -14 6 6 9 21 7 33
-1 12 -6 18 -10 14z"/>
<path d="M1704 2485 c-3 -8 -4 -20 -2 -27 3 -7 7 -1 10 15 6 29 1 36 -8 12z"/>
<path d="M2111 2484 c0 -11 3 -14 6 -6 3 7 2 16 -1 19 -3 4 -6 -2 -5 -13z"/>
<path d="M863 2450 c0 -25 2 -35 4 -22 2 12 2 32 0 45 -2 12 -4 2 -4 -23z"/>
<path d="M2056 2464 c-9 -8 -16 -20 -16 -26 0 -6 1 -9 3 -7 1 2 11 14 21 27
22 25 16 30 -8 6z"/>
<path d="M2830 2447 c0 -20 4 -37 10 -37 5 0 7 14 3 33 -8 45 -13 47 -13 4z"/>
<path d="M490 2441 c-15 -30 -13 -71 5 -71 10 0 15 10 15 29 0 17 5 33 10 36
15 9 12 25 -5 25 -8 0 -19 -9 -25 -19z"/>
<path d="M642 2444 c2 -9 14 -24 28 -33 14 -9 21 -11 16 -3 -4 6 -3 12 2 12 5
0 12 -10 16 -22 10 -38 7 -48 -11 -42 -17 5 -17 5 0 -6 9 -6 15 -15 12 -21 -3
-5 0 -7 7 -4 14 5 19 75 6 75 -5 0 -8 9 -8 20 0 18 -3 19 -20 10 -24 -13 -41
-5 -33 15 3 8 0 15 -7 15 -6 0 -10 -7 -8 -16z"/>
<path d="M810 2440 c-8 -14 -8 -20 0 -20 6 0 8 -6 4 -12 -4 -7 -3 -10 1 -5 7
6 15 57 8 57 -1 0 -7 -9 -13 -20z"/>
<path d="M1300 2438 c0 -19 2 -20 10 -8 13 19 13 30 0 30 -5 0 -10 -10 -10
-22z"/>
<path d="M1587 2440 c3 -11 7 -20 9 -20 2 0 4 9 4 20 0 11 -4 20 -9 20 -5 0
-7 -9 -4 -20z"/>
<path d="M1762 2434 c-11 -12 -8 -14 13 -14 26 0 34 14 12 23 -6 2 -18 -2 -25
-9z"/>
<path d="M1976 2442 c-2 -4 -1 -14 5 -22 7 -12 9 -10 9 8 0 23 -5 28 -14 14z"/>
<path d="M1627 2433 c-11 -20 -16 -62 -8 -67 5 -3 11 12 13 34 4 40 3 46 -5
33z"/>
<path d="M1120 2416 c0 -8 4 -17 9 -20 5 -4 7 3 4 14 -6 23 -13 26 -13 6z"/>
<path d="M1830 2418 c0 -9 5 -20 11 -23 17 -11 18 -2 3 19 -12 17 -14 17 -14
4z"/>
<path d="M1529 2396 c12 -14 5 -46 -10 -46 -5 0 -9 -9 -9 -20 0 -11 5 -20 11
-20 8 0 8 -4 0 -14 -6 -7 -8 -21 -5 -30 5 -13 11 -7 25 24 11 23 19 52 19 64
-1 22 -22 56 -35 56 -4 0 -2 -6 4 -14z m11 -62 c0 -8 -5 -12 -10 -9 -6 4 -8
11 -5 16 9 14 15 11 15 -7z"/>
<path d="M831 2350 c0 -37 2 -41 9 -22 6 13 6 31 0 45 -7 18 -9 14 -9 -23z"/>
<path d="M1460 2328 c5 -23 5 -48 2 -56 -3 -8 3 -21 13 -28 10 -8 15 -14 11
-14 -5 0 -2 -8 5 -17 12 -15 12 -16 -6 -11 -19 5 -21 0 -23 -55 -3 -59 6 -78
10 -24 3 39 11 23 16 -31 3 -39 18 -69 29 -58 7 7 -19 217 -31 251 -8 22 -15
50 -16 63 0 12 -4 22 -9 22 -4 0 -5 -19 -1 -42z"/>
<path d="M917 2353 c-10 -9 -7 -74 3 -98 7 -14 9 -2 8 43 -1 34 -2 62 -3 62
-1 0 -5 -3 -8 -7z"/>
<path d="M1916 2340 c3 -14 11 -32 16 -40 6 -10 7 -7 2 10 -3 14 -11 32 -16
40 -6 10 -7 7 -2 -10z"/>
<path d="M1610 2330 c0 -11 5 -20 10 -20 6 0 10 9 10 20 0 11 -4 20 -10 20 -5
0 -10 -9 -10 -20z"/>
<path d="M1810 2346 c0 -2 7 -7 16 -10 8 -3 12 -2 9 4 -6 10 -25 14 -25 6z"/>
<path d="M2907 2321 c-4 -17 -3 -21 5 -13 5 5 8 16 6 23 -3 8 -7 3 -11 -10z"/>
<path d="M734 2296 c-6 -7 -8 -20 -3 -31 4 -11 8 -32 8 -47 1 -29 14 -37 27
-16 4 7 3 8 -4 4 -7 -4 -12 11 -14 48 -2 39 -6 51 -14 42z"/>
<path d="M1830 2274 c0 -8 5 -12 10 -9 6 4 8 11 5 16 -9 14 -15 11 -15 -7z"/>
<path d="M1082 2240 c0 -14 2 -19 5 -12 2 6 2 18 0 25 -3 6 -5 1 -5 -13z"/>
<path d="M1380 2246 c0 -3 15 -12 33 -20 l32 -16 -24 20 c-21 19 -41 26 -41
16z"/>
<path d="M1376 2215 c3 -11 9 -28 11 -37 3 -10 12 -18 19 -18 16 0 20 -56 4
-62 -6 -2 -6 -15 -2 -33 l9 -30 6 40 c12 73 9 106 -12 112 -10 3 -24 14 -30
26 -10 19 -11 19 -5 2z"/>
<path d="M1534 2205 c-9 -34 -2 -40 13 -9 6 13 7 26 2 29 -4 3 -11 -6 -15 -20z"/>
<path d="M1326 2204 c-4 -9 -4 -19 -1 -22 2 -3 7 3 11 12 4 9 4 19 1 22 -2 3
-7 -3 -11 -12z"/>
<path d="M2993 2165 c0 -27 2 -38 4 -22 2 15 2 37 0 50 -2 12 -4 0 -4 -28z"/>
<path d="M780 2199 c0 -4 7 -22 15 -40 8 -19 14 -27 14 -19 0 14 -28 72 -29
59z"/>
<path d="M1260 2190 c0 -5 5 -10 10 -10 6 0 10 5 10 10 0 6 -4 10 -10 10 -5 0
-10 -4 -10 -10z"/>
<path d="M1102 2160 c0 -14 2 -19 5 -12 2 6 2 18 0 25 -3 6 -5 1 -5 -13z"/>
<path d="M1340 2150 c-6 -11 -7 -20 -2 -20 6 0 12 9 15 20 3 11 3 20 1 20 -2
0 -8 -9 -14 -20z"/>
<path d="M1401 2124 c0 -11 3 -14 6 -6 3 7 2 16 -1 19 -3 4 -6 -2 -5 -13z"/>
<path d="M712 2100 c0 -14 2 -19 5 -12 2 6 2 18 0 25 -3 6 -5 1 -5 -13z"/>
<path d="M2880 2084 c0 -9 5 -14 12 -12 18 6 21 28 4 28 -9 0 -16 -7 -16 -16z"/>
<path d="M1310 2079 c0 -17 40 -79 51 -79 5 0 1 10 -11 22 -11 12 -20 30 -20
39 0 10 -4 21 -10 24 -5 3 -10 1 -10 -6z"/>
<path d="M1950 2079 c0 -5 5 -7 10 -4 6 3 10 8 10 11 0 2 -4 4 -10 4 -5 0 -10
-5 -10 -11z"/>
<path d="M1440 2050 c0 -5 5 -10 11 -10 5 0 7 5 4 10 -3 6 -8 10 -11 10 -2 0
-4 -4 -4 -10z"/>
<path d="M2892 2044 c-8 -9 -11 -23 -7 -32 6 -15 8 -13 16 7 12 31 8 43 -9 25z"/>
<path d="M1991 2016 c12 -20 23 -36 25 -36 7 0 -25 58 -36 65 -5 3 -1 -10 11
-29z"/>
<path d="M1082 2018 c0 -13 -3 -80 -7 -149 -4 -81 -3 -129 3 -133 6 -4 12 16
14 48 1 30 0 52 -4 49 -5 -2 -8 0 -8 6 0 5 4 12 9 16 5 3 8 17 5 31 -3 17 -1
23 7 19 8 -5 8 -2 1 11 -5 11 -7 43 -5 72 3 30 0 52 -5 52 -6 0 -10 -10 -10
-22z"/>
<path d="M2240 2011 c0 -6 5 -13 10 -16 6 -3 10 1 10 9 0 9 -4 16 -10 16 -5 0
-10 -4 -10 -9z"/>
<path d="M2920 1981 c0 -25 6 -27 13 -6 4 8 2 17 -3 20 -6 4 -10 -3 -10 -14z"/>
<path d="M1755 1980 c-3 -5 -4 -10 -1 -10 3 0 -6 -12 -21 -26 -31 -32 -26 -39
15 -18 18 8 36 13 41 10 5 -4 13 -2 16 4 4 6 16 8 28 5 18 -5 17 -2 -8 19 -31
27 -59 33 -70 16z m45 -22 c0 -13 -23 -5 -28 10 -2 7 2 10 12 6 9 -3 16 -11
16 -16z"/>
<path d="M2972 1965 c0 -16 2 -22 5 -12 2 9 2 23 0 30 -3 6 -5 -1 -5 -18z"/>
<path d="M1461 1970 c0 -8 4 -24 9 -35 9 -20 9 -20 9 0 0 11 -4 27 -9 35 -9
13 -10 13 -9 0z"/>
<path d="M2180 1970 c0 -5 7 -7 15 -4 8 4 15 8 15 10 0 2 -7 4 -15 4 -8 0 -15
-4 -15 -10z"/>
<path d="M481 1954 c0 -11 3 -14 6 -6 3 7 2 16 -1 19 -3 4 -6 -2 -5 -13z"/>
<path d="M715 1960 c-7 -12 -2 -161 5 -153 5 4 8 163 3 163 -1 0 -5 -5 -8 -10z"/>
<path d="M792 1925 c0 -16 3 -39 8 -50 8 -18 9 -18 8 5 0 14 -4 36 -8 50 -8
24 -8 24 -8 -5z"/>
<path d="M1667 1936 c-5 -12 -2 -25 7 -34 12 -12 15 -11 21 8 4 12 4 24 1 27
-3 4 -6 -2 -7 -13 -1 -14 -3 -13 -8 6 -6 23 -8 23 -14 6z"/>
<path d="M2875 1896 c4 -33 11 -71 16 -84 6 -17 6 -29 -1 -36 -5 -5 -10 -37
-10 -70 -1 -56 -2 -59 -15 -42 -13 17 -15 17 -15 4 0 -9 5 -20 10 -23 6 -3 10
-17 10 -31 0 -14 3 -23 8 -20 4 2 6 -36 6 -85 -1 -51 2 -87 7 -83 5 3 10 20
10 37 l2 32 6 -35 7 -35 5 38 c3 21 1 40 -3 43 -4 3 -8 24 -8 48 0 23 -4 46
-9 51 -11 12 -2 75 11 75 5 0 6 5 2 12 -4 7 -9 39 -10 73 -5 111 -13 168 -25
179 -8 8 -10 -3 -4 -48z"/>
<path d="M476 1918 c5 -7 9 -28 11 -48 4 -54 6 -60 16 -60 5 0 7 10 3 23 -3
12 -6 36 -6 53 0 20 -6 34 -16 38 -10 4 -13 2 -8 -6z"/>
<path d="M840 1912 c0 -5 7 -9 15 -9 8 0 15 4 15 9 0 4 -7 8 -15 8 -8 0 -15
-4 -15 -8z"/>
<path d="M1524 1893 c-13 -36 -7 -66 12 -59 23 9 40 -3 42 -29 2 -30 -13 -33
-28 -4 -7 11 -14 19 -17 16 -8 -9 21 -47 37 -47 9 0 11 -3 4 -8 -14 -10 -15
-82 -1 -79 37 7 32 177 -5 177 -4 0 -8 6 -8 13 0 7 -6 21 -13 30 -11 16 -13
15 -23 -10z m66 -147 c0 -3 -4 -8 -10 -11 -5 -3 -10 -1 -10 4 0 6 5 11 10 11
6 0 10 -2 10 -4z"/>
<path d="M1647 1886 c3 -14 9 -24 13 -21 11 7 6 38 -7 42 -6 2 -8 -7 -6 -21z"/>
<path d="M2177 1883 c-11 -10 -8 -53 3 -53 6 0 10 14 10 30 0 31 -2 35 -13 23z"/>
<path d="M2301 1885 c0 -18 28 -61 29 -44 0 8 -7 24 -15 35 -8 10 -14 15 -14
9z"/>
<path d="M2079 1848 c-3 -22 -1 -34 4 -29 5 5 7 21 5 37 -3 27 -4 26 -9 -8z"/>
<path d="M1710 1831 c0 -14 5 -19 15 -14 17 6 15 25 -3 31 -7 2 -12 -5 -12
-17z"/>
<path d="M265 1820 c3 -5 8 -10 11 -10 2 0 4 5 4 10 0 6 -5 10 -11 10 -5 0 -7
-4 -4 -10z"/>
<path d="M2860 1810 c0 -19 3 -21 12 -12 9 9 9 15 0 24 -9 9 -12 7 -12 -12z"/>
<path d="M1805 1805 c-21 -9 -36 -10 -48 -3 -28 14 -31 3 -11 -31 18 -31 34
-40 34 -20 0 5 5 7 10 4 6 -3 10 0 10 7 0 10 2 10 9 -1 7 -11 10 -9 15 7 4 11
13 23 21 26 18 7 20 26 3 25 -7 0 -26 -7 -43 -14z"/>
<path d="M2994 1535 c0 -159 2 -223 3 -142 2 82 2 212 0 290 -1 78 -3 12 -3
-148z"/>
<path d="M2160 1782 c0 -18 4 -31 9 -28 5 4 14 -6 20 -21 10 -26 11 -25 6 11
-2 22 -11 47 -20 55 -13 14 -15 12 -15 -17z"/>
<path d="M512 1772 c1 -18 6 -32 10 -32 5 0 5 12 2 28 -10 39 -15 41 -12 4z"/>
<path d="M1037 1779 c4 -13 8 -18 11 -10 2 7 -1 18 -6 23 -8 8 -9 4 -5 -13z"/>
<path d="M856 1766 c4 -11 -4 -17 -30 -22 -20 -3 -38 -10 -41 -14 -2 -4 6 -5
20 -3 29 6 80 -23 94 -54 6 -13 20 -23 33 -24 17 -1 19 -2 6 -6 -10 -2 -18 -9
-18 -15 0 -6 9 -8 20 -5 19 5 24 -6 23 -50 -1 -7 3 -13 7 -13 5 0 11 -8 13
-17 3 -10 5 -2 5 17 0 28 -35 131 -37 109 -1 -4 -20 12 -44 35 -23 22 -41 46
-39 52 2 7 -1 15 -7 19 -7 3 -8 0 -5 -9z"/>
<path d="M1341 1744 c0 -11 3 -14 6 -6 3 7 2 16 -1 19 -3 4 -6 -2 -5 -13z"/>
<path d="M1710 1751 c0 -5 5 -13 10 -16 6 -3 10 -2 10 4 0 5 -4 13 -10 16 -5
3 -10 2 -10 -4z"/>
<path d="M930 1727 c0 -7 10 -18 21 -26 19 -11 21 -11 15 4 -3 9 -6 21 -6 26
0 5 -7 9 -15 9 -8 0 -15 -6 -15 -13z"/>
<path d="M2137 1688 c-8 -60 -3 -71 14 -34 7 15 18 25 25 22 8 -3 16 -1 19 4
4 6 1 10 -5 10 -6 0 -16 11 -22 25 -17 37 -25 31 -31 -27z"/>
<path d="M597 1703 c-3 -5 -2 -26 2 -48 l7 -40 5 48 c4 42 -2 59 -14 40z"/>
<path d="M500 1656 c0 -14 -4 -28 -10 -31 -5 -3 -10 -11 -10 -16 0 -6 5 -7 12
-3 8 5 9 2 5 -9 -3 -9 -2 -19 3 -22 6 -4 10 17 10 49 0 31 -2 56 -5 56 -3 0
-5 -11 -5 -24z"/>
<path d="M1067 1570 c-7 -105 -3 -207 8 -218 3 -3 5 46 5 109 0 78 4 119 12
127 10 10 10 15 -1 21 -7 5 -11 13 -9 17 3 5 2 18 -2 29 -4 12 -10 -23 -13
-85z"/>
<path d="M1587 1625 c-3 -22 -3 -43 2 -48 12 -12 18 13 11 53 l-6 35 -7 -40z"/>
<path d="M590 1588 c0 -19 2 -20 10 -8 13 19 13 30 0 30 -5 0 -10 -10 -10 -22z"/>
<path d="M2113 1575 c0 -22 2 -30 4 -17 2 12 2 30 0 40 -3 9 -5 -1 -4 -23z"/>
<path d="M371 1584 c0 -11 3 -14 6 -6 3 7 2 16 -1 19 -3 4 -6 -2 -5 -13z"/>
<path d="M1714 1534 c0 -20 -6 -39 -14 -44 -8 -5 -11 -12 -7 -16 3 -4 13 -1
22 6 15 13 22 90 7 90 -4 0 -8 -16 -8 -36z"/>
<path d="M580 1532 c0 -16 -3 -32 -7 -36 -8 -8 -13 -36 -7 -36 6 0 23 45 28
75 3 14 0 25 -5 25 -5 0 -9 -13 -9 -28z"/>
<path d="M1574 1518 c4 -24 10 -68 14 -98 l8 -55 6 55 c4 38 2 64 -7 83 -8 15
-11 35 -8 43 3 7 0 14 -7 14 -9 0 -10 -12 -6 -42z"/>
<path d="M382 1520 c0 -14 2 -19 5 -12 2 6 2 18 0 25 -3 6 -5 1 -5 -13z"/>
<path d="M1636 1511 c-18 -20 -21 -41 -6 -41 6 0 10 7 10 15 0 8 5 15 10 15 6
0 10 -4 10 -10 0 -5 5 -10 10 -10 15 0 12 37 -4 43 -8 3 -21 -2 -30 -12z"/>
<path d="M481 1444 c0 -11 3 -14 6 -6 3 7 2 16 -1 19 -3 4 -6 -2 -5 -13z"/>
<path d="M1630 1418 c0 -19 2 -20 10 -8 13 19 13 30 0 30 -5 0 -10 -10 -10
-22z"/>
<path d="M481 1404 c0 -11 3 -14 6 -6 3 7 2 16 -1 19 -3 4 -6 -2 -5 -13z"/>
<path d="M2915 1409 c-4 -5 -3 -22 1 -37 13 -45 12 -66 -2 -94 -16 -31 -19
-52 -3 -25 6 9 14 15 20 12 5 -4 9 27 9 74 0 74 -8 98 -25 70z"/>
<path d="M2880 1372 c0 -23 4 -42 9 -42 6 0 7 17 4 38 -8 51 -13 53 -13 4z"/>
<path d="M1625 1360 c4 -6 11 -8 16 -5 14 9 11 15 -7 15 -8 0 -12 -5 -9 -10z"/>
<path d="M2230 1289 c0 -79 10 -140 21 -133 4 2 6 10 4 17 -3 7 -7 47 -9 90
-5 96 -16 114 -16 26z"/>
<path d="M1617 1318 c-4 -12 -7 -34 -7 -48 1 -21 2 -22 10 -8 6 10 29 19 58
23 72 9 92 15 92 24 0 10 -76 9 -86 -2 -10 -10 -56 -9 -50 1 2 4 1 14 -3 21
-6 9 -10 6 -14 -11z"/>
<path d="M1065 1310 c-3 -5 -6 -33 -7 -61 0 -28 -4 -65 -9 -82 -6 -20 -5 -27
1 -21 14 14 20 47 23 117 3 60 2 63 -8 47z"/>
<path d="M2878 1304 c-5 -4 -8 -16 -8 -28 0 -14 3 -17 11 -9 6 6 9 19 7 28 -1
9 -6 13 -10 9z"/>
<path d="M1520 1261 c0 -6 4 -13 10 -16 6 -3 7 1 4 9 -7 18 -14 21 -14 7z"/>
<path d="M1624 1218 c4 -13 15 -61 25 -108 9 -47 22 -94 28 -105 8 -14 8 -26
2 -38 -7 -11 -5 -25 6 -44 l15 -28 -7 30 c-6 28 -5 29 12 15 10 -8 16 -10 12
-4 -4 7 0 14 8 18 9 3 15 0 15 -9 0 -8 6 -14 13 -12 20 4 8 -75 -16 -100 -11
-13 -18 -26 -14 -29 4 -4 20 7 36 25 26 27 30 40 33 100 3 67 2 68 -17 55 -11
-8 -31 -14 -45 -14 -22 0 -28 7 -40 48 -8 26 -14 53 -14 60 1 6 -3 12 -8 12
-7 0 -9 20 -6 50 4 35 1 53 -8 61 -8 6 -14 18 -14 25 0 8 -5 14 -11 14 -7 0
-9 -9 -5 -22z"/>
<path d="M2320 1227 c0 -23 32 -86 37 -72 2 6 -6 29 -16 50 -12 24 -20 33 -21
22z"/>
<path d="M2600 1210 c0 -5 5 -10 10 -10 6 0 10 5 10 10 0 6 -4 10 -10 10 -5 0
-10 -4 -10 -10z"/>
<path d="M2892 1195 c0 -16 2 -22 5 -12 2 9 2 23 0 30 -3 6 -5 -1 -5 -18z"/>
<path d="M1551 1194 c0 -11 3 -14 6 -6 3 7 2 16 -1 19 -3 4 -6 -2 -5 -13z"/>
<path d="M518 1193 c7 -3 16 -2 19 1 4 3 -2 6 -13 5 -11 0 -14 -3 -6 -6z"/>
<path d="M2871 1184 c0 -11 3 -14 6 -6 3 7 2 16 -1 19 -3 4 -6 -2 -5 -13z"/>
<path d="M2982 1166 c-6 -13 -8 -43 -5 -67 3 -33 2 -40 -6 -29 -7 9 -11 10
-11 3 0 -6 5 -15 10 -18 6 -4 10 -12 9 -18 -1 -7 0 -23 2 -37 1 -14 5 22 8 80
4 58 6 106 5 108 0 1 -6 -9 -12 -22z"/>
<path d="M505 1118 c-8 -53 -1 -355 8 -364 4 -4 7 86 7 200 0 113 -2 206 -5
206 -2 0 -7 -19 -10 -42z"/>
<path d="M2927 1153 c-4 -3 -7 -11 -7 -17 0 -6 5 -5 12 2 6 6 9 14 7 17 -3 3
-9 2 -12 -2z"/>
<path d="M1058 1134 c-2 -5 -1 -25 2 -44 l6 -35 5 32 c5 31 -4 64 -13 47z"/>
<path d="M1320 1109 c0 -5 5 -7 10 -4 6 3 10 8 10 11 0 2 -4 4 -10 4 -5 0 -10
-5 -10 -11z"/>
<path d="M2910 1111 c0 -7 -4 -9 -10 -6 -6 4 -10 -6 -10 -22 l0 -28 15 29 c9
16 13 31 10 34 -3 3 -5 0 -5 -7z"/>
<path d="M1522 1074 c-7 -8 -8 -14 -3 -14 10 0 25 19 20 25 -2 1 -10 -3 -17
-11z"/>
<path d="M2306 1076 c10 -8 21 -12 24 -10 5 6 -21 24 -34 24 -6 0 -1 -6 10
-14z"/>
<path d="M2917 1053 c-6 -10 -10 -52 -7 -73 1 -8 6 5 11 29 8 43 7 61 -4 44z"/>
<path d="M1508 1017 c-2 -20 2 -39 9 -46 10 -9 13 -3 13 34 0 52 -16 61 -22
12z"/>
<path d="M1034 1015 c2 -11 7 -30 10 -41 4 -12 3 -32 -2 -45 -5 -13 -6 -32 -3
-43 6 -15 9 -11 18 17 6 19 9 50 7 68 -2 17 1 38 7 46 8 8 8 13 1 13 -6 0 -13
-6 -15 -12 -4 -10 -8 -9 -17 2 -9 13 -11 12 -6 -5z"/>
<path d="M1630 995 c0 -13 -6 -28 -14 -32 -13 -8 -36 -45 -36 -59 0 -4 10 3
22 17 12 13 30 33 40 45 11 12 16 28 12 37 -9 25 -24 20 -24 -8z"/>
<path d="M2665 990 c-3 -5 -1 -10 5 -10 6 0 9 -3 7 -7 -3 -5 18 -9 46 -10 l52
-1 -24 19 c-25 20 -76 26 -86 9z"/>
<path d="M2600 970 c0 -5 5 -10 10 -10 6 0 10 5 10 10 0 6 -4 10 -10 10 -5 0
-10 -4 -10 -10z"/>
<path d="M86 945 c4 -8 8 -15 10 -15 2 0 4 7 4 15 0 8 -4 15 -10 15 -5 0 -7
-7 -4 -15z"/>
<path d="M2908 921 c-2 -28 0 -37 8 -31 9 8 8 70 -1 70 -2 0 -5 -18 -7 -39z"/>
<path d="M2615 929 c-4 -11 -4 -23 -1 -26 3 -4 6 2 7 13 0 10 8 -4 18 -33 19
-56 49 -108 58 -99 3 2 -4 17 -15 33 -10 15 -27 52 -36 81 -10 28 -19 52 -21
52 -2 0 -7 -9 -10 -21z"/>
<path d="M2962 930 c0 -14 2 -19 5 -12 2 6 2 18 0 25 -3 6 -5 1 -5 -13z"/>
<path d="M1638 928 c7 -7 12 -22 12 -35 0 -23 14 -31 24 -14 10 16 -13 61 -31
61 -13 0 -14 -3 -5 -12z"/>
<path d="M1602 890 c-10 -17 -10 -26 3 -50 18 -34 30 -40 22 -10 -3 13 0 20 8
20 11 0 11 6 2 30 -13 35 -18 37 -35 10z"/>
<path d="M2760 889 c0 -6 -11 -33 -25 -60 -13 -27 -20 -49 -16 -49 10 0 36 53
46 93 4 15 4 27 1 27 -3 0 -6 -5 -6 -11z"/>
<path d="M2676 858 c13 -41 17 -48 26 -48 6 0 7 7 4 16 -3 9 -6 20 -6 25 0 6
-4 8 -9 5 -5 -4 -12 -1 -14 4 -3 6 -4 5 -1 -2z"/>
<path d="M2915 796 c3 -43 5 -99 5 -124 0 -25 3 -43 6 -40 12 13 11 118 -2
179 l-13 64 4 -79z"/>
<path d="M1535 840 c-3 -6 2 -13 12 -17 9 -4 30 -20 45 -35 15 -16 28 -23 28
-16 0 19 -12 33 -35 42 -13 5 -16 10 -7 13 6 3 10 9 6 14 -7 12 -41 12 -49 -1z"/>
<path d="M1040 800 c0 -11 5 -20 10 -20 6 0 10 9 10 20 0 11 -4 20 -10 20 -5
0 -10 -9 -10 -20z"/>
<path d="M2238 797 c-14 -12 -42 -47 -61 -78 -74 -117 -199 -209 -285 -209
-45 0 -88 23 -124 65 l-17 20 -1 -21 c0 -21 31 -48 85 -76 30 -16 115 -21 115
-7 0 4 14 12 31 18 60 21 153 104 193 174 16 26 35 51 44 57 10 5 13 10 8 10
-5 0 3 11 18 25 35 33 30 52 -6 22z"/>
<path d="M2515 810 c3 -5 16 -10 28 -10 18 0 19 2 7 10 -20 13 -43 13 -35 0z"/>
<path d="M1506 785 c-6 -22 -11 -25 -46 -23 -24 1 -46 8 -56 20 -17 18 -51 24
-69 10 -6 -4 -16 -19 -24 -34 -8 -15 -19 -24 -27 -21 -8 3 -14 -1 -14 -11 0
-9 -6 -19 -14 -22 -8 -3 -17 -12 -20 -20 -9 -23 50 22 80 61 35 47 54 52 81
21 26 -31 56 -33 103 -7 32 17 36 17 50 3 14 -15 15 -15 19 3 3 19 -22 45 -45
45 -6 0 -15 -11 -18 -25z"/>
<path d="M1692 781 c-7 -19 -10 -36 -7 -39 6 -7 26 49 22 62 -2 6 -9 -5 -15
-23z"/>
<path d="M2993 760 c0 -25 2 -35 4 -22 2 12 2 32 0 45 -2 12 -4 2 -4 -23z"/>
<path d="M2540 783 c0 -7 5 -15 10 -18 6 -4 8 -11 4 -16 -3 -5 0 -8 7 -7 7 2
14 -7 15 -19 1 -13 2 -28 3 -34 0 -6 10 -9 21 -6 17 4 20 0 20 -26 0 -24 3
-28 10 -17 18 27 10 49 -21 66 -25 12 -29 18 -18 25 12 7 12 9 0 9 -8 0 -11 7
-8 20 3 11 1 20 -4 20 -5 0 -9 -6 -9 -12 0 -8 -7 -5 -15 6 -8 11 -15 15 -15 9z"/>
<path d="M1275 769 c-4 -6 -5 -12 -2 -15 2 -3 7 2 10 11 7 17 1 20 -8 4z"/>
<path d="M1040 746 c0 -22 3 -27 11 -19 8 8 8 16 0 30 -9 16 -10 14 -11 -11z"/>
<path d="M2622 740 c0 -14 2 -19 5 -12 2 6 2 18 0 25 -3 6 -5 1 -5 -13z"/>
<path d="M2700 746 c0 -8 5 -18 10 -21 6 -3 10 1 10 9 0 8 -4 18 -10 21 -5 3
-10 -1 -10 -9z"/>
<path d="M1311 709 c-17 -30 -20 -44 -12 -52 6 -6 11 -20 11 -31 0 -17 2 -18
10 -6 8 12 10 11 10 -7 0 -12 4 -24 9 -27 5 -3 12 -29 16 -58 4 -29 13 -71 20
-93 l13 -40 -5 45 c-3 25 -9 61 -14 80 -5 19 -9 51 -9 70 0 23 -3 30 -9 22 -6
-10 -10 -7 -13 12 -3 14 -1 24 5 23 17 -4 18 20 2 36 -10 11 -13 25 -9 42 9
36 1 31 -25 -16z"/>
<path d="M1370 731 c-11 -22 -7 -24 23 -12 17 6 17 8 4 20 -13 10 -17 9 -27
-8z"/>
<path d="M1488 720 c-23 -32 -44 -40 -34 -14 5 13 4 14 -7 6 -8 -7 -16 -9 -20
-6 -3 3 -11 -4 -17 -16 -14 -26 -3 -111 11 -89 5 8 9 24 9 36 0 16 10 27 34
37 18 8 41 24 50 37 9 13 20 23 23 21 4 -2 9 1 11 7 8 24 -39 9 -60 -19z"/>
<path d="M2319 748 c-5 -19 -8 -50 -4 -46 7 7 15 48 9 48 -2 0 -4 -1 -5 -2z"/>
<path d="M510 731 c0 -6 4 -13 10 -16 6 -3 7 1 4 9 -7 18 -14 21 -14 7z"/>
<path d="M2723 690 c1 -14 5 -29 10 -35 4 -5 19 -28 33 -49 26 -39 26 -39 10
-102 -9 -35 -16 -71 -15 -81 1 -25 28 66 30 97 0 15 13 -10 30 -60 33 -98 38
-183 13 -236 -16 -33 -17 -34 -36 -17 -17 16 -18 16 -12 0 3 -9 11 -17 16 -17
6 0 8 -14 3 -36 -4 -23 -3 -34 4 -30 5 4 12 -2 14 -11 3 -10 3 0 1 22 -1 25 3
48 12 60 14 18 15 11 13 -82 -2 -57 0 -106 4 -109 8 -8 8 -10 9 76 2 216 -5
470 -15 470 -6 0 -8 -24 -4 -67 3 -40 2 -60 -3 -48 -13 33 -40 126 -40 141 0
8 -5 14 -11 14 -5 0 -23 28 -39 63 -18 37 -29 52 -27 37z"/>
<path d="M512 675 c0 -16 2 -22 5 -12 2 9 2 23 0 30 -3 6 -5 -1 -5 -18z"/>
<path d="M2540 676 c0 -9 7 -16 16 -16 9 0 14 5 12 12 -6 18 -28 21 -28 4z"/>
<path d="M1254 656 c-3 -8 -4 -20 -3 -27 3 -21 -50 -127 -76 -153 -13 -13 -29
-43 -35 -67 -7 -24 -25 -82 -40 -129 -35 -104 -48 -166 -31 -156 6 4 11 16 11
27 0 11 8 34 17 52 9 18 18 34 18 37 1 3 4 12 8 20 3 8 12 35 20 60 22 65 63
156 86 189 11 16 18 31 15 34 -3 3 -2 13 4 22 7 14 15 9 46 -34 25 -34 36 -57
31 -68 -3 -10 -3 -14 1 -10 5 4 14 -3 21 -15 l14 -23 -7 25 c-3 14 -24 56 -47
94 -25 44 -36 71 -29 74 7 2 12 8 12 13 0 6 -6 7 -12 3 -10 -6 -10 -4 0 7 16
17 15 26 -3 33 -9 3 -18 -1 -21 -8z m-93 -243 c-12 -20 -14 -14 -5 12 4 9 9
14 11 11 3 -2 0 -13 -6 -23z"/>
<path d="M1041 576 c-1 -44 2 -77 5 -73 11 11 14 105 5 129 -7 17 -10 3 -10
-56z"/>
<path d="M1702 607 c1 -27 6 -51 11 -54 15 -9 16 1 1 52 l-13 50 1 -48z"/>
<path d="M1641 620 c-1 -14 -4 -32 -6 -40 -15 -71 -15 -74 0 -35 9 22 14 54
12 70 -3 27 -4 27 -6 5z"/>
<path d="M2777 625 c3 -8 9 -12 14 -9 12 7 11 11 -5 17 -10 4 -13 1 -9 -8z"/>
<path d="M1376 582 c8 -75 80 -310 91 -298 5 5 -13 69 -28 98 -5 9 -11 36 -14
60 -3 24 -10 58 -16 76 -6 18 -8 39 -5 47 3 8 2 15 -2 15 -5 0 -13 12 -20 28
-10 24 -11 20 -6 -26z"/>
<path d="M2853 595 c0 -22 2 -30 4 -17 2 12 2 30 0 40 -3 9 -5 -1 -4 -23z"/>
<path d="M2882 595 c0 -16 2 -22 5 -12 2 9 2 23 0 30 -3 6 -5 -1 -5 -18z"/>
<path d="M492 590 c0 -14 2 -19 5 -12 2 6 2 18 0 25 -3 6 -5 1 -5 -13z"/>
<path d="M111 564 c0 -11 3 -14 6 -6 3 7 2 16 -1 19 -3 4 -6 -2 -5 -13z"/>
<path d="M2692 540 c0 -19 2 -27 5 -17 2 9 2 25 0 35 -3 9 -5 1 -5 -18z"/>
<path d="M482 472 c-1 -48 1 -61 8 -45 10 25 11 101 0 108 -4 2 -8 -26 -8 -63z"/>
<path d="M1690 515 c-7 -8 -15 -13 -19 -11 -4 3 -8 -9 -9 -25 -3 -38 2 -37 27
7 23 38 23 56 1 29z"/>
<path d="M1611 483 c0 -12 -4 -30 -7 -40 -5 -17 -5 -17 6 0 6 10 9 28 7 40 -4
22 -4 22 -6 0z"/>
<path d="M1710 491 c0 -4 -11 -24 -24 -44 l-25 -36 25 11 c13 6 24 16 24 21 0
6 7 18 15 27 14 16 14 18 0 23 -8 4 -15 3 -15 -2z"/>
<path d="M2714 478 c5 -21 3 -28 -9 -28 -8 0 -15 -5 -15 -11 0 -5 4 -8 9 -4 5
3 12 1 16 -5 3 -5 -2 -10 -11 -10 -16 0 -16 -1 -2 -12 33 -27 48 -104 59 -298
l1 -25 8 25 c5 18 8 7 7 -37 -1 -55 6 -85 16 -72 2 2 0 40 -5 84 -4 44 -10
114 -13 155 -7 87 -23 168 -36 176 -5 3 -9 17 -9 32 0 15 -5 34 -11 42 -8 12
-9 9 -5 -12z"/>
<path d="M1042 468 c0 -13 -2 -49 -4 -81 -2 -31 -1 -63 4 -70 4 -6 8 19 9 58
1 39 3 80 4 93 1 12 -1 22 -5 22 -4 0 -8 -10 -8 -22z"/>
<path d="M2881 454 c0 -11 3 -14 6 -6 3 7 2 16 -1 19 -3 4 -6 -2 -5 -13z"/>
<path d="M2922 430 c0 -14 2 -19 5 -12 2 6 2 18 0 25 -3 6 -5 1 -5 -13z"/>
<path d="M2901 404 c0 -11 3 -14 6 -6 3 7 2 16 -1 19 -3 4 -6 -2 -5 -13z"/>
<path d="M480 367 c0 -20 4 -37 9 -37 5 0 7 15 4 33 -7 45 -13 47 -13 4z"/>
<path d="M1360 385 c0 -5 5 -17 10 -25 5 -8 10 -10 10 -5 0 6 -5 17 -10 25 -5
8 -10 11 -10 5z"/>
<path d="M2696 362 c3 -19 7 -67 9 -108 1 -41 5 -78 9 -81 11 -12 -2 185 -14
204 -9 15 -10 12 -4 -15z"/>
<path d="M1309 349 c-21 -21 -20 -33 7 -94 13 -29 13 -29 9 -3 -2 14 -9 36
-15 48 -15 28 -4 39 15 14 12 -16 14 -17 15 -2 0 9 -6 19 -12 22 -9 3 -7 9 6
20 11 9 14 16 8 16 -7 0 -21 -9 -33 -21z"/>
<path d="M2921 344 c0 -11 3 -14 6 -6 3 7 2 16 -1 19 -3 4 -6 -2 -5 -13z"/>
<path d="M682 330 c0 -14 2 -19 5 -12 2 6 2 18 0 25 -3 6 -5 1 -5 -13z"/>
<path d="M1354 325 c-3 -8 -3 -19 1 -25 3 -5 1 -10 -5 -10 -7 0 -3 -15 10 -37
24 -41 80 -203 80 -233 0 -11 5 -20 11 -20 17 0 -13 110 -70 260 -25 66 -25
67 -3 73 16 4 16 5 -1 6 -10 0 -20 -6 -23 -14z"/>
<path d="M1575 263 c-4 -38 -9 -77 -11 -88 -4 -16 -3 -17 4 -5 11 16 27 160
19 160 -3 0 -8 -30 -12 -67z"/>
<path d="M671 274 c0 -11 3 -14 6 -6 3 7 2 16 -1 19 -3 4 -6 -2 -5 -13z"/>
<path d="M472 245 c0 -16 2 -22 5 -12 2 9 2 23 0 30 -3 6 -5 -1 -5 -18z"/>
<path d="M2880 260 c0 -5 5 -10 11 -10 5 0 7 5 4 10 -3 6 -8 10 -11 10 -2 0
-4 -4 -4 -10z"/>
<path d="M1024 241 c0 -11 3 -18 7 -15 4 2 10 -4 12 -13 3 -10 4 -5 3 11 -3
33 -22 47 -22 17z"/>
<path d="M1151 244 c0 -11 3 -14 6 -6 3 7 2 16 -1 19 -3 4 -6 -2 -5 -13z"/>
<path d="M1431 245 c0 -11 13 -54 29 -95 17 -41 30 -84 31 -95 0 -11 4 -29 9
-40 6 -14 9 -5 8 33 -1 28 -5 52 -10 52 -5 0 -6 12 -2 27 4 19 3 24 -4 15 -7
-11 -12 -6 -22 20 -35 93 -39 102 -39 83z"/>
<path d="M1515 239 c-10 -30 0 -33 13 -4 6 14 7 25 2 25 -5 0 -12 -9 -15 -21z"/>
<path d="M904 202 c2 -9 -1 -34 -6 -54 -13 -60 -20 -108 -14 -108 2 0 9 21 15
47 6 27 15 65 20 85 6 27 5 38 -4 42 -8 3 -12 -2 -11 -12z"/>
<path d="M1331 215 c0 -5 6 -21 13 -34 l13 -23 6 22 c3 12 3 19 0 16 -3 -3
-12 2 -19 12 -7 9 -13 13 -13 7z"/>
<path d="M472 190 c0 -14 2 -19 5 -12 2 6 2 18 0 25 -3 6 -5 1 -5 -13z"/>
<path d="M1029 178 c-4 -62 -3 -76 2 -70 13 14 20 82 9 82 -5 0 -10 -6 -11
-12z"/>
<path d="M1520 180 c0 -5 5 -10 10 -10 6 0 10 5 10 10 0 6 -4 10 -10 10 -5 0
-10 -4 -10 -10z"/>
<path d="M1375 155 c9 -49 11 -55 24 -68 9 -8 8 -1 -2 28 -26 69 -27 71 -22
40z"/>
<path d="M460 130 c0 -16 0 -32 1 -36 0 -3 -6 -15 -13 -27 -9 -13 -12 -32 -8
-47 6 -23 7 -23 13 10 3 19 10 56 15 83 5 26 5 47 0 47 -4 0 -8 -13 -8 -30z"/>
<path d="M650 144 c0 -8 5 -12 10 -9 6 4 8 11 5 16 -9 14 -15 11 -15 -7z"/>
<path d="M1092 140 c0 -14 2 -19 5 -12 2 6 2 18 0 25 -3 6 -5 1 -5 -13z"/>
<path d="M1530 114 c0 -5 7 -18 15 -28 8 -11 15 -16 15 -10 0 5 -7 18 -15 28
-8 11 -15 16 -15 10z"/>
<path d="M2680 111 c0 -6 4 -13 10 -16 6 -3 7 1 4 9 -7 18 -14 21 -14 7z"/>
<path d="M653 55 c0 -22 2 -30 4 -17 2 12 2 30 0 40 -3 9 -5 -1 -4 -23z"/>
<path d="M2831 64 c0 -11 3 -14 6 -6 3 7 2 16 -1 19 -3 4 -6 -2 -5 -13z"/>
<path d="M1171 44 c0 -11 3 -14 6 -6 3 7 2 16 -1 19 -3 4 -6 -2 -5 -13z"/>
<path d="M2890 44 c0 -8 5 -12 10 -9 6 3 10 10 10 16 0 5 -4 9 -10 9 -5 0 -10
-7 -10 -16z"/>
</g>
</svg>
