<?xml version="1.0" standalone="no"?>
<!DOCTYPE svg PUBLIC "-//W3C//DTD SVG 20010904//EN"
 "http://www.w3.org/TR/2001/REC-SVG-20010904/DTD/svg10.dtd">
<svg version="1.0" xmlns="http://www.w3.org/2000/svg"
 width="300.000000pt" height="300.000000pt" viewBox="0 0 300.000000 300.000000"
 preserveAspectRatio="xMidYMid meet">
<metadata>
Created by potrace 1.10, written by Peter Selinger 2001-2011
</metadata>
<g transform="translate(0.000000,300.000000) scale(0.100000,-0.100000)"
fill="#000000" stroke="none">
<path d="M543 2808 c4 -106 7 -244 7 -305 0 -62 3 -113 8 -113 4 0 6 117 5
261 -1 231 1 263 15 278 10 9 18 28 19 42 2 21 0 20 -16 -10 -20 -37 -36 -29
-25 14 4 17 2 25 -6 25 -10 0 -12 -41 -7 -192z"/>
<path d="M780 2987 c0 -9 -3 -17 -7 -17 -5 0 -7 -15 -6 -32 3 -62 6 -63 13 -3
5 33 6 62 4 64 -2 2 -4 -3 -4 -12z"/>
<path d="M879 2972 c-3 -20 -2 -29 4 -23 5 5 7 19 5 32 -3 20 -5 19 -9 -9z"/>
<path d="M913 2950 c0 -30 2 -43 4 -27 2 15 2 39 0 55 -2 15 -4 2 -4 -28z"/>
<path d="M2513 2955 c0 -27 2 -38 4 -22 2 15 2 37 0 50 -2 12 -4 0 -4 -28z"/>
<path d="M112 2970 c0 -14 2 -19 5 -12 2 6 2 18 0 25 -3 6 -5 1 -5 -13z"/>
<path d="M277 2979 c7 -7 15 -10 18 -7 3 3 -2 9 -12 12 -14 6 -15 5 -6 -5z"/>
<path d="M1006 2981 c-3 -5 1 -11 9 -15 9 -3 15 0 15 9 0 16 -16 20 -24 6z"/>
<path d="M1865 2919 c-4 -11 -4 -23 -2 -26 9 -8 27 7 27 22 0 23 -18 27 -25 4z"/>
<path d="M876 2901 c-4 -5 -2 -12 3 -15 5 -3 9 -106 10 -228 1 -123 3 -260 6
-304 2 -45 5 -180 5 -301 1 -127 5 -225 11 -233 10 -14 3 887 -7 970 -2 19 -4
52 -4 72 1 36 -13 57 -24 39z"/>
<path d="M509 2868 c-1 -18 0 -41 1 -52 1 -11 -3 -15 -9 -12 -7 5 -11 -2 -10
-16 0 -13 3 -17 6 -10 2 6 9 10 14 6 5 -3 9 21 9 55 0 63 -9 86 -11 29z"/>
<path d="M2287 2893 c-4 -3 -7 -13 -7 -22 1 -13 3 -13 11 2 11 19 8 33 -4 20z"/>
<path d="M116 2852 c-3 -5 -1 -22 4 -38 8 -29 8 -29 9 9 1 36 -3 45 -13 29z"/>
<path d="M1353 2834 c-45 -22 -88 -109 -108 -219 -10 -49 -15 -109 -12 -132 2
-23 0 -44 -4 -45 -9 -3 -3 -39 37 -243 l13 -70 -3 65 c-2 36 -7 76 -12 90 -22
68 5 403 37 466 10 21 19 35 19 31 0 -5 12 5 27 20 24 26 26 26 20 6 -3 -13
-1 -23 4 -23 8 0 13 22 10 43 -2 14 17 7 23 -9 4 -9 9 -14 13 -10 4 3 21 -8
38 -24 25 -24 31 -38 29 -61 -2 -16 1 -29 6 -29 6 0 10 -4 10 -10 0 -5 -7 -10
-15 -10 -8 0 -15 5 -15 12 0 6 -3 8 -6 5 -10 -10 17 -38 28 -31 7 4 9 -9 6
-35 -2 -22 -1 -41 2 -41 13 0 4 -259 -13 -327 -10 -44 -14 -80 -9 -93 11 -30
-5 -156 -25 -194 -10 -17 -16 -38 -14 -46 2 -8 0 -12 -5 -8 -4 4 -13 3 -20 -3
-8 -6 -20 -9 -27 -6 -8 3 -14 0 -14 -7 0 -13 16 -13 53 -1 24 8 60 100 70 183
4 28 12 52 18 52 7 0 7 3 1 8 -34 25 -33 65 7 192 22 70 12 348 -13 375 -5 5
-9 17 -9 27 0 35 -30 78 -70 98 -46 24 -38 23 -77 4z"/>
<path d="M750 2813 c0 -21 3 -24 9 -14 5 8 7 20 4 28 -8 21 -13 15 -13 -14z"/>
<path d="M2510 2768 c-3 -31 -1 -53 3 -49 5 5 7 30 5 57 l-3 49 -5 -57z"/>
<path d="M2178 2793 c7 -3 16 -2 19 1 4 3 -2 6 -13 5 -11 0 -14 -3 -6 -6z"/>
<path d="M1390 2770 c0 -5 5 -10 10 -10 6 0 10 5 10 10 0 6 -4 10 -10 10 -5 0
-10 -4 -10 -10z"/>
<path d="M2043 2773 c-13 -2 -23 -9 -23 -14 0 -11 39 -2 55 12 9 9 7 10 -32 2z"/>
<path d="M2426 2753 c4 -16 23 -62 42 -103 20 -41 39 -94 42 -116 l6 -42 -63
0 c-67 -1 -72 8 -22 33 16 9 29 20 29 26 0 12 -52 -14 -69 -35 -16 -19 -51
-21 -51 -3 0 8 -3 9 -8 1 -9 -14 -61 -24 -68 -13 -3 5 -17 6 -31 3 -16 -4 -28
-2 -34 7 -7 11 -12 12 -29 2 -25 -16 -50 -17 -50 -1 0 6 -6 3 -14 -8 -16 -21
-13 -27 -46 70 -11 33 -20 70 -20 84 0 14 -10 33 -21 43 -15 13 -20 26 -17 43
3 14 1 23 -3 20 -13 -8 -11 -37 6 -77 8 -19 12 -37 8 -40 -3 -4 2 -25 11 -48
9 -23 15 -43 12 -46 -7 -8 -46 21 -46 34 0 40 -47 -10 -65 -69 l-14 -43 1 60
c2 77 7 95 24 88 9 -3 14 2 14 16 0 14 -5 19 -15 15 -8 -4 -22 -1 -30 6 -15
12 -17 -64 -20 -835 0 -58 -1 -60 -25 -57 -14 1 -34 -4 -45 -11 -17 -13 -15
-15 28 -13 30 1 47 5 47 14 0 6 8 12 18 12 11 0 13 3 5 8 -8 5 -11 44 -8 139
2 72 5 221 6 330 1 109 4 192 7 185 2 -6 10 -12 19 -12 11 0 13 7 8 30 -7 32
11 130 24 130 5 0 12 -10 17 -21 6 -12 25 -27 44 -33 39 -13 52 -36 20 -36
-30 0 -67 -27 -74 -56 -4 -13 -11 -24 -16 -24 -16 0 -12 -60 5 -66 8 -4 15
-11 15 -18 0 -6 20 -47 45 -90 25 -44 45 -85 45 -93 0 -7 7 -13 15 -13 26 0
17 35 -19 75 -19 21 -33 42 -31 46 3 4 -4 18 -15 31 -11 14 -17 28 -14 31 3 2
-5 13 -18 23 -27 22 -26 50 3 77 10 10 19 22 19 27 0 11 68 30 107 30 15 0 56
2 91 5 47 3 61 1 56 -8 -5 -9 -3 -8 7 1 18 16 29 15 29 -3 0 -8 5 -15 10 -15
6 0 10 7 10 15 0 12 4 14 19 5 11 -5 22 -7 25 -2 2 4 31 5 63 2 32 -3 70 -2
85 3 22 7 34 4 57 -15 17 -12 30 -32 30 -44 1 -11 10 -30 22 -42 11 -12 17
-27 13 -34 -4 -7 -3 -8 4 -4 11 7 51 -11 64 -29 5 -7 8 -7 8 0 0 6 6 1 13 -10
40 -67 53 -85 63 -85 22 0 64 -26 70 -42 3 -10 12 -18 19 -18 8 0 29 -14 46
-31 23 -22 34 -27 39 -19 5 9 10 5 15 -11 8 -23 8 -23 16 -4 12 31 11 33 -22
40 -17 4 -48 25 -69 46 -21 21 -45 39 -54 39 -9 0 -16 5 -16 10 0 6 -6 10 -13
10 -14 0 -77 63 -77 78 0 16 -38 44 -50 37 -13 -8 -80 62 -80 83 0 22 -30 60
-53 66 -19 4 -23 12 -23 56 -1 55 6 61 29 28 l16 -23 -6 24 c-6 24 -49 70 -66
71 -10 0 -37 26 -37 35 0 11 -40 95 -45 95 -3 0 -2 -12 1 -27z"/>
<path d="M2910 2770 c0 -5 5 -10 10 -10 6 0 10 5 10 10 0 6 -4 10 -10 10 -5 0
-10 -4 -10 -10z"/>
<path d="M235 2760 c-3 -5 -1 -10 4 -10 6 0 11 5 11 10 0 6 -2 10 -4 10 -3 0
-8 -4 -11 -10z"/>
<path d="M510 2738 c0 -23 3 -29 9 -19 8 12 4 51 -5 51 -2 0 -4 -15 -4 -32z"/>
<path d="M1312 2730 c-14 -24 -16 -96 -2 -105 6 -3 10 -1 10 4 0 16 36 13 54
-4 24 -25 46 -19 46 13 0 15 -5 34 -11 42 -8 12 -9 10 -4 -7 8 -27 -3 -30 -21
-5 -13 16 -14 16 -8 0 3 -10 2 -18 -4 -18 -13 0 -24 44 -12 48 6 2 8 8 4 13
-6 11 -27 12 -21 2 6 -11 -10 -53 -21 -53 -4 0 -8 9 -9 20 -1 11 1 19 5 16 4
-2 7 9 8 25 1 16 1 29 0 29 -1 0 -7 -9 -14 -20z"/>
<path d="M1365 2740 c3 -5 8 -10 11 -10 2 0 4 5 4 10 0 6 -5 10 -11 10 -5 0
-7 -4 -4 -10z"/>
<path d="M1440 2745 c0 -18 19 -40 26 -32 4 4 0 15 -9 24 -9 10 -17 13 -17 8z"/>
<path d="M2886 2735 c-3 -9 -6 -22 -5 -28 0 -7 5 -1 10 12 5 13 8 26 5 28 -2
2 -6 -3 -10 -12z"/>
<path d="M60 2726 c0 -9 5 -16 10 -16 6 0 10 4 10 9 0 6 -4 13 -10 16 -5 3
-10 -1 -10 -9z"/>
<path d="M1417 2721 c3 -11 11 -22 18 -25 11 -4 12 0 6 16 -10 28 -31 36 -24
9z"/>
<path d="M742 2695 c0 -16 2 -22 5 -12 2 9 2 23 0 30 -3 6 -5 -1 -5 -18z"/>
<path d="M2825 2680 c-3 -5 -1 -10 4 -10 6 0 11 5 11 10 0 6 -2 10 -4 10 -3 0
-8 -4 -11 -10z"/>
<path d="M472 2650 c0 -14 2 -19 5 -12 2 6 2 18 0 25 -3 6 -5 1 -5 -13z"/>
<path d="M511 2654 c0 -11 3 -14 6 -6 3 7 2 16 -1 19 -3 4 -6 -2 -5 -13z"/>
<path d="M1820 2650 c0 -5 5 -10 11 -10 5 0 7 5 4 10 -3 6 -8 10 -11 10 -2 0
-4 -4 -4 -10z"/>
<path d="M1452 2628 c2 -13 11 -24 20 -26 14 -3 15 0 5 22 -15 32 -30 34 -25
4z"/>
<path d="M121 2556 c-1 -50 3 -76 8 -70 6 5 7 37 2 79 l-8 70 -2 -79z"/>
<path d="M513 2507 c-1 -77 -5 -123 -12 -125 -6 -2 -9 -8 -6 -12 3 -5 12 -7
20 -3 12 4 15 29 15 128 0 68 -4 126 -8 129 -4 3 -9 -50 -9 -117z"/>
<path d="M1331 2563 c-12 -13 -12 -16 0 -24 9 -6 15 -4 17 6 6 26 -2 34 -17
18z"/>
<path d="M2284 2573 c3 -6 2 -14 -4 -18 -19 -12 -11 -33 10 -28 29 8 30 15 7
38 -11 11 -17 15 -13 8z"/>
<path d="M2590 2565 c0 -8 16 -22 35 -31 19 -9 35 -20 35 -24 0 -5 21 -22 48
-38 26 -17 59 -42 74 -56 15 -14 34 -26 43 -26 8 0 15 -3 15 -7 0 -5 16 -19
35 -32 20 -13 32 -28 28 -35 -4 -6 1 -5 10 3 11 9 17 10 17 2 0 -6 7 -11 15
-11 8 0 15 -4 15 -10 0 -5 7 -10 15 -10 21 0 19 9 -7 31 -21 19 -32 23 -55 20
-7 -1 -10 4 -8 11 3 7 -5 18 -17 23 -16 7 -22 17 -20 33 2 12 -2 22 -8 22 -7
0 -10 -7 -6 -15 7 -19 2 -19 -34 0 -17 9 -30 22 -30 29 0 8 -13 17 -29 21 -16
3 -47 24 -70 45 -22 21 -49 41 -61 45 -11 3 -20 11 -20 16 0 5 -4 9 -10 9 -5
0 -10 -7 -10 -15z"/>
<path d="M692 2550 c0 -14 2 -19 5 -12 2 6 2 18 0 25 -3 6 -5 1 -5 -13z"/>
<path d="M1405 2550 c-3 -5 -1 -10 4 -10 6 0 11 5 11 10 0 6 -2 10 -4 10 -3 0
-8 -4 -11 -10z"/>
<path d="M2796 2533 c-6 -14 -5 -15 5 -6 7 7 10 15 7 18 -3 3 -9 -2 -12 -12z"/>
<path d="M2890 2480 c0 -5 5 -10 11 -10 5 0 7 5 4 10 -3 6 -8 10 -11 10 -2 0
-4 -4 -4 -10z"/>
<path d="M1292 2468 c-17 -17 -16 -44 1 -30 9 8 20 7 39 -2 37 -20 42 -8 9 20
-33 28 -33 28 -49 12z"/>
<path d="M1433 2446 c-34 -16 -28 -24 17 -23 40 2 54 19 24 31 -9 3 -16 5 -17
5 -1 -1 -12 -6 -24 -13z"/>
<path d="M2917 2453 c-12 -12 -7 -22 8 -17 8 4 15 10 15 15 0 11 -14 12 -23 2z"/>
<path d="M2650 2420 c-18 -11 2 -20 45 -22 23 -1 31 -4 23 -9 -9 -6 11 -31 71
-89 46 -44 85 -80 86 -80 1 0 2 7 2 15 0 8 -4 15 -9 15 -4 0 -8 7 -8 15 0 8
-4 15 -9 15 -6 0 -31 20 -58 45 -26 25 -51 45 -56 45 -4 0 -7 7 -5 16 4 19
-62 47 -82 34z"/>
<path d="M1000 2413 c0 -4 8 -17 16 -28 15 -20 16 -20 12 4 -3 22 -28 44 -28
24z"/>
<path d="M1297 2414 c-13 -13 -7 -23 10 -17 12 5 15 2 10 -10 -3 -9 -3 -17 2
-17 4 0 6 -15 4 -32 l-4 -33 16 28 c22 38 16 81 -10 85 -12 2 -24 0 -28 -4z"/>
<path d="M1431 2411 c-7 -5 -13 -20 -13 -35 0 -31 33 -87 40 -67 2 7 -1 17 -8
21 -9 6 -9 9 -1 15 7 3 9 15 6 26 -7 21 5 25 23 7 7 -7 12 -8 12 -2 0 10 -32
44 -41 44 -2 0 -10 -4 -18 -9z"/>
<path d="M658 2392 c9 -6 -3 -9 -34 -10 -28 0 -53 -6 -62 -16 -9 -9 -12 -16
-6 -16 6 0 14 3 18 8 8 8 14 8 91 11 50 1 52 13 5 26 -16 4 -20 3 -12 -3z"/>
<path d="M121 2364 c0 -11 3 -14 6 -6 3 7 2 16 -1 19 -3 4 -6 -2 -5 -13z"/>
<path d="M470 2343 c0 -5 5 -15 10 -23 7 -12 9 -10 7 8 -1 19 -17 33 -17 15z"/>
<path d="M623 2331 c-23 -4 -48 -12 -56 -19 -7 -6 -17 -9 -20 -5 -4 3 -7 1 -7
-5 0 -7 3 -12 8 -13 4 0 16 -3 27 -7 32 -10 197 -3 228 9 50 21 33 38 -38 38
-36 0 -73 2 -83 4 -9 2 -36 1 -59 -2z m57 -27 c0 -10 -6 -14 -14 -11 -8 3 -16
1 -18 -5 -5 -13 -38 -3 -38 11 0 5 12 12 28 14 15 2 30 5 35 6 4 0 7 -6 7 -15z
m60 -4 c0 -5 -7 -10 -15 -10 -8 0 -15 5 -15 10 0 6 7 10 15 10 8 0 15 -4 15
-10z"/>
<path d="M1730 2325 c0 -8 2 -15 4 -15 2 0 6 7 10 15 3 8 1 15 -4 15 -6 0 -10
-7 -10 -15z"/>
<path d="M2488 2333 c12 -3 20 -8 17 -13 -3 -5 11 -7 32 -5 50 4 50 4 34 14
-8 5 -35 9 -60 8 -25 0 -36 -2 -23 -4z"/>
<path d="M516 2313 c-6 -14 -5 -15 5 -6 7 7 10 15 7 18 -3 3 -9 -2 -12 -12z"/>
<path d="M2425 2310 c4 -6 11 -8 16 -5 14 9 11 15 -7 15 -8 0 -12 -5 -9 -10z"/>
<path d="M2620 2311 c0 -6 9 -9 19 -8 11 0 17 5 15 9 -7 11 -34 10 -34 -1z"/>
<path d="M1338 2276 c-2 -19 -1 -33 3 -30 4 2 10 0 14 -6 4 -6 11 -8 16 -4 5
3 7 10 3 15 -3 5 -10 6 -16 3 -7 -5 -9 2 -6 20 3 14 2 29 -2 31 -4 3 -10 -11
-12 -29z"/>
<path d="M1414 2286 c4 -15 10 -41 13 -57 3 -16 10 -29 15 -29 13 0 -2 71 -19
95 -14 19 -15 18 -9 -9z"/>
<path d="M1950 2279 c0 -11 4 -18 10 -14 5 3 7 12 3 20 -7 21 -13 19 -13 -6z"/>
<path d="M2185 2289 c-4 -5 21 -9 56 -9 34 0 60 2 58 4 -9 10 -109 14 -114 5z"/>
<path d="M130 2270 c0 -11 5 -20 10 -20 6 0 10 9 10 20 0 11 -4 20 -10 20 -5
0 -10 -9 -10 -20z"/>
<path d="M232 2270 c0 -14 2 -19 5 -12 2 6 2 18 0 25 -3 6 -5 1 -5 -13z"/>
<path d="M2115 2280 c3 -5 8 -10 11 -10 2 0 4 5 4 10 0 6 -5 10 -11 10 -5 0
-7 -4 -4 -10z"/>
<path d="M2315 2280 c-3 -5 1 -10 10 -10 9 0 13 5 10 10 -3 6 -8 10 -10 10 -2
0 -7 -4 -10 -10z"/>
<path d="M483 2273 c4 -3 2 -12 -5 -20 -9 -12 -7 -13 14 -8 15 4 29 2 33 -4 3
-6 10 -9 15 -6 5 3 11 1 15 -5 3 -5 24 -10 45 -10 21 0 42 -5 46 -11 4 -7 8
-40 9 -75 1 -35 5 -67 9 -71 4 -5 6 27 4 69 -3 76 -3 77 22 76 14 -1 51 2 83
5 l59 6 -4 -50 c-1 -27 -1 -49 2 -49 3 0 7 -59 8 -132 2 -73 8 -140 13 -149 5
-10 9 -31 9 -47 0 -30 24 -61 37 -48 4 4 3 10 -3 14 -20 13 -36 164 -38 350
-1 117 1 135 17 146 21 16 22 26 2 26 -8 0 -15 -4 -15 -9 0 -16 -70 -34 -136
-35 -34 0 -60 2 -57 7 2 4 -3 7 -11 7 -8 0 -17 -4 -20 -9 -7 -11 -120 15 -124
29 -2 5 -11 10 -19 10 -9 0 -13 -3 -10 -7z"/>
<path d="M980 2265 c0 -8 4 -15 10 -15 5 0 7 7 4 15 -4 8 -8 15 -10 15 -2 0
-4 -7 -4 -15z"/>
<path d="M1382 2268 c12 -10 14 -18 6 -31 -5 -10 -7 -25 -5 -35 3 -12 5 -11 6
6 0 12 6 22 11 22 19 0 10 29 -12 40 -20 10 -21 9 -6 -2z"/>
<path d="M2480 2266 c0 -2 7 -7 16 -10 8 -3 12 -2 9 4 -6 10 -25 14 -25 6z"/>
<path d="M2070 2239 c0 -5 5 -7 10 -4 6 3 10 8 10 11 0 2 -4 4 -10 4 -5 0 -10
-5 -10 -11z"/>
<path d="M2107 2243 c-4 -3 -7 -13 -7 -22 1 -13 3 -13 11 2 11 19 8 33 -4 20z"/>
<path d="M491 2214 c0 -11 3 -14 6 -6 3 7 2 16 -1 19 -3 4 -6 -2 -5 -13z"/>
<path d="M2142 2205 c0 -16 2 -22 5 -12 2 9 2 23 0 30 -3 6 -5 -1 -5 -18z"/>
<path d="M2900 2217 c0 -8 11 -24 25 -37 14 -13 25 -18 25 -12 0 7 -5 12 -11
12 -5 0 -8 4 -5 8 3 5 -4 16 -15 25 -14 12 -19 13 -19 4z"/>
<path d="M2567 2203 c-9 -2 -15 -8 -12 -13 6 -10 45 -1 45 11 0 9 -4 10 -33 2z"/>
<path d="M1510 2193 c0 -5 9 -18 20 -28 11 -10 20 -14 20 -8 0 5 -9 18 -20 28
-11 10 -20 14 -20 8z"/>
<path d="M1951 2184 c0 -11 3 -14 6 -6 3 7 2 16 -1 19 -3 4 -6 -2 -5 -13z"/>
<path d="M2518 2193 c7 -3 16 -2 19 1 4 3 -2 6 -13 5 -11 0 -14 -3 -6 -6z"/>
<path d="M2630 2190 c34 -11 60 -11 35 0 -11 5 -29 8 -40 8 -16 0 -15 -2 5 -8z"/>
<path d="M492 2155 c-1 -21 3 -33 8 -30 6 4 8 18 6 32 -7 38 -13 37 -14 -2z"/>
<path d="M1343 2169 c-13 -4 -23 -13 -23 -19 0 -6 5 -8 12 -4 21 13 90 5 103
-13 12 -16 12 -14 8 10 -3 15 -10 28 -17 28 -6 1 -22 3 -36 4 -14 2 -35 -1
-47 -6z"/>
<path d="M1055 2160 c3 -5 8 -10 11 -10 2 0 4 5 4 10 0 6 -5 10 -11 10 -5 0
-7 -4 -4 -10z"/>
<path d="M2120 2159 c0 -5 5 -7 10 -4 6 3 10 8 10 11 0 2 -4 4 -10 4 -5 0 -10
-5 -10 -11z"/>
<path d="M1228 2148 c-5 -38 -2 -404 4 -390 4 9 7 44 7 77 1 61 7 79 27 86 7
2 8 12 3 24 -6 17 -8 17 -8 3 -1 -10 -6 -18 -12 -18 -5 0 -7 5 -4 11 8 12 16
199 9 199 -3 0 -9 -10 -14 -22 -8 -19 -9 -18 -4 10 3 17 3 32 0 32 -3 0 -7 -6
-8 -12z"/>
<path d="M1650 2136 c0 -8 5 -18 10 -21 6 -3 10 3 10 14 0 12 -4 21 -10 21 -5
0 -10 -6 -10 -14z"/>
<path d="M1361 2116 c-9 -11 -9 -15 1 -18 22 -8 47 3 41 18 -7 18 -27 18 -42
0z"/>
<path d="M1600 2093 c18 -24 39 -43 46 -43 7 0 22 -10 34 -22 11 -12 20 -17
20 -10 0 6 -12 19 -26 29 -14 10 -44 34 -67 53 l-41 35 34 -42z"/>
<path d="M2713 2123 c9 -2 23 -2 30 0 6 3 -1 5 -18 5 -16 0 -22 -2 -12 -5z"/>
<path d="M2825 2115 c33 -8 69 -14 80 -14 41 0 -29 21 -85 25 l-55 3 60 -14z"/>
<path d="M1180 2110 c0 -5 5 -10 11 -10 5 0 7 5 4 10 -3 6 -8 10 -11 10 -2 0
-4 -4 -4 -10z"/>
<path d="M1508 2069 c-6 -56 -54 -226 -68 -244 -7 -9 -14 -54 -24 -160 -1 -17
-5 -36 -9 -42 -4 -6 -4 -18 -1 -27 4 -9 1 -16 -6 -16 -8 0 -11 -10 -7 -29 4
-20 0 -37 -12 -53 -10 -13 -18 -30 -18 -38 -3 -91 -18 -230 -25 -230 -5 0 -6
-4 -3 -10 3 -5 -1 -10 -10 -10 -18 0 -65 -44 -65 -61 0 -6 12 0 26 15 31 30
52 33 61 9 6 -15 7 -15 14 3 4 10 8 41 8 67 1 65 17 171 46 297 30 132 48 257
40 270 -3 5 -2 10 2 10 5 0 16 30 26 68 10 37 25 88 33 114 9 31 11 59 6 85
l-8 38 -6 -56z"/>
<path d="M144 2086 c0 -14 4 -22 8 -20 4 3 8 14 8 25 0 10 -4 19 -8 19 -4 0
-8 -11 -8 -24z"/>
<path d="M490 2088 c0 -24 16 -56 23 -48 3 3 2 20 0 38 -6 36 -23 44 -23 10z"/>
<path d="M1108 2103 c6 -2 18 -2 25 0 6 3 1 5 -13 5 -14 0 -19 -2 -12 -5z"/>
<path d="M1540 2097 c0 -19 16 -31 24 -18 3 5 -1 14 -9 21 -12 10 -15 10 -15
-3z"/>
<path d="M2526 2096 c10 -8 21 -12 24 -10 5 6 -21 24 -34 24 -6 0 -1 -6 10
-14z"/>
<path d="M2105 2090 c-3 -5 -2 -10 2 -10 5 0 17 -16 27 -35 11 -19 23 -35 28
-35 4 0 8 -6 8 -12 1 -7 14 -28 30 -47 16 -19 26 -40 23 -50 -3 -11 -2 -12 4
-4 7 10 12 8 23 -5 33 -41 60 -82 53 -81 -20 3 -23 -2 -8 -18 14 -13 18 -14
25 -2 7 11 13 9 30 -10 22 -27 19 -41 -5 -21 -19 16 -19 3 0 -30 8 -14 14 -19
15 -12 0 6 5 12 11 12 5 0 7 -4 4 -10 -3 -5 -1 -18 4 -27 9 -15 11 -14 12 12
1 17 3 23 6 13 2 -10 10 -18 16 -18 7 0 6 -5 -3 -11 -12 -8 -10 -9 8 -4 15 4
22 2 22 -7 0 -10 3 -9 10 2 8 12 10 11 10 -7 0 -13 6 -23 14 -23 16 0 29 -27
20 -41 -3 -6 -2 -22 2 -37 6 -24 8 -22 15 22 4 27 11 52 16 57 4 4 103 10 218
13 116 2 220 5 233 5 12 1 22 7 22 15 0 10 -15 12 -66 9 -43 -2 -63 0 -59 7 3
5 -1 10 -10 10 -9 0 -14 -4 -11 -8 3 -5 -49 -10 -116 -11 -91 -2 -123 1 -129
11 -7 10 -9 10 -9 1 0 -8 -13 -13 -32 -13 -17 0 -40 -7 -50 -17 -10 -9 -18
-11 -18 -5 0 6 -7 9 -16 5 -12 -4 -15 -2 -12 8 3 8 12 14 20 14 8 0 23 6 32
14 9 7 33 15 54 16 50 4 52 6 17 14 -17 4 -47 6 -67 3 -28 -3 -35 -8 -31 -20
5 -11 2 -14 -9 -10 -9 4 -21 1 -27 -5 -8 -8 -11 -6 -12 9 0 10 -3 13 -6 7 -8
-22 -19 -15 -52 38 -19 28 -44 54 -57 59 -13 5 -24 16 -24 25 0 8 -4 15 -8 15
-4 0 -15 12 -24 28 -9 15 -35 46 -56 70 -22 23 -37 42 -33 42 3 0 2 4 -4 8
-15 11 -55 70 -55 82 0 13 -17 13 -25 0z"/>
<path d="M1091 2077 c-15 -19 -2 -29 15 -12 8 7 14 16 14 19 0 11 -17 6 -29
-7z"/>
<path d="M1157 2077 c-4 -10 -7 -26 -7 -35 1 -15 2 -15 11 1 6 10 9 25 7 35
-3 16 -4 15 -11 -1z"/>
<path d="M2640 2080 c0 -5 5 -10 10 -10 6 0 10 5 10 10 0 6 -4 10 -10 10 -5 0
-10 -4 -10 -10z"/>
<path d="M1376 2065 c-3 -8 -1 -15 4 -15 6 0 10 7 10 15 0 8 -2 15 -4 15 -2 0
-6 -7 -10 -15z"/>
<path d="M1436 2065 c-9 -26 -7 -32 5 -12 6 10 9 21 6 23 -2 3 -7 -2 -11 -11z"/>
<path d="M2538 2059 c-7 -5 -9 -12 -4 -16 5 -4 10 -3 13 2 2 6 20 9 41 7 20
-3 34 -1 30 3 -9 10 -66 13 -80 4z"/>
<path d="M2700 2061 c0 -5 11 -8 25 -8 14 0 28 3 31 8 3 5 -9 9 -25 9 -17 0
-31 -4 -31 -9z"/>
<path d="M2935 2062 c6 -5 24 -12 40 -16 34 -7 15 7 -25 19 -16 5 -22 4 -15
-3z"/>
<path d="M719 2038 c0 -13 -2 -31 -4 -40 -2 -10 1 -18 6 -18 5 0 9 18 9 40 0
42 -9 57 -11 18z"/>
<path d="M963 2015 c0 -27 2 -38 4 -22 2 15 2 37 0 50 -2 12 -4 0 -4 -28z"/>
<path d="M1310 2045 c0 -8 4 -15 10 -15 5 0 7 7 4 15 -4 8 -8 15 -10 15 -2 0
-4 -7 -4 -15z"/>
<path d="M1541 2029 c-13 -39 -15 -82 -2 -59 10 18 24 90 17 90 -2 0 -9 -14
-15 -31z"/>
<path d="M1952 2035 c0 -16 2 -22 5 -12 2 9 2 23 0 30 -3 6 -5 -1 -5 -18z"/>
<path d="M153 1980 c0 -36 2 -50 4 -32 2 17 2 47 0 65 -2 17 -4 3 -4 -33z"/>
<path d="M1060 2034 c0 -3 9 -19 21 -35 40 -57 89 -268 89 -384 0 -112 -16
-144 -40 -84 -17 40 -79 82 -116 77 -25 -3 -30 -9 -36 -43 -3 -22 -14 -60 -23
-85 -17 -47 -13 -115 10 -159 10 -21 13 -7 17 95 3 65 11 132 17 148 10 24 15
27 37 22 36 -9 69 -35 89 -70 15 -24 17 -45 11 -145 -9 -150 -15 -216 -31
-318 -6 -46 -10 -85 -7 -87 2 -3 27 10 56 28 105 68 110 70 151 67 22 -2 43
-8 46 -13 4 -6 11 -8 17 -4 14 9 23 -7 12 -23 -6 -11 -15 -11 -39 -3 -18 7
-29 7 -26 2 4 -6 2 -10 -4 -10 -5 0 -12 6 -14 13 -3 7 -6 5 -6 -5 -1 -20 -40
-33 -72 -25 -16 4 -19 2 -14 -14 5 -13 2 -19 -10 -19 -9 0 -25 -9 -37 -20 -35
-32 2 -25 50 9 22 17 55 33 74 36 58 11 88 12 88 5 0 -11 -29 -77 -30 -67 0 4
-9 -2 -20 -13 -16 -16 -30 -19 -92 -16 -85 4 -105 10 -114 38 -5 16 -8 18 -15
7 -5 -8 -9 -26 -9 -40 0 -26 1 -26 99 -33 75 -6 105 -4 123 6 13 7 29 13 37
13 20 0 66 140 101 305 39 187 61 260 80 270 9 5 42 12 74 15 l58 7 -8 -63
c-12 -104 -12 -104 19 -107 53 -6 137 73 137 129 0 24 -4 27 -45 33 -25 4 -45
13 -45 20 0 18 -169 0 -192 -20 -16 -15 -17 -13 -16 25 0 23 4 44 9 47 5 3 9
10 9 15 0 6 -5 7 -10 4 -6 -4 1 24 16 62 14 37 32 85 40 106 25 70 97 209 110
214 15 6 19 53 5 53 -14 0 -87 -147 -120 -241 -54 -153 -81 -204 -61 -115 7
30 6 36 -6 32 -17 -7 -18 6 -2 22 9 9 8 12 -8 12 -18 0 -19 -8 -19 -163 -1
-144 -4 -174 -29 -272 -34 -132 -34 -134 -35 -162 -1 -33 -51 -74 -51 -42 0 5
4 8 9 5 5 -4 7 3 4 14 -3 11 0 20 6 20 6 0 11 12 11 28 l0 27 -20 -25 c-11
-14 -20 -35 -20 -47 0 -19 -4 -21 -44 -16 -43 4 -67 -5 -170 -64 -11 -7 -21
-11 -22 -10 -1 1 5 32 14 68 14 59 18 67 40 67 36 0 55 23 43 53 -10 24 -10
24 -10 -6 -1 -26 -5 -30 -31 -31 l-30 -2 5 52 c2 28 7 85 10 126 3 41 17 118
30 170 25 94 32 145 15 105 -7 -16 -9 -10 -9 22 -1 24 -5 62 -10 85 -6 24 -15
68 -21 98 -21 97 -52 194 -68 213 -15 17 -32 23 -32 11z m692 -580 c41 -5 43
-8 28 -44 -13 -32 -42 -54 -73 -56 -24 -2 -40 40 -31 80 9 43 14 49 30 35 8
-6 28 -13 46 -15z m-68 -124 c-10 -4 -23 -5 -28 -2 -13 7 16 21 32 14 13 -4
12 -7 -4 -12z"/>
<path d="M1292 1968 c11 -40 27 -80 35 -88 14 -13 15 -13 10 5 -15 55 -53 155
-59 155 -3 0 3 -33 14 -72z"/>
<path d="M1588 2033 c7 -3 16 -2 19 1 4 3 -2 6 -13 5 -11 0 -14 -3 -6 -6z"/>
<path d="M2246 2025 c-3 -8 -1 -15 4 -15 6 0 10 7 10 15 0 8 -2 15 -4 15 -2 0
-6 -7 -10 -15z"/>
<path d="M1380 2020 c0 -5 5 -10 10 -10 6 0 10 5 10 10 0 6 -4 10 -10 10 -5 0
-10 -4 -10 -10z"/>
<path d="M1618 2010 c-10 -9 -18 -20 -18 -25 0 -4 8 -1 18 7 9 9 24 17 31 20
13 4 13 5 0 10 -7 3 -22 -2 -31 -12z"/>
<path d="M2788 2013 c7 -3 16 -2 19 1 4 3 -2 6 -13 5 -11 0 -14 -3 -6 -6z"/>
<path d="M2940 2004 c0 -20 13 -23 39 -9 l24 12 -32 5 c-21 3 -31 0 -31 -8z"/>
<path d="M495 1990 c2 -31 15 -37 15 -7 0 15 -4 27 -8 27 -5 0 -8 -9 -7 -20z"/>
<path d="M1147 2004 c-4 -4 -7 -14 -7 -23 0 -11 3 -12 11 -4 6 6 10 16 7 23
-2 6 -7 8 -11 4z"/>
<path d="M2640 1999 c0 -5 5 -7 10 -4 6 3 10 8 10 11 0 2 -4 4 -10 4 -5 0 -10
-5 -10 -11z"/>
<path d="M2740 2001 c0 -6 4 -13 10 -16 6 -3 7 1 4 9 -7 18 -14 21 -14 7z"/>
<path d="M2846 1993 c-6 -14 -5 -15 5 -6 7 7 10 15 7 18 -3 3 -9 -2 -12 -12z"/>
<path d="M2590 1990 c0 -5 9 -10 21 -10 11 0 17 5 14 10 -3 6 -13 10 -21 10
-8 0 -14 -4 -14 -10z"/>
<path d="M1177 1969 c4 -13 8 -18 11 -10 2 7 -1 18 -6 23 -8 8 -9 4 -5 -13z"/>
<path d="M2428 1983 c7 -3 16 -2 19 1 4 3 -2 6 -13 5 -11 0 -14 -3 -6 -6z"/>
<path d="M2462 1970 c-8 -13 -8 -20 -2 -20 6 0 13 7 17 15 9 24 -1 27 -15 5z"/>
<path d="M1050 1969 c0 -5 5 -7 10 -4 6 3 10 8 10 11 0 2 -4 4 -10 4 -5 0 -10
-5 -10 -11z"/>
<path d="M2301 1964 c0 -11 3 -14 6 -6 3 7 2 16 -1 19 -3 4 -6 -2 -5 -13z"/>
<path d="M2400 1971 c0 -6 4 -13 10 -16 6 -3 7 1 4 9 -7 18 -14 21 -14 7z"/>
<path d="M2700 1971 c0 -6 4 -13 10 -16 6 -3 7 1 4 9 -7 18 -14 21 -14 7z"/>
<path d="M715 1893 c0 -43 -3 -102 -7 -130 -5 -37 -4 -53 4 -53 6 0 8 3 5 6
-4 4 3 15 14 25 19 17 20 20 6 74 -8 30 -11 57 -8 59 8 5 1 96 -8 96 -3 0 -6
-35 -6 -77z"/>
<path d="M1950 1970 c-1 -3 -3 -27 -5 -55 -3 -47 -3 -48 6 -16 8 27 8 88 -1
71z"/>
<path d="M2565 1960 c3 -5 8 -10 11 -10 2 0 4 5 4 10 0 6 -5 10 -11 10 -5 0
-7 -4 -4 -10z"/>
<path d="M962 1940 c0 -14 2 -19 5 -12 2 6 2 18 0 25 -3 6 -5 1 -5 -13z"/>
<path d="M493 1915 c0 -22 2 -30 4 -17 2 12 2 30 0 40 -3 9 -5 -1 -4 -23z"/>
<path d="M2539 1923 c-13 -16 -12 -17 4 -4 9 7 17 15 17 17 0 8 -8 3 -21 -13z"/>
<path d="M72 1900 c0 -14 2 -19 5 -12 2 6 2 18 0 25 -3 6 -5 1 -5 -13z"/>
<path d="M690 1882 c0 -22 3 -43 8 -46 8 -5 6 73 -3 82 -3 3 -5 -13 -5 -36z"/>
<path d="M2320 1903 c0 -8 5 -13 12 -11 18 6 21 25 3 25 -8 0 -15 -7 -15 -14z"/>
<path d="M2576 1911 c-12 -5 -15 -10 -9 -14 6 -4 16 0 23 8 14 17 13 17 -14 6z"/>
<path d="M1520 1900 c0 -6 7 -10 15 -10 8 0 15 2 15 4 0 2 -7 6 -15 10 -8 3
-15 1 -15 -4z"/>
<path d="M1279 1865 c-1 -22 -3 -50 -3 -62 0 -13 -4 -23 -8 -23 -4 0 -5 -7 -1
-16 12 -33 30 38 23 91 l-7 50 -4 -40z"/>
<path d="M1680 1890 c0 -5 7 -10 16 -10 8 0 12 5 9 10 -3 6 -10 10 -16 10 -5
0 -9 -4 -9 -10z"/>
<path d="M2467 1893 c-4 -3 -7 -13 -7 -22 1 -13 3 -13 11 2 11 19 8 33 -4 20z"/>
<path d="M2500 1891 c0 -12 28 -22 35 -12 3 5 -2 12 -11 15 -21 8 -24 8 -24
-3z"/>
<path d="M2720 1890 c0 -5 7 -10 15 -10 8 0 15 5 15 10 0 6 -7 10 -15 10 -8 0
-15 -4 -15 -10z"/>
<path d="M2790 1890 c-13 -8 -12 -10 3 -10 9 0 17 5 17 10 0 12 -1 12 -20 0z"/>
<path d="M960 1861 c0 -12 5 -21 10 -21 6 0 10 6 10 14 0 8 -4 18 -10 21 -5 3
-10 -3 -10 -14z"/>
<path d="M2600 1869 c0 -5 5 -7 10 -4 6 3 10 8 10 11 0 2 -4 4 -10 4 -5 0 -10
-5 -10 -11z"/>
<path d="M452 1850 c0 -14 2 -19 5 -12 2 6 2 18 0 25 -3 6 -5 1 -5 -13z"/>
<path d="M490 1845 c0 -14 5 -25 10 -25 6 0 10 11 10 25 0 14 -4 25 -10 25 -5
0 -10 -11 -10 -25z"/>
<path d="M612 1845 c0 -16 2 -22 5 -12 2 9 2 23 0 30 -3 6 -5 -1 -5 -18z"/>
<path d="M1491 1854 c0 -11 3 -14 6 -6 3 7 2 16 -1 19 -3 4 -6 -2 -5 -13z"/>
<path d="M1700 1840 c-7 -17 -10 -33 -6 -37 3 -3 1 -12 -5 -19 -6 -8 -6 -14 0
-18 9 -6 36 92 28 101 -3 2 -10 -10 -17 -27z"/>
<path d="M2881 1854 c0 -11 3 -14 6 -6 3 7 2 16 -1 19 -3 4 -6 -2 -5 -13z"/>
<path d="M2435 1850 c-3 -5 -1 -10 4 -10 6 0 11 5 11 10 0 6 -2 10 -4 10 -3 0
-8 -4 -11 -10z"/>
<path d="M2540 1849 c0 -5 5 -7 10 -4 6 3 10 8 10 11 0 2 -4 4 -10 4 -5 0 -10
-5 -10 -11z"/>
<path d="M2630 1851 c0 -5 10 -11 23 -13 15 -2 23 -11 25 -30 2 -14 11 -32 20
-39 14 -11 15 -11 5 1 -9 9 -9 17 -3 25 16 19 2 43 -32 54 -38 13 -38 13 -38
2z"/>
<path d="M2903 1837 c4 -23 1 -27 -13 -22 -14 4 -20 -1 -25 -25 -4 -17 -4 -34
-1 -37 3 -4 7 -1 7 5 1 7 2 18 3 25 1 7 13 11 29 10 31 -2 33 4 11 43 l-16 29
5 -28z"/>
<path d="M2971 1839 c11 -11 23 -18 26 -15 9 8 -17 36 -33 36 -10 0 -7 -7 7
-21z"/>
<path d="M2820 1831 c0 -5 7 -12 16 -15 14 -5 15 -4 4 9 -14 17 -20 19 -20 6z"/>
<path d="M1486 1814 c-4 -10 0 -24 9 -33 15 -15 16 -13 9 14 -9 38 -10 40 -18
19z"/>
<path d="M2950 1815 c0 -8 5 -15 10 -15 6 0 10 7 10 15 0 8 -4 15 -10 15 -5 0
-10 -7 -10 -15z"/>
<path d="M1016 1811 c-4 -5 4 -15 16 -22 22 -12 22 -11 8 7 -8 10 -15 20 -16
22 -1 2 -5 -1 -8 -7z"/>
<path d="M2182 1800 c0 -14 2 -19 5 -12 2 6 2 18 0 25 -3 6 -5 1 -5 -13z"/>
<path d="M2435 1810 c-3 -5 -1 -10 4 -10 6 0 11 5 11 10 0 6 -2 10 -4 10 -3 0
-8 -4 -11 -10z"/>
<path d="M2537 1802 c-19 -20 -22 -32 -9 -32 5 0 14 11 20 25 14 30 11 31 -11
7z"/>
<path d="M493 1784 c-1 -27 -20 -47 -35 -38 -4 3 -8 -5 -7 -18 0 -13 3 -17 6
-10 4 10 10 10 29 -3 l24 -15 0 55 c0 55 -14 79 -17 29z"/>
<path d="M1641 1794 c-7 -8 -11 -17 -9 -20 3 -2 13 5 23 16 10 11 14 20 9 20
-5 -1 -15 -8 -23 -16z"/>
<path d="M606 1785 c-3 -9 -6 -24 -5 -33 0 -9 5 -4 10 12 9 32 6 48 -5 21z"/>
<path d="M1110 1791 c0 -5 7 -22 15 -37 8 -16 15 -45 15 -64 0 -30 19 -83 20
-54 0 13 -20 124 -26 147 -5 17 -24 24 -24 8z"/>
<path d="M1721 1773 c0 -25 1 -26 9 -8 12 27 12 35 0 35 -5 0 -10 -12 -9 -27z"/>
<path d="M2600 1790 c0 -5 5 -10 10 -10 6 0 10 5 10 10 0 6 -4 10 -10 10 -5 0
-10 -4 -10 -10z"/>
<path d="M2738 1784 c25 -18 82 -27 82 -13 0 5 -3 9 -7 10 -5 0 -19 2 -33 3
-14 2 -34 6 -45 10 -17 6 -17 5 3 -10z"/>
<path d="M1331 1727 c7 -60 24 -107 39 -107 14 0 12 16 -4 33 -8 8 -18 38 -22
66 -4 28 -10 53 -13 56 -4 2 -4 -20 0 -48z"/>
<path d="M910 1758 c0 -9 5 -20 10 -23 13 -8 13 5 0 25 -8 13 -10 13 -10 -2z"/>
<path d="M947 1756 c-3 -8 0 -17 8 -20 10 -3 12 -18 9 -52 -2 -26 -7 -50 -9
-55 -3 -4 -1 -10 4 -13 14 -9 20 5 26 65 4 30 8 59 10 66 6 17 -12 26 -18 11
-4 -10 -6 -10 -6 0 -1 16 -18 15 -24 -2z"/>
<path d="M1760 1760 c0 -5 12 -70 26 -142 25 -131 44 -183 44 -122 0 16 -6 36
-12 43 -11 10 -8 16 11 32 23 19 23 19 2 19 -16 0 -21 7 -23 28 -2 41 -3 46
-12 60 -5 8 -8 31 -8 53 1 27 -3 39 -14 39 -8 0 -14 -4 -14 -10z"/>
<path d="M150 1736 c0 -14 -6 -26 -12 -26 -18 -1 -46 -62 -38 -84 5 -14 9 -9
20 23 9 27 18 40 27 37 8 -4 13 2 13 15 0 16 5 20 20 16 11 -3 20 -1 20 4 0 5
5 8 11 7 6 -2 14 3 17 11 3 11 -2 12 -23 7 -16 -4 -33 -2 -41 5 -11 9 -14 7
-14 -15z"/>
<path d="M240 1745 c0 -8 7 -15 15 -15 9 0 12 6 9 15 -4 8 -10 15 -15 15 -5 0
-9 -7 -9 -15z"/>
<path d="M290 1748 c0 -12 8 -18 23 -19 12 0 46 -2 75 -4 28 -2 52 1 52 6 0
10 -31 13 -94 10 -23 -1 -42 3 -47 11 -7 10 -9 9 -9 -4z"/>
<path d="M1075 1712 c24 -47 45 -73 45 -57 0 14 -40 82 -56 95 -11 10 -8 -2
11 -38z"/>
<path d="M1301 1744 c0 -11 3 -14 6 -6 3 7 2 16 -1 19 -3 4 -6 -2 -5 -13z"/>
<path d="M1391 1750 c-8 -41 -7 -90 1 -82 5 5 8 29 5 53 -2 24 -5 37 -6 29z"/>
<path d="M1602 1748 c-13 -13 -16 -38 -6 -38 8 0 33 32 34 43 0 11 -15 8 -28
-5z"/>
<path d="M1665 1740 c-4 -13 -29 -61 -56 -108 -27 -47 -48 -86 -46 -88 4 -4
89 114 87 122 -1 4 2 10 7 13 16 11 31 58 23 71 -6 9 -10 6 -15 -10z"/>
<path d="M2898 1743 c7 -3 16 -2 19 1 4 3 -2 6 -13 5 -11 0 -14 -3 -6 -6z"/>
<path d="M1717 1717 c-4 -16 -19 -46 -33 -68 -13 -22 -22 -44 -19 -49 4 -6 0
-10 -7 -10 -7 0 -21 -12 -31 -25 -17 -24 -17 -24 0 -18 26 9 63 45 57 55 -3 4
1 11 9 14 8 3 13 13 10 23 -2 10 3 25 12 34 9 10 15 28 13 44 l-3 28 -8 -28z"/>
<path d="M886 1717 c3 -10 9 -15 12 -12 3 3 0 11 -7 18 -10 9 -11 8 -5 -6z"/>
<path d="M1233 1680 c0 -30 2 -43 4 -27 2 15 2 39 0 55 -2 15 -4 2 -4 -28z"/>
<path d="M1274 1719 c-3 -6 -2 -15 3 -20 5 -5 9 -1 9 11 0 23 -2 24 -12 9z"/>
<path d="M1942 1705 c0 -16 2 -22 5 -12 2 9 2 23 0 30 -3 6 -5 -1 -5 -18z"/>
<path d="M1580 1687 c0 -7 -9 -30 -21 -51 -23 -44 -20 -59 5 -21 17 27 33 85
22 85 -3 0 -6 -6 -6 -13z"/>
<path d="M1260 1683 c0 -4 5 -15 10 -23 8 -13 10 -13 10 2 0 9 -4 20 -10 23
-5 3 -10 3 -10 -2z"/>
<path d="M1033 1673 c-7 -3 -13 -9 -13 -14 0 -15 36 -10 50 6 9 10 9 15 1 15
-6 0 -11 -6 -11 -12 0 -9 -3 -10 -8 -2 -4 6 -13 9 -19 7z"/>
<path d="M2420 1640 c12 -16 18 -34 15 -40 -3 -5 -1 -10 4 -10 6 0 11 7 11 16
0 8 5 12 10 9 6 -4 8 -11 5 -16 -4 -5 -1 -9 4 -9 21 0 11 27 -14 38 -14 7 -28
19 -31 27 -4 8 -10 15 -16 15 -5 0 0 -13 12 -30z"/>
<path d="M919 1628 c-3 -22 -1 -34 4 -29 5 5 7 21 5 37 -3 27 -4 26 -9 -8z"/>
<path d="M66 1623 c-3 -10 -17 -30 -30 -44 -14 -15 -22 -30 -19 -33 10 -10 63
52 63 74 0 25 -7 26 -14 3z"/>
<path d="M1100 1613 c18 -14 36 -36 41 -47 8 -17 8 -15 4 9 -6 31 -39 64 -63
65 -8 0 1 -12 18 -27z"/>
<path d="M507 1609 c4 -13 8 -18 11 -10 2 7 -1 18 -6 23 -8 8 -9 4 -5 -13z"/>
<path d="M892 1610 c0 -14 2 -19 5 -12 2 6 2 18 0 25 -3 6 -5 1 -5 -13z"/>
<path d="M2560 1626 c0 -2 7 -9 15 -16 9 -7 15 -8 15 -2 0 5 -7 12 -15 16 -8
3 -15 4 -15 2z"/>
<path d="M2745 1610 c3 -5 8 -10 11 -10 2 0 4 5 4 10 0 6 -5 10 -11 10 -5 0
-7 -4 -4 -10z"/>
<path d="M2778 1613 c7 -3 16 -2 19 1 4 3 -2 6 -13 5 -11 0 -14 -3 -6 -6z"/>
<path d="M2858 1613 c7 -3 16 -2 19 1 4 3 -2 6 -13 5 -11 0 -14 -3 -6 -6z"/>
<path d="M2894 1613 c12 -12 106 -15 106 -4 0 7 -23 11 -57 11 -31 0 -53 -3
-49 -7z"/>
<path d="M1278 1593 c7 -3 16 -2 19 1 4 3 -2 6 -13 5 -11 0 -14 -3 -6 -6z"/>
<path d="M1350 1590 c0 -5 5 -10 11 -10 5 0 7 5 4 10 -3 6 -8 10 -11 10 -2 0
-4 -4 -4 -10z"/>
<path d="M2539 1586 c9 -11 9 -15 -1 -18 -13 -5 -19 -81 -32 -418 -3 -80 -10
-186 -14 -237 -5 -50 -7 -111 -5 -134 3 -28 0 -45 -9 -50 -10 -7 -10 -9 0 -9
8 0 12 -18 12 -54 0 -35 -5 -56 -12 -59 -10 -3 -10 -7 -1 -18 6 -8 10 -32 8
-54 -3 -22 -5 -78 -6 -124 -1 -55 -5 -79 -11 -70 -6 10 -8 1 -7 -26 2 -22 0
-60 -4 -85 -4 -25 -9 -80 -12 -122 l-5 -78 30 -15 c33 -17 40 -18 40 -7 0 5
-11 14 -25 20 -19 9 -24 17 -21 34 3 13 8 63 11 113 3 50 10 119 15 155 5 36
8 81 8 100 -3 89 15 456 23 477 5 13 5 23 0 23 -9 0 -8 30 1 45 3 6 4 34 3 63
-2 28 1 52 6 52 5 0 9 5 9 11 0 5 -4 7 -10 4 -12 -7 -14 18 -3 29 5 4 9 62 10
129 2 169 12 300 23 311 16 16 11 26 -11 26 -17 0 -19 -3 -10 -14z"/>
<path d="M1697 1565 c-20 -28 -12 -35 9 -7 9 11 13 13 14 4 0 -18 20 -5 20 14
0 22 -23 16 -43 -11z"/>
<path d="M1900 1580 c0 -5 7 -10 15 -10 8 0 15 5 15 10 0 6 -7 10 -15 10 -8 0
-15 -4 -15 -10z"/>
<path d="M2725 1580 c3 -5 10 -10 16 -10 5 0 9 5 9 10 0 6 -7 10 -16 10 -8 0
-12 -4 -9 -10z"/>
<path d="M2766 1575 c4 -8 7 -15 8 -15 0 1 26 7 56 15 l55 13 -62 1 c-52 1
-61 -2 -57 -14z"/>
<path d="M2886 1575 c-3 -8 -1 -15 4 -15 6 0 10 7 10 15 0 8 -2 15 -4 15 -2 0
-6 -7 -10 -15z"/>
<path d="M236 1572 c-36 -2 -66 -7 -66 -12 0 -4 30 -7 68 -5 37 2 80 4 95 4
16 1 26 5 22 11 -3 5 -17 9 -29 7 -13 -1 -54 -3 -90 -5z"/>
<path d="M375 1570 c-3 -5 -2 -10 4 -10 5 0 13 5 16 10 3 6 2 10 -4 10 -5 0
-13 -4 -16 -10z"/>
<path d="M900 1570 c0 -6 7 -10 15 -10 8 0 15 2 15 4 0 2 -7 6 -15 10 -8 3
-15 1 -15 -4z"/>
<path d="M2586 1563 c-6 -14 -5 -15 5 -6 7 7 10 15 7 18 -3 3 -9 -2 -12 -12z"/>
<path d="M2660 1560 c0 -5 5 -10 10 -10 6 0 10 5 10 10 0 6 -4 10 -10 10 -5 0
-10 -4 -10 -10z"/>
<path d="M482 1525 c0 -16 2 -22 5 -12 2 9 2 23 0 30 -3 6 -5 -1 -5 -18z"/>
<path d="M1766 1533 c-6 -14 -5 -15 5 -6 7 7 10 15 7 18 -3 3 -9 -2 -12 -12z"/>
<path d="M1951 1534 c0 -11 3 -14 6 -6 3 7 2 16 -1 19 -3 4 -6 -2 -5 -13z"/>
<path d="M115 1516 c-10 -14 -22 -23 -27 -20 -6 4 -8 1 -6 -7 5 -14 -21 -69
-32 -69 -3 0 -6 -9 -7 -20 -1 -11 2 -20 8 -20 5 0 9 9 9 19 0 11 7 26 15 35 8
8 15 19 15 25 0 6 4 11 8 11 10 0 45 60 39 67 -3 2 -13 -7 -22 -21z"/>
<path d="M1735 1520 c-3 -5 -1 -10 4 -10 6 0 11 5 11 10 0 6 -2 10 -4 10 -3 0
-8 -4 -11 -10z"/>
<path d="M1434 1503 c3 -6 2 -23 -4 -37 -5 -14 -6 -26 -1 -26 15 0 23 52 10
64 -9 8 -10 8 -5 -1z"/>
<path d="M899 1453 c0 -5 0 -30 1 -57 1 -32 -2 -46 -9 -41 -7 3 -11 -3 -11
-15 0 -12 -12 -32 -27 -44 -32 -25 -104 -54 -121 -48 -7 2 -12 -1 -12 -7 0
-14 57 -15 65 -1 3 6 15 10 25 10 11 0 37 17 60 38 39 38 40 41 40 105 0 37
-2 67 -5 67 -3 0 -5 -3 -6 -7z"/>
<path d="M1280 1401 c0 -23 5 -41 10 -41 6 0 10 15 10 34 0 19 -4 38 -10 41
-6 4 -10 -10 -10 -34z"/>
<path d="M1205 1410 c-3 -5 -1 -10 4 -10 6 0 11 5 11 10 0 6 -2 10 -4 10 -3 0
-8 -4 -11 -10z"/>
<path d="M2370 1395 c0 -8 5 -15 10 -15 6 0 10 7 10 15 0 8 -4 15 -10 15 -5 0
-10 -7 -10 -15z"/>
<path d="M487 1343 c-10 -9 21 -61 42 -73 11 -5 31 -10 45 -10 14 0 26 -4 26
-8 0 -5 7 -9 15 -9 30 0 14 15 -29 26 -47 11 -76 33 -76 56 0 16 -14 27 -23
18z"/>
<path d="M0 1330 c0 -5 5 -10 10 -10 6 0 10 5 10 10 0 6 -4 10 -10 10 -5 0
-10 -4 -10 -10z"/>
<path d="M1645 1201 c2 -54 6 -107 9 -118 10 -32 -8 -46 -50 -39 l-39 7 5 65
c3 36 2 68 -2 70 -4 3 -8 -12 -8 -33 0 -54 -10 -88 -21 -71 -6 8 -9 1 -8 -22
0 -28 2 -31 9 -15 7 18 8 19 15 3 4 -10 5 -25 1 -33 -6 -18 2 -45 15 -45 5 0
22 11 37 24 15 13 38 33 52 44 20 17 23 23 13 33 -9 9 -13 47 -13 115 0 57 -4
105 -9 109 -6 3 -8 -35 -6 -94z m-62 -191 c-3 -11 -7 -20 -9 -20 -2 0 -4 9 -4
20 0 11 4 20 9 20 5 0 7 -9 4 -20z"/>
<path d="M920 1270 c0 -11 4 -20 9 -20 5 0 7 9 4 20 -3 11 -7 20 -9 20 -2 0
-4 -9 -4 -20z"/>
<path d="M2012 1278 c3 -7 13 -15 23 -17 17 -3 17 -2 3 13 -20 19 -31 21 -26
4z"/>
<path d="M1611 1241 c-7 -23 -10 -45 -8 -48 7 -7 29 65 24 80 -2 6 -10 -8 -16
-32z"/>
<path d="M970 1181 c0 -44 -3 -88 -6 -98 -5 -16 -4 -16 7 1 7 11 12 36 11 55
l-1 36 16 -45 c8 -25 17 -47 19 -49 2 -3 3 36 2 86 -2 50 -6 89 -10 86 -5 -2
-8 -19 -9 -36 0 -29 -1 -30 -9 -9 -5 12 -7 29 -4 37 4 8 1 15 -5 15 -7 0 -11
-28 -11 -79z"/>
<path d="M645 1240 c3 -5 10 -10 16 -10 5 0 9 5 9 10 0 6 -7 10 -16 10 -8 0
-12 -4 -9 -10z"/>
<path d="M1756 1189 c-14 -11 -24 -24 -21 -29 3 -4 -2 -13 -10 -20 -8 -7 -15
-17 -15 -22 0 -6 9 0 20 13 25 31 26 13 0 -28 -11 -18 -18 -33 -15 -33 6 0 55
77 55 85 0 4 -4 3 -10 0 -16 -10 -12 11 5 25 12 10 18 10 30 0 13 -11 26 -11
70 0 76 18 97 6 142 -88 19 -40 36 -72 38 -70 7 6 -19 88 -28 88 -4 0 -5 5 -2
10 3 6 -1 17 -9 26 -9 8 -19 20 -23 27 -14 22 -52 37 -93 37 -22 0 -40 -4 -40
-10 0 -11 -35 -8 -46 3 -11 11 -19 9 -48 -14z"/>
<path d="M2068 1193 c-3 -13 -2 -23 3 -23 5 0 9 -7 9 -17 0 -9 3 -14 6 -11 3
3 1 21 -4 39 -7 31 -9 32 -14 12z"/>
<path d="M750 1179 c0 -5 5 -7 10 -4 6 3 10 8 10 11 0 2 -4 4 -10 4 -5 0 -10
-5 -10 -11z"/>
<path d="M1320 1170 c-8 -20 -8 -58 0 -70 14 -23 19 -9 10 35 -4 22 -9 38 -10
35z"/>
<path d="M1590 1144 c0 -16 5 -36 10 -44 7 -11 9 -4 7 22 -4 46 -17 63 -17 22z"/>
<path d="M1800 1126 c0 -10 9 -16 25 -16 14 0 25 -3 25 -6 0 -13 -96 -101
-122 -112 -25 -10 -28 -10 -28 9 0 15 5 19 22 17 16 -2 23 4 29 25 4 15 17 35
28 45 15 12 18 21 11 32 -5 8 -10 12 -12 10 -2 -3 -16 -22 -31 -42 -15 -20
-27 -41 -27 -46 0 -6 -8 -8 -19 -5 -10 3 -22 0 -25 -6 -4 -6 -2 -11 3 -11 20
0 12 -16 -28 -58 -21 -22 -44 -58 -51 -79 -7 -21 -23 -55 -36 -76 -14 -21 -22
-42 -19 -47 3 -6 2 -10 -4 -10 -6 0 -15 -10 -22 -21 -8 -15 -8 -19 0 -15 7 4
11 -1 11 -13 0 -12 -5 -21 -11 -21 -5 0 -7 5 -4 10 3 6 2 10 -3 10 -5 0 -9
-12 -9 -27 0 -19 -11 -36 -34 -55 -34 -28 -60 -38 -41 -15 6 6 11 17 12 22 4
36 15 62 30 75 16 13 44 58 96 155 l16 30 -26 -30 c-14 -16 -29 -40 -32 -52
-3 -13 -9 -23 -13 -23 -12 0 -7 44 5 52 16 10 36 88 30 118 -2 14 -5 35 -5 48
-1 12 -5 22 -10 22 -4 0 -6 -22 -3 -48 3 -33 0 -53 -9 -63 -8 -8 -15 -25 -17
-39 -1 -13 -6 -27 -11 -30 -5 -3 -15 -25 -22 -50 -16 -57 -14 -52 -23 -72 -4
-9 -9 -22 -10 -30 -2 -7 -5 -20 -8 -28 -3 -8 -16 -43 -28 -77 -12 -35 -26 -63
-30 -63 -9 0 -51 -199 -47 -224 3 -18 -7 -98 -18 -144 -4 -16 2 -30 19 -47 14
-14 22 -25 18 -25 -4 0 -7 -14 -8 -30 -1 -36 3 -34 15 8 6 21 5 36 -3 49 -15
21 -19 123 -5 123 5 0 9 -11 9 -25 0 -14 4 -25 10 -25 5 0 7 13 4 30 -4 17 -1
36 5 44 8 10 6 19 -9 39 -21 26 -18 57 6 57 11 0 12 4 2 19 -9 15 -8 22 5 35
8 9 23 16 31 16 9 0 16 5 16 11 0 5 3 8 8 6 4 -3 7 6 7 19 0 21 -4 24 -22 19
-38 -9 -28 20 30 84 113 129 137 161 143 190 6 28 10 31 39 29 24 -1 46 9 94
45 33 26 63 47 66 47 8 0 94 61 101 71 10 18 -6 23 -19 7 -18 -23 -67 -52 -67
-40 0 5 7 12 15 16 8 3 15 10 15 16 0 20 72 80 95 80 12 0 26 7 29 16 3 8 10
12 16 9 5 -3 10 -2 10 3 0 6 -7 12 -15 16 -8 3 -15 1 -15 -4 0 -6 -11 -10 -25
-10 -49 0 -189 -92 -216 -141 -11 -21 -11 -21 15 -3 14 11 26 22 26 27 0 4 4
7 10 7 17 0 -1 -28 -22 -33 -13 -4 -17 -10 -12 -18 4 -8 3 -10 -4 -5 -7 4 -14
-3 -18 -19 -3 -14 -13 -25 -22 -25 -13 0 -13 2 1 18 32 36 17 33 -20 -4 -21
-20 -37 -39 -36 -43 1 -4 -7 -8 -18 -8 -25 -2 -15 15 29 52 18 15 45 46 61 69
16 23 52 57 80 76 28 19 51 38 51 42 0 4 20 23 45 42 25 19 41 37 36 41 -6 3
-33 9 -61 12 -42 5 -50 3 -50 -11z m-110 -174 c0 -9 -56 -72 -64 -72 -3 0 -1
10 3 23 5 12 14 21 19 20 6 -2 14 6 17 17 6 19 25 28 25 12z m105 -2 c3 -5 1
-10 -4 -10 -6 0 -11 5 -11 10 0 6 2 10 4 10 3 0 8 -4 11 -10z m-125 -120 c0
-5 -5 -10 -11 -10 -5 0 -7 5 -4 10 3 6 8 10 11 10 2 0 4 -4 4 -10z m-278 -377
c-6 -2 -10 -9 -6 -14 3 -5 0 -9 -5 -9 -6 0 -11 7 -11 15 0 8 8 15 18 14 10 0
12 -3 4 -6z"/>
<path d="M1173 1107 c-35 -24 -44 -40 -15 -30 18 6 68 53 55 52 -4 0 -23 -10
-40 -22z"/>
<path d="M2091 1114 c0 -11 3 -14 6 -6 3 7 2 16 -1 19 -3 4 -6 -2 -5 -13z"/>
<path d="M2878 1101 c2 -16 -1 -32 -7 -35 -6 -4 -11 -12 -11 -17 0 -16 23 -5
26 12 1 7 5 26 9 42 5 20 4 27 -7 27 -10 0 -13 -8 -10 -29z"/>
<path d="M1934 1100 c-29 -12 -40 -30 -14 -23 11 3 23 10 26 15 3 5 12 1 19
-9 13 -17 14 -17 11 1 -3 24 -14 28 -42 16z"/>
<path d="M2101 1064 c0 -11 3 -14 6 -6 3 7 2 16 -1 19 -3 4 -6 -2 -5 -13z"/>
<path d="M1471 1038 c-10 -30 -9 -31 4 -14 8 11 15 26 15 33 0 22 -8 14 -19
-19z"/>
<path d="M956 1028 c-3 -18 -6 -61 -7 -95 -1 -34 -6 -67 -9 -74 -9 -13 -34
-14 -109 -1 -30 5 -66 6 -80 2 l-26 -8 24 -1 c47 -2 182 -43 178 -55 -5 -14
-20 -12 -87 13 -73 28 -92 27 -123 -8 -21 -24 -23 -30 -11 -35 9 -3 12 -1 9 4
-10 15 6 12 26 -6 10 -9 26 -14 36 -11 14 3 11 7 -14 17 -35 13 -45 40 -15 40
9 -1 28 -7 42 -15 14 -8 44 -14 66 -15 41 0 75 -23 59 -38 -4 -4 -10 -1 -12 6
-6 14 -69 16 -78 2 -4 -6 10 -10 33 -10 28 0 42 -5 46 -16 8 -22 0 -30 -16
-17 -19 15 -66 25 -131 28 -48 3 -61 0 -77 -18 -28 -30 -25 -42 5 -19 22 17
31 18 67 10 24 -6 47 -15 52 -19 6 -5 29 -9 51 -9 34 0 44 -5 53 -22 10 -21
11 -19 13 20 1 23 2 45 3 50 1 4 6 32 10 62 5 30 12 62 16 70 4 8 11 57 14
108 7 92 3 121 -8 60z"/>
<path d="M2121 1039 c0 -15 6 -40 14 -55 8 -16 15 -41 15 -56 0 -15 5 -30 11
-33 6 -4 8 -13 6 -19 -5 -13 9 -44 16 -36 3 3 8 16 11 30 4 15 4 20 -1 13 -6
-8 -13 3 -22 35 -7 26 -19 61 -26 77 -7 17 -15 39 -18 50 -4 16 -5 14 -6 -6z"/>
<path d="M2475 1050 c3 -5 8 -10 11 -10 2 0 4 5 4 10 0 6 -5 10 -11 10 -5 0
-7 -4 -4 -10z"/>
<path d="M1999 978 c3 -35 5 -39 12 -21 4 11 5 30 2 42 -9 36 -19 23 -14 -21z"/>
<path d="M1460 984 c0 -8 5 -12 10 -9 6 3 10 10 10 16 0 5 -4 9 -10 9 -5 0
-10 -7 -10 -16z"/>
<path d="M1600 965 c-36 -37 -35 -48 1 -17 19 16 44 52 36 52 -2 0 -18 -16
-37 -35z"/>
<path d="M2667 981 c-4 -17 -3 -21 5 -13 5 5 8 16 6 23 -3 8 -7 3 -11 -10z"/>
<path d="M1442 950 c0 -19 2 -27 5 -17 2 9 2 25 0 35 -3 9 -5 1 -5 -18z"/>
<path d="M115 950 c3 -5 11 -10 16 -10 6 0 7 5 4 10 -3 6 -11 10 -16 10 -6 0
-7 -4 -4 -10z"/>
<path d="M150 950 c0 -5 6 -10 14 -10 8 0 23 -10 33 -23 18 -23 35 -28 49 -14
4 4 2 7 -5 7 -7 0 -27 11 -45 25 -36 27 -46 30 -46 15z"/>
<path d="M2031 930 c-1 -19 -10 -51 -21 -70 -18 -33 -19 -34 -20 -10 -1 15
-11 -4 -27 -50 -14 -41 -31 -78 -36 -81 -13 -9 2 -31 15 -23 6 4 8 1 6 -7 -3
-8 -11 -13 -17 -12 -6 2 -11 -1 -11 -6 0 -5 -7 -16 -15 -25 -8 -8 -16 -23 -18
-33 -4 -27 -67 -134 -83 -140 -8 -3 -14 -9 -14 -14 0 -12 -72 -109 -80 -109
-4 0 -7 -13 -7 -30 0 -16 4 -27 9 -24 4 3 8 12 8 20 0 16 57 99 112 162 55 64
122 185 164 292 38 100 49 146 41 176 -3 11 -5 4 -6 -16z m-64 -192 c-3 -8 -6
-5 -6 6 -1 11 2 17 5 13 3 -3 4 -12 1 -19z"/>
<path d="M18 943 c12 -2 30 -2 40 0 9 3 -1 5 -23 4 -22 0 -30 -2 -17 -4z"/>
<path d="M1228 933 c7 -3 16 -2 19 1 4 3 -2 6 -13 5 -11 0 -14 -3 -6 -6z"/>
<path d="M1904 922 c-52 -47 -137 -112 -146 -112 -6 0 -30 -13 -55 -30 -24
-16 -47 -30 -51 -30 -11 0 -136 -131 -155 -162 l-17 -28 75 35 c93 42 305 182
305 200 0 8 -5 17 -10 20 -6 4 -9 1 -8 -6 2 -7 -13 -23 -32 -35 -19 -13 -41
-28 -48 -34 -7 -6 -30 -19 -52 -29 -22 -10 -37 -21 -33 -25 4 -4 -1 -4 -11 0
-12 5 -17 4 -13 -3 4 -6 -2 -8 -16 -6 -13 3 -31 -4 -44 -17 -13 -11 -23 -16
-23 -11 0 14 81 81 97 81 8 0 11 -4 8 -10 -3 -5 -1 -10 5 -10 7 0 9 8 5 20 -6
18 -3 20 22 15 22 -4 24 -3 8 4 -17 8 -13 11 27 22 26 7 45 16 43 20 -3 3 17
17 44 30 31 14 47 28 44 36 -3 7 2 13 11 13 9 0 16 6 16 14 0 8 9 21 21 29 11
8 16 17 11 21 -5 3 -18 -2 -28 -12z m-274 -262 c0 -5 -5 -10 -11 -10 -5 0 -7
5 -4 10 3 6 8 10 11 10 2 0 4 -4 4 -10z m-70 -30 c0 -5 -2 -10 -4 -10 -2 0
-12 -3 -22 -7 -16 -6 -17 -5 -4 10 17 19 30 22 30 7z"/>
<path d="M1441 894 c0 -11 3 -14 6 -6 3 7 2 16 -1 19 -3 4 -6 -2 -5 -13z"/>
<path d="M278 893 c12 -2 30 -2 40 0 9 3 -1 5 -23 4 -22 0 -30 -2 -17 -4z"/>
<path d="M358 893 c17 -3 22 -11 22 -33 0 -16 4 -40 10 -55 12 -32 60 -82 60
-62 0 7 -11 24 -25 37 -17 16 -27 39 -31 72 -6 44 -9 48 -33 47 -23 -2 -24 -2
-3 -6z"/>
<path d="M674 852 c-23 -29 -54 -86 -54 -99 0 -4 16 16 36 45 19 29 42 56 50
59 7 3 11 9 8 14 -8 14 -17 10 -40 -19z"/>
<path d="M1084 840 c0 -12 15 -14 89 -12 49 2 86 6 83 9 -2 3 -42 8 -88 12
-71 5 -84 4 -84 -9z"/>
<path d="M1330 849 c-10 -7 -11 -12 -4 -15 7 -3 10 -13 7 -24 -4 -15 -10 -17
-36 -9 -18 5 -74 9 -124 9 -90 0 -93 -1 -93 -23 0 -14 6 -23 18 -24 108 -10
126 -9 158 9 l34 18 0 -23 c0 -13 5 -28 12 -35 9 -9 6 -12 -15 -12 -28 0 -37
-15 -14 -23 9 -3 9 -7 0 -19 -7 -8 -10 -18 -7 -21 7 -7 -20 -37 -34 -37 -19 0
-102 41 -102 50 0 6 -12 10 -26 10 -25 0 -26 2 -21 35 3 19 2 35 -4 35 -5 0
-9 -6 -9 -13 0 -8 -7 -58 -15 -113 -8 -54 -18 -137 -21 -184 -3 -47 -11 -119
-18 -160 -14 -96 -10 -283 7 -277 7 3 10 11 8 18 -2 8 -5 47 -6 86 -3 83 -2
83 79 61 l44 -12 -15 -44 c-9 -26 -24 -47 -37 -52 -20 -8 -19 -9 6 -9 21 -1
28 -7 31 -28 2 -16 5 -5 6 24 1 51 17 103 31 103 5 0 8 -6 7 -12 -2 -70 5
-138 14 -133 6 4 10 23 9 44 -3 63 -1 71 20 71 20 0 26 11 13 23 -3 4 -13 2
-20 -5 -19 -16 -35 8 -28 40 4 15 2 21 -5 17 -5 -3 -10 -13 -10 -21 0 -9 -6
-14 -12 -11 -9 2 -12 20 -10 50 2 38 0 45 -13 41 -8 -4 -18 -17 -21 -29 -4
-16 -15 -24 -37 -28 -18 -2 -38 -2 -44 0 -17 7 -17 26 0 20 36 -12 169 133
188 208 6 22 17 59 26 83 9 23 13 45 10 49 -8 7 -37 -58 -46 -102 -8 -35 -27
-40 -109 -30 l-54 7 6 56 c9 78 11 85 19 98 12 20 79 23 140 7 32 -9 59 -14
60 -12 3 5 73 224 82 257 7 24 -1 28 -25 11z m-13 -78 c0 -11 -5 -17 -9 -15
-11 7 -10 34 1 34 6 0 9 -9 8 -19z m-202 -121 c4 -6 9 -9 13 -6 4 2 16 0 27
-5 18 -7 17 -8 -5 -7 -14 0 -33 -3 -42 -7 -14 -5 -18 -2 -18 14 0 22 14 28 25
11z m65 -265 c0 -8 -4 -15 -9 -15 -5 0 -11 -9 -14 -20 -4 -15 -14 -20 -36 -20
-17 0 -31 -4 -31 -10 0 -5 9 -10 21 -10 21 0 21 0 -2 -25 -13 -14 -36 -33 -51
-41 -25 -13 -28 -13 -28 1 0 8 6 15 13 16 9 0 9 2 -1 6 -6 2 -9 10 -6 15 4 6
7 27 6 46 -2 60 11 72 78 72 47 0 60 -3 60 -15z"/>
<path d="M1120 367 c14 -8 27 -12 30 -10 7 6 -23 23 -40 23 -8 0 -4 -6 10 -13z"/>
<path d="M1415 850 c-3 -5 -1 -10 4 -10 6 0 11 5 11 10 0 6 -2 10 -4 10 -3 0
-8 -4 -11 -10z"/>
<path d="M2207 853 c-4 -3 -7 -16 -7 -27 0 -18 -2 -19 -11 -6 -7 11 -8 6 -3
-20 8 -42 12 -50 26 -50 5 0 7 7 4 15 -3 8 -9 22 -12 30 -4 9 1 18 14 22 17 7
19 11 8 25 -7 10 -16 15 -19 11z"/>
<path d="M1907 773 c-4 -3 -7 -15 -7 -25 0 -11 -4 -16 -10 -13 -6 4 -10 -6
-10 -22 l0 -28 18 30 c10 17 19 38 19 48 0 19 -1 20 -10 10z"/>
<path d="M665 749 c-4 -6 -5 -12 -2 -15 2 -3 7 2 10 11 7 17 1 20 -8 4z"/>
<path d="M2224 743 c-11 -19 -8 -53 5 -53 4 0 7 16 7 35 0 19 0 35 -1 35 0 0
-5 -8 -11 -17z"/>
<path d="M1802 704 c-50 -43 -80 -63 -179 -115 -24 -12 -43 -27 -43 -33 0 -5
-10 -20 -22 -33 -15 -16 -19 -27 -12 -31 6 -4 14 -14 17 -22 3 -9 6 -3 6 14 1
32 27 56 111 100 30 16 65 39 76 52 12 12 25 20 30 16 4 -4 4 -1 0 6 -9 15 6
16 22 0 9 -9 12 -6 12 14 0 15 4 30 10 33 10 6 34 45 28 45 -2 0 -27 -21 -56
-46z"/>
<path d="M1117 733 c-3 -5 6 -9 20 -10 19 -1 22 1 12 8 -17 11 -26 11 -32 2z"/>
<path d="M2272 720 c0 -14 2 -19 5 -12 2 6 2 18 0 25 -3 6 -5 1 -5 -13z"/>
<path d="M2160 705 c0 -8 5 -15 10 -15 6 0 10 7 10 15 0 8 -4 15 -10 15 -5 0
-10 -7 -10 -15z"/>
<path d="M1200 699 c0 -5 11 -9 25 -9 14 0 25 2 25 4 0 2 -11 6 -25 8 -14 3
-25 1 -25 -3z"/>
<path d="M1140 690 c0 -5 4 -10 9 -10 6 0 13 5 16 10 3 6 -1 10 -9 10 -9 0
-16 -4 -16 -10z"/>
<path d="M232 670 c0 -14 2 -19 5 -12 2 6 2 18 0 25 -3 6 -5 1 -5 -13z"/>
<path d="M696 665 c-3 -9 -6 -18 -6 -20 0 -5 71 13 78 20 4 4 -6 3 -22 -1 -18
-4 -31 -2 -36 5 -5 9 -9 8 -14 -4z"/>
<path d="M2230 673 c0 -5 6 -23 14 -39 7 -16 22 -48 32 -71 9 -23 22 -39 27
-36 5 3 6 -7 2 -25 -4 -20 -1 -41 9 -61 9 -16 16 -40 16 -53 0 -13 16 -67 35
-121 19 -54 35 -107 35 -118 0 -11 7 -28 17 -37 18 -18 18 -23 -2 65 -3 12
-10 34 -15 48 -5 14 -7 25 -5 25 3 0 -1 10 -9 22 -18 29 -42 99 -52 158 -9 46
-10 58 -13 99 0 15 -6 21 -14 18 -10 -4 -18 11 -27 46 -11 45 -50 107 -50 80z"/>
<path d="M615 575 c4 -89 36 -210 69 -260 14 -21 130 -75 159 -75 14 0 52 85
66 150 12 52 15 240 4 240 -5 1 -28 5 -53 10 -34 6 -53 4 -80 -8 -34 -15 -34
-16 -10 -20 13 -2 26 1 28 7 4 12 79 4 98 -10 7 -6 9 -24 5 -47 -4 -20 -6 -56
-6 -78 1 -39 -1 -42 -34 -51 -34 -10 -34 -11 -8 -12 24 -1 27 -5 27 -33 0 -42
-35 -118 -53 -118 -8 0 -28 7 -46 16 -17 9 -38 17 -45 18 -18 2 -46 26 -46 38
0 5 6 6 13 2 6 -4 4 2 -5 13 -10 11 -18 25 -18 31 0 7 -4 12 -9 12 -11 0 -32
137 -26 178 2 17 0 32 -5 32 -6 0 -11 -8 -12 -17 0 -10 -5 2 -9 27 -5 32 -6
19 -4 -45z"/>
<path d="M667 653 c-11 -11 -8 -31 6 -36 10 -4 13 2 9 19 -5 26 -6 27 -15 17z"/>
<path d="M1846 641 c-10 -11 -16 -26 -14 -33 3 -8 9 -4 18 12 7 14 18 28 24
32 8 6 8 8 0 8 -6 0 -19 -9 -28 -19z"/>
<path d="M700 595 c-9 -11 -6 -20 19 -44 22 -21 36 -28 49 -23 15 6 15 7 -3
10 -21 3 -64 52 -45 52 5 0 10 -4 10 -10 0 -5 8 -10 18 -10 10 0 28 -7 40 -16
12 -8 22 -10 22 -5 0 11 -73 61 -89 61 -5 0 -14 -7 -21 -15z"/>
<path d="M1510 545 c-19 -23 -8 -26 20 -5 19 15 21 20 9 20 -9 0 -22 -7 -29
-15z"/>
<path d="M680 532 c0 -12 3 -21 8 -20 4 1 17 -3 30 -10 12 -7 27 -10 32 -7 5
3 11 1 14 -4 3 -4 18 -8 33 -8 15 0 29 -5 31 -11 4 -12 42 -3 42 10 0 6 -7 8
-15 5 -8 -4 -17 -2 -20 3 -3 4 1 11 7 13 7 3 -16 6 -51 6 -52 1 -69 5 -88 23
l-23 21 0 -21z"/>
<path d="M828 543 c6 -2 18 -2 25 0 6 3 1 5 -13 5 -14 0 -19 -2 -12 -5z"/>
<path d="M1692 519 c-19 -30 -8 -34 12 -4 9 14 13 25 9 25 -5 0 -14 -9 -21
-21z"/>
<path d="M1160 515 c0 -8 9 -15 20 -15 24 0 27 15 4 24 -22 9 -24 8 -24 -9z"/>
<path d="M2411 514 c0 -11 3 -14 6 -6 3 7 2 16 -1 19 -3 4 -6 -2 -5 -13z"/>
<path d="M1135 510 c-3 -5 -1 -10 4 -10 6 0 11 5 11 10 0 6 -2 10 -4 10 -3 0
-8 -4 -11 -10z"/>
<path d="M1459 432 c-19 -42 -35 -79 -37 -83 -4 -9 48 -18 65 -12 23 9 14 24
-12 17 -23 -6 -23 -5 -12 19 6 14 15 23 19 21 5 -3 8 2 8 11 0 9 -4 13 -10 10
-5 -3 -10 1 -10 9 0 8 5 18 10 21 6 3 10 15 10 26 0 11 4 18 9 14 5 -3 7 -22
4 -42 -5 -32 -4 -35 8 -23 19 18 18 52 -2 72 -15 15 -19 10 -50 -60z"/>
<path d="M1628 478 c-14 -13 -23 -31 -20 -43 2 -16 1 -17 -7 -5 -11 16 -55 24
-45 9 3 -5 12 -9 20 -9 8 0 14 -4 14 -10 0 -20 21 -9 30 15 5 14 14 25 20 25
6 0 8 5 5 10 -3 6 1 10 9 10 9 0 16 5 16 10 0 17 -18 11 -42 -12z"/>
<path d="M1711 466 c-7 -8 -8 -17 -3 -20 6 -3 13 1 16 10 9 23 2 28 -13 10z"/>
<path d="M981 444 c0 -11 3 -14 6 -6 3 7 2 16 -1 19 -3 4 -6 -2 -5 -13z"/>
<path d="M1300 429 c0 -11 5 -17 10 -14 6 3 10 13 10 21 0 8 -4 14 -10 14 -5
0 -10 -9 -10 -21z"/>
<path d="M1930 441 c0 -6 5 -13 10 -16 6 -3 10 1 10 9 0 9 -4 16 -10 16 -5 0
-10 -4 -10 -9z"/>
<path d="M120 422 c0 -12 3 -12 15 -2 8 7 15 13 15 15 0 1 -7 2 -15 2 -8 0
-15 -7 -15 -15z"/>
<path d="M1675 410 c-3 -11 -10 -20 -14 -20 -3 0 -14 -12 -23 -28 -11 -18 -34
-34 -67 -46 -50 -18 -75 -18 -159 0 -32 6 -33 5 -21 -14 18 -29 81 -36 153
-17 33 9 66 20 72 26 7 6 17 8 21 6 5 -3 9 3 10 13 1 11 11 29 22 42 12 12 21
30 21 40 0 24 -7 23 -15 -2z"/>
<path d="M1810 409 c0 -11 5 -17 10 -14 6 3 10 13 10 21 0 8 -4 14 -10 14 -5
0 -10 -9 -10 -21z"/>
<path d="M1569 413 c-1 -5 -1 -12 0 -17 1 -5 -7 -6 -17 -4 -27 7 -57 -16 -39
-30 9 -8 21 -6 45 5 31 15 43 33 21 33 -5 0 -7 5 -4 10 3 6 4 10 1 10 -3 0 -7
-3 -7 -7z m-29 -33 c0 -5 -5 -10 -11 -10 -5 0 -7 5 -4 10 3 6 8 10 11 10 2 0
4 -4 4 -10z"/>
<path d="M935 400 c-4 -6 -3 -16 3 -22 6 -6 12 -6 17 2 4 6 3 16 -3 22 -6 6
-12 6 -17 -2z"/>
<path d="M2372 390 c0 -14 2 -19 5 -12 2 6 2 18 0 25 -3 6 -5 1 -5 -13z"/>
<path d="M1240 333 c0 -12 -7 -26 -16 -31 -9 -5 -15 -14 -13 -19 2 -5 14 2 26
17 15 18 19 31 12 41 -7 11 -9 9 -9 -8z"/>
<path d="M1810 300 c0 -5 5 -10 10 -10 6 0 10 5 10 10 0 6 -4 10 -10 10 -5 0
-10 -4 -10 -10z"/>
<path d="M1740 275 c0 -2 10 -10 23 -16 20 -11 21 -11 8 4 -13 16 -31 23 -31
12z"/>
<path d="M1920 266 c0 -2 7 -6 15 -10 8 -3 15 -1 15 4 0 6 -7 10 -15 10 -8 0
-15 -2 -15 -4z"/>
<path d="M931 234 c0 -11 3 -14 6 -6 3 7 2 16 -1 19 -3 4 -6 -2 -5 -13z"/>
<path d="M1750 244 c0 -5 7 -20 16 -32 8 -12 12 -22 7 -22 -4 0 -3 -4 3 -8 11
-8 54 -137 54 -165 0 -9 5 -17 11 -17 17 0 5 100 -19 152 -20 43 -72 110 -72
92z"/>
<path d="M890 220 c0 -11 2 -20 4 -20 2 0 6 9 9 20 3 11 1 20 -4 20 -5 0 -9
-9 -9 -20z"/>
<path d="M1833 203 c28 -45 43 -90 53 -155 7 -54 18 -57 22 -6 3 35 -27 138
-40 138 -4 0 -8 4 -8 10 0 12 -32 50 -42 50 -5 0 2 -17 15 -37z"/>
<path d="M2010 230 c0 -5 5 -10 10 -10 6 0 10 5 10 10 0 6 -4 10 -10 10 -5 0
-10 -4 -10 -10z"/>
<path d="M1940 220 c0 -5 5 -10 10 -10 6 0 10 5 10 10 0 6 -4 10 -10 10 -5 0
-10 -4 -10 -10z"/>
<path d="M821 206 c-8 -9 -17 -33 -22 -54 -13 -67 -17 -80 -29 -103 -7 -12 -8
-19 -2 -15 13 8 74 164 70 178 -2 6 -10 3 -17 -6z"/>
<path d="M872 170 c0 -14 2 -19 5 -12 2 6 2 18 0 25 -3 6 -5 1 -5 -13z"/>
<path d="M390 168 c0 -9 5 -20 10 -23 13 -8 13 5 0 25 -8 13 -10 13 -10 -2z"/>
<path d="M420 165 c0 -8 5 -15 10 -15 6 0 10 7 10 15 0 8 -4 15 -10 15 -5 0
-10 -7 -10 -15z"/>
<path d="M1358 164 c-3 -5 1 -27 7 -49 11 -35 13 -37 19 -18 7 22 -17 84 -26
67z"/>
<path d="M655 150 c-3 -5 -1 -10 4 -10 6 0 11 5 11 10 0 6 -2 10 -4 10 -3 0
-8 -4 -11 -10z"/>
<path d="M1250 149 c0 -6 6 -17 14 -24 11 -12 15 -12 19 -2 3 8 -4 19 -14 25
-13 8 -19 9 -19 1z"/>
<path d="M2180 139 c0 -5 5 -7 10 -4 6 3 10 8 10 11 0 2 -4 4 -10 4 -5 0 -10
-5 -10 -11z"/>
<path d="M427 125 c-10 -7 -14 -15 -10 -18 12 -8 36 9 32 21 -3 7 -10 6 -22
-3z"/>
<path d="M1085 120 c10 -11 23 -20 28 -20 6 0 1 9 -11 20 -12 11 -24 20 -28
20 -4 0 1 -9 11 -20z"/>
<path d="M817 78 c-9 -23 -15 -44 -12 -46 2 -3 9 6 14 19 l10 24 0 -26 c1 -14
-5 -31 -11 -38 -11 -11 -10 -13 2 -9 8 3 17 13 19 24 2 10 7 21 11 24 12 8 22
50 12 50 -6 0 -13 -6 -16 -12 -3 -7 -3 -3 0 10 9 38 -12 24 -29 -20z"/>
<path d="M250 95 c0 -8 5 -15 10 -15 6 0 10 7 10 15 0 8 -4 15 -10 15 -5 0
-10 -7 -10 -15z"/>
<path d="M1222 55 c0 -16 2 -22 5 -12 2 9 2 23 0 30 -3 6 -5 -1 -5 -18z"/>
<path d="M1261 64 c0 -11 3 -14 6 -6 3 7 2 16 -1 19 -3 4 -6 -2 -5 -13z"/>
<path d="M485 60 c3 -5 14 -10 23 -10 15 0 15 2 2 10 -20 13 -33 13 -25 0z"/>
<path d="M1930 62 c0 -4 9 -13 21 -20 19 -12 19 -11 9 8 -10 19 -30 28 -30 12z"/>
<path d="M1262 20 c0 -14 2 -19 5 -12 2 6 2 18 0 25 -3 6 -5 1 -5 -13z"/>
<path d="M1980 21 c0 -12 6 -21 15 -21 8 0 15 4 15 9 0 5 -7 14 -15 21 -13 10
-15 9 -15 -9z"/>
<path d="M876 15 c-3 -8 -1 -15 4 -15 6 0 10 7 10 15 0 8 -2 15 -4 15 -2 0 -6
-7 -10 -15z"/>
<path d="M760 10 c0 -6 7 -10 15 -10 8 0 15 2 15 4 0 2 -7 6 -15 10 -8 3 -15
1 -15 -4z"/>
</g>
</svg>
