<?xml version="1.0" standalone="no"?>
<!DOCTYPE svg PUBLIC "-//W3C//DTD SVG 20010904//EN"
 "http://www.w3.org/TR/2001/REC-SVG-20010904/DTD/svg10.dtd">
<svg version="1.0" xmlns="http://www.w3.org/2000/svg"
 width="300.000000pt" height="300.000000pt" viewBox="0 0 300.000000 300.000000"
 preserveAspectRatio="xMidYMid meet">
<metadata>
Created by potrace 1.10, written by Peter Selinger 2001-2011
</metadata>
<g transform="translate(0.000000,300.000000) scale(0.100000,-0.100000)"
fill="#000000" stroke="none">
<path d="M309 2973 c4 -16 6 -108 4 -205 -2 -116 0 -178 6 -178 17 0 20 36 19
228 -2 166 -3 182 -19 182 -14 0 -16 -5 -10 -27z"/>
<path d="M459 2998 c-4 -15 -6 -38 -3 -38 2 0 8 9 14 20 7 14 7 20 0 20 -5 0
-10 -1 -11 -2z"/>
<path d="M483 2953 c-13 -23 -21 -48 -17 -54 4 -7 3 -9 -3 -6 -6 4 -14 -1 -17
-10 -4 -9 -1 -20 6 -25 12 -7 4 -12 -15 -9 -5 1 -6 -3 -3 -8 4 -5 3 -11 -2
-13 -10 -4 -54 -149 -47 -156 2 -3 8 6 14 19 5 13 17 44 26 69 28 71 37 90 46
84 4 -2 13 6 19 18 11 22 10 22 -4 4 -26 -32 -19 2 10 51 14 24 22 48 18 55
-4 6 -3 8 3 5 6 -4 19 0 29 8 18 14 17 14 -9 12 -22 -1 -35 -11 -54 -44z"/>
<path d="M740 2990 c0 -5 4 -10 9 -10 6 0 13 5 16 10 3 6 -1 10 -9 10 -9 0
-16 -4 -16 -10z"/>
<path d="M900 2943 c18 -37 25 -62 19 -69 -6 -7 -2 -21 12 -38 27 -35 17 -46
-13 -14 -13 13 -20 19 -15 14 17 -23 5 -26 -22 -4 -33 25 -38 38 -17 38 9 0
12 7 9 19 -5 20 -5 20 -26 1 -26 -25 -30 -21 -17 16 l10 29 -19 -22 -19 -23
-6 26 c-4 13 -11 22 -17 19 -13 -8 -1 -46 19 -61 11 -8 12 -13 3 -18 -6 -4 -9
-12 -5 -17 3 -6 12 -3 20 8 13 17 15 17 33 -7 18 -22 18 -27 6 -47 -8 -12 -12
-30 -9 -40 10 -29 86 -93 110 -93 13 0 35 -5 49 -10 20 -8 26 -7 23 2 -3 7
-18 14 -36 16 -17 2 -36 10 -42 18 -7 8 -18 14 -24 14 -18 0 -66 49 -66 69 0
29 9 31 57 10 24 -10 49 -19 53 -19 10 0 -10 75 -46 173 -15 38 -32 67 -39 67
-10 0 -6 -16 15 -57z"/>
<path d="M1258 2993 c7 -3 16 -2 19 1 4 3 -2 6 -13 5 -11 0 -14 -3 -6 -6z"/>
<path d="M1292 2980 c0 -14 2 -19 5 -12 2 6 2 18 0 25 -3 6 -5 1 -5 -13z"/>
<path d="M2628 2989 c14 -15 17 -33 4 -25 -5 3 -4 -20 1 -52 5 -31 10 -92 11
-134 1 -70 8 -97 18 -68 2 6 13 12 26 13 26 2 30 16 5 18 -10 1 -21 1 -24 1
-3 -1 -4 16 -3 37 1 21 -3 58 -8 82 -5 24 -10 64 -11 88 -1 30 -7 46 -17 49
-12 4 -13 2 -2 -9z"/>
<path d="M2715 2946 c4 -28 9 -59 12 -70 4 -14 2 -16 -8 -10 -12 6 -12 5 -1
-9 10 -11 12 -31 7 -71 -7 -55 -7 -56 19 -56 18 0 24 4 20 15 -4 8 -10 15 -15
15 -12 0 -11 117 1 125 16 10 12 25 -6 25 -14 0 -16 7 -11 43 5 35 3 44 -9 44
-13 0 -14 -9 -9 -51z"/>
<path d="M2866 2985 c-17 -13 -18 -15 -3 -15 9 0 17 5 17 11 0 5 5 7 12 3 7
-4 8 -3 4 4 -9 14 -7 15 -30 -3z"/>
<path d="M2923 2984 c0 -9 6 -13 14 -9 8 3 22 5 30 5 22 0 14 6 -18 13 -19 5
-26 3 -26 -9z"/>
<path d="M607 2976 c-3 -8 -3 -17 0 -20 9 -9 34 15 27 25 -8 13 -21 11 -27 -5z"/>
<path d="M663 2972 c-3 -12 -8 -22 -12 -22 -3 0 -12 -9 -19 -20 -11 -19 -11
-19 7 -8 21 13 45 57 36 66 -3 4 -8 -4 -12 -16z"/>
<path d="M1166 2975 c-3 -8 -1 -15 4 -15 6 0 10 7 10 15 0 8 -2 15 -4 15 -2 0
-6 -7 -10 -15z"/>
<path d="M705 2970 c3 -5 8 -10 11 -10 2 0 4 5 4 10 0 6 -5 10 -11 10 -5 0 -7
-4 -4 -10z"/>
<path d="M1080 2943 c0 -23 5 -45 12 -49 7 -5 9 -2 5 8 -3 9 -2 19 2 24 4 5 2
20 -5 34 -13 24 -14 24 -14 -17z"/>
<path d="M546 2953 c-6 -14 -5 -15 5 -6 7 7 10 15 7 18 -3 3 -9 -2 -12 -12z"/>
<path d="M709 2943 c-1 -4 -1 -11 0 -15 0 -5 -7 -8 -17 -8 -20 0 -66 -56 -68
-82 -1 -10 3 -15 8 -11 6 3 8 -2 5 -13 -4 -11 -9 -31 -13 -46 -3 -16 -10 -28
-15 -28 -5 0 -9 -8 -9 -18 0 -10 -9 -28 -21 -40 -14 -15 -18 -30 -14 -45 4
-15 3 -18 -3 -9 -7 11 -10 9 -15 -7 -3 -12 -13 -21 -22 -21 -10 0 -15 -5 -12
-14 3 -7 2 -17 -3 -22 -10 -12 -39 -141 -46 -207 -7 -77 -7 -79 -6 -116 3 -61
13 -25 17 58 4 72 8 90 43 154 22 40 49 104 62 142 33 105 41 125 54 125 21 0
55 44 62 80 9 43 23 54 46 33 10 -9 18 -11 18 -6 0 6 -6 16 -14 22 -24 20 -54
-4 -67 -54 -6 -24 -18 -46 -26 -49 -10 -4 -13 -2 -10 8 3 8 11 33 18 55 7 23
23 53 35 66 27 30 38 61 24 70 -5 3 -11 3 -11 -2z m-31 -58 c-6 -14 -15 -25
-19 -25 -5 0 -6 -7 -3 -15 4 -8 1 -15 -5 -15 -17 0 -13 18 11 50 27 37 31 38
16 5z m-118 -322 c-13 -40 -60 -126 -66 -120 -8 8 20 76 30 70 7 -4 6 -1 -1 7
-6 7 -9 19 -5 28 5 13 7 12 12 -3 6 -17 8 -16 12 7 3 18 1 25 -6 21 -6 -4 -2
3 8 15 26 29 31 21 16 -25z"/>
<path d="M2538 2937 c-9 -8 -13 -18 -9 -25 5 -9 11 -5 19 13 13 29 13 29 -10
12z"/>
<path d="M750 2910 c0 -16 2 -30 4 -30 2 0 6 14 8 30 3 17 1 30 -4 30 -4 0 -8
-13 -8 -30z"/>
<path d="M1369 2925 c-3 -11 5 -40 18 -65 20 -39 29 -45 24 -17 0 4 3 7 8 7
10 0 21 59 14 78 -3 6 -14 12 -25 12 -10 0 -16 -4 -13 -10 3 -5 2 -10 -4 -10
-5 0 -11 6 -13 12 -3 7 -7 4 -9 -7z"/>
<path d="M1793 2920 c-2 -26 14 -35 32 -16 20 19 19 27 -2 19 -11 -4 -14 -3
-9 5 4 7 1 12 -6 12 -8 0 -14 -9 -15 -20z"/>
<path d="M1925 2932 c-2 -3 -2 -8 1 -13 5 -9 34 -1 34 10 0 8 -27 10 -35 3z"/>
<path d="M1978 2933 c6 -2 18 -2 25 0 6 3 1 5 -13 5 -14 0 -19 -2 -12 -5z"/>
<path d="M141 2914 c0 -11 3 -14 6 -6 3 7 2 16 -1 19 -3 4 -6 -2 -5 -13z"/>
<path d="M535 2920 c4 -6 -3 -27 -15 -48 -21 -35 -21 -36 -1 -12 41 50 20 5
-38 -79 -38 -56 -59 -97 -60 -116 0 -17 0 -40 -1 -52 0 -12 -5 -25 -10 -28 -6
-4 -7 1 -3 11 4 12 3 15 -6 10 -7 -5 -10 -14 -7 -21 2 -7 -4 -23 -15 -36 -18
-20 -20 -28 -23 -61 -1 -7 -5 -16 -10 -19 -10 -8 -19 -282 -9 -276 5 3 8 -45
9 -106 0 -133 11 -210 26 -201 7 5 9 1 5 -9 -3 -10 -2 -17 3 -17 11 0 13 23 3
33 -3 4 -8 30 -9 58 -1 27 -8 56 -14 64 -8 10 -8 19 0 34 6 12 7 21 1 21 -5 0
-6 15 -1 38 11 46 10 169 0 197 -5 12 -2 31 6 48 8 15 10 27 5 27 -5 0 -12
-12 -15 -26 -4 -15 -9 -25 -11 -23 -2 2 3 31 11 64 8 33 16 69 17 80 2 12 7
26 11 33 4 7 2 12 -4 12 -11 0 -4 10 31 48 8 9 26 39 38 66 21 45 23 47 36 30
13 -17 16 -17 25 -4 15 24 11 37 -5 16 -13 -17 -15 -18 -15 -3 0 9 -8 17 -17
17 -14 0 -15 2 -4 9 7 5 22 6 32 4 14 -4 18 -1 13 10 -10 28 -31 26 -54 -5
-13 -17 -18 -28 -11 -24 15 9 14 -6 -1 -27 -12 -16 -13 -15 -15 9 -1 32 46
102 68 99 12 -2 14 5 11 29 -4 31 -4 31 12 9 9 -12 13 -29 9 -39 -4 -12 -3
-15 6 -10 6 4 11 15 9 24 -1 10 2 24 7 32 8 13 7 13 -8 1 -27 -22 -20 3 18 58
20 28 31 51 26 51 -5 0 -15 -10 -24 -22 -8 -13 -18 -20 -22 -16 -4 4 -3 14 4
22 9 11 8 15 -4 20 -10 3 -13 2 -10 -4z m-188 -622 c-3 -8 -6 -5 -6 6 -1 11 2
17 5 13 3 -3 4 -12 1 -19z"/>
<path d="M2777 2923 c-10 -9 -9 -73 1 -73 4 0 7 18 7 40 0 22 0 40 -1 40 0 0
-4 -3 -7 -7z"/>
<path d="M2391 2893 c-5 -68 -3 -134 3 -140 3 -3 6 -2 7 3 2 27 8 66 14 84 3
11 2 20 -4 20 -5 0 -12 15 -14 33 l-4 32 -2 -32z"/>
<path d="M1515 2885 c3 -29 15 -47 15 -22 0 8 3 22 6 31 4 10 1 16 -9 16 -10
0 -14 -8 -12 -25z"/>
<path d="M1575 2900 c11 -4 41 -6 66 -4 46 4 47 4 53 -28 3 -18 5 -108 5 -200
-1 -138 -3 -168 -15 -168 -22 0 -17 -31 6 -37 16 -4 20 -14 21 -47 3 -81 -2
-126 -16 -167 -28 -77 -17 -127 41 -186 27 -27 34 -21 34 26 0 21 -4 31 -8 24
-6 -9 -12 -7 -25 7 -22 26 -28 63 -16 102 6 18 12 51 15 73 3 22 6 45 9 51 2
6 -1 45 -6 85 -6 41 -12 101 -14 134 -2 33 -6 77 -9 98 -2 20 -1 37 4 37 5 0
6 12 4 28 -2 15 -6 57 -9 94 -4 57 -2 69 13 77 12 8 -9 10 -78 10 -59 0 -87
-4 -75 -9z m130 -420 c3 -5 1 -10 -4 -10 -6 0 -11 5 -11 10 0 6 2 10 4 10 3 0
8 -4 11 -10z"/>
<path d="M1296 2875 c4 -11 10 -24 14 -30 3 -5 6 -40 6 -77 -1 -74 8 -89 18
-30 12 75 7 107 -20 133 -22 21 -24 21 -18 4z"/>
<path d="M2277 2860 c-3 -11 -1 -20 5 -20 5 0 6 -4 3 -10 -6 -10 -33 -9 -51 3
-7 4 -15 0 -18 -9 -3 -8 -2 -12 3 -9 5 3 13 0 17 -6 4 -7 3 -10 -2 -7 -5 3
-18 2 -29 -3 -17 -6 -15 -8 11 -8 27 -1 32 -5 38 -33 8 -38 15 -33 19 13 2 19
11 46 20 59 9 13 17 30 17 37 0 21 -27 15 -33 -7z"/>
<path d="M1586 2848 c3 -5 10 -6 15 -3 13 9 11 12 -6 12 -8 0 -12 -4 -9 -9z"/>
<path d="M2039 2843 c-1 -10 -1 -21 0 -25 2 -12 -14 -9 -27 4 -9 9 -12 9 -12
0 0 -7 7 -15 15 -18 8 -4 15 -14 15 -24 0 -41 16 -26 19 17 1 26 4 50 7 55 3
4 0 8 -5 8 -6 0 -12 -8 -12 -17z"/>
<path d="M1821 2838 c0 -10 -5 -18 -9 -18 -5 0 -7 -19 -4 -42 3 -24 5 -80 6
-125 1 -59 5 -83 14 -83 13 0 16 28 14 125 -2 59 -19 176 -21 143z"/>
<path d="M585 2785 c-10 -22 -21 -48 -26 -57 -12 -23 -11 -38 0 -38 5 0 12 14
16 30 4 17 11 30 16 30 5 0 8 3 7 8 0 4 2 15 6 24 4 10 6 23 3 30 -2 7 -12 -5
-22 -27z"/>
<path d="M1161 2804 c0 -11 3 -14 6 -6 3 7 2 16 -1 19 -3 4 -6 -2 -5 -13z"/>
<path d="M990 2794 c0 -6 16 -25 35 -44 22 -23 34 -45 35 -62 0 -28 7 -61 36
-173 32 -122 33 -138 18 -215 -8 -41 -14 -79 -13 -85 1 -18 38 119 39 143 0
12 5 22 11 22 8 0 8 4 1 13 -13 16 -41 116 -53 192 -5 33 -12 67 -15 75 -3 8
-7 27 -9 43 -2 15 -10 33 -18 40 -54 49 -67 59 -67 51z"/>
<path d="M2501 2791 c-15 -10 -6 -91 10 -91 16 0 21 28 13 65 -7 25 -13 32
-23 26z"/>
<path d="M2844 2757 c-3 -9 -3 -25 1 -34 6 -16 8 -16 18 5 7 16 7 26 -1 34 -8
8 -13 7 -18 -5z"/>
<path d="M2610 2741 c0 -11 4 -21 9 -21 18 0 21 18 6 30 -13 10 -15 9 -15 -9z"/>
<path d="M152 2703 c1 -30 6 -54 13 -57 8 -3 10 4 7 21 -4 20 -2 24 8 18 9 -5
11 -4 6 4 -4 6 -12 9 -17 6 -5 -3 -6 1 -3 9 3 8 1 23 -5 33 -8 14 -10 7 -9
-34z"/>
<path d="M516 2736 c10 -8 21 -12 24 -10 5 6 -21 24 -34 24 -6 0 -1 -6 10 -14z"/>
<path d="M684 2735 c-10 -8 -14 -15 -7 -15 6 0 15 5 18 10 4 6 11 8 16 5 5 -4
9 -1 9 4 0 15 -13 14 -36 -4z"/>
<path d="M2018 2738 c5 -5 16 -8 23 -6 8 3 3 7 -10 11 -17 4 -21 3 -13 -5z"/>
<path d="M1640 2692 c0 -7 -11 -24 -25 -38 -26 -26 -25 -44 1 -44 8 0 14 -7
14 -15 0 -8 4 -15 9 -15 17 0 23 21 10 36 -9 11 -9 21 -1 38 6 14 7 28 1 37
-7 11 -9 11 -9 1z"/>
<path d="M1569 2644 c-18 -38 -24 -44 -29 -29 -4 13 -11 -1 -20 -43 -12 -59
-10 -174 6 -274 5 -32 3 -38 -12 -38 -16 0 -16 -1 -2 -12 9 -7 19 -30 22 -50
7 -41 31 -52 33 -16 1 11 8 25 15 29 10 7 10 14 -3 36 -19 33 -32 113 -33 203
-1 86 7 128 34 184 13 25 21 48 18 51 -3 4 -16 -15 -29 -41z"/>
<path d="M536 2665 c-3 -8 -1 -15 4 -15 6 0 10 7 10 15 0 8 -2 15 -4 15 -2 0
-6 -7 -10 -15z"/>
<path d="M848 2651 c-5 -18 0 -31 23 -53 16 -16 29 -38 29 -49 0 -23 15 -25
24 -3 5 12 18 15 60 12 41 -3 53 -1 49 9 -3 7 -19 13 -37 13 -17 1 -53 9 -81
19 -42 14 -51 22 -55 47 -6 28 -6 28 -12 5z"/>
<path d="M1305 2660 c3 -5 8 -10 11 -10 2 0 4 5 4 10 0 6 -5 10 -11 10 -5 0
-7 -4 -4 -10z"/>
<path d="M1354 2610 c-7 -36 -11 -66 -10 -67 1 -1 7 2 14 6 9 5 12 27 10 67
l-3 59 -11 -65z"/>
<path d="M2257 2646 c-3 -8 1 -20 9 -26 12 -10 14 -8 14 14 0 28 -14 35 -23
12z"/>
<path d="M466 2619 c-13 -13 -16 -23 -10 -29 7 -7 16 -4 29 10 10 11 14 20 9
20 -5 0 -2 5 6 10 13 9 13 10 0 9 -8 0 -24 -9 -34 -20z"/>
<path d="M527 2633 c-4 -3 -7 -11 -7 -17 0 -6 5 -5 12 2 6 6 9 14 7 17 -3 3
-9 2 -12 -2z"/>
<path d="M1990 2630 c0 -5 -6 -10 -13 -10 -18 0 -57 -55 -57 -80 0 -11 -6 -35
-13 -53 -16 -38 -22 -142 -9 -133 12 7 22 -16 22 -50 0 -13 4 -24 9 -24 11 0
6 94 -6 113 -5 9 -3 9 8 0 13 -10 15 -1 18 70 1 45 3 88 4 94 0 7 10 16 21 19
12 4 24 11 28 17 3 6 15 12 25 13 15 3 22 -9 37 -57 10 -34 16 -70 13 -80 -3
-10 -1 -17 3 -14 29 18 20 -151 -12 -223 -12 -26 -22 -53 -24 -59 -4 -21 24
-15 36 7 6 11 8 20 5 20 -3 0 4 18 15 41 29 56 38 192 16 234 -9 17 -16 47
-16 68 0 20 -4 37 -10 37 -5 0 -7 7 -3 15 3 9 2 15 -3 14 -17 -3 -74 14 -74
22 0 5 -4 9 -10 9 -5 0 -10 -4 -10 -10z"/>
<path d="M150 2625 c0 -2 6 -8 13 -14 10 -8 14 -7 14 2 0 8 -6 14 -14 14 -7 0
-13 -1 -13 -2z"/>
<path d="M2664 2616 c-10 -26 -1 -38 20 -23 16 12 16 14 2 26 -13 11 -17 11
-22 -3z"/>
<path d="M2740 2615 c7 -8 16 -15 21 -15 5 0 6 7 3 15 -4 8 -13 15 -21 15 -13
0 -13 -3 -3 -15z"/>
<path d="M1418 2598 c-2 -7 -1 -33 3 -58 l6 -45 1 58 c2 55 -2 71 -10 45z"/>
<path d="M367 2593 c-4 -3 -7 -13 -7 -22 1 -13 3 -13 11 2 11 19 8 33 -4 20z"/>
<path d="M2260 2585 c0 -8 5 -15 10 -15 6 0 10 7 10 15 0 8 -4 15 -10 15 -5 0
-10 -7 -10 -15z"/>
<path d="M160 2579 c-1 -8 -2 -45 -5 -84 -2 -38 -1 -63 2 -55 2 8 7 22 10 30
7 20 6 110 -1 117 -3 4 -6 0 -6 -8z"/>
<path d="M316 2565 c4 -8 7 -15 9 -15 2 0 5 7 9 15 3 9 0 15 -9 15 -9 0 -12
-6 -9 -15z"/>
<path d="M468 2568 c-9 -7 -23 -26 -33 -43 l-17 -30 20 23 c11 12 25 22 30 22
5 0 12 9 15 20 6 24 6 24 -15 8z"/>
<path d="M410 2541 c-12 -24 -13 -34 -1 -27 9 6 22 46 15 46 -2 0 -8 -9 -14
-19z"/>
<path d="M2758 2483 c13 -66 12 -199 -2 -222 -4 -6 -3 -11 2 -11 18 0 45 128
38 181 -7 49 -34 119 -46 119 -4 0 0 -30 8 -67z"/>
<path d="M647 2526 c-3 -9 -14 -12 -25 -9 -12 3 -22 -1 -25 -11 -5 -13 1 -16
29 -16 19 0 51 -11 74 -25 46 -29 50 -30 50 -11 0 19 -67 59 -86 52 -12 -4
-14 -1 -9 14 7 23 0 28 -8 6z"/>
<path d="M1040 2534 c0 -7 7 -27 15 -45 8 -19 14 -29 15 -23 0 7 -7 27 -15 45
-8 19 -14 29 -15 23z"/>
<path d="M2195 2531 c-3 -5 -2 -12 3 -15 5 -3 9 1 9 9 0 17 -3 19 -12 6z"/>
<path d="M316 2517 c3 -10 9 -15 12 -12 3 3 0 11 -7 18 -10 9 -11 8 -5 -6z"/>
<path d="M2486 2522 c-8 -13 4 -72 15 -72 5 0 9 -21 10 -47 0 -44 1 -46 11
-23 16 37 20 77 8 85 -5 3 -10 14 -10 24 0 22 -26 46 -34 33z"/>
<path d="M457 2510 c-21 -55 -28 -103 -16 -114 9 -8 10 -8 4 2 -4 8 0 33 10
58 9 24 15 50 12 57 -3 9 -6 8 -10 -3z"/>
<path d="M1330 2505 c7 -9 15 -13 17 -11 7 7 -7 26 -19 26 -6 0 -6 -6 2 -15z"/>
<path d="M872 2490 c2 -17 10 -26 26 -28 12 -2 22 1 22 7 0 6 7 11 16 11 14 0
15 -11 10 -87 -11 -153 -44 -331 -77 -419 -26 -68 -117 -212 -150 -236 -24
-18 -29 -18 -62 -5 -38 16 -52 29 -106 92 l-33 40 18 -34 c11 -19 40 -56 65
-82 38 -39 50 -46 73 -42 l28 6 -7 -54 c-4 -30 -9 -58 -12 -63 -3 -4 -5 -29
-5 -54 2 -81 -36 -110 -152 -116 -108 -5 -210 33 -294 109 l-22 21 29 33 c19
21 36 31 45 28 9 -4 18 -2 22 4 3 5 15 7 26 3 14 -4 18 -2 14 5 -4 6 -2 11 4
11 6 0 10 8 8 18 -2 9 9 41 25 71 32 62 51 151 37 184 -7 19 -9 17 -9 -15 -1
-20 -6 -40 -11 -43 -6 -3 -10 -22 -10 -41 0 -19 -4 -34 -10 -34 -5 0 -9 -3 -8
-7 1 -5 -6 -32 -16 -61 -17 -52 -38 -72 -73 -72 -10 0 -31 -14 -48 -31 -16
-17 -38 -34 -49 -38 -16 -6 -8 -15 45 -58 35 -28 89 -63 119 -79 49 -25 65
-29 145 -28 102 0 152 18 187 65 12 16 25 26 30 23 5 -4 3 7 -5 22 -8 16 -13
36 -12 44 2 8 6 31 9 50 17 96 16 94 89 171 9 11 15 19 12 19 -3 0 5 17 18 38
13 20 34 59 47 86 l23 48 14 -33 c7 -18 15 -51 18 -73 2 -23 6 -48 9 -56 7
-20 17 -108 22 -195 2 -38 6 -117 10 -175 3 -58 6 -125 5 -150 0 -25 2 -52 5
-60 12 -29 14 -91 3 -111 -7 -15 -7 -24 2 -35 6 -8 7 -14 2 -14 -12 0 -9 -40
5 -66 6 -12 8 -24 5 -28 -4 -4 -6 -29 -4 -57 1 -27 -3 -56 -9 -64 -7 -9 -8
-15 0 -20 5 -3 10 -11 10 -17 0 -6 -11 -3 -25 6 -30 20 -36 20 -29 1 4 -8 9
-13 13 -11 27 17 40 -74 44 -292 0 -47 3 -52 23 -52 12 0 24 7 28 15 7 18 -5
19 -24 3 -8 -8 -6 -1 4 15 16 27 16 31 0 73 -12 30 -15 59 -11 93 3 28 1 53
-5 59 -6 6 -8 29 -4 59 16 111 17 208 7 388 -26 452 -40 600 -70 740 l-29 140
26 146 c19 103 31 144 40 141 6 -2 12 3 12 12 0 28 20 17 21 -11 1 -20 3 -22
6 -9 3 10 2 47 -2 81 -7 67 -4 65 -83 69 -25 1 -47 8 -53 16 -8 12 -9 9 -7
-10z m128 -71 c0 -23 -17 -59 -28 -59 -4 0 -6 18 -4 40 4 42 32 59 32 19z"/>
<path d="M2372 2475 c-9 -19 -8 -23 3 -19 17 7 27 31 16 38 -4 3 -13 -6 -19
-19z"/>
<path d="M415 2468 c-14 -44 -16 -53 -17 -65 -1 -9 -5 -10 -15 -2 -8 7 -13 8
-13 1 0 -8 22 -22 35 -22 2 0 7 17 11 38 4 20 11 45 16 55 5 10 5 17 0 17 -6
0 -13 -10 -17 -22z"/>
<path d="M1330 2473 c0 -5 -5 -25 -9 -47 -5 -21 -6 -35 -1 -30 9 11 23 84 15
84 -3 0 -5 -3 -5 -7z"/>
<path d="M1580 2461 c0 -5 7 -14 15 -21 13 -10 15 -9 15 9 0 12 -6 21 -15 21
-8 0 -15 -4 -15 -9z"/>
<path d="M2332 2445 c0 -16 2 -22 5 -12 2 9 2 23 0 30 -3 6 -5 -1 -5 -18z"/>
<path d="M2610 2448 c0 -22 26 -24 34 -2 9 22 8 23 -14 21 -12 -1 -20 -8 -20
-19z"/>
<path d="M2865 2462 c-14 -10 -18 -42 -5 -42 5 0 10 -13 10 -30 0 -16 4 -30 8
-30 5 0 8 25 8 55 0 55 -2 61 -21 47z"/>
<path d="M2920 2460 c0 -5 5 -10 11 -10 5 0 7 5 4 10 -3 6 -8 10 -11 10 -2 0
-4 -4 -4 -10z"/>
<path d="M2980 2460 c0 -5 5 -10 10 -10 6 0 10 5 10 10 0 6 -4 10 -10 10 -5 0
-10 -4 -10 -10z"/>
<path d="M376 2433 c-6 -14 -5 -15 5 -6 7 7 10 15 7 18 -3 3 -9 -2 -12 -12z"/>
<path d="M2040 2439 c0 -5 5 -7 10 -4 6 3 10 8 10 11 0 2 -4 4 -10 4 -5 0 -10
-5 -10 -11z"/>
<path d="M2226 2441 c-7 -11 22 -36 31 -27 3 3 1 6 -6 6 -7 0 -10 4 -6 9 3 5
1 12 -4 15 -5 4 -12 2 -15 -3z"/>
<path d="M599 2424 c-24 -13 -9 -30 17 -20 10 4 18 -1 21 -14 3 -11 12 -20 19
-20 17 0 19 37 2 43 -8 3 -6 6 4 6 20 1 40 -31 33 -51 -3 -8 -18 -19 -33 -24
l-27 -10 28 -6 c19 -4 27 -1 27 8 0 8 5 14 10 14 6 0 10 16 10 35 0 51 -53 70
-111 39z"/>
<path d="M866 2424 c-3 -8 -6 -16 -6 -17 0 -1 16 -3 35 -4 27 -1 35 2 35 16 0
23 -55 28 -64 5z"/>
<path d="M1240 2426 c0 -8 5 -18 10 -21 6 -3 10 3 10 14 0 12 -4 21 -10 21 -5
0 -10 -6 -10 -14z"/>
<path d="M1970 2424 c0 -8 5 -12 10 -9 6 4 8 11 5 16 -9 14 -15 11 -15 -7z"/>
<path d="M1180 2423 c0 -5 4 -14 9 -21 6 -10 10 -9 14 7 3 14 0 21 -9 21 -8 0
-14 -3 -14 -7z"/>
<path d="M2680 2421 c0 -20 13 -41 21 -35 15 9 10 44 -6 44 -8 0 -15 -4 -15
-9z"/>
<path d="M2945 2420 c-3 -5 -2 -10 4 -10 5 0 13 5 16 10 3 6 2 10 -4 10 -5 0
-13 -4 -16 -10z"/>
<path d="M2458 2376 c3 -22 10 -36 18 -36 18 0 20 -48 8 -190 -5 -64 5 -148
16 -130 4 7 6 54 4 106 -2 54 0 96 6 99 6 3 10 -3 10 -13 0 -11 7 -33 15 -48
14 -28 14 -27 9 26 -3 30 -8 71 -11 90 -4 19 -7 42 -7 50 -1 8 -8 15 -16 16
-34 2 -39 5 -34 17 2 7 -2 21 -9 31 -12 16 -13 14 -9 -18z m62 -120 c0 -3 -4
-8 -10 -11 -5 -3 -10 -1 -10 4 0 6 5 11 10 11 6 0 10 -2 10 -4z"/>
<path d="M808 2357 c-19 -45 -23 -169 -8 -217 5 -16 8 14 8 81 0 78 4 114 16
137 18 35 19 42 9 42 -5 0 -16 -19 -25 -43z"/>
<path d="M1442 2380 c0 -14 2 -19 5 -12 2 6 2 18 0 25 -3 6 -5 1 -5 -13z"/>
<path d="M2240 2380 c-20 -20 -28 -56 -11 -45 11 6 42 65 35 65 -2 0 -13 -9
-24 -20z"/>
<path d="M418 2365 c-6 -27 5 -41 22 -30 14 9 12 31 -4 44 -11 9 -15 6 -18
-14z"/>
<path d="M732 2370 c0 -14 2 -19 5 -12 2 6 2 18 0 25 -3 6 -5 1 -5 -13z"/>
<path d="M2205 2380 c3 -5 8 -10 11 -10 2 0 4 5 4 10 0 6 -5 10 -11 10 -5 0
-7 -4 -4 -10z"/>
<path d="M843 2359 c-9 -9 -8 -18 7 -39 25 -34 53 -43 68 -20 24 40 -42 92
-75 59z m57 -34 c0 -14 -6 -25 -14 -25 -9 0 -12 8 -8 25 2 14 8 25 13 25 5 0
9 -11 9 -25z"/>
<path d="M385 2350 c3 -5 8 -10 11 -10 2 0 4 5 4 10 0 6 -5 10 -11 10 -5 0 -7
-4 -4 -10z"/>
<path d="M2881 2334 c0 -11 3 -14 6 -6 3 7 2 16 -1 19 -3 4 -6 -2 -5 -13z"/>
<path d="M156 2325 c4 -8 8 -15 10 -15 2 0 4 7 4 15 0 8 -4 15 -10 15 -5 0 -7
-7 -4 -15z"/>
<path d="M370 2330 c0 -5 5 -10 11 -10 5 0 7 5 4 10 -3 6 -8 10 -11 10 -2 0
-4 -4 -4 -10z"/>
<path d="M1457 2333 c-3 -5 -1 -17 4 -28 7 -17 8 -17 8 8 1 27 -4 34 -12 20z"/>
<path d="M2610 2320 c0 -22 27 -38 38 -24 4 5 5 8 3 7 -9 -5 -31 20 -25 28 3
5 0 9 -5 9 -6 0 -11 -9 -11 -20z"/>
<path d="M1359 2328 c-9 -30 -6 -52 8 -66 16 -16 16 -16 9 3 -5 11 -9 30 -9
43 -1 18 -5 29 -8 20z"/>
<path d="M2319 2328 c-6 -21 -5 -37 2 -32 8 4 14 -17 10 -38 0 -5 4 -8 9 -8 6
0 10 14 10 30 0 19 -5 29 -12 28 -7 -2 -12 3 -10 10 2 10 -6 19 -9 10z"/>
<path d="M415 2310 c3 -5 1 -19 -5 -30 -6 -11 -7 -20 -2 -20 12 0 22 -52 13
-65 -12 -16 -12 -55 0 -112 5 -28 10 -78 11 -111 2 -114 17 -88 20 33 2 59
-17 261 -24 266 -6 4 -6 14 1 28 10 17 9 21 -4 21 -9 0 -13 -4 -10 -10z m22
-222 c-3 -8 -6 -5 -6 6 -1 11 2 17 5 13 3 -3 4 -12 1 -19z"/>
<path d="M2396 2312 c-10 -17 4 -56 15 -45 6 6 6 19 1 33 -6 15 -11 19 -16 12z"/>
<path d="M370 2301 c0 -6 5 -13 10 -16 6 -3 10 1 10 9 0 9 -4 16 -10 16 -5 0
-10 -4 -10 -9z"/>
<path d="M1016 2299 c-24 -70 -46 -140 -46 -149 0 -23 19 1 25 33 4 17 14 52
22 75 8 24 12 46 9 49 -3 3 -8 0 -10 -8z"/>
<path d="M2001 2294 c0 -11 3 -14 6 -6 3 7 2 16 -1 19 -3 4 -6 -2 -5 -13z"/>
<path d="M2225 2300 c-3 -5 -1 -10 4 -10 6 0 11 5 11 10 0 6 -2 10 -4 10 -3 0
-8 -4 -11 -10z"/>
<path d="M1230 2271 c0 -6 4 -13 10 -16 6 -3 7 1 4 9 -7 18 -14 21 -14 7z"/>
<path d="M2878 2264 c-2 -10 1 -59 5 -108 5 -50 10 -147 12 -216 2 -69 5 -136
8 -150 2 -14 5 -40 6 -59 0 -19 4 -32 7 -28 9 9 12 120 4 137 -4 8 -4 42 -1
75 4 33 4 77 0 97 -3 21 -3 42 1 49 4 6 1 24 -7 40 -9 17 -12 41 -9 54 4 14 3
25 -2 25 -4 0 -9 21 -9 46 -2 48 -9 68 -15 38z"/>
<path d="M1926 2255 c-3 -8 -2 -15 2 -15 13 0 36 -73 33 -107 -1 -18 1 -33 6
-33 14 0 8 103 -7 130 -8 14 -13 28 -12 33 4 14 -16 7 -22 -8z"/>
<path d="M1465 2250 c-4 -6 -10 -8 -15 -5 -4 3 -13 -2 -20 -10 -10 -12 -16
-13 -27 -4 -11 9 -12 9 -8 -3 3 -8 -3 -30 -14 -49 -18 -31 -20 -51 -20 -234 0
-110 0 -207 -1 -215 -1 -8 1 -26 5 -40 9 -40 14 -80 20 -163 2 -43 7 -83 11
-88 3 -5 0 -17 -8 -26 -9 -12 -9 -15 0 -9 8 5 12 -1 12 -20 0 -15 3 -24 7 -20
4 4 7 26 8 49 0 28 4 41 12 40 9 -2 10 4 2 23 -5 15 -12 50 -15 78 -3 28 -7
62 -10 76 -10 49 -16 168 -17 340 -2 168 -1 176 21 207 13 18 35 38 49 45 15
7 28 19 31 26 4 14 -14 16 -23 2z"/>
<path d="M2239 2233 c-13 -16 -12 -17 4 -4 9 7 17 15 17 17 0 8 -8 3 -21 -13z"/>
<path d="M400 2231 c0 -6 4 -13 10 -16 6 -3 7 1 4 9 -7 18 -14 21 -14 7z"/>
<path d="M2112 2197 c-7 -18 -12 -49 -12 -68 0 -19 -5 -50 -10 -70 -17 -59
-18 -94 -3 -107 10 -10 13 -9 14 5 1 30 9 76 19 108 7 24 12 165 6 165 -1 0
-7 -15 -14 -33z"/>
<path d="M502 2200 c0 -14 2 -19 5 -12 2 6 2 18 0 25 -3 6 -5 1 -5 -13z"/>
<path d="M2156 2212 c15 -10 66 -110 73 -145 3 -15 11 -27 16 -25 6 2 9 5 9 8
-1 3 -5 15 -8 26 -4 14 -1 28 9 37 9 10 11 18 5 22 -5 3 -10 3 -10 -1 0 -4 -9
1 -20 11 -11 10 -20 24 -20 30 0 13 -42 45 -57 45 -4 0 -3 -4 3 -8z"/>
<path d="M2792 2173 c-24 -54 -21 -67 8 -33 16 19 29 80 17 80 -2 0 -13 -21
-25 -47z"/>
<path d="M2941 2204 c0 -11 3 -14 6 -6 3 7 2 16 -1 19 -3 4 -6 -2 -5 -13z"/>
<path d="M1800 2201 c0 -6 7 -11 15 -11 8 0 15 -8 15 -17 0 -14 2 -15 9 -4 5
7 14 11 20 7 6 -4 9 -2 5 7 -2 7 -10 14 -17 14 -7 0 -20 4 -29 8 -11 4 -18 3
-18 -4z"/>
<path d="M1086 2110 c-8 -93 -7 -103 46 -375 16 -82 24 -109 26 -87 2 19 -1
47 -7 63 -5 16 -6 29 -2 29 15 0 21 -29 21 -99 0 -66 50 -288 134 -593 19 -70
38 -165 41 -210 8 -99 -15 -270 -39 -297 -9 -10 -16 -23 -16 -29 0 -18 -39
-49 -70 -55 -15 -4 -42 -2 -59 3 -21 6 -29 5 -25 -1 12 -20 51 -27 95 -18 42
9 45 13 77 78 17 38 32 80 32 93 0 14 3 28 6 31 4 4 8 21 9 38 2 17 9 42 16
56 9 17 10 26 2 31 -9 6 -25 153 -24 225 0 9 -4 17 -10 17 -5 0 -7 15 -5 34 4
24 0 36 -10 40 -8 3 -13 10 -9 16 3 5 -1 20 -10 33 -8 13 -12 27 -9 30 4 4 2
12 -4 19 -5 7 -12 29 -15 48 -3 19 -10 48 -17 65 -15 40 -42 153 -44 188 0 15
-5 27 -10 27 -5 0 -6 3 -3 6 3 4 0 16 -8 28 -10 14 -15 47 -15 101 0 58 -6 92
-20 124 -11 23 -18 47 -15 52 3 4 -4 32 -16 60 -19 44 -23 70 -23 185 -1 74
-4 134 -7 134 -4 0 -10 -41 -13 -90z m54 -285 c0 -5 -5 -3 -10 5 -5 8 -10 20
-10 25 0 6 5 3 10 -5 5 -8 10 -19 10 -25z"/>
<path d="M467 2110 c4 -47 8 -138 9 -203 1 -65 5 -121 8 -124 3 -3 1 -12 -4
-18 -11 -13 7 -205 19 -205 12 0 6 395 -8 480 -21 136 -32 167 -24 70z m20
-382 c-3 -8 -6 -5 -6 6 -1 11 2 17 5 13 3 -3 4 -12 1 -19z"/>
<path d="M2630 2190 c-8 -26 -7 -41 2 -32 6 6 8 16 5 24 -3 7 -6 11 -7 8z"/>
<path d="M720 2160 c0 -11 5 -20 10 -20 6 0 10 9 10 20 0 11 -4 20 -10 20 -5
0 -10 -9 -10 -20z"/>
<path d="M697 2153 c-14 -13 -7 -71 10 -84 11 -10 14 -10 9 -1 -5 8 0 12 14
12 13 0 18 4 14 11 -3 6 -15 8 -26 6 -18 -5 -20 -2 -16 29 4 37 4 37 -5 27z"/>
<path d="M2041 2134 c0 -11 3 -14 6 -6 3 7 2 16 -1 19 -3 4 -6 -2 -5 -13z"/>
<path d="M11 2124 c0 -11 3 -14 6 -6 3 7 2 16 -1 19 -3 4 -6 -2 -5 -13z"/>
<path d="M1867 2133 c-10 -9 -8 -77 2 -88 5 -6 19 -46 31 -90 12 -44 28 -100
35 -125 23 -78 27 -103 31 -189 2 -60 -1 -91 -12 -112 -8 -16 -10 -29 -5 -29
7 0 20 20 26 40 9 36 18 88 16 98 -1 6 4 12 11 12 9 0 9 3 -2 10 -13 8 -13 10
2 10 13 0 15 8 12 38 -2 20 -4 69 -5 107 -2 39 -6 75 -10 80 -4 6 -11 52 -15
103 -4 50 -11 89 -15 86 -10 -6 -2 -185 11 -234 5 -19 11 -62 14 -95 7 -66 0
-53 -29 55 -9 36 -30 108 -45 160 -16 52 -32 111 -35 130 -7 39 -9 43 -18 33z"/>
<path d="M2295 2130 c3 -5 8 -10 11 -10 2 0 4 5 4 10 0 6 -5 10 -11 10 -5 0
-7 -4 -4 -10z"/>
<path d="M168 2112 c-6 -22 0 -213 6 -219 3 -3 6 48 8 112 3 107 -3 151 -14
107z"/>
<path d="M2544 2110 c0 -13 4 -16 10 -10 7 7 7 13 0 20 -6 6 -10 3 -10 -10z"/>
<path d="M767 2078 c-15 -11 -27 -29 -27 -41 1 -20 2 -20 11 -4 6 9 14 15 18
13 8 -6 37 41 30 48 -2 2 -16 -5 -32 -16z"/>
<path d="M2720 2064 c-11 -13 -10 -19 9 -37 l23 -22 -8 25 c-4 14 -7 31 -7 38
0 16 -2 15 -17 -4z"/>
<path d="M2329 2040 c-3 -19 0 -48 5 -64 7 -23 6 -32 -6 -39 -13 -9 -12 -13 6
-34 12 -14 22 -30 22 -36 1 -7 2 -18 3 -25 0 -7 5 -10 11 -7 5 3 7 24 4 48 -3
23 -6 48 -7 55 0 6 -4 12 -9 12 -12 0 -10 48 3 55 7 5 6 12 -4 23 -8 10 -17
24 -19 32 -3 8 -7 -1 -9 -20z"/>
<path d="M371 2034 c0 -11 3 -14 6 -6 3 7 2 16 -1 19 -3 4 -6 -2 -5 -13z"/>
<path d="M2168 2007 c-3 -25 0 -33 9 -30 15 6 17 32 4 52 -6 9 -10 3 -13 -22z"/>
<path d="M1550 2011 c0 -6 4 -13 10 -16 6 -3 7 1 4 9 -7 18 -14 21 -14 7z"/>
<path d="M2250 2014 c0 -18 38 -61 60 -67 17 -4 18 -2 9 14 -5 10 -14 19 -20
19 -6 0 -19 10 -30 23 -10 12 -18 17 -19 11z"/>
<path d="M2563 2005 c4 -8 2 -17 -3 -20 -6 -4 -10 2 -10 11 0 10 -3 14 -7 10
-4 -4 -6 -25 -4 -48 1 -22 -1 -38 -6 -35 -5 3 -10 -17 -12 -46 -3 -74 -26
-103 -80 -99 -23 2 -41 -1 -41 -7 0 -17 47 -24 81 -12 41 14 40 15 31 -11 -11
-31 -7 -167 4 -155 3 3 6 39 6 79 0 40 4 81 9 91 7 12 6 17 -2 17 -7 0 -5 8 5
19 10 11 24 37 32 58 16 47 19 163 3 163 -6 0 -9 -7 -6 -15z"/>
<path d="M609 1968 c-6 -11 -6 -18 0 -18 5 0 11 4 13 10 2 6 18 5 43 -2 22 -5
60 -12 85 -15 25 -3 48 -10 52 -17 5 -7 8 -5 8 6 0 31 -37 45 -138 51 -43 2
-56 -1 -63 -15z"/>
<path d="M396 1965 c-3 -8 -1 -15 4 -15 6 0 10 7 10 15 0 8 -2 15 -4 15 -2 0
-6 -7 -10 -15z"/>
<path d="M2657 1927 c-9 -30 -17 -63 -17 -73 0 -11 -4 -24 -9 -29 -13 -14 -51
-116 -51 -137 0 -10 4 -18 9 -18 4 0 6 12 3 26 -4 20 -2 25 8 19 8 -5 11 -4 7
2 -4 6 5 23 18 37 14 15 25 34 25 42 0 7 4 14 10 14 5 0 7 6 4 14 -10 25 15
96 34 96 10 0 13 3 7 8 -5 4 -10 13 -11 20 -4 50 -17 42 -37 -21z"/>
<path d="M1246 1955 c-3 -8 -1 -15 4 -15 6 0 10 7 10 15 0 8 -2 15 -4 15 -2 0
-6 -7 -10 -15z"/>
<path d="M1658 1953 c7 -3 16 -2 19 1 4 3 -2 6 -13 5 -11 0 -14 -3 -6 -6z"/>
<path d="M660 1928 c0 -18 18 -34 28 -24 3 4 -2 14 -11 23 -16 16 -17 16 -17
1z"/>
<path d="M2991 1924 c0 -11 3 -14 6 -6 3 7 2 16 -1 19 -3 4 -6 -2 -5 -13z"/>
<path d="M2769 1916 c7 -8 13 -32 14 -55 1 -22 5 -35 9 -28 7 11 4 32 -9 80
-2 9 -9 17 -15 17 -7 0 -6 -5 1 -14z"/>
<path d="M1820 1879 c0 -24 5 -51 10 -59 6 -10 7 3 3 40 -7 69 -13 77 -13 19z"/>
<path d="M760 1900 c-8 -5 -12 -12 -9 -15 4 -3 12 1 19 10 14 17 11 19 -10 5z"/>
<path d="M896 1895 c-3 -9 -6 -22 -5 -28 0 -7 5 -1 10 12 5 13 8 26 5 28 -2 2
-6 -3 -10 -12z"/>
<path d="M670 1871 c15 -9 54 -15 80 -11 27 3 -22 19 -60 19 -25 0 -31 -2 -20
-8z"/>
<path d="M2271 1854 c2 -11 0 -25 -4 -31 -6 -9 -2 -13 12 -13 15 0 19 6 17 27
-2 15 -9 29 -15 31 -8 3 -11 -3 -10 -14z"/>
<path d="M95 1850 c-3 -5 -1 -10 4 -10 6 0 11 5 11 10 0 6 -2 10 -4 10 -3 0
-8 -4 -11 -10z"/>
<path d="M877 1821 c-4 -18 -7 -45 -6 -60 1 -17 4 -11 10 19 5 25 8 52 6 60
-2 8 -6 0 -10 -19z"/>
<path d="M93 1780 c1 -27 5 -46 9 -44 11 7 10 81 -1 88 -5 3 -8 -17 -8 -44z"/>
<path d="M442 1810 c0 -14 2 -19 5 -12 2 6 2 18 0 25 -3 6 -5 1 -5 -13z"/>
<path d="M837 1824 c-4 -4 -7 -14 -7 -23 0 -11 3 -12 11 -4 6 6 10 16 7 23 -2
6 -7 8 -11 4z"/>
<path d="M2800 1788 c9 -27 -3 -41 -13 -15 -4 7 -6 6 -6 -5 -1 -9 5 -23 12
-30 17 -17 17 -60 0 -54 -9 4 -10 -1 -3 -18 5 -13 6 -27 3 -30 -4 -3 1 -6 10
-6 13 0 17 10 18 48 0 26 2 57 5 69 2 12 -5 32 -16 45 l-20 23 10 -27z"/>
<path d="M350 1792 c0 -16 -54 -72 -70 -72 -7 0 -10 -7 -7 -14 4 -10 1 -13 -9
-9 -8 3 -14 -1 -14 -10 0 -10 7 -13 20 -10 11 3 20 11 20 18 0 8 11 22 23 32
27 21 52 62 43 71 -3 3 -6 0 -6 -6z"/>
<path d="M1829 1796 c-1 -3 -3 -10 -4 -16 -1 -5 -3 -17 -4 -26 0 -8 -5 -12
-11 -9 -6 4 -7 -1 -3 -11 6 -16 7 -16 18 0 7 9 17 16 24 16 6 0 11 5 11 11 0
5 -5 7 -12 3 -8 -5 -9 -2 -5 9 3 9 2 19 -3 22 -6 4 -11 4 -11 1z"/>
<path d="M2129 1785 c-9 -39 2 -65 27 -65 20 0 22 3 15 23 -5 12 -12 21 -17
19 -5 -2 -12 7 -15 20 -5 21 -6 22 -10 3z"/>
<path d="M2250 1785 c0 -8 9 -13 20 -12 11 1 20 6 20 12 0 6 -9 11 -20 12 -11
1 -20 -4 -20 -12z"/>
<path d="M831 1764 c0 -11 3 -14 6 -6 3 7 2 16 -1 19 -3 4 -6 -2 -5 -13z"/>
<path d="M2957 1763 c-4 -3 -7 -11 -7 -17 0 -6 5 -5 12 2 6 6 9 14 7 17 -3 3
-9 2 -12 -2z"/>
<path d="M452 1740 c0 -14 2 -19 5 -12 2 6 2 18 0 25 -3 6 -5 1 -5 -13z"/>
<path d="M1530 1738 c0 -13 7 -33 15 -44 14 -18 14 -17 13 11 -3 39 -28 68
-28 33z"/>
<path d="M2988 1675 c-1 -36 0 -65 5 -65 4 0 7 29 7 65 0 36 -2 65 -4 65 -2 0
-6 -29 -8 -65z"/>
<path d="M386 1715 c-9 -26 -7 -32 5 -12 6 10 9 21 6 23 -2 3 -7 -2 -11 -11z"/>
<path d="M2253 1717 c-3 -6 -1 -7 6 -3 7 4 15 -2 20 -16 10 -23 10 -23 8 3 -1
25 -22 35 -34 16z"/>
<path d="M867 1713 c-10 -10 -8 -53 2 -53 5 0 9 14 9 30 -1 33 -1 33 -11 23z"/>
<path d="M452 1685 c0 -16 2 -22 5 -12 2 9 2 23 0 30 -3 6 -5 -1 -5 -18z"/>
<path d="M931 1694 c0 -11 3 -14 6 -6 3 7 2 16 -1 19 -3 4 -6 -2 -5 -13z"/>
<path d="M2131 1688 c0 -13 3 -17 6 -10 2 6 10 9 16 5 7 -4 6 1 -2 10 -18 22
-21 21 -20 -5z"/>
<path d="M2431 1701 c-10 -6 -10 -10 -1 -16 13 -8 24 -1 19 14 -3 6 -10 7 -18
2z"/>
<path d="M310 1690 c-13 -8 -12 -10 3 -10 9 0 17 5 17 10 0 12 -1 12 -20 0z"/>
<path d="M792 1670 c0 -14 2 -19 5 -12 2 6 2 18 0 25 -3 6 -5 1 -5 -13z"/>
<path d="M2314 1675 c22 -17 36 -19 36 -6 0 10 -24 21 -43 21 -7 0 -3 -7 7
-15z"/>
<path d="M215 1660 c-10 -11 -25 -18 -32 -15 -8 2 -12 1 -9 -4 8 -13 -32 -54
-47 -48 -7 3 -28 -8 -46 -24 -18 -15 -41 -31 -51 -34 -10 -3 -21 -12 -24 -20
-6 -17 9 -21 19 -5 3 6 14 10 24 10 10 0 28 11 41 25 13 14 33 25 45 25 24 0
109 82 103 100 -2 7 -11 4 -23 -10z"/>
<path d="M2140 1651 c0 -3 8 -13 19 -20 15 -11 17 -20 10 -50 -11 -46 -11 -53
0 -47 11 7 23 80 15 99 -5 15 -44 31 -44 18z"/>
<path d="M2585 1619 c4 -24 8 -77 9 -117 3 -68 15 -114 17 -61 0 13 2 52 4 87
3 45 1 62 -9 62 -7 0 -11 11 -10 30 1 17 -3 33 -8 36 -7 4 -8 -8 -3 -37z"/>
<path d="M2610 1650 c0 -5 5 -10 11 -10 5 0 7 5 4 10 -3 6 -8 10 -11 10 -2 0
-4 -4 -4 -10z"/>
<path d="M23 1615 c0 -22 2 -30 4 -17 2 12 2 30 0 40 -3 9 -5 -1 -4 -23z"/>
<path d="M856 1635 c-9 -26 -7 -32 5 -12 6 10 9 21 6 23 -2 3 -7 -2 -11 -11z"/>
<path d="M2425 1626 c0 -14 7 -27 16 -29 12 -3 14 2 11 24 -5 35 -27 39 -27 5z"/>
<path d="M772 1579 c-6 -34 -10 -65 -8 -67 7 -6 29 104 24 118 -2 7 -9 -16
-16 -51z"/>
<path d="M2107 1626 c-4 -9 -12 -13 -20 -11 -10 4 -12 -5 -7 -41 6 -59 27 -71
22 -14 -2 23 1 47 8 55 7 9 11 18 8 21 -3 3 -8 -2 -11 -10z"/>
<path d="M891 1614 c0 -11 3 -14 6 -6 3 7 2 16 -1 19 -3 4 -6 -2 -5 -13z"/>
<path d="M818 1580 c-3 -25 -5 -75 -5 -112 1 -36 -1 -64 -4 -62 -12 7 -17 -33
-7 -50 6 -10 7 -38 3 -63 -4 -31 -3 -43 4 -38 6 3 11 2 11 -4 0 -5 -3 -11 -7
-13 -5 -1 -6 -28 -3 -58 l6 -55 7 65 c10 79 5 455 -5 390z"/>
<path d="M1626 1606 c3 -8 12 -17 20 -20 11 -4 12 -2 1 14 -14 23 -29 27 -21
6z"/>
<path d="M2910 1534 c0 -77 -2 -89 -22 -106 -21 -18 -23 -18 -29 -1 -6 19 -19
-55 -19 -115 0 -41 20 -112 31 -112 5 0 4 12 -2 27 -11 30 -14 157 -4 173 3 6
16 10 27 10 12 0 18 3 15 7 -4 3 0 14 8 23 20 22 23 180 3 180 -4 0 -8 -39 -8
-86z"/>
<path d="M855 1565 c3 -22 6 -46 7 -52 1 -7 6 -13 11 -13 5 0 6 8 2 18 -4 9
-11 33 -16 52 -8 35 -8 35 -4 -5z"/>
<path d="M2255 1590 c-3 -5 3 -14 14 -19 26 -15 31 -14 25 3 -7 18 -32 28 -39
16z"/>
<path d="M2800 1569 c0 -5 5 -7 10 -4 6 3 10 8 10 11 0 2 -4 4 -10 4 -5 0 -10
-5 -10 -11z"/>
<path d="M930 1531 c0 -17 4 -32 8 -35 4 -2 6 11 4 30 -5 42 -12 45 -12 5z"/>
<path d="M2236 1531 c-9 -16 -16 -41 -16 -55 0 -26 -19 -47 -21 -24 -1 7 -4 0
-8 -17 -4 -16 -13 -29 -20 -27 -9 2 -12 -16 -10 -68 2 -74 19 -110 19 -41 0
36 18 99 39 141 5 9 12 31 16 50 4 19 12 41 18 48 5 7 7 15 4 18 -3 3 -13 -8
-21 -25z"/>
<path d="M2391 1544 c0 -11 3 -14 6 -6 3 7 2 16 -1 19 -3 4 -6 -2 -5 -13z"/>
<path d="M2465 1530 c-4 -17 -5 -34 -2 -36 2 -3 7 10 11 27 3 18 4 34 2 36 -2
3 -7 -10 -11 -27z"/>
<path d="M2515 1550 c3 -5 8 -10 11 -10 2 0 4 5 4 10 0 6 -5 10 -11 10 -5 0
-7 -4 -4 -10z"/>
<path d="M896 1530 c4 -14 8 -47 9 -75 1 -27 3 -56 4 -62 2 -18 21 -16 21 2 0
8 -4 15 -10 15 -5 0 -10 7 -10 16 0 8 4 13 9 10 11 -7 -13 101 -24 112 -4 4
-4 -4 1 -18z"/>
<path d="M2770 1546 c0 -2 9 -6 20 -9 11 -3 18 -1 14 4 -5 9 -34 13 -34 5z"/>
<path d="M1825 1520 c3 -5 8 -10 11 -10 2 0 4 5 4 10 0 6 -5 10 -11 10 -5 0
-7 -4 -4 -10z"/>
<path d="M2401 1504 c0 -11 3 -14 6 -6 3 7 2 16 -1 19 -3 4 -6 -2 -5 -13z"/>
<path d="M2770 1510 c0 -5 7 -10 16 -10 8 0 12 5 9 10 -3 6 -10 10 -16 10 -5
0 -9 -4 -9 -10z"/>
<path d="M2525 1500 c-3 -6 1 -7 9 -4 18 7 21 14 7 14 -6 0 -13 -4 -16 -10z"/>
<path d="M1827 1480 c3 -11 7 -20 9 -20 2 0 4 9 4 20 0 11 -4 20 -9 20 -5 0
-7 -9 -4 -20z"/>
<path d="M1911 1483 c-11 -12 -12 -20 -3 -34 7 -10 12 -27 12 -38 0 -11 5 -21
11 -23 5 -2 13 -24 15 -48 3 -25 12 -62 21 -82 9 -20 13 -46 10 -57 -4 -17 -2
-18 13 -9 14 9 16 17 8 42 -5 17 -16 57 -24 89 -8 32 -21 72 -30 89 -9 17 -13
41 -10 53 7 29 -4 38 -23 18z"/>
<path d="M2671 1484 c0 -11 3 -14 6 -6 3 7 2 16 -1 19 -3 4 -6 -2 -5 -13z"/>
<path d="M0 1471 c0 -10 12 -27 28 -36 l27 -18 -24 26 c-12 14 -20 30 -16 36
3 6 1 11 -4 11 -6 0 -11 -8 -11 -19z"/>
<path d="M45 1480 c3 -5 17 -10 30 -10 13 0 26 -4 29 -9 3 -5 27 -14 53 -21
53 -15 52 -14 73 -23 28 -11 70 -14 70 -6 0 5 -7 9 -15 9 -8 0 -15 5 -15 10 0
5 -3 9 -7 8 -14 -4 -153 34 -159 43 -3 5 -19 9 -35 9 -18 0 -28 -4 -24 -10z"/>
<path d="M694 1463 c-3 -10 -10 -27 -14 -38 -5 -11 -12 -35 -15 -52 -4 -18
-12 -33 -20 -33 -7 0 -53 -12 -101 -26 -99 -28 -218 -38 -278 -23 -21 6 -72
33 -113 60 -41 27 -79 49 -84 49 -18 0 -9 -21 14 -30 24 -11 42 -22 101 -63
82 -57 209 -65 355 -22 51 15 94 25 96 23 2 -1 -3 -28 -11 -57 -9 -36 -10 -57
-4 -61 6 -4 0 -11 -12 -17 -95 -46 -341 -46 -390 0 -7 6 -34 22 -60 34 -27 13
-48 29 -48 36 0 20 -74 97 -93 97 -28 0 -19 -19 16 -36 32 -15 77 -72 77 -97
0 -8 19 -20 42 -27 24 -8 50 -20 59 -27 46 -39 245 -57 312 -30 18 8 49 17 70
21 l37 7 0 -60 c0 -58 -1 -61 -32 -77 -46 -24 -299 -26 -348 -2 -19 9 -54 19
-77 23 -38 6 -41 5 -36 -13 4 -15 14 -20 43 -20 22 0 47 -5 57 -10 39 -21 168
-36 214 -24 24 6 56 8 70 5 16 -3 42 3 67 16 23 12 43 21 45 21 2 0 10 -25 17
-55 9 -36 16 -51 22 -43 6 10 8 8 8 -5 0 -19 -14 -26 -101 -51 -55 -16 -207
-16 -354 0 -49 5 -51 6 -73 54 -33 71 -63 101 -111 107 -34 5 -41 3 -41 -11 0
-11 9 -16 29 -16 57 0 77 -16 112 -87 18 -37 34 -69 35 -71 1 -2 79 -8 173
-13 119 -6 178 -6 198 2 15 6 50 17 77 24 l48 13 13 -32 c32 -81 32 -81 -48
-105 -40 -12 -101 -26 -135 -31 -74 -12 -279 -5 -298 11 -7 6 -18 8 -23 4 -6
-3 -27 -8 -48 -10 -76 -9 -133 -27 -133 -41 0 -17 -1 -17 69 0 31 8 63 14 71
13 8 0 25 3 38 7 14 5 22 3 22 -4 0 -9 45 -11 173 -7 151 3 183 7 262 31 86
27 90 27 102 9 7 -10 20 -25 27 -34 8 -9 10 -22 6 -29 -6 -9 -9 -9 -13 1 -3 8
-6 2 -6 -12 -1 -24 -8 -28 -88 -52 -135 -40 -251 -58 -349 -55 l-89 3 -6 58
c-4 32 -10 61 -14 65 -4 4 -4 -18 0 -48 l7 -55 -69 -14 c-37 -8 -83 -16 -100
-19 -21 -3 -33 -10 -34 -21 0 -9 -3 -43 -5 -76 -5 -75 11 -116 40 -105 30 11
126 38 159 45 20 4 27 1 27 -9 0 -20 71 -30 173 -23 58 3 118 17 207 46 69 23
129 41 134 41 4 0 6 -11 4 -25 -3 -13 -1 -22 3 -19 5 3 9 -3 9 -13 0 -10 7
-29 16 -41 8 -12 13 -22 11 -22 -2 0 -75 -25 -162 -55 -143 -50 -165 -55 -242
-55 -85 0 -114 8 -145 40 -16 17 -19 17 -55 -1 -21 -10 -60 -24 -88 -31 -69
-17 -75 -23 -75 -79 0 -26 -4 -51 -10 -54 -5 -3 -10 -11 -10 -17 0 -7 5 -6 14
1 11 10 15 8 20 -6 2 -10 4 11 3 46 l-2 64 78 22 c42 13 84 29 93 36 14 11 18
11 29 -4 21 -29 81 -47 152 -47 57 0 97 10 242 60 146 50 176 57 185 46 16
-22 76 -25 76 -5 0 5 -5 7 -11 4 -13 -9 -59 3 -59 14 0 5 13 14 29 19 26 9 31
7 50 -19 28 -38 85 -42 94 -7 8 27 6 29 -22 21 -17 -4 -19 -8 -9 -14 9 -6 4
-8 -14 -7 -15 1 -25 5 -22 9 2 4 -3 13 -12 20 -20 16 -62 109 -74 164 -7 31
-6 43 7 57 21 23 8 23 -15 0 -18 -18 -27 -62 -14 -72 4 -3 12 -23 18 -45 6
-22 14 -48 18 -57 6 -12 0 -21 -22 -32 l-30 -15 -16 39 c-9 22 -16 53 -15 68
0 16 3 21 6 12 13 -33 54 -90 65 -90 7 0 5 7 -4 18 -16 17 -48 88 -47 100 1 4
1 22 0 40 -1 24 -5 31 -13 26 -10 -6 -9 -3 0 8 8 9 13 25 12 35 -4 35 0 53 12
50 6 -1 13 7 15 18 3 20 3 20 -6 0 -5 -11 -10 -15 -11 -10 0 6 -7 1 -15 -9
-23 -31 -18 0 11 60 14 30 23 62 21 72 -3 11 -7 7 -12 -15 -4 -18 -11 -33 -16
-33 -5 0 -7 6 -5 13 3 6 7 26 10 42 6 27 5 28 -8 12 -12 -16 -14 -13 -20 23
-3 23 -3 46 0 52 4 7 2 8 -4 4 -7 -4 -12 -2 -12 4 0 6 -4 9 -9 6 -5 -3 -2 12
5 34 8 22 11 46 8 55 -4 9 2 26 12 38 l19 22 -24 -20 -24 -20 5 50 c3 28 3 44
1 37 -3 -6 -9 -10 -14 -6 -13 8 -15 -18 -4 -79 3 -21 10 -35 16 -32 15 10 10
-7 -8 -28 -10 -11 -12 -17 -5 -13 6 4 12 2 12 -4 0 -7 -8 -9 -20 -5 -26 8 -25
4 10 -52 27 -42 28 -48 14 -56 -11 -6 -19 -5 -25 4 -14 23 -10 32 7 18 9 -7 3
8 -14 35 -27 42 -29 50 -17 63 18 17 18 16 5 84 -11 54 -11 54 22 83 18 16 27
26 21 22 -8 -5 -14 0 -14 11 -1 10 -3 34 -5 53 -1 19 4 54 12 78 17 52 17 53
0 46 -18 -7 -31 -73 -27 -142 2 -43 -1 -57 -17 -72 -19 -18 -19 -17 -16 31 3
57 -13 67 -19 12 -3 -34 -4 -33 -6 12 -2 28 -4 64 -5 80 -2 17 0 35 4 40 9 12
41 121 45 150 1 11 3 24 4 28 0 5 5 6 10 3 5 -3 12 1 15 10 4 11 2 15 -8 11
-12 -5 -13 -1 -6 19 6 14 10 30 10 35 0 16 -20 10 -26 -8z m-37 -195 c-3 -8
-6 -5 -6 6 -1 11 2 17 5 13 3 -3 4 -12 1 -19z m13 -263 c4 3 11 -2 14 -10 4
-13 2 -14 -14 -5 -12 6 -19 20 -19 33 l2 22 4 -23 c2 -12 8 -20 13 -17z m95
-286 c4 -11 4 -23 0 -27 -7 -7 -25 17 -25 36 0 20 18 14 25 -9z m-10 -196 c-3
-36 0 -60 7 -64 6 -4 -56 -29 -138 -55 -142 -46 -154 -49 -263 -49 -93 0 -116
3 -124 16 -9 14 -19 14 -109 -8 -55 -12 -103 -23 -106 -23 -4 0 -6 30 -5 67
l1 67 54 13 c125 30 141 32 157 16 31 -32 289 -2 441 51 92 33 89 34 85 -31z"/>
<path d="M105 424 c20 -19 40 -33 43 -29 7 7 -55 65 -69 65 -6 0 6 -16 26 -36z"/>
<path d="M741 1473 c-1 -6 -4 -20 -7 -30 -5 -17 -5 -17 6 0 6 10 9 23 6 30 -3
9 -5 9 -5 0z"/>
<path d="M860 1461 c0 -11 4 -22 9 -25 4 -3 6 6 3 19 -5 30 -12 33 -12 6z"/>
<path d="M2768 1473 c6 -2 18 -2 25 0 6 3 1 5 -13 5 -14 0 -19 -2 -12 -5z"/>
<path d="M776 1444 c-3 -9 -6 -25 -6 -37 0 -12 -9 -47 -20 -76 -11 -30 -18
-56 -16 -59 7 -6 43 100 50 146 6 43 3 55 -8 26z"/>
<path d="M2260 1453 c0 -14 61 -43 88 -42 16 0 21 3 12 6 -8 3 -26 10 -40 16
-14 6 -28 10 -32 9 -5 -1 -8 3 -8 8 0 6 -4 10 -10 10 -5 0 -10 -3 -10 -7z"/>
<path d="M2454 1428 c-7 -11 58 -9 76 2 11 7 3 9 -28 7 -24 -1 -46 -5 -48 -9z"/>
<path d="M1290 1420 c0 -5 5 -10 11 -10 5 0 7 5 4 10 -3 6 -8 10 -11 10 -2 0
-4 -4 -4 -10z"/>
<path d="M2665 1420 c3 -5 8 -10 11 -10 2 0 4 5 4 10 0 6 -5 10 -11 10 -5 0
-7 -4 -4 -10z"/>
<path d="M2765 1410 c-19 -8 -19 -9 3 -9 12 -1 22 4 22 9 0 6 -1 10 -2 9 -2 0
-12 -4 -23 -9z"/>
<path d="M2660 1390 c0 -6 7 -10 15 -10 8 0 15 2 15 4 0 2 -7 6 -15 10 -8 3
-15 1 -15 -4z"/>
<path d="M2768 1383 c-24 -6 -23 -19 2 -19 11 0 20 6 20 13 0 7 -1 12 -2 12
-2 -1 -11 -3 -20 -6z"/>
<path d="M846 1238 c-3 -79 -3 -155 1 -170 5 -16 9 43 11 142 2 94 1 170 -1
170 -2 0 -7 -64 -11 -142z"/>
<path d="M1445 1279 c6 -104 27 -117 23 -15 -2 50 -7 81 -15 83 -9 3 -11 -15
-8 -68z"/>
<path d="M2240 1346 c0 -2 8 -10 18 -17 15 -13 16 -12 3 4 -13 16 -21 21 -21
13z"/>
<path d="M921 1324 c0 -11 3 -14 6 -6 3 7 2 16 -1 19 -3 4 -6 -2 -5 -13z"/>
<path d="M2519 1337 c-2 -11 -1 -46 1 -64 1 -10 6 -2 10 17 5 20 5 39 -1 45
-5 5 -9 6 -10 2z"/>
<path d="M2290 1316 c0 -10 4 -15 9 -12 5 4 12 0 14 -6 4 -8 6 -9 6 -2 1 6 -6
17 -14 24 -12 10 -15 9 -15 -4z"/>
<path d="M2395 1313 c-18 -14 -18 -15 -2 -9 10 3 23 6 28 6 5 0 9 5 9 10 0 14
-12 12 -35 -7z"/>
<path d="M913 1250 c0 -30 2 -43 4 -27 2 15 2 39 0 55 -2 15 -4 2 -4 -28z"/>
<path d="M771 1264 c0 -11 3 -14 6 -6 3 7 2 16 -1 19 -3 4 -6 -2 -5 -13z"/>
<path d="M0 1240 c0 -8 5 -22 10 -30 9 -13 10 -13 10 0 0 8 -5 22 -10 30 -9
13 -10 13 -10 0z"/>
<path d="M871 1214 c0 -11 3 -14 6 -6 3 7 2 16 -1 19 -3 4 -6 -2 -5 -13z"/>
<path d="M2582 1220 c7 -21 54 -53 69 -47 9 3 5 8 -12 15 -14 6 -34 18 -44 28
-12 12 -17 14 -13 4z"/>
<path d="M2176 1190 c3 -19 6 -43 6 -53 -1 -9 3 -15 9 -12 13 9 11 28 -7 66
l-15 34 7 -35z"/>
<path d="M2478 1203 c7 -3 16 -2 19 1 4 3 -2 6 -13 5 -11 0 -14 -3 -6 -6z"/>
<path d="M661 1184 c0 -11 3 -14 6 -6 3 7 2 16 -1 19 -3 4 -6 -2 -5 -13z"/>
<path d="M942 1180 c0 -14 2 -19 5 -12 2 6 2 18 0 25 -3 6 -5 1 -5 -13z"/>
<path d="M2247 1181 c3 -11 13 -21 24 -24 26 -7 23 4 -5 25 -23 17 -24 17 -19
-1z"/>
<path d="M2428 1193 c7 -3 16 -2 19 1 4 3 -2 6 -13 5 -11 0 -14 -3 -6 -6z"/>
<path d="M2778 1193 c7 -3 16 -2 19 1 4 3 -2 6 -13 5 -11 0 -14 -3 -6 -6z"/>
<path d="M0 1178 c0 -8 16 -22 36 -33 20 -11 48 -37 62 -57 28 -44 49 -51 28
-10 -27 52 -126 130 -126 100z"/>
<path d="M898 1178 c-3 -7 -1 -24 3 -38 6 -22 7 -20 8 13 1 38 -3 47 -11 25z"/>
<path d="M2786 1173 c-11 -11 -7 -20 9 -20 8 0 15 4 15 8 0 11 -16 20 -24 12z"/>
<path d="M2325 1160 c-25 -6 -27 -8 -12 -15 12 -5 24 -2 35 9 9 9 14 15 12 15
-3 -1 -18 -5 -35 -9z"/>
<path d="M2685 1160 c27 -12 43 -12 25 0 -8 5 -22 9 -30 9 -10 0 -8 -3 5 -9z"/>
<path d="M2870 1161 c0 -6 4 -13 10 -16 6 -3 7 1 4 9 -7 18 -14 21 -14 7z"/>
<path d="M1946 1151 c-6 -9 -69 -41 -90 -46 -6 -1 -24 -7 -39 -13 -16 -7 -46
-12 -68 -12 -21 0 -39 -4 -39 -9 0 -6 -19 -13 -42 -16 -51 -7 -81 -13 -88 -15
-3 -1 -12 -2 -21 -1 -17 2 -34 -36 -19 -41 10 -3 22 -78 21 -123 -1 -22 1 -26
8 -16 5 8 8 22 6 31 -2 10 -5 42 -6 71 l-3 54 34 7 c19 4 73 14 120 23 47 9
99 23 115 30 17 7 49 19 72 26 26 9 46 22 52 36 10 22 -1 34 -13 14z"/>
<path d="M1477 1143 c-4 -3 -7 -13 -7 -21 0 -18 13 -7 16 13 2 17 1 18 -9 8z"/>
<path d="M1 1127 c-1 -23 24 -83 38 -91 6 -4 2 12 -8 36 -10 24 -20 50 -24 58
-4 12 -6 11 -6 -3z"/>
<path d="M2681 1133 c1 -4 1 -10 -1 -13 -1 -3 -3 -16 -6 -30 -2 -14 -11 -38
-19 -55 -8 -16 -17 -47 -20 -67 -3 -21 -10 -38 -15 -38 -6 0 -10 -15 -10 -34
0 -19 -4 -37 -8 -40 -5 -3 -10 -18 -10 -33 -1 -15 -4 -50 -6 -76 -3 -35 -1
-46 7 -38 6 6 20 11 32 11 17 1 18 2 4 10 -12 7 -15 21 -12 62 5 62 21 128 31
128 4 0 8 14 8 31 1 17 5 34 10 38 5 3 10 17 12 31 1 13 6 27 10 30 4 3 8 12
8 20 1 8 3 26 5 39 2 14 -2 26 -9 29 -7 2 -12 0 -11 -5z"/>
<path d="M2795 1131 c-3 -5 -1 -12 5 -16 5 -3 10 -17 10 -31 0 -14 4 -23 8
-20 4 3 6 21 4 40 -4 35 -15 46 -27 27z"/>
<path d="M921 1114 c0 -11 3 -14 6 -6 3 7 2 16 -1 19 -3 4 -6 -2 -5 -13z"/>
<path d="M1411 1104 c0 -11 3 -14 6 -6 3 7 2 16 -1 19 -3 4 -6 -2 -5 -13z"/>
<path d="M570 1086 c-5 -15 -10 -35 -9 -44 0 -9 7 1 15 22 8 22 12 41 9 44 -2
3 -9 -7 -15 -22z"/>
<path d="M761 1084 c0 -11 3 -14 6 -6 3 7 2 16 -1 19 -3 4 -6 -2 -5 -13z"/>
<path d="M2547 1093 c-4 -3 -7 -16 -7 -27 0 -12 -7 -32 -16 -44 -8 -12 -13
-26 -9 -31 3 -5 1 -12 -5 -16 -6 -4 -8 -10 -6 -13 5 -8 -25 -155 -42 -207 -9
-30 -9 -83 0 -120 3 -11 0 -38 -7 -60 -10 -31 -13 -34 -13 -15 -1 58 -31 238
-45 270 l-15 35 4 -35 c2 -19 13 -99 24 -178 11 -79 20 -178 21 -220 0 -42 4
-86 9 -97 5 -11 9 -15 9 -10 1 6 3 51 6 101 2 50 9 104 15 119 6 15 14 45 19
66 7 32 6 41 -7 48 -21 12 -25 71 -5 71 8 0 12 4 9 8 -2 4 4 26 14 49 10 23
20 69 23 103 2 34 8 65 13 69 5 3 9 17 9 31 -1 14 2 43 6 65 8 42 7 49 -4 38z"/>
<path d="M2002 1082 c-12 -2 -20 -7 -18 -11 3 -4 40 -7 83 -5 53 2 80 -1 85
-9 5 -8 8 -7 8 5 0 13 -12 17 -67 20 -38 2 -78 2 -91 0z"/>
<path d="M77 1059 c4 -13 8 -18 11 -10 2 7 -1 18 -6 23 -8 8 -9 4 -5 -13z"/>
<path d="M2216 1066 c3 -9 11 -16 16 -16 13 0 5 23 -10 28 -7 2 -10 -2 -6 -12z"/>
<path d="M1415 1050 c-3 -6 1 -7 9 -4 18 7 21 14 7 14 -6 0 -13 -4 -16 -10z"/>
<path d="M831 1034 c0 -11 3 -14 6 -6 3 7 2 16 -1 19 -3 4 -6 -2 -5 -13z"/>
<path d="M2816 1035 c-3 -8 -1 -15 4 -15 6 0 10 7 10 15 0 8 -2 15 -4 15 -2 0
-6 -7 -10 -15z"/>
<path d="M812 1010 c0 -14 2 -19 5 -12 2 6 2 18 0 25 -3 6 -5 1 -5 -13z"/>
<path d="M2119 1023 c0 -5 -3 -17 -5 -28 -3 -11 -11 -67 -19 -125 -18 -134
-38 -253 -63 -360 -21 -92 -28 -153 -37 -325 -3 -60 -8 -127 -11 -147 -3 -22
-2 -38 4 -38 16 0 22 27 22 95 0 93 19 313 31 365 28 119 51 234 63 325 17
119 28 245 21 245 -3 0 -5 -3 -6 -7z"/>
<path d="M2179 935 c-5 -129 -4 -149 5 -253 8 -98 9 -105 28 -192 7 -35 11
-135 10 -272 -1 -136 2 -218 8 -218 14 0 19 35 17 112 -1 36 1 64 6 61 4 -2 7
0 7 6 0 5 -4 12 -9 16 -5 3 -8 24 -5 48 3 23 4 65 3 92 -1 28 -2 65 -2 82 0
18 -3 30 -6 27 -11 -10 -31 187 -37 356 -7 198 -21 271 -25 135z"/>
<path d="M2830 957 c-1 -29 -3 -60 -4 -70 0 -10 -6 -15 -13 -12 -10 3 -11 0
-3 -15 19 -36 -47 -170 -72 -144 -3 2 -11 -4 -19 -13 -13 -16 -12 -17 4 -4 9
7 17 9 17 4 0 -5 8 -9 18 -10 37 -3 92 147 92 249 0 72 -15 84 -20 15z"/>
<path d="M205 936 c2 -21 6 -41 9 -44 9 -9 6 41 -4 63 -7 15 -8 10 -5 -19z"/>
<path d="M825 959 c-4 -6 -5 -12 -2 -15 2 -3 7 2 10 11 7 17 1 20 -8 4z"/>
<path d="M80 955 c0 -13 42 -86 46 -82 6 5 -33 87 -41 87 -3 0 -5 -2 -5 -5z"/>
<path d="M940 950 c0 -5 5 -10 11 -10 5 0 7 5 4 10 -3 6 -8 10 -11 10 -2 0 -4
-4 -4 -10z"/>
<path d="M960 910 c0 -5 5 -10 11 -10 5 0 7 5 4 10 -3 6 -8 10 -11 10 -2 0 -4
-4 -4 -10z"/>
<path d="M2 890 c0 -14 2 -19 5 -12 2 6 2 18 0 25 -3 6 -5 1 -5 -13z"/>
<path d="M45 900 c3 -5 8 -10 11 -10 2 0 4 5 4 10 0 6 -5 10 -11 10 -5 0 -7
-4 -4 -10z"/>
<path d="M1423 865 c0 -8 4 -12 9 -9 5 3 6 10 3 15 -9 13 -12 11 -12 -6z"/>
<path d="M870 844 c0 -8 5 -12 10 -9 6 4 8 11 5 16 -9 14 -15 11 -15 -7z"/>
<path d="M2325 833 c-21 -81 -33 -228 -33 -403 0 -85 -4 -183 -10 -216 -6 -34
-9 -70 -7 -80 2 -11 4 -45 4 -76 1 -34 5 -58 12 -58 6 0 10 27 10 68 -1 103
18 564 28 682 9 111 8 129 -4 83z"/>
<path d="M13 843 c-7 -2 -13 -11 -13 -19 0 -11 10 -13 43 -8 23 3 47 7 54 9
26 8 73 -17 74 -38 0 -12 5 -31 10 -42 7 -15 8 -9 3 20 -9 63 -36 85 -103 84
-31 0 -62 -3 -68 -6z"/>
<path d="M811 834 c0 -11 3 -14 6 -6 3 7 2 16 -1 19 -3 4 -6 -2 -5 -13z"/>
<path d="M1775 840 c3 -5 8 -10 11 -10 2 0 4 5 4 10 0 6 -5 10 -11 10 -5 0 -7
-4 -4 -10z"/>
<path d="M1420 820 c0 -5 7 -7 15 -4 8 4 15 8 15 10 0 2 -7 4 -15 4 -8 0 -15
-4 -15 -10z"/>
<path d="M1560 714 c0 -109 24 -341 50 -473 5 -29 10 -77 10 -105 0 -51 13
-123 24 -133 12 -12 14 3 6 52 -4 28 -10 79 -14 115 -8 85 -24 211 -36 280 -5
30 -11 89 -14 130 -15 206 -18 245 -22 249 -2 2 -4 -49 -4 -115z"/>
<path d="M1781 790 c5 -19 14 -161 19 -315 5 -154 14 -300 19 -325 6 -25 10
-69 11 -97 0 -29 4 -53 9 -53 12 0 19 122 8 138 -6 8 -5 12 2 12 6 0 11 5 11
11 0 5 -4 8 -9 5 -5 -3 -7 16 -5 44 2 37 0 48 -10 44 -7 -3 -13 2 -13 11 0 8
4 15 9 15 4 0 8 8 8 18 0 14 -2 15 -10 2 -8 -12 -10 -10 -10 8 0 14 4 21 10
17 10 -6 7 21 -6 63 -2 6 1 12 6 12 5 0 6 21 4 48 -3 26 -10 99 -15 162 -12
147 -16 172 -34 196 -13 17 -13 16 -4 -16z"/>
<path d="M796 794 c-8 -20 -8 -24 2 -24 4 0 8 9 9 20 2 24 -3 26 -11 4z"/>
<path d="M87 788 c4 -7 8 -19 9 -26 3 -18 13 -27 21 -19 8 9 -17 57 -29 57 -5
0 -6 -6 -1 -12z"/>
<path d="M3 735 c0 -22 2 -30 4 -17 2 12 2 30 0 40 -3 9 -5 -1 -4 -23z"/>
<path d="M1025 749 c-4 -6 -5 -12 -2 -15 2 -3 7 2 10 11 7 17 1 20 -8 4z"/>
<path d="M1430 746 c0 -8 5 -18 10 -21 6 -3 10 1 10 9 0 8 -4 18 -10 21 -5 3
-10 -1 -10 -9z"/>
<path d="M1719 678 c0 -35 -3 -72 -6 -83 -6 -26 -11 -509 -5 -557 2 -21 9 -38
16 -38 8 0 9 33 3 128 -5 70 -5 190 -1 267 12 227 13 335 3 341 -5 3 -9 -23
-10 -58z"/>
<path d="M1044 644 c4 -82 19 -128 52 -155 12 -9 9 1 -10 33 -19 32 -29 69
-36 125 l-9 78 3 -81z"/>
<path d="M2656 698 c3 -4 9 -8 15 -8 5 0 9 4 9 8 0 5 -7 9 -15 9 -8 0 -12 -4
-9 -9z"/>
<path d="M856 687 c3 -10 9 -15 12 -12 3 3 0 11 -7 18 -10 9 -11 8 -5 -6z"/>
<path d="M901 664 c0 -11 3 -14 6 -6 3 7 2 16 -1 19 -3 4 -6 -2 -5 -13z"/>
<path d="M2751 664 c0 -11 3 -14 6 -6 3 7 2 16 -1 19 -3 4 -6 -2 -5 -13z"/>
<path d="M842 640 c14 -22 24 -19 15 5 -4 8 -11 15 -17 15 -6 0 -6 -7 2 -20z"/>
<path d="M147 606 c3 -14 12 -31 20 -37 12 -11 12 -8 2 17 -18 41 -27 50 -22
20z"/>
<path d="M1439 594 c-1 -21 -1 -42 0 -46 0 -5 -2 -7 -6 -5 -10 3 -13 -7 -12
-40 l1 -28 7 25 c10 31 18 -60 26 -275 7 -174 13 -225 27 -225 7 0 8 19 5 52
-4 29 -13 170 -22 312 -14 242 -23 323 -26 230z"/>
<path d="M931 600 c0 -14 6 -47 14 -74 11 -37 12 -52 4 -63 -9 -9 -9 -13 0
-13 6 0 12 6 13 13 4 36 3 67 -3 67 -4 0 -11 21 -17 48 -6 27 -10 37 -11 22z"/>
<path d="M2749 618 c-6 -22 -6 -59 0 -62 4 -3 8 11 9 30 2 19 0 34 -3 34 -3 0
-5 -1 -6 -2z"/>
<path d="M827 590 c-19 -22 -22 -35 -7 -25 10 6 34 45 28 45 -2 0 -11 -9 -21
-20z"/>
<path d="M894 565 c6 -62 16 -70 16 -12 0 25 -5 49 -10 52 -7 4 -9 -10 -6 -40z"/>
<path d="M3 555 c0 -22 2 -30 4 -17 2 12 2 30 0 40 -3 9 -5 -1 -4 -23z"/>
<path d="M826 555 c-10 -7 -16 -18 -15 -23 2 -6 12 1 22 14 21 27 19 29 -7 9z"/>
<path d="M2736 525 c-3 -9 -6 -22 -5 -28 0 -7 5 -1 10 12 5 13 8 26 5 28 -2 2
-6 -3 -10 -12z"/>
<path d="M852 475 c0 -11 3 -29 8 -40 11 -25 11 1 0 35 -6 20 -8 21 -8 5z"/>
<path d="M1072 464 c2 -31 -24 -84 -42 -84 -5 0 -6 15 -3 33 5 32 4 34 -27 35
-26 1 -29 -1 -17 -11 16 -13 29 -77 16 -77 -5 0 -6 -7 -2 -16 4 -10 -2 -17
-17 -21 -16 -4 -18 -8 -8 -14 25 -16 35 -9 72 51 20 33 45 65 55 72 17 12 17
14 -6 38 l-24 25 3 -31z"/>
<path d="M1952 450 c0 -14 2 -19 5 -12 2 6 2 18 0 25 -3 6 -5 1 -5 -13z"/>
<path d="M1398 428 c-5 -35 3 -68 17 -68 16 0 26 37 19 67 -8 30 -32 30 -36 1z"/>
<path d="M870 401 c0 -10 19 -25 25 -20 1 2 -3 10 -11 17 -8 7 -14 8 -14 3z"/>
<path d="M962 398 c5 -15 28 -23 28 -10 0 5 -7 13 -16 16 -10 4 -14 1 -12 -6z"/>
<path d="M1075 349 c-8 -49 0 -64 10 -17 4 18 12 39 17 46 8 8 6 12 -5 12 -10
0 -18 -14 -22 -41z"/>
<path d="M2663 374 c4 -7 0 -15 -9 -18 -14 -6 -16 -20 -12 -99 3 -51 10 -102
17 -114 6 -12 14 -49 18 -83 6 -66 23 -83 22 -22 -1 32 -7 64 -27 132 -11 41
-13 150 -2 170 9 17 9 25 -1 34 -9 8 -10 8 -6 0z"/>
<path d="M905 340 c3 -5 8 -10 11 -10 2 0 4 5 4 10 0 6 -5 10 -11 10 -5 0 -7
-4 -4 -10z"/>
<path d="M1410 340 c0 -5 5 -10 11 -10 5 0 7 5 4 10 -3 6 -8 10 -11 10 -2 0
-4 -4 -4 -10z"/>
<path d="M196 310 c3 -14 10 -32 15 -40 7 -13 8 -13 8 0 0 8 -6 26 -15 40
l-15 25 7 -25z"/>
<path d="M2 290 c0 -14 2 -19 5 -12 2 6 2 18 0 25 -3 6 -5 1 -5 -13z"/>
<path d="M2567 304 c-4 -4 -7 -16 -7 -26 0 -10 -4 -18 -10 -18 -5 0 -10 -4
-10 -10 0 -18 16 -10 29 14 13 24 12 53 -2 40z"/>
<path d="M87 278 c13 -12 26 -18 30 -14 4 4 -1 14 -11 22 -31 22 -43 17 -19
-8z"/>
<path d="M22 253 c-1 -27 -7 -43 -14 -43 -10 0 -9 -3 1 -9 11 -7 11 -9 0 -14
-11 -4 -11 -6 -1 -6 18 -1 24 20 19 70 l-4 44 -1 -42z"/>
<path d="M1029 236 c-13 -13 -51 -31 -84 -40 -56 -16 -273 -88 -430 -142 -87
-30 -142 -30 -247 2 -11 3 -18 0 -18 -9 0 -15 99 -37 168 -37 24 0 110 24 204
56 90 30 210 70 268 88 110 34 154 56 164 83 10 25 2 24 -25 -1z"/>
<path d="M1946 251 c-4 -7 -5 -15 -2 -18 9 -9 19 4 14 18 -4 11 -6 11 -12 0z"/>
<path d="M1171 234 c0 -11 3 -14 6 -6 3 7 2 16 -1 19 -3 4 -6 -2 -5 -13z"/>
<path d="M2541 214 c0 -11 3 -14 6 -6 3 7 2 16 -1 19 -3 4 -6 -2 -5 -13z"/>
<path d="M2432 190 c0 -14 2 -19 5 -12 2 6 2 18 0 25 -3 6 -5 1 -5 -13z"/>
<path d="M2543 140 c0 -25 2 -35 4 -22 2 12 2 32 0 45 -2 12 -4 2 -4 -23z"/>
<path d="M1442 130 c0 -14 2 -19 5 -12 2 6 2 18 0 25 -3 6 -5 1 -5 -13z"/>
<path d="M1263 111 c0 -11 5 -17 9 -15 5 3 6 9 3 14 -3 4 1 11 7 13 8 4 7 6
-4 6 -11 1 -16 -6 -15 -18z"/>
<path d="M1343 115 c0 -8 4 -12 9 -9 5 3 6 10 3 15 -9 13 -12 11 -12 -6z"/>
<path d="M1036 95 c-21 -31 -68 -51 -176 -75 -83 -18 -84 -19 -35 -19 61 -1
157 23 190 47 13 9 29 29 34 45 12 34 8 34 -13 2z"/>
<path d="M1221 83 c7 -12 15 -20 18 -17 3 2 -3 12 -13 22 -17 16 -18 16 -5 -5z"/>
<path d="M1442 80 c0 -14 2 -19 5 -12 2 6 2 18 0 25 -3 6 -5 1 -5 -13z"/>
<path d="M2455 83 c5 -10 10 -33 13 -50 2 -18 8 -33 13 -33 14 0 11 38 -6 70
-17 32 -32 42 -20 13z"/>
<path d="M205 64 c-22 -13 -62 -28 -90 -35 -77 -18 -89 -31 -23 -25 68 5 142
36 157 65 14 26 7 25 -44 -5z"/>
<path d="M692 63 c-24 -8 -42 -17 -40 -19 5 -4 108 23 116 30 10 11 -33 5 -76
-11z"/>
</g>
</svg>
