<?xml version="1.0" standalone="no"?>
<!DOCTYPE svg PUBLIC "-//W3C//DTD SVG 20010904//EN"
 "http://www.w3.org/TR/2001/REC-SVG-20010904/DTD/svg10.dtd">
<svg version="1.0" xmlns="http://www.w3.org/2000/svg"
 width="300.000000pt" height="300.000000pt" viewBox="0 0 300.000000 300.000000"
 preserveAspectRatio="xMidYMid meet">
<metadata>
Created by potrace 1.10, written by Peter Selinger 2001-2011
</metadata>
<g transform="translate(0.000000,300.000000) scale(0.100000,-0.100000)"
fill="#000000" stroke="none">
<path d="M460 2985 c0 -13 4 -14 20 -5 11 6 20 13 20 15 0 3 -9 5 -20 5 -11 0
-20 -7 -20 -15z"/>
<path d="M602 2960 c3 -62 23 -69 26 -9 2 38 -1 49 -13 49 -12 0 -15 -10 -13
-40z"/>
<path d="M710 2961 c0 -58 -8 -73 -31 -60 -14 7 -19 6 -19 -4 0 -8 15 -14 42
-16 23 -1 46 -7 50 -14 6 -9 8 -9 8 0 0 6 -4 14 -9 18 -5 3 -7 30 -4 60 5 51
4 55 -16 55 -18 0 -21 -6 -21 -39z"/>
<path d="M1137 2982 c2 -10 11 -19 19 -19 17 0 18 9 2 25 -17 17 -27 15 -21
-6z"/>
<path d="M1230 2968 c0 -47 14 -66 34 -49 9 7 25 11 36 8 11 -3 20 -1 20 4 0
5 -6 9 -12 10 -49 3 -58 9 -61 38 -2 34 -17 24 -17 -11z"/>
<path d="M1893 2993 c15 -2 37 -2 50 0 12 2 0 4 -28 4 -27 0 -38 -2 -22 -4z"/>
<path d="M1978 2993 c7 -3 16 -2 19 1 4 3 -2 6 -13 5 -11 0 -14 -3 -6 -6z"/>
<path d="M2028 2993 c12 -2 32 -2 45 0 12 2 2 4 -23 4 -25 0 -35 -2 -22 -4z"/>
<path d="M2123 2993 c9 -2 23 -2 30 0 6 3 -1 5 -18 5 -16 0 -22 -2 -12 -5z"/>
<path d="M2198 2993 c7 -3 16 -2 19 1 4 3 -2 6 -13 5 -11 0 -14 -3 -6 -6z"/>
<path d="M2253 2993 c15 -2 37 -2 50 0 12 2 0 4 -28 4 -27 0 -38 -2 -22 -4z"/>
<path d="M2363 2993 c44 -5 61 -31 71 -108 4 -27 9 -58 12 -69 5 -13 2 -17 -7
-12 -8 4 -6 1 5 -8 14 -11 21 -12 31 -3 11 9 11 14 2 22 -7 6 -12 31 -13 57 0
26 -9 65 -20 87 -19 40 -20 41 -69 39 -43 -1 -45 -2 -12 -5z"/>
<path d="M2528 2993 c7 -3 16 -2 19 1 4 3 -2 6 -13 5 -11 0 -14 -3 -6 -6z"/>
<path d="M2711 2955 c-19 -38 -20 -48 -9 -67 7 -13 11 -26 10 -30 -1 -5 3 -8
8 -8 6 0 10 4 10 9 0 6 -4 13 -10 16 -22 14 2 92 30 98 8 1 42 -1 74 -5 39 -5
63 -4 72 3 7 6 18 7 25 3 7 -4 10 -2 7 6 -4 14 -80 17 -112 5 -10 -5 -21 -4
-25 1 -3 5 -18 10 -32 12 -21 2 -29 -5 -48 -43z"/>
<path d="M1055 2980 c-3 -5 -1 -10 4 -10 6 0 11 5 11 10 0 6 -2 10 -4 10 -3 0
-8 -4 -11 -10z"/>
<path d="M2540 2980 c0 -3 6 -25 13 -50 7 -25 13 -62 13 -82 -1 -27 2 -34 10
-25 16 18 5 109 -17 137 -10 14 -19 23 -19 20z"/>
<path d="M2940 2970 c0 -5 7 -7 15 -4 8 4 15 8 15 10 0 2 -7 4 -15 4 -8 0 -15
-4 -15 -10z"/>
<path d="M2985 2950 c-3 -5 -1 -10 4 -10 6 0 11 5 11 10 0 6 -2 10 -4 10 -3 0
-8 -4 -11 -10z"/>
<path d="M1333 2937 c-3 -5 0 -14 6 -20 8 -8 11 -8 11 2 0 7 7 10 18 7 9 -3
24 -1 32 4 13 9 13 10 0 11 -8 0 -25 2 -38 3 -13 2 -25 -1 -29 -7z"/>
<path d="M2905 2940 c3 -5 8 -10 11 -10 2 0 4 5 4 10 0 6 -5 10 -11 10 -5 0
-7 -4 -4 -10z"/>
<path d="M2952 2898 c4 -44 25 -47 24 -3 -1 22 -6 35 -14 35 -9 0 -12 -11 -10
-32z"/>
<path d="M961 2913 c0 -4 4 -17 9 -28 8 -19 9 -19 9 2 1 12 -3 25 -9 28 -5 3
-10 3 -9 -2z"/>
<path d="M570 2901 c0 -14 40 -40 45 -30 4 5 11 7 16 4 5 -4 9 -1 9 4 0 6 -9
11 -20 11 -11 0 -20 4 -20 8 0 5 -7 9 -15 9 -8 0 -15 -3 -15 -6z"/>
<path d="M167 2841 c3 -14 6 -189 6 -388 1 -199 3 -360 6 -357 3 3 6 21 8 40
1 20 6 41 11 47 9 11 7 202 -2 296 -1 18 0 51 4 72 4 21 3 36 -1 33 -12 -7
-11 63 0 103 5 18 6 35 2 37 -4 3 -6 34 -4 69 3 57 1 65 -16 70 -16 4 -18 1
-14 -22z"/>
<path d="M533 2863 c-7 -2 -13 -8 -13 -13 0 -10 38 -1 46 11 6 10 -13 11 -33
2z"/>
<path d="M2344 2863 c4 -7 3 -13 -3 -13 -6 0 -8 -7 -4 -16 3 -9 0 -20 -8 -26
-11 -8 -10 -9 4 -4 10 3 23 6 28 6 13 0 5 38 -11 53 -10 9 -11 9 -6 0z"/>
<path d="M690 2851 c0 -5 7 -11 15 -15 8 -3 15 -1 15 3 0 5 -7 11 -15 15 -8 3
-15 1 -15 -3z"/>
<path d="M836 2843 c-6 -14 -5 -15 5 -6 7 7 10 15 7 18 -3 3 -9 -2 -12 -12z"/>
<path d="M660 2813 c30 -33 30 -36 15 -60 -9 -13 -14 -30 -11 -36 2 -7 8 -2
11 10 4 12 17 29 30 37 21 14 25 14 36 0 7 -8 20 -19 29 -24 14 -7 13 -2 -4
34 -20 42 -21 43 -39 24 -21 -22 -30 -18 -46 20 -7 16 -20 28 -32 29 -18 2
-17 -2 11 -34z"/>
<path d="M863 2840 c2 -8 -3 -20 -12 -27 -9 -6 -14 -13 -11 -16 3 -2 13 3 22
12 12 12 14 21 7 31 -9 13 -10 13 -6 0z"/>
<path d="M1175 2818 c3 -18 8 -40 10 -48 2 -8 4 -31 6 -50 1 -24 3 -28 6 -12
2 12 8 22 12 22 7 0 8 45 3 103 -1 10 -10 17 -23 17 -19 0 -21 -4 -14 -32z"/>
<path d="M327 2827 c-7 -17 3 -67 13 -67 12 0 20 29 11 35 -5 3 -7 14 -4 25 6
22 -12 28 -20 7z"/>
<path d="M476 2807 c-29 -37 -32 -57 -14 -75 9 -9 9 -12 0 -12 -7 0 -12 -7
-12 -15 0 -24 20 -17 30 10 5 14 15 25 21 25 8 0 8 -4 -1 -15 -6 -8 -8 -20 -4
-27 4 -7 4 -10 -1 -6 -12 11 -33 -23 -27 -44 2 -10 9 -18 14 -18 6 0 8 6 5 14
-3 8 1 20 9 27 8 6 12 20 9 30 -3 9 -1 20 5 24 6 3 8 10 6 14 -3 4 22 25 54
46 38 26 56 43 50 49 -7 7 -22 -2 -45 -24 -19 -19 -35 -30 -35 -25 0 5 -7 -1
-16 -13 -19 -28 -39 -30 -24 -3 14 28 12 36 -5 21 -20 -16 -19 0 1 28 24 35 8
26 -20 -11z"/>
<path d="M550 2830 c0 -5 5 -10 10 -10 6 0 10 5 10 10 0 6 -4 10 -10 10 -5 0
-10 -4 -10 -10z"/>
<path d="M520 2820 c0 -5 5 -10 10 -10 6 0 10 5 10 10 0 6 -4 10 -10 10 -5 0
-10 -4 -10 -10z"/>
<path d="M1011 2803 c0 -6 -4 -20 -7 -30 -5 -14 -4 -15 5 -7 7 7 11 20 8 30
-3 11 -5 14 -6 7z"/>
<path d="M870 2784 c0 -8 -4 -12 -10 -9 -5 3 -10 2 -10 -3 0 -23 26 -18 28 4
1 13 0 24 -3 24 -3 0 -5 -7 -5 -16z"/>
<path d="M605 2780 c-4 -6 -3 -16 3 -22 6 -6 12 -6 17 2 4 6 3 16 -3 22 -6 6
-12 6 -17 -2z"/>
<path d="M640 2780 c0 -5 7 -10 16 -10 8 0 12 5 9 10 -3 6 -10 10 -16 10 -5 0
-9 -4 -9 -10z"/>
<path d="M811 2774 c0 -11 3 -14 6 -6 3 7 2 16 -1 19 -3 4 -6 -2 -5 -13z"/>
<path d="M561 2741 c-12 -16 -21 -36 -21 -45 0 -9 -6 -19 -14 -22 -9 -3 -12
-12 -9 -21 5 -12 3 -14 -7 -8 -8 5 -11 4 -7 -2 4 -6 0 -16 -8 -23 -7 -6 -12
-17 -9 -25 3 -7 1 -16 -4 -19 -5 -3 -15 14 -21 39 -6 25 -13 45 -15 45 -2 0
-3 -25 -1 -56 3 -67 21 -86 51 -52 11 12 13 18 5 13 -7 -4 -12 -4 -10 1 16 35
63 136 79 167 23 44 19 48 -9 8z"/>
<path d="M627 2739 c-14 -20 -16 -20 -26 -2 -9 16 -10 16 -11 1 0 -9 -3 -23
-6 -32 -5 -12 1 -15 25 -13 22 1 31 7 31 19 0 9 5 20 10 23 6 3 10 10 10 16 0
16 -18 10 -33 -12z"/>
<path d="M2571 2732 c0 -19 -5 -31 -11 -27 -7 4 -7 -2 -1 -18 6 -14 7 -28 4
-31 -3 -3 6 0 21 7 26 12 36 29 14 25 -8 -2 -15 13 -19 37 -6 39 -6 39 -8 7z"/>
<path d="M690 2740 c0 -6 7 -10 15 -10 8 0 15 2 15 4 0 2 -7 6 -15 10 -8 3
-15 1 -15 -4z"/>
<path d="M890 2740 c-12 -8 -10 -10 8 -10 13 0 20 4 17 10 -7 12 -6 12 -25 0z"/>
<path d="M2770 2740 c-17 -11 -17 -11 30 -15 31 -3 33 -2 15 11 -22 16 -25 17
-45 4z"/>
<path d="M967 2719 c12 -12 25 -20 28 -17 3 3 -7 13 -22 23 l-28 17 22 -23z"/>
<path d="M741 2718 c0 -10 -5 -18 -11 -18 -18 0 -10 -22 10 -27 20 -5 24 -13
21 -45 -1 -10 2 -18 8 -18 6 0 8 8 4 18 -6 15 -4 15 15 -2 14 -12 22 -14 22
-7 0 7 4 9 10 6 6 -3 7 1 3 10 -3 9 -9 12 -12 7 -8 -13 -25 6 -29 33 -5 27
-12 32 -22 15 -6 -10 -10 -6 -13 16 -2 16 -5 21 -6 12z"/>
<path d="M797 2703 c3 -10 14 -26 25 -36 10 -10 18 -23 18 -30 0 -7 7 -22 16
-33 15 -19 16 -19 9 1 -17 49 -14 46 19 -20 19 -38 35 -65 36 -59 0 25 -61
134 -72 128 -7 -5 -9 -2 -5 8 3 9 -1 24 -8 35 -14 17 -14 17 -15 -2 -1 -18 -2
-18 -10 3 -11 26 -22 30 -13 5z"/>
<path d="M850 2713 c0 -6 12 -25 26 -42 21 -25 53 -105 77 -196 3 -11 4 5 3
36 -2 31 -7 62 -11 70 -5 7 -10 22 -10 33 -1 10 -9 23 -18 28 -10 5 -17 14
-17 19 0 6 4 7 10 4 6 -4 7 1 3 11 -5 13 -8 14 -11 5 -3 -9 -12 -4 -28 15 -13
16 -23 24 -24 17z"/>
<path d="M936 2698 c12 -5 27 -21 35 -34 7 -13 14 -22 17 -20 9 9 -40 66 -56
65 -13 0 -12 -3 4 -11z"/>
<path d="M2481 2694 c0 -11 3 -14 6 -6 3 7 2 16 -1 19 -3 4 -6 -2 -5 -13z"/>
<path d="M329 2692 c-7 -36 -2 -402 5 -402 6 0 1 -6 -10 -14 -10 -8 -15 -18
-11 -22 4 -4 15 0 24 9 12 12 18 38 20 88 3 64 1 71 -14 65 -16 -6 -16 -6 0
12 15 16 17 37 15 140 -2 86 -7 123 -15 127 -7 2 -14 1 -14 -3z"/>
<path d="M689 2693 c0 -5 -2 -18 -3 -30 -1 -12 1 -20 6 -17 4 3 8 -1 8 -9 0
-16 64 -135 82 -152 5 -5 -8 27 -31 71 -23 45 -41 88 -41 95 0 11 2 11 10 -1
8 -13 10 -12 10 3 0 12 -6 17 -17 15 -12 -2 -17 3 -15 15 2 9 0 17 -3 17 -3 0
-5 -3 -6 -7z"/>
<path d="M1248 2658 c-1 -24 -2 -58 -3 -75 -1 -18 2 -33 6 -33 5 0 9 8 9 19 0
10 7 24 15 31 9 8 15 30 15 56 0 37 -3 44 -20 44 -17 0 -20 -7 -22 -42z"/>
<path d="M1369 2681 c-2 -15 -2 -37 0 -63 2 -20 4 -18 16 10 13 30 13 36 0 49
-9 8 -16 10 -16 4z"/>
<path d="M1777 2683 c-15 -14 -5 -23 26 -22 21 1 25 3 12 6 -11 3 -23 9 -26
14 -3 5 -8 6 -12 2z"/>
<path d="M566 2658 c-9 -12 -16 -28 -16 -34 0 -6 -7 -17 -15 -24 -9 -7 -13
-15 -11 -17 6 -6 40 28 61 60 21 32 2 46 -19 15z"/>
<path d="M2780 2670 c-9 -6 -10 -10 -3 -10 6 0 15 5 18 10 8 12 4 12 -15 0z"/>
<path d="M612 2623 c-6 -25 -9 -51 -7 -57 2 -6 6 -40 9 -75 5 -61 16 -98 16
-53 0 12 5 22 11 22 8 0 8 4 -1 15 -7 9 -13 50 -14 105 0 49 -2 90 -3 90 -1 0
-6 -21 -11 -47z"/>
<path d="M930 2660 c0 -5 5 -10 11 -10 5 0 7 5 4 10 -3 6 -8 10 -11 10 -2 0
-4 -4 -4 -10z"/>
<path d="M1466 2645 c-3 -12 -17 -33 -30 -48 -13 -14 -27 -36 -31 -47 -3 -11
-10 -20 -14 -20 -11 0 -14 -150 -3 -163 16 -20 20 -87 5 -87 -15 0 -17 -12 -4
-26 5 -5 11 -22 13 -38 2 -18 13 -35 28 -44 14 -9 20 -10 14 -3 -6 6 -9 31 -7
55 3 23 -3 84 -11 135 -15 84 -14 119 1 161 3 8 8 23 10 33 6 31 23 57 38 57
8 0 28 -14 45 -31 27 -29 30 -30 30 -11 0 11 -5 24 -11 28 -6 3 -9 14 -6 24 7
27 -11 50 -38 48 -15 -2 -26 -10 -29 -23z m52 4 c-2 -6 -8 -10 -13 -10 -5 0
-11 4 -13 10 -2 6 4 11 13 11 9 0 15 -5 13 -11z"/>
<path d="M1633 2658 c9 -7 20 -24 25 -38 l9 -25 17 32 c9 18 16 34 16 38 0 3
-19 5 -42 5 -36 0 -39 -2 -25 -12z"/>
<path d="M2845 2660 c3 -5 8 -10 11 -10 2 0 4 5 4 10 0 6 -5 10 -11 10 -5 0
-7 -4 -4 -10z"/>
<path d="M648 2648 c-4 -9 0 -24 7 -35 8 -10 14 -25 15 -33 0 -13 -1 -13 -10
0 -20 31 -9 -4 22 -68 22 -48 33 -62 36 -48 2 12 -3 25 -14 33 -10 7 -14 13
-10 13 4 0 0 10 -8 22 -18 26 -20 38 -6 38 6 0 10 -7 10 -15 0 -8 4 -15 9 -15
5 0 12 -8 14 -17 4 -14 5 -12 6 5 0 12 -4 22 -10 22 -5 0 -7 5 -4 10 3 6 2 10
-3 10 -9 0 -32 41 -42 75 -5 17 -7 18 -12 3z"/>
<path d="M742 2640 c0 -14 2 -19 5 -12 2 6 2 18 0 25 -3 6 -5 1 -5 -13z"/>
<path d="M2900 2649 c0 -5 -6 -9 -14 -9 -9 0 -12 -8 -8 -27 4 -17 7 -22 9 -12
5 19 47 41 67 33 7 -3 21 -22 30 -42 l15 -37 -6 34 c-3 19 -12 41 -20 49 -16
17 -73 25 -73 11z"/>
<path d="M1014 2623 c2 -26 45 -117 52 -110 3 3 0 15 -6 27 -6 12 -9 24 -6 28
3 3 -1 16 -9 29 -9 13 -13 28 -10 33 3 6 0 10 -8 10 -8 0 -14 -8 -13 -17z"/>
<path d="M2460 2633 c0 -5 4 -13 9 -18 32 -36 53 -194 54 -412 0 -51 1 -93 2
-93 1 0 15 20 31 45 15 25 33 45 38 46 13 1 40 5 86 14 29 6 42 2 77 -24 24
-17 45 -31 47 -31 2 0 6 11 8 25 3 13 2 23 -1 22 -13 -3 -107 37 -118 51 -9
10 -9 20 -2 34 5 10 7 23 4 28 -3 6 -2 10 3 10 13 0 -1 63 -20 93 -23 35 -32
141 -14 156 8 7 20 10 26 6 5 -3 10 1 10 10 0 9 5 13 10 10 6 -3 10 -14 10
-24 0 -10 6 -24 13 -30 22 -17 41 -114 34 -170 -4 -36 -3 -51 6 -51 9 0 9 -2
0 -8 -22 -14 -22 -68 -2 -86 11 -9 19 -11 19 -6 0 6 -6 13 -13 16 -8 3 -12 15
-11 27 1 12 3 26 3 30 1 5 10 5 21 2 18 -6 19 -4 10 20 -5 14 -10 56 -10 93 0
42 -7 86 -19 117 -10 28 -19 55 -19 60 -1 6 -9 12 -19 13 -10 2 -24 11 -32 20
-13 16 -13 16 -8 0 5 -13 1 -18 -12 -18 -10 0 -24 -7 -31 -15 -7 -9 -19 -14
-27 -11 -18 7 -17 -31 2 -50 9 -9 15 -34 15 -60 0 -24 4 -44 9 -44 23 0 36
-161 14 -181 -5 -4 -29 -16 -55 -27 l-48 -21 -2 32 c-3 59 -5 72 -15 97 -6 14
-9 34 -7 45 2 11 7 35 10 53 4 20 2 32 -5 32 -20 0 -12 65 14 116 32 63 31 67
-4 24 -30 -35 -40 -36 -45 -4 -3 18 -46 53 -46 37z"/>
<path d="M2132 2585 c-7 -27 -14 -58 -17 -69 -5 -23 -15 -34 -15 -17 0 7 -5 9
-12 5 -8 -5 -9 -2 -5 9 3 10 2 17 -2 17 -16 0 -21 -31 -6 -36 8 -3 17 -21 21
-40 9 -47 21 -43 21 6 0 27 6 45 17 53 13 10 16 25 14 67 l-3 55 -13 -50z"/>
<path d="M10 2456 c0 -86 3 -155 8 -152 8 5 5 296 -3 305 -3 2 -5 -66 -5 -153z"/>
<path d="M1893 2593 c-18 -9 -33 -23 -33 -30 0 -7 -5 -13 -11 -13 -6 0 -8 7
-5 16 3 8 2 13 -3 10 -12 -8 -20 -66 -8 -66 5 0 7 -7 4 -15 -4 -8 -2 -17 3
-20 6 -4 10 -11 10 -16 0 -6 -4 -8 -9 -5 -5 4 -7 -4 -3 -16 3 -14 1 -19 -6
-14 -6 3 -13 -2 -15 -11 -3 -10 -4 6 -2 34 1 29 -2 50 -6 47 -5 -3 -9 -19 -9
-35 0 -17 -4 -28 -10 -24 -6 4 -7 -6 -3 -26 4 -20 2 -30 -4 -26 -5 3 -10 -13
-12 -40 -1 -26 -4 -50 -7 -55 -3 -4 -1 -8 5 -8 5 0 12 14 16 30 4 17 11 30 17
30 6 0 8 6 5 13 -3 8 -1 20 4 28 6 10 9 2 9 -23 0 -55 15 -47 18 10 1 37 7 51
26 67 19 15 23 24 16 35 -7 11 -10 11 -10 2 0 -7 -5 -10 -11 -7 -6 4 -8 9 -5
12 2 3 1 16 -5 30 -5 13 -5 22 0 19 10 -6 44 28 36 36 -13 13 24 15 52 3 34
-15 63 -63 63 -107 0 -22 -5 -28 -22 -28 l-21 0 23 -25 c22 -23 22 -27 10 -85
-7 -33 -19 -65 -26 -71 -8 -6 -14 -17 -14 -25 0 -7 -8 -18 -17 -23 -10 -6 -13
-11 -6 -11 7 0 10 -9 8 -22 -3 -12 -1 -26 4 -32 14 -18 22 -118 12 -153 -7
-25 -6 -33 3 -33 20 0 33 41 30 95 -2 31 2 55 10 65 7 8 16 33 19 55 l5 40
-18 -41 c-20 -46 -47 -72 -35 -34 5 15 2 25 -6 31 -10 6 -11 9 -1 9 6 0 12 5
12 11 0 5 -4 8 -9 5 -5 -4 -7 3 -4 14 3 11 9 20 13 20 4 0 13 14 20 31 7 16
18 28 24 26 16 -6 13 208 -2 246 -11 26 -69 88 -82 86 -3 0 -20 -8 -37 -16z"/>
<path d="M2286 2595 c-3 -10 -15 -15 -28 -13 -21 3 -23 -1 -25 -49 -2 -29 2
-55 7 -58 6 -3 10 -3 11 2 2 24 9 43 28 83 11 24 19 45 17 47 -2 2 -6 -3 -10
-12z"/>
<path d="M790 2590 c0 -5 5 -10 11 -10 5 0 7 5 4 10 -3 6 -8 10 -11 10 -2 0
-4 -4 -4 -10z"/>
<path d="M975 2586 c11 -36 18 -110 18 -181 0 -54 1 -62 7 -35 4 19 8 27 9 18
0 -9 6 -20 13 -24 7 -5 8 -3 3 5 -4 7 -11 43 -17 79 -16 114 -17 123 -29 140
-9 15 -10 15 -4 -2z"/>
<path d="M578 2564 c-2 -42 -1 -73 5 -121 3 -24 1 -45 -4 -48 -5 -4 -9 4 -9
16 0 12 -2 20 -5 17 -9 -8 16 -152 27 -163 7 -7 8 -1 4 19 -18 75 -19 89 -7
82 9 -6 11 18 5 106 -7 113 -13 147 -16 92z"/>
<path d="M760 2581 c0 -5 7 -16 15 -24 8 -8 11 -18 7 -22 -4 -5 -1 -5 6 -1 7
4 15 0 19 -9 5 -15 7 -15 15 -2 9 18 1 47 -14 47 -6 0 -5 -7 2 -15 7 -9 11
-18 8 -21 -3 -3 -17 9 -32 26 -14 17 -26 27 -26 21z"/>
<path d="M830 2585 c0 -5 5 -17 10 -25 5 -8 10 -10 10 -5 0 6 -5 17 -10 25 -5
8 -10 11 -10 5z"/>
<path d="M1580 2555 c0 -31 -3 -37 -11 -25 -9 13 -10 12 -5 -2 3 -10 2 -28 -3
-40 -5 -15 -2 -27 11 -40 25 -25 22 -110 -5 -170 -25 -53 -29 -93 -14 -135 8
-24 17 -33 33 -33 12 0 24 -7 28 -15 3 -8 10 -15 16 -15 7 0 8 6 1 19 -6 10
-7 21 -4 25 4 4 -3 9 -15 13 -12 3 -23 10 -23 17 -5 38 5 115 18 140 11 22 13
46 9 95 -4 36 -8 92 -9 123 -2 68 -27 106 -27 43z"/>
<path d="M1672 2570 c0 -14 2 -19 5 -12 2 6 2 18 0 25 -3 6 -5 1 -5 -13z"/>
<path d="M543 2568 c-6 -7 -15 -41 -20 -76 -8 -51 -7 -62 4 -58 9 4 13 -4 13
-26 0 -42 6 -33 14 22 4 28 3 40 -3 31 -15 -24 -18 18 -5 72 13 50 12 55 -3
35z"/>
<path d="M864 2535 c4 -34 3 -43 -3 -30 -9 19 -10 19 -10 -4 -1 -15 3 -21 12
-18 14 5 17 -10 20 -100 0 -23 4 -40 8 -38 4 3 9 -5 13 -17 10 -40 25 -6 16
37 -4 22 -8 32 -9 23 0 -9 -5 -20 -11 -23 -6 -4 -8 5 -4 22 5 28 -21 182 -33
193 -3 3 -3 -17 1 -45z"/>
<path d="M1221 2562 c0 -7 -6 -10 -12 -7 -6 4 -5 -3 3 -14 11 -18 11 -23 0
-30 -8 -4 -16 -28 -18 -52 l-5 -44 21 59 c12 32 19 68 17 80 -2 11 -5 15 -6 8z"/>
<path d="M1011 2540 c0 -14 4 -32 9 -40 9 -13 10 -13 9 0 -1 8 -5 26 -9 40
l-8 25 -1 -25z"/>
<path d="M2349 2534 c-11 -14 -10 -15 11 -12 13 1 25 9 28 16 5 17 -23 15 -39
-4z"/>
<path d="M2977 2530 c-3 -11 -1 -20 3 -20 5 0 11 -12 13 -27 2 -17 5 -10 6 20
1 47 -12 64 -22 27z"/>
<path d="M1662 2468 c1 -43 6 -78 10 -78 4 0 8 9 8 19 0 11 5 21 10 23 6 2 3
24 -9 58 l-20 55 1 -77z"/>
<path d="M430 2521 c8 -5 18 -7 23 -4 5 3 1 -6 -8 -21 -10 -14 -14 -26 -10
-26 4 0 3 -6 -2 -12 -14 -19 -24 -48 -15 -48 4 0 13 15 21 33 8 17 21 40 29
50 18 21 14 26 -24 33 -21 3 -25 2 -14 -5z"/>
<path d="M891 2514 c0 -11 3 -14 6 -6 3 7 2 16 -1 19 -3 4 -6 -2 -5 -13z"/>
<path d="M640 2500 c0 -5 5 -10 11 -10 5 0 7 5 4 10 -3 6 -8 10 -11 10 -2 0
-4 -4 -4 -10z"/>
<path d="M820 2491 c0 -5 5 -13 10 -16 6 -3 10 -2 10 4 0 5 -4 13 -10 16 -5 3
-10 2 -10 -4z"/>
<path d="M1084 2482 c1 -10 7 -28 13 -42 6 -14 17 -51 24 -82 7 -32 15 -58 18
-58 4 0 7 21 8 48 0 38 -1 41 -6 17 -7 -30 -7 -29 -14 12 -4 23 -4 49 0 58 4
11 0 21 -11 27 -9 5 -14 13 -11 18 3 4 -1 10 -9 13 -8 3 -13 -1 -12 -11z"/>
<path d="M2947 2483 c-10 -10 -8 -33 2 -33 6 0 9 9 8 20 -1 23 -1 22 -10 13z"/>
<path d="M1461 2471 c-11 -7 -9 -11 9 -21 27 -14 34 -9 17 13 -8 11 -17 14
-26 8z"/>
<path d="M2436 2465 c-3 -9 -2 -14 3 -11 8 5 20 -56 22 -118 l1 -31 7 30 c6
26 -10 130 -22 141 -3 3 -7 -2 -11 -11z"/>
<path d="M920 2463 c0 -14 19 -38 25 -32 8 8 -5 39 -16 39 -5 0 -9 -3 -9 -7z"/>
<path d="M652 2448 c-7 -7 -12 -19 -12 -28 0 -9 -4 -20 -8 -25 -5 -6 -5 -23
-1 -40 l8 -30 -1 30 c0 49 2 51 19 17 8 -18 18 -31 20 -28 3 2 -1 14 -7 26 -7
12 -10 38 -8 56 2 19 4 34 3 34 -1 0 -6 -5 -13 -12z"/>
<path d="M748 2434 c12 -8 20 -20 17 -25 -4 -5 0 -9 8 -9 8 0 22 -11 31 -25
19 -28 21 -39 5 -29 -18 11 18 -49 43 -72 29 -26 64 -45 71 -38 8 8 -4 44 -15
44 -5 0 -6 -6 -3 -12 4 -7 0 -5 -8 5 -8 9 -20 17 -26 17 -7 0 -10 4 -6 9 3 5
1 12 -5 16 -5 3 -10 1 -10 -6 0 -8 -4 -8 -15 1 -9 7 -13 20 -10 28 10 27 -57
112 -89 112 -6 0 0 -7 12 -16z"/>
<path d="M830 2443 c0 -12 34 -53 44 -53 7 0 6 3 -2 9 -7 4 -14 17 -15 28 0
11 -7 20 -14 20 -7 0 -13 -2 -13 -4z"/>
<path d="M961 2434 c0 -11 3 -14 6 -6 3 7 2 16 -1 19 -3 4 -6 -2 -5 -13z"/>
<path d="M1020 2443 c0 -4 5 -15 10 -23 8 -13 10 -13 10 2 0 9 -4 20 -10 23
-5 3 -10 3 -10 -2z"/>
<path d="M1211 2434 c0 -11 3 -14 6 -6 3 7 2 16 -1 19 -3 4 -6 -2 -5 -13z"/>
<path d="M491 2368 c-1 -68 1 -76 17 -71 17 4 26 43 10 43 -4 0 -8 12 -9 28
-1 15 -5 38 -9 52 -6 18 -8 2 -9 -52z"/>
<path d="M1895 2430 c3 -5 8 -10 11 -10 2 0 4 5 4 10 0 6 -5 10 -11 10 -5 0
-7 -4 -4 -10z"/>
<path d="M449 2420 c-1 -5 -2 -14 -3 -20 0 -5 -10 -16 -21 -24 -11 -8 -17 -18
-12 -22 4 -4 7 -2 7 4 0 7 7 12 15 12 8 0 15 3 16 8 0 4 2 17 5 30 2 12 2 22
-1 22 -3 0 -6 -4 -6 -10z"/>
<path d="M2326 2423 c-9 -10 -7 -53 3 -53 11 0 21 49 11 55 -4 2 -10 2 -14 -2z"/>
<path d="M1044 2396 c-3 -14 -2 -31 3 -40 6 -11 8 -3 8 24 0 46 -2 50 -11 16z"/>
<path d="M1207 2389 c4 -13 8 -18 11 -10 2 7 -1 18 -6 23 -8 8 -9 4 -5 -13z"/>
<path d="M726 2385 c4 -8 10 -15 15 -15 5 0 9 -8 10 -17 0 -10 3 -13 5 -6 6
14 -13 53 -26 53 -5 0 -7 -7 -4 -15z"/>
<path d="M1071 2375 c0 -16 4 -48 8 -70 l9 -40 0 50 c0 28 -3 59 -8 70 -7 17
-9 16 -9 -10z"/>
<path d="M2390 2370 c0 -11 5 -20 10 -20 6 0 10 9 10 20 0 11 -4 20 -10 20 -5
0 -10 -9 -10 -20z"/>
<path d="M970 2359 c0 -11 -4 -17 -10 -14 -7 4 -7 -3 0 -20 14 -36 12 -44 -4
-22 -12 15 -14 15 -19 3 -4 -9 0 -19 7 -23 8 -5 15 -16 17 -25 3 -13 8 -15 19
-7 10 7 11 12 4 15 -7 3 -10 25 -7 59 2 30 1 55 -2 55 -3 0 -5 -9 -5 -21z"/>
<path d="M540 2338 c0 -36 4 -35 14 5 4 16 2 27 -4 27 -5 0 -10 -14 -10 -32z"/>
<path d="M2094 2352 c0 -10 6 -19 13 -19 8 0 9 6 2 19 -5 10 -11 18 -12 18 -2
0 -3 -8 -3 -18z"/>
<path d="M445 2343 c-4 -10 -9 -31 -11 -48 -2 -16 -7 -46 -10 -65 -4 -19 -5
-33 -3 -30 2 3 15 18 29 35 14 16 18 24 9 18 -13 -11 -15 -8 -12 25 1 20 5 47
8 60 6 26 0 29 -10 5z"/>
<path d="M1208 2326 c2 -20 8 -36 13 -36 13 0 11 34 -4 54 -12 16 -13 14 -9
-18z"/>
<path d="M1496 2347 c3 -10 9 -15 12 -12 3 3 0 11 -7 18 -10 9 -11 8 -5 -6z"/>
<path d="M601 2334 c0 -11 3 -14 6 -6 3 7 2 16 -1 19 -3 4 -6 -2 -5 -13z"/>
<path d="M1014 2341 c4 -6 0 -18 -9 -27 -14 -15 -14 -18 8 -38 14 -13 28 -33
32 -45 6 -20 25 -21 25 0 0 6 -4 7 -10 4 -6 -4 -10 12 -10 42 l-1 48 -14 -30
-14 -30 4 37 c3 22 0 40 -7 44 -7 4 -8 3 -4 -5z"/>
<path d="M650 2331 c0 -5 5 -13 10 -16 6 -3 10 -2 10 4 0 5 -4 13 -10 16 -5 3
-10 2 -10 -4z"/>
<path d="M770 2330 c0 -22 16 -43 30 -38 8 2 5 11 -9 28 -14 17 -20 20 -21 10z"/>
<path d="M700 2326 c0 -2 8 -10 18 -17 15 -13 16 -12 3 4 -13 16 -21 21 -21
13z"/>
<path d="M1900 2321 c0 -5 5 -13 10 -16 6 -3 10 -2 10 4 0 5 -4 13 -10 16 -5
3 -10 2 -10 -4z"/>
<path d="M2275 2297 c-4 -19 -4 -44 0 -56 3 -11 6 -47 6 -81 1 -68 18 -84 20
-17 1 23 1 45 0 49 0 4 -3 35 -5 68 -5 73 -12 85 -21 37z"/>
<path d="M627 2314 c-7 -8 2 -55 13 -67 4 -4 13 0 21 10 7 10 9 15 5 11 -12
-10 -39 29 -31 42 7 11 2 13 -8 4z"/>
<path d="M510 2280 c0 -5 -7 -7 -15 -4 -8 4 -15 1 -15 -5 0 -6 11 -10 25 -9
23 2 37 28 15 28 -5 0 -10 -4 -10 -10z"/>
<path d="M1837 2269 c4 -13 8 -18 11 -10 2 7 -1 18 -6 23 -8 8 -9 4 -5 -13z"/>
<path d="M716 2262 c-3 -5 1 -9 9 -9 8 0 15 4 15 9 0 4 -4 8 -9 8 -6 0 -12 -4
-15 -8z"/>
<path d="M1742 2230 c-2 -27 1 -40 10 -40 11 0 11 -2 0 -9 -10 -6 -9 -13 7
-32 l20 -24 -2 51 c-1 29 -5 50 -9 47 -5 -2 -9 1 -9 6 -3 26 -4 30 -10 35 -3
3 -6 -12 -7 -34z"/>
<path d="M351 2251 c-7 -5 -11 -13 -7 -19 3 -6 1 -14 -5 -18 -7 -4 -9 -3 -5 4
3 6 1 14 -5 18 -10 6 -28 -11 -29 -26 0 -12 48 -9 58 3 7 9 14 48 8 47 -1 0
-7 -4 -15 -9z"/>
<path d="M601 2246 c-8 -9 -11 -19 -7 -23 9 -9 29 13 24 27 -2 8 -8 7 -17 -4z"/>
<path d="M1076 2245 c4 -8 8 -15 10 -15 2 0 4 7 4 15 0 8 -4 15 -10 15 -5 0
-7 -7 -4 -15z"/>
<path d="M1328 2253 c7 -3 16 -2 19 1 4 3 -2 6 -13 5 -11 0 -14 -3 -6 -6z"/>
<path d="M540 2238 c0 -4 8 -8 18 -8 14 0 15 -2 2 -10 -13 -8 -12 -10 3 -10 9
0 17 -4 17 -10 0 -5 -7 -10 -16 -10 -8 0 -12 -4 -9 -10 4 -6 13 -5 25 2 16 10
17 14 4 33 -8 12 -11 24 -8 28 3 3 -3 5 -15 4 -11 -1 -21 -5 -21 -9z"/>
<path d="M669 2237 c-14 -10 -14 -16 -2 -44 7 -18 18 -33 24 -33 8 0 7 6 -2
16 -12 15 -11 16 9 10 15 -5 22 -3 22 5 0 7 -3 9 -7 6 -3 -4 -15 0 -25 9 -14
13 -15 20 -7 31 14 16 9 16 -12 0z"/>
<path d="M1270 2230 c-14 -11 -34 -27 -45 -35 -11 -9 -14 -15 -6 -15 8 0 11
-6 7 -16 -7 -19 -20 -317 -18 -406 3 -65 24 -186 37 -207 3 -6 0 -11 -7 -11
-10 0 -10 -2 1 -9 8 -5 11 -16 8 -26 -4 -10 -3 -14 4 -9 6 3 9 15 6 25 -7 25
6 32 29 15 16 -12 19 -29 20 -113 1 -54 5 -110 9 -124 5 -20 2 -28 -11 -33
-14 -5 -15 -9 -6 -15 8 -4 15 -14 16 -22 5 -23 18 -49 25 -49 11 0 3 121 -9
135 -6 8 -11 40 -10 72 1 63 -5 163 -11 166 -2 1 -13 7 -24 13 -35 19 -46 100
-47 344 -1 237 6 294 42 305 10 3 21 12 24 20 7 20 -4 18 -34 -5z"/>
<path d="M2441 2223 c-7 -8 -11 -16 -8 -19 2 -2 10 2 17 11 17 20 9 27 -9 8z"/>
<path d="M514 2215 c-5 -11 -11 -12 -24 -5 -22 12 -50 3 -50 -16 0 -16 16 -19
25 -4 5 8 11 7 21 -1 14 -12 36 3 42 29 3 17 -7 15 -14 -3z"/>
<path d="M1688 2223 c7 -3 16 -2 19 1 4 3 -2 6 -13 5 -11 0 -14 -3 -6 -6z"/>
<path d="M15 2209 c-4 -6 -5 -12 -2 -15 2 -3 7 2 10 11 7 17 1 20 -8 4z"/>
<path d="M615 2210 c-3 -6 1 -7 9 -4 18 7 21 14 7 14 -6 0 -13 -4 -16 -10z"/>
<path d="M765 2210 c-3 -5 -2 -10 4 -10 5 0 13 5 16 10 3 6 2 10 -4 10 -5 0
-13 -4 -16 -10z"/>
<path d="M793 2195 c-18 -23 -22 -24 -35 -11 -14 13 -17 12 -26 -10 -10 -21
-9 -24 8 -24 10 0 30 4 43 9 14 6 28 7 31 4 17 -17 72 -6 100 19 l29 27 -36
-13 c-20 -7 -40 -15 -43 -19 -12 -11 -54 -8 -54 4 0 6 9 9 19 6 12 -3 22 1 25
9 3 8 1 14 -3 14 -5 0 -16 2 -23 5 -8 3 -23 -6 -35 -20z"/>
<path d="M1107 2190 c-20 -39 -33 -192 -18 -216 10 -18 11 -18 12 4 6 62 8 82
12 142 3 36 8 73 12 83 12 29 -2 19 -18 -13z"/>
<path d="M2158 2204 c-16 -8 -28 -16 -28 -17 0 -1 18 -2 40 -2 22 0 40 1 40 2
0 9 -14 33 -19 33 -3 -1 -18 -8 -33 -16z"/>
<path d="M2920 2206 c0 -14 29 -30 38 -21 3 3 0 5 -7 5 -8 0 -11 7 -7 15 3 9
0 15 -9 15 -8 0 -15 -6 -15 -14z"/>
<path d="M2060 2201 c0 -5 8 -19 18 -32 32 -41 52 -106 62 -204 6 -52 10 -100
9 -107 -1 -7 -1 -22 0 -33 1 -16 3 -17 10 -6 12 19 4 167 -10 203 -9 23 -8 33
6 54 9 14 14 28 11 32 -3 3 -6 0 -6 -6 0 -31 -29 -6 -49 42 -12 30 -29 57 -37
60 -8 3 -14 2 -14 -3z"/>
<path d="M2830 2201 c0 -5 7 -12 16 -15 8 -3 12 -10 9 -16 -3 -5 -1 -10 6 -10
22 0 68 -58 80 -102 15 -54 26 -228 17 -265 -3 -16 -11 -104 -18 -196 -11
-166 -42 -332 -53 -292 -4 11 -4 -10 -1 -48 2 -37 9 -78 14 -91 5 -13 10 -62
11 -109 3 -87 15 -148 20 -97 4 50 -2 176 -11 230 -8 45 -6 70 10 135 12 44
23 98 25 120 3 22 9 62 14 88 5 26 6 49 2 51 -6 4 2 130 13 206 8 55 6 195 -4
195 -1 0 -4 15 -7 34 -6 45 -49 141 -63 141 -6 0 -9 4 -5 9 3 6 -4 8 -15 6
-13 -2 -25 4 -33 16 -12 20 -27 25 -27 10z"/>
<path d="M376 2192 c-2 -4 -1 -14 5 -22 7 -12 9 -10 9 8 0 23 -5 28 -14 14z"/>
<path d="M312 2178 c-9 -9 -9 -15 0 -26 9 -10 8 -16 -3 -23 -8 -5 -9 -9 -3 -9
21 0 63 40 57 55 -6 18 -34 20 -51 3z m20 -20 c-7 -7 -12 -8 -12 -2 0 14 12
26 19 19 2 -3 -1 -11 -7 -17z"/>
<path d="M516 2178 c-10 -5 -25 -11 -34 -12 -10 -2 -16 -7 -14 -12 3 -12 24
-13 38 -2 7 5 18 2 28 -7 9 -10 16 -12 16 -5 0 6 4 9 9 5 5 -3 13 0 16 6 5 6
0 10 -11 9 -11 -1 -26 -2 -34 -1 -13 1 -13 2 0 11 21 13 9 21 -14 8z"/>
<path d="M610 2180 c-13 -8 -12 -10 3 -10 9 0 17 5 17 10 0 12 -1 12 -20 0z"/>
<path d="M1040 2180 c0 -5 5 -10 10 -10 6 0 10 5 10 10 0 6 -4 10 -10 10 -5 0
-10 -4 -10 -10z"/>
<path d="M1825 2136 c-4 -30 -12 -54 -17 -53 -6 1 -12 -6 -13 -16 -3 -14 0
-15 9 -8 7 6 15 8 18 5 4 -3 9 14 13 37 5 30 10 38 16 28 7 -10 9 -3 7 20 -5
57 -26 49 -33 -13z"/>
<path d="M430 2156 c0 -8 5 -18 10 -21 6 -3 10 -15 10 -26 0 -10 4 -19 9 -19
5 0 7 -9 4 -19 -3 -11 -11 -17 -18 -15 -18 7 -28 -26 -13 -44 7 -9 8 -13 2 -9
-6 3 -10 -2 -9 -13 3 -37 14 -32 25 11 9 31 14 39 21 28 6 -9 9 1 9 33 0 25 2
53 5 61 4 9 -1 13 -17 13 -17 -1 -22 4 -20 17 2 9 -2 17 -8 17 -5 0 -10 -6
-10 -14z"/>
<path d="M2197 2163 c-2 -4 0 -19 6 -33 l10 -25 5 24 c4 24 -12 50 -21 34z"/>
<path d="M635 2150 c4 -6 11 -8 16 -5 14 9 11 15 -7 15 -8 0 -12 -5 -9 -10z"/>
<path d="M2855 2140 c-3 -5 -1 -10 4 -10 6 0 11 5 11 10 0 6 -2 10 -4 10 -3 0
-8 -4 -11 -10z"/>
<path d="M348 2123 c-9 -10 -19 -29 -23 -43 l-7 -25 24 22 c13 12 24 32 25 43
2 24 0 25 -19 3z"/>
<path d="M580 2130 c-8 -5 -11 -12 -8 -16 4 -3 14 1 23 10 18 17 9 21 -15 6z"/>
<path d="M705 2131 c3 -2 -2 -13 -12 -23 -24 -27 -6 -22 24 7 25 23 26 24 5
22 -11 0 -19 -3 -17 -6z"/>
<path d="M1730 2113 c6 -13 8 -23 6 -23 -3 0 1 -17 8 -38 8 -21 17 -61 20 -88
4 -27 11 -65 16 -84 30 -112 19 -239 -21 -261 -15 -8 -18 -14 -10 -23 6 -7 8
-15 5 -19 -3 -3 1 -16 9 -29 8 -12 20 -48 27 -78 7 -30 16 -65 21 -78 18 -46
11 -76 -24 -96 -80 -48 -129 -67 -173 -70 -26 -1 -50 -8 -52 -14 -2 -7 -25
-12 -56 -12 -57 0 -106 -18 -106 -39 0 -9 6 -11 18 -6 9 4 60 16 112 26 155
30 230 60 285 116 l30 30 -13 59 c-7 32 -14 69 -17 82 -2 12 -13 41 -24 65
-26 54 -26 58 0 91 11 14 18 26 16 26 -3 0 1 19 8 43 8 27 10 58 6 83 -4 22
-7 50 -6 62 1 12 -1 22 -5 22 -3 0 -7 13 -8 28 -1 15 -9 52 -17 82 -23 81 -23
84 -24 100 -1 8 -11 26 -22 40 -18 23 -19 23 -9 3z"/>
<path d="M2406 2104 c-4 -14 -5 -28 -3 -31 3 -2 8 8 11 23 4 14 5 28 3 31 -3
2 -8 -8 -11 -23z"/>
<path d="M494 2095 c-3 -13 -4 -30 -1 -37 3 -7 6 -1 6 13 1 30 28 47 37 24 4
-10 14 -13 28 -9 24 6 65 -29 47 -40 -5 -4 -16 3 -24 15 -8 11 -16 16 -18 11
-2 -6 -13 -12 -24 -14 -11 -1 -23 -7 -27 -13 -11 -15 -10 -45 2 -45 6 0 10 6
10 14 0 15 44 48 53 39 3 -3 -2 -17 -12 -32 -19 -26 -47 -148 -37 -158 2 -3 8
11 11 31 4 20 11 38 15 41 5 3 6 13 3 23 -5 22 44 85 59 75 6 -3 8 -1 4 5 -3
6 9 15 30 22 19 7 33 14 31 16 -2 3 -17 0 -32 -6 -22 -9 -31 -7 -47 7 -17 15
-81 42 -100 43 -4 0 -10 -11 -14 -25z"/>
<path d="M622 2107 c18 -19 38 -22 38 -7 0 6 -4 10 -9 10 -5 0 -18 3 -28 7
-17 6 -17 6 -1 -10z"/>
<path d="M754 2105 c-24 -18 -7 -19 26 0 16 9 19 14 9 15 -8 0 -24 -7 -35 -15z"/>
<path d="M2511 2084 c0 -11 3 -14 6 -6 3 7 2 16 -1 19 -3 4 -6 -2 -5 -13z"/>
<path d="M1412 2060 c0 -19 2 -27 5 -17 2 9 2 25 0 35 -3 9 -5 1 -5 -18z"/>
<path d="M179 2078 c-5 -9 -5 -48 -1 -43 6 6 11 45 5 45 -2 0 -4 -1 -4 -2z"/>
<path d="M725 2060 c-10 -11 -14 -20 -8 -20 5 0 18 9 28 20 10 11 14 20 8 20
-5 0 -18 -9 -28 -20z"/>
<path d="M2464 2068 c-5 -7 -3 -8 6 -3 11 7 12 -11 6 -91 -9 -132 -15 -186
-21 -192 -3 -3 -5 9 -5 26 0 18 -4 40 -9 50 -11 23 -41 110 -50 147 -6 28 -8
28 -13 8 -3 -13 2 -39 14 -62 10 -22 21 -57 22 -78 4 -53 16 -113 28 -145 14
-37 1 -121 -23 -147 -22 -23 -24 -32 -7 -29 6 2 13 -10 14 -25 3 -26 1 -27
-14 -15 -15 12 -16 11 -4 -4 11 -14 12 -42 7 -130 -4 -62 -9 -138 -10 -168 -4
-85 -16 -180 -24 -204 -5 -12 -6 -27 -4 -33 3 -7 0 -13 -7 -13 -7 0 -8 -6 0
-19 5 -11 10 -29 10 -40 0 -11 4 -22 8 -25 4 -2 9 24 10 58 2 34 9 91 16 127
7 35 14 129 15 209 1 79 8 181 16 225 7 44 17 103 21 130 4 28 9 57 10 65 2 8
8 65 14 125 6 61 14 137 19 170 9 66 9 70 -19 85 -13 7 -21 7 -26 -2z"/>
<path d="M329 2043 l-24 -28 28 24 c15 14 27 26 27 28 0 8 -8 1 -31 -24z"/>
<path d="M2180 2059 c0 -5 5 -7 10 -4 6 3 10 8 10 11 0 2 -4 4 -10 4 -5 0 -10
-5 -10 -11z"/>
<path d="M331 2009 c-11 -19 -25 -39 -30 -46 -21 -24 -11 -26 14 -3 14 13 25
18 25 12 0 -6 -5 -14 -10 -17 -7 -4 -6 -13 1 -26 6 -12 7 -24 3 -27 -4 -4 -9
-1 -11 6 -3 6 -12 12 -21 12 -15 -1 -15 -2 1 -11 14 -8 15 -14 7 -24 -9 -10
-7 -13 5 -11 9 1 21 9 25 17 5 8 14 14 20 14 5 0 10 4 9 9 0 5 5 13 13 17 9 6
9 9 1 9 -6 0 -15 -4 -18 -10 -13 -21 -21 -9 -20 33 0 23 4 48 9 55 4 7 6 16 3
19 -3 3 -15 -10 -26 -28z"/>
<path d="M645 2020 c3 -5 0 -10 -8 -10 -8 0 -18 -7 -21 -16 -9 -25 -8 -26 17
-9 13 8 27 12 32 8 4 -5 5 -2 1 5 -4 6 -2 12 3 12 6 0 11 5 11 10 0 6 -9 10
-21 10 -11 0 -17 -4 -14 -10z"/>
<path d="M2307 2017 c-11 -29 -9 -43 4 -30 6 6 9 19 7 29 -3 18 -4 18 -11 1z"/>
<path d="M2185 2009 c-4 -5 -5 -13 -2 -16 3 -3 2 -16 -3 -29 -5 -13 -6 -24 -1
-24 11 0 31 69 21 75 -5 3 -12 0 -15 -6z"/>
<path d="M12 1965 c0 -16 2 -22 5 -12 2 9 2 23 0 30 -3 6 -5 -1 -5 -18z"/>
<path d="M500 1985 c0 -5 5 -17 10 -25 5 -8 10 -10 10 -5 0 6 -5 17 -10 25 -5
8 -10 11 -10 5z"/>
<path d="M1671 1964 c0 -11 3 -14 6 -6 3 7 2 16 -1 19 -3 4 -6 -2 -5 -13z"/>
<path d="M2251 1963 c1 -10 0 -20 -1 -23 -7 -19 -13 -74 -11 -104 2 -33 11
-11 21 49 5 31 12 65 15 76 5 13 2 19 -10 19 -9 0 -16 -7 -14 -17z"/>
<path d="M480 1950 c0 -14 5 -32 10 -40 8 -12 10 -10 10 10 0 14 -5 32 -10 40
-8 12 -10 10 -10 -10z"/>
<path d="M835 1960 c11 -4 35 -14 53 -20 55 -21 35 -77 -23 -62 -38 10 -42 27
-8 30 50 4 37 12 -20 12 -44 0 -57 -3 -57 -15 0 -8 6 -14 12 -12 7 1 19 -12
27 -30 16 -37 35 -47 53 -30 7 7 20 12 28 12 8 0 14 8 14 18 -1 9 5 17 13 17
10 0 14 7 10 20 -4 17 -2 18 14 9 10 -5 19 -6 19 -1 0 25 -79 63 -129 61 -23
0 -24 -1 -6 -9z m30 -100 c3 -5 2 -10 -4 -10 -5 0 -13 5 -16 10 -3 6 -2 10 4
10 5 0 13 -4 16 -10z"/>
<path d="M450 1949 c0 -5 -5 -7 -11 -3 -7 4 -9 -2 -7 -17 2 -13 9 -23 16 -21
15 3 15 -14 -2 -108 -8 -42 -26 -99 -41 -127 -25 -49 -27 -73 -4 -73 6 0 8 4
5 9 -3 5 11 44 31 87 32 68 37 86 36 148 -2 90 -5 116 -15 116 -4 0 -8 -5 -8
-11z"/>
<path d="M623 1944 c-7 -7 -13 -21 -13 -31 0 -16 1 -16 16 -1 9 8 14 22 12 31
-2 13 -5 13 -15 1z"/>
<path d="M1032 1937 c-39 -28 -52 -57 -51 -110 1 -23 4 -32 6 -19 2 12 8 22
13 22 4 0 10 9 13 19 3 14 11 18 26 14 17 -4 20 -2 15 11 -3 9 -15 16 -26 16
-17 0 -18 2 -8 15 7 9 15 13 18 10 3 -3 12 4 20 16 20 29 11 32 -26 6z"/>
<path d="M2055 1935 c0 -13 2 -26 5 -29 3 -3 6 5 5 19 0 13 -2 26 -5 29 -3 3
-6 -5 -5 -19z"/>
<path d="M186 1905 c-3 -8 -1 -15 4 -15 6 0 10 7 10 15 0 8 -2 15 -4 15 -2 0
-6 -7 -10 -15z"/>
<path d="M560 1916 c0 -2 7 -7 16 -10 8 -3 12 -2 9 4 -6 10 -25 14 -25 6z"/>
<path d="M376 1873 c-6 -14 -5 -15 5 -6 7 7 10 15 7 18 -3 3 -9 -2 -12 -12z"/>
<path d="M570 1876 c0 -9 -4 -16 -8 -16 -4 0 -8 -16 -8 -35 0 -19 3 -35 6 -35
10 0 27 91 18 96 -4 3 -8 -2 -8 -10z"/>
<path d="M2057 1870 c3 -11 7 -20 9 -20 2 0 4 9 4 20 0 11 -4 20 -9 20 -5 0
-7 -9 -4 -20z"/>
<path d="M11 1864 c0 -11 3 -14 6 -6 3 7 2 16 -1 19 -3 4 -6 -2 -5 -13z"/>
<path d="M347 1867 c-4 -10 -11 -15 -17 -12 -6 4 -7 -1 -3 -11 5 -14 3 -16
-13 -11 -18 7 -18 6 -1 -7 22 -17 22 -22 -5 -31 -21 -6 -21 -8 -4 -12 25 -7
57 24 38 36 -11 7 -11 9 1 14 8 3 18 2 23 -2 5 -5 17 0 27 11 9 10 13 18 8 18
-6 0 -13 -4 -16 -10 -11 -17 -23 -11 -27 13 -3 19 -4 20 -11 4z"/>
<path d="M1656 1844 c-7 -18 0 -34 15 -34 5 0 9 11 9 25 0 28 -15 34 -24 9z"/>
<path d="M2630 1850 c0 -5 5 -10 11 -10 5 0 7 5 4 10 -3 6 -8 10 -11 10 -2 0
-4 -4 -4 -10z"/>
<path d="M519 1818 c-4 -31 -1 -39 18 -49 12 -6 24 -21 26 -33 3 -14 5 -11 6
10 1 25 -3 31 -16 30 -14 -1 -19 9 -23 39 l-6 40 -5 -37z"/>
<path d="M12 1810 c0 -19 2 -27 5 -17 2 9 2 25 0 35 -3 9 -5 1 -5 -18z"/>
<path d="M1026 1806 c-5 -26 -3 -42 5 -50 9 -8 10 -8 5 2 -4 7 -4 18 2 25 5 7
6 23 2 37 -6 23 -7 22 -14 -14z"/>
<path d="M1367 1823 c-2 -5 0 -21 4 -38 3 -16 7 -22 8 -13 0 9 9 22 19 27 15
9 14 10 -6 11 -13 0 -20 4 -17 10 3 6 4 10 1 10 -3 0 -7 -3 -9 -7z"/>
<path d="M393 1808 c-16 -22 -53 -107 -53 -123 0 -9 -4 -14 -8 -11 -5 3 -15
-4 -22 -14 -12 -17 -17 -18 -35 -6 -19 13 -22 11 -34 -15 -9 -21 -20 -29 -39
-30 -69 -1 -104 -10 -151 -39 -28 -18 -51 -36 -51 -41 0 -14 15 -11 41 10 41
31 97 53 119 46 35 -11 80 5 90 31 5 13 14 24 19 24 11 0 6 -62 -8 -88 -7 -14
-6 -28 7 -55 16 -34 38 -53 26 -24 -3 8 0 35 6 60 8 36 7 52 -2 67 -11 18 -10
23 11 39 14 11 32 16 40 13 11 -4 10 -8 -7 -15 -12 -6 -22 -14 -22 -19 0 -10
36 7 45 22 4 6 1 17 -5 25 -10 12 -9 15 3 15 9 0 28 21 43 46 21 36 24 48 14
57 -9 8 -11 8 -7 1 9 -15 -19 -70 -40 -78 -22 -9 -27 -1 -9 17 8 8 13 17 10
20 -3 2 4 21 15 41 20 36 22 48 4 24z m-106 -260 c-3 -8 -6 -5 -6 6 -1 11 2
17 5 13 3 -3 4 -12 1 -19z"/>
<path d="M2622 1801 c-11 -7 -11 -9 2 -14 10 -4 16 -1 16 8 0 17 -1 17 -18 6z"/>
<path d="M2271 1790 c0 -8 4 -22 9 -30 12 -18 12 -2 0 25 -6 13 -9 15 -9 5z"/>
<path d="M347 1772 c-18 -20 -22 -32 -9 -32 4 0 12 11 19 25 13 30 12 31 -10
7z"/>
<path d="M294 1738 c-9 -18 -11 -28 -4 -21 7 6 20 9 29 6 12 -4 13 -2 3 4 -7
5 -10 17 -6 26 11 30 -5 18 -22 -15z"/>
<path d="M2318 1756 c-10 -7 -16 -15 -13 -17 2 -3 5 -37 6 -77 1 -39 6 -72 11
-72 4 0 8 -6 8 -14 0 -8 6 -16 14 -19 11 -5 11 0 -1 25 -12 23 -14 50 -10 109
3 44 4 79 4 79 -1 0 -10 -7 -19 -14z"/>
<path d="M876 1729 c-18 -29 -10 -70 17 -86 8 -4 17 -17 20 -28 5 -19 5 -19
12 3 4 12 12 22 17 22 5 0 6 5 3 10 -3 6 -17 10 -30 10 -28 0 -43 33 -25 55 7
8 10 20 8 27 -3 8 -11 3 -22 -13z"/>
<path d="M1003 1743 c-9 -3 -11 -19 -6 -51 9 -72 23 -74 23 -4 0 34 -1 62 -2
61 -2 0 -8 -3 -15 -6z"/>
<path d="M460 1684 c0 -14 4 -23 10 -19 6 3 10 15 10 26 0 10 -4 19 -10 19 -5
0 -10 -12 -10 -26z"/>
<path d="M572 1690 c0 -14 2 -19 5 -12 2 6 2 18 0 25 -3 6 -5 1 -5 -13z"/>
<path d="M2201 1683 c0 -17 4 -35 9 -38 6 -3 10 -26 10 -51 0 -24 4 -44 10
-44 12 0 4 88 -9 104 -5 6 -11 22 -14 36 -4 21 -4 20 -6 -7z"/>
<path d="M840 1682 c0 -5 -13 -22 -30 -38 -28 -27 -39 -54 -22 -54 8 1 72 83
72 93 0 4 -4 7 -10 7 -5 0 -10 -4 -10 -8z"/>
<path d="M548 1638 c-10 -12 -18 -27 -18 -33 0 -6 3 -6 8 1 4 6 17 16 30 23
26 14 30 8 56 -106 18 -77 86 -250 86 -221 0 9 -5 29 -11 45 -31 79 -79 226
-75 230 2 2 24 -15 48 -39 38 -36 48 -55 68 -126 18 -66 22 -98 17 -161 -3
-43 -10 -88 -16 -99 -17 -32 -14 -190 4 -208 21 -21 19 -34 -5 -34 -11 0 -20
6 -20 14 0 27 -23 30 -42 6 -10 -12 -21 -20 -25 -17 -3 4 0 13 7 22 8 10 9 15
1 15 -6 0 -11 -5 -11 -11 0 -5 -4 -8 -9 -4 -5 3 -35 -4 -65 -16 -50 -18 -56
-23 -56 -50 0 -32 11 -37 30 -14 15 19 51 16 58 -4 3 -9 -2 -11 -17 -6 -15 5
-21 2 -21 -9 0 -9 -3 -15 -7 -15 -31 5 -52 -4 -57 -23 -11 -36 -13 -91 -4
-110 12 -24 -7 -23 -42 2 -26 18 -28 28 -44 147 -9 71 -18 142 -20 160 -1 17
-9 40 -17 49 -9 11 -16 51 -19 108 -4 65 -9 90 -17 88 -17 -3 -16 6 2 25 11
11 14 27 11 57 -3 22 -11 95 -17 161 -10 95 -14 113 -20 86 -4 -19 -5 -44 -2
-55 2 -12 6 -60 8 -107 1 -47 6 -96 9 -110 l7 -24 -16 25 c-15 24 -15 24 -9
-20 3 -25 9 -49 14 -55 8 -11 24 -123 16 -114 -12 12 -65 231 -59 247 4 15 3
15 -6 2 -7 -9 -11 -10 -11 -3 0 6 4 15 10 18 6 3 10 11 10 16 0 6 -4 8 -9 4
-12 -7 -61 63 -61 86 0 10 6 20 13 22 7 3 4 6 -6 6 -10 1 -15 6 -12 11 3 6 -1
10 -9 10 -9 0 -15 5 -13 11 1 6 -4 14 -10 16 -20 7 -15 -22 7 -42 11 -10 20
-22 20 -27 0 -16 -19 -8 -48 22 -36 35 -59 37 -114 9 -36 -18 -39 -22 -25 -36
11 -12 19 -12 35 -4 41 22 83 13 120 -25 l35 -36 -7 29 -6 28 15 -25 c16 -29
19 -44 6 -35 -5 3 -17 -2 -26 -11 -14 -15 -21 -15 -56 -4 -21 7 -39 19 -39 27
0 8 -4 11 -10 8 -5 -3 -10 -15 -10 -26 0 -14 7 -19 25 -19 14 0 33 -4 43 -9 9
-5 25 -12 35 -15 22 -7 38 -47 42 -105 2 -24 7 -47 12 -52 9 -9 8 75 -2 120
-4 18 -3 31 3 31 18 0 34 -30 30 -55 -3 -15 0 -29 8 -33 8 -4 18 -30 23 -58 5
-27 20 -75 31 -105 38 -94 50 -130 40 -124 -4 3 -11 -3 -13 -12 -3 -10 -5 -2
-6 18 -1 35 -30 109 -31 79 -1 -12 -3 -12 -14 3 -7 9 -21 17 -30 17 -9 0 -16
7 -16 16 0 8 -5 12 -10 9 -5 -3 -10 0 -10 9 0 19 30 14 46 -9 11 -15 14 -15
14 -4 0 9 -18 27 -41 42 -38 25 -40 25 -34 6 5 -15 3 -20 -6 -17 -8 3 -15 15
-17 29 -6 53 -13 69 -30 68 -10 0 -12 -3 -4 -6 6 -2 12 -18 12 -35 0 -27 -2
-29 -17 -17 -9 8 -18 13 -20 12 -12 -10 -21 4 -37 56 -10 33 -15 65 -11 70 3
7 0 8 -9 5 -12 -4 -16 1 -18 17 -1 13 -2 31 -3 39 -1 8 -6 25 -13 37 -16 29
-15 38 3 23 10 -9 15 -9 15 -1 0 18 51 13 66 -6 10 -13 13 -14 14 -4 0 11 5
10 20 -4 11 -10 20 -14 20 -8 0 16 -58 53 -83 53 -29 0 -87 -19 -87 -29 0 -4
5 -12 10 -17 6 -6 15 -25 20 -43 8 -29 7 -31 -7 -19 -14 11 -15 10 -9 -10 8
-24 -3 -29 -23 -9 -10 10 -11 9 -6 -5 4 -10 11 -18 16 -18 5 0 18 -15 29 -32
16 -27 20 -29 21 -13 0 15 3 12 11 -9 8 -21 8 -31 1 -33 -14 -5 37 -55 70 -70
35 -16 77 -54 77 -69 0 -7 12 -17 28 -23 72 -30 79 -39 80 -86 1 -25 6 -54 12
-66 18 -32 8 -32 -44 1 -25 17 -51 30 -56 30 -6 0 -19 9 -30 20 -15 15 -20 33
-20 73 l1 52 19 -40 c11 -22 19 -35 20 -28 0 8 7 10 17 6 22 -8 44 -29 37 -35
-2 -3 3 -11 13 -19 15 -12 16 -12 10 4 -4 10 -2 17 6 17 16 1 -41 44 -67 50
-12 3 -26 16 -32 28 -12 24 -52 62 -66 62 -4 0 -10 0 -13 0 -2 0 -21 16 -42
35 -49 44 -55 38 -9 -10 20 -20 36 -46 36 -57 0 -17 -6 -13 -28 18 -16 21 -45
52 -65 67 l-37 28 3 -29 c1 -24 15 -40 67 -78 76 -56 75 -56 92 -111 7 -24 18
-43 25 -43 7 0 13 -8 13 -19 0 -22 13 -34 76 -67 27 -14 61 -33 77 -41 16 -9
27 -23 27 -36 0 -12 7 -31 15 -41 17 -23 20 -56 5 -56 -5 0 -10 8 -10 19 0 19
-91 81 -140 96 -35 10 -50 24 -50 46 0 11 -4 19 -10 19 -5 0 -10 11 -10 25 0
38 -23 76 -73 120 -64 56 -107 81 -107 61 0 -8 8 -17 19 -21 25 -8 61 -40 61
-54 0 -8 -10 -6 -31 4 -17 9 -36 14 -42 12 -7 -3 8 -14 33 -24 25 -11 56 -32
70 -46 14 -15 30 -27 35 -27 14 0 39 -85 31 -105 -3 -8 -1 -15 4 -15 6 0 10
-7 10 -15 0 -8 5 -15 11 -15 6 0 9 7 5 15 -3 8 -1 15 4 15 17 0 11 -26 -9 -44
-15 -14 -18 -26 -13 -58 4 -30 2 -39 -6 -34 -7 4 -12 15 -12 24 0 10 -7 27
-15 39 -8 12 -12 30 -9 40 3 10 -1 7 -9 -7 -14 -22 -13 -27 4 -49 11 -13 18
-25 16 -27 -1 -2 -21 3 -42 10 -58 20 -115 28 -115 18 0 -5 28 -15 63 -22 67
-14 137 -45 137 -60 0 -14 -7 -13 -35 6 -25 16 -117 44 -148 44 -15 0 -16 -2
-5 -14 7 -8 16 -12 19 -10 11 6 123 -26 135 -39 7 -7 15 -27 19 -45 6 -30 5
-32 -12 -23 -26 14 -127 41 -155 41 -21 -1 -22 -2 -5 -14 22 -17 22 -27 1 -19
-12 4 -15 2 -12 -8 3 -9 27 -17 63 -21 80 -10 128 -36 132 -71 4 -27 -5 -35
-23 -18 -5 5 -38 15 -74 21 -36 7 -73 16 -82 21 -26 13 -23 -9 4 -32 l21 -19
-23 -25 c-19 -20 -20 -25 -7 -25 9 0 21 9 27 21 11 19 13 20 30 4 9 -9 35 -19
56 -22 45 -7 74 -20 74 -33 0 -6 -10 -6 -26 0 -14 6 -37 10 -52 9 -26 0 -26
-1 -5 -9 12 -5 27 -18 33 -29 14 -27 30 -27 23 -1 -5 20 11 28 22 11 12 -21
12 -101 -1 -120 -8 -10 -35 -31 -61 -47 -60 -35 -120 -82 -127 -100 -9 -24 7
-16 53 26 41 37 54 45 74 41 5 -1 6 3 3 8 -4 5 4 13 16 17 13 4 28 14 35 23 9
11 12 12 13 3 0 -7 5 -10 11 -6 7 4 7 9 1 13 -5 3 -6 15 -2 26 7 18 8 19 15 3
4 -10 15 -18 25 -18 10 0 23 -7 30 -15 7 -8 29 -15 49 -15 20 0 45 -7 55 -15
11 -8 36 -15 57 -15 33 0 36 2 32 24 -3 16 -13 26 -29 29 -13 2 -24 0 -24 -4
0 -5 7 -9 15 -9 8 0 15 -5 15 -11 0 -6 -9 -8 -22 -4 -30 9 -46 25 -27 26 8 0
6 4 -6 8 -12 5 -23 4 -27 -3 -5 -7 -8 -5 -8 6 0 19 -39 33 -70 25 -13 -3 -21
1 -25 14 -4 11 -14 18 -22 17 -16 -3 -37 47 -27 63 6 10 67 -1 75 -13 3 -6 9
-9 13 -9 11 2 32 -2 68 -13 16 -5 26 -12 23 -16 -3 -4 1 -8 8 -7 34 1 47 -5
48 -20 0 -16 1 -16 8 1 10 25 33 -80 25 -111 -4 -14 2 -35 16 -58 12 -19 19
-42 16 -51 -8 -21 -26 -8 -26 21 0 24 -17 35 -54 35 -12 0 -32 7 -44 16 -15
10 -32 13 -52 9 -22 -5 -32 -3 -36 9 -3 9 -13 16 -21 16 -11 0 -13 -7 -9 -25
5 -20 3 -25 -13 -25 -10 0 -24 -7 -31 -15 -7 -8 -18 -15 -25 -15 -15 0 -58
-50 -50 -58 3 -3 14 4 25 16 26 28 29 28 23 0 -4 -20 -1 -19 24 10 28 32 56
41 68 22 3 -5 -3 -18 -15 -30 -16 -16 -17 -20 -5 -20 9 0 18 8 22 18 14 41 63
71 63 39 0 -12 69 -38 115 -43 11 -1 20 -3 20 -4 0 -1 14 -3 32 -6 25 -3 31
-1 27 11 -4 8 -10 12 -15 9 -5 -3 -9 0 -9 5 0 6 4 11 8 11 11 0 117 136 165
213 24 37 50 63 72 74 19 9 35 20 35 25 0 10 -3 10 -34 -2 -20 -7 -24 -6 -19
5 3 8 9 15 14 15 5 0 9 5 9 12 0 7 -16 -3 -35 -22 -26 -25 -32 -36 -22 -43 8
-6 7 -7 -5 -3 -30 9 -48 -4 -73 -54 -53 -105 -112 -177 -129 -160 -5 5 -9 30
-9 55 0 25 -4 45 -8 45 -5 0 -11 17 -14 38 -4 20 -13 53 -22 74 -8 20 -13 42
-10 50 4 9 8 5 12 -9 8 -24 25 -32 25 -12 0 8 4 9 13 0 14 -11 27 -5 27 13 0
6 -5 4 -11 -4 -9 -13 -10 -13 -6 0 2 8 10 14 16 13 6 -2 11 3 11 10 0 15 36
48 44 40 3 -4 6 -1 6 6 0 7 5 9 10 6 6 -3 10 0 10 7 0 9 3 9 10 -2 13 -20 13
-33 0 -25 -5 3 -10 1 -10 -6 0 -7 -3 -9 -6 -6 -4 3 -15 -5 -26 -18 -11 -14
-23 -23 -28 -20 -5 3 -11 -3 -15 -14 -3 -10 -17 -22 -30 -25 -14 -4 -25 -11
-25 -16 0 -23 38 -2 115 64 34 29 82 65 108 81 26 17 47 34 47 38 0 5 -5 5
-10 2 -12 -8 -13 15 -1 33 6 10 10 7 15 -12 4 -17 13 -26 26 -26 14 0 18 5 13
16 -4 12 -8 13 -14 3 -6 -10 -11 -5 -19 16 -11 28 -12 29 -25 12 -9 -13 -14
-14 -17 -6 -3 9 -7 7 -11 -5 -4 -10 -3 -15 3 -11 12 8 13 -15 1 -34 -6 -10
-11 -6 -18 15 l-10 29 -7 -30 c-6 -23 -9 -26 -17 -14 -7 10 -8 5 -3 -15 5 -21
4 -27 -5 -22 -6 4 -11 1 -11 -6 0 -10 -3 -9 -10 2 -5 9 -5 19 1 27 16 18 1 37
-17 22 -7 -6 -11 -16 -7 -22 3 -5 2 -7 -4 -4 -6 4 -34 -16 -64 -43 -30 -28
-57 -50 -60 -50 -4 0 -12 7 -19 15 -7 9 -8 15 -2 15 5 0 32 20 58 44 54 48
213 136 246 136 17 0 19 3 10 12 -15 15 -99 -5 -152 -35 -19 -11 -44 -25 -55
-31 -78 -44 -125 -82 -121 -99 2 -10 -2 -21 -9 -24 -10 -3 -12 -14 -8 -34 l6
-29 -49 21 c-27 12 -56 22 -64 23 -8 1 -22 5 -30 8 -8 3 -28 9 -45 14 -25 8
-30 15 -31 44 -1 19 -5 65 -9 103 -5 48 -4 67 4 67 18 0 184 -79 203 -97 10
-9 18 -24 18 -35 0 -10 5 -18 11 -18 7 0 8 7 4 18 -6 16 -24 166 -25 207 0 30
18 5 24 -35 3 -19 9 -65 12 -102 4 -38 10 -68 15 -68 12 0 67 74 70 96 2 12
-2 28 -9 37 -8 9 -12 35 -10 68 3 48 6 54 37 71 18 11 60 26 92 34 80 21 99
10 99 -56 0 -27 5 -52 10 -55 6 -3 10 -19 10 -34 0 -15 7 -36 16 -47 14 -18
15 -15 8 36 -9 75 -10 74 19 170 32 105 51 248 38 281 -8 19 -10 12 -10 -37
-1 -65 -43 -270 -59 -286 -10 -10 0 53 13 86 7 16 6 17 -13 7 -17 -9 -21 -8
-26 7 -3 9 -3 -3 0 -28 4 -38 3 -43 -8 -29 -7 9 -19 14 -25 12 -7 -3 -13 1
-13 8 0 10 -3 10 -12 1 -19 -19 -28 -14 -28 18 0 31 -13 40 -26 18 -4 -6 -2
-14 4 -16 14 -4 16 -42 2 -42 -12 0 -39 61 -33 76 2 6 15 10 29 8 13 -1 24 2
24 7 0 6 6 7 13 2 6 -4 20 -6 31 -4 10 1 31 -3 47 -10 35 -14 48 -6 26 16 -16
16 -16 39 1 143 12 74 -1 64 -20 -15 l-15 -68 -1 100 c0 64 2 93 8 80 9 -20 9
-20 10 0 1 11 2 42 1 68 -1 35 2 46 11 41 8 -5 9 -2 5 9 -4 10 -10 24 -14 34
-3 9 -2 14 3 11 5 -3 10 10 11 30 1 19 9 42 19 51 15 15 16 13 10 -22 -4 -21
-9 -46 -12 -55 -2 -9 1 -6 7 8 7 14 23 46 35 72 29 58 30 68 4 40 -38 -41 -80
-23 -110 46 -11 26 -40 65 -63 87 -24 22 -53 55 -66 73 -16 23 -26 30 -31 22
-5 -8 -9 -9 -11 -2 -2 6 -12 2 -21 -10z m-413 -128 c3 -5 -1 -10 -9 -10 -9 0
-16 5 -16 10 0 6 4 10 9 10 6 0 13 -4 16 -10z m-46 -4 c-2 -2 -17 -6 -34 -10
-22 -5 -26 -4 -15 4 14 9 59 15 49 6z m161 -116 c8 -5 12 -11 9 -14 -7 -8 -49
5 -49 15 0 12 21 11 40 -1z m540 -7 c0 -5 -5 -15 -10 -23 -8 -12 -10 -11 -10
8 0 12 5 22 10 22 6 0 10 -3 10 -7z m-622 -270 c15 -30 22 -83 11 -83 -11 0
-39 60 -39 85 0 20 17 19 28 -2z m-18 -167 c0 -6 -7 -2 -15 8 -8 11 -15 25
-15 30 0 6 7 2 15 -8 8 -11 15 -25 15 -30z m226 -23 c3 -16 10 -38 16 -50 6
-13 8 -26 5 -30 -4 -3 -7 2 -8 13 0 18 -1 18 -9 -1 -7 -16 -9 -11 -9 22 -1 23
-5 45 -11 48 -13 8 -13 25 0 25 5 0 12 -12 16 -27z m-76 -26 c0 -8 -4 -7 -12
1 -7 7 -20 12 -30 12 -10 0 -18 6 -18 14 0 12 4 12 30 0 17 -9 30 -21 30 -27z
m410 23 c0 -11 -4 -20 -10 -20 -5 0 -10 9 -10 20 0 11 5 20 10 20 6 0 10 -9
10 -20z m-70 -5 c0 -8 -4 -15 -10 -15 -5 0 -10 7 -10 15 0 8 5 15 10 15 6 0
10 -7 10 -15z m-30 -4 c0 -6 -4 -13 -10 -16 -5 -3 -10 1 -10 9 0 9 5 16 10 16
6 0 10 -4 10 -9z m-33 -23 c-3 -8 -6 -5 -6 6 -1 11 2 17 5 13 3 -3 4 -12 1
-19z m-22 -9 c-10 -15 -25 -10 -19 6 4 8 10 12 15 9 5 -3 7 -10 4 -15z m-195
-9 c0 -5 -5 -10 -11 -10 -5 0 -7 5 -4 10 3 6 8 10 11 10 2 0 4 -4 4 -10z m260
-61 c0 -15 -5 -19 -15 -15 -8 3 -15 1 -15 -5 0 -6 -7 -9 -15 -5 -8 3 -15 0
-15 -6 0 -6 -3 -8 -7 -5 -3 4 -12 -1 -19 -11 -12 -16 -13 -15 -14 5 0 12 9 27
20 33 11 6 20 8 20 4 0 -3 6 -1 13 5 8 6 17 8 20 4 4 -3 7 -1 7 5 0 7 5 12 10
12 6 0 10 -9 10 -21z m-350 -34 c0 -8 8 -11 20 -8 12 3 22 -1 26 -11 3 -9 10
-13 15 -10 5 3 13 -5 18 -18 6 -13 10 -17 10 -10 1 20 15 13 28 -15 16 -33 7
-45 -13 -19 -8 11 -14 16 -14 10 0 -5 -6 -2 -13 6 -7 8 -16 15 -22 15 -24 1
-85 30 -85 41 0 7 -3 19 -6 27 -4 12 0 14 15 10 12 -3 21 -11 21 -18z m44 -82
c87 -42 106 -63 106 -118 l0 -46 -30 16 c-18 9 -28 21 -24 27 4 7 3 8 -5 4 -6
-4 -31 1 -54 12 -23 11 -51 23 -62 26 -18 5 -50 74 -40 84 4 4 77 -28 85 -37
3 -4 11 -7 18 -9 7 -1 31 -14 53 -28 23 -14 43 -23 45 -21 11 10 -34 40 -117
80 -49 23 -89 47 -89 54 0 9 7 9 28 -2 15 -8 53 -27 86 -42z m176 -58 c6 -8 9
-19 5 -25 -3 -5 1 -10 9 -10 20 0 20 -20 1 -46 -13 -16 -16 -17 -25 -4 -5 8
-10 24 -11 35 0 11 -2 30 -5 43 -4 25 8 29 26 7z m-418 -67 c-9 -9 -15 -9 -24
0 -9 9 -7 12 12 12 19 0 21 -3 12 -12z m610 -120 c-8 -8 -9 -4 -5 13 4 13 8
18 11 10 2 -7 -1 -18 -6 -23z m-577 -9 c5 -5 14 -9 20 -9 5 0 3 5 -5 11 -12 9
-11 10 5 4 20 -7 43 -13 57 -14 4 -1 9 -9 12 -19 7 -20 28 -30 164 -73 56 -18
102 -36 102 -41 0 -4 -4 -8 -9 -8 -24 0 -228 74 -251 92 -15 11 -45 22 -68 25
-26 3 -49 15 -64 30 l-23 25 25 -7 c14 -4 29 -11 35 -16z m588 -165 c-9 -15
-19 -21 -21 -15 -6 19 6 41 23 41 14 0 13 -3 -2 -26z m-363 -59 c0 -17 -2 -18
-24 -9 -23 9 -20 24 4 24 11 0 20 -7 20 -15z m291 -48 c-10 -9 -11 -8 -5 6 3
10 9 15 12 12 3 -3 0 -11 -7 -18z m-238 -82 c20 -8 47 -15 61 -15 28 0 43 -17
28 -32 -7 -7 -30 -1 -71 17 -33 15 -70 25 -81 22 -11 -3 -20 -1 -20 3 0 5 10
11 23 13 12 2 23 5 23 6 1 0 18 -6 37 -14z m177 8 c-1 -18 -18 -35 -24 -24 -4
6 -4 16 -1 21 7 12 25 13 25 3z"/>
<path d="M966 1635 c-9 -9 -16 -23 -16 -30 0 -18 -37 -39 -45 -26 -3 6 -17 6
-34 1 -16 -4 -32 -6 -35 -3 -7 7 -96 -39 -96 -49 0 -13 10 -9 42 13 23 17 39
20 71 16 22 -3 49 -1 59 4 16 9 17 7 7 -18 -15 -40 -29 -44 -63 -20 -25 17
-29 18 -23 4 5 -14 0 -17 -35 -17 -31 0 -39 -3 -31 -11 13 -13 48 -16 84 -6
26 7 26 6 25 -47 -2 -30 -9 -65 -17 -78 -21 -32 -31 -60 -19 -53 6 3 10 13 10
21 0 8 4 14 9 14 11 0 3 -34 -16 -70 -7 -14 -12 -45 -12 -70 1 -43 2 -42 12
20 8 52 12 60 17 40 5 -18 9 -6 15 48 4 39 12 72 16 72 20 0 15 -254 -7 -370
-15 -80 -17 -107 -9 -98 6 6 8 14 31 128 16 78 22 242 11 295 -3 17 -7 46 -8
65 -1 24 -3 28 -6 13 -2 -13 -9 -23 -14 -23 -13 0 -11 12 4 35 8 11 24 47 37
80 13 33 32 75 42 94 21 38 18 50 -6 26z"/>
<path d="M1650 1620 c0 -5 5 -10 11 -10 5 0 7 -5 3 -12 -4 -7 -3 -8 4 -4 17
10 15 36 -3 36 -8 0 -15 -4 -15 -10z"/>
<path d="M552 1540 c0 -32 -6 -69 -12 -82 -11 -22 -10 -22 4 -4 12 15 16 16
20 5 13 -41 16 -39 11 5 -3 27 -5 68 -5 92 0 24 -4 44 -9 44 -4 0 -9 -27 -9
-60z"/>
<path d="M2151 1574 c0 -11 3 -14 6 -6 3 7 2 16 -1 19 -3 4 -6 -2 -5 -13z"/>
<path d="M130 1576 c0 -2 7 -9 15 -16 13 -11 14 -10 9 4 -5 14 -24 23 -24 12z"/>
<path d="M230 1565 c-7 -9 -8 -15 -2 -15 5 0 12 7 16 15 3 8 4 15 2 15 -2 0
-9 -7 -16 -15z"/>
<path d="M1001 1564 c0 -11 3 -14 6 -6 3 7 2 16 -1 19 -3 4 -6 -2 -5 -13z"/>
<path d="M530 1540 c0 -31 -25 -85 -50 -108 -16 -15 -18 -20 -7 -18 26 4 55
49 62 99 4 26 5 47 1 47 -3 0 -6 -9 -6 -20z"/>
<path d="M1030 1539 c0 -11 4 -18 10 -14 5 3 7 12 3 20 -7 21 -13 19 -13 -6z"/>
<path d="M2162 1435 c-1 -64 -4 -120 -7 -125 -3 -5 -1 -11 3 -14 5 -3 12 36
17 87 11 141 11 160 -1 164 -7 2 -11 -34 -12 -112z"/>
<path d="M1555 1509 c-4 -6 -5 -12 -2 -15 2 -3 7 2 10 11 7 17 1 20 -8 4z"/>
<path d="M943 1483 c-7 -15 -11 -28 -9 -31 6 -6 28 38 24 48 -2 5 -9 -3 -15
-17z"/>
<path d="M993 1465 c1 -22 5 -42 9 -45 3 -3 10 -18 14 -34 5 -23 4 -27 -7 -21
-8 4 2 -9 21 -31 19 -21 37 -41 39 -44 6 -8 -10 112 -19 150 -7 28 -8 22 -4
-24 3 -33 8 -66 12 -74 3 -10 1 -13 -6 -8 -6 3 -21 39 -32 79 -30 98 -30 97
-27 52z"/>
<path d="M1 1464 c0 -11 3 -14 6 -6 3 7 2 16 -1 19 -3 4 -6 -2 -5 -13z"/>
<path d="M250 1459 c0 -5 5 -7 10 -4 6 3 10 8 10 11 0 2 -4 4 -10 4 -5 0 -10
-5 -10 -11z"/>
<path d="M2490 1456 c0 -9 7 -16 16 -16 17 0 14 22 -4 28 -7 2 -12 -3 -12 -12z"/>
<path d="M265 1440 c-3 -5 -1 -10 4 -10 6 0 11 5 11 10 0 6 -2 10 -4 10 -3 0
-8 -4 -11 -10z"/>
<path d="M2540 1434 c0 -8 5 -12 10 -9 6 3 10 10 10 16 0 5 -4 9 -10 9 -5 0
-10 -7 -10 -16z"/>
<path d="M306 1415 c-3 -9 -6 -22 -5 -28 0 -7 5 -1 10 12 5 13 8 26 5 28 -2 2
-6 -3 -10 -12z"/>
<path d="M450 1385 c-11 -13 -10 -14 4 -9 9 3 16 10 16 15 0 13 -6 11 -20 -6z"/>
<path d="M978 1375 c-6 -18 -11 -83 -9 -111 1 -7 8 -14 16 -18 12 -4 14 0 10
22 l-5 27 13 -28 c7 -15 16 -25 20 -21 3 4 2 15 -4 25 -5 11 -7 19 -3 19 4 0
0 8 -9 18 -8 9 -17 33 -19 52 -3 27 -5 31 -10 15z"/>
<path d="M1085 1335 c1 -43 6 -51 48 -91 26 -24 47 -37 47 -30 0 8 3 23 6 33
5 14 4 15 -4 4 -12 -17 -47 -7 -36 10 4 7 3 9 -3 6 -17 -11 -45 28 -38 54 3
13 0 32 -7 42 -12 16 -13 12 -13 -28z"/>
<path d="M1128 1364 c-4 -4 1 -19 12 -34 11 -16 20 -33 20 -39 0 -6 5 -11 10
-11 13 0 13 17 0 25 -6 4 -16 20 -23 37 -7 16 -15 26 -19 22z"/>
<path d="M435 1339 c-10 -30 0 -33 13 -4 6 14 7 25 2 25 -5 0 -12 -9 -15 -21z"/>
<path d="M520 1324 c0 -8 5 -12 10 -9 6 4 8 11 5 16 -9 14 -15 11 -15 -7z"/>
<path d="M125 1313 c11 -3 24 -9 30 -14 5 -5 14 -9 20 -9 5 0 1 7 -9 15 -11 8
-29 14 -40 14 -20 -1 -21 -1 -1 -6z"/>
<path d="M475 1298 c4 -13 11 -27 16 -33 5 -5 4 5 -2 23 -12 36 -24 44 -14 10z"/>
<path d="M0 1304 c0 -5 8 -22 19 -37 14 -21 20 -25 24 -14 3 8 -5 25 -19 38
-13 12 -24 18 -24 13z"/>
<path d="M816 1283 c-6 -14 -5 -15 5 -6 7 7 10 15 7 18 -3 3 -9 -2 -12 -12z"/>
<path d="M450 1242 c7 -48 31 -103 58 -134 8 -10 11 -18 6 -18 -5 0 -4 -4 2
-8 10 -6 22 -77 24 -139 0 -7 4 -13 9 -13 8 0 6 44 -5 109 -3 18 -23 68 -45
110 -21 42 -39 88 -39 103 0 15 -4 29 -8 32 -5 3 -5 -16 -2 -42z"/>
<path d="M1034 1277 c11 -7 30 -22 43 -34 28 -27 63 -47 70 -40 2 3 -13 18
-34 33 -21 16 -44 35 -51 42 -7 6 -21 12 -30 11 -15 0 -14 -2 2 -12z"/>
<path d="M2007 1229 l-12 -31 -77 4 c-44 1 -77 -1 -75 -6 1 -5 18 -10 37 -11
124 -4 118 -2 114 -36 -2 -17 -11 -51 -19 -76 -9 -25 -14 -48 -11 -50 4 -4 20
35 18 47 0 3 4 13 10 23 10 20 38 167 31 167 -3 0 -10 -14 -16 -31z"/>
<path d="M140 1230 c6 -11 12 -20 14 -20 2 0 2 9 -1 20 -3 11 -9 20 -15 20 -5
0 -4 -9 2 -20z"/>
<path d="M970 1213 c0 -38 16 -52 25 -22 5 14 1 27 -9 37 -15 15 -16 14 -16
-15z"/>
<path d="M800 1190 c-6 -23 -9 -44 -6 -47 2 -3 10 14 16 37 6 23 9 44 6 47 -2
3 -10 -14 -16 -37z"/>
<path d="M1020 1220 c0 -4 7 -11 15 -14 9 -3 25 -25 35 -48 12 -27 20 -35 20
-23 0 31 -33 88 -52 91 -10 1 -18 -1 -18 -6z"/>
<path d="M1201 1188 c14 -58 31 -84 26 -37 -4 32 -22 79 -31 79 -2 0 0 -19 5
-42z"/>
<path d="M2482 1195 c0 -16 2 -22 5 -12 2 9 2 23 0 30 -3 6 -5 -1 -5 -18z"/>
<path d="M1102 1175 c8 -19 14 -22 20 -13 6 10 8 10 9 -2 8 -66 17 -80 52 -79
19 1 24 3 14 6 -32 8 -54 37 -46 59 10 24 11 39 3 31 -4 -3 -16 0 -28 8 -30
22 -37 18 -24 -10z"/>
<path d="M2151 1184 c0 -11 3 -14 6 -6 3 7 2 16 -1 19 -3 4 -6 -2 -5 -13z"/>
<path d="M952 1170 c0 -14 2 -19 5 -12 2 6 2 18 0 25 -3 6 -5 1 -5 -13z"/>
<path d="M1020 1165 c0 -8 7 -15 16 -15 14 0 14 3 4 15 -7 8 -14 15 -16 15 -2
0 -4 -7 -4 -15z"/>
<path d="M931 1154 c0 -11 3 -14 6 -6 3 7 2 16 -1 19 -3 4 -6 -2 -5 -13z"/>
<path d="M1190 1156 c0 -8 4 -17 9 -20 5 -4 7 3 4 14 -6 23 -13 26 -13 6z"/>
<path d="M825 1138 c-3 -13 -7 -45 -9 -73 -2 -27 -6 -77 -10 -110 l-6 -60 14
60 c14 65 29 205 21 205 -2 0 -7 -10 -10 -22z"/>
<path d="M2470 1111 c0 -28 4 -51 9 -51 11 0 11 89 -1 96 -4 3 -8 -18 -8 -45z"/>
<path d="M963 1128 c-4 -7 -13 -39 -20 -71 -6 -31 -19 -64 -27 -73 -14 -14
-14 -34 0 -34 3 0 3 4 0 9 -3 5 1 14 9 21 15 12 36 75 37 114 1 11 6 27 11 34
5 6 7 12 4 12 -3 0 -9 -6 -14 -12z"/>
<path d="M1017 1121 c-4 -17 -3 -21 5 -13 5 5 8 16 6 23 -3 8 -7 3 -11 -10z"/>
<path d="M1100 1137 c0 -4 7 -24 17 -45 9 -20 15 -40 15 -44 -1 -5 2 -8 8 -8
5 0 7 -7 4 -15 -3 -8 -2 -20 2 -27 5 -7 7 -23 5 -35 -1 -13 3 -23 9 -23 6 0
22 -11 35 -26 20 -21 22 -30 14 -56 -8 -29 -5 -48 6 -37 16 16 3 119 -15 119
-7 0 -17 26 -25 65 -4 15 -75 141 -75 132z"/>
<path d="M1414 1040 c9 -169 31 -305 85 -525 13 -56 21 -134 25 -260 7 -193
13 -242 28 -251 7 -4 8 16 4 59 -4 36 -9 130 -11 209 -4 153 -9 195 -30 273
-34 124 -69 325 -80 470 -6 83 -12 115 -21 124 -3 3 -4 -41 0 -99z"/>
<path d="M2150 1128 c0 -16 16 -141 34 -278 16 -113 49 -293 66 -350 8 -29 8
-25 4 25 -4 33 -8 74 -9 92 -2 18 -6 37 -10 43 -3 5 -1 10 6 10 7 0 9 8 6 21
-3 12 1 32 9 44 13 20 13 23 0 28 -18 7 -31 -9 -16 -18 8 -5 8 -11 0 -20 -6
-7 -8 -21 -4 -31 5 -18 5 -18 -6 -1 -12 19 -39 179 -42 248 -1 26 4 44 13 50
9 6 10 9 2 9 -13 0 -33 60 -33 102 0 15 -4 30 -10 33 -5 3 -10 0 -10 -7z"/>
<path d="M989 1102 c-3 -20 -2 -29 4 -23 5 5 7 19 5 32 -3 20 -5 19 -9 -9z"/>
<path d="M2076 1089 c-3 -13 -15 -63 -26 -110 -11 -48 -20 -97 -20 -110 0 -12
-5 -48 -11 -78 -30 -161 -34 -220 -32 -497 1 -159 2 -291 4 -294 9 -24 16 111
17 340 0 204 4 297 16 360 8 47 22 130 31 185 9 55 21 126 27 158 10 55 5 95
-6 46z"/>
<path d="M1041 1084 c0 -11 3 -14 6 -6 3 7 2 16 -1 19 -3 4 -6 -2 -5 -13z"/>
<path d="M922 1060 c0 -19 2 -27 5 -17 2 9 2 25 0 35 -3 9 -5 1 -5 -18z"/>
<path d="M1090 1065 c0 -8 -4 -15 -8 -15 -5 0 -14 -12 -20 -26 -7 -14 -8 -23
-4 -20 5 3 14 -11 21 -30 9 -26 18 -34 37 -34 28 0 27 -2 13 38 -10 29 -12 30
-27 15 -15 -15 -17 -14 -22 8 -5 18 -2 25 11 27 17 3 25 52 8 52 -5 0 -9 -7
-9 -15z"/>
<path d="M1225 1020 c4 -36 9 -67 12 -70 7 -7 -4 121 -12 128 -3 3 -3 -23 0
-58z"/>
<path d="M1257 1048 c-9 -37 6 -118 21 -118 4 0 7 25 7 56 1 31 -1 52 -3 45
-7 -22 -19 -11 -14 14 5 31 -4 33 -11 3z"/>
<path d="M983 1048 c-12 -21 -15 -58 -3 -58 5 0 10 7 10 17 0 15 2 14 19 -1
16 -15 18 -21 8 -37 -11 -18 -12 -18 -19 -1 -3 9 -7 12 -7 5 -1 -6 -9 -9 -20
-6 -11 3 -27 -4 -39 -17 -21 -23 -48 -130 -39 -155 4 -8 2 -15 -3 -15 -6 0
-10 -11 -10 -25 0 -32 18 -32 26 0 3 13 13 30 22 37 13 11 14 9 8 -17 -6 -25
-5 -28 6 -17 7 7 13 19 13 27 0 8 5 14 10 14 6 -1 9 -5 8 -10 -4 -13 11 -11
25 3 10 10 15 10 22 -2 6 -9 6 -16 0 -18 -6 -2 -10 -8 -10 -13 0 -6 8 -6 19 1
11 5 24 10 30 10 18 0 91 -71 92 -89 1 -9 5 4 10 29 5 25 6 53 3 63 -6 18 -82
62 -92 53 -3 -3 -2 -6 3 -6 4 0 2 -7 -5 -15 -7 -8 -20 -15 -29 -15 -13 0 -14
2 -2 9 12 8 9 11 -12 16 -15 4 -39 5 -53 2 -23 -4 -25 -2 -20 19 4 13 2 24 -3
24 -5 0 -11 -10 -13 -22 -2 -13 -11 -24 -20 -26 -22 -4 -23 11 -3 32 8 8 15
30 15 50 0 20 8 42 18 52 16 17 17 16 20 -16 4 -43 25 -58 73 -54 21 2 41 -1
44 -7 5 -8 -15 -14 -37 -10 -5 0 -8 -5 -8 -12 0 -8 -3 -7 -10 3 -7 11 -12 12
-21 3 -16 -16 22 -26 55 -13 22 8 34 5 66 -15 22 -14 40 -30 40 -35 0 -6 4
-10 9 -10 5 0 7 9 4 20 -3 11 -9 20 -14 20 -5 0 -9 8 -8 18 0 10 3 12 6 5 2
-7 9 -13 14 -13 17 0 9 26 -15 49 -18 17 -30 21 -48 15 -12 -4 -27 -6 -33 -5
-5 2 -30 6 -55 8 -25 3 -47 7 -49 9 -3 3 6 15 19 27 17 16 33 22 54 19 20 -3
27 -1 22 7 -4 6 -11 9 -15 6 -5 -2 -13 7 -19 20 -7 14 -16 25 -22 25 -5 0 -10
5 -10 11 0 6 7 9 15 5 18 -6 20 5 3 22 -9 9 -14 7 -25 -6 -12 -16 -13 -16 -7
1 7 20 -1 23 -13 5z m161 -190 c-3 -4 -12 -8 -20 -8 -8 0 -13 4 -10 8 3 5 12
9 20 9 8 0 13 -4 10 -9z m-4 -78 c9 -6 10 -10 3 -10 -6 0 -13 -7 -15 -16 -2
-13 -8 -11 -31 10 l-28 26 28 0 c15 0 35 -5 43 -10z m20 -35 c0 -8 -4 -15 -10
-15 -5 0 -7 7 -4 15 4 8 8 15 10 15 2 0 4 -7 4 -15z"/>
<path d="M1170 1051 c0 -3 7 -15 15 -25 14 -19 15 -19 15 5 0 16 -6 26 -15 26
-8 0 -15 -3 -15 -6z"/>
<path d="M2463 1028 c-1 -7 -5 -41 -9 -75 -5 -45 -4 -63 5 -63 6 0 11 15 11
35 0 19 4 35 9 35 7 0 8 32 2 73 -2 12 -18 8 -18 -5z"/>
<path d="M2832 998 c-7 -7 -12 -16 -12 -20 0 -11 23 -6 32 7 18 24 1 34 -20
13z"/>
<path d="M0 991 c0 -12 45 -41 63 -41 17 0 87 -75 87 -93 0 -6 -5 -4 -11 6 -5
9 -16 17 -24 17 -7 0 -26 15 -40 33 -15 17 -24 24 -21 14 5 -16 2 -18 -27 -13
-29 5 -28 4 12 -14 39 -18 42 -22 30 -37 -10 -12 -10 -15 -1 -9 7 4 15 1 18
-8 3 -9 11 -16 17 -16 5 0 2 9 -8 20 -17 19 -17 20 1 20 10 0 28 -12 40 -27
28 -36 39 -25 24 24 -8 25 -27 50 -56 73 -47 38 -104 66 -104 51z"/>
<path d="M2260 952 c0 -15 28 -23 36 -9 4 7 4 9 -1 5 -4 -4 -14 -3 -22 3 -8 7
-13 8 -13 1z"/>
<path d="M2515 949 c44 -28 233 -27 251 2 3 6 -11 7 -38 2 -52 -8 -105 -8
-178 1 -46 6 -52 5 -35 -5z"/>
<path d="M866 901 c-4 -6 -2 -11 5 -11 8 0 7 -7 -3 -22 -17 -27 -41 -118 -33
-126 3 -3 5 0 5 6 0 6 4 21 9 34 5 13 9 27 9 32 0 5 4 12 10 15 14 9 22 54 13
70 -6 9 -11 10 -15 2z"/>
<path d="M2260 900 c0 -5 7 -7 15 -4 8 4 15 8 15 10 0 2 -7 4 -15 4 -8 0 -15
-4 -15 -10z"/>
<path d="M2830 903 c-33 -13 -53 -60 -25 -60 10 0 14 6 10 14 -3 11 1 13 15 8
16 -5 20 -2 20 19 0 14 -1 26 -2 25 -2 0 -10 -3 -18 -6z"/>
<path d="M1170 889 c0 -5 5 -7 10 -4 6 3 10 8 10 11 0 2 -4 4 -10 4 -5 0 -10
-5 -10 -11z"/>
<path d="M725 870 c-4 -6 -13 -9 -20 -8 -8 2 -14 -1 -15 -7 0 -5 11 -11 25
-12 19 -1 25 3 25 18 0 21 -5 24 -15 9z"/>
<path d="M970 860 c0 -11 4 -20 9 -20 5 0 7 9 4 20 -3 11 -7 20 -9 20 -2 0 -4
-9 -4 -20z"/>
<path d="M1891 864 c0 -11 3 -14 6 -6 3 7 2 16 -1 19 -3 4 -6 -2 -5 -13z"/>
<path d="M2250 858 c0 -12 3 -18 7 -14 11 10 12 36 2 36 -5 0 -9 -10 -9 -22z"/>
<path d="M10 840 c0 -5 5 -10 11 -10 5 0 7 5 4 10 -3 6 -8 10 -11 10 -2 0 -4
-4 -4 -10z"/>
<path d="M48 823 c7 -3 16 -2 19 1 4 3 -2 6 -13 5 -11 0 -14 -3 -6 -6z"/>
<path d="M98 802 c10 -12 21 -15 27 -10 11 10 -10 28 -32 28 -9 0 -7 -6 5 -18z"/>
<path d="M2246 804 c-8 -21 -8 -21 7 -27 7 -3 12 4 12 19 0 27 -10 32 -19 8z"/>
<path d="M1271 797 c-1 -12 -5 -16 -13 -11 -9 6 -9 3 0 -9 8 -9 12 -24 9 -34
-4 -14 -5 -13 -6 5 -1 23 -15 30 -26 12 -3 -5 -1 -10 5 -10 6 0 9 -4 5 -9 -3
-6 3 -14 12 -20 16 -8 18 -29 21 -168 2 -107 0 -153 -7 -143 -8 12 -10 11 -8
-7 0 -12 5 -19 9 -17 4 3 8 -2 8 -11 0 -10 -5 -14 -12 -10 -7 4 -6 1 3 -7 11
-9 18 -39 23 -103 13 -167 21 -244 29 -251 10 -10 9 26 -8 226 -8 97 -17 259
-21 360 -4 102 -10 194 -15 205 -7 18 -8 18 -8 2z"/>
<path d="M2400 791 c0 -11 4 -23 10 -26 6 -4 9 5 8 19 -3 30 -18 35 -18 7z"/>
<path d="M6 777 c3 -10 9 -15 12 -12 3 3 0 11 -7 18 -10 9 -11 8 -5 -6z"/>
<path d="M35 770 c3 -5 16 -10 28 -9 21 0 21 1 2 9 -28 12 -37 12 -30 0z"/>
<path d="M721 748 c-1 -15 4 -30 9 -33 12 -7 12 12 0 40 -8 18 -9 17 -9 -7z"/>
<path d="M91 744 c0 -11 3 -14 6 -6 3 7 2 16 -1 19 -3 4 -6 -2 -5 -13z"/>
<path d="M627 753 c-11 -10 -8 -41 4 -49 16 -9 41 20 33 39 -6 17 -25 22 -37
10z m28 -23 c-3 -5 -10 -10 -16 -10 -5 0 -9 5 -9 10 0 6 7 10 16 10 8 0 12 -4
9 -10z"/>
<path d="M851 744 c0 -11 3 -14 6 -6 3 7 2 16 -1 19 -3 4 -6 -2 -5 -13z"/>
<path d="M971 748 c0 -9 3 -19 9 -23 5 -3 7 -12 3 -20 -3 -9 0 -22 7 -30 7 -8
8 -15 2 -15 -15 0 -33 26 -24 36 4 4 -1 2 -10 -5 -15 -11 -18 -11 -18 -1 0 8
-3 10 -7 7 -3 -4 -18 0 -31 9 -23 15 -26 15 -35 -2 -10 -17 -11 -17 -19 1 -7
16 -7 15 -3 -5 7 -34 -24 -128 -43 -132 -13 -3 -13 -6 3 -21 16 -17 19 -17 27
-3 5 9 17 16 26 16 38 0 169 -108 198 -162 7 -14 14 -49 15 -77 1 -29 6 -48
10 -44 4 4 4 43 -1 86 -7 77 -30 124 -53 110 -6 -3 -7 -1 -3 5 4 7 4 17 0 23
-4 8 -9 7 -15 -2 -7 -11 -9 -9 -9 6 0 12 -19 34 -50 57 -44 33 -51 35 -59 20
-10 -16 -10 -16 -11 1 0 9 -4 17 -10 17 -5 0 -10 -4 -10 -9 0 -5 -6 -11 -14
-14 -12 -5 -13 0 -4 26 15 49 30 87 34 87 25 0 106 -39 131 -63 18 -17 36 -27
40 -24 4 4 -3 14 -15 23 -20 13 -21 51 -1 39 4 -3 5 -13 2 -22 -4 -11 -2 -14
8 -11 7 2 21 -5 30 -16 10 -12 20 -18 24 -14 9 9 -74 88 -89 85 -7 -1 -10 13
-9 38 1 29 0 34 -6 20 -8 -20 -8 -20 -13 0 -4 15 -6 16 -7 3z"/>
<path d="M1201 744 c0 -11 3 -14 6 -6 3 7 2 16 -1 19 -3 4 -6 -2 -5 -13z"/>
<path d="M2679 743 c-13 -16 -12 -17 4 -4 9 7 17 15 17 17 0 8 -8 3 -21 -13z"/>
<path d="M2702 738 c-7 -7 -12 -17 -12 -24 0 -6 -7 -17 -15 -24 -8 -7 -12 -16
-9 -21 3 -5 0 -9 -6 -9 -7 0 -10 -6 -7 -12 2 -7 0 -21 -5 -31 -5 -10 -7 -21
-4 -24 5 -5 26 36 31 63 2 6 15 30 29 52 25 40 24 56 -2 30z"/>
<path d="M1799 736 c-2 -2 -1 -46 3 -98 3 -51 7 -147 7 -213 1 -156 22 -425
33 -419 4 3 6 38 3 77 -3 40 -7 129 -9 200 -4 113 -3 127 12 125 15 -3 18 12
12 70 -1 15 -2 14 -9 -3 -5 -11 -6 -25 -4 -31 2 -7 0 -15 -5 -18 -5 -3 -12 51
-16 127 -4 73 -8 142 -9 154 -2 22 -11 36 -18 29z"/>
<path d="M2403 725 c-3 -9 -3 -18 -1 -21 3 -3 8 4 11 16 6 23 -1 27 -10 5z"/>
<path d="M545 720 c-3 -5 -1 -10 4 -10 6 0 11 -5 11 -11 0 -5 -5 -7 -12 -3 -8
5 -9 2 -5 -10 4 -10 7 -20 7 -22 0 -3 5 -2 10 1 13 8 13 65 1 65 -6 0 -13 -4
-16 -10z"/>
<path d="M910 722 c0 -15 11 -21 27 -15 12 5 12 7 1 14 -17 11 -28 11 -28 1z"/>
<path d="M1040 713 c37 -27 80 -75 74 -84 -2 -4 0 -10 6 -14 5 -3 10 2 10 13
0 20 -39 60 -85 86 -30 17 -30 17 -5 -1z"/>
<path d="M816 705 c-3 -9 -6 -22 -5 -28 0 -7 5 -1 10 12 5 13 8 26 5 28 -2 2
-6 -3 -10 -12z"/>
<path d="M1252 697 c-1 -10 -6 -16 -11 -13 -12 8 -19 -58 -8 -86 8 -21 9 -21
18 -5 6 9 8 41 6 70 -2 28 -4 44 -5 34z"/>
<path d="M1727 688 c-11 -41 -18 -180 -21 -418 -2 -129 -7 -243 -11 -252 -4
-10 -3 -18 2 -18 18 0 32 173 37 443 2 147 3 267 1 267 -1 0 -5 -10 -8 -22z"/>
<path d="M2782 680 c0 -14 2 -19 5 -12 2 6 2 18 0 25 -3 6 -5 1 -5 -13z"/>
<path d="M625 672 c-49 -17 -85 -39 -85 -54 0 -4 15 1 33 11 17 11 51 25 75
32 23 7 42 16 42 21 0 10 -4 10 -65 -10z"/>
<path d="M2394 675 c-3 -8 -4 -20 -2 -27 3 -7 7 -1 10 15 6 29 1 36 -8 12z"/>
<path d="M681 654 c-40 -17 -125 -84 -117 -92 3 -3 27 12 53 32 26 20 56 38
68 41 64 13 75 17 70 25 -9 14 -34 12 -74 -6z"/>
<path d="M866 654 c-4 -12 -2 -15 9 -10 8 3 28 3 44 0 23 -5 31 -14 40 -46 16
-52 23 -45 10 9 -9 35 -16 42 -49 52 -47 14 -47 14 -54 -5z"/>
<path d="M973 623 c2 -5 13 -26 23 -47 14 -32 19 -36 24 -21 5 15 12 9 33 -30
15 -26 27 -54 27 -61 0 -8 5 -14 10 -14 27 0 -7 77 -61 134 -23 25 -46 46 -51
46 -5 0 -7 -3 -5 -7z"/>
<path d="M2374 613 c-3 -10 -9 -26 -14 -35 -5 -9 -18 -59 -28 -110 -16 -77
-18 -105 -9 -163 5 -38 16 -76 24 -83 11 -11 11 -17 1 -31 -7 -9 -8 -13 -4 -9
5 4 15 3 22 -3 9 -8 9 4 -3 48 -27 107 -27 178 1 286 14 54 28 103 32 108 3 5
0 9 -6 9 -6 0 -13 -8 -16 -17z"/>
<path d="M1050 592 c0 -3 7 -13 15 -22 8 -9 24 -34 35 -56 l20 -39 -3 59 c-2
58 -2 59 -34 61 -18 2 -33 0 -33 -3z"/>
<path d="M1847 571 c-4 -17 -3 -21 5 -13 5 5 8 16 6 23 -3 8 -7 3 -11 -10z"/>
<path d="M2436 543 c-20 -94 -25 -178 -16 -245 14 -100 24 -100 16 0 -3 46 -1
125 4 174 10 88 8 128 -4 71z"/>
<path d="M256 548 c3 -4 9 -8 15 -8 5 0 9 4 9 8 0 5 -7 9 -15 9 -8 0 -12 -4
-9 -9z"/>
<path d="M2752 535 c0 -16 2 -22 5 -12 2 9 2 23 0 30 -3 6 -5 -1 -5 -18z"/>
<path d="M2607 525 c-4 -8 -2 -17 3 -20 5 -3 8 -47 8 -98 -2 -65 4 -117 19
-177 12 -47 25 -118 29 -157 3 -40 11 -73 16 -73 5 0 7 12 4 27 -3 16 -8 62
-12 103 -3 41 -10 85 -15 98 -14 36 -22 110 -20 187 2 76 -6 125 -19 125 -4 0
-10 -7 -13 -15z"/>
<path d="M260 510 c19 -11 43 -19 52 -20 9 0 19 -5 21 -10 3 -6 5 -6 3 1 -1 6
-24 20 -51 30 -63 24 -70 23 -25 -1z"/>
<path d="M820 497 c0 -31 16 -49 71 -80 72 -41 138 -113 146 -160 5 -31 8 -36
15 -23 12 21 3 87 -16 123 -25 47 -97 113 -151 138 -64 31 -65 31 -65 2z m114
-60 c10 -12 22 -21 27 -20 8 3 59 -58 59 -71 0 -4 -8 0 -17 10 -10 10 -18 22
-18 28 0 6 -4 11 -10 11 -19 1 -75 35 -75 46 0 6 -4 7 -10 4 -12 -7 -44 15
-48 33 -3 19 68 -13 92 -41z"/>
<path d="M2547 458 c-9 -29 -19 -80 -22 -113 l-5 -60 14 42 c7 23 16 64 19 90
4 26 9 58 13 71 3 12 4 22 2 22 -3 0 -12 -24 -21 -52z"/>
<path d="M2740 485 c0 -8 2 -15 4 -15 2 0 6 7 10 15 3 8 1 15 -4 15 -6 0 -10
-7 -10 -15z"/>
<path d="M350 481 c0 -5 7 -12 16 -15 14 -5 15 -4 4 9 -14 17 -20 19 -20 6z"/>
<path d="M1667 465 c-4 -8 -3 -16 1 -19 4 -3 9 4 9 15 2 23 -3 25 -10 4z"/>
<path d="M0 440 c0 -19 3 -21 12 -12 9 9 9 15 0 24 -9 9 -12 7 -12 -12z"/>
<path d="M714 429 c-27 -17 -81 -57 -120 -88 -39 -31 -80 -62 -90 -69 -17 -12
-16 -12 9 -7 31 6 33 3 11 -19 -9 -10 -11 -16 -4 -16 7 0 17 14 23 30 7 19 17
28 25 25 10 -4 12 0 8 11 -5 14 -4 15 9 4 13 -11 14 -10 9 5 -6 14 -4 16 6 10
10 -6 12 -4 7 11 -7 18 -7 18 8 0 18 -24 20 -40 3 -30 -7 4 -10 3 -5 -1 4 -5
-11 -27 -33 -50 -26 -27 -42 -52 -43 -71 -1 -16 -6 -32 -12 -36 -5 -4 -7 -9
-4 -12 12 -12 51 27 46 45 -3 11 -1 17 3 14 10 -6 31 22 63 87 12 24 31 47 42
53 11 6 35 25 53 44 20 21 38 31 48 27 9 -3 22 -6 29 -6 7 0 15 -8 17 -17 3
-16 4 -16 20 0 9 9 21 17 27 17 15 0 71 -50 71 -63 0 -8 -3 -8 -8 -2 -4 6 -18
11 -32 12 -22 3 -23 2 -5 -6 40 -18 102 -106 122 -176 l11 -40 1 68 c1 41 -5
79 -13 96 -18 33 -93 104 -134 125 -39 20 -42 20 -42 -1 0 -15 -2 -15 -19 1
-13 12 -27 15 -45 10 -20 -5 -26 -3 -26 11 0 11 5 15 15 11 8 -3 15 -1 15 5 0
6 5 7 10 4 6 -3 10 -1 10 4 0 20 -36 11 -86 -20z m22 -26 c-6 -14 -9 -15 -15
-4 -6 9 -10 6 -15 -13 -3 -13 -20 -33 -36 -43 -17 -9 -30 -22 -30 -28 0 -5 -5
-3 -10 5 -11 16 -14 37 -4 27 3 -3 19 8 35 24 16 16 29 27 29 24 0 -3 9 4 21
16 23 23 35 19 25 -8z m261 -115 c16 -21 23 -48 12 -48 -5 0 -13 8 -16 18 -4
9 -15 23 -25 30 -24 18 -24 36 0 23 10 -5 23 -16 29 -23z"/>
<path d="M270 435 c7 -8 17 -12 22 -9 6 4 5 10 -3 15 -22 14 -33 10 -19 -6z"/>
<path d="M304 418 c-4 -7 -2 -8 4 -4 7 4 12 3 12 -3 0 -6 7 -8 15 -4 9 3 24
-2 35 -12 10 -9 25 -15 32 -13 17 6 -28 35 -64 42 -15 2 -31 0 -34 -6z"/>
<path d="M1170 385 c0 -8 2 -15 4 -15 2 0 6 7 10 15 3 8 1 15 -4 15 -6 0 -10
-7 -10 -15z"/>
<path d="M63 377 c1 -5 -11 -17 -27 -26 -16 -9 -32 -23 -34 -30 -5 -15 29 2
66 33 25 22 28 33 8 33 -8 0 -14 -5 -13 -10z"/>
<path d="M551 374 c0 -11 3 -14 6 -6 3 7 2 16 -1 19 -3 4 -6 -2 -5 -13z"/>
<path d="M1857 383 c-2 -5 -2 -14 -1 -20 1 -7 2 -21 3 -30 2 -16 3 -15 10 2 5
11 5 25 0 31 -5 6 -6 14 -2 17 3 4 4 7 0 7 -3 0 -8 -3 -10 -7z"/>
<path d="M804 310 c-48 -51 -84 -98 -169 -221 -46 -69 -54 -89 -32 -89 22 0
34 14 101 124 36 60 80 125 97 145 16 20 38 46 49 58 38 46 0 31 -46 -17z"/>
<path d="M2231 334 c0 -11 3 -14 6 -6 3 7 2 16 -1 19 -3 4 -6 -2 -5 -13z"/>
<path d="M99 310 c-13 -10 -20 -19 -16 -20 4 0 17 9 29 20 28 26 17 26 -13 0z"/>
<path d="M866 293 c4 -16 11 -32 15 -38 15 -16 10 -28 -6 -15 -19 16 -20 2 -1
-19 16 -19 33 -86 19 -78 -12 8 -11 -46 2 -55 7 -5 6 -11 -1 -15 -15 -10 -30
-58 -16 -49 6 3 13 -2 15 -11 3 -13 5 -11 7 7 l2 25 8 -25 c6 -18 8 -7 9 40 0
60 -6 105 -24 155 -7 20 -6 20 9 1 9 -11 16 -28 16 -38 0 -10 9 -32 21 -47 12
-16 24 -50 26 -75 3 -26 9 -49 13 -51 13 -8 4 113 -9 129 -7 9 -11 29 -9 46 3
18 -1 35 -9 41 -7 6 -13 17 -13 23 0 13 -61 76 -73 76 -4 0 -4 -12 -1 -27z
m73 -94 c7 -23 10 -43 7 -46 -3 -3 -8 3 -11 13 -4 10 -18 42 -31 69 l-26 50
25 -23 c13 -12 30 -41 36 -63z"/>
<path d="M2248 283 c5 -21 7 -23 10 -9 2 10 0 22 -6 28 -6 6 -7 0 -4 -19z"/>
<path d="M130 271 c-7 -11 -16 -18 -20 -16 -8 5 -36 -12 -30 -18 3 -3 15 -8
28 -11 17 -6 22 -3 22 10 0 10 7 26 17 36 9 10 12 18 7 18 -5 0 -16 -9 -24
-19z"/>
<path d="M12 255 c-16 -19 -11 -19 24 0 23 12 25 15 9 15 -11 -1 -26 -7 -33
-15z"/>
<path d="M141 223 c-24 -19 -50 -32 -57 -29 -7 3 -15 -3 -18 -12 -3 -9 -19
-26 -36 -37 -16 -11 -30 -26 -30 -33 0 -8 18 1 43 21 23 18 58 43 78 55 36 22
75 59 68 66 -2 1 -24 -12 -48 -31z"/>
<path d="M814 215 c-3 -14 -10 -25 -14 -25 -4 0 -15 -15 -23 -33 -9 -18 -27
-48 -40 -68 -23 -34 -43 -89 -32 -89 2 0 18 26 34 58 16 32 47 80 69 108 32
41 37 52 26 62 -11 10 -15 8 -20 -13z"/>
<path d="M40 210 c0 -5 7 -7 15 -4 8 4 15 8 15 10 0 2 -7 4 -15 4 -8 0 -15 -4
-15 -10z"/>
<path d="M2276 178 c9 -74 37 -184 42 -169 6 19 -30 211 -40 211 -5 0 -6 -19
-2 -42z"/>
<path d="M833 173 c-56 -71 -111 -173 -94 -173 4 0 16 18 26 40 21 46 34 46
15 0 -7 -17 -10 -33 -8 -36 3 -2 17 28 32 68 15 40 34 84 42 98 l15 25 -5 -32
c-3 -18 -2 -33 3 -33 11 0 20 56 11 71 -4 6 -19 -4 -37 -28z"/>
<path d="M234 194 c9 -18 -28 -58 -115 -125 -43 -34 -79 -63 -79 -64 0 -1 13
-2 28 -3 22 0 47 15 102 64 40 35 77 64 82 64 14 0 9 35 -8 56 -8 10 -13 14
-10 8z"/>
<path d="M2535 175 c4 -16 13 -37 22 -45 14 -13 14 -13 5 5 -5 11 -15 31 -21
45 -11 24 -11 24 -6 -5z"/>
<path d="M972 170 c0 -14 2 -19 5 -12 2 6 2 18 0 25 -3 6 -5 1 -5 -13z"/>
<path d="M1877 123 c-4 -3 -7 -13 -7 -22 1 -13 3 -13 11 2 11 19 8 33 -4 20z"/>
<path d="M827 63 c-8 -32 -14 -59 -12 -61 2 -2 11 21 20 53 9 31 15 58 13 61
-3 2 -12 -22 -21 -53z"/>
<path d="M935 100 c2 -14 5 -42 5 -62 0 -21 5 -38 10 -38 14 0 11 49 -6 90 -9
22 -12 26 -9 10z"/>
<path d="M2753 75 c0 -22 2 -30 4 -17 2 12 2 30 0 40 -3 9 -5 -1 -4 -23z"/>
<path d="M2570 65 c0 -14 4 -25 9 -25 4 0 6 11 3 25 -6 32 -12 32 -12 0z"/>
<path d="M1867 59 c4 -13 8 -18 11 -10 2 7 -1 18 -6 23 -8 8 -9 4 -5 -13z"/>
<path d="M2386 71 c-4 -5 -2 -20 3 -33 9 -21 10 -21 10 10 1 32 -3 39 -13 23z"/>
<path d="M2471 54 c0 -11 3 -14 6 -6 3 7 2 16 -1 19 -3 4 -6 -2 -5 -13z"/>
<path d="M253 38 c-18 -24 -24 -38 -16 -38 10 0 36 40 30 46 -2 3 -9 -1 -14
-8z"/>
<path d="M341 14 c0 -11 3 -14 6 -6 3 7 2 16 -1 19 -3 4 -6 -2 -5 -13z"/>
<path d="M375 10 c3 -5 16 -10 28 -10 18 0 19 2 7 10 -20 13 -43 13 -35 0z"/>
</g>
</svg>
