<?xml version="1.0" standalone="no"?>
<!DOCTYPE svg PUBLIC "-//W3C//DTD SVG 20010904//EN"
 "http://www.w3.org/TR/2001/REC-SVG-20010904/DTD/svg10.dtd">
<svg version="1.0" xmlns="http://www.w3.org/2000/svg"
 width="300.000000pt" height="300.000000pt" viewBox="0 0 300.000000 300.000000"
 preserveAspectRatio="xMidYMid meet">
<metadata>
Created by potrace 1.10, written by Peter Selinger 2001-2011
</metadata>
<g transform="translate(0.000000,300.000000) scale(0.100000,-0.100000)"
fill="#000000" stroke="none">
<path d="M385 2990 c3 -5 8 -10 11 -10 2 0 4 5 4 10 0 6 -5 10 -11 10 -5 0 -7
-4 -4 -10z"/>
<path d="M502 2975 c-17 -37 -14 -45 4 -12 9 16 14 31 11 33 -2 2 -9 -7 -15
-21z"/>
<path d="M767 2993 c-5 -7 -5 -18 -1 -25 4 -7 3 -8 -4 -4 -15 9 -16 -18 -2
-45 8 -14 7 -19 -2 -19 -7 0 -5 -5 6 -11 21 -13 41 7 26 26 -5 6 -10 28 -12
50 -2 25 -6 35 -11 28z"/>
<path d="M908 2993 c7 -3 16 -2 19 1 4 3 -2 6 -13 5 -11 0 -14 -3 -6 -6z"/>
<path d="M958 2993 c6 -2 18 -2 25 0 6 3 1 5 -13 5 -14 0 -19 -2 -12 -5z"/>
<path d="M1386 2985 c-3 -8 -1 -15 4 -15 6 0 10 -7 10 -16 0 -8 -4 -12 -10 -9
-5 3 -8 0 -5 -7 2 -7 6 -42 9 -77 8 -98 16 -85 12 20 -2 52 1 100 7 107 7 8 5
12 -6 12 -8 0 -17 -7 -21 -15z"/>
<path d="M1925 2983 c8 -23 25 -220 21 -255 -1 -15 -8 -33 -14 -41 -10 -11 -9
-17 3 -27 10 -9 15 -9 15 -1 0 6 7 11 15 11 8 0 15 -5 15 -11 0 -8 5 -7 16 1
8 8 14 9 13 4 -1 -5 3 -21 11 -36 10 -21 11 -44 3 -98 -8 -65 -3 -99 11 -68 3
7 3 3 0 -9 -3 -13 -2 -23 2 -23 11 0 33 33 34 50 0 13 -1 13 -10 0 -6 -10 -9
8 -8 55 0 39 -4 82 -10 96 -11 27 -64 72 -76 64 -3 -3 -2 1 4 7 5 7 10 19 10
28 0 13 -2 13 -11 0 -7 -11 -8 -6 -4 20 4 19 8 37 8 40 2 11 -14 176 -19 193
-3 9 -12 17 -21 17 -10 0 -13 -6 -8 -17z"/>
<path d="M961 2964 c0 -11 3 -14 6 -6 3 7 2 16 -1 19 -3 4 -6 -2 -5 -13z"/>
<path d="M376 2955 c-3 -8 -1 -15 4 -15 6 0 10 7 10 15 0 8 -2 15 -4 15 -2 0
-6 -7 -10 -15z"/>
<path d="M726 2951 c-4 -7 -5 -15 -2 -18 9 -9 19 4 14 18 -4 11 -6 11 -12 0z"/>
<path d="M831 2944 c0 -11 3 -14 6 -6 3 7 2 16 -1 19 -3 4 -6 -2 -5 -13z"/>
<path d="M346 2925 c4 -8 8 -15 10 -15 2 0 4 7 4 15 0 8 -4 15 -10 15 -5 0 -7
-7 -4 -15z"/>
<path d="M477 2923 c-4 -3 -7 -13 -7 -22 1 -13 3 -13 11 2 11 19 8 33 -4 20z"/>
<path d="M834 2868 l-7 -33 -12 28 -11 28 -19 -21 c-11 -12 -15 -20 -10 -18 6
2 20 -7 32 -19 13 -13 17 -23 11 -25 -7 -3 -6 -9 4 -19 11 -10 13 -20 7 -36
-5 -13 -5 -23 0 -23 11 0 5 -74 -8 -110 -18 -48 -20 -98 -5 -104 16 -6 20 -96
5 -124 -4 -9 -11 -52 -15 -95 -5 -61 -4 -77 6 -75 21 5 25 16 27 79 1 33 6 72
12 85 12 34 11 95 -3 151 -8 35 -8 60 1 107 8 42 9 70 3 87 -6 14 -7 32 -2 39
5 8 6 19 3 24 -4 5 -5 32 -4 58 3 55 -4 63 -15 16z"/>
<path d="M955 2860 c-11 -67 -13 -473 -2 -487 5 -7 7 -20 3 -28 -3 -8 -1 -15
4 -15 6 0 10 12 10 26 0 14 4 23 9 20 5 -3 9 10 9 29 0 19 -3 37 -7 39 -3 2
-6 98 -5 213 1 214 -7 288 -21 203z"/>
<path d="M449 2863 c-1 -10 -3 -28 -4 -40 -1 -13 2 -23 6 -23 5 0 9 16 9 36 0
21 4 33 10 29 6 -3 10 -1 10 4 0 19 -30 12 -31 -6z"/>
<path d="M322 2835 c0 -16 2 -22 5 -12 2 9 2 23 0 30 -3 6 -5 -1 -5 -18z"/>
<path d="M1170 2850 c0 -5 5 -10 10 -10 6 0 10 5 10 10 0 6 -4 10 -10 10 -5 0
-10 -4 -10 -10z"/>
<path d="M298 2817 c-3 -19 -2 -25 4 -19 6 6 8 18 6 28 -3 14 -5 12 -10 -9z"/>
<path d="M600 2835 c0 -2 7 -8 15 -15 12 -10 15 -10 15 2 0 8 -7 15 -15 15 -8
0 -15 -1 -15 -2z"/>
<path d="M1491 2824 c0 -11 3 -14 6 -6 3 7 2 16 -1 19 -3 4 -6 -2 -5 -13z"/>
<path d="M1185 2799 c10 -35 23 -45 18 -15 -3 15 -10 29 -15 32 -6 4 -7 -2 -3
-17z"/>
<path d="M584 2791 c11 -17 15 -82 6 -76 -6 4 -8 -9 -5 -31 6 -47 15 -57 15
-16 0 17 4 33 10 37 5 3 6 13 3 21 -3 8 0 26 7 40 14 26 5 48 -10 24 -7 -10
-10 -11 -10 -2 0 6 -5 12 -11 12 -5 0 -8 -4 -5 -9z"/>
<path d="M1500 2759 c0 -16 4 -28 9 -25 8 5 3 56 -5 56 -2 0 -4 -14 -4 -31z"/>
<path d="M290 2770 c0 -5 5 -10 11 -10 5 0 7 5 4 10 -3 6 -8 10 -11 10 -2 0
-4 -4 -4 -10z"/>
<path d="M1400 2749 c0 -20 7 -44 15 -55 9 -11 13 -13 10 -4 -2 8 -6 30 -9 48
-6 47 -16 53 -16 11z"/>
<path d="M1652 2755 c-2 -27 13 -42 24 -24 5 8 3 9 -6 4 -10 -6 -12 -3 -8 13
4 12 3 24 -1 26 -4 3 -8 -6 -9 -19z"/>
<path d="M1710 2765 c0 -8 4 -15 10 -15 5 0 7 7 4 15 -4 8 -8 15 -10 15 -2 0
-4 -7 -4 -15z"/>
<path d="M1623 2747 c3 -8 1 -20 -3 -27 -11 -18 10 -50 32 -50 22 0 22 4 1 51
-16 35 -42 57 -30 26z"/>
<path d="M1826 2733 c-21 -103 -31 -283 -16 -283 6 0 8 -5 4 -12 -5 -7 -3 -8
6 -3 8 5 10 20 7 40 -3 18 -2 36 1 40 7 7 14 245 7 245 -2 0 -6 -12 -9 -27z"/>
<path d="M274 2734 c3 -9 6 -19 6 -22 0 -9 20 21 20 31 0 4 -7 7 -16 7 -11 0
-14 -5 -10 -16z"/>
<path d="M1716 2733 c5 -5 12 -12 16 -18 4 -6 8 -2 8 8 0 9 -7 17 -17 17 -9 0
-12 -3 -7 -7z"/>
<path d="M1507 2714 c-4 -4 -7 -28 -7 -54 0 -25 -6 -52 -12 -60 -11 -12 -10
-12 3 -2 14 11 18 6 29 -35 7 -27 17 -52 21 -58 5 -5 9 -23 9 -40 0 -16 4 -36
9 -44 11 -17 6 52 -8 108 -5 20 -9 58 -10 85 -2 53 -22 112 -34 100z"/>
<path d="M262 2680 c0 -14 2 -19 5 -12 2 6 2 18 0 25 -3 6 -5 1 -5 -13z"/>
<path d="M1160 2672 c0 -22 -5 -32 -16 -32 -8 0 -12 -5 -8 -11 3 -6 0 -15 -7
-20 -11 -7 -11 -9 3 -9 9 0 18 6 21 13 2 6 9 -4 15 -23 9 -31 10 -26 7 34 -4
69 -15 106 -15 48z"/>
<path d="M431 2654 c0 -11 3 -14 6 -6 3 7 2 16 -1 19 -3 4 -6 -2 -5 -13z"/>
<path d="M1410 2661 c0 -5 5 -13 10 -16 6 -3 10 -2 10 4 0 5 -4 13 -10 16 -5
3 -10 2 -10 -4z"/>
<path d="M1000 2622 c0 -22 22 -72 33 -72 12 0 7 54 -7 73 -17 22 -26 22 -26
-1z"/>
<path d="M1240 2620 c0 -11 5 -20 10 -20 6 0 10 9 10 20 0 11 -4 20 -10 20 -5
0 -10 -9 -10 -20z"/>
<path d="M635 2620 c3 -5 8 -10 11 -10 2 0 4 5 4 10 0 6 -5 10 -11 10 -5 0 -7
-4 -4 -10z"/>
<path d="M1355 2620 c3 -5 8 -10 11 -10 2 0 4 5 4 10 0 6 -5 10 -11 10 -5 0
-7 -4 -4 -10z"/>
<path d="M684 2602 c4 -7 1 -15 -8 -18 -20 -8 -21 -34 -1 -34 8 0 18 -1 22 -2
14 -6 9 43 -6 55 -12 9 -13 9 -7 -1z"/>
<path d="M1261 2574 c0 -11 3 -14 6 -6 3 7 2 16 -1 19 -3 4 -6 -2 -5 -13z"/>
<path d="M1362 2555 c0 -16 2 -22 5 -12 2 9 2 23 0 30 -3 6 -5 -1 -5 -18z"/>
<path d="M1713 2444 c-2 -37 1 -54 10 -54 8 0 7 -4 -3 -11 -13 -9 -13 -10 0
-6 11 3 15 18 15 56 0 72 -19 85 -22 15z"/>
<path d="M231 2481 c-8 -5 -9 -11 -3 -15 5 -3 15 1 22 9 14 16 3 20 -19 6z"/>
<path d="M2069 2443 c-13 -17 -12 -17 4 -4 16 13 18 13 16 0 -4 -17 73 -179
85 -179 5 0 4 6 -1 13 -5 6 -16 28 -23 47 -18 49 -60 140 -64 140 -2 0 -10 -8
-17 -17z"/>
<path d="M1990 2439 c0 -5 5 -7 10 -4 6 3 10 8 10 11 0 2 -4 4 -10 4 -5 0 -10
-5 -10 -11z"/>
<path d="M450 2415 c0 -8 4 -15 10 -15 5 0 7 7 4 15 -4 8 -8 15 -10 15 -2 0
-4 -7 -4 -15z"/>
<path d="M1919 2425 c-3 -2 -22 -5 -44 -8 -156 -16 -257 -169 -324 -492 -32
-157 -36 -197 -44 -405 -3 -93 -3 -99 3 -30 5 74 6 64 7 -73 1 -143 3 -160 23
-195 25 -41 49 -159 50 -239 0 -28 5 -55 12 -59 8 -5 10 11 6 62 l-6 69 16
-65 c9 -36 18 -57 20 -47 2 10 -6 49 -17 87 -26 86 -27 118 -2 70 11 -19 31
-45 45 -57 51 -44 53 -29 14 89 -20 62 -40 137 -43 165 -4 29 -11 50 -16 48
-4 -3 -6 -20 -4 -38 2 -17 7 -56 11 -84 3 -29 10 -53 15 -53 4 0 6 -9 4 -20
-2 -11 0 -18 6 -15 5 4 9 0 9 -7 0 -7 3 -24 6 -38 4 -20 3 -22 -5 -10 -6 8
-11 11 -11 5 0 -9 -15 11 -49 65 -18 28 -41 83 -41 97 0 8 -4 12 -9 8 -6 -3
-6 7 -1 26 7 24 6 30 -5 26 -10 -4 -12 2 -9 26 3 18 6 127 8 242 2 116 5 210
6 210 1 0 3 14 5 30 5 45 12 96 20 140 7 32 9 36 16 20 5 -15 7 -10 7 16 -1
22 10 60 26 90 15 30 20 45 11 35 -8 -11 -15 -24 -15 -30 0 -5 -2 -7 -5 -4 -7
7 25 78 44 98 9 10 10 15 2 18 -20 7 -12 22 12 22 16 0 18 3 8 9 -11 7 -9 10
8 16 12 3 19 11 15 16 -3 6 -12 5 -22 -3 -10 -7 -3 4 13 24 17 20 34 37 38 37
5 1 6 -3 3 -7 -2 -4 7 -8 22 -9 16 0 19 1 9 4 -11 3 -16 11 -13 19 4 10 1 13
-7 8 -6 -3 1 5 17 19 l30 24 17 -21 c12 -15 14 -23 6 -28 -7 -4 -10 -8 -7 -9
3 0 14 -2 25 -4 11 -2 21 -9 23 -14 2 -6 8 -11 13 -11 5 0 4 11 -3 25 -6 13
-16 23 -22 22 -6 -1 -10 6 -10 15 1 10 -2 16 -6 13 -4 -3 -11 2 -14 11 -5 13
-2 15 14 11 11 -3 20 -2 20 3 0 20 43 17 62 -5 12 -14 29 -22 44 -20 20 2 23
-1 20 -22 -3 -13 -1 -21 3 -19 8 6 72 -24 96 -44 8 -7 12 -16 10 -21 -3 -4
-26 6 -50 22 -25 17 -51 28 -58 26 -9 -4 -9 -6 1 -6 7 -1 18 -6 25 -11 7 -6
24 -20 40 -31 15 -11 24 -25 21 -31 -4 -7 -2 -8 5 -4 6 4 14 0 17 -8 3 -9 11
-16 17 -16 5 0 3 8 -6 18 -10 10 -17 21 -17 24 0 12 32 1 41 -13 7 -12 9 -12
9 1 1 12 3 11 11 -3 5 -9 8 -21 5 -25 -2 -4 2 -15 9 -25 11 -16 13 -15 13 10
0 33 -32 98 -66 135 -14 16 -21 31 -17 39 5 7 4 10 -3 5 -6 -3 -19 5 -30 19
-21 26 -62 42 -62 24 0 -6 -5 -7 -10 -4 -6 4 -8 9 -6 13 4 7 -49 14 -55 7z
m71 -30 c38 0 157 -132 137 -152 -3 -2 -10 5 -16 16 -6 11 -23 32 -37 46 -25
26 -40 33 -29 15 4 -6 -9 -3 -29 6 -19 10 -33 21 -30 25 6 10 34 0 34 -12 0
-5 5 -9 10 -9 6 0 10 5 10 10 0 10 -40 31 -83 44 -10 3 -15 11 -11 17 3 6 9 7
13 2 3 -5 17 -9 31 -8z"/>
<path d="M1020 2409 c0 -11 48 -39 65 -39 14 0 14 3 -2 24 -16 22 -63 33 -63
15z"/>
<path d="M1580 2411 c0 -6 -7 -11 -16 -11 -9 0 -12 -5 -8 -12 4 -6 7 -60 5
-119 -1 -66 3 -110 9 -114 12 -7 31 35 22 50 -3 5 -7 28 -9 50 -3 38 -2 39 10
17 14 -24 14 -24 14 8 0 24 -4 29 -16 25 -11 -5 -11 -1 3 14 10 11 15 25 10
32 -5 9 -10 7 -16 -7 -6 -13 -7 -9 -3 14 3 23 1 31 -7 26 -7 -5 -8 -3 -3 6 6
10 11 9 21 -4 8 -12 14 -14 19 -6 4 6 5 12 4 13 -2 2 -12 9 -21 16 -12 9 -18
10 -18 2z"/>
<path d="M500 2396 c0 -8 -5 -16 -12 -18 -7 -3 -6 -7 5 -11 13 -5 17 -1 17 18
0 14 -2 25 -5 25 -3 0 -5 -6 -5 -14z"/>
<path d="M1170 2394 c0 -8 5 -12 10 -9 6 4 8 11 5 16 -9 14 -15 11 -15 -7z"/>
<path d="M450 2370 c0 -19 3 -21 12 -12 9 9 9 15 0 24 -9 9 -12 7 -12 -12z"/>
<path d="M1870 2380 c-13 -9 -12 -12 5 -26 11 -8 19 -22 17 -29 -2 -12 2 -13
23 -5 15 6 30 8 34 6 4 -3 8 1 8 9 0 11 -5 12 -20 3 -21 -11 -42 7 -30 26 3 5
1 6 -5 2 -6 -3 -12 0 -14 9 -2 10 -7 12 -18 5z"/>
<path d="M2782 2370 c0 -14 2 -19 5 -12 2 6 2 18 0 25 -3 6 -5 1 -5 -13z"/>
<path d="M1201 2354 c-1 -12 6 -25 15 -28 13 -5 14 -3 7 6 -6 7 -13 20 -16 28
-4 10 -6 8 -6 -6z"/>
<path d="M700 2358 c0 -3 6 -11 14 -17 10 -9 17 -7 27 6 12 16 12 17 -2 6 -12
-10 -18 -10 -27 -1 -7 7 -12 9 -12 6z"/>
<path d="M2160 2331 c0 -6 4 -13 10 -16 6 -3 7 1 4 9 -7 18 -14 21 -14 7z"/>
<path d="M1778 2323 c7 -3 16 -2 19 1 4 3 -2 6 -13 5 -11 0 -14 -3 -6 -6z"/>
<path d="M2875 2320 c3 -5 8 -10 11 -10 2 0 4 5 4 10 0 6 -5 10 -11 10 -5 0
-7 -4 -4 -10z"/>
<path d="M216 2305 c-3 -8 -1 -15 4 -15 6 0 10 7 10 15 0 8 -2 15 -4 15 -2 0
-6 -7 -10 -15z"/>
<path d="M496 2305 c4 -8 8 -15 10 -15 2 0 4 7 4 15 0 8 -4 15 -10 15 -5 0 -7
-7 -4 -15z"/>
<path d="M1203 2305 c0 -8 4 -12 9 -9 5 3 6 10 3 15 -9 13 -12 11 -12 -6z"/>
<path d="M2460 2299 c0 -11 -4 -28 -10 -38 -6 -12 -5 -24 3 -35 10 -14 12 -7
14 39 1 30 0 55 -3 55 -2 0 -4 -9 -4 -21z"/>
<path d="M1896 2301 c-3 -5 12 -11 34 -15 21 -3 42 -11 46 -18 5 -8 2 -9 -12
-3 -39 16 -67 19 -59 5 4 -7 2 -16 -6 -21 -11 -6 -10 -9 4 -15 17 -6 17 -7 0
-21 -13 -10 -15 -16 -5 -19 6 -3 10 -9 7 -14 -2 -4 3 -22 12 -40 9 -18 17 -53
19 -78 2 -25 6 -47 9 -50 3 -3 0 -11 -6 -18 -7 -8 -7 -14 1 -19 5 -3 10 -11
10 -17 0 -7 -4 -7 -12 0 -10 8 -13 4 -14 -14 -1 -14 2 -21 8 -18 6 4 8 -2 3
-15 -7 -23 7 -28 24 -8 8 10 7 17 -1 25 -7 7 -8 12 -2 12 6 0 16 -6 23 -12 10
-11 11 -10 6 5 -4 9 -11 17 -16 17 -5 0 -9 7 -9 16 0 8 5 12 10 9 14 -8 13 -1
-5 42 -19 45 -19 46 4 26 11 -9 17 -21 14 -27 -3 -6 -3 -8 2 -4 4 4 19 -7 32
-24 28 -39 28 -42 3 -28 -25 13 -25 9 0 -20 21 -25 20 -39 -3 -24 -7 5 -4 1 6
-8 26 -25 40 -22 32 5 -7 22 -7 22 8 2 11 -15 12 -22 4 -27 -9 -6 -8 -8 1 -8
7 0 10 -5 7 -10 -4 -6 -12 -4 -21 5 -20 19 -25 19 -17 -2 5 -12 3 -14 -8 -8
-8 5 -11 5 -6 -1 5 -5 12 -9 16 -9 4 0 15 -8 25 -17 10 -10 14 -18 10 -18 -4
0 1 -9 11 -20 10 -11 23 -20 28 -20 6 0 2 8 -7 19 -15 17 -15 19 -1 25 24 9
28 8 22 -8 -7 -17 28 -76 45 -76 6 0 9 -3 5 -6 -3 -4 0 -13 8 -21 17 -16 20
-37 5 -28 -6 3 -7 -1 -4 -9 3 -9 1 -16 -4 -16 -19 0 -24 20 -10 38 12 15 11
16 -4 3 -15 -11 -19 -10 -30 15 -14 32 -34 48 -60 50 -10 1 -14 -4 -11 -13 4
-11 8 -12 13 -3 5 9 10 6 15 -9 3 -12 11 -19 16 -15 5 3 8 2 7 -3 -2 -4 7 -18
20 -30 12 -13 22 -31 22 -40 0 -15 -2 -16 -10 -3 -19 29 -10 1 11 -34 23 -40
27 -43 25 -22 0 8 4 15 9 15 6 0 9 -8 8 -17 -1 -10 0 -11 3 -4 3 6 11 9 16 6
6 -4 8 -2 5 3 -4 6 -1 13 7 16 18 7 15 -15 -4 -39 -8 -10 -10 -15 -4 -11 7 4
14 -2 17 -13 3 -11 1 -18 -3 -15 -14 9 -22 -15 -10 -30 9 -10 8 -21 -5 -44 -9
-18 -13 -41 -9 -56 4 -15 2 -25 -5 -25 -6 0 -8 6 -5 14 3 7 -2 16 -10 19 -9 4
-13 13 -10 22 4 8 1 15 -6 15 -13 0 -5 -58 11 -75 14 -14 11 -35 -5 -35 -22 0
-24 -85 -5 -170 9 -41 18 -71 18 -66 1 5 9 2 19 -5 15 -13 16 -12 3 4 -7 9
-10 17 -5 17 5 0 4 4 -1 8 -31 21 -48 182 -20 182 8 0 15 -6 16 -12 0 -7 7 10
16 37 13 45 19 72 37 171 10 57 -35 466 -52 472 -5 1 -8 11 -5 20 3 15 -22
133 -29 136 -2 1 -17 14 -34 29 l-31 28 5 -28 c3 -15 7 -22 9 -16 5 15 19 2
41 -35 15 -27 15 -29 -3 -29 -8 0 -11 5 -8 10 3 6 2 7 -4 4 -6 -4 -24 11 -42
33 -33 41 -41 61 -16 40 8 -7 15 -10 15 -7 0 2 -26 26 -57 53 -34 30 -54 41
-50 30 6 -16 5 -17 -8 -6 -8 7 -13 16 -10 20 7 11 -48 50 -68 50 -9 0 -18 -4
-21 -9z m58 -53 c-5 -7 -2 -9 7 -6 8 3 27 -7 43 -23 29 -28 54 -40 40 -18 -4
8 0 8 15 0 24 -13 29 -26 6 -17 -15 5 -22 -9 -7 -16 11 -5 97 -110 110 -135
16 -30 15 -38 -3 -23 -13 11 -14 10 -9 -4 3 -9 13 -16 21 -16 8 0 11 -4 8 -10
-3 -5 2 -24 11 -42 17 -33 23 -59 28 -133 2 -22 6 -49 10 -60 5 -15 3 -14 -5
3 -7 12 -15 22 -19 22 -4 0 -10 13 -13 30 -4 16 -15 38 -26 49 -11 11 -17 21
-15 24 3 2 -9 26 -26 53 -16 27 -33 57 -36 67 -4 9 -9 17 -13 17 -4 0 -7 9 -8
21 -2 16 1 18 12 9 17 -14 28 1 18 26 -5 12 -3 15 6 9 10 -6 11 -3 2 14 -14
25 -23 28 -14 4 6 -16 5 -16 -10 -4 -9 7 -17 20 -17 27 0 8 -7 14 -16 14 -8 0
-13 4 -10 8 7 11 -49 65 -70 68 -9 1 -25 11 -36 20 -18 17 -18 19 -1 25 25 10
25 10 17 -3z m-11 -55 c11 -10 17 -12 13 -5 -5 8 -1 11 12 9 26 -4 52 -26 52
-44 0 -8 5 -11 12 -7 6 4 8 3 5 -3 -4 -6 2 -22 13 -35 11 -14 16 -29 12 -33
-4 -5 -2 -5 4 -2 13 8 40 -20 30 -30 -3 -3 -6 -1 -6 6 0 6 -6 11 -14 9 -8 -2
-25 13 -38 32 -13 19 -32 37 -43 39 -14 2 -10 -6 18 -34 48 -48 65 -77 40 -68
-16 5 -17 4 -2 -8 24 -20 102 -140 96 -146 -9 -8 -28 7 -22 17 3 5 -5 14 -17
20 -22 11 -22 10 -4 -4 11 -9 16 -16 10 -16 -5 0 9 -16 30 -35 22 -19 34 -35
27 -35 -7 0 9 -28 35 -62 27 -34 41 -59 32 -56 -12 5 -14 2 -10 -14 4 -15 7
-17 13 -6 5 7 9 9 9 3 0 -5 -4 -16 -9 -24 -7 -11 -11 -10 -19 5 -9 16 -10 15
-9 -8 2 -18 6 -24 17 -20 13 5 13 4 1 -12 -14 -17 -16 -17 -28 0 -7 10 -11 25
-7 34 15 37 13 48 -15 85 -17 22 -35 44 -39 50 -5 6 -2 15 7 23 9 7 11 11 5
10 -13 -3 -67 51 -70 70 -4 21 -25 42 -37 35 -7 -4 -8 0 -4 12 7 17 -29 76
-62 101 -7 6 -15 22 -15 35 -1 13 -10 37 -20 52 -10 15 -16 30 -12 34 3 4 -1
15 -11 25 -21 23 -6 24 20 1z m251 -146 c11 -43 5 -51 -14 -17 -23 42 -24 51
-6 44 8 -3 17 -15 20 -27z m-93 -191 c5 3 9 -2 9 -10 0 -9 -4 -16 -9 -16 -13
0 -32 26 -24 34 4 4 9 2 11 -3 2 -6 8 -9 13 -5z m84 -236 c-6 -9 -9 -9 -16 1
-10 17 0 34 13 21 6 -6 7 -16 3 -22z"/>
<path d="M2105 2020 c-9 -15 23 -62 37 -54 7 5 9 2 6 -8 -4 -9 0 -15 8 -15 19
0 18 7 -11 50 -28 40 -31 42 -40 27z m25 -28 c0 -15 -2 -15 -10 -2 -13 20 -13
33 0 25 6 -3 10 -14 10 -23z"/>
<path d="M2158 1923 c6 -2 9 -10 6 -15 -4 -6 -2 -8 3 -5 13 8 26 -20 17 -36
-5 -9 -4 -9 5 -1 16 15 -6 64 -28 63 -11 0 -12 -2 -3 -6z"/>
<path d="M2206 1817 c3 -10 9 -15 12 -12 3 3 0 11 -7 18 -10 9 -11 8 -5 -6z"/>
<path d="M1976 2173 c-6 -14 -5 -15 5 -6 7 7 10 15 7 18 -3 3 -9 -2 -12 -12z"/>
<path d="M1975 2090 c3 -5 11 -10 16 -10 6 0 7 5 4 10 -3 6 -11 10 -16 10 -6
0 -7 -4 -4 -10z"/>
<path d="M697 2287 c-3 -9 1 -21 9 -27 11 -10 14 -10 14 1 0 8 -4 20 -9 27 -7
11 -9 11 -14 -1z"/>
<path d="M947 2293 c-2 -5 -1 -19 4 -33 7 -23 7 -23 8 8 1 31 -3 40 -12 25z"/>
<path d="M1173 2274 c-4 -10 -2 -19 5 -22 7 -2 12 -8 12 -13 0 -4 11 -32 24
-61 31 -69 50 -136 47 -170 -4 -40 17 -35 24 6 5 23 0 47 -14 79 -12 25 -21
50 -21 56 0 5 -5 22 -11 38 -6 15 -10 29 -10 31 3 6 -30 61 -39 67 -6 3 -13
-2 -17 -11z"/>
<path d="M95 2270 c3 -5 8 -10 11 -10 2 0 4 5 4 10 0 6 -5 10 -11 10 -5 0 -7
-4 -4 -10z"/>
<path d="M1750 2270 c0 -12 8 -12 35 0 18 8 17 9 -7 9 -16 1 -28 -3 -28 -9z"/>
<path d="M1812 2274 c3 -3 21 -7 39 -9 25 -3 30 -2 19 5 -16 10 -67 14 -58 4z"/>
<path d="M2876 2267 c3 -10 9 -15 12 -12 3 3 0 11 -7 18 -10 9 -11 8 -5 -6z"/>
<path d="M1441 2244 c0 -11 3 -14 6 -6 3 7 2 16 -1 19 -3 4 -6 -2 -5 -13z"/>
<path d="M1835 2251 c-3 -6 2 -11 11 -11 23 0 13 -9 -16 -15 -31 -6 -36 -13
-21 -28 10 -9 12 -9 9 3 -2 9 5 14 22 15 18 0 25 6 25 19 0 22 -20 33 -30 17z"/>
<path d="M1742 2243 c-39 -8 -45 -37 -15 -69 15 -16 26 -35 25 -43 -2 -7 1
-10 6 -7 6 3 12 -1 16 -9 3 -8 -2 -19 -12 -24 -9 -5 -15 -12 -12 -14 3 -3 19
7 35 21 17 15 26 24 21 20 -14 -11 -28 -10 -21 2 3 6 1 10 -6 10 -7 0 -9 3 -6
7 4 3 -1 12 -11 20 -16 13 -15 14 6 10 12 -3 22 -1 22 5 0 5 5 6 10 3 8 -5 7
-11 0 -20 -10 -12 -6 -13 20 -5 58 17 76 50 27 50 -20 0 -20 0 -1 -15 18 -14
18 -14 -6 -15 -15 0 -31 5 -38 12 -9 9 -18 9 -38 -1 -15 -6 -29 -9 -32 -7 -2
3 7 11 22 17 14 7 26 16 26 21 0 12 -11 10 -29 -6 -10 -10 -22 -12 -30 -7 -11
7 -6 13 18 25 17 9 31 19 31 21 0 3 -1 4 -2 4 -2 -1 -13 -4 -26 -6z"/>
<path d="M936 2227 c3 -10 9 -15 12 -12 3 3 0 11 -7 18 -10 9 -11 8 -5 -6z"/>
<path d="M771 2220 c0 -8 4 -24 9 -35 5 -13 9 -14 9 -5 0 8 -4 24 -9 35 -5 13
-9 14 -9 5z"/>
<path d="M1440 2185 c0 -19 5 -35 10 -35 6 0 10 6 10 13 0 6 3 22 6 35 5 16 2
22 -10 22 -12 0 -16 -9 -16 -35z"/>
<path d="M821 2194 c0 -11 3 -14 6 -6 3 7 2 16 -1 19 -3 4 -6 -2 -5 -13z"/>
<path d="M2186 2195 c3 -11 6 -27 6 -35 1 -8 11 -55 24 -105 31 -117 85 -465
84 -547 0 -29 17 -248 24 -308 30 -258 37 -326 33 -342 -7 -27 95 -104 119
-90 13 7 25 2 51 -24 18 -19 39 -34 46 -34 17 0 61 -47 81 -87 28 -56 54 -193
78 -411 14 -131 26 -211 33 -209 11 4 15 105 6 122 -3 6 -6 26 -7 45 -3 135
-7 190 -14 190 -4 0 -10 11 -12 25 -3 13 -1 22 3 19 12 -7 11 0 -5 32 -8 15
-13 31 -10 35 6 11 -24 115 -46 159 -10 19 -27 43 -39 54 -11 10 -18 23 -14
29 3 5 1 7 -5 3 -6 -3 -16 0 -24 7 -7 7 -25 18 -40 24 -16 7 -28 19 -28 28 0
15 -16 19 -53 15 -19 -2 -92 48 -83 57 2 3 0 16 -5 30 -6 18 -6 30 2 39 6 8 7
14 2 14 -5 0 -11 17 -12 37 -3 41 -8 88 -11 88 -3 0 -10 43 -15 100 -3 33 -8
71 -11 84 -3 14 0 28 8 33 10 8 9 9 -3 5 -12 -4 -15 2 -16 27 0 104 -19 345
-29 375 -2 7 0 19 6 26 7 9 6 16 -5 25 -17 14 -21 35 -5 25 15 -9 12 11 -3 23
-7 6 -12 27 -12 46 1 20 -2 36 -7 36 -4 0 -8 5 -8 11 0 5 4 8 9 4 6 -3 6 8 1
27 -5 18 -9 56 -8 83 1 28 0 68 -1 90 l-3 40 -12 -48 -11 -47 -18 67 c-10 38
-25 82 -33 98 -8 17 -12 21 -8 10z"/>
<path d="M913 2151 c-7 -37 -7 -51 1 -51 6 0 19 -18 29 -40 10 -22 22 -38 27
-35 9 6 20 -18 20 -46 0 -10 7 -19 15 -19 8 0 16 -9 16 -20 2 -33 4 -38 13
-47 5 -5 6 -3 2 5 -4 6 -4 12 -1 12 9 0 28 -22 47 -55 16 -30 48 -46 48 -26 0
6 -4 11 -10 11 -5 0 -10 7 -10 15 0 8 -5 14 -12 12 -7 -1 -13 5 -14 13 -4 47
-4 46 -14 30 -5 -8 -10 -10 -10 -5 -5 59 -10 79 -24 94 -9 10 -16 23 -16 30 0
6 -11 16 -25 21 -14 5 -29 18 -32 27 -4 10 -13 24 -20 31 -7 7 -13 23 -13 35
1 21 1 21 14 4 19 -25 29 2 10 28 -8 10 -14 15 -14 9 0 -5 -4 -3 -9 4 -5 9
-11 -4 -18 -37z"/>
<path d="M1676 2183 c-6 -14 -5 -15 5 -6 7 7 10 15 7 18 -3 3 -9 -2 -12 -12z"/>
<path d="M2453 2172 c1 -14 5 -18 11 -12 7 7 6 14 -1 21 -9 9 -12 7 -10 -9z"/>
<path d="M597 2173 c-4 -3 -2 -12 4 -19 6 -8 9 -20 6 -27 -3 -8 3 -22 14 -31
19 -15 19 -15 14 9 -3 14 -7 36 -10 50 -5 25 -15 31 -28 18z"/>
<path d="M413 2163 c4 -3 2 -12 -4 -20 -9 -9 -8 -13 0 -13 6 0 11 2 11 4 0 2
3 11 6 20 4 10 1 16 -7 16 -7 0 -9 -3 -6 -7z"/>
<path d="M1702 2156 c7 -8 15 -12 17 -11 5 6 -10 25 -20 25 -5 0 -4 -6 3 -14z"/>
<path d="M847 2153 c-4 -3 -7 -11 -7 -17 0 -6 5 -5 12 2 6 6 9 14 7 17 -3 3
-9 2 -12 -2z"/>
<path d="M1862 2151 c-11 -7 -10 -10 3 -15 26 -10 35 -7 35 9 0 17 -18 19 -38
6z"/>
<path d="M1300 2133 c-13 -15 -12 -16 4 -10 10 4 20 7 22 7 2 0 4 5 4 10 0 15
-13 12 -30 -7z"/>
<path d="M192 2128 c-7 -7 -12 -22 -12 -34 0 -12 -4 -24 -8 -26 -4 -1 -5 -16
-1 -33 l7 -30 1 33 c0 17 5 32 11 32 5 0 7 7 4 15 -4 8 -2 15 3 15 5 0 9 9 9
20 0 11 -1 20 -1 20 -1 0 -6 -5 -13 -12z"/>
<path d="M1441 2124 c0 -11 3 -14 6 -6 3 7 2 16 -1 19 -3 4 -6 -2 -5 -13z"/>
<path d="M1843 2127 c19 -16 14 -47 -8 -47 -7 0 -33 -19 -59 -43 -35 -33 -46
-39 -46 -25 0 10 5 18 12 18 6 0 8 3 5 7 -4 3 -18 -6 -32 -21 -32 -34 -49 -66
-36 -66 6 0 15 9 21 20 6 11 15 20 21 20 6 0 7 -4 4 -10 -13 -20 7 -32 25 -15
12 11 20 13 25 5 9 -14 -14 -42 -28 -33 -6 4 -7 1 -3 -6 5 -7 1 -18 -9 -25
-24 -17 -13 -69 12 -59 11 4 14 3 9 -5 -7 -12 6 -17 17 -6 9 10 -16 32 -30 27
-15 -6 -17 6 -5 25 6 9 14 5 31 -14 25 -29 41 -27 57 4 6 12 14 19 19 14 5 -4
5 -2 2 4 -4 7 0 17 8 24 13 11 14 10 9 -6 -4 -10 -11 -24 -15 -30 -5 -6 -6
-13 -3 -16 3 -3 -7 -15 -21 -26 -28 -22 -71 -79 -93 -122 -7 -14 -23 -43 -37
-65 -13 -21 -22 -42 -19 -47 3 -4 -7 -30 -21 -57 -27 -54 -34 -85 -9 -37 12
21 19 25 27 17 9 -9 8 -19 -5 -41 l-17 -30 55 -16 c36 -10 54 -21 55 -32 1 -9
2 -74 3 -143 1 -102 4 -131 17 -145 9 -11 14 -26 12 -34 -3 -11 0 -10 10 3 21
25 27 21 27 -15 0 -21 3 -28 8 -20 15 23 2 71 -21 74 -29 4 -35 35 -29 158 4
86 2 112 -12 138 -9 18 -21 30 -27 26 -5 -3 -21 2 -34 10 -19 12 -25 25 -25
52 0 21 -4 33 -10 29 -13 -8 -13 -2 1 29 7 14 16 23 22 19 6 -3 7 -1 3 5 -4 6
-2 19 3 29 5 10 19 43 31 73 27 68 37 80 62 80 13 0 18 5 15 14 -4 9 6 20 26
30 18 8 26 16 19 16 -8 0 -4 13 13 37 14 21 21 39 15 41 -6 2 -6 11 1 24 6 11
9 29 6 39 -3 10 0 19 6 19 6 0 7 3 4 7 -4 3 -3 11 1 18 4 6 -1 2 -10 -8 -10
-11 -15 -23 -12 -28 6 -11 -33 -54 -49 -54 -7 0 -12 -7 -13 -15 -2 -35 -5 -41
-15 -35 -6 4 -8 14 -5 24 4 10 -1 8 -13 -6 -15 -18 -21 -20 -29 -10 -7 8 -7
18 -2 27 9 13 10 13 10 0 1 -11 6 -9 19 7 10 12 21 20 24 17 3 -3 13 7 24 22
10 15 35 45 56 67 20 22 37 42 37 44 0 10 -15 -3 -74 -60 -59 -57 -65 -61 -76
-44 -11 18 -12 18 -31 1 -24 -21 -25 -6 -1 21 18 21 80 64 122 84 14 6 17 9 8
7 -10 -3 -18 -1 -18 4 0 6 10 10 22 10 18 0 18 14 0 15 -4 1 -18 6 -32 13 -22
12 -23 11 -7 -1z m-13 -162 c-7 -9 -15 -13 -19 -10 -3 3 1 10 9 15 21 14 24
12 10 -5z m-26 -96 c-3 -5 -10 -7 -15 -3 -5 3 -7 10 -3 15 3 5 10 7 15 3 5 -3
7 -10 3 -15z m-97 -231 c-3 -8 -6 -5 -6 6 -1 11 2 17 5 13 3 -3 4 -12 1 -19z"/>
<path d="M1407 2123 c-10 -9 -9 -123 1 -123 4 0 7 29 7 65 0 36 0 65 -1 65 0
0 -4 -3 -7 -7z"/>
<path d="M1705 2120 c-4 -6 -11 -8 -16 -5 -5 4 -9 0 -9 -8 0 -17 36 -15 53 3
9 11 7 11 -7 0 -18 -14 -19 -13 -13 3 7 19 2 23 -8 7z"/>
<path d="M2850 2119 c0 -5 5 -7 10 -4 6 3 10 8 10 11 0 2 -4 4 -10 4 -5 0 -10
-5 -10 -11z"/>
<path d="M2135 2110 c3 -5 8 -10 11 -10 2 0 4 5 4 10 0 6 -5 10 -11 10 -5 0
-7 -4 -4 -10z"/>
<path d="M1290 2101 c0 -6 4 -13 10 -16 6 -3 7 1 4 9 -7 18 -14 21 -14 7z"/>
<path d="M1809 2090 l-24 -20 28 11 c15 7 27 16 27 21 0 12 -5 10 -31 -12z"/>
<path d="M2462 2090 c0 -14 2 -19 5 -12 2 6 2 18 0 25 -3 6 -5 1 -5 -13z"/>
<path d="M291 2078 c-6 -10 -11 -21 -11 -25 0 -5 5 0 11 9 6 12 19 16 39 13
19 -2 30 1 30 8 0 19 -56 15 -69 -5z"/>
<path d="M700 2090 c-10 -6 -12 -12 -5 -19 7 -7 14 -4 23 9 13 21 6 25 -18 10z"/>
<path d="M781 2077 c-13 -21 -12 -21 5 -5 10 10 16 20 13 22 -3 3 -11 -5 -18
-17z"/>
<path d="M1490 2093 c0 -4 5 -15 10 -23 8 -13 10 -13 10 2 0 9 -4 20 -10 23
-5 3 -10 3 -10 -2z"/>
<path d="M1710 2065 c-13 -14 -19 -25 -13 -25 6 0 18 11 27 25 9 14 15 25 13
25 -2 0 -14 -11 -27 -25z"/>
<path d="M1665 2071 c-6 -11 9 -23 19 -14 9 9 7 23 -3 23 -6 0 -12 -4 -16 -9z"/>
<path d="M2581 2054 c0 -11 3 -14 6 -6 3 7 2 16 -1 19 -3 4 -6 -2 -5 -13z"/>
<path d="M1517 2030 c-9 -50 -15 -231 -6 -195 14 58 24 160 18 195 l-5 35 -7
-35z"/>
<path d="M1495 2040 c-3 -5 -1 -10 4 -10 6 0 11 5 11 10 0 6 -2 10 -4 10 -3 0
-8 -4 -11 -10z"/>
<path d="M1830 2035 c-7 -9 -11 -17 -9 -20 3 -2 10 5 17 15 14 24 10 26 -8 5z"/>
<path d="M687 2009 c10 -16 23 -29 30 -29 7 0 13 -7 13 -15 0 -8 9 -15 20 -15
14 0 18 -5 13 -17 -4 -11 -3 -14 5 -9 8 5 12 -1 11 -16 0 -13 6 -46 14 -74 12
-43 12 -53 0 -69 -7 -11 -11 -25 -9 -31 2 -6 0 -31 -6 -55 -16 -73 -17 -79
-10 -79 4 0 8 -28 9 -62 1 -33 6 -64 11 -67 8 -5 22 -61 24 -98 1 -7 5 -10 10
-7 4 3 8 -15 9 -40 2 -68 1 -132 -1 -163 -1 -25 -2 -26 -10 -8 -7 18 -11 -38
-13 -197 0 -20 -4 -35 -8 -32 -4 2 -6 -7 -3 -22 3 -14 0 -32 -7 -40 -7 -8 -9
-29 -6 -48 3 -19 3 -37 0 -39 -2 -3 -6 -38 -7 -77 -1 -39 -7 -75 -12 -78 -11
-8 -18 -197 -17 -417 2 -206 2 -205 13 -205 6 0 10 73 10 192 0 106 2 204 5
218 3 14 10 91 17 172 6 81 14 146 17 144 3 -2 5 21 4 52 0 31 -6 58 -12 60
-7 2 -5 9 4 19 8 8 15 26 15 41 1 66 11 154 20 177 21 56 6 371 -20 395 -14
13 -17 124 -9 311 3 61 0 91 -9 102 -7 8 -12 21 -10 29 1 7 -6 26 -16 41 -15
22 -21 25 -28 15 -7 -9 -8 -7 -5 8 4 22 -29 56 -59 60 -11 2 -11 -3 3 -27z"/>
<path d="M1661 2024 c0 -11 3 -14 6 -6 3 7 2 16 -1 19 -3 4 -6 -2 -5 -13z"/>
<path d="M152 2005 c0 -16 2 -22 5 -12 2 9 2 23 0 30 -3 6 -5 -1 -5 -18z"/>
<path d="M239 2018 c-1 -7 -1 -19 0 -25 1 -7 -3 -13 -9 -13 -5 0 -10 -12 -10
-27 1 -27 1 -27 15 -9 8 10 14 34 13 52 -1 33 -7 46 -9 22z"/>
<path d="M1393 1923 c-11 -63 -23 -149 -28 -214 -1 -15 1 -32 5 -39 4 -6 10
23 13 66 4 42 11 82 16 88 8 10 15 166 8 166 -2 0 -8 -30 -14 -67z"/>
<path d="M2497 1953 c-4 -3 -7 -11 -7 -17 0 -6 5 -5 12 2 6 6 9 14 7 17 -3 3
-9 2 -12 -2z"/>
<path d="M1350 1919 c0 -5 5 -7 10 -4 6 3 10 8 10 11 0 2 -4 4 -10 4 -5 0 -10
-5 -10 -11z"/>
<path d="M1670 1916 c0 -8 4 -18 10 -21 6 -4 7 1 3 11 -4 12 -3 15 5 10 7 -4
12 -2 12 3 0 6 -7 11 -15 11 -8 0 -15 -6 -15 -14z"/>
<path d="M1641 1894 c0 -11 3 -14 6 -6 3 7 2 16 -1 19 -3 4 -6 -2 -5 -13z"/>
<path d="M1960 1889 c0 -4 7 -10 16 -13 9 -4 14 -9 11 -12 -3 -3 -14 -1 -24 5
-15 8 -20 7 -20 -4 0 -8 4 -12 9 -9 12 7 10 -3 -4 -26 -10 -15 -10 -22 -1 -31
9 -9 10 -6 6 12 -3 13 -3 21 0 18 4 -3 9 -24 12 -46 3 -23 10 -52 15 -65 8
-17 9 -8 5 37 -4 33 -9 68 -12 79 -3 12 -1 16 6 12 6 -4 11 -2 11 4 0 6 5 8
11 4 6 -3 7 -9 3 -13 -5 -3 -10 -15 -12 -26 -2 -16 -1 -17 7 -5 13 18 13 15
12 -74 -1 -38 3 -74 8 -80 5 -6 14 -27 19 -46 l10 -35 -1 42 c-1 25 -7 45 -14
47 -7 3 -13 20 -13 38 1 27 2 30 11 15 5 -9 8 -21 5 -26 -3 -5 0 -11 8 -14 8
-3 17 -28 21 -59 4 -29 15 -72 25 -95 14 -33 20 -79 24 -190 3 -82 9 -185 12
-229 5 -71 4 -86 -13 -110 -11 -16 -39 -59 -62 -96 -24 -37 -63 -86 -88 -109
-38 -35 -49 -40 -76 -35 -44 9 -58 25 -102 118 -22 46 -41 85 -42 87 -1 2 -11
-7 -22 -20 -13 -16 -16 -26 -8 -31 6 -4 15 -4 19 -2 5 3 -1 -18 -12 -46 -11
-28 -20 -58 -19 -68 0 -9 10 9 22 41 l23 58 34 -60 c18 -34 38 -61 43 -61 13
0 0 -45 -33 -115 -15 -33 -36 -87 -45 -120 -44 -152 -82 -232 -82 -170 0 14 3
25 8 25 5 0 9 5 9 11 0 6 -7 9 -15 5 -13 -5 -17 0 -14 20 1 13 -35 30 -57 26
-13 -2 -24 -1 -24 2 0 6 1 10 40 86 l23 45 -23 -20 c-23 -20 -23 -20 -16 0 35
90 43 124 34 133 -8 8 -7 16 2 27 11 13 15 13 23 3 6 -9 7 -7 3 6 -4 11 0 26
8 35 8 9 21 34 29 56 8 22 18 49 22 60 4 11 -4 2 -19 -20 -14 -22 -26 -46 -26
-53 0 -7 -4 -10 -10 -7 -6 4 -7 -1 -3 -11 4 -12 3 -15 -5 -10 -8 4 -10 2 -6
-7 7 -19 -30 -53 -73 -68 -18 -6 -33 -15 -33 -21 0 -11 62 -7 71 5 4 5 9 5 12
0 4 -5 -4 -30 -17 -54 -20 -39 -41 -104 -60 -191 -6 -26 -5 -27 24 -22 17 4
36 2 44 -5 7 -6 24 -48 37 -94 20 -71 29 -89 70 -129 34 -33 64 -52 100 -62
67 -20 83 -20 146 3 70 25 213 132 235 175 6 13 -7 5 -33 -20 -191 -178 -332
-202 -452 -76 l-39 39 27 74 c15 41 38 115 51 164 14 50 29 99 35 110 5 11 20
47 33 80 13 33 28 59 35 57 6 -1 19 -3 29 -5 9 -1 23 -7 31 -11 9 -6 12 -5 8
1 -6 9 11 23 33 27 14 3 50 42 50 54 0 7 5 10 10 7 6 -4 9 -1 8 7 -2 7 3 12
10 10 8 -1 11 2 7 8 -3 5 -1 10 4 10 6 0 11 7 11 15 0 8 10 25 22 37 12 12 23
31 24 42 1 12 3 28 4 36 1 8 5 4 10 -10 7 -23 8 -22 15 14 4 21 5 75 3 120 -4
57 -3 71 3 49 5 -18 14 -35 20 -39 8 -4 8 -1 1 12 -5 11 -16 54 -23 97 -12 70
-11 80 4 106 12 20 13 31 6 33 -6 2 -13 26 -15 53 -2 28 -9 72 -14 98 -6 27
-7 53 -4 59 4 6 2 8 -3 5 -6 -4 -10 4 -10 19 0 13 -7 32 -15 42 -8 9 -21 33
-28 52 -7 19 -20 43 -28 53 -12 14 -12 17 -2 17 11 0 11 3 2 12 -15 15 -16 32
-2 23 6 -3 10 -3 10 1 0 13 -44 84 -52 84 -5 0 -7 4 -4 8 3 5 -1 9 -9 9 -8 0
-15 -4 -15 -8z m127 -306 c-3 -10 -5 -4 -5 12 0 17 2 24 5 18 2 -7 2 -21 0
-30z m16 -43 c3 -11 1 -18 -4 -14 -5 3 -9 12 -9 20 0 20 7 17 13 -6z"/>
<path d="M1695 1880 c-3 -5 -1 -10 4 -10 6 0 11 5 11 10 0 6 -2 10 -4 10 -3 0
-8 -4 -11 -10z"/>
<path d="M1921 1864 c0 -11 3 -14 6 -6 3 7 2 16 -1 19 -3 4 -6 -2 -5 -13z"/>
<path d="M1680 1850 c0 -6 4 -9 9 -6 5 4 12 1 14 -4 3 -6 4 -5 3 2 -3 15 -26
23 -26 8z"/>
<path d="M1251 1833 c0 -11 3 -13 6 -5 2 6 10 9 15 6 7 -4 8 -2 4 4 -11 18
-26 14 -25 -5z"/>
<path d="M1666 1805 c-3 -8 -10 -15 -16 -15 -6 0 -8 5 -4 12 4 7 3 8 -5 4 -6
-4 -9 -12 -6 -17 10 -15 32 -10 40 9 6 16 7 16 19 0 8 -11 17 -14 27 -7 10 6
11 9 1 9 -7 0 -10 5 -7 10 3 6 -5 10 -18 10 -14 0 -27 -7 -31 -15z"/>
<path d="M1213 1803 c-19 -7 -16 -34 8 -68 l21 -30 -7 40 c-4 22 -8 46 -8 53
0 6 -1 12 -1 11 -1 0 -7 -3 -13 -6z"/>
<path d="M1738 1780 c-14 -16 -23 -32 -20 -34 4 -5 52 51 52 61 0 7 -7 1 -32
-27z"/>
<path d="M1501 1784 c0 -11 3 -14 6 -6 3 7 2 16 -1 19 -3 4 -6 -2 -5 -13z"/>
<path d="M1917 1793 c-4 -3 -7 -18 -6 -32 1 -26 1 -25 10 3 9 31 7 41 -4 29z"/>
<path d="M1046 1758 c3 -13 13 -30 20 -39 8 -8 14 -21 14 -27 0 -7 7 -12 15
-12 20 0 19 7 -5 33 -12 12 -23 32 -26 44 -4 13 -10 23 -16 23 -5 0 -6 -10 -2
-22z"/>
<path d="M1610 1771 c0 -6 4 -13 10 -16 6 -3 7 1 4 9 -7 18 -14 21 -14 7z"/>
<path d="M156 1732 c-9 -17 -11 -34 -6 -42 4 -7 4 -24 -1 -37 -10 -27 -5 -71
9 -85 6 -6 11 1 14 16 3 14 2 23 -2 21 -13 -8 -20 24 -10 49 11 30 23 106 16
106 -3 0 -12 -13 -20 -28z"/>
<path d="M910 1760 c-2 -3 -4 -41 -5 -85 -2 -44 -9 -116 -16 -160 -13 -83 -16
-244 -5 -305 4 -19 9 -87 12 -150 6 -134 8 -140 31 -140 11 0 14 3 7 8 -7 4
-14 59 -18 137 -3 72 -9 177 -12 234 -4 63 -2 139 6 195 14 103 18 228 8 254
-4 9 -7 15 -8 12z"/>
<path d="M1780 1750 c-9 -6 -10 -10 -3 -10 6 0 15 5 18 10 8 12 4 12 -15 0z"/>
<path d="M1491 1734 c0 -11 3 -14 6 -6 3 7 2 16 -1 19 -3 4 -6 -2 -5 -13z"/>
<path d="M1701 1733 c3 -19 -2 -27 -9 -15 -6 9 -12 5 -21 -14 -10 -23 -10 -26
2 -16 8 7 16 9 20 6 3 -3 10 3 16 15 8 13 8 22 1 26 -6 4 -10 3 -9 -2z"/>
<path d="M2060 1728 c0 -4 5 -19 11 -35 9 -25 11 -26 21 -10 5 10 7 21 4 24
-3 4 -6 0 -6 -8 -1 -8 -7 -3 -15 11 -8 14 -14 22 -15 18z"/>
<path d="M955 1686 c3 -15 13 -35 20 -43 21 -20 18 -5 -6 37 -19 34 -20 34
-14 6z"/>
<path d="M1461 1682 c0 -18 -7 -45 -15 -60 -13 -26 -13 -28 5 -28 13 0 18 5
14 15 -3 8 -2 17 2 20 5 3 5 24 2 46 -6 38 -6 39 -8 7z"/>
<path d="M1224 1683 c3 -10 8 -40 11 -68 4 -27 9 -61 12 -75 2 -14 6 -32 7
-40 7 -39 19 -70 26 -70 4 0 8 -23 8 -52 1 -28 5 -54 11 -57 10 -7 16 -50 26
-181 3 -41 7 -86 9 -100 3 -14 9 -59 15 -101 5 -41 15 -87 20 -102 6 -15 13
-42 15 -60 3 -17 14 -68 25 -112 15 -59 21 -115 21 -213 1 -105 6 -146 21
-195 12 -34 21 -80 21 -102 1 -33 2 -36 9 -17 9 24 32 28 72 13 27 -11 41 -39
31 -64 -5 -14 -70 -33 -101 -30 -7 0 -13 -3 -13 -8 0 -5 4 -9 10 -9 5 0 7 -7
4 -15 -8 -21 -24 -19 -24 3 0 10 -4 22 -9 28 -5 5 -12 20 -16 33 -6 18 -4 22
6 15 10 -6 10 -3 -1 11 -14 18 -15 17 -18 -5 -2 -12 4 -42 13 -66 19 -51 40
-56 76 -18 18 19 31 24 51 20 23 -4 30 0 49 30 12 20 35 41 51 46 16 6 27 16
25 23 -3 6 -20 59 -37 116 -18 57 -39 111 -47 120 -14 17 -26 17 -131 4 -46
-6 -37 16 14 32 l39 13 -43 -5 -42 -5 6 42 c4 25 21 63 41 91 23 31 30 47 20
47 -7 0 -19 -11 -25 -25 -21 -46 -39 -30 -46 43 -3 37 -17 108 -30 158 -12 50
-22 105 -21 122 1 17 -1 29 -5 27 -3 -2 -7 14 -7 36 -2 28 1 38 10 32 9 -5 9
-3 0 8 -11 13 -14 38 -28 214 -4 44 -9 87 -12 95 -4 8 -7 20 -7 25 -1 6 -7 10
-15 10 -8 0 -16 6 -19 14 -3 8 0 11 6 7 6 -3 13 -2 17 4 3 5 2 10 -4 10 -5 0
-10 8 -10 18 1 9 -7 44 -16 77 -23 83 -25 92 -32 157 -3 32 -10 55 -14 52 -5
-3 -9 0 -9 5 0 6 -5 11 -11 11 -6 0 -8 -8 -5 -17z m375 -1357 c7 -16 20 -59
28 -94 13 -53 13 -69 2 -88 -14 -27 -29 -32 -29 -9 0 15 -68 55 -95 55 -9 0
-15 6 -14 13 1 6 0 19 -4 27 -13 33 -34 119 -31 123 3 2 32 4 67 3 58 -1 63
-3 76 -30z"/>
<path d="M1560 211 c0 -10 49 -55 54 -50 2 2 -9 16 -25 30 -16 15 -29 23 -29
20z"/>
<path d="M2993 1650 c0 -25 2 -35 4 -22 2 12 2 32 0 45 -2 12 -4 2 -4 -23z"/>
<path d="M40 1671 c0 -6 5 -13 10 -16 6 -3 10 1 10 9 0 9 -4 16 -10 16 -5 0
-10 -4 -10 -9z"/>
<path d="M2100 1675 c0 -3 7 -17 16 -30 9 -14 13 -32 10 -41 -5 -14 -4 -15 8
-5 13 11 12 17 -6 47 -19 32 -28 41 -28 29z"/>
<path d="M1100 1659 c0 -5 5 -7 10 -4 6 3 10 8 10 11 0 2 -4 4 -10 4 -5 0 -10
-5 -10 -11z"/>
<path d="M997 1480 c-3 -96 -4 -258 -3 -360 1 -102 -1 -197 -5 -212 -8 -30 7
-50 17 -24 8 20 24 21 24 2 0 -8 4 -17 8 -20 4 -2 8 4 8 15 0 10 -4 19 -9 19
-4 0 -5 5 -1 12 4 7 3 8 -4 4 -7 -4 -12 -3 -12 2 0 6 8 13 17 16 11 5 14 9 6
14 -21 14 -30 139 -25 360 6 292 23 299 37 17 4 -66 16 -171 27 -234 15 -85
19 -143 15 -225 -6 -141 -11 -173 -57 -346 -34 -124 -45 -177 -36 -169 4 4 16
43 26 87 11 45 28 107 38 139 11 32 25 79 33 106 7 26 17 47 20 47 8 0 6 43
-6 154 -7 56 -6 68 5 61 9 -6 11 -4 5 5 -5 8 -11 93 -13 190 -5 196 -12 242
-12 75 0 -60 -3 -105 -7 -101 -4 4 -12 95 -18 204 -10 177 -14 203 -37 252
-14 30 -27 62 -30 70 -3 8 -7 -64 -11 -160z"/>
<path d="M30 1625 c0 -9 -7 -18 -15 -21 -12 -5 -15 -24 -15 -87 0 -97 8 -99
11 -3 2 56 6 72 25 91 13 13 20 26 17 29 -11 11 -23 6 -23 -9z"/>
<path d="M1775 1631 c-3 -5 -1 -12 5 -16 5 -3 10 1 10 9 0 18 -6 21 -15 7z"/>
<path d="M1646 1585 c-9 -26 -7 -32 5 -12 6 10 9 21 6 23 -2 3 -7 -2 -11 -11z"/>
<path d="M1773 1565 c0 -22 2 -30 4 -17 2 12 2 30 0 40 -3 9 -5 -1 -4 -23z"/>
<path d="M1870 1585 c-7 -8 -9 -15 -6 -15 4 0 14 7 22 15 9 8 11 15 6 15 -5 0
-15 -7 -22 -15z"/>
<path d="M2994 1480 c0 -69 1 -97 3 -62 2 34 2 90 0 125 -2 34 -3 6 -3 -63z"/>
<path d="M1066 1577 c3 -10 9 -15 12 -12 3 3 0 11 -7 18 -10 9 -11 8 -5 -6z"/>
<path d="M2145 1580 c-3 -5 -2 -10 3 -10 14 0 22 -41 12 -60 -10 -19 3 -45 18
-36 6 3 14 -3 17 -15 4 -11 9 -18 12 -15 3 3 -4 21 -15 40 -12 20 -17 38 -13
41 5 2 14 -9 21 -25 7 -16 17 -27 22 -24 6 4 6 9 1 13 -4 3 -17 23 -28 44 -24
46 -41 62 -50 47z m35 -90 c0 -5 -2 -10 -4 -10 -3 0 -8 5 -11 10 -3 6 -1 10 4
10 6 0 11 -4 11 -10z"/>
<path d="M133 1525 c0 -44 10 -59 20 -31 3 8 4 22 2 32 -2 11 -4 25 -4 32 -1
6 -5 12 -10 12 -4 0 -8 -20 -8 -45z"/>
<path d="M1831 1554 c0 -11 3 -14 6 -6 3 7 2 16 -1 19 -3 4 -6 -2 -5 -13z"/>
<path d="M1711 1538 c0 -13 4 -32 9 -43 7 -15 9 -10 8 23 -1 23 -6 42 -10 42
-4 0 -8 -10 -7 -22z"/>
<path d="M1900 1545 c0 -8 -7 -15 -17 -15 -9 0 -13 -3 -10 -7 4 -3 -7 -17 -25
-29 -24 -18 -35 -21 -45 -12 -8 6 -12 17 -9 25 3 7 -1 13 -9 13 -8 0 -15 -7
-15 -15 0 -8 5 -15 11 -15 5 0 15 -14 21 -30 l10 -31 25 26 c14 14 32 25 39
25 8 0 14 5 14 10 0 6 7 10 15 10 8 0 15 5 15 10 0 6 7 10 15 10 18 0 19 8 2
23 -19 18 -37 19 -37 2z"/>
<path d="M1950 1553 c0 -14 19 -38 25 -32 8 8 -5 39 -16 39 -5 0 -9 -3 -9 -7z"/>
<path d="M2210 1539 c0 -5 5 -7 10 -4 6 3 10 8 10 11 0 2 -4 4 -10 4 -5 0 -10
-5 -10 -11z"/>
<path d="M2782 1490 c0 -14 2 -19 5 -12 2 6 2 18 0 25 -3 6 -5 1 -5 -13z"/>
<path d="M1862 1448 c-2 -10 -8 -15 -13 -12 -5 3 -9 0 -9 -5 0 -14 -3 -15 53
12 l48 24 -37 -1 c-26 -1 -38 -6 -42 -18z"/>
<path d="M1964 1456 c-11 -8 -37 -17 -57 -21 -35 -7 -49 -27 -27 -40 6 -4 7
-11 4 -17 -4 -6 1 -17 11 -25 11 -7 15 -13 9 -13 -14 0 19 -20 34 -20 6 0 12
5 12 11 0 5 -5 7 -10 4 -6 -3 -13 1 -16 9 -3 9 -12 16 -20 16 -25 0 -15 17 14
23 17 4 33 16 40 32 7 14 19 28 27 31 16 6 21 24 7 24 -4 0 -17 -6 -28 -14z
m-44 -40 c0 -2 -7 -7 -16 -10 -8 -3 -12 -2 -9 4 6 10 25 14 25 6z"/>
<path d="M2142 1445 c0 -16 2 -22 5 -12 2 9 2 23 0 30 -3 6 -5 -1 -5 -18z"/>
<path d="M425 1449 c-4 -6 -5 -12 -2 -15 2 -3 7 2 10 11 7 17 1 20 -8 4z"/>
<path d="M1642 1430 c0 -14 2 -19 5 -12 2 6 2 18 0 25 -3 6 -5 1 -5 -13z"/>
<path d="M1687 1407 c-39 -11 -46 -34 -8 -30 11 2 21 -2 21 -8 0 -5 -4 -8 -9
-4 -5 3 -12 1 -16 -5 -4 -6 5 -10 19 -10 14 0 25 3 25 8 -4 23 2 52 12 52 6 0
8 -9 4 -22 -6 -18 -5 -20 5 -11 13 12 7 44 -7 42 -4 -1 -25 -6 -46 -12z"/>
<path d="M2152 1390 c0 -14 2 -19 5 -12 2 6 2 18 0 25 -3 6 -5 1 -5 -13z"/>
<path d="M255 1329 c-8 -25 -4 -31 15 -19 10 6 11 10 3 10 -7 0 -10 7 -7 15 4
8 4 15 1 15 -3 0 -9 -9 -12 -21z"/>
<path d="M2992 1325 c0 -16 2 -22 5 -12 2 9 2 23 0 30 -3 6 -5 -1 -5 -18z"/>
<path d="M260 1290 c0 -5 -6 -7 -13 -4 -9 3 -12 -6 -9 -35 3 -32 0 -40 -15
-44 -15 -4 -14 -5 4 -6 12 0 27 -9 33 -18 8 -14 10 -14 9 -3 -3 30 1 39 16 34
10 -4 15 0 15 15 0 12 -5 21 -11 21 -5 0 -7 -4 -4 -10 11 -17 0 -11 -19 11
-18 22 -18 22 10 16 16 -4 23 -4 17 -1 -7 3 -13 12 -13 20 0 8 -4 14 -10 14
-5 0 -10 -4 -10 -10z"/>
<path d="M1876 1232 c24 -59 48 -102 57 -102 10 0 6 12 -26 82 -27 58 -53 75
-31 20z"/>
<path d="M287 1183 c-3 -5 1 -19 9 -33 l14 -25 -6 30 c-8 35 -10 39 -17 28z"/>
<path d="M1837 1163 c-14 -13 -6 -23 18 -21 28 3 33 13 9 22 -19 7 -19 7 -27
-1z"/>
<path d="M2782 1150 c0 -14 2 -19 5 -12 2 6 2 18 0 25 -3 6 -5 1 -5 -13z"/>
<path d="M160 1145 c0 -10 -3 -15 -7 -12 -10 11 -32 -26 -33 -55 0 -19 -4 -26
-13 -22 -11 4 -14 -10 -15 -63 -1 -37 -6 -81 -10 -97 -5 -17 -5 -46 0 -65 4
-20 17 -80 29 -133 13 -65 25 -98 34 -98 10 0 12 11 8 43 -2 23 -7 49 -10 57
-3 8 -5 25 -4 37 1 11 -2 24 -7 27 -5 3 -10 37 -11 76 -2 56 1 71 13 76 12 5
16 22 16 78 0 39 5 91 11 115 5 24 7 46 4 49 -3 3 -5 -3 -5 -13z m-13 -47 c-3
-8 -6 -5 -6 6 -1 11 2 17 5 13 3 -3 4 -12 1 -19z"/>
<path d="M2781 1084 c0 -11 3 -14 6 -6 3 7 2 16 -1 19 -3 4 -6 -2 -5 -13z"/>
<path d="M1780 1054 c0 -8 5 -12 10 -9 6 3 10 -2 10 -13 0 -10 7 -19 15 -19
19 0 19 7 -4 35 -23 26 -31 28 -31 6z"/>
<path d="M1840 1029 c0 -5 5 -7 10 -4 6 3 10 8 10 11 0 2 -4 4 -10 4 -5 0 -10
-5 -10 -11z"/>
<path d="M1863 1011 c-7 -11 -23 -15 -52 -12 -42 3 -43 3 -27 -21 15 -23 16
-26 16 -50 0 -9 3 -9 11 -1 8 8 8 17 0 31 -9 18 -6 20 32 27 23 3 53 8 66 9
38 4 36 23 -2 28 -24 2 -38 -1 -44 -11z"/>
<path d="M1661 993 c1 -10 5 -29 9 -43 7 -21 8 -20 7 13 -1 21 -5 41 -9 43 -4
3 -8 -3 -7 -13z"/>
<path d="M1731 994 c0 -11 3 -14 6 -6 3 7 2 16 -1 19 -3 4 -6 -2 -5 -13z"/>
<path d="M2241 974 c0 -11 3 -14 6 -6 3 7 2 16 -1 19 -3 4 -6 -2 -5 -13z"/>
<path d="M1430 930 c0 -5 5 -10 11 -10 5 0 7 5 4 10 -3 6 -8 10 -11 10 -2 0
-4 -4 -4 -10z"/>
<path d="M1865 918 c-11 -27 -2 -49 14 -38 12 7 12 14 4 32 -9 20 -12 21 -18
6z"/>
<path d="M1665 910 c-3 -5 -1 -10 4 -10 6 0 11 5 11 10 0 6 -2 10 -4 10 -3 0
-8 -4 -11 -10z"/>
<path d="M134 896 c-3 -8 -2 -22 3 -31 8 -13 10 -10 10 14 0 34 -5 39 -13 17z"/>
<path d="M1125 878 c8 -46 15 -48 15 -5 0 21 -5 37 -10 37 -6 0 -8 -13 -5 -32z"/>
<path d="M1602 885 c0 -16 2 -22 5 -12 2 9 2 23 0 30 -3 6 -5 -1 -5 -18z"/>
<path d="M1641 894 c0 -11 3 -14 6 -6 3 7 2 16 -1 19 -3 4 -6 -2 -5 -13z"/>
<path d="M1810 899 c0 -5 5 -7 10 -4 6 3 10 8 10 11 0 2 -4 4 -10 4 -5 0 -10
-5 -10 -11z"/>
<path d="M1612 820 c0 -19 2 -27 5 -17 2 9 2 25 0 35 -3 9 -5 1 -5 -18z"/>
<path d="M1056 831 c-3 -5 1 -11 9 -14 9 -4 12 -1 8 9 -6 16 -10 17 -17 5z"/>
<path d="M195 789 c-4 -6 -5 -12 -2 -15 2 -3 7 2 10 11 7 17 1 20 -8 4z"/>
<path d="M2850 771 c0 -5 5 -13 10 -16 6 -3 10 -2 10 4 0 5 -4 13 -10 16 -5 3
-10 2 -10 -4z"/>
<path d="M2960 770 c0 -5 5 -10 10 -10 6 0 10 5 10 10 0 6 -4 10 -10 10 -5 0
-10 -4 -10 -10z"/>
<path d="M1679 768 c-1 -2 -3 -12 -5 -23 -1 -11 -14 -50 -27 -87 -14 -38 -22
-66 -17 -63 16 10 67 175 54 175 -2 0 -5 -1 -5 -2z"/>
<path d="M1947 743 c-4 -3 -7 -15 -7 -26 0 -25 9 -17 15 12 4 22 2 25 -8 14z"/>
<path d="M1977 729 c7 -7 15 -10 18 -7 3 3 -2 9 -12 12 -14 6 -15 5 -6 -5z"/>
<path d="M2387 676 c-15 -24 -27 -47 -27 -52 0 -4 14 14 31 40 16 27 29 50 27
52 -2 1 -16 -16 -31 -40z"/>
<path d="M1508 693 c7 -3 16 -2 19 1 4 3 -2 6 -13 5 -11 0 -14 -3 -6 -6z"/>
<path d="M1561 633 c-45 -55 -103 -208 -71 -188 6 3 10 17 10 29 0 13 10 35
21 50 12 15 19 30 15 33 -3 3 9 24 26 47 17 23 36 47 41 54 6 8 6 12 -1 12 -6
0 -24 -17 -41 -37z"/>
<path d="M1901 644 c0 -11 3 -14 6 -6 3 7 2 16 -1 19 -3 4 -6 -2 -5 -13z"/>
<path d="M1665 639 c-4 -6 -5 -12 -2 -15 2 -3 7 2 10 11 7 17 1 20 -8 4z"/>
<path d="M1 614 c0 -11 3 -14 6 -6 3 7 2 16 -1 19 -3 4 -6 -2 -5 -13z"/>
<path d="M1898 613 c-11 -3 -18 -14 -18 -26 1 -21 1 -21 11 -3 9 15 13 16 20
5 6 -10 9 -8 9 9 0 12 -1 21 -2 21 -2 -1 -11 -3 -20 -6z"/>
<path d="M1646 595 c-9 -26 -7 -32 5 -12 6 10 9 21 6 23 -2 3 -7 -2 -11 -11z"/>
<path d="M2993 550 c0 -30 2 -43 4 -27 2 15 2 39 0 55 -2 15 -4 2 -4 -28z"/>
<path d="M2 570 c0 -14 2 -19 5 -12 2 6 2 18 0 25 -3 6 -5 1 -5 -13z"/>
<path d="M146 581 c-3 -5 1 -11 9 -15 8 -3 15 -1 15 4 0 13 -18 22 -24 11z"/>
<path d="M2310 575 c-6 -8 -10 -19 -8 -24 1 -5 11 2 21 15 19 26 8 34 -13 9z"/>
<path d="M2 520 c0 -14 2 -19 5 -12 2 6 2 18 0 25 -3 6 -5 1 -5 -13z"/>
<path d="M1645 512 c-3 -7 -2 -18 1 -24 4 -6 0 -15 -7 -20 -12 -8 -12 -9 1 -6
8 3 20 18 26 35 11 25 10 30 -1 30 -8 0 -17 -7 -20 -15z"/>
<path d="M2030 510 c-6 -11 -8 -20 -6 -20 3 0 10 9 16 20 6 11 8 20 6 20 -3 0
-10 -9 -16 -20z"/>
<path d="M2340 499 c0 -5 5 -7 10 -4 6 3 10 8 10 11 0 2 -4 4 -10 4 -5 0 -10
-5 -10 -11z"/>
<path d="M2251 482 c-17 -31 -13 -40 5 -14 9 13 14 26 11 29 -3 2 -10 -4 -16
-15z"/>
<path d="M2206 435 c-16 -12 -17 -15 -4 -15 9 0 18 7 22 15 7 18 6 18 -18 0z"/>
<path d="M2161 384 c-11 -15 -21 -23 -21 -19 0 4 -21 -15 -47 -42 -27 -28 -58
-53 -70 -57 -13 -4 -23 -12 -23 -17 0 -5 -6 -9 -14 -9 -8 0 -16 -5 -18 -12 -5
-15 -89 -13 -119 2 -13 7 -46 35 -73 62 -58 57 -70 58 -24 0 60 -73 158 -108
219 -77 72 38 230 177 216 191 -3 3 -14 -7 -26 -22z"/>
<path d="M2 323 c-2 -76 7 -105 22 -68 3 8 1 15 -4 15 -5 0 -11 30 -13 68 l-3
67 -2 -82z"/>
<path d="M2256 383 c-6 -14 -5 -15 5 -6 7 7 10 15 7 18 -3 3 -9 -2 -12 -12z"/>
<path d="M1098 354 c-7 -11 -44 -216 -54 -296 -4 -40 -3 -58 5 -58 10 0 16 27
12 57 -1 7 2 13 6 13 4 0 8 12 9 28 1 71 32 222 44 222 8 0 24 -58 21 -76 -1
-6 5 -16 12 -22 10 -8 12 -3 9 28 -2 21 2 48 8 60 11 21 10 22 -12 17 -26 -7
-43 1 -50 23 -2 7 -7 10 -10 4z"/>
<path d="M2900 344 c0 -8 5 -12 10 -9 6 4 8 11 5 16 -9 14 -15 11 -15 -7z"/>
<path d="M1235 330 c-3 -5 2 -15 10 -23 17 -18 19 -50 5 -78 -6 -10 -8 -19 -5
-19 3 0 13 16 21 35 13 33 17 35 55 31 22 -2 45 -8 51 -14 13 -13 0 -142 -14
-142 -6 0 -5 -7 2 -15 7 -8 9 -15 4 -15 -5 0 -9 -20 -9 -45 0 -85 21 -46 33
63 7 59 16 129 19 156 4 34 3 47 -5 42 -6 -3 -15 2 -21 11 -10 17 -10 16 -11
-3 0 -25 -27 -28 -35 -3 -6 19 -34 33 -44 23 -3 -4 0 -9 7 -11 20 -7 14 -29
-9 -29 -14 0 -19 5 -16 17 5 18 -29 34 -38 19z"/>
<path d="M1200 311 c0 -25 6 -27 13 -6 4 8 2 17 -3 20 -6 4 -10 -3 -10 -14z"/>
<path d="M2411 314 c0 -11 3 -14 6 -6 3 7 2 16 -1 19 -3 4 -6 -2 -5 -13z"/>
<path d="M2538 323 c7 -3 16 -2 19 1 4 3 -2 6 -13 5 -11 0 -14 -3 -6 -6z"/>
<path d="M274 302 c3 -5 6 -25 8 -45 1 -21 6 -37 10 -37 4 0 7 -3 7 -7 -4 -24
3 -40 16 -40 9 0 11 4 6 11 -8 9 -19 72 -20 114 -1 6 -8 12 -17 12 -8 0 -13
-4 -10 -8z"/>
<path d="M979 254 c0 -10 -3 -28 -6 -39 -3 -11 -5 -30 -5 -42 0 -13 -4 -21 -8
-18 -5 3 -6 -10 -3 -30 3 -20 1 -35 -4 -35 -5 0 -10 -20 -10 -45 0 -25 3 -45
7 -45 10 0 45 259 36 267 -3 3 -6 -2 -7 -13z"/>
<path d="M1718 263 c-2 -4 6 -18 19 -30 13 -12 23 -19 23 -14 0 13 -38 53 -42
44z"/>
<path d="M2412 250 c0 -14 2 -19 5 -12 2 6 2 18 0 25 -3 6 -5 1 -5 -13z"/>
<path d="M2295 210 c3 -5 11 -10 16 -10 6 0 7 5 4 10 -3 6 -11 10 -16 10 -6 0
-7 -4 -4 -10z"/>
<path d="M2442 130 c0 -53 -4 -103 -7 -113 -4 -9 -3 -17 3 -17 13 0 21 104 12
170 -6 49 -7 45 -8 -40z"/>
<path d="M1307 169 c4 -13 8 -18 11 -10 2 7 -1 18 -6 23 -8 8 -9 4 -5 -13z"/>
<path d="M1940 170 c-9 -6 -10 -10 -3 -10 6 0 15 5 18 10 8 12 4 12 -15 0z"/>
<path d="M2907 166 c-3 -8 -2 -18 3 -21 13 -8 20 9 11 24 -6 10 -10 9 -14 -3z"/>
<path d="M2400 159 c0 -5 5 -7 10 -4 6 3 10 8 10 11 0 2 -4 4 -10 4 -5 0 -10
-5 -10 -11z"/>
<path d="M320 136 c0 -8 4 -17 9 -20 5 -4 7 3 4 14 -6 23 -13 26 -13 6z"/>
<path d="M1730 146 c0 -2 8 -10 18 -17 15 -13 16 -12 3 4 -13 16 -21 21 -21
13z"/>
<path d="M1490 130 c0 -5 5 -10 11 -10 5 0 7 5 4 10 -3 6 -8 10 -11 10 -2 0
-4 -4 -4 -10z"/>
<path d="M171 75 c-1 -50 1 -55 14 -41 19 18 19 36 1 70 -13 25 -13 24 -15
-29z"/>
<path d="M2910 82 c0 -31 4 -52 11 -52 6 0 9 -7 5 -15 -3 -8 -1 -15 4 -15 12
0 1 112 -13 126 -4 4 -7 -16 -7 -44z"/>
<path d="M1702 95 c0 -16 2 -22 5 -12 2 9 2 23 0 30 -3 6 -5 -1 -5 -18z"/>
<path d="M1490 80 c0 -6 7 -10 15 -10 8 0 15 2 15 4 0 2 -7 6 -15 10 -8 3 -15
1 -15 -4z"/>
<path d="M2540 79 c0 -5 5 -7 10 -4 6 3 10 8 10 11 0 2 -4 4 -10 4 -5 0 -10
-5 -10 -11z"/>
<path d="M76 53 c-6 -14 -5 -15 5 -6 7 7 10 15 7 18 -3 3 -9 -2 -12 -12z"/>
<path d="M1621 44 c0 -11 3 -14 6 -6 3 7 2 16 -1 19 -3 4 -6 -2 -5 -13z"/>
<path d="M1722 31 c13 -17 26 -30 31 -30 12 -1 -23 47 -39 53 -10 4 -7 -4 8
-23z"/>
<path d="M1590 16 c0 -12 13 -15 60 -13 41 1 60 5 60 14 0 17 -52 17 -68 1
-10 -10 -17 -10 -32 0 -17 10 -20 10 -20 -2z"/>
</g>
</svg>
