<?xml version="1.0" standalone="no"?>
<!DOCTYPE svg PUBLIC "-//W3C//DTD SVG 20010904//EN"
 "http://www.w3.org/TR/2001/REC-SVG-20010904/DTD/svg10.dtd">
<svg version="1.0" xmlns="http://www.w3.org/2000/svg"
 width="300.000000pt" height="300.000000pt" viewBox="0 0 300.000000 300.000000"
 preserveAspectRatio="xMidYMid meet">
<metadata>
Created by potrace 1.10, written by Peter Selinger 2001-2011
</metadata>
<g transform="translate(0.000000,300.000000) scale(0.100000,-0.100000)"
fill="#000000" stroke="none">
<path d="M1373 2982 c-3 -12 -9 -19 -14 -16 -5 3 -6 10 -3 16 4 7 2 8 -4 4 -9
-5 -9 -13 -1 -28 11 -21 12 -21 26 6 8 15 12 31 8 34 -3 3 -8 -4 -12 -16z"/>
<path d="M2090 2978 c0 -16 5 -28 10 -28 13 0 13 20 0 40 -8 12 -10 9 -10 -12z"/>
<path d="M1319 2948 c-1 -7 -1 -19 0 -25 1 -7 -2 -13 -8 -13 -9 0 -17 -31 -41
-156 -9 -46 -9 -66 -1 -80 11 -18 12 -18 10 1 -2 34 1 46 10 41 5 -3 8 14 7
38 -1 24 2 42 6 40 4 -2 4 11 1 29 -3 22 0 38 9 48 8 8 13 20 10 28 -3 9 0 11
8 6 9 -5 10 -3 2 11 -5 11 -7 25 -5 32 3 6 2 12 -1 12 -3 0 -7 -6 -7 -12z"/>
<path d="M1793 2932 c1 -16 7 -29 13 -29 9 0 9 8 2 29 -6 15 -11 28 -13 28 -1
0 -2 -13 -2 -28z"/>
<path d="M2109 2923 c-4 -71 4 -219 12 -221 5 -2 7 -16 4 -30 -4 -22 -4 -23 3
-7 7 16 11 9 17 -33 4 -28 10 -50 15 -47 4 3 8 -5 8 -18 -1 -12 5 -44 11 -72
7 -27 15 -65 18 -83 3 -18 9 -35 14 -38 5 -3 6 2 3 11 -7 18 35 57 54 50 7 -3
11 -1 8 3 -5 9 50 63 149 147 39 33 72 62 75 66 18 20 142 109 153 109 16 0
47 -31 47 -48 0 -6 6 -15 13 -19 8 -4 21 -26 31 -48 11 -27 15 -31 11 -13 -14
73 -62 138 -102 138 -23 0 -91 -47 -175 -122 -21 -18 -54 -46 -75 -63 -20 -16
-70 -60 -110 -97 -40 -38 -76 -68 -79 -68 -3 0 -3 12 0 26 4 14 2 32 -4 40 -7
7 -9 17 -7 21 5 8 -18 84 -41 133 -18 38 -39 178 -36 237 2 29 -1 55 -7 58 -5
4 -9 -2 -10 -12z m98 -465 c-3 -8 -6 -5 -6 6 -1 11 2 17 5 13 3 -3 4 -12 1
-19z"/>
<path d="M1820 2871 c5 -11 10 -32 11 -48 0 -15 3 -22 6 -15 7 19 -6 82 -18
82 -6 0 -6 -7 1 -19z"/>
<path d="M1363 2848 c3 -9 1 -18 -5 -20 -6 -2 -9 -11 -6 -18 4 -12 7 -10 16 6
7 14 7 25 0 35 -8 11 -9 11 -5 -3z"/>
<path d="M1812 2820 c0 -14 2 -19 5 -12 2 6 2 18 0 25 -3 6 -5 1 -5 -13z"/>
<path d="M1700 2791 c0 -6 4 -13 10 -16 6 -3 7 1 4 9 -7 18 -14 21 -14 7z"/>
<path d="M1730 2791 c0 -6 5 -13 10 -16 6 -3 10 1 10 9 0 9 -4 16 -10 16 -5 0
-10 -4 -10 -9z"/>
<path d="M1993 2775 c-3 -9 -3 -18 -1 -21 3 -3 8 4 11 16 6 23 -1 27 -10 5z"/>
<path d="M1676 2765 c4 -8 11 -15 16 -15 6 0 5 6 -2 15 -7 8 -14 15 -16 15 -2
0 -1 -7 2 -15z"/>
<path d="M1791 2764 c0 -11 3 -14 6 -6 3 7 2 16 -1 19 -3 4 -6 -2 -5 -13z"/>
<path d="M1961 2753 c0 -12 -4 -30 -7 -40 -5 -17 -5 -17 6 0 6 10 9 28 7 40
-4 22 -4 22 -6 0z"/>
<path d="M2029 2765 c-1 -3 -2 -8 -3 -12 -1 -5 -4 -13 -8 -19 -4 -6 -1 -11 5
-11 7 0 14 11 15 24 1 19 -5 33 -9 18z"/>
<path d="M1432 2735 c0 -16 3 -39 8 -50 9 -20 9 -20 8 0 0 11 -4 34 -8 50 l-8
30 0 -30z"/>
<path d="M1871 2753 c-1 -6 -4 -20 -7 -30 -5 -17 -5 -17 6 0 6 10 9 23 6 30
-3 9 -5 9 -5 0z"/>
<path d="M1341 2734 c0 -11 3 -14 6 -6 3 7 2 16 -1 19 -3 4 -6 -2 -5 -13z"/>
<path d="M1770 2736 c0 -10 4 -15 9 -11 5 3 12 -3 14 -12 4 -15 5 -15 6 -2 0
9 -6 22 -14 29 -12 10 -15 9 -15 -4z"/>
<path d="M1405 2729 c-4 -6 -5 -12 -2 -15 2 -3 7 2 10 11 7 17 1 20 -8 4z"/>
<path d="M1813 2702 c-1 -28 1 -32 7 -17 8 18 9 18 9 2 1 -10 -4 -28 -10 -39
-7 -14 -8 -23 -1 -30 13 -13 27 70 17 101 -10 32 -20 25 -22 -17z"/>
<path d="M1992 2715 c0 -16 2 -22 5 -12 2 9 2 23 0 30 -3 6 -5 -1 -5 -18z"/>
<path d="M1309 2715 c-3 -55 -1 -86 4 -92 4 -3 7 19 7 50 0 32 -2 57 -5 57 -3
0 -5 -7 -6 -15z"/>
<path d="M1581 2714 c0 -11 3 -14 6 -6 3 7 2 16 -1 19 -3 4 -6 -2 -5 -13z"/>
<path d="M1600 2716 c0 -9 5 -16 10 -16 6 0 10 4 10 9 0 6 -4 13 -10 16 -5 3
-10 -1 -10 -9z"/>
<path d="M1380 2705 c-1 -11 -4 -31 -6 -45 -2 -14 -5 -35 -5 -47 -1 -13 -4
-21 -8 -19 -11 7 -7 -99 4 -106 5 -4 17 -8 25 -8 12 1 11 3 -2 11 -22 12 -24
31 -3 23 13 -5 14 -2 5 20 -11 29 -11 105 0 121 3 6 3 24 -1 40 -5 22 -7 25
-9 10z"/>
<path d="M1668 2675 c2 -14 8 -25 12 -25 4 0 5 11 2 25 -2 14 -8 25 -12 25 -4
0 -5 -11 -2 -25z"/>
<path d="M1421 2673 c-1 -12 -6 -33 -12 -47 -9 -19 -8 -29 5 -47 9 -13 16 -36
16 -51 0 -16 4 -28 10 -28 13 0 4 57 -14 84 -8 13 -11 28 -6 36 6 9 10 8 20
-6 11 -18 11 -18 5 1 -4 11 -11 34 -15 50 -6 23 -8 25 -9 8z"/>
<path d="M1540 2674 c0 -8 5 -12 10 -9 6 4 8 11 5 16 -9 14 -15 11 -15 -7z"/>
<path d="M1621 2663 c0 -13 3 -23 8 -23 5 0 7 -10 5 -22 -4 -21 -4 -22 5 -3
13 27 14 66 2 46 -7 -11 -10 -10 -14 5 -4 16 -5 16 -6 -3z"/>
<path d="M1775 2670 c3 -5 8 -10 11 -10 2 0 4 5 4 10 0 6 -5 10 -11 10 -5 0
-7 -4 -4 -10z"/>
<path d="M1956 2668 c-11 -35 -14 -60 -7 -52 10 11 23 64 16 64 -3 0 -7 -6 -9
-12z"/>
<path d="M2641 2660 c-19 -11 -39 -24 -45 -30 -15 -15 6 -12 28 5 10 8 23 12
27 9 5 -3 9 0 9 6 0 6 4 9 9 6 5 -3 11 1 15 9 7 19 -1 18 -43 -5z"/>
<path d="M1245 2653 c-4 -10 -11 -36 -15 -59 -5 -30 -3 -41 7 -41 7 0 13 7 14
16 0 9 2 35 4 59 3 46 1 51 -10 25z"/>
<path d="M1680 2630 c0 -5 5 -10 10 -10 6 0 10 5 10 10 0 6 -4 10 -10 10 -5 0
-10 -4 -10 -10z"/>
<path d="M2026 2627 c3 -10 9 -15 12 -12 3 3 0 11 -7 18 -10 9 -11 8 -5 -6z"/>
<path d="M1475 2600 c9 -16 18 -30 21 -30 2 0 -2 14 -11 30 -9 17 -18 30 -21
30 -2 0 2 -13 11 -30z"/>
<path d="M1520 2621 c0 -6 4 -13 10 -16 6 -3 7 1 4 9 -7 18 -14 21 -14 7z"/>
<path d="M1286 2607 c3 -10 9 -15 12 -12 3 3 0 11 -7 18 -10 9 -11 8 -5 -6z"/>
<path d="M1500 2610 c0 -21 17 -46 25 -38 4 4 0 17 -9 30 -10 14 -16 17 -16 8z"/>
<path d="M1597 2599 c-4 -16 -3 -18 9 -8 7 6 11 15 8 20 -8 13 -11 11 -17 -12z"/>
<path d="M1691 2594 c0 -11 3 -14 6 -6 3 7 2 16 -1 19 -3 4 -6 -2 -5 -13z"/>
<path d="M1881 2592 c-7 -13 -10 -31 -8 -40 4 -13 5 -11 6 5 0 12 6 23 13 25
6 2 9 11 6 18 -3 11 -8 9 -17 -8z"/>
<path d="M1330 2591 c0 -6 4 -13 10 -16 6 -3 7 1 4 9 -7 18 -14 21 -14 7z"/>
<path d="M1806 2591 c-4 -6 -2 -11 3 -11 6 0 11 -7 11 -15 0 -18 -16 -20 -23
-2 -3 7 -6 7 -6 1 -1 -6 8 -21 19 -34 l20 -23 0 34 c0 39 -14 67 -24 50z"/>
<path d="M2637 2580 c3 -11 9 -17 14 -15 10 7 1 35 -11 35 -5 0 -6 -9 -3 -20z"/>
<path d="M2740 2595 c-1 -5 -2 -13 -1 -17 0 -4 -9 -15 -22 -25 -12 -10 -29
-27 -37 -38 -11 -15 -7 -13 15 5 17 14 34 31 38 38 11 17 30 15 23 -4 -3 -8
-2 -12 4 -9 6 3 10 15 10 26 0 11 -4 18 -9 15 -5 -4 -12 0 -14 6 -3 7 -6 9 -7
3z"/>
<path d="M1450 2585 c0 -15 18 -40 24 -34 3 3 -1 14 -9 25 -8 10 -14 15 -15 9z"/>
<path d="M1565 2570 c4 -14 12 -29 17 -35 7 -7 8 -2 3 15 -4 14 -12 30 -17 35
-7 7 -8 2 -3 -15z"/>
<path d="M1851 2574 c0 -11 3 -14 6 -6 3 7 2 16 -1 19 -3 4 -6 -2 -5 -13z"/>
<path d="M1925 2559 c-4 -17 -4 -33 -1 -36 3 -4 6 4 6 16 0 12 4 20 9 17 5 -4
7 3 4 14 -7 27 -10 25 -18 -11z"/>
<path d="M1270 2570 c0 -5 5 -10 11 -10 5 0 7 5 4 10 -3 6 -8 10 -11 10 -2 0
-4 -4 -4 -10z"/>
<path d="M2077 2560 c3 -11 9 -17 15 -14 5 3 4 12 -3 20 -16 19 -18 18 -12 -6z"/>
<path d="M1520 2540 c0 -11 2 -20 4 -20 2 0 6 9 9 20 3 11 1 20 -4 20 -5 0 -9
-9 -9 -20z"/>
<path d="M1756 2545 c4 -8 1 -15 -5 -15 -9 0 -9 -5 -1 -20 6 -11 8 -26 4 -33
-4 -6 -3 -8 1 -4 12 10 15 87 4 87 -4 0 -6 -7 -3 -15z"/>
<path d="M2126 2535 c8 -37 14 -45 14 -19 0 10 -5 26 -10 34 -8 11 -9 7 -4
-15z"/>
<path d="M1267 2543 c-13 -12 -7 -53 7 -53 10 0 13 8 11 22 -3 12 1 26 8 30 9
6 8 8 -4 8 -9 0 -19 -3 -22 -7z"/>
<path d="M1715 2537 c-4 -10 -5 -21 -1 -24 10 -10 18 4 13 24 -4 17 -4 17 -12
0z"/>
<path d="M1992 2518 c6 -15 11 -28 12 -28 2 0 3 13 4 28 0 18 -5 29 -13 29
-10 0 -11 -7 -3 -29z"/>
<path d="M2050 2536 c0 -8 5 -18 10 -21 6 -3 10 1 10 9 0 8 -4 18 -10 21 -5 3
-10 -1 -10 -9z"/>
<path d="M2468 2533 c-9 -10 -29 -27 -44 -38 -15 -11 -43 -35 -63 -53 l-36
-34 45 31 c61 43 137 110 125 111 -6 0 -18 -8 -27 -17z"/>
<path d="M1230 2531 c0 -6 5 -13 10 -16 6 -3 10 1 10 9 0 9 -4 16 -10 16 -5 0
-10 -4 -10 -9z"/>
<path d="M1306 2531 c-4 -6 -2 -11 3 -11 6 0 11 -9 11 -21 0 -11 -4 -18 -8
-15 -10 6 -3 -92 8 -114 4 -8 4 -24 -1 -35 -4 -11 -7 -36 -7 -55 0 -30 1 -32
7 -10 4 15 10 20 14 14 4 -7 3 -25 -2 -40 -16 -51 -23 -90 -12 -75 10 16 24
-53 25 -121 0 -21 3 -38 7 -38 14 0 40 -89 34 -116 -5 -22 -4 -25 4 -14 9 13
11 13 11 -2 0 -9 -5 -20 -10 -23 -7 -4 -7 -13 0 -26 6 -10 10 -25 8 -32 -3
-19 12 -57 24 -57 7 0 7 4 1 13 -6 6 -11 28 -11 47 l0 35 13 -30 c33 -78 57
-141 58 -152 0 -7 4 -10 8 -7 4 2 10 -5 14 -15 4 -13 11 -18 22 -14 11 4 14 2
9 -5 -9 -16 60 -10 76 6 16 16 31 15 22 0 -5 -8 -1 -7 10 2 14 11 17 24 14 62
-3 26 -2 45 2 43 4 -2 7 1 8 8 1 7 3 30 5 52 7 65 38 122 60 108 5 -3 7 -1 4
4 -4 6 7 24 23 42 17 17 30 35 30 39 0 16 -87 -72 -103 -104 -24 -46 -49 -165
-42 -199 5 -28 2 -32 -28 -43 -72 -26 -102 -7 -140 88 -86 217 -127 382 -127
517 0 55 -6 118 -14 144 -8 26 -12 65 -9 87 6 42 -9 84 -21 63z m31 -218 c-3
-10 -5 -4 -5 12 0 17 2 24 5 18 2 -7 2 -21 0 -30z"/>
<path d="M1412 2520 c0 -14 2 -19 5 -12 2 6 2 18 0 25 -3 6 -5 1 -5 -13z"/>
<path d="M1537 2519 c-12 -43 -8 -49 23 -47 17 1 30 8 30 15 0 16 -20 27 -21
11 0 -7 -6 0 -13 16 l-13 28 -6 -23z"/>
<path d="M1673 2525 c4 -8 2 -17 -3 -20 -6 -4 -10 -2 -10 2 0 17 -55 7 -58
-10 -3 -12 1 -15 13 -11 10 4 21 -1 30 -12 13 -18 14 -18 20 -2 4 10 12 15 18
11 6 -4 8 0 4 10 -3 10 -2 17 3 17 5 0 7 7 4 15 -4 8 -11 15 -16 15 -6 0 -8
-7 -5 -15z"/>
<path d="M2560 2525 c-8 -9 -8 -15 -2 -15 12 0 26 19 19 26 -2 2 -10 -2 -17
-11z"/>
<path d="M1460 2522 c0 -5 12 -22 27 -38 17 -18 24 -22 20 -11 -4 10 -7 23 -7
27 0 5 -9 14 -20 20 -11 6 -20 7 -20 2z"/>
<path d="M2750 2514 c0 -20 -25 -45 -35 -36 -5 4 -6 3 -3 -3 3 -5 -3 -18 -14
-27 -10 -10 -18 -15 -18 -10 0 4 -7 -2 -15 -12 -8 -11 -15 -16 -15 -12 0 5 -9
-3 -21 -18 -11 -14 -25 -24 -30 -20 -5 3 -12 -2 -15 -10 -3 -9 -11 -13 -17 -9
-6 3 -7 1 -3 -5 4 -7 3 -12 -3 -12 -5 0 -16 -6 -23 -13 -23 -22 -96 -77 -102
-77 -3 0 -15 -8 -25 -17 -24 -22 -32 -28 -101 -78 -95 -69 -150 -121 -150
-141 0 -7 8 -18 18 -23 11 -7 12 -10 3 -11 -7 0 -11 -6 -8 -15 4 -8 2 -17 -3
-20 -6 -4 -10 -12 -10 -18 0 -8 4 -7 9 2 13 20 30 -49 29 -112 -1 -26 4 -53
10 -59 14 -14 16 -38 2 -38 -5 0 -7 8 -3 18 5 13 3 14 -6 6 -10 -9 -9 -21 2
-55 8 -24 18 -69 21 -99 4 -30 13 -95 21 -145 16 -100 17 -124 16 -242 -1 -67
-4 -83 -16 -83 -9 0 -15 -9 -15 -21 0 -33 22 -99 31 -93 4 2 1 20 -7 39 -9 22
-10 36 -4 40 6 4 7 11 4 17 -5 7 -2 8 5 4 7 -5 10 -14 7 -22 -3 -8 -1 -14 4
-14 9 0 17 183 11 244 0 10 4 25 11 33 9 11 8 13 -3 11 -9 -2 -15 7 -16 27 -1
17 -7 52 -13 79 -5 26 -7 53 -3 59 3 5 2 7 -4 4 -10 -6 -10 60 1 118 3 17 3
22 0 13 -3 -10 -10 -18 -15 -18 -6 0 -7 9 -4 20 4 13 2 20 -6 20 -9 0 -10 3
-2 11 7 7 8 23 2 47 -10 42 -39 229 -38 240 4 23 -2 42 -11 37 -5 -3 -10 -3
-10 2 1 10 0 9 255 199 232 173 294 222 312 244 18 23 34 70 22 70 -5 0 -9 -7
-9 -16z"/>
<path d="M1895 2511 c-3 -5 -1 -12 5 -16 5 -3 10 1 10 9 0 18 -6 21 -15 7z"/>
<path d="M2576 2512 c-7 -12 4 -52 14 -52 5 0 8 14 8 30 -1 29 -11 39 -22 22z"/>
<path d="M1210 2465 c0 -22 -3 -58 -7 -79 -5 -32 -4 -38 8 -31 11 6 12 5 2 -6
-7 -7 -13 -36 -13 -65 0 -38 -4 -53 -16 -58 -23 -9 -24 -8 -17 12 5 13 3 14
-7 5 -18 -16 -3 -34 23 -27 22 5 23 3 22 -64 -1 -58 -5 -76 -28 -111 -30 -45
-34 -60 -12 -41 13 11 14 8 9 -21 -3 -19 -10 -49 -15 -68 -5 -19 -7 -37 -4
-39 2 -2 8 16 14 39 6 24 15 56 20 72 6 17 6 27 0 27 -6 0 -5 8 1 20 6 11 16
20 23 20 8 0 7 -4 -3 -11 -11 -8 -12 -12 -3 -16 10 -3 10 -10 2 -25 -6 -11 -9
-31 -6 -44 2 -13 0 -24 -4 -24 -5 0 -9 -8 -9 -17 0 -15 2 -14 14 3 9 11 12 29
9 43 -4 16 -2 22 5 17 6 -3 14 -1 18 5 4 8 3 9 -4 5 -7 -4 -12 -2 -12 3 0 6 5
11 11 11 8 0 8 5 -1 15 -10 12 -9 20 4 40 9 14 21 23 25 20 5 -2 11 4 14 15 7
26 3 25 -27 -5 -31 -31 -40 -32 -32 -2 3 13 6 67 7 120 1 53 5 100 10 102 8 5
6 28 -6 67 -4 11 -1 26 8 36 12 13 13 26 7 52 -4 19 -8 31 -9 25 -1 -5 -6 -3
-11 5 -7 11 -10 5 -10 -25z"/>
<path d="M2039 2488 c7 -9 9 -23 5 -30 -6 -10 -4 -11 7 0 11 10 10 15 -6 30
-17 15 -18 15 -6 0z"/>
<path d="M1450 2479 c0 -5 4 -8 9 -5 5 4 11 0 14 -6 2 -7 8 -9 13 -5 5 4 2 12
-6 17 -20 13 -30 12 -30 -1z"/>
<path d="M1420 2469 c0 -5 5 -7 10 -4 6 3 10 8 10 11 0 2 -4 4 -10 4 -5 0 -10
-5 -10 -11z"/>
<path d="M1816 2463 c-4 -9 -9 -49 -13 -89 -3 -40 -10 -71 -14 -68 -5 3 -9 -1
-9 -10 0 -8 4 -16 10 -18 5 -1 11 -17 13 -33 4 -31 23 -75 33 -75 3 0 2 4 -1
10 -12 19 -17 248 -6 269 6 11 7 22 2 25 -5 3 -12 -2 -15 -11z"/>
<path d="M1265 2459 c-11 -16 -1 -19 13 -3 7 8 8 14 3 14 -5 0 -13 -5 -16 -11z"/>
<path d="M1961 2437 c-8 -12 -10 -19 -6 -15 5 4 14 3 21 -3 10 -8 12 -6 9 11
-6 31 -9 32 -24 7z"/>
<path d="M2075 2450 c3 -5 8 -10 11 -10 2 0 4 5 4 10 0 6 -5 10 -11 10 -5 0
-7 -4 -4 -10z"/>
<path d="M1330 2444 c0 -9 24 -29 50 -41 23 -11 24 -12 4 -12 -20 -1 -22 -6
-19 -48 1 -27 3 -51 4 -55 2 -15 50 -8 59 8 18 32 31 5 25 -49 -3 -29 -2 -49
2 -45 4 4 9 41 11 82 l3 76 -32 16 c-28 15 -29 18 -13 24 16 5 14 9 -18 28
-35 21 -76 29 -76 16z m82 -109 c3 -28 0 -35 -13 -35 -24 0 -33 42 -12 58 22
16 20 17 25 -23z"/>
<path d="M2010 2432 c0 -11 5 -24 10 -27 6 -4 9 2 7 14 -4 29 -17 39 -17 13z"/>
<path d="M2565 2430 c-10 -11 -26 -22 -36 -25 -11 -4 -19 -11 -19 -16 0 -5 18
3 40 17 22 15 40 31 40 35 0 13 -5 11 -25 -11z"/>
<path d="M1284 2410 c2 -39 11 -46 14 -10 1 16 -2 31 -6 34 -5 3 -9 -8 -8 -24z"/>
<path d="M1640 2429 c-25 -3 -48 -5 -52 -2 -9 5 -58 -26 -58 -37 0 -5 31 -8
69 -8 55 1 77 -4 106 -22 35 -22 37 -22 53 -5 11 11 12 15 3 10 -10 -6 -13 -4
-9 7 4 8 1 15 -7 15 -7 0 -11 -7 -8 -15 5 -12 2 -12 -17 -2 -12 6 -41 18 -64
25 -41 12 -41 12 36 11 42 0 74 2 70 6 -16 14 -80 24 -122 17z"/>
<path d="M1916 2423 c-6 -14 -5 -15 5 -6 7 7 10 15 7 18 -3 3 -9 -2 -12 -12z"/>
<path d="M1941 2396 c-9 -10 -7 -17 6 -27 15 -12 16 -12 10 5 -5 12 -3 23 5
28 8 5 9 8 2 8 -6 0 -17 -6 -23 -14z"/>
<path d="M1231 2395 c1 -19 18 -51 18 -35 0 8 -4 22 -9 30 -5 8 -9 11 -9 5z"/>
<path d="M1589 2368 c-7 -73 -3 -102 18 -138 22 -37 53 -54 53 -30 0 6 -7 10
-15 10 -14 0 -41 38 -37 53 1 4 -3 7 -10 7 -9 0 -9 3 -1 11 14 14 55 -10 48
-28 -2 -7 0 -13 4 -13 5 0 12 6 14 13 4 9 6 9 6 0 1 -10 7 -10 26 -1 13 6 22
15 19 20 -3 4 2 11 10 14 21 8 20 28 -1 45 -15 12 -16 12 -11 -3 7 -18 -20
-48 -44 -48 -9 0 -29 7 -44 15 -16 8 -23 15 -16 15 6 0 12 9 12 19 0 31 28 34
32 3 4 -35 41 -38 46 -4 3 21 1 23 -19 17 -18 -6 -21 -4 -16 9 9 23 -26 21
-48 -4 -10 -11 -20 -18 -23 -15 -3 3 3 14 13 25 16 18 16 20 2 20 -10 0 -18
-6 -18 -12z"/>
<path d="M1900 2376 c0 -11 30 -39 36 -34 2 3 -5 13 -16 23 -11 10 -20 15 -20
11z"/>
<path d="M2012 2356 c7 -8 17 -12 22 -9 4 3 2 9 -5 14 -22 13 -31 11 -17 -5z"/>
<path d="M1536 2329 c-9 -45 -7 -79 3 -79 6 0 13 5 16 10 3 6 1 10 -5 10 -10
0 -8 19 7 73 2 9 0 17 -5 17 -5 0 -12 -14 -16 -31z"/>
<path d="M2235 2350 c-3 -5 -1 -10 4 -10 6 0 11 5 11 10 0 6 -2 10 -4 10 -3 0
-8 -4 -11 -10z"/>
<path d="M1291 2334 c0 -11 3 -14 6 -6 3 7 2 16 -1 19 -3 4 -6 -2 -5 -13z"/>
<path d="M1848 2323 c5 -21 7 -23 10 -9 2 10 0 22 -6 28 -6 6 -7 0 -4 -19z"/>
<path d="M1260 2321 c0 -11 4 -22 9 -25 4 -3 6 6 3 19 -5 30 -12 33 -12 6z"/>
<path d="M1950 2330 c0 -5 5 -10 11 -10 5 0 7 5 4 10 -3 6 -8 10 -11 10 -2 0
-4 -4 -4 -10z"/>
<path d="M2430 2329 c0 -7 -8 -18 -17 -26 -17 -13 -16 -13 3 -4 11 5 26 17 34
25 10 13 10 16 -4 16 -9 0 -16 -5 -16 -11z"/>
<path d="M1906 2293 c-6 -14 -5 -15 5 -6 7 7 10 15 7 18 -3 3 -9 -2 -12 -12z"/>
<path d="M1146 2285 c-3 -9 -6 -22 -5 -28 0 -7 5 -1 10 12 5 13 8 26 5 28 -2
2 -6 -3 -10 -12z"/>
<path d="M1865 2287 c-4 -9 -5 -26 -2 -37 3 -11 1 -20 -4 -20 -5 0 -9 -10 -9
-21 0 -18 2 -19 15 -9 8 7 15 21 15 32 0 11 4 16 11 12 8 -4 8 -1 1 12 -5 11
-12 26 -14 34 -5 12 -7 12 -13 -3z"/>
<path d="M2241 2291 c-8 -6 -9 -11 -3 -15 6 -3 14 -1 17 5 9 14 2 20 -14 10z"/>
<path d="M1257 2255 c-4 -8 -3 -16 1 -19 4 -3 9 4 9 15 2 23 -3 25 -10 4z"/>
<path d="M1281 2254 c0 -11 3 -14 6 -6 3 7 2 16 -1 19 -3 4 -6 -2 -5 -13z"/>
<path d="M1403 2263 c-13 -2 -23 -8 -23 -13 0 -10 38 -1 46 11 3 5 4 8 2 8 -2
-1 -13 -4 -25 -6z"/>
<path d="M1978 2235 c-6 -30 -2 -32 12 -6 6 11 6 22 1 25 -5 3 -11 -5 -13 -19z"/>
<path d="M2067 2231 c-4 -18 -7 -43 -6 -55 1 -11 5 -1 10 24 5 25 7 49 6 55
-2 5 -7 -5 -10 -24z"/>
<path d="M2101 2234 c0 -11 3 -14 6 -6 3 7 2 16 -1 19 -3 4 -6 -2 -5 -13z"/>
<path d="M1506 2224 c-3 -8 -2 -13 3 -9 5 3 12 -1 14 -7 3 -7 6 -3 6 10 1 25
-14 30 -23 6z"/>
<path d="M1766 2207 c3 -10 9 -15 12 -12 3 3 0 11 -7 18 -10 9 -11 8 -5 -6z"/>
<path d="M2273 2205 c0 -7 6 -11 14 -8 7 3 13 6 13 8 0 2 -6 5 -13 8 -8 3 -14
-1 -14 -8z"/>
<path d="M1112 2170 c-7 -11 -12 -25 -12 -32 1 -7 8 0 16 15 18 33 14 46 -4
17z"/>
<path d="M1280 2181 c0 -6 4 -13 10 -16 6 -3 7 1 4 9 -7 18 -14 21 -14 7z"/>
<path d="M1445 2176 c-3 -9 -7 -23 -10 -31 -2 -8 -2 -15 1 -15 7 0 25 52 20
58 -3 3 -8 -3 -11 -12z"/>
<path d="M1898 2165 c-3 -14 -1 -25 3 -25 5 0 9 11 9 25 0 14 -2 25 -4 25 -2
0 -6 -11 -8 -25z"/>
<path d="M2121 2183 c-1 -6 -4 -20 -7 -30 -5 -17 -5 -17 6 0 6 10 9 23 6 30
-3 9 -5 9 -5 0z"/>
<path d="M1960 2170 c-8 -6 -11 -10 -6 -10 5 0 3 -7 -4 -15 -7 -8 -8 -15 -4
-15 10 0 38 40 32 45 -2 2 -10 0 -18 -5z"/>
<path d="M2161 2164 c0 -11 3 -14 6 -6 3 7 2 16 -1 19 -3 4 -6 -2 -5 -13z"/>
<path d="M1150 2160 c0 -5 5 -10 11 -10 5 0 7 5 4 10 -3 6 -8 10 -11 10 -2 0
-4 -4 -4 -10z"/>
<path d="M1851 2154 c0 -11 3 -14 6 -6 3 7 2 16 -1 19 -3 4 -6 -2 -5 -13z"/>
<path d="M1750 2148 c0 -7 5 -20 10 -28 8 -12 10 -9 10 13 0 15 -4 27 -10 27
-5 0 -10 -6 -10 -12z"/>
<path d="M2037 2146 c-4 -10 -1 -13 8 -9 8 3 12 9 9 14 -7 12 -11 11 -17 -5z"/>
<path d="M1295 2128 c-20 -88 -25 -121 -20 -127 11 -10 25 24 26 64 0 22 2 50
5 63 2 12 2 22 -1 22 -2 0 -7 -10 -10 -22z"/>
<path d="M1461 2124 c0 -11 3 -14 6 -6 3 7 2 16 -1 19 -3 4 -6 -2 -5 -13z"/>
<path d="M1827 2130 c10 -13 6 -27 -16 -72 -19 -36 -24 -55 -15 -51 8 3 14 14
14 24 0 10 4 19 9 19 5 0 13 10 16 21 5 14 10 18 14 10 4 -7 8 2 8 19 0 16 -3
28 -5 25 -3 -3 -12 1 -21 8 -14 10 -14 10 -4 -3z"/>
<path d="M1920 2121 c0 -5 5 -13 10 -16 6 -3 10 -2 10 4 0 5 -4 13 -10 16 -5
3 -10 2 -10 -4z"/>
<path d="M1517 2107 c-4 -12 0 -14 17 -11 24 4 36 -15 36 -59 0 -14 -4 -16
-19 -7 -23 12 -47 4 -56 -18 -4 -12 -8 -13 -13 -5 -4 7 -13 9 -20 4 -8 -5 -2
-18 22 -43 l34 -36 -6 41 -5 40 36 -7 c34 -6 37 -5 43 20 8 32 -14 79 -36 79
-8 0 -18 4 -21 8 -3 5 -9 2 -12 -6z"/>
<path d="M1783 2099 c-2 -23 3 -25 10 -4 4 8 3 16 -1 19 -4 3 -9 -4 -9 -15z"/>
<path d="M1890 2101 c0 -25 6 -27 13 -6 4 8 2 17 -3 20 -6 4 -10 -3 -10 -14z"/>
<path d="M2047 2113 c-4 -3 -7 -13 -7 -22 1 -13 3 -13 11 2 11 19 8 33 -4 20z"/>
<path d="M1977 2103 c-4 -3 -7 -13 -7 -22 1 -13 3 -13 11 2 11 19 8 33 -4 20z"/>
<path d="M1131 2084 c0 -11 3 -14 6 -6 3 7 2 16 -1 19 -3 4 -6 -2 -5 -13z"/>
<path d="M1916 2074 c-4 -9 -4 -19 -1 -22 2 -3 7 3 11 12 4 9 4 19 1 22 -2 3
-7 -3 -11 -12z"/>
<path d="M1945 2079 c-4 -6 -5 -12 -2 -15 2 -3 7 2 10 11 7 17 1 20 -8 4z"/>
<path d="M2070 2069 c0 -13 5 -31 10 -39 7 -11 8 -5 4 20 -8 43 -14 51 -14 19z"/>
<path d="M1770 2051 c0 -25 6 -27 13 -6 4 8 2 17 -3 20 -6 4 -10 -3 -10 -14z"/>
<path d="M2032 2050 c0 -14 2 -19 5 -12 2 6 2 18 0 25 -3 6 -5 1 -5 -13z"/>
<path d="M1430 2041 c0 -6 4 -13 10 -16 6 -3 7 1 4 9 -7 18 -14 21 -14 7z"/>
<path d="M1835 2039 c-4 -6 -5 -12 -2 -15 2 -3 7 2 10 11 7 17 1 20 -8 4z"/>
<path d="M1299 1983 c-5 -14 -8 -30 -6 -36 1 -5 8 7 14 27 13 42 7 49 -8 9z"/>
<path d="M1812 1973 c-6 -20 -10 -39 -8 -41 2 -2 9 13 16 33 7 20 10 38 8 41
-3 2 -10 -13 -16 -33z"/>
<path d="M1324 1978 c-9 -25 -11 -33 -13 -48 0 -5 -7 -10 -14 -10 -13 0 -42
-39 -34 -46 9 -10 58 48 63 76 4 16 10 27 15 24 5 -3 6 2 3 10 -8 21 -11 20
-20 -6z"/>
<path d="M2015 1990 c-3 -5 -1 -10 4 -10 6 0 11 5 11 10 0 6 -2 10 -4 10 -3 0
-8 -4 -11 -10z"/>
<path d="M1110 1965 c0 -24 2 -26 15 -15 9 7 12 16 8 19 -4 4 -11 10 -15 15
-5 5 -8 -3 -8 -19z"/>
<path d="M1236 1944 c-9 -23 -8 -26 7 -18 6 3 -1 -5 -17 -18 -17 -14 -26 -30
-22 -36 4 -7 3 -12 -2 -12 -14 0 -20 -56 -9 -75 12 -22 0 -65 -18 -65 -17 0
-19 -20 -16 -127 2 -53 -2 -78 -13 -95 -9 -12 -16 -30 -16 -40 0 -10 -9 -26
-19 -35 -11 -9 -17 -21 -14 -26 3 -6 2 -7 -4 -4 -5 3 -56 -33 -114 -81 -96
-80 -126 -103 -184 -146 -11 -8 -16 -18 -12 -23 5 -4 14 0 21 10 7 9 17 17 21
17 12 0 235 181 235 191 0 5 3 8 8 7 15 -3 42 15 42 29 0 8 5 11 12 7 7 -4 8
-3 4 4 -4 7 -2 12 3 12 6 0 11 11 11 24 0 13 9 34 20 47 l19 24 -16 -55 c-8
-30 -20 -64 -25 -76 -6 -12 -8 -39 -6 -60 2 -29 -1 -39 -13 -42 -14 -2 -16 5
-13 39 3 34 1 40 -9 30 -14 -14 -16 -63 -3 -72 13 -10 -64 -58 -83 -52 -12 4
-13 3 -3 -5 11 -7 5 -14 -22 -32 -20 -12 -43 -28 -51 -36 -8 -8 -20 -13 -27
-12 -6 2 -12 -3 -13 -9 0 -7 -4 -12 -8 -10 -5 1 -13 -6 -18 -16 -6 -9 -15 -14
-21 -11 -7 4 -8 2 -4 -4 4 -7 1 -12 -8 -12 -9 0 -16 -5 -16 -11 0 -8 -5 -8
-15 1 -8 7 -15 18 -15 24 0 6 -14 26 -30 44 -16 18 -30 39 -30 47 0 33 -80 60
-96 33 -5 -8 -2 -9 9 -5 42 16 95 -46 84 -99 -2 -13 0 -27 4 -30 5 -3 9 7 9
22 0 22 2 25 15 14 8 -7 15 -21 15 -32 0 -10 7 -21 15 -24 8 -4 15 -13 15 -21
0 -8 7 -31 17 -50 15 -33 15 -38 -11 -116 -14 -45 -28 -92 -31 -105 -2 -12 -7
-27 -10 -32 -10 -17 -51 -11 -79 11 -14 11 -26 16 -26 11 0 -15 33 -40 63 -47
48 -12 14 -27 -51 -23 -34 1 -57 -1 -53 -5 4 -4 31 -8 60 -9 57 0 103 23 99
49 -2 9 3 18 10 20 6 3 12 -3 12 -13 0 -31 -42 -159 -61 -186 -11 -14 -19 -30
-19 -35 0 -4 -13 -35 -29 -68 -16 -33 -27 -62 -25 -64 8 -8 50 46 68 89 11 25
31 64 44 88 13 23 21 49 18 57 -3 8 -1 15 4 15 5 0 13 12 16 26 5 18 9 22 15
13 4 -7 5 -17 3 -21 -3 -4 -1 -8 4 -8 8 0 33 -61 69 -170 8 -25 22 -58 30 -74
9 -16 17 -38 18 -50 4 -35 5 -36 17 -34 6 2 14 -8 18 -22 6 -25 6 -25 12 -2
15 56 23 10 23 -132 0 -85 3 -152 7 -149 5 2 9 19 9 36 l2 32 7 -35 c8 -37 11
-33 14 12 1 18 -4 28 -16 31 -10 3 -18 11 -18 19 0 10 3 9 10 -2 8 -13 10 -13
10 2 0 9 3 18 8 21 4 2 1 2 -5 1 -13 -3 -15 9 -18 122 -1 33 -5 65 -8 71 -4 7
-3 14 2 17 5 4 12 0 15 -6 3 -7 3 -1 0 15 -4 15 -2 27 4 27 10 0 10 14 -4 135
-14 119 -3 258 23 287 9 10 11 18 5 18 -6 0 -13 -6 -15 -12 -4 -8 -6 -7 -6 3
-1 9 6 22 14 29 9 7 13 15 11 18 -3 2 4 16 14 30 11 13 20 30 20 36 0 6 -4 4
-10 -4 -5 -8 -12 -12 -15 -8 -3 3 1 12 9 21 8 8 12 17 9 21 -4 3 0 6 9 6 16 0
38 40 38 70 0 11 -5 20 -10 20 -6 0 -8 -11 -4 -25 5 -19 2 -25 -11 -25 -11 0
-15 -5 -11 -15 3 -8 0 -15 -7 -15 -13 0 -37 -45 -37 -71 0 -9 -6 -22 -14 -28
-7 -6 -17 -30 -21 -54 -5 -23 -9 -44 -10 -47 -12 -36 -15 -154 -5 -235 9 -78
9 -112 0 -157 -12 -55 -30 -79 -30 -40 0 10 -9 36 -21 57 -11 22 -31 69 -44
105 -55 155 -64 178 -94 240 l-31 65 25 83 c23 79 24 85 8 123 -8 22 -14 41
-12 43 2 2 67 50 144 107 77 57 142 107 143 111 2 4 9 8 15 8 8 0 13 -21 14
-58 4 -126 8 -162 20 -162 21 0 23 17 7 55 -14 35 -14 36 5 30 10 -3 22 -1 26
4 3 6 0 9 -7 6 -7 -3 -19 -1 -27 4 -12 8 -12 12 -3 24 10 12 10 18 -2 30 -8 8
-12 18 -8 21 3 4 5 23 3 42 -1 18 2 34 7 34 6 0 8 17 5 42 -4 29 -3 39 5 34 8
-5 12 3 12 23 0 16 4 32 9 35 5 3 11 15 14 26 3 11 1 18 -4 14 -13 -8 -11 10
3 24 9 9 9 12 0 12 -8 0 -9 7 -2 25 7 17 6 25 -1 25 -7 0 -9 9 -6 21 4 15 2
18 -6 10 -9 -7 -12 2 -12 37 1 46 23 118 24 79 1 -10 -4 -27 -9 -37 -6 -10 -6
-21 -2 -24 10 -6 11 -3 25 131 1 12 12 33 25 48 13 15 21 30 18 33 -4 3 -13
-4 -22 -16 -16 -24 -36 -30 -31 -10 1 7 11 20 22 30 11 9 16 17 11 18 -5 0 -2
7 5 17 14 17 20 63 8 63 -4 0 -10 -7 -13 -16z m-46 -484 c0 -5 -5 -10 -11 -10
-5 0 -7 5 -4 10 3 6 8 10 11 10 2 0 4 -4 4 -10z"/>
<path d="M1440 1908 c0 -31 30 -42 122 -45 67 -2 89 0 86 9 -3 8 -20 11 -46
10 -22 -2 -50 1 -61 7 -11 7 -22 7 -25 2 -8 -13 -48 -2 -63 17 -12 14 -13 14
-13 0z"/>
<path d="M1756 1903 c-10 -24 -1 -26 23 -5 22 17 22 18 3 19 -11 1 -23 -5 -26
-14z"/>
<path d="M2076 1905 c-3 -8 -1 -15 4 -15 6 0 10 7 10 15 0 8 -2 15 -4 15 -2 0
-6 -7 -10 -15z"/>
<path d="M2111 1904 c0 -11 3 -14 6 -6 3 7 2 16 -1 19 -3 4 -6 -2 -5 -13z"/>
<path d="M1094 1841 c2 -34 6 -64 10 -68 10 -10 7 100 -3 116 -6 9 -8 -8 -7
-48z"/>
<path d="M1725 1868 c-4 -10 -11 -16 -15 -13 -4 3 -8 -1 -7 -8 1 -29 -4 -48
-10 -44 -5 3 -8 -16 -9 -42 l-1 -46 10 35 c5 19 18 52 29 73 11 20 17 43 15
50 -3 8 -7 6 -12 -5z"/>
<path d="M1787 1850 c-9 -11 -17 -25 -17 -30 0 -6 -5 -10 -11 -10 -5 0 -7 5
-3 12 4 7 3 8 -4 4 -9 -5 -8 -12 1 -27 8 -13 13 -15 16 -7 2 7 12 28 23 46 22
36 20 41 -5 12z"/>
<path d="M1831 1854 c0 -11 3 -14 6 -6 3 7 2 16 -1 19 -3 4 -6 -2 -5 -13z"/>
<path d="M1460 1844 c1 -5 7 -20 14 -34 11 -18 23 -25 51 -27 42 -2 89 18 98
42 8 20 -2 19 -25 -1 -27 -26 -97 -22 -120 6 -10 12 -18 18 -18 14z"/>
<path d="M2062 1830 c0 -14 2 -19 5 -12 2 6 2 18 0 25 -3 6 -5 1 -5 -13z"/>
<path d="M2152 1830 c0 -14 2 -19 5 -12 2 6 2 18 0 25 -3 6 -5 1 -5 -13z"/>
<path d="M1271 1814 c0 -11 3 -14 6 -6 3 7 2 16 -1 19 -3 4 -6 -2 -5 -13z"/>
<path d="M1992 1810 c0 -14 2 -19 5 -12 2 6 2 18 0 25 -3 6 -5 1 -5 -13z"/>
<path d="M1236 1792 c-3 -6 -9 -30 -11 -54 l-5 -43 14 40 c12 34 14 36 16 15
1 -15 4 -18 7 -9 5 21 -12 65 -21 51z"/>
<path d="M1280 1785 c-8 -10 -9 -15 -2 -15 7 0 9 -7 5 -17 -5 -12 -3 -14 7 -8
8 5 4 -6 -9 -24 -15 -21 -20 -38 -15 -49 6 -14 8 -13 13 8 3 14 14 37 24 52
17 24 17 29 4 48 -12 18 -16 19 -27 5z"/>
<path d="M2062 1748 c1 -51 2 -51 5 -10 2 23 9 42 14 42 6 0 7 5 4 10 -15 24
-25 6 -23 -42z"/>
<path d="M1157 1771 c-2 -10 -1 -24 3 -30 4 -7 7 1 8 18 1 35 -3 40 -11 12z"/>
<path d="M1730 1779 c0 -5 5 -7 10 -4 6 3 10 8 10 11 0 2 -4 4 -10 4 -5 0 -10
-5 -10 -11z"/>
<path d="M1794 1768 c-12 -14 -13 -18 -3 -10 9 6 18 10 21 7 2 -3 5 2 5 10 0
19 0 19 -23 -7z"/>
<path d="M2139 1750 c-18 -21 -35 -37 -39 -35 -3 2 0 -49 7 -113 25 -235 26
-321 3 -307 -5 3 -13 -7 -18 -22 -6 -16 -11 -23 -11 -16 -1 15 -40 5 -65 -16
-25 -22 -46 -65 -46 -94 0 -13 -3 -27 -7 -31 -4 -4 -9 -18 -10 -31 -2 -13 -10
-36 -18 -51 -8 -15 -12 -31 -9 -36 3 -4 1 -8 -5 -8 -6 0 -7 -7 -4 -17 4 -11 3
-14 -5 -9 -7 4 -12 2 -12 -3 0 -6 5 -11 10 -11 6 0 4 -13 -5 -30 -8 -16 -15
-42 -16 -57 0 -25 -1 -26 -9 -8 -8 19 -9 19 -9 -2 -1 -13 4 -23 9 -23 6 0 4
-14 -4 -35 -9 -21 -11 -35 -5 -35 6 0 8 -4 5 -9 -3 -4 -6 -43 -8 -86 -1 -67
-5 -82 -27 -109 -14 -17 -18 -25 -8 -17 9 7 17 12 18 10 8 -47 12 -80 13 -106
1 -17 4 -29 9 -26 16 10 6 -27 -10 -37 -12 -8 -13 -10 -3 -7 12 4 15 -6 15
-44 0 -34 -4 -49 -13 -49 -18 0 -9 -24 10 -28 21 -4 25 23 21 148 -5 178 -2
302 8 365 14 88 39 196 54 231 8 17 19 60 25 95 15 85 38 137 63 145 22 7 51
-21 43 -43 -11 -29 -18 -131 -9 -136 6 -4 13 31 16 86 6 76 10 95 28 109 11
10 18 22 14 28 -3 5 0 12 7 15 17 7 13 151 -8 252 -20 102 -18 149 6 173 12
12 25 18 31 15 5 -4 8 6 7 24 -1 17 -3 31 -4 31 -1 0 -17 -18 -35 -40z"/>
<path d="M1344 1763 c4 -12 2 -24 -4 -28 -6 -3 -8 -11 -5 -16 4 -5 2 -9 -3 -9
-6 0 -12 -7 -16 -15 -4 -12 -2 -13 14 -2 11 6 20 19 20 29 0 9 6 18 13 21 9 3
7 10 -7 23 -18 19 -18 18 -12 -3z"/>
<path d="M2110 1765 c0 -8 2 -15 4 -15 2 0 6 7 10 15 3 8 1 15 -4 15 -6 0 -10
-7 -10 -15z"/>
<path d="M2266 1755 c8 -37 14 -45 14 -19 0 10 -5 26 -10 34 -8 11 -9 7 -4
-15z"/>
<path d="M2080 1761 c0 -6 4 -13 10 -16 6 -3 7 1 4 9 -7 18 -14 21 -14 7z"/>
<path d="M1090 1742 c0 -5 6 -17 14 -27 13 -18 14 -18 9 8 -5 24 -23 39 -23
19z"/>
<path d="M1796 1734 c-11 -8 -16 -14 -10 -14 13 0 39 18 34 24 -3 2 -14 -2
-24 -10z"/>
<path d="M1891 1734 c0 -11 3 -14 6 -6 3 7 2 16 -1 19 -3 4 -6 -2 -5 -13z"/>
<path d="M1920 1708 c0 -23 3 -29 9 -19 8 12 4 51 -5 51 -2 0 -4 -15 -4 -32z"/>
<path d="M2005 1729 c-4 -6 -5 -12 -2 -15 2 -3 7 2 10 11 7 17 1 20 -8 4z"/>
<path d="M1870 1713 c5 -2 10 -25 10 -49 0 -24 4 -44 8 -44 13 0 -2 93 -16 96
-7 1 -8 0 -2 -3z"/>
<path d="M1670 1700 c0 -5 5 -10 11 -10 5 0 7 5 4 10 -3 6 -8 10 -11 10 -2 0
-4 -4 -4 -10z"/>
<path d="M1805 1700 c-3 -5 -1 -10 4 -10 6 0 11 5 11 10 0 6 -2 10 -4 10 -3 0
-8 -4 -11 -10z"/>
<path d="M2277 1692 c3 -12 9 -25 14 -28 14 -8 11 10 -6 32 -13 18 -14 18 -8
-4z"/>
<path d="M2000 1684 c0 -8 5 -12 10 -9 6 4 8 11 5 16 -9 14 -15 11 -15 -7z"/>
<path d="M1231 1674 c0 -11 3 -14 6 -6 3 7 2 16 -1 19 -3 4 -6 -2 -5 -13z"/>
<path d="M1560 1680 c0 -5 5 -10 10 -10 6 0 10 5 10 10 0 6 -4 10 -10 10 -5 0
-10 -4 -10 -10z"/>
<path d="M1676 1665 c-9 -26 -7 -32 5 -12 6 10 9 21 6 23 -2 3 -7 -2 -11 -11z"/>
<path d="M1783 1665 c-3 -9 -3 -18 -1 -21 3 -3 8 4 11 16 6 23 -1 27 -10 5z"/>
<path d="M2141 1658 c-1 -15 4 -30 9 -33 12 -7 12 12 0 40 -8 18 -9 17 -9 -7z"/>
<path d="M2183 1650 c6 -16 13 -28 15 -26 6 6 -10 56 -18 56 -5 0 -3 -13 3
-30z"/>
<path d="M1824 1645 c0 -13 4 -21 8 -19 4 3 8 11 8 19 0 8 -4 16 -8 19 -4 2
-8 -6 -8 -19z"/>
<path d="M1255 1640 c4 -6 1 -19 -7 -28 -12 -15 -11 -16 5 -3 19 15 23 41 6
41 -5 0 -7 -5 -4 -10z"/>
<path d="M1950 1646 c0 -2 7 -6 15 -10 8 -3 15 -1 15 4 0 6 -7 10 -15 10 -8 0
-15 -2 -15 -4z"/>
<path d="M2302 1630 c0 -14 2 -19 5 -12 2 6 2 18 0 25 -3 6 -5 1 -5 -13z"/>
<path d="M1749 1623 c-13 -16 -12 -17 4 -4 16 13 21 21 13 21 -2 0 -10 -8 -17
-17z"/>
<path d="M1790 1620 c-6 -11 -8 -20 -6 -20 3 0 10 9 16 20 6 11 8 20 6 20 -3
0 -10 -9 -16 -20z"/>
<path d="M2141 1610 c0 -3 6 -25 13 -50 8 -25 15 -36 15 -25 0 17 -26 88 -28
75z"/>
<path d="M1238 1583 c-10 -2 -18 -9 -18 -14 0 -6 8 -5 20 1 11 6 20 13 20 15
0 3 -1 4 -2 4 -2 -1 -11 -3 -20 -6z"/>
<path d="M1806 1573 c-6 -14 -5 -15 5 -6 7 7 10 15 7 18 -3 3 -9 -2 -12 -12z"/>
<path d="M1550 1552 c0 -15 -5 -33 -12 -40 -9 -9 -9 -12 0 -12 9 0 10 -5 3
-19 -6 -10 -8 -21 -6 -23 3 -3 -1 -23 -9 -45 -11 -30 -11 -44 -3 -52 6 -6 7
-11 2 -11 -11 0 -11 -97 -1 -107 3 -4 6 5 7 18 0 23 2 34 14 104 9 56 18 215
11 215 -3 0 -6 -13 -6 -28z"/>
<path d="M1702 1560 c-7 -11 -12 -25 -12 -32 0 -7 7 0 15 16 18 33 15 45 -3
16z"/>
<path d="M1239 1555 c-1 -3 -2 -8 -3 -12 -1 -5 -5 -14 -9 -20 -6 -9 -3 -11 9
-6 12 4 15 3 10 -5 -5 -8 -1 -10 10 -5 11 4 13 8 6 11 -7 2 -10 8 -6 13 3 5 0
9 -6 9 -6 0 -8 5 -5 10 3 6 4 10 1 10 -3 0 -7 -2 -7 -5z"/>
<path d="M1719 1538 c-7 -13 -17 -26 -23 -30 -12 -8 -15 -99 -3 -91 4 2 7 19
6 36 -1 18 8 48 20 70 13 20 20 37 17 37 -3 0 -11 -10 -17 -22z"/>
<path d="M1758 1542 c-3 -10 -1 -27 4 -36 5 -9 6 -21 3 -26 -3 -6 -2 -10 3
-10 5 0 12 9 15 20 3 13 1 18 -6 13 -6 -4 -8 1 -5 14 3 12 2 26 -2 33 -5 8 -9
6 -12 -8z"/>
<path d="M1592 1530 c0 -14 2 -19 5 -12 2 6 2 18 0 25 -3 6 -5 1 -5 -13z"/>
<path d="M1629 1548 c0 -2 -3 -25 -5 -53 -3 -36 -2 -46 6 -35 5 8 10 31 11 50
1 32 2 33 9 10 l8 -25 1 28 c1 18 -4 27 -14 27 -8 0 -15 -1 -16 -2z"/>
<path d="M1796 1533 c-6 -14 -5 -15 5 -6 7 7 10 15 7 18 -3 3 -9 -2 -12 -12z"/>
<path d="M1360 1530 c0 -5 5 -10 10 -10 6 0 10 5 10 10 0 6 -4 10 -10 10 -5 0
-10 -4 -10 -10z"/>
<path d="M1885 1531 c-3 -5 -1 -12 5 -16 5 -3 10 1 10 9 0 18 -6 21 -15 7z"/>
<path d="M1051 1513 c0 -11 3 -13 6 -5 2 6 10 9 15 6 7 -4 8 -2 4 4 -11 18
-26 14 -25 -5z"/>
<path d="M1425 1520 c3 -5 8 -10 11 -10 2 0 4 5 4 10 0 6 -5 10 -11 10 -5 0
-7 -4 -4 -10z"/>
<path d="M1837 1513 c-3 -10 -10 -33 -16 -52 -6 -19 -7 -30 -3 -25 12 14 35
85 29 90 -2 3 -7 -3 -10 -13z"/>
<path d="M1316 1503 c-4 -10 -4 -14 1 -10 4 5 13 -7 20 -25 9 -22 12 -24 8 -8
-2 14 -5 33 -5 43 0 22 -16 22 -24 0z"/>
<path d="M1383 1490 c-3 -11 -9 -18 -13 -15 -5 3 -6 -4 -3 -15 5 -20 6 -19 19
5 7 14 16 29 19 35 3 5 1 10 -5 10 -7 0 -14 -9 -17 -20z"/>
<path d="M1445 1490 c-3 -5 -1 -10 4 -10 6 0 11 5 11 10 0 6 -2 10 -4 10 -3 0
-8 -4 -11 -10z"/>
<path d="M1729 1498 c-5 -10 -7 -59 -3 -55 6 6 13 57 8 57 -2 0 -5 -1 -5 -2z"/>
<path d="M1411 1476 c-9 -11 -9 -16 1 -22 7 -4 10 -4 6 1 -4 4 -3 14 3 22 6 7
9 13 6 13 -2 0 -10 -6 -16 -14z"/>
<path d="M1966 1475 c-3 -9 -11 -13 -18 -9 -7 5 -9 2 -6 -8 4 -9 -10 -36 -33
-67 -21 -28 -35 -51 -31 -51 4 0 -1 -5 -10 -11 -20 -11 -24 -34 -6 -45 8 -5 9
0 6 14 -4 12 -3 20 2 17 8 -5 114 165 107 172 -3 2 -7 -3 -11 -12z"/>
<path d="M2021 1448 c-31 -32 -39 -48 -22 -48 4 0 20 18 35 40 32 48 29 50
-13 8z"/>
<path d="M1100 1461 c0 -8 -7 -11 -15 -7 -8 3 -14 2 -14 -2 3 -20 -2 -25 -12
-12 -9 13 -10 12 -5 -2 3 -12 -5 -25 -27 -40 -18 -12 -43 -32 -57 -44 -90 -77
-196 -164 -202 -164 -4 0 -8 10 -10 21 -2 13 -14 25 -28 30 l-25 9 23 -16 c12
-9 22 -22 22 -28 0 -6 4 -17 9 -25 8 -12 19 -7 58 24 26 22 54 45 61 52 7 7
55 46 105 87 103 82 133 113 124 123 -4 3 -7 1 -7 -6z"/>
<path d="M1440 1454 c0 -8 5 -12 10 -9 6 3 10 10 10 16 0 5 -4 9 -10 9 -5 0
-10 -7 -10 -16z"/>
<path d="M1980 1448 c-12 -22 -12 -22 6 -6 10 10 15 20 12 24 -4 3 -12 -5 -18
-18z"/>
<path d="M1260 1449 c0 -5 -4 -8 -9 -4 -5 3 -13 1 -16 -5 -4 -6 -1 -9 7 -8 8
2 13 -6 12 -19 -1 -13 2 -20 7 -18 7 5 10 65 2 65 -1 0 -3 -5 -3 -11z"/>
<path d="M1644 1449 c-3 -6 -1 -16 5 -22 8 -8 11 -5 11 11 0 24 -5 28 -16 11z"/>
<path d="M1769 1444 c-7 -9 -14 -26 -16 -37 -2 -20 -1 -19 10 3 6 14 16 28 21
32 6 4 8 10 5 13 -4 3 -12 -2 -20 -11z"/>
<path d="M1386 1432 c-10 -17 -18 -112 -9 -112 5 0 9 12 9 28 1 57 4 73 14 67
6 -3 10 -2 10 4 0 13 -17 23 -24 13z"/>
<path d="M1197 1413 c-4 -3 -7 -17 -7 -30 0 -12 -4 -23 -10 -23 -5 0 -7 -7 -3
-16 9 -23 21 -4 26 39 4 39 4 41 -6 30z"/>
<path d="M1290 1396 c0 -31 6 -34 13 -6 3 11 1 23 -4 26 -5 3 -9 -6 -9 -20z"/>
<path d="M1478 1392 c-24 -40 -23 -47 3 -23 11 10 19 27 17 36 -2 12 -7 9 -20
-13z"/>
<path d="M1855 1410 c-4 -6 -11 -8 -16 -5 -5 3 -6 -2 -2 -11 4 -12 3 -15 -5
-10 -8 5 -10 2 -6 -8 8 -22 11 -20 29 14 14 28 14 43 0 20z"/>
<path d="M1416 1393 c-6 -14 -5 -15 5 -6 7 7 10 15 7 18 -3 3 -9 -2 -12 -12z"/>
<path d="M1570 1400 c0 -5 5 -10 11 -10 5 0 7 5 4 10 -3 6 -8 10 -11 10 -2 0
-4 -4 -4 -10z"/>
<path d="M1653 1378 c-2 -16 1 -18 10 -9 7 7 8 14 1 21 -6 6 -10 2 -11 -12z"/>
<path d="M1233 1346 c-1 -22 2 -32 4 -21 3 11 9 25 13 30 4 6 2 15 -4 21 -10
9 -13 3 -13 -30z"/>
<path d="M1676 1374 c-8 -21 -8 -39 1 -30 8 7 15 46 9 46 -2 0 -7 -7 -10 -16z"/>
<path d="M1720 1371 c0 -12 5 -32 12 -44 7 -12 11 -34 9 -49 -1 -16 1 -28 6
-28 10 0 8 64 -3 82 -5 7 -10 22 -11 32 -5 29 -13 33 -13 7z"/>
<path d="M1777 1369 c4 -15 8 -17 14 -8 8 14 3 29 -11 29 -4 0 -6 -9 -3 -21z"/>
<path d="M1621 1347 c-1 -43 -50 -145 -61 -127 -12 19 -60 -47 -61 -83 -2 -55
-6 -91 -13 -128 -5 -24 -4 -39 3 -43 7 -5 12 3 13 21 0 15 2 42 4 58 1 17 2
38 3 48 1 11 6 15 12 11 8 -5 10 1 6 18 -4 15 -1 32 8 44 8 10 15 15 15 11 0
-5 16 10 35 33 19 23 32 46 29 51 -3 5 2 19 10 31 9 12 16 17 16 11 0 -7 -4
-15 -10 -18 -13 -8 -13 -25 -1 -25 15 0 24 39 13 53 -6 7 -12 26 -15 42 -4 27
-4 26 -6 -8z m-66 -147 c-3 -5 -11 -10 -16 -10 -6 0 -7 5 -4 10 3 6 11 10 16
10 6 0 7 -4 4 -10z"/>
<path d="M1580 1343 c0 -21 3 -24 9 -14 5 8 7 20 4 28 -8 21 -13 15 -13 -14z"/>
<path d="M1750 1356 c0 -9 5 -16 10 -16 6 0 10 4 10 9 0 6 -4 13 -10 16 -5 3
-10 -1 -10 -9z"/>
<path d="M1925 1349 c-4 -6 -5 -12 -2 -15 2 -3 7 2 10 11 7 17 1 20 -8 4z"/>
<path d="M1481 1343 c0 -6 -4 -20 -7 -30 -5 -14 -4 -15 5 -7 7 7 11 20 8 30
-3 11 -5 14 -6 7z"/>
<path d="M1650 1341 c0 -6 4 -13 10 -16 6 -3 7 1 4 9 -7 18 -14 21 -14 7z"/>
<path d="M1825 1342 c-10 -7 -19 -52 -10 -52 2 0 11 14 20 30 15 29 11 38 -10
22z"/>
<path d="M2211 1334 c0 -11 3 -14 6 -6 3 7 2 16 -1 19 -3 4 -6 -2 -5 -13z"/>
<path d="M2318 1334 c6 -12 11 -34 10 -50 -1 -16 11 -69 26 -119 15 -49 32
-124 38 -165 9 -68 8 -84 -16 -179 -26 -103 -69 -199 -107 -240 -11 -11 -19
-35 -19 -53 0 -44 -16 -100 -32 -109 -7 -5 -22 -7 -33 -5 -11 2 -14 1 -7 -1
18 -6 15 -17 -11 -41 -22 -21 -26 -22 -60 -7 -46 19 -53 19 -37 0 7 -8 23 -15
36 -15 13 0 24 -3 24 -6 0 -12 -46 -43 -65 -44 -46 -2 -114 -27 -132 -49 -12
-14 -30 -23 -46 -23 -15 0 -27 -5 -27 -10 0 -5 12 -7 28 -4 15 2 33 5 40 5 7
1 10 6 7 11 -3 6 1 10 9 10 9 0 16 4 16 9 0 9 54 24 95 27 33 2 67 24 113 72
35 37 45 43 53 31 8 -10 9 -8 4 9 -4 15 -2 22 8 22 15 0 27 48 27 113 0 23 4
36 10 32 6 -3 10 -1 10 5 0 6 11 26 25 44 14 18 25 38 25 43 0 6 7 16 15 23 9
7 13 15 11 18 -3 2 -1 13 5 24 6 11 12 28 14 39 2 10 11 47 20 82 9 34 18 71
21 82 2 11 8 21 14 23 16 6 12 22 -6 22 -12 0 -15 8 -11 37 3 22 0 48 -9 65
-8 16 -14 34 -13 41 1 6 -3 25 -10 41 -6 16 -13 42 -15 58 -1 16 -8 34 -14 40
-7 7 -12 29 -12 49 0 22 -7 42 -17 50 -15 13 -15 12 -5 -7z"/>
<path d="M1253 1308 c-6 -14 -8 -31 -3 -38 6 -10 10 -7 15 13 10 37 1 54 -12
25z"/>
<path d="M1420 1310 c-6 -11 -8 -20 -6 -20 3 0 10 9 16 20 6 11 8 20 6 20 -3
0 -10 -9 -16 -20z"/>
<path d="M1010 1284 c-25 -20 -47 -39 -50 -42 -9 -13 -98 -82 -105 -82 -10 0
-49 -39 -44 -45 3 -3 14 3 25 13 10 10 35 27 54 39 19 12 48 35 64 52 17 17
34 31 38 31 5 0 25 16 45 35 46 45 31 44 -27 -1z"/>
<path d="M1186 1311 c-4 -7 -5 -15 -2 -18 9 -9 19 4 14 18 -4 11 -6 11 -12 0z"/>
<path d="M1910 1315 c-8 -45 -8 -47 2 -37 5 5 8 18 5 28 -3 11 -6 15 -7 9z"/>
<path d="M1962 1295 c-17 -37 -14 -45 4 -12 9 16 14 31 11 33 -2 2 -9 -7 -15
-21z"/>
<path d="M1380 1301 c0 -6 4 -13 10 -16 6 -3 7 1 4 9 -7 18 -14 21 -14 7z"/>
<path d="M1210 1279 c-7 -11 -10 -23 -7 -25 2 -2 9 7 15 21 14 30 7 33 -8 4z"/>
<path d="M1694 1279 c-3 -6 -2 -15 3 -20 5 -5 9 -1 10 11 2 22 -2 25 -13 9z"/>
<path d="M1827 1264 c-7 -37 -6 -64 4 -64 10 0 17 68 8 81 -4 7 -9 -1 -12 -17z"/>
<path d="M2164 1273 c6 -18 3 -23 -11 -23 -13 0 -15 -3 -5 -8 7 -5 16 -26 19
-47 4 -27 3 -36 -5 -31 -6 4 -16 -4 -23 -16 -11 -20 -10 -21 3 -11 11 10 17
10 27 0 9 -9 11 4 8 65 -2 43 -7 81 -12 85 -4 5 -4 -2 -1 -14z"/>
<path d="M1350 1251 c10 -21 30 -37 30 -26 0 14 -21 45 -31 45 -6 0 -6 -7 1
-19z"/>
<path d="M1409 1253 c0 -10 -2 -25 -4 -34 -1 -8 6 -26 17 -40 11 -13 17 -18
13 -10 -15 28 -17 84 -3 92 10 7 9 9 -4 9 -10 0 -18 -8 -19 -17z"/>
<path d="M1645 1256 c-33 -36 -45 -65 -45 -108 0 -42 -3 -49 -29 -62 -16 -9
-32 -12 -36 -8 -5 4 -5 1 -1 -6 5 -8 1 -19 -10 -27 -23 -17 -17 -18 24 -4 18
6 29 16 25 22 -3 5 -2 7 3 4 11 -6 23 1 41 24 9 11 10 25 3 47 -5 20 -5 30 1
27 5 -4 9 8 9 26 0 18 7 41 17 51 9 10 14 20 12 22 -2 2 -9 -1 -14 -8z"/>
<path d="M1231 1244 c0 -11 3 -14 6 -6 3 7 2 16 -1 19 -3 4 -6 -2 -5 -13z"/>
<path d="M1681 1235 c0 -12 -5 -25 -10 -30 -15 -16 -24 -75 -12 -75 6 0 11 15
11 33 0 18 5 38 11 44 6 6 9 19 6 29 -4 17 -5 17 -6 -1z"/>
<path d="M1501 1224 c0 -11 3 -14 6 -6 3 7 2 16 -1 19 -3 4 -6 -2 -5 -13z"/>
<path d="M1326 1204 c3 -30 11 -41 22 -29 4 4 1 10 -5 12 -9 3 -10 10 -3 24 8
14 7 19 -3 19 -9 0 -13 -9 -11 -26z"/>
<path d="M1461 1203 c1 -22 2 -23 6 -8 3 11 10 23 17 27 7 5 5 8 -6 8 -13 0
-18 -7 -17 -27z"/>
<path d="M1738 1223 c7 -3 16 -2 19 1 4 3 -2 6 -13 5 -11 0 -14 -3 -6 -6z"/>
<path d="M1892 1210 c0 -14 2 -19 5 -12 2 6 2 18 0 25 -3 6 -5 1 -5 -13z"/>
<path d="M1360 1179 c0 -16 4 -28 9 -25 8 5 3 56 -5 56 -2 0 -4 -14 -4 -31z"/>
<path d="M1726 1199 c3 -10 1 -20 -5 -24 -6 -3 -11 -11 -11 -18 0 -6 7 -2 15
9 11 15 14 16 15 4 0 -9 -6 -22 -12 -29 -11 -11 -10 -12 0 -6 10 5 13 1 10
-16 -2 -13 -8 -23 -14 -22 -12 2 -6 -44 7 -52 7 -5 23 69 19 90 -5 22 0 46 8
41 5 -3 9 2 9 10 0 10 -4 11 -10 5 -7 -7 -15 -5 -24 7 -11 15 -12 15 -7 1z"/>
<path d="M585 1154 c-27 -30 -39 -52 -37 -67 6 -35 51 -158 64 -174 9 -11 7
-18 -8 -33 -24 -24 -35 -17 -62 40 -32 66 -39 132 -17 154 10 9 16 19 13 21
-2 2 -16 -9 -32 -25 -15 -17 -23 -30 -18 -30 5 0 12 -18 15 -39 3 -22 12 -53
20 -70 13 -26 13 -32 1 -42 -11 -9 -19 -8 -34 6 -15 14 -20 31 -20 72 0 37 -3
52 -11 47 -7 -4 -9 -22 -6 -45 6 -44 -9 -53 -19 -13 -4 16 0 39 9 60 18 37 8
48 -11 12 -14 -26 -17 -63 -8 -93 5 -15 -3 -26 -29 -45 -20 -14 -53 -38 -73
-53 -112 -86 -228 -160 -252 -161 -25 -1 -27 -3 -19 -31 5 -16 9 -40 9 -53 0
-13 10 -36 21 -50 l21 -27 -8 25 c-4 14 -8 35 -9 48 0 12 -3 22 -7 22 -5 0 -8
11 -8 24 0 17 7 27 23 32 29 9 118 69 246 166 102 78 125 87 138 51 3 -10 12
-25 20 -35 13 -14 9 -21 -33 -60 -25 -23 -56 -49 -68 -57 -11 -8 -25 -19 -31
-25 -5 -6 -44 -38 -85 -70 -41 -33 -93 -79 -115 -103 -33 -35 -43 -41 -54 -31
-11 11 -11 9 0 -9 10 -17 10 -27 1 -47 -6 -14 -15 -26 -20 -26 -14 0 -43 58
-32 65 5 3 10 13 10 21 0 8 -4 12 -10 9 -5 -3 -7 0 -4 8 3 9 -3 17 -17 20 -19
5 -21 11 -16 42 5 31 4 33 -9 21 -18 -19 -18 -19 11 -97 32 -83 58 -113 85
-99 12 6 20 21 20 35 0 34 41 78 192 202 201 165 210 173 197 189 -14 17 2 18
21 2 8 -7 7 -4 -3 8 -9 11 -17 24 -17 27 0 14 29 6 42 -10 7 -10 21 -24 31
-32 15 -12 17 -11 15 10 -2 15 3 24 15 27 13 3 17 -3 17 -22 0 -14 -5 -26 -11
-26 -5 0 -8 -4 -5 -9 4 -5 1 -11 -4 -13 -6 -2 -1 -11 10 -20 19 -17 20 -17 26
7 3 14 3 32 0 41 -5 12 -2 15 11 10 19 -8 33 9 33 43 0 13 11 36 25 53 23 28
24 31 10 58 -9 18 -11 31 -5 35 16 10 12 28 -5 21 -11 -4 -22 9 -40 44 -14 27
-25 56 -25 65 0 18 26 20 33 3 4 -8 6 -7 6 3 1 18 -25 33 -40 23 -24 -14 -1
-101 38 -145 12 -15 11 -17 -12 -21 -22 -5 -26 -1 -35 33 -6 21 -14 63 -18 94
l-7 55 -40 -46z m61 -151 c4 -21 2 -39 -6 -48 -7 -9 -8 -15 -2 -15 5 0 13 8
17 18 7 16 8 15 15 -3 5 -15 1 -24 -14 -35 -12 -8 -23 -14 -25 -13 -8 4 -61
138 -67 171 -5 28 -2 38 22 63 l29 30 12 -68 c7 -37 16 -83 19 -100z m72 -22
c5 -32 -5 -52 -22 -45 -18 7 -26 50 -12 64 15 15 31 7 34 -19z m-28 -91 c0
-10 -9 -24 -19 -29 -15 -8 -20 -7 -24 8 -5 21 9 41 30 41 7 0 13 -9 13 -20z"/>
<path d="M1911 1190 c0 -14 28 -72 29 -59 0 4 -7 22 -15 40 -8 19 -14 27 -14
19z"/>
<path d="M1262 1170 c0 -14 2 -19 5 -12 2 6 2 18 0 25 -3 6 -5 1 -5 -13z"/>
<path d="M1075 1170 c-3 -5 1 -10 9 -10 9 0 16 5 16 10 0 6 -4 10 -9 10 -6 0
-13 -4 -16 -10z"/>
<path d="M1852 1140 c-1 -26 -7 -51 -14 -58 -6 -6 -9 -14 -6 -18 13 -12 29 38
25 79 l-4 42 -1 -45z"/>
<path d="M2457 1141 c23 -22 43 -54 51 -81 8 -25 19 -63 25 -85 11 -35 12
-104 6 -240 -1 -22 0 -101 4 -175 3 -74 3 -119 1 -100 -3 19 -10 39 -15 44 -5
6 -9 -34 -9 -105 0 -62 -3 -125 -5 -139 -3 -14 1 -8 10 13 25 66 39 205 39
412 1 201 -9 296 -41 380 -19 52 -57 101 -83 108 -16 4 -11 -4 17 -32z m100
-373 c-3 -8 -6 -5 -6 6 -1 11 2 17 5 13 3 -3 4 -12 1 -19z m0 -85 c-2 -16 -4
-5 -4 22 0 28 2 40 4 28 2 -13 2 -35 0 -50z m-20 -310 c-3 -10 -5 -4 -5 12 0
17 2 24 5 18 2 -7 2 -21 0 -30z"/>
<path d="M1881 1154 c0 -11 3 -14 6 -6 3 7 2 16 -1 19 -3 4 -6 -2 -5 -13z"/>
<path d="M1110 1133 c-1 -16 -3 -46 -6 -68 -4 -22 -3 -37 0 -34 9 8 20 129 12
129 -3 0 -6 -12 -6 -27z"/>
<path d="M1020 1125 c0 -8 8 -15 18 -14 10 0 12 3 4 6 -6 2 -10 9 -6 14 3 5 0
9 -5 9 -6 0 -11 -7 -11 -15z"/>
<path d="M1257 1093 c-4 -30 -12 -52 -19 -50 -6 1 -13 -5 -15 -13 -4 -13 -3
-13 6 0 9 13 11 13 11 -1 0 -9 7 -22 15 -29 9 -8 15 -9 15 -2 0 6 -4 13 -9 16
-6 4 -5 20 0 42 6 19 9 47 7 62 -2 19 -6 11 -11 -25z"/>
<path d="M1344 1113 c11 -23 13 -33 5 -33 -7 0 -10 -3 -7 -6 9 -9 48 15 47 29
0 9 -2 9 -6 0 -6 -17 -23 -16 -23 1 0 7 -7 20 -17 27 -15 13 -15 11 1 -18z"/>
<path d="M2330 1115 c0 -14 2 -25 4 -25 2 0 6 11 8 25 3 14 1 25 -3 25 -5 0
-9 -11 -9 -25z"/>
<path d="M1213 1104 c-7 -7 -13 -20 -13 -28 0 -26 -22 -66 -33 -59 -6 3 -7 1
-3 -6 12 -18 33 4 42 42 3 18 11 38 17 45 14 17 5 23 -10 6z"/>
<path d="M1461 1104 c0 -11 3 -14 6 -6 3 7 2 16 -1 19 -3 4 -6 -2 -5 -13z"/>
<path d="M1660 1095 c0 -8 2 -15 4 -15 2 0 6 7 10 15 3 8 1 15 -4 15 -6 0 -10
-7 -10 -15z"/>
<path d="M2026 1102 c-14 -23 -36 -104 -31 -112 4 -6 1 -9 -7 -8 -19 4 -18
-84 1 -90 10 -3 12 4 9 31 -2 20 0 33 4 31 4 -3 8 10 8 30 0 46 9 66 26 59 8
-3 11 -9 8 -14 -3 -5 0 -9 5 -9 14 0 14 27 1 35 -6 4 -8 15 -5 25 6 19 -10 37
-19 22z"/>
<path d="M1020 1070 c0 -39 14 -39 17 0 1 17 -2 30 -7 30 -6 0 -10 -13 -10
-30z"/>
<path d="M1633 1081 c-9 -14 -9 -22 -2 -27 15 -9 21 1 17 26 -3 21 -3 21 -15
1z"/>
<path d="M1931 1084 c0 -11 3 -14 6 -6 3 7 2 16 -1 19 -3 4 -6 -2 -5 -13z"/>
<path d="M2171 1084 c0 -11 3 -14 6 -6 3 7 2 16 -1 19 -3 4 -6 -2 -5 -13z"/>
<path d="M1282 1060 c0 -14 2 -19 5 -12 2 6 2 18 0 25 -3 6 -5 1 -5 -13z"/>
<path d="M1801 1064 c0 -11 3 -14 6 -6 3 7 2 16 -1 19 -3 4 -6 -2 -5 -13z"/>
<path d="M2123 1065 c-7 -8 -10 -21 -7 -29 8 -20 44 1 44 26 0 21 -20 23 -37
3z"/>
<path d="M1335 1050 c-3 -5 -2 -17 3 -26 8 -14 10 -12 14 10 5 26 -5 35 -17
16z"/>
<path d="M1855 1033 l-17 -28 23 22 c12 12 20 25 17 28 -3 3 -13 -7 -23 -22z"/>
<path d="M2216 1035 c8 -37 14 -45 14 -19 0 10 -5 26 -10 34 -8 11 -9 7 -4
-15z"/>
<path d="M1583 1017 c-13 -18 -23 -36 -23 -40 0 -4 -12 -25 -26 -47 -15 -22
-24 -43 -21 -47 4 -3 9 2 13 11 3 9 13 16 21 16 8 0 12 4 8 10 -6 10 9 41 36
75 19 24 31 55 21 55 -4 0 -17 -15 -29 -33z"/>
<path d="M1711 1024 c0 -11 3 -14 6 -6 3 7 2 16 -1 19 -3 4 -6 -2 -5 -13z"/>
<path d="M1790 1032 c0 -7 0 -15 1 -18 0 -4 -4 -10 -9 -13 -5 -3 -12 -16 -16
-28 -6 -18 -4 -22 8 -17 8 3 15 9 14 12 -1 4 2 20 7 35 4 15 5 31 1 34 -3 4
-6 1 -6 -5z"/>
<path d="M2075 1030 c-3 -5 -1 -10 4 -10 6 0 11 5 11 10 0 6 -2 10 -4 10 -3 0
-8 -4 -11 -10z"/>
<path d="M2191 1030 c0 -8 4 -22 9 -30 12 -18 12 -2 0 25 -6 13 -9 15 -9 5z"/>
<path d="M1055 1020 c-3 -5 -1 -10 4 -10 6 0 11 5 11 10 0 6 -2 10 -4 10 -3 0
-8 -4 -11 -10z"/>
<path d="M1090 1004 c0 -7 -6 -15 -12 -17 -8 -3 -8 -6 -2 -6 6 -1 18 7 27 17
15 16 15 19 2 19 -8 0 -15 -6 -15 -13z"/>
<path d="M1372 1000 c0 -14 2 -19 5 -12 2 6 2 18 0 25 -3 6 -5 1 -5 -13z"/>
<path d="M1217 996 c-5 -12 -3 -15 5 -10 8 5 9 1 4 -12 -5 -14 -4 -16 4 -7 8
7 9 17 3 28 -9 16 -10 16 -16 1z"/>
<path d="M1620 1000 c-9 -6 -10 -10 -3 -10 6 0 15 5 18 10 8 12 4 12 -15 0z"/>
<path d="M2323 993 c-13 -8 -23 -20 -23 -26 0 -5 8 -3 18 6 10 10 24 17 30 17
7 0 12 5 12 10 0 14 -11 12 -37 -7z"/>
<path d="M2490 994 c0 -8 5 -12 10 -9 6 4 8 11 5 16 -9 14 -15 11 -15 -7z"/>
<path d="M1330 972 c0 -17 5 -34 12 -38 7 -4 8 -3 4 5 -4 6 -3 18 3 25 8 10 7
17 -4 26 -13 11 -15 8 -15 -18z"/>
<path d="M1706 987 c3 -10 9 -15 12 -12 3 3 0 11 -7 18 -10 9 -11 8 -5 -6z"/>
<path d="M1870 985 c-11 -13 -10 -14 4 -9 9 3 16 10 16 15 0 13 -6 11 -20 -6z"/>
<path d="M1047 977 c-4 -11 -5 -23 -2 -27 3 -5 -3 -15 -12 -22 -10 -7 -24 -23
-30 -35 -11 -19 -10 -21 2 -17 8 4 15 10 15 15 0 4 13 22 30 39 16 16 25 30
20 30 -5 0 -10 8 -12 18 -3 16 -4 16 -11 -1z"/>
<path d="M2047 969 c4 -13 8 -18 11 -10 2 7 -1 18 -6 23 -8 8 -9 4 -5 -13z"/>
<path d="M1607 938 c-26 -24 -57 -51 -69 -61 -13 -10 -17 -15 -10 -12 17 8 15
-6 -4 -33 -8 -12 -11 -22 -5 -22 5 0 13 9 16 20 3 11 11 20 16 20 6 0 8 4 4 9
-3 5 15 26 40 47 39 32 74 74 62 74 -2 0 -25 -19 -50 -42z"/>
<path d="M2508 968 c-3 -7 0 -32 5 -56 5 -23 7 -67 5 -97 -1 -30 0 -55 3 -55
12 0 17 96 7 155 -10 64 -14 73 -20 53z"/>
<path d="M1590 960 c-8 -5 -12 -12 -9 -15 4 -3 12 1 19 10 14 17 11 19 -10 5z"/>
<path d="M2081 954 c0 -11 3 -14 6 -6 3 7 2 16 -1 19 -3 4 -6 -2 -5 -13z"/>
<path d="M1180 938 c0 -19 2 -20 10 -8 13 19 13 30 0 30 -5 0 -10 -10 -10 -22z"/>
<path d="M1237 934 c-3 -17 1 -33 9 -41 8 -8 14 -10 14 -4 0 5 -5 13 -10 16
-8 5 -7 11 1 21 8 10 9 18 2 25 -7 7 -12 2 -16 -17z"/>
<path d="M2458 948 c9 -9 15 -9 24 0 9 9 7 12 -12 12 -19 0 -21 -3 -12 -12z"/>
<path d="M1395 939 c-4 -6 -5 -12 -2 -15 2 -3 7 2 10 11 7 17 1 20 -8 4z"/>
<path d="M1305 916 c0 -12 5 -23 11 -23 13 0 12 23 -2 37 -5 5 -9 0 -9 -14z"/>
<path d="M1740 930 c-13 -9 -13 -10 0 -10 13 0 13 -1 0 -11 -10 -7 -11 -9 -2
-7 8 2 13 7 12 12 -1 5 4 13 12 17 7 5 9 9 3 9 -5 0 -17 -5 -25 -10z"/>
<path d="M1777 893 c-36 -60 -29 -65 11 -9 18 25 29 47 24 50 -4 2 -20 -16
-35 -41z"/>
<path d="M1131 915 c0 -11 4 -27 9 -35 9 -13 10 -13 9 0 0 8 -4 24 -9 35 -9
20 -9 20 -9 0z"/>
<path d="M1420 915 c-11 -13 -10 -14 4 -9 9 3 16 10 16 15 0 13 -6 11 -20 -6z"/>
<path d="M1457 923 c-10 -16 -5 -75 6 -64 5 5 7 24 5 42 -2 21 -6 29 -11 22z"/>
<path d="M1189 893 c-13 -16 -12 -17 4 -4 16 13 21 21 13 21 -2 0 -10 -8 -17
-17z"/>
<path d="M1366 875 c-9 -26 -7 -32 5 -12 6 10 9 21 6 23 -2 3 -7 -2 -11 -11z"/>
<path d="M1585 880 c-3 -6 1 -7 9 -4 18 7 21 14 7 14 -6 0 -13 -4 -16 -10z"/>
<path d="M1688 855 c-21 -18 -38 -38 -38 -43 0 -5 -11 -15 -25 -22 -27 -15
-31 -25 -13 -36 6 -4 8 -3 4 4 -3 6 3 13 14 17 11 3 20 10 20 15 0 5 21 29 46
54 53 53 47 62 -8 11z"/>
<path d="M1978 878 c-33 -11 -37 -28 -8 -28 11 0 20 5 20 10 0 6 7 10 15 10 8
0 15 5 15 10 0 12 -6 12 -42 -2z"/>
<path d="M400 844 c-25 -20 -61 -47 -80 -59 -19 -12 -45 -31 -58 -41 -47 -40
-79 -64 -120 -94 -24 -17 -41 -34 -39 -37 3 -3 12 0 19 6 7 6 58 44 114 84 56
39 121 89 145 110 24 20 53 44 64 52 11 8 16 14 10 15 -5 0 -30 -16 -55 -36z"/>
<path d="M1303 865 c-3 -9 -3 -18 -1 -21 3 -3 8 4 11 16 6 23 -1 27 -10 5z"/>
<path d="M1640 866 c0 -13 -26 -31 -41 -28 -4 1 -17 -10 -30 -25 l-24 -25 24
7 c18 5 22 4 16 -5 -5 -8 -4 -11 3 -6 6 4 9 12 7 19 -3 7 8 20 25 29 16 9 30
24 30 33 0 8 -2 15 -5 15 -3 0 -5 -6 -5 -14z"/>
<path d="M1810 849 c-12 -16 -21 -32 -18 -34 2 -2 13 12 26 31 28 42 21 45 -8
3z"/>
<path d="M1496 848 c2 -13 2 -17 -2 -10 -3 6 -10 10 -15 6 -15 -9 -10 -22 9
-20 18 3 31 46 14 46 -6 0 -8 -10 -6 -22z"/>
<path d="M453 845 c-8 -22 6 -33 17 -15 13 20 12 30 0 30 -6 0 -13 -7 -17 -15z"/>
<path d="M725 840 c3 -5 8 -10 11 -10 2 0 4 5 4 10 0 6 -5 10 -11 10 -5 0 -7
-4 -4 -10z"/>
<path d="M1080 830 c0 -5 7 -10 16 -10 8 0 12 5 9 10 -3 6 -10 10 -16 10 -5 0
-9 -4 -9 -10z"/>
<path d="M1727 833 c-4 -3 -7 -11 -7 -17 0 -6 5 -5 12 2 6 6 9 14 7 17 -3 3
-9 2 -12 -2z"/>
<path d="M1950 808 c0 -19 7 -41 15 -48 12 -10 15 -10 15 3 0 8 -6 18 -12 20
-10 4 -10 8 -1 14 8 6 8 13 -3 27 -13 18 -14 17 -14 -16z"/>
<path d="M367 777 c-36 -28 -100 -77 -141 -107 -41 -30 -73 -60 -71 -67 2 -7
0 -15 -5 -18 -4 -3 -10 0 -12 7 -3 9 -6 9 -12 0 -4 -7 -3 -12 3 -12 7 0 7 -9
0 -27 l-10 -28 25 30 c14 17 25 37 26 46 0 9 12 21 26 28 15 6 35 23 46 36 11
14 24 25 29 25 5 0 18 8 28 18 40 35 52 44 58 38 3 -3 0 -14 -8 -23 -13 -16
-12 -17 4 -4 9 7 16 21 15 30 -2 10 4 16 17 16 25 0 70 44 58 56 -5 5 -37 -13
-76 -44z"/>
<path d="M548 811 c-16 -9 -28 -20 -28 -25 0 -5 7 -3 15 4 10 9 15 9 15 1 0
-16 37 -14 43 3 10 25 -16 34 -45 17z"/>
<path d="M1005 820 c-3 -5 1 -10 10 -10 9 0 13 5 10 10 -3 6 -8 10 -10 10 -2
0 -7 -4 -10 -10z"/>
<path d="M1279 794 c-5 -15 -8 -29 -5 -31 2 -2 8 10 14 26 13 38 5 41 -9 5z"/>
<path d="M1681 774 c0 -11 3 -14 6 -6 3 7 2 16 -1 19 -3 4 -6 -2 -5 -13z"/>
<path d="M1161 773 c-1 -18 13 -23 29 -11 12 8 12 9 -2 5 -9 -3 -19 -1 -22 6
-3 9 -5 9 -5 0z"/>
<path d="M490 760 c0 -29 41 -125 61 -142 20 -17 20 -18 3 -48 -10 -16 -21
-30 -25 -30 -10 0 -46 -89 -54 -132 -9 -46 -1 -81 22 -104 10 -9 23 -32 29
-51 18 -52 55 -100 90 -117 22 -10 42 -34 65 -76 17 -33 34 -58 37 -55 3 2 -7
28 -21 56 -15 28 -27 52 -27 54 0 1 11 0 25 -3 14 -2 25 -11 25 -21 0 -27 20
-91 29 -91 10 0 -10 87 -26 116 -8 15 -20 20 -38 19 -14 -2 -27 1 -31 6 -3 5
-10 7 -15 4 -5 -3 -6 0 -3 8 3 8 1 18 -5 22 -6 3 -11 1 -11 -5 0 -19 -27 3
-59 47 -32 45 -36 53 -23 53 4 0 20 -20 36 -45 15 -25 31 -44 34 -41 5 5 -45
85 -60 96 -4 3 -19 23 -33 44 -28 41 -28 84 1 116 7 9 23 37 34 62 22 51 44
73 38 40 -2 -13 8 -31 28 -49 42 -38 48 -59 22 -77 -11 -8 -18 -20 -16 -27 2
-7 14 1 28 21 20 28 22 37 12 63 -6 16 -9 33 -7 37 2 4 -6 12 -18 19 -12 7
-34 33 -49 59 -16 26 -32 54 -37 62 -5 8 -17 35 -27 60 -20 51 -34 71 -34 50z
m43 -250 c-5 -19 -23 -39 -23 -25 0 9 20 45 24 45 2 0 2 -9 -1 -20z"/>
<path d="M1433 744 c0 -23 1 -24 9 -10 7 12 7 21 0 28 -6 6 -9 0 -9 -18z"/>
<path d="M1576 753 c-6 -14 -5 -15 5 -6 7 7 10 15 7 18 -3 3 -9 -2 -12 -12z"/>
<path d="M542 735 c6 -14 13 -24 14 -22 6 6 -9 47 -17 47 -5 0 -3 -11 3 -25z"/>
<path d="M597 735 c-28 -39 -39 -75 -22 -75 8 0 15 -6 15 -13 0 -8 8 -21 18
-30 16 -15 22 -15 69 -1 52 15 88 41 58 41 -8 0 -15 -4 -15 -8 0 -4 -10 -5
-22 -2 -15 3 -19 2 -11 -4 9 -6 -1 -13 -30 -20 -37 -10 -40 -10 -23 3 18 12
18 14 2 14 -9 0 -26 9 -38 19 l-21 20 22 37 c25 42 24 53 -2 19z"/>
<path d="M2072 740 c0 -14 2 -19 5 -12 2 6 2 18 0 25 -3 6 -5 1 -5 -13z"/>
<path d="M2126 743 c-6 -14 -5 -15 5 -6 7 7 10 15 7 18 -3 3 -9 -2 -12 -12z"/>
<path d="M1176 725 c-3 -8 -1 -15 4 -15 6 0 10 7 10 15 0 8 -2 15 -4 15 -2 0
-6 -7 -10 -15z"/>
<path d="M1243 733 c-17 -6 -17 -20 0 -20 8 0 14 6 14 14 0 7 -1 13 -1 12 -1
0 -7 -3 -13 -6z"/>
<path d="M1470 705 c1 -26 2 -28 11 -12 8 14 8 22 0 30 -8 8 -11 3 -11 -18z"/>
<path d="M1943 665 c-2 -35 1 -66 6 -69 4 -3 9 26 9 64 2 88 -12 93 -15 5z"/>
<path d="M1555 710 c-3 -5 -1 -10 4 -10 6 0 11 5 11 10 0 6 -2 10 -4 10 -3 0
-8 -4 -11 -10z"/>
<path d="M1971 704 c0 -11 3 -14 6 -6 3 7 2 16 -1 19 -3 4 -6 -2 -5 -13z"/>
<path d="M2270 710 c-8 -5 -12 -11 -10 -14 3 -2 14 2 24 10 22 15 10 19 -14 4z"/>
<path d="M1351 694 c0 -11 3 -14 6 -6 3 7 2 16 -1 19 -3 4 -6 -2 -5 -13z"/>
<path d="M1427 703 c-4 -3 -7 -16 -6 -27 0 -19 1 -19 10 3 10 24 8 36 -4 24z"/>
<path d="M1582 690 c-27 -25 -29 -45 -3 -29 21 14 45 49 33 49 -5 0 -18 -9
-30 -20z"/>
<path d="M2482 685 c0 -16 2 -22 5 -12 2 9 2 23 0 30 -3 6 -5 -1 -5 -18z"/>
<path d="M1140 696 c0 -2 7 -6 15 -10 8 -3 15 -1 15 4 0 6 -7 10 -15 10 -8 0
-15 -2 -15 -4z"/>
<path d="M2236 683 c-6 -14 -5 -15 5 -6 7 7 10 15 7 18 -3 3 -9 -2 -12 -12z"/>
<path d="M1620 675 c0 -9 7 -18 15 -21 8 -4 15 -17 15 -29 0 -13 4 -26 9 -29
10 -6 21 16 21 42 0 15 -2 15 -10 2 -9 -13 -10 -13 -10 0 0 9 -9 23 -20 33
-17 14 -20 15 -20 2z"/>
<path d="M1698 670 c17 -20 18 -24 21 -55 0 -8 6 -15 11 -15 7 0 7 6 0 20 -6
11 -8 20 -5 20 3 0 -2 11 -11 25 -9 14 -20 25 -25 25 -5 0 -1 -9 9 -20z"/>
<path d="M10 665 c-11 -13 -10 -14 4 -9 9 3 16 10 16 15 0 13 -6 11 -20 -6z"/>
<path d="M1235 660 c-3 -6 1 -7 9 -4 18 7 21 14 7 14 -6 0 -13 -4 -16 -10z"/>
<path d="M2211 639 c-34 -16 -74 -31 -88 -34 -28 -5 -39 -12 -31 -20 7 -7 62
12 128 44 67 32 64 30 59 35 -2 2 -33 -10 -68 -25z"/>
<path d="M1367 640 c-3 -11 -1 -23 4 -26 5 -3 9 6 9 20 0 31 -6 34 -13 6z"/>
<path d="M1394 615 c-7 -19 -14 -42 -14 -50 0 -9 -12 -37 -26 -61 -15 -25 -24
-48 -20 -51 3 -4 7 0 7 8 1 8 5 -4 9 -26 l8 -40 -1 40 c-1 35 19 93 28 83 2
-2 0 -23 -5 -48 -17 -97 -20 -131 -12 -126 4 2 9 22 10 43 2 20 7 57 13 81 5
24 7 48 3 53 -3 5 -1 15 4 22 5 7 10 29 10 50 1 21 4 42 7 47 4 6 3 10 0 10
-3 0 -13 -16 -21 -35z"/>
<path d="M1432 630 c-1 -14 2 -55 7 -92 4 -44 3 -72 -3 -80 -9 -9 -8 -9 4 -1
16 12 45 96 42 126 0 11 4 15 11 10 7 -4 5 2 -3 12 -14 17 -15 15 -18 -23 -4
-59 -18 -52 -30 16 -5 31 -10 46 -10 32z"/>
<path d="M1540 641 c0 -5 5 -13 10 -16 6 -3 10 -2 10 4 0 5 -4 13 -10 16 -5 3
-10 2 -10 -4z"/>
<path d="M1580 640 c0 -5 5 -10 10 -10 6 0 10 5 10 10 0 6 -4 10 -10 10 -5 0
-10 -4 -10 -10z"/>
<path d="M1500 619 c0 -5 5 -7 10 -4 6 3 10 8 10 11 0 2 -4 4 -10 4 -5 0 -10
-5 -10 -11z"/>
<path d="M1149 603 c-13 -16 -12 -17 4 -4 9 7 17 15 17 17 0 8 -8 3 -21 -13z"/>
<path d="M1568 604 c-5 -18 -2 -21 16 -17 l21 5 -21 -16 c-16 -11 -20 -22 -16
-43 5 -30 50 -79 61 -67 3 4 0 9 -6 11 -7 3 -13 10 -13 17 0 8 -9 25 -21 40
-19 24 -16 32 14 27 4 -1 6 12 5 28 -2 22 -5 27 -14 20 -8 -7 -13 -6 -16 3 -3
7 -7 4 -10 -8z"/>
<path d="M2501 600 c0 -26 25 -68 35 -58 3 3 -4 23 -15 45 -18 34 -20 35 -20
13z"/>
<path d="M1310 599 c0 -5 5 -7 10 -4 6 3 10 8 10 11 0 2 -4 4 -10 4 -5 0 -10
-5 -10 -11z"/>
<path d="M1677 590 c-3 -11 -2 -18 3 -15 4 3 10 -2 14 -10 3 -8 10 -15 16 -15
6 0 4 12 -5 30 -18 35 -21 36 -28 10z"/>
<path d="M1815 590 c-10 -11 -16 -20 -13 -20 3 0 15 9 28 20 13 11 19 20 13
20 -5 0 -18 -9 -28 -20z"/>
<path d="M697 589 c-10 -6 -24 -8 -32 -5 -7 2 -16 -2 -19 -10 -8 -20 17 -18
61 6 21 11 31 20 23 20 -8 0 -23 -5 -33 -11z"/>
<path d="M1356 575 c-3 -8 -1 -15 4 -15 6 0 10 7 10 15 0 8 -2 15 -4 15 -2 0
-6 -7 -10 -15z"/>
<path d="M2044 576 c-10 -8 -16 -18 -11 -22 4 -4 7 -2 7 4 0 6 9 9 19 7 14 -3
18 1 14 11 -6 17 -5 17 -29 0z"/>
<path d="M2130 558 c-36 -17 -59 -33 -51 -35 7 -3 16 -1 20 4 3 5 25 17 49 28
24 10 45 22 48 27 7 10 9 11 -66 -24z"/>
<path d="M1522 560 c-6 -11 -9 -27 -5 -37 6 -14 9 -10 14 17 9 42 7 45 -9 20z"/>
<path d="M1950 557 c0 -14 38 -54 43 -46 1 2 9 13 17 23 14 18 14 19 -8 7 -12
-6 -22 -8 -21 -4 4 21 -2 33 -16 33 -8 0 -15 -6 -15 -13z"/>
<path d="M1915 550 c-3 -5 -2 -10 4 -10 5 0 13 5 16 10 3 6 2 10 -4 10 -5 0
-13 -4 -16 -10z"/>
<path d="M1748 543 c-28 -4 -28 -5 -12 -35 8 -16 18 -27 21 -24 3 3 0 12 -6
20 -10 12 -8 16 8 21 12 3 21 11 21 16 0 5 -1 8 -2 8 -2 -1 -15 -4 -30 -6z"/>
<path d="M695 530 c3 -5 1 -10 -4 -10 -6 0 -11 -5 -11 -11 0 -8 5 -8 15 1 17
14 20 30 4 30 -5 0 -7 -4 -4 -10z"/>
<path d="M1657 534 c-7 -8 3 -35 12 -30 3 2 6 -6 6 -17 1 -12 4 -32 9 -45 5
-16 4 -22 -6 -20 -14 3 -16 -23 -4 -62 7 -20 6 -23 -5 -12 -17 16 -40 15 -33
-2 3 -7 -2 -16 -10 -19 -9 -4 -16 -14 -16 -23 0 -13 -3 -14 -14 -5 -11 9 -14
8 -12 -5 2 -25 -32 -43 -45 -24 -9 13 -10 12 -5 -3 4 -13 -8 -24 -56 -48 -34
-17 -78 -41 -98 -54 -34 -21 -60 -23 -60 -4 0 5 7 9 15 9 8 0 15 5 15 11 0 5
-4 7 -10 4 -15 -9 -12 22 5 55 22 42 11 37 -15 -7 -11 -20 -20 -48 -20 -62 1
-14 1 -29 0 -33 -1 -5 -3 -12 -4 -17 0 -5 -4 -13 -8 -17 -8 -8 -12 37 -9 98 2
20 -5 49 -14 65 -9 15 -13 19 -10 8 16 -46 17 -57 7 -78 -6 -12 -13 -34 -16
-49 -3 -15 -21 -43 -40 -62 -18 -20 -29 -36 -25 -36 5 0 8 -3 8 -7 -6 -40 16
-12 48 61 14 32 18 35 24 20 4 -12 -2 -34 -17 -61 -34 -58 -30 -63 11 -16 19
23 57 57 83 76 65 48 218 128 227 119 5 -4 5 -1 1 6 -4 7 -1 12 8 12 9 0 16 5
16 12 0 9 3 9 12 0 9 -9 6 -17 -12 -37 -19 -21 -21 -25 -7 -25 9 0 17 7 17 15
0 8 7 15 15 15 8 0 15 7 15 15 0 16 15 21 23 8 2 -5 3 -3 1 4 -1 6 0 14 4 17
6 6 9 23 17 81 2 17 7 47 11 68 5 28 3 37 -7 37 -11 0 -11 2 -1 8 9 7 10 15 3
35 -10 26 -21 33 -34 21z m-2 -216 c-8 -36 -21 -55 -31 -45 -6 6 25 77 34 77
2 0 1 -15 -3 -32z"/>
<path d="M2186 515 c-16 -14 -36 -26 -45 -27 -9 0 -20 -2 -26 -3 -5 -2 -17 -3
-26 -4 -23 -1 -32 -28 -12 -35 11 -4 14 -2 9 9 -3 8 -1 15 3 15 5 0 11 -5 13
-10 2 -7 23 -3 55 10 38 16 52 28 56 46 2 13 4 24 3 24 0 0 -14 -11 -30 -25z"/>
<path d="M1311 514 c0 -11 3 -14 6 -6 3 7 2 16 -1 19 -3 4 -6 -2 -5 -13z"/>
<path d="M1490 509 c0 -13 5 -31 10 -39 7 -11 8 -5 4 20 -8 43 -14 51 -14 19z"/>
<path d="M2040 519 c0 -5 5 -7 10 -4 6 3 10 8 10 11 0 2 -4 4 -10 4 -5 0 -10
-5 -10 -11z"/>
<path d="M2281 514 c0 -11 3 -14 6 -6 3 7 2 16 -1 19 -3 4 -6 -2 -5 -13z"/>
<path d="M1 497 c-1 -16 8 -40 19 -54 14 -18 20 -21 20 -10 0 9 -4 19 -10 22
-5 3 -14 20 -19 38 l-9 32 -1 -28z"/>
<path d="M1139 503 c-13 -17 -13 -17 6 -3 11 8 22 16 24 17 2 2 0 3 -6 3 -6 0
-17 -8 -24 -17z"/>
<path d="M1791 498 c-1 -9 -5 -18 -11 -20 -5 -1 -11 -23 -14 -48 l-6 -45 10
39 c6 22 15 45 21 52 6 8 9 19 6 26 -4 9 -6 7 -6 -4z"/>
<path d="M1470 479 c0 -21 -4 -30 -55 -128 -15 -30 -23 -51 -16 -47 6 4 11 1
11 -8 0 -8 -4 -16 -8 -18 -4 -1 -19 -21 -32 -43 -23 -39 -23 -39 -2 -21 12 11
22 25 22 33 0 7 3 13 8 13 4 0 13 10 21 21 10 17 10 23 1 29 -10 6 -7 16 9 39
12 17 27 31 32 31 5 0 9 9 9 20 0 11 7 20 15 20 8 0 15 8 14 18 0 10 -3 12 -6
5 -10 -26 -19 -12 -15 22 2 19 1 35 -2 35 -3 0 -6 -9 -6 -21z"/>
<path d="M1516 491 c9 -9 34 -9 34 -1 0 5 -9 8 -20 7 -10 -1 -17 -3 -14 -6z"/>
<path d="M1920 489 c0 -5 9 -9 20 -9 11 0 20 2 20 4 0 2 -9 6 -20 9 -11 3 -20
1 -20 -4z"/>
<path d="M567 464 c-5 -29 -6 -29 15 -5 13 15 14 21 3 25 -8 3 -15 -5 -18 -20z"/>
<path d="M857 470 c-3 -11 -1 -20 4 -20 5 0 9 9 9 20 0 11 -2 20 -4 20 -2 0
-6 -9 -9 -20z"/>
<path d="M1718 484 c-4 -3 0 -13 8 -21 19 -20 28 -12 11 11 -7 9 -16 14 -19
10z"/>
<path d="M1570 471 c0 -6 5 -13 10 -16 6 -3 10 1 10 9 0 9 -4 16 -10 16 -5 0
-10 -4 -10 -9z"/>
<path d="M2276 446 c-4 -19 -4 -52 0 -74 5 -30 1 -48 -12 -71 -13 -22 -15 -34
-8 -39 6 -4 15 -38 19 -77 4 -38 10 -64 12 -57 8 22 -8 142 -18 142 -6 0 -5 8
1 20 18 33 28 14 36 -63 5 -50 9 -64 14 -47 7 29 -7 119 -22 138 -6 6 -8 12
-5 12 3 0 1 16 -3 35 -5 23 -4 36 4 39 8 3 8 5 -1 5 -8 1 -10 13 -6 36 7 45
-3 46 -11 1z"/>
<path d="M2493 445 c0 -22 2 -30 4 -17 2 12 2 30 0 40 -3 9 -5 -1 -4 -23z"/>
<path d="M1531 454 c0 -11 3 -14 6 -6 3 7 2 16 -1 19 -3 4 -6 -2 -5 -13z"/>
<path d="M1289 422 c-3 -20 -2 -29 4 -23 5 5 7 19 5 32 -3 20 -5 19 -9 -9z"/>
<path d="M591 424 c0 -11 3 -14 6 -6 3 7 2 16 -1 19 -3 4 -6 -2 -5 -13z"/>
<path d="M1332 415 c0 -16 2 -22 5 -12 2 9 2 23 0 30 -3 6 -5 -1 -5 -18z"/>
<path d="M2452 410 c0 -19 2 -27 5 -17 2 9 2 25 0 35 -3 9 -5 1 -5 -18z"/>
<path d="M847 423 c-3 -5 -8 -24 -12 -43 -3 -19 -13 -56 -21 -82 -9 -26 -14
-58 -12 -70 2 -14 13 14 25 65 12 49 27 95 34 103 9 11 9 14 0 14 -7 0 -9 5
-6 10 3 6 4 10 1 10 -3 0 -7 -3 -9 -7z"/>
<path d="M1563 414 c-3 -8 -1 -20 4 -25 7 -7 12 -2 15 15 6 28 -9 36 -19 10z"/>
<path d="M2120 420 c-9 -6 -10 -10 -3 -10 6 0 15 5 18 10 8 12 4 12 -15 0z"/>
<path d="M1921 409 c0 -16 92 -89 111 -89 7 0 1 8 -12 17 -35 24 -59 45 -81
67 -14 15 -19 16 -18 5z"/>
<path d="M2013 399 c7 -11 17 -19 24 -19 21 0 15 14 -11 26 -23 11 -24 10 -13
-7z"/>
<path d="M1719 357 c-2 -33 0 -59 6 -61 6 -1 1 -13 -10 -26 l-20 -23 21 7 c18
6 22 3 22 -16 -1 -13 3 -52 7 -88 4 -36 8 -84 9 -108 0 -23 3 -42 7 -42 24 0
12 180 -24 350 l-14 65 -4 -58z"/>
<path d="M569 383 c-13 -16 -12 -17 4 -4 16 13 21 21 13 21 -2 0 -10 -8 -17
-17z"/>
<path d="M1410 385 c-7 -9 -8 -15 -2 -15 5 0 12 7 16 15 3 8 4 15 2 15 -2 0
-9 -7 -16 -15z"/>
<path d="M1610 379 c0 -18 2 -19 15 -9 15 12 12 30 -6 30 -5 0 -9 -10 -9 -21z"/>
<path d="M1341 364 c0 -11 3 -14 6 -6 3 7 2 16 -1 19 -3 4 -6 -2 -5 -13z"/>
<path d="M585 360 c-3 -5 -1 -10 4 -10 6 0 11 5 11 10 0 6 -2 10 -4 10 -3 0
-8 -4 -11 -10z"/>
<path d="M635 359 c-4 -6 -4 -13 -1 -16 3 -4 6 -1 6 6 0 7 5 9 10 6 6 -3 10
-1 10 4 0 14 -17 14 -25 0z"/>
<path d="M1561 354 c0 -11 3 -14 6 -6 3 7 2 16 -1 19 -3 4 -6 -2 -5 -13z"/>
<path d="M1750 360 c0 -6 7 -24 15 -40 9 -16 18 -44 20 -62 3 -18 8 -49 11
-68 3 -19 5 -52 5 -72 -1 -20 3 -39 9 -43 5 -3 10 -14 10 -24 0 -9 7 -26 16
-37 15 -18 15 -18 9 6 -14 55 -17 130 -5 130 6 0 8 5 3 12 -10 18 -10 52 2 60
5 4 -3 17 -18 29 -16 12 -26 27 -23 35 3 7 0 16 -5 20 -6 3 -9 17 -6 30 2 13
1 21 -4 19 -4 -3 -10 -1 -14 5 -8 13 -25 13 -25 0z m60 -120 c0 -5 -2 -10 -4
-10 -3 0 -8 5 -11 10 -3 6 -1 10 4 10 6 0 11 -4 11 -10z m10 -56 c0 -8 -4 -12
-10 -9 -5 3 -10 10 -10 16 0 5 5 9 10 9 6 0 10 -7 10 -16z"/>
<path d="M1251 348 c-1 -10 -5 -18 -11 -18 -5 0 -10 -5 -10 -12 0 -8 6 -7 16
4 9 9 14 22 11 30 -4 9 -6 7 -6 -4z"/>
<path d="M1332 315 c0 -16 2 -22 5 -12 2 9 2 23 0 30 -3 6 -5 -1 -5 -18z"/>
<path d="M2437 320 c-3 -11 -1 -20 4 -20 5 0 9 9 9 20 0 11 -2 20 -4 20 -2 0
-6 -9 -9 -20z"/>
<path d="M1172 313 c-5 -10 -13 -40 -16 -68 -4 -27 -9 -59 -12 -70 -4 -15 -1
-14 10 5 8 14 12 28 10 31 -2 4 3 30 12 59 16 53 13 77 -4 43z"/>
<path d="M1271 321 c-8 -5 -9 -11 -3 -15 5 -3 12 1 16 9 6 17 6 18 -13 6z"/>
<path d="M1301 314 c0 -11 3 -14 6 -6 3 7 2 16 -1 19 -3 4 -6 -2 -5 -13z"/>
<path d="M1920 316 c0 -2 8 -10 18 -17 15 -13 16 -12 3 4 -13 16 -21 21 -21
13z"/>
<path d="M2480 260 c-1 -36 -2 -81 -1 -100 0 -28 -1 -31 -8 -15 -6 13 -7 -7
-4 -55 3 -41 9 -79 13 -84 19 -21 30 249 11 294 -8 21 -10 14 -11 -40z"/>
<path d="M946 284 c-4 -9 -4 -19 -1 -22 2 -3 7 3 11 12 4 9 4 19 1 22 -2 3 -7
-3 -11 -12z"/>
<path d="M1141 264 c0 -11 3 -14 6 -6 3 7 2 16 -1 19 -3 4 -6 -2 -5 -13z"/>
<path d="M1206 234 c-23 -29 -24 -34 -8 -25 11 6 23 18 27 28 7 16 9 15 15 -7
7 -20 8 -21 9 -5 2 42 -14 45 -43 9z"/>
<path d="M983 234 c-10 -15 -25 -64 -34 -108 -10 -45 -19 -91 -22 -104 -3 -12
-2 -22 3 -22 7 0 24 61 45 170 4 19 14 46 22 58 8 13 12 26 10 29 -3 2 -14 -8
-24 -23z"/>
<path d="M927 231 c-4 -17 -3 -21 5 -13 5 5 8 16 6 23 -3 8 -7 3 -11 -10z"/>
<path d="M1645 229 c-4 -6 -5 -12 -2 -15 2 -3 7 2 10 11 7 17 1 20 -8 4z"/>
<path d="M1689 228 c-1 -7 -1 -17 0 -21 1 -4 -3 -16 -8 -26 -7 -13 -6 -18 4
-18 8 0 12 4 9 9 -3 4 0 8 6 8 7 0 8 6 1 18 -7 13 -6 23 1 30 9 9 9 12 0 12
-7 0 -13 -6 -13 -12z"/>
<path d="M680 210 c-9 -6 -10 -10 -3 -10 6 0 15 5 18 10 8 12 4 12 -15 0z"/>
<path d="M1556 213 c-4 -4 -11 -8 -14 -9 -4 0 -37 -14 -73 -31 -95 -46 -236
-162 -208 -171 5 -2 19 8 31 23 11 14 26 24 33 21 15 -5 38 17 28 27 -3 4 0 7
8 7 8 0 26 10 39 23 38 33 72 33 38 -1 -9 -9 -8 -12 6 -12 9 0 14 4 11 10 -8
14 40 60 63 60 22 0 56 34 50 50 -2 6 -7 8 -12 3z m-206 -147 c0 -3 -4 -8 -10
-11 -5 -3 -10 -1 -10 4 0 6 5 11 10 11 6 0 10 -2 10 -4z"/>
<path d="M921 184 c0 -11 3 -14 6 -6 3 7 2 16 -1 19 -3 4 -6 -2 -5 -13z"/>
<path d="M1591 165 c1 -40 1 -40 11 -12 7 21 7 32 -1 40 -8 8 -11 0 -10 -28z"/>
<path d="M1204 174 c4 -10 -1 -25 -10 -35 -10 -11 -12 -19 -7 -19 12 0 26 25
28 53 1 9 -2 17 -7 17 -6 0 -7 -7 -4 -16z"/>
<path d="M1177 161 c-4 -17 -3 -21 5 -13 5 5 8 16 6 23 -3 8 -7 3 -11 -10z"/>
<path d="M1096 155 c4 -8 8 -15 10 -15 2 0 4 7 4 15 0 8 -4 15 -10 15 -5 0 -7
-7 -4 -15z"/>
<path d="M1550 141 c0 -12 -5 -21 -11 -21 -5 0 -7 -5 -4 -10 5 -8 11 -7 21 1
16 13 18 35 4 44 -5 3 -10 -3 -10 -14z"/>
<path d="M1128 123 c-2 -16 -8 -27 -15 -26 -6 1 -17 -4 -23 -12 -8 -9 -8 -15
-2 -15 6 0 13 6 16 13 3 6 3 -9 0 -36 -7 -53 11 -67 19 -14 3 17 10 49 15 70
5 20 6 39 2 42 -5 3 -10 -7 -12 -22z"/>
<path d="M2297 113 c-3 -21 -8 -47 -12 -58 -6 -15 -5 -17 4 -9 6 6 14 24 17
40 3 16 7 37 10 47 3 9 1 17 -4 17 -5 0 -12 -17 -15 -37z"/>
<path d="M896 91 c-4 -7 -5 -15 -2 -18 9 -9 19 4 14 18 -4 11 -6 11 -12 0z"/>
<path d="M2451 70 c-1 -14 -4 -36 -6 -50 l-6 -25 11 25 c6 13 9 36 7 50 l-4
25 -2 -25z"/>
<path d="M1405 70 c-3 -5 -1 -10 4 -10 6 0 11 5 11 10 0 6 -2 10 -4 10 -3 0
-8 -4 -11 -10z"/>
<path d="M980 50 c-13 -8 -12 -10 3 -10 9 0 17 5 17 10 0 12 -1 12 -20 0z"/>
<path d="M1790 25 c0 -14 4 -25 9 -25 4 0 6 11 3 25 -2 14 -6 25 -8 25 -2 0
-4 -11 -4 -25z"/>
<path d="M1371 31 c-8 -5 -9 -11 -3 -15 5 -3 12 1 16 9 6 17 6 18 -13 6z"/>
<path d="M2275 20 c3 -5 8 -10 11 -10 2 0 4 5 4 10 0 6 -5 10 -11 10 -5 0 -7
-4 -4 -10z"/>
<path d="M1176 12 c-3 -5 1 -9 9 -9 8 0 12 4 9 9 -3 4 -7 8 -9 8 -2 0 -6 -4
-9 -8z"/>
</g>
</svg>
