<?xml version="1.0" standalone="no"?>
<!DOCTYPE svg PUBLIC "-//W3C//DTD SVG 20010904//EN"
 "http://www.w3.org/TR/2001/REC-SVG-20010904/DTD/svg10.dtd">
<svg version="1.0" xmlns="http://www.w3.org/2000/svg"
 width="300.000000pt" height="300.000000pt" viewBox="0 0 300.000000 300.000000"
 preserveAspectRatio="xMidYMid meet">
<metadata>
Created by potrace 1.10, written by Peter Selinger 2001-2011
</metadata>
<g transform="translate(0.000000,300.000000) scale(0.100000,-0.100000)"
fill="#000000" stroke="none">
<path d="M1409 2886 c-3 -3 -29 -8 -58 -10 -29 -3 -58 -9 -64 -14 -7 -5 -40
-13 -75 -17 -46 -5 -66 -12 -77 -28 -8 -11 -12 -24 -10 -28 3 -4 -3 -5 -14 -2
-11 3 -21 -2 -24 -11 -4 -9 -12 -14 -19 -12 -7 1 -10 1 -5 -1 12 -8 -3 -23
-38 -37 -18 -8 -36 -24 -40 -35 -3 -12 -14 -21 -22 -21 -9 0 -13 -3 -10 -7 8
-7 -58 -33 -85 -33 -25 0 -83 -54 -103 -96 -9 -20 -25 -38 -34 -41 -11 -3 -17
-14 -16 -31 0 -19 -8 -32 -28 -45 -15 -9 -36 -34 -46 -55 -10 -20 -48 -68 -84
-105 -69 -72 -103 -128 -112 -187 -6 -38 -2 -32 27 48 20 55 43 72 32 25 -4
-22 -3 -25 5 -13 6 8 11 22 11 31 0 19 59 103 67 95 3 -3 0 -12 -7 -21 -7 -9
-10 -18 -7 -21 8 -8 29 34 23 45 -7 11 28 43 37 34 4 -3 7 -1 7 6 0 7 4 10 9
7 11 -7 22 20 15 38 -3 8 10 31 30 52 20 21 36 42 36 46 0 17 65 98 76 94 7
-3 14 5 17 16 5 16 3 18 -6 9 -17 -17 -31 -13 -16 5 21 26 83 53 100 44 16 -9
41 1 40 16 0 5 5 9 13 9 8 0 27 11 43 25 15 14 41 33 56 43 15 10 25 22 22 26
-2 5 9 14 26 21 17 7 34 23 39 34 4 12 18 22 31 23 12 1 35 7 51 14 22 9 31 9
43 -1 9 -7 15 -8 15 -2 0 9 47 27 63 24 4 -1 7 1 7 6 0 4 36 7 80 7 44 0 80
-3 80 -8 0 -5 14 -6 30 -2 20 4 37 2 48 -7 15 -12 16 -11 3 5 -15 19 -12 20
64 20 57 0 67 -2 60 -13 -3 -5 -12 -7 -20 -3 -8 3 -15 0 -15 -6 0 -7 16 -12
38 -11 130 1 139 0 157 -20 18 -20 36 -27 34 -12 -3 18 2 32 12 32 6 0 9 -9 6
-20 -3 -11 0 -20 6 -20 6 0 19 -7 29 -17 11 -10 18 -12 18 -4 0 6 -7 14 -15
17 -23 9 -18 19 9 19 13 0 22 -5 19 -11 -2 -6 3 -17 12 -24 8 -7 15 -18 15
-24 0 -6 16 -20 35 -30 19 -11 35 -23 35 -28 0 -17 3 -23 19 -35 20 -15 34
-17 26 -3 -8 13 7 13 42 -1 20 -7 24 -12 14 -18 -9 -6 -6 -10 11 -14 29 -8
150 -115 143 -128 -3 -4 7 -11 22 -15 36 -9 50 -20 85 -68 15 -21 28 -35 28
-31 0 17 62 -51 82 -89 15 -29 19 -52 15 -83 -2 -24 -1 -43 4 -43 12 0 22 66
15 104 -7 37 -75 121 -107 131 -10 4 -17 11 -14 16 8 12 -7 26 -70 70 -30 21
-51 45 -53 58 -3 18 -6 20 -18 10 -11 -9 -14 -8 -14 2 0 16 -81 84 -132 112
-18 9 -45 17 -60 17 -31 0 -36 11 -13 30 22 18 18 32 -6 20 -23 -13 -54 -6
-44 10 3 5 -1 10 -9 10 -9 0 -16 9 -16 20 0 11 -4 20 -10 20 -5 0 -7 7 -4 15
4 8 1 15 -5 15 -19 0 -25 2 -43 11 -11 6 -19 5 -23 -2 -5 -6 -12 -4 -21 8 -14
17 -14 17 -25 0 -10 -18 -12 -18 -31 3 -15 16 -27 20 -47 15 -17 -4 -45 2 -75
15 -50 21 -150 28 -161 10 -6 -10 -96 -7 -150 5 -17 4 -33 4 -36 1z"/>
<path d="M1545 2830 c3 -5 11 -10 16 -10 6 0 7 5 4 10 -3 6 -11 10 -16 10 -6
0 -7 -4 -4 -10z"/>
<path d="M1633 2823 c9 -2 23 -2 30 0 6 3 -1 5 -18 5 -16 0 -22 -2 -12 -5z"/>
<path d="M1525 2798 c17 -6 36 -15 43 -21 8 -6 12 -6 12 1 0 10 -53 33 -74 31
-6 0 3 -5 19 -11z"/>
<path d="M1735 2780 c3 -5 11 -10 16 -10 6 0 7 5 4 10 -3 6 -11 10 -16 10 -6
0 -7 -4 -4 -10z"/>
<path d="M1460 2776 c0 -2 7 -6 15 -10 8 -3 15 -1 15 4 0 6 -7 10 -15 10 -8 0
-15 -2 -15 -4z"/>
<path d="M1510 2770 c-9 -6 -10 -10 -3 -10 6 0 15 5 18 10 8 12 4 12 -15 0z"/>
<path d="M1540 2736 c0 -2 7 -7 16 -10 8 -3 12 -2 9 4 -6 10 -25 14 -25 6z"/>
<path d="M1803 2728 c15 -5 27 -14 27 -19 0 -4 7 -5 17 -2 10 4 14 2 10 -4 -3
-5 -1 -10 6 -10 7 0 23 -3 37 -7 24 -7 25 -7 5 9 -11 9 -32 19 -48 22 -15 3
-30 10 -33 14 -3 5 -15 9 -27 8 -19 0 -19 -2 6 -11z"/>
<path d="M1215 2720 c-4 -7 3 -8 22 -4 38 9 42 14 10 14 -14 0 -29 -5 -32 -10z"/>
<path d="M1100 2710 c-18 -12 -2 -12 25 0 13 6 15 9 5 9 -8 0 -22 -4 -30 -9z"/>
<path d="M1696 2686 c3 -7 22 -13 42 -14 34 0 35 0 12 10 -41 16 -59 18 -54 4z"/>
<path d="M1325 2680 c-3 -6 1 -7 9 -4 18 7 21 14 7 14 -6 0 -13 -4 -16 -10z"/>
<path d="M1208 2673 c7 -3 16 -2 19 1 4 3 -2 6 -13 5 -11 0 -14 -3 -6 -6z"/>
<path d="M2000 2670 c8 -5 20 -10 25 -10 6 0 3 5 -5 10 -8 5 -19 10 -25 10 -5
0 -3 -5 5 -10z"/>
<path d="M1410 2655 l-25 -14 28 1 c15 2 27 6 27 9 0 4 8 10 18 12 14 4 14 5
-3 5 -11 1 -31 -5 -45 -13z"/>
<path d="M1928 2663 c7 -3 16 -2 19 1 4 3 -2 6 -13 5 -11 0 -14 -3 -6 -6z"/>
<path d="M1030 2635 c-19 -14 -40 -25 -47 -25 -7 0 -13 -4 -13 -10 0 -15 10
-12 46 15 18 14 37 25 43 25 6 0 11 5 11 10 0 14 -2 13 -40 -15z"/>
<path d="M1592 2650 c10 -6 42 -13 70 -15 l53 -4 -47 8 c-25 5 -57 12 -70 16
-19 5 -20 4 -6 -5z"/>
<path d="M1756 2651 c5 -4 25 -11 44 -14 35 -6 35 -6 10 8 -27 16 -70 21 -54
6z"/>
<path d="M1315 2639 c-4 -6 -5 -12 -2 -15 2 -3 7 2 10 11 7 17 1 20 -8 4z"/>
<path d="M1471 2646 c2 -2 18 -6 34 -10 22 -5 26 -4 15 4 -14 9 -59 15 -49 6z"/>
<path d="M1105 2620 c-16 -7 -17 -9 -3 -9 9 -1 20 4 23 9 7 11 7 11 -20 0z"/>
<path d="M1040 2594 c-25 -15 -25 -15 -1 -8 16 4 21 3 17 -5 -4 -6 -2 -9 7 -5
7 2 14 11 14 19 0 18 -5 18 -37 -1z"/>
<path d="M1159 2596 c-44 -16 -112 -56 -105 -63 3 -3 17 3 33 14 38 25 80 43
103 43 11 0 20 5 20 10 0 13 -7 12 -51 -4z"/>
<path d="M1590 2601 c0 -17 68 -34 87 -21 15 9 13 10 -10 5 -21 -4 -27 -3 -21
6 4 8 3 9 -4 5 -7 -4 -12 -1 -12 6 0 9 -3 9 -10 -2 -6 -10 -10 -11 -10 -2 0 6
-4 12 -10 12 -5 0 -10 -4 -10 -9z"/>
<path d="M1718 2603 c7 -3 16 -2 19 1 4 3 -2 6 -13 5 -11 0 -14 -3 -6 -6z"/>
<path d="M2351 2584 c0 -11 3 -14 6 -6 3 7 2 16 -1 19 -3 4 -6 -2 -5 -13z"/>
<path d="M876 2582 c-3 -5 1 -9 9 -9 8 0 12 4 9 9 -3 4 -7 8 -9 8 -2 0 -6 -4
-9 -8z"/>
<path d="M1418 2583 c6 -2 18 -2 25 0 6 3 1 5 -13 5 -14 0 -19 -2 -12 -5z"/>
<path d="M1260 2570 c0 -12 17 -12 45 0 17 7 15 9 -12 9 -18 1 -33 -3 -33 -9z"/>
<path d="M1343 2563 c9 -2 23 -2 30 0 6 3 -1 5 -18 5 -16 0 -22 -2 -12 -5z"/>
<path d="M1720 2560 c8 -5 22 -9 30 -9 10 0 8 3 -5 9 -27 12 -43 12 -25 0z"/>
<path d="M840 2551 c0 -6 5 -13 12 -17 6 -4 8 -3 4 4 -3 5 0 13 6 15 8 3 6 6
-4 6 -10 1 -18 -3 -18 -8z"/>
<path d="M2124 2541 c3 -5 16 -11 28 -14 22 -6 22 -5 4 8 -22 17 -40 20 -32 6z"/>
<path d="M1228 2533 c6 -2 18 -2 25 0 6 3 1 5 -13 5 -14 0 -19 -2 -12 -5z"/>
<path d="M1298 2533 c7 -3 16 -2 19 1 4 3 -2 6 -13 5 -11 0 -14 -3 -6 -6z"/>
<path d="M1437 2532 c-3 -4 8 -7 24 -7 16 -1 29 3 29 7 0 10 -47 11 -53 0z"/>
<path d="M1511 2526 c15 -14 80 -33 66 -20 -4 4 -24 13 -44 20 -30 10 -33 10
-22 0z"/>
<path d="M1950 2530 c20 -13 33 -13 25 0 -3 6 -14 10 -23 10 -15 0 -15 -2 -2
-10z"/>
<path d="M2040 2536 c0 -2 7 -7 16 -10 8 -3 12 -2 9 4 -6 10 -25 14 -25 6z"/>
<path d="M1405 2520 c-3 -5 -1 -10 4 -10 6 0 11 5 11 10 0 6 -2 10 -4 10 -3 0
-8 -4 -11 -10z"/>
<path d="M1690 2520 c0 -5 5 -10 10 -10 6 0 10 5 10 10 0 6 -4 10 -10 10 -5 0
-10 -4 -10 -10z"/>
<path d="M903 2485 l-28 -25 32 16 c34 16 52 34 34 34 -5 0 -23 -11 -38 -25z"/>
<path d="M1948 2503 c7 -3 16 -2 19 1 4 3 -2 6 -13 5 -11 0 -14 -3 -6 -6z"/>
<path d="M1458 2493 c7 -3 16 -2 19 1 4 3 -2 6 -13 5 -11 0 -14 -3 -6 -6z"/>
<path d="M1080 2480 c-13 -8 -12 -10 3 -10 9 0 17 5 17 10 0 12 -1 12 -20 0z"/>
<path d="M1785 2479 c-4 -6 -4 -13 -1 -16 3 -4 6 -1 6 5 0 6 8 13 18 15 15 4
15 5 0 6 -9 0 -20 -4 -23 -10z"/>
<path d="M835 2469 c-4 -6 -5 -12 -2 -15 2 -3 7 2 10 11 7 17 1 20 -8 4z"/>
<path d="M1160 2470 c-12 -8 -11 -10 8 -10 12 0 22 5 22 10 0 13 -11 13 -30 0z"/>
<path d="M1538 2473 c7 -3 16 -2 19 1 4 3 -2 6 -13 5 -11 0 -14 -3 -6 -6z"/>
<path d="M1684 2465 c-10 -8 -14 -15 -7 -15 19 0 43 11 43 21 0 13 -14 11 -36
-6z"/>
<path d="M1965 2460 c4 -6 11 -8 16 -5 14 9 11 15 -7 15 -8 0 -12 -5 -9 -10z"/>
<path d="M930 2451 c0 -6 4 -13 10 -16 6 -3 7 1 4 9 -7 18 -14 21 -14 7z"/>
<path d="M985 2450 c-3 -5 -2 -10 4 -10 5 0 13 5 16 10 3 6 2 10 -4 10 -5 0
-13 -4 -16 -10z"/>
<path d="M2028 2453 c7 -3 16 -2 19 1 4 3 -2 6 -13 5 -11 0 -14 -3 -6 -6z"/>
<path d="M2165 2450 c3 -5 11 -10 16 -10 6 0 7 5 4 10 -3 6 -11 10 -16 10 -6
0 -7 -4 -4 -10z"/>
<path d="M786 2433 c-6 -14 -5 -15 5 -6 7 7 10 15 7 18 -3 3 -9 -2 -12 -12z"/>
<path d="M1106 2435 c-11 -8 -15 -15 -10 -15 6 0 19 7 30 15 10 8 15 14 9 14
-5 0 -19 -6 -29 -14z"/>
<path d="M1200 2440 c-8 -5 -10 -10 -5 -10 6 0 17 5 25 10 8 5 11 10 5 10 -5
0 -17 -5 -25 -10z"/>
<path d="M1568 2443 c7 -3 16 -2 19 1 4 3 -2 6 -13 5 -11 0 -14 -3 -6 -6z"/>
<path d="M1510 2430 c0 -5 15 -10 33 -9 27 0 29 2 12 9 -28 12 -45 12 -45 0z"/>
<path d="M887 2405 c-10 -14 -14 -25 -10 -25 4 0 16 12 26 25 10 14 14 25 10
25 -4 0 -16 -12 -26 -25z"/>
<path d="M1698 2423 c7 -3 16 -2 19 1 4 3 -2 6 -13 5 -11 0 -14 -3 -6 -6z"/>
<path d="M1134 2404 c-18 -14 -18 -15 4 -4 12 6 22 13 22 15 0 8 -5 6 -26 -11z"/>
<path d="M1180 2399 c-19 -11 -27 -18 -17 -15 11 4 30 9 43 12 13 3 24 10 24
15 0 13 -11 11 -50 -12z"/>
<path d="M1451 2406 c-10 -11 -9 -14 3 -12 9 1 18 5 22 8 3 4 13 4 22 1 15 -4
15 -3 2 6 -20 15 -35 14 -49 -3z"/>
<path d="M1618 2403 c6 -2 18 -2 25 0 6 3 1 5 -13 5 -14 0 -19 -2 -12 -5z"/>
<path d="M835 2359 c-4 -6 -5 -12 -2 -15 2 -3 7 2 10 11 7 17 1 20 -8 4z"/>
<path d="M866 2353 c-6 -14 -5 -15 5 -6 7 7 10 15 7 18 -3 3 -9 -2 -12 -12z"/>
<path d="M1536 2361 c-10 -15 32 -20 51 -5 16 12 15 13 -14 14 -17 0 -34 -4
-37 -9z"/>
<path d="M1640 2360 c0 -5 7 -7 15 -4 8 4 15 8 15 10 0 2 -7 4 -15 4 -8 0 -15
-4 -15 -10z"/>
<path d="M1988 2363 c7 -3 16 -2 19 1 4 3 -2 6 -13 5 -11 0 -14 -3 -6 -6z"/>
<path d="M1708 2342 c9 -10 22 -17 28 -15 6 2 16 -2 23 -10 10 -12 4 -13 -44
-2 -32 8 -57 9 -61 4 -8 -13 -21 -11 -38 7 -14 13 -16 13 -16 0 0 -8 -7 -21
-14 -29 -13 -13 -13 -17 0 -33 8 -11 13 -14 12 -9 -3 16 13 55 23 55 5 0 9 -3
9 -8 0 -8 5 -8 156 -20 70 -5 91 -4 91 6 0 6 -4 12 -9 12 -5 0 -6 5 -3 10 3 6
-4 10 -16 10 -19 0 -20 -2 -8 -17 12 -15 12 -16 -6 -9 -11 5 -26 9 -32 9 -7 0
-13 4 -13 9 0 4 -7 8 -15 8 -8 0 -15 5 -15 10 0 6 -9 10 -19 10 -11 0 -23 5
-26 10 -3 6 -10 10 -16 10 -5 0 -1 -8 9 -18z m35 -49 c-7 -2 -19 -2 -25 0 -7
3 -2 5 12 5 14 0 19 -2 13 -5z"/>
<path d="M725 2340 c-3 -5 -1 -10 4 -10 6 0 11 5 11 10 0 6 -2 10 -4 10 -3 0
-8 -4 -11 -10z"/>
<path d="M1045 2345 c-5 -2 -27 -6 -47 -10 -21 -3 -38 -10 -38 -16 0 -12 49
-6 79 10 16 9 30 24 19 20 -2 0 -7 -2 -13 -4z"/>
<path d="M1527 2306 c-15 -22 -15 -24 1 -21 9 1 16 8 14 15 -2 7 3 17 10 21 8
6 9 9 2 9 -7 0 -19 -11 -27 -24z"/>
<path d="M2494 2318 c-4 -6 -3 -8 4 -4 14 9 23 -37 18 -101 -2 -29 1 -50 5
-47 5 3 9 -2 9 -10 0 -9 5 -16 10 -16 6 0 8 -11 4 -25 -4 -17 -1 -27 9 -31 9
-3 13 -13 10 -25 -3 -10 0 -19 6 -19 6 0 11 -17 11 -38 0 -21 3 -42 7 -46 14
-13 11 -36 -5 -36 -13 0 -13 -2 3 -13 10 -8 15 -19 11 -25 -4 -7 -1 -12 7 -12
10 0 12 11 7 52 -4 29 -5 60 -2 70 5 21 -27 108 -40 108 -5 0 -7 8 -3 18 3 11
-3 29 -15 45 -24 30 -26 41 -5 33 13 -4 14 -2 5 14 -6 11 -10 26 -8 33 3 18
-22 87 -32 87 -5 0 -12 -5 -16 -12z"/>
<path d="M1158 2313 c7 -3 16 -2 19 1 4 3 -2 6 -13 5 -11 0 -14 -3 -6 -6z"/>
<path d="M1901 2312 c-20 -7 -13 -35 8 -29 10 2 25 1 34 -4 12 -7 15 -4 13 16
-1 24 -19 29 -55 17z"/>
<path d="M2100 2316 c0 -9 30 -14 35 -6 4 6 -3 10 -14 10 -12 0 -21 -2 -21 -4z"/>
<path d="M2015 2295 c60 -17 68 -18 60 -5 -4 6 -10 8 -15 5 -5 -3 -11 -2 -14
3 -2 4 -22 8 -43 9 -37 2 -37 1 12 -12z"/>
<path d="M2158 2303 c7 -3 16 -2 19 1 4 3 -2 6 -13 5 -11 0 -14 -3 -6 -6z"/>
<path d="M1275 2290 c-8 -13 5 -13 25 0 13 8 13 10 -2 10 -9 0 -20 -4 -23 -10z"/>
<path d="M851 2269 c-13 -10 -19 -19 -15 -19 13 1 48 29 43 34 -2 2 -15 -4
-28 -15z"/>
<path d="M1030 2275 c-19 -23 -8 -25 14 -4 11 11 15 19 9 19 -6 0 -16 -7 -23
-15z"/>
<path d="M1210 2280 c-20 -6 -21 -8 -5 -8 11 0 29 3 40 8 25 11 -1 11 -35 0z"/>
<path d="M1475 2279 c-4 -6 -5 -12 -2 -15 2 -3 7 2 10 11 7 17 1 20 -8 4z"/>
<path d="M2490 2279 c0 -5 5 -7 10 -4 6 3 10 8 10 11 0 2 -4 4 -10 4 -5 0 -10
-5 -10 -11z"/>
<path d="M1550 2271 c0 -6 4 -13 10 -16 6 -3 7 1 4 9 -7 18 -14 21 -14 7z"/>
<path d="M1971 2264 c0 -11 3 -14 6 -6 3 7 2 16 -1 19 -3 4 -6 -2 -5 -13z"/>
<path d="M2300 2276 c0 -2 8 -10 18 -17 15 -13 16 -12 3 4 -13 16 -21 21 -21
13z"/>
<path d="M1512 2257 c-6 -7 -7 -19 -3 -26 6 -9 10 -6 14 10 8 28 3 34 -11 16z"/>
<path d="M1286 2250 c-16 -5 -32 -7 -36 -5 -3 2 -7 -5 -7 -16 -2 -18 0 -18 20
-4 12 8 29 15 39 15 9 0 20 5 23 10 7 12 1 12 -39 0z"/>
<path d="M2005 2250 c3 -5 11 -10 16 -10 6 0 7 5 4 10 -3 6 -11 10 -16 10 -6
0 -7 -4 -4 -10z"/>
<path d="M985 2240 c-3 -6 1 -7 9 -4 18 7 21 14 7 14 -6 0 -13 -4 -16 -10z"/>
<path d="M1183 2236 c-18 -6 -35 -15 -39 -18 -6 -7 29 -1 56 9 8 4 19 5 23 4
5 -1 6 3 2 9 -3 5 -7 9 -8 9 -1 -1 -16 -7 -34 -13z"/>
<path d="M1473 2235 c0 -8 4 -12 9 -9 5 3 6 10 3 15 -9 13 -12 11 -12 -6z"/>
<path d="M2112 2234 c-7 -8 -8 -14 -3 -14 10 0 25 19 20 25 -2 1 -10 -3 -17
-11z"/>
<path d="M1348 2233 c7 -3 16 -2 19 1 4 3 -2 6 -13 5 -11 0 -14 -3 -6 -6z"/>
<path d="M1388 2233 c7 -3 16 -2 19 1 4 3 -2 6 -13 5 -11 0 -14 -3 -6 -6z"/>
<path d="M806 2214 c-5 -14 -4 -15 9 -4 17 14 19 20 6 20 -5 0 -12 -7 -15 -16z"/>
<path d="M887 2205 c-37 -32 -21 -32 18 0 17 13 26 24 20 24 -5 0 -23 -11 -38
-24z"/>
<path d="M1425 2220 c-3 -5 -1 -10 4 -10 6 0 11 5 11 10 0 6 -2 10 -4 10 -3 0
-8 -4 -11 -10z"/>
<path d="M945 2210 c-8 -13 5 -13 25 0 13 8 13 10 -2 10 -9 0 -20 -4 -23 -10z"/>
<path d="M1395 2210 c-3 -5 -1 -10 4 -10 6 0 11 5 11 10 0 6 -2 10 -4 10 -3 0
-8 -4 -11 -10z"/>
<path d="M2065 2210 c9 -25 43 -42 51 -27 4 6 3 9 -1 4 -5 -4 -19 3 -32 15
-14 13 -22 16 -18 8z"/>
<path d="M2660 2205 c7 -8 17 -15 22 -15 5 0 3 7 -6 15 -8 8 -18 15 -22 15 -3
0 -1 -7 6 -15z"/>
<path d="M1410 2182 c-36 -15 -68 -30 -71 -35 -3 -5 -15 -8 -25 -6 -11 1 -30
-3 -44 -9 -24 -10 -24 -11 -2 -11 12 -1 22 3 22 8 0 6 14 5 35 0 20 -6 55 -8
78 -6 38 3 37 4 -13 6 -53 2 -54 2 -30 16 14 8 32 14 40 15 8 0 33 11 55 25
51 31 37 30 -45 -3z"/>
<path d="M643 2188 c-23 -30 -24 -41 -2 -21 12 12 20 25 17 28 -3 3 -10 0 -15
-7z"/>
<path d="M1565 2180 c-10 -11 -13 -20 -7 -20 6 0 16 9 22 20 6 11 9 20 7 20
-2 0 -12 -9 -22 -20z"/>
<path d="M2310 2185 c0 -8 4 -15 10 -15 5 0 7 7 4 15 -4 8 -8 15 -10 15 -2 0
-4 -7 -4 -15z"/>
<path d="M1200 2180 c0 -5 5 -10 11 -10 5 0 7 5 4 10 -3 6 -8 10 -11 10 -2 0
-4 -4 -4 -10z"/>
<path d="M1020 2172 c0 -5 -12 -13 -27 -19 -27 -11 -27 -11 -3 -8 38 5 61 16
54 26 -7 11 -24 12 -24 1z"/>
<path d="M2390 2176 c0 -2 7 -7 16 -10 8 -3 12 -2 9 4 -6 10 -25 14 -25 6z"/>
<path d="M1496 2161 c-11 -4 -15 -10 -10 -13 5 -2 20 1 34 8 26 14 8 18 -24 5z"/>
<path d="M721 2144 c0 -11 3 -14 6 -6 3 7 2 16 -1 19 -3 4 -6 -2 -5 -13z"/>
<path d="M1065 2149 c-9 -14 -2 -20 14 -10 8 6 9 11 3 15 -6 3 -14 1 -17 -5z"/>
<path d="M1100 2150 c0 -5 7 -10 16 -10 8 0 12 5 9 10 -3 6 -10 10 -16 10 -5
0 -9 -4 -9 -10z"/>
<path d="M1140 2149 c0 -5 5 -7 10 -4 6 3 10 8 10 11 0 2 -4 4 -10 4 -5 0 -10
-5 -10 -11z"/>
<path d="M2170 2139 c0 -5 5 -7 10 -4 6 3 10 8 10 11 0 2 -4 4 -10 4 -5 0 -10
-5 -10 -11z"/>
<path d="M1214 2133 c15 -4 16 -7 5 -15 -11 -7 -11 -9 -1 -6 20 5 16 23 -5 25
-15 2 -15 1 1 -4z"/>
<path d="M2280 2130 c0 -5 5 -10 10 -10 6 0 10 5 10 10 0 6 -4 10 -10 10 -5 0
-10 -4 -10 -10z"/>
<path d="M581 2117 c-8 -10 -7 -14 4 -14 8 0 15 6 15 14 0 7 -2 13 -4 13 -2 0
-9 -6 -15 -13z"/>
<path d="M989 2108 c-7 -114 -6 -148 7 -159 8 -6 11 -15 8 -20 -5 -8 17 -14
39 -10 4 0 7 -4 7 -11 0 -6 3 -8 7 -4 4 3 -8 19 -26 34 -26 22 -32 34 -33 67
0 66 7 106 23 116 11 7 9 9 -8 9 -17 0 -23 -6 -24 -22z"/>
<path d="M1463 2123 c9 -2 25 -2 35 0 9 3 1 5 -18 5 -19 0 -27 -2 -17 -5z"/>
<path d="M666 2103 c-6 -14 -5 -15 5 -6 7 7 10 15 7 18 -3 3 -9 -2 -12 -12z"/>
<path d="M1120 2110 c-12 -8 -10 -10 8 -10 13 0 20 4 17 10 -7 12 -6 12 -25 0z"/>
<path d="M1560 2110 c0 -5 5 -10 11 -10 5 0 7 5 4 10 -3 6 -8 10 -11 10 -2 0
-4 -4 -4 -10z"/>
<path d="M489 2100 c-2 -12 -2 -12 -21 -80 -20 -71 -19 -102 3 -95 10 3 21 0
25 -6 5 -9 2 -10 -9 -6 -9 3 -19 2 -22 -3 -4 -6 -2 -10 3 -10 14 0 24 -80 12
-95 -15 -18 -5 -74 16 -90 11 -8 15 -15 11 -15 -5 0 2 -14 14 -32 19 -26 23
-43 21 -92 -1 -34 2 -66 6 -72 4 -7 8 12 8 42 1 30 7 61 14 69 11 13 10 14 -5
8 -15 -5 -17 -3 -11 12 4 11 0 25 -11 37 -10 11 -17 23 -16 27 5 11 -8 41 -18
41 -5 0 -9 23 -9 50 0 28 5 50 10 50 6 0 10 5 10 11 0 5 -4 8 -9 4 -13 -7 -24
31 -15 47 15 24 11 46 -8 43 -27 -6 -31 12 -6 29 12 9 17 16 9 16 -9 0 -11 9
-6 33 4 17 11 33 16 35 4 2 5 10 2 18 -3 8 0 14 7 14 6 0 8 5 5 10 -3 6 -10
10 -16 10 -5 0 -10 -4 -10 -10z"/>
<path d="M2321 2084 c0 -11 3 -14 6 -6 3 7 2 16 -1 19 -3 4 -6 -2 -5 -13z"/>
<path d="M2516 2087 c3 -10 9 -15 12 -12 3 3 0 11 -7 18 -10 9 -11 8 -5 -6z"/>
<path d="M1420 2080 c0 -5 7 -7 15 -4 8 4 15 8 15 10 0 2 -7 4 -15 4 -8 0 -15
-4 -15 -10z"/>
<path d="M1550 2060 c0 -5 5 -10 10 -10 6 0 10 5 10 10 0 6 -4 10 -10 10 -5 0
-10 -4 -10 -10z"/>
<path d="M2460 2058 c0 -10 4 -18 9 -18 5 0 11 -8 13 -17 2 -10 6 -14 10 -8 4
6 -2 22 -13 35 -15 20 -19 22 -19 8z"/>
<path d="M570 2028 c0 -19 2 -20 10 -8 13 19 13 30 0 30 -5 0 -10 -10 -10 -22z"/>
<path d="M954 2035 c-3 -8 -4 -20 -2 -27 3 -7 7 -1 10 15 6 29 1 36 -8 12z"/>
<path d="M2406 2024 c-8 -21 -8 -69 0 -61 7 6 15 77 9 77 -1 0 -6 -7 -9 -16z"/>
<path d="M1750 2020 c0 -5 5 -10 10 -10 6 0 10 5 10 10 0 6 -4 10 -10 10 -5 0
-10 -4 -10 -10z"/>
<path d="M2241 1990 c0 -33 1 -34 10 -11 6 16 6 28 -1 35 -7 7 -10 -1 -9 -24z"/>
<path d="M1150 1999 c0 -5 5 -7 10 -4 6 3 10 8 10 11 0 2 -4 4 -10 4 -5 0 -10
-5 -10 -11z"/>
<path d="M868 1977 c-3 -19 -2 -25 4 -19 6 6 8 18 6 28 -3 14 -5 12 -10 -9z"/>
<path d="M1820 1989 c0 -5 5 -7 10 -4 6 3 10 8 10 11 0 2 -4 4 -10 4 -5 0 -10
-5 -10 -11z"/>
<path d="M2517 1989 c7 -7 15 -10 18 -7 3 3 -2 9 -12 12 -14 6 -15 5 -6 -5z"/>
<path d="M956 1943 c14 -45 44 -91 44 -66 0 6 -7 16 -15 23 -8 7 -15 25 -15
40 0 15 -6 33 -14 39 -12 10 -12 5 0 -36z"/>
<path d="M1307 1979 c7 -7 15 -10 18 -7 3 3 -2 9 -12 12 -14 6 -15 5 -6 -5z"/>
<path d="M2281 1959 c0 -15 6 -32 14 -39 10 -9 15 -9 15 -1 0 6 -4 11 -9 11
-5 0 -12 12 -14 28 l-4 27 -2 -26z"/>
<path d="M2451 1964 c0 -11 3 -14 6 -6 3 7 2 16 -1 19 -3 4 -6 -2 -5 -13z"/>
<path d="M1095 1960 c3 -5 8 -10 11 -10 2 0 4 5 4 10 0 6 -5 10 -11 10 -5 0
-7 -4 -4 -10z"/>
<path d="M1775 1960 c3 -5 11 -10 16 -10 6 0 7 5 4 10 -3 6 -11 10 -16 10 -6
0 -7 -4 -4 -10z"/>
<path d="M1138 1953 c7 -3 16 -2 19 1 4 3 -2 6 -13 5 -11 0 -14 -3 -6 -6z"/>
<path d="M799 1945 c-1 -3 -2 -8 -3 -12 -1 -5 -5 -14 -10 -21 -7 -11 -4 -11
13 0 12 7 17 14 11 16 -6 2 -8 8 -4 13 3 5 3 9 0 9 -3 0 -7 -2 -7 -5z"/>
<path d="M1945 1940 c4 -6 11 -8 16 -5 14 9 11 15 -7 15 -8 0 -12 -5 -9 -10z"/>
<path d="M1990 1940 c0 -5 5 -10 10 -10 6 0 10 5 10 10 0 6 -4 10 -10 10 -5 0
-10 -4 -10 -10z"/>
<path d="M2250 1935 c0 -8 4 -15 10 -15 5 0 7 7 4 15 -4 8 -8 15 -10 15 -2 0
-4 -7 -4 -15z"/>
<path d="M846 1923 c-6 -14 -5 -15 5 -6 7 7 10 15 7 18 -3 3 -9 -2 -12 -12z"/>
<path d="M893 1915 c15 -14 33 -25 40 -25 7 1 -1 12 -18 25 -39 32 -58 32 -22
0z"/>
<path d="M2422 1918 c2 -6 10 -14 16 -16 7 -2 10 2 6 12 -7 18 -28 22 -22 4z"/>
<path d="M2475 1910 c-4 -6 -1 -9 7 -8 8 2 12 -5 10 -17 -2 -15 -1 -17 7 -6
10 15 4 41 -9 41 -5 0 -12 -5 -15 -10z"/>
<path d="M2540 1910 c0 -5 5 -10 11 -10 5 0 7 5 4 10 -3 6 -8 10 -11 10 -2 0
-4 -4 -4 -10z"/>
<path d="M1128 1903 c6 -2 18 -2 25 0 6 3 1 5 -13 5 -14 0 -19 -2 -12 -5z"/>
<path d="M1845 1890 c-3 -5 -1 -10 4 -10 6 0 11 5 11 10 0 6 -2 10 -4 10 -3 0
-8 -4 -11 -10z"/>
<path d="M1014 1870 c0 -10 5 -16 10 -13 5 3 15 -2 23 -12 7 -11 13 -14 13 -9
0 6 -10 20 -23 32 -21 20 -23 20 -23 2z"/>
<path d="M2155 1879 c-4 -6 -5 -12 -2 -15 2 -3 7 2 10 11 7 17 1 20 -8 4z"/>
<path d="M2280 1873 c0 -13 5 -23 10 -23 13 0 13 11 0 30 -8 12 -10 11 -10 -7z"/>
<path d="M822 1850 c0 -14 2 -19 5 -12 2 6 2 18 0 25 -3 6 -5 1 -5 -13z"/>
<path d="M2610 1850 c0 -5 -7 -7 -16 -3 -11 4 -15 2 -13 -6 3 -7 8 -12 12 -12
4 1 14 1 22 1 8 0 15 7 15 15 0 8 -4 15 -10 15 -5 0 -10 -4 -10 -10z"/>
<path d="M1185 1840 c-3 -5 -1 -10 4 -10 6 0 11 5 11 10 0 6 -2 10 -4 10 -3 0
-8 -4 -11 -10z"/>
<path d="M1960 1840 c0 -5 5 -10 11 -10 5 0 7 5 4 10 -3 6 -8 10 -11 10 -2 0
-4 -4 -4 -10z"/>
<path d="M2037 1839 c7 -7 15 -10 18 -7 3 3 -2 9 -12 12 -14 6 -15 5 -6 -5z"/>
<path d="M2305 1813 c3 -16 7 -46 9 -68 6 -53 5 -52 15 -35 5 8 5 39 2 67 -5
34 -4 54 3 57 6 2 1 5 -11 5 -19 1 -22 -3 -18 -26z"/>
<path d="M2082 1819 c-29 -11 -26 -43 6 -47 12 -2 22 -7 22 -12 0 -5 8 -7 18
-3 9 3 14 2 9 -2 -4 -5 -27 -9 -52 -9 -35 -1 -47 3 -51 17 -3 9 -14 17 -24 17
-10 0 -22 5 -25 10 -8 13 -42 13 -47 0 -1 -5 -19 -10 -38 -11 -48 -3 -55 -9
-30 -26 17 -12 19 -18 9 -29 -9 -11 -8 -14 3 -14 8 0 18 3 21 6 13 14 183 21
216 10 15 -5 21 -5 17 2 -3 5 10 13 30 17 45 8 34 23 -19 27 -21 1 -41 6 -43
10 -3 5 -9 6 -14 3 -4 -3 -10 2 -14 10 -7 19 14 19 40 0 10 -8 26 -15 34 -15
9 0 5 7 -10 17 -14 9 -27 20 -30 24 -3 3 -15 3 -28 -2z m-69 -52 c4 3 7 1 7
-6 0 -7 -14 -11 -37 -11 -21 1 -50 -2 -65 -6 -22 -5 -28 -3 -28 10 0 8 6 13
13 11 6 -2 28 -1 47 4 19 4 40 4 46 -1 6 -4 14 -5 17 -1z"/>
<path d="M810 1816 c0 -2 7 -9 15 -16 13 -11 14 -10 9 4 -5 14 -24 23 -24 12z"/>
<path d="M2420 1802 c0 -11 5 -24 10 -27 6 -4 9 2 7 14 -4 29 -17 39 -17 13z"/>
<path d="M2610 1808 c0 -9 -3 -24 -7 -34 -4 -12 -3 -15 5 -10 16 9 16 -83 1
-104 -9 -13 -10 -12 -5 2 3 10 1 20 -5 24 -6 3 -15 18 -21 32 -9 23 -12 24
-15 9 -3 -12 -11 -17 -22 -14 -11 3 -17 -2 -17 -14 0 -21 12 -26 18 -7 2 6 17
-5 32 -25 38 -50 43 -105 18 -192 -11 -39 -23 -90 -26 -113 -10 -69 -57 -146
-103 -171 -23 -12 -84 -14 -121 -5 -16 5 -21 11 -17 23 4 9 9 36 11 61 4 38 3
42 -7 26 -8 -12 -13 -72 -14 -155 -1 -124 -4 -143 -31 -216 l-30 -80 14 -125
c8 -69 18 -129 24 -135 7 -7 8 6 4 40 -18 159 -19 244 -2 279 9 19 16 41 16
49 0 9 5 19 10 22 6 4 8 15 5 26 -4 10 -2 19 3 19 9 0 13 28 14 101 l0 36 49
1 c26 0 60 7 76 15 31 16 83 71 83 87 0 5 4 10 8 10 5 0 14 30 21 68 13 68 30
129 41 147 4 6 6 26 6 45 -1 19 5 40 13 46 11 9 12 12 1 19 -9 5 -11 4 -6 -3
4 -7 3 -12 -3 -12 -14 0 -18 30 -9 74 13 57 12 146 -1 159 -8 8 -11 7 -11 -5z"/>
<path d="M1215 1799 c-4 -6 -5 -12 -2 -15 2 -3 7 2 10 11 7 17 1 20 -8 4z"/>
<path d="M2190 1806 c0 -2 7 -9 15 -16 9 -7 15 -8 15 -2 0 5 -7 12 -15 16 -8
3 -15 4 -15 2z"/>
<path d="M2018 1793 c6 -2 18 -2 25 0 6 3 1 5 -13 5 -14 0 -19 -2 -12 -5z"/>
<path d="M2391 1784 c0 -11 3 -14 6 -6 3 7 2 16 -1 19 -3 4 -6 -2 -5 -13z"/>
<path d="M2355 1780 c-3 -5 -1 -10 4 -10 6 0 11 5 11 10 0 6 -2 10 -4 10 -3 0
-8 -4 -11 -10z"/>
<path d="M1796 1761 c-15 -10 -27 -21 -26 -25 1 -4 0 -12 -2 -18 -6 -18 -28 1
-28 25 0 16 -3 18 -12 9 -8 -8 -8 -15 2 -27 7 -8 8 -15 2 -15 -5 0 -13 -7 -16
-16 -5 -14 -4 -15 9 -4 11 9 15 9 15 1 0 -7 10 -3 22 9 25 23 46 27 28 5 -7
-9 -10 -18 -6 -22 3 -3 6 -1 6 5 0 6 13 13 29 17 45 10 54 27 27 52 -22 21
-23 21 -50 4z m43 -15 c9 -10 8 -15 -4 -20 -17 -6 -45 2 -45 14 0 8 16 17 31
19 4 1 12 -5 18 -13z"/>
<path d="M632 1750 c-18 -29 -15 -38 4 -12 9 13 14 25 12 27 -2 2 -9 -5 -16
-15z"/>
<path d="M972 1729 c-47 -47 -49 -58 -4 -35 16 8 49 18 73 21 24 4 55 8 69 11
20 4 22 2 10 -6 -12 -8 -9 -10 15 -8 19 2 29 8 27 16 -1 8 2 11 7 8 5 -3 28
-8 51 -11 38 -5 41 -4 30 10 -10 12 -29 14 -91 11 -43 -2 -83 -7 -88 -10 -5
-4 -12 -2 -15 3 -4 5 2 12 11 15 11 3 8 4 -7 3 -14 -1 -31 -11 -38 -22 -11
-18 -12 -18 -6 8 3 15 5 27 2 27 -2 0 -22 -19 -46 -41z"/>
<path d="M1299 1740 c54 -25 56 -25 31 0 -11 11 -32 20 -47 20 -25 0 -24 -2
16 -20z"/>
<path d="M1682 1728 c2 -6 10 -14 16 -16 7 -2 10 2 6 12 -7 18 -28 22 -22 4z"/>
<path d="M2170 1724 c-25 -14 -25 -14 12 -14 20 0 43 -3 52 -6 9 -3 16 -1 16
5 0 6 -12 11 -26 11 -14 0 -23 4 -19 10 8 13 -4 11 -35 -6z"/>
<path d="M1282 1723 c-6 -2 -10 -8 -8 -12 3 -4 1 -13 -5 -21 -7 -13 -9 -12 -9
3 0 9 -5 17 -11 17 -5 0 -7 -4 -4 -10 3 -5 1 -10 -5 -10 -6 0 -13 6 -16 13 -4
11 -15 12 -54 4 -54 -10 -63 -21 -27 -31 31 -8 39 -7 33 3 -8 12 19 22 30 11
15 -14 58 -15 84 0 22 12 24 11 13 -2 -11 -12 -8 -14 18 -10 19 3 37 -2 49
-13 25 -23 26 -8 1 24 -13 17 -28 24 -50 23 -17 0 -29 4 -26 9 7 10 6 10 -13
2z"/>
<path d="M1411 1712 c-1 -7 -5 -11 -10 -8 -5 4 -7 -3 -4 -15 5 -19 7 -19 15
-5 5 9 7 22 4 29 -3 9 -5 8 -5 -1z"/>
<path d="M1060 1690 c-19 -5 -38 -6 -42 -4 -4 3 -19 -3 -33 -12 -14 -9 -34
-14 -45 -11 -11 3 -18 1 -14 -4 3 -5 -2 -9 -10 -9 -9 0 -16 -4 -16 -9 0 -11
65 -5 90 9 10 5 33 8 52 5 28 -4 30 -4 8 4 l-25 9 26 1 c14 1 34 8 45 16 21
16 15 17 -36 5z"/>
<path d="M2490 1689 c0 -6 -6 -9 -14 -6 -13 5 -25 -24 -31 -75 -1 -10 -7 -24
-13 -31 -6 -7 -10 -30 -9 -51 2 -30 9 -41 35 -58 18 -11 32 -16 32 -11 0 4 -9
14 -20 21 -12 7 -18 17 -15 22 4 6 -2 7 -12 4 -16 -6 -15 -4 2 10 14 12 16 19
8 22 -18 8 -17 38 1 31 10 -4 14 5 15 36 3 61 4 68 9 62 7 -6 32 15 32 26 0 5
-4 9 -10 9 -5 0 -10 -5 -10 -11z"/>
<path d="M2258 1683 c7 -3 16 -2 19 1 4 3 -2 6 -13 5 -11 0 -14 -3 -6 -6z"/>
<path d="M2329 1671 c6 -11 12 -40 13 -65 2 -25 6 -46 10 -46 4 0 6 -15 5 -32
-2 -18 0 -40 4 -48 4 -8 3 -39 -3 -69 -10 -58 -4 -79 11 -37 6 14 14 26 18 26
9 0 8 85 0 110 -3 8 -8 36 -12 63 -3 26 -12 47 -18 47 -7 0 -6 4 3 10 10 7 11
12 4 18 -6 4 -13 15 -17 25 -3 9 -11 17 -17 17 -7 0 -8 -6 -1 -19z"/>
<path d="M800 1660 c6 -11 13 -20 16 -20 2 0 0 9 -6 20 -6 11 -13 20 -16 20
-2 0 0 -9 6 -20z"/>
<path d="M2218 1673 c7 -3 16 -2 19 1 4 3 -2 6 -13 5 -11 0 -14 -3 -6 -6z"/>
<path d="M2540 1662 c0 -7 4 -22 10 -32 13 -25 21 -90 11 -90 -4 0 -8 -14 -9
-31 0 -17 -5 -36 -10 -42 -5 -7 -8 -28 -7 -47 4 -42 -20 -97 -45 -105 -15 -5
-16 -9 -7 -29 12 -25 30 -26 21 -1 -3 8 4 24 15 36 11 12 23 39 26 58 3 20 12
65 20 101 19 89 18 130 -5 165 -11 17 -20 24 -20 17z"/>
<path d="M1835 1646 c-17 -7 -37 -21 -45 -32 -12 -14 -6 -13 25 6 30 19 60 26
120 31 l80 6 -75 1 c-43 1 -88 -4 -105 -12z"/>
<path d="M2055 1639 c22 -5 44 -14 49 -19 6 -6 17 -10 26 -10 8 0 0 9 -18 20
-18 11 -47 20 -65 19 -31 -1 -31 -1 8 -10z"/>
<path d="M609 1616 c14 -14 30 -26 36 -26 6 0 19 -25 29 -55 11 -30 23 -52 28
-49 6 4 8 14 5 24 -2 9 0 25 5 34 7 12 5 16 -6 16 -10 0 -13 -6 -9 -17 4 -11
3 -14 -5 -9 -7 4 -12 15 -12 25 0 18 -28 45 -71 70 l-24 14 24 -27z"/>
<path d="M1215 1625 c6 -2 32 -6 58 -10 27 -4 46 -9 42 -13 -9 -9 -165 -9
-165 1 0 4 -5 7 -11 7 -5 0 -8 -4 -5 -8 2 -4 -27 -25 -67 -45 -39 -20 -64 -37
-56 -38 9 0 6 -4 -6 -9 -14 -6 -15 -9 -5 -9 9 -1 26 6 38 15 13 9 26 14 28 11
3 -3 16 6 29 19 29 29 45 31 45 5 0 -21 15 -35 48 -46 30 -9 72 28 72 62 0 13
2 23 5 23 7 0 46 -22 73 -41 l22 -17 -31 -11 c-18 -6 -38 -11 -45 -11 -27 0
-65 -20 -58 -31 5 -8 8 -8 14 1 4 6 39 16 78 22 66 10 71 12 61 30 -6 10 -24
27 -40 37 -18 11 -26 22 -20 25 14 9 67 -19 80 -41 7 -12 11 -13 11 -5 0 34
-97 82 -162 81 -24 0 -38 -2 -33 -4z m22 -62 c3 -9 -4 -10 -25 -3 -20 5 -34 4
-43 -3 -9 -9 -9 -7 1 6 15 20 61 20 67 0z m-17 -43 c0 -5 -7 -10 -15 -10 -8 0
-15 5 -15 10 0 6 7 10 15 10 8 0 15 -4 15 -10z"/>
<path d="M1692 1605 c-14 -16 -17 -25 -9 -25 8 0 24 11 37 25 17 18 20 25 9
25 -9 0 -25 -11 -37 -25z"/>
<path d="M1855 1620 c2 -4 -16 -18 -40 -30 -45 -23 -72 -46 -64 -55 3 -2 37
-5 77 -6 58 -2 72 -5 72 -18 0 -13 2 -13 9 -2 5 7 14 10 20 7 6 -4 11 -3 11 3
0 9 -26 17 -85 25 -23 3 -35 46 -13 46 7 0 21 7 31 14 17 13 16 14 -3 19 -11
3 -18 2 -15 -3z m-49 -72 c-10 -6 -20 -7 -24 -3 -9 8 20 25 31 18 5 -3 2 -10
-7 -15z"/>
<path d="M1908 1624 c-12 -11 -9 -49 3 -61 9 -9 19 -8 41 3 31 16 29 34 -5 34
-15 0 -18 3 -10 11 8 8 17 8 31 0 10 -6 22 -7 26 -4 3 3 6 0 6 -8 0 -8 -15
-24 -33 -36 -34 -25 -24 -31 18 -11 14 6 28 22 31 35 4 13 8 23 10 23 12 0 54
-25 54 -32 0 -5 5 -6 10 -3 6 3 12 0 15 -7 3 -7 20 -14 38 -15 26 -1 28 0 11
7 -12 5 -24 15 -27 24 -4 9 -15 16 -25 16 -10 0 -23 5 -29 11 -14 14 -154 25
-165 13z"/>
<path d="M896 1605 c-3 -8 -1 -15 4 -15 6 0 10 7 10 15 0 8 -2 15 -4 15 -2 0
-6 -7 -10 -15z"/>
<path d="M1428 1604 c12 -8 28 -27 36 -42 12 -24 12 -32 -4 -65 -10 -20 -15
-37 -12 -37 11 0 42 60 42 79 0 19 -56 81 -73 81 -6 0 -1 -7 11 -16z"/>
<path d="M787 1596 c-3 -8 -1 -17 6 -19 8 -3 6 -10 -7 -19 -15 -12 -16 -17 -6
-23 9 -6 11 -4 5 5 -5 8 -4 11 3 6 6 -4 8 -17 3 -34 -5 -15 -5 -36 -1 -47 9
-26 0 -96 -11 -89 -15 9 -10 -9 17 -61 29 -53 65 -98 50 -60 -32 76 -37 105
-36 204 1 58 1 116 1 129 -1 25 -16 30 -24 8z"/>
<path d="M1051 1583 c-19 -9 -29 -19 -23 -21 6 -2 28 6 49 17 46 24 22 28 -26
4z"/>
<path d="M2500 1580 c0 -19 3 -21 12 -12 9 9 9 15 0 24 -9 9 -12 7 -12 -12z"/>
<path d="M610 1572 c0 -5 7 -15 15 -22 8 -7 15 -8 15 -2 0 5 -7 15 -15 22 -8
7 -15 8 -15 2z"/>
<path d="M566 1543 c4 -10 15 -37 25 -60 12 -27 18 -61 17 -91 -2 -48 24 -128
47 -144 5 -4 7 -8 3 -8 -4 0 3 -28 14 -62 20 -60 44 -89 78 -95 34 -6 76 -6
98 1 19 6 22 4 22 -17 0 -13 3 -27 7 -31 12 -12 30 -96 21 -96 -5 0 0 -10 12
-22 11 -12 21 -25 21 -30 3 -16 6 -24 24 -60 10 -21 22 -38 26 -38 12 0 26
-53 33 -125 2 -22 4 -44 5 -48 1 -5 6 -5 11 -2 6 4 8 10 5 14 -2 5 -5 35 -6
67 -2 44 -8 67 -25 89 -48 65 -114 244 -114 312 0 22 -3 24 -22 18 -118 -37
-162 -12 -193 110 -8 31 -22 66 -30 79 -9 13 -17 52 -19 87 -5 78 -25 161 -37
153 -5 -3 -9 0 -9 5 0 6 -4 11 -10 11 -5 0 -7 -8 -4 -17z"/>
<path d="M2005 1537 c-14 -5 -25 -15 -25 -23 0 -18 17 -18 36 0 7 8 22 12 33
9 10 -3 22 0 25 6 4 5 14 7 24 4 10 -4 14 -2 9 3 -11 11 -69 12 -102 1z"/>
<path d="M2470 1539 c0 -5 5 -7 10 -4 6 3 10 8 10 11 0 2 -4 4 -10 4 -5 0 -10
-5 -10 -11z"/>
<path d="M1950 1515 c0 -8 5 -15 10 -15 6 0 10 7 10 15 0 8 -4 15 -10 15 -5 0
-10 -7 -10 -15z"/>
<path d="M640 1504 c0 -8 5 -12 10 -9 6 4 8 11 5 16 -9 14 -15 11 -15 -7z"/>
<path d="M1725 1511 c-3 -6 -2 -11 4 -11 6 0 8 -7 5 -15 -4 -8 -1 -15 4 -15 6
0 9 10 7 21 -5 27 -11 33 -20 20z"/>
<path d="M2511 1515 c1 -22 16 -48 22 -38 3 5 0 19 -8 29 -8 10 -14 15 -14 9z"/>
<path d="M1040 1503 c0 -11 110 -44 121 -37 15 9 10 26 -6 20 -8 -3 -15 -2
-15 2 0 4 -12 7 -27 7 -16 1 -38 4 -50 9 -13 4 -23 4 -23 -1z"/>
<path d="M720 1464 c0 -16 -4 -23 -11 -18 -8 4 -8 0 0 -15 7 -11 13 -21 14
-21 1 0 3 18 5 40 1 22 0 40 -3 40 -3 0 -5 -12 -5 -26z"/>
<path d="M1185 1479 c-10 -15 3 -25 16 -12 7 7 7 13 1 17 -6 3 -14 1 -17 -5z"/>
<path d="M1805 1480 c3 -5 13 -10 21 -10 8 0 12 5 9 10 -3 6 -13 10 -21 10 -8
0 -12 -4 -9 -10z"/>
<path d="M1396 1463 c-6 -14 -5 -15 5 -6 7 7 10 15 7 18 -3 3 -9 -2 -12 -12z"/>
<path d="M1866 1467 c3 -10 9 -15 12 -12 3 3 0 11 -7 18 -10 9 -11 8 -5 -6z"/>
<path d="M750 1445 c-3 -22 -3 -52 -1 -75 2 -10 5 -8 11 6 4 11 5 36 0 55 -5
23 -9 27 -10 14z"/>
<path d="M660 1426 c-12 -33 -12 -64 1 -91 7 -16 8 -14 4 10 -3 17 -1 45 5 64
12 42 5 54 -10 17z"/>
<path d="M2470 1430 c13 -11 26 -17 29 -14 7 6 -28 34 -42 34 -6 0 0 -9 13
-20z"/>
<path d="M1419 1412 c-7 -18 -16 -32 -19 -32 -3 0 -6 -11 -6 -24 -1 -17 3 -23
11 -19 8 2 11 11 9 18 -3 7 2 25 11 39 9 14 15 31 13 38 -3 7 -11 -2 -19 -20z"/>
<path d="M1585 1410 c-3 -5 -1 -10 4 -10 6 0 11 5 11 10 0 6 -2 10 -4 10 -3 0
-8 -4 -11 -10z"/>
<path d="M2460 1374 c-14 -14 -43 -33 -65 -43 l-40 -18 36 -4 c27 -4 35 -1 32
8 -3 7 0 13 7 13 14 0 67 40 54 40 -5 0 0 7 10 15 14 11 15 15 5 14 -8 0 -25
-11 -39 -25z"/>
<path d="M2215 1380 c3 -5 8 -10 11 -10 2 0 4 5 4 10 0 6 -5 10 -11 10 -5 0
-7 -4 -4 -10z"/>
<path d="M1745 1369 c-4 -6 -5 -12 -2 -15 2 -3 7 2 10 11 7 17 1 20 -8 4z"/>
<path d="M710 1360 c0 -5 5 -10 11 -10 5 0 7 5 4 10 -3 6 -8 10 -11 10 -2 0
-4 -4 -4 -10z"/>
<path d="M729 1291 c23 -22 42 -43 41 -48 -1 -4 6 -9 14 -11 9 -2 16 1 16 6 0
16 -79 92 -96 92 -11 0 -2 -14 25 -39z"/>
<path d="M1410 1305 c0 -12 -4 -25 -9 -30 -5 -6 -12 -32 -15 -60 l-7 -50 14
35 c28 71 34 98 26 111 -7 11 -9 9 -9 -6z"/>
<path d="M1490 1301 c0 -6 4 -12 8 -15 5 -3 9 1 9 9 0 8 -4 15 -9 15 -4 0 -8
-4 -8 -9z"/>
<path d="M680 1287 c0 -4 7 -21 15 -38 9 -16 13 -35 9 -42 -4 -7 2 -4 12 6 17
16 17 19 3 30 -8 7 -21 21 -27 32 -6 11 -12 16 -12 12z"/>
<path d="M1710 1276 c0 -8 4 -17 9 -20 5 -4 7 3 4 14 -6 23 -13 26 -13 6z"/>
<path d="M1745 1253 c13 -31 22 -91 16 -101 -3 -5 -16 -14 -28 -21 -13 -6 -23
-21 -23 -32 0 -11 5 -17 10 -14 6 4 8 11 5 16 -4 5 1 9 9 9 16 0 58 35 50 42
-2 3 -6 26 -9 52 -5 52 -11 66 -27 66 -6 0 -7 -7 -3 -17z"/>
<path d="M1200 1249 c0 -5 5 -7 10 -4 6 3 10 8 10 11 0 2 -4 4 -10 4 -5 0 -10
-5 -10 -11z"/>
<path d="M850 1213 c0 -23 22 -72 35 -77 10 -4 9 5 -4 35 -19 42 -31 58 -31
42z"/>
<path d="M1630 1200 c0 -5 7 -10 16 -10 8 0 12 5 9 10 -3 6 -10 10 -16 10 -5
0 -9 -4 -9 -10z"/>
<path d="M960 1187 c0 -9 9 -21 20 -27 11 -6 20 -7 20 -2 0 5 -9 17 -20 27
-18 16 -20 16 -20 2z"/>
<path d="M1378 1128 c2 -10 11 -18 18 -18 8 0 14 -4 14 -10 0 -5 9 -10 20 -10
31 0 24 13 -19 36 -36 20 -38 20 -33 2z"/>
<path d="M1660 1129 c-14 -6 -37 -23 -51 -39 -24 -26 -25 -29 -8 -33 11 -3 17
-2 14 3 -8 13 29 48 58 55 15 4 27 11 27 16 0 11 -8 11 -40 -2z"/>
<path d="M1460 1110 c0 -5 5 -10 11 -10 5 0 8 -4 5 -8 -9 -15 74 -46 87 -33 8
8 5 11 -10 11 -12 0 -35 11 -51 25 -32 27 -42 31 -42 15z"/>
<path d="M1557 1033 c-4 -3 -7 -11 -7 -17 0 -6 5 -5 12 2 6 6 9 14 7 17 -3 3
-9 2 -12 -2z"/>
<path d="M1608 1015 c-4 -4 -4 -14 -1 -22 4 -9 0 -14 -8 -13 -8 1 -21 2 -29 1
-13 -1 -12 -3 1 -11 11 -7 29 -5 55 4 28 10 33 15 17 15 -12 1 -23 8 -25 17
-2 9 -6 13 -10 9z"/>
<path d="M1820 994 c0 -8 5 -12 10 -9 6 3 10 10 10 16 0 5 -4 9 -10 9 -5 0
-10 -7 -10 -16z"/>
<path d="M1857 996 c-4 -10 1 -12 14 -9 23 6 24 9 5 16 -8 3 -17 0 -19 -7z"/>
<path d="M1350 989 c0 -5 5 -7 10 -4 6 3 10 8 10 11 0 2 -4 4 -10 4 -5 0 -10
-5 -10 -11z"/>
<path d="M1480 980 c0 -6 7 -10 15 -10 8 0 15 2 15 4 0 2 -7 6 -15 10 -8 3
-15 1 -15 -4z"/>
<path d="M1535 980 c3 -5 8 -10 11 -10 2 0 4 5 4 10 0 6 -5 10 -11 10 -5 0 -7
-4 -4 -10z"/>
<path d="M1405 970 c3 -5 8 -10 11 -10 2 0 4 5 4 10 0 6 -5 10 -11 10 -5 0 -7
-4 -4 -10z"/>
<path d="M1960 960 c20 -13 33 -13 25 0 -3 6 -14 10 -23 10 -15 0 -15 -2 -2
-10z"/>
<path d="M1546 937 c3 -10 9 -15 12 -12 3 3 0 11 -7 18 -10 9 -11 8 -5 -6z"/>
<path d="M1630 930 c8 -5 20 -10 25 -10 6 0 3 5 -5 10 -8 5 -19 10 -25 10 -5
0 -3 -5 5 -10z"/>
<path d="M2115 917 c-4 -10 -5 -21 -1 -24 10 -10 18 4 13 24 -4 17 -4 17 -12
0z"/>
<path d="M1685 898 c-33 -9 -214 -12 -238 -2 -8 3 -18 1 -22 -5 -3 -6 -28 -11
-55 -11 -27 0 -52 -5 -55 -10 -8 -13 46 -34 54 -22 12 18 55 24 196 24 86 0
145 4 145 10 0 5 37 8 90 6 59 -2 93 1 101 9 15 15 -168 16 -216 1z"/>
<path d="M1790 860 c0 -5 -10 -10 -23 -10 -13 0 -28 -5 -34 -11 -7 -7 -29 -15
-50 -19 l-38 -8 36 -1 c20 0 49 6 66 14 16 8 42 16 56 17 20 2 23 5 15 15 -12
15 -28 17 -28 3z"/>
<path d="M1380 839 c0 -5 4 -8 9 -5 5 3 11 -1 15 -9 3 -8 16 -15 28 -14 15 0
18 3 8 6 -8 4 -21 12 -28 20 -16 16 -32 17 -32 2z"/>
<path d="M1470 810 c0 -12 28 -21 35 -11 2 5 -4 11 -15 14 -11 3 -20 2 -20 -3z"/>
<path d="M1568 803 c7 -3 16 -2 19 1 4 3 -2 6 -13 5 -11 0 -14 -3 -6 -6z"/>
<path d="M1606 780 c-23 -3 -41 -11 -43 -20 -4 -12 -3 -12 5 -2 5 8 13 14 17
14 4 0 12 -6 16 -14 7 -10 9 -10 9 0 0 7 14 12 37 12 20 0 33 3 29 7 -9 9 -23
10 -70 3z"/>
<path d="M2195 770 c-3 -5 -1 -10 4 -10 6 0 11 5 11 10 0 6 -2 10 -4 10 -3 0
-8 -4 -11 -10z"/>
<path d="M1468 753 c7 -3 16 -2 19 1 4 3 -2 6 -13 5 -11 0 -14 -3 -6 -6z"/>
<path d="M1830 750 c0 -5 5 -10 10 -10 6 0 10 5 10 10 0 6 -4 10 -10 10 -5 0
-10 -4 -10 -10z"/>
<path d="M2167 743 c-4 -3 -7 -11 -7 -17 0 -6 5 -5 12 2 6 6 9 14 7 17 -3 3
-9 2 -12 -2z"/>
<path d="M1117 650 c39 -38 76 -70 83 -70 7 0 2 9 -11 21 -13 11 -47 43 -76
70 -28 27 -55 49 -59 49 -5 0 23 -31 63 -70z"/>
<path d="M1970 679 c0 -5 5 -7 10 -4 6 3 10 8 10 11 0 2 -4 4 -10 4 -5 0 -10
-5 -10 -11z"/>
<path d="M1550 650 c-8 -5 -12 -12 -9 -15 4 -3 12 1 19 10 14 17 11 19 -10 5z"/>
<path d="M1630 650 c0 -5 7 -10 16 -10 8 0 12 5 9 10 -3 6 -10 10 -16 10 -5 0
-9 -4 -9 -10z"/>
<path d="M2070 637 c-12 -21 -12 -21 6 -7 10 8 20 15 22 16 2 1 -1 4 -5 7 -5
3 -15 -4 -23 -16z"/>
<path d="M2000 621 c0 -6 4 -13 10 -16 6 -3 7 1 4 9 -7 18 -14 21 -14 7z"/>
<path d="M1585 610 c3 -5 8 -10 11 -10 2 0 4 5 4 10 0 6 -5 10 -11 10 -5 0 -7
-4 -4 -10z"/>
<path d="M1838 603 c7 -3 16 -2 19 1 4 3 -2 6 -13 5 -11 0 -14 -3 -6 -6z"/>
<path d="M1024 589 c-7 -8 -8 -22 -4 -34 7 -18 9 -18 15 -3 4 9 5 25 3 34 -2
14 -5 15 -14 3z"/>
<path d="M1607 567 c-4 -10 2 -13 20 -11 30 3 38 10 24 19 -6 3 -11 1 -11 -6
0 -9 -3 -9 -14 0 -10 9 -15 8 -19 -2z"/>
<path d="M1215 560 c-3 -5 -1 -10 4 -10 6 0 11 5 11 10 0 6 -2 10 -4 10 -3 0
-8 -4 -11 -10z"/>
<path d="M2291 558 c1 -28 25 -127 31 -134 9 -8 2 49 -12 95 -5 19 -7 38 -4
42 3 5 0 9 -5 9 -6 0 -11 -6 -10 -12z"/>
<path d="M1246 537 c3 -10 9 -15 12 -12 3 3 0 11 -7 18 -10 9 -11 8 -5 -6z"/>
<path d="M1775 540 c-3 -5 -1 -10 4 -10 6 0 11 5 11 10 0 6 -2 10 -4 10 -3 0
-8 -4 -11 -10z"/>
<path d="M1960 529 c0 -5 5 -7 10 -4 6 3 10 8 10 11 0 2 -4 4 -10 4 -5 0 -10
-5 -10 -11z"/>
<path d="M1023 485 c0 -19 3 -35 8 -35 5 0 9 16 9 35 0 19 -4 35 -8 35 -4 0
-8 -16 -9 -35z"/>
<path d="M1310 480 c37 -31 125 -70 163 -71 21 0 21 -1 2 -9 -17 -7 -15 -9 13
-9 17 -1 32 4 32 9 0 6 5 10 11 10 5 0 8 -4 5 -9 -7 -10 52 -26 61 -17 4 3 -3
6 -15 6 -12 0 -22 4 -22 10 0 5 16 8 36 6 19 -1 37 1 39 4 2 4 19 7 37 7 l33
1 -30 -14 c-16 -7 -35 -13 -42 -14 -6 0 -14 -4 -17 -8 -10 -17 64 1 84 20 15
14 37 21 66 22 24 0 44 3 44 6 0 3 19 11 43 18 24 7 56 24 72 38 34 29 30 28
-45 -8 -53 -25 -79 -30 -304 -54 -86 -9 -176 11 -233 52 -59 42 -81 44 -33 4z"/>
<path d="M1620 500 c0 -5 5 -10 11 -10 5 0 7 5 4 10 -3 6 -8 10 -11 10 -2 0
-4 -4 -4 -10z"/>
<path d="M1730 480 c0 -5 5 -10 11 -10 5 0 7 5 4 10 -3 6 -8 10 -11 10 -2 0
-4 -4 -4 -10z"/>
<path d="M1030 440 c-1 -3 -4 -21 -6 -40 -4 -28 -2 -32 6 -17 6 10 9 28 7 40
-2 12 -5 20 -7 17z"/>
<path d="M2397 377 c15 -12 36 -28 45 -35 9 -7 38 -15 65 -18 55 -5 133 -31
133 -45 0 -5 13 -9 29 -9 15 0 50 -12 77 -26 27 -14 90 -40 139 -56 50 -17 96
-35 103 -41 8 -7 12 -5 12 6 0 13 -21 28 -42 31 -3 1 -10 4 -14 9 -4 4 -18 7
-31 7 -12 0 -23 4 -23 8 0 4 -10 8 -22 9 -12 1 -49 15 -83 32 -33 16 -78 35
-100 43 -22 7 -53 20 -70 29 -16 8 -59 17 -95 18 -36 1 -67 6 -70 10 -10 13
-63 51 -72 51 -5 0 3 -10 19 -23z"/>
<path d="M2320 356 c0 -14 4 -27 8 -30 5 -3 6 8 4 25 -5 35 -12 38 -12 5z"/>
<path d="M880 311 c-14 -4 -40 -16 -58 -25 -19 -10 -36 -15 -39 -12 -3 3 -12
-2 -20 -10 -9 -8 -22 -13 -30 -10 -8 3 -11 1 -8 -4 3 -6 0 -10 -8 -10 -8 0
-22 -9 -32 -20 -17 -19 -135 -80 -154 -80 -5 0 -22 -7 -38 -15 -15 -7 -50 -24
-78 -36 -110 -47 -159 -73 -146 -77 7 -2 34 5 60 16 25 12 113 50 195 86 83
36 161 77 175 90 15 13 46 31 71 39 25 9 65 25 90 36 47 21 116 29 105 11 -3
-5 -14 -10 -24 -10 -10 0 -25 -7 -32 -16 -12 -15 -11 -16 11 -9 26 7 67 41 59
49 -9 10 -76 14 -99 7z"/>
<path d="M2325 303 c7 -14 17 -69 17 -94 0 -9 6 -16 13 -16 10 0 11 5 4 18 -5
10 -9 28 -9 41 0 13 -7 33 -16 44 -8 10 -13 13 -9 7z"/>
<path d="M2500 291 c14 -11 39 -21 57 -21 49 0 73 -38 73 -115 0 -34 -7 -82
-15 -105 -17 -47 -14 -65 5 -29 18 33 25 76 25 151 -1 93 -15 107 -140 133
l-30 7 25 -21z"/>
<path d="M846 241 c-9 -10 -16 -35 -16 -60 0 -42 33 -158 51 -176 14 -14 11 4
-9 60 -10 28 -19 75 -21 106 -2 49 0 57 20 65 19 9 20 12 7 17 -9 3 -23 -2
-32 -12z"/>
<path d="M1026 219 c-7 -37 -8 -114 -1 -108 2 3 7 30 10 60 4 29 8 60 10 67 3
6 1 12 -4 12 -5 0 -11 -14 -15 -31z"/>
<path d="M2800 181 c0 -5 5 -13 10 -16 6 -3 10 -2 10 4 0 5 -4 13 -10 16 -5 3
-10 2 -10 -4z"/>
</g>
</svg>
