<?xml version="1.0" standalone="no"?>
<!DOCTYPE svg PUBLIC "-//W3C//DTD SVG 20010904//EN"
 "http://www.w3.org/TR/2001/REC-SVG-20010904/DTD/svg10.dtd">
<svg version="1.0" xmlns="http://www.w3.org/2000/svg"
 width="300.000000pt" height="300.000000pt" viewBox="0 0 300.000000 300.000000"
 preserveAspectRatio="xMidYMid meet">
<metadata>
Created by potrace 1.10, written by Peter Selinger 2001-2011
</metadata>
<g transform="translate(0.000000,300.000000) scale(0.100000,-0.100000)"
fill="#000000" stroke="none">
<path d="M131 2970 c-1 -19 -4 -46 -6 -60 -4 -37 -14 -960 -18 -1775 -2 -396
-1 -626 2 -510 3 116 8 381 9 590 2 209 5 394 7 410 2 17 5 237 5 490 1 296 5
466 11 475 8 11 9 1 5 -35 -3 -27 -1 -57 4 -65 6 -10 9 33 8 130 -2 118 -3
130 -7 65 -5 -61 -7 -31 -11 120 -3 110 -7 184 -9 165z"/>
<path d="M172 2970 c0 -19 2 -27 5 -17 2 9 2 25 0 35 -3 9 -5 1 -5 -18z"/>
<path d="M529 2968 c-2 -41 -6 -246 -13 -698 -5 -320 -7 -356 -23 -367 -15
-12 -15 -13 5 -13 13 0 24 6 27 13 6 20 17 1097 11 1097 -4 0 -7 -15 -7 -32z"/>
<path d="M547 2413 c-8 -658 -9 -1178 -3 -1172 2 2 7 301 10 664 3 363 9 758
12 878 4 133 2 217 -3 217 -6 0 -12 -231 -16 -587z"/>
<path d="M859 2953 c-1 -27 -1 -85 0 -129 0 -75 -2 -84 -26 -110 l-26 -28 6
-183 c7 -199 20 -301 43 -330 14 -17 15 -17 10 2 -22 85 -37 163 -35 189 1 17
-1 83 -6 147 -9 136 -2 177 29 189 28 10 40 75 27 147 -5 27 -8 72 -7 101 0
28 -2 52 -6 52 -5 0 -8 -21 -9 -47z"/>
<path d="M911 2993 c-1 -6 -4 -20 -7 -30 -5 -17 -5 -17 6 0 6 10 9 23 6 30 -3
9 -5 9 -5 0z"/>
<path d="M977 2623 c-4 -207 -8 -512 -9 -677 -2 -226 -3 -266 -8 -161 -6 164
-18 159 -19 -8 -1 -64 -4 -122 -7 -129 -3 -7 -24 -26 -46 -43 -47 -34 -79 -88
-80 -137 -1 -18 3 -136 7 -261 l8 -228 -24 -17 c-13 -9 -27 -16 -31 -14 -5 1
-8 -3 -8 -8 0 -6 -10 -22 -23 -36 -26 -28 -60 -112 -59 -150 0 -28 -6 -29 -54
-9 l-36 15 7 457 c4 252 7 470 7 486 -1 15 3 27 9 27 6 0 6 7 -1 19 -12 24
-13 61 -1 61 5 0 17 -12 27 -27 11 -18 19 -23 22 -15 2 8 -9 30 -25 50 -16 20
-32 45 -36 55 -6 16 -2 18 31 17 57 -3 72 -1 72 9 0 5 -12 11 -27 13 l-28 3
23 13 c12 7 43 14 67 15 50 2 59 12 18 20 -28 5 -137 -33 -159 -56 -9 -9 -14
-179 -19 -594 l-7 -582 38 -6 c50 -9 84 -31 84 -53 0 -10 4 -22 8 -28 5 -5 19
-36 32 -69 40 -101 156 -194 243 -195 46 0 108 30 136 66 12 15 21 22 21 16 0
-16 -68 -82 -84 -82 -26 0 -56 -139 -56 -265 0 -68 4 -114 9 -110 5 3 10 58
10 124 1 157 18 213 77 266 25 22 61 69 82 104 29 50 45 67 71 76 31 10 64 40
73 66 2 7 13 9 25 5 20 -6 20 -11 17 -264 -2 -141 -6 -273 -9 -292 -2 -20 0
-49 4 -65 11 -36 10 -66 18 321 l6 312 -31 6 c-17 4 -33 14 -36 22 -5 12 1 14
29 10 19 -3 34 -3 33 2 -1 4 2 17 6 30 6 17 3 27 -11 37 -20 16 -47 20 -38 6
3 -5 0 -13 -6 -16 -7 -5 -9 1 -7 16 3 24 17 28 51 14 16 -7 17 13 15 346 -1
268 -3 324 -8 231 -4 -68 -10 -126 -14 -129 -3 -4 -6 1 -6 9 0 9 -7 19 -15 22
-12 4 -15 18 -14 53 2 55 -6 90 -30 117 -9 10 -16 28 -17 40 -1 37 -24 104
-36 108 -9 3 -8 12 5 31 22 34 22 67 0 67 -15 0 -15 -2 -4 -9 12 -8 12 -12 -2
-25 -24 -24 -24 -24 -29 32 -1 10 -7 19 -14 19 -7 0 -9 -17 -6 -49 3 -32 1
-48 -7 -48 -6 0 -11 5 -11 10 0 6 -5 10 -11 10 -5 0 -8 -4 -4 -9 3 -5 -11 -15
-30 -21 -19 -6 -35 -16 -35 -21 0 -5 -5 -9 -10 -9 -6 0 -29 -14 -52 -30 -22
-17 -47 -30 -55 -30 -8 0 -12 -4 -9 -9 4 -5 0 -12 -6 -14 -8 -3 -5 -6 5 -6 11
-1 59 26 109 59 84 57 119 69 143 52 18 -13 35 -62 35 -103 0 -27 6 -46 19
-57 28 -25 41 -76 31 -113 -8 -25 -6 -37 10 -57 41 -51 20 -127 -50 -182 -58
-46 -79 -80 -86 -144 l-7 -56 36 0 c34 0 36 -2 53 -52 20 -63 34 -78 68 -78
15 0 26 -6 26 -14 0 -15 -46 -11 -56 5 -14 23 -20 4 -16 -45 l4 -53 -39 -6
c-46 -8 -59 -20 -103 -105 -38 -71 -65 -97 -122 -114 -88 -26 -210 49 -267
164 -17 34 -31 67 -31 75 0 8 -3 12 -7 10 -5 -3 -9 19 -11 48 -4 78 29 159 91
219 l50 49 -6 260 c-6 223 -5 264 9 292 9 20 49 58 102 98 148 110 167 120
208 114 19 -3 46 -2 58 3 12 4 27 5 33 2 16 -11 33 -49 33 -74 0 -18 2 -20 10
-8 5 8 14 16 20 16 23 3 24 6 3 14 -16 7 -23 18 -23 36 0 15 -3 24 -6 21 -4
-3 -16 0 -26 8 -16 10 -26 11 -45 2 -17 -8 -26 -8 -31 0 -8 12 -50 12 -69 0
-7 -5 -13 -5 -13 -1 0 4 -8 0 -17 -8 -10 -9 -28 -19 -40 -22 -12 -4 -25 -15
-28 -26 -3 -10 -12 -21 -20 -24 -12 -4 -14 24 -10 192 11 436 19 1019 16 1110
-1 12 -5 22 -9 22 -5 0 -12 -169 -15 -377z m388 -1456 c-1 -12 -3 -93 -4 -179
l-1 -158 -36 -15 c-20 -8 -38 -15 -39 -15 -2 0 -6 16 -10 36 -5 30 -13 39 -46
52 -38 15 -39 17 -33 51 6 38 50 111 66 111 10 0 56 51 75 84 7 12 13 35 13
51 0 20 3 26 9 17 4 -8 7 -23 6 -35z m-90 -558 c-7 -10 -27 -20 -75 -34 -40
-12 -11 12 35 29 22 8 41 15 43 15 2 1 0 -4 -3 -10z"/>
<path d="M1142 2980 c0 -14 2 -19 5 -12 2 6 2 18 0 25 -3 6 -5 1 -5 -13z"/>
<path d="M1410 2778 c0 -123 -3 -342 -6 -488 -4 -189 -3 -261 5 -250 7 10 11
103 11 261 0 135 3 249 7 253 4 4 6 90 5 192 -1 123 1 183 8 179 14 -9 12 8
-2 24 -10 11 -10 14 -1 18 10 4 9 8 -1 19 -8 8 -17 14 -20 14 -3 0 -6 -100 -6
-222z"/>
<path d="M1462 2970 c0 -19 2 -27 5 -17 2 9 2 25 0 35 -3 9 -5 1 -5 -18z"/>
<path d="M1515 2990 c3 -5 8 -10 11 -10 2 0 4 5 4 10 0 6 -5 10 -11 10 -5 0
-7 -4 -4 -10z"/>
<path d="M1636 2985 c4 -8 8 -15 10 -15 2 0 4 7 4 15 0 8 -4 15 -10 15 -5 0
-7 -7 -4 -15z"/>
<path d="M1660 2999 c0 -6 17 -61 28 -89 7 -19 9 -28 11 -41 0 -5 6 -7 12 -4
11 7 2 66 -11 75 -4 3 -14 19 -23 35 -9 17 -16 27 -17 24z"/>
<path d="M1821 2984 c0 -11 3 -14 6 -6 3 7 2 16 -1 19 -3 4 -6 -2 -5 -13z"/>
<path d="M1850 2858 c-1 -79 -3 -206 -5 -283 -13 -449 -14 -581 -5 -595 7 -10
10 27 10 118 0 86 4 131 10 127 6 -3 10 1 10 10 0 9 -4 14 -8 11 -5 -3 -7 36
-5 87 2 51 5 187 7 302 2 116 7 245 11 288 6 67 5 77 -9 77 -14 0 -16 -18 -16
-142z"/>
<path d="M1908 2970 c6 -42 17 -45 17 -4 0 19 -4 34 -10 34 -7 0 -10 -12 -7
-30z"/>
<path d="M2297 2763 c-12 -410 -16 -952 -7 -878 4 39 8 171 9 296 1 164 4 228
13 237 10 10 10 15 -1 21 -7 5 -11 13 -8 18 3 5 7 103 8 218 1 114 5 220 9
234 8 29 2 91 -10 91 -4 0 -10 -107 -13 -237z"/>
<path d="M2339 2818 c-2 -224 0 -371 6 -376 2 -2 5 56 6 129 5 273 4 429 -3
429 -5 0 -9 -82 -9 -182z"/>
<path d="M2736 2939 c-3 -38 -2 -68 5 -82 8 -13 9 -50 5 -109 -4 -58 -3 -88 4
-88 9 0 17 159 13 262 -1 16 3 25 8 22 5 -3 9 -1 9 5 0 5 -6 12 -12 14 -10 4
-10 6 0 6 20 1 14 31 -7 31 -15 0 -19 -11 -25 -61z"/>
<path d="M2968 2993 c6 -2 18 -2 25 0 6 3 1 5 -13 5 -14 0 -19 -2 -12 -5z"/>
<path d="M1590 2971 c0 -6 4 -12 8 -15 5 -3 15 -31 22 -63 17 -74 37 -123 50
-123 6 0 10 10 9 23 0 21 -1 21 -8 2 -7 -17 -8 -17 -13 8 -3 15 -1 27 5 27 6
0 6 5 0 13 -5 6 -10 22 -11 34 0 11 -12 40 -26 62 -26 41 -36 50 -36 32z"/>
<path d="M1542 2950 c7 -10 14 -18 15 -16 6 6 -9 36 -18 36 -5 0 -4 -9 3 -20z"/>
<path d="M1790 2960 c0 -5 4 -11 9 -14 4 -3 6 -18 4 -33 -4 -22 -2 -25 6 -13
16 22 13 57 -4 64 -8 3 -15 1 -15 -4z"/>
<path d="M1770 2941 c0 -6 4 -13 10 -16 6 -3 7 1 4 9 -7 18 -14 21 -14 7z"/>
<path d="M1460 2908 c0 -9 5 -20 10 -23 13 -8 13 5 0 25 -8 13 -10 13 -10 -2z"/>
<path d="M1540 2916 c0 -2 7 -9 15 -16 9 -7 15 -8 15 -2 0 5 -7 12 -15 16 -8
3 -15 4 -15 2z"/>
<path d="M588 2428 c-2 -266 -2 -485 0 -487 1 -3 13 6 25 19 14 15 15 19 4 10
-18 -13 -19 -7 -12 176 3 104 6 214 6 244 -1 424 -3 520 -11 520 -4 0 -10
-217 -12 -482z"/>
<path d="M1511 2868 c15 -29 49 -73 49 -64 0 8 -51 86 -57 86 -2 0 2 -10 8
-22z"/>
<path d="M1890 2613 c0 -146 2 -264 4 -262 2 2 6 109 10 237 3 128 8 237 11
242 3 5 0 12 -6 15 -5 4 -8 13 -5 21 3 8 1 14 -4 14 -6 0 -10 -101 -10 -267z"/>
<path d="M1460 2828 c0 -49 6 -47 13 5 3 20 1 37 -4 37 -5 0 -9 -19 -9 -42z"/>
<path d="M1235 2850 c-3 -5 -1 -10 4 -10 6 0 11 5 11 10 0 6 -2 10 -4 10 -3 0
-8 -4 -11 -10z"/>
<path d="M1816 2750 c-4 -56 -10 -108 -13 -116 -3 -9 0 -12 9 -9 22 9 40 225
19 225 -4 0 -11 -45 -15 -100z"/>
<path d="M2787 2823 c-10 -54 -8 -283 3 -283 6 0 10 54 10 155 0 85 -2 155 -4
155 -2 0 -6 -12 -9 -27z"/>
<path d="M1700 2810 c5 -18 12 -35 16 -39 10 -9 -6 53 -17 63 -5 6 -5 -4 1
-24z"/>
<path d="M1985 2830 c3 -5 8 -10 11 -10 2 0 4 5 4 10 0 6 -5 10 -11 10 -5 0
-7 -4 -4 -10z"/>
<path d="M2024 2833 c10 -10 46 -11 40 -1 -3 4 -15 8 -26 8 -12 0 -18 -3 -14
-7z"/>
<path d="M2269 2833 c-3 -24 2 -207 6 -211 3 -3 5 45 5 106 0 62 -2 112 -5
112 -3 0 -5 -3 -6 -7z"/>
<path d="M1590 2820 c0 -5 5 -10 11 -10 5 0 7 5 4 10 -3 6 -8 10 -11 10 -2 0
-4 -4 -4 -10z"/>
<path d="M2720 2808 c-1 -13 -3 -43 -5 -68 -2 -25 0 -52 5 -60 7 -10 10 12 10
68 0 45 -2 82 -5 82 -3 0 -5 -10 -5 -22z"/>
<path d="M1766 2797 c3 -10 9 -15 12 -12 3 3 0 11 -7 18 -10 9 -11 8 -5 -6z"/>
<path d="M940 2769 c0 -5 5 -7 10 -4 6 3 10 8 10 11 0 2 -4 4 -10 4 -5 0 -10
-5 -10 -11z"/>
<path d="M1753 2751 c4 -18 7 -41 7 -50 0 -14 2 -14 10 -1 15 23 12 56 -7 71
-15 13 -16 11 -10 -20z"/>
<path d="M1620 2761 c0 -5 5 -13 10 -16 6 -3 10 -2 10 4 0 5 -4 13 -10 16 -5
3 -10 2 -10 -4z"/>
<path d="M941 2734 c0 -11 3 -14 6 -6 3 7 2 16 -1 19 -3 4 -6 -2 -5 -13z"/>
<path d="M1460 2740 c0 -5 5 -10 10 -10 6 0 10 5 10 10 0 6 -4 10 -10 10 -5 0
-10 -4 -10 -10z"/>
<path d="M936 2693 c-8 -28 -5 -108 5 -124 5 -9 9 14 9 64 0 76 -4 93 -14 60z"/>
<path d="M1458 2575 c-11 -184 -10 -419 2 -450 5 -14 11 -39 12 -55 1 -16 5
-27 9 -24 10 6 3 92 -9 107 -5 7 -10 52 -11 101 -2 80 0 88 13 76 20 -15 20
-3 1 30 -8 14 -14 36 -13 50 0 15 2 18 5 9 8 -31 39 -11 40 26 1 34 1 34 -24
18 -24 -16 -24 -15 -18 8 3 13 7 34 8 47 1 15 6 21 17 17 11 -4 11 -2 -2 8
-13 10 -18 32 -20 88 -3 64 -4 56 -10 -56z"/>
<path d="M1765 2660 c-3 -5 -1 -10 4 -10 6 0 11 5 11 10 0 6 -2 10 -4 10 -3 0
-8 -4 -11 -10z"/>
<path d="M843 2585 c2 -36 7 -68 9 -71 7 -7 18 105 11 122 -13 35 -24 9 -20
-51z"/>
<path d="M2740 2592 c0 -33 3 -63 8 -65 8 -6 7 111 -2 120 -3 3 -6 -21 -6 -55z"/>
<path d="M1708 2623 c-2 -5 -1 -24 3 -43 l6 -35 2 43 c1 39 -3 52 -11 35z"/>
<path d="M1762 2600 c0 -19 2 -27 5 -17 2 9 2 25 0 35 -3 9 -5 1 -5 -18z"/>
<path d="M1106 2605 c-8 -8 -24 -15 -35 -15 -12 0 -21 -4 -21 -9 0 -5 11 -8
24 -5 33 6 77 30 69 37 -10 11 -20 8 -37 -8z"/>
<path d="M1169 2584 c-9 -12 -5 -14 28 -14 21 0 44 -5 51 -12 9 -9 12 -8 12 4
0 23 -75 41 -91 22z"/>
<path d="M891 2562 c-1 -13 6 -30 14 -39 12 -12 13 -18 4 -29 -6 -8 -17 -14
-24 -14 -7 0 -12 -20 -14 -58 -2 -52 1 -61 29 -90 16 -17 30 -39 30 -47 0 -8
5 -15 10 -15 18 0 11 24 -15 52 -24 26 -35 78 -16 78 24 0 29 113 6 140 -7 8
-15 22 -18 30 -3 10 -6 7 -6 -8z"/>
<path d="M1794 2567 c-2 -7 -2 -24 0 -37 2 -14 5 -36 5 -49 1 -33 7 -24 15 22
5 27 4 37 -4 32 -7 -5 -9 2 -4 19 6 26 -3 37 -12 13z"/>
<path d="M1570 2560 l-25 -8 28 -1 c15 -1 27 4 27 9 0 6 -1 10 -2 9 -2 -1 -14
-5 -28 -9z"/>
<path d="M1610 2558 c0 -4 9 -8 20 -8 11 0 20 4 20 9 0 6 -9 9 -20 8 -11 -1
-20 -5 -20 -9z"/>
<path d="M1517 2553 c-12 -12 -7 -22 8 -17 8 4 15 10 15 15 0 11 -14 12 -23 2z"/>
<path d="M1664 2533 c2 -9 8 -19 14 -21 14 -4 15 0 6 22 -8 21 -23 20 -20 -1z"/>
<path d="M1069 2509 c-14 -26 -1 -40 15 -16 22 28 51 21 61 -15 14 -46 46 -45
58 1 11 42 2 49 -69 50 -44 0 -56 -3 -65 -20z m119 -22 c2 -11 -3 -17 -15 -17
-15 0 -16 2 -3 10 13 9 13 11 0 21 -13 9 -13 10 0 6 8 -2 16 -11 18 -20z"/>
<path d="M2780 2285 c0 -131 2 -236 4 -234 7 7 10 458 3 466 -4 3 -7 -101 -7
-232z"/>
<path d="M1227 2480 c6 -33 18 -49 36 -50 4 0 7 7 7 15 0 27 25 11 37 -25 l11
-35 1 31 c1 33 -13 51 -39 50 -8 -1 -25 10 -37 24 l-23 25 7 -35z"/>
<path d="M2737 2443 c-6 -78 -6 -466 0 -413 3 19 9 39 14 44 12 13 12 29 -1
21 -6 -3 -10 4 -10 17 0 18 2 20 10 8 8 -12 10 -9 10 13 0 15 -4 27 -8 27 -4
0 -7 15 -5 33 1 17 4 96 6 175 3 147 -6 193 -16 75z"/>
<path d="M1100 2481 c0 -5 5 -13 10 -16 6 -3 10 -2 10 4 0 5 -4 13 -10 16 -5
3 -10 2 -10 -4z"/>
<path d="M1529 2448 c5 -34 11 -44 27 -46 15 -2 23 4 28 20 9 36 7 70 -4 63
-5 -3 -10 -17 -10 -30 0 -26 -15 -41 -25 -25 -3 5 -1 10 4 10 6 0 11 5 11 11
0 5 -4 7 -10 4 -5 -3 -10 -1 -10 4 0 6 5 11 10 11 6 0 10 5 10 10 0 6 -8 10
-18 10 -16 0 -18 -6 -13 -42z"/>
<path d="M1641 2467 c17 -32 19 -33 19 -10 0 12 -7 23 -15 27 -13 5 -14 2 -4
-17z"/>
<path d="M1686 2482 c-2 -4 -1 -14 5 -22 7 -12 9 -10 9 8 0 23 -5 28 -14 14z"/>
<path d="M1758 2463 c-6 -16 -12 -60 -13 -98 -1 -39 -7 -81 -14 -93 -20 -37
-22 -99 -4 -114 14 -11 15 -7 11 35 -4 33 -1 53 8 62 25 25 33 64 32 150 -1
47 -4 85 -5 85 -2 0 -9 -12 -15 -27z"/>
<path d="M1055 2459 c-4 -6 -5 -12 -2 -15 2 -3 7 2 10 11 7 17 1 20 -8 4z"/>
<path d="M1608 2457 c8 -9 11 -25 7 -37 -7 -23 10 -28 19 -4 10 26 7 33 -16
45 -21 11 -22 11 -10 -4z"/>
<path d="M1657 2424 c-6 -7 16 -54 26 -54 5 0 5 5 1 11 -3 6 -2 14 4 18 7 4 5
11 -7 18 -11 7 -21 10 -24 7z"/>
<path d="M2341 2423 c0 -6 -4 -20 -7 -30 -5 -14 -4 -15 5 -7 7 7 11 20 8 30
-3 11 -5 14 -6 7z"/>
<path d="M140 2388 c0 -36 4 -35 14 5 4 16 2 27 -4 27 -5 0 -10 -14 -10 -32z"/>
<path d="M1001 2404 c0 -11 3 -14 6 -6 3 7 2 16 -1 19 -3 4 -6 -2 -5 -13z"/>
<path d="M1820 2413 c0 -5 -7 -57 -16 -118 -19 -130 -23 -186 -13 -180 3 3 10
39 14 80 4 41 10 75 13 75 4 0 8 34 10 75 1 41 0 75 -3 75 -3 0 -5 -3 -5 -7z"/>
<path d="M1431 2394 c0 -11 3 -14 6 -6 3 7 2 16 -1 19 -3 4 -6 -2 -5 -13z"/>
<path d="M1197 2389 c-10 -6 -27 -9 -38 -6 -10 3 -21 1 -24 -4 -13 -21 48 -21
89 0 35 18 37 21 16 21 -14 -1 -33 -5 -43 -11z"/>
<path d="M1318 2345 c2 -19 9 -38 15 -42 7 -4 8 5 3 28 -9 46 -23 57 -18 14z"/>
<path d="M1002 2345 c0 -16 2 -22 5 -12 2 9 2 23 0 30 -3 6 -5 -1 -5 -18z"/>
<path d="M2330 2148 c0 -122 2 -219 5 -216 9 9 13 428 4 434 -4 2 -8 -96 -9
-218z"/>
<path d="M1434 2275 c0 -49 1 -71 3 -48 2 23 2 64 0 90 -2 26 -3 8 -3 -42z"/>
<path d="M1510 2354 c0 -11 73 -35 91 -29 26 9 24 20 -3 20 -13 1 -38 4 -55 8
-18 3 -33 4 -33 1z"/>
<path d="M152 2325 c0 -16 2 -22 5 -12 2 9 2 23 0 30 -3 6 -5 -1 -5 -18z"/>
<path d="M1893 2280 c0 -36 2 -50 4 -32 2 17 2 47 0 65 -2 17 -4 3 -4 -33z"/>
<path d="M870 2295 c0 -9 5 -15 11 -13 6 2 11 8 11 13 0 5 -5 11 -11 13 -6 2
-11 -4 -11 -13z"/>
<path d="M2313 2220 c0 -36 2 -50 4 -32 2 17 2 47 0 65 -2 17 -4 3 -4 -33z"/>
<path d="M915 2241 c-3 -5 -1 -12 5 -16 5 -3 10 1 10 9 0 18 -6 21 -15 7z"/>
<path d="M1761 2234 c0 -11 3 -14 6 -6 3 7 2 16 -1 19 -3 4 -6 -2 -5 -13z"/>
<path d="M1578 2213 c5 -21 7 -23 10 -9 2 10 0 22 -6 28 -6 6 -7 0 -4 -19z"/>
<path d="M890 2182 c0 -5 6 -16 13 -26 19 -25 51 -17 55 14 2 22 1 23 -8 8
-13 -22 -40 -24 -40 -3 0 8 -4 15 -10 15 -5 0 -10 -4 -10 -8z"/>
<path d="M1246 2127 c-9 -33 -14 -62 -12 -65 7 -6 36 61 36 82 0 8 5 18 10 21
15 9 12 22 -4 22 -8 0 -20 -24 -30 -60z"/>
<path d="M1864 2080 c0 -63 1 -89 3 -57 2 31 2 83 0 115 -2 31 -3 5 -3 -58z"/>
<path d="M1432 2135 c0 -16 2 -22 5 -12 2 9 2 23 0 30 -3 6 -5 -1 -5 -18z"/>
<path d="M1697 2131 c-10 -46 -9 -93 2 -87 5 3 7 14 4 25 -3 12 2 20 16 24 12
3 21 10 21 16 0 6 -6 8 -14 5 -10 -4 -16 3 -18 23 -3 28 -3 28 -11 -6z"/>
<path d="M147 2061 c-4 -35 -6 -103 -6 -150 2 -84 2 -84 11 39 9 140 7 209 -5
111z"/>
<path d="M1645 2100 c3 -5 8 -10 11 -10 2 0 4 5 4 10 0 6 -5 10 -11 10 -5 0
-7 -4 -4 -10z"/>
<path d="M1290 2071 c0 -16 -4 -31 -9 -33 -5 -2 -3 -16 4 -33 l13 -30 12 30
c7 17 12 35 11 40 -4 15 -9 39 -10 48 -1 4 -5 7 -11 7 -5 0 -10 -13 -10 -29z"/>
<path d="M1447 2038 c-10 -80 -7 -417 3 -393 5 12 9 14 9 6 1 -8 10 -24 21
-36 l20 -22 -20 -18 c-17 -15 -23 -17 -29 -6 -10 15 -24 -476 -19 -654 l3
-120 18 40 c9 22 24 54 31 70 8 17 17 42 20 58 5 20 12 27 31 27 14 0 25 -4
25 -10 0 -5 7 -10 15 -10 8 0 15 -5 15 -11 0 -6 -7 -9 -15 -5 -10 4 -15 -1
-15 -14 0 -12 7 -20 18 -21 13 0 13 -2 -4 -9 -14 -5 -28 -27 -39 -59 -9 -30
-23 -51 -31 -51 -8 0 -14 -5 -14 -11 0 -5 6 -7 13 -3 6 4 4 -2 -5 -13 -10 -11
-18 -27 -18 -36 0 -22 -38 -60 -51 -51 -6 3 -19 -2 -30 -12 -18 -16 -19 -33
-19 -347 0 -182 2 -328 5 -326 2 3 5 111 7 240 2 314 9 421 27 427 11 4 13
-49 8 -334 -3 -187 -2 -314 2 -284 5 30 9 123 10 205 6 439 4 401 28 427 12
13 38 58 58 101 20 42 37 77 39 77 1 0 2 -16 1 -35 -1 -19 3 -39 10 -45 8 -7
12 -1 12 23 1 17 4 64 7 104 4 44 2 74 -4 78 -16 10 -12 28 5 21 8 -3 15 0 15
7 0 7 4 6 9 -3 5 -9 5 -40 0 -74 -6 -33 -8 -65 -5 -73 7 -18 36 -17 36 2 0 9
-6 12 -15 9 -17 -7 -21 11 -5 21 6 4 8 21 4 41 -9 49 2 42 27 -16 12 -28 27
-54 33 -58 20 -13 71 -86 90 -129 19 -43 39 -51 28 -11 -5 22 -50 85 -91 129
-12 13 -20 28 -17 34 2 6 -5 17 -16 24 -11 7 -17 15 -14 18 3 4 0 13 -7 21
-10 13 -9 14 1 8 8 -5 6 6 -5 28 -10 20 -28 39 -39 42 -16 4 -28 23 -44 71
-21 62 -21 65 -3 78 13 9 22 10 30 3 15 -12 18 9 5 30 -7 9 -15 6 -36 -13 -30
-28 -36 -30 -36 -13 0 7 -16 28 -35 48 -43 44 -55 97 -32 134 l16 24 48 -17
c46 -16 50 -16 86 2 46 22 44 31 -3 17 -46 -13 -110 -1 -137 26 -26 26 -31 76
-12 118 12 26 39 42 48 29 3 -5 32 -16 63 -26 60 -19 99 -15 120 11 11 14 10
15 -7 8 -42 -17 -66 -18 -90 -2 -14 9 -30 14 -34 11 -5 -3 -16 2 -24 10 -9 8
-18 15 -21 15 -16 0 -46 37 -46 56 0 37 20 81 44 93 19 11 38 7 126 -23 65
-23 111 -34 124 -30 19 7 33 9 71 13 6 1 2 6 -7 11 -11 7 -26 7 -43 0 -27 -10
-98 3 -119 22 -6 4 -18 8 -27 8 -9 0 -22 6 -28 14 -7 8 -19 12 -29 9 -11 -3
-23 7 -36 27 -16 28 -17 37 -6 76 7 25 17 47 22 50 5 3 4 12 -3 20 -16 20 -28
17 -22 -5 3 -10 0 -22 -6 -25 -6 -4 -11 -2 -11 3 0 6 -12 11 -26 11 -22 0 -24
-3 -18 -22 11 -36 55 -122 68 -131 7 -5 2 -7 -11 -4 -24 5 -51 -18 -69 -61
-10 -26 -11 -25 -18 25 -9 61 -4 73 27 66 20 -4 20 -3 -5 17 -22 17 -28 30
-28 61 0 21 5 39 10 39 6 0 10 12 10 28 0 31 25 72 44 72 6 0 30 -18 51 -40
21 -22 48 -40 58 -40 30 0 165 -67 224 -111 75 -56 83 -77 99 -266 17 -198 35
-318 69 -438 14 -49 25 -97 25 -106 0 -10 15 -40 34 -68 43 -63 74 -145 82
-216 4 -30 10 -53 13 -51 12 8 38 -20 61 -64 23 -44 23 -46 15 -327 -4 -180
-3 -283 3 -283 15 0 21 177 26 720 3 383 2 436 -4 220 -8 -331 -12 -374 -19
-265 -5 62 -9 80 -21 80 -19 0 -20 -22 -3 -55 22 -43 16 -57 -12 -29 -30 29
-48 92 -20 69 10 -9 5 10 -14 47 -17 33 -31 68 -31 76 0 9 -4 18 -9 22 -5 3
-12 19 -16 35 -4 17 -13 30 -20 30 -9 0 -12 6 -9 15 4 9 0 15 -10 15 -9 0 -18
12 -22 28 -3 15 -19 78 -35 141 -16 63 -29 131 -29 151 0 20 -3 40 -7 44 -4 4
-8 24 -9 44 -1 21 -4 47 -8 59 -11 34 -17 285 -6 278 4 -3 11 3 14 13 3 10 24
37 46 61 22 23 40 47 40 51 0 12 -64 60 -78 60 -7 0 -12 -4 -12 -10 0 -5 -6
-10 -14 -10 -18 0 -40 -26 -27 -34 12 -8 -10 -67 -24 -63 -5 2 -14 21 -19 42
-7 31 -6 41 8 50 9 7 16 17 16 24 0 6 12 11 26 11 22 0 25 2 14 15 -7 8 -18
15 -25 15 -7 0 -18 7 -25 15 -23 28 -30 15 -30 -59 0 -41 -3 -77 -8 -79 -4 -3
-17 3 -30 13 -18 15 -22 28 -22 80 0 72 -12 90 -70 97 -33 5 -40 3 -40 -11 0
-9 8 -16 18 -17 70 -3 97 -22 65 -48 -20 -17 -20 -19 -5 -34 24 -25 9 -30 -32
-10 -29 14 -35 22 -31 40 4 16 -1 23 -16 28 -12 4 -18 12 -15 21 3 7 1 16 -4
19 -6 4 -10 -9 -10 -29 0 -43 -11 -51 -34 -24 -12 14 -20 17 -25 10 -4 -7 -22
3 -47 28 -43 41 -61 45 -92 17 -18 -16 -18 -15 -21 30 -3 64 -7 64 -14 1z
m465 -103 c0 -5 -5 -11 -11 -13 -6 -2 -11 4 -11 13 0 9 5 15 11 13 6 -2 11 -8
11 -13z m-392 -35 c0 -5 -2 -10 -4 -10 -3 0 -8 5 -11 10 -3 6 -1 10 4 10 6 0
11 -4 11 -10z m8 -45 c-3 -3 -9 2 -12 12 -6 14 -5 15 5 6 7 -7 10 -15 7 -18z
m502 10 c0 -9 -12 -26 -27 -39 -18 -16 -26 -33 -26 -55 0 -17 -4 -27 -7 -20
-5 8 -11 6 -17 -6 -13 -23 -27 -2 -19 29 15 59 96 136 96 91z m-520 -672 c17
-21 33 -49 37 -63 3 -14 13 -37 22 -53 18 -32 6 -62 -27 -62 -29 0 -59 -31
-66 -70 -4 -19 -11 -37 -17 -41 -14 -8 -9 176 5 195 8 11 8 13 -1 8 -9 -6 -11
8 -8 55 2 35 4 64 4 66 4 10 24 -4 51 -35z"/>
<path d="M1647 2073 c-4 -3 -7 -20 -6 -37 l1 -31 9 34 c10 33 8 47 -4 34z"/>
<path d="M1881 2043 c0 -29 2 -33 8 -18 7 18 4 55 -5 55 -2 0 -4 -17 -3 -37z"/>
<path d="M2754 1885 c0 -99 2 -138 3 -87 2 51 2 132 0 180 -1 48 -3 6 -3 -93z"/>
<path d="M1360 2040 c-12 -8 -11 -10 8 -10 12 0 22 5 22 10 0 13 -11 13 -30 0z"/>
<path d="M834 2008 c-9 -18 -23 -41 -32 -50 -9 -11 -11 -18 -4 -18 12 0 62 50
62 62 0 5 5 8 10 8 6 0 10 -9 10 -19 0 -11 5 -23 10 -26 12 -7 14 45 2 60 -16
22 -41 15 -58 -17z"/>
<path d="M2781 2023 c0 -12 -4 -30 -7 -40 -5 -14 -4 -15 5 -7 7 6 11 24 8 40
-3 21 -4 23 -6 7z"/>
<path d="M1401 1915 c-2 -70 1 -105 9 -105 6 0 8 11 4 28 -4 21 -3 24 5 12 8
-11 11 -2 11 38 0 28 -4 52 -9 52 -5 0 -7 18 -4 40 3 23 1 40 -4 40 -5 0 -11
-47 -12 -105z"/>
<path d="M1325 2000 c3 -5 8 -10 11 -10 2 0 4 5 4 10 0 6 -5 10 -11 10 -5 0
-7 -4 -4 -10z"/>
<path d="M1364 2002 c-14 -9 -25 -100 -13 -108 5 -3 9 4 9 14 0 11 7 36 15 55
20 49 18 58 -11 39z"/>
<path d="M645 1990 c-3 -5 -2 -10 4 -10 5 0 13 5 16 10 3 6 2 10 -4 10 -5 0
-13 -4 -16 -10z"/>
<path d="M2734 1815 c0 -99 2 -138 3 -87 2 51 2 132 0 180 -1 48 -3 6 -3 -93z"/>
<path d="M914 1959 c-3 -6 -1 -16 5 -22 8 -8 11 -5 11 11 0 24 -5 28 -16 11z"/>
<path d="M1515 1940 c3 -5 8 -10 11 -10 2 0 4 5 4 10 0 6 -5 10 -11 10 -5 0
-7 -4 -4 -10z"/>
<path d="M1861 1934 c0 -11 3 -14 6 -6 3 7 2 16 -1 19 -3 4 -6 -2 -5 -13z"/>
<path d="M376 1925 c-9 -26 -7 -32 5 -12 6 10 9 21 6 23 -2 3 -7 -2 -11 -11z"/>
<path d="M1081 1924 c0 -11 3 -14 6 -6 3 7 2 16 -1 19 -3 4 -6 -2 -5 -13z"/>
<path d="M2304 1790 c0 -74 1 -105 3 -67 2 37 2 97 0 135 -2 37 -3 6 -3 -68z"/>
<path d="M2325 1908 c-11 -33 -31 -1858 -20 -1847 11 12 39 1859 28 1859 -2 0
-6 -6 -8 -12z"/>
<path d="M2767 1643 c-4 -153 -9 -516 -12 -808 -3 -291 -8 -597 -10 -679 -3
-83 -4 -148 -1 -145 8 9 16 181 21 469 17 920 22 1427 12 1436 -2 2 -7 -121
-10 -273z"/>
<path d="M1602 1894 c-20 -22 -10 -34 11 -14 10 10 15 20 10 23 -4 3 -14 -2
-21 -9z"/>
<path d="M438 1861 c-10 -10 -18 -22 -18 -28 0 -6 -7 -13 -15 -17 -8 -3 -15
-10 -15 -16 0 -13 45 27 65 57 18 27 8 30 -17 4z"/>
<path d="M1313 1856 c5 -13 3 -15 -11 -7 -19 10 -72 3 -72 -9 0 -4 -9 -10 -20
-13 -11 -3 -20 -12 -20 -21 0 -20 14 -21 30 -1 7 8 28 15 48 15 40 0 102 -20
102 -33 0 -4 5 -5 10 -2 15 9 13 78 -2 72 -7 -2 -12 -10 -10 -16 1 -6 -7 -11
-18 -11 -11 0 -20 6 -20 14 0 8 -5 18 -12 22 -8 5 -9 2 -5 -10z"/>
<path d="M493 1843 c-13 -8 -23 -19 -23 -24 0 -4 10 -9 23 -11 17 -2 23 -11
25 -35 2 -18 0 -33 -5 -33 -4 0 -7 -68 -6 -152 1 -110 -1 -155 -10 -160 -9 -6
-9 -8 0 -8 9 0 11 -80 7 -332 -2 -183 -7 -335 -11 -339 -5 -5 -35 -22 -68 -40
-33 -17 -80 -45 -104 -62 -40 -27 -45 -29 -56 -13 -11 15 -13 15 -26 0 -20
-25 -16 -81 8 -105 28 -29 43 -17 43 34 0 41 2 43 67 82 37 22 88 50 114 63
l47 23 1 302 c1 166 4 420 7 565 4 151 3 262 -2 261 -5 0 -19 -7 -31 -16z
m-225 -1235 c-2 -6 -10 -14 -16 -16 -7 -2 -10 2 -6 12 7 18 28 22 22 4z m-11
-50 c-3 -8 -6 -5 -6 6 -1 11 2 17 5 13 3 -3 4 -12 1 -19z"/>
<path d="M645 1850 c3 -5 16 -15 28 -21 22 -12 22 -12 3 10 -19 21 -43 30 -31
11z"/>
<path d="M2258 1833 c-2 -10 -1 -38 3 -63 6 -42 6 -41 6 18 0 64 -2 75 -9 45z"/>
<path d="M2100 1835 c0 -2 18 -23 41 -47 23 -24 50 -60 61 -81 25 -51 48 -171
48 -258 0 -39 4 -69 10 -69 12 0 10 329 -2 336 -4 3 -5 -1 -3 -9 3 -7 2 -24
-3 -37 -8 -23 -11 -21 -36 30 -30 59 -91 140 -107 140 -5 0 -9 -2 -9 -5z"/>
<path d="M150 1698 c0 -69 -3 -207 -7 -306 -3 -107 -2 -182 3 -182 5 0 9 55
10 123 1 67 2 202 4 300 2 97 0 180 -3 184 -4 3 -7 -50 -7 -119z"/>
<path d="M1409 1798 c-4 -19 -3 -500 2 -539 4 -33 7 30 9 156 1 116 4 249 5
298 1 48 -2 87 -6 87 -5 0 -9 -1 -10 -2z"/>
<path d="M335 1737 c-33 -47 -39 -59 -49 -102 -4 -18 9 -1 33 42 21 40 44 80
51 88 7 8 9 15 4 15 -5 -1 -22 -20 -39 -43z"/>
<path d="M2092 1768 c8 -7 25 -22 38 -33 25 -20 25 -20 10 0 -18 24 -42 44
-53 45 -5 0 -2 -6 5 -12z"/>
<path d="M1022 1750 c0 -14 2 -19 5 -12 2 6 2 18 0 25 -3 6 -5 1 -5 -13z"/>
<path d="M1850 1761 c0 -5 5 -13 10 -16 6 -3 10 -2 10 4 0 5 -4 13 -10 16 -5
3 -10 2 -10 -4z"/>
<path d="M2284 1505 c0 -143 2 -200 3 -127 2 73 2 190 0 260 -1 70 -3 10 -3
-133z"/>
<path d="M660 1740 c0 -5 5 -10 11 -10 5 0 7 5 4 10 -3 6 -8 10 -11 10 -2 0
-4 -4 -4 -10z"/>
<path d="M85 1730 c-3 -5 -1 -10 4 -10 6 0 11 5 11 10 0 6 -2 10 -4 10 -3 0
-8 -4 -11 -10z"/>
<path d="M382 1708 c-7 -7 -12 -16 -12 -21 0 -5 7 -1 16 8 9 9 14 18 12 20 -2
3 -10 -1 -16 -7z"/>
<path d="M1368 1696 c-3 -15 0 -31 8 -37 11 -9 14 -7 14 12 0 38 -16 56 -22
25z"/>
<path d="M1880 1696 c0 -9 5 -16 10 -16 6 0 10 4 10 9 0 6 -4 13 -10 16 -5 3
-10 -1 -10 -9z"/>
<path d="M2699 1663 c-7 -168 -6 -453 2 -453 5 0 9 100 9 240 0 132 -2 240 -5
240 -3 0 -5 -12 -6 -27z"/>
<path d="M1891 1605 c1 -33 3 -52 6 -42 2 9 9 14 15 11 14 -9 3 65 -12 80 -7
7 -10 -8 -9 -49z"/>
<path d="M331 1603 c0 -25 1 -26 9 -8 12 27 12 35 0 35 -5 0 -10 -12 -9 -27z"/>
<path d="M2732 1610 c0 -14 2 -19 5 -12 2 6 2 18 0 25 -3 6 -5 1 -5 -13z"/>
<path d="M1441 1604 c0 -11 3 -14 6 -6 3 7 2 16 -1 19 -3 4 -6 -2 -5 -13z"/>
<path d="M1700 1611 c0 -4 19 -12 42 -17 49 -11 60 -30 24 -44 -28 -10 -35
-30 -11 -30 49 0 68 -16 63 -56 -3 -21 0 -33 6 -30 6 2 19 -3 29 -12 11 -10
17 -11 17 -4 0 7 -4 12 -9 12 -6 0 -7 16 -4 35 5 30 3 35 -14 35 -15 0 -23 11
-32 43 -7 23 -20 50 -29 60 -15 17 -82 25 -82 8z"/>
<path d="M2183 1605 c0 -8 4 -15 9 -15 4 0 8 4 8 9 0 6 -4 12 -8 15 -5 3 -9
-1 -9 -9z"/>
<path d="M1648 1603 c7 -3 16 -2 19 1 4 3 -2 6 -13 5 -11 0 -14 -3 -6 -6z"/>
<path d="M2130 1580 c-8 -5 -12 -12 -9 -15 4 -3 12 1 19 10 14 17 11 19 -10 5z"/>
<path d="M2160 1550 c0 -5 7 -7 15 -4 8 4 15 8 15 10 0 2 -7 4 -15 4 -8 0 -15
-4 -15 -10z"/>
<path d="M2145 1520 c-8 -13 5 -13 25 0 13 8 13 10 -2 10 -9 0 -20 -4 -23 -10z"/>
<path d="M902 1495 c-14 -31 -16 -53 -3 -39 9 9 24 64 18 64 -2 0 -9 -11 -15
-25z"/>
<path d="M2085 1510 c-3 -5 -2 -10 4 -10 5 0 13 5 16 10 3 6 2 10 -4 10 -5 0
-13 -4 -16 -10z"/>
<path d="M246 1412 c-12 -128 -11 -221 1 -233 9 -9 13 22 15 140 3 160 -6 210
-16 93z"/>
<path d="M1560 1470 c0 -13 20 -13 40 0 12 8 9 10 -12 10 -16 0 -28 -4 -28
-10z"/>
<path d="M301 1444 c0 -11 3 -14 6 -6 3 7 2 16 -1 19 -3 4 -6 -2 -5 -13z"/>
<path d="M1682 1432 c13 -16 25 -25 27 -20 4 11 -28 48 -41 48 -5 0 1 -13 14
-28z"/>
<path d="M1922 1435 c0 -16 2 -22 5 -12 2 9 2 23 0 30 -3 6 -5 -1 -5 -18z"/>
<path d="M1195 1441 c-16 -3 -28 -9 -25 -13 7 -10 -75 -78 -93 -78 -23 0 -47
-11 -47 -21 0 -20 50 -7 86 22 22 17 58 42 82 56 23 14 39 29 36 34 -3 5 -6 8
-7 8 -1 -1 -15 -4 -32 -8z"/>
<path d="M866 1418 c3 -4 0 -8 -5 -8 -6 0 -11 -7 -11 -15 0 -20 10 -19 26 3
17 22 17 29 -1 29 -8 0 -12 -4 -9 -9z"/>
<path d="M2174 1423 c10 -11 36 -12 36 -2 0 5 -10 9 -22 9 -12 0 -18 -3 -14
-7z"/>
<path d="M1801 1398 c0 -16 2 -18 6 -8 3 8 11 18 17 22 7 5 4 8 -6 8 -12 0
-18 -7 -17 -22z"/>
<path d="M2726 1393 c-6 -14 -5 -15 5 -6 7 7 10 15 7 18 -3 3 -9 -2 -12 -12z"/>
<path d="M1750 1383 c0 -5 7 -16 14 -26 10 -13 15 -15 18 -5 3 7 -1 18 -8 25
-14 15 -24 17 -24 6z"/>
<path d="M1702 1358 c7 -13 18 -26 23 -30 6 -5 5 -8 -2 -8 -7 0 -13 -7 -13
-15 0 -9 -6 -12 -15 -9 -22 9 -18 -10 8 -37 22 -25 67 -36 67 -18 0 6 -4 7
-10 4 -5 -3 -10 2 -10 11 0 10 -8 26 -17 37 -17 19 -17 19 6 12 13 -4 21 -3
19 1 -3 5 -11 24 -18 42 -9 19 -22 32 -32 32 -16 0 -17 -3 -6 -22z m35 -97
c-1 -15 -4 -17 -14 -9 -7 5 -10 14 -7 19 10 16 23 9 21 -10z"/>
<path d="M933 1358 c-6 -7 -18 -37 -27 -65 -10 -29 -21 -55 -26 -58 -10 -6 -7
-81 3 -91 4 -4 7 0 7 8 0 9 7 15 16 14 9 0 19 6 21 14 4 13 3 13 -6 0 -8 -11
-10 -4 -8 28 1 30 6 44 19 48 10 3 15 11 11 20 -3 7 0 15 6 15 26 3 30 4 36
11 4 4 4 11 0 17 -4 7 -14 5 -31 -5 -22 -15 -24 -15 -24 0 0 9 7 19 15 22 16
7 21 34 6 34 -5 0 -13 -6 -18 -12z"/>
<path d="M1886 1345 c4 -8 8 -15 10 -15 2 0 4 7 4 15 0 8 -4 15 -10 15 -5 0
-7 -7 -4 -15z"/>
<path d="M876 1315 c-9 -26 -7 -32 5 -12 6 10 9 21 6 23 -2 3 -7 -2 -11 -11z"/>
<path d="M1502 1318 c5 -15 28 -23 28 -10 0 5 -7 13 -16 16 -10 4 -14 1 -12
-6z"/>
<path d="M2722 1120 c-1 -118 -4 -282 -6 -365 l-5 -150 10 125 c5 69 8 233 6
365 l-2 240 -3 -215z"/>
<path d="M2230 1307 c0 -9 -7 -17 -15 -17 -9 0 -12 -6 -9 -15 4 -8 10 -15 15
-15 11 0 24 49 15 57 -3 4 -6 -1 -6 -10z"/>
<path d="M1250 1283 c-8 -4 -37 -25 -65 -47 -27 -23 -63 -48 -79 -56 -23 -12
-25 -16 -11 -18 9 -2 36 10 59 27 22 17 60 43 83 58 52 34 59 53 13 36z"/>
<path d="M1830 1270 c0 -5 5 -10 11 -10 5 0 7 5 4 10 -3 6 -8 10 -11 10 -2 0
-4 -4 -4 -10z"/>
<path d="M83 1230 c0 -25 2 -35 4 -22 2 12 2 32 0 45 -2 12 -4 2 -4 -23z"/>
<path d="M1074 1241 c4 -5 1 -12 -4 -14 -6 -3 -5 -4 2 -3 15 3 23 26 8 26 -6
0 -9 -4 -6 -9z"/>
<path d="M2180 1239 c0 -5 5 -7 10 -4 6 3 10 8 10 11 0 2 -4 4 -10 4 -5 0 -10
-5 -10 -11z"/>
<path d="M2215 1220 l-30 -20 26 0 c16 0 30 7 33 16 9 25 3 25 -29 4z"/>
<path d="M1635 1220 c3 -5 11 -10 16 -10 6 0 7 5 4 10 -3 6 -11 10 -16 10 -6
0 -7 -4 -4 -10z"/>
<path d="M1020 1200 c-8 -5 -12 -12 -9 -15 4 -3 12 1 19 10 14 17 11 19 -10 5z"/>
<path d="M1400 1180 c0 -11 2 -20 4 -20 2 0 6 9 9 20 3 11 1 20 -4 20 -5 0 -9
-9 -9 -20z"/>
<path d="M2690 1113 c0 -49 -1 -183 -3 -299 -2 -116 0 -220 4 -230 4 -10 8 98
9 241 0 143 2 286 4 318 2 31 0 57 -5 57 -5 0 -9 -39 -9 -87z"/>
<path d="M532 1027 c-9 -386 -18 -1022 -15 -1026 14 -18 18 47 21 292 2 155 6
284 9 287 2 3 3 -127 1 -288 -2 -160 0 -292 5 -292 4 0 7 82 7 183 0 100 2
263 5 362 2 104 1 165 -4 145 l-8 -35 -3 40 c-2 22 -2 138 -1 258 2 119 -1
217 -5 217 -5 0 -10 -64 -12 -143z"/>
<path d="M1641 1156 c-6 -7 -21 -12 -34 -11 -12 1 -14 0 -4 -2 10 -3 17 -14
17 -29 0 -13 5 -24 10 -24 6 0 10 6 9 13 -1 6 -1 21 1 32 1 19 2 19 9 1 7 -18
8 -18 14 -3 3 9 2 17 -4 17 -6 0 -7 5 -4 10 9 15 -1 12 -14 -4z"/>
<path d="M2220 1160 c0 -5 5 -10 10 -10 6 0 10 5 10 10 0 6 -4 10 -10 10 -5 0
-10 -4 -10 -10z"/>
<path d="M142 1130 c0 -19 2 -27 5 -17 2 9 2 25 0 35 -3 9 -5 1 -5 -18z"/>
<path d="M241 1130 c0 -29 1 -32 10 -17 7 11 7 23 0 35 -9 14 -10 11 -10 -18z"/>
<path d="M1020 1156 c0 -2 7 -6 15 -10 8 -3 15 -1 15 4 0 6 -7 10 -15 10 -8 0
-15 -2 -15 -4z"/>
<path d="M1000 1130 c0 -5 5 -10 10 -10 6 0 10 5 10 10 0 6 -4 10 -10 10 -5 0
-10 -4 -10 -10z"/>
<path d="M871 1108 c-1 -15 4 -30 9 -33 12 -7 12 12 0 40 -8 18 -9 17 -9 -7z"/>
<path d="M2205 1111 c-7 -12 12 -24 25 -16 11 7 4 25 -10 25 -5 0 -11 -4 -15
-9z"/>
<path d="M960 1103 c0 -5 7 -19 16 -31 8 -12 12 -22 8 -22 -3 0 -1 -7 6 -15
15 -18 30 -11 30 16 0 10 -7 19 -15 19 -9 0 -15 7 -13 17 2 10 -4 19 -14 21
-10 2 -18 0 -18 -5z"/>
<path d="M1388 941 c-2 -94 -1 -171 3 -171 9 0 29 24 29 35 0 5 -5 3 -10 -5
-7 -10 -10 35 -9 143 1 87 -1 161 -4 164 -3 3 -7 -72 -9 -166z"/>
<path d="M2252 993 c-1 -67 -5 -130 -8 -140 -5 -17 -5 -17 6 -1 7 11 9 62 7
140 l-3 123 -2 -122z"/>
<path d="M141 861 c0 -129 1 -232 4 -230 2 3 5 59 6 124 1 66 4 140 8 165 4
25 1 74 -5 110 -10 58 -12 41 -13 -169z"/>
<path d="M251 1064 c0 -11 3 -14 6 -6 3 7 2 16 -1 19 -3 4 -6 -2 -5 -13z"/>
<path d="M1610 1071 c0 -6 5 -13 10 -16 6 -3 10 1 10 9 0 9 -4 16 -10 16 -5 0
-10 -4 -10 -9z"/>
<path d="M1660 1065 c0 -10 42 -46 47 -41 4 3 -4 15 -17 26 -24 21 -30 24 -30
15z"/>
<path d="M2220 1050 c0 -19 3 -21 12 -12 9 9 9 15 0 24 -9 9 -12 7 -12 -12z"/>
<path d="M83 970 c0 -30 2 -43 4 -27 2 15 2 39 0 55 -2 15 -4 2 -4 -28z"/>
<path d="M975 1010 c3 -5 8 -10 11 -10 2 0 4 5 4 10 0 6 -5 10 -11 10 -5 0 -7
-4 -4 -10z"/>
<path d="M2217 989 c4 -13 8 -18 11 -10 2 7 -1 18 -6 23 -8 8 -9 4 -5 -13z"/>
<path d="M872 974 c-7 -8 -10 -14 -7 -14 4 0 -1 -7 -9 -16 -18 -18 -23 -89 -5
-78 6 3 9 15 6 25 -3 11 -1 19 3 19 8 0 33 71 27 76 -1 1 -8 -4 -15 -12z"/>
<path d="M1055 970 c-10 -11 -13 -20 -8 -20 13 0 38 29 31 35 -3 3 -13 -4 -23
-15z"/>
<path d="M1525 970 c-4 -7 -1 -16 6 -21 17 -10 26 8 11 23 -6 6 -12 6 -17 -2z"/>
<path d="M261 944 c0 -11 3 -14 6 -6 3 7 2 16 -1 19 -3 4 -6 -2 -5 -13z"/>
<path d="M301 944 c0 -11 3 -14 6 -6 3 7 2 16 -1 19 -3 4 -6 -2 -5 -13z"/>
<path d="M1136 944 c-4 -9 -4 -19 -1 -22 2 -3 7 3 11 12 4 9 4 19 1 22 -2 3
-7 -3 -11 -12z"/>
<path d="M2022 937 c-9 -11 -10 -17 -2 -22 8 -5 8 -11 -1 -21 -9 -11 -9 -18
-1 -26 6 -6 8 -18 6 -27 -3 -9 3 -2 12 16 13 24 15 40 8 64 -8 28 -11 30 -22
16z"/>
<path d="M2206 935 c4 -8 11 -15 16 -15 6 0 5 6 -2 15 -7 8 -14 15 -16 15 -2
0 -1 -7 2 -15z"/>
<path d="M1060 921 c0 -6 4 -13 10 -16 6 -3 7 1 4 9 -7 18 -14 21 -14 7z"/>
<path d="M1510 915 c0 -8 -4 -15 -8 -15 -5 0 -9 -14 -9 -30 0 -24 -11 -41 -54
-81 -37 -35 -47 -49 -31 -44 17 5 22 2 22 -11 0 -16 1 -16 20 1 11 10 20 30
20 45 0 16 7 30 15 34 8 3 15 11 15 19 0 7 8 29 19 49 10 21 16 40 13 43 -10
10 -22 5 -22 -10z"/>
<path d="M1047 879 c4 -13 8 -18 11 -10 2 7 -1 18 -6 23 -8 8 -9 4 -5 -13z"/>
<path d="M261 874 c0 -11 3 -14 6 -6 3 7 2 16 -1 19 -3 4 -6 -2 -5 -13z"/>
<path d="M301 864 c0 -11 3 -14 6 -6 3 7 2 16 -1 19 -3 4 -6 -2 -5 -13z"/>
<path d="M1139 872 c-1 -4 0 -23 1 -43 2 -60 -20 -161 -46 -206 -13 -23 -24
-50 -24 -61 0 -26 -29 -51 -76 -64 -31 -10 -34 -13 -17 -16 12 -2 35 4 52 12
22 12 30 13 34 3 8 -22 -13 -46 -51 -57 -46 -12 -52 -12 -52 0 0 6 -22 32 -50
59 -27 27 -50 51 -50 55 0 3 -8 15 -17 26 -10 11 -26 48 -35 83 -9 34 -17 53
-17 42 -1 -17 -3 -17 -11 -5 -6 9 -10 10 -10 3 0 -6 4 -14 9 -17 5 -3 12 -20
15 -38 3 -18 24 -55 46 -83 22 -27 45 -59 51 -71 6 -11 23 -28 37 -38 l27 -17
-30 4 c-27 5 -28 4 -10 -9 43 -32 157 -5 169 39 3 12 6 37 6 56 0 18 13 61 30
95 47 95 67 237 35 250 -8 3 -15 2 -16 -2z"/>
<path d="M2212 850 c0 -19 2 -27 5 -17 2 9 2 25 0 35 -3 9 -5 1 -5 -18z"/>
<path d="M792 821 c-21 -46 -31 -116 -14 -95 12 14 45 120 41 133 -2 6 -14
-11 -27 -38z"/>
<path d="M2061 818 c7 -27 6 -52 0 -71 -6 -16 -9 -32 -7 -36 10 -16 -16 -103
-36 -125 -31 -32 -117 -44 -156 -20 -36 21 -77 86 -93 147 -6 26 -14 46 -16
43 -9 -9 28 -131 47 -158 15 -20 16 -26 5 -22 -21 8 -19 -9 3 -29 27 -24 71
-30 138 -18 76 14 115 54 137 142 13 53 13 67 0 124 -8 36 -18 65 -23 65 -4 0
-4 -19 1 -42z m16 -110 c-2 -13 -4 -5 -4 17 -1 22 1 32 4 23 2 -10 2 -28 0
-40z"/>
<path d="M1670 841 c0 -5 5 -13 10 -16 6 -3 10 -2 10 4 0 5 -4 13 -10 16 -5 3
-10 2 -10 -4z"/>
<path d="M1184 804 c-4 -23 -2 -39 6 -47 10 -10 11 -5 7 20 -4 18 -2 35 3 38
13 8 13 25 0 25 -5 0 -12 -16 -16 -36z"/>
<path d="M1600 827 c0 -7 6 -14 14 -14 22 0 93 -65 100 -92 4 -13 10 -21 13
-17 3 3 -2 23 -11 44 -12 26 -32 46 -67 65 -35 20 -49 24 -49 14z"/>
<path d="M290 794 c0 -8 5 -12 10 -9 6 4 8 11 5 16 -9 14 -15 11 -15 -7z"/>
<path d="M2206 797 c3 -10 9 -15 12 -12 3 3 0 11 -7 18 -10 9 -11 8 -5 -6z"/>
<path d="M1235 780 c3 -5 8 -10 11 -10 2 0 4 5 4 10 0 6 -5 10 -11 10 -5 0 -7
-4 -4 -10z"/>
<path d="M1603 775 c0 -7 8 -10 17 -8 8 2 24 -5 34 -16 11 -12 24 -21 30 -21
6 0 -4 13 -21 28 -32 30 -60 37 -60 17z"/>
<path d="M1731 764 c0 -11 3 -14 6 -6 3 7 2 16 -1 19 -3 4 -6 -2 -5 -13z"/>
<path d="M302 758 c-7 -7 -12 -19 -12 -27 1 -11 5 -8 13 7 7 12 17 19 22 15 4
-4 5 -2 1 5 -9 15 -9 15 -24 0z"/>
<path d="M726 762 c-2 -4 4 -14 15 -20 19 -12 19 -11 9 8 -12 22 -16 24 -24
12z"/>
<path d="M1630 747 c0 -4 10 -18 23 -33 12 -14 29 -47 39 -74 14 -42 78 -153
84 -147 7 6 -107 225 -125 241 -11 11 -21 16 -21 13z"/>
<path d="M1185 730 c3 -5 10 -10 16 -10 5 0 9 5 9 10 0 6 -7 10 -16 10 -8 0
-12 -4 -9 -10z"/>
<path d="M721 708 c-2 -56 107 -248 141 -248 6 0 4 8 -5 18 -10 10 -17 22 -17
27 0 4 -11 18 -25 31 -34 32 -95 158 -68 141 5 -3 9 6 10 21 1 15 -1 21 -4 15
-7 -18 -21 -16 -26 5 -3 11 -5 7 -6 -10z"/>
<path d="M1380 705 c0 -15 4 -24 10 -20 6 3 10 12 10 20 0 8 -4 17 -10 20 -6
4 -10 -5 -10 -20z"/>
<path d="M1411 714 c0 -11 3 -14 6 -6 3 7 2 16 -1 19 -3 4 -6 -2 -5 -13z"/>
<path d="M1444 708 l-19 -23 23 19 c21 18 27 26 19 26 -2 0 -12 -10 -23 -22z"/>
<path d="M2112 705 c3 -34 30 -42 36 -11 2 11 0 16 -6 12 -6 -4 -16 2 -22 11
-9 15 -10 13 -8 -12z"/>
<path d="M1690 713 c1 -13 29 -59 30 -48 0 21 -13 55 -21 55 -5 0 -9 -3 -9 -7z"/>
<path d="M1738 709 c-7 -19 1 -67 13 -75 5 -3 9 -13 9 -22 0 -15 -2 -15 -11
-2 -7 10 -9 11 -7 2 2 -8 8 -14 13 -14 6 0 16 -5 24 -11 10 -9 9 -3 -3 21 -10
19 -21 52 -25 75 -4 26 -9 36 -13 26z"/>
<path d="M1171 694 c-16 -18 -14 -20 22 -29 26 -7 28 -5 25 16 -4 28 -28 35
-47 13z"/>
<path d="M1230 691 c0 -5 5 -13 10 -16 6 -3 10 -2 10 4 0 5 -4 13 -10 16 -5 3
-10 2 -10 -4z"/>
<path d="M2138 613 c-23 -65 -65 -127 -100 -147 -68 -41 -165 -12 -237 70 -50
57 -55 35 -6 -30 72 -93 171 -111 261 -48 39 28 45 30 52 14 5 -9 7 -23 4 -31
-3 -8 0 -11 6 -7 7 4 9 25 5 54 -4 38 -1 58 16 91 12 23 21 52 19 63 -2 13 -8
4 -20 -29z"/>
<path d="M123 530 c0 -41 2 -58 4 -37 2 20 2 54 0 75 -2 20 -4 3 -4 -38z"/>
<path d="M950 555 c0 -8 4 -15 10 -15 5 0 7 7 4 15 -4 8 -8 15 -10 15 -2 0 -4
-7 -4 -15z"/>
<path d="M690 504 c-11 -32 -20 -67 -18 -78 2 -13 13 8 27 52 28 87 22 107 -9
26z"/>
<path d="M2711 494 c0 -11 3 -14 6 -6 3 7 2 16 -1 19 -3 4 -6 -2 -5 -13z"/>
<path d="M269 478 c-1 -5 -2 -12 -3 -17 0 -5 -4 -12 -7 -15 -3 -3 -2 -34 2
-68 4 -35 8 -106 9 -158 0 -52 7 -124 15 -160 l14 -65 -4 110 c-3 61 -5 162
-6 225 -1 63 -5 124 -10 135 -4 11 -8 17 -10 13z"/>
<path d="M1790 478 c-2 -24 0 -377 2 -425 1 -32 5 46 8 172 3 127 2 237 -2
245 -4 8 -8 12 -8 8z"/>
<path d="M2731 464 c0 -11 3 -14 6 -6 3 7 2 16 -1 19 -3 4 -6 -2 -5 -13z"/>
<path d="M716 455 c-9 -26 -7 -32 5 -12 6 10 9 21 6 23 -2 3 -7 -2 -11 -11z"/>
<path d="M796 445 c4 -8 11 -15 16 -15 6 0 5 6 -2 15 -7 8 -14 15 -16 15 -2 0
-1 -7 2 -15z"/>
<path d="M142 430 c0 -14 2 -19 5 -12 2 6 2 18 0 25 -3 6 -5 1 -5 -13z"/>
<path d="M2283 410 c0 -25 2 -35 4 -22 2 12 2 32 0 45 -2 12 -4 2 -4 -23z"/>
<path d="M2701 434 c0 -11 3 -14 6 -6 3 7 2 16 -1 19 -3 4 -6 -2 -5 -13z"/>
<path d="M830 400 c14 -11 30 -24 37 -30 7 -6 14 -6 17 -1 3 5 -10 18 -30 30
-44 26 -57 27 -24 1z"/>
<path d="M2119 404 c-2 -11 -2 -39 1 -64 l5 -45 8 47 c5 27 4 55 -1 64 -8 15
-10 14 -13 -2z"/>
<path d="M102 375 c0 -16 2 -22 5 -12 2 9 2 23 0 30 -3 6 -5 -1 -5 -18z"/>
<path d="M645 358 c-24 -59 -36 -89 -45 -113 -4 -11 -13 -33 -19 -48 -6 -16
-7 -26 -2 -22 11 6 94 215 88 221 -2 2 -12 -15 -22 -38z"/>
<path d="M1817 203 c-6 -183 -4 -214 8 -202 6 6 9 389 3 395 -3 2 -8 -85 -11
-193z"/>
<path d="M2677 380 c-3 -11 -1 -23 4 -26 5 -3 9 6 9 20 0 31 -6 34 -13 6z"/>
<path d="M142 370 c0 -14 2 -19 5 -12 2 6 2 18 0 25 -3 6 -5 1 -5 -13z"/>
<path d="M2703 375 c0 -8 4 -15 9 -15 4 0 8 4 8 9 0 6 -4 12 -8 15 -5 3 -9 -1
-9 -9z"/>
<path d="M2171 340 c0 -8 4 -22 9 -30 12 -18 12 -2 0 25 -6 13 -9 15 -9 5z"/>
<path d="M2701 334 c0 -11 3 -14 6 -6 3 7 2 16 -1 19 -3 4 -6 -2 -5 -13z"/>
<path d="M102 315 c0 -16 2 -22 5 -12 2 9 2 23 0 30 -3 6 -5 -1 -5 -18z"/>
<path d="M2683 280 c0 -36 2 -50 4 -32 2 17 2 47 0 65 -2 17 -4 3 -4 -33z"/>
<path d="M143 290 c0 -25 2 -35 4 -22 2 12 2 32 0 45 -2 12 -4 2 -4 -23z"/>
<path d="M1842 254 c1 -43 3 -62 5 -41 2 20 8 35 13 32 8 -5 -7 75 -16 84 -2
2 -3 -31 -2 -75z"/>
<path d="M2141 314 c0 -11 3 -14 6 -6 3 7 2 16 -1 19 -3 4 -6 -2 -5 -13z"/>
<path d="M691 284 c0 -11 3 -14 6 -6 3 7 2 16 -1 19 -3 4 -6 -2 -5 -13z"/>
<path d="M2148 260 c-3 -16 -1 -30 4 -30 4 0 8 14 8 30 0 17 -2 30 -4 30 -2 0
-6 -13 -8 -30z"/>
<path d="M2191 274 c0 -11 3 -14 6 -6 3 7 2 16 -1 19 -3 4 -6 -2 -5 -13z"/>
<path d="M96 247 c3 -10 9 -15 12 -12 3 3 0 11 -7 18 -10 9 -11 8 -5 -6z"/>
<path d="M630 233 c-1 -5 -3 -24 -6 -44 -3 -21 -1 -40 5 -44 7 -4 11 11 11 44
0 28 -2 51 -5 51 -3 0 -5 -3 -5 -7z"/>
<path d="M2176 174 c-4 -9 -4 -19 -1 -22 2 -3 7 3 11 12 4 9 4 19 1 22 -2 3
-7 -3 -11 -12z"/>
<path d="M953 127 c-12 -34 -27 -141 -17 -118 5 10 8 10 14 2 4 -7 10 23 13
65 4 43 6 79 4 80 -2 2 -8 -11 -14 -29z"/>
<path d="M622 95 c0 -16 2 -22 5 -12 2 9 2 23 0 30 -3 6 -5 -1 -5 -18z"/>
</g>
</svg>
