<?xml version="1.0" standalone="no"?>
<!DOCTYPE svg PUBLIC "-//W3C//DTD SVG 20010904//EN"
 "http://www.w3.org/TR/2001/REC-SVG-20010904/DTD/svg10.dtd">
<svg version="1.0" xmlns="http://www.w3.org/2000/svg"
 width="300.000000pt" height="300.000000pt" viewBox="0 0 300.000000 300.000000"
 preserveAspectRatio="xMidYMid meet">
<metadata>
Created by potrace 1.10, written by Peter Selinger 2001-2011
</metadata>
<g transform="translate(0.000000,300.000000) scale(0.100000,-0.100000)"
fill="#000000" stroke="none">
<path d="M1475 2858 c-16 -6 -35 -15 -42 -20 -7 -5 -14 -5 -18 1 -4 7 -11 7
-19 -2 -8 -6 -11 -16 -8 -21 3 -5 0 -6 -6 -2 -6 3 -17 -1 -25 -9 -9 -8 -27
-15 -42 -15 -14 0 -38 -8 -52 -17 l-26 -18 34 -7 c19 -3 38 -2 44 3 5 6 2 9
-9 9 -9 0 -14 5 -11 10 4 6 16 8 27 5 11 -4 26 -1 36 8 16 14 17 12 15 -29 0
-25 2 -42 5 -39 4 4 7 12 7 18 0 6 11 14 25 18 l25 7 -27 1 c-16 1 -28 6 -28
11 0 13 11 13 47 0 26 -9 27 -9 9 5 -20 15 -20 15 1 15 16 0 20 6 18 25 -2 14
1 25 6 25 5 0 9 -4 9 -10 0 -5 7 -10 16 -10 10 0 14 6 11 14 -4 10 -1 13 9 9
7 -3 15 -11 16 -19 3 -34 2 -39 -7 -37 -17 3 -15 -35 3 -49 14 -11 15 -11 9 5
-10 27 11 62 39 65 31 2 31 -6 -1 -18 -14 -5 -25 -14 -25 -20 0 -13 17 -13 25
0 4 6 11 7 17 4 7 -5 8 -2 3 5 -5 9 1 12 21 10 16 -1 40 -1 53 -1 24 2 24 2 5
17 -10 8 -28 15 -40 15 -12 0 -31 9 -44 20 -14 12 -31 18 -42 14 -10 -3 -18
-1 -18 5 0 13 -5 13 -45 -1z m-50 -48 c3 -5 1 -10 -4 -10 -6 0 -11 5 -11 10 0
6 2 10 4 10 3 0 8 -4 11 -10z"/>
<path d="M1590 2863 c0 -18 19 -35 29 -29 16 10 109 -66 103 -84 -4 -11 -1
-10 12 3 10 9 24 17 33 17 22 0 -1 27 -30 36 -21 6 -93 37 -129 55 -10 5 -18
6 -18 2z"/>
<path d="M1493 2813 c-7 -3 -13 -14 -13 -26 0 -21 0 -21 16 1 17 25 16 32 -3
25z"/>
<path d="M1577 2749 c-9 -5 -22 -7 -27 -4 -6 3 -10 2 -10 -4 0 -19 38 -33 60
-21 11 6 20 15 20 21 0 5 -12 2 -27 -8 l-28 -17 19 22 c21 24 20 26 -7 11z"/>
<path d="M1639 2758 c-6 -21 -5 -37 2 -32 5 3 7 9 4 14 -3 5 3 11 12 13 17 4
17 5 1 6 -10 0 -18 0 -19 -1z"/>
<path d="M1756 2744 c-9 -24 -8 -25 20 -18 18 5 25 3 20 -4 -3 -5 -2 -21 3
-34 7 -17 10 -18 10 -5 1 9 8 17 16 17 22 0 30 -4 28 -12 -2 -5 4 -8 12 -8 8
0 15 5 15 10 0 6 -4 10 -10 10 -5 0 -10 5 -10 10 0 25 28 7 32 -20 4 -26 2
-29 -14 -24 -11 3 -20 0 -24 -10 -3 -8 -11 -14 -17 -12 -7 1 -9 1 -4 -1 4 -3
7 -12 7 -20 0 -9 9 -30 19 -47 12 -18 21 -53 22 -84 2 -28 7 -52 12 -52 5 0 7
18 5 40 -2 25 0 39 7 37 5 -2 9 -13 7 -23 -2 -16 -1 -17 8 -4 9 13 11 13 20 0
8 -12 10 -10 10 9 0 15 -4 21 -14 18 -12 -5 -46 24 -46 39 0 3 -9 17 -20 31
-25 31 -28 62 -5 43 8 -7 15 -18 15 -24 0 -6 14 -27 31 -46 l31 -34 14 25 14
24 -1 -25 c-2 -42 0 -51 12 -44 6 3 9 17 6 30 -2 13 1 25 8 28 13 5 13 -57 0
-89 -8 -18 -7 -19 8 -6 9 7 17 22 17 32 0 11 5 19 11 19 7 0 9 -10 5 -24 -4
-15 -1 -28 7 -33 26 -17 48 -62 38 -81 -15 -28 -20 -103 -7 -99 6 2 11 12 12
23 3 62 5 67 13 59 5 -6 13 -23 16 -40 5 -23 4 -26 -4 -15 -10 13 -11 13 -10
0 0 -8 4 -34 8 -57 8 -44 -2 -53 -26 -23 -10 13 -12 12 -10 -7 1 -21 9 -27 28
-25 4 1 9 -10 12 -23 2 -14 3 -25 3 -25 -1 0 -17 11 -36 25 -31 23 -50 25 -50
5 0 -4 9 -6 19 -3 15 4 24 -5 40 -36 26 -49 26 -52 1 -103 -21 -44 -30 -169
-10 -138 13 21 11 2 -5 -40 l-13 -35 -2 60 c-1 33 -5 71 -9 85 l-8 25 -6 -30
c-4 -16 -5 -45 -3 -64 3 -18 1 -56 -4 -85 -5 -28 -14 -87 -20 -131 -11 -77
-42 -205 -74 -310 -15 -49 -13 -72 4 -45 6 8 10 23 10 32 0 47 88 309 107 321
7 4 12 22 12 40 -1 18 7 64 18 102 19 65 35 181 36 267 1 20 4 35 7 33 10 -6
1 235 -10 255 -6 11 -8 26 -4 32 4 7 3 8 -4 4 -8 -5 -12 2 -12 19 0 14 -7 40
-16 57 -17 33 -73 85 -86 80 -5 -1 -11 6 -15 15 -4 10 -11 21 -17 25 -7 5 -7
8 2 8 6 0 12 9 12 20 0 17 -3 18 -25 8 -13 -6 -22 -15 -18 -21 3 -6 1 -7 -5
-3 -8 5 -12 0 -12 -14 0 -11 7 -23 15 -26 18 -7 20 -34 2 -34 -7 0 -23 18 -35
40 -16 31 -18 40 -7 40 8 0 19 9 25 21 6 11 21 24 33 29 13 5 16 9 7 9 -8 0
-22 -3 -30 -9 -11 -7 -17 -2 -25 22 -11 33 -55 59 -55 33 0 -9 -6 -12 -17 -8
-12 5 -14 3 -8 -8 5 -8 5 -11 -1 -6 -5 5 -9 12 -9 15 -1 31 -48 44 -59 16z
m124 -105 c0 -6 -4 -7 -10 -4 -5 3 -10 11 -10 16 0 6 5 7 10 4 6 -3 10 -11 10
-16z m185 -149 c3 -5 1 -10 -4 -10 -6 0 -11 5 -11 10 0 6 2 10 4 10 3 0 8 -4
11 -10z"/>
<path d="M1215 2740 c-3 -6 -16 -10 -28 -11 -12 0 -16 -3 -9 -6 20 -8 14 -23
-22 -57 -52 -49 -100 -107 -82 -100 22 8 20 2 -9 -32 -48 -54 -121 -226 -147
-344 -12 -52 -18 -164 -10 -198 6 -29 27 -23 28 9 0 13 6 48 13 77 15 61 10
76 -14 35 l-16 -28 7 35 c8 45 13 52 27 43 8 -4 8 -1 -1 9 -10 13 -9 24 6 64
10 27 18 55 18 62 2 24 4 29 17 29 11 0 12 -5 2 -26 -16 -34 -29 -102 -15 -81
5 8 10 22 10 31 0 9 7 30 16 48 12 24 13 35 5 45 -13 16 2 66 20 66 6 0 9 7 6
14 -4 11 -1 13 10 9 13 -5 15 -2 11 15 -4 12 -2 22 3 22 5 0 9 6 9 14 0 8 4
18 10 21 6 4 7 -6 3 -27 -3 -18 -3 -31 0 -28 4 4 9 24 13 45 3 22 8 54 11 71
3 21 13 35 29 43 13 6 24 15 24 21 0 7 7 18 15 26 8 9 15 12 15 8 0 -3 6 -1
13 5 8 6 17 8 20 4 6 -5 12 28 8 50 0 4 4 7 9 7 6 0 10 -7 10 -15 0 -12 3 -12
20 2 11 9 18 18 17 19 -11 8 -68 11 -72 4z"/>
<path d="M1313 2733 c-21 -14 -34 -41 -15 -29 4 2 6 -10 4 -28 -3 -25 2 -39
21 -58 22 -22 26 -23 43 -10 16 12 16 14 2 9 -12 -4 -24 3 -38 23 l-20 28 25
20 c26 21 34 62 13 61 -7 0 -23 -7 -35 -16z m27 -18 c0 -8 -4 -15 -10 -15 -5
0 -10 7 -10 15 0 8 5 15 10 15 6 0 10 -7 10 -15z"/>
<path d="M1675 2740 c-8 -13 5 -13 25 0 13 8 13 10 -2 10 -9 0 -20 -4 -23 -10z"/>
<path d="M1443 2733 c9 -2 23 -2 30 0 6 3 -1 5 -18 5 -16 0 -22 -2 -12 -5z"/>
<path d="M1393 2702 c-24 -9 -43 -19 -43 -24 0 -4 16 0 36 8 19 8 45 12 57 9
16 -5 18 -4 8 3 -11 8 -11 10 0 15 11 4 11 5 -1 5 -8 1 -34 -7 -57 -16z"/>
<path d="M1520 2705 c-11 -13 -10 -14 4 -9 9 3 16 10 16 15 0 13 -6 11 -20 -6z"/>
<path d="M1708 2704 c-38 -20 -35 -23 12 -14 38 7 65 -2 38 -13 -7 -3 -3 -6 9
-6 16 -1 20 4 16 18 -4 14 -11 18 -30 15 -15 -3 -22 -1 -18 6 8 13 6 12 -27
-6z"/>
<path d="M1475 2700 c3 -5 10 -10 16 -10 5 0 9 5 9 10 0 6 -7 10 -16 10 -8 0
-12 -4 -9 -10z"/>
<path d="M1649 2702 c-25 -11 -73 -52 -67 -58 3 -3 12 2 21 10 8 8 18 12 22 8
5 -4 5 -1 1 6 -4 6 -3 12 1 12 5 0 18 7 29 15 20 15 18 18 -7 7z"/>
<path d="M1280 2682 c0 -7 -6 -12 -14 -12 -15 0 -27 -45 -25 -94 1 -21 4 -13
9 22 5 34 15 58 26 67 11 7 16 17 11 21 -4 4 -7 2 -7 -4z"/>
<path d="M1420 2659 c-32 -15 -36 -16 -41 -1 -3 10 -8 12 -12 5 -11 -18 19
-36 45 -27 13 4 26 7 31 6 4 -1 7 2 7 7 0 5 8 11 18 13 14 3 14 5 2 9 -8 3
-31 -2 -50 -12z"/>
<path d="M1545 2671 c-43 -15 -106 -44 -102 -47 3 -4 128 44 136 52 6 6 -10 3
-34 -5z"/>
<path d="M1655 2659 c-34 -9 -70 -54 -38 -47 10 2 17 10 15 17 -2 10 4 12 22
7 14 -3 28 -2 31 4 3 5 11 10 16 10 6 0 7 -5 3 -12 -5 -8 -2 -9 12 -3 38 16
76 18 85 4 6 -9 9 -10 9 -2 0 6 -4 15 -10 18 -16 10 -113 13 -145 4z"/>
<path d="M1227 2653 c-4 -3 -7 -15 -7 -25 0 -11 -4 -16 -10 -13 -5 3 -10 2
-10 -3 0 -6 6 -12 14 -15 10 -4 15 4 19 26 5 35 4 41 -6 30z"/>
<path d="M1164 2623 c-34 -47 -39 -60 -16 -39 22 19 31 10 12 -12 -6 -8 -5 -7
4 0 11 11 31 78 23 78 -2 0 -12 -12 -23 -27z"/>
<path d="M1276 2605 c6 -43 11 -52 20 -42 4 3 -1 23 -10 44 l-17 38 7 -40z"/>
<path d="M1752 2630 c-12 -5 -38 -11 -58 -13 -34 -4 -60 -17 -33 -17 7 0 -1
-13 -19 -29 -17 -17 -32 -33 -32 -37 0 -4 9 1 20 11 27 25 35 14 10 -13 -34
-37 -48 -28 -45 26 2 26 1 37 -2 24 -2 -12 -9 -20 -14 -16 -5 3 -6 10 -3 16 4
7 2 8 -4 4 -16 -10 -15 17 0 32 8 8 8 12 1 12 -10 0 -48 -86 -46 -105 1 -5 4
-40 8 -77 4 -38 11 -68 16 -68 12 0 12 56 0 97 -5 18 -6 35 -2 37 4 3 6 20 4
38 -3 25 -2 29 6 18 6 -8 11 -22 11 -30 0 -8 13 -43 28 -77 l28 -62 11 42 c12
44 47 97 64 97 6 0 -1 -15 -15 -33 -14 -19 -29 -47 -32 -64 -5 -26 -2 -32 16
-38 12 -4 24 -4 27 -1 4 3 -1 6 -10 6 -10 0 -17 8 -17 20 0 11 6 20 13 20 9 0
9 2 0 8 -9 6 -4 18 19 42 18 19 31 38 30 42 -1 4 12 5 28 3 18 -2 28 0 24 6
-3 5 -11 6 -17 3 -7 -4 4 10 23 31 l35 37 -41 -20 c-22 -11 -46 -28 -53 -36
-8 -9 -19 -16 -26 -16 -13 0 -46 -35 -75 -79 l-15 -22 -1 25 c-1 14 1 24 5 21
8 -4 45 53 46 70 0 6 23 21 52 35 66 33 88 51 35 30z"/>
<path d="M1505 2619 c-16 -4 -26 -7 -21 -8 5 0 2 -8 -5 -18 -13 -15 -12 -15 7
-5 12 6 24 9 26 6 3 -2 11 2 18 11 17 20 12 23 -25 14z"/>
<path d="M1307 2601 c3 -11 11 -25 18 -31 11 -9 12 -7 8 9 -3 11 -11 25 -18
31 -11 9 -12 7 -8 -9z"/>
<path d="M1405 2610 c-3 -6 1 -7 9 -4 18 7 21 14 7 14 -6 0 -13 -4 -16 -10z"/>
<path d="M1426 2595 c-17 -13 -18 -17 -6 -28 10 -9 12 -9 6 1 -5 7 2 16 18 22
14 5 26 12 26 15 0 10 -25 4 -44 -10z"/>
<path d="M1373 2593 c-7 -2 -13 -14 -13 -26 1 -20 2 -20 11 -4 6 9 14 15 20
12 5 -3 6 1 3 9 -3 9 -7 16 -8 15 0 0 -7 -3 -13 -6z"/>
<path d="M1619 2583 c-13 -16 -12 -17 4 -4 9 7 17 15 17 17 0 8 -8 3 -21 -13z"/>
<path d="M1482 2565 c-19 -22 -20 -25 -4 -26 14 0 14 -2 -3 -9 -17 -7 -17 -9
-2 -9 9 -1 18 -7 18 -13 1 -7 5 7 9 32 4 25 7 46 5 47 -1 2 -11 -8 -23 -22z"/>
<path d="M1694 2574 c-18 -14 -18 -15 4 -4 12 6 22 13 22 15 0 8 -5 6 -26 -11z"/>
<path d="M1805 2554 c-20 -49 -23 -76 -9 -81 12 -4 41 54 32 63 -3 3 -11 -9
-17 -27 -6 -18 -13 -30 -16 -27 -7 7 22 75 34 80 6 2 7 9 2 17 -7 11 -13 5
-26 -25z"/>
<path d="M1212 2493 c1 -38 -4 -78 -10 -90 -7 -12 -12 -28 -12 -35 1 -7 8 3
16 22 17 37 26 170 12 170 -5 0 -7 -30 -6 -67z"/>
<path d="M1138 2544 c-8 -7 3 -44 13 -44 16 0 20 20 5 26 -9 3 -13 10 -10 15
6 10 1 12 -8 3z"/>
<path d="M1160 2539 c0 -5 5 -7 10 -4 6 3 10 8 10 11 0 2 -4 4 -10 4 -5 0 -10
-5 -10 -11z"/>
<path d="M1286 2534 c-5 -13 -4 -14 7 -6 8 7 18 8 22 4 5 -4 5 -1 1 6 -10 17
-23 15 -30 -4z"/>
<path d="M1380 2540 c0 -5 5 -10 11 -10 5 0 7 5 4 10 -3 6 -8 10 -11 10 -2 0
-4 -4 -4 -10z"/>
<path d="M1338 2521 c-10 -10 -18 -24 -18 -32 0 -8 7 -4 16 9 13 20 18 21 32
10 15 -11 15 -11 5 3 -7 9 -10 19 -6 22 3 4 2 7 -3 6 -5 0 -17 -8 -26 -18z"/>
<path d="M1835 2493 c-6 -41 -16 -57 -65 -106 l-58 -58 32 2 c17 2 36 0 41 -3
6 -3 31 -8 56 -12 41 -6 46 -4 56 16 19 38 8 80 -12 48 -3 -5 -1 -10 6 -10 8
0 6 -7 -5 -19 -10 -11 -27 -19 -38 -18 -19 1 -19 2 2 19 16 13 18 18 7 18 -8
0 -17 -5 -19 -11 -2 -6 -20 -12 -41 -14 -21 -2 -35 0 -32 6 4 5 14 9 23 9 14
0 14 2 3 9 -11 7 -8 15 14 37 30 32 55 83 55 114 0 39 -18 19 -25 -27z"/>
<path d="M1739 2513 c-13 -16 -12 -17 4 -4 9 7 17 15 17 17 0 8 -8 3 -21 -13z"/>
<path d="M1390 2511 c0 -9 24 -21 41 -21 6 0 7 5 4 10 -4 6 -11 8 -16 5 -5 -4
-9 -1 -9 4 0 6 -4 11 -10 11 -5 0 -10 -4 -10 -9z"/>
<path d="M1175 2499 c-4 -6 -5 -12 -2 -15 2 -3 7 2 10 11 7 17 1 20 -8 4z"/>
<path d="M1247 2503 c-4 -3 -7 -16 -6 -27 0 -19 1 -19 10 3 10 24 8 36 -4 24z"/>
<path d="M1750 2495 c-7 -8 -19 -15 -26 -15 -8 0 -14 -5 -14 -10 0 -7 6 -7 18
-1 19 10 49 41 39 41 -2 0 -10 -7 -17 -15z"/>
<path d="M1120 2484 c0 -8 5 -12 10 -9 6 4 8 11 5 16 -9 14 -15 11 -15 -7z"/>
<path d="M1301 2466 c0 -11 -8 -28 -18 -38 -9 -10 -14 -20 -11 -23 2 -3 18 9
34 27 16 17 24 28 17 24 -6 -3 -13 1 -16 11 -4 16 -5 16 -6 -1z"/>
<path d="M1370 2472 c0 -5 14 -7 30 -4 17 2 30 6 30 8 0 2 -13 4 -30 4 -16 0
-30 -4 -30 -8z"/>
<path d="M1269 2468 c-5 -18 -6 -38 -1 -34 7 8 12 36 6 36 -2 0 -4 -1 -5 -2z"/>
<path d="M1465 2457 c17 -8 32 -13 34 -11 7 7 -3 12 -34 19 l-30 6 30 -14z"/>
<path d="M1763 2463 c4 -4 -5 -19 -20 -35 -39 -40 -19 -48 22 -8 25 24 31 36
22 42 -15 9 -33 11 -24 1z"/>
<path d="M1952 2450 c-10 -17 -10 -20 3 -20 8 0 15 2 15 4 0 2 3 11 6 20 9 23
-9 20 -24 -4z"/>
<path d="M1125 2438 c-3 -13 -7 -36 -9 -53 -2 -16 -7 -46 -10 -65 l-6 -35 16
35 c9 19 18 59 20 88 3 54 -2 68 -11 30z"/>
<path d="M1378 2430 c-18 -21 -13 -26 11 -11 7 5 12 14 10 20 -3 7 -11 3 -21
-9z"/>
<path d="M1986 2435 c-3 -9 -2 -13 4 -10 6 4 11 -10 11 -32 1 -23 3 -29 6 -15
2 12 8 20 13 17 13 -8 -1 33 -15 45 -9 8 -14 6 -19 -5z"/>
<path d="M1156 2383 c1 -31 -3 -53 -9 -53 -6 0 -8 -3 -5 -6 3 -3 0 -29 -8 -57
-8 -29 -14 -53 -14 -54 0 -2 5 -3 12 -3 6 0 9 3 5 6 -6 6 12 66 23 74 12 8 17
147 5 147 -6 0 -10 -22 -9 -54z"/>
<path d="M1325 2430 c-3 -5 -2 -10 4 -10 5 0 13 5 16 10 3 6 2 10 -4 10 -5 0
-13 -4 -16 -10z"/>
<path d="M1476 2424 c16 -13 16 -15 2 -10 -21 6 -78 -12 -78 -26 0 -11 43 0
48 13 4 10 32 0 55 -19 9 -8 20 -13 23 -9 3 3 -4 10 -15 17 -12 6 -19 16 -15
22 4 5 0 14 -7 19 -24 15 -34 10 -13 -7z"/>
<path d="M1896 2424 c-13 -13 -15 -19 -6 -22 6 -2 16 0 22 6 6 6 8 16 6 22 -3
9 -9 7 -22 -6z"/>
<path d="M2045 2430 c3 -5 1 -10 -5 -10 -6 0 -8 -4 -5 -10 10 -17 25 -11 25
10 0 11 -5 20 -11 20 -5 0 -7 -4 -4 -10z"/>
<path d="M1091 2414 c0 -11 3 -14 6 -6 3 7 2 16 -1 19 -3 4 -6 -2 -5 -13z"/>
<path d="M1596 2417 c3 -10 9 -15 12 -12 3 3 0 11 -7 18 -10 9 -11 8 -5 -6z"/>
<path d="M1242 2395 c-6 -14 -7 -25 -2 -25 9 0 25 39 18 46 -3 2 -10 -7 -16
-21z"/>
<path d="M1953 2399 c-6 -8 -13 -25 -16 -39 -2 -14 -2 -19 0 -12 3 7 8 10 13
7 5 -3 12 0 16 6 4 8 3 9 -4 5 -7 -4 -12 -3 -12 3 0 5 5 11 12 13 6 2 9 10 7
17 -4 11 -7 11 -16 0z"/>
<path d="M1057 2393 c-4 -3 -7 -11 -7 -17 0 -6 5 -5 12 2 6 6 9 14 7 17 -3 3
-9 2 -12 -2z"/>
<path d="M1466 2377 c3 -9 10 -17 14 -17 4 0 11 -11 14 -24 3 -13 13 -27 23
-30 16 -6 16 -6 0 12 -9 10 -17 23 -17 29 0 5 -9 18 -20 28 -18 17 -20 17 -14
2z"/>
<path d="M1700 2381 c0 -6 4 -13 10 -16 6 -3 7 1 4 9 -7 18 -14 21 -14 7z"/>
<path d="M2031 2376 c-8 -10 -9 -16 -1 -21 7 -4 7 -12 0 -26 -6 -10 -8 -19 -5
-19 6 0 35 63 35 75 0 10 -18 5 -29 -9z"/>
<path d="M1091 2364 c0 -11 3 -14 6 -6 3 7 2 16 -1 19 -3 4 -6 -2 -5 -13z"/>
<path d="M1308 2370 c-9 -6 -27 -25 -39 -43 -20 -29 -21 -30 -3 -14 12 9 24
14 29 10 4 -5 5 -3 2 3 -4 7 1 18 11 25 15 12 16 12 5 -2 -7 -9 -10 -18 -7
-22 3 -3 -3 -10 -15 -16 -30 -17 -63 -97 -55 -137 4 -22 10 -31 20 -27 9 3 7
-12 -10 -53 -13 -32 -32 -61 -42 -65 -15 -6 -15 -8 -3 -8 20 -1 59 40 59 62 0
10 5 26 12 37 10 15 9 22 -5 38 -9 10 -17 26 -17 35 0 17 20 68 30 77 3 3 20
26 37 52 21 31 26 45 16 41 -11 -4 -14 -2 -9 5 9 14 6 14 -16 2z"/>
<path d="M1575 2353 c5 -37 -9 -52 -24 -26 -10 17 -10 17 -11 1 0 -10 4 -18 8
-18 5 0 6 -20 2 -45 -4 -25 -3 -45 2 -45 7 0 13 32 9 54 -1 4 5 19 13 31 11
17 12 30 5 51 l-9 29 5 -32z"/>
<path d="M1020 2360 c0 -5 5 -10 11 -10 5 0 7 5 4 10 -3 6 -8 10 -11 10 -2 0
-4 -4 -4 -10z"/>
<path d="M1378 2363 c6 -2 18 -2 25 0 6 3 1 5 -13 5 -14 0 -19 -2 -12 -5z"/>
<path d="M1217 2340 c-3 -13 -4 -27 -1 -30 7 -6 34 30 34 44 0 6 -4 5 -9 -3
-7 -11 -9 -11 -13 0 -3 8 -7 3 -11 -11z"/>
<path d="M1445 2350 c3 -5 8 -10 11 -10 2 0 4 5 4 10 0 6 -5 10 -11 10 -5 0
-7 -4 -4 -10z"/>
<path d="M1630 2341 c0 -25 6 -27 13 -6 4 8 2 17 -3 20 -6 4 -10 -3 -10 -14z"/>
<path d="M1680 2350 c0 -5 5 -10 11 -10 5 0 7 5 4 10 -3 6 -8 10 -11 10 -2 0
-4 -4 -4 -10z"/>
<path d="M1181 2334 c0 -11 3 -14 6 -6 3 7 2 16 -1 19 -3 4 -6 -2 -5 -13z"/>
<path d="M1353 2338 c-24 -32 -24 -41 0 -19 15 14 27 26 27 28 0 8 -19 2 -27
-9z"/>
<path d="M1418 2332 c19 -21 27 -20 19 3 -4 8 -13 15 -22 15 -13 0 -12 -3 3
-18z"/>
<path d="M1047 2318 c-4 -14 -9 -34 -13 -45 -3 -10 2 -5 11 10 9 16 15 36 13
45 -3 12 -6 9 -11 -10z"/>
<path d="M1657 2333 c-14 -13 -7 -51 8 -49 21 3 31 16 13 16 -11 0 -14 6 -11
20 5 20 2 25 -10 13z"/>
<path d="M1067 2295 c-13 -26 -13 -33 -3 -29 12 5 29 54 22 61 -1 2 -10 -13
-19 -32z"/>
<path d="M1603 2318 c-17 -22 -25 -44 -9 -24 9 11 18 17 21 15 8 -8 -7 -49
-16 -43 -5 3 -9 -6 -9 -20 0 -14 4 -26 10 -26 5 0 7 7 4 15 -4 9 0 15 10 15
17 0 22 45 7 68 -6 11 -10 11 -18 0z"/>
<path d="M1355 2298 l-20 -21 22 12 c23 12 40 31 26 30 -4 0 -17 -10 -28 -21z"/>
<path d="M1698 2313 c6 -2 18 -2 25 0 6 3 1 5 -13 5 -14 0 -19 -2 -12 -5z"/>
<path d="M1926 2305 c-8 -8 -22 -12 -30 -9 -9 3 -16 1 -16 -5 0 -14 25 -14 49
-1 11 5 31 6 48 1 24 -7 29 -6 30 10 2 21 -12 26 -21 7 -5 -10 -7 -10 -12 0
-8 16 -29 15 -48 -3z"/>
<path d="M1178 2291 c-4 -13 -4 -36 -1 -51 4 -24 -6 -41 -27 -46 -20 -4 -39
-18 -34 -25 6 -11 24 -12 23 -1 -3 19 2 26 10 13 16 -26 43 31 39 86 -2 37 -5
43 -10 24z"/>
<path d="M1460 2294 c0 -10 6 -14 15 -10 10 3 15 -1 16 -12 0 -11 2 -12 6 -4
5 14 -14 42 -28 42 -5 0 -9 -7 -9 -16z"/>
<path d="M2029 2293 c-13 -16 -12 -17 4 -4 9 7 17 15 17 17 0 8 -8 3 -21 -13z"/>
<path d="M1730 2293 c0 -5 9 -14 20 -21 11 -7 20 -8 20 -2 0 5 6 7 14 4 8 -3
16 -1 20 4 3 5 0 9 -7 9 -7 0 -25 3 -40 7 -15 3 -27 3 -27 -1z"/>
<path d="M1301 2272 c-17 -31 -13 -40 5 -14 9 13 14 26 11 29 -3 2 -10 -4 -16
-15z"/>
<path d="M1531 2274 c0 -11 3 -14 6 -6 3 7 2 16 -1 19 -3 4 -6 -2 -5 -13z"/>
<path d="M1098 2258 c-10 -12 -18 -31 -19 -43 -1 -17 -2 -17 -8 4 -6 23 -8 22
-23 -17 -9 -23 -12 -42 -7 -42 5 0 9 7 9 16 0 8 4 13 9 9 11 -6 45 39 55 73 9
28 6 28 -16 0z"/>
<path d="M1672 2269 c-12 -5 -22 -13 -22 -19 0 -7 6 -7 18 1 22 14 76 -5 69
-25 -3 -7 0 -13 7 -12 7 0 30 -19 50 -43 46 -54 111 -88 134 -69 8 7 16 11 18
8 1 -3 6 -2 10 3 4 4 -2 7 -14 7 -11 0 -24 -5 -27 -10 -4 -6 -11 -8 -16 -4 -6
3 -3 12 8 20 16 12 15 12 -12 5 -26 -7 -36 -4 -64 19 -18 16 -30 33 -27 39 4
5 -3 15 -14 21 -11 6 -18 16 -14 22 4 5 9 6 13 1 3 -4 19 -14 35 -21 25 -11
28 -11 23 3 -7 16 9 20 38 9 13 -5 14 -8 3 -15 -9 -6 -7 -9 9 -9 25 0 39 16
21 23 -7 3 4 6 25 6 21 1 36 5 33 10 -7 11 -53 20 -61 12 -4 -3 -18 -7 -33 -8
-15 -1 -40 -5 -57 -8 -29 -6 -29 -6 -11 9 11 9 29 16 40 17 19 0 18 1 -3 10
-19 8 -27 6 -33 -6 -5 -8 -17 -15 -28 -15 -10 0 -20 -6 -23 -12 -3 -9 -10 -6
-21 8 -19 26 -44 34 -74 23z"/>
<path d="M1325 2260 c-3 -6 1 -7 9 -4 18 7 21 14 7 14 -6 0 -13 -4 -16 -10z"/>
<path d="M1395 2260 c-4 -6 3 -10 14 -10 25 0 27 6 6 13 -8 4 -17 2 -20 -3z"/>
<path d="M2057 2263 c-4 -3 -7 -11 -7 -17 0 -6 5 -5 12 2 6 6 9 14 7 17 -3 3
-9 2 -12 -2z"/>
<path d="M2085 2260 c3 -5 8 -10 11 -10 2 0 4 5 4 10 0 6 -5 10 -11 10 -5 0
-7 -4 -4 -10z"/>
<path d="M1996 2252 c-3 -5 1 -9 9 -9 8 0 12 4 9 9 -3 4 -7 8 -9 8 -2 0 -6 -4
-9 -8z"/>
<path d="M1156 2235 c4 -8 8 -15 10 -15 2 0 4 7 4 15 0 8 -4 15 -10 15 -5 0
-7 -7 -4 -15z"/>
<path d="M1378 2233 c6 -2 18 -2 25 0 6 3 1 5 -13 5 -14 0 -19 -2 -12 -5z"/>
<path d="M1511 2220 c14 -31 19 -36 19 -24 0 6 -7 19 -16 30 -14 18 -14 18 -3
-6z"/>
<path d="M1620 2224 c0 -8 5 -12 10 -9 6 4 8 11 5 16 -9 14 -15 11 -15 -7z"/>
<path d="M1698 2233 c7 -3 16 -2 19 1 4 3 -2 6 -13 5 -11 0 -14 -3 -6 -6z"/>
<path d="M1280 2198 c0 -19 2 -20 10 -8 13 19 13 30 0 30 -5 0 -10 -10 -10
-22z"/>
<path d="M1990 2204 c0 -9 5 -12 12 -8 6 4 8 3 4 -4 -3 -6 -2 -13 4 -17 6 -4
10 5 10 19 0 16 -6 26 -15 26 -8 0 -15 -7 -15 -16z"/>
<path d="M1660 2202 c0 -5 10 -8 23 -7 28 3 47 -4 47 -17 0 -5 -6 -6 -12 -2
-7 4 -5 -2 5 -13 10 -12 17 -29 15 -40 -2 -11 2 -17 11 -15 7 1 19 -2 25 -7 9
-8 13 -7 13 4 0 8 -4 12 -8 9 -10 -6 -50 52 -41 60 4 4 -2 14 -12 22 -21 15
-66 19 -66 6z"/>
<path d="M1940 2195 c-14 -8 -19 -14 -10 -14 8 0 24 6 34 14 25 19 9 19 -24 0z"/>
<path d="M1006 2191 c-4 -7 -5 -15 -2 -18 9 -9 19 4 14 18 -4 11 -6 11 -12 0z"/>
<path d="M1210 2181 c0 -6 4 -13 10 -16 6 -3 7 1 4 9 -7 18 -14 21 -14 7z"/>
<path d="M1300 2175 c-8 -9 -8 -15 -2 -15 12 0 26 19 19 26 -2 2 -10 -2 -17
-11z"/>
<path d="M1970 2180 c0 -5 5 -10 11 -10 5 0 7 5 4 10 -3 6 -8 10 -11 10 -2 0
-4 -4 -4 -10z"/>
<path d="M1170 2159 c-7 -12 -18 -18 -26 -15 -9 3 -12 1 -9 -4 11 -18 32 -11
43 15 14 30 7 33 -8 4z"/>
<path d="M1340 2170 c-8 -5 -11 -10 -6 -10 5 0 -5 -13 -22 -28 -18 -16 -32
-31 -32 -34 0 -8 39 -2 47 7 5 4 2 5 -4 1 -7 -4 -13 -3 -13 3 0 12 19 24 44
28 10 2 26 8 35 13 12 8 9 9 -11 4 -19 -4 -28 -2 -28 6 0 9 14 11 50 8 27 -3
47 -1 44 4 -7 11 -85 10 -104 -2z"/>
<path d="M1758 2163 c6 -2 12 -11 12 -19 0 -8 5 -14 10 -14 6 0 10 4 10 8 0
12 -22 32 -34 31 -6 0 -5 -3 2 -6z"/>
<path d="M1920 2160 c0 -5 4 -10 9 -10 6 0 13 5 16 10 3 6 -1 10 -9 10 -9 0
-16 -4 -16 -10z"/>
<path d="M993 2148 c-4 -7 -8 -15 -9 -18 0 -3 -5 -16 -11 -30 -6 -14 -13 -45
-17 -69 -6 -42 -29 -91 -43 -91 -3 0 -3 3 0 7 10 10 -34 53 -54 53 -40 0 -43
-18 -36 -210 4 -108 8 -134 32 -190 34 -82 41 -90 76 -90 25 0 29 4 28 28 -1
16 -3 20 -6 10 -13 -50 -71 3 -80 73 -3 21 -12 44 -19 50 -16 13 -18 75 -4
137 7 30 7 49 -1 63 -12 24 -2 41 11 19 9 -13 10 -13 10 0 0 8 -9 26 -20 40
-24 32 -11 53 25 36 18 -8 25 -20 27 -46 4 -49 18 -44 35 13 13 44 16 47 31
35 15 -11 15 -11 6 2 -13 17 -3 107 16 137 8 14 9 9 5 -22 -5 -33 -4 -37 5
-22 7 11 9 33 6 52 -5 22 -2 35 6 38 9 4 9 6 1 6 -6 1 -15 -5 -20 -11z"/>
<path d="M1076 2144 c-9 -8 -16 -18 -16 -20 0 -7 38 15 45 26 10 16 -12 12
-29 -6z"/>
<path d="M1975 2150 c-3 -5 -2 -10 4 -10 5 0 13 5 16 10 3 6 2 10 -4 10 -5 0
-13 -4 -16 -10z"/>
<path d="M2010 2144 c0 -21 19 -27 35 -11 12 13 11 15 -10 20 -16 3 -25 0 -25
-9z"/>
<path d="M1185 2124 c-16 -25 -16 -25 4 -14 12 6 21 17 21 25 0 21 -5 19 -25
-11z"/>
<path d="M2076 2127 c3 -10 9 -15 12 -12 3 3 0 11 -7 18 -10 9 -11 8 -5 -6z"/>
<path d="M1365 2120 c-11 -5 -14 -9 -7 -9 7 -1 10 -5 7 -11 -10 -17 0 -11 18
10 18 21 14 24 -18 10z"/>
<path d="M1064 2113 c-12 -2 -25 -12 -28 -21 -3 -9 -9 -24 -13 -32 -5 -13 -4
-13 10 -1 20 16 21 12 7 -23 -6 -16 -6 -27 0 -31 6 -4 10 3 10 15 0 24 27 81
44 92 11 8 6 8 -30 1z"/>
<path d="M1800 2097 c0 -25 4 -32 15 -30 6 2 15 -7 20 -20 6 -12 19 -24 30
-26 18 -3 17 0 -6 23 -18 17 -25 34 -22 46 3 11 0 20 -6 20 -5 0 -8 -8 -5 -17
5 -15 3 -15 -10 1 -14 17 -16 18 -16 3z"/>
<path d="M1980 2106 c0 -2 7 -7 16 -10 8 -3 12 -2 9 4 -6 10 -25 14 -25 6z"/>
<path d="M1398 2084 c-16 -8 -28 -19 -28 -25 0 -6 5 -6 13 1 6 6 21 17 32 25
26 19 17 18 -17 -1z"/>
<path d="M1850 2088 c0 -17 26 -32 41 -22 14 9 10 27 -5 21 -7 -3 -19 0 -25 6
-8 8 -11 7 -11 -5z"/>
<path d="M1097 2062 c-10 -10 -17 -26 -17 -36 0 -22 -17 -54 -43 -80 -11 -12
-17 -15 -13 -8 4 7 1 12 -7 12 -17 0 -27 -30 -27 -81 0 -20 -6 -42 -14 -48
-14 -12 -17 2 -17 83 0 13 -3 16 -11 8 -16 -16 8 -164 34 -200 15 -22 16 -21
24 30 4 29 9 60 9 68 6 72 19 101 58 135 77 68 88 78 99 98 10 19 9 19 -20 -1
-16 -12 -35 -22 -41 -22 -6 0 -11 -5 -11 -12 0 -6 -2 -9 -5 -6 -3 3 2 21 10
41 17 42 15 45 -8 19z"/>
<path d="M1270 2071 c0 -5 -11 -23 -25 -40 l-26 -30 30 9 c16 4 38 13 48 20
17 11 17 11 -3 7 -17 -4 -20 0 -16 19 2 13 2 24 -2 24 -3 0 -6 -4 -6 -9z"/>
<path d="M2058 2049 c3 -21 7 -27 13 -18 4 7 3 21 -2 31 -14 25 -16 23 -11
-13z"/>
<path d="M1329 2038 c16 -21 37 -23 47 -6 5 8 2 9 -11 5 -9 -4 -25 -2 -34 5
-14 12 -14 11 -2 -4z"/>
<path d="M1950 2039 c-13 -9 -12 -10 3 -5 10 3 17 0 17 -7 -1 -20 -24 -44 -39
-39 -9 3 -11 0 -6 -7 4 -7 13 -10 21 -7 8 3 14 2 14 -2 0 -5 7 -17 15 -28 12
-16 14 -17 15 -2 0 9 -7 24 -16 32 -8 9 -12 21 -9 27 5 6 12 4 21 -8 12 -16
13 -16 14 -2 0 9 -8 26 -17 38 -14 16 -21 18 -33 10z"/>
<path d="M1797 2019 c7 -7 15 -10 18 -7 3 3 -2 9 -12 12 -14 6 -15 5 -6 -5z"/>
<path d="M2031 2014 c0 -11 3 -14 6 -6 3 7 2 16 -1 19 -3 4 -6 -2 -5 -13z"/>
<path d="M2012 2000 c0 -14 2 -19 5 -12 2 6 2 18 0 25 -3 6 -5 1 -5 -13z"/>
<path d="M1016 1984 c-8 -20 -4 -25 11 -16 7 4 9 13 4 21 -6 10 -10 9 -15 -5z"/>
<path d="M1960 1905 c0 -8 4 -15 10 -15 5 0 7 7 4 15 -4 8 -8 15 -10 15 -2 0
-4 -7 -4 -15z"/>
<path d="M1270 1840 c-23 -7 -23 -8 -3 -9 12 -1 25 4 28 9 3 6 5 10 3 9 -2 -1
-14 -5 -28 -9z"/>
<path d="M900 1821 c0 -6 -9 -20 -20 -31 -34 -34 -27 -84 20 -132 22 -23 43
-39 46 -35 11 11 -14 57 -30 57 -36 0 -50 88 -16 97 21 6 27 37 10 48 -5 3
-10 1 -10 -4z"/>
<path d="M1181 1816 l-24 -13 31 -5 c17 -2 29 -1 26 4 -5 7 61 2 93 -7 6 -2
13 2 16 8 3 8 -10 12 -42 12 -25 0 -53 4 -61 7 -8 4 -26 1 -39 -6z"/>
<path d="M1330 1788 c0 -13 62 -58 79 -58 5 0 18 -11 29 -25 11 -13 22 -21 26
-17 4 3 11 0 16 -8 7 -11 12 -12 20 -4 13 13 -20 54 -44 54 -9 0 -16 3 -16 8
0 4 -20 15 -45 25 -25 11 -45 23 -45 28 0 5 -4 9 -10 9 -5 0 -10 -6 -10 -12z"/>
<path d="M1236 1781 c5 -5 32 -17 59 -26 28 -9 60 -23 72 -31 32 -21 40 -17
11 5 -38 30 -170 78 -142 52z"/>
<path d="M927 1766 c-4 -10 -5 -21 -2 -24 9 -9 17 6 13 25 -3 17 -4 17 -11 -1z"/>
<path d="M1180 1766 c0 -2 7 -7 16 -10 8 -3 12 -2 9 4 -6 10 -25 14 -25 6z"/>
<path d="M920 1719 c0 -5 5 -7 10 -4 6 3 10 8 10 11 0 2 -4 4 -10 4 -5 0 -10
-5 -10 -11z"/>
<path d="M1937 1712 c3 -12 12 -23 22 -25 9 -3 4 -4 -11 -4 -15 1 -25 4 -22 8
8 13 -15 20 -32 11 -11 -6 -13 -11 -5 -16 6 -4 11 -2 11 3 0 6 5 11 11 11 5 0
8 -4 5 -9 -6 -9 36 -41 54 -41 19 0 10 36 -14 59 -24 22 -25 22 -19 3z"/>
<path d="M1215 1710 c-18 -8 -18 -9 5 -8 14 0 39 4 55 8 l30 8 -35 0 c-19 0
-44 -3 -55 -8z"/>
<path d="M1270 1689 c-14 -4 -45 -8 -70 -9 -25 -2 -35 -5 -22 -7 12 -2 22 -9
22 -14 0 -13 24 -11 56 6 28 14 29 14 34 -11 3 -15 12 -31 21 -37 21 -13 69
-1 69 18 0 24 25 17 40 -10 13 -24 30 -34 30 -17 -1 24 -93 92 -107 78 -3 -2
-15 -1 -27 3 -11 4 -32 4 -46 0z m47 -41 c-3 -8 -6 -5 -6 6 -1 11 2 17 5 13 3
-3 4 -12 1 -19z m33 12 c0 -5 -4 -10 -10 -10 -5 0 -10 5 -10 10 0 6 5 10 10
10 6 0 10 -4 10 -10z"/>
<path d="M1520 1684 c0 -8 5 -12 10 -9 6 3 10 10 10 16 0 5 -4 9 -10 9 -5 0
-10 -7 -10 -16z"/>
<path d="M1547 1670 c-9 -11 -13 -20 -8 -20 11 0 35 29 29 35 -2 2 -12 -4 -21
-15z"/>
<path d="M1699 1676 c13 -15 -10 -41 -24 -28 -5 4 -5 2 -1 -5 7 -13 57 -7 67
9 4 7 9 7 13 -1 5 -8 13 -8 27 0 12 6 23 8 27 5 3 -3 -1 -7 -9 -8 -8 -1 22 -4
66 -8 44 -3 82 -5 83 -4 2 2 -18 13 -45 26 -39 19 -59 22 -103 18 -30 -3 -68
-2 -83 2 -23 6 -27 5 -18 -6z m31 -15 c0 -5 -7 -12 -16 -15 -14 -5 -15 -4 -4
9 14 17 20 19 20 6z m117 -7 c-3 -3 -12 -4 -19 -1 -8 3 -5 6 6 6 11 1 17 -2
13 -5z"/>
<path d="M1440 1652 c6 -12 20 -28 30 -35 21 -13 27 -42 10 -52 -15 -9 -12
-25 5 -25 9 0 15 10 15 26 0 16 4 23 11 18 8 -4 8 0 0 15 -7 11 -16 21 -22 21
-5 0 -21 12 -35 28 -22 23 -24 24 -14 4z"/>
<path d="M1555 1640 c-10 -11 -13 -20 -8 -20 13 0 38 29 31 35 -3 3 -13 -4
-23 -15z"/>
<path d="M975 1629 c-4 -12 -3 -25 2 -30 6 -6 10 1 11 21 1 35 -4 39 -13 9z"/>
<path d="M1237 1636 c-4 -10 6 -23 31 -38 44 -27 166 -39 185 -18 10 10 -1 11
-48 7 -68 -5 -99 4 -136 39 -22 21 -27 22 -32 10z"/>
<path d="M932 1601 c-10 -6 -10 -10 3 -21 19 -15 25 -11 16 12 -4 11 -11 14
-19 9z"/>
<path d="M1758 1602 c-32 -4 -35 -18 -12 -50 26 -38 76 -26 85 21 3 16 9 14
42 -18 21 -20 43 -34 50 -32 9 4 9 6 0 6 -8 1 -9 10 -3 31 5 17 5 30 0 30 -5
0 -17 3 -27 7 -17 6 -17 5 1 -15 24 -27 14 -28 -22 -3 -29 21 -72 29 -114 23z
m27 -22 c3 -6 -4 -10 -17 -10 -18 0 -20 2 -8 10 19 12 18 12 25 0z m15 -24 c0
-3 -4 -8 -10 -11 -5 -3 -10 -1 -10 4 0 6 5 11 10 11 6 0 10 -2 10 -4z"/>
<path d="M1670 1580 c-12 -12 -20 -35 -21 -57 -1 -21 -3 -48 -4 -60 -3 -26 5
-29 23 -11 13 13 16 48 4 48 -11 0 -13 48 -2 55 6 3 10 2 10 -4 0 -14 90 -58
136 -65 33 -6 41 -3 52 14 17 27 4 50 -14 25 -26 -35 -129 -11 -154 35 -10 19
-6 24 13 21 5 -1 6 3 2 9 -9 15 -23 12 -45 -10z"/>
<path d="M1240 1571 c0 -5 7 -12 16 -15 14 -5 15 -4 4 9 -14 17 -20 19 -20 6z"/>
<path d="M1445 1519 c-4 -6 -5 -12 -2 -15 2 -3 7 2 10 11 7 17 1 20 -8 4z"/>
<path d="M974 1423 c3 -56 8 -108 11 -115 4 -10 -11 -23 -42 -41 -69 -37 -98
-63 -156 -137 -55 -71 -63 -79 -262 -260 -75 -68 -157 -148 -181 -177 -26 -31
-63 -61 -89 -72 -53 -23 -68 -50 -61 -103 4 -25 0 -53 -10 -76 -24 -55 -54
-154 -54 -179 0 -12 5 -23 11 -25 7 -2 7 -17 0 -48 -5 -25 -12 -78 -16 -117
-6 -62 -5 -73 8 -73 16 0 20 17 32 132 4 32 11 61 17 64 6 4 5 9 -3 15 -17 10
-17 122 0 142 6 8 9 16 6 19 -3 3 1 11 10 18 8 7 15 21 15 32 0 10 4 17 9 14
5 -3 7 19 5 50 -2 41 1 56 12 61 7 3 14 9 14 14 0 4 -8 6 -17 2 -16 -6 -16 -4
1 15 12 13 26 20 36 17 17 -5 84 58 196 183 22 24 48 44 59 46 11 2 19 10 19
18 -1 10 6 13 21 10 18 -3 23 0 22 15 -1 10 4 17 11 15 6 -1 12 5 12 13 0 8 4
15 9 15 12 0 101 87 101 99 0 11 39 25 47 17 4 -3 1 -6 -4 -6 -7 0 -10 -24 -9
-64 1 -35 -1 -90 -4 -124 -4 -43 -2 -58 6 -55 8 3 14 -11 17 -39 2 -24 14 -79
27 -123 12 -44 23 -84 24 -90 1 -5 10 -27 19 -47 16 -37 79 -258 99 -348 22
-100 33 -130 46 -130 10 0 12 8 7 33 -14 67 -97 366 -129 467 -85 266 -100
363 -76 491 16 85 48 138 137 227 65 65 82 88 78 105 -2 12 -7 55 -10 95 -9
121 -27 125 -21 5z"/>
<path d="M1712 1491 c13 -22 38 -36 38 -22 0 5 -11 16 -25 25 -25 17 -25 16
-13 -3z"/>
<path d="M1601 1465 c2 -5 -1 -21 -5 -34 -5 -13 -4 -27 2 -33 6 -6 12 2 16 23
4 19 2 37 -5 43 -6 7 -9 7 -8 1z"/>
<path d="M1591 1331 c-1 -27 2 -52 7 -55 5 -3 8 19 8 49 -1 68 -12 72 -15 6z"/>
<path d="M1645 1320 c2 -19 7 -48 11 -63 5 -23 3 -29 -14 -34 -11 -3 -23 -11
-26 -18 -3 -10 0 -12 12 -8 45 16 52 45 27 118 l-14 40 4 -35z"/>
<path d="M1390 1303 c0 -10 5 -25 10 -33 7 -11 10 -7 10 18 0 17 -4 32 -10 32
-5 0 -10 -8 -10 -17z"/>
<path d="M1455 1310 c-3 -5 -2 -10 4 -10 5 0 13 5 16 10 3 6 2 10 -4 10 -5 0
-13 -4 -16 -10z"/>
<path d="M1880 1294 c0 -8 5 -12 10 -9 6 3 10 10 10 16 0 5 -4 9 -10 9 -5 0
-10 -7 -10 -16z"/>
<path d="M1900 1269 c0 -17 -70 -180 -90 -209 -16 -23 -16 -32 -4 -105 25
-152 12 -320 -40 -505 -18 -64 -52 -272 -61 -377 -6 -61 -5 -73 8 -73 8 0 14
8 14 18 -4 69 36 326 69 444 13 48 24 99 24 113 0 14 4 24 8 21 4 -2 8 3 9 12
0 9 4 62 8 117 6 89 2 143 -20 284 -2 15 12 56 38 105 23 45 42 85 42 90 0 5
6 11 13 14 6 2 12 -4 12 -14 0 -17 1 -16 14 1 13 18 15 17 32 -16 14 -26 19
-30 22 -16 2 9 7 17 11 17 8 0 61 -38 71 -51 3 -3 24 -16 46 -27 38 -19 42
-26 49 -68 4 -31 10 -43 15 -34 7 11 21 5 67 -26 71 -47 108 -76 111 -87 1 -4
9 -22 19 -40 9 -17 16 -48 15 -67 0 -30 0 -32 7 -10 7 24 8 24 20 -13 7 -20
17 -34 22 -31 6 4 6 10 1 17 -12 15 -42 87 -37 87 7 0 56 -100 82 -170 14 -36
25 -80 25 -97 -1 -18 3 -33 9 -33 6 0 7 -4 4 -10 -3 -5 -2 -10 3 -10 6 0 13
-17 17 -37 4 -21 17 -71 30 -113 13 -41 27 -94 31 -117 4 -24 10 -43 14 -43
15 0 21 -33 8 -42 -9 -5 -9 -8 -1 -8 15 0 33 -53 34 -104 1 -23 4 -31 6 -18 6
32 23 27 23 -8 0 -21 5 -30 16 -30 18 0 19 -5 -36 165 -21 66 -50 164 -65 217
-59 222 -152 442 -228 537 -34 43 -52 55 -144 100 -38 17 -43 24 -43 53 0 36
-15 58 -39 58 -15 0 -67 32 -133 83 -26 19 -44 26 -58 22 -11 -3 -20 -3 -20 2
-1 14 -50 45 -50 32z"/>
<path d="M1423 1253 c-7 -2 -13 -9 -13 -14 0 -4 7 -6 14 -3 17 7 76 -25 76
-41 0 -6 14 -11 30 -10 17 0 30 3 30 7 0 5 -10 8 -21 8 -12 0 -37 14 -56 30
-34 31 -39 32 -60 23z"/>
<path d="M963 1197 c-43 -45 -48 -79 -22 -162 43 -142 91 -218 223 -353 114
-118 162 -138 259 -111 28 8 47 22 70 56 18 25 52 70 77 100 25 29 63 86 83
127 21 40 56 90 78 112 52 50 50 65 -2 20 -23 -19 -46 -33 -50 -30 -5 3 -9 -8
-9 -23 0 -21 -14 -42 -55 -83 -30 -30 -55 -59 -55 -65 0 -5 5 -2 11 8 5 9 15
17 20 17 13 0 -18 -52 -54 -92 -16 -17 -40 -50 -54 -72 -32 -51 -36 -54 -100
-62 -44 -5 -58 -3 -88 16 -41 25 -85 66 -85 79 0 5 -15 19 -32 31 -40 27 -132
141 -171 209 -16 27 -37 84 -49 125 -20 75 -20 76 -1 113 21 39 43 55 43 29 0
-8 4 -17 10 -21 7 -4 -5 50 -15 62 -1 2 -15 -12 -32 -30z"/>
<path d="M1580 1190 c-9 -6 -10 -10 -3 -10 6 0 15 5 18 10 8 12 4 12 -15 0z"/>
<path d="M1486 1147 c1 -12 3 -28 3 -35 1 -20 21 -4 21 17 0 10 -6 24 -13 30
-11 8 -13 6 -11 -12z"/>
<path d="M1020 1138 c0 -7 14 -33 30 -57 17 -24 30 -38 30 -30 0 8 -9 25 -20
39 -11 14 -20 30 -20 37 0 6 -4 15 -10 18 -5 3 -10 0 -10 -7z"/>
<path d="M1543 1135 c-3 -9 -3 -18 -1 -21 3 -3 8 4 11 16 6 23 -1 27 -10 5z"/>
<path d="M2003 1115 c0 -22 2 -30 4 -17 2 12 2 30 0 40 -3 9 -5 -1 -4 -23z"/>
<path d="M1288 1113 c7 -3 16 -2 19 1 4 3 -2 6 -13 5 -11 0 -14 -3 -6 -6z"/>
<path d="M1456 1091 c-4 -5 -2 -12 3 -15 5 -4 12 -2 15 3 4 5 2 12 -3 15 -5 4
-12 2 -15 -3z"/>
<path d="M1308 1079 c-7 -4 -6 -9 1 -13 6 -4 11 -4 11 0 0 3 7 1 15 -6 8 -7
22 -10 30 -6 9 3 37 1 63 -5 26 -6 67 -12 92 -14 25 -1 57 -6 73 -10 20 -5 27
-4 27 8 0 10 -16 17 -51 21 -39 5 -49 10 -45 21 3 9 -1 15 -9 15 -8 0 -15 -9
-15 -20 0 -11 -4 -20 -10 -20 -16 0 -60 23 -55 29 5 9 -113 8 -127 0z"/>
<path d="M1272 1071 c-11 -7 -11 -9 0 -14 9 -3 15 1 15 9 0 8 -1 14 -1 14 -1
0 -7 -4 -14 -9z"/>
<path d="M1372 958 c10 -21 17 -23 70 -20 74 5 75 17 1 18 -33 1 -59 6 -61 13
-2 6 -7 11 -12 11 -4 0 -3 -10 2 -22z"/>
<path d="M2200 959 c0 -5 5 -7 10 -4 6 3 10 8 10 11 0 2 -4 4 -10 4 -5 0 -10
-5 -10 -11z"/>
<path d="M1310 950 c8 -5 20 -10 25 -10 6 0 3 5 -5 10 -8 5 -19 10 -25 10 -5
0 -3 -5 5 -10z"/>
<path d="M1184 899 c14 -17 26 -36 26 -42 0 -11 71 -67 85 -67 3 0 -11 17 -32
38 -21 20 -50 52 -63 69 -14 18 -29 33 -33 33 -5 0 3 -14 17 -31z"/>
<path d="M1440 879 c0 -5 5 -7 10 -4 6 3 10 8 10 11 0 2 -4 4 -10 4 -5 0 -10
-5 -10 -11z"/>
<path d="M490 795 c-20 -24 -6 -28 15 -5 10 11 13 20 8 20 -6 0 -16 -7 -23
-15z"/>
<path d="M881 794 c0 -11 3 -14 6 -6 3 7 2 16 -1 19 -3 4 -6 -2 -5 -13z"/>
<path d="M1763 777 c-7 -17 -14 -63 -18 -102 -3 -38 -8 -83 -10 -100 -2 -16
-7 -68 -9 -115 -7 -120 9 -49 24 104 6 67 15 148 20 180 11 69 9 79 -7 33z"/>
<path d="M458 753 c7 -3 16 -2 19 1 4 3 -2 6 -13 5 -11 0 -14 -3 -6 -6z"/>
<path d="M1420 756 c0 -2 9 -6 20 -9 11 -3 18 -1 14 4 -5 9 -34 13 -34 5z"/>
<path d="M2402 710 c0 -14 2 -19 5 -12 2 6 2 18 0 25 -3 6 -5 1 -5 -13z"/>
<path d="M2460 700 c6 -11 12 -20 14 -20 2 0 2 9 -1 20 -3 11 -9 20 -15 20 -5
0 -4 -9 2 -20z"/>
<path d="M1022 644 c10 -10 20 -16 22 -13 3 3 -5 11 -17 18 -21 13 -21 12 -5
-5z"/>
<path d="M2481 644 c0 -11 3 -14 6 -6 3 7 2 16 -1 19 -3 4 -6 -2 -5 -13z"/>
<path d="M872 610 c0 -14 2 -19 5 -12 2 6 2 18 0 25 -3 6 -5 1 -5 -13z"/>
<path d="M911 584 c0 -11 3 -14 6 -6 3 7 2 16 -1 19 -3 4 -6 -2 -5 -13z"/>
<path d="M1902 520 c0 -14 2 -19 5 -12 2 6 2 18 0 25 -3 6 -5 1 -5 -13z"/>
<path d="M2490 525 c0 -8 4 -15 10 -15 5 0 7 7 4 15 -4 8 -8 15 -10 15 -2 0
-4 -7 -4 -15z"/>
<path d="M1863 472 c0 -12 5 -22 9 -22 11 0 10 12 -2 30 -7 12 -9 10 -7 -8z"/>
<path d="M2495 480 c3 -5 8 -10 11 -10 2 0 4 5 4 10 0 6 -5 10 -11 10 -5 0 -7
-4 -4 -10z"/>
<path d="M2531 434 c0 -11 3 -14 6 -6 3 7 2 16 -1 19 -3 4 -6 -2 -5 -13z"/>
<path d="M1011 414 c0 -11 3 -14 6 -6 3 7 2 16 -1 19 -3 4 -6 -2 -5 -13z"/>
<path d="M1881 414 c0 -11 3 -14 6 -6 3 7 2 16 -1 19 -3 4 -6 -2 -5 -13z"/>
<path d="M1022 360 c0 -14 4 -38 8 -55 7 -27 8 -27 8 -5 0 14 -4 39 -8 55 -7
27 -8 27 -8 5z"/>
<path d="M960 349 c0 -5 5 -7 10 -4 6 3 10 8 10 11 0 2 -4 4 -10 4 -5 0 -10
-5 -10 -11z"/>
<path d="M1712 340 c0 -14 2 -19 5 -12 2 6 2 18 0 25 -3 6 -5 1 -5 -13z"/>
<path d="M1037 264 c-3 -4 -3 -14 2 -23 5 -9 12 -43 16 -76 4 -33 9 -69 10
-80 2 -11 4 -35 4 -52 1 -18 5 -33 9 -33 9 0 0 97 -18 203 -13 70 -13 71 -23
61z"/>
<path d="M1982 250 c0 -14 2 -19 5 -12 2 6 2 18 0 25 -3 6 -5 1 -5 -13z"/>
<path d="M1862 224 c-9 -10 -9 -14 -1 -14 7 0 9 -9 5 -25 -6 -24 -5 -25 14
-13 21 13 27 28 11 28 -5 0 -11 9 -13 19 -3 16 -5 17 -16 5z"/>
<path d="M1835 190 c-3 -5 -1 -10 4 -10 6 0 11 5 11 10 0 6 -2 10 -4 10 -3 0
-8 -4 -11 -10z"/>
<path d="M2372 145 c0 -16 2 -22 5 -12 2 9 2 23 0 30 -3 6 -5 -1 -5 -18z"/>
<path d="M1751 64 c0 -11 3 -14 6 -6 3 7 2 16 -1 19 -3 4 -6 -2 -5 -13z"/>
<path d="M1741 24 c0 -11 3 -14 6 -6 3 7 2 16 -1 19 -3 4 -6 -2 -5 -13z"/>
</g>
</svg>
