<?xml version="1.0" standalone="no"?>
<!DOCTYPE svg PUBLIC "-//W3C//DTD SVG 20010904//EN"
 "http://www.w3.org/TR/2001/REC-SVG-20010904/DTD/svg10.dtd">
<svg version="1.0" xmlns="http://www.w3.org/2000/svg"
 width="300.000000pt" height="300.000000pt" viewBox="0 0 300.000000 300.000000"
 preserveAspectRatio="xMidYMid meet">
<metadata>
Created by potrace 1.10, written by Peter Selinger 2001-2011
</metadata>
<g transform="translate(0.000000,300.000000) scale(0.100000,-0.100000)"
fill="#000000" stroke="none">
<path d="M800 2991 c0 -6 5 -13 10 -16 6 -3 10 1 10 9 0 9 -4 16 -10 16 -5 0
-10 -4 -10 -9z"/>
<path d="M965 2990 c3 -5 16 -10 28 -10 18 0 19 2 7 10 -20 13 -43 13 -35 0z"/>
<path d="M1065 2995 c23 -8 85 -10 85 -3 0 4 -21 8 -47 7 -27 0 -43 -2 -38 -4z"/>
<path d="M1194 2987 c-12 -7 -19 -18 -17 -24 5 -14 64 -18 62 -5 -3 18 2 32
11 32 6 0 9 -6 8 -12 -2 -8 6 -12 21 -10 21 2 22 0 10 -15 -12 -14 -12 -16 1
-8 8 5 27 8 42 7 15 -1 28 3 28 8 0 6 -5 8 -11 4 -8 -4 -9 1 -4 17 7 21 7 22
-9 6 -17 -16 -51 -13 -40 4 3 5 0 9 -5 9 -6 0 -11 -5 -11 -11 0 -8 -4 -8 -12
-2 -18 13 -50 13 -74 0z"/>
<path d="M1480 2987 c0 -19 10 -27 25 -20 17 6 8 33 -11 33 -8 0 -14 -6 -14
-13z"/>
<path d="M1610 2994 c1 -13 29 -48 34 -43 2 2 -4 15 -15 28 -10 13 -19 19 -19
15z"/>
<path d="M1640 2992 c0 -5 7 -9 15 -9 8 0 15 4 15 9 0 4 -7 8 -15 8 -8 0 -15
-4 -15 -8z"/>
<path d="M1780 2992 c0 -5 7 -9 15 -9 8 0 12 4 9 9 -3 4 -9 8 -15 8 -5 0 -9
-4 -9 -8z"/>
<path d="M1864 2985 c19 -15 19 -15 -2 -15 -12 0 -22 5 -22 10 0 6 -5 10 -11
10 -8 0 -8 -4 0 -14 9 -11 8 -15 -5 -20 -23 -9 -36 -7 -29 4 3 6 1 10 -4 10
-6 0 -11 -8 -11 -17 -1 -17 -1 -17 -11 0 -6 9 -14 15 -20 12 -5 -4 -9 -1 -9 4
0 6 -5 11 -12 11 -6 0 -4 -7 5 -18 10 -10 15 -21 12 -24 -3 -3 22 -6 56 -6 48
-1 60 2 55 13 -5 15 17 11 44 -9 19 -14 25 -46 8 -47 -7 0 -2 -5 11 -10 13 -5
26 -7 29 -4 3 3 0 5 -6 5 -7 0 -12 11 -12 25 0 15 -10 31 -25 41 -14 9 -23 19
-20 22 7 7 -15 32 -29 32 -6 0 -2 -7 8 -15z"/>
<path d="M1900 2990 c0 -5 5 -10 10 -10 6 0 10 5 10 10 0 6 -4 10 -10 10 -5 0
-10 -4 -10 -10z"/>
<path d="M1935 2990 c-3 -5 3 -10 13 -10 23 0 45 -23 34 -36 -4 -5 5 1 19 14
14 12 31 22 37 22 7 0 12 4 12 8 0 5 -14 9 -30 9 -20 0 -26 -3 -18 -9 9 -5 6
-8 -9 -8 -12 0 -25 5 -28 10 -3 6 -10 10 -15 10 -5 0 -12 -4 -15 -10z"/>
<path d="M2083 2993 c9 -2 23 -2 30 0 6 3 -1 5 -18 5 -16 0 -22 -2 -12 -5z"/>
<path d="M2224 2985 c-7 -18 -35 -20 -53 -2 -10 10 -15 9 -24 -3 -7 -8 -23
-15 -37 -15 -14 0 -28 -4 -32 -10 -5 -6 -12 -5 -17 5 -6 8 -13 11 -17 7 -4 -4
0 -15 9 -25 10 -10 14 -22 11 -25 -4 -4 -14 2 -24 12 -10 13 -21 17 -29 11
-10 -6 -8 -9 8 -15 11 -3 24 -17 27 -30 6 -24 50 -40 81 -28 11 4 14 3 9 -5
-4 -7 -2 -12 4 -12 7 0 10 6 7 14 -6 16 19 43 30 33 3 -4 12 -2 20 5 11 9 12
7 7 -8 -5 -18 -5 -18 6 -1 12 19 45 23 55 7 10 -17 25 -1 23 25 -2 25 -30 45
-36 26 -2 -6 -20 -11 -40 -12 -30 0 -33 -2 -17 -9 20 -8 16 -11 -22 -14 -7 -1
-22 -9 -33 -19 -11 -9 -26 -17 -33 -17 -6 0 -1 9 12 19 14 10 19 21 14 24 -6
4 -22 -5 -37 -20 -14 -14 -29 -23 -32 -20 -7 7 32 47 47 47 6 0 8 8 5 18 -6
16 -5 16 8 -1 14 -17 46 -14 46 5 0 6 13 7 31 3 22 -5 29 -4 25 4 -4 6 4 15
18 21 31 11 33 20 6 20 -11 0 -23 -7 -26 -15z m-64 -30 c-7 -9 -15 -13 -18
-10 -3 2 1 11 8 20 7 9 15 13 18 10 3 -2 -1 -11 -8 -20z m110 -18 c0 -8 -7
-14 -15 -14 -11 0 -12 4 -4 14 6 7 13 13 15 13 2 0 4 -6 4 -13z"/>
<path d="M2298 2993 c17 -7 15 -23 -3 -23 -12 0 -12 -3 2 -20 21 -24 41 -27
22 -3 -11 13 -11 17 -1 21 16 5 -3 32 -22 31 -7 0 -6 -2 2 -6z"/>
<path d="M1020 2980 c0 -5 7 -10 15 -10 8 0 15 5 15 10 0 6 -7 10 -15 10 -8 0
-15 -4 -15 -10z"/>
<path d="M1551 2974 c-11 -13 -10 -15 5 -12 14 2 18 -2 17 -17 -1 -11 0 -14 3
-7 3 6 13 12 22 12 13 0 14 -2 3 -9 -7 -5 -9 -11 -4 -14 5 -3 14 -2 21 2 17
10 -17 50 -37 43 -8 -3 -11 0 -7 7 10 16 -7 13 -23 -5z"/>
<path d="M1691 2976 c-11 -13 -10 -17 3 -22 22 -8 30 1 19 21 -9 15 -11 15
-22 1z"/>
<path d="M1062 2964 c-9 -6 -28 -15 -42 -19 -32 -10 -51 -25 -44 -36 3 -5 16
-2 29 7 16 10 32 13 47 8 13 -4 32 -8 43 -9 11 -1 23 -3 28 -4 4 0 7 -9 7 -18
0 -15 -2 -16 -10 -3 -10 16 -14 8 -10 -25 1 -11 9 -24 17 -28 12 -7 12 -11 1
-25 -12 -15 -11 -16 4 -4 9 8 26 11 37 7 16 -5 19 -2 16 14 -2 12 0 21 5 21 4
0 7 11 5 25 -1 14 2 25 6 25 5 0 9 -6 10 -12 0 -7 4 -3 9 10 10 23 25 29 35
12 3 -5 11 -10 16 -10 6 0 7 5 4 10 -3 6 1 11 9 11 29 3 34 4 42 12 9 9 -15 8
-41 -2 -11 -5 -27 -5 -36 0 -10 5 -23 3 -35 -6 -28 -21 -41 -18 -52 14 -8 23
-17 29 -47 33 -20 2 -44 -1 -53 -8z m112 -65 c17 -14 18 -19 7 -32 -7 -9 -10
-21 -6 -27 7 -12 -5 -13 -20 -2 -15 10 -12 31 5 42 13 8 12 10 -2 10 -10 0
-18 7 -18 15 0 9 -6 18 -14 21 -8 3 -12 12 -9 20 4 12 9 10 21 -8 9 -13 25
-30 36 -39z m-87 35 c-3 -3 -12 -4 -19 -1 -8 3 -5 6 6 6 11 1 17 -2 13 -5z"/>
<path d="M1404 2969 c-3 -6 -11 -8 -18 -6 -6 3 -12 -6 -13 -21 -1 -22 0 -24 9
-9 7 14 13 15 23 7 11 -9 12 -7 8 12 l-5 23 18 -24 c12 -17 14 -26 6 -29 -7
-2 -12 -10 -12 -18 0 -9 -4 -12 -10 -9 -5 3 -10 0 -10 -8 0 -15 -20 -27 -46
-27 -9 0 -13 4 -10 9 3 5 -1 14 -9 21 -14 11 -14 10 -5 -14 14 -37 13 -41 -7
-25 -15 11 -16 11 -5 -1 6 -8 12 -18 12 -23 0 -5 -5 -5 -12 1 -7 5 -25 8 -41
6 -18 -2 -25 1 -21 8 5 8 1 9 -10 5 -10 -4 -19 -1 -23 9 -5 13 -7 13 -14 2
-15 -23 -10 -28 31 -34 22 -4 37 -11 34 -15 -3 -5 0 -8 8 -7 9 2 12 -6 11 -25
-1 -17 2 -25 9 -21 6 4 8 -1 4 -13 -4 -13 -2 -20 8 -20 10 0 12 7 6 28 -5 15
-5 30 -2 34 4 3 -4 15 -18 26 l-25 19 28 -10 c29 -10 51 -5 42 9 -2 5 14 11
36 15 32 5 40 10 35 22 -4 12 -2 15 9 10 10 -4 15 1 15 14 0 14 7 20 23 21 12
0 16 3 10 6 -20 8 -16 33 5 27 14 -5 14 -3 -3 11 -12 9 -21 11 -23 5 -2 -5 -8
-10 -13 -10 -6 0 -8 4 -5 9 3 5 -1 11 -9 15 -8 3 -17 1 -21 -5z"/>
<path d="M860 2961 c0 -4 -17 -8 -37 -9 -42 -3 -48 -6 -38 -21 8 -14 52 -14
60 -1 3 6 15 10 25 10 27 0 34 17 10 23 -11 3 -20 2 -20 -2z"/>
<path d="M926 2958 c2 -4 -5 -9 -16 -13 -15 -5 -20 -16 -22 -46 -1 -21 -2 -47
-2 -56 -1 -12 6 -18 19 -18 16 0 20 7 20 35 0 19 -7 41 -15 48 -13 11 -11 11
8 2 29 -14 39 -6 21 17 -9 10 -9 14 -2 10 10 -7 73 17 73 27 0 1 -20 2 -44 2
-24 -1 -42 -4 -40 -8z"/>
<path d="M2445 2953 c-38 -22 -52 -24 -81 -13 -18 7 -24 6 -24 -5 0 -9 6 -12
17 -8 11 4 14 3 9 -6 -5 -8 -19 -10 -35 -7 -14 3 -21 3 -14 0 7 -3 9 -13 6
-22 -6 -14 -4 -15 8 -6 8 7 30 15 49 18 26 5 31 4 20 -3 -8 -6 -24 -11 -35
-12 -17 -1 -17 -2 -2 -6 15 -4 21 -15 18 -35 0 -5 2 -7 7 -6 4 1 18 -4 31 -11
18 -10 25 -10 31 -1 4 6 25 14 46 17 46 6 59 16 50 38 -4 11 -13 15 -26 12
-27 -7 -25 10 3 34 19 16 20 20 7 29 -22 14 -51 12 -85 -7z m45 -16 c0 -7 -5
-18 -12 -25 -9 -9 -9 -12 0 -12 7 0 12 -4 12 -10 0 -5 -9 -10 -21 -10 -12 0
-17 4 -13 11 3 6 -5 3 -20 -6 -33 -22 -33 -27 2 -19 25 6 26 5 10 -11 -15 -16
-18 -16 -39 -1 -13 9 -18 16 -11 16 7 0 11 4 8 8 -3 5 6 15 20 23 14 7 30 21
35 31 11 21 29 24 29 5z"/>
<path d="M1511 2951 c-10 -6 -9 -10 5 -15 20 -8 25 -4 16 11 -4 7 -13 9 -21 4z"/>
<path d="M1951 2946 c-9 -10 -9 -16 -1 -21 6 -4 14 -4 17 -1 4 3 0 6 -8 6 -12
0 -12 2 1 10 8 5 12 12 9 15 -4 3 -12 -1 -18 -9z"/>
<path d="M1670 2943 c8 -4 20 -13 27 -22 6 -9 15 -12 20 -8 10 10 -25 37 -46
36 -14 0 -14 -1 -1 -6z"/>
<path d="M1553 2925 c2 -11 9 -19 16 -17 9 2 11 -3 7 -13 -3 -9 -2 -13 4 -10
15 9 12 35 -4 35 -8 0 -17 6 -20 13 -3 6 -4 3 -3 -8z"/>
<path d="M1660 2920 c16 -10 8 -13 -29 -10 -14 1 -21 -2 -17 -9 10 -15 41 -14
55 2 11 14 5 27 -13 27 -6 0 -4 -5 4 -10z"/>
<path d="M850 2911 c0 -5 5 -13 10 -16 6 -3 10 -2 10 4 0 5 -4 13 -10 16 -5 3
-10 2 -10 -4z"/>
<path d="M1020 2910 c0 -5 5 -10 11 -10 5 0 7 5 4 10 -3 6 -8 10 -11 10 -2 0
-4 -4 -4 -10z"/>
<path d="M1338 2908 c5 -5 16 -8 23 -6 8 3 3 7 -10 11 -17 4 -21 3 -13 -5z"/>
<path d="M1520 2913 c0 -13 29 -38 35 -31 3 3 -4 13 -15 23 -11 10 -20 13 -20
8z"/>
<path d="M1805 2910 c3 -5 8 -10 11 -10 2 0 4 5 4 10 0 6 -5 10 -11 10 -5 0
-7 -4 -4 -10z"/>
<path d="M1850 2910 c-25 -6 -25 -6 -3 -12 13 -3 26 -2 29 4 9 14 2 16 -26 8z"/>
<path d="M1990 2911 c0 -4 -10 -7 -22 -6 -13 1 -16 0 -7 -2 18 -5 15 -43 -4
-43 -6 0 -7 -3 -3 -7 4 -4 18 6 32 22 14 17 23 24 19 18 -3 -7 -1 -13 4 -13
17 0 13 27 -4 34 -8 3 -15 2 -15 -3z"/>
<path d="M721 2893 c-7 -8 -20 -12 -28 -9 -25 10 -43 -12 -33 -38 5 -13 7 -35
6 -49 -3 -27 3 -28 51 -7 41 19 48 36 14 35 -33 0 -35 23 -3 51 13 12 20 24
16 27 -5 3 -15 -2 -23 -10z"/>
<path d="M1230 2903 c0 -14 15 -30 40 -43 23 -12 24 -12 11 3 -7 10 -10 17 -5
17 10 0 -28 29 -38 30 -5 0 -8 -3 -8 -7z"/>
<path d="M1290 2899 c0 -5 5 -7 10 -4 6 3 10 8 10 11 0 2 -4 4 -10 4 -5 0 -10
-5 -10 -11z"/>
<path d="M1780 2895 c7 -9 15 -13 17 -11 7 7 -7 26 -19 26 -6 0 -6 -6 2 -15z"/>
<path d="M1058 2893 c-7 -34 -3 -63 8 -63 7 0 21 -3 31 -6 12 -4 9 1 -9 18
-30 28 -36 43 -14 35 10 -4 13 -1 9 9 -5 15 -22 19 -25 7z"/>
<path d="M1455 2892 c8 -9 65 -9 59 -1 -2 4 -18 7 -34 7 -17 -1 -28 -3 -25 -6z"/>
<path d="M1729 2889 c-11 -7 -10 -9 5 -9 19 0 19 0 1 -13 -11 -9 -14 -16 -8
-20 6 -4 13 0 17 8 3 8 11 15 17 15 8 0 8 -4 -1 -15 -10 -12 -10 -19 -2 -27
16 -16 15 -28 -3 -28 -8 0 -15 6 -15 14 0 17 -33 31 -38 17 -2 -6 -9 -8 -14
-5 -6 4 -8 2 -5 -4 4 -5 15 -8 26 -5 11 3 21 -2 24 -11 4 -9 1 -16 -5 -16 -6
0 -9 -2 -7 -5 3 -2 22 0 42 6 36 10 36 10 16 30 -24 24 -15 48 9 26 10 -8 28
-18 42 -22 22 -7 23 -6 11 9 -12 14 -11 16 7 16 12 0 26 10 32 23 10 20 10 20
-3 5 -8 -10 -20 -18 -28 -18 -12 0 -12 2 -1 9 11 7 10 10 -3 15 -22 8 -22 9
-21 -15 1 -12 -5 -24 -13 -27 -8 -3 -11 0 -7 7 4 6 1 11 -7 11 -7 0 -22 9 -34
19 -13 13 -25 16 -34 10z"/>
<path d="M950 2883 c0 -11 20 -40 20 -30 0 4 9 -2 21 -14 15 -15 18 -24 10
-32 -8 -8 -11 -7 -11 5 0 10 -7 16 -19 15 -16 -1 -18 -8 -16 -53 2 -44 0 -52
-14 -47 -14 4 -14 3 -1 -6 24 -17 33 -13 28 12 -2 13 1 29 9 35 7 7 13 9 13 5
0 -4 7 5 15 21 8 15 15 34 15 41 0 7 6 16 13 19 6 3 -1 3 -18 0 -23 -4 -27 -3
-15 5 12 9 11 11 -7 11 -13 0 -23 5 -23 10 0 6 -4 10 -10 10 -5 0 -10 -3 -10
-7z m35 -83 c3 -5 2 -10 -4 -10 -5 0 -13 5 -16 10 -3 6 -2 10 4 10 5 0 13 -4
16 -10z"/>
<path d="M1589 2866 c-7 -14 -16 -26 -21 -26 -5 0 -6 6 -2 13 5 9 3 9 -7 -1
-12 -11 -12 -14 1 -22 23 -15 29 -12 36 15 5 20 9 23 20 14 15 -12 34 -4 34
14 0 7 -4 6 -10 -3 -9 -13 -12 -13 -25 4 -14 18 -15 18 -26 -8z"/>
<path d="M1677 2871 c3 -12 9 -21 13 -21 12 0 5 33 -8 38 -6 2 -8 -5 -5 -17z"/>
<path d="M2163 2882 c-10 -6 -10 -12 3 -28 8 -10 13 -13 9 -6 -8 15 0 15 25 2
13 -7 21 -7 25 0 6 9 -8 14 -20 8 -2 -2 -10 5 -17 14 -8 11 -18 14 -25 10z"/>
<path d="M2270 2880 c-12 -8 -11 -10 8 -10 12 0 22 5 22 10 0 13 -11 13 -30 0z"/>
<path d="M750 2860 c0 -11 6 -20 14 -20 9 0 12 -7 9 -18 -4 -15 5 -22 42 -32
34 -10 49 -10 57 -2 7 7 8 15 4 19 -4 4 -11 1 -17 -7 -8 -13 -10 -13 -18 0 -5
8 -8 17 -5 21 2 4 -1 11 -7 15 -7 4 -9 3 -6 -2 3 -6 2 -16 -3 -24 -7 -11 -11
-7 -16 18 -5 22 -11 31 -20 28 -8 -3 -14 1 -14 9 0 8 -4 15 -10 15 -5 0 -10
-9 -10 -20z"/>
<path d="M1298 2873 c7 -3 16 -2 19 1 4 3 -2 6 -13 5 -11 0 -14 -3 -6 -6z"/>
<path d="M1485 2853 c5 -15 4 -16 -6 -5 -15 14 -33 16 -24 2 3 -5 0 -10 -8
-10 -8 0 -17 -7 -21 -15 -3 -8 -1 -15 4 -15 5 0 11 -8 13 -17 4 -14 5 -14 6
-3 0 9 14 24 31 33 27 17 33 47 8 47 -6 0 -7 -8 -3 -17z"/>
<path d="M1521 2863 c0 -4 4 -17 9 -28 8 -19 9 -19 9 2 1 12 -3 25 -9 28 -5 3
-10 3 -9 -2z"/>
<path d="M2343 2855 c-3 -9 -3 -18 -1 -21 3 -3 8 4 11 16 6 23 -1 27 -10 5z"/>
<path d="M845 2850 c-3 -5 1 -10 10 -10 9 0 13 5 10 10 -3 6 -8 10 -10 10 -2
0 -7 -4 -10 -10z"/>
<path d="M1886 2851 c-4 -5 3 -7 14 -4 23 6 26 13 6 13 -8 0 -17 -4 -20 -9z"/>
<path d="M1995 2850 c3 -5 10 -10 16 -10 5 0 9 5 9 10 0 6 -7 10 -16 10 -8 0
-12 -4 -9 -10z"/>
<path d="M530 2842 c0 -5 7 -9 15 -9 8 0 15 4 15 9 0 4 -7 8 -15 8 -8 0 -15
-4 -15 -8z"/>
<path d="M2019 2829 c-13 -18 -15 -19 -26 -2 -11 14 -13 14 -13 1 0 -19 -50
-19 -66 1 -8 11 -13 11 -18 2 -12 -18 0 -25 47 -25 23 -1 44 -3 47 -6 3 -3 20
-10 38 -17 27 -10 31 -9 23 1 -6 7 -8 16 -4 20 4 4 0 4 -10 0 -9 -3 -17 -2
-17 4 0 16 35 20 48 6 7 -7 19 -11 28 -7 11 4 12 8 4 13 -7 5 -9 14 -5 21 6
11 5 11 -5 2 -8 -7 -21 -9 -35 -3 -16 6 -25 4 -36 -11z"/>
<path d="M635 2830 c3 -5 8 -10 11 -10 2 0 4 5 4 10 0 6 -5 10 -11 10 -5 0 -7
-4 -4 -10z"/>
<path d="M1625 2830 c3 -5 8 -10 11 -10 2 0 4 5 4 10 0 6 -5 10 -11 10 -5 0
-7 -4 -4 -10z"/>
<path d="M2114 2825 c3 -8 -1 -21 -9 -28 -11 -12 -9 -14 18 -14 24 -1 27 1 13
6 -19 7 -19 8 -1 15 10 4 21 2 25 -5 6 -8 9 -7 13 2 5 12 7 11 16 -1 6 -9 6
-17 1 -20 -6 -3 -11 -19 -14 -35 -2 -17 -1 -24 1 -17 7 19 36 52 46 52 4 0 5
-4 2 -10 -3 -5 3 -15 14 -22 20 -12 20 -13 -2 -25 -12 -7 -17 -12 -11 -13 5 0
18 6 28 13 17 12 17 15 3 29 -9 9 -13 18 -10 21 3 3 -6 9 -21 13 -14 3 -24 10
-21 14 6 10 -19 20 -51 20 -13 0 -24 5 -24 10 0 6 -5 10 -11 10 -6 0 -9 -7 -5
-15z"/>
<path d="M2220 2827 c0 -17 44 -41 62 -34 7 3 3 6 -10 6 -14 1 -21 5 -16 12 3
6 0 15 -7 20 -20 12 -29 11 -29 -4z"/>
<path d="M1377 2823 c-21 -5 -19 -54 3 -61 9 -3 11 2 6 22 -6 25 6 36 19 16 3
-5 10 -10 16 -10 5 0 4 9 -3 20 -7 11 -15 19 -18 19 -3 -1 -13 -3 -23 -6z"/>
<path d="M1660 2818 c0 -9 7 -22 17 -29 15 -13 15 -12 3 11 -17 34 -20 36 -20
18z"/>
<path d="M1860 2810 c0 -11 -4 -20 -10 -20 -15 0 -12 -27 3 -33 19 -7 34 4 39
28 2 13 -2 19 -11 17 -8 -2 -11 3 -8 13 4 8 2 15 -3 15 -6 0 -10 -9 -10 -20z
m15 -30 c3 -5 1 -10 -4 -10 -6 0 -11 5 -11 10 0 6 2 10 4 10 3 0 8 -4 11 -10z"/>
<path d="M2370 2820 c-8 -5 -10 -10 -5 -10 6 0 17 5 25 10 8 5 11 10 5 10 -5
0 -17 -5 -25 -10z"/>
<path d="M2470 2816 c0 -8 10 -16 22 -18 25 -4 37 -28 14 -28 -9 0 -16 5 -16
12 0 6 -3 9 -6 5 -12 -12 8 -47 27 -47 11 0 17 5 14 10 -3 6 1 10 9 10 9 0 16
-7 16 -15 0 -8 -7 -15 -15 -15 -8 0 -15 -5 -15 -11 0 -5 4 -8 9 -4 5 3 12 1
16 -5 4 -6 11 -8 16 -4 5 3 17 0 25 -7 8 -6 17 -9 20 -6 3 3 -5 13 -19 21 -16
11 -24 26 -25 47 -1 36 -18 60 -37 53 -7 -3 -16 -1 -20 5 -9 16 -35 13 -35 -3z"/>
<path d="M1487 2813 c-4 -3 -2 -12 4 -20 9 -10 7 -13 -10 -13 -11 0 -21 -4
-21 -10 0 -16 32 -11 45 7 19 25 2 57 -18 36z"/>
<path d="M2320 2809 c0 -5 5 -7 10 -4 6 3 10 8 10 11 0 2 -4 4 -10 4 -5 0 -10
-5 -10 -11z"/>
<path d="M2644 2798 c5 -20 0 -34 -19 -54 -25 -27 -25 -55 0 -34 7 6 18 9 25
8 14 -4 44 67 36 87 -8 21 -27 19 -19 -2 5 -15 3 -15 -11 2 -17 20 -17 19 -12
-7z"/>
<path d="M890 2801 c0 -12 29 -23 42 -15 6 4 5 10 -3 15 -18 11 -39 11 -39 0z"/>
<path d="M1531 2807 c2 -1 12 -9 22 -16 15 -12 17 -12 11 3 -3 9 -13 16 -22
16 -8 0 -13 -1 -11 -3z"/>
<path d="M1815 2800 c3 -5 8 -10 11 -10 2 0 4 5 4 10 0 6 -5 10 -11 10 -5 0
-7 -4 -4 -10z"/>
<path d="M2410 2803 c-8 -4 -21 -12 -28 -20 -7 -7 -20 -13 -28 -13 -8 0 -12
-4 -9 -10 3 -5 -3 -10 -14 -10 -13 0 -21 -6 -21 -17 0 -10 4 -14 8 -8 13 19
52 35 84 36 18 0 27 3 21 6 -18 7 -16 23 2 23 8 0 15 -6 15 -12 0 -9 3 -8 10
2 14 22 -9 35 -40 23z"/>
<path d="M1020 2782 c0 -11 -10 -24 -22 -30 -17 -8 -19 -11 -6 -11 9 -1 26 11
37 27 l20 27 1 -28 c0 -16 -4 -26 -8 -23 -5 3 -9 -1 -9 -8 0 -8 6 -12 14 -9 7
3 13 20 13 39 0 27 -4 34 -20 34 -13 0 -20 -7 -20 -18z"/>
<path d="M1197 2783 c5 -12 2 -15 -10 -10 -9 3 -17 2 -17 -3 0 -11 66 -8 77 4
4 5 0 6 -10 3 -11 -4 -20 -1 -23 8 -4 8 -10 15 -15 15 -4 0 -5 -8 -2 -17z"/>
<path d="M1621 2791 c-9 -6 -10 -11 -2 -15 6 -4 11 -2 11 4 0 7 6 10 13 7 6
-2 11 -9 10 -15 -1 -5 7 -12 19 -15 20 -6 20 -5 -3 19 -25 27 -28 28 -48 15z"/>
<path d="M473 2783 c-29 -11 -10 -22 33 -21 37 2 50 -2 64 -20 29 -35 68 -26
54 13 -4 9 -14 15 -24 12 -9 -2 -25 2 -35 9 -18 14 -68 17 -92 7z"/>
<path d="M730 2775 c-10 -12 -10 -15 4 -15 9 0 16 4 16 9 0 5 8 12 18 14 13 4
13 5 -4 6 -12 0 -27 -6 -34 -14z"/>
<path d="M1116 2775 c-3 -8 -1 -15 3 -15 5 0 11 7 15 15 3 8 1 15 -3 15 -5 0
-11 -7 -15 -15z"/>
<path d="M1955 2780 c3 -5 11 -10 16 -10 6 0 7 5 4 10 -3 6 -11 10 -16 10 -6
0 -7 -4 -4 -10z"/>
<path d="M770 2763 c-14 -9 -28 -22 -33 -27 -5 -7 -12 -6 -20 5 -16 21 -81 14
-73 -7 3 -8 1 -14 -5 -14 -6 0 -7 -4 -4 -10 9 -14 18 -13 41 6 17 14 17 15 1
10 -11 -3 -16 -2 -12 4 7 12 35 13 35 2 0 -11 39 -12 45 -1 4 5 11 7 16 4 5
-4 9 0 9 9 0 8 12 19 28 24 15 6 20 11 12 11 -9 1 -27 -7 -40 -16z"/>
<path d="M882 2762 c-9 -12 -14 -13 -18 -5 -4 9 -13 9 -37 1 -29 -10 -57 -38
-46 -46 2 -2 -6 -9 -18 -16 -23 -12 -23 -12 -3 -29 11 -9 20 -13 20 -7 0 5 -5
12 -11 16 -8 4 -6 10 7 17 13 7 19 7 22 -2 3 -9 7 -9 17 -1 8 6 11 18 9 25 -4
10 0 12 15 8 12 -3 21 -12 21 -20 0 -18 31 -73 42 -73 4 0 5 9 3 20 -3 18 1
20 41 18 24 0 44 -5 44 -10 0 -4 5 -8 12 -8 16 0 -21 38 -45 46 -11 3 -22 2
-26 -4 -9 -14 -51 -25 -51 -13 0 6 5 11 11 11 6 0 3 7 -5 16 -21 20 -20 28 1
20 10 -4 14 -4 11 0 -4 4 -3 15 2 25 13 23 -2 33 -18 11z"/>
<path d="M1140 2760 c-6 -11 -8 -20 -6 -20 3 0 10 9 16 20 6 11 8 20 6 20 -3
0 -10 -9 -16 -20z"/>
<path d="M1337 2774 c-10 -10 20 -34 40 -33 14 0 14 2 3 6 -8 3 -20 11 -26 19
-6 8 -14 11 -17 8z"/>
<path d="M1407 2774 c-6 -10 9 -42 16 -34 3 3 1 14 -3 24 -3 11 -9 15 -13 10z"/>
<path d="M1587 2773 c-4 -3 -7 -11 -7 -17 0 -6 5 -5 12 2 6 6 9 14 7 17 -3 3
-9 2 -12 -2z"/>
<path d="M1780 2771 c0 -6 4 -11 9 -11 6 0 9 -9 8 -20 -1 -14 -6 -19 -17 -15
-11 5 -12 3 -4 -5 17 -17 54 5 54 31 0 11 -5 17 -10 14 -6 -4 -17 -1 -25 5
-11 9 -15 9 -15 1z"/>
<path d="M1900 2769 c0 -5 5 -7 10 -4 6 3 10 8 10 11 0 2 -4 4 -10 4 -5 0 -10
-5 -10 -11z"/>
<path d="M1746 2759 c2 -4 -1 -9 -8 -11 -14 -5 -1 -28 15 -27 8 0 8 2 -1 6
-10 4 -10 9 2 22 14 15 14 18 1 18 -8 0 -12 -4 -9 -8z"/>
<path d="M1260 2750 c0 -5 5 -10 11 -10 5 0 7 5 4 10 -3 6 -8 10 -11 10 -2 0
-4 -4 -4 -10z"/>
<path d="M1934 2748 c-3 -5 -3 -12 0 -15 3 -3 -2 -12 -12 -19 -16 -12 -15 -13
6 -14 13 0 22 6 22 14 0 20 12 26 39 19 16 -4 20 -10 15 -27 -6 -21 -6 -21 9
-1 18 23 5 47 -20 38 -9 -4 -14 -2 -11 3 4 5 -5 10 -18 10 -13 1 -27 -2 -30
-8z"/>
<path d="M2104 2748 c3 -17 48 -17 54 0 2 6 -1 12 -8 12 -6 0 -8 -4 -5 -10 3
-5 1 -10 -4 -10 -6 0 -11 6 -11 13 0 9 -3 8 -9 -2 -6 -9 -10 -10 -14 -2 -3 7
-5 7 -3 -1z"/>
<path d="M2454 2738 c3 -13 5 -27 5 -33 1 -5 5 -4 10 4 10 15 3 51 -10 51 -5
0 -7 -10 -5 -22z"/>
<path d="M1087 2743 c-3 -5 0 -19 8 -29 15 -20 18 -11 6 20 -4 11 -10 15 -14
9z"/>
<path d="M1211 2741 c-8 -5 -9 -11 -3 -15 5 -3 12 1 16 9 6 17 6 18 -13 6z"/>
<path d="M1504 2739 c-3 -6 -17 -8 -29 -5 -13 3 -26 2 -29 -3 -11 -18 41 -17
64 1 12 10 17 18 12 18 -6 0 -14 -5 -18 -11z"/>
<path d="M1647 2730 c-3 -11 -3 -20 -1 -20 2 0 8 9 14 20 6 11 7 20 2 20 -6 0
-12 -9 -15 -20z"/>
<path d="M1552 2733 c-20 -8 -3 -23 27 -23 16 0 34 7 41 15 8 9 8 15 2 15 -6
0 -12 -6 -15 -12 -4 -10 -7 -10 -18 0 -14 13 -17 13 -37 5z"/>
<path d="M2420 2729 c0 -5 5 -7 10 -4 6 3 10 8 10 11 0 2 -4 4 -10 4 -5 0 -10
-5 -10 -11z"/>
<path d="M1128 2723 c6 -2 10 -9 6 -14 -3 -5 0 -9 6 -9 6 0 8 -6 4 -12 -4 -8
-3 -10 2 -5 19 18 5 48 -21 46 -5 0 -4 -3 3 -6z"/>
<path d="M1388 2718 c6 -6 24 -13 39 -14 23 -2 25 -1 10 7 -9 6 -22 7 -27 4
-6 -3 -10 -1 -10 4 0 6 -5 11 -12 11 -9 0 -9 -3 0 -12z"/>
<path d="M1886 2715 c-3 -9 -12 -12 -23 -8 -16 6 -16 5 -5 -10 8 -8 20 -13 27
-11 11 5 12 0 5 -25 -5 -19 -5 -29 1 -26 5 4 9 13 9 21 0 8 4 13 9 9 5 -3 12
-1 16 4 3 6 -3 15 -14 21 -12 6 -18 16 -15 25 4 8 4 15 1 15 -3 0 -7 -7 -11
-15z"/>
<path d="M1233 2705 c0 -8 4 -12 8 -10 3 3 9 -5 12 -16 4 -13 10 -18 17 -14 9
6 9 2 1 -14 -10 -17 -9 -21 4 -21 23 0 18 36 -10 65 -30 29 -32 30 -32 10z"/>
<path d="M2480 2710 c0 -5 4 -10 9 -10 6 0 13 5 16 10 3 6 -1 10 -9 10 -9 0
-16 -4 -16 -10z"/>
<path d="M1526 2694 c-9 -24 -7 -31 7 -31 9 0 12 9 9 24 -5 27 -8 28 -16 7z"/>
<path d="M1687 2699 c7 -7 15 -10 18 -7 3 3 -2 9 -12 12 -14 6 -15 5 -6 -5z"/>
<path d="M1733 2693 c-30 -28 -34 -48 -10 -63 19 -11 20 -11 11 1 -16 22 -11
44 12 43 12 0 21 7 21 18 2 23 -8 23 -34 1z"/>
<path d="M1826 2693 c-6 -14 -5 -15 5 -6 7 7 10 15 7 18 -3 3 -9 -2 -12 -12z"/>
<path d="M2657 2700 c-39 -5 -51 -22 -21 -28 10 -3 14 0 10 7 -4 7 1 11 12 11
17 0 15 -5 -13 -36 -18 -19 -39 -35 -46 -34 -32 5 -49 -1 -49 -16 0 -10 5 -12
13 -7 6 4 28 8 47 8 20 1 34 6 33 12 -4 20 28 36 75 37 33 1 47 5 47 15 0 20
-63 38 -108 31z"/>
<path d="M567 2694 c-4 -4 -7 -14 -7 -23 0 -11 3 -12 11 -4 6 6 10 16 7 23 -2
6 -7 8 -11 4z"/>
<path d="M590 2692 c0 -4 6 -14 13 -21 10 -10 9 -11 -5 -6 -11 4 -18 2 -18 -4
0 -6 15 -11 34 -11 19 0 38 -5 42 -12 5 -8 2 -9 -9 -5 -10 3 -17 2 -17 -3 0
-17 23 -11 47 11 l22 22 33 -32 c17 -17 37 -31 42 -31 8 0 8 3 0 8 -6 4 -13
15 -17 25 -3 9 -13 17 -21 17 -9 0 -18 11 -22 25 -6 24 -24 35 -24 15 0 -5 -9
-14 -20 -20 -16 -8 -25 -7 -43 5 l-22 17 25 -7 c19 -5 22 -4 10 4 -18 13 -50
14 -50 3z"/>
<path d="M1056 2692 c-2 -4 4 -8 14 -8 10 0 16 4 14 8 -3 4 -9 8 -14 8 -5 0
-11 -4 -14 -8z"/>
<path d="M1375 2680 c18 -20 35 -18 35 3 0 7 -4 6 -10 -3 -8 -12 -10 -12 -16
3 -3 9 -11 17 -17 17 -5 0 -2 -9 8 -20z"/>
<path d="M1469 2688 c10 -13 10 -18 2 -18 -7 0 -9 -5 -5 -11 4 -8 9 -8 17 0 8
8 6 16 -8 29 -18 16 -18 16 -6 0z"/>
<path d="M1555 2690 c-3 -5 -1 -10 4 -10 6 0 11 5 11 10 0 6 -2 10 -4 10 -3 0
-8 -4 -11 -10z"/>
<path d="M1604 2690 c-12 -5 -25 -14 -30 -21 -5 -8 -3 -10 6 -4 10 6 12 4 7
-8 -3 -10 -2 -17 2 -17 14 0 21 28 8 34 -7 2 -5 5 5 5 9 1 20 6 23 11 7 12 7
12 -21 0z"/>
<path d="M2105 2690 c-17 -8 -17 -9 7 -7 15 1 24 5 22 9 -3 4 -6 8 -7 7 -1 0
-11 -4 -22 -9z"/>
<path d="M2220 2691 c0 -6 4 -13 10 -16 6 -3 7 1 4 9 -7 18 -14 21 -14 7z"/>
<path d="M2510 2689 c0 -5 5 -7 10 -4 6 3 10 8 10 11 0 2 -4 4 -10 4 -5 0 -10
-5 -10 -11z"/>
<path d="M1102 2680 c2 -8 -3 -14 -9 -12 -7 1 -13 -2 -13 -8 0 -5 5 -10 11
-10 5 0 7 -6 3 -12 -6 -9 -3 -9 9 0 9 8 21 11 27 7 18 -11 11 11 -11 31 -15
14 -20 15 -17 4z"/>
<path d="M1310 2680 c0 -5 5 -10 10 -10 6 0 10 5 10 10 0 6 -4 10 -10 10 -5 0
-10 -4 -10 -10z"/>
<path d="M1166 2663 c-6 -14 -5 -15 5 -6 7 7 10 15 7 18 -3 3 -9 -2 -12 -12z"/>
<path d="M1341 2666 c-9 -11 -9 -16 1 -22 7 -4 10 -4 6 1 -4 4 -3 14 3 22 6 7
9 13 6 13 -2 0 -10 -6 -16 -14z"/>
<path d="M1794 2661 c26 -28 54 -33 62 -9 3 11 3 22 0 25 -3 4 -6 -1 -6 -10 0
-21 -38 -23 -46 -2 -4 8 -11 15 -17 15 -5 0 -2 -9 7 -19z"/>
<path d="M2020 2670 c-9 -6 -10 -10 -3 -10 6 0 15 5 18 10 8 12 4 12 -15 0z"/>
<path d="M2138 2666 c-19 -14 -23 -26 -10 -26 4 0 13 9 20 20 14 23 13 24 -10
6z"/>
<path d="M2275 2670 c-3 -5 -1 -10 4 -10 6 0 11 5 11 10 0 6 -2 10 -4 10 -3 0
-8 -4 -11 -10z"/>
<path d="M2411 2663 c8 -13 17 -23 22 -23 4 0 5 5 2 10 -8 13 1 13 25 -2 16
-10 23 -10 37 5 16 16 16 17 0 17 -11 0 -15 -5 -11 -11 4 -7 1 -10 -7 -7 -8 3
-13 10 -12 16 2 8 -5 9 -21 2 -16 -6 -28 -5 -36 3 -8 8 -8 5 1 -10z"/>
<path d="M2587 2669 c7 -7 15 -10 18 -7 3 3 -2 9 -12 12 -14 6 -15 5 -6 -5z"/>
<path d="M803 2655 c-10 -10 -7 -14 13 -19 27 -7 44 -1 44 17 0 8 -3 8 -12 -1
-16 -16 -26 -15 -30 2 -2 12 -5 12 -15 1z"/>
<path d="M1216 2655 c4 -8 8 -15 10 -15 2 0 4 7 4 15 0 8 -4 15 -10 15 -5 0
-7 -7 -4 -15z"/>
<path d="M1645 2660 c-4 -6 -2 -17 4 -24 6 -7 8 -16 4 -20 -4 -4 1 -4 10 0 10
3 17 3 15 -2 -2 -5 0 -10 5 -11 4 -2 7 -1 7 2 0 3 0 9 0 14 0 5 -9 13 -21 16
-12 4 -18 12 -15 21 6 16 0 19 -9 4z"/>
<path d="M2170 2666 c0 -10 28 -13 41 -5 10 6 7 9 -13 9 -16 0 -28 -2 -28 -4z"/>
<path d="M928 2636 c-5 -23 17 -45 30 -31 3 3 0 5 -6 5 -6 0 -9 11 -6 25 2 14
0 25 -5 25 -5 0 -11 -11 -13 -24z"/>
<path d="M1027 2647 c-3 -8 1 -14 9 -14 16 0 19 13 5 21 -5 3 -11 0 -14 -7z"/>
<path d="M1190 2648 c0 -9 7 -19 16 -22 15 -6 15 -4 3 11 -7 10 -15 20 -16 22
-2 2 -3 -3 -3 -11z"/>
<path d="M1410 2651 c0 -6 4 -13 10 -16 6 -3 7 1 4 9 -7 18 -14 21 -14 7z"/>
<path d="M1492 2644 c-7 -8 -8 -14 -3 -14 10 0 25 19 20 25 -2 1 -10 -3 -17
-11z"/>
<path d="M1675 2650 c3 -5 8 -10 11 -10 2 0 4 5 4 10 0 6 -5 10 -11 10 -5 0
-7 -4 -4 -10z"/>
<path d="M1770 2651 c0 -8 -6 -11 -16 -7 -9 3 -12 2 -9 -5 4 -6 13 -8 20 -5 9
3 13 -2 12 -15 -1 -21 -13 -26 -19 -7 -3 8 -6 7 -10 -3 -4 -11 2 -16 25 -17
24 -2 28 0 19 11 -7 8 -9 16 -6 20 3 3 1 14 -5 24 -7 11 -11 13 -11 4z"/>
<path d="M955 2640 c-3 -5 -1 -10 4 -10 6 0 11 5 11 10 0 6 -2 10 -4 10 -3 0
-8 -4 -11 -10z"/>
<path d="M1310 2643 c0 -5 -10 -15 -22 -21 -17 -8 -18 -11 -7 -11 19 -1 45 26
35 36 -3 3 -6 2 -6 -4z"/>
<path d="M1540 2640 c0 -5 4 -10 9 -10 6 0 13 5 16 10 3 6 -1 10 -9 10 -9 0
-16 -4 -16 -10z"/>
<path d="M990 2625 c0 -9 -4 -13 -10 -10 -5 3 -10 1 -10 -4 0 -12 7 -13 31 -3
14 6 15 9 3 20 -12 11 -14 10 -14 -3z"/>
<path d="M1144 2624 c-18 -14 -18 -15 4 -4 12 6 22 13 22 15 0 8 -5 6 -26 -11z"/>
<path d="M1453 2628 c1 -7 -3 -12 -10 -11 -17 3 -25 -27 -8 -33 8 -3 11 -12 8
-22 -6 -14 -5 -14 16 0 23 17 50 14 63 -6 5 -7 8 -4 8 6 0 9 5 20 12 24 6 4 8
3 4 -4 -3 -6 -1 -14 5 -18 7 -4 9 -3 6 3 -7 11 58 12 69 0 11 -10 94 -9 94 2
0 5 -20 7 -45 5 -44 -5 -64 9 -27 19 9 3 -7 3 -36 1 -36 -3 -51 -1 -47 6 10
16 -12 12 -29 -6 -15 -14 -17 -13 -25 8 -8 19 -10 20 -10 4 -1 -12 -6 -16 -16
-12 -8 3 -15 1 -15 -4 0 -6 -4 -10 -10 -10 -5 0 -10 7 -10 15 0 8 5 15 10 15
6 0 10 7 10 15 0 8 -4 15 -10 15 -5 0 -9 -6 -7 -12z"/>
<path d="M1947 2622 c2 -9 -3 -11 -18 -7 -15 5 -19 4 -15 -4 10 -16 32 -13 47
6 8 9 9 14 2 10 -6 -4 -13 -4 -16 0 -2 5 -2 2 0 -5z"/>
<path d="M2340 2631 c0 -10 19 -25 25 -20 1 2 -3 10 -11 17 -8 7 -14 8 -14 3z"/>
<path d="M790 2620 c0 -5 7 -10 16 -10 8 0 12 5 9 10 -3 6 -10 10 -16 10 -5 0
-9 -4 -9 -10z"/>
<path d="M1095 2620 c-16 -7 -17 -9 -3 -9 9 -1 20 4 23 9 7 11 7 11 -20 0z"/>
<path d="M1316 2610 c-54 -19 -65 -39 -33 -60 21 -13 21 -12 4 14 l-18 27 26
-7 c15 -4 25 -2 25 5 0 6 14 14 32 19 18 4 28 11 23 14 -6 3 -32 -3 -59 -12z"/>
<path d="M1390 2620 c0 -5 5 -10 11 -10 5 0 7 5 4 10 -3 6 -8 10 -11 10 -2 0
-4 -4 -4 -10z"/>
<path d="M2062 2605 c-1 -14 3 -25 8 -25 5 0 7 7 4 15 -4 8 -1 15 6 15 6 0 8
5 5 10 -11 17 -21 11 -23 -15z"/>
<path d="M2296 2622 c-3 -5 1 -9 9 -9 8 0 12 4 9 9 -3 4 -7 8 -9 8 -2 0 -6 -4
-9 -8z"/>
<path d="M2440 2620 c0 -6 7 -10 15 -10 8 0 15 2 15 4 0 2 -7 6 -15 10 -8 3
-15 1 -15 -4z"/>
<path d="M2772 2621 c-11 -7 -11 -9 2 -14 10 -4 16 -1 16 8 0 17 -1 17 -18 6z"/>
<path d="M580 2611 c0 -11 26 -22 34 -14 3 3 3 10 0 14 -7 12 -34 11 -34 0z"/>
<path d="M865 2610 c-3 -5 -3 -15 1 -22 5 -8 2 -9 -9 -5 -9 3 -19 1 -23 -5 -5
-7 2 -9 20 -6 17 3 26 1 26 -7 0 -7 16 -16 35 -19 19 -3 50 -9 69 -12 20 -4
36 -1 41 5 3 6 3 11 -2 10 -22 -4 -25 2 -7 16 24 18 35 19 28 2 -3 -9 6 -13
28 -14 18 0 38 -2 43 -4 6 -2 11 -1 13 4 1 4 0 6 -2 5 -2 -2 -12 4 -22 13 -27
22 -114 13 -114 -12 0 -5 -10 -9 -22 -8 -13 0 -17 3 -10 6 6 2 12 9 12 15 0 7
-4 7 -12 1 -15 -12 -48 -13 -48 -2 0 3 -10 9 -21 12 -15 4 -20 11 -16 21 7 18
2 21 -8 6z"/>
<path d="M1810 2611 c0 -5 5 -13 10 -16 6 -3 10 -2 10 4 0 5 -4 13 -10 16 -5
3 -10 2 -10 -4z"/>
<path d="M1860 2610 c0 -5 7 -10 16 -10 8 0 12 5 9 10 -3 6 -10 10 -16 10 -5
0 -9 -4 -9 -10z"/>
<path d="M2261 2604 c0 -11 3 -14 6 -6 3 7 2 16 -1 19 -3 4 -6 -2 -5 -13z"/>
<path d="M2415 2611 c-3 -5 -2 -12 3 -15 5 -3 9 1 9 9 0 17 -3 19 -12 6z"/>
<path d="M2685 2610 c3 -5 8 -10 11 -10 2 0 4 5 4 10 0 6 -5 10 -11 10 -5 0
-7 -4 -4 -10z"/>
<path d="M637 2604 c-13 -13 -7 -24 14 -24 11 0 19 5 17 12 -5 14 -22 21 -31
12z"/>
<path d="M1190 2599 c0 -5 5 -7 10 -4 6 3 10 8 10 11 0 2 -4 4 -10 4 -5 0 -10
-5 -10 -11z"/>
<path d="M1230 2589 c6 -10 5 -20 -3 -28 -9 -10 -8 -11 4 -6 24 9 30 51 8 51
-13 0 -15 -4 -9 -17z"/>
<path d="M2020 2603 c0 -5 5 -15 10 -23 7 -12 9 -10 7 8 -1 19 -17 33 -17 15z"/>
<path d="M2129 2593 c-13 -16 -12 -17 4 -4 16 13 21 21 13 21 -2 0 -10 -8 -17
-17z"/>
<path d="M2494 2595 c-4 -8 -10 -13 -14 -10 -5 3 -11 1 -15 -5 -3 -5 1 -10 9
-10 8 0 20 9 26 20 6 11 8 20 5 20 -3 0 -8 -7 -11 -15z"/>
<path d="M540 2586 c0 -9 -3 -15 -7 -15 -24 4 -53 -2 -53 -11 0 -11 105 -8
116 3 3 3 13 3 22 0 9 -4 13 -2 9 4 -4 6 -17 13 -29 16 -13 2 -31 8 -40 12
-13 5 -18 3 -18 -9z"/>
<path d="M747 2588 c6 -11 53 -10 53 1 0 4 -13 8 -29 7 -16 -1 -27 -4 -24 -8z"/>
<path d="M1356 2587 c3 -10 9 -15 12 -12 3 3 0 11 -7 18 -10 9 -11 8 -5 -6z"/>
<path d="M1380 2589 c0 -5 8 -9 18 -10 12 0 10 -3 -8 -11 -21 -9 -22 -12 -7
-15 20 -5 50 15 42 27 -7 12 -45 19 -45 9z"/>
<path d="M1986 2589 c3 -6 1 -15 -6 -19 -8 -5 -3 -9 14 -12 14 -3 26 -1 26 3
0 5 -4 9 -10 9 -5 0 -10 7 -10 15 0 8 -5 15 -11 15 -5 0 -7 -5 -3 -11z"/>
<path d="M2318 2578 c-10 -10 -13 -18 -7 -18 6 0 7 -5 2 -12 -11 -18 -13 -42
-3 -32 5 5 10 18 12 29 1 11 7 23 12 26 5 4 7 11 5 16 -2 5 -12 1 -21 -9z"/>
<path d="M2380 2590 c-13 -8 -12 -10 3 -10 9 0 17 5 17 10 0 12 -1 12 -20 0z"/>
<path d="M1147 2578 c-7 -19 31 -37 42 -21 3 6 13 13 21 17 8 3 1 4 -17 1 -19
-2 -33 0 -35 7 -3 7 -7 5 -11 -4z"/>
<path d="M1938 2583 c7 -3 16 -2 19 1 4 3 -2 6 -13 5 -11 0 -14 -3 -6 -6z"/>
<path d="M2091 2576 c-7 -8 -8 -17 -3 -20 6 -3 13 1 16 10 9 23 2 28 -13 10z"/>
<path d="M2195 2580 c-3 -6 1 -7 9 -4 18 7 21 14 7 14 -6 0 -13 -4 -16 -10z"/>
<path d="M1740 2570 c8 -5 20 -10 25 -10 6 0 3 5 -5 10 -8 5 -19 10 -25 10 -5
0 -3 -5 5 -10z"/>
<path d="M2256 2565 c-3 -8 -1 -15 4 -15 6 0 10 7 10 15 0 8 -2 15 -4 15 -2 0
-6 -7 -10 -15z"/>
<path d="M2423 2573 c-17 -6 -17 -20 0 -20 8 0 14 6 14 14 0 7 -1 13 -1 12 -1
0 -7 -3 -13 -6z"/>
<path d="M2570 2567 c0 -20 22 -37 48 -37 15 0 21 -4 16 -12 -4 -6 -3 -8 3 -5
6 4 25 2 43 -3 20 -6 39 -6 50 0 23 12 93 -9 86 -26 -3 -8 1 -11 10 -7 7 3 14
11 14 19 0 8 5 14 10 14 16 0 12 -14 -10 -38 -21 -22 -50 -30 -50 -14 0 5 -7
9 -15 9 -8 0 -15 -4 -15 -9 0 -4 7 -8 15 -8 23 0 18 -30 -7 -40 -14 -5 -17 -9
-8 -10 12 0 11 -4 -4 -15 -19 -14 -17 -15 19 -15 29 0 36 3 28 11 -13 13 6 39
29 39 7 0 19 4 27 9 12 8 12 12 2 25 -11 13 -11 16 2 16 9 0 21 8 27 18 10 15
11 14 7 -5 -3 -13 -1 -23 4 -23 11 0 11 31 0 49 -5 7 -14 10 -20 7 -6 -4 -11
-4 -10 1 5 27 -1 35 -16 23 -12 -10 -15 -10 -15 4 0 16 -25 22 -34 8 -2 -4
-24 -7 -48 -7 -25 1 -49 -5 -58 -14 -13 -13 -15 -13 -18 2 -2 9 -9 14 -18 10
-8 -3 -14 1 -14 11 0 9 -7 16 -16 16 -9 0 -14 -6 -11 -13 4 -10 -2 -13 -20 -9
-15 3 -20 7 -13 12 8 5 7 9 -4 13 -9 4 -16 1 -16 -6z m254 -49 c-9 -15 -22 -8
-19 10 2 9 4 19 4 22 1 3 5 -2 10 -10 6 -8 7 -18 5 -22z m-39 12 c3 -5 -1 -10
-9 -10 -9 0 -16 5 -16 10 0 6 4 10 9 10 6 0 13 -4 16 -10z"/>
<path d="M751 2554 c0 -11 3 -14 6 -6 3 7 2 16 -1 19 -3 4 -6 -2 -5 -13z"/>
<path d="M2375 2560 c3 -5 10 -10 16 -10 5 0 9 5 9 10 0 6 -7 10 -16 10 -8 0
-12 -4 -9 -10z"/>
<path d="M820 2550 c-9 -6 -10 -10 -3 -10 6 0 15 5 18 10 8 12 4 12 -15 0z"/>
<path d="M853 2550 c2 -8 -5 -23 -15 -32 -12 -12 -18 -14 -18 -5 0 6 -10 0
-21 -16 -11 -15 -25 -25 -30 -21 -5 3 -9 0 -9 -6 0 -6 -4 -8 -10 -5 -5 3 -10
1 -10 -4 0 -6 5 -11 10 -11 6 0 10 -5 10 -11 0 -6 -7 -9 -15 -5 -18 7 -20 -5
-3 -22 9 -9 8 -12 -5 -12 -10 0 -14 -5 -11 -15 10 -24 22 -17 29 15 4 17 10
30 15 30 4 0 10 9 13 21 3 12 10 18 16 14 6 -3 11 1 11 9 0 11 9 16 28 16 20
0 23 3 13 9 -15 10 2 17 52 25 9 1 20 6 24 10 4 5 -6 6 -24 3 -24 -5 -35 -2
-43 11 -8 12 -10 12 -7 2z"/>
<path d="M2450 2557 c0 -2 6 -10 14 -16 11 -9 16 -9 22 1 4 7 4 10 -1 6 -4 -4
-14 -3 -22 3 -7 6 -13 9 -13 6z"/>
<path d="M650 2544 c0 -6 6 -19 14 -30 13 -17 14 -17 12 -1 -2 19 -26 47 -26
31z"/>
<path d="M1140 2540 c0 -5 5 -10 10 -10 6 0 10 5 10 10 0 6 -4 10 -10 10 -5 0
-10 -4 -10 -10z"/>
<path d="M2047 2533 c9 -7 22 -13 27 -13 6 0 5 4 -3 9 -11 7 -11 9 0 14 8 2 2
4 -14 3 -24 -1 -25 -2 -10 -13z"/>
<path d="M2125 2540 c3 -5 10 -10 16 -10 5 0 9 5 9 10 0 6 -7 10 -16 10 -8 0
-12 -4 -9 -10z"/>
<path d="M2165 2540 c-3 -6 1 -7 9 -4 18 7 21 14 7 14 -6 0 -13 -4 -16 -10z"/>
<path d="M480 2530 c0 -5 5 -10 10 -10 6 0 10 -5 10 -11 0 -5 -4 -7 -10 -4 -5
3 -10 2 -10 -4 0 -5 -10 -13 -22 -17 -13 -4 -26 -12 -30 -18 -4 -5 -21 -10
-39 -11 -41 0 -49 -20 -12 -30 17 -4 29 -2 31 4 2 6 19 18 38 27 19 9 34 20
34 25 0 5 4 9 10 9 20 0 -2 -28 -39 -48 -22 -12 -42 -29 -45 -38 -3 -8 -9 -13
-14 -11 -10 7 -110 -16 -111 -25 -3 -23 1 -28 23 -28 14 0 32 7 40 16 15 14
17 14 22 0 8 -21 -3 -48 -18 -45 -20 4 -56 -10 -61 -24 -7 -18 24 -55 48 -59
28 -4 33 32 6 39 -17 4 -19 8 -10 19 6 8 19 14 29 14 29 0 45 27 29 47 -12 15
-12 16 8 11 12 -3 30 0 40 9 17 13 16 14 -9 9 -22 -5 -26 -3 -22 9 4 8 14 15
24 15 10 0 21 7 24 15 6 17 76 19 76 3 0 -5 6 -3 14 4 12 11 10 15 -11 27 -19
10 -22 15 -13 21 11 7 11 12 -1 26 -12 15 -12 16 8 10 25 -8 41 10 24 27 -8 8
-11 8 -11 -1 0 -7 -7 -12 -15 -12 -8 0 -15 5 -15 10 0 6 -7 10 -15 10 -8 0
-15 -4 -15 -10z m-145 -280 c3 -6 -1 -7 -9 -4 -18 7 -21 14 -7 14 6 0 13 -4
16 -10z"/>
<path d="M610 2529 c0 -6 -7 -9 -15 -5 -8 3 -15 1 -15 -4 0 -6 5 -10 10 -10 6
0 10 -6 10 -14 0 -8 5 -18 10 -21 7 -4 8 3 4 21 -5 19 -4 25 4 20 8 -5 10 -2
6 8 -7 19 -14 21 -14 5z"/>
<path d="M2225 2530 c-3 -5 -1 -10 4 -10 6 0 11 5 11 10 0 6 -2 10 -4 10 -3 0
-8 -4 -11 -10z"/>
<path d="M775 2520 c-3 -6 1 -7 9 -4 18 7 21 14 7 14 -6 0 -13 -4 -16 -10z"/>
<path d="M2105 2509 c-4 -6 -5 -12 -2 -15 2 -3 7 2 10 11 7 17 1 20 -8 4z"/>
<path d="M2157 2509 c7 -7 15 -10 18 -7 3 3 -2 9 -12 12 -14 6 -15 5 -6 -5z"/>
<path d="M2565 2510 c-3 -6 1 -7 9 -4 18 7 21 14 7 14 -6 0 -13 -4 -16 -10z"/>
<path d="M707 2490 c4 -17 2 -21 -12 -18 -10 2 -20 -2 -22 -9 -3 -8 3 -11 18
-8 26 5 26 5 31 29 1 10 -2 21 -9 23 -7 3 -9 -3 -6 -17z"/>
<path d="M2125 2500 c-6 -10 44 -35 53 -25 3 3 0 5 -6 5 -6 0 -17 7 -26 15 -9
9 -17 11 -21 5z"/>
<path d="M2230 2500 c-13 -8 -12 -10 3 -10 9 0 17 5 17 10 0 12 -1 12 -20 0z"/>
<path d="M2412 2496 c7 -8 17 -12 22 -9 4 3 2 9 -5 14 -22 13 -31 11 -17 -5z"/>
<path d="M2455 2500 c-3 -6 1 -7 9 -4 18 7 21 14 7 14 -6 0 -13 -4 -16 -10z"/>
<path d="M2610 2501 c0 -7 -4 -9 -10 -6 -5 3 -10 2 -10 -4 0 -5 4 -12 9 -15
10 -6 25 24 16 32 -3 3 -5 0 -5 -7z"/>
<path d="M2925 2500 c-3 -5 -2 -10 4 -10 5 0 13 5 16 10 3 6 2 10 -4 10 -5 0
-13 -4 -16 -10z"/>
<path d="M2358 2493 c7 -3 16 -2 19 1 4 3 -2 6 -13 5 -11 0 -14 -3 -6 -6z"/>
<path d="M2726 2485 c-11 -8 -15 -15 -9 -15 7 0 15 5 18 11 4 6 14 8 22 5 8
-3 11 -1 8 4 -8 13 -16 12 -39 -5z"/>
<path d="M550 2480 c-9 -6 -10 -10 -3 -10 6 0 15 5 18 10 8 12 4 12 -15 0z"/>
<path d="M2190 2475 c0 -8 4 -15 8 -15 5 0 9 7 9 15 0 8 -4 15 -9 15 -4 0 -8
-7 -8 -15z"/>
<path d="M2300 2475 c-7 -8 -16 -12 -21 -9 -5 3 -6 -2 -3 -10 7 -18 20 -13 34
15 13 23 7 25 -10 4z"/>
<path d="M2391 2477 c-8 -10 -7 -14 4 -14 8 0 15 6 15 14 0 7 -2 13 -4 13 -2
0 -9 -6 -15 -13z"/>
<path d="M2545 2480 c4 -6 11 -8 16 -5 14 9 11 15 -7 15 -8 0 -12 -5 -9 -10z"/>
<path d="M2648 2483 c7 -3 16 -2 19 1 4 3 -2 6 -13 5 -11 0 -14 -3 -6 -6z"/>
<path d="M2515 2470 c-4 -6 -16 -8 -28 -4 -20 6 -20 6 -4 -11 10 -10 19 -16
20 -14 2 2 9 12 16 22 7 9 11 17 8 17 -3 0 -9 -5 -12 -10z"/>
<path d="M575 2460 c3 -5 13 -10 21 -10 8 0 12 5 9 10 -3 6 -13 10 -21 10 -8
0 -12 -4 -9 -10z"/>
<path d="M2420 2455 c-11 -13 -10 -14 4 -9 9 3 16 10 16 15 0 13 -6 11 -20 -6z"/>
<path d="M2547 2440 c9 -11 19 -17 21 -15 6 6 -18 35 -29 35 -5 0 -1 -9 8 -20z"/>
<path d="M2580 2445 c0 -8 5 -15 10 -15 6 0 10 7 10 15 0 8 -4 15 -10 15 -5 0
-10 -7 -10 -15z"/>
<path d="M2170 2435 c0 -8 2 -15 4 -15 2 0 6 7 10 15 3 8 1 15 -4 15 -6 0 -10
-7 -10 -15z"/>
<path d="M2230 2440 c8 -5 22 -9 30 -9 10 0 8 3 -5 9 -27 12 -43 12 -25 0z"/>
<path d="M2635 2440 c3 -5 8 -10 11 -10 2 0 4 5 4 10 0 6 -5 10 -11 10 -5 0
-7 -4 -4 -10z"/>
<path d="M696 2424 c-9 -24 -7 -27 9 -10 17 17 19 26 6 26 -5 0 -12 -7 -15
-16z"/>
<path d="M2326 2428 c3 -4 9 -8 15 -8 5 0 9 4 9 8 0 5 -7 9 -15 9 -8 0 -12 -4
-9 -9z"/>
<path d="M2465 2428 c-5 -7 -4 -10 0 -5 5 4 15 -5 22 -20 12 -26 12 -26 7 -3
-8 33 -20 45 -29 28z"/>
<path d="M2428 2423 c7 -3 16 -2 19 1 4 3 -2 6 -13 5 -11 0 -14 -3 -6 -6z"/>
<path d="M2510 2415 c0 -8 4 -15 10 -15 5 0 7 7 4 15 -4 8 -8 15 -10 15 -2 0
-4 -7 -4 -15z"/>
<path d="M2613 2416 c1 -11 9 -21 17 -23 10 -3 11 -2 4 4 -6 4 -14 15 -17 23
-5 11 -6 9 -4 -4z"/>
<path d="M570 2416 c0 -2 8 -10 18 -17 15 -13 16 -12 3 4 -13 16 -21 21 -21
13z"/>
<path d="M650 2411 c0 -5 5 -13 10 -16 6 -3 10 -2 10 4 0 5 -4 13 -10 16 -5 3
-10 2 -10 -4z"/>
<path d="M477 2396 c-5 -12 0 -14 22 -10 18 4 33 0 43 -10 14 -13 17 -13 22
-1 6 17 1 20 -45 29 -28 5 -38 3 -42 -8z"/>
<path d="M613 2388 c2 -15 18 -28 32 -28 6 0 3 5 -5 10 -13 9 -13 10 0 10 13
0 13 1 0 10 -21 13 -30 12 -27 -2z"/>
<path d="M2360 2396 c0 -2 13 -6 29 -8 17 -2 28 -1 25 4 -5 8 -54 12 -54 4z"/>
<path d="M2560 2385 c0 -9 5 -15 11 -13 6 2 11 8 11 13 0 5 -5 11 -11 13 -6 2
-11 -4 -11 -13z"/>
<path d="M680 2370 c-12 -7 -11 -10 5 -16 11 -4 23 -12 27 -18 5 -7 8 -4 8 7
0 9 -7 17 -16 17 -8 0 -12 5 -9 10 8 12 4 12 -15 0z"/>
<path d="M2287 2366 c-6 -16 1 -26 17 -26 6 0 4 5 -4 10 -10 6 -11 10 -2 10 6
0 12 5 12 10 0 15 -17 12 -23 -4z"/>
<path d="M2602 2355 c0 -16 2 -22 5 -12 2 9 2 23 0 30 -3 6 -5 -1 -5 -18z"/>
<path d="M2640 2359 c0 -11 4 -18 10 -14 5 3 7 12 3 20 -7 21 -13 19 -13 -6z"/>
<path d="M2720 2373 c1 -14 34 -49 53 -56 10 -4 15 -11 12 -17 -4 -7 3 -7 20
0 32 12 35 12 35 1 0 -5 -12 -14 -27 -19 -19 -7 -22 -11 -10 -11 10 -1 15 -5
12 -11 -3 -5 2 -10 11 -10 14 0 15 -3 6 -12 -14 -14 -16 -48 -3 -48 5 0 7 9 4
20 -3 12 0 20 6 20 7 0 9 -4 6 -10 -3 -5 1 -10 9 -10 10 0 13 -6 10 -15 -7
-18 0 -19 27 -4 18 9 19 8 10 -9 -8 -16 -7 -21 5 -26 25 -10 94 -7 94 4 0 6
-8 10 -19 10 -19 0 -45 23 -35 32 5 6 -65 23 -79 19 -5 -1 -7 4 -4 11 2 7 10
12 16 10 9 -2 9 4 -1 20 -6 13 -11 30 -10 40 4 25 -14 33 -85 37 -13 0 -32 10
-43 21 -11 11 -20 17 -20 13z m135 -103 c3 -5 -1 -10 -9 -10 -9 0 -16 5 -16
10 0 6 4 10 9 10 6 0 13 -4 16 -10z"/>
<path d="M465 2360 c-3 -5 -3 -10 1 -10 10 0 -58 -49 -78 -56 -10 -4 -18 -10
-18 -14 0 -11 71 -72 77 -66 8 8 -8 27 -18 21 -5 -4 -9 -1 -9 4 0 6 6 11 14
11 8 0 21 3 30 6 11 4 16 1 16 -11 0 -10 -5 -13 -12 -9 -7 5 -8 3 -4 -5 6 -9
13 -8 27 5 20 18 25 29 9 19 -5 -3 -10 -1 -10 4 0 6 8 11 18 12 14 0 14 2 -3
9 -28 12 -37 12 -29 -1 5 -8 -1 -10 -19 -5 -14 3 -29 2 -32 -4 -3 -5 -10 -10
-16 -10 -5 0 1 11 13 25 11 13 26 22 31 18 6 -3 7 -1 3 5 -3 6 7 16 23 23 24
11 26 15 16 26 -16 16 -22 16 -30 3z"/>
<path d="M585 2360 c3 -5 8 -10 11 -10 2 0 4 5 4 10 0 6 -5 10 -11 10 -5 0 -7
-4 -4 -10z"/>
<path d="M2525 2360 c3 -5 8 -10 11 -10 2 0 4 5 4 10 0 6 -5 10 -11 10 -5 0
-7 -4 -4 -10z"/>
<path d="M735 2332 c-6 -26 -10 -30 -22 -21 -11 10 -12 9 -7 -5 4 -11 1 -16
-12 -16 -29 0 -7 -13 28 -17 23 -2 29 0 19 6 -12 8 -12 12 -2 25 7 8 11 25 8
38 -3 20 -5 19 -12 -10z"/>
<path d="M2353 2346 c-13 -6 -23 -14 -23 -19 0 -9 36 9 45 23 3 6 5 9 3 9 -2
-1 -13 -6 -25 -13z"/>
<path d="M2562 2340 c-7 -11 -8 -20 -3 -20 9 0 24 30 18 36 -1 2 -8 -6 -15
-16z"/>
<path d="M2255 2340 c-3 -5 1 -10 10 -10 9 0 13 5 10 10 -3 6 -8 10 -10 10 -2
0 -7 -4 -10 -10z"/>
<path d="M2425 2341 c-3 -5 4 -13 16 -16 13 -4 18 -12 15 -21 -3 -9 -1 -12 5
-9 5 4 7 16 3 27 -5 17 -3 18 14 9 24 -13 42 -14 42 -3 0 4 -8 8 -17 9 -10 1
-30 4 -45 7 -15 3 -29 2 -33 -3z"/>
<path d="M523 2330 c-31 -13 -29 -19 5 -15 15 2 30 4 35 4 4 1 7 6 7 11 0 12
-17 12 -47 0z"/>
<path d="M2388 2333 c7 -3 16 -2 19 1 4 3 -2 6 -13 5 -11 0 -14 -3 -6 -6z"/>
<path d="M596 2322 c-3 -5 1 -9 9 -9 8 0 12 4 9 9 -3 4 -7 8 -9 8 -2 0 -6 -4
-9 -8z"/>
<path d="M2620 2319 c0 -5 5 -7 10 -4 6 3 10 8 10 11 0 2 -4 4 -10 4 -5 0 -10
-5 -10 -11z"/>
<path d="M626 2303 c-6 -14 -5 -15 5 -6 7 7 10 15 7 18 -3 3 -9 -2 -12 -12z"/>
<path d="M2167 2309 c7 -7 15 -10 18 -7 3 3 -2 9 -12 12 -14 6 -15 5 -6 -5z"/>
<path d="M2260 2310 c8 -5 20 -10 25 -10 6 0 3 5 -5 10 -8 5 -19 10 -25 10 -5
0 -3 -5 5 -10z"/>
<path d="M2130 2306 c0 -2 7 -7 16 -10 8 -3 12 -2 9 4 -6 10 -25 14 -25 6z"/>
<path d="M2225 2299 c-4 -6 -5 -12 -2 -15 2 -3 7 2 10 11 7 17 1 20 -8 4z"/>
<path d="M2545 2285 c0 -13 3 -21 8 -18 4 2 7 10 7 18 0 8 -3 16 -7 18 -5 3
-8 -5 -8 -18z"/>
<path d="M2607 2290 c10 -11 19 -20 21 -20 1 0 -2 9 -8 20 -6 11 -15 20 -20
20 -6 0 -2 -9 7 -20z"/>
<path d="M2180 2280 c0 -5 5 -10 11 -10 5 0 7 5 4 10 -3 6 -8 10 -11 10 -2 0
-4 -4 -4 -10z"/>
<path d="M2403 2275 c0 -8 4 -12 9 -9 5 3 6 10 3 15 -9 13 -12 11 -12 -6z"/>
<path d="M2356 2273 c5 -5 12 -12 15 -16 3 -5 9 -2 12 7 5 12 0 16 -15 16 -12
0 -17 -3 -12 -7z"/>
<path d="M646 2254 c-5 -14 -4 -15 9 -4 17 14 19 20 6 20 -5 0 -12 -7 -15 -16z"/>
<path d="M2607 2253 c3 -13 9 -23 14 -23 5 0 9 -4 9 -9 0 -5 -10 -7 -22 -4
-33 7 -1 -12 35 -21 26 -6 27 -6 10 11 -10 10 -26 30 -35 43 -16 24 -16 24
-11 3z"/>
<path d="M565 2250 c3 -5 8 -10 11 -10 2 0 4 5 4 10 0 6 -5 10 -11 10 -5 0 -7
-4 -4 -10z"/>
<path d="M710 2250 c0 -5 4 -10 9 -10 5 0 7 -9 4 -20 -3 -11 -10 -20 -15 -20
-6 0 -5 -7 2 -15 20 -24 25 -18 27 30 1 34 -2 45 -12 45 -8 0 -15 -4 -15 -10z"/>
<path d="M2331 2248 c0 -9 -4 -25 -7 -35 -5 -14 -4 -15 5 -7 7 7 11 22 8 35
-2 13 -5 16 -6 7z"/>
<path d="M2440 2249 c0 -5 5 -7 10 -4 6 3 10 8 10 11 0 2 -4 4 -10 4 -5 0 -10
-5 -10 -11z"/>
<path d="M2471 2255 c0 -5 3 -16 8 -23 6 -10 11 -9 22 4 12 16 12 17 -3 11 -9
-3 -19 -1 -22 6 -2 7 -5 8 -5 2z"/>
<path d="M2556 2252 c-4 -7 -5 -12 -2 -12 2 0 11 -3 20 -6 9 -3 16 -1 16 6 0
6 -4 9 -9 6 -5 -4 -11 -1 -13 6 -3 9 -6 9 -12 0z"/>
<path d="M2110 2241 c0 -10 19 -25 25 -20 1 2 -3 10 -11 17 -8 7 -14 8 -14 3z"/>
<path d="M2200 2242 c0 -12 19 -26 26 -19 2 2 -2 10 -11 17 -9 8 -15 8 -15 2z"/>
<path d="M2291 2236 c-9 -11 -9 -16 1 -22 7 -4 10 -4 6 1 -4 4 -3 14 3 22 6 7
9 13 6 13 -2 0 -10 -6 -16 -14z"/>
<path d="M2675 2230 c-4 -6 3 -10 14 -10 25 0 27 6 6 13 -8 4 -17 2 -20 -3z"/>
<path d="M530 2221 c0 -6 5 -13 10 -16 6 -4 8 -11 5 -16 -4 -5 -2 -9 3 -9 19
0 20 27 1 38 -10 7 -19 8 -19 3z"/>
<path d="M2350 2220 c0 -3 5 -12 10 -20 8 -13 10 -12 10 3 0 9 4 17 10 17 5 0
8 -6 6 -12 -1 -7 -1 -10 1 -5 3 4 9 7 14 7 6 0 7 -6 3 -12 -6 -10 -4 -10 7 0
7 6 21 12 31 12 10 0 18 3 18 8 0 4 -25 7 -55 7 -30 1 -55 -2 -55 -5z"/>
<path d="M2520 2200 c6 -11 13 -20 16 -20 2 0 0 9 -6 20 -6 11 -13 20 -16 20
-2 0 0 -9 6 -20z"/>
<path d="M2540 2210 c0 -5 5 -10 11 -10 5 0 7 5 4 10 -3 6 -8 10 -11 10 -2 0
-4 -4 -4 -10z"/>
<path d="M2710 2210 c-9 -6 -7 -10 9 -15 27 -8 33 -4 16 12 -6 6 -18 7 -25 3z"/>
<path d="M2763 2205 c0 -8 4 -12 9 -9 5 3 6 10 3 15 -9 13 -12 11 -12 -6z"/>
<path d="M366 2201 c-10 -15 22 -20 34 -5 10 11 9 14 -8 14 -12 0 -23 -4 -26
-9z"/>
<path d="M460 2200 c0 -4 9 -10 20 -13 11 -3 20 -2 20 3 0 4 -9 10 -20 13 -11
3 -20 2 -20 -3z"/>
<path d="M586 2195 c-9 -26 -7 -32 5 -12 6 10 9 21 6 23 -2 3 -7 -2 -11 -11z"/>
<path d="M250 2191 c0 -6 17 -19 37 -28 40 -19 57 -45 25 -36 -13 3 -25 -3
-36 -18 -21 -31 -20 -36 10 -42 24 -4 26 -2 20 24 -5 27 -4 28 24 22 20 -4 30
-2 30 7 0 7 8 10 20 7 11 -3 20 -1 20 5 0 6 7 8 15 4 9 -3 15 0 15 9 0 8 -4
15 -10 15 -5 0 -7 7 -4 15 5 13 8 13 21 -1 9 -8 18 -12 22 -9 3 4 -3 13 -13
21 -22 16 -48 2 -44 -24 2 -11 -5 -15 -24 -15 -51 2 -51 2 -38 18 17 20 12 24
-43 31 -30 3 -47 1 -47 -5z"/>
<path d="M2245 2180 c-3 -5 -1 -10 4 -10 6 0 11 5 11 10 0 6 -2 10 -4 10 -3 0
-8 -4 -11 -10z"/>
<path d="M2305 2180 c-3 -5 -3 -14 0 -20 3 -5 1 -10 -4 -10 -6 0 -11 -12 -11
-27 0 -29 10 -26 14 4 2 10 11 17 20 17 13 -2 14 1 5 12 -6 7 -8 18 -4 24 3 5
2 10 -4 10 -5 0 -13 -4 -16 -10z"/>
<path d="M2595 2180 c-3 -5 1 -10 10 -10 9 0 13 5 10 10 -3 6 -8 10 -10 10 -2
0 -7 -4 -10 -10z"/>
<path d="M696 2165 c4 -8 11 -15 18 -16 6 0 3 -4 -8 -8 -16 -6 -17 -9 -4 -22
18 -19 21 -62 4 -56 -10 4 -12 -1 -8 -15 3 -13 7 -16 12 -8 5 9 9 9 14 1 4 -6
2 -11 -5 -11 -7 0 -9 -10 -7 -25 3 -14 1 -25 -5 -25 -5 0 -7 -11 -5 -25 3 -14
1 -25 -3 -25 -5 0 -5 -7 -2 -17 5 -12 3 -14 -8 -8 -8 5 -7 1 4 -12 21 -24 22
-37 1 -29 -17 6 -14 -9 12 -68 l13 -31 2 35 c1 19 3 67 5 105 1 39 5 81 8 95
4 14 4 55 1 91 -5 49 -11 68 -25 77 -16 10 -18 9 -14 -3z"/>
<path d="M2481 2174 c0 -6 -15 -17 -31 -24 -41 -17 -49 -32 -13 -24 36 8 62 8
93 -1 19 -5 18 -3 -7 10 -18 9 -34 24 -36 33 -3 10 -5 12 -6 6z"/>
<path d="M2643 2162 c13 -15 14 -21 4 -31 -9 -10 -8 -11 6 -5 26 10 13 53 -17
54 -5 0 -2 -8 7 -18z"/>
<path d="M2570 2161 c0 -5 -8 -11 -17 -13 -15 -3 -14 -5 5 -10 17 -5 22 -2 22
13 0 10 -2 19 -5 19 -3 0 -5 -4 -5 -9z"/>
<path d="M2838 2163 c-10 -2 -18 -8 -18 -13 0 -5 7 -7 16 -3 11 4 15 2 12 -7
-2 -7 -12 -14 -22 -16 -10 -1 -21 -6 -24 -10 -4 -4 1 -4 10 -1 9 3 19 1 21 -6
8 -20 40 6 44 36 4 27 -2 30 -39 20z"/>
<path d="M475 2150 c-4 -6 -21 -20 -39 -31 -17 -10 -24 -19 -16 -19 19 0 77
46 69 55 -4 3 -10 1 -14 -5z"/>
<path d="M546 2145 c-3 -8 -1 -15 4 -15 6 0 10 7 10 15 0 8 -2 15 -4 15 -2 0
-6 -7 -10 -15z"/>
<path d="M576 2151 c-10 -15 22 -20 34 -5 10 11 9 14 -8 14 -12 0 -23 -4 -26
-9z"/>
<path d="M2398 2153 c7 -3 16 -2 19 1 4 3 -2 6 -13 5 -11 0 -14 -3 -6 -6z"/>
<path d="M2600 2149 c0 -5 5 -7 10 -4 6 3 10 8 10 11 0 2 -4 4 -10 4 -5 0 -10
-5 -10 -11z"/>
<path d="M2776 2152 c-3 -6 3 -12 15 -15 12 -3 19 -1 16 6 -5 15 -24 20 -31 9z"/>
<path d="M505 2130 c-3 -5 -1 -10 4 -10 6 0 11 5 11 10 0 6 -2 10 -4 10 -3 0
-8 -4 -11 -10z"/>
<path d="M2351 2131 c-7 -5 -12 -14 -10 -20 2 -6 10 -2 17 9 14 22 13 23 -7
11z"/>
<path d="M2700 2120 c0 -5 -7 -10 -16 -10 -19 0 -14 -22 7 -28 12 -3 12 -2 0
6 -11 8 -7 11 18 14 30 3 31 4 11 16 -12 7 -20 8 -20 2z"/>
<path d="M2314 2103 c3 -6 2 -13 -4 -15 -10 -3 -14 -27 -11 -73 2 -28 3 -29
16 -11 10 13 11 25 4 44 -7 18 -6 27 3 33 10 7 10 11 -1 21 -8 8 -11 8 -7 1z"/>
<path d="M2482 2095 c-10 -12 -17 -13 -35 -3 -20 10 -21 10 -8 -5 17 -22 24
-21 52 3 13 10 20 19 14 19 -5 0 -16 -6 -23 -14z"/>
<path d="M2558 2103 c7 -3 16 -2 19 1 4 3 -2 6 -13 5 -11 0 -14 -3 -6 -6z"/>
<path d="M353 2078 c4 -12 7 -26 7 -30 0 -5 12 -8 28 -8 16 0 22 3 15 8 -6 4
-11 16 -10 27 1 14 -5 21 -22 23 -21 3 -23 1 -18 -20z"/>
<path d="M510 2084 c0 -11 8 -14 27 -12 26 3 46 28 23 28 -6 0 -8 -4 -5 -10 3
-5 -3 -10 -15 -10 -12 0 -18 5 -15 10 3 6 1 10 -4 10 -6 0 -11 -7 -11 -16z"/>
<path d="M2359 2083 c-13 -15 -12 -15 11 -3 34 17 36 20 18 20 -9 0 -22 -7
-29 -17z"/>
<path d="M2760 2091 c0 -5 9 -7 20 -4 11 3 20 0 20 -6 0 -6 -5 -11 -11 -11 -5
0 -7 -4 -4 -10 3 -5 -3 -15 -15 -22 -23 -15 -26 -28 -6 -28 19 0 75 -57 87
-87 5 -14 17 -23 29 -23 12 0 19 4 15 9 -3 5 -1 12 5 16 17 11 11 23 -12 27
-13 2 -23 9 -23 16 0 7 -17 26 -38 42 l-38 28 30 18 c22 13 26 20 18 28 -15
14 -77 20 -77 7z"/>
<path d="M2870 2079 c0 -5 5 -7 10 -4 6 3 10 8 10 11 0 2 -4 4 -10 4 -5 0 -10
-5 -10 -11z"/>
<path d="M410 2070 c-18 -12 -2 -12 25 0 13 6 15 9 5 9 -8 0 -22 -4 -30 -9z"/>
<path d="M660 2070 c-9 -6 -10 -10 -3 -10 6 0 15 5 18 10 8 12 4 12 -15 0z"/>
<path d="M1878 2075 c-2 -3 -29 -7 -58 -10 -29 -3 -59 -10 -67 -17 -8 -6 -35
-10 -60 -9 -47 1 -93 -19 -93 -42 0 -6 5 -4 11 6 5 9 18 17 27 17 14 0 14 -2
3 -9 -7 -5 -10 -14 -6 -20 4 -8 11 -9 19 -2 18 15 68 33 61 21 -11 -18 17 -11
31 8 11 15 13 15 18 2 5 -11 17 -14 46 -12 22 2 40 8 40 14 0 5 5 6 12 2 6 -4
8 -3 5 3 -8 13 20 26 35 16 7 -3 8 -1 4 5 -5 8 0 12 13 12 12 0 21 5 21 10 0
10 -52 14 -62 5z m-38 -39 c-5 -5 -22 -10 -37 -12 -15 -1 -22 0 -15 3 6 3 10
9 6 14 -3 5 8 8 25 7 19 -1 27 -6 21 -12z"/>
<path d="M2045 2070 c4 -7 -8 -9 -32 -7 -43 4 -96 -10 -88 -24 3 -4 17 -4 31
1 33 13 68 13 39 0 -18 -8 -17 -9 7 -9 14 -1 28 2 31 7 2 4 2 2 1 -5 -2 -6 11
-15 27 -18 51 -11 79 -13 73 -3 -3 5 -11 8 -17 7 -32 -4 -46 2 -41 16 5 11 2
13 -10 9 -9 -3 -16 -2 -16 4 0 6 5 12 12 14 7 3 5 7 -6 11 -10 4 -15 3 -11 -3z"/>
<path d="M2510 2066 c0 -16 18 -31 27 -22 3 3 -2 12 -11 21 -14 14 -16 14 -16
1z"/>
<path d="M2623 2074 c4 -4 17 -7 29 -8 15 -1 22 -7 20 -16 -2 -8 0 -12 4 -8 4
4 13 3 21 -3 22 -19 15 -1 -9 21 -19 17 -82 31 -65 14z"/>
<path d="M565 2060 c-4 -6 -11 -7 -17 -4 -7 4 -8 2 -4 -4 5 -9 13 -9 29 -1 31
16 33 19 14 19 -9 0 -19 -5 -22 -10z"/>
<path d="M1718 2058 c9 -9 15 -9 24 0 9 9 7 12 -12 12 -19 0 -21 -3 -12 -12z"/>
<path d="M2559 2053 c-13 -16 -12 -17 4 -4 16 13 21 21 13 21 -2 0 -10 -8 -17
-17z"/>
<path d="M2590 2060 c0 -5 5 -10 11 -10 5 0 7 5 4 10 -3 6 -8 10 -11 10 -2 0
-4 -4 -4 -10z"/>
<path d="M440 2048 c0 -19 35 -42 53 -34 7 2 5 5 -5 5 -9 1 -24 11 -32 23 -13
18 -16 19 -16 6z"/>
<path d="M2374 2048 c-4 -7 -4 -10 1 -6 4 4 14 3 21 -3 9 -7 14 -6 20 3 4 7 4
10 -1 6 -4 -4 -14 -3 -21 3 -9 7 -14 6 -20 -3z"/>
<path d="M995 2040 c3 -5 8 -10 11 -10 2 0 4 5 4 10 0 6 -5 10 -11 10 -5 0 -7
-4 -4 -10z"/>
<path d="M2099 2039 c-10 -6 -7 -9 14 -9 29 0 35 5 14 13 -8 3 -20 1 -28 -4z"/>
<path d="M2475 2040 c-3 -5 -1 -10 4 -10 6 0 11 5 11 10 0 6 -2 10 -4 10 -3 0
-8 -4 -11 -10z"/>
<path d="M2725 2040 c-3 -5 -1 -10 4 -10 6 0 11 5 11 10 0 6 -2 10 -4 10 -3 0
-8 -4 -11 -10z"/>
<path d="M680 2031 c0 -6 4 -13 10 -16 6 -3 7 1 4 9 -7 18 -14 21 -14 7z"/>
<path d="M1590 2030 c-9 -6 -10 -10 -3 -10 6 0 15 5 18 10 8 12 4 12 -15 0z"/>
<path d="M2607 2023 c-15 -16 -19 -16 -27 -3 -6 9 -10 10 -10 3 0 -6 -9 -10
-19 -8 -11 2 -32 0 -48 -5 -23 -8 -19 -9 24 -8 29 1 55 -1 59 -4 10 -10 34 3
34 18 0 8 8 14 18 13 10 0 12 -3 5 -6 -10 -3 -10 -10 -2 -25 12 -23 7 -93 -11
-156 -7 -23 -10 -45 -7 -49 4 -3 24 2 47 11 24 10 40 12 40 5 0 -5 5 -7 10 -4
6 3 13 -1 16 -9 8 -21 74 -21 100 0 10 8 15 13 9 11 -5 -3 -16 1 -23 9 -11 12
-7 14 23 14 45 0 46 20 3 55 -21 17 -28 29 -21 32 15 5 -83 93 -104 93 -17 0
-32 -38 -25 -62 6 -25 50 -58 76 -58 12 0 30 -6 40 -13 16 -12 16 -14 -10 -26
-24 -11 -30 -10 -40 4 -11 15 -13 15 -22 -1 -12 -22 -79 -28 -86 -7 -3 7 -2
13 2 13 4 0 9 15 10 33 1 17 5 44 8 58 3 19 0 28 -11 33 -10 3 -15 15 -13 28
4 29 -21 35 -45 11z m157 -64 c33 -26 33 -39 2 -39 -27 0 -56 24 -56 46 0 20
23 17 54 -7z m0 -140 c-6 -11 -24 -2 -24 11 0 5 7 7 15 4 8 -4 12 -10 9 -15z"/>
<path d="M366 2021 c-4 -6 0 -11 8 -11 9 0 16 -4 16 -9 0 -13 -37 -24 -50 -16
-18 11 -60 -4 -60 -21 0 -12 9 -15 38 -13 20 2 42 7 48 11 7 5 18 7 25 6 17
-4 13 31 -6 50 -9 10 -15 11 -19 3z"/>
<path d="M421 2014 c0 -11 3 -14 6 -6 3 7 2 16 -1 19 -3 4 -6 -2 -5 -13z"/>
<path d="M612 2016 c-21 -11 -21 -12 13 -12 19 0 31 3 27 6 -4 3 -9 8 -12 12
-3 3 -15 1 -28 -6z"/>
<path d="M807 2017 c-3 -7 4 -24 15 -38 11 -13 16 -18 12 -10 -5 11 -3 13 9 8
10 -4 28 -2 42 3 18 7 24 6 22 -3 -1 -7 9 -12 23 -13 14 0 31 -3 37 -7 14 -9
43 2 43 17 0 6 5 3 11 -6 5 -10 15 -18 20 -18 6 0 7 6 3 13 -6 10 -4 10 7 0 7
-7 29 -13 49 -13 l35 0 -28 19 c-16 10 -27 22 -25 27 2 5 -22 9 -52 10 -31 0
-61 4 -68 8 -7 4 -12 2 -12 -4 0 -6 -10 -8 -24 -4 -13 3 -27 1 -30 -5 -8 -12
-45 -15 -70 -5 -15 6 -15 8 1 20 16 12 16 13 2 14 -9 0 -19 -6 -22 -13z m143
-32 c-7 -8 -17 -12 -23 -8 -6 4 -3 9 9 14 27 11 28 11 14 -6z m40 -5 c0 -5 -2
-10 -4 -10 -3 0 -8 5 -11 10 -3 6 -1 10 4 10 6 0 11 -4 11 -10z"/>
<path d="M1552 2005 c0 -16 2 -22 5 -12 2 9 2 23 0 30 -3 6 -5 -1 -5 -18z"/>
<path d="M1895 2020 c-3 -6 1 -7 9 -4 18 7 21 14 7 14 -6 0 -13 -4 -16 -10z"/>
<path d="M260 2010 c0 -5 5 -10 10 -10 6 0 10 5 10 10 0 6 -4 10 -10 10 -5 0
-10 -4 -10 -10z"/>
<path d="M2334 2009 c-3 -5 6 -9 20 -9 31 0 34 6 6 13 -11 3 -23 1 -26 -4z"/>
<path d="M2428 2013 c7 -3 16 -2 19 1 4 3 -2 6 -13 5 -11 0 -14 -3 -6 -6z"/>
<path d="M460 1996 c0 -9 30 -14 35 -6 4 6 -3 10 -14 10 -12 0 -21 -2 -21 -4z"/>
<path d="M755 1991 c-7 -12 12 -24 24 -16 5 3 13 1 16 -5 4 -6 3 -10 -2 -9
-22 4 -33 -3 -32 -18 0 -11 3 -13 6 -5 2 6 11 12 18 12 23 0 29 22 10 37 -22
15 -32 16 -40 4z"/>
<path d="M435 1981 c-3 -5 -1 -12 5 -16 5 -3 10 1 10 9 0 18 -6 21 -15 7z"/>
<path d="M577 1976 c-4 -10 -1 -13 9 -9 7 3 14 9 14 14 0 14 -17 10 -23 -5z"/>
<path d="M1110 1980 c0 -5 5 -10 11 -10 5 0 7 5 4 10 -3 6 -8 10 -11 10 -2 0
-4 -4 -4 -10z"/>
<path d="M2358 1983 c6 -2 18 -2 25 0 6 3 1 5 -13 5 -14 0 -19 -2 -12 -5z"/>
<path d="M2570 1983 c0 -1 9 -7 19 -12 14 -8 20 -7 24 2 3 7 -5 12 -19 12 -13
0 -24 -1 -24 -2z"/>
<path d="M2310 1972 c0 -4 9 -8 20 -9 11 -1 18 2 15 8 -7 11 -35 12 -35 1z"/>
<path d="M451 1953 c-7 -8 -19 -12 -27 -9 -7 3 -16 0 -20 -6 -4 -7 -9 -6 -15
3 -6 10 -9 11 -9 2 0 -8 -14 -13 -34 -13 -29 0 -34 -4 -33 -20 1 -12 8 -20 19
-20 10 0 18 -5 18 -12 0 -6 7 -4 18 5 10 10 27 17 36 17 10 0 31 9 47 21 l30
21 24 -26 c16 -17 26 -22 31 -15 4 7 0 16 -9 21 -9 5 -14 15 -11 23 4 10 0 12
-16 8 -12 -3 -25 -1 -29 4 -4 7 -11 6 -20 -4z"/>
<path d="M2405 1960 c-3 -5 -3 -10 2 -11 4 0 16 -2 26 -4 21 -4 23 11 1 19
-21 8 -22 8 -29 -4z"/>
<path d="M2469 1954 c-14 -16 8 -29 25 -15 9 7 16 7 23 0 8 -8 13 -7 18 2 5 8
4 10 -3 5 -7 -4 -12 -1 -12 6 0 17 -38 18 -51 2z"/>
<path d="M668 1953 c7 -3 16 -2 19 1 4 3 -2 6 -13 5 -11 0 -14 -3 -6 -6z"/>
<path d="M1635 1950 c-12 -4 -27 -16 -35 -26 -14 -18 -14 -18 6 -1 11 9 26 17
32 17 6 0 14 5 17 10 7 11 7 12 -20 0z"/>
<path d="M2550 1950 c0 -5 5 -10 10 -10 6 0 10 5 10 10 0 6 -4 10 -10 10 -5 0
-10 -4 -10 -10z"/>
<path d="M540 1935 c0 -8 4 -15 9 -15 5 0 14 7 21 15 10 13 9 15 -9 15 -12 0
-21 -6 -21 -15z"/>
<path d="M2331 1923 c18 -55 21 -63 29 -63 5 0 15 -3 24 -6 11 -4 16 0 16 12
0 16 -2 16 -9 5 -8 -12 -12 -9 -21 15 -19 47 -26 58 -38 62 -7 2 -8 -5 -1 -25z
m16 -15 c-3 -8 -6 -5 -6 6 -1 11 2 17 5 13 3 -3 4 -12 1 -19z"/>
<path d="M1764 1925 c-38 -7 -83 -20 -100 -28 -39 -21 -92 -66 -78 -67 6 0 17
7 24 15 7 8 18 15 25 15 7 0 18 6 24 14 7 8 41 22 76 31 62 17 150 17 255 0
24 -4 30 -3 20 3 -13 9 -147 33 -167 31 -4 0 -40 -7 -79 -14z"/>
<path d="M2373 1925 c0 -8 4 -12 9 -9 4 3 8 -1 8 -8 0 -10 2 -10 9 1 5 7 14
10 20 7 6 -4 11 -2 11 4 0 6 -8 10 -17 8 -10 -1 -23 1 -29 4 -6 4 -11 1 -11
-7z"/>
<path d="M2600 1913 c-13 -27 -14 -27 -18 -5 -5 32 -21 27 -20 -8 1 -16 5 -27
9 -24 11 7 22 -81 14 -113 -3 -16 -18 -40 -32 -55 -15 -15 -24 -30 -22 -33 3
-3 18 9 34 25 24 25 29 40 32 92 2 35 9 80 15 101 14 45 6 57 -12 20z"/>
<path d="M595 1923 c-11 -3 -29 -13 -40 -23 -11 -10 -31 -20 -45 -22 -27 -3
-35 -32 -10 -34 31 -2 32 -5 16 -28 -28 -44 11 -42 66 3 17 13 16 15 -8 27
-34 18 -39 18 -24 -1 8 -9 8 -15 2 -15 -13 0 -21 21 -14 38 2 6 11 12 18 12 8
0 17 7 20 15 4 8 12 15 19 15 8 0 17 5 20 10 3 6 5 9 3 9 -2 -1 -12 -3 -23 -6z"/>
<path d="M1060 1926 c0 -2 7 -7 16 -10 8 -3 12 -2 9 4 -6 10 -25 14 -25 6z"/>
<path d="M2440 1919 c0 -5 5 -7 10 -4 6 3 10 8 10 11 0 2 -4 4 -10 4 -5 0 -10
-5 -10 -11z"/>
<path d="M603 1882 c-13 -2 -23 -7 -23 -13 0 -10 48 -24 56 -16 12 12 -12 32
-33 29z"/>
<path d="M842 1875 c-30 -13 -71 -45 -58 -45 3 0 25 10 48 23 37 19 58 22 153
22 98 0 116 -3 168 -28 32 -14 61 -26 65 -26 20 3 31 -3 35 -18 3 -11 5 -7 6
10 1 19 -4 27 -16 28 -10 1 -25 2 -33 3 -8 1 -41 11 -73 24 -47 18 -77 22
-160 22 -66 -1 -114 -6 -135 -15z"/>
<path d="M1665 1850 c-51 -26 -70 -39 -51 -36 15 2 54 -2 86 -8 32 -7 66 -9
76 -5 12 4 -9 10 -56 16 l-75 10 35 15 c65 29 75 30 85 6 23 -52 125 -44 125
9 0 20 4 24 18 18 9 -4 31 -11 47 -15 l30 -7 -37 -17 c-21 -9 -42 -16 -48 -16
-5 0 -10 -4 -10 -10 0 -13 10 -12 40 5 14 8 40 14 58 15 42 0 44 28 2 37 -17
3 -33 10 -36 14 -3 5 -51 9 -108 9 -99 0 -104 -1 -181 -40z m155 21 c0 -12
-30 -22 -43 -14 -7 4 -3 9 9 14 26 10 34 10 34 0z m30 -1 c0 -5 -4 -10 -10
-10 -5 0 -10 5 -10 10 0 6 5 10 10 10 6 0 10 -4 10 -10z m-19 -42 c-13 -4 -28
-5 -34 -1 -7 4 -2 10 13 13 33 9 50 -1 21 -12z"/>
<path d="M1532 1849 c-15 -24 -13 -32 7 -20 7 5 11 16 9 25 -2 14 -5 13 -16
-5z"/>
<path d="M2436 1863 c-3 -4 6 -18 21 -30 25 -22 28 -23 34 -6 4 10 4 21 0 24
-11 12 -47 19 -55 12z"/>
<path d="M850 1838 c-46 -18 -51 -23 -32 -27 13 -3 23 -10 22 -16 -2 -14 66
-33 115 -34 31 0 36 2 20 9 -11 5 -36 9 -56 9 -40 1 -80 25 -64 39 6 5 29 14
53 20 38 9 42 8 42 -8 0 -24 37 -50 71 -50 26 0 59 27 59 48 0 15 0 15 51 -8
l44 -20 -40 0 c-22 0 -47 -5 -55 -11 -12 -8 -10 -9 10 -5 14 3 47 6 75 6 42 0
47 2 35 14 -8 7 -43 23 -78 35 -84 28 -197 28 -272 -1z m170 3 c0 -10 -30 -24
-37 -17 -3 3 -2 9 2 15 8 13 35 15 35 2z m35 -1 c3 -5 1 -10 -4 -10 -6 0 -11
5 -11 10 0 6 2 10 4 10 3 0 8 -4 11 -10z m-5 -30 c0 -5 -4 -10 -9 -10 -5 0
-16 -3 -25 -6 -9 -3 -16 -1 -16 4 0 9 16 17 43 21 4 0 7 -3 7 -9z"/>
<path d="M2053 1853 c9 -2 25 -2 35 0 9 3 1 5 -18 5 -19 0 -27 -2 -17 -5z"/>
<path d="M646 1828 c-3 -7 -9 -35 -14 -62 -9 -44 -8 -49 9 -53 19 -5 27 -33 9
-33 -5 0 -10 -6 -10 -14 0 -7 -11 -21 -25 -30 -30 -20 -34 -51 -6 -43 13 3 18
0 15 -8 -5 -12 32 -55 47 -55 15 0 21 21 9 35 -6 7 -7 16 -2 19 5 3 15 -6 22
-19 7 -14 21 -27 32 -31 12 -4 18 -15 18 -37 0 -18 4 -39 10 -47 6 -9 5 -17
-3 -22 -8 -5 -6 -8 6 -8 9 0 17 -5 17 -11 0 -16 32 -82 46 -94 6 -5 15 -17 20
-26 9 -15 55 -57 138 -124 21 -16 49 -39 62 -51 l25 -21 -20 -35 c-25 -41 -33
-119 -13 -125 7 -3 12 -1 11 4 -1 4 -1 10 0 13 1 3 4 24 6 46 7 80 44 116 43
41 -1 -51 16 -86 81 -164 44 -53 161 -153 161 -138 0 3 10 -3 22 -15 12 -11
25 -20 29 -20 4 0 29 -18 56 -40 71 -60 70 -59 77 -53 3 4 6 -1 6 -10 0 -10 8
-17 18 -17 10 0 27 -7 38 -15 22 -17 34 -19 34 -6 0 5 -8 11 -17 15 -21 6
-108 66 -140 96 -12 11 -25 20 -29 20 -4 0 -30 19 -59 43 -29 23 -70 56 -91
72 -110 84 -179 185 -173 251 4 38 -2 49 -37 72 -24 16 -34 28 -30 39 5 12 1
14 -15 10 -16 -4 -19 -2 -15 10 5 11 1 14 -13 10 -15 -3 -18 -1 -14 11 5 11 3
13 -6 7 -13 -7 -31 10 -31 30 0 6 5 3 10 -5 8 -13 10 -12 10 4 0 14 -6 17 -28
14 -20 -3 -34 4 -54 24 l-27 28 22 15 c25 17 19 19 -17 5 -21 -7 -26 -6 -26 5
0 8 -4 15 -10 15 -5 0 -10 6 -10 13 0 7 -9 29 -20 50 -25 46 -70 184 -70 214
0 12 -5 25 -12 29 -8 5 -9 -2 -5 -25 5 -24 4 -31 -6 -27 -6 3 -20 9 -29 12
-10 4 -18 11 -18 18 0 12 40 42 53 38 14 -4 7 29 -18 78 -14 27 -25 56 -25 64
0 20 -19 31 -24 14z m14 -229 c0 -6 -4 -7 -10 -4 -5 3 -10 11 -10 16 0 6 5 7
10 4 6 -3 10 -11 10 -16z"/>
<path d="M2400 1813 c0 -22 2 -25 10 -13 13 20 13 40 0 40 -5 0 -10 -12 -10
-27z"/>
<path d="M2372 1758 c10 -79 13 -87 30 -70 8 8 7 17 -6 36 -17 26 -10 36 11
15 12 -12 53 -3 53 10 0 5 -7 15 -16 22 -15 12 -16 11 -10 -9 9 -26 -5 -29
-28 -6 -15 15 -18 21 -20 53 -1 8 -6 16 -12 18 -7 2 -8 -18 -2 -69z"/>
<path d="M1571 1794 c0 -11 3 -14 6 -6 3 7 2 16 -1 19 -3 4 -6 -2 -5 -13z"/>
<path d="M2539 1788 c-1 -7 -1 -17 0 -21 1 -5 -3 -6 -9 -2 -5 3 -10 1 -10 -6
0 -8 -4 -8 -15 1 -13 11 -15 8 -15 -14 0 -21 -9 -30 -45 -48 -24 -12 -42 -25
-39 -30 6 -10 -26 -6 -46 7 -12 7 -13 6 -3 -6 9 -11 11 -35 7 -75 -3 -32 -6
-71 -6 -86 1 -20 -4 -28 -16 -28 -10 0 -13 -3 -7 -8 14 -9 17 -55 4 -47 -5 4
-9 -1 -9 -9 0 -9 -5 -16 -11 -16 -6 0 -9 -7 -6 -15 4 -8 2 -17 -3 -20 -6 -4
-10 -15 -10 -26 0 -10 -4 -19 -10 -19 -5 0 -10 -4 -10 -10 0 -17 -33 -49 -43
-43 -6 3 -7 1 -3 -5 9 -14 -32 -42 -52 -35 -9 4 -13 2 -9 -4 8 -13 -2 -43 -14
-43 -4 0 -6 7 -3 15 4 8 1 15 -5 15 -6 0 -10 -3 -9 -7 2 -5 -1 -10 -7 -12 -5
-2 -16 -12 -23 -23 -11 -15 -17 -17 -28 -7 -12 9 -13 9 -9 -3 4 -10 -6 -19
-35 -31 -37 -14 -52 -38 -31 -51 12 -8 34 21 26 34 -3 5 -1 10 4 10 6 0 11 -6
11 -12 0 -7 7 -4 16 7 8 11 22 19 30 17 8 -2 14 1 14 5 0 5 14 14 31 22 17 7
41 23 53 35 52 48 78 66 72 51 -9 -25 4 -44 48 -65 77 -38 96 -51 113 -76 8
-14 49 -40 89 -59 52 -23 74 -39 74 -52 1 -10 12 -49 26 -88 23 -66 24 -68 19
-25 -11 110 -59 190 -113 190 -26 0 -70 23 -86 46 -11 15 -11 20 1 33 13 13
26 8 111 -35 54 -27 98 -52 100 -56 2 -4 21 -12 43 -18 24 -7 39 -17 39 -26 0
-8 5 -12 11 -9 15 10 61 -4 54 -15 -3 -5 0 -7 8 -5 7 3 54 -14 103 -39 49 -24
91 -42 93 -40 16 15 -59 60 -163 99 -34 13 -126 54 -206 92 -160 77 -219 98
-297 108 -50 6 -53 9 -53 35 0 16 5 32 11 35 9 6 31 50 33 67 1 4 7 13 14 20
6 6 12 20 12 30 0 10 6 18 13 18 8 0 11 14 11 40 -2 42 6 50 25 26 6 -7 22
-11 36 -8 31 5 35 -23 5 -31 -11 -3 -20 -10 -20 -16 0 -14 30 -14 65 -1 27 10
28 18 10 63 -5 11 -3 17 7 17 20 0 42 40 29 53 -7 7 -16 6 -29 -6 -29 -27 -77
-40 -100 -28 -15 8 -19 19 -16 43 1 18 3 43 3 54 1 15 18 32 57 55 80 49 114
78 114 99 0 22 -19 38 -21 18z m-159 -278 c0 -5 -2 -10 -4 -10 -3 0 -8 5 -11
10 -3 6 -1 10 4 10 6 0 11 -4 11 -10z m83 -17 c-7 -2 -19 -2 -25 0 -7 3 -2 5
12 5 14 0 19 -2 13 -5z"/>
<path d="M1673 1783 c9 -2 23 -2 30 0 6 3 -1 5 -18 5 -16 0 -22 -2 -12 -5z"/>
<path d="M1980 1780 c-8 -5 -12 -11 -10 -14 3 -2 14 2 24 10 22 15 10 19 -14
4z"/>
<path d="M1148 1773 c7 -3 16 -2 19 1 4 3 -2 6 -13 5 -11 0 -14 -3 -6 -6z"/>
<path d="M2617 1764 c-3 -11 -8 -36 -12 -58 -4 -26 -21 -53 -52 -87 -43 -46
-51 -68 -12 -33 9 8 29 16 44 18 14 2 36 11 47 20 15 13 23 15 31 7 14 -14 30
-14 21 0 -3 6 5 4 19 -5 58 -38 111 22 64 72 -13 14 -29 21 -41 18 -15 -4 -46
9 -76 32 -2 1 2 8 10 13 12 9 11 10 -4 5 -11 -4 -23 -1 -27 5 -4 8 -9 5 -12
-7z m91 -67 c6 0 12 -4 12 -9 0 -4 6 -8 14 -8 14 0 29 -24 20 -33 -3 -3 -21
-1 -41 5 -35 10 -57 8 -98 -7 -11 -4 -15 -3 -9 2 6 4 14 21 18 37 6 26 10 28
39 21 18 -4 38 -7 45 -8z"/>
<path d="M2675 1680 c-3 -5 -1 -10 4 -10 6 0 11 5 11 10 0 6 -2 10 -4 10 -3 0
-8 -4 -11 -10z"/>
<path d="M1074 1758 c-7 -10 15 -9 41 2 17 7 16 8 -8 7 -16 -1 -31 -5 -33 -9z"/>
<path d="M1230 1720 c0 -19 3 -21 12 -12 9 9 9 15 0 24 -9 9 -12 7 -12 -12z"/>
<path d="M975 1720 c3 -5 8 -10 11 -10 2 0 4 5 4 10 0 6 -5 10 -11 10 -5 0 -7
-4 -4 -10z"/>
<path d="M2510 1660 c0 -5 -7 -7 -15 -4 -10 4 -13 2 -10 -8 4 -10 15 -13 31
-10 19 3 22 7 13 18 -13 16 -19 18 -19 4z"/>
<path d="M1208 1642 c10 -7 8 -15 -8 -35 -12 -15 -17 -27 -11 -27 15 0 44 47
36 60 -3 5 -12 10 -18 10 -9 0 -8 -3 1 -8z"/>
<path d="M1593 1616 c0 -8 10 -19 23 -24 12 -6 29 -25 38 -43 14 -29 15 -35 2
-48 -8 -8 -40 -16 -70 -19 -35 -3 -53 -8 -49 -15 4 -6 0 -8 -11 -4 -11 4 -15
3 -11 -4 4 -6 14 -7 24 -3 9 3 34 8 56 10 100 11 119 68 43 136 -36 31 -45 34
-45 14z"/>
<path d="M2342 1555 c0 -16 2 -22 5 -12 2 9 2 23 0 30 -3 6 -5 -1 -5 -18z"/>
<path d="M2440 1570 c0 -5 5 -10 10 -10 6 0 10 5 10 10 0 6 -4 10 -10 10 -5 0
-10 -4 -10 -10z"/>
<path d="M2315 1560 c-3 -5 -1 -10 4 -10 6 0 11 5 11 10 0 6 -2 10 -4 10 -3 0
-8 -4 -11 -10z"/>
<path d="M1146 1544 c-9 -9 -15 -19 -12 -21 3 -3 13 2 22 11 9 9 14 19 11 22
-2 3 -12 -3 -21 -12z"/>
<path d="M2301 1529 c0 -8 -9 -24 -19 -35 -18 -19 -26 -58 -10 -48 4 3 8 12 8
20 0 8 8 14 18 14 13 0 14 2 3 9 -10 6 -10 10 -1 13 7 2 10 13 7 23 -3 13 -5
15 -6 4z"/>
<path d="M1499 1505 c-26 -7 -52 -16 -59 -20 -24 -15 -79 -14 -115 0 -40 17
-121 20 -130 5 -4 -7 7 -8 33 -4 23 3 48 2 58 -5 15 -8 7 -10 -41 -11 -34 0
-65 3 -71 8 -5 4 0 -1 10 -11 16 -15 30 -17 66 -13 49 6 62 7 130 5 28 -1 64
7 92 20 26 12 67 21 93 21 28 0 44 4 40 10 -8 13 -49 11 -106 -5z"/>
<path d="M1096 1494 c-11 -7 -17 -16 -15 -19 3 -3 14 2 25 9 10 8 17 17 14 19
-3 3 -14 -1 -24 -9z"/>
<path d="M1707 1499 c7 -7 15 -10 18 -7 3 3 -2 9 -12 12 -14 6 -15 5 -6 -5z"/>
<path d="M1850 1481 c0 -6 4 -13 10 -16 6 -3 7 1 4 9 -7 18 -14 21 -14 7z"/>
<path d="M2097 1479 c7 -7 15 -10 18 -7 3 3 -2 9 -12 12 -14 6 -15 5 -6 -5z"/>
<path d="M2135 1481 c-3 -5 -2 -12 3 -15 5 -3 9 1 9 9 0 17 -3 19 -12 6z"/>
<path d="M2235 1470 c-3 -5 -1 -10 4 -10 6 0 11 5 11 10 0 6 -2 10 -4 10 -3 0
-8 -4 -11 -10z"/>
<path d="M2185 1426 c-17 -18 -18 -25 -8 -35 10 -9 13 -9 13 3 0 10 6 13 18
10 12 -4 13 -3 4 3 -7 5 -10 17 -6 26 8 22 4 20 -21 -7z"/>
<path d="M983 1425 c0 -8 4 -12 9 -9 5 3 6 10 3 15 -9 13 -12 11 -12 -6z"/>
<path d="M2105 1420 c-3 -5 -1 -10 4 -10 6 0 11 5 11 10 0 6 -2 10 -4 10 -3 0
-8 -4 -11 -10z"/>
<path d="M2230 1418 c0 -11 28 -10 35 1 3 6 -4 9 -15 8 -11 -1 -20 -5 -20 -9z"/>
<path d="M1400 1416 c0 -2 7 -7 16 -10 8 -3 12 -2 9 4 -6 10 -25 14 -25 6z"/>
<path d="M1490 1406 c0 -13 19 -26 50 -32 9 -2 8 2 -5 11 -11 8 -26 19 -32 25
-10 8 -13 7 -13 -4z"/>
<path d="M1518 1413 c6 -2 18 -2 25 0 6 3 1 5 -13 5 -14 0 -19 -2 -12 -5z"/>
<path d="M1440 1401 c0 -17 18 -21 24 -6 3 9 0 15 -9 15 -8 0 -15 -4 -15 -9z"/>
<path d="M1580 1401 c0 -5 7 -15 17 -22 15 -13 15 -12 4 9 -12 23 -21 28 -21
13z"/>
<path d="M1312 1384 c-14 -9 -22 -11 -22 -4 0 6 -4 8 -10 5 -5 -3 -10 -11 -10
-16 0 -14 42 -7 59 9 20 19 8 24 -17 6z"/>
<path d="M1820 1381 c0 -12 6 -21 15 -21 8 0 15 3 15 6 0 3 -7 12 -15 20 -13
14 -15 13 -15 -5z"/>
<path d="M1865 1390 c3 -5 8 -10 11 -10 2 0 4 5 4 10 0 6 -5 10 -11 10 -5 0
-7 -4 -4 -10z"/>
<path d="M1243 1376 c-4 -7 -15 -16 -23 -19 -12 -4 -12 -6 2 -6 10 -1 22 8 28
19 12 22 6 28 -7 6z"/>
<path d="M1680 1380 c0 -5 7 -10 15 -10 8 0 15 -5 15 -12 0 -6 2 -9 5 -6 3 3
3 13 -1 22 -7 17 -34 22 -34 6z"/>
<path d="M1742 1376 c7 -8 14 -10 16 -6 2 4 12 5 24 2 14 -3 19 -1 14 6 -4 7
-21 12 -37 12 -25 0 -28 -2 -17 -14z"/>
<path d="M2015 1379 c-4 -6 -5 -12 -2 -15 2 -3 7 2 10 11 7 17 1 20 -8 4z"/>
<path d="M2205 1379 c-4 -6 -5 -12 -2 -15 2 -3 7 2 10 11 7 17 1 20 -8 4z"/>
<path d="M2245 1379 c-9 -14 -2 -20 14 -10 8 6 9 11 3 15 -6 3 -14 1 -17 -5z"/>
<path d="M1365 1370 c-19 -8 -19 -9 3 -9 12 -1 22 4 22 9 0 6 -1 10 -2 9 -2 0
-12 -4 -23 -9z"/>
<path d="M2118 1358 c-15 -15 -16 -18 -3 -18 9 0 18 7 22 15 8 23 0 24 -19 3z"/>
<path d="M1186 1355 c4 -8 8 -15 10 -15 2 0 4 7 4 15 0 8 -4 15 -10 15 -5 0
-7 -7 -4 -15z"/>
<path d="M1410 1360 c0 -5 5 -10 10 -10 6 0 10 5 10 10 0 6 -4 10 -10 10 -5 0
-10 -4 -10 -10z"/>
<path d="M2167 1359 c6 -6 9 -19 6 -28 -4 -13 -2 -13 7 2 12 19 6 37 -13 37
-8 0 -8 -3 0 -11z"/>
<path d="M1778 1353 c7 -3 16 -2 19 1 4 3 -2 6 -13 5 -11 0 -14 -3 -6 -6z"/>
<path d="M1135 1340 c-19 -8 -19 -9 3 -9 12 -1 22 4 22 9 0 6 -1 10 -2 9 -2 0
-12 -4 -23 -9z"/>
<path d="M2205 1341 c-3 -5 -1 -12 5 -16 5 -3 10 1 10 9 0 18 -6 21 -15 7z"/>
<path d="M2255 1330 c-10 -11 -13 -20 -8 -20 13 0 38 29 31 35 -3 3 -13 -4
-23 -15z"/>
<path d="M1800 1330 c0 -7 -59 -10 -168 -8 -93 1 -174 -2 -182 -7 -8 -5 -34
-8 -58 -6 -30 1 -42 -1 -37 -9 7 -11 35 -10 148 4 21 3 42 8 47 11 6 3 10 1
10 -6 0 -6 8 -9 20 -6 11 3 17 1 14 -4 -3 -6 14 -7 45 -3 37 5 51 3 51 -5 0
-19 88 -2 128 25 34 24 35 24 8 24 -14 0 -26 -5 -26 -10z"/>
<path d="M1287 1306 c-21 -6 -36 -15 -33 -19 3 -4 1 -3 -5 2 -13 10 -49 3 -49
-11 0 -5 4 -7 9 -3 5 3 12 1 16 -5 7 -11 -5 -13 -29 -4 -9 3 -13 10 -10 15 3
5 -2 9 -11 9 -9 0 -13 -4 -10 -10 8 -13 5 -13 -44 5 -54 19 -53 5 2 -17 31
-13 84 -19 212 -24 147 -5 182 -3 260 14 50 11 77 20 60 21 -16 0 -48 -4 -70
-9 -103 -26 -315 -21 -315 6 0 10 8 13 25 10 14 -3 23 -1 20 5 -4 5 1 9 9 9 9
0 16 5 16 10 0 12 -3 12 -53 -4z"/>
<path d="M2070 1305 c0 -17 -2 -17 -10 -5 -8 13 -11 13 -26 -2 -16 -16 -16
-17 3 -12 25 7 34 -5 26 -35 -3 -13 -11 -20 -19 -17 -8 3 -14 1 -14 -5 0 -6
-7 -8 -16 -5 -14 5 -15 4 -5 -8 6 -7 8 -22 4 -31 -4 -13 -3 -16 5 -11 7 4 12
17 12 29 0 15 3 18 8 9 6 -9 12 -5 23 15 8 16 19 33 25 38 8 7 7 17 -2 35 -12
22 -14 23 -14 5z"/>
<path d="M966 1301 c-3 -5 1 -11 9 -14 9 -4 12 -1 8 9 -6 16 -10 17 -17 5z"/>
<path d="M2130 1306 c0 -2 8 -10 18 -17 15 -13 16 -12 3 4 -13 16 -21 21 -21
13z"/>
<path d="M2160 1306 c0 -2 6 -9 14 -15 11 -9 16 -9 22 0 4 8 3 9 -4 5 -7 -4
-12 -2 -12 3 0 6 -4 11 -10 11 -5 0 -10 -2 -10 -4z"/>
<path d="M2212 1288 c-14 -14 -16 -28 -3 -28 5 0 11 9 14 20 6 23 5 24 -11 8z"/>
<path d="M915 1280 c4 -6 11 -8 16 -5 14 9 11 15 -7 15 -8 0 -12 -5 -9 -10z"/>
<path d="M1380 1269 c0 -5 5 -7 10 -4 6 3 10 8 10 11 0 2 -4 4 -10 4 -5 0 -10
-5 -10 -11z"/>
<path d="M2123 1264 c-8 -21 -1 -25 20 -9 15 11 16 13 2 19 -9 3 -18 -1 -22
-10z"/>
<path d="M1770 1245 c-13 -14 -21 -25 -18 -25 10 0 51 40 46 45 -2 3 -15 -6
-28 -20z"/>
<path d="M1667 1209 c-25 -24 -52 -39 -80 -44 -23 -4 -49 -9 -57 -11 -37 -8
-234 -12 -221 -5 10 7 8 11 -10 16 -13 4 -35 15 -48 24 -13 8 -31 16 -40 18
-23 3 28 -35 57 -43 12 -3 22 -12 22 -19 0 -9 19 -16 53 -20 90 -11 121 -11
154 2 18 7 45 13 60 13 15 0 41 7 57 15 15 8 32 12 37 9 5 -3 8 0 7 7 -2 6 7
13 20 14 12 1 28 8 35 15 10 10 8 10 -10 1 -33 -17 -41 -13 -14 8 13 10 22 22
20 27 -2 5 -21 -7 -42 -27z"/>
<path d="M2090 1221 c0 -11 -5 -21 -11 -23 -7 -2 -5 -9 5 -17 14 -12 16 -12
11 1 -3 8 1 21 9 28 9 7 13 16 10 21 -9 16 -24 10 -24 -10z"/>
<path d="M1946 1211 c-6 -10 10 -61 18 -61 3 0 5 16 4 35 -1 34 -11 45 -22 26z"/>
<path d="M1368 1193 c7 -3 16 -2 19 1 4 3 -2 6 -13 5 -11 0 -14 -3 -6 -6z"/>
<path d="M1920 1180 c0 -5 5 -10 10 -10 6 0 10 5 10 10 0 6 -4 10 -10 10 -5 0
-10 -4 -10 -10z"/>
<path d="M1987 1171 c-4 -17 -3 -21 5 -13 5 5 8 16 6 23 -3 8 -7 3 -11 -10z"/>
<path d="M1872 1166 c-12 -7 -26 -17 -30 -21 -4 -5 -1 -5 6 -1 6 4 12 2 12 -4
0 -7 10 -20 22 -30 l22 -17 -22 -12 c-12 -6 -22 -18 -22 -26 0 -10 7 -8 23 8
23 21 45 63 28 53 -4 -3 -17 1 -27 10 -18 15 -18 15 2 5 12 -6 26 -6 35 0 12
7 11 9 -3 9 -23 0 -34 20 -17 31 21 13 -3 9 -29 -5z"/>
<path d="M2045 1160 c3 -5 8 -10 11 -10 2 0 4 5 4 10 0 6 -5 10 -11 10 -5 0
-7 -4 -4 -10z"/>
<path d="M2299 1165 c-4 -5 -5 -19 -3 -30 2 -11 7 -58 10 -105 6 -79 4 -92
-30 -193 -19 -60 -39 -113 -43 -120 -9 -15 -11 -57 -2 -51 4 2 13 21 19 42 6
20 17 53 25 72 32 83 33 86 44 140 15 70 -3 275 -20 245z"/>
<path d="M1055 1150 c4 -6 11 -8 16 -5 14 9 11 15 -7 15 -8 0 -12 -5 -9 -10z"/>
<path d="M1085 1140 c-3 -5 -1 -10 4 -10 6 0 11 5 11 10 0 6 -2 10 -4 10 -3 0
-8 -4 -11 -10z"/>
<path d="M1140 1146 c0 -2 7 -7 16 -10 8 -3 12 -2 9 4 -6 10 -25 14 -25 6z"/>
<path d="M2446 1141 c-3 -5 10 -18 29 -30 19 -11 35 -19 35 -18 0 10 -60 55
-64 48z"/>
<path d="M1782 1114 c10 -10 20 -16 22 -13 3 3 -5 11 -17 18 -21 13 -21 12 -5
-5z"/>
<path d="M1815 1120 c3 -5 14 -10 23 -10 15 0 15 2 2 10 -20 13 -33 13 -25 0z"/>
<path d="M1954 1114 c-18 -14 -18 -15 4 -4 12 6 22 13 22 15 0 8 -5 6 -26 -11z"/>
<path d="M1695 1110 c-3 -5 -1 -10 4 -10 6 0 11 5 11 10 0 6 -2 10 -4 10 -3 0
-8 -4 -11 -10z"/>
<path d="M1136 1093 c-4 -9 -4 -18 -1 -21 3 -3 5 0 5 6 0 6 8 12 18 14 15 3
16 4 0 10 -10 4 -19 1 -22 -9z"/>
<path d="M1456 1092 c-2 -4 4 -8 15 -8 10 0 19 4 19 8 0 10 -27 10 -34 0z"/>
<path d="M1528 1093 c7 -3 16 -2 19 1 4 3 -2 6 -13 5 -11 0 -14 -3 -6 -6z"/>
<path d="M1815 1092 c-6 -4 -11 -15 -13 -25 -2 -10 -12 -33 -22 -50 -10 -17
-17 -34 -14 -39 3 -4 -2 -8 -10 -8 -19 0 -16 47 4 60 12 7 12 12 2 22 -9 9
-12 9 -12 0 0 -10 -5 -10 -22 -1 -21 11 -22 11 -9 -5 17 -20 22 -54 9 -62 -4
-3 -6 -9 -3 -14 3 -4 -11 -10 -30 -12 -19 -2 -35 0 -35 4 0 13 -17 9 -34 -7
-17 -18 -33 -19 -38 -4 -3 9 -9 9 -25 0 -14 -7 -24 -8 -28 -1 -3 5 0 10 7 10
7 0 24 9 38 19 22 17 22 19 5 18 -11 -1 -28 -10 -39 -19 -10 -9 -24 -14 -31
-12 -7 3 -19 -1 -26 -8 -22 -21 -49 -21 -49 -1 0 13 -8 18 -33 19 -17 1 -24
-1 -14 -3 18 -5 24 -33 6 -33 -5 0 -7 5 -4 10 3 6 -1 10 -10 10 -10 0 -13 -5
-9 -12 4 -7 3 -8 -5 -4 -6 4 -9 11 -6 16 3 4 -8 12 -23 18 -22 8 -31 6 -38 -5
-8 -12 -16 -10 -48 16 -38 30 -63 41 -51 21 3 -5 1 -10 -5 -10 -7 0 -9 8 -5
19 3 11 1 22 -5 26 -5 3 -10 1 -10 -6 0 -8 -6 -6 -18 4 -24 22 -41 22 -35 0 7
-27 63 -59 155 -90 76 -25 95 -27 233 -27 127 1 161 4 225 24 41 12 80 25 85
29 6 3 16 6 23 7 8 2 22 10 31 18 10 9 21 16 24 16 4 0 27 12 52 28 31 19 42
31 36 41 -6 10 -10 9 -15 -4 -5 -15 -9 -15 -23 -4 -14 12 -15 11 -9 -9 7 -21
-8 -33 -16 -13 -1 5 -12 3 -23 -6 -19 -15 -19 -15 5 -8 19 5 21 4 10 -4 -8 -6
-21 -11 -28 -11 -8 0 -27 -9 -43 -21 -27 -19 -56 -18 -44 2 4 5 1 9 -6 9 -8 0
-5 8 6 20 15 16 21 18 33 7 13 -10 14 -9 4 9 -6 12 -9 24 -6 27 8 8 -11 16
-21 9z m-15 -102 c0 -5 -4 -10 -10 -10 -5 0 -10 5 -10 10 0 6 5 10 10 10 6 0
10 -4 10 -10z m-280 -40 c0 -5 -2 -10 -4 -10 -3 0 -8 5 -11 10 -3 6 -1 10 4
10 6 0 11 -4 11 -10z"/>
<path d="M1598 1018 c8 -9 11 -27 8 -40 -3 -13 -3 -17 0 -10 3 6 9 10 13 8 4
-3 8 7 9 21 1 15 -1 23 -5 20 -3 -4 -13 -1 -22 6 -14 10 -14 10 -3 -5z"/>
<path d="M1682 1017 c-22 -7 -32 -16 -30 -26 3 -17 58 -29 58 -12 0 5 -11 8
-25 5 -14 -2 -25 0 -25 6 0 5 6 10 13 10 7 0 22 7 33 15 22 17 21 17 -24 2z"/>
<path d="M1260 1014 c0 -6 9 -19 20 -29 11 -10 20 -14 20 -9 0 13 -20 41 -20
29 0 -5 -5 -3 -10 5 -5 8 -10 10 -10 4z"/>
<path d="M1950 939 c0 -5 5 -7 10 -4 6 3 10 8 10 11 0 2 -4 4 -10 4 -5 0 -10
-5 -10 -11z"/>
<path d="M949 923 c-13 -11 -53 -34 -89 -52 -36 -18 -81 -46 -100 -61 -19 -15
-64 -42 -100 -60 -36 -18 -80 -46 -98 -61 -18 -16 -39 -29 -47 -29 -9 0 -23
-4 -33 -9 -9 -6 -53 -27 -97 -47 -44 -21 -100 -50 -125 -65 -25 -15 -93 -49
-152 -75 -60 -26 -108 -51 -108 -55 0 -5 2 -9 4 -9 13 0 138 50 178 71 10 5
22 9 28 9 6 0 21 9 33 21 29 27 195 108 275 134 34 12 60 23 57 27 -6 6 19 24
78 57 27 15 38 17 47 8 7 -7 10 -7 7 -1 -3 6 3 17 15 25 11 8 39 29 62 46 22
18 46 33 52 33 6 0 21 9 34 20 13 11 26 18 29 15 3 -4 -1 -10 -9 -15 -8 -6
-11 -10 -7 -10 4 0 3 -9 -3 -20 -7 -14 -8 -26 -1 -38 9 -14 10 -14 11 -1 0 8
11 37 25 65 24 49 78 94 88 74 3 -6 4 -5 3 2 -4 20 -30 20 -57 1z"/>
<path d="M1830 916 c0 -2 8 -10 18 -17 15 -13 16 -12 3 4 -13 16 -21 21 -21
13z"/>
<path d="M1890 909 c0 -5 5 -7 10 -4 6 3 10 8 10 11 0 2 -4 4 -10 4 -5 0 -10
-5 -10 -11z"/>
<path d="M1950 900 c-9 -6 -10 -10 -3 -10 6 0 15 5 18 10 8 12 4 12 -15 0z"/>
<path d="M1395 890 c3 -5 8 -10 11 -10 2 0 4 5 4 10 0 6 -5 10 -11 10 -5 0 -7
-4 -4 -10z"/>
<path d="M1676 877 c3 -10 9 -15 12 -12 3 3 0 11 -7 18 -10 9 -11 8 -5 -6z"/>
<path d="M1018 851 c-2 -17 -1 -28 3 -26 10 7 18 55 9 55 -4 0 -10 -13 -12
-29z"/>
<path d="M1427 859 c4 -13 8 -18 11 -10 2 7 -1 18 -6 23 -8 8 -9 4 -5 -13z"/>
<path d="M1465 860 c3 -5 8 -10 11 -10 2 0 4 5 4 10 0 6 -5 10 -11 10 -5 0 -7
-4 -4 -10z"/>
<path d="M945 840 c-3 -5 -2 -10 4 -10 5 0 13 5 16 10 3 6 2 10 -4 10 -5 0
-13 -4 -16 -10z"/>
<path d="M1718 833 c7 -3 16 -2 19 1 4 3 -2 6 -13 5 -11 0 -14 -3 -6 -6z"/>
<path d="M1773 830 c2 -8 12 -16 23 -17 13 -2 15 -1 4 4 -8 3 -19 11 -23 17
-6 7 -7 6 -4 -4z"/>
<path d="M2627 814 c-4 -12 -7 -26 -5 -30 1 -5 -1 -34 -6 -65 -17 -133 -228
-412 -375 -497 -25 -14 -48 -29 -51 -33 -3 -4 -41 -17 -85 -28 -147 -39 -298
-24 -495 49 -47 18 -93 32 -102 33 -10 1 -18 5 -18 9 0 7 -53 38 -66 38 -3 0
-1 -7 6 -15 6 -8 9 -18 7 -22 -3 -5 30 -19 74 -33 43 -13 79 -27 79 -32 0 -4
10 -8 23 -8 37 0 67 -12 60 -23 -3 -5 -2 -7 4 -4 5 3 27 1 49 -4 84 -21 102
-23 181 -23 44 -1 79 -4 76 -8 -2 -5 3 -8 11 -8 9 0 16 5 16 10 0 6 10 10 23
10 32 0 197 40 232 57 17 7 21 11 10 7 -67 -22 -95 -9 -30 15 19 7 35 17 35
22 0 5 6 9 13 8 30 -4 48 2 41 13 -4 7 -3 8 4 4 19 -11 88 61 112 116 12 29
40 73 61 98 22 26 39 49 39 53 0 4 14 29 31 57 17 27 33 65 36 83 3 17 9 37
14 44 6 6 9 38 7 70 -2 42 -5 52 -11 37z"/>
<path d="M925 799 c-4 -12 -2 -26 4 -32 8 -8 11 -2 11 21 0 37 -6 41 -15 11z"/>
<path d="M905 703 c1 -30 -4 -61 -10 -69 -10 -15 -19 -20 -91 -61 -22 -11 -52
-36 -69 -53 -25 -28 -19 -25 40 17 66 46 132 80 139 72 1 -2 16 -24 33 -49 17
-25 40 -53 52 -64 11 -10 18 -23 15 -27 -3 -5 4 -9 15 -9 25 0 71 -20 71 -32
0 -4 8 -8 19 -8 10 0 29 -8 42 -19 13 -10 35 -22 49 -26 24 -7 24 -7 5 9 -11
8 -23 16 -27 16 -28 1 -165 100 -209 152 -55 63 -65 95 -46 160 5 21 3 29 -11
37 -16 8 -17 4 -17 -46z"/>
<path d="M2706 705 c-3 -8 -1 -15 3 -15 5 0 11 7 15 15 3 8 1 15 -3 15 -5 0
-11 -7 -15 -15z"/>
<path d="M2760 708 c0 -9 5 -20 10 -23 6 -3 8 -16 5 -28 -3 -13 3 -32 15 -47
11 -14 20 -20 20 -13 0 6 -4 15 -10 18 -5 3 -10 18 -10 33 -1 31 -29 89 -30
60z"/>
<path d="M970 696 c0 -2 7 -7 16 -10 8 -3 12 -2 9 4 -6 10 -25 14 -25 6z"/>
<path d="M2690 669 c0 -5 5 -7 10 -4 6 3 10 8 10 11 0 2 -4 4 -10 4 -5 0 -10
-5 -10 -11z"/>
<path d="M2211 628 c0 -9 -23 -30 -51 -47 -27 -17 -50 -33 -50 -36 0 -7 13 0
53 27 15 11 27 16 27 13 0 -4 7 1 16 9 8 9 13 24 11 34 -4 15 -5 15 -6 0z"/>
<path d="M2346 623 c-6 -14 -5 -15 5 -6 7 7 10 15 7 18 -3 3 -9 -2 -12 -12z"/>
<path d="M1150 596 c0 -2 7 -7 16 -10 8 -3 12 -2 9 4 -6 10 -25 14 -25 6z"/>
<path d="M2314 575 c-9 -14 -15 -27 -13 -30 3 -2 12 10 21 26 21 36 15 39 -8
4z"/>
<path d="M2835 535 c16 -27 38 -66 50 -85 30 -51 81 -167 106 -240 7 -21 8
-20 5 10 -4 37 -66 193 -78 198 -5 2 -8 9 -8 16 0 7 -9 23 -20 36 -12 13 -18
30 -15 37 2 8 0 11 -5 8 -6 -3 -14 4 -19 17 -5 13 -17 30 -27 38 -12 10 -8 -1
11 -35z"/>
<path d="M2773 537 c-13 -18 -23 -38 -23 -44 0 -5 -9 -18 -21 -29 -11 -10 -25
-27 -31 -37 -9 -17 -8 -18 15 -2 14 9 31 30 38 48 7 18 21 40 31 50 10 10 18
24 18 32 0 21 -2 19 -27 -18z"/>
<path d="M672 545 c-7 -8 -9 -15 -4 -15 5 0 15 7 22 15 16 19 -1 19 -18 0z"/>
<path d="M351 520 c-13 -11 -19 -20 -13 -20 5 0 20 9 33 20 13 10 20 19 14 19
-5 0 -21 -9 -34 -19z"/>
<path d="M1405 531 c-3 -5 -2 -12 3 -15 5 -3 9 1 9 9 0 17 -3 19 -12 6z"/>
<path d="M1570 536 c0 -2 8 -10 18 -17 15 -13 16 -12 3 4 -13 16 -21 21 -21
13z"/>
<path d="M1630 525 c7 -9 15 -13 17 -11 7 7 -7 26 -19 26 -6 0 -6 -6 2 -15z"/>
<path d="M2319 523 c-13 -16 -12 -17 4 -4 16 13 21 21 13 21 -2 0 -10 -8 -17
-17z"/>
<path d="M2168 509 c-10 -5 -18 -18 -18 -27 -1 -22 -65 -92 -85 -92 -8 0 -15
-4 -15 -8 0 -5 -11 -14 -25 -20 -14 -6 -25 -18 -25 -26 0 -8 -5 -18 -12 -22
-7 -4 -8 -3 -4 4 4 7 2 10 -6 7 -15 -6 -40 -55 -28 -55 5 0 15 6 22 13 7 8 23
19 36 26 12 6 22 17 22 24 0 7 23 24 50 39 28 16 50 34 50 42 0 7 7 19 15 26
8 7 15 19 15 28 0 8 7 24 17 34 18 20 16 22 -9 7z"/>
<path d="M2610 508 c0 -8 -11 -29 -25 -48 -47 -64 -27 -65 24 -1 27 34 29 40
16 51 -12 10 -15 10 -15 -2z"/>
<path d="M664 468 c-16 -13 -30 -26 -32 -30 -2 -5 -10 -8 -17 -8 -8 0 -20 -6
-27 -12 -37 -34 -52 -36 -103 -12 -27 13 -55 24 -62 24 -7 0 -13 5 -13 10 0 6
-6 10 -14 10 -7 0 -19 7 -26 15 -15 18 -30 20 -30 4 0 -6 9 -13 20 -16 23 -6
23 -4 10 -40 -9 -27 -9 -27 6 -6 15 21 17 21 62 6 61 -20 71 -30 47 -47 -11
-8 -23 -12 -26 -10 -4 2 -12 -3 -19 -11 -17 -20 -4 -19 34 4 17 10 45 22 63
26 17 3 37 13 44 21 6 8 17 14 24 14 6 0 23 9 36 21 13 12 33 27 43 35 11 7
17 16 14 19 -3 3 -18 -5 -34 -17z"/>
<path d="M1612 481 c-11 -6 -10 -10 0 -19 11 -8 14 -7 14 9 0 10 0 19 -1 19 0
0 -6 -4 -13 -9z"/>
<path d="M1685 471 c-3 -5 -2 -12 3 -15 5 -3 9 1 9 9 0 17 -3 19 -12 6z"/>
<path d="M2015 459 c-27 -11 -70 -29 -93 -40 -65 -30 -146 -28 -174 5 -14 16
-17 17 -12 4 4 -12 1 -18 -10 -18 -9 0 -16 -4 -16 -9 0 -14 91 -27 135 -20 62
11 73 15 172 61 24 11 47 17 51 14 5 -3 9 1 9 9 0 18 -1 18 -62 -6z"/>
<path d="M555 460 c-3 -5 1 -10 10 -10 9 0 13 5 10 10 -3 6 -8 10 -10 10 -2 0
-7 -4 -10 -10z"/>
<path d="M292 445 c-7 -8 -9 -15 -4 -15 5 0 15 7 22 15 16 19 -1 19 -18 0z"/>
<path d="M1660 436 c0 -7 9 -16 20 -19 11 -3 20 -4 20 -3 0 1 -9 9 -20 19 -15
13 -20 14 -20 3z"/>
<path d="M1596 385 c10 -8 24 -14 29 -14 6 0 1 6 -9 14 -11 8 -24 15 -30 15
-5 0 -1 -7 10 -15z"/>
<path d="M2605 390 c-3 -5 -2 -10 4 -10 5 0 13 5 16 10 3 6 2 10 -4 10 -5 0
-13 -4 -16 -10z"/>
<path d="M2665 390 c-3 -5 -2 -10 4 -10 5 0 13 5 16 10 3 6 2 10 -4 10 -5 0
-13 -4 -16 -10z"/>
<path d="M355 370 c3 -5 8 -10 11 -10 2 0 4 5 4 10 0 6 -5 10 -11 10 -5 0 -7
-4 -4 -10z"/>
<path d="M1140 376 c0 -2 7 -7 16 -10 8 -3 12 -2 9 4 -6 10 -25 14 -25 6z"/>
<path d="M1297 359 c7 -7 15 -10 18 -7 3 3 -2 9 -12 12 -14 6 -15 5 -6 -5z"/>
<path d="M1637 363 c-4 -6 0 -16 8 -23 8 -7 15 -9 15 -6 0 4 9 2 20 -4 14 -7
20 -7 20 0 0 9 -12 12 -37 9 -4 0 -10 7 -13 17 -4 11 -9 14 -13 7z"/>
<path d="M2500 359 c0 -5 5 -7 10 -4 6 3 10 8 10 11 0 2 -4 4 -10 4 -5 0 -10
-5 -10 -11z"/>
<path d="M2640 360 c-13 -8 -12 -10 3 -10 9 0 17 5 17 10 0 12 -1 12 -20 0z"/>
<path d="M1180 356 c0 -2 7 -9 15 -16 9 -7 15 -8 15 -2 0 5 -7 12 -15 16 -8 3
-15 4 -15 2z"/>
<path d="M1716 331 c-3 -5 1 -14 8 -20 12 -10 13 -8 9 8 -6 23 -9 25 -17 12z"/>
<path d="M1740 330 c0 -5 5 -10 11 -10 5 0 7 5 4 10 -3 6 -8 10 -11 10 -2 0
-4 -4 -4 -10z"/>
<path d="M338 294 c-38 -19 -68 -37 -68 -40 0 -3 3 -3 8 -1 4 2 37 18 75 36
61 29 79 42 60 41 -5 -1 -38 -17 -75 -36z"/>
<path d="M1772 310 c0 -14 2 -19 5 -12 2 6 2 18 0 25 -3 6 -5 1 -5 -13z"/>
<path d="M1276 306 c10 -8 21 -12 24 -10 5 6 -21 24 -34 24 -6 0 -1 -6 10 -14z"/>
<path d="M1319 296 c15 -18 101 -48 101 -35 0 5 -6 9 -14 9 -8 0 -22 7 -30 16
-9 8 -28 17 -43 20 -22 4 -24 3 -14 -10z"/>
<path d="M957 269 c4 -13 8 -18 11 -10 2 7 -1 18 -6 23 -8 8 -9 4 -5 -13z"/>
<path d="M1576 265 c20 -30 24 -31 17 -6 -3 11 -11 22 -19 25 -11 4 -11 0 2
-19z"/>
<path d="M2425 280 c-3 -5 -1 -10 4 -10 6 0 11 5 11 10 0 6 -2 10 -4 10 -3 0
-8 -4 -11 -10z"/>
<path d="M1740 270 c0 -5 5 -10 11 -10 5 0 7 5 4 10 -3 6 -8 10 -11 10 -2 0
-4 -4 -4 -10z"/>
<path d="M1770 264 c0 -8 5 -12 10 -9 6 4 8 11 5 16 -9 14 -15 11 -15 -7z"/>
<path d="M1620 251 c0 -4 11 -13 25 -19 14 -6 25 -8 25 -4 0 4 -11 12 -25 19
-14 6 -25 8 -25 4z"/>
<path d="M2206 245 c-11 -8 -15 -15 -9 -15 6 0 16 7 23 15 16 19 11 19 -14 0z"/>
<path d="M2056 235 c-3 -9 -10 -13 -16 -10 -6 4 -7 -1 -3 -11 4 -10 8 -13 10
-7 3 7 11 9 19 6 16 -6 18 5 5 25 -7 11 -9 10 -15 -3z"/>
<path d="M945 230 c3 -5 8 -10 11 -10 2 0 4 5 4 10 0 6 -5 10 -11 10 -5 0 -7
-4 -4 -10z"/>
<path d="M2380 228 c0 -4 4 -8 9 -8 6 0 12 4 15 8 3 5 -1 9 -9 9 -8 0 -15 -4
-15 -9z"/>
<path d="M2114 219 c-4 -7 -3 -9 4 -5 5 3 12 0 15 -6 4 -10 7 -10 16 -1 6 7 8
11 5 8 -4 -3 -13 0 -20 6 -8 7 -14 6 -20 -2z"/>
<path d="M2345 220 c-3 -5 1 -10 9 -10 9 0 16 5 16 10 0 6 -4 10 -9 10 -6 0
-13 -4 -16 -10z"/>
<path d="M1890 205 c0 -8 4 -15 10 -15 5 0 7 7 4 15 -4 8 -8 15 -10 15 -2 0
-4 -7 -4 -15z"/>
<path d="M1946 205 c-9 -26 -7 -32 5 -12 6 10 9 21 6 23 -2 3 -7 -2 -11 -11z"/>
<path d="M2001 213 c-1 -17 16 -25 25 -12 4 7 3 9 -4 5 -5 -3 -13 0 -15 6 -4
9 -6 10 -6 1z"/>
<path d="M950 157 c0 -34 -4 -57 -11 -57 -6 0 -3 -7 6 -16 9 -9 13 -24 10 -35
-4 -10 -1 -27 4 -36 8 -13 9 11 5 87 -7 116 -14 144 -14 57z"/>
<path d="M1830 201 c0 -6 4 -13 10 -16 6 -3 7 1 4 9 -7 18 -14 21 -14 7z"/>
<path d="M1966 193 c-6 -14 -5 -15 5 -6 7 7 10 15 7 18 -3 3 -9 -2 -12 -12z"/>
<path d="M1878 93 c7 -3 16 -2 19 1 4 3 -2 6 -13 5 -11 0 -14 -3 -6 -6z"/>
<path d="M2908 63 c7 -3 16 -2 19 1 4 3 -2 6 -13 5 -11 0 -14 -3 -6 -6z"/>
</g>
</svg>
