<?xml version="1.0" standalone="no"?>
<!DOCTYPE svg PUBLIC "-//W3C//DTD SVG 20010904//EN"
 "http://www.w3.org/TR/2001/REC-SVG-20010904/DTD/svg10.dtd">
<svg version="1.0" xmlns="http://www.w3.org/2000/svg"
 width="300.000000pt" height="300.000000pt" viewBox="0 0 300.000000 300.000000"
 preserveAspectRatio="xMidYMid meet">
<metadata>
Created by potrace 1.10, written by Peter Selinger 2001-2011
</metadata>
<g transform="translate(0.000000,300.000000) scale(0.100000,-0.100000)"
fill="#000000" stroke="none">
<path d="M310 2981 c0 -11 5 -23 10 -26 6 -3 10 3 10 14 0 11 -4 23 -10 26 -5
3 -10 -3 -10 -14z"/>
<path d="M1158 2993 c7 -3 16 -2 19 1 4 3 -2 6 -13 5 -11 0 -14 -3 -6 -6z"/>
<path d="M1226 2984 c-15 -39 -6 -48 22 -22 15 14 34 28 42 31 8 3 -1 6 -21 6
-25 1 -39 -4 -43 -15z"/>
<path d="M1363 2993 c9 -2 23 -2 30 0 6 3 -1 5 -18 5 -16 0 -22 -2 -12 -5z"/>
<path d="M1420 2993 c0 -4 -13 -14 -30 -21 -16 -8 -30 -18 -30 -23 0 -6 4 -8
9 -5 4 3 36 8 70 10 101 8 150 17 162 32 14 17 8 18 -26 2 -19 -9 -28 -9 -37
0 -14 14 -32 16 -23 3 7 -13 -36 -26 -44 -13 -8 13 -51 26 -51 15z"/>
<path d="M1631 2996 c9 -8 99 -13 99 -5 0 5 -23 9 -52 9 -28 0 -49 -2 -47 -4z"/>
<path d="M1747 2987 c-3 -9 4 -22 20 -34 14 -10 31 -24 39 -31 8 -7 14 -12 15
-10 7 28 1 47 -20 63 l-26 19 19 -22 c15 -17 16 -22 5 -22 -8 0 -21 12 -30 26
-13 20 -17 23 -22 11z"/>
<path d="M1820 2984 c0 -8 5 -12 10 -9 6 4 8 11 5 16 -9 14 -15 11 -15 -7z"/>
<path d="M1980 2975 c-18 -19 -26 -22 -32 -13 -6 8 -7 5 -3 -9 5 -20 3 -23
-21 -23 -22 0 -25 3 -16 12 7 7 12 18 12 26 0 24 -21 8 -36 -27 l-14 -34 30 6
c22 5 30 3 30 -8 0 -7 -5 -17 -10 -20 -6 -4 -8 -10 -6 -14 6 -9 -25 -8 -40 2
-21 12 -21 -3 0 -48 17 -37 25 -45 44 -41 14 2 22 -2 22 -10 0 -20 16 -17 37
5 10 11 25 21 33 23 8 2 21 17 30 33 l14 30 4 -50 c3 -50 21 -88 23 -50 1 11
2 27 3 35 0 8 -2 17 -6 20 -4 3 -13 42 -19 85 -11 80 -21 106 -33 86 -4 -6 -2
-11 4 -11 7 0 10 -6 7 -14 -3 -8 -3 -17 1 -21 4 -3 8 -23 9 -43 1 -25 -1 -32
-7 -23 -6 11 -10 5 -15 -22 -4 -21 -12 -40 -18 -44 -6 -4 -8 3 -3 20 3 14 2
29 -4 32 -6 3 -7 -1 -4 -9 7 -19 -12 -22 -20 -3 -2 6 -4 -3 -3 -22 1 -21 -3
-36 -12 -39 -9 -3 -11 1 -6 17 7 24 -10 29 -19 6 -7 -19 -32 -19 -39 -1 -4 10
-1 13 7 10 8 -3 24 16 42 53 16 32 37 66 47 75 14 15 24 48 14 48 -2 0 -14
-11 -27 -25z"/>
<path d="M2267 2993 c-4 -3 -17 -8 -30 -9 -12 -1 -48 -5 -79 -9 -41 -6 -62 -4
-73 5 -13 11 -15 7 -15 -31 0 -32 3 -40 10 -29 6 9 10 11 10 3 0 -7 7 -10 15
-7 8 4 15 12 15 19 0 17 33 25 54 13 16 -9 16 -21 1 -80 -9 -33 1 -78 16 -78
8 0 8 4 0 14 -15 18 -11 47 8 62 8 6 12 18 8 26 -3 9 2 24 12 35 10 10 16 25
14 33 -3 10 -2 11 4 4 12 -16 43 -13 43 3 0 10 6 12 20 8 15 -5 18 -3 14 9 -6
16 -35 22 -47 9z"/>
<path d="M2535 2989 c-5 -7 5 -8 32 -3 51 9 54 14 10 14 -20 0 -39 -5 -42 -11z"/>
<path d="M2704 2931 c0 -70 9 -81 27 -34 11 30 1 103 -15 103 -8 0 -12 -23
-12 -69z"/>
<path d="M520 2986 c0 -2 7 -6 15 -10 8 -3 15 -1 15 4 0 6 -7 10 -15 10 -8 0
-15 -2 -15 -4z"/>
<path d="M625 2980 c-3 -5 -1 -10 4 -10 6 0 11 5 11 10 0 6 -2 10 -4 10 -3 0
-8 -4 -11 -10z"/>
<path d="M692 2965 c6 -13 15 -22 19 -19 5 3 10 -1 10 -8 1 -7 2 -19 3 -27 0
-8 7 -16 14 -18 13 -5 12 23 -2 46 -5 8 -3 16 5 22 10 6 8 9 -8 9 -13 0 -23 5
-23 10 0 6 -7 10 -15 10 -12 0 -13 -4 -3 -25z"/>
<path d="M595 2970 c-3 -5 -1 -10 4 -10 6 0 11 5 11 10 0 6 -2 10 -4 10 -3 0
-8 -4 -11 -10z"/>
<path d="M2436 2972 c-5 -9 -1 -18 10 -27 24 -18 24 -18 53 6 30 25 20 37 -13
15 -32 -20 -34 -20 -38 2 -3 13 -5 14 -12 4z"/>
<path d="M2605 2971 c-3 -5 -1 -12 5 -16 5 -3 10 1 10 9 0 18 -6 21 -15 7z"/>
<path d="M227 2961 c-17 -6 -17 -8 5 -26 12 -11 17 -13 11 -4 -10 12 -10 18
-1 27 13 13 11 14 -15 3z"/>
<path d="M986 2961 c-3 -5 6 -16 20 -26 25 -16 25 -16 15 4 -14 25 -28 34 -35
22z"/>
<path d="M2830 2955 c0 -8 4 -15 10 -15 5 0 7 7 4 15 -4 8 -8 15 -10 15 -2 0
-4 -7 -4 -15z"/>
<path d="M1294 2944 c-17 -14 -17 -15 -1 -10 10 3 27 6 38 6 10 0 19 5 19 10
0 15 -34 12 -56 -6z"/>
<path d="M2365 2930 c-4 -19 -14 -48 -22 -65 -12 -26 -12 -28 1 -12 10 13 15
15 19 5 10 -27 27 43 19 75 l-9 32 -8 -35z"/>
<path d="M1180 2942 c0 -17 -60 -82 -76 -82 -8 0 -20 -5 -27 -10 -52 -45 -86
-80 -107 -112 -20 -30 -27 -35 -39 -25 -12 10 -14 9 -8 -7 5 -11 0 -31 -11
-50 -10 -17 -33 -73 -52 -125 -24 -64 -41 -96 -53 -99 -15 -4 -16 -7 -5 -14
10 -8 10 -11 0 -15 -6 -2 -10 -8 -7 -13 3 -4 -13 -46 -36 -93 -22 -47 -42 -92
-43 -101 -1 -9 -11 -23 -22 -32 -16 -13 -16 -15 -1 -10 13 4 17 0 17 -22 0
-22 -2 -24 -11 -12 -8 11 -9 4 -7 -27 2 -24 -1 -45 -7 -47 -5 -3 -5 -5 2 -5
19 -1 -5 -47 -34 -66 -22 -15 -35 -43 -13 -30 14 9 13 -27 -6 -168 -9 -67 -16
-131 -15 -142 6 -108 -1 -365 -9 -365 -3 0 -6 -8 -7 -17 -2 -33 -45 -237 -63
-301 -13 -44 -17 -91 -16 -160 2 -90 0 -101 -28 -157 -17 -33 -31 -62 -32 -65
-7 -35 -19 -74 -35 -116 -11 -28 -22 -78 -25 -110 -6 -81 -10 -90 -50 -114
-40 -25 -44 -33 -10 -20 23 8 23 7 16 -23 -40 -167 -43 -190 -27 -184 7 2 15
32 18 75 5 55 14 83 38 123 24 38 33 66 37 112 6 82 37 183 86 287 39 82 40
88 39 178 -2 96 20 236 61 397 16 62 23 130 29 300 4 121 12 254 18 295 11 89
36 203 47 221 4 7 13 43 20 79 26 142 35 175 59 216 14 23 39 84 56 136 84
254 188 392 367 482 56 29 67 42 26 32 -15 -4 -32 -2 -40 5 -10 8 -14 8 -14 1z"/>
<path d="M2335 2941 c3 -6 -3 -14 -12 -20 -17 -10 -17 -10 0 -11 9 0 17 2 17
4 0 2 3 11 6 20 3 9 1 16 -6 16 -6 0 -9 -4 -5 -9z"/>
<path d="M525 2931 c-3 -5 -17 -8 -31 -5 -16 3 -23 1 -19 -6 10 -16 72 -12 79
5 6 16 -19 21 -29 6z"/>
<path d="M1658 2933 c7 -3 16 -2 19 1 4 3 -2 6 -13 5 -11 0 -14 -3 -6 -6z"/>
<path d="M1691 2914 c-16 -37 -9 -39 11 -3 9 16 14 29 9 29 -4 0 -13 -12 -20
-26z"/>
<path d="M2250 2921 c-7 -14 -7 -20 2 -23 9 -3 9 -12 -1 -35 -7 -17 -11 -40
-8 -50 4 -15 5 -15 6 3 0 12 9 28 18 35 15 12 16 12 10 -4 -4 -11 0 -31 10
-48 18 -30 37 -40 27 -14 -4 9 0 15 7 15 12 0 12 2 1 9 -8 4 -13 11 -13 15 2
16 0 18 -14 6 -13 -11 -14 -10 -9 4 3 9 10 16 15 16 5 0 9 5 9 10 0 6 -7 10
-16 10 -13 0 -15 8 -12 35 4 39 -14 48 -32 16z"/>
<path d="M1736 2913 c-6 -14 -5 -15 5 -6 7 7 10 15 7 18 -3 3 -9 -2 -12 -12z"/>
<path d="M2150 2910 c0 -11 -9 -35 -20 -55 -11 -19 -23 -53 -26 -75 -6 -34
-11 -41 -38 -48 -18 -5 -34 -5 -37 1 -4 5 -9 5 -13 -2 -4 -6 -12 -8 -18 -5 -6
4 -5 10 3 15 11 7 10 9 -3 9 -20 0 -24 -15 -7 -26 8 -5 4 -13 -11 -24 -15 -11
-20 -22 -15 -30 6 -10 10 -8 16 8 5 12 13 22 19 22 6 0 8 -4 5 -10 -8 -13 11
-13 37 1 16 9 18 13 7 20 -10 6 -8 8 7 7 17 -2 21 -8 20 -40 -1 -21 -5 -38 -9
-38 -13 0 -37 -27 -30 -34 3 -3 12 -1 20 5 22 19 15 1 -9 -21 -13 -12 -23 -31
-23 -42 0 -43 -21 -26 -33 27 -15 63 -41 115 -59 115 -7 0 -10 -7 -7 -15 4 -8
10 -15 15 -15 5 0 9 -8 9 -18 0 -10 11 -50 24 -88 12 -38 26 -91 30 -119 4
-27 18 -93 31 -145 84 -338 89 -367 92 -545 2 -153 0 -179 -22 -260 -30 -114
-69 -232 -94 -287 -11 -24 -31 -71 -45 -105 -14 -34 -43 -94 -65 -135 -21 -40
-48 -91 -60 -113 -11 -22 -21 -46 -21 -53 0 -7 -5 -10 -12 -6 -6 4 -8 3 -5 -3
3 -5 -3 -26 -13 -46 -24 -44 -12 -50 13 -7 10 16 22 30 26 30 5 0 7 12 5 27
-2 16 -1 22 2 16 10 -22 22 -14 19 13 -2 18 2 24 11 20 7 -3 16 -1 19 4 3 5
-3 11 -12 13 -15 4 -15 6 5 12 23 8 31 25 10 25 -7 0 -6 6 3 18 14 16 21 29
47 92 8 18 11 20 11 8 1 -25 17 -23 17 2 0 11 -4 20 -8 20 -15 0 5 30 21 31 9
0 11 3 4 5 -14 6 -5 36 14 47 7 5 11 12 8 17 -3 5 -1 18 5 30 5 11 15 29 20
40 6 11 10 27 10 35 0 8 5 15 10 15 6 0 10 8 10 18 0 16 22 89 41 137 4 11 10
27 13 35 3 8 5 0 3 -17 -2 -18 1 -33 6 -33 5 0 6 -8 2 -17 -15 -38 -15 -92 0
-144 13 -45 15 -48 11 -15 -5 35 -4 37 8 20 7 -10 19 -36 26 -57 12 -39 97
-117 126 -117 10 0 11 -6 5 -22 -5 -13 -7 -33 -5 -46 2 -13 -1 -32 -6 -43 -6
-10 -7 -19 -2 -19 12 0 33 -65 27 -82 -3 -8 8 -43 25 -79 17 -36 30 -80 30
-102 0 -55 38 -195 67 -244 30 -52 71 -203 67 -246 -10 -89 -9 -154 3 -150 6
3 10 10 7 18 -4 8 4 12 22 12 25 0 26 -1 11 -12 -19 -14 -13 -45 8 -45 16 0
29 48 17 63 -18 23 -40 129 -67 327 -9 58 -22 125 -31 149 -9 24 -17 74 -19
111 -1 49 -7 73 -19 85 -24 25 -29 14 -10 -24 16 -31 15 -33 -5 -47 -19 -14
-20 -17 -6 -37 8 -12 15 -31 15 -44 0 -12 7 -28 15 -36 11 -12 12 -17 2 -20
-8 -3 -7 -9 6 -18 16 -13 15 -14 -8 -14 -29 0 -45 34 -45 96 0 20 -4 39 -9 41
-8 3 -3 52 14 136 5 25 3 32 -9 32 -16 0 -23 35 -8 43 4 2 2 2 -5 1 -28 -7
-51 31 -57 92 l-7 61 26 -4 c15 -3 25 -1 25 6 0 7 -4 10 -9 7 -14 -9 -41 4
-41 19 0 7 7 15 15 19 9 3 15 0 15 -9 0 -8 5 -15 11 -15 7 0 8 6 3 18 -5 9 -9
41 -9 70 0 37 -4 52 -14 52 -7 0 -11 -6 -8 -14 4 -10 -1 -12 -16 -9 -21 5 -21
5 -3 -9 11 -9 21 -23 22 -33 2 -13 -3 -16 -23 -11 -53 14 -106 59 -129 113
-13 29 -33 58 -44 65 -22 14 -28 33 -7 25 7 -3 13 3 13 13 0 10 -4 16 -8 14
-9 -6 -11 20 -2 28 3 3 7 50 9 104 2 55 5 150 8 212 2 62 7 115 10 119 12 11
8 25 -5 17 -7 -4 -8 -3 -4 5 4 7 2 35 -4 63 -10 41 -10 52 1 58 10 7 10 11 0
24 -7 8 -10 20 -7 25 4 6 -1 19 -11 30 -17 21 -22 34 -28 86 -1 17 -8 46 -14
65 -14 44 -14 63 -1 55 6 -4 8 -11 4 -16 -3 -5 -2 -9 3 -8 19 3 27 -2 14 -10
-14 -9 -7 -31 11 -31 19 0 -3 73 -29 96 -14 12 -23 28 -21 35 3 8 -2 20 -11
26 -13 11 -14 14 -2 22 11 7 9 11 -9 21 -12 7 -18 15 -13 19 5 3 13 14 16 25
6 14 4 17 -9 12 -13 -5 -15 -1 -11 20 3 16 0 27 -9 31 -22 8 -16 33 15 62 32
30 51 84 51 148 0 42 38 153 53 153 4 0 7 -4 7 -10 0 -5 5 -10 10 -10 19 0 10
22 -11 27 -18 5 -19 8 -8 17 8 6 15 18 15 26 1 8 5 27 9 43 5 17 3 27 -4 27
-6 0 -11 -9 -11 -20z m-120 -206 c0 -8 -4 -12 -10 -9 -5 3 -10 10 -10 16 0 5
5 9 10 9 6 0 10 -7 10 -16z m17 -138 c-3 -8 -1 -17 6 -20 9 -3 9 -5 0 -5 -15
-1 -26 16 -18 29 9 15 18 12 12 -4z m313 -1761 c12 -25 19 -51 17 -57 -3 -8
-6 -6 -6 5 -1 10 -5 16 -10 13 -10 -6 -31 37 -31 64 0 30 6 25 30 -25z m87
-172 c-3 -3 -11 -2 -17 2 -9 6 -9 10 1 16 14 8 27 -7 16 -18z m33 -202 c0 -10
-11 -4 -30 14 -22 21 -27 31 -18 37 14 8 47 -27 48 -51z m53 -350 c-9 -12 -25
20 -18 36 7 16 9 15 15 -7 4 -14 5 -27 3 -29z"/>
<path d="M2490 2920 c0 -5 5 -10 10 -10 6 0 10 5 10 10 0 6 -4 10 -10 10 -5 0
-10 -4 -10 -10z"/>
<path d="M173 2905 c-3 -9 -3 -18 -1 -21 3 -3 8 4 11 16 6 23 -1 27 -10 5z"/>
<path d="M765 2910 c-3 -6 1 -7 9 -4 18 7 21 14 7 14 -6 0 -13 -4 -16 -10z"/>
<path d="M1610 2916 c0 -2 7 -6 15 -10 8 -3 15 -1 15 4 0 6 -7 10 -15 10 -8 0
-15 -2 -15 -4z"/>
<path d="M1651 2904 c0 -11 3 -14 6 -6 3 7 2 16 -1 19 -3 4 -6 -2 -5 -13z"/>
<path d="M2002 2900 c0 -14 2 -19 5 -12 2 6 2 18 0 25 -3 6 -5 1 -5 -13z"/>
<path d="M240 2889 c0 -11 4 -18 10 -14 5 3 7 12 3 20 -7 21 -13 19 -13 -6z"/>
<path d="M925 2900 c-3 -5 1 -10 10 -10 9 0 13 5 10 10 -3 6 -8 10 -10 10 -2
0 -7 -4 -10 -10z"/>
<path d="M1398 2903 c7 -3 16 -2 19 1 4 3 -2 6 -13 5 -11 0 -14 -3 -6 -6z"/>
<path d="M1430 2898 c0 -4 4 -8 9 -8 6 0 12 4 15 8 3 5 -1 9 -9 9 -8 0 -15 -4
-15 -9z"/>
<path d="M1510 2895 c-11 -13 -10 -14 4 -9 9 3 16 10 16 15 0 13 -6 11 -20 -6z"/>
<path d="M1573 2903 c-7 -3 -13 -11 -13 -20 0 -12 2 -12 16 2 18 17 16 25 -3
18z"/>
<path d="M216 2840 c1 -36 -4 -58 -17 -74 -21 -26 -25 -46 -9 -46 9 0 11 6 10
25 -1 3 6 13 15 22 9 8 14 22 11 29 -3 8 0 13 6 11 6 -1 13 4 15 11 3 6 0 12
-6 12 -6 0 -11 14 -11 30 0 17 -4 30 -8 30 -4 0 -7 -23 -6 -50z"/>
<path d="M716 2873 c-4 -9 -4 -18 -1 -21 3 -3 5 0 5 6 0 7 4 12 9 12 10 0 26
-99 23 -135 -2 -18 -1 -18 8 2 6 14 5 43 -2 82 -11 60 -31 84 -42 54z"/>
<path d="M1713 2870 c-11 -16 -10 -18 2 -14 8 4 15 12 15 20 0 19 -3 18 -17
-6z"/>
<path d="M1741 2883 c-1 -17 16 -25 25 -12 4 7 3 9 -4 5 -5 -3 -13 0 -15 6 -4
9 -6 10 -6 1z"/>
<path d="M2438 2854 c4 -28 7 -32 18 -23 19 16 17 36 -4 48 -16 8 -17 6 -14
-25z"/>
<path d="M2627 2883 c-4 -3 -17 -7 -30 -8 -12 -1 -23 -8 -25 -16 -2 -12 5 -14
33 -11 26 3 35 9 35 23 0 20 -3 23 -13 12z"/>
<path d="M40 2874 c0 -3 5 -14 10 -24 8 -14 6 -21 -4 -27 -13 -7 -13 -13 1
-42 15 -29 18 -31 24 -15 5 12 8 14 8 5 1 -8 4 -11 7 -8 4 4 1 13 -6 22 -9 11
-10 18 -1 29 9 11 9 15 -1 19 -10 4 -10 6 -1 6 9 1 7 7 -4 21 -17 19 -33 26
-33 14z"/>
<path d="M2513 2836 c4 -26 12 -57 19 -69 7 -12 11 -25 10 -29 -1 -5 7 -8 19
-8 20 0 20 1 -5 31 -14 17 -23 36 -19 42 4 6 7 25 7 41 0 22 -6 32 -19 35 -16
3 -17 -2 -12 -43z"/>
<path d="M300 2859 c0 -5 5 -7 10 -4 6 3 10 8 10 11 0 2 -4 4 -10 4 -5 0 -10
-5 -10 -11z"/>
<path d="M1597 2863 c-4 -3 -7 -11 -7 -17 0 -6 5 -5 12 2 6 6 9 14 7 17 -3 3
-9 2 -12 -2z"/>
<path d="M1780 2864 c0 -3 6 -12 14 -19 12 -12 15 -12 20 1 3 9 6 17 6 18 0 1
-9 2 -20 3 -11 1 -20 -1 -20 -3z"/>
<path d="M1627 2853 c-4 -3 -7 -11 -7 -17 0 -6 5 -5 12 2 6 6 9 14 7 17 -3 3
-9 2 -12 -2z"/>
<path d="M2390 2822 c0 -32 -4 -42 -20 -47 -11 -3 -20 -14 -20 -23 0 -12 3
-13 12 -4 7 7 20 12 30 12 15 0 18 7 14 45 -4 59 -16 71 -16 17z"/>
<path d="M1217 2831 c-4 -17 -3 -21 5 -13 5 5 8 16 6 23 -3 8 -7 3 -11 -10z"/>
<path d="M1364 2839 c-3 -6 2 -18 12 -27 17 -16 17 -16 5 0 -7 9 -10 22 -6 28
3 5 4 10 1 10 -3 0 -8 -5 -12 -11z"/>
<path d="M2743 2835 c-10 -10 -9 -16 2 -25 13 -10 15 -8 15 14 0 30 -1 30 -17
11z"/>
<path d="M1688 2822 c9 -10 19 -17 21 -16 6 5 -20 34 -30 34 -5 0 -1 -8 9 -18z"/>
<path d="M2360 2829 c0 -5 5 -7 10 -4 6 3 10 8 10 11 0 2 -4 4 -10 4 -5 0 -10
-5 -10 -11z"/>
<path d="M977 2809 c4 -13 8 -18 11 -10 2 7 -1 18 -6 23 -8 8 -9 4 -5 -13z"/>
<path d="M2851 2806 c-8 -10 -10 -28 -5 -53 5 -21 7 -41 7 -44 -1 -3 5 -6 13
-6 10 0 14 14 14 59 0 58 -8 70 -29 44z"/>
<path d="M1289 2783 c-13 -16 -12 -17 4 -4 9 7 17 15 17 17 0 8 -8 3 -21 -13z"/>
<path d="M2026 2785 c-10 -7 -15 -18 -11 -24 11 -18 22 -12 27 14 3 14 5 25 4
25 0 0 -9 -7 -20 -15z"/>
<path d="M2685 2775 c3 -16 8 -47 12 -67 3 -21 9 -38 13 -38 13 0 22 53 11 59
-6 4 -17 22 -26 41 -16 34 -16 34 -10 5z"/>
<path d="M1405 2780 c4 -6 11 -8 16 -5 14 9 11 15 -7 15 -8 0 -12 -5 -9 -10z"/>
<path d="M1610 2774 c-34 -19 -10 -18 26 1 16 8 22 14 14 14 -8 -1 -26 -7 -40
-15z"/>
<path d="M1793 2771 c-10 -15 -9 -22 1 -30 10 -8 13 -4 13 19 0 17 -1 30 -1
30 -1 0 -7 -9 -13 -19z"/>
<path d="M2248 2764 c-3 -24 -1 -31 9 -27 15 6 15 9 4 38 -7 17 -9 16 -13 -11z"/>
<path d="M690 2770 c0 -5 5 -10 11 -10 5 0 7 5 4 10 -3 6 -8 10 -11 10 -2 0
-4 -4 -4 -10z"/>
<path d="M1560 2765 c-7 -9 -10 -18 -7 -21 3 -3 10 4 17 15 13 25 8 27 -10 6z"/>
<path d="M1852 2764 c-7 -8 -8 -14 -3 -14 10 0 25 19 20 25 -2 1 -10 -3 -17
-11z"/>
<path d="M2137 2772 c-3 -4 4 -18 15 -32 16 -20 21 -21 29 -9 12 19 11 29 -1
29 -5 0 -10 -5 -10 -11 0 -5 -4 -8 -10 -4 -5 3 -7 12 -3 20 5 15 -12 21 -20 7z"/>
<path d="M1696 2761 c-4 -5 3 -7 14 -4 23 6 26 13 6 13 -8 0 -17 -4 -20 -9z"/>
<path d="M1745 2751 c-3 -5 -2 -12 3 -15 5 -3 9 1 9 9 0 17 -3 19 -12 6z"/>
<path d="M1910 2741 c14 -27 13 -34 -4 -28 -10 4 -13 1 -10 -7 3 -8 14 -12 25
-9 12 3 18 11 15 19 -3 8 -1 14 4 14 6 0 10 -5 10 -12 0 -6 3 -8 7 -5 9 9 -27
47 -44 47 -10 0 -11 -5 -3 -19z"/>
<path d="M2301 2738 c-5 -15 -4 -26 3 -30 8 -6 7 -11 -4 -18 -13 -8 -12 -10 3
-10 12 0 17 -8 17 -27 0 -46 9 -19 15 45 5 52 3 62 -10 62 -9 0 -19 -10 -24
-22z"/>
<path d="M1270 2746 c0 -2 7 -7 16 -10 8 -3 12 -2 9 4 -6 10 -25 14 -25 6z"/>
<path d="M1650 2742 c0 -5 7 -9 15 -9 8 0 12 4 9 9 -3 4 -9 8 -15 8 -5 0 -9
-4 -9 -8z"/>
<path d="M2494 2725 c0 -14 4 -25 9 -25 10 0 9 38 -2 44 -5 3 -8 -5 -7 -19z"/>
<path d="M30 2726 c0 -8 5 -18 10 -21 6 -3 10 -17 10 -30 0 -17 4 -23 14 -19
12 5 12 9 0 32 -8 15 -14 33 -14 40 0 6 -4 12 -10 12 -5 0 -10 -6 -10 -14z"/>
<path d="M152 2720 c0 -14 2 -19 5 -12 2 6 2 18 0 25 -3 6 -5 1 -5 -13z"/>
<path d="M1600 2726 c4 -4 16 -4 26 2 16 9 14 10 -8 9 -15 -1 -23 -6 -18 -11z"/>
<path d="M1720 2720 c20 -13 33 -13 25 0 -3 6 -14 10 -23 10 -15 0 -15 -2 -2
-10z"/>
<path d="M1761 2708 c-14 -23 -14 -23 8 -4 22 20 25 26 13 26 -4 0 -13 -10
-21 -22z"/>
<path d="M1806 2706 c-19 -30 -20 -39 -3 -33 6 2 12 8 12 13 0 5 4 15 9 22 4
7 6 15 3 18 -2 3 -12 -7 -21 -20z"/>
<path d="M2427 2709 c-4 -14 -10 -18 -19 -13 -10 6 -10 5 0 -9 15 -18 8 -37
-14 -37 -8 0 -19 -12 -24 -26 -13 -32 -13 -44 0 -44 6 0 10 12 10 26 0 21 3
24 21 19 14 -5 19 -3 15 3 -4 6 0 14 7 19 8 4 16 23 19 41 5 37 -7 53 -15 21z"/>
<path d="M1676 2703 c-6 -14 -5 -15 5 -6 7 7 10 15 7 18 -3 3 -9 -2 -12 -12z"/>
<path d="M2537 2713 c-11 -10 -8 -43 3 -43 6 0 10 11 10 25 0 26 -2 29 -13 18z"/>
<path d="M2630 2708 c0 -9 -3 -23 -6 -31 -3 -10 1 -14 16 -13 23 1 24 12 4 41
-12 16 -14 17 -14 3z"/>
<path d="M2135 2700 c-3 -5 -2 -10 4 -10 5 0 13 5 16 10 3 6 2 10 -4 10 -5 0
-13 -4 -16 -10z"/>
<path d="M1837 2680 c8 -30 21 -34 15 -5 -2 14 -8 25 -12 25 -5 0 -6 -9 -3
-20z"/>
<path d="M2173 2685 c-7 -20 0 -27 20 -19 9 3 13 12 10 20 -7 19 -22 18 -30
-1z"/>
<path d="M755 2680 c3 -5 8 -10 11 -10 2 0 4 5 4 10 0 6 -5 10 -11 10 -5 0 -7
-4 -4 -10z"/>
<path d="M1690 2680 c0 -5 7 -7 15 -4 8 4 15 8 15 10 0 2 -7 4 -15 4 -8 0 -15
-4 -15 -10z"/>
<path d="M1265 2670 c-3 -5 1 -10 9 -10 8 0 18 5 21 10 3 6 -1 10 -9 10 -8 0
-18 -4 -21 -10z"/>
<path d="M1591 2664 c0 -11 3 -14 6 -6 3 7 2 16 -1 19 -3 4 -6 -2 -5 -13z"/>
<path d="M1633 2665 c-15 -17 -17 -29 -4 -20 5 3 12 1 16 -5 3 -5 14 -10 23
-9 12 0 11 3 -5 9 -15 6 -21 15 -17 25 8 19 3 19 -13 0z"/>
<path d="M1740 2665 c-7 -8 -8 -15 -2 -15 5 0 15 7 22 15 7 8 8 15 2 15 -5 0
-15 -7 -22 -15z"/>
<path d="M2580 2670 c0 -5 7 -10 16 -10 8 0 12 5 9 10 -3 6 -10 10 -16 10 -5
0 -9 -4 -9 -10z"/>
<path d="M2760 2669 c0 -5 5 -7 10 -4 6 3 10 8 10 11 0 2 -4 4 -10 4 -5 0 -10
-5 -10 -11z"/>
<path d="M2225 2660 c-3 -5 1 -10 10 -10 9 0 13 5 10 10 -3 6 -8 10 -10 10 -2
0 -7 -4 -10 -10z"/>
<path d="M1767 2653 c-4 -3 -7 -11 -7 -17 0 -6 5 -5 12 2 6 6 9 14 7 17 -3 3
-9 2 -12 -2z"/>
<path d="M1796 2636 c-3 -11 0 -25 6 -31 7 -7 9 -5 6 5 -3 8 1 22 8 31 12 13
12 16 0 16 -8 0 -17 -10 -20 -21z"/>
<path d="M2008 2651 c10 -6 10 -10 -3 -21 -16 -14 -20 -30 -7 -30 8 0 32 43
32 55 0 3 -8 5 -17 5 -14 0 -15 -2 -5 -9z"/>
<path d="M2116 2644 c-10 -26 -7 -29 9 -8 9 12 14 14 15 6 0 -7 5 -10 11 -6 8
4 7 9 -2 15 -20 12 -26 11 -33 -7z"/>
<path d="M2300 2658 c-2 -5 -3 -14 -4 -20 -1 -7 -9 -12 -19 -12 -9 1 -14 -2
-11 -7 3 -5 2 -9 -3 -9 -10 0 -15 -67 -5 -73 4 -3 8 9 9 26 1 16 12 40 24 53
12 12 19 29 16 36 -3 7 -6 10 -7 6z"/>
<path d="M2495 2640 c-10 -11 -15 -23 -12 -27 8 -7 47 25 47 39 0 14 -16 9
-35 -12z"/>
<path d="M1180 2640 c-13 -9 -13 -10 0 -10 8 0 22 5 30 10 13 9 13 10 0 10 -8
0 -22 -5 -30 -10z"/>
<path d="M1515 2639 c-4 -6 -4 -13 -1 -16 3 -4 6 -1 6 6 0 7 4 10 9 6 5 -3 12
-1 16 5 3 5 -1 10 -9 10 -8 0 -18 -5 -21 -11z"/>
<path d="M1696 2634 c-8 -22 -8 -26 3 -20 5 4 11 1 13 -6 3 -7 7 -8 10 -2 4 5
0 17 -7 27 -11 16 -13 16 -19 1z"/>
<path d="M40 2630 c0 -5 5 -10 10 -10 6 0 10 5 10 10 0 6 -4 10 -10 10 -5 0
-10 -4 -10 -10z"/>
<path d="M765 2624 c-6 -8 -19 -16 -29 -18 -27 -4 -31 -22 -8 -29 27 -6 39 3
47 36 8 30 5 34 -10 11z"/>
<path d="M1354 2626 c-3 -8 -13 -12 -22 -9 -13 4 -14 3 -3 -5 7 -5 10 -15 7
-21 -4 -6 -4 -11 1 -11 4 0 16 14 25 30 9 17 13 30 7 30 -5 0 -12 -6 -15 -14z"/>
<path d="M1855 2614 c13 -14 24 -29 23 -33 -2 -21 3 -41 13 -41 5 0 7 5 4 11
-4 5 -8 21 -9 34 -3 25 -28 55 -45 55 -5 0 1 -12 14 -26z"/>
<path d="M2231 2624 c0 -11 3 -14 6 -6 3 7 2 16 -1 19 -3 4 -6 -2 -5 -13z"/>
<path d="M2560 2630 c0 -5 5 -10 11 -10 5 0 7 5 4 10 -3 6 -8 10 -11 10 -2 0
-4 -4 -4 -10z"/>
<path d="M1123 2615 c-7 -7 -18 -15 -25 -18 -7 -2 -11 -7 -8 -9 3 -3 18 3 33
12 16 10 25 20 20 23 -4 3 -13 -1 -20 -8z"/>
<path d="M1545 2620 c-3 -5 1 -10 10 -10 9 0 13 5 10 10 -3 6 -8 10 -10 10 -2
0 -7 -4 -10 -10z"/>
<path d="M46 2595 c4 -8 8 -15 10 -15 2 0 4 7 4 15 0 8 -4 15 -10 15 -5 0 -7
-7 -4 -15z"/>
<path d="M1170 2600 c-8 -5 -10 -10 -5 -10 6 0 17 5 25 10 8 5 11 10 5 10 -5
0 -17 -5 -25 -10z"/>
<path d="M1260 2595 c0 -8 4 -15 10 -15 5 0 7 7 4 15 -4 8 -8 15 -10 15 -2 0
-4 -7 -4 -15z"/>
<path d="M1305 2600 c3 -5 1 -10 -6 -10 -8 0 -8 -4 1 -15 7 -8 10 -21 7 -30
-4 -8 -2 -17 2 -20 14 -8 21 35 11 61 -5 13 -12 24 -15 24 -4 0 -3 -4 0 -10z"/>
<path d="M1767 2604 c-4 -4 -7 -14 -7 -23 0 -11 3 -12 11 -4 6 6 10 16 7 23
-2 6 -7 8 -11 4z"/>
<path d="M1583 2586 c-7 -8 -8 -18 -2 -27 5 -8 9 -12 10 -9 0 3 2 15 5 28 4
25 3 26 -13 8z"/>
<path d="M2113 2593 c-7 -3 -13 -9 -13 -14 0 -6 4 -7 10 -4 5 3 18 1 29 -4 16
-9 18 -8 14 8 -4 17 -16 22 -40 14z"/>
<path d="M2533 2594 c8 -9 -13 -66 -34 -89 -17 -19 -17 -20 7 -20 18 0 24 5
24 22 0 12 5 25 10 28 14 9 13 65 -2 65 -6 0 -9 -3 -5 -6z"/>
<path d="M2986 2585 c4 -8 8 -15 10 -15 2 0 4 7 4 15 0 8 -4 15 -10 15 -5 0
-7 -7 -4 -15z"/>
<path d="M1040 2565 c-27 -29 -16 -33 19 -6 13 10 19 21 14 24 -6 4 -21 -5
-33 -18z"/>
<path d="M1667 2583 c-11 -11 -8 -21 9 -27 14 -5 15 -4 5 8 -9 11 -9 15 1 19
7 3 8 6 2 6 -6 1 -14 -2 -17 -6z"/>
<path d="M1907 2583 c7 -5 11 -19 8 -31 -2 -12 0 -22 5 -22 15 0 6 53 -10 57
-11 3 -12 2 -3 -4z"/>
<path d="M2196 2574 c-8 -22 -7 -34 3 -34 5 0 11 11 13 25 6 28 -6 34 -16 9z"/>
<path d="M2290 2578 c6 -7 6 -16 -1 -25 -8 -9 -8 -13 -1 -13 20 0 25 22 8 36
-9 8 -12 9 -6 2z"/>
<path d="M1105 2570 c-3 -5 -1 -10 4 -10 6 0 11 5 11 10 0 6 -2 10 -4 10 -3 0
-8 -4 -11 -10z"/>
<path d="M1539 2563 c-13 -16 -12 -17 4 -4 9 7 17 15 17 17 0 8 -8 3 -21 -13z"/>
<path d="M1787 2566 c-11 -27 43 -51 58 -26 4 7 -2 9 -18 4 -22 -5 -25 -3 -20
15 6 23 -12 29 -20 7z"/>
<path d="M1845 2570 c3 -5 8 -10 11 -10 2 0 4 5 4 10 0 6 -5 10 -11 10 -5 0
-7 -4 -4 -10z"/>
<path d="M2336 2571 c-5 -7 -5 -15 -2 -18 3 -4 6 0 6 8 1 8 7 1 15 -16 7 -16
14 -23 14 -14 1 24 -24 55 -33 40z"/>
<path d="M2644 2568 c-4 -7 -7 -31 -5 -55 1 -26 -2 -43 -8 -43 -6 0 -11 -7
-11 -16 0 -11 9 -7 30 15 27 26 29 34 20 52 -6 11 -9 27 -6 34 7 18 -10 29
-20 13z"/>
<path d="M2420 2550 c0 -11 2 -20 4 -20 2 0 6 9 9 20 3 11 1 20 -4 20 -5 0 -9
-9 -9 -20z"/>
<path d="M2460 2561 c0 -6 4 -13 10 -16 6 -3 7 1 4 9 -7 18 -14 21 -14 7z"/>
<path d="M1185 2549 c-4 -6 -4 -13 -1 -16 3 -4 6 -1 6 6 0 7 5 9 10 6 6 -3 10
-1 10 4 0 14 -17 14 -25 0z"/>
<path d="M1615 2550 c3 -5 8 -10 11 -10 2 0 4 5 4 10 0 6 -5 10 -11 10 -5 0
-7 -4 -4 -10z"/>
<path d="M1710 2544 c0 -9 5 -14 12 -12 18 6 21 28 4 28 -9 0 -16 -7 -16 -16z"/>
<path d="M982 2521 c-13 -12 -22 -24 -20 -26 6 -6 50 35 46 42 -1 5 -13 -3
-26 -16z"/>
<path d="M1044 2525 c-16 -14 -33 -25 -38 -25 -5 0 -7 -3 -3 -6 8 -8 77 34 77
47 0 13 -4 12 -36 -16z"/>
<path d="M1141 2541 c-10 -7 -11 -16 -4 -37 l10 -29 4 38 c3 20 5 37 4 37 0 0
-6 -4 -14 -9z"/>
<path d="M2742 2530 c0 -14 2 -19 5 -12 2 6 2 18 0 25 -3 6 -5 1 -5 -13z"/>
<path d="M2881 2534 c0 -11 3 -14 6 -6 3 7 2 16 -1 19 -3 4 -6 -2 -5 -13z"/>
<path d="M1280 2525 c0 -8 4 -15 10 -15 5 0 7 7 4 15 -4 8 -8 15 -10 15 -2 0
-4 -7 -4 -15z"/>
<path d="M1558 2533 c7 -3 16 -2 19 1 4 3 -2 6 -13 5 -11 0 -14 -3 -6 -6z"/>
<path d="M1640 2530 c-8 -6 -11 -10 -6 -10 5 0 3 -7 -4 -15 -11 -13 -10 -14 3
-9 14 5 31 33 24 40 -1 2 -9 -1 -17 -6z"/>
<path d="M2100 2531 c0 -7 -4 -9 -10 -6 -5 3 -10 -3 -10 -15 0 -13 -4 -19 -12
-14 -7 4 -8 3 -4 -4 4 -7 10 -12 14 -12 9 0 33 52 27 58 -3 3 -5 0 -5 -7z"/>
<path d="M1176 2512 c-3 -5 1 -9 9 -9 8 0 15 4 15 9 0 4 -4 8 -9 8 -6 0 -12
-4 -15 -8z"/>
<path d="M1405 2513 c-11 -3 -27 -10 -35 -17 -28 -22 -65 -34 -140 -46 -41 -6
-79 -15 -85 -21 -5 -5 -19 -9 -32 -9 -13 0 -29 -10 -38 -23 -16 -26 -96 -80
-132 -91 -13 -4 -23 -11 -23 -16 0 -4 -11 -11 -25 -14 -14 -4 -25 -13 -25 -22
0 -24 -51 -86 -67 -80 -7 3 -13 1 -13 -4 0 -6 4 -10 10 -10 5 0 7 -7 4 -15 -4
-8 -1 -15 5 -15 6 0 12 5 12 10 1 6 2 15 3 22 0 6 6 13 13 15 8 3 4 -19 -11
-64 -12 -37 -21 -84 -20 -103 3 -48 5 -50 14 -15 4 17 9 37 11 45 2 8 11 20
19 27 13 11 13 12 0 13 -8 0 -3 7 13 16 15 8 27 17 27 20 0 3 -3 3 -8 0 -4 -2
-13 7 -20 22 -9 19 -9 23 0 14 12 -12 38 1 38 20 0 6 -6 6 -14 -1 -8 -7 -16
-8 -19 -4 -7 12 36 86 53 91 13 5 13 3 1 -11 -7 -10 -9 -17 -5 -17 5 0 15 9
22 21 11 17 11 20 0 14 -7 -5 -4 1 7 12 11 11 22 19 24 17 2 -2 17 6 32 17 34
24 34 23 14 -24 -18 -43 -18 -47 -5 -47 6 0 10 10 10 23 0 24 38 93 47 84 3
-3 -2 -16 -11 -29 -21 -29 -21 -48 0 -22 15 18 15 18 8 -5 -4 -14 -2 -21 4
-17 5 3 12 15 15 26 3 11 1 18 -4 14 -14 -8 -11 4 14 47 14 25 27 37 36 34 8
-3 18 0 22 6 4 7 24 13 46 13 21 1 49 9 63 19 24 17 25 16 42 -5 14 -19 19
-21 30 -10 10 10 10 14 -1 21 -17 11 -7 16 44 26 22 4 43 12 46 17 4 6 11 2
18 -10 11 -21 -2 -44 -31 -55 -7 -2 -10 -8 -6 -12 7 -7 78 58 78 73 0 12 40
10 41 -3 2 -15 -1 -46 -6 -75 -5 -24 -5 -24 10 -6 8 11 13 28 9 38 -8 27 4 40
27 28 17 -10 18 -13 4 -26 -16 -17 -21 -54 -6 -54 12 0 28 21 34 45 4 18 5 17
6 -3 0 -13 5 -20 11 -17 6 4 7 12 3 18 -5 8 -2 8 9 0 8 -7 18 -11 22 -8 3 3 2
-1 -4 -7 -16 -19 -12 -32 5 -18 10 9 15 9 15 1 0 -6 8 -11 18 -11 23 0 64 -29
57 -41 -10 -15 -25 -10 -19 6 5 11 -1 15 -18 15 -19 0 -33 -12 -57 -51 -38
-61 -38 -65 -5 -34 15 14 31 25 35 25 5 0 9 11 9 25 0 14 5 25 10 25 13 0 13
-26 -1 -53 -11 -20 -10 -20 16 3 19 17 29 21 32 12 3 -6 9 -10 14 -6 5 3 9 1
9 -5 0 -5 8 -12 18 -15 11 -4 26 -28 36 -59 11 -28 23 -56 29 -62 7 -7 7 -5 2
4 -5 9 -4 12 3 7 7 -4 12 -19 12 -34 0 -18 3 -23 8 -14 6 9 12 5 20 -13 7 -14
12 -34 12 -43 0 -15 2 -15 10 -2 6 9 10 10 10 3 0 -6 -4 -15 -10 -18 -5 -3
-10 -14 -10 -23 0 -15 2 -15 10 -2 9 13 11 13 20 0 6 -8 8 -24 6 -34 -3 -11 1
-44 9 -74 11 -41 12 -71 6 -121 -13 -90 -12 -193 0 -166 6 14 8 -2 5 -50 -5
-74 -13 -108 -26 -100 -4 2 -5 -7 -2 -22 3 -15 1 -24 -5 -20 -5 3 -19 -33 -32
-81 -31 -121 -112 -293 -189 -404 -101 -144 -156 -208 -199 -229 -24 -12 -43
-25 -43 -30 0 -11 14 -12 24 -2 4 5 11 8 14 8 26 2 52 22 82 62 41 55 110 129
110 119 0 -4 -11 -22 -25 -40 -14 -18 -23 -35 -20 -38 3 -3 -1 -11 -10 -18 -8
-7 -15 -17 -15 -22 0 -5 -15 -25 -32 -43 -18 -18 -39 -41 -46 -49 -7 -9 -24
-16 -37 -16 -18 0 -25 -5 -25 -19 0 -10 -7 -24 -15 -31 -8 -7 -15 -10 -15 -6
0 3 -16 -3 -35 -14 -20 -11 -43 -20 -53 -20 -10 0 -28 -7 -40 -16 -13 -9 -31
-13 -42 -9 -14 5 -20 2 -20 -9 0 -9 -6 -16 -14 -16 -8 0 -17 -4 -21 -9 -6 -11
41 1 72 18 11 5 34 13 50 15 32 6 116 49 146 74 14 12 15 17 5 24 -9 6 -6 7 8
3 18 -4 32 7 76 57 83 96 165 229 153 248 -3 6 -1 10 5 10 6 0 18 17 27 38 8
20 46 102 83 182 112 241 116 252 128 330 15 95 9 328 -12 441 -19 110 -43
172 -95 250 -22 34 -41 63 -41 64 0 10 -142 142 -175 163 -22 13 -60 38 -84
54 -45 30 -120 44 -166 31z m65 -32 c0 -17 -18 -21 -24 -6 -3 9 0 15 9 15 8 0
15 -4 15 -9z m380 -282 c0 -6 -4 -7 -10 -4 -5 3 -10 11 -10 16 0 6 5 7 10 4 6
-3 10 -11 10 -16z"/>
<path d="M1854 2483 c41 -42 43 -48 20 -61 -14 -8 -14 -10 -1 -15 24 -9 33 42
10 59 -12 9 -14 13 -5 14 20 0 -16 33 -41 37 -16 3 -12 -4 17 -34z"/>
<path d="M1920 2510 c0 -5 5 -10 10 -10 6 0 10 5 10 10 0 6 -4 10 -10 10 -5 0
-10 -4 -10 -10z"/>
<path d="M2273 2506 c3 -24 27 -34 27 -11 0 9 -4 14 -9 11 -5 -4 -12 0 -15 6
-3 7 -5 4 -3 -6z"/>
<path d="M1740 2489 c0 -11 5 -17 10 -14 6 3 10 13 10 21 0 8 -4 14 -10 14 -5
0 -10 -9 -10 -21z"/>
<path d="M1786 2502 c-3 -6 1 -12 9 -16 19 -7 19 -17 -1 -42 -15 -18 -15 -18
-10 11 l6 30 -14 -25 c-13 -23 -7 -39 14 -40 7 0 43 61 38 64 -1 1 -10 7 -20
14 -9 8 -19 9 -22 4z"/>
<path d="M2392 2490 c-12 -12 -22 -24 -22 -27 0 -3 8 1 18 10 17 16 20 15 47
-13 16 -17 35 -28 43 -25 10 4 12 -2 7 -25 -11 -51 26 -28 39 24 7 29 7 29
-33 22 -36 -5 -41 -3 -58 24 l-19 30 -22 -20z"/>
<path d="M2155 2490 c3 -5 13 -10 20 -10 9 0 12 -6 9 -15 -4 -8 -2 -15 4 -15
15 0 8 30 -9 41 -19 12 -32 11 -24 -1z"/>
<path d="M2237 2493 c-10 -10 -8 -33 2 -33 6 0 9 9 8 20 -1 23 -1 22 -10 13z"/>
<path d="M2870 2469 c0 -24 5 -39 16 -43 8 -3 12 -11 8 -17 -5 -8 -3 -9 5 -5
9 6 8 12 -4 26 -9 10 -14 23 -10 29 3 6 1 19 -4 28 -9 15 -10 11 -11 -18z"/>
<path d="M1905 2480 c-3 -5 -2 -10 4 -10 5 0 13 5 16 10 3 6 2 10 -4 10 -5 0
-13 -4 -16 -10z"/>
<path d="M2112 2483 c-6 -3 -9 -10 -5 -16 4 -7 0 -8 -13 -3 -16 6 -15 4 4 -17
14 -14 19 -28 14 -31 -6 -3 -12 -2 -14 4 -2 6 -8 6 -18 0 -13 -8 -13 -10 2
-10 11 0 15 -6 11 -22 -4 -21 -4 -21 9 2 8 14 22 25 33 25 10 0 20 7 22 15 4
13 3 13 -7 0 -9 -12 -10 -8 -6 20 6 33 5 34 -5 7 -6 -15 -15 -25 -20 -21 -5 3
-5 14 2 25 12 23 10 28 -9 22z"/>
<path d="M1120 2472 c0 -12 19 -26 26 -19 2 2 -2 10 -11 17 -9 8 -15 8 -15 2z"/>
<path d="M1695 2470 c-3 -5 -1 -10 4 -10 6 0 11 5 11 10 0 6 -2 10 -4 10 -3 0
-8 -4 -11 -10z"/>
<path d="M203 2455 c0 -7 6 -11 14 -8 7 3 13 6 13 8 0 2 -6 5 -13 8 -8 3 -14
-1 -14 -8z"/>
<path d="M1724 2451 c4 -5 0 -12 -6 -14 -8 -4 -9 -6 -2 -6 6 -1 17 6 24 14 10
12 9 15 -4 15 -10 0 -15 -4 -12 -9z"/>
<path d="M1951 2444 c0 -11 3 -14 6 -6 3 7 2 16 -1 19 -3 4 -6 -2 -5 -13z"/>
<path d="M2056 2443 c-6 -14 -5 -15 5 -6 7 7 10 15 7 18 -3 3 -9 -2 -12 -12z"/>
<path d="M1474 2435 c-4 -9 -4 -19 0 -22 3 -4 6 0 6 8 0 11 2 11 10 -1 8 -13
10 -13 10 2 0 23 -19 33 -26 13z"/>
<path d="M1917 2436 c-4 -9 0 -22 8 -30 8 -8 15 -17 15 -21 0 -4 13 -25 29
-48 16 -23 28 -44 28 -47 -1 -10 25 -52 29 -47 3 2 -1 17 -7 33 -7 16 -11 33
-10 37 1 5 -3 6 -9 2 -9 -5 -15 15 -11 38 1 5 -3 6 -9 2 -5 -3 -10 -2 -10 4 0
5 6 12 13 15 6 3 1 3 -11 0 -21 -5 -23 -3 -17 15 4 14 2 21 -5 19 -7 -2 -14 5
-15 15 -5 26 -11 31 -18 13z"/>
<path d="M2175 2430 c-3 -5 -3 -10 2 -10 4 0 1 -5 -7 -11 -12 -9 -12 -10 4 -5
15 5 17 2 12 -16 -3 -13 -6 -31 -6 -41 0 -10 -4 -16 -9 -13 -4 3 -7 18 -5 33
4 25 -1 20 -12 -15 -2 -7 -9 -10 -14 -7 -7 5 -8 11 -1 19 7 8 6 17 -1 26 -8
12 -9 12 -4 -2 4 -12 0 -18 -11 -18 -12 0 -13 -3 -5 -13 9 -10 7 -19 -4 -35
-14 -20 -14 -23 1 -28 14 -6 14 -8 -2 -26 -17 -20 -17 -20 1 -17 12 3 21 14
23 32 3 18 0 26 -7 22 -12 -7 -13 5 -1 23 6 11 11 10 25 -3 20 -21 20 -23 -4
-63 -15 -24 -18 -38 -10 -51 5 -10 6 -21 3 -25 -3 -3 -1 -6 6 -6 7 0 9 -4 6
-10 -3 -5 -2 -10 4 -10 16 0 19 24 4 41 -11 14 -12 21 -1 45 7 16 16 32 21 35
13 9 11 21 -5 30 -10 7 -10 9 0 9 6 0 12 11 12 24 0 14 4 36 10 50 8 21 6 26
-6 26 -8 0 -12 5 -9 10 3 6 4 10 1 10 -3 0 -8 -4 -11 -10z"/>
<path d="M1341 2416 c-9 -10 -10 -16 -3 -16 6 0 9 -7 6 -15 -4 -8 -1 -15 6
-15 16 0 40 25 40 42 0 10 -2 10 -9 -1 -7 -11 -10 -10 -18 3 -9 16 -11 16 -22
2z"/>
<path d="M1821 2416 c-9 -11 -9 -15 0 -18 14 -5 3 -28 -12 -28 -6 0 -8 4 -5 9
4 5 -3 7 -14 4 -11 -3 -20 -9 -20 -14 0 -5 7 -6 15 -3 8 4 15 1 15 -6 0 -17
28 -42 34 -31 10 16 15 91 6 96 -4 3 -13 -1 -19 -9z m13 -61 c-4 -8 -11 -12
-16 -9 -6 4 -5 10 3 15 19 12 19 11 13 -6z"/>
<path d="M2227 2409 c-4 -16 -3 -18 9 -8 7 6 11 15 8 20 -8 13 -11 11 -17 -12z"/>
<path d="M2275 2391 c0 -32 3 -37 13 -28 8 6 12 21 9 34 -2 12 0 20 4 17 5 -3
9 0 9 5 0 6 -8 11 -17 11 -14 0 -18 -9 -18 -39z"/>
<path d="M2350 2420 c0 -5 5 -10 10 -10 6 0 10 5 10 10 0 6 -4 10 -10 10 -5 0
-10 -4 -10 -10z"/>
<path d="M2756 2413 c-3 -10 -9 -25 -12 -33 -4 -8 1 -6 10 5 14 18 15 19 16 2
0 -28 20 -9 20 19 0 28 -25 33 -34 7z"/>
<path d="M1240 2406 l-25 -14 28 1 c15 1 27 8 27 15 0 15 1 15 -30 -2z"/>
<path d="M1286 2407 c3 -10 9 -15 12 -12 3 3 0 11 -7 18 -10 9 -11 8 -5 -6z"/>
<path d="M1750 2405 c-10 -12 -10 -15 2 -15 8 0 15 7 15 15 0 8 -1 15 -2 15
-2 0 -8 -7 -15 -15z"/>
<path d="M1450 2389 c0 -5 5 -7 10 -4 6 3 10 8 10 11 0 2 -4 4 -10 4 -5 0 -10
-5 -10 -11z"/>
<path d="M2405 2378 c3 -13 7 -28 7 -35 1 -7 5 -10 9 -7 4 2 3 18 -3 34 -12
35 -24 41 -13 8z"/>
<path d="M2612 2388 c2 -5 8 -9 13 -9 5 0 11 4 13 9 1 5 -4 9 -13 9 -9 0 -14
-4 -13 -9z"/>
<path d="M211 2376 c-8 -10 -8 -16 3 -25 11 -10 14 -7 12 14 -1 29 0 29 -15
11z"/>
<path d="M1175 2365 c-16 -14 -25 -25 -19 -25 6 0 21 11 34 25 30 32 24 31
-15 0z"/>
<path d="M1223 2375 c-15 -12 -16 -16 -4 -27 8 -7 11 -8 7 -1 -4 7 5 15 21 20
21 7 23 11 11 15 -9 4 -24 0 -35 -7z"/>
<path d="M1442 2358 c-18 -11 -31 -23 -28 -26 3 -3 12 0 19 6 8 7 16 10 19 7
3 -3 11 1 18 10 20 24 7 26 -28 3z"/>
<path d="M1903 2365 c0 -18 24 -28 33 -13 4 7 3 8 -4 4 -7 -4 -12 -1 -12 8 0
9 -4 16 -8 16 -5 0 -9 -7 -9 -15z"/>
<path d="M2066 2373 c-3 -3 2 -12 10 -20 8 -8 12 -19 9 -24 -4 -5 -2 -9 3 -9
18 0 19 25 1 42 -9 9 -20 14 -23 11z"/>
<path d="M1118 2349 c-8 -13 -19 -35 -23 -49 -5 -19 -1 -15 19 14 15 21 25 43
24 48 -2 6 -11 0 -20 -13z"/>
<path d="M1390 2359 c0 -7 -10 -9 -25 -7 -15 3 -25 1 -25 -6 0 -18 51 -12 62
7 6 11 5 17 -2 17 -5 0 -10 -5 -10 -11z"/>
<path d="M1595 2354 c-8 -9 -15 -19 -15 -24 0 -11 37 -1 50 15 16 19 -16 28
-35 9z"/>
<path d="M2461 2333 c-15 -51 -13 -65 3 -28 l13 30 13 -37 c15 -41 30 -50 30
-17 0 11 -4 17 -10 14 -10 -6 -26 40 -22 63 2 6 -2 12 -7 12 -6 0 -15 -17 -20
-37z"/>
<path d="M1526 2345 c-3 -10 1 -15 13 -15 10 0 21 7 25 15 3 10 -1 15 -13 15
-10 0 -21 -7 -25 -15z"/>
<path d="M2382 2330 c0 -14 2 -19 5 -12 2 6 2 18 0 25 -3 6 -5 1 -5 -13z"/>
<path d="M2601 2319 c-11 -32 -4 -48 21 -49 4 0 6 -6 4 -12 -1 -7 -1 -10 1 -5
3 4 9 5 14 1 10 -6 12 9 2 20 -4 3 -8 16 -10 27 -2 12 -7 28 -12 36 -6 12 -11
8 -20 -18z"/>
<path d="M2781 2334 c0 -11 3 -14 6 -6 3 7 2 16 -1 19 -3 4 -6 -2 -5 -13z"/>
<path d="M1470 2325 c0 -8 2 -15 4 -15 2 0 6 7 10 15 3 8 1 15 -4 15 -6 0 -10
-7 -10 -15z"/>
<path d="M1875 2332 c-5 -4 -17 -16 -25 -26 -15 -19 -14 -19 13 -2 15 10 27
22 27 27 0 11 -2 11 -15 1z"/>
<path d="M2210 2311 c0 -17 -4 -32 -9 -35 -4 -3 -7 -18 -5 -33 2 -16 1 -20 -2
-10 -8 24 -23 12 -17 -13 3 -11 9 -18 13 -15 12 7 19 -31 9 -46 -7 -12 -9 -12
-9 0 0 8 -3 12 -6 8 -3 -3 -3 -11 2 -18 5 -9 11 -7 21 6 8 13 13 14 13 5 0 -7
3 -11 6 -8 3 4 -1 19 -9 35 -10 18 -12 36 -6 51 5 14 5 22 -2 22 -6 0 -7 5 -4
10 4 6 10 8 14 6 4 -3 5 11 3 30 -5 42 -12 45 -12 5z"/>
<path d="M1140 2320 c0 -5 5 -10 10 -10 6 0 10 5 10 10 0 6 -4 10 -10 10 -5 0
-10 -4 -10 -10z"/>
<path d="M1890 2309 c-11 -19 -10 -20 10 -9 11 6 18 15 15 21 -9 13 -13 11
-25 -12z"/>
<path d="M1935 2320 c-3 -5 -1 -10 4 -10 6 0 11 5 11 10 0 6 -2 10 -4 10 -3 0
-8 -4 -11 -10z"/>
<path d="M2348 2323 c7 -3 16 -2 19 1 4 3 -2 6 -13 5 -11 0 -14 -3 -6 -6z"/>
<path d="M2530 2320 c0 -5 7 -7 15 -4 8 4 15 8 15 10 0 2 -7 4 -15 4 -8 0 -15
-4 -15 -10z"/>
<path d="M1180 2300 c-6 -11 -8 -20 -6 -20 3 0 10 9 16 20 6 11 8 20 6 20 -3
0 -10 -9 -16 -20z"/>
<path d="M1214 2285 c-23 -56 -12 -75 12 -21 12 25 18 49 13 52 -5 3 -16 -11
-25 -31z"/>
<path d="M1540 2300 c-13 -8 -13 -10 2 -10 9 0 20 5 23 10 8 13 -5 13 -25 0z"/>
<path d="M1590 2290 c-14 -11 -19 -20 -12 -20 14 0 47 28 41 35 -3 2 -15 -5
-29 -15z"/>
<path d="M1717 2296 c-4 -10 -3 -15 3 -11 6 3 10 1 10 -6 0 -7 3 -10 6 -6 3 3
2 13 -4 22 -8 16 -9 16 -15 1z"/>
<path d="M2350 2301 c0 -6 5 -13 10 -16 6 -3 10 1 10 9 0 9 -4 16 -10 16 -5 0
-10 -4 -10 -9z"/>
<path d="M2792 2298 c-1 -10 -9 -18 -17 -18 -18 0 -19 -5 -3 -30 10 -15 9 -24
-2 -44 -10 -21 -11 -36 -3 -73 10 -42 9 -49 -8 -64 -10 -9 -19 -22 -19 -30 0
-7 13 1 29 18 30 33 32 68 7 85 -7 5 -7 8 2 8 7 0 10 4 7 10 -3 5 -1 27 5 47
7 21 10 54 7 73 -2 19 -5 27 -5 18z"/>
<path d="M1126 2284 c-3 -9 -2 -23 2 -31 7 -11 9 -6 10 16 1 34 -3 39 -12 15z"/>
<path d="M1915 2277 l-20 -20 25 13 c32 16 33 17 23 23 -4 2 -17 -5 -28 -16z"/>
<path d="M2866 2283 c-6 -20 -3 -49 6 -58 3 -3 8 10 10 30 4 38 -7 58 -16 28z"/>
<path d="M835 2271 c3 -5 1 -12 -5 -16 -5 -3 -10 -1 -10 6 0 7 -2 10 -5 8 -2
-3 -1 -18 4 -35 7 -28 8 -28 15 -6 4 12 12 22 17 22 5 0 9 7 9 15 0 8 -7 15
-16 15 -8 0 -13 -4 -9 -9z"/>
<path d="M975 2260 c-10 -11 -13 -20 -7 -20 6 0 16 9 22 20 6 11 9 20 7 20 -2
0 -12 -9 -22 -20z"/>
<path d="M1036 2255 c-9 -26 -7 -32 5 -12 6 10 9 21 6 23 -2 3 -7 -2 -11 -11z"/>
<path d="M1076 2255 c-3 -9 -6 -22 -5 -28 0 -7 5 -1 10 12 5 13 8 26 5 28 -2
2 -6 -3 -10 -12z"/>
<path d="M1911 2249 c-20 -16 -22 -22 -11 -29 16 -10 40 -2 40 12 0 6 -6 5
-15 -2 -12 -10 -15 -10 -15 0 0 6 9 14 20 17 11 3 20 9 20 14 0 14 -13 10 -39
-12z"/>
<path d="M1660 2250 c-14 -9 -7 -14 13 -11 4 0 7 -6 7 -14 0 -8 5 -15 10 -15
9 0 0 27 -14 47 -1 1 -8 -2 -16 -7z"/>
<path d="M2383 2230 c6 -16 15 -30 20 -30 5 0 6 6 3 13 -3 6 -9 20 -12 30 -4
9 -10 17 -14 17 -5 0 -3 -13 3 -30z"/>
<path d="M2452 2248 c-14 -14 -16 -28 -3 -28 5 0 11 9 14 20 6 23 5 24 -11 8z"/>
<path d="M1591 2234 c0 -11 3 -14 6 -6 3 7 2 16 -1 19 -3 4 -6 -2 -5 -13z"/>
<path d="M1780 2235 c0 -8 4 -15 10 -15 5 0 7 7 4 15 -4 8 -8 15 -10 15 -2 0
-4 -7 -4 -15z"/>
<path d="M1962 2235 c-11 -12 -10 -15 3 -15 8 0 15 7 15 15 0 18 -2 18 -18 0z"/>
<path d="M2517 2230 c3 -11 1 -20 -5 -20 -6 0 -13 8 -15 18 -3 9 -5 3 -6 -14
-1 -37 7 -47 24 -30 20 19 24 66 6 66 -5 0 -7 -9 -4 -20z"/>
<path d="M1630 2225 c6 -8 8 -20 4 -27 -5 -10 -4 -10 5 -2 13 12 5 44 -11 44
-6 0 -5 -6 2 -15z"/>
<path d="M930 2205 c-13 -14 -18 -25 -12 -25 7 0 12 5 12 11 0 6 6 9 13 6 8
-3 13 3 13 14 0 11 -1 19 -1 19 -1 0 -12 -11 -25 -25z"/>
<path d="M1556 2217 c3 -10 9 -15 12 -12 3 3 0 11 -7 18 -10 9 -11 8 -5 -6z"/>
<path d="M989 2216 c0 -1 -2 -9 -4 -19 -2 -10 -12 -28 -22 -40 -16 -19 -16
-20 0 -8 10 8 17 9 17 3 0 -6 -8 -16 -17 -21 -10 -6 -13 -11 -7 -11 13 0 35
18 54 45 14 19 14 19 -3 6 -26 -20 -30 -8 -8 21 15 19 17 25 5 25 -8 0 -14 -1
-15 -1z"/>
<path d="M1090 2205 c-6 -8 -10 -19 -8 -24 1 -6 8 1 15 14 13 28 11 31 -7 10z"/>
<path d="M2335 2210 c-3 -5 -2 -10 4 -10 5 0 13 5 16 10 3 6 2 10 -4 10 -5 0
-13 -4 -16 -10z"/>
<path d="M1145 2199 c-4 -6 -5 -12 -2 -15 2 -3 7 2 10 11 7 17 1 20 -8 4z"/>
<path d="M1966 2184 c-31 -30 -32 -33 -7 -31 11 0 19 4 19 7 -2 18 3 30 10 26
4 -2 14 -1 21 3 10 7 10 9 -2 14 -8 3 -26 -6 -41 -19z"/>
<path d="M2358 2188 c-20 -20 -24 -33 -8 -23 15 9 -1 -57 -18 -75 -11 -10 -11
-15 -3 -18 8 -3 5 -13 -11 -30 -13 -15 -15 -20 -5 -13 15 12 17 11 17 -14 0
-43 9 -25 11 22 2 24 8 44 14 47 6 2 10 23 10 47 -1 24 3 50 8 57 16 20 4 21
-15 0z"/>
<path d="M2607 2203 c-4 -3 -7 -11 -7 -17 0 -6 5 -5 12 2 6 6 9 14 7 17 -3 3
-9 2 -12 -2z"/>
<path d="M2866 2194 c-4 -11 -1 -14 11 -12 9 2 18 9 21 16 6 18 -25 15 -32 -4z"/>
<path d="M2290 2196 c0 -2 7 -9 15 -16 13 -11 14 -10 9 4 -5 14 -24 23 -24 12z"/>
<path d="M1111 2172 c-7 -13 -6 -19 2 -19 7 0 13 9 13 19 0 10 -1 18 -3 18 -1
0 -7 -8 -12 -18z"/>
<path d="M1316 2175 c-3 -8 -1 -15 4 -15 6 0 10 7 10 15 0 8 -2 15 -4 15 -2 0
-6 -7 -10 -15z"/>
<path d="M1766 2177 c3 -10 9 -15 12 -12 3 3 0 11 -7 18 -10 9 -11 8 -5 -6z"/>
<path d="M1801 2174 c0 -11 3 -14 6 -6 3 7 2 16 -1 19 -3 4 -6 -2 -5 -13z"/>
<path d="M2461 2178 c0 -9 -9 -21 -18 -27 -10 -5 -15 -12 -12 -15 11 -12 41
21 36 40 -4 15 -5 16 -6 2z"/>
<path d="M2270 2156 c15 -15 12 -24 -7 -29 -17 -4 -17 -5 0 -6 9 0 17 -8 17
-17 0 -8 -4 -12 -10 -9 -5 3 -10 -1 -10 -9 0 -8 4 -18 10 -21 11 -7 25 39 15
54 -3 6 -2 11 3 11 6 0 8 8 5 18 -2 10 -11 19 -19 19 -10 0 -11 -4 -4 -11z"/>
<path d="M1136 2133 c-18 -17 -27 -22 -23 -11 6 17 -15 20 -30 3 -4 -4 -2 -5
5 -1 22 13 13 -8 -15 -31 -19 -17 -22 -23 -10 -23 9 0 21 9 27 20 6 10 16 17
23 15 15 -5 60 31 55 45 -2 6 -16 -2 -32 -17z"/>
<path d="M1978 2142 c-10 -2 -18 -11 -18 -20 0 -11 3 -13 8 -6 4 6 14 10 23 9
21 -4 46 12 36 22 -5 4 -12 1 -16 -6 -5 -7 -10 -9 -12 -4 -2 5 -12 7 -21 5z"/>
<path d="M2391 2134 c0 -11 3 -14 6 -6 3 7 2 16 -1 19 -3 4 -6 -2 -5 -13z"/>
<path d="M2530 2126 c0 -13 7 -26 15 -29 11 -5 14 1 12 23 -2 36 -27 41 -27 6z"/>
<path d="M2651 2128 c-14 -23 -13 -35 2 -30 4 1 7 -3 7 -9 0 -5 4 -8 9 -4 19
11 22 -17 4 -33 -10 -9 -18 -23 -19 -29 -2 -29 -5 -33 -19 -33 -8 0 -15 -7
-15 -15 0 -8 -4 -15 -10 -15 -5 0 -10 -4 -10 -8 0 -5 7 -9 15 -9 8 0 15 4 15
8 0 5 10 18 23 31 13 13 29 40 36 61 11 33 10 43 -4 73 -9 19 -17 34 -18 34
-1 0 -9 -10 -16 -22z"/>
<path d="M1008 2099 c-15 -21 -26 -39 -23 -39 7 0 58 70 54 74 -2 2 -16 -14
-31 -35z"/>
<path d="M1815 2130 c3 -5 8 -10 11 -10 2 0 4 5 4 10 0 6 -5 10 -11 10 -5 0
-7 -4 -4 -10z"/>
<path d="M2160 2119 c0 -5 5 -7 10 -4 6 3 10 8 10 11 0 2 -4 4 -10 4 -5 0 -10
-5 -10 -11z"/>
<path d="M2490 2116 c0 -8 6 -17 13 -19 9 -4 8 -8 -3 -17 -13 -10 -13 -11 3
-6 11 4 17 0 17 -11 0 -12 3 -14 10 -7 12 12 3 44 -11 44 -5 0 -9 7 -9 15 0 8
-4 15 -10 15 -5 0 -10 -6 -10 -14z"/>
<path d="M2025 2110 c-3 -5 -12 -7 -19 -4 -7 3 -19 -3 -26 -13 -12 -15 -12
-16 0 -5 21 18 32 15 28 -10 -2 -11 3 -23 11 -26 9 -3 11 1 7 16 -4 12 -1 26
9 36 9 9 12 16 6 16 -5 0 -12 -4 -16 -10z"/>
<path d="M2184 2108 c-4 -6 -3 -8 3 -5 11 7 28 -20 24 -36 -1 -5 3 -6 9 -2 6
4 4 15 -6 31 -19 28 -20 28 -30 12z"/>
<path d="M2445 2110 c-3 -5 -1 -10 4 -10 6 0 11 5 11 10 0 6 -2 10 -4 10 -3 0
-8 -4 -11 -10z"/>
<path d="M769 2098 c-3 -30 3 -64 13 -73 7 -7 8 -3 4 11 -4 12 -2 33 3 48 9
21 8 26 -4 26 -8 0 -15 -6 -16 -12z"/>
<path d="M955 2099 c-4 -6 -14 -8 -22 -5 -8 3 -12 2 -9 -2 2 -4 1 -14 -5 -22
-5 -9 -9 -10 -9 -3 0 6 -9 9 -20 6 -11 -3 -17 -9 -14 -14 3 -5 0 -9 -5 -9 -6
0 -11 -5 -11 -10 0 -7 8 -6 23 2 12 7 28 11 35 9 16 -3 39 15 53 41 10 19 -5
27 -16 7z"/>
<path d="M2386 2078 c-9 -35 -7 -42 8 -29 8 7 13 18 12 26 -4 25 -13 27 -20 3z"/>
<path d="M2161 2073 c0 -14 8 -27 22 -34 12 -7 25 -17 29 -23 4 -6 8 0 8 13 0
13 -3 21 -7 17 -4 -3 -13 6 -20 21 -9 20 -11 22 -7 6 3 -13 1 -23 -5 -23 -5 0
-12 10 -14 23 l-4 22 -2 -22z"/>
<path d="M2440 2080 c0 -5 5 -10 10 -10 6 0 10 5 10 10 0 6 -4 10 -10 10 -5 0
-10 -4 -10 -10z"/>
<path d="M2240 2061 c0 -5 5 -13 10 -16 6 -3 10 -2 10 4 0 5 -4 13 -10 16 -5
3 -10 2 -10 -4z"/>
<path d="M1010 2049 c0 -5 5 -7 10 -4 6 3 10 8 10 11 0 2 -4 4 -10 4 -5 0 -10
-5 -10 -11z"/>
<path d="M950 2030 c-6 -11 -8 -20 -6 -20 3 0 10 9 16 20 6 11 8 20 6 20 -3 0
-10 -9 -16 -20z"/>
<path d="M2460 2034 c0 -8 5 -12 10 -9 6 3 10 10 10 16 0 5 -4 9 -10 9 -5 0
-10 -7 -10 -16z"/>
<path d="M2010 2030 c0 -5 5 -10 10 -10 6 0 10 5 10 10 0 6 -4 10 -10 10 -5 0
-10 -4 -10 -10z"/>
<path d="M2136 2031 c-4 -7 -5 -15 -2 -18 9 -9 19 4 14 18 -4 11 -6 11 -12 0z"/>
<path d="M2281 2024 c0 -11 3 -14 6 -6 3 7 2 16 -1 19 -3 4 -6 -2 -5 -13z"/>
<path d="M2510 2033 c0 -7 7 -18 15 -27 17 -17 20 -36 4 -36 -17 0 -41 -29
-37 -46 2 -13 8 -11 31 10 32 30 35 59 7 88 -11 12 -20 17 -20 11z"/>
<path d="M750 2030 c-8 -26 -7 -41 2 -32 6 6 8 16 5 24 -3 7 -6 11 -7 8z"/>
<path d="M906 2015 c-11 -8 -15 -15 -9 -15 6 0 16 7 23 15 16 19 11 19 -14 0z"/>
<path d="M2174 1994 c1 -19 -2 -34 -7 -34 -4 0 -6 -4 -2 -10 3 -5 12 -7 19 -4
8 3 17 -7 23 -28 6 -18 11 -25 12 -15 1 9 6 17 13 17 6 0 3 6 -7 14 -16 11
-17 17 -7 29 10 11 9 17 -5 28 -15 12 -16 12 -10 -3 3 -10 3 -18 -2 -18 -15 0
-20 13 -11 30 7 13 6 20 -4 23 -10 4 -13 -3 -12 -29z"/>
<path d="M2231 2014 c0 -11 3 -14 6 -6 3 7 2 16 -1 19 -3 4 -6 -2 -5 -13z"/>
<path d="M836 1998 c-8 -32 -7 -63 2 -54 4 4 8 12 8 17 1 5 2 10 3 12 8 9 9
47 2 47 -5 0 -11 -10 -15 -22z"/>
<path d="M984 2005 c-10 -8 -14 -15 -8 -15 6 0 17 7 24 15 16 19 9 19 -16 0z"/>
<path d="M2040 2015 c0 -7 30 -13 34 -7 3 4 -4 9 -15 9 -10 1 -19 0 -19 -2z"/>
<path d="M2385 2000 c-10 -11 -13 -20 -7 -20 7 0 12 5 12 11 0 5 5 7 10 4 6
-3 10 1 10 9 0 21 -3 20 -25 -4z"/>
<path d="M1900 2005 c0 -5 5 -17 10 -25 5 -8 10 -10 10 -5 0 6 -5 17 -10 25
-5 8 -10 11 -10 5z"/>
<path d="M2250 2000 c0 -5 5 -10 10 -10 6 0 10 5 10 10 0 6 -4 10 -10 10 -5 0
-10 -4 -10 -10z"/>
<path d="M922 1984 c-12 -8 -26 -13 -31 -9 -5 3 -12 1 -16 -5 -3 -5 1 -10 10
-10 13 0 12 -5 -6 -29 -21 -28 -23 -63 -4 -62 10 1 16 17 30 76 4 17 10 24 12
17 4 -10 9 -7 20 8 19 27 13 34 -15 14z"/>
<path d="M772 1973 c-9 -13 -14 -15 -18 -5 -3 6 -10 12 -16 12 -7 0 -6 -5 1
-14 13 -15 5 -90 -8 -82 -4 3 -8 -12 -9 -32 -2 -20 -9 -42 -17 -48 -20 -15 -7
-26 17 -13 17 9 18 8 9 -10 -6 -11 -19 -25 -29 -30 -15 -9 -15 -12 8 -37 14
-15 19 -24 13 -20 -9 5 -13 -2 -13 -23 0 -21 -5 -31 -15 -31 -8 0 -15 -4 -15
-10 0 -5 8 -7 18 -4 14 5 14 3 -3 -11 -20 -15 -19 -16 3 -21 23 -7 29 -19 12
-29 -5 -3 -7 -27 -4 -53 3 -26 2 -42 -3 -36 -6 9 -11 8 -20 -1 -9 -10 -7 -14
10 -19 21 -6 21 -7 5 -20 -21 -15 -24 -30 -5 -23 19 7 19 -34 0 -55 -9 -10
-11 -18 -5 -18 8 0 9 -20 2 -40 -1 -3 -1 -14 0 -24 1 -13 -3 -17 -14 -13 -10
4 -13 1 -9 -8 3 -8 10 -12 15 -9 6 4 8 -2 6 -12 -2 -11 -11 -18 -21 -18 -13 1
-15 -2 -8 -10 11 -13 9 -41 -2 -52 -4 -4 -7 -1 -7 6 0 7 -2 11 -5 9 -2 -3 -1
-20 4 -37 7 -21 6 -34 -1 -38 -7 -4 -8 -2 -4 4 4 7 2 12 -3 12 -6 0 -11 -13
-11 -30 0 -21 4 -28 14 -24 10 4 12 -2 9 -23 -2 -15 -5 -34 -5 -41 -1 -6 -6
-12 -12 -11 -31 4 -39 -1 -26 -16 10 -12 9 -16 -4 -21 -21 -8 -21 -24 1 -24
15 0 15 -1 0 -18 -9 -10 -14 -27 -11 -38 3 -12 -1 -28 -9 -36 -13 -12 -13 -18
-1 -39 7 -13 13 -18 14 -11 0 7 4 11 9 7 6 -3 9 16 8 45 -1 27 2 50 6 50 5 0
8 12 7 28 -3 41 -1 52 10 52 5 0 7 -7 4 -15 -4 -8 -1 -15 5 -15 6 0 11 3 12 8
0 4 2 16 4 27 2 11 6 35 9 53 3 18 8 36 11 41 3 5 -1 12 -7 14 -10 4 -10 6 0
6 7 1 10 6 7 11 -4 6 -1 18 7 27 11 14 11 16 -3 11 -15 -6 -15 -4 -4 20 8 15
16 47 20 72 3 25 8 56 10 70 3 14 7 80 9 148 3 74 9 129 17 138 8 9 8 14 1 14
-6 0 -9 6 -6 14 3 8 1 17 -5 21 -6 3 -11 11 -11 16 0 6 5 7 10 4 10 -6 14 7
10 34 -1 8 4 53 11 100 7 47 13 93 13 101 0 8 3 17 7 20 6 5 22 90 17 90 -2 0
-9 -8 -16 -17z m-24 -128 c-3 -3 -9 2 -12 12 -6 14 -5 15 5 6 7 -7 10 -15 7
-18z m-23 -114 c-3 -6 -11 -8 -17 -5 -6 4 -5 9 3 15 16 10 23 4 14 -10z"/>
<path d="M2030 1980 c0 -5 4 -10 9 -10 6 0 13 5 16 10 3 6 -1 10 -9 10 -9 0
-16 -4 -16 -10z"/>
<path d="M2073 1969 c-2 -23 3 -25 10 -4 4 8 3 16 -1 19 -4 3 -9 -4 -9 -15z"/>
<path d="M2273 1971 c-10 -16 -9 -24 6 -43 l19 -23 12 27 c22 47 -11 81 -37
39z m33 -11 c0 -11 -6 -20 -13 -20 -14 0 -18 22 -6 33 12 12 19 7 19 -13z"/>
<path d="M2880 1974 c0 -8 5 -12 10 -9 6 3 10 10 10 16 0 5 -4 9 -10 9 -5 0
-10 -7 -10 -16z"/>
<path d="M2991 1974 c0 -11 3 -14 6 -6 3 7 2 16 -1 19 -3 4 -6 -2 -5 -13z"/>
<path d="M2010 1962 c0 -28 22 -43 37 -27 8 9 9 16 3 20 -6 3 -10 1 -10 -4 0
-6 -5 -11 -11 -11 -6 0 -9 7 -6 15 4 8 2 17 -3 20 -6 4 -10 -3 -10 -13z"/>
<path d="M956 1941 c-9 -10 -18 -31 -20 -46 -2 -15 -9 -31 -17 -35 -7 -5 -10
-13 -5 -17 4 -4 19 5 32 20 26 30 31 47 13 47 -7 0 -5 10 5 25 20 30 16 32 -8
6z"/>
<path d="M2371 1942 c-6 -12 -6 -23 0 -33 9 -12 10 -12 6 1 -2 8 0 23 5 33 5
9 6 17 4 17 -3 0 -10 -8 -15 -18z"/>
<path d="M2395 1940 c-3 -5 -1 -10 4 -10 6 0 11 5 11 10 0 6 -2 10 -4 10 -3 0
-8 -4 -11 -10z"/>
<path d="M2846 1933 c-6 -14 -5 -15 5 -6 7 7 10 15 7 18 -3 3 -9 -2 -12 -12z"/>
<path d="M2251 1924 c0 -11 3 -14 6 -6 3 7 2 16 -1 19 -3 4 -6 -2 -5 -13z"/>
<path d="M805 1920 c-3 -5 -8 -40 -11 -77 -3 -38 -9 -106 -15 -153 -10 -92
-12 -146 -5 -139 3 3 7 29 10 59 5 49 13 82 47 196 7 23 5 39 -7 63 -9 17 -13
38 -10 46 6 17 0 20 -9 5z m14 -106 c-15 -18 -22 -13 -13 10 3 9 10 13 16 10
5 -3 4 -12 -3 -20z"/>
<path d="M2000 1922 c0 -10 22 -32 32 -32 15 0 8 15 -12 28 -11 7 -20 9 -20 4z"/>
<path d="M2445 1920 c-3 -5 1 -10 10 -10 9 0 13 5 10 10 -3 6 -8 10 -10 10 -2
0 -7 -4 -10 -10z"/>
<path d="M2534 1905 c-6 -26 -23 -34 -25 -12 -1 6 -4 1 -8 -13 -4 -14 -1 -41
5 -60 11 -29 10 -39 -3 -59 -14 -22 -14 -24 2 -18 9 4 20 7 24 7 4 0 6 24 3
54 -3 44 0 60 17 84 19 27 19 42 0 42 -5 0 -11 -11 -15 -25z"/>
<path d="M376 1911 c-4 -7 -5 -15 -2 -18 9 -9 19 4 14 18 -4 11 -6 11 -12 0z"/>
<path d="M2179 1918 c0 -2 -2 -14 -5 -27 -4 -20 -2 -22 10 -12 8 7 12 19 9 27
-5 12 -12 18 -14 12z"/>
<path d="M2670 1905 c0 -8 -4 -15 -10 -15 -5 0 -10 -8 -10 -17 1 -15 4 -14 20
6 22 25 26 41 10 41 -5 0 -10 -7 -10 -15z"/>
<path d="M2230 1900 c0 -5 5 -10 11 -10 5 0 7 5 4 10 -3 6 -8 10 -11 10 -2 0
-4 -4 -4 -10z"/>
<path d="M2316 1903 c-11 -12 -6 -19 14 -20 11 -1 20 2 20 7 0 10 -26 20 -34
13z"/>
<path d="M2600 1889 c0 -14 7 -34 15 -45 13 -17 13 -15 4 21 -14 49 -19 56
-19 24z"/>
<path d="M1931 1884 c0 -11 3 -14 6 -6 3 7 2 16 -1 19 -3 4 -6 -2 -5 -13z"/>
<path d="M2405 1880 c3 -5 8 -10 11 -10 2 0 4 5 4 10 0 6 -5 10 -11 10 -5 0
-7 -4 -4 -10z"/>
<path d="M2275 1870 c-3 -5 -1 -10 4 -10 6 0 11 5 11 10 0 6 -2 10 -4 10 -3 0
-8 -4 -11 -10z"/>
<path d="M2365 1860 c-4 -12 -5 -24 -2 -27 3 -2 8 5 12 17 4 12 5 24 2 27 -3
2 -8 -5 -12 -17z"/>
<path d="M2205 1845 c0 -14 3 -25 6 -25 10 0 20 31 13 41 -10 17 -19 9 -19
-16z"/>
<path d="M2300 1850 c0 -11 4 -20 10 -20 5 0 7 7 3 17 -5 13 -2 15 15 11 12
-4 20 -2 16 3 -11 18 -44 10 -44 -11z"/>
<path d="M2798 1863 c-10 -2 -18 -9 -18 -14 0 -6 5 -7 11 -3 7 4 10 -3 7 -22
-1 -15 2 -29 7 -31 7 -2 11 13 10 37 0 22 0 39 0 39 0 -1 -8 -3 -17 -6z"/>
<path d="M2240 1844 c0 -8 5 -12 10 -9 6 4 8 11 5 16 -9 14 -15 11 -15 -7z"/>
<path d="M2424 1848 c-3 -4 -2 -8 3 -8 4 0 1 -5 -7 -10 -9 -6 -10 -10 -3 -10
10 0 43 26 43 34 0 7 -31 2 -36 -6z"/>
<path d="M877 1814 c-10 -13 -16 -35 -14 -47 l4 -22 2 23 c0 12 6 22 12 22 6
0 8 -8 5 -17 -11 -40 -18 -156 -9 -150 6 4 17 -28 27 -73 9 -44 19 -80 22 -80
8 0 -7 122 -17 142 -5 9 -10 64 -12 122 -1 58 -2 106 -2 106 0 0 -8 -12 -18
-26z"/>
<path d="M2090 1830 c0 -5 5 -10 10 -10 6 0 10 5 10 10 0 6 -4 10 -10 10 -5 0
-10 -4 -10 -10z"/>
<path d="M913 1814 c-3 -8 -2 -19 3 -24 5 -5 9 1 9 16 0 28 -3 30 -12 8z"/>
<path d="M2179 1818 c-1 -7 -1 -19 0 -26 1 -8 -3 -20 -9 -27 -9 -11 -7 -12 9
-8 21 5 29 -11 11 -22 -5 -3 -10 -11 -10 -17 0 -6 6 -5 16 3 13 11 15 11 14
-2 -1 -7 -2 -25 -1 -39 1 -20 3 -22 11 -10 8 12 10 10 11 -10 0 -14 3 -19 6
-12 7 17 23 5 23 -19 0 -20 15 -26 25 -9 3 6 1 10 -4 10 -6 0 -11 6 -11 14 0
7 -11 25 -25 40 -14 15 -25 38 -25 50 0 13 -7 26 -15 30 -8 3 -15 13 -15 23 0
15 2 16 10 3 7 -11 10 -12 10 -2 0 19 -30 48 -31 30z"/>
<path d="M2270 1815 c-7 -79 -7 -105 0 -110 5 -3 7 -13 4 -23 -4 -13 -3 -12 7
2 7 11 8 21 3 23 -5 2 -8 23 -6 47 4 46 -4 103 -8 61z"/>
<path d="M2624 1808 c-10 -12 -13 -18 -6 -14 8 5 12 -1 12 -19 0 -28 13 -26
29 3 6 11 5 23 -3 35 -12 16 -14 15 -32 -5z"/>
<path d="M2900 1826 c0 -2 7 -6 15 -10 8 -3 15 -1 15 4 0 6 -7 10 -15 10 -8 0
-15 -2 -15 -4z"/>
<path d="M2351 1813 c0 -6 -4 -20 -7 -30 -5 -14 -4 -15 5 -7 7 7 11 20 8 30
-3 11 -5 14 -6 7z"/>
<path d="M2447 1813 c-4 -3 -7 -11 -7 -17 0 -6 5 -5 12 2 6 6 9 14 7 17 -3 3
-9 2 -12 -2z"/>
<path d="M2060 1800 c-18 -12 -2 -12 25 0 13 6 15 9 5 9 -8 0 -22 -4 -30 -9z"/>
<path d="M2230 1786 c0 -8 4 -17 9 -20 5 -4 7 3 4 14 -6 23 -13 26 -13 6z"/>
<path d="M2310 1790 c0 -5 5 -10 10 -10 6 0 10 5 10 10 0 6 -4 10 -10 10 -5 0
-10 -4 -10 -10z"/>
<path d="M2420 1779 c0 -5 -5 -7 -12 -3 -7 5 -9 0 -6 -14 3 -12 1 -23 -6 -26
-6 -3 -1 -3 11 0 16 3 23 -1 28 -16 5 -17 10 -19 21 -9 20 17 17 27 -8 31 -17
2 -22 9 -21 26 2 12 1 22 -2 22 -3 0 -5 -5 -5 -11z"/>
<path d="M2032 1756 c7 -8 15 -11 18 -7 3 3 9 9 14 14 5 4 -3 7 -18 7 -22 0
-25 -2 -14 -14z"/>
<path d="M922 1735 c0 -16 2 -22 5 -12 2 9 2 23 0 30 -3 6 -5 -1 -5 -18z"/>
<path d="M2290 1740 c0 -5 5 -10 11 -10 5 0 7 5 4 10 -3 6 -8 10 -11 10 -2 0
-4 -4 -4 -10z"/>
<path d="M2010 1729 c0 -5 7 -12 15 -15 10 -4 12 -11 7 -18 -15 -19 -12 -56 4
-56 8 0 13 -4 10 -9 -3 -5 0 -11 8 -14 8 -3 17 1 20 9 3 9 1 12 -4 9 -6 -3
-10 1 -10 10 0 9 -4 13 -10 10 -12 -8 -12 -8 -1 33 6 20 6 30 0 27 -5 -4 -9
-2 -9 3 0 6 -7 12 -15 16 -8 3 -15 1 -15 -5z"/>
<path d="M2371 1724 c0 -11 3 -14 6 -6 3 7 2 16 -1 19 -3 4 -6 -2 -5 -13z"/>
<path d="M1180 1719 c0 -6 -9 -8 -22 -4 l-23 7 22 -16 c12 -9 26 -16 30 -15 4
1 15 -1 23 -4 8 -4 34 -11 57 -15 38 -9 41 -8 45 12 3 16 -1 22 -16 22 -78 1
-107 5 -101 14 3 6 1 10 -4 10 -6 0 -11 -5 -11 -11z"/>
<path d="M1095 1710 c3 -5 8 -10 11 -10 2 0 4 5 4 10 0 6 -5 10 -11 10 -5 0
-7 -4 -4 -10z"/>
<path d="M810 1701 c0 -5 -3 -16 -6 -25 -4 -11 -1 -16 10 -16 14 0 15 -4 6
-21 -7 -11 -9 -23 -6 -26 3 -3 11 6 17 20 9 21 9 30 0 41 -7 8 -10 20 -6 26 3
5 1 10 -4 10 -6 0 -11 -4 -11 -9z"/>
<path d="M2322 1681 c4 -24 1 -31 -9 -27 -8 3 -11 1 -8 -4 8 -13 42 -13 50 0
3 6 -1 10 -10 10 -12 0 -15 6 -10 19 3 11 1 23 -6 27 -8 5 -10 -2 -7 -25z"/>
<path d="M2175 1691 c-3 -5 -1 -12 5 -16 5 -3 10 1 10 9 0 18 -6 21 -15 7z"/>
<path d="M2379 1687 c6 -6 11 -23 11 -38 0 -15 5 -31 11 -34 6 -4 8 -13 5 -21
-3 -8 -2 -14 3 -14 16 0 19 39 4 44 -11 5 -14 15 -9 39 5 28 3 33 -15 34 -17
2 -19 -1 -10 -10z"/>
<path d="M2565 1690 c-3 -5 -1 -10 4 -10 6 0 11 5 11 10 0 6 -2 10 -4 10 -3 0
-8 -4 -11 -10z"/>
<path d="M2930 1690 c0 -5 5 -10 11 -10 5 0 7 5 4 10 -3 6 -8 10 -11 10 -2 0
-4 -4 -4 -10z"/>
<path d="M1325 1680 c3 -5 15 -10 25 -10 10 0 21 -6 23 -12 3 -7 6 -4 6 7 1
16 -6 21 -30 23 -19 2 -28 -2 -24 -8z"/>
<path d="M1779 1682 c-6 -15 -49 -25 -49 -11 0 7 -8 5 -21 -7 -12 -10 -23 -18
-25 -16 -2 1 -6 1 -9 1 -3 -1 -9 -2 -15 -3 -5 0 -10 -4 -10 -8 0 -7 5 -10 13
-7 1 0 11 2 22 3 51 7 152 30 167 37 10 5 18 5 21 -1 3 -6 4 -5 3 1 -3 15 -92
24 -97 11z"/>
<path d="M1428 1669 c-20 -11 -25 -39 -7 -39 5 0 7 5 4 11 -4 6 1 17 11 24 22
17 17 19 -8 4z"/>
<path d="M2415 1661 c-3 -5 -1 -12 5 -16 5 -3 10 1 10 9 0 18 -6 21 -15 7z"/>
<path d="M1115 1624 l-30 -14 35 6 35 5 -25 -21 -25 -22 28 7 c21 4 28 2 25
-7 -5 -14 6 -26 40 -45 26 -16 52 -17 52 -3 0 6 -6 10 -14 10 -23 0 -70 45
-62 58 11 18 23 14 29 -7 8 -31 40 -43 65 -25 12 8 22 22 22 31 0 13 3 13 15
3 23 -19 18 -36 -15 -50 -16 -7 -30 -19 -30 -27 0 -14 3 -14 23 0 13 8 35 13
50 10 31 -6 38 16 11 37 -8 8 -20 23 -26 34 -9 19 -7 18 18 -4 l28 -25 -16 25
c-8 13 -26 28 -39 31 -39 11 -109 10 -131 -2 -14 -7 -23 -8 -27 -1 -4 6 -17 5
-36 -4z m131 -52 c-10 -10 -39 25 -31 38 5 8 12 5 22 -10 8 -12 12 -24 9 -28z
m34 34 c0 -8 -4 -18 -10 -21 -5 -3 -10 3 -10 14 0 12 5 21 10 21 6 0 10 -6 10
-14z"/>
<path d="M546 1618 c3 -4 9 -8 15 -8 5 0 9 4 9 8 0 5 -7 9 -15 9 -8 0 -12 -4
-9 -9z"/>
<path d="M840 1604 c0 -8 5 -12 10 -9 6 3 10 10 10 16 0 5 -4 9 -10 9 -5 0
-10 -7 -10 -16z"/>
<path d="M2955 1609 c-4 -6 -5 -12 -2 -15 2 -3 7 2 10 11 7 17 1 20 -8 4z"/>
<path d="M1658 1590 c-65 -35 -60 -48 28 -77 61 -19 113 -16 99 7 -3 5 3 10
13 10 20 0 36 25 26 41 -3 5 0 9 7 9 10 0 10 3 2 11 -6 6 -40 13 -75 15 -50 4
-71 0 -100 -16z m55 -30 c4 -17 3 -19 -9 -9 -8 6 -14 18 -14 26 0 20 16 8 23
-17z m37 23 c0 -14 -19 -38 -25 -32 -8 8 5 39 16 39 5 0 9 -3 9 -7z m37 -10
c8 -20 -30 -53 -63 -53 -31 0 -74 20 -74 35 0 24 13 23 34 -2 27 -31 63 -25
72 13 7 28 22 31 31 7z"/>
<path d="M2240 1595 c0 -8 4 -15 10 -15 5 0 7 7 4 15 -4 8 -8 15 -10 15 -2 0
-4 -7 -4 -15z"/>
<path d="M2305 1600 c3 -5 11 -10 16 -10 6 0 7 5 4 10 -3 6 -11 10 -16 10 -6
0 -7 -4 -4 -10z"/>
<path d="M2356 1595 c-16 -12 -17 -15 -4 -15 9 0 18 7 22 15 7 18 6 18 -18 0z"/>
<path d="M1937 1593 c-3 -4 -7 -28 -11 -53 l-6 -45 15 50 c13 45 14 68 2 48z"/>
<path d="M2052 1591 c-12 -7 -12 -12 -1 -30 17 -26 33 -28 19 -2 -13 25 -13
34 0 26 6 -3 10 -1 10 4 0 13 -10 14 -28 2z"/>
<path d="M867 1569 c4 -13 8 -18 11 -10 2 7 -1 18 -6 23 -8 8 -9 4 -5 -13z"/>
<path d="M2205 1581 c-3 -5 -2 -12 3 -15 5 -3 9 1 9 9 0 17 -3 19 -12 6z"/>
<path d="M675 1571 c3 -2 0 -10 -6 -18 -9 -10 -7 -13 6 -13 10 0 15 3 12 7 -4
3 0 11 9 17 13 10 13 12 -5 12 -11 0 -18 -2 -16 -5z"/>
<path d="M827 1559 c-4 -16 -3 -18 9 -8 12 9 13 6 10 -20 -2 -17 0 -31 5 -31
4 0 11 -9 14 -20 4 -11 10 -18 14 -16 4 3 13 -9 20 -26 11 -24 11 -35 2 -50
-6 -10 -14 -38 -16 -61 l-5 -42 15 30 c8 17 14 38 15 48 0 10 4 15 10 12 11
-7 8 -36 -18 -135 -14 -53 -16 -69 -6 -55 8 10 14 29 14 41 0 13 5 26 10 29 6
4 7 12 4 18 -5 9 -4 9 6 0 7 -6 14 -24 14 -40 1 -15 12 -50 25 -78 13 -27 30
-66 39 -85 9 -19 22 -41 29 -48 7 -7 11 -25 9 -40 -2 -15 -1 -19 1 -8 4 14 13
6 41 -35 28 -42 36 -65 38 -104 2 -84 3 -85 25 -85 16 0 20 5 16 20 -3 10 1
27 9 37 8 10 14 14 13 8 -1 -5 -1 -19 0 -30 1 -15 4 -16 10 -7 6 10 10 10 20
-2 7 -8 10 -19 7 -25 -4 -5 4 -13 16 -17 12 -3 29 -13 36 -21 13 -13 12 -18
-5 -41 -11 -15 -25 -28 -32 -28 -6 -1 -12 -3 -13 -4 -2 -1 -15 -4 -31 -6 -98
-11 -124 -24 -133 -62 -11 -51 -14 -58 -23 -44 -5 9 -11 5 -19 -12 -7 -16 -8
-28 -2 -31 6 -4 11 4 11 17 1 19 3 17 8 -7 l7 -30 7 33 c7 36 27 44 27 10 0
-23 -44 -114 -70 -146 -8 -10 -16 -31 -17 -47 l-1 -30 16 35 c9 19 17 36 18
38 1 2 22 4 47 6 25 1 44 -1 41 -6 -7 -11 -2 -10 32 6 16 7 44 16 63 20 27 5
32 3 27 -9 -3 -8 -1 -15 4 -15 4 0 11 14 15 30 8 36 25 40 25 5 0 -13 9 -47
20 -75 27 -69 27 -171 -1 -251 -12 -33 -19 -62 -17 -65 6 -5 98 212 98 230 0
19 28 74 67 128 18 27 29 48 23 48 -5 0 -10 8 -10 18 0 14 2 15 10 2 9 -13 11
-13 20 0 5 8 10 22 10 31 0 12 56 49 75 49 14 0 2 -20 -15 -25 -11 -4 -18 -11
-15 -16 4 -5 -1 -9 -9 -9 -9 0 -16 -4 -16 -10 0 -5 6 -10 13 -10 16 0 87 74
87 91 0 6 8 9 19 6 14 -3 18 -1 14 9 -3 8 1 14 11 14 9 0 16 5 16 11 0 5 5 7
10 4 6 -3 10 0 10 7 0 7 10 19 23 27 l22 14 -19 -22 c-15 -16 -16 -20 -4 -16
8 3 20 17 26 31 7 13 19 24 27 24 9 0 14 4 11 9 -9 14 20 21 35 8 11 -10 11
-9 1 4 -9 12 -7 19 8 32 19 16 20 15 26 -8 3 -14 10 -25 15 -25 5 0 3 13 -5
29 -17 31 -11 47 11 30 8 -8 13 -8 13 -1 0 6 -6 12 -12 15 -9 3 -5 12 12 28
44 42 102 129 126 187 14 36 29 58 41 60 21 3 82 -51 109 -97 18 -31 34 -40
34 -21 0 6 -5 10 -11 10 -5 0 -16 15 -24 33 -13 32 -72 93 -111 115 -16 9 -17
13 -5 35 7 14 11 31 8 39 -7 19 -27 -37 -27 -77 0 -19 -4 -36 -9 -40 -5 -3
-15 -22 -22 -43 -31 -96 -167 -258 -279 -332 -36 -24 -67 -46 -70 -50 -3 -3
-44 -26 -92 -50 -49 -25 -88 -48 -88 -53 0 -4 -16 -30 -36 -56 -25 -33 -42
-48 -53 -44 -13 4 -14 3 -2 -5 12 -9 10 -17 -12 -51 -27 -40 -43 -53 -35 -29
3 7 -2 19 -9 27 -33 33 11 94 96 134 25 11 39 23 33 25 -6 2 -35 -8 -64 -22
-29 -14 -55 -21 -56 -16 -2 6 -8 8 -12 5 -5 -3 -6 -13 -3 -23 6 -16 6 -16 -10
0 -17 16 -50 15 -74 -4 -7 -5 -16 -7 -22 -4 -5 3 -11 2 -13 -4 -3 -9 -92 -30
-129 -30 -24 0 -24 26 0 39 30 17 45 64 32 104 -19 57 0 77 76 77 48 0 73 13
131 69 44 43 49 51 31 51 -52 0 -116 63 -222 220 -101 149 -157 289 -172 434
-6 52 -12 68 -30 80 -12 8 -32 40 -45 70 -24 60 -34 68 -43 35z m325 -737 c3
-9 1 -26 -3 -37 -6 -15 -8 -11 -8 18 -1 40 4 48 11 19z"/>
<path d="M1577 1549 c-10 -11 -16 -27 -15 -37 2 -10 -3 -17 -13 -16 -9 1 -16
-4 -17 -10 -9 -93 9 -203 27 -165 11 21 1 145 -10 128 -6 -10 -9 -11 -9 -1 0
7 10 17 23 22 13 5 16 9 7 10 -13 0 -13 2 1 13 9 7 20 27 23 45 9 37 7 37 -17
11z"/>
<path d="M2400 1554 c0 -8 5 -12 10 -9 6 3 10 10 10 16 0 5 -4 9 -10 9 -5 0
-10 -7 -10 -16z"/>
<path d="M2254 1526 c-8 -27 -8 -33 2 -29 8 3 13 8 12 11 0 4 0 16 1 27 2 20
2 20 19 -1 16 -18 19 -19 32 -6 11 13 11 14 -1 10 -7 -2 -20 1 -27 9 -20 20
-26 16 -38 -21z"/>
<path d="M2021 1542 c-1 -7 6 -15 14 -18 22 -9 18 -24 -6 -24 -11 0 -17 -5
-14 -10 4 -6 10 -8 15 -5 5 3 11 1 15 -4 3 -6 12 -8 20 -5 11 4 12 11 5 24 -5
9 -6 20 -3 24 3 3 -3 6 -14 6 -12 0 -24 6 -26 13 -4 9 -6 9 -6 -1z"/>
<path d="M2180 1543 c0 -6 5 -15 11 -19 6 -3 9 -14 6 -23 -3 -11 2 -17 14 -17
13 0 15 4 9 16 -17 30 -39 55 -40 43z"/>
<path d="M2455 1540 c-3 -5 -1 -10 4 -10 6 0 11 5 11 10 0 6 -2 10 -4 10 -3 0
-8 -4 -11 -10z"/>
<path d="M2922 1516 c-12 -18 -22 -37 -22 -43 0 -5 -9 -14 -19 -19 -18 -8 -18
-11 -6 -34 10 -17 14 -20 15 -9 0 9 7 22 15 29 8 7 15 21 15 32 0 10 7 30 16
44 25 37 12 38 -14 0z"/>
<path d="M674 1515 c-10 -8 -14 -15 -8 -15 6 0 17 7 24 15 16 19 9 19 -16 0z"/>
<path d="M2397 1510 c-3 -11 -2 -20 3 -20 12 0 21 28 11 35 -5 2 -11 -4 -14
-15z"/>
<path d="M2326 1503 c-6 -14 -5 -15 5 -6 7 7 10 15 7 18 -3 3 -9 -2 -12 -12z"/>
<path d="M1325 1500 c-4 -6 -10 -8 -14 -6 -4 3 -13 1 -21 -5 -12 -7 -10 -9 8
-9 27 0 29 -20 2 -27 -11 -3 -20 -10 -20 -15 0 -5 -3 -7 -8 -4 -4 2 -16 -2
-26 -10 -17 -12 -16 -13 15 -11 42 3 121 73 98 88 -18 11 -26 11 -34 -1z m15
-10 c0 -5 -5 -10 -11 -10 -5 0 -7 5 -4 10 3 6 8 10 11 10 2 0 4 -4 4 -10z"/>
<path d="M2280 1484 c0 -11 -5 -14 -16 -10 -13 5 -15 2 -9 -16 4 -13 7 -31 8
-40 1 -10 5 -18 10 -18 5 0 6 14 2 30 -6 29 9 44 17 18 3 -7 7 -5 11 6 4 11 3
15 -4 10 -8 -4 -9 1 -4 15 4 12 2 21 -4 21 -6 0 -11 -7 -11 -16z"/>
<path d="M2797 1489 c6 -6 9 -17 7 -24 -3 -7 -1 -16 5 -20 7 -4 11 3 11 18 0
14 -7 28 -17 32 -14 5 -15 3 -6 -6z"/>
<path d="M2326 1455 c6 -30 20 -53 27 -44 2 2 -5 20 -15 39 -18 35 -18 35 -12
5z"/>
<path d="M2010 1461 c0 -17 12 -41 21 -41 5 0 8 11 7 25 -2 23 -28 37 -28 16z"/>
<path d="M2407 1463 c-5 -7 -3 -21 2 -31 6 -12 7 -39 2 -71 -4 -28 -5 -54 0
-56 12 -8 22 103 12 138 -6 21 -11 28 -16 20z"/>
<path d="M2583 1454 c0 -16 13 -19 21 -5 3 5 0 11 -7 14 -8 3 -14 -1 -14 -9z"/>
<path d="M758 1443 c7 -3 16 -2 19 1 4 3 -2 6 -13 5 -11 0 -14 -3 -6 -6z"/>
<path d="M2209 1408 l5 -43 6 35 c6 36 4 50 -8 50 -4 0 -5 -19 -3 -42z"/>
<path d="M2365 1430 c4 -6 11 -8 16 -5 14 9 11 15 -7 15 -8 0 -12 -5 -9 -10z"/>
<path d="M880 1415 c0 -8 4 -15 10 -15 5 0 7 7 4 15 -4 8 -8 15 -10 15 -2 0
-4 -7 -4 -15z"/>
<path d="M510 1405 c0 -8 4 -15 10 -15 5 0 7 7 4 15 -4 8 -8 15 -10 15 -2 0
-4 -7 -4 -15z"/>
<path d="M1991 1410 c-10 -6 -10 -9 -1 -15 9 -6 9 -9 -1 -16 -10 -6 -7 -8 8
-6 12 0 19 5 16 10 -3 5 0 13 7 17 9 5 8 9 -3 13 -7 3 -20 2 -26 -3z"/>
<path d="M672 1391 c-10 -6 -9 -10 7 -14 14 -3 21 0 21 9 0 16 -9 18 -28 5z"/>
<path d="M2260 1375 c0 -5 5 -17 10 -25 5 -8 10 -10 10 -5 0 6 -5 17 -10 25
-5 8 -10 11 -10 5z"/>
<path d="M2339 1359 c-9 -17 -8 -20 2 -14 9 6 11 3 6 -8 -3 -9 -1 -19 5 -23 7
-4 8 -3 4 4 -4 7 -2 12 3 12 6 0 11 -7 11 -16 0 -8 5 -12 11 -9 7 5 2 16 -12
32 -20 20 -21 25 -9 33 10 6 11 10 3 10 -7 0 -17 -10 -24 -21z"/>
<path d="M2751 1368 c-1 -21 15 -32 25 -17 4 7 3 9 -4 5 -6 -3 -13 2 -15 11
-4 16 -5 16 -6 1z"/>
<path d="M2303 1352 c0 -12 5 -22 9 -22 11 0 10 12 -2 30 -7 12 -9 10 -7 -8z"/>
<path d="M1972 1343 c2 -10 -5 -26 -14 -35 -24 -24 -23 -48 3 -48 11 0 18 4
14 9 -3 5 -1 12 4 15 5 3 8 19 7 36 -1 16 3 32 8 34 6 2 3 5 -7 5 -12 1 -17
-5 -15 -16z m-11 -56 c-10 -9 -11 -8 -5 6 3 10 9 15 12 12 3 -3 0 -11 -7 -18z"/>
<path d="M2015 1350 c3 -5 8 -10 11 -10 2 0 4 5 4 10 0 6 -5 10 -11 10 -5 0
-7 -4 -4 -10z"/>
<path d="M2473 1345 c0 -8 4 -12 9 -9 5 3 6 10 3 15 -9 13 -12 11 -12 -6z"/>
<path d="M533 1322 c0 -22 3 -30 10 -23 7 7 7 18 0 33 -10 22 -11 21 -10 -10z"/>
<path d="M810 1319 c0 -11 4 -18 10 -14 5 3 7 12 3 20 -7 21 -13 19 -13 -6z"/>
<path d="M2235 1320 c3 -5 8 -10 11 -10 2 0 4 5 4 10 0 6 -5 10 -11 10 -5 0
-7 -4 -4 -10z"/>
<path d="M2260 1320 c0 -5 5 -10 10 -10 6 0 10 5 10 10 0 6 -4 10 -10 10 -5 0
-10 -4 -10 -10z"/>
<path d="M2991 1314 c0 -11 3 -14 6 -6 3 7 2 16 -1 19 -3 4 -6 -2 -5 -13z"/>
<path d="M2286 1299 c-11 -10 -16 -22 -13 -26 4 -3 7 -1 7 6 0 8 7 11 15 7 10
-4 15 1 15 14 0 24 0 24 -24 -1z"/>
<path d="M1566 1293 c-3 -10 -4 -30 -2 -46 2 -15 0 -30 -4 -32 -5 -3 -6 -14
-3 -25 3 -11 9 -17 14 -14 5 3 9 0 9 -6 0 -6 -11 -15 -24 -19 -13 -5 -26 -17
-30 -26 -5 -13 -16 -16 -44 -13 -35 3 -38 1 -38 -22 0 -14 -3 -31 -5 -39 -2
-8 4 -17 14 -19 16 -3 18 2 15 30 -3 30 -1 33 25 34 20 1 26 -3 23 -12 -3 -8
-1 -14 4 -14 6 0 10 -6 10 -13 0 -8 7 -14 15 -14 13 0 13 3 -1 18 -14 15 -14
21 -2 45 7 16 22 33 33 39 17 8 20 19 18 70 -2 76 -4 95 -14 95 -4 0 -10 -8
-13 -17z"/>
<path d="M2640 1300 c0 -5 5 -10 11 -10 5 0 7 5 4 10 -3 6 -8 10 -11 10 -2 0
-4 -4 -4 -10z"/>
<path d="M2725 1300 c3 -5 8 -10 11 -10 2 0 4 5 4 10 0 6 -5 10 -11 10 -5 0
-7 -4 -4 -10z"/>
<path d="M2475 1290 c-5 -9 -4 -15 3 -18 7 -2 12 -12 12 -23 0 -11 7 -19 16
-19 12 0 14 3 6 13 -6 7 -15 24 -20 37 -7 18 -11 20 -17 10z"/>
<path d="M811 1274 c0 -11 3 -14 6 -6 3 7 2 16 -1 19 -3 4 -6 -2 -5 -13z"/>
<path d="M2353 1268 c6 -21 5 -22 -7 -5 -12 16 -14 16 -20 2 -3 -9 -2 -13 3
-10 5 3 12 1 15 -4 4 -5 2 -13 -4 -16 -8 -5 -7 -11 2 -22 10 -13 8 -14 -12
-11 -14 1 -25 8 -25 15 0 6 -3 15 -7 19 -5 4 -8 1 -8 -7 0 -16 29 -60 30 -45
0 5 6 3 14 -3 16 -14 20 -6 31 67 5 30 3 42 -5 42 -8 0 -10 -8 -7 -22z"/>
<path d="M2397 1276 c-4 -10 -1 -13 9 -9 15 6 19 23 5 23 -5 0 -11 -7 -14 -14z"/>
<path d="M1339 1243 c-2 -26 2 -47 9 -55 4 -4 7 11 7 33 0 38 -14 57 -16 22z"/>
<path d="M2421 1244 c0 -11 3 -14 6 -6 3 7 2 16 -1 19 -3 4 -6 -2 -5 -13z"/>
<path d="M1945 1238 c5 -13 2 -16 -14 -13 -18 3 -20 1 -11 -15 8 -14 6 -29 -5
-56 -10 -25 -11 -34 -3 -32 7 3 16 20 20 39 5 19 13 42 19 53 8 13 7 22 -1 30
-8 8 -10 7 -5 -6z"/>
<path d="M2215 1239 c-11 -16 -1 -19 13 -3 7 8 8 14 3 14 -5 0 -13 -5 -16 -11z"/>
<path d="M2236 1217 c3 -10 9 -15 12 -12 3 3 0 11 -7 18 -10 9 -11 8 -5 -6z"/>
<path d="M2271 1194 c0 -11 3 -14 6 -6 3 7 2 16 -1 19 -3 4 -6 -2 -5 -13z"/>
<path d="M2520 1201 c0 -3 7 -14 14 -24 13 -16 14 -16 14 6 0 13 -6 24 -14 24
-8 0 -14 -3 -14 -6z"/>
<path d="M1892 1180 c-7 -11 -9 -20 -4 -20 4 0 13 9 20 20 7 11 9 20 4 20 -4
0 -13 -9 -20 -20z"/>
<path d="M790 1179 c0 -5 5 -7 10 -4 6 3 10 8 10 11 0 2 -4 4 -10 4 -5 0 -10
-5 -10 -11z"/>
<path d="M2627 1170 c3 -11 9 -20 14 -20 5 0 9 9 9 20 0 11 -6 20 -14 20 -9 0
-12 -7 -9 -20z"/>
<path d="M2276 1157 c3 -10 9 -15 12 -12 3 3 0 11 -7 18 -10 9 -11 8 -5 -6z"/>
<path d="M1390 1150 c20 -13 40 -13 40 0 0 6 -12 10 -27 10 -22 0 -25 -2 -13
-10z"/>
<path d="M2090 1144 c0 -8 5 -12 10 -9 6 4 8 11 5 16 -9 14 -15 11 -15 -7z"/>
<path d="M2137 1143 c-4 -3 -7 -13 -7 -21 0 -18 13 -7 16 13 2 17 1 18 -9 8z"/>
<path d="M2410 1140 c0 -5 5 -10 11 -10 5 0 7 5 4 10 -3 6 -8 10 -11 10 -2 0
-4 -4 -4 -10z"/>
<path d="M946 1125 c-9 -26 -7 -32 5 -12 6 10 9 21 6 23 -2 3 -7 -2 -11 -11z"/>
<path d="M1860 1132 c0 -5 7 -9 15 -9 8 0 15 4 15 9 0 4 -7 8 -15 8 -8 0 -15
-4 -15 -8z"/>
<path d="M2658 1118 c7 -7 12 -24 12 -39 0 -15 3 -30 8 -32 6 -4 7 25 3 71 0
6 -9 12 -18 12 -13 0 -14 -3 -5 -12z"/>
<path d="M2963 1115 c-3 -9 -3 -18 -1 -21 3 -3 8 4 11 16 6 23 -1 27 -10 5z"/>
<path d="M1862 1094 c-11 -12 -10 -15 2 -20 9 -3 16 -10 16 -16 0 -5 -4 -7 -8
-4 -4 2 -9 -4 -9 -15 -2 -21 5 -23 27 -9 8 5 10 10 4 10 -6 0 -10 16 -9 35 1
38 -3 42 -23 19z"/>
<path d="M2184 1086 c0 -13 4 -22 9 -19 10 6 9 31 -2 37 -5 3 -8 -5 -7 -18z"/>
<path d="M2570 1096 c0 -9 7 -16 16 -16 17 0 14 22 -4 28 -7 2 -12 -3 -12 -12z"/>
<path d="M1833 1068 c3 -9 0 -21 -6 -27 -8 -8 -7 -14 2 -23 11 -10 13 -10 7 0
-4 6 -3 12 1 12 13 0 13 39 1 46 -7 5 -9 2 -5 -8z"/>
<path d="M2143 1043 c-7 -2 -13 -11 -13 -19 0 -8 6 -11 15 -8 8 4 13 10 10 14
-3 5 1 11 7 13 7 3 9 5 3 5 -5 0 -16 -2 -22 -5z"/>
<path d="M737 993 c-38 -122 -50 -243 -24 -243 8 0 13 21 14 68 2 79 13 162
22 162 3 0 7 14 8 30 3 43 -3 37 -20 -17z"/>
<path d="M2184 1025 c3 -8 -2 -19 -12 -24 -20 -11 -10 -26 13 -18 17 7 21 57
4 57 -6 0 -9 -7 -5 -15z"/>
<path d="M2695 1031 c-6 -11 13 -26 22 -17 4 3 1 6 -6 6 -7 0 -9 5 -6 10 3 6
4 10 1 10 -3 0 -7 -4 -11 -9z"/>
<path d="M605 1021 c-3 -6 4 -8 16 -6 30 6 37 15 11 15 -11 0 -23 -4 -27 -9z"/>
<path d="M1253 1014 c-10 -7 -15 -16 -11 -20 4 -4 14 -2 21 5 9 7 24 8 43 2
68 -21 144 -33 175 -29 19 3 42 2 51 -3 10 -6 19 -5 23 2 4 5 18 14 32 20 13
5 22 13 18 19 -4 6 -15 6 -31 0 -33 -13 -152 -19 -183 -9 -69 21 -121 26 -138
13z"/>
<path d="M1804 1000 c0 -12 10 -21 24 -25 35 -9 37 0 5 23 -27 19 -29 19 -29
2z"/>
<path d="M2235 970 c-3 -5 1 -10 9 -10 9 0 16 5 16 10 0 6 -4 10 -9 10 -6 0
-13 -4 -16 -10z"/>
<path d="M2359 937 c-2 -25 0 -44 6 -44 11 0 14 72 3 82 -3 3 -7 -14 -9 -38z"/>
<path d="M2425 963 c4 -10 9 -49 10 -88 3 -88 2 -85 20 -85 19 0 19 10 -1 38
-11 16 -13 27 -6 35 12 15 -6 117 -20 117 -6 0 -7 -8 -3 -17z"/>
<path d="M1796 955 c4 -8 10 -12 15 -9 14 8 10 24 -6 24 -9 0 -12 -6 -9 -15z"/>
<path d="M1936 962 c-2 -4 -1 -14 5 -22 7 -12 9 -10 9 8 0 23 -5 28 -14 14z"/>
<path d="M1380 950 c0 -6 7 -10 15 -10 8 0 15 2 15 4 0 2 -7 6 -15 10 -8 3
-15 1 -15 -4z"/>
<path d="M1490 949 c-19 -5 -40 -6 -47 -4 -7 2 -15 -1 -19 -7 -7 -12 91 -7
103 6 11 11 -1 13 -37 5z"/>
<path d="M940 940 c0 -5 5 -10 11 -10 5 0 7 5 4 10 -3 6 -8 10 -11 10 -2 0 -4
-4 -4 -10z"/>
<path d="M2100 941 c0 -6 4 -13 10 -16 6 -3 7 1 4 9 -7 18 -14 21 -14 7z"/>
<path d="M1048 909 c2 -16 8 -29 12 -29 9 0 1 48 -9 55 -4 2 -5 -9 -3 -26z"/>
<path d="M1773 911 c6 -17 15 -27 20 -24 5 3 4 10 -1 15 -6 6 -8 17 -5 24 3 8
-1 14 -10 14 -13 0 -13 -5 -4 -29z"/>
<path d="M1814 929 c-3 -6 -2 -15 3 -20 5 -5 9 -1 9 11 0 23 -2 24 -12 9z"/>
<path d="M2180 930 c0 -5 4 -10 9 -10 6 0 13 5 16 10 3 6 -1 10 -9 10 -9 0
-16 -4 -16 -10z"/>
<path d="M2390 920 c6 -11 13 -20 16 -20 2 0 0 9 -6 20 -6 11 -13 20 -16 20
-2 0 0 -9 6 -20z"/>
<path d="M1845 910 c-3 -5 -1 -10 4 -10 6 0 11 5 11 10 0 6 -2 10 -4 10 -3 0
-8 -4 -11 -10z"/>
<path d="M2056 897 c3 -10 9 -15 12 -12 3 3 0 11 -7 18 -10 9 -11 8 -5 -6z"/>
<path d="M2253 895 c-15 -17 -3 -27 17 -15 10 6 11 12 5 19 -6 6 -14 4 -22 -4z"/>
<path d="M1355 888 c4 -9 22 -12 60 -10 70 5 64 17 -9 20 -41 2 -54 -1 -51
-10z"/>
<path d="M1750 890 c0 -5 5 -10 11 -10 5 0 7 5 4 10 -3 6 -8 10 -11 10 -2 0
-4 -4 -4 -10z"/>
<path d="M966 877 c3 -10 9 -15 12 -12 3 3 0 11 -7 18 -10 9 -11 8 -5 -6z"/>
<path d="M1101 874 c0 -11 3 -14 6 -6 3 7 2 16 -1 19 -3 4 -6 -2 -5 -13z"/>
<path d="M2120 878 c0 -11 12 -10 30 2 12 7 10 9 -8 7 -12 0 -22 -5 -22 -9z"/>
<path d="M639 863 c-1 -10 -1 -21 0 -25 0 -4 2 -32 3 -62 1 -36 7 -57 16 -61
7 -3 10 -9 7 -15 -3 -5 -2 -10 4 -10 10 0 34 -38 47 -72 3 -10 12 -18 19 -18
8 0 16 -10 18 -22 4 -21 4 -21 6 -2 0 11 -12 33 -28 48 -16 16 -27 35 -24 42
3 8 0 14 -6 14 -23 0 -50 83 -48 143 1 31 -1 57 -5 57 -5 0 -9 -8 -9 -17z"/>
<path d="M1799 879 c0 -2 -2 -13 -4 -25 -3 -12 1 -21 9 -21 13 0 15 31 3 43
-4 4 -7 5 -8 3z"/>
<path d="M2017 865 c-4 -8 -1 -17 6 -21 7 -4 9 -4 5 1 -4 4 -3 14 3 22 7 8 8
13 1 13 -5 0 -12 -7 -15 -15z"/>
<path d="M2291 866 c-8 -10 -9 -16 -1 -21 5 -3 13 1 16 10 9 22 -1 29 -15 11z"/>
<path d="M2360 876 c0 -2 7 -7 16 -10 8 -3 12 -2 9 4 -6 10 -25 14 -25 6z"/>
<path d="M2780 851 c0 -17 4 -32 8 -35 4 -2 7 11 7 30 0 19 -3 34 -7 34 -5 0
-8 -13 -8 -29z"/>
<path d="M1733 855 c-7 -8 -13 -18 -13 -23 0 -5 -11 -19 -24 -31 -17 -16 -24
-33 -23 -56 1 -29 3 -31 13 -17 8 11 9 23 3 34 -9 17 0 22 31 20 3 0 6 11 7
25 1 30 23 55 30 36 8 -21 22 -15 16 7 -6 23 -23 25 -40 5z"/>
<path d="M2242 793 c39 -81 56 -127 64 -178 2 -16 7 -46 11 -65 3 -19 6 -45 6
-57 0 -26 23 -39 31 -17 3 8 2 14 -3 14 -4 0 -7 10 -6 23 1 12 -1 27 -5 32 -4
6 -8 17 -9 25 -5 57 -11 83 -25 111 -9 17 -13 35 -10 40 3 5 -2 12 -11 15 -12
5 -13 9 -4 20 6 8 7 14 2 14 -8 0 -21 20 -41 64 -3 5 2 5 9 1 8 -5 5 1 -5 13
-39 45 -41 20 -4 -55z"/>
<path d="M2117 849 c7 -7 15 -10 18 -7 3 3 -2 9 -12 12 -14 6 -15 5 -6 -5z"/>
<path d="M2170 842 c0 -5 10 -17 21 -28 22 -19 22 -19 10 3 -12 24 -31 39 -31
25z"/>
<path d="M2506 823 c-4 -9 -2 -21 4 -27 7 -7 10 -2 10 17 0 31 -5 34 -14 10z"/>
<path d="M1741 818 c-1 -9 4 -20 10 -24 8 -4 7 -9 -2 -16 -10 -7 -9 -8 5 -4
11 4 23 1 28 -6 6 -11 8 -11 8 0 0 7 -7 15 -16 19 -9 3 -20 15 -24 27 -7 16
-9 17 -9 4z"/>
<path d="M1997 822 c-3 -4 3 -13 14 -20 10 -7 19 -8 19 -3 0 13 -28 33 -33 23z"/>
<path d="M2087 823 c-4 -3 -7 -11 -7 -17 0 -6 5 -5 12 2 6 6 9 14 7 17 -3 3
-9 2 -12 -2z"/>
<path d="M1775 810 c3 -5 8 -10 11 -10 2 0 4 5 4 10 0 6 -5 10 -11 10 -5 0 -7
-4 -4 -10z"/>
<path d="M2548 814 c-9 -9 15 -64 28 -64 7 0 18 -13 26 -30 9 -21 18 -28 30
-24 13 4 18 0 19 -13 2 -33 1 -78 -3 -88 -1 -6 1 -11 6 -12 5 -1 12 -7 17 -15
7 -10 11 -10 21 0 10 10 10 14 -1 22 -8 5 -16 23 -17 42 0 18 -2 45 -3 59 0
15 -7 27 -13 26 -37 -1 -47 7 -67 53 -20 47 -30 57 -43 44z"/>
<path d="M2182 779 c12 -16 28 -27 35 -25 12 5 17 -9 15 -44 0 -7 6 -26 14
-42 18 -34 18 -36 -3 -41 -16 -4 -16 -5 -1 -6 10 -1 19 -13 23 -31 11 -51 22
-33 14 23 -9 57 -46 164 -60 173 -5 3 -6 -2 -3 -10 3 -9 1 -16 -4 -16 -6 0
-13 9 -17 19 -3 11 -12 22 -20 25 -10 4 -8 -5 7 -25z"/>
<path d="M782 770 c0 -14 2 -19 5 -12 2 6 2 18 0 25 -3 6 -5 1 -5 -13z"/>
<path d="M2432 768 c2 -6 10 -14 16 -16 7 -2 10 2 6 12 -7 18 -28 22 -22 4z"/>
<path d="M2791 764 c0 -11 3 -14 6 -6 3 7 2 16 -1 19 -3 4 -6 -2 -5 -13z"/>
<path d="M925 760 c-3 -5 -1 -10 4 -10 6 0 11 5 11 10 0 6 -2 10 -4 10 -3 0
-8 -4 -11 -10z"/>
<path d="M1925 760 c-3 -6 1 -7 9 -4 18 7 21 14 7 14 -6 0 -13 -4 -16 -10z"/>
<path d="M1980 759 c-13 -9 -12 -10 3 -5 9 3 28 1 42 -4 13 -5 27 -6 29 -1 3
4 0 8 -7 8 -7 0 -21 3 -32 6 -11 4 -27 2 -35 -4z"/>
<path d="M2925 760 c-3 -5 -1 -10 4 -10 6 0 11 5 11 10 0 6 -2 10 -4 10 -3 0
-8 -4 -11 -10z"/>
<path d="M1063 707 l-23 -52 24 29 c23 28 40 76 27 76 -3 0 -16 -24 -28 -53z"/>
<path d="M2087 753 c-9 -9 12 -33 29 -33 8 0 14 -6 14 -14 0 -8 7 -16 15 -20
8 -3 15 -2 15 3 0 12 -35 41 -48 41 -7 0 -12 5 -12 11 0 5 5 7 12 3 7 -4 8 -3
4 4 -8 13 -19 15 -29 5z"/>
<path d="M2487 753 c-4 -3 -7 -15 -7 -26 0 -25 9 -17 15 12 4 22 2 25 -8 14z"/>
<path d="M2656 747 c3 -10 9 -15 12 -12 3 3 0 11 -7 18 -10 9 -11 8 -5 -6z"/>
<path d="M583 732 c14 -18 15 -54 2 -64 -5 -4 2 -8 18 -8 29 0 31 7 21 59 -5
24 -11 30 -30 29 -18 -2 -21 -5 -11 -16z"/>
<path d="M1650 736 c0 -8 -5 -16 -11 -18 -12 -4 -1 -38 13 -38 5 0 8 6 5 13
-2 6 0 20 4 29 6 10 5 19 -1 23 -5 3 -10 0 -10 -9z"/>
<path d="M1725 740 c3 -5 8 -10 11 -10 2 0 4 5 4 10 0 6 -5 10 -11 10 -5 0 -7
-4 -4 -10z"/>
<path d="M2165 739 c-4 -6 -4 -13 -1 -16 3 -4 6 -1 6 6 0 7 5 9 12 5 7 -4 8
-3 4 4 -9 15 -13 15 -21 1z"/>
<path d="M967 725 c3 -8 9 -12 14 -9 12 7 11 11 -5 17 -10 4 -13 1 -9 -8z"/>
<path d="M1990 732 c0 -4 10 -13 23 -21 22 -14 22 -14 3 8 -20 22 -26 25 -26
13z"/>
<path d="M2202 724 c-7 -8 -8 -14 -3 -14 10 0 25 19 20 25 -2 1 -10 -3 -17
-11z"/>
<path d="M2550 722 c0 -12 4 -22 9 -22 4 0 7 -12 5 -27 -2 -18 -1 -20 3 -8 3
11 10 23 17 27 7 5 4 15 -11 30 l-23 22 0 -22z"/>
<path d="M1976 701 c16 -33 34 -49 34 -32 0 6 -4 11 -10 11 -5 0 -10 6 -10 14
0 7 -7 19 -15 26 -12 10 -12 7 1 -19z"/>
<path d="M2061 720 c0 -14 28 -72 29 -59 0 4 -7 22 -15 40 -8 19 -14 27 -14
19z"/>
<path d="M2810 720 c0 -13 18 -22 24 -11 3 5 -1 11 -9 15 -8 3 -15 1 -15 -4z"/>
<path d="M800 713 c0 -5 6 -15 13 -24 11 -15 14 -14 30 7 10 13 14 24 8 24 -5
0 -12 -6 -15 -12 -5 -10 -7 -10 -12 0 -6 13 -24 17 -24 5z"/>
<path d="M1906 706 c6 -16 16 -20 44 -17 10 1 7 -5 -8 -17 -26 -20 -21 -28 28
-51 l25 -12 -22 20 c-26 22 -31 46 -8 38 12 -5 12 -2 3 19 -7 15 -17 23 -26
19 -8 -3 -21 0 -28 6 -12 10 -13 9 -8 -5z"/>
<path d="M2510 709 c0 -5 5 -7 10 -4 6 3 10 8 10 11 0 2 -4 4 -10 4 -5 0 -10
-5 -10 -11z"/>
<path d="M1101 692 c-1 -13 -6 -32 -12 -44 -13 -25 -8 -32 14 -15 13 9 14 19
8 47 -7 25 -9 29 -10 12z"/>
<path d="M1380 706 c0 -2 7 -6 15 -10 8 -3 15 -1 15 4 0 6 -7 10 -15 10 -8 0
-15 -2 -15 -4z"/>
<path d="M1423 695 c0 -8 4 -12 9 -9 4 3 8 9 8 15 0 5 -4 9 -8 9 -5 0 -9 -7
-9 -15z"/>
<path d="M1746 697 c3 -10 9 -15 12 -12 3 3 0 11 -7 18 -10 9 -11 8 -5 -6z"/>
<path d="M741 684 c0 -11 3 -14 6 -6 3 7 2 16 -1 19 -3 4 -6 -2 -5 -13z"/>
<path d="M1610 685 c-11 -13 -10 -14 5 -9 11 5 16 4 12 -3 -3 -5 0 -10 8 -10
12 0 12 3 3 16 -7 9 -13 17 -14 19 -1 1 -7 -4 -14 -13z"/>
<path d="M780 671 c0 -11 -3 -28 -6 -38 -4 -14 -4 -15 4 -3 17 27 24 60 13 60
-6 0 -11 -9 -11 -19z"/>
<path d="M996 673 c-6 -14 -5 -15 5 -6 7 7 10 15 7 18 -3 3 -9 -2 -12 -12z"/>
<path d="M1386 663 c-6 -14 -5 -15 5 -6 7 7 10 15 7 18 -3 3 -9 -2 -12 -12z"/>
<path d="M1670 676 c0 -2 8 -10 18 -17 15 -13 16 -12 3 4 -13 16 -21 21 -21
13z"/>
<path d="M2140 662 c6 -13 14 -21 18 -18 3 4 -2 14 -12 24 -18 16 -18 16 -6
-6z"/>
<path d="M2505 670 c3 -5 14 -10 23 -10 15 0 15 2 2 10 -20 13 -33 13 -25 0z"/>
<path d="M2817 674 c-4 -4 -7 -14 -7 -23 0 -11 3 -12 11 -4 6 6 10 16 7 23 -2
6 -7 8 -11 4z"/>
<path d="M921 649 c-13 -10 -19 -19 -15 -19 13 1 48 29 43 34 -2 2 -15 -4 -28
-15z"/>
<path d="M1579 653 c-1 -5 -1 -11 0 -15 0 -5 -6 -8 -14 -8 -16 0 -38 -34 -28
-44 10 -10 33 -7 33 5 0 5 -4 7 -10 4 -5 -3 -10 -1 -10 4 0 6 7 11 15 11 8 0
15 4 15 9 0 5 7 17 16 25 14 15 14 16 0 16 -9 0 -17 -3 -17 -7z"/>
<path d="M2061 644 c0 -11 3 -14 6 -6 3 7 2 16 -1 19 -3 4 -6 -2 -5 -13z"/>
<path d="M603 630 c-1 -11 2 -20 6 -20 5 0 11 9 14 20 3 12 0 20 -7 20 -6 0
-12 -9 -13 -20z"/>
<path d="M800 641 c0 -6 4 -13 10 -16 6 -3 7 1 4 9 -7 18 -14 21 -14 7z"/>
<path d="M1340 639 c0 -5 5 -7 10 -4 6 3 10 8 10 11 0 2 -4 4 -10 4 -5 0 -10
-5 -10 -11z"/>
<path d="M1650 640 c0 -5 5 -10 11 -10 5 0 7 5 4 10 -3 6 -8 10 -11 10 -2 0
-4 -4 -4 -10z"/>
<path d="M1840 641 c0 -8 -6 -11 -16 -7 -14 6 -15 4 -4 -9 12 -15 14 -15 23 0
5 9 6 19 3 22 -3 4 -6 1 -6 -6z"/>
<path d="M2115 640 c-3 -5 -1 -10 4 -10 6 0 11 5 11 10 0 6 -2 10 -4 10 -3 0
-8 -4 -11 -10z"/>
<path d="M970 619 c-7 -11 -10 -23 -7 -25 2 -2 9 7 15 21 14 30 7 33 -8 4z"/>
<path d="M1035 620 c-10 -11 -16 -22 -13 -25 3 -3 13 6 22 20 20 30 16 32 -9
5z"/>
<path d="M1397 633 c-4 -3 -7 -11 -7 -17 0 -6 5 -5 12 2 6 6 9 14 7 17 -3 3
-9 2 -12 -2z"/>
<path d="M1450 629 c0 -5 5 -7 10 -4 6 3 10 8 10 11 0 2 -4 4 -10 4 -5 0 -10
-5 -10 -11z"/>
<path d="M1887 621 c23 -22 39 -28 28 -11 -3 5 -16 15 -28 21 l-22 11 22 -21z"/>
<path d="M2013 627 c-3 -6 -1 -7 4 -4 6 4 13 0 16 -7 3 -8 2 -16 -3 -18 -5 -2
2 -8 16 -15 25 -12 25 -12 9 13 -9 13 -14 28 -11 33 3 4 -2 8 -10 8 -8 0 -18
-5 -21 -10z"/>
<path d="M2484 625 c1 -8 7 -20 14 -27 8 -8 9 -5 5 11 -6 25 -22 38 -19 16z"/>
<path d="M650 616 c0 -9 5 -16 10 -16 6 0 10 4 10 9 0 6 -4 13 -10 16 -5 3
-10 -1 -10 -9z"/>
<path d="M676 606 c-16 -25 -10 -41 10 -28 9 6 17 52 10 52 -2 0 -11 -11 -20
-24z"/>
<path d="M1605 621 c-3 -5 -1 -12 5 -16 5 -3 10 1 10 9 0 18 -6 21 -15 7z"/>
<path d="M2580 620 c0 -5 5 -10 10 -10 6 0 10 5 10 10 0 6 -4 10 -10 10 -5 0
-10 -4 -10 -10z"/>
<path d="M2795 619 c-11 -17 1 -21 15 -4 8 9 8 15 2 15 -6 0 -14 -5 -17 -11z"/>
<path d="M864 606 c-10 -8 -16 -17 -13 -20 3 -3 14 3 24 14 21 23 17 26 -11 6z"/>
<path d="M2074 610 c2 -16 20 -14 24 2 3 10 2 10 -6 -1 -7 -9 -11 -10 -15 -2
-4 7 -5 8 -3 1z"/>
<path d="M2545 604 c9 -9 24 -34 33 -55 9 -22 20 -39 24 -39 5 0 8 -7 8 -15 0
-8 4 -15 8 -15 5 0 14 -10 20 -22 10 -23 11 -23 11 5 1 15 -3 27 -7 27 -5 0
-27 29 -50 65 -23 36 -46 65 -52 65 -6 0 -4 -7 5 -16z"/>
<path d="M2207 590 c-22 -26 -23 -65 -2 -56 9 3 15 0 15 -9 0 -7 5 -17 10 -20
7 -4 9 2 5 18 -4 14 -2 28 4 31 6 4 11 15 10 24 0 14 -2 13 -9 -3 -9 -20 -15
-7 -11 23 2 17 -2 15 -22 -8z"/>
<path d="M631 582 c-1 -23 34 -46 54 -34 5 3 -3 10 -17 14 -15 5 -29 17 -31
26 -3 12 -5 10 -6 -6z"/>
<path d="M1797 589 c7 -7 15 -10 18 -7 3 3 -2 9 -12 12 -14 6 -15 5 -6 -5z"/>
<path d="M1876 585 c-3 -8 -1 -17 5 -20 5 -4 7 -11 4 -16 -7 -10 6 -12 29 -3
9 3 16 11 16 16 0 7 -5 6 -14 -1 -10 -8 -16 -8 -25 3 -9 11 -9 15 1 18 8 3 9
6 1 11 -6 4 -13 0 -17 -8z"/>
<path d="M1970 594 c0 -1 6 -7 14 -13 10 -9 15 -8 19 2 3 8 -3 13 -14 13 -11
0 -19 -1 -19 -2z"/>
<path d="M2411 584 c0 -11 3 -14 6 -6 3 7 2 16 -1 19 -3 4 -6 -2 -5 -13z"/>
<path d="M776 552 c-4 -24 -6 -46 -2 -49 8 -8 18 42 14 68 -3 18 -6 13 -12
-19z"/>
<path d="M969 562 l-24 -27 28 24 c28 26 34 23 17 -10 -15 -27 -5 -24 13 5 24
36 -4 42 -34 8z"/>
<path d="M830 569 c0 -5 -4 -7 -10 -4 -5 3 -10 2 -10 -3 0 -6 7 -12 15 -16 10
-4 15 1 15 14 0 11 -2 20 -5 20 -3 0 -5 -5 -5 -11z"/>
<path d="M1193 549 c-24 -17 -43 -33 -43 -36 0 -3 7 0 15 7 8 6 20 8 26 4 7
-4 9 -3 5 4 -3 6 2 13 13 17 20 6 49 35 35 35 -5 -1 -28 -14 -51 -31z"/>
<path d="M2024 552 c3 -35 22 -69 32 -59 5 5 3 12 -5 16 -7 5 -11 21 -9 36 1
16 -2 30 -8 32 -7 2 -11 -7 -10 -25z"/>
<path d="M716 554 c-3 -9 -4 -20 -1 -25 3 -5 1 -18 -5 -29 -9 -16 -8 -18 5
-14 10 4 15 19 15 45 0 42 -4 49 -14 23z"/>
<path d="M1498 563 c7 -3 16 -2 19 1 4 3 -2 6 -13 5 -11 0 -14 -3 -6 -6z"/>
<path d="M1761 562 c-1 -8 -6 -10 -13 -6 -10 6 -10 4 -2 -7 6 -8 13 -21 16
-29 4 -11 8 -9 17 9 7 13 8 21 3 17 -6 -3 -13 2 -15 11 -3 10 -5 12 -6 5z"/>
<path d="M1960 550 c13 -23 20 -26 20 -6 0 8 -7 16 -15 20 -13 4 -14 2 -5 -14z"/>
<path d="M2515 561 c-3 -5 -1 -12 5 -16 5 -3 10 1 10 9 0 18 -6 21 -15 7z"/>
<path d="M2865 531 c0 -22 3 -37 8 -34 9 6 9 45 -1 60 -5 7 -8 -4 -7 -26z"/>
<path d="M2422 540 c0 -14 2 -19 5 -12 2 6 2 18 0 25 -3 6 -5 1 -5 -13z"/>
<path d="M2610 550 c0 -5 5 -10 10 -10 6 0 10 5 10 10 0 6 -4 10 -10 10 -5 0
-10 -4 -10 -10z"/>
<path d="M2650 550 c0 -5 5 -10 10 -10 6 0 10 5 10 10 0 6 -4 10 -10 10 -5 0
-10 -4 -10 -10z"/>
<path d="M2947 539 c4 -13 8 -18 11 -10 2 7 -1 18 -6 23 -8 8 -9 4 -5 -13z"/>
<path d="M1713 525 c15 -13 27 -32 27 -42 0 -15 2 -16 10 -3 7 11 2 22 -20 43
-16 15 -33 27 -37 27 -4 0 4 -12 20 -25z"/>
<path d="M1846 522 c7 -14 10 -30 7 -36 -4 -7 -2 -7 6 0 15 14 5 61 -13 61
-11 0 -11 -5 0 -25z"/>
<path d="M2276 535 c4 -8 10 -15 15 -15 4 0 6 7 3 15 -4 8 -10 15 -15 15 -4 0
-6 -7 -3 -15z"/>
<path d="M800 536 c0 -2 7 -7 16 -10 8 -3 12 -2 9 4 -6 10 -25 14 -25 6z"/>
<path d="M912 528 c-5 -7 -17 -29 -26 -48 -15 -31 -15 -33 -1 -15 19 23 48 75
41 75 -2 0 -8 -6 -14 -12z"/>
<path d="M1430 527 c0 -19 10 -27 26 -20 11 4 12 9 3 19 -15 18 -29 18 -29 1z"/>
<path d="M1970 510 c-23 -25 -27 -26 -43 -12 -31 27 -28 7 4 -24 22 -21 28
-24 23 -10 -5 13 -4 17 4 12 8 -5 10 -1 5 10 -4 12 -3 15 5 10 7 -4 12 -2 12
4 0 7 9 9 23 5 12 -3 17 -3 11 2 -6 4 -13 13 -15 19 -2 6 -15 -1 -29 -16z"/>
<path d="M2123 514 c0 -16 2 -21 7 -14 6 9 11 7 19 -9 10 -17 9 -22 -3 -27 -8
-3 -12 -12 -9 -20 4 -10 0 -12 -11 -8 -9 3 -16 15 -16 25 0 10 -4 19 -9 19 -6
0 -6 -12 -1 -29 6 -22 5 -31 -6 -35 -9 -3 -12 -1 -9 4 3 6 2 10 -3 10 -16 0
-22 -13 -11 -26 8 -9 6 -11 -9 -7 -12 3 -22 -2 -26 -12 -3 -9 -11 -13 -17 -9
-7 4 -10 1 -7 -7 3 -8 13 -13 23 -11 17 3 17 3 1 -14 -12 -12 -20 -14 -25 -6
-4 7 -11 4 -20 -9 -7 -12 -8 -18 -3 -15 6 3 13 0 15 -6 4 -10 8 -9 16 2 6 8
11 10 11 5 0 -17 -21 -34 -36 -28 -8 3 -14 0 -14 -7 0 -6 -5 -8 -11 -4 -8 4
-9 0 -4 -15 3 -11 3 -21 -2 -21 -10 0 -10 -86 0 -96 7 -7 12 24 9 58 -1 10 4
15 12 12 9 -4 11 3 8 26 -4 29 11 42 21 18 8 -18 27 11 20 29 -3 7 -1 13 5 13
5 0 9 8 8 18 0 9 5 16 12 15 6 -2 12 6 12 17 0 11 -4 20 -10 20 -5 0 -10 5
-10 11 0 8 5 7 16 -2 14 -11 18 -11 29 4 6 9 15 14 18 10 4 -3 7 2 7 13 0 16
2 16 10 4 8 -12 10 -12 16 3 3 9 16 18 28 18 16 1 17 2 4 6 -10 2 -18 9 -18
15 0 6 9 8 20 5 13 -3 20 0 20 10 0 9 6 13 15 9 13 -4 14 -2 5 14 -17 31 -47
43 -58 24 -8 -15 -11 -14 -24 5 l-15 22 0 -27z m61 -19 c-6 -16 -24 -21 -24
-7 0 11 11 22 21 22 5 0 6 -7 3 -15z"/>
<path d="M2750 532 c0 -12 19 -26 26 -19 2 2 -2 10 -11 17 -9 8 -15 8 -15 2z"/>
<path d="M660 520 c0 -5 4 -10 9 -10 6 0 13 5 16 10 3 6 -1 10 -9 10 -9 0 -16
-4 -16 -10z"/>
<path d="M975 512 c-5 -4 -17 -16 -25 -27 -11 -15 -7 -14 13 4 24 22 32 31 25
31 -2 0 -7 -4 -13 -8z"/>
<path d="M1808 513 c6 -2 12 -14 12 -24 0 -11 5 -17 10 -14 13 8 -6 45 -23 44
-9 0 -9 -2 1 -6z"/>
<path d="M782 492 c-18 -14 -23 -29 -25 -82 -2 -36 -10 -85 -19 -110 -36 -104
-41 -128 -44 -205 l-2 -80 18 53 c11 29 16 60 13 69 -5 12 -3 14 8 8 11 -7 12
-6 2 6 -16 20 12 123 51 193 25 45 25 47 6 41 -20 -6 -20 -6 1 29 23 39 20 46
-7 19 -17 -17 -18 -17 -11 0 4 10 7 26 7 35 0 14 2 14 9 3 7 -11 10 -9 16 8 9
30 4 33 -23 13z"/>
<path d="M1180 490 c-14 -11 -20 -20 -14 -20 14 0 50 27 44 33 -3 3 -16 -3
-30 -13z"/>
<path d="M1385 500 c3 -5 10 -10 16 -10 5 0 9 5 9 10 0 6 -7 10 -16 10 -8 0
-12 -4 -9 -10z"/>
<path d="M2287 504 c-3 -4 -4 -18 0 -32 4 -19 3 -23 -7 -17 -10 6 -12 4 -7 -8
3 -9 1 -18 -6 -20 -9 -3 -8 -8 2 -18 9 -9 11 -9 7 -1 -4 6 -3 12 3 12 5 0 11
-6 14 -12 2 -7 6 6 8 29 5 45 -2 79 -14 67z"/>
<path d="M2540 498 c0 -10 -4 -18 -10 -18 -5 0 -10 -8 -10 -17 1 -16 2 -16 15
1 8 11 15 15 15 9 0 -15 31 -26 43 -14 6 6 2 9 -9 8 -10 -1 -23 9 -31 23 -9
18 -13 20 -13 8z"/>
<path d="M1660 490 c0 -5 5 -10 10 -10 6 0 10 5 10 10 0 6 -4 10 -10 10 -5 0
-10 -4 -10 -10z"/>
<path d="M1710 486 c14 -18 13 -19 -2 -13 -20 7 -23 0 -9 -22 7 -11 11 -10 20
7 8 16 7 23 -7 33 -16 13 -16 13 -2 -5z"/>
<path d="M830 449 c-29 -56 -20 -58 13 -4 14 25 22 45 17 45 -5 0 -19 -18 -30
-41z"/>
<path d="M1791 473 c7 -10 15 -20 16 -22 2 -2 3 3 3 11 0 9 -7 19 -16 22 -15
6 -15 4 -3 -11z"/>
<path d="M1884 481 c3 -5 -1 -12 -10 -15 -8 -3 -12 -11 -9 -17 5 -6 12 -4 21
8 16 22 18 33 3 33 -5 0 -8 -4 -5 -9z"/>
<path d="M978 455 c-25 -34 -22 -53 3 -21 11 14 25 23 31 20 6 -4 9 -1 6 6 -7
23 -22 21 -40 -5z"/>
<path d="M1225 469 c-4 -6 -5 -12 -2 -15 2 -3 7 2 10 11 7 17 1 20 -8 4z"/>
<path d="M1640 471 c0 -5 7 -11 15 -15 8 -3 15 -1 15 3 0 5 -7 11 -15 15 -8 3
-15 1 -15 -3z"/>
<path d="M1770 461 c0 -6 4 -13 10 -16 6 -3 7 1 4 9 -7 18 -14 21 -14 7z"/>
<path d="M2825 440 c8 -16 15 -35 15 -43 0 -20 27 -29 34 -11 3 8 -1 14 -10
14 -8 0 -12 5 -9 10 3 6 2 10 -3 10 -6 0 -13 11 -16 25 -4 14 -11 25 -16 25
-6 0 -4 -13 5 -30z"/>
<path d="M720 455 c0 -5 5 -17 10 -25 5 -8 10 -10 10 -5 0 6 -5 17 -10 25 -5
8 -10 11 -10 5z"/>
<path d="M1021 433 c-10 -26 -10 -27 4 -9 8 11 15 23 15 28 0 15 -7 8 -19 -19z"/>
<path d="M2670 456 c0 -2 7 -9 15 -16 9 -7 15 -8 15 -2 0 5 -7 12 -15 16 -8 3
-15 4 -15 2z"/>
<path d="M555 440 c3 -5 8 -10 11 -10 2 0 4 5 4 10 0 6 -5 10 -11 10 -5 0 -7
-4 -4 -10z"/>
<path d="M889 422 c-40 -20 -49 -30 -68 -79 -12 -31 -20 -57 -18 -59 2 -2 16
22 33 54 20 39 35 56 46 54 9 -1 22 7 29 19 8 16 13 18 19 9 4 -7 10 -8 13 -3
15 24 -12 26 -54 5z"/>
<path d="M2334 433 c1 -24 18 -42 33 -36 9 4 8 11 -5 29 -20 28 -30 30 -28 7z"/>
<path d="M2550 435 c7 -8 17 -15 22 -15 6 0 5 7 -2 15 -7 8 -17 15 -22 15 -6
0 -5 -7 2 -15z"/>
<path d="M2741 428 c-1 -16 4 -28 9 -28 12 0 12 8 0 35 -8 18 -9 17 -9 -7z"/>
<path d="M684 420 c3 -14 6 -32 6 -40 1 -8 6 -4 11 9 7 19 6 28 -7 40 -15 15
-16 14 -10 -9z"/>
<path d="M1672 419 c2 -14 11 -25 23 -27 11 -3 17 -1 13 3 -4 5 -2 15 5 23 10
13 9 14 -12 3 -13 -7 -21 -8 -17 -3 3 6 1 14 -5 17 -7 5 -9 -1 -7 -16z"/>
<path d="M1805 429 c-5 -8 -5 -11 0 -7 11 11 38 -29 29 -44 -4 -7 -3 -8 4 -4
16 10 15 17 -7 45 -14 19 -20 21 -26 10z"/>
<path d="M1921 434 c-1 -6 5 -17 13 -23 11 -9 15 -8 20 5 8 21 8 24 -5 24 -5
0 -7 -4 -4 -10 3 -5 2 -10 -4 -10 -5 0 -12 6 -14 13 -4 7 -6 8 -6 1z"/>
<path d="M1510 421 c0 -6 4 -13 10 -16 6 -3 7 1 4 9 -7 18 -14 21 -14 7z"/>
<path d="M1640 420 c0 -5 5 -10 11 -10 5 0 7 5 4 10 -3 6 -8 10 -11 10 -2 0
-4 -4 -4 -10z"/>
<path d="M1735 420 c-8 -12 12 -50 27 -50 6 0 3 9 -7 20 -10 11 -15 23 -11 27
4 4 11 1 16 -7 8 -13 10 -12 10 3 0 18 -25 24 -35 7z"/>
<path d="M1887 409 c-4 -16 -3 -18 9 -8 7 6 11 15 8 20 -8 13 -11 11 -17 -12z"/>
<path d="M484 360 c3 -36 8 -80 12 -99 6 -28 5 -33 -7 -26 -11 7 -12 6 -3 -6
7 -8 14 -23 17 -34 3 -11 5 27 3 85 -1 58 -8 114 -14 125 -9 16 -11 8 -8 -45z"/>
<path d="M2200 416 c0 -2 7 -7 16 -10 8 -3 12 -2 9 4 -6 10 -25 14 -25 6z"/>
<path d="M2584 405 c-5 -12 -10 -13 -20 -4 -11 9 -14 8 -14 -4 0 -16 32 -29
46 -18 12 8 14 41 3 41 -5 0 -12 -7 -15 -15z"/>
<path d="M2680 411 c0 -6 5 -13 10 -16 6 -3 10 1 10 9 0 9 -4 16 -10 16 -5 0
-10 -4 -10 -9z"/>
<path d="M2646 402 c-3 -5 1 -15 9 -22 16 -14 20 -3 6 19 -5 8 -11 9 -15 3z"/>
<path d="M535 390 c-3 -5 -1 -10 4 -10 6 0 11 5 11 10 0 6 -2 10 -4 10 -3 0
-8 -4 -11 -10z"/>
<path d="M897 352 c-15 -27 -27 -58 -26 -68 0 -12 6 -5 14 16 7 19 14 29 14
22 1 -7 6 -10 12 -6 8 4 7 9 -2 15 -11 6 -10 12 5 28 10 11 16 25 14 31 -2 7
-16 -10 -31 -38z"/>
<path d="M986 385 c-3 -8 -1 -15 4 -15 6 0 10 7 10 15 0 8 -2 15 -4 15 -2 0
-6 -7 -10 -15z"/>
<path d="M1656 388 c5 -7 1 -9 -12 -6 -14 4 -20 0 -20 -13 0 -13 4 -15 17 -8
22 11 29 11 29 0 0 -5 -9 -12 -19 -16 -12 -4 -18 -12 -14 -20 3 -8 9 -12 15
-9 5 3 7 9 4 12 -3 3 3 11 14 19 17 12 18 17 7 33 -6 11 -15 20 -20 20 -4 0
-5 -5 -1 -12z"/>
<path d="M2293 390 c-28 -11 -30 -20 -4 -20 10 0 21 7 25 15 3 8 4 15 3 14 -1
0 -12 -4 -24 -9z"/>
<path d="M2332 380 c0 -14 2 -19 5 -12 2 6 2 18 0 25 -3 6 -5 1 -5 -13z"/>
<path d="M2720 393 c0 -6 8 -17 18 -24 16 -13 16 -13 2 6 -8 11 -16 22 -17 24
-2 2 -3 0 -3 -6z"/>
<path d="M1900 385 c0 -5 5 -17 10 -25 5 -8 10 -10 10 -5 0 6 -5 17 -10 25 -5
8 -10 11 -10 5z"/>
<path d="M2760 380 c0 -5 5 -10 11 -10 5 0 7 5 4 10 -3 6 -8 10 -11 10 -2 0
-4 -4 -4 -10z"/>
<path d="M1262 288 c0 -54 4 -95 9 -93 7 5 9 20 10 90 0 17 -4 46 -10 65 -8
29 -9 18 -9 -62z"/>
<path d="M1560 376 c0 -2 8 -10 18 -17 15 -13 16 -12 3 4 -13 16 -21 21 -21
13z"/>
<path d="M1873 372 c-7 -4 -9 -13 -4 -21 6 -10 10 -9 15 5 8 20 4 25 -11 16z"/>
<path d="M2604 365 c-10 -8 -14 -15 -8 -15 6 0 17 7 24 15 16 19 9 19 -16 0z"/>
<path d="M555 360 c-3 -5 -3 -10 2 -10 4 0 1 -4 -7 -10 -8 -5 -12 -11 -9 -15
3 -3 15 3 27 13 12 11 19 22 15 26 -9 9 -21 7 -28 -4z"/>
<path d="M1722 356 c7 -8 15 -12 17 -11 5 6 -10 25 -20 25 -5 0 -4 -6 3 -14z"/>
<path d="M1805 350 c21 -24 26 -25 19 -6 -3 8 -13 17 -22 21 -13 5 -13 2 3
-15z"/>
<path d="M2244 358 c-3 -5 -12 -7 -20 -4 -7 3 -16 1 -19 -5 -4 -5 -11 -7 -16
-4 -5 4 -9 1 -9 -6 0 -7 -3 -10 -6 -6 -3 3 -14 -3 -25 -14 -23 -23 -58 -27
-40 -5 9 10 8 15 -2 19 -11 4 -13 -2 -11 -23 2 -16 -3 -36 -11 -44 -8 -8 -15
-19 -15 -25 0 -6 -3 -10 -7 -8 -5 1 -8 0 -8 -3 0 -3 -10 -17 -23 -30 -13 -14
-31 -37 -40 -52 -10 -18 -25 -28 -39 -28 -13 0 -23 -5 -23 -11 0 -5 -4 -7 -10
-4 -5 3 -10 1 -10 -4 0 -15 27 -14 33 2 2 6 8 8 13 4 11 -11 -26 -78 -39 -70
-6 3 -7 1 -3 -5 9 -15 36 -4 36 14 0 8 7 17 16 21 8 3 13 11 10 18 -2 7 9 28
25 46 16 18 29 36 29 40 0 9 48 65 88 105 12 12 48 34 78 48 49 23 61 25 110
17 66 -10 59 3 -9 17 -30 6 -49 6 -53 0z"/>
<path d="M1951 344 c0 -11 3 -14 6 -6 3 7 2 16 -1 19 -3 4 -6 -2 -5 -13z"/>
<path d="M1068 333 c-23 -12 -28 -21 -28 -53 0 -33 3 -39 20 -37 12 1 20 8 20
19 0 10 6 18 13 18 8 0 7 3 -3 10 -12 8 -12 11 3 28 31 34 21 40 -25 15z"/>
<path d="M1600 341 c0 -5 5 -13 10 -16 6 -3 10 -2 10 4 0 5 -4 13 -10 16 -5 3
-10 2 -10 -4z"/>
<path d="M702 320 c0 -14 2 -19 5 -12 2 6 2 18 0 25 -3 6 -5 1 -5 -13z"/>
<path d="M948 303 c-1 -21 -2 -48 -2 -59 0 -14 -5 -20 -13 -17 -8 3 -13 -3
-13 -16 0 -24 26 -91 34 -91 7 0 -1 67 -9 79 -3 5 -1 11 4 13 5 1 11 17 14 33
3 17 8 38 12 47 4 11 1 24 -9 33 -15 15 -16 13 -18 -22z"/>
<path d="M1230 321 c-12 -24 -13 -34 -1 -27 9 6 22 46 15 46 -2 0 -8 -9 -14
-19z"/>
<path d="M1545 330 c3 -5 8 -10 11 -10 2 0 4 5 4 10 0 6 -5 10 -11 10 -5 0 -7
-4 -4 -10z"/>
<path d="M1685 330 c-3 -5 -1 -10 4 -10 6 0 11 5 11 10 0 6 -2 10 -4 10 -3 0
-8 -4 -11 -10z"/>
<path d="M2665 311 c4 -21 2 -38 -7 -49 -12 -15 -11 -16 4 -4 14 11 17 9 23
-18 4 -17 9 -29 12 -26 7 7 -19 116 -30 123 -5 3 -6 -7 -2 -26z"/>
<path d="M2803 324 c0 -8 6 -14 14 -14 7 0 13 4 13 9 0 5 -6 11 -13 14 -8 3
-14 -1 -14 -9z"/>
<path d="M927 309 c-3 -11 -10 -18 -15 -15 -6 3 -13 -1 -16 -10 -3 -8 -2 -12
4 -9 5 3 7 -10 4 -32 -3 -28 -2 -33 4 -18 17 37 34 96 29 101 -2 3 -7 -5 -10
-17z"/>
<path d="M1780 319 c0 -5 5 -7 10 -4 6 3 10 8 10 11 0 2 -4 4 -10 4 -5 0 -10
-5 -10 -11z"/>
<path d="M2587 323 c-12 -12 -7 -22 8 -17 8 4 15 10 15 15 0 11 -14 12 -23 2z"/>
<path d="M2700 321 c0 -5 5 -13 10 -16 6 -3 10 -2 10 4 0 5 -4 13 -10 16 -5 3
-10 2 -10 -4z"/>
<path d="M787 313 c-15 -26 -38 -116 -35 -135 4 -22 5 -21 17 7 7 17 17 38 22
47 13 26 11 32 -6 18 -13 -11 -13 -8 1 25 8 20 13 39 11 42 -3 2 -7 1 -10 -4z"/>
<path d="M1160 311 c0 -6 4 -13 10 -16 6 -3 7 1 4 9 -7 18 -14 21 -14 7z"/>
<path d="M2240 301 c-13 -13 -12 -14 4 -8 10 4 22 7 27 7 5 0 9 4 9 8 0 14
-25 10 -40 -7z"/>
<path d="M2370 310 c1 -3 12 -18 26 -35 17 -20 22 -23 15 -8 -6 12 -9 28 -6
35 4 9 -2 14 -15 14 -11 0 -20 -3 -20 -6z"/>
<path d="M1688 303 c-10 -2 -18 -8 -18 -13 0 -18 13 -40 23 -40 7 0 7 4 -1 12
-19 19 -14 30 7 19 16 -9 18 -8 14 9 -3 11 -6 19 -7 19 0 -1 -9 -3 -18 -6z"/>
<path d="M2303 302 c-8 -5 -9 -13 -3 -22 8 -13 10 -12 10 2 0 12 5 15 17 11
11 -4 14 -3 9 5 -8 14 -16 15 -33 4z"/>
<path d="M2897 289 c6 -20 23 -27 23 -9 0 6 1 13 3 17 1 3 -5 7 -14 8 -12 2
-15 -3 -12 -16z"/>
<path d="M817 233 c-25 -115 -18 -259 11 -228 4 4 2 10 -5 12 -7 2 -9 15 -6
31 3 15 5 35 4 45 0 9 -2 25 -2 35 -1 9 4 50 11 90 15 94 7 104 -13 15z"/>
<path d="M1497 294 c-8 -8 3 -34 15 -34 6 0 6 6 -1 14 -9 11 -9 15 1 19 7 3 8
6 2 6 -6 1 -13 -2 -17 -5z"/>
<path d="M1583 286 c15 -12 15 -15 2 -26 -17 -14 -20 -40 -5 -40 6 0 10 9 10
21 0 13 4 18 13 13 6 -4 8 -3 4 1 -4 5 3 15 15 23 l23 13 -22 -4 c-13 -3 -26
-1 -29 4 -3 5 -11 9 -17 9 -7 0 -4 -7 6 -14z"/>
<path d="M1764 275 c3 -16 12 -35 19 -43 13 -12 15 -10 15 13 0 19 -3 23 -9
14 -5 -8 -9 -12 -10 -9 -6 34 -8 43 -14 48 -3 4 -4 -7 -1 -23z"/>
<path d="M2170 290 c-13 -8 -12 -10 3 -10 9 0 17 5 17 10 0 12 -1 12 -20 0z"/>
<path d="M2596 291 c-3 -5 3 -11 14 -14 13 -3 20 0 20 9 0 15 -26 19 -34 5z"/>
<path d="M1151 274 c0 -11 3 -14 6 -6 3 7 2 16 -1 19 -3 4 -6 -2 -5 -13z"/>
<path d="M1840 281 c0 -6 4 -13 10 -16 6 -3 7 1 4 9 -7 18 -14 21 -14 7z"/>
<path d="M580 269 c0 -5 5 -7 10 -4 6 3 10 8 10 11 0 2 -4 4 -10 4 -5 0 -10
-5 -10 -11z"/>
<path d="M1014 253 c2 -18 0 -33 -5 -33 -5 0 -9 -13 -9 -30 0 -16 4 -30 10
-30 6 0 6 -9 0 -26 -7 -16 -7 -23 0 -19 6 3 10 -4 10 -18 0 -20 5 -24 28 -23
16 1 29 6 29 12 0 6 -11 10 -24 8 -20 -2 -21 0 -13 17 6 10 7 19 2 19 -4 0 -9
25 -10 54 -1 30 -7 65 -12 78 -9 20 -9 19 -6 -9z"/>
<path d="M2246 249 c-3 -17 -3 -36 1 -42 3 -5 1 -7 -4 -4 -6 4 -16 0 -23 -8
-7 -8 -9 -15 -5 -15 4 0 2 -7 -5 -15 -9 -11 -9 -15 -1 -15 7 0 9 -5 5 -12 -4
-6 -3 -8 4 -5 5 4 9 18 7 32 -1 15 3 25 10 25 7 0 18 7 26 16 10 13 10 17 -2
25 -11 7 -11 9 4 9 9 0 17 5 17 11 0 5 -4 7 -10 4 -6 -3 -7 1 -4 9 3 9 2 16
-4 16 -5 0 -12 -14 -16 -31z"/>
<path d="M2800 270 c0 -5 7 -7 15 -4 8 4 15 8 15 10 0 2 -7 4 -15 4 -8 0 -15
-4 -15 -10z"/>
<path d="M1550 255 c0 -8 2 -15 4 -15 2 0 6 7 10 15 3 8 1 15 -4 15 -6 0 -10
-7 -10 -15z"/>
<path d="M2146 248 c-23 -26 -17 -29 17 -8 20 12 24 19 14 23 -8 3 -22 -4 -31
-15z"/>
<path d="M2300 251 c0 -10 19 -25 25 -20 1 2 -3 10 -11 17 -8 7 -14 8 -14 3z"/>
<path d="M2735 250 c-3 -5 -1 -10 4 -10 6 0 11 5 11 10 0 6 -2 10 -4 10 -3 0
-8 -4 -11 -10z"/>
<path d="M1494 238 c-5 -7 -3 -8 5 -4 7 5 19 0 27 -10 14 -18 14 -18 4 4 -12
24 -25 28 -36 10z"/>
<path d="M1656 226 c6 -26 5 -28 -11 -22 -18 7 -18 6 0 -14 10 -11 23 -20 29
-19 6 0 6 3 -1 6 -17 6 -16 21 2 25 11 2 10 8 -6 28 l-20 25 7 -29z"/>
<path d="M1906 241 c-4 -5 -2 -12 3 -15 5 -4 12 -2 15 3 4 5 2 12 -3 15 -5 4
-12 2 -15 -3z"/>
<path d="M2560 242 c0 -12 19 -26 26 -19 2 2 -2 10 -11 17 -9 8 -15 8 -15 2z"/>
<path d="M2950 234 c0 -8 5 -12 10 -9 6 4 8 11 5 16 -9 14 -15 11 -15 -7z"/>
<path d="M2860 230 c0 -5 5 -10 11 -10 5 0 7 5 4 10 -3 6 -8 10 -11 10 -2 0
-4 -4 -4 -10z"/>
<path d="M586 216 c5 -12 -1 -16 -22 -17 -25 0 -26 -2 -9 -8 11 -5 26 -6 33
-4 14 6 16 29 2 38 -6 3 -7 -1 -4 -9z"/>
<path d="M1238 224 c-5 -4 -8 -16 -8 -26 0 -10 -7 -18 -17 -19 -11 0 -13 -3
-5 -6 14 -6 16 -23 2 -23 -18 0 -45 -35 -42 -53 2 -12 -1 -15 -12 -11 -9 3
-16 2 -16 -4 0 -18 24 -19 38 -3 12 14 13 14 8 -2 -3 -10 -2 -16 3 -12 5 3 12
19 16 35 8 38 23 48 21 15 0 -14 -4 -25 -7 -25 -3 0 -4 -11 -1 -25 4 -21 0
-25 -19 -26 l-24 -1 23 -6 c13 -4 23 -10 23 -14 -1 -5 2 -8 6 -9 14 0 24 74
21 149 -2 41 -6 70 -10 66z m-42 -121 c-10 -10 -19 5 -10 18 6 11 8 11 12 0 2
-7 1 -15 -2 -18z"/>
<path d="M1460 219 c0 -5 5 -7 10 -4 6 3 10 8 10 11 0 2 -4 4 -10 4 -5 0 -10
-5 -10 -11z"/>
<path d="M2430 221 c0 -6 4 -13 10 -16 6 -3 7 1 4 9 -7 18 -14 21 -14 7z"/>
<path d="M1152 193 c-29 -42 -48 -83 -65 -140 -24 -81 -5 -62 21 21 13 41 35
90 48 110 14 20 23 36 20 36 -3 0 -13 -12 -24 -27z"/>
<path d="M1770 212 c0 -7 4 -12 9 -12 5 0 11 -8 13 -17 2 -12 6 -14 10 -7 4 6
-1 19 -12 29 -12 10 -20 13 -20 7z"/>
<path d="M2898 212 c-10 -2 -18 -9 -18 -17 0 -19 30 -27 36 -10 8 21 1 31 -18
27z"/>
<path d="M1480 198 c0 -4 5 -8 11 -8 5 0 7 -5 4 -10 -4 -6 -12 -7 -18 -4 -8 4
-7 2 1 -7 11 -12 14 -12 22 1 5 8 7 17 4 21 -2 4 2 9 8 12 7 3 3 4 -9 4 -13
-1 -23 -5 -23 -9z"/>
<path d="M1553 196 c5 -14 3 -17 -8 -12 -21 8 -19 -1 3 -13 14 -7 18 -6 19 10
1 10 -3 22 -9 25 -8 5 -9 1 -5 -10z"/>
<path d="M1888 198 c5 -5 16 -8 23 -6 8 3 3 7 -10 11 -17 4 -21 3 -13 -5z"/>
<path d="M2088 197 c-16 -6 -28 -14 -28 -18 0 -11 49 2 61 17 13 16 5 16 -33
1z"/>
<path d="M2265 190 c-10 -11 -14 -20 -9 -20 5 0 15 9 22 20 7 11 11 20 9 20
-2 0 -12 -9 -22 -20z"/>
<path d="M2366 202 c-3 -5 1 -9 9 -9 8 0 15 4 15 9 0 4 -4 8 -9 8 -6 0 -12 -4
-15 -8z"/>
<path d="M853 183 c-13 -33 -9 -176 5 -180 8 -3 12 7 12 34 0 28 -3 34 -10 23
-9 -14 -7 33 5 113 5 30 -2 36 -12 10z"/>
<path d="M899 195 c-4 -3 3 -31 14 -63 10 -31 19 -67 18 -79 0 -17 5 -23 20
-23 19 0 20 2 8 17 -10 11 -10 14 -1 9 6 -4 12 -3 12 3 0 5 -5 13 -10 16 -6 4
-8 10 -5 15 3 5 1 11 -5 15 -9 6 -34 55 -42 83 -2 7 -6 11 -9 7z"/>
<path d="M1730 190 c0 -5 5 -10 11 -10 5 0 7 5 4 10 -3 6 -8 10 -11 10 -2 0
-4 -4 -4 -10z"/>
<path d="M2652 183 c2 -9 8 -18 15 -20 7 -3 9 3 6 16 -6 25 -26 28 -21 4z"/>
<path d="M1933 176 c-9 -11 -9 -18 1 -31 11 -16 13 -14 13 14 0 17 -1 31 -1
31 -1 -1 -6 -7 -13 -14z"/>
<path d="M2453 163 c0 -18 4 -33 8 -33 10 0 -9 -81 -23 -98 -8 -9 -8 -16 2
-25 10 -10 12 -9 7 6 -4 10 -1 17 7 17 20 0 28 94 12 133 l-13 32 0 -32z"/>
<path d="M2396 165 c4 -8 8 -15 10 -15 2 0 4 7 4 15 0 8 -4 15 -10 15 -5 0 -7
-7 -4 -15z"/>
<path d="M1720 160 c0 -3 9 -11 19 -17 17 -11 20 -10 18 5 -1 15 -37 27 -37
12z"/>
<path d="M1395 150 c-3 -5 -2 -10 4 -10 6 0 8 -8 5 -17 -5 -14 -4 -15 4 -4 6
8 8 20 5 28 -6 16 -10 16 -18 3z"/>
<path d="M1455 150 c-3 -5 -1 -10 4 -10 6 0 11 5 11 10 0 6 -2 10 -4 10 -3 0
-8 -4 -11 -10z"/>
<path d="M1513 149 c-13 -5 -23 -14 -23 -21 0 -10 2 -10 9 1 5 7 13 11 18 8 5
-3 15 -2 22 2 20 13 -1 20 -26 10z"/>
<path d="M1607 154 c-3 -3 -3 -12 0 -20 3 -8 0 -14 -6 -14 -6 0 -10 -6 -8 -12
1 -7 -4 -12 -11 -10 -8 1 -11 -2 -6 -9 5 -9 13 -5 27 12 11 13 24 23 29 21 5
-1 17 5 26 15 16 16 16 16 0 10 -10 -3 -20 -2 -23 3 -7 11 -19 13 -28 4z"/>
<path d="M2247 153 c-8 -7 5 -43 14 -43 5 0 8 6 7 13 -2 6 5 11 14 11 10 -1
16 2 13 6 -6 9 -42 19 -48 13z"/>
<path d="M2672 143 c-29 -14 -30 -17 -20 -46 15 -44 36 -66 57 -60 12 3 20 -2
24 -16 3 -12 11 -21 19 -20 9 0 9 2 1 5 -7 3 -10 11 -7 19 3 7 1 16 -5 20 -6
3 -11 17 -11 31 0 18 -5 24 -22 24 -20 0 -20 -1 -4 -19 21 -23 4 -38 -18 -15
-19 18 -20 28 -5 55 7 14 16 18 30 14 10 -4 19 -2 19 3 0 18 -26 20 -58 5z"/>
<path d="M2830 99 c0 -56 1 -59 25 -59 14 0 25 5 25 10 0 6 -9 10 -20 10 -11
0 -20 7 -20 15 0 9 9 15 22 15 12 0 18 3 14 8 -4 4 -13 7 -19 7 -7 0 -13 9
-15 19 -3 15 0 18 17 13 12 -3 21 -2 21 3 0 4 -11 10 -25 12 -24 5 -25 4 -25
-53z"/>
<path d="M2900 101 c0 -38 4 -61 11 -61 7 0 9 10 5 25 -8 33 8 32 23 -1 6 -15
14 -24 17 -22 2 3 -1 17 -7 32 -11 23 -10 32 5 56 15 26 15 29 1 24 -8 -4 -18
-17 -21 -30 -8 -31 -23 -31 -17 0 3 13 0 27 -6 30 -8 5 -11 -12 -11 -53z"/>
<path d="M580 139 c0 -5 5 -7 10 -4 6 3 10 8 10 11 0 2 -4 4 -10 4 -5 0 -10
-5 -10 -11z"/>
<path d="M747 108 c-3 -23 -2 -49 3 -57 5 -10 9 5 11 42 5 66 -6 77 -14 15z"/>
<path d="M1906 133 c-6 -14 -5 -15 5 -6 7 7 10 15 7 18 -3 3 -9 -2 -12 -12z"/>
<path d="M2341 136 c-10 -11 -9 -21 4 -46 12 -23 13 -35 6 -44 -8 -10 -7 -17
6 -27 16 -12 17 -12 6 2 -9 11 -9 19 -2 26 13 13 2 73 -12 73 -6 0 -7 5 -4 10
4 6 11 7 17 4 7 -4 8 -2 4 4 -9 15 -11 15 -25 -2z"/>
<path d="M2751 113 c0 -21 4 -47 9 -58 8 -18 9 -17 9 7 1 19 7 28 24 31 l22 4
-22 8 c-13 4 -23 14 -23 22 0 9 6 13 15 10 8 -4 17 -2 20 3 4 6 -7 10 -24 10
-29 0 -31 -2 -30 -37z"/>
<path d="M1861 120 c14 -31 19 -36 19 -24 0 6 -7 19 -16 30 -14 18 -14 18 -3
-6z"/>
<path d="M2390 115 c0 -14 2 -25 4 -25 2 0 6 11 8 25 3 14 1 25 -3 25 -5 0 -9
-11 -9 -25z"/>
<path d="M1437 114 c3 -7 9 -14 14 -14 14 0 10 17 -5 23 -10 4 -13 1 -9 -9z"/>
<path d="M2025 88 c-22 -21 -34 -38 -27 -38 6 0 12 5 12 11 0 5 5 7 12 3 6 -4
8 -3 5 3 -7 10 12 23 41 29 20 4 21 8 8 19 -8 7 -23 -1 -51 -27z"/>
<path d="M2592 118 c-21 -21 -13 -38 18 -38 33 0 35 3 20 31 -12 22 -21 24
-38 7z m28 -18 c0 -5 -7 -10 -16 -10 -8 0 -12 5 -9 10 3 6 10 10 16 10 5 0 9
-4 9 -10z"/>
<path d="M610 112 c0 -7 -7 -9 -17 -5 -15 5 -16 3 -5 -8 9 -10 15 -10 24 -1 6
6 9 15 5 19 -4 3 -7 1 -7 -5z"/>
<path d="M771 104 c0 -11 3 -14 6 -6 3 7 2 16 -1 19 -3 4 -6 -2 -5 -13z"/>
<path d="M880 106 c0 -8 5 -18 10 -21 6 -3 10 1 10 9 0 8 -4 18 -10 21 -5 3
-10 -1 -10 -9z"/>
<path d="M2180 110 c0 -5 12 -8 27 -7 19 1 29 -3 31 -15 3 -13 -3 -18 -20 -18
-18 0 -20 2 -8 10 9 6 10 10 3 10 -6 0 -18 -7 -26 -15 -8 -8 -17 -11 -21 -8
-3 4 -6 -3 -6 -15 0 -11 -7 -28 -16 -36 -17 -18 -7 -21 36 -9 l25 7 -25 7 -25
7 23 7 c12 4 22 11 22 16 0 5 10 5 22 0 18 -6 25 -3 35 17 11 21 11 26 -4 38
-21 15 -73 19 -73 4z"/>
<path d="M2431 104 c0 -11 3 -14 6 -6 3 7 2 16 -1 19 -3 4 -6 -2 -5 -13z"/>
<path d="M1500 100 c0 -5 5 -10 10 -10 6 0 10 5 10 10 0 6 -4 10 -10 10 -5 0
-10 -4 -10 -10z"/>
<path d="M1611 93 c-8 -15 -6 -23 9 -36 16 -14 19 -14 24 0 3 8 0 24 -8 35
-14 20 -14 20 -25 1z"/>
<path d="M1716 102 c2 -2 -2 -14 -8 -26 -10 -20 -10 -20 8 -4 12 12 15 21 8
27 -6 5 -9 6 -8 3z"/>
<path d="M1395 90 c-3 -5 2 -13 12 -17 10 -3 21 -8 24 -9 4 -2 10 3 13 12 3 9
2 12 -5 9 -5 -4 -16 -2 -24 5 -9 7 -15 8 -20 0z"/>
<path d="M1740 81 c0 -6 4 -13 10 -16 6 -3 7 1 4 9 -7 18 -14 21 -14 7z"/>
<path d="M1895 70 c3 -5 10 -10 16 -10 5 0 9 5 9 10 0 6 -7 10 -16 10 -8 0
-12 -4 -9 -10z"/>
<path d="M2296 73 c5 -5 12 -12 15 -16 3 -5 9 -2 12 7 5 12 0 16 -15 16 -12 0
-17 -3 -12 -7z"/>
<path d="M250 43 c-19 -20 -20 -23 -5 -14 37 19 47 28 39 33 -5 3 -20 -6 -34
-19z"/>
<path d="M891 54 c0 -11 3 -14 6 -6 3 7 2 16 -1 19 -3 4 -6 -2 -5 -13z"/>
<path d="M1830 56 c0 -8 4 -17 9 -20 5 -4 7 3 4 14 -6 23 -13 26 -13 6z"/>
<path d="M2407 64 c-4 -4 -7 -14 -7 -23 0 -11 3 -12 11 -4 6 6 10 16 7 23 -2
6 -7 8 -11 4z"/>
<path d="M1020 49 c0 -5 5 -7 10 -4 10 6 14 -6 11 -35 -2 -12 0 -13 7 -1 13
18 3 51 -14 51 -8 0 -14 -5 -14 -11z"/>
<path d="M1141 44 c0 -11 3 -14 6 -6 3 7 2 16 -1 19 -3 4 -6 -2 -5 -13z"/>
<path d="M1476 47 c3 -10 9 -15 12 -12 3 3 0 11 -7 18 -10 9 -11 8 -5 -6z"/>
<path d="M2615 50 c-3 -5 -2 -10 4 -10 5 0 13 5 16 10 3 6 2 10 -4 10 -5 0
-13 -4 -16 -10z"/>
<path d="M2785 50 c3 -5 10 -10 16 -10 5 0 9 5 9 10 0 6 -7 10 -16 10 -8 0
-12 -4 -9 -10z"/>
<path d="M660 25 c0 -32 6 -32 12 0 3 14 1 25 -3 25 -5 0 -9 -11 -9 -25z"/>
<path d="M730 25 c0 -14 4 -25 9 -25 4 0 6 11 3 25 -6 32 -12 32 -12 0z"/>
<path d="M1445 40 c3 -5 8 -10 11 -10 2 0 4 5 4 10 0 6 -5 10 -11 10 -5 0 -7
-4 -4 -10z"/>
<path d="M1990 21 c0 -25 6 -27 13 -6 4 8 2 17 -3 20 -6 4 -10 -3 -10 -14z"/>
<path d="M2290 30 c-9 -6 -10 -10 -3 -10 6 0 15 5 18 10 8 12 4 12 -15 0z"/>
<path d="M511 14 c0 -11 3 -14 6 -6 3 7 2 16 -1 19 -3 4 -6 -2 -5 -13z"/>
<path d="M1580 17 c0 -5 -7 -6 -16 -3 -8 3 -12 2 -9 -4 8 -13 45 -13 45 1 0 5
4 8 9 4 5 -3 12 -1 16 5 4 6 -4 9 -19 8 -15 -1 -26 -6 -26 -11z"/>
<path d="M1800 20 c0 -5 5 -10 11 -10 5 0 7 5 4 10 -3 6 -8 10 -11 10 -2 0 -4
-4 -4 -10z"/>
<path d="M1876 18 c5 -8 2 -9 -10 -5 -9 4 -15 3 -11 -2 3 -6 14 -9 25 -8 14 1
16 4 8 14 -13 16 -22 17 -12 1z"/>
<path d="M2211 14 c0 -11 3 -14 6 -6 3 7 2 16 -1 19 -3 4 -6 -2 -5 -13z"/>
<path d="M2582 18 c3 -7 18 -14 34 -15 16 -1 21 1 12 3 -10 3 -18 10 -18 15 0
5 -7 9 -16 9 -9 0 -14 -6 -12 -12z"/>
<path d="M600 10 c0 -5 5 -10 10 -10 6 0 10 5 10 10 0 6 -4 10 -10 10 -5 0
-10 -4 -10 -10z"/>
<path d="M940 10 c19 -13 30 -13 30 0 0 6 -10 10 -22 10 -19 0 -20 -2 -8 -10z"/>
<path d="M1670 10 c0 -5 5 -10 11 -10 5 0 7 5 4 10 -3 6 -8 10 -11 10 -2 0 -4
-4 -4 -10z"/>
<path d="M2230 10 c0 -5 5 -10 11 -10 5 0 7 5 4 10 -3 6 -8 10 -11 10 -2 0 -4
-4 -4 -10z"/>
</g>
</svg>
