<?xml version="1.0" standalone="no"?>
<!DOCTYPE svg PUBLIC "-//W3C//DTD SVG 20010904//EN"
 "http://www.w3.org/TR/2001/REC-SVG-20010904/DTD/svg10.dtd">
<svg version="1.0" xmlns="http://www.w3.org/2000/svg"
 width="300.000000pt" height="300.000000pt" viewBox="0 0 300.000000 300.000000"
 preserveAspectRatio="xMidYMid meet">
<metadata>
Created by potrace 1.10, written by Peter Selinger 2001-2011
</metadata>
<g transform="translate(0.000000,300.000000) scale(0.100000,-0.100000)"
fill="#000000" stroke="none">
<path d="M2093 2913 c-3 -10 -8 -21 -10 -25 -2 -4 9 -6 25 -5 25 2 28 5 22 21
-10 27 -29 32 -37 9z m27 3 c0 -3 -4 -8 -10 -11 -5 -3 -10 -1 -10 4 0 6 5 11
10 11 6 0 10 -2 10 -4z"/>
<path d="M2000 2910 c0 -5 7 -7 15 -4 8 4 15 8 15 10 0 2 -7 4 -15 4 -8 0 -15
-4 -15 -10z"/>
<path d="M1895 2882 c-12 -8 -13 -37 -2 -48 4 -4 7 5 7 19 0 15 5 27 10 27 6
0 10 -4 10 -10 0 -5 8 -10 18 -11 11 -1 9 -4 -8 -9 -24 -8 -24 -8 -2 -9 12 -1
25 -7 28 -15 4 -12 10 -12 35 1 16 8 32 13 36 10 14 -7 44 31 31 39 -18 12
-58 13 -58 2 0 -6 -7 -7 -16 -4 -8 3 -12 2 -9 -4 3 -5 18 -8 33 -6 15 2 21 1
15 -1 -7 -2 -13 -9 -13 -14 0 -18 -42 -9 -47 10 -3 11 -11 17 -18 15 -7 -3
-16 -1 -20 5 -7 13 -16 14 -30 3z"/>
<path d="M797 2859 c7 -7 15 -10 18 -7 3 3 -2 9 -12 12 -14 6 -15 5 -6 -5z"/>
<path d="M997 2851 c-10 -4 -17 -11 -15 -15 3 -10 68 -16 68 -7 0 13 -36 28
-53 22z"/>
<path d="M1235 2850 c-3 -6 1 -7 9 -4 18 7 21 14 7 14 -6 0 -13 -4 -16 -10z"/>
<path d="M721 2841 c-11 -7 -11 -9 0 -13 8 -3 11 -8 8 -12 -9 -10 -40 5 -33
16 4 6 -4 8 -17 6 -13 -1 -24 -7 -24 -13 0 -21 -17 -36 -35 -30 -23 7 -36 -23
-14 -32 9 -3 19 -1 23 5 9 15 57 32 91 32 23 0 27 3 23 20 -5 18 -2 20 21 16
14 -2 31 -8 38 -12 9 -6 9 -3 -1 9 -14 18 -57 22 -80 8z"/>
<path d="M825 2840 c-3 -5 -1 -10 4 -10 6 0 11 5 11 10 0 6 -2 10 -4 10 -3 0
-8 -4 -11 -10z"/>
<path d="M865 2840 c3 -5 8 -10 11 -10 2 0 4 5 4 10 0 6 -5 10 -11 10 -5 0 -7
-4 -4 -10z"/>
<path d="M900 2841 c0 -4 14 -8 30 -9 17 -1 30 2 30 7 0 5 -13 9 -30 9 -16 -1
-30 -4 -30 -7z"/>
<path d="M1287 2835 c11 -32 34 -50 60 -47 12 2 23 -1 23 -6 0 -6 9 -8 20 -5
11 3 20 0 20 -6 0 -6 5 -11 10 -11 42 0 -39 43 -85 45 -5 0 -20 11 -33 25 -18
21 -21 22 -15 5z"/>
<path d="M1850 2840 c0 -5 5 -10 10 -10 6 0 10 5 10 10 0 6 -4 10 -10 10 -5 0
-10 -4 -10 -10z"/>
<path d="M1260 2829 c0 -5 -5 -7 -12 -3 -7 4 -8 3 -4 -4 4 -6 13 -9 21 -6 8 4
12 10 9 15 -7 12 -14 11 -14 -2z"/>
<path d="M1080 2824 c0 -8 32 -33 43 -34 4 0 2 9 -5 20 -12 19 -38 28 -38 14z"/>
<path d="M1806 2815 c-8 -8 -26 -15 -40 -15 -15 0 -26 -6 -26 -14 0 -11 8 -11
40 -3 22 6 37 13 35 15 -3 3 3 11 13 18 9 7 12 14 5 14 -6 0 -18 -7 -27 -15z"/>
<path d="M1910 2814 c0 -8 -6 -14 -12 -14 -7 0 -5 -5 5 -11 22 -13 58 -2 51
16 -8 19 -44 27 -44 9z m30 -14 c0 -5 -4 -10 -10 -10 -5 0 -10 5 -10 10 0 6 5
10 10 10 6 0 10 -4 10 -10z"/>
<path d="M630 2809 c0 -5 5 -7 10 -4 6 3 10 8 10 11 0 2 -4 4 -10 4 -5 0 -10
-5 -10 -11z"/>
<path d="M753 2805 c0 -8 6 -15 14 -15 7 0 13 7 13 15 0 8 -6 15 -13 15 -8 0
-14 -7 -14 -15z"/>
<path d="M940 2811 c0 -5 7 -11 14 -14 10 -4 13 -1 9 9 -6 15 -23 19 -23 5z"/>
<path d="M1586 2808 c3 -4 -1 -8 -8 -8 -7 0 -14 -10 -14 -23 -1 -16 4 -23 17
-23 12 0 17 7 16 21 -2 16 5 21 32 23 25 3 31 0 25 -10 -6 -10 -4 -10 9 1 25
20 12 30 -37 28 -25 0 -42 -5 -40 -9z"/>
<path d="M1138 2785 c-3 -14 0 -28 6 -32 6 -3 8 -3 4 2 -4 4 0 14 8 22 8 8 12
19 9 24 -11 16 -23 9 -27 -16z"/>
<path d="M1975 2789 c-4 -6 -4 -13 -1 -16 3 -4 6 -1 6 6 0 8 6 11 16 7 8 -3
12 -2 9 4 -8 13 -22 13 -30 -1z"/>
<path d="M920 2780 c0 -6 7 -10 15 -10 8 0 15 2 15 4 0 2 -7 6 -15 10 -8 3
-15 1 -15 -4z"/>
<path d="M1713 2776 c-9 -11 -9 -15 0 -19 7 -3 14 3 14 14 2 22 2 22 -14 5z"/>
<path d="M1819 2774 c-5 -7 -20 -10 -32 -8 -20 4 -21 4 -2 -4 18 -8 37 -9 98
-4 31 3 18 20 -18 24 -21 2 -40 -1 -46 -8z"/>
<path d="M792 2769 c3 -8 16 -14 29 -14 13 0 30 -6 37 -12 17 -16 32 -17 32
-2 0 11 35 8 72 -6 11 -4 20 0 28 14 10 19 9 20 -12 12 -13 -4 -32 -7 -43 -6
-11 2 -40 5 -65 8 -25 4 -54 9 -64 13 -14 5 -17 3 -14 -7z"/>
<path d="M1286 2765 c-3 -9 0 -15 9 -15 9 0 12 6 9 15 -4 8 -7 15 -9 15 -2 0
-5 -7 -9 -15z"/>
<path d="M1030 2760 c20 -13 33 -13 25 0 -3 6 -14 10 -23 10 -15 0 -15 -2 -2
-10z"/>
<path d="M1445 2760 c-3 -5 3 -10 15 -10 12 0 18 5 15 10 -3 6 -10 10 -15 10
-5 0 -12 -4 -15 -10z"/>
<path d="M2020 2760 c-9 -6 -10 -10 -3 -10 6 0 15 5 18 10 8 12 4 12 -15 0z"/>
<path d="M1532 2753 c9 -2 15 -10 12 -18 -4 -10 0 -12 15 -8 12 3 21 10 21 15
0 5 -4 7 -9 3 -5 -3 -12 -1 -16 5 -3 5 -14 9 -23 9 -16 -1 -16 -2 0 -6z"/>
<path d="M1650 2756 c0 -2 7 -6 15 -10 8 -3 15 -1 15 4 0 6 -7 10 -15 10 -8 0
-15 -2 -15 -4z"/>
<path d="M1206 2741 c-4 -5 3 -7 14 -4 23 6 26 13 6 13 -8 0 -17 -4 -20 -9z"/>
<path d="M1474 2729 c-22 -24 -16 -29 17 -15 21 9 24 13 14 23 -10 9 -17 8
-31 -8z"/>
<path d="M1615 2725 c2 -16 4 -34 4 -38 1 -4 11 1 23 13 12 11 18 23 15 27 -4
3 -7 1 -7 -5 0 -20 -16 -13 -28 11 -9 20 -10 20 -7 -8z"/>
<path d="M1435 2730 c3 -5 8 -10 11 -10 2 0 4 5 4 10 0 6 -5 10 -11 10 -5 0
-7 -4 -4 -10z"/>
<path d="M1695 2730 c3 -5 8 -10 11 -10 2 0 4 5 4 10 0 6 -5 10 -11 10 -5 0
-7 -4 -4 -10z"/>
<path d="M1165 2710 c3 -5 11 -10 16 -10 6 0 7 5 4 10 -3 6 -11 10 -16 10 -6
0 -7 -4 -4 -10z"/>
<path d="M1550 2710 c-9 -6 -10 -10 -3 -10 6 0 15 5 18 10 8 12 4 12 -15 0z"/>
<path d="M1876 2699 c-11 -11 -17 -21 -14 -24 2 -3 13 4 23 15 24 26 16 33 -9
9z"/>
<path d="M1926 2688 c1 -16 9 -37 18 -47 9 -10 13 -21 9 -24 -3 -4 2 -7 12 -7
17 0 17 1 2 18 -10 10 -17 24 -17 30 0 7 -5 12 -10 12 -7 0 -7 6 -1 19 8 14 7
20 -2 24 -9 3 -12 -4 -11 -25z"/>
<path d="M1960 2696 c0 -22 3 -27 11 -19 8 8 8 16 0 30 -9 16 -10 14 -11 -11z"/>
<path d="M1986 2711 c-3 -5 0 -14 8 -20 10 -9 15 -8 19 3 4 11 1 13 -10 9 -11
-4 -14 -2 -9 5 4 7 5 12 2 12 -3 0 -7 -4 -10 -9z"/>
<path d="M2035 2709 c-4 -6 -5 -12 -2 -15 2 -3 7 2 10 11 7 17 1 20 -8 4z"/>
<path d="M995 2694 c-12 -12 -13 -19 -4 -30 6 -8 14 -14 16 -14 3 0 0 6 -6 14
-10 12 -8 17 10 26 20 11 21 10 15 -6 -5 -15 -4 -16 5 -7 12 12 5 33 -11 33
-5 0 -16 -7 -25 -16z"/>
<path d="M1513 2695 c-7 -7 -18 -15 -25 -18 -7 -2 -10 -8 -6 -12 4 -4 17 2 29
14 12 11 21 23 18 25 -2 2 -9 -2 -16 -9z"/>
<path d="M1829 2703 c-1 -5 -1 -11 0 -15 0 -5 -3 -8 -8 -8 -5 0 -12 -8 -15
-17 -5 -13 0 -11 18 6 15 14 26 28 26 33 0 10 -20 11 -21 1z"/>
<path d="M2083 2673 c21 -36 35 -46 17 -12 -7 11 -9 26 -7 33 3 6 -3 12 -13
12 -15 0 -15 -3 3 -33z"/>
<path d="M906 2685 c4 -10 10 -12 18 -6 6 5 20 11 31 14 12 3 4 5 -17 6 -30 1
-36 -2 -32 -14z"/>
<path d="M2130 2688 c0 -4 11 -8 24 -8 13 0 29 -7 36 -15 9 -11 9 -15 1 -15
-7 0 -9 -4 -6 -10 11 -18 24 -10 20 12 -3 12 1 25 7 29 7 5 9 11 5 16 -5 4
-12 1 -16 -6 -6 -8 -14 -10 -22 -5 -18 11 -49 13 -49 2z"/>
<path d="M2297 2685 c-4 -8 -3 -16 1 -19 4 -3 9 4 9 15 2 23 -3 25 -10 4z"/>
<path d="M805 2680 c-130 -122 -158 -150 -151 -150 6 0 20 9 32 21 14 13 24
17 29 10 3 -6 0 -11 -7 -11 -8 0 -21 -9 -31 -20 -9 -11 -13 -20 -7 -20 5 0 12
5 15 11 4 5 18 14 31 19 22 9 36 33 15 28 -5 -2 -9 2 -9 7 -1 6 6 9 14 9 8 -1
14 4 14 11 0 21 31 47 47 40 11 -3 13 -1 9 10 -3 10 1 15 14 15 25 0 34 16 14
24 -18 7 -16 7 -29 -4z"/>
<path d="M861 2668 c0 -13 3 -17 6 -10 2 6 11 12 19 12 9 0 12 5 9 10 -12 19
-35 10 -34 -12z"/>
<path d="M1567 2679 c7 -7 15 -10 18 -7 3 3 -2 9 -12 12 -14 6 -15 5 -6 -5z"/>
<path d="M2336 2674 c-6 -14 -4 -15 10 -3 14 11 15 10 12 -7 -4 -22 -48 -56
-65 -50 -6 3 -14 0 -17 -7 -3 -9 -5 -9 -5 1 -1 6 -6 12 -12 12 -5 0 -8 -4 -4
-9 10 -17 -12 -21 -25 -6 -7 8 -17 15 -23 15 -5 0 2 -9 17 -21 23 -18 33 -20
64 -12 21 5 50 9 65 9 15 -1 27 2 27 7 0 4 4 6 9 3 4 -3 16 3 25 13 11 13 14
21 7 26 -6 3 -11 1 -11 -6 0 -8 -5 -7 -17 2 -15 12 -16 12 -10 -3 5 -14 1 -18
-20 -18 -23 0 -25 2 -11 13 23 17 27 50 7 55 -9 1 -19 -5 -23 -14z"/>
<path d="M2436 2674 c-8 -21 -8 -24 5 -24 5 0 7 5 4 10 -3 6 -1 10 4 10 6 0
11 5 11 10 0 16 -17 12 -24 -6z"/>
<path d="M2230 2655 c0 -16 6 -25 15 -25 12 0 13 4 6 19 -6 10 -7 21 -4 25 3
3 1 6 -5 6 -7 0 -12 -11 -12 -25z"/>
<path d="M1840 2660 c0 -5 5 -10 11 -10 5 0 7 5 4 10 -3 6 -8 10 -11 10 -2 0
-4 -4 -4 -10z"/>
<path d="M1320 2650 c-13 -8 -13 -10 2 -10 9 0 20 5 23 10 8 13 -5 13 -25 0z"/>
<path d="M2268 2653 c7 -3 16 -2 19 1 4 3 -2 6 -13 5 -11 0 -14 -3 -6 -6z"/>
<path d="M812 2615 c-13 -17 -26 -23 -37 -19 -11 5 -16 2 -14 -7 3 -20 -18
-66 -33 -72 -7 -3 -3 -6 10 -6 12 -1 21 2 21 7 -3 20 5 34 48 76 25 25 41 46
35 46 -6 0 -19 -11 -30 -25z"/>
<path d="M1555 2630 c-4 -7 -2 -16 6 -21 18 -11 23 -4 11 17 -7 12 -11 13 -17
4z"/>
<path d="M1990 2628 c0 -4 4 -8 9 -8 6 0 12 4 15 8 3 5 -1 9 -9 9 -8 0 -15 -4
-15 -9z"/>
<path d="M2121 2633 c1 -16 35 -66 42 -64 4 1 15 -5 23 -14 9 -8 20 -15 26
-15 6 0 1 9 -12 20 -13 11 -29 20 -37 20 -8 0 -12 4 -8 10 3 5 -3 18 -15 30
-11 11 -20 17 -19 13z"/>
<path d="M996 2603 c-6 -14 -5 -15 5 -6 7 7 10 15 7 18 -3 3 -9 -2 -12 -12z"/>
<path d="M1826 2607 c3 -10 9 -15 12 -12 3 3 0 11 -7 18 -10 9 -11 8 -5 -6z"/>
<path d="M2078 2613 c7 -3 16 -2 19 1 4 3 -2 6 -13 5 -11 0 -14 -3 -6 -6z"/>
<path d="M858 2603 c7 -3 16 -2 19 1 4 3 -2 6 -13 5 -11 0 -14 -3 -6 -6z"/>
<path d="M1278 2603 c7 -3 16 -2 19 1 4 3 -2 6 -13 5 -11 0 -14 -3 -6 -6z"/>
<path d="M1465 2600 c3 -5 8 -10 11 -10 2 0 4 5 4 10 0 6 -5 10 -11 10 -5 0
-7 -4 -4 -10z"/>
<path d="M1610 2600 c0 -17 17 -47 23 -40 2 3 -2 16 -10 30 -7 14 -13 18 -13
10z"/>
<path d="M1656 2585 c-3 -8 -1 -15 4 -15 6 0 10 7 10 15 0 8 -2 15 -4 15 -2 0
-6 -7 -10 -15z"/>
<path d="M1496 2575 c-10 -8 -23 -12 -29 -8 -6 3 -7 1 -3 -5 9 -15 44 -11 51
7 8 20 3 21 -19 6z"/>
<path d="M1540 2559 c0 -5 5 -7 10 -4 6 3 10 8 10 11 0 2 -4 4 -10 4 -5 0 -10
-5 -10 -11z"/>
<path d="M1680 2560 c-9 -6 -10 -10 -3 -10 6 0 15 5 18 10 8 12 4 12 -15 0z"/>
<path d="M2228 2547 c-3 -19 -2 -25 4 -19 6 6 8 18 6 28 -3 14 -5 12 -10 -9z"/>
<path d="M1161 2544 c0 -11 3 -14 6 -6 3 7 2 16 -1 19 -3 4 -6 -2 -5 -13z"/>
<path d="M940 2546 c0 -2 8 -10 18 -17 15 -13 16 -12 3 4 -13 16 -21 21 -21
13z"/>
<path d="M991 2534 c0 -11 3 -14 6 -6 3 7 2 16 -1 19 -3 4 -6 -2 -5 -13z"/>
<path d="M1635 2540 c-3 -5 -2 -10 4 -10 5 0 13 5 16 10 3 6 2 10 -4 10 -5 0
-13 -4 -16 -10z"/>
<path d="M1723 2535 c-17 -19 -17 -21 10 -22 12 0 17 1 10 4 -7 2 -9 11 -6 19
7 18 2 17 -14 -1z"/>
<path d="M2031 2534 c0 -11 3 -14 6 -6 3 7 2 16 -1 19 -3 4 -6 -2 -5 -13z"/>
<path d="M1310 2529 c0 -5 5 -7 10 -4 6 3 10 8 10 11 0 2 -4 4 -10 4 -5 0 -10
-5 -10 -11z"/>
<path d="M2105 2529 c-10 -14 -1 -21 19 -13 9 3 13 10 10 15 -7 12 -21 11 -29
-2z"/>
<path d="M2150 2533 c0 -4 5 -15 10 -23 7 -11 10 -11 10 -2 0 7 5 10 10 7 6
-3 10 -4 10 -1 0 3 -9 10 -20 16 -11 6 -20 7 -20 3z"/>
<path d="M1463 2523 c9 -2 23 -2 30 0 6 3 -1 5 -18 5 -16 0 -22 -2 -12 -5z"/>
<path d="M1566 2521 c-3 -5 1 -11 9 -15 9 -3 15 0 15 9 0 16 -16 20 -24 6z"/>
<path d="M1140 2505 c0 -8 2 -15 4 -15 2 0 6 7 10 15 3 8 1 15 -4 15 -6 0 -10
-7 -10 -15z"/>
<path d="M1260 2510 c0 -5 5 -10 11 -10 5 0 7 5 4 10 -3 6 -8 10 -11 10 -2 0
-4 -4 -4 -10z"/>
<path d="M1630 2510 c0 -6 7 -10 15 -10 8 0 15 2 15 4 0 2 -7 6 -15 10 -8 3
-15 1 -15 -4z"/>
<path d="M2056 2506 c3 -8 12 -17 20 -20 11 -4 12 -2 1 14 -14 23 -29 27 -21
6z"/>
<path d="M1307 2496 c-4 -10 -1 -13 9 -9 15 6 19 23 5 23 -5 0 -11 -7 -14 -14z"/>
<path d="M2260 2500 c20 -13 33 -13 25 0 -3 6 -14 10 -23 10 -15 0 -15 -2 -2
-10z"/>
<path d="M650 2489 c0 -5 5 -7 10 -4 6 3 10 8 10 11 0 2 -4 4 -10 4 -5 0 -10
-5 -10 -11z"/>
<path d="M705 2490 c-3 -5 3 -10 15 -10 12 0 18 5 15 10 -3 6 -10 10 -15 10
-5 0 -12 -4 -15 -10z"/>
<path d="M760 2490 c0 -5 5 -10 11 -10 5 0 7 5 4 10 -3 6 -8 10 -11 10 -2 0
-4 -4 -4 -10z"/>
<path d="M810 2490 c0 -6 -12 -22 -27 -35 l-28 -24 30 -1 c23 0 26 3 15 10
-13 8 -13 10 1 10 18 0 33 37 18 46 -5 3 -9 0 -9 -6z"/>
<path d="M1350 2490 c-8 -5 -10 -10 -5 -10 6 0 17 5 25 10 8 5 11 10 5 10 -5
0 -17 -5 -25 -10z"/>
<path d="M1490 2485 c0 -8 2 -15 4 -15 2 0 6 7 10 15 3 8 1 15 -4 15 -6 0 -10
-7 -10 -15z"/>
<path d="M1680 2490 c0 -5 5 -10 11 -10 5 0 7 5 4 10 -3 6 -8 10 -11 10 -2 0
-4 -4 -4 -10z"/>
<path d="M620 2480 c-9 -6 -10 -10 -3 -10 6 0 15 5 18 10 8 12 4 12 -15 0z"/>
<path d="M1556 2475 c-3 -8 -1 -15 4 -15 6 0 10 7 10 15 0 8 -2 15 -4 15 -2 0
-6 -7 -10 -15z"/>
<path d="M1710 2480 c0 -5 6 -10 14 -10 8 0 18 5 21 10 3 6 -3 10 -14 10 -12
0 -21 -4 -21 -10z"/>
<path d="M2295 2480 c-7 -12 2 -12 30 0 19 8 19 9 -2 9 -12 1 -25 -3 -28 -9z"/>
<path d="M1894 2468 c3 -15 26 -23 26 -8 0 6 -4 9 -9 6 -5 -4 -12 -1 -14 4 -3
6 -4 5 -3 -2z"/>
<path d="M2032 2471 c-11 -7 -11 -9 0 -14 9 -3 15 1 15 9 0 8 -1 14 -1 14 -1
0 -7 -4 -14 -9z"/>
<path d="M2355 2470 c3 -5 11 -10 16 -10 6 0 7 5 4 10 -3 6 -11 10 -16 10 -6
0 -7 -4 -4 -10z"/>
<path d="M575 2459 c-4 -6 -14 -8 -22 -4 -13 4 -13 3 -4 -9 9 -11 7 -15 -8
-19 -11 -2 -24 0 -30 6 -7 7 -11 8 -11 1 0 -6 11 -16 25 -22 22 -10 26 -9 40
17 8 16 20 31 27 34 9 4 9 6 1 6 -6 1 -15 -4 -18 -10z"/>
<path d="M640 2460 c-9 -6 -10 -10 -3 -10 6 0 15 5 18 10 8 12 4 12 -15 0z"/>
<path d="M680 2458 c0 -11 28 -10 35 1 3 6 -4 9 -15 8 -11 -1 -20 -5 -20 -9z"/>
<path d="M1135 2460 c-3 -6 1 -7 9 -4 18 7 21 14 7 14 -6 0 -13 -4 -16 -10z"/>
<path d="M1330 2455 c-7 -9 -8 -15 -2 -15 5 0 12 7 16 15 3 8 4 15 2 15 -2 0
-9 -7 -16 -15z"/>
<path d="M1670 2460 c0 -5 5 -10 10 -10 6 0 10 5 10 10 0 6 -4 10 -10 10 -5 0
-10 -4 -10 -10z"/>
<path d="M2135 2459 c-4 -6 -5 -12 -2 -15 2 -3 7 2 10 11 7 17 1 20 -8 4z"/>
<path d="M1270 2450 c0 -5 5 -10 10 -10 6 0 10 5 10 10 0 6 -4 10 -10 10 -5 0
-10 -4 -10 -10z"/>
<path d="M1487 2453 c-4 -3 -7 -11 -7 -17 0 -6 5 -5 12 2 6 6 9 14 7 17 -3 3
-9 2 -12 -2z"/>
<path d="M1750 2453 c0 -5 11 -13 25 -20 14 -6 25 -7 25 -2 0 5 -5 9 -11 9 -5
0 -7 5 -4 10 3 6 -3 10 -14 10 -12 0 -21 -3 -21 -7z"/>
<path d="M2340 2445 c7 -8 17 -15 22 -15 5 0 3 7 -6 15 -8 8 -18 15 -22 15 -3
0 -1 -7 6 -15z"/>
<path d="M595 2440 c-3 -5 -1 -10 4 -10 6 0 11 5 11 10 0 6 -2 10 -4 10 -3 0
-8 -4 -11 -10z"/>
<path d="M1215 2440 c-3 -5 -1 -10 4 -10 6 0 11 5 11 10 0 6 -2 10 -4 10 -3 0
-8 -4 -11 -10z"/>
<path d="M2390 2441 c0 -12 28 -22 35 -12 3 5 -2 12 -11 15 -21 8 -24 8 -24
-3z"/>
<path d="M690 2431 c0 -5 -8 -12 -17 -14 -15 -4 -15 -5 -2 -6 9 0 22 6 29 14
9 10 9 15 1 15 -6 0 -11 -4 -11 -9z"/>
<path d="M895 2430 c-3 -5 -2 -10 4 -10 5 0 13 5 16 10 3 6 2 10 -4 10 -5 0
-13 -4 -16 -10z"/>
<path d="M2453 2429 c-12 -12 -7 -39 8 -39 4 0 6 7 2 16 -3 9 0 20 8 25 8 5 9
9 4 9 -6 0 -16 -5 -22 -11z"/>
<path d="M817 2423 c-10 -16 41 -39 55 -25 16 16 2 28 -16 13 -11 -10 -16 -9
-24 5 -5 9 -12 12 -15 7z"/>
<path d="M1256 2413 c-6 -14 -5 -15 5 -6 7 7 10 15 7 18 -3 3 -9 -2 -12 -12z"/>
<path d="M1450 2420 c8 -5 20 -10 25 -10 6 0 3 5 -5 10 -8 5 -19 10 -25 10 -5
0 -3 -5 5 -10z"/>
<path d="M1510 2419 c0 -5 5 -7 10 -4 6 3 10 8 10 11 0 2 -4 4 -10 4 -5 0 -10
-5 -10 -11z"/>
<path d="M1550 2410 c0 -11 4 -20 9 -20 5 0 7 9 4 20 -3 11 -7 20 -9 20 -2 0
-4 -9 -4 -20z"/>
<path d="M1650 2414 c0 -8 6 -11 15 -8 8 4 15 9 15 13 0 4 -7 8 -15 8 -8 0
-15 -6 -15 -13z"/>
<path d="M2055 2420 c-3 -5 -1 -10 4 -10 6 0 11 5 11 10 0 6 -2 10 -4 10 -3 0
-8 -4 -11 -10z"/>
<path d="M735 2401 c-3 -11 -15 -23 -26 -26 -18 -6 -27 -25 -11 -25 22 1 75
70 53 70 -5 0 -12 -9 -16 -19z"/>
<path d="M1715 2411 c-6 -11 13 -26 22 -17 4 3 1 6 -6 6 -7 0 -9 5 -6 10 3 6
4 10 1 10 -3 0 -7 -4 -11 -9z"/>
<path d="M503 2390 c6 -10 15 -16 19 -14 14 9 9 22 -11 27 -17 4 -18 2 -8 -13z"/>
<path d="M575 2400 c-3 -5 -2 -10 4 -10 5 0 13 5 16 10 3 6 2 10 -4 10 -5 0
-13 -4 -16 -10z"/>
<path d="M1350 2394 c0 -17 -34 -36 -46 -26 -5 4 0 -3 11 -16 19 -23 19 -23
-3 -29 -12 -3 -22 -10 -22 -15 0 -5 5 -6 10 -3 18 11 32 -6 18 -23 -12 -14
-10 -14 9 -3 19 10 22 18 18 48 -3 28 0 40 16 54 11 10 27 15 34 13 7 -3 15
-2 18 3 3 5 -10 9 -29 9 -21 0 -34 -4 -34 -12z"/>
<path d="M1626 2397 c3 -10 9 -15 12 -12 3 3 0 11 -7 18 -10 9 -11 8 -5 -6z"/>
<path d="M1755 2399 c-4 -6 -5 -12 -2 -15 2 -3 7 2 10 11 7 17 1 20 -8 4z"/>
<path d="M1934 2402 c-9 -5 -8 -10 1 -19 11 -10 13 -9 12 7 -1 11 -1 20 -2 20
0 0 -5 -4 -11 -8z"/>
<path d="M2010 2406 c0 -2 7 -7 16 -10 8 -3 12 -2 9 4 -6 10 -25 14 -25 6z"/>
<path d="M2250 2406 c0 -2 7 -7 16 -10 8 -3 12 -2 9 4 -6 10 -25 14 -25 6z"/>
<path d="M930 2376 c0 -31 41 -107 48 -88 2 7 8 12 13 12 6 0 7 -4 4 -10 -3
-6 1 -7 10 -3 13 5 14 7 3 14 -7 5 -21 9 -30 9 -10 0 -18 7 -18 15 0 8 -5 15
-11 15 -6 0 -9 9 -6 19 2 10 1 25 -4 32 -6 10 -9 5 -9 -15z"/>
<path d="M1048 2393 c6 -2 18 -2 25 0 6 3 1 5 -13 5 -14 0 -19 -2 -12 -5z"/>
<path d="M1100 2385 c0 -8 2 -15 4 -15 2 0 6 7 10 15 3 8 1 15 -4 15 -6 0 -10
-7 -10 -15z"/>
<path d="M1682 2393 c-6 -3 -9 -10 -5 -16 4 -7 0 -8 -12 -3 -16 6 -16 4 -4
-11 12 -15 12 -16 -6 -9 -11 4 -16 3 -11 -1 13 -13 57 -11 46 2 -6 7 -5 16 2
23 14 14 9 21 -10 15z"/>
<path d="M2141 2397 c2 -1 13 -9 24 -17 19 -14 19 -14 6 3 -7 9 -18 17 -24 17
-6 0 -8 -1 -6 -3z"/>
<path d="M2390 2385 c7 -8 18 -15 25 -15 6 0 20 -9 30 -20 19 -21 50 -27 59
-11 3 4 -4 17 -17 27 -19 16 -20 17 -8 1 23 -29 1 -34 -24 -5 -15 17 -30 26
-39 22 -9 -3 -16 -1 -16 5 0 6 -5 11 -11 11 -8 0 -8 -5 1 -15z"/>
<path d="M1515 2380 c-3 -6 1 -7 9 -4 18 7 21 14 7 14 -6 0 -13 -4 -16 -10z"/>
<path d="M2300 2379 c0 -5 5 -7 10 -4 6 3 10 8 10 11 0 2 -4 4 -10 4 -5 0 -10
-5 -10 -11z"/>
<path d="M480 2368 c0 -9 -6 -23 -13 -30 -31 -32 -45 -64 -36 -81 9 -15 13
-15 42 6 17 12 37 27 44 32 7 6 30 24 52 40 22 17 40 33 41 37 0 12 -71 -34
-77 -49 -3 -8 -12 -12 -19 -9 -8 3 -14 -1 -14 -9 0 -8 -9 -15 -20 -15 -25 0
-25 8 1 36 16 18 19 26 10 41 -9 16 -10 16 -11 1z"/>
<path d="M645 2370 c3 -5 8 -10 11 -10 2 0 4 5 4 10 0 6 -5 10 -11 10 -5 0 -7
-4 -4 -10z"/>
<path d="M1472 2367 c17 -13 19 -32 5 -53 -4 -7 2 -23 12 -35 15 -18 22 -21
31 -12 17 16 3 38 -15 23 -9 -8 -14 -6 -19 5 -3 8 -2 15 3 15 13 0 10 54 -3
62 -19 13 -32 8 -14 -5z"/>
<path d="M2340 2370 c0 -5 5 -10 11 -10 5 0 7 5 4 10 -3 6 -8 10 -11 10 -2 0
-4 -4 -4 -10z"/>
<path d="M1200 2360 c0 -5 5 -10 10 -10 6 0 10 5 10 10 0 6 -4 10 -10 10 -5 0
-10 -4 -10 -10z"/>
<path d="M1537 2356 c-12 -9 -14 -16 -8 -21 6 -3 11 -2 11 4 0 5 12 14 28 19
21 8 22 11 7 11 -11 0 -28 -6 -38 -13z"/>
<path d="M1795 2360 c-4 -6 1 -7 11 -3 13 5 15 2 9 -15 -4 -15 -2 -22 6 -22 7
0 9 3 6 6 -3 4 -2 15 4 25 8 16 6 19 -10 19 -11 0 -23 -4 -26 -10z"/>
<path d="M1908 2363 c7 -3 16 -2 19 1 4 3 -2 6 -13 5 -11 0 -14 -3 -6 -6z"/>
<path d="M1960 2350 c-12 -22 2 -60 22 -60 6 0 4 9 -5 23 -10 16 -12 28 -5 40
5 9 7 17 4 17 -3 0 -10 -9 -16 -20z"/>
<path d="M1428 2353 c-23 -6 -23 -29 -1 -42 14 -8 15 -12 4 -25 -10 -12 -10
-16 -2 -16 7 0 9 -4 6 -10 -3 -5 -16 -10 -28 -10 -12 0 -35 -9 -52 -20 -32
-21 -25 -25 33 -20 12 1 22 -4 22 -10 0 -7 -8 -10 -20 -7 -11 3 -20 1 -20 -4
0 -5 -11 -2 -25 7 -27 18 -41 14 -32 -9 8 -20 64 -29 90 -15 12 7 31 13 41 15
41 7 65 68 33 85 -19 10 -20 9 -10 -3 20 -25 -1 -41 -58 -45 -54 -3 -47 7 12
20 21 5 26 12 27 38 0 18 -4 38 -10 45 -8 10 -7 12 6 7 12 -5 15 -2 10 10 -3
9 -7 15 -8 15 0 -1 -9 -3 -18 -6z"/>
<path d="M2280 2341 c-6 -12 -7 -21 -1 -21 10 0 24 30 17 37 -2 3 -9 -5 -16
-16z"/>
<path d="M710 2340 c-9 -6 -10 -10 -3 -10 6 0 15 5 18 10 8 12 4 12 -15 0z"/>
<path d="M824 2335 c22 -17 40 -20 32 -6 -3 5 -16 11 -28 14 -22 6 -22 5 -4
-8z"/>
<path d="M1090 2335 c5 -7 7 -15 3 -18 -3 -4 -1 -7 5 -7 7 0 12 8 12 18 0 10
-7 19 -15 19 -10 0 -12 -4 -5 -12z"/>
<path d="M1230 2339 c0 -5 5 -7 10 -4 6 3 10 8 10 11 0 2 -4 4 -10 4 -5 0 -10
-5 -10 -11z"/>
<path d="M1716 2335 c5 -11 2 -14 -12 -8 -18 6 -18 6 0 -15 11 -12 16 -22 12
-22 -4 0 0 -8 9 -17 16 -15 16 -18 -6 -33 -28 -22 -19 -50 16 -50 14 0 25 4
25 9 0 5 -9 7 -20 4 -24 -6 -25 5 -4 36 12 17 13 26 5 34 -6 6 -11 22 -11 36
0 24 1 24 15 5 8 -10 15 -14 15 -7 0 14 -27 43 -40 43 -5 0 -7 -7 -4 -15z"/>
<path d="M2037 2335 c3 -8 9 -12 14 -9 12 7 11 11 -5 17 -10 4 -13 1 -9 -8z"/>
<path d="M2335 2340 c-3 -5 -1 -10 4 -10 6 0 11 5 11 10 0 6 -2 10 -4 10 -3 0
-8 -4 -11 -10z"/>
<path d="M890 2325 c-8 -9 -16 -26 -17 -38 -2 -12 -9 -28 -17 -36 -21 -25 -27
-51 -11 -45 8 3 14 9 13 12 -2 20 3 32 12 27 6 -3 10 1 10 9 0 9 5 16 11 16 6
0 8 7 5 17 -4 9 -1 20 5 24 6 3 10 12 7 19 -3 9 -8 7 -18 -5z"/>
<path d="M1599 2328 c14 -19 51 -25 51 -9 0 15 -18 22 -25 11 -5 -8 -12 -7
-23 2 -15 12 -16 11 -3 -4z"/>
<path d="M2392 2305 c1 -16 -3 -40 -10 -52 -18 -33 -14 -39 8 -10 22 28 25 54
9 77 -8 12 -9 8 -7 -15z"/>
<path d="M1150 2310 c0 -5 5 -10 11 -10 5 0 7 5 4 10 -3 6 -8 10 -11 10 -2 0
-4 -4 -4 -10z"/>
<path d="M2165 2310 c-3 -6 1 -7 9 -4 18 7 21 14 7 14 -6 0 -13 -4 -16 -10z"/>
<path d="M583 2280 c-9 -16 -24 -30 -31 -30 -12 0 -12 -3 -1 -17 12 -15 12
-16 -1 -8 -12 6 -13 5 -3 -5 15 -16 12 -19 41 43 25 53 22 62 -5 17z"/>
<path d="M690 2302 c0 -12 19 -26 26 -19 2 2 -2 10 -11 17 -9 8 -15 8 -15 2z"/>
<path d="M1583 2296 c19 -19 40 -21 35 -3 -3 6 -15 14 -28 15 -21 4 -22 2 -7
-12z"/>
<path d="M1828 2303 c7 -3 16 -2 19 1 4 3 -2 6 -13 5 -11 0 -14 -3 -6 -6z"/>
<path d="M1920 2303 c16 -7 12 -21 -7 -26 -13 -3 -12 -5 5 -6 17 -1 23 4 20
16 -2 9 -9 18 -16 19 -7 1 -8 0 -2 -3z"/>
<path d="M2008 2303 c7 -3 16 -2 19 1 4 3 -2 6 -13 5 -11 0 -14 -3 -6 -6z"/>
<path d="M2246 2301 c-15 -6 -16 -9 -5 -13 8 -3 20 1 27 8 14 15 7 17 -22 5z"/>
<path d="M2348 2304 c6 -3 12 -12 12 -20 0 -8 5 -14 11 -14 19 0 4 35 -16 37
-11 2 -14 0 -7 -3z"/>
<path d="M1080 2290 c0 -5 7 -10 16 -10 8 0 12 5 9 10 -3 6 -10 10 -16 10 -5
0 -9 -4 -9 -10z"/>
<path d="M1195 2290 c-3 -5 -1 -10 4 -10 6 0 11 5 11 10 0 6 -2 10 -4 10 -3 0
-8 -4 -11 -10z"/>
<path d="M550 2275 c-7 -9 -8 -15 -2 -15 5 0 12 7 16 15 3 8 4 15 2 15 -2 0
-9 -7 -16 -15z"/>
<path d="M1157 2270 c3 -11 9 -17 15 -14 5 3 4 12 -3 20 -16 19 -18 18 -12 -6z"/>
<path d="M1255 2279 c-4 -6 3 -21 15 -34 17 -19 25 -21 35 -12 12 11 11 21 -3
23 -20 2 -41 17 -36 25 3 5 3 9 0 9 -3 0 -8 -5 -11 -11z"/>
<path d="M1558 2279 c-26 -14 -22 -32 5 -23 29 9 33 12 21 24 -5 5 -16 5 -26
-1z"/>
<path d="M1999 2273 c-13 -17 -13 -17 6 -3 11 8 22 16 24 17 2 2 0 3 -6 3 -6
0 -17 -8 -24 -17z"/>
<path d="M2115 2280 c3 -5 8 -10 11 -10 2 0 4 5 4 10 0 6 -5 10 -11 10 -5 0
-7 -4 -4 -10z"/>
<path d="M1770 2269 c0 -5 5 -7 10 -4 6 3 10 8 10 11 0 2 -4 4 -10 4 -5 0 -10
-5 -10 -11z"/>
<path d="M1851 2264 c0 -11 3 -14 6 -6 3 7 2 16 -1 19 -3 4 -6 -2 -5 -13z"/>
<path d="M816 2254 c-5 -14 -4 -15 9 -4 17 14 19 20 6 20 -5 0 -12 -7 -15 -16z"/>
<path d="M1209 2249 c18 -14 19 -19 7 -19 -15 0 -21 -17 -16 -49 1 -9 -4 -12
-14 -8 -9 4 -16 2 -16 -2 0 -5 7 -11 15 -15 8 -3 15 -12 15 -20 0 -13 20 -26
40 -26 5 0 0 15 -11 34 -20 34 -20 35 -1 54 22 22 11 57 -22 66 -20 5 -20 4 3
-15z"/>
<path d="M2128 2258 c-16 -5 -28 -13 -28 -18 0 -5 14 -2 30 6 17 9 30 17 30
20 0 2 -1 4 -2 3 -2 0 -15 -5 -30 -11z"/>
<path d="M600 2256 c0 -2 7 -6 15 -10 8 -3 15 -1 15 4 0 6 -7 10 -15 10 -8 0
-15 -2 -15 -4z"/>
<path d="M945 2247 c-4 -10 -5 -21 -1 -24 10 -10 18 4 13 24 -4 17 -4 17 -12
0z"/>
<path d="M652 2238 c-15 -15 -16 -48 0 -48 6 0 8 3 5 6 -3 4 -2 15 4 26 13 24
7 32 -9 16z"/>
<path d="M1006 2233 c-6 -14 -5 -15 5 -6 7 7 10 15 7 18 -3 3 -9 -2 -12 -12z"/>
<path d="M1061 2236 c-9 -11 -9 -15 1 -19 10 -4 11 -8 0 -23 -6 -11 -17 -30
-22 -43 -7 -15 -16 -21 -26 -17 -8 3 -12 2 -9 -3 3 -5 1 -12 -5 -16 -6 -4 -8
-10 -5 -15 7 -11 52 34 76 76 12 22 15 35 8 40 -8 4 -7 9 1 14 8 5 8 10 2 14
-5 3 -15 0 -21 -8z"/>
<path d="M1768 2243 c6 -2 18 -2 25 0 6 3 1 5 -13 5 -14 0 -19 -2 -12 -5z"/>
<path d="M2060 2240 c0 -5 5 -10 11 -10 5 0 7 5 4 10 -3 6 -8 10 -11 10 -2 0
-4 -4 -4 -10z"/>
<path d="M2400 2234 c0 -8 4 -13 9 -10 9 6 81 -55 81 -69 0 -5 7 -17 17 -27
17 -18 10 -23 -26 -19 -7 2 -10 -3 -6 -9 4 -6 14 -8 24 -5 9 3 26 -2 37 -10
23 -17 44 -19 44 -4 0 13 -20 33 -42 42 -9 3 -27 25 -38 48 -14 26 -32 45 -51
52 -16 6 -29 15 -29 19 0 4 -4 8 -10 8 -5 0 -10 -7 -10 -16z m147 -130 c-3 -3
-12 -4 -19 -1 -8 3 -5 6 6 6 11 1 17 -2 13 -5z"/>
<path d="M1164 2229 c-3 -6 -1 -16 5 -22 8 -8 11 -5 11 11 0 24 -5 28 -16 11z"/>
<path d="M1953 2219 c4 -13 7 -31 7 -39 0 -13 1 -13 10 0 6 9 5 20 -3 29 -10
12 -9 14 6 8 24 -9 21 0 -4 14 -20 10 -21 9 -16 -12z"/>
<path d="M598 2223 c7 -3 16 -2 19 1 4 3 -2 6 -13 5 -11 0 -14 -3 -6 -6z"/>
<path d="M719 2222 c10 -7 10 -11 1 -14 -9 -3 -8 -7 2 -16 12 -10 14 -8 13 10
-1 12 -8 24 -16 26 -12 3 -12 2 0 -6z"/>
<path d="M1876 2217 c11 -5 27 -19 38 -29 10 -11 20 -17 23 -14 3 3 -2 12 -11
21 -9 9 -14 20 -12 23 2 4 -10 8 -26 8 -26 1 -28 0 -12 -9z"/>
<path d="M2128 2218 c5 -5 16 -8 23 -6 8 3 3 7 -10 11 -17 4 -21 3 -13 -5z"/>
<path d="M770 2209 c0 -5 5 -7 10 -4 6 3 10 8 10 11 0 2 -4 4 -10 4 -5 0 -10
-5 -10 -11z"/>
<path d="M1780 2205 c7 -8 17 -15 22 -15 6 0 5 7 -2 15 -7 8 -17 15 -22 15 -6
0 -5 -7 2 -15z"/>
<path d="M944 2195 c4 -11 2 -21 -5 -26 -11 -7 -4 -29 9 -29 12 0 12 59 0 66
-8 5 -9 1 -4 -11z"/>
<path d="M2043 2191 c0 -11 5 -17 9 -15 5 3 6 9 3 14 -3 4 1 11 7 13 8 4 7 6
-4 6 -11 1 -16 -6 -15 -18z"/>
<path d="M545 2180 c10 -11 20 -20 22 -20 2 0 -1 9 -7 20 -6 11 -16 20 -22 20
-6 0 -3 -9 7 -20z"/>
<path d="M1005 2190 c-3 -5 -1 -10 4 -10 6 0 11 5 11 10 0 6 -2 10 -4 10 -3 0
-8 -4 -11 -10z"/>
<path d="M825 2180 c-19 -8 -19 -9 2 -9 12 -1 25 -6 28 -11 4 -6 11 -8 16 -5
8 5 -13 36 -23 34 -2 0 -12 -4 -23 -9z"/>
<path d="M1128 2166 c-4 -17 -1 -23 9 -19 7 3 10 10 7 15 -4 6 0 14 7 19 11 7
11 9 -2 9 -10 0 -19 -10 -21 -24z"/>
<path d="M1770 2177 c0 -20 -11 -22 -27 -6 -6 6 -17 9 -25 6 -8 -3 10 -26 51
-66 66 -64 89 -74 52 -23 -26 36 -27 46 -4 38 13 -5 11 0 -7 21 -14 15 -28 32
-32 38 -5 5 -8 1 -8 -8z m28 -36 c3 -8 -1 -12 -9 -9 -7 2 -15 10 -17 17 -3 8
1 12 9 9 7 -2 15 -10 17 -17z"/>
<path d="M2077 2172 c-10 -10 -17 -24 -17 -31 0 -8 -6 -11 -15 -7 -8 3 -15 1
-15 -5 0 -20 45 -4 48 17 2 12 13 26 25 32 16 8 17 11 6 11 -9 1 -23 -7 -32
-17z"/>
<path d="M516 2153 c-12 -45 -18 -87 -10 -80 5 5 9 12 10 15 3 27 18 62 26 62
5 0 6 5 3 10 -10 15 -23 12 -29 -7z"/>
<path d="M630 2161 c-8 -6 -18 -7 -22 -5 -4 3 -8 -2 -8 -10 0 -21 6 -20 32 4
23 21 22 26 -2 11z"/>
<path d="M690 2165 c0 -8 29 -12 39 -5 9 5 4 8 -13 8 -14 0 -26 -2 -26 -3z"/>
<path d="M1860 2155 c0 -17 18 -19 40 -4 12 8 10 9 -9 4 -16 -5 -21 -4 -17 4
4 6 2 11 -3 11 -6 0 -11 -7 -11 -15z"/>
<path d="M2350 2163 c8 -4 20 -13 27 -22 6 -9 14 -13 18 -10 9 10 -24 39 -43
38 -14 0 -14 -2 -2 -6z"/>
<path d="M895 2150 c-3 -5 -1 -10 4 -10 6 0 11 5 11 10 0 6 -2 10 -4 10 -3 0
-8 -4 -11 -10z"/>
<path d="M2433 2153 c9 -2 23 -2 30 0 6 3 -1 5 -18 5 -16 0 -22 -2 -12 -5z"/>
<path d="M1158 2131 c-12 -14 -13 -21 -5 -24 7 -3 -3 -11 -20 -18 -18 -8 -33
-18 -33 -24 0 -5 -4 -4 -8 3 -7 10 -16 10 -44 -2 -19 -9 -38 -12 -42 -9 -3 4
-6 -1 -6 -10 0 -9 5 -17 10 -17 6 0 10 4 10 8 0 4 21 8 47 8 26 1 49 6 51 13
2 6 10 11 18 11 8 0 14 5 14 10 0 6 7 10 16 10 11 0 14 5 10 16 -4 9 -1 23 5
30 6 8 7 14 2 14 -5 0 -16 -9 -25 -19z"/>
<path d="M1938 2130 c-10 -9 -18 -24 -18 -33 0 -10 -4 -17 -10 -17 -5 0 -10 3
-10 8 0 12 -49 31 -56 21 -3 -5 0 -9 6 -9 6 0 8 -5 4 -12 -5 -7 -3 -8 5 -3 18
11 63 -16 56 -33 -4 -12 -2 -12 8 -4 8 7 17 9 20 5 4 -3 7 -1 7 5 0 7 -7 12
-16 12 -14 0 -13 5 5 36 25 41 24 49 -1 24z"/>
<path d="M545 2130 c-3 -6 1 -7 9 -4 18 7 21 14 7 14 -6 0 -13 -4 -16 -10z"/>
<path d="M635 2130 c-3 -6 1 -7 9 -4 18 7 21 14 7 14 -6 0 -13 -4 -16 -10z"/>
<path d="M690 2130 c0 -5 5 -10 10 -10 6 0 10 5 10 10 0 6 -4 10 -10 10 -5 0
-10 -4 -10 -10z"/>
<path d="M1097 2120 c-3 -11 -2 -22 2 -24 4 -3 8 6 9 20 2 29 -4 31 -11 4z"/>
<path d="M903 2123 c4 -3 1 -13 -6 -22 -11 -14 -10 -14 6 -2 20 15 22 31 5 31
-6 0 -8 -3 -5 -7z"/>
<path d="M2146 2116 c3 -8 14 -12 25 -9 23 6 17 15 -11 20 -13 2 -18 -2 -14
-11z"/>
<path d="M560 2110 c0 -5 5 -10 11 -10 5 0 7 5 4 10 -3 6 -8 10 -11 10 -2 0
-4 -4 -4 -10z"/>
<path d="M663 2113 c4 -3 2 -12 -3 -18 -7 -9 -5 -17 7 -26 16 -13 17 -12 5 3
-9 11 -10 18 -2 23 14 8 13 25 -2 25 -6 0 -8 -3 -5 -7z"/>
<path d="M780 2111 c0 -5 5 -13 10 -16 6 -3 10 -2 10 4 0 5 -4 13 -10 16 -5 3
-10 2 -10 -4z"/>
<path d="M940 2110 c-9 -6 -10 -10 -3 -10 6 0 15 5 18 10 8 12 4 12 -15 0z"/>
<path d="M1280 2111 c0 -5 5 -13 10 -16 6 -3 10 -2 10 4 0 5 -4 13 -10 16 -5
3 -10 2 -10 -4z"/>
<path d="M593 2091 c-10 -16 -9 -20 3 -25 10 -4 13 -2 8 6 -5 7 -2 9 8 5 12
-4 14 -1 11 14 -7 24 -15 24 -30 0z"/>
<path d="M1055 2100 c3 -5 11 -10 16 -10 6 0 7 5 4 10 -3 6 -11 10 -16 10 -6
0 -7 -4 -4 -10z"/>
<path d="M2105 2099 c-4 -6 -5 -12 -2 -15 2 -3 7 2 10 11 7 17 1 20 -8 4z"/>
<path d="M2316 2094 c-23 -23 -20 -30 4 -9 11 10 20 20 20 22 0 7 -9 2 -24
-13z"/>
<path d="M1190 2090 c0 -5 5 -10 11 -10 5 0 7 5 4 10 -3 6 -8 10 -11 10 -2 0
-4 -4 -4 -10z"/>
<path d="M2052 2088 c-14 -14 -16 -62 -2 -53 6 3 10 0 10 -9 0 -8 -6 -16 -12
-19 -7 -2 -1 -4 14 -4 l28 0 -19 26 c-13 19 -16 32 -10 49 10 25 8 27 -9 10z"/>
<path d="M2432 2085 c-11 -12 -10 -15 3 -15 8 0 15 7 15 15 0 18 -2 18 -18 0z"/>
<path d="M737 2070 c3 -11 9 -17 15 -14 5 3 4 12 -3 20 -16 19 -18 18 -12 -6z"/>
<path d="M893 2054 c-18 -18 -33 -37 -33 -44 0 -6 -4 -8 -10 -5 -10 6 -59 -24
-60 -37 0 -14 16 -9 37 11 12 11 23 17 27 14 3 -3 8 2 12 11 3 9 13 16 21 16
8 0 12 4 9 9 -3 5 3 11 14 14 12 3 20 14 20 26 0 12 -1 20 -2 20 -2 -1 -18
-17 -35 -35z"/>
<path d="M967 2084 c-8 -8 1 -24 14 -24 5 0 9 7 9 15 0 15 -12 20 -23 9z"/>
<path d="M1961 2083 c-1 -17 11 -22 34 -12 19 9 19 9 -2 5 -12 -2 -24 1 -27 8
-3 8 -5 8 -5 -1z"/>
<path d="M2484 2055 c19 -29 20 -39 4 -29 -7 4 -8 3 -4 -4 4 -7 14 -12 21 -12
9 0 12 -6 9 -15 -4 -8 -1 -15 4 -15 22 0 23 21 3 49 -12 16 -21 34 -21 40 0 6
-7 11 -16 11 -15 0 -15 -2 0 -25z"/>
<path d="M483 2059 c3 -9 0 -22 -6 -28 -15 -15 4 -13 26 3 19 14 24 31 6 20
-6 -3 -16 0 -21 7 -8 11 -9 11 -5 -2z"/>
<path d="M1235 2060 c3 -5 14 -10 23 -10 15 0 15 2 2 10 -20 13 -33 13 -25 0z"/>
<path d="M1650 2066 c0 -2 7 -9 15 -16 13 -11 14 -10 9 4 -5 14 -24 23 -24 12z"/>
<path d="M1862 2048 c7 -13 13 -25 13 -28 0 -3 5 -13 11 -23 10 -18 12 -18 29
-1 16 17 18 17 30 1 12 -17 31 -24 21 -8 -8 13 21 34 35 26 7 -5 10 -1 7 11
-2 10 -12 20 -23 21 -18 3 -18 2 -2 -5 17 -7 16 -9 -6 -21 -19 -10 -29 -11
-47 -1 -15 8 -20 8 -16 1 4 -6 0 -11 -8 -11 -15 0 -20 14 -19 48 1 6 -8 12
-18 12 -17 0 -18 -3 -7 -22z"/>
<path d="M2105 2060 c3 -5 8 -10 11 -10 2 0 4 5 4 10 0 6 -5 10 -11 10 -5 0
-7 -4 -4 -10z"/>
<path d="M576 2043 c-4 -9 -1 -21 5 -27 9 -8 10 -7 6 6 -3 9 -1 18 6 21 8 2 8
5 0 10 -6 4 -14 -1 -17 -10z"/>
<path d="M650 2052 c0 -12 19 -26 26 -19 2 2 -2 10 -11 17 -9 8 -15 8 -15 2z"/>
<path d="M820 2050 c0 -5 5 -10 11 -10 5 0 7 5 4 10 -3 6 -8 10 -11 10 -2 0
-4 -4 -4 -10z"/>
<path d="M1185 2050 c-16 -7 -17 -9 -3 -9 9 -1 20 4 23 9 7 11 7 11 -20 0z"/>
<path d="M1510 2040 c0 -5 5 -10 10 -10 6 0 10 5 10 10 0 6 -4 10 -10 10 -5 0
-10 -4 -10 -10z"/>
<path d="M2278 2038 c5 -5 16 -8 23 -6 8 3 3 7 -10 11 -17 4 -21 3 -13 -5z"/>
<path d="M2348 2043 c6 -2 10 -9 7 -14 -4 -5 1 -6 10 -2 13 5 14 7 3 14 -7 5
-17 8 -23 8 -5 0 -4 -3 3 -6z"/>
<path d="M690 2026 c0 -8 5 -18 10 -21 6 -3 10 1 10 9 0 8 -4 18 -10 21 -5 3
-10 -1 -10 -9z"/>
<path d="M1790 2036 c0 -2 7 -7 16 -10 8 -3 12 -2 9 4 -6 10 -25 14 -25 6z"/>
<path d="M2245 2030 c-3 -5 -1 -10 4 -10 6 0 11 5 11 10 0 6 -2 10 -4 10 -3 0
-8 -4 -11 -10z"/>
<path d="M539 2016 c10 -11 9 -16 -5 -24 -11 -6 -13 -11 -5 -16 6 -4 11 -3 11
3 0 7 8 7 26 1 l26 -10 -29 30 c-29 31 -45 41 -24 16z"/>
<path d="M767 2000 c-10 -16 -22 -30 -28 -30 -5 0 -9 -7 -9 -16 0 -14 2 -15
17 -3 9 8 18 13 20 12 1 -2 6 -3 11 -3 4 0 1 4 -6 8 -10 7 -8 15 8 35 12 15
18 27 13 27 -5 0 -17 -13 -26 -30z"/>
<path d="M650 2010 c13 -9 13 -10 0 -10 -9 0 -16 -10 -17 -22 -2 -22 -1 -22
12 -4 7 10 18 15 23 12 6 -3 8 2 5 14 -3 11 -13 20 -22 20 -14 0 -14 -2 -1
-10z"/>
<path d="M449 1989 c-7 -15 -8 -28 -1 -43 5 -12 8 -41 6 -64 -2 -23 0 -42 5
-42 4 0 6 -13 3 -29 -2 -16 1 -32 7 -35 6 -4 11 -20 11 -37 0 -16 5 -29 10
-29 6 0 10 7 10 16 0 14 3 14 15 4 13 -10 18 -11 28 -1 9 10 8 11 -8 5 -11 -4
-17 -3 -13 1 5 5 -1 14 -12 22 -11 8 -20 19 -20 25 0 7 4 7 13 -1 11 -8 13 -6
12 9 -1 21 -15 41 -15 22 0 -7 -6 -12 -14 -12 -9 0 -12 8 -8 26 3 16 9 23 18
20 10 -4 14 3 14 24 0 30 -13 40 -25 20 -3 -5 -1 -10 5 -10 6 0 8 -5 4 -11
-10 -16 -26 5 -18 24 3 9 12 17 20 17 8 0 14 5 14 11 0 6 -6 9 -13 6 -19 -7
-33 4 -42 31 -5 19 -3 25 14 29 24 6 28 23 6 23 -8 0 -19 -10 -26 -21z"/>
<path d="M2210 2001 c0 -5 7 -12 16 -15 14 -5 15 -4 4 9 -14 17 -20 19 -20 6z"/>
<path d="M2272 1990 c12 -19 28 -27 28 -14 0 7 -27 34 -34 34 -4 0 -1 -9 6
-20z"/>
<path d="M2325 2000 c3 -5 11 -10 16 -10 6 0 7 5 4 10 -3 6 -11 10 -16 10 -6
0 -7 -4 -4 -10z"/>
<path d="M2379 2001 c8 -5 10 -14 6 -22 -6 -11 -5 -11 5 -2 14 12 6 33 -13 33
-8 0 -7 -3 2 -9z"/>
<path d="M605 1980 c3 -5 8 -10 11 -10 2 0 4 5 4 10 0 6 -5 10 -11 10 -5 0 -7
-4 -4 -10z"/>
<path d="M2066 1982 c-2 -4 2 -13 10 -20 11 -10 15 -9 23 6 8 14 6 18 -10 19
-10 1 -20 -1 -23 -5z"/>
<path d="M2116 1974 c-3 -7 2 -18 10 -25 12 -10 13 -9 8 4 -4 11 1 16 18 19
22 3 22 4 -4 9 -17 4 -29 1 -32 -7z"/>
<path d="M2460 1976 c6 -8 19 -12 27 -9 14 6 14 8 -3 14 -30 12 -37 10 -24 -5z"/>
<path d="M1988 1973 c7 -3 16 -2 19 1 4 3 -2 6 -13 5 -11 0 -14 -3 -6 -6z"/>
<path d="M2177 1958 c-10 -11 -17 -22 -14 -24 6 -6 37 25 37 37 0 12 -2 11
-23 -13z"/>
<path d="M2540 1970 c0 -5 4 -10 9 -10 5 0 11 -8 15 -17 3 -10 9 -24 12 -32 5
-10 2 -11 -7 -6 -8 5 -11 5 -7 0 4 -4 22 -9 40 -10 31 -3 31 -2 12 14 -11 9
-28 28 -37 44 -17 27 -37 36 -37 17z"/>
<path d="M475 1960 c-3 -5 -1 -10 4 -10 6 0 11 5 11 10 0 6 -2 10 -4 10 -3 0
-8 -4 -11 -10z"/>
<path d="M2400 1960 c0 -5 10 -15 23 -21 22 -12 22 -12 3 10 -21 23 -26 26
-26 11z"/>
<path d="M518 1953 c7 -3 16 -2 19 1 4 3 -2 6 -13 5 -11 0 -14 -3 -6 -6z"/>
<path d="M600 1950 c-9 -6 -10 -10 -3 -10 6 0 15 5 18 10 8 12 4 12 -15 0z"/>
<path d="M690 1952 c0 -5 7 -15 15 -22 8 -7 15 -8 15 -2 0 5 -7 15 -15 22 -8
7 -15 8 -15 2z"/>
<path d="M777 1931 c-3 -13 -1 -18 9 -14 7 2 10 11 7 19 -7 19 -10 18 -16 -5z"/>
<path d="M2498 1943 c7 -3 16 -2 19 1 4 3 -2 6 -13 5 -11 0 -14 -3 -6 -6z"/>
<path d="M570 1924 c0 -8 5 -12 10 -9 6 4 8 11 5 16 -9 14 -15 11 -15 -7z"/>
<path d="M660 1929 c0 -5 5 -7 10 -4 6 3 10 8 10 11 0 2 -4 4 -10 4 -5 0 -10
-5 -10 -11z"/>
<path d="M2085 1931 c-3 -5 -1 -12 5 -16 5 -3 10 1 10 9 0 18 -6 21 -15 7z"/>
<path d="M2218 1933 c7 -3 16 -2 19 1 4 3 -2 6 -13 5 -11 0 -14 -3 -6 -6z"/>
<path d="M2255 1930 c3 -5 11 -10 16 -10 6 0 7 5 4 10 -3 6 -11 10 -16 10 -6
0 -7 -4 -4 -10z"/>
<path d="M544 1918 c-5 -7 -10 -22 -11 -33 -2 -15 2 -12 13 8 15 29 14 50 -2
25z"/>
<path d="M1662 1910 c0 -14 2 -19 5 -12 2 6 2 18 0 25 -3 6 -5 1 -5 -13z"/>
<path d="M971 1904 c-30 -13 -93 -64 -78 -64 3 0 22 9 41 21 33 19 113 32 119
18 5 -14 66 -18 76 -5 9 11 0 14 -45 19 -30 3 -61 10 -67 15 -8 7 -23 6 -46
-4z"/>
<path d="M1055 1910 c3 -5 10 -10 16 -10 5 0 9 5 9 10 0 6 -7 10 -16 10 -8 0
-12 -4 -9 -10z"/>
<path d="M1098 1913 c7 -3 16 -2 19 1 4 3 -2 6 -13 5 -11 0 -14 -3 -6 -6z"/>
<path d="M2146 1905 c-3 -8 -1 -15 4 -15 6 0 10 7 10 15 0 8 -2 15 -4 15 -2 0
-6 -7 -10 -15z"/>
<path d="M2213 1904 c-3 -8 -12 -13 -20 -10 -8 3 -11 1 -8 -4 10 -17 32 -11
38 10 6 24 -1 27 -10 4z"/>
<path d="M803 1895 c0 -8 4 -12 9 -9 5 3 6 10 3 15 -9 13 -12 11 -12 -6z"/>
<path d="M1152 1899 c7 -5 33 -12 58 -15 25 -4 39 -9 32 -11 -6 -3 -9 -10 -5
-16 4 -7 0 -8 -13 -3 -39 16 -81 18 -89 5 -6 -9 -4 -11 8 -6 9 3 19 2 21 -2 6
-10 78 -7 94 3 8 5 10 1 5 -11 -4 -14 -3 -15 6 -7 10 9 10 16 -1 33 -12 20
-27 25 -55 22 -7 -1 -13 2 -13 6 0 4 -14 8 -31 9 -20 1 -26 -2 -17 -7z"/>
<path d="M1386 1894 c-9 -23 -4 -24 17 -2 13 14 14 18 3 18 -8 0 -17 -7 -20
-16z"/>
<path d="M2458 1903 c7 -3 16 -2 19 1 4 3 -2 6 -13 5 -11 0 -14 -3 -6 -6z"/>
<path d="M2098 1893 c6 -2 18 -2 25 0 6 3 1 5 -13 5 -14 0 -19 -2 -12 -5z"/>
<path d="M2260 1896 c0 -2 7 -7 16 -10 8 -3 12 -2 9 4 -6 10 -25 14 -25 6z"/>
<path d="M2330 1879 c-7 -11 -9 -23 -6 -26 3 -3 9 3 13 13 3 10 11 22 17 26 8
5 7 8 -1 8 -7 0 -17 -9 -23 -21z"/>
<path d="M1748 1883 c7 -3 16 -2 19 1 4 3 -2 6 -13 5 -11 0 -14 -3 -6 -6z"/>
<path d="M2485 1880 c-3 -5 -2 -10 4 -10 5 0 13 5 16 10 3 6 2 10 -4 10 -5 0
-13 -4 -16 -10z"/>
<path d="M2550 1878 c0 -5 4 -8 9 -8 5 0 16 -3 25 -6 10 -4 16 -1 16 7 0 8
-11 14 -25 14 -14 0 -25 -3 -25 -7z"/>
<path d="M2624 1875 c-17 -14 -17 -16 -3 -27 21 -17 52 -84 45 -96 -3 -6 3
-21 13 -33 l19 -24 10 26 c17 43 17 53 3 87 -9 22 -20 32 -35 32 -12 0 -31 7
-42 15 -19 15 -19 15 1 12 11 -1 26 -6 33 -11 19 -12 27 1 12 19 -16 19 -31
19 -56 0z m54 -61 c4 2 13 -3 21 -11 12 -13 10 -14 -10 -11 -15 2 -25 11 -26
23 -2 11 0 14 3 7 3 -6 9 -10 12 -8z m25 -54 c-3 -11 -8 -20 -12 -20 -4 0 -7
9 -8 20 -1 11 4 20 12 20 8 0 11 -7 8 -20z"/>
<path d="M2386 1865 c-3 -8 -1 -15 3 -15 5 0 11 7 15 15 3 8 1 15 -3 15 -5 0
-11 -7 -15 -15z"/>
<path d="M686 1855 c-3 -8 -1 -15 4 -15 6 0 10 7 10 15 0 8 -2 15 -4 15 -2 0
-6 -7 -10 -15z"/>
<path d="M790 1866 c0 -2 7 -7 16 -10 8 -3 12 -2 9 4 -6 10 -25 14 -25 6z"/>
<path d="M1300 1860 c6 -4 11 -11 10 -16 -1 -5 4 -10 11 -13 7 -2 9 1 5 8 -4
7 0 11 13 11 10 0 22 -6 24 -12 4 -10 6 -10 6 -1 1 16 -19 27 -53 29 -16 1
-23 -1 -16 -6z"/>
<path d="M1824 1851 c-10 -11 -24 -17 -33 -14 -12 5 -13 3 -5 -6 8 -9 18 -8
41 6 28 16 32 16 47 1 15 -15 15 -17 -2 -22 -9 -3 -5 -4 11 -2 15 2 27 -1 27
-6 0 -5 15 -9 33 -8 60 4 77 0 77 -15 0 -8 7 -15 16 -15 14 0 14 1 0 16 -9 8
-16 19 -16 24 0 7 -41 27 -70 32 -8 2 -20 9 -26 17 -9 11 -11 11 -11 -3 0 -9
11 -19 24 -22 12 -4 20 -10 17 -15 -9 -15 -24 -10 -47 15 -33 35 -63 41 -83
17z"/>
<path d="M2108 1863 c6 -2 12 -11 12 -19 0 -8 5 -14 10 -14 6 0 10 4 10 8 0
12 -22 32 -34 31 -6 0 -5 -3 2 -6z"/>
<path d="M544 1852 c-6 -4 -8 -16 -4 -27 6 -17 7 -16 12 8 3 15 5 27 4 27 0 0
-6 -4 -12 -8z"/>
<path d="M765 1849 c-4 -6 -5 -12 -2 -15 2 -3 7 2 10 11 7 17 1 20 -8 4z"/>
<path d="M1440 1851 c0 -6 4 -13 10 -16 6 -3 7 1 4 9 -7 18 -14 21 -14 7z"/>
<path d="M1748 1853 c12 -2 32 -2 45 0 12 2 2 4 -23 4 -25 0 -35 -2 -22 -4z"/>
<path d="M2251 1844 c0 -11 3 -14 6 -6 3 7 2 16 -1 19 -3 4 -6 -2 -5 -13z"/>
<path d="M2506 1845 c4 -8 8 -15 10 -15 2 0 4 7 4 15 0 8 -4 15 -10 15 -5 0
-7 -7 -4 -15z"/>
<path d="M790 1840 c0 -5 5 -10 11 -10 5 0 7 5 4 10 -3 6 -8 10 -11 10 -2 0
-4 -4 -4 -10z"/>
<path d="M1608 1843 c7 -3 16 -2 19 1 4 3 -2 6 -13 5 -11 0 -14 -3 -6 -6z"/>
<path d="M2410 1840 c0 -5 5 -10 11 -10 5 0 7 5 4 10 -3 6 -8 10 -11 10 -2 0
-4 -4 -4 -10z"/>
<path d="M2545 1840 c-3 -6 0 -10 7 -11 7 -1 2 -5 -12 -9 l-25 -8 27 -1 c32
-1 41 9 22 26 -8 8 -15 9 -19 3z"/>
<path d="M2204 1825 c8 -8 20 -15 26 -15 7 0 6 6 -4 15 -8 8 -20 15 -26 15 -7
0 -6 -6 4 -15z"/>
<path d="M1656 1814 c-4 -9 -5 -18 -4 -20 6 -5 124 -4 161 2 20 3 37 10 37 16
0 5 -9 7 -20 4 -11 -3 -29 -9 -40 -12 -14 -4 -20 -1 -20 10 0 11 -9 16 -27 15
l-28 -1 25 -7 25 -7 -25 -7 c-34 -9 -42 -9 -35 3 3 6 2 10 -4 10 -5 0 -16 3
-24 6 -8 3 -17 -2 -21 -12z"/>
<path d="M570 1806 c0 -7 -7 -19 -15 -26 -8 -7 -15 -17 -15 -23 0 -5 9 0 20
13 18 21 27 50 15 50 -3 0 -5 -6 -5 -14z"/>
<path d="M776 1811 c-4 -5 0 -11 6 -14 10 -3 10 -7 1 -17 -6 -7 -9 -19 -6 -26
3 -9 -2 -14 -17 -14 -14 0 -20 5 -17 13 4 10 -5 13 -28 13 -31 -1 -32 -2 -30
-39 2 -35 -21 -116 -38 -133 -4 -4 -7 -18 -7 -30 0 -13 -8 -27 -17 -33 -19
-10 -13 -23 12 -27 8 -1 11 4 8 12 -3 8 0 14 6 14 6 0 11 9 11 20 0 18 17 57
30 70 3 3 7 21 8 40 2 19 8 36 13 38 4 2 3 12 -3 22 -19 30 -2 35 31 9 43 -35
39 -83 -9 -101 -8 -3 -1 -6 15 -5 29 0 30 2 33 51 2 28 7 56 13 62 5 6 6 14 2
17 -3 4 0 13 7 21 10 13 9 18 -3 31 -9 8 -18 11 -21 6z"/>
<path d="M1330 1810 c0 -6 7 -10 15 -10 8 0 15 2 15 4 0 2 -7 6 -15 10 -8 3
-15 1 -15 -4z"/>
<path d="M2480 1815 c0 -8 34 -45 42 -45 14 0 8 23 -9 36 -18 14 -33 18 -33 9z"/>
<path d="M2585 1809 c-4 -6 -5 -13 -2 -16 7 -7 27 6 27 18 0 12 -17 12 -25 -2z"/>
<path d="M2099 1778 c-1 -18 -1 -58 0 -90 1 -31 -3 -59 -8 -63 -14 -8 -14 -45
-1 -45 6 0 10 8 10 18 1 28 26 53 56 55 23 2 29 -2 29 -18 1 -82 -49 -267 -85
-312 -11 -14 -20 -33 -20 -42 0 -10 -5 -22 -12 -29 -6 -6 -9 -15 -5 -19 10 -9
37 29 32 45 -2 6 -1 12 4 12 5 0 12 11 15 24 5 22 10 24 45 19 33 -4 42 -1 64
23 25 27 22 44 -8 44 -5 0 -4 -4 4 -9 9 -6 10 -11 2 -15 -6 -4 -16 -4 -22 0
-7 4 -9 0 -5 -13 5 -17 2 -19 -24 -15 -33 5 -37 13 -15 32 8 7 15 23 15 35 0
13 6 26 13 28 9 4 9 6 -1 6 -8 1 -10 6 -6 13 5 7 9 19 10 28 1 8 5 40 9 70 4
31 14 60 23 68 16 13 16 13 0 8 -21 -6 -23 4 -5 23 10 11 9 13 -3 9 -8 -3 -23
1 -32 10 -12 10 -18 11 -18 4 0 -7 -12 -12 -26 -12 -16 0 -24 5 -21 13 2 6 1
24 -4 39 -4 14 -5 29 -1 32 9 9 9 56 0 56 -4 0 -9 -15 -9 -32z"/>
<path d="M2356 1798 c3 -4 14 -8 24 -8 13 0 18 -6 16 -23 -3 -33 -14 -47 -37
-47 -16 0 -19 -7 -19 -52 0 -59 8 -61 12 -3 2 21 9 40 17 43 9 3 11 -2 6 -17
-3 -11 -8 -33 -11 -48 -3 -21 -2 -24 6 -12 8 13 15 39 33 114 1 6 6 16 10 23
12 18 1 29 -32 34 -17 2 -28 1 -25 -4z"/>
<path d="M720 1790 c-9 -6 -10 -10 -3 -10 6 0 15 5 18 10 8 12 4 12 -15 0z"/>
<path d="M1170 1794 c-74 -13 -119 -28 -153 -50 -50 -33 -40 -43 13 -15 l41
21 26 -20 c18 -14 33 -18 52 -13 28 7 51 26 51 42 0 15 16 14 53 -6 l32 -17
-44 -8 c-64 -11 -61 -16 8 -15 34 1 61 5 61 9 0 4 -7 4 -17 1 -11 -4 -14 -3
-9 6 8 12 -28 51 -47 51 -6 0 -8 2 -6 5 3 2 27 -2 54 -9 42 -11 50 -16 48 -34
-3 -22 11 -30 21 -13 10 16 -6 42 -32 52 -30 12 -117 19 -152 13z m-24 -36
c-9 -5 -14 -13 -11 -19 8 -12 -6 -11 -25 1 -13 8 -13 10 1 10 9 0 20 7 23 16
3 8 11 12 17 8 8 -5 6 -10 -5 -16z"/>
<path d="M2271 1791 c-8 -5 -9 -11 -3 -15 5 -3 12 1 16 9 6 17 6 18 -13 6z"/>
<path d="M1377 1769 c7 -7 15 -10 18 -7 3 3 -2 9 -12 12 -14 6 -15 5 -6 -5z"/>
<path d="M2553 1774 c-7 -3 -9 -12 -6 -20 4 -11 9 -12 19 -3 25 20 17 35 -13
23z"/>
<path d="M970 1744 c-17 -9 -20 -14 -9 -14 9 0 22 7 29 15 15 18 13 18 -20 -1z"/>
<path d="M1623 1744 c-3 -8 -11 -13 -18 -10 -6 2 -17 1 -23 -3 -7 -4 0 -11 18
-18 18 -7 28 -7 24 -2 -3 6 2 19 12 30 10 11 12 19 5 19 -6 0 -14 -7 -18 -16z"/>
<path d="M1665 1750 c-4 -7 3 -8 22 -4 38 9 42 14 10 14 -14 0 -29 -5 -32 -10z"/>
<path d="M567 1735 c3 -8 9 -12 14 -9 12 7 11 11 -5 17 -10 4 -13 1 -9 -8z"/>
<path d="M1707 1736 c-40 -15 -67 -33 -67 -47 0 -17 29 -9 35 10 3 10 17 22
32 25 29 8 28 8 37 -21 7 -21 5 -22 -31 -16 -21 3 -35 3 -32 -1 3 -3 25 -8 49
-11 23 -2 54 -6 69 -10 19 -4 33 0 50 16 l23 21 39 -38 c23 -22 39 -32 39 -24
-1 28 -38 59 -91 79 -79 28 -110 32 -152 17z m121 -47 c-8 -6 -14 -3 -16 7 -3
12 -11 14 -30 9 -26 -6 -26 -6 -7 8 17 13 22 13 43 -1 18 -11 20 -17 10 -23z"/>
<path d="M615 1710 c3 -10 1 -29 -6 -41 l-11 -22 -18 23 c-11 15 -19 19 -24
11 -4 -6 0 -14 8 -17 9 -3 16 -10 16 -16 0 -5 -4 -6 -10 -3 -5 3 -10 1 -10 -5
0 -8 7 -9 18 -5 9 4 23 8 30 8 21 1 30 87 9 87 -5 0 -6 -9 -2 -20z"/>
<path d="M1366 1714 c-9 -24 -7 -27 9 -10 17 17 19 26 6 26 -5 0 -12 -7 -15
-16z"/>
<path d="M2271 1723 c-1 -7 8 -17 19 -23 14 -7 20 -7 20 0 0 5 -6 10 -14 10
-8 0 -17 6 -19 13 -4 9 -6 9 -6 0z"/>
<path d="M925 1710 c3 -5 10 -10 16 -10 5 0 9 5 9 10 0 6 -7 10 -16 10 -8 0
-12 -4 -9 -10z"/>
<path d="M1062 1706 c7 -8 15 -12 17 -11 5 6 -10 25 -20 25 -5 0 -4 -6 3 -14z"/>
<path d="M2235 1710 c3 -5 11 -10 16 -10 6 0 7 5 4 10 -3 6 -11 10 -16 10 -6
0 -7 -4 -4 -10z"/>
<path d="M420 1696 c0 -8 6 -16 13 -19 25 -10 99 1 115 17 10 10 12 16 5 16
-7 0 -18 -6 -25 -13 -13 -14 -58 -11 -58 4 0 5 -11 9 -25 9 -15 0 -25 -6 -25
-14z"/>
<path d="M1576 1693 c-6 -14 -5 -15 5 -6 7 7 10 15 7 18 -3 3 -9 -2 -12 -12z"/>
<path d="M1206 1684 c-4 -12 -14 -14 -38 -10 -29 5 -30 5 -9 -4 17 -7 35 -7
60 1 51 16 61 29 24 29 -19 0 -33 -6 -37 -16z"/>
<path d="M1315 1686 c-18 -19 -26 -36 -18 -36 9 0 37 40 31 45 -2 2 -8 -2 -13
-9z"/>
<path d="M720 1686 c0 -2 7 -9 15 -16 9 -7 15 -8 15 -2 0 5 -7 12 -15 16 -8 3
-15 4 -15 2z"/>
<path d="M1950 1680 c0 -5 5 -10 11 -10 5 0 7 5 4 10 -3 6 -8 10 -11 10 -2 0
-4 -4 -4 -10z"/>
<path d="M2290 1672 c0 -5 -2 -16 -5 -24 -3 -7 1 -22 9 -33 13 -19 14 -17 11
19 -3 34 -15 65 -15 38z"/>
<path d="M1078 1663 c7 -3 16 -2 19 1 4 3 -2 6 -13 5 -11 0 -14 -3 -6 -6z"/>
<path d="M1266 1655 c-3 -8 -1 -15 4 -15 6 0 10 7 10 15 0 8 -2 15 -4 15 -2 0
-6 -7 -10 -15z"/>
<path d="M1715 1640 c10 -11 22 -20 27 -20 4 0 -1 9 -12 20 -11 11 -23 20 -27
20 -3 0 2 -9 12 -20z"/>
<path d="M1850 1650 c0 -14 25 -18 37 -5 9 10 6 13 -13 13 -13 0 -24 -4 -24
-8z"/>
<path d="M1596 1641 c-4 -5 3 -7 14 -4 23 6 26 13 6 13 -8 0 -17 -4 -20 -9z"/>
<path d="M1233 1615 c-3 -9 -3 -18 -1 -21 3 -3 8 4 11 16 6 23 -1 27 -10 5z"/>
<path d="M1627 1619 c7 -7 15 -10 18 -7 3 3 -2 9 -12 12 -14 6 -15 5 -6 -5z"/>
<path d="M1760 1621 c0 -5 9 -11 20 -14 24 -6 27 8 4 17 -21 8 -24 8 -24 -3z"/>
<path d="M2605 1620 c4 -6 11 -8 16 -4 5 3 16 1 24 -6 8 -6 16 -7 19 -2 3 6
-4 12 -17 16 -33 9 -49 7 -42 -4z"/>
<path d="M2128 1593 c-18 -15 -35 -28 -36 -29 -2 -1 -8 -38 -14 -81 -5 -43
-18 -96 -28 -118 -22 -50 -71 -207 -66 -213 3 -2 10 7 16 20 7 12 22 31 34 40
18 15 19 18 4 18 -19 0 -24 20 -9 35 19 21 61 158 67 222 6 59 20 93 38 93 3
0 7 -17 9 -37 4 -37 4 -36 3 4 0 31 5 47 19 58 11 8 15 15 8 15 -6 0 -26 -12
-45 -27z"/>
<path d="M762 1585 c-13 -28 -16 -63 -5 -51 4 3 13 -4 20 -16 9 -18 12 -19 13
-6 0 9 -4 19 -9 23 -5 3 -7 21 -4 40 7 41 1 45 -15 10z"/>
<path d="M1195 1580 c4 -6 11 -8 16 -5 14 9 11 15 -7 15 -8 0 -12 -5 -9 -10z"/>
<path d="M2291 1574 c0 -11 3 -14 6 -6 3 7 2 16 -1 19 -3 4 -6 -2 -5 -13z"/>
<path d="M565 1570 c-19 -8 -19 -9 3 -9 12 -1 22 4 22 9 0 6 -1 10 -2 9 -2 0
-12 -4 -23 -9z"/>
<path d="M1685 1560 c10 -11 20 -20 22 -20 2 0 -2 9 -9 20 -7 11 -17 20 -22
20 -5 0 -1 -9 9 -20z"/>
<path d="M2670 1540 c6 -11 8 -31 4 -45 -4 -16 -2 -25 6 -25 6 0 9 4 5 9 -3 5
-1 12 4 16 5 3 9 14 8 25 -1 10 -5 16 -9 14 -4 -3 -8 2 -8 10 0 9 -5 16 -10
16 -7 0 -7 -6 0 -20z"/>
<path d="M562 1530 c-8 -13 -6 -19 9 -28 10 -7 19 -17 19 -23 0 -5 -5 -7 -12
-3 -7 5 -9 2 -5 -9 3 -9 0 -18 -9 -21 -9 -3 -12 -10 -9 -16 3 -5 1 -10 -4 -10
-6 0 -11 5 -11 10 0 21 -20 9 -26 -16 -4 -17 -1 -31 9 -41 20 -21 47 -10 47
19 1 13 7 34 15 48 20 35 20 81 0 74 -20 -8 -19 6 1 21 14 10 14 12 2 12 -9 0
-20 -8 -26 -17z m-2 -130 c0 -5 -6 -10 -14 -10 -8 0 -18 5 -21 10 -3 6 3 10
14 10 12 0 21 -4 21 -10z"/>
<path d="M2230 1546 c0 -2 7 -7 16 -10 8 -3 12 -2 9 4 -6 10 -25 14 -25 6z"/>
<path d="M1818 1533 c7 -3 16 -2 19 1 4 3 -2 6 -13 5 -11 0 -14 -3 -6 -6z"/>
<path d="M2223 1510 c1 -20 8 -25 20 -14 7 8 -3 34 -13 34 -5 0 -8 -9 -7 -20z"/>
<path d="M2321 1524 c1 -21 16 -47 21 -38 4 5 0 18 -8 29 -8 10 -14 15 -13 9z"/>
<path d="M995 1509 c-16 -6 -14 -8 13 -8 33 -1 41 4 20 12 -7 2 -22 1 -33 -4z"/>
<path d="M1570 1493 c0 -13 5 -23 10 -23 13 0 13 11 0 30 -8 12 -10 11 -10 -7z"/>
<path d="M1737 1495 c3 -8 9 -12 14 -9 12 7 11 11 -5 17 -10 4 -13 1 -9 -8z"/>
<path d="M547 1493 c-10 -9 -9 -33 1 -33 4 0 8 9 8 20 0 23 0 22 -9 13z"/>
<path d="M690 1482 c11 -22 13 -23 30 -7 19 17 46 12 35 -6 -4 -5 1 -12 9 -15
9 -3 16 -15 16 -25 0 -10 4 -19 9 -19 5 0 4 17 -1 40 -11 43 -45 63 -71 41
-10 -8 -17 -7 -26 2 -11 10 -11 8 -1 -11z"/>
<path d="M2518 1493 c7 -3 16 -2 19 1 4 3 -2 6 -13 5 -11 0 -14 -3 -6 -6z"/>
<path d="M656 1465 c4 -16 13 -36 21 -43 19 -19 16 -32 -14 -64 -15 -15 -22
-28 -16 -28 7 0 13 -6 16 -12 2 -7 2 -3 0 10 -4 23 11 31 21 10 3 -7 3 -3 0
10 -3 12 -1 22 5 22 6 0 11 -4 11 -10 0 -5 5 -10 10 -10 16 0 0 50 -32 100
-25 40 -28 41 -22 15z"/>
<path d="M1239 1461 c-16 -16 -29 -38 -29 -48 1 -35 35 -65 85 -74 62 -12 71
-3 12 12 -25 6 -55 21 -66 33 l-20 21 20 33 c12 17 27 32 35 32 8 0 14 5 14
10 0 18 -21 10 -51 -19z"/>
<path d="M2227 1460 c6 -22 15 -19 19 5 1 8 -4 15 -11 15 -8 0 -11 -7 -8 -20z"/>
<path d="M2345 1470 c-16 -7 -17 -9 -3 -9 9 -1 20 4 23 9 7 11 7 11 -20 0z"/>
<path d="M475 1454 c22 -16 35 -18 35 -5 0 5 -12 11 -27 14 -26 5 -26 4 -8 -9z"/>
<path d="M1626 1455 c4 -8 10 -15 14 -15 4 0 13 -14 19 -31 9 -27 8 -33 -14
-55 -17 -17 -36 -24 -62 -25 -33 0 -35 -2 -17 -11 17 -8 32 -5 68 10 38 17 46
25 46 48 0 28 -35 94 -51 94 -4 0 -6 -7 -3 -15z"/>
<path d="M2270 1463 c0 -23 -3 -28 -19 -40 -22 -17 1 -16 23 0 15 11 17 18 8
33 -6 10 -12 13 -12 7z"/>
<path d="M2322 1430 c7 -11 20 -20 29 -20 18 0 100 -56 112 -77 10 -17 61 -18
53 0 -3 6 -9 19 -12 27 -5 14 -114 90 -128 90 -3 0 -6 -7 -6 -15 0 -9 -6 -12
-15 -9 -8 4 -12 10 -9 15 3 5 -4 9 -15 9 -19 0 -20 -2 -9 -20z m73 1 c3 -5 1
-12 -5 -16 -5 -3 -10 1 -10 9 0 18 6 21 15 7z m75 -61 c11 -11 15 -20 10 -20
-6 0 -18 9 -27 20 -10 11 -23 20 -30 20 -6 0 -15 4 -18 10 -10 17 42 -7 65
-30z"/>
<path d="M710 1430 c0 -5 5 -10 11 -10 5 0 7 5 4 10 -3 6 -8 10 -11 10 -2 0
-4 -4 -4 -10z"/>
<path d="M1955 1430 c3 -5 8 -10 11 -10 2 0 4 5 4 10 0 6 -5 10 -11 10 -5 0
-7 -4 -4 -10z"/>
<path d="M2270 1395 c0 -8 5 -15 10 -15 6 0 10 7 10 15 0 8 -4 15 -10 15 -5 0
-10 -7 -10 -15z"/>
<path d="M791 1395 c1 -19 18 -51 18 -35 0 8 -4 22 -9 30 -5 8 -9 11 -9 5z"/>
<path d="M1256 1391 c-5 -7 7 -11 36 -11 28 0 57 -9 83 -25 46 -28 78 -31 128
-10 20 8 59 15 87 15 32 0 49 4 45 10 -9 15 -96 11 -125 -5 -36 -20 -87 -18
-125 5 -39 24 -119 37 -129 21z"/>
<path d="M1105 1360 c3 -5 8 -10 11 -10 2 0 4 5 4 10 0 6 -5 10 -11 10 -5 0
-7 -4 -4 -10z"/>
<path d="M724 1334 c3 -9 6 -18 6 -20 0 -3 5 -2 12 2 8 5 9 2 5 -9 -4 -11 -1
-17 9 -17 9 0 14 -6 11 -12 -2 -7 -9 -12 -14 -11 -5 1 -10 -5 -10 -13 0 -25
22 -9 32 24 17 57 26 41 29 -50 1 -13 7 -29 14 -36 6 -7 12 -23 12 -35 0 -13
3 -18 10 -11 6 6 5 24 -1 49 -34 133 -33 130 -55 127 -11 -2 -27 4 -34 13 -16
20 -34 19 -26 -1z"/>
<path d="M686 1305 c-9 -26 -7 -32 5 -12 6 10 9 21 6 23 -2 3 -7 -2 -11 -11z"/>
<path d="M650 1280 c0 -5 5 -10 11 -10 5 0 7 5 4 10 -3 6 -8 10 -11 10 -2 0
-4 -4 -4 -10z"/>
<path d="M1410 1279 c0 -5 5 -7 10 -4 6 3 10 8 10 11 0 2 -4 4 -10 4 -5 0 -10
-5 -10 -11z"/>
<path d="M2306 1274 c-5 -14 -4 -15 9 -4 17 14 19 20 6 20 -5 0 -12 -7 -15
-16z"/>
<path d="M1330 1270 c0 -7 -8 -10 -20 -7 -11 3 -20 1 -20 -4 0 -4 -6 -6 -13
-3 -8 3 -13 -3 -13 -15 0 -18 3 -19 21 -7 27 18 85 18 112 0 31 -20 64 -17 93
7 14 11 19 18 12 14 -7 -4 -20 -1 -28 6 -12 10 -13 9 -9 -3 9 -23 -25 -31 -47
-11 -10 9 -26 18 -36 19 -9 1 -25 5 -34 9 -12 4 -18 3 -18 -5z"/>
<path d="M594 1234 c-1 -13 2 -21 7 -18 11 6 12 31 2 37 -5 3 -9 -6 -9 -19z"/>
<path d="M676 1234 c18 -26 54 -33 54 -10 0 8 -4 18 -10 21 -5 3 -10 -1 -10
-10 0 -9 -5 -13 -11 -10 -6 4 -8 12 -6 19 3 7 -4 13 -14 13 -17 2 -18 0 -3
-23z"/>
<path d="M1531 1251 c-9 -6 -10 -11 -2 -15 6 -4 11 -5 11 -2 0 3 9 -3 20 -14
11 -11 30 -20 43 -19 15 0 17 2 7 6 -8 3 -25 17 -37 30 -25 26 -23 26 -42 14z"/>
<path d="M1220 1244 c0 -13 18 -39 24 -34 2 3 -2 14 -10 24 -8 11 -14 16 -14
10z"/>
<path d="M2246 1241 c-7 -10 22 -37 30 -28 4 3 -1 13 -9 22 -9 8 -18 11 -21 6z"/>
<path d="M2353 1226 c3 -8 1 -17 -6 -19 -7 -2 3 -7 21 -11 17 -4 32 -12 32
-17 0 -5 7 -9 15 -9 7 0 19 -8 24 -17 6 -10 11 -13 11 -8 0 6 9 -1 20 -15 15
-20 21 -23 31 -12 9 8 9 12 2 12 -7 0 -15 9 -18 21 -5 14 -12 18 -23 14 -9 -3
-13 -3 -10 1 8 7 -17 35 -29 33 -4 -1 -15 -1 -23 0 -12 1 -12 3 -2 10 11 7 11
9 -2 14 -11 4 -16 1 -17 -11 0 -13 -3 -11 -9 6 -5 12 -12 22 -16 22 -3 0 -4
-6 -1 -14z"/>
<path d="M755 1220 c-3 -6 1 -7 9 -4 18 7 21 14 7 14 -6 0 -13 -4 -16 -10z"/>
<path d="M1192 1214 c-7 -8 -8 -14 -3 -14 10 0 25 19 20 25 -2 1 -10 -3 -17
-11z"/>
<path d="M1647 1196 c10 -13 22 -22 26 -19 9 6 -21 43 -35 43 -5 0 -1 -11 9
-24z"/>
<path d="M570 1180 c0 -21 24 -28 35 -10 3 6 -1 10 -10 10 -9 0 -13 5 -10 10
3 6 1 10 -4 10 -6 0 -11 -9 -11 -20z"/>
<path d="M1126 1185 c-3 -8 -1 -15 4 -15 6 0 10 7 10 15 0 8 -2 15 -4 15 -2 0
-6 -7 -10 -15z"/>
<path d="M1280 1190 c-13 -9 -13 -10 0 -10 8 0 22 5 30 10 13 9 13 10 0 10 -8
0 -22 -5 -30 -10z"/>
<path d="M2220 1191 c-8 -6 -17 -8 -21 -5 -4 2 -10 0 -14 -6 -3 -5 1 -10 10
-10 9 0 13 -4 10 -10 -3 -5 -27 -10 -52 -10 -54 0 -54 -5 -1 -14 33 -6 41 -3
68 24 16 17 30 33 30 35 0 8 -14 5 -30 -4z"/>
<path d="M1687 1176 c-3 -8 2 -21 12 -30 26 -24 31 -19 15 14 -18 34 -20 35
-27 16z"/>
<path d="M1228 1158 c-44 -15 -33 -26 27 -27 30 0 64 -5 75 -11 24 -13 147
-15 238 -5 54 7 62 5 62 -9 0 -10 5 -14 10 -11 6 3 10 14 10 23 0 18 -3 18
-204 5 -49 -3 -82 -1 -89 6 -6 6 -30 11 -53 11 -42 0 -66 13 -42 23 24 10 -7
5 -34 -5z"/>
<path d="M1550 1161 c0 -4 11 -6 25 -3 14 2 25 6 25 8 0 2 -11 4 -25 4 -14 0
-25 -4 -25 -9z"/>
<path d="M710 1150 c0 -5 5 -10 11 -10 5 0 7 5 4 10 -3 6 -8 10 -11 10 -2 0
-4 -4 -4 -10z"/>
<path d="M811 1127 c8 -7 21 -21 27 -32 11 -19 11 -18 12 6 0 25 -16 39 -43
39 -7 -1 -5 -6 4 -13z"/>
<path d="M880 1111 c0 -6 4 -13 10 -16 6 -3 7 1 4 9 -7 18 -14 21 -14 7z"/>
<path d="M1285 1079 c-11 -16 -1 -19 13 -3 7 8 8 14 3 14 -5 0 -13 -5 -16 -11z"/>
<path d="M900 1074 c0 -3 10 -18 21 -32 12 -15 19 -20 15 -12 -3 8 -9 23 -12
33 -6 16 -24 25 -24 11z"/>
<path d="M1350 1066 c0 -2 7 -7 16 -10 8 -3 12 -2 9 4 -6 10 -25 14 -25 6z"/>
<path d="M1410 1054 c0 -8 5 -12 10 -9 6 3 10 10 10 16 0 5 -4 9 -10 9 -5 0
-10 -7 -10 -16z"/>
<path d="M2030 1035 c-7 -9 -8 -15 -2 -15 5 0 12 7 16 15 3 8 4 15 2 15 -2 0
-9 -7 -16 -15z"/>
<path d="M730 1014 c0 -14 3 -14 15 -4 8 7 15 14 15 16 0 2 -7 4 -15 4 -8 0
-15 -7 -15 -16z"/>
<path d="M840 996 c0 -20 2 -36 4 -36 8 0 12 61 4 66 -4 3 -8 -11 -8 -30z"/>
<path d="M1270 1010 c30 -23 118 -44 180 -42 54 2 130 21 130 33 0 5 7 9 16 9
8 0 12 5 9 11 -5 7 -12 5 -23 -4 -25 -22 -127 -40 -181 -32 -25 4 -66 15 -90
26 -56 24 -73 24 -41 -1z"/>
<path d="M970 960 c0 -5 5 -10 11 -10 5 0 7 5 4 10 -3 6 -8 10 -11 10 -2 0 -4
-4 -4 -10z"/>
<path d="M1828 921 c-45 -60 -134 -129 -208 -161 -48 -22 -70 -25 -170 -24
-94 0 -127 4 -179 23 -53 18 -141 68 -161 90 -3 3 -18 17 -33 31 -25 22 -27
22 -22 5 6 -17 4 -17 -14 4 -12 13 -24 22 -26 19 -3 -2 6 -15 20 -28 14 -13
25 -20 25 -16 0 3 30 -16 66 -43 36 -28 90 -59 119 -70 70 -26 204 -44 273
-36 118 14 258 106 340 223 37 51 10 37 -30 -17z"/>
<path d="M847 933 c-4 -3 -7 -13 -7 -22 1 -13 3 -13 11 2 11 19 8 33 -4 20z"/>
<path d="M990 930 c0 -5 5 -10 10 -10 6 0 10 5 10 10 0 6 -4 10 -10 10 -5 0
-10 -4 -10 -10z"/>
<path d="M1850 694 c0 -8 5 -12 10 -9 6 4 8 11 5 16 -9 14 -15 11 -15 -7z"/>
<path d="M1118 693 c7 -3 16 -2 19 1 4 3 -2 6 -13 5 -11 0 -14 -3 -6 -6z"/>
<path d="M1438 683 c7 -3 16 -2 19 1 4 3 -2 6 -13 5 -11 0 -14 -3 -6 -6z"/>
<path d="M1188 653 c7 -3 16 -2 19 1 4 3 -2 6 -13 5 -11 0 -14 -3 -6 -6z"/>
<path d="M1870 649 c0 -7 98 -55 183 -90 51 -20 74 -39 47 -39 -5 0 -10 -5
-10 -10 0 -7 6 -7 19 -1 11 6 19 21 19 36 0 18 -4 23 -12 16 -7 -6 -18 -4 -30
5 -11 8 -29 14 -40 14 -12 1 -56 18 -98 38 -43 21 -78 35 -78 31z"/>
<path d="M691 642 c-1 -7 -11 -17 -23 -22 -13 -5 -16 -9 -8 -9 23 -1 43 15 37
30 -4 11 -6 11 -6 1z"/>
<path d="M760 630 c-9 -6 -10 -10 -3 -10 6 0 15 5 18 10 8 12 4 12 -15 0z"/>
<path d="M536 623 c-11 -11 -6 -23 9 -23 8 0 15 4 15 9 0 13 -16 22 -24 14z"/>
<path d="M594 616 c-10 -8 -17 -17 -14 -19 3 -3 16 3 29 14 27 22 15 26 -15 5z"/>
<path d="M692 595 c-49 -29 -71 -33 -52 -10 7 8 8 15 3 15 -11 0 -43 -37 -43
-50 0 -6 7 -10 15 -10 8 0 15 5 15 12 0 6 3 9 6 5 7 -7 78 29 95 49 15 19 12
18 -39 -11z"/>
<path d="M1190 610 c8 -5 22 -9 30 -9 10 0 8 3 -5 9 -27 12 -43 12 -25 0z"/>
<path d="M503 593 c-7 -2 -13 -11 -13 -18 0 -8 -9 -20 -20 -28 -11 -8 -17 -16
-14 -20 8 -7 38 21 53 51 6 12 10 22 9 21 -2 0 -9 -3 -15 -6z"/>
<path d="M2190 571 c0 -5 14 -19 30 -31 17 -12 30 -18 29 -13 0 12 -59 56 -59
44z"/>
<path d="M416 524 c-17 -12 -17 -14 -4 -14 9 0 20 5 23 11 11 17 2 18 -19 3z"/>
<path d="M627 504 c9 -15 19 -21 21 -15 4 13 -16 41 -29 41 -5 0 -2 -12 8 -26z"/>
<path d="M2307 509 c7 -7 15 -10 18 -7 3 3 -2 9 -12 12 -14 6 -15 5 -6 -5z"/>
<path d="M356 495 c-16 -12 -17 -15 -4 -15 8 0 21 7 28 15 16 19 1 19 -24 0z"/>
<path d="M310 470 c-13 -8 -12 -10 3 -10 9 0 17 5 17 10 0 12 -1 12 -20 0z"/>
<path d="M2036 454 c-13 -15 -32 -44 -42 -65 -9 -21 -20 -36 -24 -34 -7 4 -19
-27 -20 -47 0 -16 15 -7 26 15 25 50 49 92 57 95 4 2 7 9 7 15 0 6 7 19 17 29
9 10 13 18 10 18 -3 0 -17 -12 -31 -26z"/>
<path d="M2400 476 c0 -2 7 -7 16 -10 8 -3 12 -2 9 4 -6 10 -25 14 -25 6z"/>
<path d="M662 438 c12 -18 26 -37 31 -43 14 -17 74 -111 98 -154 12 -23 24
-39 26 -37 7 7 -37 93 -57 111 -11 10 -20 22 -20 27 0 15 -80 128 -91 128 -6
0 0 -15 13 -32z"/>
<path d="M265 450 c-3 -6 1 -7 9 -4 18 7 21 14 7 14 -6 0 -13 -4 -16 -10z"/>
<path d="M2200 440 c-9 -6 -10 -10 -3 -10 6 0 15 5 18 10 8 12 4 12 -15 0z"/>
<path d="M228 434 c-3 -3 -20 -6 -37 -6 -17 -1 -28 -5 -25 -9 4 -7 -54 -28
-81 -29 -17 -1 -91 -39 -75 -39 8 0 26 6 40 14 14 8 34 14 45 15 29 0 171 60
143 60 -2 0 -7 -3 -10 -6z"/>
<path d="M492 420 c0 -14 2 -19 5 -12 2 6 2 18 0 25 -3 6 -5 1 -5 -13z"/>
<path d="M520 431 c0 -6 4 -13 10 -16 6 -3 7 1 4 9 -7 18 -14 21 -14 7z"/>
<path d="M2563 433 c9 -2 23 -2 30 0 6 3 -1 5 -18 5 -16 0 -22 -2 -12 -5z"/>
<path d="M364 405 c-23 -36 -14 -38 14 -4 13 16 19 29 13 29 -6 0 -18 -11 -27
-25z"/>
<path d="M2606 422 c-2 -4 4 -9 15 -9 11 -1 17 2 14 8 -7 11 -22 12 -29 1z"/>
<path d="M473 375 c-3 -9 -3 -18 -1 -21 3 -3 8 4 11 16 6 23 -1 27 -10 5z"/>
<path d="M586 333 c10 -18 25 -35 33 -38 14 -5 3 10 -43 60 -5 6 -1 -4 10 -22z"/>
<path d="M2126 345 c-9 -26 -7 -32 5 -12 6 10 9 21 6 23 -2 3 -7 -2 -11 -11z"/>
<path d="M395 287 c-33 -34 -73 -82 -89 -107 -16 -25 -54 -73 -84 -108 -30
-35 -52 -65 -50 -67 5 -6 87 88 114 130 10 17 24 36 31 43 7 7 13 17 13 22 0
5 25 32 56 62 46 44 84 90 72 87 -2 0 -30 -28 -63 -62z"/>
<path d="M1898 326 c-20 -6 -40 -15 -45 -20 -4 -5 1 -6 14 -2 12 4 32 9 44 11
12 3 27 9 33 15 12 12 3 12 -46 -4z"/>
<path d="M2788 333 c6 -2 18 -2 25 0 6 3 1 5 -13 5 -14 0 -19 -2 -12 -5z"/>
<path d="M2095 283 l-17 -28 23 22 c12 12 20 25 17 28 -3 3 -13 -7 -23 -22z"/>
<path d="M1780 290 c-13 -9 -13 -10 0 -9 8 0 24 4 35 9 20 9 20 9 0 9 -11 0
-27 -4 -35 -9z"/>
<path d="M1908 233 c-16 -31 -26 -59 -23 -61 3 -3 14 16 25 41 11 25 25 49 30
52 12 7 13 25 3 25 -5 0 -20 -26 -35 -57z"/>
<path d="M2822 261 c13 -22 28 -28 28 -11 0 5 -9 14 -20 20 -19 10 -20 10 -8
-9z"/>
<path d="M203 255 c-3 -9 -3 -18 -1 -21 3 -3 8 4 11 16 6 23 -1 27 -10 5z"/>
<path d="M2012 238 c5 -15 28 -23 28 -10 0 5 -7 13 -16 16 -10 4 -14 1 -12 -6z"/>
<path d="M2440 240 c0 -5 5 -10 11 -10 5 0 7 5 4 10 -3 6 -8 10 -11 10 -2 0
-4 -4 -4 -10z"/>
<path d="M2945 240 c3 -5 8 -10 11 -10 2 0 4 5 4 10 0 6 -5 10 -11 10 -5 0 -7
-4 -4 -10z"/>
<path d="M1148 233 c7 -3 16 -2 19 1 4 3 -2 6 -13 5 -11 0 -14 -3 -6 -6z"/>
<path d="M2297 219 c7 -7 15 -10 18 -7 3 3 -2 9 -12 12 -14 6 -15 5 -6 -5z"/>
<path d="M2870 221 c0 -5 7 -12 16 -15 14 -5 15 -4 4 9 -14 17 -20 19 -20 6z"/>
<path d="M2980 211 c0 -6 4 -13 10 -16 6 -3 7 1 4 9 -7 18 -14 21 -14 7z"/>
<path d="M687 189 c7 -7 15 -10 18 -7 3 3 -2 9 -12 12 -14 6 -15 5 -6 -5z"/>
<path d="M2036 183 c-6 -14 -5 -15 5 -6 7 7 10 15 7 18 -3 3 -9 -2 -12 -12z"/>
<path d="M786 175 c-9 -26 -7 -32 5 -12 6 10 9 21 6 23 -2 3 -7 -2 -11 -11z"/>
<path d="M831 175 c8 -11 29 -36 46 -55 18 -19 33 -40 33 -46 0 -6 11 -21 26
-35 18 -17 23 -19 18 -6 -3 9 -10 17 -14 17 -5 0 -11 8 -14 18 -4 10 -29 43
-58 73 -28 30 -45 45 -37 34z"/>
<path d="M2910 181 c0 -6 4 -13 10 -16 6 -3 7 1 4 9 -7 18 -14 21 -14 7z"/>
<path d="M2668 169 c-4 -13 12 -162 18 -168 12 -13 15 14 5 56 -6 26 -12 65
-13 86 -1 39 -4 45 -10 26z"/>
<path d="M1846 143 c-4 -10 -18 -38 -32 -62 -13 -24 -23 -45 -21 -47 2 -2 14
15 27 39 13 23 30 48 37 55 7 7 13 18 13 23 0 16 -17 10 -24 -8z"/>
<path d="M1995 113 c-15 -27 -37 -64 -48 -83 -12 -21 -14 -29 -5 -20 17 17 92
150 85 150 -3 0 -17 -21 -32 -47z"/>
<path d="M136 133 c-6 -14 -5 -15 5 -6 7 7 10 15 7 18 -3 3 -9 -2 -12 -12z"/>
<path d="M2416 107 c3 -10 9 -15 12 -12 3 3 0 11 -7 18 -10 9 -11 8 -5 -6z"/>
<path d="M1505 80 c-3 -5 -1 -10 4 -10 6 0 11 5 11 10 0 6 -2 10 -4 10 -3 0
-8 -4 -11 -10z"/>
<path d="M2976 83 c7 -4 14 -17 17 -28 5 -16 5 -15 4 4 -1 14 -9 26 -17 28
-10 3 -11 2 -4 -4z"/>
<path d="M2450 70 c0 -5 5 -10 11 -10 5 0 7 5 4 10 -3 6 -8 10 -11 10 -2 0 -4
-4 -4 -10z"/>
</g>
</svg>
