<?xml version="1.0" standalone="no"?>
<!DOCTYPE svg PUBLIC "-//W3C//DTD SVG 20010904//EN"
 "http://www.w3.org/TR/2001/REC-SVG-20010904/DTD/svg10.dtd">
<svg version="1.0" xmlns="http://www.w3.org/2000/svg"
 width="300.000000pt" height="300.000000pt" viewBox="0 0 300.000000 300.000000"
 preserveAspectRatio="xMidYMid meet">
<metadata>
Created by potrace 1.10, written by Peter Selinger 2001-2011
</metadata>
<g transform="translate(0.000000,300.000000) scale(0.100000,-0.100000)"
fill="#000000" stroke="none">
<path d="M1260 2993 c0 -5 14 -16 30 -25 17 -9 30 -13 30 -8 0 5 -9 12 -20 15
-11 3 -20 11 -20 16 0 5 -4 9 -10 9 -5 0 -10 -3 -10 -7z"/>
<path d="M1400 2994 c0 -16 40 -35 60 -29 31 10 47 -31 20 -52 -9 -8 -11 -12
-3 -13 6 0 15 5 18 10 4 6 11 8 16 5 5 -3 6 1 2 11 -5 13 -2 15 16 9 26 -8 52
10 44 31 -3 8 0 14 6 14 6 0 11 5 11 11 0 6 -5 7 -12 2 -7 -4 -33 -8 -58 -9
-25 -1 -54 -4 -65 -7 -11 -2 -28 2 -37 11 -10 8 -18 11 -18 6z m159 -30 c3 -3
0 -9 -5 -14 -7 -7 -19 -7 -35 -1 -13 5 -19 10 -14 11 6 0 3 5 -5 11 -11 7 -6
8 20 3 19 -3 37 -8 39 -10z"/>
<path d="M1711 2981 c13 -11 26 -17 29 -14 6 6 -30 33 -43 33 -5 0 1 -9 14
-19z"/>
<path d="M2316 2987 c3 -10 9 -15 12 -12 3 3 0 11 -7 18 -10 9 -11 8 -5 -6z"/>
<path d="M1635 2966 c18 -13 55 -6 55 10 0 2 -9 0 -19 -6 -13 -7 -22 -7 -26 0
-3 5 -11 10 -18 10 -6 0 -2 -6 8 -14z"/>
<path d="M1000 2950 c-6 -11 -8 -20 -6 -20 3 0 10 9 16 20 6 11 8 20 6 20 -3
0 -10 -9 -16 -20z"/>
<path d="M1135 2960 c-4 -6 -11 -8 -16 -5 -5 4 -9 1 -9 -5 0 -7 -7 -10 -15 -6
-8 3 -15 1 -15 -4 0 -15 21 -11 60 10 21 11 28 19 18 20 -9 0 -20 -5 -23 -10z"/>
<path d="M1217 2942 c-25 -26 -34 -29 -85 -27 -49 1 -58 -1 -59 -17 -1 -9 3
-20 8 -24 5 -3 8 0 7 8 -4 17 64 23 91 8 17 -9 20 -8 14 7 -5 12 -2 15 10 10
12 -5 17 -1 17 13 0 13 9 22 25 26 14 3 22 10 19 15 -9 15 -19 11 -47 -19z"/>
<path d="M1340 2955 c-10 -12 -10 -15 4 -15 9 0 16 7 16 15 0 8 -2 15 -4 15
-2 0 -9 -7 -16 -15z"/>
<path d="M1374 2955 c-10 -26 1 -35 13 -10 6 14 7 25 2 25 -5 0 -12 -7 -15
-15z"/>
<path d="M1606 2957 c3 -8 -2 -17 -10 -20 -9 -4 -16 -11 -16 -17 0 -6 7 -4 16
4 18 18 34 21 34 6 0 -5 -5 -10 -11 -10 -8 0 -9 -4 0 -13 6 -8 8 -17 4 -20 -3
-4 1 -7 10 -7 10 0 17 -5 17 -11 0 -5 5 -7 10 -4 6 4 2 13 -10 23 -14 12 -17
21 -10 32 7 12 11 10 18 -10 l9 -24 13 23 c11 21 10 23 -4 18 -9 -4 -16 -3
-16 1 0 4 -13 16 -30 25 -23 14 -28 15 -24 4z"/>
<path d="M1048 2953 c7 -3 16 -2 19 1 4 3 -2 6 -13 5 -11 0 -14 -3 -6 -6z"/>
<path d="M1700 2950 c-9 -6 -10 -10 -3 -10 6 0 15 5 18 10 8 12 4 12 -15 0z"/>
<path d="M1824 2948 c-3 -4 -18 -8 -34 -8 -16 0 -32 -5 -36 -11 -4 -8 1 -9 17
-4 21 7 22 6 10 -9 -7 -9 -9 -16 -3 -16 5 0 13 8 16 17 6 15 8 15 16 3 8 -13
10 -12 10 2 0 15 7 17 38 15 22 -2 39 1 39 7 0 13 -66 16 -73 4z"/>
<path d="M1165 2940 c-3 -5 -1 -10 4 -10 6 0 11 5 11 10 0 6 -2 10 -4 10 -3 0
-8 -4 -11 -10z"/>
<path d="M1406 2929 c-13 -18 -12 -23 2 -38 10 -9 19 -12 21 -7 2 6 -1 12 -7
14 -14 4 -16 32 -2 32 5 0 14 -8 19 -17 9 -16 12 -16 21 -3 5 8 10 20 10 25 0
6 -4 4 -9 -4 -5 -7 -14 -10 -20 -7 -6 4 -9 12 -6 17 12 19 -14 8 -29 -12z"/>
<path d="M1305 2930 c3 -4 14 -10 25 -13 11 -3 18 -2 15 3 -3 4 -14 10 -25 13
-11 3 -18 2 -15 -3z"/>
<path d="M1970 2931 c0 -5 7 -11 14 -14 10 -4 13 -1 9 9 -6 15 -23 19 -23 5z"/>
<path d="M2252 2915 c0 -16 2 -22 5 -12 2 9 2 23 0 30 -3 6 -5 -1 -5 -18z"/>
<path d="M962 2918 c-7 -7 -12 -16 -12 -21 0 -5 7 -1 16 8 9 9 14 18 12 20 -2
3 -10 -1 -16 -7z"/>
<path d="M1241 2917 c-6 -8 -8 -17 -5 -20 4 -4 -6 -11 -22 -17 -16 -6 -36 -13
-44 -17 -8 -3 -18 -5 -22 -5 -5 1 -8 -2 -8 -7 0 -5 -19 -7 -41 -4 -27 4 -53 1
-73 -9 -17 -8 -51 -25 -74 -37 -24 -11 -48 -19 -53 -15 -5 3 -6 -2 -3 -11 4
-10 2 -15 -7 -13 -9 2 -13 -5 -12 -20 2 -13 -1 -21 -6 -18 -5 3 -32 -5 -61
-18 -28 -13 -46 -26 -40 -28 7 -2 -10 -21 -36 -43 -27 -22 -55 -45 -62 -52 -8
-7 -19 -10 -25 -6 -7 3 -9 2 -4 -2 9 -10 -21 -45 -40 -45 -7 0 -19 -11 -25
-25 -6 -14 -15 -25 -20 -25 -4 0 -8 -7 -8 -15 0 -8 -19 -34 -42 -58 -24 -25
-56 -71 -73 -103 -16 -33 -33 -61 -36 -64 -4 -3 -9 -15 -13 -27 -4 -13 -11
-23 -15 -23 -4 0 -8 -14 -9 -31 0 -17 -4 -44 -7 -61 -5 -20 -4 -28 3 -24 6 3
16 31 22 61 6 30 16 55 21 55 5 0 9 6 9 14 0 24 41 86 53 79 6 -3 7 -1 3 5 -4
6 1 23 10 37 11 17 20 22 24 15 5 -8 9 -6 13 5 4 9 3 13 -3 10 -24 -15 3 25
53 77 9 10 17 24 17 32 0 7 14 24 32 37 30 22 82 69 167 148 20 18 50 39 68
47 18 8 37 23 43 33 5 11 20 23 32 27 13 4 30 15 40 26 9 11 18 14 20 8 2 -7
16 0 33 14 35 31 68 35 58 9 -7 -17 -6 -17 11 0 21 20 28 21 44 5 9 -9 12 -9
12 1 0 8 7 11 20 8 11 -3 18 -1 14 4 -3 5 2 9 10 9 9 0 16 5 16 10 0 6 7 10
15 10 8 0 15 -5 15 -11 0 -6 6 -9 13 -6 7 3 21 -1 32 -9 25 -19 59 -18 52 0
-3 8 -2 17 4 20 5 2 4 3 -3 2 -7 -2 -12 -10 -10 -17 3 -11 1 -12 -9 -1 -7 6
-21 12 -31 12 -21 0 -24 16 -5 23 6 3 2 6 -10 6 -28 1 -20 29 11 41 l21 9 -21
0 c-12 1 -27 -5 -33 -12z"/>
<path d="M1914 2922 c-7 -4 -8 -15 -3 -27 4 -11 8 -18 9 -15 2 6 7 50 6 50 -1
0 -6 -4 -12 -8z"/>
<path d="M2155 2920 c-3 -5 -1 -10 4 -10 6 0 11 5 11 10 0 6 -2 10 -4 10 -3 0
-8 -4 -11 -10z"/>
<path d="M1545 2910 c3 -5 8 -10 11 -10 2 0 4 5 4 10 0 6 -5 10 -11 10 -5 0
-7 -4 -4 -10z"/>
<path d="M1720 2910 c0 -6 5 -10 11 -10 5 0 7 -4 4 -10 -3 -5 -1 -10 4 -10 17
0 13 27 -4 34 -8 3 -15 1 -15 -4z"/>
<path d="M1017 2899 c7 -7 15 -10 18 -7 3 3 -2 9 -12 12 -14 6 -15 5 -6 -5z"/>
<path d="M1294 2885 c-2 -33 11 -33 14 0 1 14 -2 25 -6 25 -4 0 -8 -11 -8 -25z"/>
<path d="M1945 2900 c-3 -5 1 -10 9 -10 9 0 16 5 16 10 0 6 -4 10 -9 10 -6 0
-13 -4 -16 -10z"/>
<path d="M1335 2891 c-3 -5 -1 -12 5 -16 5 -3 10 -1 10 5 0 7 7 9 16 6 8 -3
12 -2 9 4 -8 13 -32 13 -40 1z"/>
<path d="M855 2880 c3 -5 8 -10 11 -10 2 0 4 5 4 10 0 6 -5 10 -11 10 -5 0 -7
-4 -4 -10z"/>
<path d="M1395 2880 c3 -5 8 -10 11 -10 2 0 4 5 4 10 0 6 -5 10 -11 10 -5 0
-7 -4 -4 -10z"/>
<path d="M1530 2874 c0 -8 11 -12 30 -11 39 3 39 13 0 19 -20 3 -30 0 -30 -8z"/>
<path d="M1687 2876 c-4 -10 -1 -13 9 -9 15 6 19 23 5 23 -5 0 -11 -7 -14 -14z"/>
<path d="M1975 2881 c-2 -5 4 -11 15 -14 11 -3 20 -2 20 3 0 12 -28 21 -35 11z"/>
<path d="M970 2865 c0 -8 5 -15 10 -15 6 0 10 5 10 11 0 7 11 8 29 4 16 -3 31
-3 34 2 3 4 -15 9 -39 11 -34 2 -44 -1 -44 -13z"/>
<path d="M1490 2870 c0 -5 7 -10 15 -10 8 0 15 5 15 10 0 6 -7 10 -15 10 -8 0
-15 -4 -15 -10z"/>
<path d="M1758 2871 c-1 -6 -19 -13 -38 -16 -42 -7 -42 -8 -34 -30 7 -17 8
-16 16 4 4 12 12 20 17 17 5 -4 21 -2 35 3 21 9 24 8 19 -6 -5 -14 -4 -14 18
-1 28 18 105 19 102 1 -1 -6 4 -14 13 -17 9 -3 12 -2 9 4 -4 6 3 9 17 6 16 -2
22 -9 20 -22 -3 -14 -1 -16 10 -6 11 9 22 9 46 0 18 -7 32 -16 32 -20 0 -4 7
-8 15 -8 8 0 20 -9 27 -19 6 -10 16 -17 22 -15 6 2 37 -9 69 -25 32 -15 60
-24 63 -20 8 14 32 -14 27 -31 -4 -12 -3 -13 5 -1 11 15 36 6 27 -10 -4 -5 1
-9 9 -9 16 0 42 -38 37 -55 -1 -5 1 -7 4 -3 12 11 45 -11 46 -30 0 -10 3 -12
6 -4 7 17 23 5 23 -19 0 -11 7 -22 15 -25 8 -4 15 -12 15 -19 0 -7 14 -25 31
-39 30 -26 56 -35 44 -16 -3 6 -1 10 4 10 6 0 11 -7 11 -15 0 -8 -4 -15 -10
-15 -5 0 -10 -4 -10 -10 0 -5 6 -7 14 -4 11 4 13 0 9 -17 -4 -14 -2 -20 4 -16
25 16 20 47 -14 87 -26 30 -40 39 -54 35 -13 -4 -17 -2 -14 7 3 7 -5 24 -18
38 -13 14 -22 31 -19 38 2 6 -9 17 -25 24 -15 7 -44 30 -64 50 -19 21 -38 38
-42 38 -4 0 -16 8 -27 17 -11 10 -26 18 -33 18 -32 2 -87 18 -87 26 0 5 -8 9
-17 9 -25 1 -54 25 -51 41 2 9 -6 14 -19 14 -12 0 -30 8 -40 16 -24 21 -57 33
-47 17 5 -7 3 -8 -7 -2 -48 30 -202 48 -211 25z m257 -41 c3 -5 2 -10 -4 -10
-5 0 -13 5 -16 10 -3 6 -2 10 4 10 5 0 13 -4 16 -10z m50 -30 c3 -5 1 -10 -4
-10 -6 0 -11 5 -11 10 0 6 2 10 4 10 3 0 8 -4 11 -10z m445 -330 c0 -5 -7 -7
-15 -4 -8 4 -15 8 -15 10 0 2 7 4 15 4 8 0 15 -4 15 -10z"/>
<path d="M920 2855 c-7 -9 -10 -18 -7 -21 10 -11 37 5 37 21 0 19 -14 19 -30
0z"/>
<path d="M2142 2849 c-7 -12 -11 -24 -7 -27 7 -8 25 17 25 36 0 17 -3 15 -18
-9z"/>
<path d="M1630 2850 c0 -5 5 -10 11 -10 5 0 7 5 4 10 -3 6 -8 10 -11 10 -2 0
-4 -4 -4 -10z"/>
<path d="M1385 2839 c-4 -6 -13 -8 -21 -5 -8 3 -14 1 -14 -4 0 -16 37 -11 44
5 6 17 0 20 -9 4z"/>
<path d="M2100 2829 c0 -5 5 -7 10 -4 6 3 10 8 10 11 0 2 -4 4 -10 4 -5 0 -10
-5 -10 -11z"/>
<path d="M850 2810 c0 -5 -6 -10 -14 -10 -8 0 -17 -4 -20 -8 -3 -5 8 -6 24 -4
19 3 27 9 23 18 -6 16 -13 18 -13 4z"/>
<path d="M870 2816 c0 -2 11 -6 25 -8 14 -3 25 -1 25 3 0 5 -11 9 -25 9 -14 0
-25 -2 -25 -4z"/>
<path d="M2160 2811 c-21 -4 -30 -9 -23 -14 6 -4 23 -3 37 3 16 6 27 6 31 0 4
-6 16 -9 28 -9 17 1 18 2 5 6 -10 2 -18 9 -18 14 0 10 -6 10 -60 0z"/>
<path d="M2266 2797 c3 -9 -4 -21 -15 -29 -12 -8 -18 -18 -14 -21 11 -12 23
-7 23 9 0 11 6 15 20 11 17 -4 18 -2 10 13 -13 23 -32 36 -24 17z"/>
<path d="M2422 2780 c-7 -11 -19 -20 -27 -20 -8 0 -15 -5 -15 -11 0 -5 5 -7
10 -4 6 3 13 -1 16 -9 3 -9 11 -16 16 -16 6 0 5 6 -2 15 -10 11 -9 18 4 30 9
9 16 21 16 26 0 14 -4 11 -18 -11z"/>
<path d="M770 2776 c0 -2 7 -6 15 -10 8 -3 15 -1 15 4 0 6 -7 10 -15 10 -8 0
-15 -2 -15 -4z"/>
<path d="M2334 2763 c10 -11 37 -12 30 -2 -3 5 -12 9 -21 9 -9 0 -13 -3 -9 -7z"/>
<path d="M746 2745 c-3 -8 -1 -15 4 -15 6 0 10 7 10 15 0 8 -2 15 -4 15 -2 0
-6 -7 -10 -15z"/>
<path d="M797 2749 c-9 -6 -15 -14 -12 -20 4 -5 -4 -9 -16 -9 -12 0 -20 -3
-16 -6 10 -11 57 6 54 19 -1 7 7 11 21 10 13 -2 21 1 17 7 -8 13 -25 12 -48
-1z"/>
<path d="M2188 2753 c7 -3 16 -2 19 1 4 3 -2 6 -13 5 -11 0 -14 -3 -6 -6z"/>
<path d="M1301 2734 c0 -11 3 -14 6 -6 3 7 2 16 -1 19 -3 4 -6 -2 -5 -13z"/>
<path d="M2282 2731 c-11 -7 -10 -10 3 -15 22 -8 22 -8 22 9 0 17 -6 18 -25 6z"/>
<path d="M1525 2720 c3 -5 8 -10 11 -10 2 0 4 5 4 10 0 6 -5 10 -11 10 -5 0
-7 -4 -4 -10z"/>
<path d="M2470 2720 c0 -6 7 -10 15 -10 8 0 15 2 15 4 0 2 -7 6 -15 10 -8 3
-15 1 -15 -4z"/>
<path d="M695 2697 c-10 -8 -15 -18 -12 -24 4 -6 -4 -8 -21 -5 -15 3 -24 1
-19 -3 4 -5 0 -19 -8 -32 -14 -21 -14 -23 0 -23 8 0 15 8 15 19 0 14 10 21 38
26 20 4 31 10 25 12 -20 7 -15 23 10 33 13 5 16 9 6 9 -8 1 -23 -5 -34 -12z"/>
<path d="M2350 2671 c21 -17 38 -25 41 -19 4 6 12 14 19 18 8 5 7 9 -5 13 -10
4 -14 3 -9 -4 4 -7 -2 -9 -17 -7 -13 2 -23 9 -21 16 1 6 -8 12 -20 12 -20 0
-19 -3 12 -29z"/>
<path d="M730 2680 c0 -5 5 -10 10 -10 6 0 10 5 10 10 0 6 -4 10 -10 10 -5 0
-10 -4 -10 -10z"/>
<path d="M895 2680 c-3 -5 -1 -10 4 -10 6 0 11 5 11 10 0 6 -2 10 -4 10 -3 0
-8 -4 -11 -10z"/>
<path d="M2487 2673 c-4 -3 -7 -13 -7 -21 0 -18 13 -7 16 13 2 17 1 18 -9 8z"/>
<path d="M975 2660 c-3 -6 1 -7 9 -4 18 7 21 14 7 14 -6 0 -13 -4 -16 -10z"/>
<path d="M2415 2650 c-4 -6 3 -10 14 -10 25 0 27 6 6 13 -8 4 -17 2 -20 -3z"/>
<path d="M1240 2639 c0 -5 5 -7 10 -4 6 3 10 8 10 11 0 2 -4 4 -10 4 -5 0 -10
-5 -10 -11z"/>
<path d="M1294 2634 c-18 -14 -18 -15 4 -4 12 6 22 13 22 15 0 8 -5 6 -26 -11z"/>
<path d="M1877 2619 c4 -13 8 -18 11 -10 2 7 -1 18 -6 23 -8 8 -9 4 -5 -13z"/>
<path d="M560 2605 c0 -8 2 -15 4 -15 2 0 6 7 10 15 3 8 1 15 -4 15 -6 0 -10
-7 -10 -15z"/>
<path d="M1655 2610 c3 -5 10 -10 16 -10 5 0 9 5 9 10 0 6 -7 10 -16 10 -8 0
-12 -4 -9 -10z"/>
<path d="M2437 2600 c3 -11 7 -20 9 -20 2 0 4 9 4 20 0 11 -4 20 -9 20 -5 0
-7 -9 -4 -20z"/>
<path d="M2465 2610 c-3 -6 1 -7 9 -4 18 7 21 14 7 14 -6 0 -13 -4 -16 -10z"/>
<path d="M2500 2606 c0 -2 12 -12 28 -21 l27 -18 -19 21 c-17 20 -36 29 -36
18z"/>
<path d="M620 2589 c0 -5 5 -7 10 -4 6 3 10 8 10 11 0 2 -4 4 -10 4 -5 0 -10
-5 -10 -11z"/>
<path d="M1605 2570 c-3 -5 -1 -10 4 -10 6 0 11 5 11 10 0 6 -2 10 -4 10 -3 0
-8 -4 -11 -10z"/>
<path d="M2495 2570 c-3 -5 -1 -10 4 -10 6 0 11 5 11 10 0 6 -2 10 -4 10 -3 0
-8 -4 -11 -10z"/>
<path d="M549 2559 c-10 -6 -7 -9 14 -9 29 0 35 5 14 13 -8 3 -20 1 -28 -4z"/>
<path d="M1191 2543 c-10 -26 -10 -27 4 -9 8 11 15 23 15 28 0 15 -7 8 -19
-19z"/>
<path d="M2548 2539 c-10 -27 6 -36 26 -15 15 15 16 18 3 13 -8 -3 -17 -1 -20
6 -2 7 -6 5 -9 -4z"/>
<path d="M550 2530 c-9 -6 -10 -10 -3 -10 6 0 15 5 18 10 8 12 4 12 -15 0z"/>
<path d="M515 2510 c-3 -5 -17 -10 -30 -10 -13 0 -26 -4 -29 -8 -2 -4 11 -7
29 -7 18 0 31 2 29 4 -2 2 1 10 7 18 6 7 9 13 6 13 -3 0 -9 -4 -12 -10z"/>
<path d="M691 2504 c0 -11 3 -14 6 -6 3 7 2 16 -1 19 -3 4 -6 -2 -5 -13z"/>
<path d="M2146 2511 c-3 -5 1 -11 9 -14 9 -4 12 -1 8 9 -6 16 -10 17 -17 5z"/>
<path d="M2350 2516 c0 -2 8 -10 18 -17 15 -13 16 -12 3 4 -13 16 -21 21 -21
13z"/>
<path d="M2510 2510 c0 -5 5 -10 10 -10 6 0 10 5 10 10 0 6 -4 10 -10 10 -5 0
-10 -4 -10 -10z"/>
<path d="M2405 2500 c-3 -5 -1 -10 4 -10 6 0 11 5 11 10 0 6 -2 10 -4 10 -3 0
-8 -4 -11 -10z"/>
<path d="M1840 2490 c-9 -6 -10 -10 -3 -10 6 0 15 5 18 10 8 12 4 12 -15 0z"/>
<path d="M2590 2491 c0 -7 -4 -9 -10 -6 -6 4 -7 -1 -3 -11 6 -15 7 -15 15 1 6
9 7 19 4 22 -3 4 -6 1 -6 -6z"/>
<path d="M1700 2459 c0 -5 5 -7 10 -4 6 3 10 8 10 11 0 2 -4 4 -10 4 -5 0 -10
-5 -10 -11z"/>
<path d="M1807 2459 c7 -7 15 -10 18 -7 3 3 -2 9 -12 12 -14 6 -15 5 -6 -5z"/>
<path d="M1090 2450 c0 -5 5 -10 11 -10 5 0 7 5 4 10 -3 6 -8 10 -11 10 -2 0
-4 -4 -4 -10z"/>
<path d="M1495 2450 c3 -5 11 -10 16 -10 6 0 7 5 4 10 -3 6 -11 10 -16 10 -6
0 -7 -4 -4 -10z"/>
<path d="M1540 2449 c0 -5 5 -7 10 -4 6 3 10 8 10 11 0 2 -4 4 -10 4 -5 0 -10
-5 -10 -11z"/>
<path d="M1605 2450 c3 -5 8 -10 11 -10 2 0 4 5 4 10 0 6 -5 10 -11 10 -5 0
-7 -4 -4 -10z"/>
<path d="M1155 2440 c3 -5 8 -10 11 -10 2 0 4 5 4 10 0 6 -5 10 -11 10 -5 0
-7 -4 -4 -10z"/>
<path d="M1664 2428 c-4 -7 -3 -8 4 -4 7 4 12 2 12 -3 0 -6 5 -11 10 -11 15 0
12 17 -5 23 -8 4 -17 1 -21 -5z"/>
<path d="M1386 2417 c3 -10 9 -15 12 -12 3 3 0 11 -7 18 -10 9 -11 8 -5 -6z"/>
<path d="M1740 2420 c0 -5 5 -10 11 -10 5 0 7 5 4 10 -3 6 -8 10 -11 10 -2 0
-4 -4 -4 -10z"/>
<path d="M1806 2413 c-6 -14 -5 -15 5 -6 7 7 10 15 7 18 -3 3 -9 -2 -12 -12z"/>
<path d="M1890 2412 c0 -4 9 -8 19 -8 11 0 17 4 15 8 -3 4 -12 8 -20 8 -8 0
-14 -4 -14 -8z"/>
<path d="M1435 2400 c-3 -5 -1 -10 4 -10 6 0 11 5 11 10 0 6 -2 10 -4 10 -3 0
-8 -4 -11 -10z"/>
<path d="M1565 2399 c-11 -17 1 -21 15 -4 8 9 8 15 2 15 -6 0 -14 -5 -17 -11z"/>
<path d="M2585 2400 c3 -5 8 -10 11 -10 2 0 4 5 4 10 0 6 -5 10 -11 10 -5 0
-7 -4 -4 -10z"/>
<path d="M1615 2390 c3 -5 8 -10 11 -10 2 0 4 5 4 10 0 6 -5 10 -11 10 -5 0
-7 -4 -4 -10z"/>
<path d="M2416 2388 c3 -5 10 -6 15 -3 13 9 11 12 -6 12 -8 0 -12 -4 -9 -9z"/>
<path d="M2628 2393 c7 -3 16 -2 19 1 4 3 -2 6 -13 5 -11 0 -14 -3 -6 -6z"/>
<path d="M580 2380 c-13 -8 -12 -10 3 -10 9 0 17 5 17 10 0 12 -1 12 -20 0z"/>
<path d="M2115 2380 c-19 -8 -19 -9 3 -9 12 -1 22 4 22 9 0 6 -1 10 -2 9 -2 0
-12 -4 -23 -9z"/>
<path d="M1190 2365 c0 -8 4 -15 10 -15 5 0 7 7 4 15 -4 8 -8 15 -10 15 -2 0
-4 -7 -4 -15z"/>
<path d="M2560 2373 c0 -5 9 -21 19 -37 11 -17 18 -33 15 -37 -2 -4 3 -10 12
-13 8 -3 13 -10 10 -15 -3 -5 1 -12 10 -15 9 -4 14 -13 10 -22 -3 -8 -2 -13 3
-10 4 3 14 -6 21 -19 7 -14 17 -25 22 -25 4 0 8 -8 8 -19 0 -10 6 -24 14 -30
7 -6 14 -22 14 -36 0 -13 7 -31 15 -40 9 -8 14 -24 12 -35 -2 -11 -1 -20 3
-20 18 0 32 -41 22 -60 -8 -16 -8 -20 2 -18 7 2 12 -3 10 -11 -1 -7 2 -19 9
-27 6 -7 11 -29 12 -48 0 -19 5 -33 9 -30 13 9 9 -4 -8 -20 -14 -14 -14 -18 0
-38 20 -28 20 -33 -1 -54 -17 -17 -17 -17 -1 -11 14 5 20 -1 26 -26 9 -30 3
-65 -6 -39 -2 7 -8 12 -13 12 -4 0 -6 -7 -3 -15 4 -8 12 -15 20 -15 20 0 17
-28 -3 -33 -16 -4 -16 -5 -2 -6 22 -1 32 -30 18 -47 -9 -11 -8 -14 5 -14 22 0
31 27 16 45 -10 12 -10 15 1 15 9 0 10 3 4 8 -12 8 -15 27 -16 110 -1 34 -5
64 -9 67 -4 2 -5 -8 -4 -23 l4 -27 -11 27 c-7 19 -8 42 -2 71 8 33 6 48 -7 72
-17 29 -17 31 3 53 11 12 15 22 9 22 -7 0 -12 -4 -12 -10 0 -5 -5 -10 -10 -10
-6 0 -10 6 -9 13 2 13 -20 70 -50 129 -13 27 -15 35 -5 31 20 -7 17 10 -4 33
-28 30 -33 52 -14 63 9 5 13 13 9 17 -5 5 -12 2 -18 -6 -8 -13 -13 -11 -29 9
-11 13 -20 31 -20 42 0 10 -8 24 -17 31 -10 7 -27 24 -38 36 -16 20 -17 25 -5
33 11 8 9 9 -7 4 -17 -5 -23 -2 -23 9 0 9 -4 16 -10 16 -5 0 -10 -3 -10 -7z
m95 -103 c3 -5 1 -10 -4 -10 -6 0 -11 5 -11 10 0 6 2 10 4 10 3 0 8 -4 11 -10z"/>
<path d="M2623 2373 c23 -4 27 -8 23 -26 -3 -12 -3 -16 0 -9 3 6 10 9 15 6 6
-3 5 -11 -2 -20 -9 -11 -6 -14 17 -14 16 0 24 4 19 8 -6 4 -18 19 -28 35 -13
19 -25 27 -45 26 l-27 -2 28 -4z"/>
<path d="M1340 2360 c-8 -5 -12 -12 -9 -15 4 -3 12 1 19 10 14 17 11 19 -10 5z"/>
<path d="M1396 2355 c4 -8 8 -15 10 -15 2 0 4 7 4 15 0 8 -4 15 -10 15 -5 0
-7 -7 -4 -15z"/>
<path d="M1837 2353 c3 -7 8 -13 12 -13 4 0 8 6 8 13 0 8 -6 14 -13 14 -7 0
-10 -6 -7 -14z"/>
<path d="M1270 2350 c20 -13 33 -13 25 0 -3 6 -14 10 -23 10 -15 0 -15 -2 -2
-10z"/>
<path d="M1458 2343 c6 -2 18 -2 25 0 6 3 1 5 -13 5 -14 0 -19 -2 -12 -5z"/>
<path d="M1866 2324 c-4 -14 -2 -32 3 -38 6 -7 8 -16 4 -19 -3 -4 -2 -7 4 -7
6 0 11 -18 11 -40 1 -23 8 -47 16 -56 9 -9 14 -20 11 -25 -4 -5 -3 -9 2 -9 4
0 7 -28 6 -62 -1 -35 1 -55 3 -45 6 20 20 22 27 5 3 -8 6 -6 6 4 1 9 -7 22
-16 27 -10 6 -13 11 -7 11 7 0 15 7 18 16 3 8 2 12 -4 9 -6 -3 -10 5 -10 18 0
13 -3 27 -7 31 -8 8 -10 15 -21 77 -5 26 -15 54 -24 62 -9 10 -14 26 -11 41 7
34 -3 34 -11 0z"/>
<path d="M1908 2343 c7 -3 16 -2 19 1 4 3 -2 6 -13 5 -11 0 -14 -3 -6 -6z"/>
<path d="M1420 2325 c-7 -9 -8 -15 -2 -15 5 0 12 7 16 15 3 8 4 15 2 15 -2 0
-9 -7 -16 -15z"/>
<path d="M2118 2333 c7 -3 16 -2 19 1 4 3 -2 6 -13 5 -11 0 -14 -3 -6 -6z"/>
<path d="M2356 2323 c-6 -14 -5 -15 5 -6 7 7 10 15 7 18 -3 3 -9 -2 -12 -12z"/>
<path d="M1505 2319 c-4 -6 -5 -12 -2 -15 2 -3 7 2 10 11 7 17 1 20 -8 4z"/>
<path d="M2278 2323 c7 -3 16 -2 19 1 4 3 -2 6 -13 5 -11 0 -14 -3 -6 -6z"/>
<path d="M1145 2310 c3 -5 8 -10 11 -10 2 0 4 5 4 10 0 6 -5 10 -11 10 -5 0
-7 -4 -4 -10z"/>
<path d="M1249 2298 c-1 -13 -1 -28 0 -35 1 -6 -3 -14 -9 -18 -7 -4 -7 -12 0
-26 6 -10 7 -19 2 -19 -4 0 -8 -24 -7 -52 0 -29 -3 -63 -7 -75 -9 -28 -1 -53
18 -53 11 0 12 4 4 19 -13 24 -13 34 -1 26 6 -3 9 4 8 15 -1 11 -6 20 -12 20
-5 0 -4 4 4 9 12 8 12 12 2 24 -7 9 -8 18 -2 21 5 3 8 14 6 24 -1 9 2 23 8 30
6 8 6 12 -2 12 -7 0 -8 8 -1 25 5 14 7 32 4 40 -4 8 -1 15 5 15 6 0 11 5 11
10 0 21 -30 9 -31 -12z"/>
<path d="M1955 2310 c4 -6 11 -8 16 -5 14 9 11 15 -7 15 -8 0 -12 -5 -9 -10z"/>
<path d="M2459 2291 c11 -15 17 -32 13 -36 -4 -5 -1 -5 6 -1 9 6 7 14 -8 37
-12 16 -24 29 -26 29 -3 0 4 -13 15 -29z"/>
<path d="M2550 2310 c0 -6 7 -10 15 -10 8 0 15 2 15 4 0 2 -7 6 -15 10 -8 3
-15 1 -15 -4z"/>
<path d="M815 2300 c-3 -5 -1 -10 4 -10 6 0 11 5 11 10 0 6 -2 10 -4 10 -3 0
-8 -4 -11 -10z"/>
<path d="M1766 2295 c-16 -12 -17 -15 -4 -15 9 0 18 7 22 15 7 18 6 18 -18 0z"/>
<path d="M1920 2294 c0 -8 5 -12 10 -9 6 4 8 11 5 16 -9 14 -15 11 -15 -7z"/>
<path d="M2306 2295 c-3 -8 -1 -15 4 -15 6 0 10 7 10 15 0 8 -2 15 -4 15 -2 0
-6 -7 -10 -15z"/>
<path d="M1397 2278 c-4 -12 -4 -24 -1 -27 6 -7 24 20 24 37 0 21 -17 13 -23
-10z"/>
<path d="M1526 2284 c-3 -8 -10 -12 -16 -9 -6 3 -7 -1 -4 -9 8 -20 24 -21 24
-2 0 8 5 16 12 18 8 3 9 6 1 11 -6 4 -14 0 -17 -9z"/>
<path d="M2090 2292 c0 -15 25 -21 41 -11 9 5 9 9 2 9 -6 0 -18 3 -27 6 -9 3
-16 2 -16 -4z"/>
<path d="M360 2280 c-24 -15 -7 -18 20 -3 14 7 18 13 10 13 -8 0 -22 -4 -30
-10z"/>
<path d="M2700 2280 c8 -5 20 -10 25 -10 6 0 3 5 -5 10 -8 5 -19 10 -25 10 -5
0 -3 -5 5 -10z"/>
<path d="M1157 2265 c-4 -8 -2 -15 3 -15 6 0 10 -4 10 -10 0 -5 -9 -10 -19
-10 -11 0 -22 -4 -25 -8 -3 -5 8 -9 24 -9 16 0 27 4 24 8 -2 4 1 9 8 11 8 3 7
10 -4 27 -13 18 -17 19 -21 6z"/>
<path d="M2190 2260 c6 -11 13 -20 16 -20 2 0 0 9 -6 20 -6 11 -13 20 -16 20
-2 0 0 -9 6 -20z"/>
<path d="M2326 2271 c-4 -5 -2 -12 3 -15 5 -4 12 -2 15 3 4 5 2 12 -3 15 -5 4
-12 2 -15 -3z"/>
<path d="M2517 2267 c-7 -19 8 -43 17 -28 4 6 3 11 -3 11 -6 0 -8 7 -5 15 4 8
4 15 1 15 -3 0 -7 -6 -10 -13z"/>
<path d="M2752 2260 c0 -14 2 -19 5 -12 2 6 2 18 0 25 -3 6 -5 1 -5 -13z"/>
<path d="M1753 2247 c3 -15 0 -30 -4 -33 -14 -8 -10 -24 4 -18 11 4 14 -10 15
-57 0 -34 5 -66 11 -72 13 -13 15 -30 2 -23 -4 3 -6 -5 -4 -18 3 -13 0 -41 -6
-62 -9 -32 -8 -41 4 -50 8 -6 15 -22 14 -35 0 -15 -3 -19 -6 -9 -7 17 -23 30
-38 30 -5 0 -5 -4 2 -8 6 -4 15 -20 19 -36 5 -22 4 -27 -6 -21 -9 6 -10 0 -5
-25 6 -26 4 -31 -6 -24 -12 6 -12 5 0 -9 13 -16 12 -54 -4 -90 -6 -13 -4 -16
9 -11 9 4 15 9 12 12 -3 2 1 13 8 24 10 14 11 30 5 56 -5 23 -4 38 2 40 5 2 7
8 3 13 -3 5 -1 9 4 9 18 0 22 71 5 96 -8 14 -11 24 -5 24 6 0 11 17 12 38 0
20 1 46 2 57 1 33 -13 139 -22 160 -4 11 -13 31 -19 45 l-11 25 3 -28z"/>
<path d="M1930 2266 c0 -2 8 -10 18 -17 15 -13 16 -12 3 4 -13 16 -21 21 -21
13z"/>
<path d="M1330 2250 c0 -5 5 -10 11 -10 5 0 7 5 4 10 -3 6 -8 10 -11 10 -2 0
-4 -4 -4 -10z"/>
<path d="M1674 2249 c-3 -5 6 -9 20 -9 31 0 34 6 6 13 -11 3 -23 1 -26 -4z"/>
<path d="M1465 2240 c-3 -5 -1 -10 4 -10 6 0 11 5 11 10 0 6 -2 10 -4 10 -3 0
-8 -4 -11 -10z"/>
<path d="M1604 2231 c0 -15 3 -17 13 -9 7 6 10 14 7 19 -9 15 -20 10 -20 -10z"/>
<path d="M1095 2230 c-3 -5 -1 -10 4 -10 6 0 11 5 11 10 0 6 -2 10 -4 10 -3 0
-8 -4 -11 -10z"/>
<path d="M1520 2230 c0 -5 5 -10 11 -10 6 0 0 -13 -14 -30 -22 -26 -24 -33
-14 -55 15 -31 29 -33 26 -2 -1 12 3 34 9 49 12 28 7 58 -9 58 -5 0 -9 -4 -9
-10z"/>
<path d="M2162 2225 c15 -16 20 -17 30 -6 11 11 10 13 0 7 -7 -4 -21 -2 -30 5
-15 12 -15 11 0 -6z"/>
<path d="M2288 2233 c7 -3 16 -2 19 1 4 3 -2 6 -13 5 -11 0 -14 -3 -6 -6z"/>
<path d="M1650 2219 c0 -5 9 -9 20 -9 11 0 20 2 20 4 0 2 -9 6 -20 9 -11 3
-20 1 -20 -4z"/>
<path d="M2450 2220 c0 -5 5 -10 10 -10 6 0 10 5 10 10 0 6 -4 10 -10 10 -5 0
-10 -4 -10 -10z"/>
<path d="M645 2190 c3 -5 8 -10 11 -10 2 0 4 5 4 10 0 6 -5 10 -11 10 -5 0 -7
-4 -4 -10z"/>
<path d="M940 2196 c0 -2 7 -9 15 -16 9 -7 15 -8 15 -2 0 5 -7 12 -15 16 -8 3
-15 4 -15 2z"/>
<path d="M1395 2190 c3 -5 8 -10 11 -10 2 0 4 5 4 10 0 6 -5 10 -11 10 -5 0
-7 -4 -4 -10z"/>
<path d="M1846 2193 c6 -4 14 -15 17 -23 5 -11 6 -9 4 4 -1 11 -9 21 -17 23
-10 3 -11 2 -4 -4z"/>
<path d="M2600 2185 c0 -8 2 -15 4 -15 2 0 6 7 10 15 3 8 1 15 -4 15 -6 0 -10
-7 -10 -15z"/>
<path d="M330 2180 c0 -5 5 -10 11 -10 5 0 7 5 4 10 -3 6 -8 10 -11 10 -2 0
-4 -4 -4 -10z"/>
<path d="M1371 2174 c0 -11 3 -14 6 -6 3 7 2 16 -1 19 -3 4 -6 -2 -5 -13z"/>
<path d="M1641 2174 c0 -11 3 -14 6 -6 3 7 2 16 -1 19 -3 4 -6 -2 -5 -13z"/>
<path d="M1190 2169 c0 -5 5 -7 10 -4 6 3 10 8 10 11 0 2 -4 4 -10 4 -5 0 -10
-5 -10 -11z"/>
<path d="M1680 2163 c-19 -9 -30 -18 -23 -20 7 -2 10 -12 7 -21 -3 -9 2 -4 11
12 14 23 21 27 45 22 23 -4 28 -2 23 9 -6 18 -18 18 -63 -2z"/>
<path d="M2155 2170 c-3 -5 -5 -10 -3 -11 33 -8 38 -7 27 7 -14 17 -16 17 -24
4z"/>
<path d="M2628 2173 c6 -2 10 -8 8 -12 -3 -4 1 -8 9 -8 11 0 12 4 4 14 -6 7
-17 13 -23 12 -7 0 -6 -2 2 -6z"/>
<path d="M453 2158 c-4 -7 -6 -21 -5 -31 2 -9 -3 -24 -11 -32 -9 -8 -13 -24
-10 -35 8 -30 23 -24 23 9 0 17 5 33 11 36 6 4 8 14 5 22 -4 9 -1 22 5 29 8 9
8 14 1 14 -6 0 -14 -6 -19 -12z"/>
<path d="M1595 2160 c3 -5 8 -10 11 -10 2 0 4 5 4 10 0 6 -5 10 -11 10 -5 0
-7 -4 -4 -10z"/>
<path d="M2000 2158 c0 -9 5 -20 10 -23 13 -8 13 5 0 25 -8 13 -10 13 -10 -2z"/>
<path d="M2746 2157 c3 -10 9 -15 12 -12 3 3 0 11 -7 18 -10 9 -11 8 -5 -6z"/>
<path d="M496 2120 c-10 -21 -16 -44 -13 -52 3 -8 9 -3 17 15 7 15 17 27 21
27 7 0 4 38 -3 46 -2 1 -11 -15 -22 -36z"/>
<path d="M920 2135 c-11 -13 -10 -14 4 -9 9 3 16 10 16 15 0 13 -6 11 -20 -6z"/>
<path d="M1160 2141 c0 -7 -4 -9 -10 -6 -5 3 -10 1 -10 -4 0 -6 4 -11 9 -11
13 0 25 20 17 27 -3 4 -6 1 -6 -6z"/>
<path d="M1350 2131 c0 -6 4 -13 10 -16 6 -3 7 1 4 9 -7 18 -14 21 -14 7z"/>
<path d="M2145 2130 c-3 -5 -1 -10 4 -10 6 0 11 5 11 10 0 6 -2 10 -4 10 -3 0
-8 -4 -11 -10z"/>
<path d="M308 2123 c7 -3 16 -2 19 1 4 3 -2 6 -13 5 -11 0 -14 -3 -6 -6z"/>
<path d="M953 2111 c0 -11 5 -18 9 -15 4 3 5 11 1 19 -7 21 -12 19 -10 -4z"/>
<path d="M1703 2110 c3 -11 1 -20 -4 -20 -4 0 -6 -7 -2 -16 3 -8 -4 -25 -16
-38 -17 -18 -19 -25 -9 -28 10 -4 11 -13 1 -48 -10 -38 -9 -49 7 -80 32 -65
34 -79 8 -100 l-23 -19 23 -1 c26 0 28 -12 6 -35 -18 -17 -12 -45 9 -45 7 0
14 8 15 18 7 62 8 113 1 124 -4 7 0 18 9 26 15 12 15 13 -5 9 -15 -3 -20 -1
-16 9 3 7 -2 21 -11 29 -19 19 -20 31 -6 40 6 4 8 15 5 26 -5 13 -2 19 10 19
15 0 15 1 0 16 -12 13 -13 19 -4 30 15 18 21 104 7 104 -6 0 -8 -9 -5 -20z"/>
<path d="M1000 2112 c0 -5 7 -9 15 -9 8 0 12 4 9 9 -3 4 -9 8 -15 8 -5 0 -9
-4 -9 -8z"/>
<path d="M1310 2114 c0 -2 9 -8 20 -14 11 -6 20 -7 20 -2 0 6 -9 12 -20 15
-11 3 -20 3 -20 1z"/>
<path d="M1390 2110 c0 -5 5 -10 11 -10 5 0 7 5 4 10 -3 6 -8 10 -11 10 -2 0
-4 -4 -4 -10z"/>
<path d="M1442 2108 c-14 -14 -16 -38 -3 -38 5 0 11 11 13 25 6 29 6 29 -10
13z"/>
<path d="M1590 2112 c0 -5 7 -9 15 -9 8 0 15 4 15 9 0 4 -7 8 -15 8 -8 0 -15
-4 -15 -8z"/>
<path d="M2660 2109 c0 -5 5 -7 10 -4 6 3 10 8 10 11 0 2 -4 4 -10 4 -5 0 -10
-5 -10 -11z"/>
<path d="M1133 2083 c0 -18 5 -29 9 -25 5 5 4 19 -1 33 -10 23 -10 22 -8 -8z"/>
<path d="M2811 2088 c-14 -23 -14 -23 8 -4 22 20 25 26 13 26 -4 0 -13 -10
-21 -22z"/>
<path d="M1496 2071 c-11 -21 -12 -31 -3 -40 6 -6 8 -11 5 -11 -3 0 -2 -16 2
-35 6 -27 4 -37 -8 -44 -11 -6 -13 -17 -9 -39 5 -24 2 -32 -12 -37 -15 -4 -20
-31 -11 -55 1 -3 2 -9 1 -14 -1 -6 0 -20 4 -33 4 -19 10 -22 33 -17 54 12 58
14 42 24 -13 8 -12 10 3 10 9 0 17 5 17 10 0 6 -9 10 -20 10 -18 0 -25 -10
-21 -32 1 -10 -11 -10 -26 0 -16 10 -10 66 10 86 13 13 14 22 7 36 -13 25 -13
33 2 24 7 -4 8 -3 4 4 -4 6 -2 21 4 32 8 15 8 20 -2 20 -6 0 -4 6 6 13 16 12
16 14 2 26 -9 8 -16 22 -16 33 0 15 5 18 23 13 20 -5 20 -5 5 8 -13 10 -15 16
-6 25 9 9 8 12 -5 12 -9 0 -23 -13 -31 -29z"/>
<path d="M2157 2093 c-4 -3 -7 -11 -7 -17 0 -6 5 -5 12 2 6 6 9 14 7 17 -3 3
-9 2 -12 -2z"/>
<path d="M528 2083 c7 -3 16 -2 19 1 4 3 -2 6 -13 5 -11 0 -14 -3 -6 -6z"/>
<path d="M1609 2078 c-1 -7 -1 -17 0 -22 1 -5 -3 -22 -10 -38 -8 -20 -17 -27
-28 -23 -8 3 -12 3 -8 -1 4 -4 1 -14 -6 -22 -10 -13 -9 -14 2 -8 10 7 12 2 6
-25 -4 -19 -10 -38 -13 -44 -4 -5 -5 -18 -3 -29 2 -12 -1 -16 -9 -11 -9 6 -9
2 -1 -12 6 -11 7 -23 4 -27 -3 -3 -1 -6 5 -6 7 0 13 10 14 23 0 12 2 28 2 36
1 8 7 16 13 18 9 3 10 10 3 23 -6 11 -6 21 -1 24 5 4 12 0 14 -6 3 -8 6 -6 6
5 1 9 -3 17 -9 17 -11 0 8 48 26 67 6 6 9 25 6 42 -4 32 -11 41 -13 19z"/>
<path d="M1992 2081 c-16 -10 -16 -19 3 -48 9 -13 15 -50 16 -90 1 -37 5 -78
10 -91 6 -14 5 -21 -1 -17 -5 3 -8 -12 -7 -35 1 -39 10 -52 20 -27 2 6 3 41 1
77 -2 58 -1 63 12 46 8 -11 14 -15 14 -8 0 6 -8 17 -18 24 -21 15 -21 66 0 81
9 6 8 7 -6 3 -14 -5 -17 -2 -12 10 4 9 2 22 -3 28 -5 6 -11 21 -13 33 -2 16
-7 20 -16 14z"/>
<path d="M1332 2068 c6 -18 25 -20 31 -3 5 10 0 15 -14 15 -12 0 -19 -5 -17
-12z"/>
<path d="M327 2064 c-7 -8 4 -44 14 -44 5 0 9 2 9 4 0 2 3 11 6 19 5 14 -19
31 -29 21z"/>
<path d="M920 2055 c-7 -9 -8 -15 -2 -15 5 0 12 7 16 15 3 8 4 15 2 15 -2 0
-9 -7 -16 -15z"/>
<path d="M1010 2049 c0 -5 5 -7 10 -4 6 3 10 8 10 11 0 2 -4 4 -10 4 -5 0 -10
-5 -10 -11z"/>
<path d="M1314 2035 c0 -14 4 -25 8 -25 4 0 8 7 8 15 0 8 0 18 1 22 0 4 -3 9
-8 10 -5 2 -9 -8 -9 -22z"/>
<path d="M2060 2050 c-12 -7 -10 -9 8 -7 12 0 22 5 22 9 0 11 -12 10 -30 -2z"/>
<path d="M2789 2044 c-9 -11 -9 -15 -1 -10 20 12 32 -2 22 -29 -7 -19 -5 -26
15 -39 28 -19 45 -20 45 -5 0 5 -4 7 -10 4 -5 -3 -10 -1 -10 4 0 6 -7 11 -15
11 -20 0 -19 20 3 36 16 12 16 13 0 14 -9 0 -21 7 -26 16 -8 14 -10 13 -23 -2z"/>
<path d="M1568 2043 c7 -3 16 -2 19 1 4 3 -2 6 -13 5 -11 0 -14 -3 -6 -6z"/>
<path d="M2215 2039 c-4 -6 -5 -12 -2 -15 2 -3 7 2 10 11 7 17 1 20 -8 4z"/>
<path d="M410 2031 c0 -6 4 -13 10 -16 6 -3 7 1 4 9 -7 18 -14 21 -14 7z"/>
<path d="M1388 2022 c9 -10 19 -17 21 -16 6 5 -20 34 -30 34 -5 0 -1 -8 9 -18z"/>
<path d="M2256 2025 c4 -8 11 -15 16 -15 6 0 5 6 -2 15 -7 8 -14 15 -16 15 -2
0 -1 -7 2 -15z"/>
<path d="M2570 2030 c0 -5 5 -10 11 -10 5 0 7 5 4 10 -3 6 -8 10 -11 10 -2 0
-4 -4 -4 -10z"/>
<path d="M1120 2023 c0 -5 5 -15 10 -23 8 -12 10 -11 10 8 0 12 -4 22 -10 22
-5 0 -10 -3 -10 -7z"/>
<path d="M915 2009 c-4 -6 -5 -12 -2 -15 2 -3 7 2 10 11 7 17 1 20 -8 4z"/>
<path d="M1000 2010 c-11 -7 -12 -12 -4 -20 8 -8 13 -6 17 9 3 12 4 21 4 21
-1 0 -9 -5 -17 -10z"/>
<path d="M1050 2000 c0 -11 7 -20 15 -20 13 0 14 4 5 20 -6 11 -13 20 -15 20
-3 0 -5 -9 -5 -20z"/>
<path d="M1425 1991 c-9 -18 -14 -35 -12 -38 3 -2 8 5 12 16 3 11 12 21 20 23
10 2 12 8 6 17 -7 11 -13 6 -26 -18z"/>
<path d="M2340 2009 c0 -5 5 -7 10 -4 6 3 10 8 10 11 0 2 -4 4 -10 4 -5 0 -10
-5 -10 -11z"/>
<path d="M2861 2004 c0 -11 3 -14 6 -6 3 7 2 16 -1 19 -3 4 -6 -2 -5 -13z"/>
<path d="M332 1930 c0 -52 4 -80 12 -81 21 -2 41 3 51 13 7 7 2 9 -15 5 -22
-5 -26 -3 -28 20 -2 21 0 23 13 13 8 -6 20 -10 27 -7 8 3 2 9 -13 15 -23 9
-26 15 -24 56 1 32 -2 46 -11 46 -10 0 -13 -22 -12 -80z"/>
<path d="M402 1985 c0 -16 2 -22 5 -12 2 9 2 23 0 30 -3 6 -5 -1 -5 -18z"/>
<path d="M1210 2004 c0 -7 27 -34 35 -34 3 0 1 9 -5 20 -10 18 -30 28 -30 14z"/>
<path d="M1735 2000 c-3 -5 -1 -10 4 -10 6 0 11 5 11 10 0 6 -2 10 -4 10 -3 0
-8 -4 -11 -10z"/>
<path d="M2190 1988 c0 -19 2 -20 10 -8 13 19 13 30 0 30 -5 0 -10 -10 -10
-22z"/>
<path d="M2498 2003 c7 -3 16 -2 19 1 4 3 -2 6 -13 5 -11 0 -14 -3 -6 -6z"/>
<path d="M2646 1995 c4 -8 8 -15 10 -15 2 0 4 7 4 15 0 8 -4 15 -10 15 -5 0
-7 -7 -4 -15z"/>
<path d="M2950 1990 c6 -11 13 -20 16 -20 2 0 0 9 -6 20 -6 11 -13 20 -16 20
-2 0 0 -9 6 -20z"/>
<path d="M1095 1990 c3 -5 8 -10 11 -10 2 0 4 5 4 10 0 6 -5 10 -11 10 -5 0
-7 -4 -4 -10z"/>
<path d="M1275 1990 c3 -5 8 -10 11 -10 2 0 4 5 4 10 0 6 -5 10 -11 10 -5 0
-7 -4 -4 -10z"/>
<path d="M1920 1989 c0 -5 5 -7 10 -4 6 3 10 8 10 11 0 2 -4 4 -10 4 -5 0 -10
-5 -10 -11z"/>
<path d="M1950 1990 c0 -5 5 -10 11 -10 5 0 7 5 4 10 -3 6 -8 10 -11 10 -2 0
-4 -4 -4 -10z"/>
<path d="M2243 1975 c-3 -9 -3 -18 -1 -21 3 -3 8 4 11 16 6 23 -1 27 -10 5z"/>
<path d="M2308 1965 c2 -14 8 -25 12 -25 10 0 1 38 -10 45 -4 2 -5 -7 -2 -20z"/>
<path d="M1124 1940 c2 -22 0 -43 -5 -46 -5 -3 -9 -13 -8 -22 0 -15 1 -15 8 1
4 10 11 19 16 19 6 0 10 8 9 17 -1 9 -2 28 -2 44 -1 15 -6 27 -12 27 -6 0 -8
-17 -6 -40z"/>
<path d="M1320 1969 c0 -5 5 -7 10 -4 6 3 10 8 10 11 0 2 -4 4 -10 4 -5 0 -10
-5 -10 -11z"/>
<path d="M1653 1965 c-3 -9 -3 -18 -1 -21 3 -3 8 4 11 16 6 23 -1 27 -10 5z"/>
<path d="M710 1955 c0 -8 4 -15 10 -15 5 0 7 7 4 15 -4 8 -8 15 -10 15 -2 0
-4 -7 -4 -15z"/>
<path d="M1050 1955 c0 -8 4 -15 10 -15 5 0 7 7 4 15 -4 8 -8 15 -10 15 -2 0
-4 -7 -4 -15z"/>
<path d="M1365 1961 c-3 -5 -2 -12 3 -15 5 -3 9 1 9 9 0 17 -3 19 -12 6z"/>
<path d="M1741 1954 c0 -11 3 -14 6 -6 3 7 2 16 -1 19 -3 4 -6 -2 -5 -13z"/>
<path d="M1944 1960 c3 -8 9 -22 12 -30 6 -19 44 -44 44 -31 0 6 -6 14 -13 18
-7 4 -21 19 -31 33 -10 14 -15 18 -12 10z"/>
<path d="M2160 1961 c0 -6 5 -13 10 -16 6 -3 10 1 10 9 0 9 -4 16 -10 16 -5 0
-10 -4 -10 -9z"/>
<path d="M610 1951 c0 -5 5 -13 10 -16 6 -3 10 -2 10 4 0 5 -4 13 -10 16 -5 3
-10 2 -10 -4z"/>
<path d="M1240 1946 c0 -7 9 -16 19 -19 17 -4 18 -2 8 14 -14 22 -27 25 -27 5z"/>
<path d="M1292 1935 c6 -14 15 -25 20 -25 15 0 8 38 -8 44 -24 9 -24 8 -12
-19z"/>
<path d="M963 1928 c2 -34 3 -34 18 -7 6 13 7 19 1 15 -6 -3 -13 0 -15 6 -3 7
-5 1 -4 -14z"/>
<path d="M1193 1937 c3 -9 2 -19 -3 -22 -14 -9 -12 -27 2 -23 16 6 20 45 6 54
-8 5 -9 2 -5 -9z"/>
<path d="M1895 1940 c3 -6 -4 -14 -17 -19 -21 -9 -21 -10 -3 -10 23 0 58 23
48 32 -10 11 -35 8 -28 -3z"/>
<path d="M1335 1929 c-4 -6 -5 -12 -2 -15 2 -3 7 2 10 11 7 17 1 20 -8 4z"/>
<path d="M1057 1923 c-12 -12 -7 -30 8 -30 17 0 18 6 7 25 -5 7 -11 9 -15 5z"/>
<path d="M2211 1913 c-1 -24 14 -39 24 -23 3 5 2 10 -4 10 -5 0 -12 8 -14 18
-4 13 -5 12 -6 -5z"/>
<path d="M2245 1920 c4 -6 11 -8 16 -5 14 9 11 15 -7 15 -8 0 -12 -5 -9 -10z"/>
<path d="M1230 1900 c0 -11 6 -20 14 -20 8 0 16 -6 19 -12 2 -7 8 -9 13 -5 5
4 4 11 -2 15 -6 4 -13 15 -17 25 -9 23 -27 22 -27 -3z"/>
<path d="M1640 1911 c0 -6 4 -13 10 -16 6 -3 7 1 4 9 -7 18 -14 21 -14 7z"/>
<path d="M2290 1904 c0 -8 5 -12 10 -9 6 4 8 11 5 16 -9 14 -15 11 -15 -7z"/>
<path d="M2866 1911 c-4 -7 -5 -15 -2 -18 9 -9 19 4 14 18 -4 11 -6 11 -12 0z"/>
<path d="M420 1901 c0 -6 4 -13 10 -16 6 -3 7 1 4 9 -7 18 -14 21 -14 7z"/>
<path d="M1301 1891 c-8 -5 -9 -11 -3 -15 6 -3 8 -15 5 -26 -3 -11 -9 -18 -13
-15 -5 3 -2 -21 5 -52 10 -44 11 -61 2 -72 -10 -11 -9 -13 3 -9 8 2 19 19 24
37 8 27 6 35 -8 43 -14 8 -15 13 -5 24 9 11 15 12 25 3 19 -16 18 -1 -2 18
-10 10 -14 27 -12 45 5 30 1 33 -21 19z"/>
<path d="M796 1882 c-3 -5 1 -9 9 -9 8 0 12 4 9 9 -3 4 -7 8 -9 8 -2 0 -6 -4
-9 -8z"/>
<path d="M970 1873 c0 -7 5 -13 10 -13 6 0 10 4 10 9 0 5 8 12 18 14 9 3 5 4
-10 4 -16 -1 -28 -7 -28 -14z"/>
<path d="M1360 1879 c0 -5 5 -7 10 -4 6 3 10 8 10 11 0 2 -4 4 -10 4 -5 0 -10
-5 -10 -11z"/>
<path d="M1883 1866 c-23 -24 -32 -53 -13 -41 6 4 7 11 4 17 -5 8 -1 9 12 4
10 -4 15 -4 12 0 -4 4 -3 15 3 25 13 25 9 24 -18 -5z"/>
<path d="M1953 1883 c-7 -3 -13 -9 -13 -15 0 -6 7 -8 15 -5 8 4 17 2 20 -3 4
-6 14 -10 23 -10 14 1 14 2 -3 12 -11 6 -22 14 -25 18 -3 4 -11 5 -17 3z"/>
<path d="M908 1855 c2 -14 8 -25 12 -25 10 0 1 38 -10 45 -4 2 -5 -7 -2 -20z"/>
<path d="M2865 1870 c2 -4 14 -10 26 -13 16 -4 19 -3 11 5 -14 14 -45 20 -37
8z"/>
<path d="M554 1852 c-9 -13 -9 -22 0 -34 10 -14 12 -11 12 18 0 19 0 34 -1 34
0 0 -5 -8 -11 -18z"/>
<path d="M1045 1861 c-3 -6 -5 -11 -3 -12 27 -6 38 -5 35 4 -5 15 -24 20 -32
8z"/>
<path d="M1226 1855 c12 -9 14 -14 5 -15 -7 0 -11 -6 -7 -15 3 -8 1 -15 -4
-15 -17 0 -11 -20 14 -45 l24 -24 -23 -15 c-13 -9 -37 -17 -54 -18 -17 -1 -31
-6 -31 -11 0 -5 -18 -7 -40 -4 -22 3 -38 2 -36 -2 3 -4 -6 -15 -19 -25 -14
-10 -22 -23 -19 -28 4 -6 0 -14 -7 -19 -9 -5 -3 -7 16 -4 17 2 32 4 35 4 3 1
6 13 5 29 0 25 3 27 41 27 23 0 48 6 57 13 10 9 16 9 19 2 2 -6 11 -8 21 -5 9
4 14 11 11 16 -3 5 1 12 10 15 20 8 54 58 35 52 -28 -9 -53 42 -29 57 15 9 -7
45 -27 45 -14 0 -14 -2 3 -15z"/>
<path d="M2095 1860 c3 -5 11 -10 16 -10 6 0 7 5 4 10 -3 6 -11 10 -16 10 -6
0 -7 -4 -4 -10z"/>
<path d="M690 1844 c0 -8 5 -12 10 -9 6 3 10 10 10 16 0 5 -4 9 -10 9 -5 0
-10 -7 -10 -16z"/>
<path d="M828 1853 c7 -3 16 -2 19 1 4 3 -2 6 -13 5 -11 0 -14 -3 -6 -6z"/>
<path d="M1122 1851 c-9 -5 -11 -17 -6 -35 5 -23 4 -27 -12 -24 -32 5 -31 -45
0 -66 30 -19 29 -21 30 66 1 38 1 68 1 68 0 0 -6 -4 -13 -9z m1 -101 c3 -14 1
-20 -6 -17 -7 2 -13 13 -13 25 -1 26 11 20 19 -8z"/>
<path d="M1922 1851 c2 -8 13 -19 24 -25 10 -6 22 -15 26 -21 5 -6 8 -6 8 1 0
6 -9 19 -20 29 -11 10 -20 14 -20 9 0 -5 -5 -2 -11 6 -8 12 -10 12 -7 1z"/>
<path d="M965 1840 c-4 -6 3 -10 14 -10 25 0 27 6 6 13 -8 4 -17 2 -20 -3z"/>
<path d="M1655 1839 c-4 -6 -5 -12 -2 -15 2 -3 7 2 10 11 7 17 1 20 -8 4z"/>
<path d="M2220 1840 c0 -5 5 -10 11 -10 5 0 7 5 4 10 -3 6 -8 10 -11 10 -2 0
-4 -4 -4 -10z"/>
<path d="M2315 1840 c-3 -5 1 -10 10 -10 9 0 13 5 10 10 -3 6 -8 10 -10 10 -2
0 -7 -4 -10 -10z"/>
<path d="M310 1829 c0 -5 5 -7 10 -4 6 3 10 8 10 11 0 2 -4 4 -10 4 -5 0 -10
-5 -10 -11z"/>
<path d="M349 1823 c-1 -5 0 -24 1 -44 1 -25 -4 -38 -14 -42 -9 -4 -16 -12
-15 -19 0 -10 2 -10 6 0 2 6 16 12 29 12 13 0 24 5 24 10 0 6 -4 10 -10 10 -5
0 -10 5 -10 10 0 6 6 10 14 10 8 0 13 8 12 18 -2 26 -34 56 -37 35z"/>
<path d="M1066 1815 c4 -8 10 -12 15 -9 14 8 10 24 -6 24 -9 0 -12 -6 -9 -15z"/>
<path d="M421 1804 c0 -11 3 -14 6 -6 3 7 2 16 -1 19 -3 4 -6 -2 -5 -13z"/>
<path d="M901 1804 c0 -11 3 -14 6 -6 3 7 2 16 -1 19 -3 4 -6 -2 -5 -13z"/>
<path d="M956 1804 c-9 -24 -7 -27 9 -10 17 17 19 26 6 26 -5 0 -12 -7 -15
-16z"/>
<path d="M2610 1810 c0 -5 5 -10 11 -10 5 0 7 5 4 10 -3 6 -8 10 -11 10 -2 0
-4 -4 -4 -10z"/>
<path d="M655 1799 c-4 -6 -5 -12 -2 -15 2 -3 7 2 10 11 7 17 1 20 -8 4z"/>
<path d="M767 1803 c-4 -3 -7 -11 -7 -17 0 -6 5 -5 12 2 6 6 9 14 7 17 -3 3
-9 2 -12 -2z"/>
<path d="M830 1800 c-9 -6 -10 -10 -3 -10 6 0 15 5 18 10 8 12 4 12 -15 0z"/>
<path d="M1574 1785 c1 -28 11 -33 19 -11 3 8 0 20 -8 26 -10 8 -13 5 -11 -15z"/>
<path d="M1645 1799 c-4 -6 -5 -12 -2 -15 2 -3 7 2 10 11 7 17 1 20 -8 4z"/>
<path d="M1945 1800 c3 -5 -2 -21 -11 -35 -14 -21 -14 -25 -1 -25 8 0 17 10
21 23 9 33 7 47 -5 47 -5 0 -7 -4 -4 -10z"/>
<path d="M2320 1785 c0 -9 6 -12 15 -9 8 4 15 7 15 9 0 2 -7 5 -15 9 -9 3 -15
0 -15 -9z"/>
<path d="M760 1755 c0 -8 4 -15 8 -15 5 0 9 7 9 15 0 8 -4 15 -9 15 -4 0 -8
-7 -8 -15z"/>
<path d="M895 1748 c3 -13 7 -29 7 -35 1 -7 6 -13 11 -13 5 0 6 10 2 23 -3 12
-7 28 -7 35 -1 6 -6 12 -11 12 -5 0 -6 -10 -2 -22z"/>
<path d="M2355 1760 c-3 -5 -1 -10 4 -10 6 0 11 5 11 10 0 6 -2 10 -4 10 -3 0
-8 -4 -11 -10z"/>
<path d="M2270 1755 c0 -10 29 -24 34 -17 3 6 -3 12 -14 15 -11 3 -20 4 -20 2z"/>
<path d="M1562 1742 c4 -13 -13 -52 -23 -52 -13 0 -11 14 3 28 17 17 3 25 -21
12 -16 -8 -21 -8 -21 2 -1 8 -6 5 -15 -6 -11 -15 -12 -23 -3 -33 16 -20 69
-12 82 12 6 11 15 23 19 26 5 3 2 9 -7 12 -9 4 -15 3 -14 -1z"/>
<path d="M1605 1740 c-3 -5 -1 -10 4 -10 6 0 11 5 11 10 0 6 -2 10 -4 10 -3 0
-8 -4 -11 -10z"/>
<path d="M1735 1740 c3 -5 8 -10 11 -10 2 0 4 5 4 10 0 6 -5 10 -11 10 -5 0
-7 -4 -4 -10z"/>
<path d="M1965 1740 c3 -5 10 -10 16 -10 5 0 9 5 9 10 0 6 -7 10 -16 10 -8 0
-12 -4 -9 -10z"/>
<path d="M2009 1724 c-5 -15 -7 -29 -5 -32 5 -4 10 6 22 46 7 23 -7 12 -17
-14z"/>
<path d="M2050 1744 c0 -4 11 -17 26 -30 20 -19 22 -24 8 -24 -9 0 -23 8 -31
18 -14 16 -14 16 -9 0 3 -10 0 -18 -6 -18 -8 0 -9 -3 -2 -10 7 -7 27 -7 57 -1
27 5 50 5 53 0 3 -5 13 -9 22 -9 13 0 13 2 -4 15 -10 8 -14 14 -9 14 15 0 62
-28 48 -29 -7 0 -13 -4 -13 -10 0 -14 47 -13 56 2 5 7 3 8 -5 4 -8 -5 -14 -1
-18 12 -3 13 -11 18 -19 15 -8 -3 -14 1 -14 8 0 7 -3 10 -6 6 -3 -3 -17 -2
-30 3 -19 7 -24 6 -24 -5 0 -8 -4 -15 -10 -15 -5 0 -10 4 -10 10 0 5 -10 18
-22 30 -22 20 -38 26 -38 14z"/>
<path d="M2210 1743 c0 -17 17 -32 45 -42 l30 -11 -28 21 c-22 17 -25 24 -15
30 9 6 7 9 -9 9 -13 0 -23 -3 -23 -7z"/>
<path d="M266 1725 c-9 -26 -7 -32 5 -12 6 10 9 21 6 23 -2 3 -7 -2 -11 -11z"/>
<path d="M970 1725 c7 -8 10 -22 6 -30 -3 -8 -1 -15 4 -15 6 0 10 6 10 14 0
23 -11 46 -22 46 -6 0 -5 -6 2 -15z"/>
<path d="M1815 1730 c4 -6 15 -8 26 -5 17 6 19 3 13 -22 -7 -28 -7 -28 14 -9
12 10 36 20 54 21 48 4 48 7 -2 16 -66 11 -112 11 -105 -1z"/>
<path d="M2398 1733 c7 -3 16 -2 19 1 4 3 -2 6 -13 5 -11 0 -14 -3 -6 -6z"/>
<path d="M2870 1730 c0 -5 5 -10 10 -10 6 0 10 5 10 10 0 6 -4 10 -10 10 -5 0
-10 -4 -10 -10z"/>
<path d="M2690 1720 c0 -5 10 -10 23 -10 18 0 19 2 7 10 -19 13 -30 13 -30 0z"/>
<path d="M460 1710 c8 -5 20 -10 25 -10 6 0 3 5 -5 10 -8 5 -19 10 -25 10 -5
0 -3 -5 5 -10z"/>
<path d="M940 1709 c0 -5 5 -7 10 -4 6 3 10 8 10 11 0 2 -4 4 -10 4 -5 0 -10
-5 -10 -11z"/>
<path d="M2310 1709 c0 -5 5 -7 10 -4 6 3 10 8 10 11 0 2 -4 4 -10 4 -5 0 -10
-5 -10 -11z"/>
<path d="M2545 1710 c-3 -6 1 -7 9 -4 18 7 21 14 7 14 -6 0 -13 -4 -16 -10z"/>
<path d="M1800 1691 c-17 -33 -11 -45 10 -18 22 28 25 37 10 37 -5 0 -14 -9
-20 -19z"/>
<path d="M2610 1706 c0 -2 7 -7 16 -10 8 -3 12 -2 9 4 -6 10 -25 14 -25 6z"/>
<path d="M2390 1691 c0 -6 4 -13 10 -16 6 -3 7 1 4 9 -7 18 -14 21 -14 7z"/>
<path d="M275 1680 c3 -5 11 -10 16 -10 6 0 7 5 4 10 -3 6 -11 10 -16 10 -6 0
-7 -4 -4 -10z"/>
<path d="M356 1674 c-9 -23 -2 -28 13 -10 7 8 8 17 3 20 -6 3 -13 -1 -16 -10z"/>
<path d="M904 1675 c8 -8 18 -15 22 -15 3 0 1 7 -6 15 -7 8 -17 15 -22 15 -5
0 -3 -7 6 -15z"/>
<path d="M1245 1680 c-3 -5 -1 -10 4 -10 6 0 11 5 11 10 0 6 -2 10 -4 10 -3 0
-8 -4 -11 -10z"/>
<path d="M1310 1674 c0 -9 6 -11 18 -7 16 6 16 6 0 -10 -9 -9 -24 -14 -32 -11
-12 5 -15 2 -10 -10 8 -20 43 -21 50 -1 7 17 25 21 22 4 -2 -6 2 -13 8 -16 7
-2 12 7 12 22 0 19 -5 25 -15 20 -10 -3 -13 -1 -10 9 4 9 -2 14 -19 14 -13 0
-24 -6 -24 -14z"/>
<path d="M1596 1681 c2 -2 -4 -10 -14 -17 -15 -12 -15 -12 7 -7 14 4 27 1 33
-8 7 -11 8 -9 4 5 -4 11 -1 23 5 27 7 4 1 6 -14 6 -14 -1 -24 -4 -21 -6z"/>
<path d="M1916 1681 c-9 -14 18 -71 34 -71 26 1 50 25 39 41 -5 8 -9 9 -9 3 0
-18 -32 -26 -42 -12 -11 18 -10 30 2 23 6 -3 10 1 10 9 0 17 -25 22 -34 7z"/>
<path d="M1970 1680 c0 -6 7 -10 15 -10 8 0 15 2 15 4 0 2 -7 6 -15 10 -8 3
-15 1 -15 -4z"/>
<path d="M2560 1679 c0 -5 5 -7 10 -4 6 3 10 8 10 11 0 2 -4 4 -10 4 -5 0 -10
-5 -10 -11z"/>
<path d="M776 1665 c-3 -9 0 -15 9 -15 9 0 12 6 9 15 -4 8 -7 15 -9 15 -2 0
-5 -7 -9 -15z"/>
<path d="M995 1669 c-9 -14 -2 -20 14 -10 8 6 9 11 3 15 -6 3 -14 1 -17 -5z"/>
<path d="M1650 1671 c0 -5 7 -14 15 -21 12 -10 13 -16 3 -27 -9 -11 -9 -16 3
-24 11 -7 9 -9 -9 -9 -13 0 -20 -4 -17 -10 9 -14 41 -12 73 4 29 15 60 61 49
72 -8 8 -38 -16 -32 -25 4 -7 -30 -41 -40 -41 -3 0 -5 7 -5 15 0 8 4 15 8 15
5 0 14 11 20 25 10 22 9 25 -9 25 -18 0 -19 -2 -9 -15 10 -12 10 -15 -3 -15
-17 0 -40 24 -30 33 3 4 1 7 -5 7 -7 0 -12 -4 -12 -9z"/>
<path d="M1825 1670 c-3 -5 -1 -10 4 -10 6 0 11 5 11 10 0 6 -2 10 -4 10 -3 0
-8 -4 -11 -10z"/>
<path d="M2496 1665 c4 -8 8 -15 10 -15 2 0 4 7 4 15 0 8 -4 15 -10 15 -5 0
-7 -7 -4 -15z"/>
<path d="M1110 1660 l-25 -8 27 -1 c15 -1 32 -9 37 -18 6 -10 11 -13 11 -7 0
24 -25 41 -50 34z"/>
<path d="M1233 1645 c30 -26 47 -32 47 -15 0 6 -5 10 -11 10 -5 0 -7 5 -3 12
5 8 2 9 -9 5 -9 -3 -19 -2 -22 3 -4 6 -12 10 -18 10 -7 0 1 -12 16 -25z"/>
<path d="M2010 1660 c-12 -8 -11 -10 8 -10 12 0 22 5 22 10 0 13 -11 13 -30 0z"/>
<path d="M2713 1655 c0 -8 4 -12 9 -9 5 3 6 10 3 15 -9 13 -12 11 -12 -6z"/>
<path d="M372 1633 c-13 -11 -19 -24 -14 -27 9 -6 45 31 40 42 -2 4 -13 -3
-26 -15z"/>
<path d="M961 1651 c-10 -6 -9 -10 5 -15 20 -8 25 -4 16 11 -4 7 -13 9 -21 4z"/>
<path d="M1000 1640 c0 -5 5 -10 10 -10 6 0 10 5 10 10 0 6 -4 10 -10 10 -5 0
-10 -4 -10 -10z"/>
<path d="M1480 1641 c0 -5 5 -13 10 -16 6 -3 10 -2 10 4 0 5 -4 13 -10 16 -5
3 -10 2 -10 -4z"/>
<path d="M2631 1634 c0 -11 3 -14 6 -6 3 7 2 16 -1 19 -3 4 -6 -2 -5 -13z"/>
<path d="M498 1626 c-19 -14 -23 -26 -10 -26 4 0 13 9 20 20 14 23 13 24 -10
6z"/>
<path d="M893 1623 c-3 -10 -8 -21 -10 -25 -2 -5 5 -8 17 -8 12 0 19 4 16 9
-4 5 -1 11 6 13 13 5 2 28 -13 28 -5 0 -12 -8 -16 -17z"/>
<path d="M2070 1636 c0 -2 7 -7 16 -10 8 -3 12 -2 9 4 -6 10 -25 14 -25 6z"/>
<path d="M2225 1630 c-3 -6 1 -7 9 -4 18 7 21 14 7 14 -6 0 -13 -4 -16 -10z"/>
<path d="M2355 1630 c3 -5 8 -10 11 -10 2 0 4 5 4 10 0 6 -5 10 -11 10 -5 0
-7 -4 -4 -10z"/>
<path d="M2500 1620 c0 -5 5 -10 11 -10 5 0 7 5 4 10 -3 6 -8 10 -11 10 -2 0
-4 -4 -4 -10z"/>
<path d="M2732 1610 c0 -14 2 -19 5 -12 2 6 2 18 0 25 -3 6 -5 1 -5 -13z"/>
<path d="M1797 1613 c-12 -12 -7 -22 8 -17 8 4 15 10 15 15 0 11 -14 12 -23 2z"/>
<path d="M2248 1595 c2 -14 8 -25 13 -25 10 0 11 12 3 34 -10 25 -22 19 -16
-9z"/>
<path d="M964 1601 c4 -6 14 -11 23 -11 12 0 14 -7 10 -35 -6 -37 6 -47 22
-17 14 25 -8 66 -38 70 -15 2 -21 0 -17 -7z"/>
<path d="M1853 1580 c-39 -17 -57 -40 -33 -40 6 0 10 4 10 9 0 16 79 41 128
41 26 0 71 -7 101 -15 49 -13 53 -12 39 1 -11 11 -43 17 -109 20 -78 3 -101 1
-136 -16z"/>
<path d="M2395 1590 c-3 -5 -1 -10 4 -10 6 0 11 5 11 10 0 6 -2 10 -4 10 -3 0
-8 -4 -11 -10z"/>
<path d="M2520 1588 c0 -4 9 -8 20 -8 11 0 20 4 20 8 0 4 -9 8 -20 8 -11 0
-20 -4 -20 -8z"/>
<path d="M1150 1580 c-10 -6 -5 -9 18 -8 18 1 32 5 32 10 0 11 -31 10 -50 -2z"/>
<path d="M2351 1574 c0 -11 3 -14 6 -6 3 7 2 16 -1 19 -3 4 -6 -2 -5 -13z"/>
<path d="M436 1563 c-6 -14 -5 -15 5 -6 7 7 10 15 7 18 -3 3 -9 -2 -12 -12z"/>
<path d="M928 1551 c5 -39 38 -69 55 -52 9 10 9 12 -3 9 -8 -2 -14 2 -15 9 0
6 -3 15 -7 19 -5 4 -8 16 -8 26 0 10 -6 18 -13 18 -9 0 -12 -9 -9 -29z"/>
<path d="M1315 1570 c3 -4 14 -10 25 -13 11 -3 18 -2 15 3 -3 4 -14 10 -25 13
-11 3 -18 2 -15 -3z"/>
<path d="M324 1555 c-4 -8 -13 -15 -22 -15 -8 0 -12 -3 -9 -7 8 -8 57 17 57
29 0 14 -20 9 -26 -7z"/>
<path d="M505 1560 c-3 -5 -1 -10 4 -10 6 0 11 5 11 10 0 6 -2 10 -4 10 -3 0
-8 -4 -11 -10z"/>
<path d="M1863 1553 c-10 -10 -13 -14 -6 -10 7 5 28 9 47 10 19 0 33 5 30 9
-9 14 -51 9 -71 -9z"/>
<path d="M2045 1554 c16 -9 35 -23 43 -30 12 -13 42 -20 42 -10 0 8 -64 44
-90 50 -22 6 -22 5 5 -10z"/>
<path d="M2280 1534 c0 -22 4 -33 11 -29 6 4 8 14 5 22 -4 9 -1 22 5 29 9 11
8 14 -5 14 -12 0 -16 -9 -16 -36z"/>
<path d="M670 1554 c1 -15 28 -46 33 -37 2 4 -4 17 -14 27 -11 11 -19 15 -19
10z"/>
<path d="M1123 1549 c-52 -10 -85 -27 -78 -40 4 -5 -1 -9 -9 -9 -8 0 -20 -8
-25 -17 -8 -13 -10 -14 -11 -4 0 8 -3 12 -6 8 -3 -3 -3 -10 1 -16 6 -10 69 29
87 53 7 11 161 12 177 1 7 -3 8 0 5 9 -3 9 -18 16 -33 17 -14 0 -35 2 -46 3
-11 2 -39 0 -62 -5z"/>
<path d="M1621 1544 c0 -11 3 -14 6 -6 3 7 2 16 -1 19 -3 4 -6 -2 -5 -13z"/>
<path d="M2620 1550 c-8 -5 -12 -12 -9 -15 4 -3 12 1 19 10 14 17 11 19 -10 5z"/>
<path d="M370 1535 c0 -8 4 -15 8 -15 5 0 9 7 9 15 0 8 -4 15 -9 15 -4 0 -8
-7 -8 -15z"/>
<path d="M790 1539 c0 -5 5 -7 10 -4 6 3 10 8 10 11 0 2 -4 4 -10 4 -5 0 -10
-5 -10 -11z"/>
<path d="M1287 1525 c2 -8 8 -14 11 -13 21 2 32 -3 26 -14 -5 -7 -3 -8 5 -3 8
4 26 -2 44 -14 31 -22 31 -22 -2 8 -40 36 -93 58 -84 36z"/>
<path d="M1796 1529 c3 -5 -1 -12 -10 -15 -8 -3 -17 -12 -20 -19 -3 -9 7 -7
30 7 40 23 40 24 14 31 -11 3 -17 1 -14 -4z"/>
<path d="M1385 1520 c3 -5 8 -10 11 -10 2 0 4 5 4 10 0 6 -5 10 -11 10 -5 0
-7 -4 -4 -10z"/>
<path d="M1894 1515 c-80 -17 -120 -39 -139 -75 -8 -16 -15 -30 -15 -32 0 -2
34 -3 76 -4 52 -1 78 -5 84 -14 7 -11 11 -11 23 -1 10 8 17 8 21 2 4 -7 15 -7
30 -1 13 5 27 6 30 3 3 -3 12 0 21 7 12 10 15 10 15 -4 0 -9 4 -16 9 -16 5 0
7 10 4 21 -5 19 -3 21 20 17 15 -3 27 -1 27 3 0 5 -5 9 -12 9 -6 0 -8 3 -4 7
3 4 29 6 56 4 31 -1 50 2 50 8 0 7 -10 9 -24 5 -33 -8 -71 13 -56 31 9 11 7
12 -8 8 -11 -2 -33 2 -48 10 -44 22 -93 26 -160 12z m85 -20 c2 -3 -1 -11 -8
-18 -11 -9 -14 -9 -18 1 -3 6 -13 12 -24 12 -10 0 -19 5 -19 11 0 11 57 6 69
-6z m-96 -50 c43 -30 94 -14 124 39 8 15 12 15 47 -2 41 -20 36 -33 -17 -46
-15 -4 -26 -10 -23 -14 6 -10 -123 -8 -191 3 -29 4 -53 12 -53 17 0 5 15 15
34 23 19 8 38 20 43 27 6 9 9 6 11 -9 2 -13 13 -30 25 -38z m62 5 c-3 -5 -13
-10 -21 -10 -8 0 -14 5 -14 10 0 6 9 10 21 10 11 0 17 -4 14 -10z"/>
<path d="M2455 1520 c3 -5 8 -10 11 -10 2 0 4 5 4 10 0 6 -5 10 -11 10 -5 0
-7 -4 -4 -10z"/>
<path d="M790 1498 c0 -19 2 -20 10 -8 13 19 13 30 0 30 -5 0 -10 -10 -10 -22z"/>
<path d="M1710 1483 c0 -45 9 -53 30 -28 11 13 10 14 -6 8 -19 -7 -19 -6 0 21
10 16 13 25 6 21 -7 -4 -16 -1 -21 6 -6 9 -9 0 -9 -28z"/>
<path d="M2653 1513 c-18 -7 -16 -20 2 -20 8 0 15 6 15 14 0 7 -1 13 -2 12 -2
0 -9 -3 -15 -6z"/>
<path d="M315 1500 c3 -5 8 -10 11 -10 2 0 4 5 4 10 0 6 -5 10 -11 10 -5 0 -7
-4 -4 -10z"/>
<path d="M360 1500 c-13 -8 -13 -10 2 -10 9 0 20 5 23 10 8 13 -5 13 -25 0z"/>
<path d="M635 1501 c-3 -5 -1 -12 4 -15 5 -3 11 1 15 9 6 16 -9 21 -19 6z"/>
<path d="M1179 1506 c-2 -2 -18 -6 -34 -9 -17 -2 -55 -17 -84 -31 -45 -23 -51
-29 -40 -42 12 -14 14 -14 25 1 7 10 18 14 25 9 8 -4 10 -3 5 4 -4 6 6 18 23
27 38 19 41 19 41 -4 0 -24 36 -51 66 -51 25 0 74 36 74 55 0 17 40 8 47 -11
2 -7 12 -10 20 -7 12 5 14 3 8 -7 -5 -9 -4 -11 3 -6 7 4 12 2 12 -3 0 -6 -12
-11 -27 -11 -40 -1 -135 -24 -128 -32 3 -3 23 -2 43 3 20 5 53 9 73 9 32 0 59
14 59 31 0 16 -76 53 -134 65 -70 15 -71 15 -77 10z m55 -22 c17 -7 22 -34 6
-34 -5 0 -10 5 -10 10 0 6 -9 10 -20 10 -11 0 -20 5 -20 10 0 11 20 13 44 4z
m-44 -25 c0 -5 -7 -9 -15 -9 -15 0 -20 12 -9 23 8 8 24 -1 24 -14z m40 -29 c0
-5 -9 -10 -20 -10 -11 0 -20 5 -20 10 0 6 9 10 20 10 11 0 20 -4 20 -10z"/>
<path d="M2373 1483 c-4 -16 -7 -53 -5 -83 1 -52 -12 -194 -23 -250 -3 -14 -6
-65 -6 -114 0 -48 -6 -112 -14 -141 -14 -56 -23 -280 -12 -292 4 -3 7 5 7 20
0 14 4 37 10 51 5 14 6 28 1 30 -5 3 -6 25 -4 48 2 24 4 56 4 71 -1 15 4 38
11 50 7 12 11 31 10 42 -2 20 -2 20 7 0 5 -11 10 -32 10 -47 1 -15 4 -29 9
-31 10 -7 13 82 3 102 -5 9 -5 25 -2 35 6 16 10 14 30 -20 20 -34 22 -43 11
-77 -9 -31 -9 -42 1 -51 9 -8 11 -7 6 7 -4 9 -2 17 4 17 6 0 9 6 7 12 -3 7 2
19 9 27 9 8 11 16 5 20 -6 3 -12 16 -13 28 -3 16 6 28 34 47 21 14 41 26 46
26 9 0 41 71 41 93 0 8 8 23 17 33 13 13 14 16 3 12 -8 -2 -28 -31 -45 -63
-46 -90 -108 -118 -161 -72 -22 19 -25 28 -19 55 7 34 19 41 28 18 3 -8 15
-20 27 -26 21 -11 21 -11 5 14 -9 14 -26 28 -37 32 -18 5 -20 12 -14 58 4 28
10 80 13 116 3 36 10 71 15 78 7 8 7 17 -2 27 -9 11 -9 22 -1 47 9 24 8 33 -1
39 -9 6 -9 11 1 23 9 10 10 16 2 16 -6 0 -14 -12 -18 -27z"/>
<path d="M2804 1502 c4 -7 2 -12 -4 -12 -6 0 -9 -12 -8 -27 2 -16 -2 -28 -9
-28 -27 0 -24 -15 4 -15 27 0 30 -3 28 -30 -1 -16 2 -30 7 -30 13 0 9 -38 -4
-43 -7 -2 -10 -7 -7 -11 3 -3 14 -3 23 0 14 5 16 14 11 43 -4 20 -12 39 -18
43 -6 4 -8 10 -4 14 3 4 15 1 24 -7 10 -7 5 1 -10 17 -21 24 -27 37 -22 57 4
15 2 28 -6 32 -8 5 -10 4 -5 -3z"/>
<path d="M690 1499 c47 -40 48 -40 53 -26 3 7 0 14 -6 14 -7 0 -21 4 -32 8
-11 5 -18 6 -15 4z"/>
<path d="M1406 1487 c3 -10 9 -15 12 -12 3 3 0 11 -7 18 -10 9 -11 8 -5 -6z"/>
<path d="M2250 1491 c0 -6 4 -13 10 -16 6 -3 7 1 4 9 -7 18 -14 21 -14 7z"/>
<path d="M2307 1486 c-11 -8 -14 -17 -8 -20 5 -4 15 3 21 14 13 23 11 24 -13
6z"/>
<path d="M2500 1496 c0 -2 7 -9 15 -16 13 -11 14 -10 9 4 -5 14 -24 23 -24 12z"/>
<path d="M2750 1481 c0 -5 5 -13 10 -16 6 -3 10 -2 10 4 0 5 -4 13 -10 16 -5
3 -10 2 -10 -4z"/>
<path d="M345 1439 c-11 -24 -21 -47 -23 -50 -2 -4 9 -6 23 -6 17 0 23 3 17 9
-11 11 -4 50 8 43 5 -3 11 -1 15 5 3 5 2 10 -4 10 -5 0 -11 7 -13 16 -2 10
-11 0 -23 -27z"/>
<path d="M662 1460 c3 -8 1 -23 -4 -32 -6 -13 -5 -18 6 -18 22 0 29 32 10 49
-14 14 -16 14 -12 1z"/>
<path d="M790 1450 c-15 -28 -18 -170 -4 -192 11 -17 21 104 13 149 -4 19 -2
34 4 36 5 1 8 10 5 17 -3 11 -8 8 -18 -10z"/>
<path d="M1441 1461 c-8 -5 -9 -11 -3 -15 5 -3 12 1 16 9 6 17 6 18 -13 6z"/>
<path d="M2590 1460 c0 -5 5 -10 11 -10 5 0 7 5 4 10 -3 6 -8 10 -11 10 -2 0
-4 -4 -4 -10z"/>
<path d="M278 1453 c7 -3 16 -2 19 1 4 3 -2 6 -13 5 -11 0 -14 -3 -6 -6z"/>
<path d="M2270 1448 c0 -9 -6 -19 -12 -21 -10 -4 -10 -6 0 -6 14 -1 28 26 18
36 -3 4 -6 -1 -6 -9z"/>
<path d="M2433 1425 c-1 -19 3 -35 7 -35 10 0 22 48 15 60 -12 20 -21 9 -22
-25z"/>
<path d="M2875 1450 c-3 -5 -1 -10 4 -10 6 0 11 5 11 10 0 6 -2 10 -4 10 -3 0
-8 -4 -11 -10z"/>
<path d="M1665 1440 c-3 -5 -1 -10 4 -10 6 0 11 5 11 10 0 6 -2 10 -4 10 -3 0
-8 -4 -11 -10z"/>
<path d="M2328 1443 c7 -3 16 -2 19 1 4 3 -2 6 -13 5 -11 0 -14 -3 -6 -6z"/>
<path d="M558 1432 c-10 -2 -18 -8 -18 -13 0 -13 27 -11 35 2 9 13 4 16 -17
11z"/>
<path d="M2580 1430 c-9 -6 -10 -10 -3 -10 6 0 15 5 18 10 8 12 4 12 -15 0z"/>
<path d="M945 1420 c-28 -10 -5 -17 35 -10 33 5 33 6 9 11 -14 3 -34 3 -44 -1z"/>
<path d="M267 1405 c3 -8 9 -12 14 -9 12 7 11 11 -5 17 -10 4 -13 1 -9 -8z"/>
<path d="M1096 1409 c4 -8 -1 -9 -17 -5 -22 7 -22 6 4 -11 15 -10 27 -22 27
-27 0 -4 7 -3 15 4 9 7 18 10 22 7 3 -4 12 -2 20 4 10 9 13 8 13 0 0 -7 5 -9
10 -6 19 11 10 21 -21 23 -17 1 -39 7 -49 12 -24 13 -33 13 -24 -1z"/>
<path d="M415 1400 c-3 -6 1 -7 9 -4 18 7 21 14 7 14 -6 0 -13 -4 -16 -10z"/>
<path d="M621 1394 c0 -11 3 -14 6 -6 3 7 2 16 -1 19 -3 4 -6 -2 -5 -13z"/>
<path d="M2305 1400 c3 -5 8 -10 11 -10 2 0 4 5 4 10 0 6 -5 10 -11 10 -5 0
-7 -4 -4 -10z"/>
<path d="M2660 1399 c0 -5 5 -7 10 -4 6 3 10 8 10 11 0 2 -4 4 -10 4 -5 0 -10
-5 -10 -11z"/>
<path d="M713 1386 c5 -12 1 -23 -10 -33 -17 -13 -16 -13 7 -7 38 10 42 19 19
40 -22 18 -22 18 -16 0z"/>
<path d="M1292 1383 c-18 -2 -30 -8 -27 -12 6 -10 53 -2 61 10 3 5 4 8 2 7 -2
0 -18 -3 -36 -5z"/>
<path d="M1820 1386 c0 -2 9 -6 20 -9 11 -3 20 -1 20 4 0 5 -9 9 -20 9 -11 0
-20 -2 -20 -4z"/>
<path d="M2515 1381 c-3 -5 -1 -12 5 -16 5 -3 10 1 10 9 0 18 -6 21 -15 7z"/>
<path d="M640 1351 c0 -34 10 -44 30 -30 13 7 12 9 -2 9 -11 0 -15 7 -13 25 1
14 -2 25 -6 25 -5 0 -9 -13 -9 -29z"/>
<path d="M1345 1370 c-3 -5 -1 -10 4 -10 6 0 11 5 11 10 0 6 -2 10 -4 10 -3 0
-8 -4 -11 -10z"/>
<path d="M1775 1370 c3 -5 10 -10 16 -10 5 0 9 5 9 10 0 6 -7 10 -16 10 -8 0
-12 -4 -9 -10z"/>
<path d="M2437 1369 c7 -7 15 -10 18 -7 3 3 -2 9 -12 12 -14 6 -15 5 -6 -5z"/>
<path d="M2670 1370 c0 -5 5 -10 10 -10 6 0 10 5 10 10 0 6 -4 10 -10 10 -5 0
-10 -4 -10 -10z"/>
<path d="M2740 1371 c0 -5 7 -12 16 -15 24 -9 27 -7 10 9 -17 17 -26 19 -26 6z"/>
<path d="M313 1355 c-9 -25 4 -29 17 -6 7 15 7 21 0 21 -6 0 -13 -7 -17 -15z"/>
<path d="M1370 1337 l-23 -32 29 27 c15 15 26 30 23 33 -3 2 -16 -10 -29 -28z"/>
<path d="M1650 1360 c0 -13 18 -22 24 -11 3 5 -1 11 -9 15 -8 3 -15 1 -15 -4z"/>
<path d="M1740 1360 c0 -5 7 -10 15 -10 8 0 15 -6 15 -14 0 -8 22 -28 48 -45
56 -36 71 -40 42 -11 -11 11 -26 20 -33 20 -6 0 -25 16 -41 35 -29 35 -46 44
-46 25z"/>
<path d="M2478 1363 c0 -5 -2 -17 -2 -28 -1 -11 -8 -34 -16 -52 -12 -27 -16
-29 -26 -15 -13 17 3 42 27 42 20 0 1 14 -21 15 -20 2 -25 -10 -21 -52 1 -12
-3 -39 -8 -61 -7 -33 -6 -39 5 -35 8 3 14 11 14 19 0 7 14 33 31 59 17 25 29
55 28 68 -2 12 0 28 4 35 5 7 4 12 -2 12 -6 0 -12 -3 -13 -7z"/>
<path d="M1300 1350 c-13 -8 -12 -10 3 -10 9 0 17 5 17 10 0 12 -1 12 -20 0z"/>
<path d="M2526 1328 c1 -13 3 -25 3 -27 1 -3 7 4 15 14 15 21 12 35 -8 35 -7
0 -12 -10 -10 -22z"/>
<path d="M1253 1333 c-13 -2 -23 -8 -23 -13 0 -10 38 -1 46 11 3 5 4 8 2 8 -2
-1 -13 -4 -25 -6z"/>
<path d="M1701 1335 c0 -5 6 -21 14 -35 8 -14 14 -20 14 -15 0 6 -6 21 -14 35
-8 14 -14 21 -14 15z"/>
<path d="M328 1323 c-10 -2 -18 -11 -18 -19 0 -8 -4 -14 -10 -14 -5 0 -10 -7
-10 -15 0 -8 5 -15 11 -15 5 0 7 5 4 10 -3 6 1 10 10 10 11 0 15 5 11 15 -3 9
0 15 9 15 8 0 15 5 15 10 0 6 -1 9 -2 9 -2 -1 -11 -3 -20 -6z"/>
<path d="M270 1310 c-9 -6 -10 -10 -3 -10 6 0 15 5 18 10 8 12 4 12 -15 0z"/>
<path d="M413 1314 c4 -6 -5 -21 -18 -34 -23 -22 -32 -70 -12 -70 4 0 7 6 6
13 -3 25 2 37 23 57 18 17 20 22 8 33 -7 6 -10 7 -7 1z"/>
<path d="M1200 1305 c-7 -9 -8 -15 -2 -15 5 0 12 7 16 15 3 8 4 15 2 15 -2 0
-9 -7 -16 -15z"/>
<path d="M365 1290 c4 -6 11 -8 16 -5 14 9 11 15 -7 15 -8 0 -12 -5 -9 -10z"/>
<path d="M629 1288 c-1 -7 0 -17 1 -23 1 -5 4 -19 6 -29 11 -58 39 -118 63
-138 15 -13 30 -31 34 -41 3 -9 13 -17 20 -17 20 0 41 -26 27 -35 -5 -3 -10
-11 -10 -18 0 -7 6 -5 16 5 17 17 11 58 -8 58 -6 0 -32 22 -58 49 -37 37 -50
60 -59 99 -6 28 -8 58 -5 67 3 8 1 15 -6 15 -6 0 -8 5 -5 10 3 6 1 10 -4 10
-6 0 -12 -6 -12 -12z"/>
<path d="M1310 1289 c0 -5 5 -7 10 -4 6 3 10 8 10 11 0 2 -4 4 -10 4 -5 0 -10
-5 -10 -11z"/>
<path d="M2520 1280 c0 -5 5 -12 10 -15 6 -3 10 -14 10 -23 1 -21 34 -62 50
-62 6 0 -1 11 -15 25 -26 27 -32 51 -14 57 6 2 0 9 -15 16 -14 6 -26 7 -26 2z"/>
<path d="M2816 1264 c3 -35 14 -44 14 -11 0 14 6 28 13 30 6 3 2 6 -9 6 -17 1
-21 -4 -18 -25z"/>
<path d="M2745 1270 c4 -6 11 -8 16 -5 14 9 11 15 -7 15 -8 0 -12 -5 -9 -10z"/>
<path d="M427 1263 c-10 -9 -9 -33 1 -33 4 0 8 9 9 20 2 21 0 24 -10 13z"/>
<path d="M585 1248 c11 -34 25 -46 25 -20 0 12 -5 22 -11 22 -5 0 -7 5 -4 10
3 6 1 10 -5 10 -7 0 -9 -8 -5 -22z"/>
<path d="M2670 1256 c0 -2 9 -6 20 -9 11 -3 20 -1 20 4 0 5 -9 9 -20 9 -11 0
-20 -2 -20 -4z"/>
<path d="M295 1230 c-3 -11 -3 -24 0 -30 3 -5 -2 -10 -12 -11 -10 0 -13 -3 -5
-6 6 -2 12 -12 13 -21 0 -10 3 -12 5 -5 3 7 13 10 22 7 15 -5 15 -4 -1 6 -9 6
-14 16 -10 23 9 15 10 57 2 57 -4 0 -10 -9 -14 -20z"/>
<path d="M753 1243 c-18 -7 -16 -20 2 -20 8 0 15 6 15 14 0 7 -1 13 -2 12 -2
0 -9 -3 -15 -6z"/>
<path d="M1350 1240 c0 -5 4 -10 9 -10 6 0 13 5 16 10 3 6 -1 10 -9 10 -9 0
-16 -4 -16 -10z"/>
<path d="M1925 1240 c-3 -5 -1 -10 4 -10 6 0 11 5 11 10 0 6 -2 10 -4 10 -3 0
-8 -4 -11 -10z"/>
<path d="M800 1212 c0 -18 5 -32 10 -32 6 0 8 11 4 28 -10 39 -14 40 -14 4z"/>
<path d="M2621 1224 c0 -11 3 -14 6 -6 3 7 2 16 -1 19 -3 4 -6 -2 -5 -13z"/>
<path d="M242 1218 c2 -6 10 -14 16 -16 7 -2 10 2 6 12 -7 18 -28 22 -22 4z"/>
<path d="M2779 1213 c-13 -16 -12 -17 4 -4 33 26 76 -36 45 -67 -9 -9 -8 -12
4 -12 21 0 28 42 12 71 -7 13 -13 20 -14 15 0 -6 -5 -5 -12 2 -16 16 -23 15
-39 -5z"/>
<path d="M415 1210 c-3 -5 -1 -10 4 -10 6 0 11 5 11 10 0 6 -2 10 -4 10 -3 0
-8 -4 -11 -10z"/>
<path d="M765 1188 c1 -13 9 -24 18 -26 9 -2 17 -12 17 -24 0 -17 -4 -19 -30
-13 -19 4 -30 3 -30 -4 0 -6 11 -11 25 -11 18 0 23 -4 19 -15 -5 -11 -2 -13
10 -9 13 5 16 0 16 -25 0 -17 4 -31 9 -31 5 0 11 -15 15 -32 8 -38 -11 -58
-54 -58 -29 0 -57 27 -80 75 -8 17 -26 48 -41 70 -15 22 -27 43 -27 48 -2 24
-11 28 -11 5 -1 -15 3 -29 8 -32 5 -3 12 -18 16 -33 3 -16 15 -37 24 -48 10
-11 21 -32 25 -47 6 -27 49 -58 79 -58 7 0 25 -6 40 -12 22 -11 29 -25 42 -85
9 -39 22 -74 29 -76 13 -5 26 -47 28 -92 2 -28 -10 -134 -16 -144 -6 -10 16
-61 26 -61 13 0 14 233 1 257 -27 52 -81 240 -76 266 3 15 2 35 -2 44 -5 10
-7 25 -6 35 1 9 -2 19 -8 22 -5 4 -13 27 -17 51 -4 29 -11 45 -20 45 -8 0 -14
9 -14 20 0 11 -4 20 -8 20 -5 0 -8 -10 -7 -22z"/>
<path d="M588 1175 c-3 -14 -1 -28 3 -31 5 -3 9 9 9 25 0 38 -6 40 -12 6z"/>
<path d="M2541 1184 c0 -11 3 -14 6 -6 3 7 2 16 -1 19 -3 4 -6 -2 -5 -13z"/>
<path d="M2667 1186 c-4 -10 -1 -13 9 -9 15 6 19 23 5 23 -5 0 -11 -7 -14 -14z"/>
<path d="M2785 1190 c-4 -6 -11 -7 -17 -4 -7 4 -8 2 -4 -4 10 -16 23 -15 30 3
6 17 0 20 -9 5z"/>
<path d="M1410 1179 c0 -5 5 -7 10 -4 6 3 10 8 10 11 0 2 -4 4 -10 4 -5 0 -10
-5 -10 -11z"/>
<path d="M401 1173 c0 -6 -4 -20 -7 -30 -5 -14 -4 -15 5 -7 7 7 11 20 8 30 -3
11 -5 14 -6 7z"/>
<path d="M1078 1173 c7 -3 16 -2 19 1 4 3 -2 6 -13 5 -11 0 -14 -3 -6 -6z"/>
<path d="M2450 1169 c0 -5 5 -7 10 -4 6 3 10 8 10 11 0 2 -4 4 -10 4 -5 0 -10
-5 -10 -11z"/>
<path d="M2377 1164 c-14 -14 -6 -22 27 -26 25 -3 32 0 28 10 -2 7 -13 11 -23
9 -10 -3 -19 -1 -21 5 -2 5 -7 6 -11 2z"/>
<path d="M2491 1144 c-37 -31 -39 -41 -7 -41 18 0 22 4 19 18 -3 11 -1 19 5
19 5 0 12 7 16 15 8 21 2 19 -33 -11z"/>
<path d="M2795 1160 c-18 -8 -17 -9 8 -9 15 -1 27 4 27 9 0 12 -8 12 -35 0z"/>
<path d="M352 1148 c-5 -8 -6 -22 -1 -33 8 -20 9 -19 13 23 3 26 2 26 -12 10z"/>
<path d="M1384 1135 c-12 -11 -30 -43 -40 -71 -17 -48 -17 -53 -1 -77 17 -26
103 -62 112 -47 3 5 -8 11 -24 15 -88 19 -108 101 -39 156 11 9 19 22 17 30
-3 11 -9 10 -25 -6z"/>
<path d="M1713 1153 c-7 -2 -10 -10 -7 -18 3 -8 11 -12 17 -9 16 5 61 -62 65
-97 3 -25 -2 -31 -42 -49 -25 -11 -49 -20 -55 -20 -5 0 -12 -4 -15 -8 -14 -23
95 11 118 37 19 21 17 42 -11 96 -24 46 -53 74 -70 68z"/>
<path d="M1900 1151 c0 -5 5 -13 10 -16 6 -3 10 -2 10 4 0 5 -4 13 -10 16 -5
3 -10 2 -10 -4z"/>
<path d="M282 1112 c-12 -28 -11 -69 2 -90 4 -8 3 -11 -5 -10 -13 3 -17 -46
-7 -74 9 -22 57 -12 53 10 -1 10 3 31 10 48 10 25 10 31 0 31 -7 0 -11 -6 -8
-14 3 -7 -1 -13 -10 -13 -10 0 -13 -7 -10 -24 3 -13 1 -26 -4 -29 -6 -4 -9 26
-9 73 1 56 4 76 12 69 8 -6 10 -2 6 16 -6 36 -16 38 -30 7z"/>
<path d="M915 1130 c3 -5 8 -10 11 -10 2 0 4 5 4 10 0 6 -5 10 -11 10 -5 0 -7
-4 -4 -10z"/>
<path d="M460 1120 c0 -5 5 -10 10 -10 6 0 10 5 10 10 0 6 -4 10 -10 10 -5 0
-10 -4 -10 -10z"/>
<path d="M580 1119 c0 -5 5 -7 10 -4 6 3 10 8 10 11 0 2 -4 4 -10 4 -5 0 -10
-5 -10 -11z"/>
<path d="M391 1104 c0 -11 3 -14 6 -6 3 7 2 16 -1 19 -3 4 -6 -2 -5 -13z"/>
<path d="M2821 1093 c-13 -13 -27 -21 -31 -18 -4 2 -7 -3 -7 -11 0 -22 46 -30
65 -11 9 9 12 20 8 24 -5 5 -11 2 -13 -4 -5 -15 -33 -18 -33 -3 0 5 13 13 29
17 21 6 26 11 17 18 -7 7 -18 3 -35 -12z"/>
<path d="M235 1100 c-3 -5 -1 -10 4 -10 6 0 11 5 11 10 0 6 -2 10 -4 10 -3 0
-8 -4 -11 -10z"/>
<path d="M2600 1100 c0 -5 5 -10 10 -10 6 0 10 5 10 10 0 6 -4 10 -10 10 -5 0
-10 -4 -10 -10z"/>
<path d="M506 1083 c-6 -14 -5 -15 5 -6 7 7 10 15 7 18 -3 3 -9 -2 -12 -12z"/>
<path d="M1141 1084 c0 -11 3 -14 6 -6 3 7 2 16 -1 19 -3 4 -6 -2 -5 -13z"/>
<path d="M1890 1090 c0 -5 5 -10 10 -10 6 0 10 5 10 10 0 6 -4 10 -10 10 -5 0
-10 -4 -10 -10z"/>
<path d="M343 1083 c-16 -6 -17 -43 -2 -43 5 0 7 5 3 11 -3 6 0 15 7 20 16 9
10 18 -8 12z"/>
<path d="M2145 1069 c-4 -6 -5 -12 -2 -15 2 -3 7 2 10 11 7 17 1 20 -8 4z"/>
<path d="M370 1066 c0 -2 7 -9 15 -16 12 -10 15 -10 15 4 0 9 -7 16 -15 16 -8
0 -15 -2 -15 -4z"/>
<path d="M615 1059 c-4 -6 -5 -12 -2 -15 2 -3 7 2 10 11 7 17 1 20 -8 4z"/>
<path d="M2593 1055 c0 -8 4 -15 9 -15 4 0 8 4 8 9 0 6 -4 12 -8 15 -5 3 -9
-1 -9 -9z"/>
<path d="M2751 983 c0 -43 -3 -87 -6 -98 -14 -41 -29 -65 -41 -65 -15 0 -36
64 -28 85 3 7 -7 17 -25 23 l-30 11 25 -44 c13 -24 24 -53 24 -64 0 -12 4 -21
9 -21 5 0 12 -11 15 -24 8 -31 27 -38 51 -19 14 10 15 14 5 13 -30 -4 -40 0
-40 18 1 16 1 16 11 -1 6 -9 15 -15 20 -11 6 4 6 10 -1 19 -8 9 -7 17 3 27 18
18 31 82 27 138 -2 25 -4 55 -4 68 -1 12 -4 22 -8 22 -4 0 -7 -35 -7 -77z"/>
<path d="M396 1005 c16 -14 34 -25 39 -25 6 0 3 5 -5 10 -13 8 -12 11 5 25 19
15 19 16 -5 4 -18 -9 -25 -9 -28 0 -2 6 -11 11 -19 11 -11 0 -7 -8 13 -25z"/>
<path d="M566 1016 c3 -9 11 -16 16 -16 13 0 5 23 -10 28 -7 2 -10 -2 -6 -12z"/>
<path d="M1653 995 c-18 -8 -33 -18 -33 -23 0 -16 -44 -29 -74 -21 -16 4 -37
17 -48 28 -13 15 -31 21 -61 21 -31 0 -38 -3 -27 -10 8 -5 25 -10 36 -10 12 0
33 -9 48 -21 15 -12 45 -23 66 -26 34 -5 44 -1 65 20 14 13 46 30 70 36 25 6
45 13 45 16 0 10 -56 4 -87 -10z"/>
<path d="M465 990 c-3 -5 -1 -10 4 -10 6 0 11 5 11 10 0 6 -2 10 -4 10 -3 0
-8 -4 -11 -10z"/>
<path d="M2110 990 c0 -5 5 -10 11 -10 5 0 7 5 4 10 -3 6 -8 10 -11 10 -2 0
-4 -4 -4 -10z"/>
<path d="M2620 996 c0 -2 7 -7 16 -10 8 -3 12 -2 9 4 -6 10 -25 14 -25 6z"/>
<path d="M370 970 c-8 -5 -15 -30 -17 -61 -2 -29 -10 -63 -18 -75 -21 -33 -19
-46 8 -42 19 3 22 8 20 43 -2 25 0 35 6 26 15 -24 61 26 61 67 0 28 -2 32 -14
23 -8 -7 -12 -21 -9 -31 3 -11 0 -20 -6 -20 -6 0 -10 -4 -8 -9 1 -5 -2 -9 -8
-10 -5 -1 -10 10 -11 23 -1 13 -4 31 -7 39 -4 11 1 17 16 19 12 2 17 6 12 10
-6 4 -17 3 -25 -2z"/>
<path d="M620 950 c-9 -6 -10 -10 -3 -10 6 0 15 5 18 10 8 12 4 12 -15 0z"/>
<path d="M465 940 c3 -5 8 -10 11 -10 2 0 4 5 4 10 0 6 -5 10 -11 10 -5 0 -7
-4 -4 -10z"/>
<path d="M2715 941 c-3 -5 -1 -12 5 -16 5 -3 10 1 10 9 0 18 -6 21 -15 7z"/>
<path d="M500 921 c0 -20 25 -35 42 -25 5 3 1 14 -11 25 -25 24 -31 24 -31 0z"/>
<path d="M891 924 c0 -11 3 -14 6 -6 3 7 2 16 -1 19 -3 4 -6 -2 -5 -13z"/>
<path d="M1474 923 c-4 -12 -13 -23 -23 -25 -14 -3 -14 -4 2 -11 13 -5 20 0
28 20 5 14 7 28 4 31 -3 4 -8 -4 -11 -15z"/>
<path d="M1660 919 c0 -5 5 -7 10 -4 6 3 10 8 10 11 0 2 -4 4 -10 4 -5 0 -10
-5 -10 -11z"/>
<path d="M1971 914 c0 -11 3 -14 6 -6 3 7 2 16 -1 19 -3 4 -6 -2 -5 -13z"/>
<path d="M595 911 c-3 -5 -1 -12 5 -16 5 -3 10 1 10 9 0 18 -6 21 -15 7z"/>
<path d="M1695 900 c-3 -5 -1 -10 4 -10 6 0 11 5 11 10 0 6 -2 10 -4 10 -3 0
-8 -4 -11 -10z"/>
<path d="M2194 895 c-3 -8 -4 -20 -2 -27 3 -7 7 -1 10 15 6 29 1 36 -8 12z"/>
<path d="M1560 891 c0 -4 13 -8 30 -7 39 1 39 16 0 16 -16 0 -30 -4 -30 -9z"/>
<path d="M1416 874 c-3 -9 -2 -23 4 -32 7 -14 9 -10 10 16 0 35 -5 41 -14 16z"/>
<path d="M2516 882 c-3 -5 1 -9 9 -9 8 0 12 4 9 9 -3 4 -7 8 -9 8 -2 0 -6 -4
-9 -8z"/>
<path d="M595 870 c3 -5 8 -10 11 -10 2 0 4 5 4 10 0 6 -5 10 -11 10 -5 0 -7
-4 -4 -10z"/>
<path d="M1665 870 c-8 -13 -1 -24 14 -19 6 3 7 10 2 18 -6 10 -10 10 -16 1z"/>
<path d="M1728 866 c-10 -7 -18 -16 -18 -19 0 -3 8 -5 18 -5 9 1 27 -2 40 -6
13 -5 22 -3 22 3 0 6 -7 11 -15 11 -7 0 -18 6 -22 14 -7 12 -11 12 -25 2z"/>
<path d="M2555 870 c-3 -5 -1 -10 4 -10 6 0 11 -13 11 -30 0 -16 -4 -30 -9
-30 -5 0 -11 -6 -14 -14 -4 -10 0 -12 13 -9 11 3 19 8 18 12 0 3 1 8 2 11 1 3
3 22 4 43 2 36 -14 51 -29 27z"/>
<path d="M1610 860 c0 -5 -11 -10 -25 -10 -14 0 -25 -5 -25 -11 0 -8 12 -9 37
-4 46 8 55 13 48 26 -8 12 -35 12 -35 -1z"/>
<path d="M2690 866 c0 -2 7 -7 16 -10 8 -3 12 -2 9 4 -6 10 -25 14 -25 6z"/>
<path d="M621 844 c0 -11 3 -14 6 -6 3 7 2 16 -1 19 -3 4 -6 -2 -5 -13z"/>
<path d="M1373 853 c-18 -7 -16 -20 3 -27 11 -4 15 -2 11 8 -3 8 -1 17 6 20 7
2 8 4 2 4 -5 0 -16 -2 -22 -5z"/>
<path d="M1490 853 c0 -5 14 -8 31 -9 20 -1 26 2 17 7 -16 11 -48 12 -48 2z"/>
<path d="M1814 840 c0 -13 7 -25 14 -28 16 -5 15 10 -2 33 -13 18 -13 18 -12
-5z"/>
<path d="M1851 844 c0 -11 3 -14 6 -6 3 7 2 16 -1 19 -3 4 -6 -2 -5 -13z"/>
<path d="M587 830 c3 -11 9 -20 15 -20 5 0 4 9 -2 20 -6 11 -12 20 -14 20 -2
0 -2 -9 1 -20z"/>
<path d="M1895 830 c3 -5 11 -10 16 -10 6 0 7 5 4 10 -3 6 -11 10 -16 10 -6 0
-7 -4 -4 -10z"/>
<path d="M1350 810 c0 -5 5 -10 10 -10 6 0 10 5 10 10 0 6 -4 10 -10 10 -5 0
-10 -4 -10 -10z"/>
<path d="M1268 783 c-27 -14 -48 -30 -48 -35 0 -10 36 7 45 22 3 6 16 10 29
10 13 0 23 6 23 15 0 8 -1 15 -1 15 -1 0 -22 -12 -48 -27z"/>
<path d="M1497 799 c8 -8 16 -8 30 0 16 9 14 10 -11 11 -22 0 -27 -3 -19 -11z"/>
<path d="M1895 800 c3 -5 8 -10 11 -10 2 0 4 5 4 10 0 6 -5 10 -11 10 -5 0 -7
-4 -4 -10z"/>
<path d="M1927 782 c3 -11 11 -23 18 -26 16 -6 27 31 13 41 -7 3 -8 1 -4 -5 9
-15 -7 -15 -21 -1 -9 9 -11 7 -6 -9z"/>
<path d="M1410 780 c0 -14 36 -17 48 -4 9 10 6 12 -18 12 -17 -1 -30 -4 -30
-8z"/>
<path d="M580 769 c0 -15 18 -19 23 -6 3 8 -1 14 -9 14 -8 0 -14 -4 -14 -8z"/>
<path d="M2606 767 c3 -10 9 -15 12 -12 3 3 0 11 -7 18 -10 9 -11 8 -5 -6z"/>
<path d="M1191 744 c0 -11 3 -14 6 -6 3 7 2 16 -1 19 -3 4 -6 -2 -5 -13z"/>
<path d="M2565 739 c5 -15 4 -19 -4 -15 -6 4 -11 2 -11 -3 0 -6 5 -11 11 -11
5 0 7 -4 4 -10 -3 -5 1 -10 10 -10 10 0 13 4 8 13 -4 6 -6 22 -4 35 1 12 -3
22 -9 22 -7 0 -9 -8 -5 -21z"/>
<path d="M1360 716 c-19 -8 -45 -15 -58 -15 -13 -1 -21 -5 -17 -11 3 -5 12 -7
20 -3 9 3 15 -1 15 -8 0 -8 5 -6 14 6 8 11 20 16 29 12 9 -3 19 -1 23 5 4 7
28 8 67 4 45 -4 64 -11 75 -27 12 -17 16 -18 23 -8 7 12 11 11 19 -1 9 -13 11
-13 19 -1 8 13 12 13 28 1 10 -8 15 -10 10 -5 -12 14 45 45 83 45 20 0 42 -6
49 -12 10 -9 12 -9 7 -1 -8 14 10 27 19 13 4 -6 10 -8 15 -5 5 3 19 1 32 -4
25 -9 59 2 46 15 -7 6 -115 7 -288 2 -36 -1 -94 1 -130 5 -46 5 -75 3 -100 -7z"/>
<path d="M1170 711 c0 -6 5 -13 10 -16 6 -3 10 1 10 9 0 9 -4 16 -10 16 -5 0
-10 -4 -10 -9z"/>
<path d="M2253 686 c-9 -19 -44 -60 -79 -92 -35 -31 -61 -60 -59 -64 3 -5 25
12 49 36 25 24 50 44 56 44 5 0 10 5 10 11 0 6 10 25 23 42 22 32 32 57 22 57
-3 0 -13 -15 -22 -34z"/>
<path d="M624 700 c-5 -5 -8 -25 -6 -44 3 -26 10 -36 28 -40 32 -8 44 0 43 27
0 12 -3 16 -6 9 -2 -6 -9 -10 -14 -6 -5 3 -9 -3 -9 -12 0 -35 -22 3 -23 40 -1
20 -1 36 -2 36 -1 0 -5 -4 -11 -10z"/>
<path d="M2533 638 c-18 -38 -32 -49 -34 -25 0 6 -4 3 -9 -8 -12 -28 -12 -73
0 -80 35 -22 85 48 68 94 -7 19 -5 27 7 33 19 11 20 25 1 25 -8 0 -23 -18 -33
-39z m9 -70 c-2 -10 -8 -16 -12 -13 -5 3 -10 -1 -13 -7 -3 -9 -7 -8 -12 4 -4
11 -1 24 9 33 9 9 16 24 17 33 1 10 4 7 8 -8 4 -14 5 -33 3 -42z"/>
<path d="M2605 670 c3 -5 8 -10 11 -10 2 0 4 5 4 10 0 6 -5 10 -11 10 -5 0 -7
-4 -4 -10z"/>
<path d="M815 660 c-3 -6 1 -7 9 -4 18 7 21 14 7 14 -6 0 -13 -4 -16 -10z"/>
<path d="M1250 660 c20 -13 33 -13 25 0 -3 6 -14 10 -23 10 -15 0 -15 -2 -2
-10z"/>
<path d="M1810 659 c0 -5 5 -7 10 -4 6 3 10 8 10 11 0 2 -4 4 -10 4 -5 0 -10
-5 -10 -11z"/>
<path d="M950 649 c0 -9 9 -24 20 -34 11 -10 20 -23 20 -30 0 -12 35 -47 60
-59 8 -4 4 3 -10 16 -25 23 -53 61 -77 102 -10 16 -13 17 -13 5z"/>
<path d="M1350 633 c0 -13 5 -23 10 -23 13 0 13 11 0 30 -8 12 -10 11 -10 -7z"/>
<path d="M2340 643 c0 -14 15 -30 37 -42 33 -17 53 -14 53 9 0 17 5 19 28 15
l27 -5 -25 10 c-21 9 -28 8 -41 -9 -16 -19 -16 -19 -42 5 -27 25 -37 29 -37
17z"/>
<path d="M1587 629 c7 -7 15 -10 18 -7 3 3 -2 9 -12 12 -14 6 -15 5 -6 -5z"/>
<path d="M1850 621 c0 -6 4 -13 10 -16 6 -3 7 1 4 9 -7 18 -14 21 -14 7z"/>
<path d="M1737 613 c-4 -3 -7 -11 -7 -17 0 -7 3 -7 8 0 4 7 16 14 27 17 19 5
19 5 -1 6 -11 0 -24 -2 -27 -6z"/>
<path d="M1435 600 c3 -5 14 -10 23 -10 15 0 15 2 2 10 -20 13 -33 13 -25 0z"/>
<path d="M1810 600 c0 -5 7 -7 15 -4 8 4 15 8 15 10 0 2 -7 4 -15 4 -8 0 -15
-4 -15 -10z"/>
<path d="M786 586 c4 -11 19 -16 46 -16 27 0 38 4 35 13 -2 6 -11 10 -18 8
-20 -5 -32 -4 -52 4 -13 6 -16 3 -11 -9z"/>
<path d="M1504 552 c14 -15 18 -15 26 -3 7 12 11 12 24 2 10 -8 29 -11 53 -6
79 13 67 24 -26 24 -88 0 -93 -1 -77 -17z"/>
<path d="M1385 550 c-3 -5 1 -10 10 -10 9 0 13 5 10 10 -3 6 -8 10 -10 10 -2
0 -7 -4 -10 -10z"/>
<path d="M1680 549 c0 -5 5 -7 10 -4 6 3 10 8 10 11 0 2 -4 4 -10 4 -5 0 -10
-5 -10 -11z"/>
<path d="M2300 535 c0 -13 5 -27 12 -31 7 -4 8 -3 4 5 -4 6 -3 18 3 25 9 10 8
15 -4 20 -11 4 -15 -1 -15 -19z"/>
<path d="M1428 543 c6 -2 18 -2 25 0 6 3 1 5 -13 5 -14 0 -19 -2 -12 -5z"/>
<path d="M2062 480 c-25 -33 -27 -40 -11 -40 5 0 8 4 5 9 -3 5 1 11 8 14 17 7
41 47 28 47 -4 0 -18 -13 -30 -30z"/>
<path d="M1100 470 c0 -5 5 -10 11 -10 5 0 7 5 4 10 -3 6 -8 10 -11 10 -2 0
-4 -4 -4 -10z"/>
<path d="M1122 430 c7 -11 18 -22 25 -24 10 -4 10 -1 1 14 -7 11 -18 22 -25
24 -10 4 -10 1 -1 -14z"/>
<path d="M2070 432 c0 -6 -8 -13 -17 -15 -16 -4 -16 -5 -1 -6 18 -1 34 16 24
26 -3 4 -6 1 -6 -5z"/>
<path d="M2308 418 c-2 -7 -3 -35 -3 -62 2 -46 4 -51 31 -60 31 -10 92 -46
115 -68 8 -7 39 -21 69 -32 30 -10 75 -30 100 -45 25 -15 72 -33 105 -41 33
-7 108 -31 168 -52 84 -30 107 -35 107 -23 0 8 -3 15 -7 16 -35 4 -57 10 -118
34 -38 14 -82 28 -97 30 -48 6 -102 26 -135 51 -18 14 -36 24 -40 23 -4 -1
-26 6 -48 16 -22 10 -49 19 -59 20 -11 1 -26 11 -35 21 -9 11 -31 26 -48 33
-18 7 -33 17 -33 22 0 5 -3 8 -7 7 -5 -1 -18 2 -31 6 -21 7 -23 13 -21 57 3
47 -4 73 -13 47z"/>
<path d="M2000 405 c-11 -13 -10 -14 4 -9 9 3 16 10 16 15 0 13 -6 11 -20 -6z"/>
<path d="M1176 391 c-3 -5 1 -11 9 -14 9 -4 12 -1 8 9 -6 16 -10 17 -17 5z"/>
<path d="M1960 380 c-9 -6 -10 -10 -3 -10 6 0 15 5 18 10 8 12 4 12 -15 0z"/>
<path d="M1490 369 c0 -5 5 -7 10 -4 6 3 10 8 10 11 0 2 -4 4 -10 4 -5 0 -10
-5 -10 -11z"/>
<path d="M1990 370 c0 -5 4 -10 9 -10 6 0 13 5 16 10 3 6 -1 10 -9 10 -9 0
-16 -4 -16 -10z"/>
<path d="M1402 350 c0 -14 2 -19 5 -12 2 6 2 18 0 25 -3 6 -5 1 -5 -13z"/>
<path d="M1435 359 c-4 -6 -5 -12 -2 -15 2 -3 7 2 10 11 7 17 1 20 -8 4z"/>
<path d="M1591 344 c0 -11 3 -14 6 -6 3 7 2 16 -1 19 -3 4 -6 -2 -5 -13z"/>
<path d="M1674 352 c-6 -4 -9 -15 -5 -24 5 -15 8 -13 18 7 11 25 7 31 -13 17z"/>
<path d="M1198 343 c6 -2 18 -2 25 0 6 3 1 5 -13 5 -14 0 -19 -2 -12 -5z"/>
<path d="M1510 333 c0 -15 -2 -16 -10 -3 -8 13 -10 12 -10 -2 0 -24 17 -23 30
2 7 14 7 20 0 20 -5 0 -10 -8 -10 -17z"/>
<path d="M1900 319 c-43 -38 -138 -83 -167 -81 -13 1 -23 -3 -23 -9 0 -6 7 -8
16 -5 11 4 15 2 11 -8 -5 -12 -2 -12 20 -1 14 7 32 11 40 8 8 -3 13 0 11 8 -2
7 2 13 9 14 6 0 15 3 19 8 12 12 26 8 18 -5 -4 -8 -3 -10 2 -5 5 5 9 14 9 20
0 7 12 11 25 9 20 -2 22 0 10 8 -11 7 -11 10 -2 10 7 0 10 4 7 10 -3 5 0 7 8
4 9 -3 17 3 20 17 4 13 5 24 4 25 -1 2 -18 -11 -37 -27z"/>
<path d="M1985 340 c-3 -5 1 -10 9 -10 8 0 18 5 21 10 3 6 -1 10 -9 10 -8 0
-18 -4 -21 -10z"/>
<path d="M1233 322 c-15 -9 13 -37 37 -37 9 0 15 -9 14 -22 0 -18 2 -20 13
-11 11 9 16 9 23 -1 4 -8 13 -10 19 -7 16 10 14 26 -4 26 -8 0 -30 14 -48 30
-38 33 -37 33 -54 22z"/>
<path d="M1636 314 c-4 -9 -4 -19 -1 -22 2 -3 7 3 11 12 4 9 4 19 1 22 -2 3
-7 -3 -11 -12z"/>
<path d="M897 309 c-9 -6 -22 -7 -29 -3 -6 4 -8 3 -5 -3 4 -6 -13 -16 -36 -23
-23 -8 -48 -18 -54 -23 -7 -5 -13 -6 -13 -1 0 4 -11 -3 -25 -16 -33 -31 -24
-37 17 -12 18 11 57 27 85 37 29 9 55 21 58 26 10 15 35 10 35 -6 0 -8 -4 -15
-8 -15 -23 0 -92 -85 -112 -137 -25 -67 -33 -133 -16 -133 8 0 13 19 15 47 1
26 10 66 20 88 21 47 65 90 81 80 6 -3 9 -3 8 2 -2 4 3 23 11 41 12 28 12 35
0 47 -10 10 -19 11 -32 4z"/>
<path d="M1765 309 c-4 -6 -5 -12 -2 -15 2 -3 7 2 10 11 7 17 1 20 -8 4z"/>
<path d="M1537 303 c-4 -3 -7 -11 -7 -17 0 -6 5 -5 12 2 6 6 9 14 7 17 -3 3
-9 2 -12 -2z"/>
<path d="M1456 264 c-11 -7 -17 -17 -13 -20 3 -4 14 1 23 10 21 22 15 28 -10
10z"/>
<path d="M2310 247 c0 -29 5 -34 58 -57 31 -13 64 -33 72 -44 21 -27 68 -107
76 -128 3 -10 10 -18 15 -18 15 0 10 26 -8 51 -10 13 -29 47 -43 74 -30 61
-94 126 -138 142 -32 11 -32 11 -32 -20z m60 -18 c0 -11 -3 -11 -24 -3 -23 9
-20 23 4 17 11 -3 20 -9 20 -14z"/>
<path d="M696 245 c-15 -20 -22 -23 -33 -13 -11 9 -13 9 -11 -1 3 -12 -119
-52 -167 -55 -11 0 -23 -4 -26 -9 -3 -4 -14 -9 -25 -11 -10 -2 -32 -9 -48 -15
-16 -7 -31 -10 -33 -7 -2 2 -16 -2 -30 -9 -15 -8 -30 -12 -35 -9 -4 3 -8 0 -8
-7 0 -7 -8 -9 -21 -6 -12 3 -18 3 -15 0 3 -3 -23 -16 -57 -28 -62 -22 -160
-71 -122 -61 11 3 99 32 195 65 96 32 213 69 260 81 47 12 95 26 108 31 13 5
34 9 47 9 18 0 25 5 25 19 0 11 5 21 12 23 6 2 9 9 7 16 -2 7 -11 2 -23 -13z"/>
<path d="M1482 250 c-15 -25 -8 -40 18 -40 10 0 25 -6 33 -14 28 -28 120 -26
103 3 -4 6 -2 11 3 11 17 0 13 20 -5 27 -24 9 -37 -19 -17 -34 15 -11 13 -13
-16 -13 -18 0 -39 7 -47 15 -9 8 -29 15 -45 15 -16 0 -29 5 -29 10 0 6 7 10
15 10 8 0 15 7 15 15 0 21 -13 19 -28 -5z m153 -30 c-3 -5 -12 -10 -18 -10 -7
0 -6 4 3 10 19 12 23 12 15 0z"/>
<path d="M1580 260 c-13 -8 -13 -10 2 -10 9 0 20 5 23 10 8 13 -5 13 -25 0z"/>
<path d="M1200 256 c0 -2 7 -9 15 -16 13 -11 14 -10 9 4 -5 14 -24 23 -24 12z"/>
<path d="M1679 255 c-1 -3 -3 -9 -4 -15 -1 -5 -3 -11 -5 -12 -6 -8 -7 -38 -2
-38 14 0 32 39 22 45 -6 4 -8 11 -5 16 4 5 4 9 1 9 -3 0 -7 -2 -7 -5z"/>
<path d="M1960 255 c0 -5 5 -17 10 -25 5 -8 10 -10 10 -5 0 6 -5 17 -10 25 -5
8 -10 11 -10 5z"/>
<path d="M1337 229 c-18 -20 -18 -21 0 -17 10 2 17 11 15 19 -3 13 49 -26 56
-44 2 -4 7 -5 12 -2 4 3 30 1 56 -4 47 -9 64 -7 52 4 -3 3 -23 8 -44 10 -59 8
-74 14 -67 31 3 9 -2 14 -15 14 -11 0 -26 2 -34 5 -7 3 -21 -4 -31 -16z"/>
<path d="M1560 230 c0 -5 5 -10 11 -10 5 0 7 5 4 10 -3 6 -8 10 -11 10 -2 0
-4 -4 -4 -10z"/>
<path d="M739 193 l-24 -28 30 25 c17 14 32 26 34 28 2 1 0 2 -6 2 -5 0 -20
-12 -34 -27z"/>
<path d="M1700 199 c0 -5 5 -7 10 -4 6 3 10 8 10 11 0 2 -4 4 -10 4 -5 0 -10
-5 -10 -11z"/>
<path d="M1750 190 c0 -5 7 -7 15 -4 8 4 15 8 15 10 0 2 -7 4 -15 4 -8 0 -15
-4 -15 -10z"/>
<path d="M2314 155 c-1 -14 2 -22 7 -19 11 6 12 44 2 44 -5 0 -9 -11 -9 -25z"/>
<path d="M1640 166 c0 -2 7 -6 15 -10 8 -3 15 -1 15 4 0 6 -7 10 -15 10 -8 0
-15 -2 -15 -4z"/>
<path d="M600 140 c-14 -10 -23 -21 -20 -23 3 -2 16 6 30 19 30 29 25 31 -10
4z"/>
<path d="M654 125 c-4 -8 -10 -12 -15 -9 -5 3 -6 -2 -3 -10 6 -16 25 -23 23
-8 -4 23 3 34 17 28 8 -3 12 -2 9 4 -9 15 -25 12 -31 -5z"/>
<path d="M2510 130 c0 -5 5 -10 11 -10 5 0 7 5 4 10 -3 6 -8 10 -11 10 -2 0
-4 -4 -4 -10z"/>
<path d="M547 119 c7 -7 15 -10 18 -7 3 3 -2 9 -12 12 -14 6 -15 5 -6 -5z"/>
<path d="M756 114 c-8 -20 -8 -24 2 -24 4 0 8 9 9 20 2 24 -3 26 -11 4z"/>
<path d="M1625 120 c-3 -5 1 -10 9 -10 8 0 18 5 21 10 3 6 -1 10 -9 10 -8 0
-18 -4 -21 -10z"/>
<path d="M2551 116 l-24 -13 26 0 c16 0 27 5 27 13 0 17 1 17 -29 0z"/>
<path d="M2635 110 c3 -5 11 -10 16 -10 6 0 7 5 4 10 -3 6 -11 10 -16 10 -6 0
-7 -4 -4 -10z"/>
<path d="M2590 95 c0 -15 30 -35 52 -35 7 0 2 6 -12 13 -14 8 -24 19 -22 25 1
7 -2 12 -8 12 -5 0 -10 -7 -10 -15z"/>
<path d="M506 91 c-4 -5 3 -7 14 -4 23 6 26 13 6 13 -8 0 -17 -4 -20 -9z"/>
<path d="M863 85 c-3 -9 -3 -18 -1 -21 3 -3 8 4 11 16 6 23 -1 27 -10 5z"/>
<path d="M2676 65 c9 -14 18 -25 20 -25 2 0 -2 11 -8 25 -6 14 -15 25 -20 25
-5 0 -1 -11 8 -25z"/>
<path d="M470 70 c-9 -6 -10 -10 -3 -10 6 0 15 5 18 10 8 12 4 12 -15 0z"/>
<path d="M585 70 c-3 -5 -2 -10 4 -10 5 0 13 5 16 10 3 6 2 10 -4 10 -5 0 -13
-4 -16 -10z"/>
<path d="M728 73 c7 -3 16 -2 19 1 4 3 -2 6 -13 5 -11 0 -14 -3 -6 -6z"/>
<path d="M906 63 c-4 -9 -3 -20 2 -25 4 -4 9 4 10 17 2 29 -3 32 -12 8z"/>
<path d="M2725 70 c3 -5 11 -10 16 -10 6 0 7 5 4 10 -3 6 -11 10 -16 10 -6 0
-7 -4 -4 -10z"/>
<path d="M420 60 c-8 -5 -10 -10 -5 -10 6 0 17 5 25 10 8 5 11 10 5 10 -5 0
-17 -5 -25 -10z"/>
<path d="M625 60 c3 -5 8 -10 11 -10 2 0 4 5 4 10 0 6 -5 10 -11 10 -5 0 -7
-4 -4 -10z"/>
<path d="M2560 49 c0 -5 5 -7 10 -4 6 3 10 8 10 11 0 2 -4 4 -10 4 -5 0 -10
-5 -10 -11z"/>
<path d="M370 40 c-9 -6 -10 -10 -3 -10 6 0 15 5 18 10 8 12 4 12 -15 0z"/>
<path d="M740 39 c0 -5 5 -7 10 -4 6 3 10 8 10 11 0 2 -4 4 -10 4 -5 0 -10 -5
-10 -11z"/>
<path d="M610 30 c-9 -6 -10 -10 -3 -10 6 0 15 5 18 10 8 12 4 12 -15 0z"/>
<path d="M538 23 c7 -3 16 -2 19 1 4 3 -2 6 -13 5 -11 0 -14 -3 -6 -6z"/>
<path d="M2605 10 c-3 -5 -1 -10 4 -10 6 0 11 5 11 10 0 6 -2 10 -4 10 -3 0
-8 -4 -11 -10z"/>
</g>
</svg>
