<?xml version="1.0" standalone="no"?>
<!DOCTYPE svg PUBLIC "-//W3C//DTD SVG 20010904//EN"
 "http://www.w3.org/TR/2001/REC-SVG-20010904/DTD/svg10.dtd">
<svg version="1.0" xmlns="http://www.w3.org/2000/svg"
 width="300.000000pt" height="300.000000pt" viewBox="0 0 300.000000 300.000000"
 preserveAspectRatio="xMidYMid meet">
<metadata>
Created by potrace 1.10, written by Peter Selinger 2001-2011
</metadata>
<g transform="translate(0.000000,300.000000) scale(0.100000,-0.100000)"
fill="#000000" stroke="none">
<path d="M2283 2983 c3 -10 9 -45 12 -78 3 -33 12 -82 20 -110 13 -49 23 -109
49 -305 13 -97 22 -126 64 -193 l23 -38 30 37 c30 38 36 59 19 69 -5 3 -10 17
-10 31 0 13 -4 24 -10 24 -5 0 -10 16 -10 35 0 25 -4 33 -14 29 -15 -6 -17
-93 -2 -91 15 3 26 -67 13 -75 -7 -4 -14 -2 -16 5 -2 6 -11 18 -19 26 -8 9
-12 27 -10 48 2 18 0 33 -4 33 -4 0 -8 -6 -8 -12 0 -9 -4 -8 -10 2 -14 22 -12
40 4 40 15 0 30 45 21 61 -10 15 -25 0 -25 -24 0 -17 -2 -19 -9 -7 -6 8 -7 18
-5 22 3 5 0 50 -7 101 -6 51 -13 106 -14 122 -3 40 -15 84 -33 120 -19 37 -32
105 -21 105 5 0 9 -10 9 -23 0 -26 21 -77 33 -77 10 0 9 8 -16 75 -15 39 -28
61 -40 63 -14 3 -18 -1 -14 -15z"/>
<path d="M2330 2991 c0 -5 5 -13 10 -16 6 -3 10 -2 10 4 0 5 -4 13 -10 16 -5
3 -10 2 -10 -4z"/>
<path d="M2446 2985 c4 -8 8 -15 10 -15 2 0 4 7 4 15 0 8 -4 15 -10 15 -5 0
-7 -7 -4 -15z"/>
<path d="M2501 2984 c0 -11 3 -14 6 -6 3 7 2 16 -1 19 -3 4 -6 -2 -5 -13z"/>
<path d="M2550 2990 c0 -20 36 -74 43 -63 3 4 -6 24 -19 43 -13 19 -24 28 -24
20z"/>
<path d="M2604 2978 c3 -13 6 -42 6 -65 0 -24 5 -43 11 -43 7 0 8 18 4 53 -4
28 -7 58 -8 65 0 6 -5 12 -10 12 -5 0 -7 -10 -3 -22z"/>
<path d="M2651 2984 c0 -11 3 -14 6 -6 3 7 2 16 -1 19 -3 4 -6 -2 -5 -13z"/>
<path d="M2667 2928 c-4 -40 -10 -83 -13 -96 -5 -16 -3 -21 7 -17 9 3 14 21
14 47 0 26 5 43 14 46 11 4 13 -4 8 -42 -4 -25 -3 -46 2 -46 16 0 18 70 3 91
-8 11 -12 29 -9 41 3 11 3 26 0 34 -11 30 -20 11 -26 -58z"/>
<path d="M2705 2990 c3 -5 8 -10 11 -10 2 0 4 5 4 10 0 6 -5 10 -11 10 -5 0
-7 -4 -4 -10z"/>
<path d="M2745 2965 c5 -38 5 -39 -10 -20 -16 19 -16 19 -9 -10 9 -42 15 -49
25 -34 5 8 7 -8 7 -39 -1 -29 3 -57 8 -62 5 -5 10 16 11 55 2 47 -3 76 -17
107 l-20 43 5 -40z"/>
<path d="M2784 2978 c3 -13 6 -31 6 -40 0 -10 5 -18 10 -18 6 0 10 17 8 40 -1
27 -7 40 -16 40 -10 0 -12 -7 -8 -22z"/>
<path d="M2830 2996 c0 -2 7 -9 15 -16 13 -11 14 -10 9 4 -5 14 -24 23 -24 12z"/>
<path d="M2385 2970 c2 -14 0 -32 -5 -40 -6 -10 -3 -18 11 -28 23 -16 35 -10
23 10 -5 7 -15 29 -21 48 -7 20 -11 24 -8 10z"/>
<path d="M2541 2944 c0 -11 3 -14 6 -6 3 7 2 16 -1 19 -3 4 -6 -2 -5 -13z"/>
<path d="M2825 2949 c-13 -20 -6 -91 11 -117 9 -13 11 -21 5 -18 -20 13 -25
-26 -13 -97 20 -115 27 -103 28 51 1 85 -2 132 -6 112 -4 -19 -8 -26 -9 -15
-1 11 -4 31 -8 44 -4 17 -3 22 5 17 14 -8 15 3 3 23 -7 10 -10 11 -16 0z"/>
<path d="M2792 2853 c-10 -34 -10 -36 3 -19 13 17 21 56 12 56 -2 0 -9 -17
-15 -37z"/>
<path d="M2731 2852 c0 -18 -6 -43 -12 -54 -7 -14 -8 -23 -1 -30 12 -12 27 67
19 98 -3 11 -5 5 -6 -14z"/>
<path d="M2370 2861 c0 -6 7 -23 16 -36 10 -16 16 -45 15 -79 0 -31 5 -58 10
-62 8 -4 9 4 4 26 -5 23 -4 30 4 26 6 -4 11 -14 11 -22 0 -8 5 -14 10 -14 16
0 11 37 -6 44 -8 3 -12 10 -9 16 9 15 -13 75 -35 95 -12 11 -20 13 -20 6z"/>
<path d="M2562 2830 c0 -14 2 -19 5 -12 2 6 2 18 0 25 -3 6 -5 1 -5 -13z"/>
<path d="M2608 2825 c2 -14 6 -25 8 -25 2 0 4 11 4 25 0 14 -4 25 -9 25 -4 0
-6 -11 -3 -25z"/>
<path d="M2492 2820 c2 -15 -2 -24 -8 -23 -7 1 -10 -6 -7 -17 3 -11 10 -20 15
-20 5 0 6 5 3 10 -4 6 -1 17 5 25 9 10 9 19 1 32 -10 16 -11 15 -9 -7z"/>
<path d="M2542 2810 c0 -14 2 -19 5 -12 2 6 2 18 0 25 -3 6 -5 1 -5 -13z"/>
<path d="M1281 2784 c-40 -29 -92 -123 -114 -210 -13 -49 -33 -105 -45 -124
-33 -53 -55 -127 -48 -163 6 -29 60 -97 78 -97 12 0 10 54 -2 66 -6 6 -13 51
-15 100 -3 64 -2 82 5 64 9 -24 10 -23 6 5 -7 49 9 64 28 27 17 -33 19 -81 6
-122 -8 -24 -8 -24 -9 -2 -1 12 -5 22 -11 22 -13 0 -13 -3 2 -37 6 -15 11 -31
10 -35 -1 -4 -2 -39 -3 -77 -1 -39 -5 -68 -10 -65 -5 3 -9 -15 -9 -40 0 -35
-5 -48 -19 -56 -11 -5 -22 -18 -25 -28 -5 -16 -17 -19 -84 -18 l-77 1 -3 -40
c-2 -22 -8 -44 -13 -50 -5 -5 -9 -17 -9 -27 0 -14 8 -18 35 -18 32 0 37 -5 62
-52 16 -29 36 -78 45 -108 l17 -55 -2 58 c-1 31 -6 57 -11 56 -9 -1 -46 50
-46 64 0 5 5 5 10 2 6 -3 10 -2 10 4 0 16 -18 22 -23 9 -4 -9 -6 -7 -6 3 -1 9
-15 22 -31 29 -35 14 -37 21 -12 43 18 16 21 15 61 -28 23 -25 45 -58 47 -73
3 -15 9 -31 15 -37 12 -12 12 2 -1 26 -7 12 -7 19 -1 19 20 0 37 -55 20 -65
-5 -4 -9 -38 -9 -76 0 -39 4 -68 9 -65 5 3 8 33 6 66 -2 33 1 58 6 55 11 -7
31 -80 28 -103 -1 -9 1 -24 5 -33 4 -8 5 -60 4 -115 -2 -80 -6 -99 -18 -99 -8
0 -14 8 -14 18 2 14 -1 15 -12 6 -11 -9 -14 -8 -14 2 0 8 -10 19 -22 24 -19 8
-23 17 -21 50 7 134 5 172 -11 205 -16 34 -16 35 -11 5 5 -29 5 -29 -10 -10
-9 11 -14 28 -11 38 2 11 2 16 -1 13 -4 -3 -19 15 -33 42 -15 26 -37 55 -48
65 -19 17 -21 17 -49 -10 -34 -33 -57 -78 -73 -148 -7 -27 -23 -85 -37 -129
-21 -65 -25 -91 -20 -150 7 -94 23 -143 57 -177 17 -18 33 -49 40 -81 7 -29
17 -61 22 -70 6 -12 3 -28 -7 -49 -12 -22 -17 -62 -18 -133 -2 -94 -5 -107
-36 -171 -58 -118 -76 -248 -60 -429 6 -67 11 -137 12 -156 l0 -35 13 30 c7
17 13 44 14 60 0 36 29 127 54 174 10 18 36 53 58 77 22 24 37 47 34 53 -10
16 32 101 50 101 16 0 16 2 -1 20 -20 22 -14 26 15 10 23 -12 36 3 16 19 -11
9 -10 20 4 64 28 83 40 110 46 104 3 -3 -6 -37 -20 -77 -14 -39 -26 -73 -26
-75 0 -12 35 -12 62 0 l33 13 -40 5 -40 4 40 1 c22 1 56 -2 75 -8 l35 -9 -24
20 c-13 11 -21 22 -17 26 3 4 19 -5 34 -19 15 -14 33 -23 41 -20 8 2 11 0 8
-5 -4 -6 10 -19 31 -29 20 -10 57 -34 83 -51 25 -18 50 -33 53 -33 24 0 41
-44 45 -117 1 -7 5 -13 9 -13 5 0 3 35 -2 77 -11 74 -12 77 -41 84 -42 9 -106
49 -98 62 3 5 2 8 -3 4 -5 -3 -29 8 -54 25 -24 17 -51 31 -60 33 -8 1 -15 7
-15 13 0 20 -15 25 -32 10 -10 -8 -34 -18 -53 -21 l-35 -7 28 25 c25 22 46 30
70 26 5 -1 6 3 2 9 -10 16 -39 12 -63 -10 -31 -29 -34 -25 -11 19 23 45 37 59
65 64 10 2 26 7 34 10 8 3 24 7 35 9 14 3 19 11 17 27 -1 17 2 22 13 17 9 -3
15 0 15 8 0 18 66 49 105 49 16 0 17 1 3 4 -10 3 -18 7 -18 10 0 12 47 42 65
42 36 0 113 -24 133 -42 10 -9 27 -17 38 -17 38 1 -47 58 -96 65 -62 9 -82 22
-47 30 22 6 25 10 17 25 -5 9 -7 20 -4 22 9 9 -19 58 -33 58 -7 0 -13 5 -13
11 0 6 8 8 19 4 12 -3 21 0 25 10 4 13 10 14 26 5 16 -9 20 -8 20 5 0 8 11 20
25 25 34 13 41 35 20 66 -13 20 -14 28 -4 40 9 11 22 3 74 -51 63 -64 75 -73
75 -56 0 15 -117 131 -132 131 -8 0 -29 14 -46 31 -36 36 -45 33 -45 -12 0
-22 9 -37 36 -60 42 -34 45 -48 19 -72 -23 -21 -107 -34 -124 -20 -21 17 -58
25 -58 14 0 -16 70 -91 85 -91 16 0 27 -28 18 -43 -19 -31 -62 -71 -93 -87
-19 -10 -61 -39 -94 -64 -32 -25 -62 -46 -67 -46 -5 0 -28 -14 -51 -30 -22
-17 -47 -30 -55 -30 -8 0 -26 -9 -40 -20 -14 -11 -31 -20 -38 -20 -31 0 -116
188 -113 250 1 19 -2 44 -7 55 -7 16 -4 15 14 -5 l22 -25 -15 26 c-9 14 -13
29 -9 33 5 4 1 6 -7 4 -8 -1 -15 3 -16 10 -1 6 -2 13 -4 15 -1 1 -3 10 -5 20
-2 10 -11 24 -20 31 -21 15 -37 129 -33 233 l3 78 47 9 c63 12 115 -8 144 -54
12 -19 30 -43 41 -52 10 -9 45 -42 77 -73 32 -30 59 -55 60 -55 1 0 2 57 4
128 2 132 -10 246 -34 315 -8 22 -12 42 -10 44 9 9 31 -45 47 -117 l17 -75 1
78 c1 54 5 77 14 77 6 0 -1 7 -18 16 -69 36 -245 191 -245 216 0 7 15 -3 34
-21 l35 -34 25 28 c15 16 29 25 33 21 4 -3 -3 -13 -15 -22 -19 -13 -20 -18
-10 -37 10 -20 79 -86 134 -129 l23 -18 -9 31 c-5 17 -14 36 -19 43 -5 6 -12
23 -14 36 -3 14 -12 39 -21 55 -20 37 -20 72 -2 106 7 15 12 40 10 55 -2 16 8
-9 23 -54 28 -88 75 -152 111 -152 24 0 65 38 86 78 13 26 13 31 1 36 -9 3
-12 0 -9 -8 3 -7 -9 -25 -26 -40 -31 -25 -60 -34 -60 -18 0 5 -11 15 -25 22
-14 7 -25 21 -25 31 0 10 -6 22 -13 26 -26 15 -62 203 -39 203 4 0 7 26 6 58
0 31 5 73 12 93 11 33 18 79 15 103 -1 6 -8 1 -16 -10 -20 -26 -19 0 1 31 21
32 48 42 39 15 -4 -11 -2 -20 4 -20 6 0 11 11 11 25 0 52 112 59 175 11 35
-27 45 -31 45 -18 0 4 -22 21 -50 37 -32 20 -50 37 -50 50 -1 18 -2 18 -10 -2
-5 -13 -12 -23 -15 -23 -4 0 -4 4 -1 9 4 5 -3 7 -14 4 -13 -3 -20 0 -20 8 0 9
-3 10 -8 3 -4 -6 -14 -13 -22 -17 -8 -4 -39 -23 -68 -42 -45 -30 -51 -32 -41
-13 7 12 12 38 13 58 1 19 6 35 13 35 6 0 15 3 19 8 4 4 0 7 -9 7 -18 0 -23
25 -7 35 6 3 7 -1 4 -12 -3 -10 6 0 20 21 14 22 23 43 20 48 -3 4 0 8 6 8 6 0
16 11 22 25 17 37 28 30 29 -17 2 -30 3 -35 6 -15 2 15 13 32 24 37 17 10 18
8 9 -15 -16 -41 -11 -43 13 -4 19 30 26 34 47 28 16 -4 19 -7 8 -8 -10 -1 -18
-6 -18 -11 0 -7 7 -7 20 0 17 9 24 6 45 -17 32 -36 32 -17 0 22 -22 27 -32 30
-96 35 -46 3 -77 1 -88 -6z m-162 -492 c1 -7 -3 -10 -9 -7 -5 3 -10 21 -9 38
1 31 1 31 9 7 4 -14 8 -31 9 -38z m30 -392 l30 -85 -28 33 c-15 17 -33 32 -39
32 -6 0 -19 11 -28 25 -15 23 -15 26 8 53 12 16 24 29 25 28 1 -1 15 -39 32
-86z m-193 -108 c12 -22 29 -58 38 -79 9 -21 23 -49 31 -63 9 -15 15 -53 15
-99 l0 -73 -39 35 c-46 41 -98 55 -153 40 -36 -10 -37 -9 -34 16 2 14 7 39 11
55 4 16 9 38 10 50 4 37 5 41 15 56 8 12 18 6 57 -35 26 -27 47 -54 48 -58 0
-4 5 -11 12 -15 7 -4 17 -19 23 -32 10 -24 10 -24 5 4 -7 35 -48 89 -99 131
-41 34 -41 33 -21 59 12 16 17 17 30 6 8 -7 15 -17 15 -22 0 -6 -7 -5 -16 3
-10 8 -8 0 6 -24 23 -39 39 -52 20 -16 -7 11 -10 23 -7 25 3 3 19 -20 36 -51
17 -30 33 -55 36 -55 8 0 -34 79 -67 128 -28 40 -30 67 -5 60 7 -2 22 -23 33
-46z m552 -442 c5 0 12 -7 16 -15 3 -8 2 -15 -1 -15 -11 0 -53 43 -53 54 0 6
7 3 14 -6 7 -10 18 -18 24 -18z m-108 -150 c0 -5 -4 -10 -9 -10 -6 0 -13 5
-16 10 -3 6 1 10 9 10 9 0 16 -4 16 -10z m-490 -324 c0 5 -5 15 -11 21 -7 7
-7 13 0 17 6 4 14 -10 20 -32 6 -21 24 -52 40 -68 23 -23 27 -33 19 -47 -5
-10 -7 -22 -3 -25 3 -3 8 4 12 16 8 33 31 28 26 -5 -3 -16 -7 -35 -10 -43 -4
-8 -7 -17 -8 -20 -10 -28 -20 -40 -30 -36 -8 3 -11 -4 -9 -20 1 -13 -1 -24 -5
-24 -9 0 -31 -60 -36 -102 -3 -21 -15 -43 -35 -61 -32 -29 -103 -164 -94 -179
3 -4 0 -8 -5 -8 -15 0 -14 53 2 69 10 11 9 14 -2 18 -11 5 -11 7 0 15 11 7 11
11 2 15 -16 6 -17 67 -2 95 8 15 8 19 0 14 -7 -5 -11 2 -11 18 0 14 5 28 10
31 6 4 8 11 4 16 -3 5 0 16 6 24 7 8 10 21 7 30 -4 8 -2 17 4 21 5 3 9 13 8
22 -3 31 1 41 14 37 7 -3 13 4 13 20 1 14 8 33 15 41 17 21 20 37 21 112 l0
64 19 -29 c10 -15 19 -23 19 -17z"/>
<path d="M1085 1939 c-4 -6 -5 -12 -2 -15 2 -3 7 2 10 11 7 17 1 20 -8 4z"/>
<path d="M901 1596 c2 -2 18 -6 34 -10 22 -5 26 -4 15 4 -14 9 -59 15 -49 6z"/>
<path d="M2791 2784 c0 -11 3 -14 6 -6 3 7 2 16 -1 19 -3 4 -6 -2 -5 -13z"/>
<path d="M2670 2770 c0 -5 5 -10 10 -10 6 0 10 5 10 10 0 6 -4 10 -10 10 -5 0
-10 -4 -10 -10z"/>
<path d="M2751 2764 c0 -11 3 -14 6 -6 3 7 2 16 -1 19 -3 4 -6 -2 -5 -13z"/>
<path d="M2632 2740 c0 -14 2 -19 5 -12 2 6 2 18 0 25 -3 6 -5 1 -5 -13z"/>
<path d="M2704 2728 c1 -16 -4 -23 -16 -22 -10 1 -14 -4 -11 -12 6 -17 8 -17
31 -3 12 8 17 20 14 35 -6 30 -19 31 -18 2z"/>
<path d="M1403 2722 c-13 -8 -33 -55 -33 -77 0 -8 24 -26 53 -40 69 -35 72
-38 74 -93 0 -26 4 -62 8 -80 4 -17 4 -53 0 -78 -6 -41 -9 -45 -28 -39 -73 22
-85 6 -62 -85 8 -30 13 -43 11 -27 -2 19 1 27 13 27 9 0 12 3 6 8 -10 7 -19
72 -10 72 2 0 16 -5 30 -12 22 -10 25 -16 19 -42 -8 -41 5 -27 16 16 4 18 18
69 30 113 26 97 29 204 6 259 -9 22 -19 37 -22 33 -3 -3 0 -16 7 -29 7 -12 14
-66 15 -118 3 -94 3 -95 -15 -71 -19 24 -17 66 2 54 6 -4 7 -1 2 8 -5 7 -10
38 -12 69 -3 69 -8 105 -14 105 -2 0 -15 8 -29 18 -26 18 -48 21 -67 9z m69
-40 c18 -15 33 -71 26 -92 -2 -6 -21 6 -43 27 -21 21 -36 30 -32 20 3 -9 4
-17 1 -17 -2 0 -9 10 -14 23 -8 20 -9 20 -10 2 -1 -19 -1 -19 -11 -2 -16 27 2
42 31 27 12 -6 24 -9 28 -6 7 8 -3 17 -25 21 -10 2 -19 4 -21 4 -2 1 0 6 3 11
8 13 43 3 67 -18z"/>
<path d="M1467 2653 c-3 -5 0 -19 8 -29 15 -20 18 -11 6 20 -4 11 -10 15 -14
9z"/>
<path d="M1366 2705 c-9 -26 -7 -32 5 -12 6 10 9 21 6 23 -2 3 -7 -2 -11 -11z"/>
<path d="M2522 2690 c0 -14 2 -19 5 -12 2 6 2 18 0 25 -3 6 -5 1 -5 -13z"/>
<path d="M2436 2674 c-3 -8 -10 -12 -16 -9 -15 9 -12 -44 4 -60 19 -19 36 0
36 41 0 36 -14 53 -24 28z"/>
<path d="M2550 2649 c0 -18 5 -25 20 -25 18 0 18 1 2 21 -9 11 -18 22 -19 24
-2 2 -3 -7 -3 -20z"/>
<path d="M2593 2658 c3 -19 40 -36 49 -24 5 7 8 5 8 -4 0 -13 1 -13 10 0 16
24 12 40 -10 40 -12 0 -20 -7 -20 -17 -1 -17 -1 -17 -14 0 -15 20 -27 22 -23
5z"/>
<path d="M2661 2591 c-7 -5 -13 -12 -14 -17 -1 -5 -5 -8 -9 -7 -4 2 -5 -3 -3
-10 2 -6 -13 -25 -35 -42 -21 -16 -44 -42 -51 -57 -6 -15 -15 -26 -19 -23 -4
3 -10 -9 -12 -25 -3 -17 -4 -30 -2 -30 1 0 11 15 22 34 29 48 60 82 119 128
50 38 56 40 100 34 29 -4 44 -3 38 3 -12 12 -81 18 -91 8 -4 -4 -12 -3 -18 3
-7 5 -18 5 -25 1z"/>
<path d="M1390 2584 c0 -2 19 -13 43 -25 40 -20 41 -20 22 -1 -11 10 -23 18
-27 15 -5 -2 -8 0 -8 5 0 5 -7 9 -15 9 -8 0 -15 -2 -15 -3z"/>
<path d="M2912 2545 c0 -16 2 -22 5 -12 2 9 2 23 0 30 -3 6 -5 -1 -5 -18z"/>
<path d="M2720 2552 c0 -10 43 -52 54 -52 4 0 -2 14 -14 30 -20 29 -40 39 -40
22z"/>
<path d="M1336 2473 c-6 -14 -5 -15 5 -6 7 7 10 15 7 18 -3 3 -9 -2 -12 -12z"/>
<path d="M1395 2457 c-4 -10 -5 -21 -1 -24 10 -10 18 4 13 24 -4 17 -4 17 -12
0z"/>
<path d="M2645 2460 c-3 -5 -2 -10 4 -10 5 0 13 5 16 10 3 6 2 10 -4 10 -5 0
-13 -4 -16 -10z"/>
<path d="M2868 2443 c7 -3 16 -2 19 1 4 3 -2 6 -13 5 -11 0 -14 -3 -6 -6z"/>
<path d="M2758 2433 c7 -3 16 -2 19 1 4 3 -2 6 -13 5 -11 0 -14 -3 -6 -6z"/>
<path d="M2651 2421 c-14 -4 -26 -12 -28 -18 -3 -9 11 -8 49 3 29 9 55 18 57
20 7 6 -51 3 -78 -5z"/>
<path d="M1257 2414 c-4 -4 14 -17 39 -30 26 -13 53 -32 60 -41 12 -16 13 -16
14 -1 0 9 -17 30 -37 47 -36 30 -62 38 -76 25z"/>
<path d="M1430 2416 c0 -2 7 -7 16 -10 8 -3 12 -2 9 4 -6 10 -25 14 -25 6z"/>
<path d="M2570 2420 c-7 -35 -7 -60 1 -60 16 0 22 27 10 47 -6 10 -11 16 -11
13z"/>
<path d="M1162 2388 c-14 -14 -16 -28 -3 -28 9 0 24 30 18 36 -2 2 -9 -2 -15
-8z"/>
<path d="M1260 2350 c0 -11 3 -19 8 -19 18 3 26 -2 14 -10 -11 -7 -10 -9 3
-14 9 -4 14 -3 11 2 -3 5 2 12 12 16 15 6 15 8 -7 26 -30 24 -41 24 -41 -1z"/>
<path d="M2536 2355 c-3 -8 -1 -15 4 -15 6 0 10 7 10 15 0 8 -2 15 -4 15 -2 0
-6 -7 -10 -15z"/>
<path d="M1325 2330 c-4 -6 -2 -17 4 -24 6 -7 8 -16 4 -19 -3 -4 -1 -7 5 -7
13 0 17 -26 5 -32 -12 -5 -43 -64 -43 -82 0 -9 8 -16 20 -16 11 0 20 -4 20
-10 0 -5 -7 -10 -15 -10 -8 0 -15 -4 -15 -10 0 -5 7 -10 15 -10 8 0 15 5 15
11 0 5 10 9 22 7 11 -2 23 3 26 11 3 8 0 11 -6 7 -6 -3 -17 1 -25 9 -9 8 -23
12 -31 9 -9 -3 -16 -2 -16 3 0 16 38 45 49 38 15 -8 14 47 -1 96 -11 39 -21
48 -33 29z"/>
<path d="M1456 2271 c-4 -7 -5 -15 -2 -18 9 -9 19 4 14 18 -4 11 -6 11 -12 0z"/>
<path d="M2382 2180 c-134 -144 -177 -260 -192 -510 -10 -171 -52 -484 -74
-555 -17 -54 -21 -125 -8 -125 5 0 14 30 21 68 15 88 16 93 29 122 5 14 15 59
22 100 6 41 15 93 20 115 5 22 11 58 14 80 4 31 4 35 -4 18 -14 -34 -19 -28
-13 15 3 20 9 100 13 177 5 77 13 160 19 185 17 68 43 130 51 125 4 -2 12 7
18 20 9 19 19 25 42 25 26 0 30 -4 31 -27 0 -17 3 -22 6 -13 3 8 11 18 16 22
12 7 -11 32 -30 34 -7 1 -25 2 -40 3 -25 1 -25 2 -10 19 9 9 35 39 58 65 27
30 48 46 57 42 12 -4 13 -3 2 10 -10 12 -9 16 4 21 16 6 23 25 9 23 -5 -1 -32
-27 -61 -59z m-187 -751 c-6 -29 -15 -37 -15 -12 0 17 8 33 16 33 2 0 1 -10
-1 -21z"/>
<path d="M2490 2179 c0 -5 5 -7 10 -4 6 3 10 8 10 11 0 2 -4 4 -10 4 -5 0 -10
-5 -10 -11z"/>
<path d="M2440 2121 c0 -11 4 -22 9 -25 5 -4 17 -40 27 -81 10 -41 21 -72 26
-69 4 3 8 -6 8 -20 0 -13 5 -26 11 -28 6 -2 15 -19 19 -38 9 -32 9 -32 5 10
-5 50 -9 66 -20 95 -60 155 -85 200 -85 156z"/>
<path d="M1275 2120 c-3 -5 1 -10 10 -10 9 0 13 5 10 10 -3 6 -8 10 -10 10 -2
0 -7 -4 -10 -10z"/>
<path d="M1436 2105 c-3 -9 -6 -22 -5 -28 0 -7 5 -1 10 12 5 13 8 26 5 28 -2
2 -6 -3 -10 -12z"/>
<path d="M2361 2106 c-10 -12 -8 -17 8 -26 23 -12 29 2 12 28 -6 10 -10 10
-20 -2z"/>
<path d="M2672 2080 c0 -19 2 -27 5 -17 2 9 2 25 0 35 -3 9 -5 1 -5 -18z"/>
<path d="M1260 2092 c0 -5 21 -17 48 -27 26 -10 51 -22 57 -26 16 -15 25 -10
25 14 0 18 -2 19 -10 7 -5 -8 -10 -10 -10 -5 0 11 -39 29 -82 39 -16 4 -28 2
-28 -2z"/>
<path d="M2604 2058 c2 -24 5 -52 5 -62 1 -14 4 -17 12 -9 12 12 1 113 -13
113 -5 0 -7 -19 -4 -42z"/>
<path d="M1240 2054 c0 -8 5 -12 10 -9 6 3 10 10 10 16 0 5 -4 9 -10 9 -5 0
-10 -7 -10 -16z"/>
<path d="M2801 2038 c-1 -16 4 -28 9 -28 12 0 12 8 0 35 -8 18 -9 17 -9 -7z"/>
<path d="M2901 2040 c0 -14 4 -32 9 -40 8 -12 10 -12 9 5 0 11 -4 29 -9 40 -8
18 -9 18 -9 -5z"/>
<path d="M1416 2028 c-25 -140 -40 -206 -52 -230 -8 -16 -10 -28 -4 -28 5 0
10 8 11 18 0 11 2 13 6 4 7 -18 -34 -147 -52 -162 -10 -9 -11 -18 -4 -37 10
-27 -3 -54 -18 -39 -4 4 -2 11 5 15 9 5 -1 21 -33 53 l-45 46 0 -83 c0 -46 -4
-86 -9 -89 -6 -4 -6 -80 1 -135 3 -25 -4 -51 -12 -46 -5 3 -10 -2 -10 -13 0
-10 11 -24 24 -31 21 -12 34 -8 123 38 98 50 99 51 95 84 -5 47 17 64 50 37
l25 -19 8 162 c5 89 7 167 5 172 -2 6 -3 25 -2 43 1 20 -2 31 -8 27 -10 -6
-15 9 -10 30 1 6 3 15 4 20 2 6 8 30 15 53 23 80 -7 132 -76 132 -26 0 -33 -5
-37 -22z m49 -35 c4 -10 10 -58 12 -106 4 -54 9 -83 14 -75 5 7 9 11 10 8 4
-20 3 -236 -2 -218 -4 19 -6 16 -12 -17 -4 -22 -7 -59 -7 -82 0 -24 -4 -43
-10 -43 -5 0 -10 3 -11 8 0 4 -2 16 -4 27 -3 11 -9 53 -15 94 -6 41 -13 77
-16 80 -5 5 2 -125 11 -184 3 -29 -28 -118 -44 -123 -8 -3 -11 0 -7 7 4 6 2
11 -3 11 -6 0 -11 5 -11 11 0 5 5 7 10 4 6 -3 10 2 10 11 0 10 -3 14 -7 10 -4
-3 -12 6 -19 21 -13 27 -13 27 -9 -15 2 -23 7 -47 10 -53 9 -14 -14 -39 -31
-32 -8 3 -14 11 -14 18 0 7 -21 23 -47 35 -27 13 -42 25 -35 27 7 3 24 -2 37
-11 22 -14 25 -15 25 -1 0 25 -22 108 -42 158 -11 27 -17 51 -15 53 2 2 19
-19 38 -48 40 -61 59 -71 59 -32 0 37 51 224 61 224 4 0 11 -10 14 -21 4 -12
10 -17 14 -12 3 5 14 14 25 20 17 10 17 10 -3 16 -15 4 -21 0 -21 -11 -1 -14
-3 -14 -12 2 -8 15 -8 21 0 24 7 2 12 8 12 13 0 6 -3 8 -7 6 -5 -3 -9 24 -11
60 -2 44 0 63 7 58 6 -3 11 -16 12 -28 0 -12 7 -38 15 -57 14 -34 14 -32 10
51 -2 47 -9 96 -15 107 -9 18 -9 22 3 22 7 0 17 -8 21 -17z m35 -60 c0 -32 -5
-28 -14 10 -4 19 -3 26 4 22 5 -3 10 -18 10 -32z m-230 -490 c0 -16 -4 -21
-15 -17 -8 4 -15 10 -15 16 0 5 4 7 9 4 4 -3 6 7 4 22 -4 21 -2 24 6 12 6 -8
11 -25 11 -37z m27 -109 c26 -24 27 -25 5 -21 -12 3 -20 1 -17 -3 5 -9 -33
-25 -41 -18 -7 8 8 68 17 68 4 0 21 -12 36 -26z"/>
<path d="M1396 1685 c-13 -55 -22 -124 -16 -120 10 6 33 121 28 137 -3 7 -8 0
-12 -17z"/>
<path d="M1420 1694 c0 -8 5 -12 10 -9 6 4 8 11 5 16 -9 14 -15 11 -15 -7z"/>
<path d="M1360 1535 c0 -8 2 -15 4 -15 2 0 6 7 10 15 3 8 1 15 -4 15 -6 0 -10
-7 -10 -15z"/>
<path d="M1290 1507 c0 -14 32 -77 38 -77 16 0 -1 61 -19 71 -11 5 -19 8 -19
6z"/>
<path d="M1350 1499 c0 -5 5 -7 10 -4 6 3 10 8 10 11 0 2 -4 4 -10 4 -5 0 -10
-5 -10 -11z"/>
<path d="M1363 1483 c-10 -4 -9 -9 3 -20 18 -18 24 -15 15 8 -3 9 -12 14 -18
12z"/>
<path d="M1321 1403 c-1 -12 4 -25 9 -28 12 -7 12 2 0 30 -8 19 -9 19 -9 -2z"/>
<path d="M1273 2033 c-18 -7 -16 -23 3 -23 9 0 29 -8 45 -17 15 -9 31 -14 34
-11 10 10 -6 35 -31 47 -27 12 -32 12 -51 4z"/>
<path d="M2686 2008 c-8 -18 -19 -46 -24 -63 -8 -23 -11 -25 -12 -10 -3 32
-31 -103 -37 -179 -6 -76 10 -87 22 -13 10 61 35 149 50 172 13 21 31 125 21
125 -3 0 -12 -15 -20 -32z"/>
<path d="M2402 2003 c39 -81 57 -109 86 -139 48 -49 51 -35 5 23 -21 27 -47
66 -58 86 -11 20 -23 37 -28 37 -4 0 -7 -3 -5 -7z"/>
<path d="M1577 1973 c-21 -3 -26 -9 -23 -26 2 -12 0 -53 -4 -92 -5 -38 -5 -72
-1 -75 3 -3 7 -68 7 -145 1 -92 -1 -123 -6 -90 l-7 50 -1 -56 c-1 -31 -5 -72
-9 -90 -6 -34 -6 -34 14 -16 18 16 27 17 61 7 43 -11 74 -51 103 -132 7 -22
20 -38 29 -38 18 1 59 30 41 30 -7 0 -9 5 -6 10 3 6 2 10 -4 10 -5 0 -11 -6
-14 -12 -3 -10 -7 -10 -20 1 -10 7 -17 19 -17 25 0 6 -9 28 -20 48 -19 36 -19
37 0 61 23 29 96 67 128 67 28 0 48 -32 62 -104 l12 -59 19 29 c26 39 24 64
-3 65 -17 1 -19 2 -5 6 9 2 17 6 17 7 0 10 -41 117 -55 146 -10 19 -21 42 -25
50 -10 21 -25 9 -22 -17 2 -13 -5 -35 -15 -51 -10 -15 -23 -36 -29 -46 -6 -11
-16 -22 -24 -24 -9 -3 -10 0 -4 9 6 11 5 12 -8 2 -8 -7 -19 -9 -23 -5 -5 4 -5
-1 -2 -10 4 -11 -5 -25 -29 -43 -31 -24 -39 -24 -35 -2 0 4 -5 6 -11 5 -10 -2
-13 41 -13 189 -1 158 1 190 12 181 10 -8 12 -7 8 4 -8 21 -50 42 -69 35 -12
-5 -16 0 -16 23 0 16 5 32 11 36 9 5 10 -1 5 -20 -5 -22 -3 -26 14 -26 13 0
19 6 18 18 -3 41 2 52 27 52 14 0 28 -7 31 -15 5 -12 10 -13 20 -4 18 15 18
10 -6 -53 -11 -29 -24 -84 -30 -123 -11 -78 -14 -272 -4 -262 4 4 6 43 5 87
-2 65 1 81 14 86 8 4 27 31 42 60 25 51 53 72 53 39 0 -8 -6 -15 -13 -15 -7 0
-18 -9 -24 -19 -11 -18 -11 -18 18 -4 17 8 35 25 40 37 9 21 10 21 5 -1 -2
-13 0 -26 5 -29 5 -3 9 -18 9 -35 0 -27 9 -37 23 -23 6 7 -22 107 -33 114 -11
8 -40 67 -40 83 0 8 -9 24 -20 37 -11 13 -20 26 -20 29 0 3 -12 12 -27 19 -26
12 -60 13 -116 5z m183 -125 c7 -18 15 -36 17 -40 2 -3 -4 -5 -13 -4 -10 2
-20 8 -22 14 -7 22 -22 12 -17 -10 3 -15 -6 -40 -26 -73 -17 -27 -28 -41 -24
-30 4 11 11 36 15 55 4 19 10 42 13 50 4 8 11 27 16 43 14 35 24 34 41 -5z
m-150 -90 c0 -67 -4 -98 -10 -88 -14 23 -10 -130 6 -167 7 -18 12 -34 11 -34
-1 -1 -12 -3 -24 -4 -23 -2 -23 0 -23 105 0 172 11 290 26 290 11 0 14 -23 14
-102z m253 -178 c3 -11 5 -22 4 -24 -1 -2 7 -13 17 -25 24 -26 15 -37 -16 -20
-12 7 -32 14 -42 16 -27 5 -27 5 -4 41 23 37 34 40 41 12z"/>
<path d="M2313 1940 c0 -25 2 -35 4 -22 2 12 2 32 0 45 -2 12 -4 2 -4 -23z"/>
<path d="M2347 1948 c3 -18 9 -38 14 -43 4 -6 11 -30 15 -53 4 -23 11 -45 15
-48 5 -3 9 -23 9 -46 0 -34 3 -39 17 -34 10 4 15 4 12 1 -4 -3 -2 -27 3 -53
22 -113 35 -217 27 -220 -5 -2 -9 -11 -8 -20 0 -11 2 -12 6 -4 7 17 23 15 23
-3 0 -8 4 -15 8 -15 5 0 3 39 -5 88 -7 48 -16 111 -20 140 -3 28 -9 52 -13 52
-7 0 -15 27 -26 85 -6 30 -17 55 -26 55 -5 0 -7 4 -3 9 3 5 -1 29 -10 53 -8
24 -15 53 -15 66 0 13 -6 22 -15 22 -11 0 -13 -8 -8 -32z"/>
<path d="M1646 1918 c-4 -22 -2 -37 9 -47 9 -10 15 -11 15 -4 0 7 -4 14 -10
18 -6 3 -6 15 0 30 5 13 5 27 1 29 -5 3 -11 -9 -15 -26z"/>
<path d="M2732 1917 c-14 -39 -15 -76 -3 -96 5 -8 11 11 16 54 8 76 4 89 -13
42z"/>
<path d="M2565 1890 c0 -15 3 -26 8 -23 4 2 7 13 7 23 0 10 -3 21 -7 23 -5 3
-8 -8 -8 -23z"/>
<path d="M1255 1870 c10 -11 22 -20 27 -20 15 0 9 28 -8 34 -30 11 -37 6 -19
-14z"/>
<path d="M2336 1874 c-9 -25 -7 -64 4 -64 6 0 10 18 10 40 0 43 -4 50 -14 24z"/>
<path d="M2251 1844 c0 -11 3 -14 6 -6 3 7 2 16 -1 19 -3 4 -6 -2 -5 -13z"/>
<path d="M2455 1828 c4 -18 23 -58 41 -88 34 -56 43 -90 23 -90 -12 0 -10 -18
12 -195 18 -139 18 -261 0 -257 -10 2 -12 -9 -6 -55 6 -58 -13 -172 -37 -216
-6 -11 -14 -49 -18 -85 -5 -36 -15 -79 -23 -96 -20 -40 -68 -182 -74 -219 l-5
-28 29 29 c20 21 29 41 31 68 2 22 8 44 15 49 7 6 13 24 15 40 3 40 42 145 53
145 5 0 9 7 9 16 0 14 -2 15 -17 3 -15 -12 -16 -12 -10 4 4 10 7 30 7 43 0 14
4 22 10 19 6 -3 10 4 10 17 0 13 7 36 15 51 8 15 14 40 14 55 0 36 8 130 20
227 5 44 10 89 10 101 1 20 33 66 42 61 2 -1 -1 3 -8 9 -20 17 -16 30 17 57
18 16 30 35 29 49 l0 23 -11 -22 c-6 -13 -15 -23 -20 -23 -11 0 -10 14 3 27 6
6 17 49 24 95 8 46 23 115 34 153 15 53 17 65 5 50 -8 -11 -19 -38 -25 -60 -5
-22 -21 -72 -35 -111 -14 -40 -30 -100 -35 -135 -6 -35 -12 -71 -13 -79 -2 -8
-7 -34 -11 -57 -12 -71 -25 -48 -18 30 10 93 7 242 -5 289 -5 20 -26 56 -46
79 -20 24 -36 46 -36 51 0 4 -5 8 -11 8 -7 0 -8 -12 -4 -32z"/>
<path d="M969 1822 c5 -10 17 -25 26 -32 13 -11 13 -8 -2 18 -19 33 -41 46
-24 14z"/>
<path d="M1286 1791 c-4 -7 -5 -15 -2 -18 9 -9 19 4 14 18 -4 11 -6 11 -12 0z"/>
<path d="M2320 1786 c0 -8 5 -18 10 -21 6 -3 10 3 10 14 0 12 -4 21 -10 21 -5
0 -10 -6 -10 -14z"/>
<path d="M2261 1751 c-8 -5 -9 -11 -3 -15 5 -3 12 1 16 9 6 17 6 18 -13 6z"/>
<path d="M1290 1720 c0 -5 5 -10 10 -10 6 0 10 5 10 10 0 6 -4 10 -10 10 -5 0
-10 -4 -10 -10z"/>
<path d="M1737 1690 c3 -11 10 -20 15 -20 10 0 -26 -65 -49 -88 -23 -24 -35
-53 -21 -50 16 4 55 54 64 82 9 27 21 35 46 28 13 -3 17 -10 13 -21 -5 -12 -3
-13 6 -4 16 16 4 43 -19 43 -10 0 -24 11 -30 25 -14 30 -32 34 -25 5z"/>
<path d="M2236 1694 c-4 -9 -4 -19 -1 -22 2 -3 7 3 11 12 4 9 4 19 1 22 -2 3
-7 -3 -11 -12z"/>
<path d="M1692 1645 c0 -16 2 -22 5 -12 2 9 2 23 0 30 -3 6 -5 -1 -5 -18z"/>
<path d="M2281 1654 c0 -11 3 -14 6 -6 3 7 2 16 -1 19 -3 4 -6 -2 -5 -13z"/>
<path d="M1295 1651 c-3 -5 -1 -12 5 -16 5 -3 10 1 10 9 0 18 -6 21 -15 7z"/>
<path d="M2229 1643 c0 -10 -4 -40 -8 -66 -4 -26 -5 -44 0 -40 9 10 23 123 15
123 -3 0 -6 -8 -7 -17z"/>
<path d="M2271 1614 c0 -11 3 -14 6 -6 3 7 2 16 -1 19 -3 4 -6 -2 -5 -13z"/>
<path d="M1756 1589 c-10 -17 -15 -33 -12 -36 3 -3 8 1 12 10 3 9 12 13 19 11
9 -4 12 3 11 20 -1 34 -8 33 -30 -5z"/>
<path d="M2728 1455 c-3 -38 -1 -79 4 -90 8 -20 8 -20 5 0 -2 11 2 31 8 45 9
19 9 36 0 70 l-12 45 -5 -70z"/>
<path d="M2246 1493 c-6 -14 -5 -15 5 -6 7 7 10 15 7 18 -3 3 -9 -2 -12 -12z"/>
<path d="M1127 1477 c-3 -8 -1 -20 4 -28 6 -10 9 -7 9 14 0 29 -5 35 -13 14z"/>
<path d="M2890 1481 c0 -5 5 -13 10 -16 6 -3 10 -2 10 4 0 5 -4 13 -10 16 -5
3 -10 2 -10 -4z"/>
<path d="M947 1453 c-4 -3 -2 -12 4 -19 7 -9 4 -14 -11 -19 -25 -8 -40 2 -21
14 8 6 9 11 3 15 -12 7 -17 1 -26 -36 -3 -16 -11 -28 -16 -28 -6 0 -10 -13
-10 -30 0 -33 5 -34 64 -21 33 8 45 6 87 -17 51 -29 67 -26 49 7 -12 24 -35
29 -26 6 7 -20 1 -19 -20 3 -13 12 -34 17 -79 17 -56 0 -61 2 -57 18 3 11 18
25 35 32 26 11 34 10 65 -8 43 -25 99 -33 81 -11 -6 8 -16 11 -21 8 -19 -12
-78 29 -78 53 0 23 -10 30 -23 16z"/>
<path d="M2280 1420 c0 -5 5 -10 10 -10 6 0 10 5 10 10 0 6 -4 10 -10 10 -5 0
-10 -4 -10 -10z"/>
<path d="M2896 1396 c-13 -20 -13 -24 -2 -20 8 3 17 13 20 21 10 26 0 25 -18
-1z"/>
<path d="M2447 1403 c-12 -11 -8 -23 7 -23 8 0 17 -11 20 -25 7 -28 26 -34 26
-7 0 18 -19 54 -20 37 0 -5 -7 -2 -14 7 -7 10 -16 15 -19 11z"/>
<path d="M926 1382 c-3 -6 -1 -14 5 -17 14 -9 20 -2 10 14 -6 8 -11 9 -15 3z"/>
<path d="M2342 1356 c1 -14 6 -22 10 -20 12 7 10 44 -2 44 -5 0 -9 -11 -8 -24z"/>
<path d="M2811 1364 c0 -11 3 -14 6 -6 3 7 2 16 -1 19 -3 4 -6 -2 -5 -13z"/>
<path d="M2939 1358 c0 -2 -1 -17 -2 -35 -2 -24 1 -29 11 -21 14 12 16 58 2
58 -5 0 -10 -1 -11 -2z"/>
<path d="M2852 1330 c0 -14 2 -19 5 -12 2 6 2 18 0 25 -3 6 -5 1 -5 -13z"/>
<path d="M840 1313 c0 -5 7 -19 16 -31 12 -17 25 -22 59 -22 24 0 67 -9 94
-20 50 -19 51 -19 61 0 6 11 6 21 1 25 -5 3 -11 -1 -13 -9 -2 -13 -10 -12 -47
4 -26 12 -65 20 -97 20 -40 0 -54 4 -54 14 0 8 -4 18 -10 21 -5 3 -10 2 -10
-2z"/>
<path d="M942 1309 c2 -7 10 -15 17 -17 8 -3 12 1 9 9 -2 7 -10 15 -17 17 -8
3 -12 -1 -9 -9z"/>
<path d="M2657 1300 c-3 -11 -1 -23 4 -26 5 -3 9 6 9 20 0 31 -6 34 -13 6z"/>
<path d="M890 1299 c0 -5 5 -7 10 -4 6 3 10 8 10 11 0 2 -4 4 -10 4 -5 0 -10
-5 -10 -11z"/>
<path d="M2355 1300 c3 -5 8 -10 11 -10 2 0 4 5 4 10 0 6 -5 10 -11 10 -5 0
-7 -4 -4 -10z"/>
<path d="M2392 1270 c0 -14 2 -19 5 -12 2 6 2 18 0 25 -3 6 -5 1 -5 -13z"/>
<path d="M2971 1274 c0 -11 3 -14 6 -6 3 7 2 16 -1 19 -3 4 -6 -2 -5 -13z"/>
<path d="M2794 1266 c-6 -7 -15 -23 -18 -37 -6 -19 -3 -18 15 9 22 33 24 50 3
28z"/>
<path d="M2266 1262 c-2 -4 -1 -14 5 -22 7 -12 9 -10 9 8 0 23 -5 28 -14 14z"/>
<path d="M2331 1244 c0 -11 3 -14 6 -6 3 7 2 16 -1 19 -3 4 -6 -2 -5 -13z"/>
<path d="M1149 1237 c-14 -7 -33 -18 -41 -25 -28 -23 -168 -21 -168 3 0 8 -4
15 -10 15 -5 0 -7 -7 -3 -17 5 -13 2 -15 -16 -10 -17 4 -20 3 -11 -7 16 -21
146 -26 189 -9 20 9 38 19 41 23 3 4 25 14 50 23 33 11 38 15 20 15 -14 0 -37
-5 -51 -11z"/>
<path d="M2427 1214 c-5 -30 -2 -43 19 -67 14 -17 31 -42 36 -56 13 -34 22
-11 14 35 -4 19 -13 34 -20 34 -15 0 -27 22 -32 59 -5 37 -11 35 -17 -5z"/>
<path d="M877 1233 c-4 -3 -7 -11 -7 -17 0 -6 5 -5 12 2 6 6 9 14 7 17 -3 3
-9 2 -12 -2z"/>
<path d="M1730 1235 c0 -16 32 -65 43 -65 7 0 17 -8 23 -17 6 -10 27 -26 45
-37 29 -16 27 -11 -19 33 -29 28 -57 51 -63 51 -5 0 -9 6 -9 14 0 8 -4 18 -10
21 -5 3 -10 3 -10 0z"/>
<path d="M2923 1225 c-8 -22 6 -33 17 -15 13 20 12 30 0 30 -6 0 -13 -7 -17
-15z"/>
<path d="M2249 1179 c-1 -19 -3 -59 -4 -90 -1 -31 -5 -62 -9 -68 -4 -6 -4 -61
0 -122 5 -83 11 -116 25 -132 22 -28 33 -18 18 19 -22 57 -30 123 -17 147 5
11 5 17 -2 17 -5 0 -10 14 -10 30 0 17 4 30 8 30 9 0 7 188 -2 197 -3 4 -7 -9
-7 -28z"/>
<path d="M1630 1189 c0 -5 5 -7 10 -4 6 3 10 8 10 11 0 2 -4 4 -10 4 -5 0 -10
-5 -10 -11z"/>
<path d="M2330 1185 c0 -8 2 -15 4 -15 2 0 6 7 10 15 3 8 1 15 -4 15 -6 0 -10
-7 -10 -15z"/>
<path d="M1686 1177 c2 -7 -4 -22 -15 -34 -11 -11 -20 -29 -20 -39 0 -11 -3
-40 -7 -65 -4 -30 -2 -49 5 -53 7 -5 11 4 11 27 0 43 28 137 40 137 16 0 12
27 -4 33 -9 4 -13 1 -10 -6z"/>
<path d="M2171 1136 c-13 -54 -13 -56 -2 -56 8 0 25 90 17 97 -2 2 -9 -16 -15
-41z"/>
<path d="M2821 1164 c0 -11 3 -14 6 -6 3 7 2 16 -1 19 -3 4 -6 -2 -5 -13z"/>
<path d="M2891 1157 c-7 -10 -10 -17 -7 -17 4 0 1 -10 -5 -22 l-11 -23 21 23
c12 12 21 30 19 39 -3 15 -4 15 -17 0z"/>
<path d="M1015 1140 c3 -5 10 -10 16 -10 5 0 9 5 9 10 0 6 -7 10 -16 10 -8 0
-12 -4 -9 -10z"/>
<path d="M1500 1141 c0 -10 30 -24 37 -17 3 2 -5 9 -16 16 -12 6 -21 7 -21 1z"/>
<path d="M2631 1134 c0 -11 3 -14 6 -6 3 7 2 16 -1 19 -3 4 -6 -2 -5 -13z"/>
<path d="M2358 1105 c2 -15 0 -25 -7 -25 -15 0 -13 -21 4 -44 12 -16 14 -13
13 33 0 28 -3 53 -8 56 -4 2 -5 -7 -2 -20z"/>
<path d="M2700 1120 c0 -5 5 -10 10 -10 6 0 10 5 10 10 0 6 -4 10 -10 10 -5 0
-10 -4 -10 -10z"/>
<path d="M1740 1110 c0 -5 5 -10 11 -10 5 0 7 5 4 10 -3 6 -8 10 -11 10 -2 0
-4 -4 -4 -10z"/>
<path d="M1301 1094 c0 -11 3 -14 6 -6 3 7 2 16 -1 19 -3 4 -6 -2 -5 -13z"/>
<path d="M1341 1094 c0 -11 3 -14 6 -6 3 7 2 16 -1 19 -3 4 -6 -2 -5 -13z"/>
<path d="M2847 1073 c-4 -3 -7 -11 -7 -17 0 -6 5 -5 12 2 6 6 9 14 7 17 -3 3
-9 2 -12 -2z"/>
<path d="M2886 1063 c-6 -14 -5 -15 5 -6 7 7 10 15 7 18 -3 3 -9 -2 -12 -12z"/>
<path d="M2160 1060 c0 -5 5 -10 10 -10 6 0 10 5 10 10 0 6 -4 10 -10 10 -5 0
-10 -4 -10 -10z"/>
<path d="M1817 1053 c-4 -3 -7 -11 -7 -17 0 -6 5 -5 12 2 6 6 9 14 7 17 -3 3
-9 2 -12 -2z"/>
<path d="M1238 1043 c7 -3 16 -2 19 1 4 3 -2 6 -13 5 -11 0 -14 -3 -6 -6z"/>
<path d="M1846 1031 c-4 -7 -5 -15 -2 -18 9 -9 19 4 14 18 -4 11 -6 11 -12 0z"/>
<path d="M2146 1025 c-3 -8 -1 -17 3 -20 5 -3 11 2 15 10 3 8 1 17 -3 20 -5 3
-11 -2 -15 -10z"/>
<path d="M2820 1030 c0 -5 5 -10 11 -10 5 0 7 5 4 10 -3 6 -8 10 -11 10 -2 0
-4 -4 -4 -10z"/>
<path d="M1916 1023 c-19 -5 -65 -51 -66 -66 0 -5 14 3 31 17 20 17 43 26 65
26 19 0 34 5 34 10 0 6 -4 10 -9 10 -5 0 -15 2 -23 4 -7 2 -21 1 -32 -1z"/>
<path d="M981 995 c-1 -42 9 -73 25 -79 12 -5 12 -2 2 17 -6 12 -15 38 -19 57
-7 34 -7 34 -8 5z"/>
<path d="M1600 1012 c0 -12 19 -26 26 -19 2 2 -2 10 -11 17 -9 8 -15 8 -15 2z"/>
<path d="M1805 986 c-9 -21 -14 -43 -12 -49 2 -6 11 9 21 32 9 24 14 46 12 49
-3 3 -13 -12 -21 -32z"/>
<path d="M2307 1014 c-4 -4 -7 -14 -7 -23 0 -11 3 -12 11 -4 6 6 10 16 7 23
-2 6 -7 8 -11 4z"/>
<path d="M1920 973 c-41 -26 -82 -80 -91 -120 -11 -52 -4 -52 19 -1 10 24 38
64 61 91 24 26 41 47 39 47 -1 0 -14 -8 -28 -17z"/>
<path d="M1956 948 c-26 -45 -53 -135 -43 -145 3 -3 9 8 12 23 10 42 41 109
60 128 9 9 30 16 46 16 16 0 29 5 29 10 0 6 -18 10 -40 10 -36 0 -41 -4 -64
-42z"/>
<path d="M2136 982 c-4 -7 -3 -12 3 -12 6 0 8 -6 6 -12 -2 -7 0 -29 4 -48 8
-31 9 -32 10 -8 1 14 3 32 6 40 7 19 -20 55 -29 40z"/>
<path d="M1520 970 c-13 -8 -12 -10 3 -10 9 0 17 5 17 10 0 12 -1 12 -20 0z"/>
<path d="M2077 973 c-3 -5 -12 -39 -22 -78 -28 -112 -6 -244 61 -378 14 -27
23 -52 20 -55 -3 -3 -24 14 -46 37 -22 23 -40 39 -40 35 0 -4 -9 5 -20 19 -11
14 -20 30 -20 37 0 6 -4 9 -10 5 -5 -3 -7 -12 -3 -20 7 -21 -14 -19 -26 3 -6
9 -10 13 -10 7 0 -5 5 -17 12 -25 14 -17 132 -100 143 -100 4 0 31 -11 61 -25
29 -14 57 -24 62 -21 4 3 11 -25 14 -62 6 -76 15 -105 28 -96 11 7 8 74 -3 74
-4 0 -8 4 -8 10 0 5 7 7 15 4 13 -5 14 -2 5 21 -13 34 -13 32 10 38 11 3 18 1
15 -3 -3 -5 -2 -16 1 -25 5 -13 8 -14 15 -3 6 9 9 8 9 -8 0 -11 -5 -25 -11
-31 -8 -8 -8 -13 0 -17 6 -4 11 0 11 8 0 9 5 16 10 16 6 0 10 13 10 30 0 21
-4 28 -14 24 -8 -3 -16 3 -19 15 -2 11 1 22 8 25 13 5 28 46 17 46 -4 0 -23
-15 -43 -34 l-36 -34 -54 25 c-40 19 -59 34 -69 57 -7 17 -24 54 -37 83 -54
121 -66 266 -29 355 9 21 16 40 16 43 0 8 -18 6 -23 -2z"/>
<path d="M2640 970 c0 -5 7 -10 16 -10 8 0 12 5 9 10 -3 6 -10 10 -16 10 -5 0
-9 -4 -9 -10z"/>
<path d="M2779 965 c-1 -3 -2 -8 -3 -12 -1 -5 -5 -14 -9 -20 -10 -16 5 -17 21
-1 15 15 16 38 2 38 -5 0 -11 -2 -11 -5z"/>
<path d="M1624 949 c-3 -6 0 -15 7 -20 11 -7 9 -12 -8 -24 -13 -9 -23 -23 -23
-31 0 -9 -14 -29 -30 -46 -17 -16 -27 -34 -24 -40 7 -11 73 60 74 78 0 15 35
54 49 54 14 0 14 13 -1 28 -15 15 -35 15 -44 1z"/>
<path d="M2009 939 c-23 -19 -23 -20 -2 -10 12 6 25 16 28 21 10 16 -1 12 -26
-11z"/>
<path d="M1380 941 c0 -16 82 -20 114 -6 30 13 28 13 -41 14 -40 1 -73 -3 -73
-8z"/>
<path d="M1346 925 c6 -14 4 -16 -7 -10 -11 7 -12 6 -2 -7 7 -8 9 -18 5 -23
-4 -4 8 -5 27 -1 18 3 38 6 43 6 5 0 6 5 3 10 -3 6 -13 10 -22 10 -9 0 -25 8
-35 17 -18 16 -18 16 -12 -2z"/>
<path d="M1555 924 c-23 -10 -25 -13 -10 -13 21 -1 53 15 45 22 -3 2 -18 -2
-35 -9z"/>
<path d="M2100 906 c0 -19 5 -47 10 -62 6 -15 13 -42 16 -61 6 -38 24 -85 61
-160 26 -52 46 -64 36 -20 -5 22 -5 22 11 2 17 -19 17 -19 12 15 -7 40 -57
141 -85 172 -24 25 -37 65 -15 47 11 -9 14 -7 14 10 0 11 -6 21 -14 21 -8 0
-17 13 -21 30 -9 43 -25 47 -25 6z m80 -196 c0 -5 -4 -10 -10 -10 -5 0 -10 5
-10 10 0 6 5 10 10 10 6 0 10 -4 10 -10z m20 -36 c0 -8 -4 -12 -10 -9 -5 3
-10 10 -10 16 0 5 5 9 10 9 6 0 10 -7 10 -16z m30 -30 c0 -8 -5 -12 -10 -9 -6
4 -8 11 -5 16 9 14 15 11 15 -7z"/>
<path d="M2930 925 c0 -8 2 -15 4 -15 2 0 6 7 10 15 3 8 1 15 -4 15 -6 0 -10
-7 -10 -15z"/>
<path d="M1280 920 c0 -13 11 -13 30 0 12 8 11 10 -7 10 -13 0 -23 -4 -23 -10z"/>
<path d="M1811 904 c0 -11 3 -14 6 -6 3 7 2 16 -1 19 -3 4 -6 -2 -5 -13z"/>
<path d="M1683 890 c1 -12 8 -20 19 -20 9 0 22 -9 28 -19 14 -28 12 -36 -5
-21 -21 17 -26 9 -9 -14 11 -16 16 -17 29 -6 14 12 15 9 9 -28 -5 -34 -2 -46
20 -75 14 -18 26 -42 26 -51 0 -10 7 -24 15 -32 18 -18 18 -16 5 22 -5 16 -21
69 -36 118 -20 67 -34 96 -57 118 -37 33 -46 35 -44 8z"/>
<path d="M1989 892 c-14 -12 -18 -21 -11 -25 11 -7 42 18 42 34 0 13 -5 11
-31 -9z"/>
<path d="M1535 880 c-22 -6 -25 -8 -10 -10 29 -3 49 0 60 11 11 11 -6 10 -50
-1z"/>
<path d="M1375 863 l-40 -13 39 6 c32 4 38 3 33 -10 -4 -9 -2 -16 3 -16 6 0
10 -6 10 -14 0 -10 -23 -18 -77 -27 -52 -8 -71 -15 -57 -19 10 -4 30 -3 43 2
14 5 44 9 68 10 l43 1 -6 41 c-4 22 -9 44 -13 47 -3 3 -24 0 -46 -8z"/>
<path d="M2930 870 c0 -5 5 -10 11 -10 5 0 7 5 4 10 -3 6 -8 10 -11 10 -2 0
-4 -4 -4 -10z"/>
<path d="M1470 855 c0 -10 35 -45 45 -45 13 0 3 21 -12 27 -10 4 -21 11 -25
17 -5 7 -8 7 -8 1z"/>
<path d="M1651 851 c-10 -7 -11 -18 -5 -47 l9 -38 17 26 c9 14 14 35 11 47 -6
23 -11 25 -32 12z"/>
<path d="M1250 843 c-25 -3 -49 -8 -53 -12 -10 -10 90 -1 118 10 20 8 20 8 0
7 -11 -1 -40 -3 -65 -5z"/>
<path d="M1777 832 c3 -12 9 -25 14 -28 14 -8 11 10 -6 32 -13 18 -14 18 -8
-4z"/>
<path d="M1961 824 c0 -11 3 -14 6 -6 3 7 2 16 -1 19 -3 4 -6 -2 -5 -13z"/>
<path d="M2081 814 c-1 -34 35 -163 50 -178 13 -14 12 -7 -10 65 -10 35 -24
82 -29 104 -10 39 -10 39 -11 9z"/>
<path d="M1611 789 c-1 -37 22 -80 35 -66 4 4 18 -3 31 -15 31 -29 41 -16 14
18 -11 15 -21 24 -21 20 0 -19 -36 16 -46 46 l-12 33 -1 -36z"/>
<path d="M1105 801 c-3 -5 5 -9 18 -8 12 0 47 -3 77 -7 34 -4 47 -3 35 2 -30
13 -124 22 -130 13z"/>
<path d="M1500 770 c0 -5 5 -10 10 -10 6 0 10 5 10 10 0 6 -4 10 -10 10 -5 0
-10 -4 -10 -10z"/>
<path d="M1195 758 c17 -5 37 -12 45 -15 8 -4 21 -5 29 -4 8 1 10 -2 6 -10 -5
-7 -3 -10 6 -7 18 6 99 -22 166 -57 28 -15 59 -25 69 -23 38 7 -146 83 -274
113 -72 17 -91 18 -47 3z"/>
<path d="M1365 759 c-26 -6 -23 -7 18 -8 27 0 56 -5 65 -10 9 -5 26 -5 37 -1
16 6 17 9 5 13 -28 10 -95 13 -125 6z"/>
<path d="M1540 766 c0 -2 7 -9 15 -16 9 -7 15 -8 15 -2 0 5 -7 12 -15 16 -8 3
-15 4 -15 2z"/>
<path d="M1981 734 c0 -11 3 -14 6 -6 3 7 2 16 -1 19 -3 4 -6 -2 -5 -13z"/>
<path d="M1495 730 c-15 -7 -16 -9 -4 -9 9 -1 38 -10 64 -22 34 -15 50 -18 58
-10 8 8 6 11 -6 11 -9 0 -19 -1 -21 -2 -2 -2 -13 5 -23 15 -11 9 -23 14 -26
10 -4 -3 -7 -1 -7 5 0 14 -7 14 -35 2z"/>
<path d="M1933 733 c-8 -3 -7 -11 3 -31 8 -15 14 -33 14 -41 0 -8 2 -12 5 -10
10 10 -10 86 -22 82z"/>
<path d="M2256 713 c7 -31 24 -67 29 -61 8 9 -12 83 -23 86 -9 1 -11 -6 -6
-25z"/>
<path d="M1833 705 c3 -16 9 -52 12 -78 l6 -48 -25 16 c-24 16 -28 16 -60 1
-26 -12 -62 -16 -153 -15 -65 1 -131 5 -146 10 -20 6 -27 5 -24 -4 3 -12 20
-15 159 -35 67 -10 131 -3 172 19 10 6 35 8 56 4 32 -5 44 -15 74 -61 20 -30
40 -54 45 -54 15 0 -15 130 -38 160 -11 16 -21 33 -21 37 -1 4 -15 24 -31 43
l-31 35 5 -30z m84 -146 c3 -16 3 -29 -1 -29 -12 0 -66 106 -66 130 0 22 4 19
31 -23 16 -26 32 -61 36 -78z"/>
<path d="M2921 704 c0 -11 3 -14 6 -6 3 7 2 16 -1 19 -3 4 -6 -2 -5 -13z"/>
<path d="M2577 698 c4 -7 7 -22 5 -33 -1 -17 0 -16 8 3 10 25 6 42 -11 42 -6
0 -7 -6 -2 -12z"/>
<path d="M2967 665 c-9 -19 -22 -35 -27 -35 -6 0 -9 -4 -6 -8 5 -9 -23 -90
-50 -146 -9 -17 -28 -42 -42 -55 -26 -22 -26 -23 -4 -18 13 3 22 2 20 -1 -34
-68 -44 -82 -60 -82 -11 0 -16 -5 -13 -10 4 -6 11 -8 16 -5 12 8 11 -15 -2
-54 -10 -27 -15 -32 -35 -27 -28 7 -31 -2 -8 -19 16 -11 16 -14 -2 -43 -10
-18 -22 -32 -27 -32 -5 0 -6 -9 -2 -19 3 -11 1 -22 -5 -26 -5 -3 -10 -19 -10
-36 0 -16 -5 -29 -12 -29 -9 0 -9 -3 0 -12 17 -17 24 -6 61 92 41 108 116 294
174 431 52 126 78 227 34 134z"/>
<path d="M1710 683 c0 -5 12 -16 26 -27 22 -15 28 -16 35 -5 5 8 9 17 9 22 0
11 -18 8 -22 -4 -3 -8 -10 -6 -20 5 -18 17 -28 21 -28 9z"/>
<path d="M1130 655 c-7 -8 -26 -15 -43 -15 -21 0 -39 -10 -61 -32 -17 -18 -37
-32 -43 -30 -7 2 -13 -2 -13 -8 0 -5 5 -10 12 -10 7 0 5 -7 -5 -18 -9 -10 -19
-38 -22 -62 l-6 -45 27 62 c31 75 90 133 134 133 19 0 29 5 28 13 -3 13 1 13
47 3 19 -5 26 -4 20 2 -20 18 -62 22 -75 7z"/>
<path d="M2302 650 c0 -14 2 -19 5 -12 2 6 2 18 0 25 -3 6 -5 1 -5 -13z"/>
<path d="M1160 630 c20 -13 33 -13 25 0 -3 6 -14 10 -23 10 -15 0 -15 -2 -2
-10z"/>
<path d="M1971 619 c8 -16 14 -18 22 -10 9 9 8 14 -3 21 -24 16 -31 11 -19
-11z"/>
<path d="M1200 620 c0 -5 5 -10 12 -10 19 0 108 -100 108 -121 0 -10 4 -19 10
-19 5 0 12 -12 16 -27 18 -86 29 -123 35 -123 11 0 -1 79 -23 150 -20 64 -37
95 -45 86 -3 -3 -17 8 -33 24 -40 41 -80 61 -80 40z"/>
<path d="M1560 620 c19 -13 30 -13 30 0 0 6 -10 10 -22 10 -19 0 -20 -2 -8
-10z"/>
<path d="M1708 623 c7 -3 16 -2 19 1 4 3 -2 6 -13 5 -11 0 -14 -3 -6 -6z"/>
<path d="M1760 620 c0 -5 5 -10 10 -10 6 0 10 5 10 10 0 6 -4 10 -10 10 -5 0
-10 -4 -10 -10z"/>
<path d="M1600 609 c0 -5 19 -9 42 -9 49 0 47 5 -4 13 -21 3 -38 2 -38 -4z"/>
<path d="M2795 610 c-3 -5 -1 -10 4 -10 6 0 11 5 11 10 0 6 -2 10 -4 10 -3 0
-8 -4 -11 -10z"/>
<path d="M2233 546 c2 -38 15 -36 19 3 2 13 -2 26 -9 28 -8 3 -11 -8 -10 -31z"/>
<path d="M2506 554 c-4 -9 -4 -19 -1 -22 2 -3 7 3 11 12 4 9 4 19 1 22 -2 3
-7 -3 -11 -12z"/>
<path d="M1350 553 c0 -8 24 -32 48 -47 26 -16 10 14 -18 34 -16 12 -30 18
-30 13z"/>
<path d="M1796 548 c7 -11 34 -10 34 1 0 6 -9 9 -19 8 -11 0 -17 -5 -15 -9z"/>
<path d="M2550 540 c0 -5 5 -10 11 -10 5 0 7 5 4 10 -3 6 -8 10 -11 10 -2 0
-4 -4 -4 -10z"/>
<path d="M1520 530 c0 -5 14 -7 31 -5 45 6 47 13 5 13 -20 0 -36 -4 -36 -8z"/>
<path d="M1673 516 c-25 -6 -43 -16 -43 -24 0 -7 -4 -11 -9 -8 -4 3 -18 -3
-31 -14 -19 -16 -24 -17 -36 -5 -8 7 -14 19 -14 26 0 7 -3 9 -7 6 -3 -4 -1
-18 7 -31 16 -31 7 -56 -18 -49 -14 3 -21 -2 -25 -17 -3 -12 -3 -19 0 -16 4 3
12 1 20 -5 8 -8 13 -8 13 -1 0 6 -6 13 -12 16 -7 3 0 3 16 1 16 -2 31 -6 33
-9 3 -3 27 11 54 30 27 19 52 34 57 34 4 0 17 7 28 16 10 8 12 12 4 8 -8 -4
-12 -3 -7 1 4 5 17 10 30 11 12 1 42 7 67 12 25 6 49 8 55 5 6 -4 6 -2 0 5 -6
7 -32 15 -58 18 -39 6 -47 4 -47 -9 0 -9 -5 -19 -12 -23 -6 -4 -9 -3 -6 2 12
19 -17 29 -59 20z m25 -31 c-6 -14 -13 -23 -15 -21 -3 2 -28 -11 -56 -30 -56
-37 -63 -39 -72 -24 -3 5 7 15 22 22 15 7 30 15 33 18 5 5 92 59 97 60 2 0 -3
-11 -9 -25z"/>
<path d="M2431 488 c0 -31 3 -37 8 -24 7 18 3 66 -5 66 -2 0 -4 -19 -3 -42z"/>
<path d="M1462 500 c0 -14 2 -19 5 -12 2 6 2 18 0 25 -3 6 -5 1 -5 -13z"/>
<path d="M1482 500 c0 -14 2 -19 5 -12 2 6 2 18 0 25 -3 6 -5 1 -5 -13z"/>
<path d="M1012 486 c1 -16 9 -32 17 -34 10 -3 11 0 5 9 -5 8 -9 20 -10 27 -5
28 -16 26 -12 -2z"/>
<path d="M1375 480 c4 -14 18 -47 31 -74 28 -57 30 -82 9 -90 -11 -4 -13 -11
-5 -31 17 -43 -16 -179 -50 -210 -11 -10 -20 -29 -20 -42 0 -19 5 -23 28 -22
17 1 21 3 9 6 -26 7 -17 36 13 43 35 9 50 2 50 -25 0 -13 5 -27 12 -31 7 -5 9
-2 5 9 -21 56 -18 83 15 132 19 28 54 62 82 80 46 28 56 30 140 29 50 -1 120
-4 156 -9 60 -7 63 -6 45 8 -12 9 -30 13 -43 10 -18 -4 -21 -2 -16 13 6 16 5
17 -7 6 -18 -17 -40 -15 -33 3 8 20 -10 19 -42 -1 -39 -26 -43 -5 -4 26 19 16
37 27 40 25 3 -2 14 3 25 11 18 14 18 14 -3 14 -22 0 -83 -36 -90 -53 -2 -4
-17 -14 -32 -22 -22 -11 -30 -12 -33 -2 -4 9 -6 9 -6 0 -1 -18 -31 -16 -55 4
-12 10 -15 11 -8 3 16 -19 15 -30 -3 -30 -20 0 -145 62 -145 72 0 11 28 10 35
-1 3 -6 18 -16 34 -24 l29 -14 5 41 c7 50 1 60 -10 17 l-8 -31 -35 18 c-23 11
-36 25 -38 41 -2 13 -8 29 -13 35 -5 6 -23 29 -40 51 -25 32 -30 35 -24 15z
m95 -223 c0 -27 3 -37 9 -28 5 7 6 22 3 34 -5 18 -2 19 24 13 42 -11 49 -22
23 -36 -13 -7 -48 -38 -77 -69 -53 -56 -53 -56 -38 -19 8 21 18 59 21 85 9 64
13 75 25 68 5 -3 10 -25 10 -48z"/>
<path d="M1496 485 c-8 -23 -9 -22 14 -28 17 -4 18 -2 8 16 -15 30 -15 30 -22
12z"/>
<path d="M1550 490 c0 -5 7 -10 15 -10 8 0 15 5 15 10 0 6 -7 10 -15 10 -8 0
-15 -4 -15 -10z"/>
<path d="M2390 463 c0 -20 3 -33 6 -30 11 10 13 67 3 67 -5 0 -9 -16 -9 -37z"/>
<path d="M1106 464 c-3 -7 -17 -16 -31 -20 -14 -3 -25 -10 -25 -15 0 -5 -7 -9
-15 -9 -8 0 -28 -24 -45 -52 -23 -42 -30 -65 -30 -109 0 -38 5 -61 15 -69 9
-7 15 -29 15 -51 0 -37 30 -86 44 -72 3 3 12 0 21 -7 9 -7 18 -10 22 -6 3 3
15 -1 25 -11 10 -9 18 -11 18 -5 0 6 -6 12 -12 15 -11 4 49 37 67 37 3 0 -2
-15 -10 -32 -15 -31 -15 -32 1 -13 16 19 16 19 10 -10 -7 -27 -6 -29 8 -15 13
12 14 23 6 49 -10 36 -6 51 13 51 8 0 12 -20 13 -56 2 -51 8 -73 18 -63 3 2 1
33 -3 68 -6 52 -4 70 11 99 10 20 18 44 18 54 0 10 5 18 11 18 14 0 4 80 -16
127 -18 42 -67 87 -109 100 -27 9 -36 8 -40 -3z m101 -56 c73 -70 70 -191 -6
-266 -50 -49 -106 -72 -146 -59 -36 12 -45 23 -45 58 0 14 -7 34 -15 45 -16
22 -20 100 -5 109 6 3 10 12 10 18 0 7 -4 6 -10 -3 -9 -13 -10 -13 -10 0 0 29
38 77 86 109 59 39 92 36 141 -11z"/>
<path d="M1066 405 c-3 -9 2 -13 15 -12 22 2 25 13 5 20 -8 3 -17 0 -20 -8z"/>
<path d="M1070 362 c0 -12 3 -12 15 -2 8 7 15 13 15 15 0 1 -7 2 -15 2 -8 0
-15 -7 -15 -15z"/>
<path d="M1090 340 c0 -5 5 -10 11 -10 5 0 7 5 4 10 -3 6 -8 10 -11 10 -2 0
-4 -4 -4 -10z"/>
<path d="M1063 309 c-1 -10 2 -19 8 -19 11 0 12 27 1 34 -4 2 -9 -4 -9 -15z"/>
<path d="M1100 285 c0 -8 4 -15 10 -15 5 0 7 7 4 15 -4 8 -8 15 -10 15 -2 0
-4 -7 -4 -15z"/>
<path d="M1133 272 c1 -23 5 -28 15 -20 10 8 10 14 0 27 -7 9 -13 18 -15 20
-1 2 -1 -10 0 -27z"/>
<path d="M1102 210 c-8 -13 -8 -20 -2 -20 6 0 13 7 17 15 9 24 -1 27 -15 5z"/>
<path d="M1107 148 c-10 -11 -15 -23 -11 -26 3 -4 9 -1 11 6 3 6 11 12 19 12
8 0 14 4 14 9 0 19 -15 18 -33 -1z"/>
<path d="M1125 120 c-3 -5 -1 -10 4 -10 6 0 11 5 11 10 0 6 -2 10 -4 10 -3 0
-8 -4 -11 -10z"/>
<path d="M1722 450 c-35 -16 -61 -33 -58 -38 10 -17 106 5 106 25 0 7 7 16 15
19 15 6 21 24 8 24 -5 -1 -36 -14 -71 -30z"/>
<path d="M1471 428 c2 -30 3 -35 6 -15 2 15 9 25 14 22 14 -9 11 5 -6 21 -13
14 -15 11 -14 -28z"/>
<path d="M1870 445 c9 -11 15 -12 20 -5 7 12 40 1 78 -26 13 -10 22 -12 22 -5
0 15 -74 51 -106 51 -23 0 -25 -2 -14 -15z"/>
<path d="M892 413 c-45 -58 -61 -96 -82 -193 -11 -48 -24 -100 -30 -115 -13
-34 -13 -75 0 -75 6 0 18 8 28 18 15 15 20 41 25 121 3 56 9 106 12 111 8 13
72 -30 83 -55 6 -13 7 -2 5 35 -3 30 -5 85 -6 123 0 37 -2 67 -3 67 -1 0 -16
-17 -32 -37z m-7 -80 c-5 -23 -4 -25 9 -14 14 12 16 10 16 -8 0 -18 -3 -20
-19 -11 -28 15 -35 29 -21 45 18 22 23 18 15 -12z"/>
<path d="M1000 440 c0 -5 5 -10 11 -10 5 0 7 5 4 10 -3 6 -8 10 -11 10 -2 0
-4 -4 -4 -10z"/>
<path d="M1820 436 c0 -7 -23 -23 -51 -35 -29 -13 -54 -31 -59 -44 -5 -13 -9
-16 -10 -7 0 10 -9 5 -25 -15 -17 -20 -28 -26 -33 -19 -5 9 -11 8 -20 -2 -14
-15 -13 -16 21 -18 27 -3 49 12 40 27 -3 5 -2 7 3 4 6 -3 29 8 53 24 52 35 84
37 105 7 18 -26 21 -24 29 22 6 32 6 33 -6 12 -10 -17 -15 -20 -25 -10 -7 7
-12 23 -12 38 1 24 1 24 15 6 12 -16 15 -17 15 -4 0 9 -7 19 -16 22 -22 8 -24
8 -24 -8z"/>
<path d="M941 414 c0 -11 3 -14 6 -6 3 7 2 16 -1 19 -3 4 -6 -2 -5 -13z"/>
<path d="M2391 415 c1 -19 18 -51 18 -35 0 8 -4 22 -9 30 -5 8 -9 11 -9 5z"/>
<path d="M2540 400 c6 -11 13 -20 16 -20 2 0 0 9 -6 20 -6 11 -13 20 -16 20
-2 0 0 -9 6 -20z"/>
<path d="M1644 395 c3 -10 -1 -15 -13 -15 -10 0 -24 -7 -31 -15 -7 -8 -19 -15
-27 -15 -20 0 -11 -23 9 -26 11 -1 15 3 11 14 -4 10 -2 13 6 8 6 -4 18 -3 26
4 10 9 16 7 25 -7 11 -17 11 -17 5 1 -3 11 0 23 6 27 14 8 5 39 -12 39 -6 0
-9 -7 -5 -15z"/>
<path d="M1897 393 c-16 -15 -5 -21 27 -16 18 3 43 0 55 -7 13 -6 25 -9 28 -7
3 3 -9 13 -26 21 -31 17 -73 21 -84 9z"/>
<path d="M1292 350 c17 -27 30 -30 37 -8 2 7 0 10 -4 5 -5 -4 -18 1 -29 10
-20 18 -20 18 -4 -7z"/>
<path d="M1488 353 c7 -3 16 -2 19 1 4 3 -2 6 -13 5 -11 0 -14 -3 -6 -6z"/>
<path d="M1400 339 c0 -5 5 -7 10 -4 6 3 10 8 10 11 0 2 -4 4 -10 4 -5 0 -10
-5 -10 -11z"/>
<path d="M2031 320 c13 -16 25 -28 27 -25 7 7 -27 55 -39 55 -5 0 0 -13 12
-30z"/>
<path d="M1975 320 c3 -5 8 -10 11 -10 2 0 4 5 4 10 0 6 -5 10 -11 10 -5 0 -7
-4 -4 -10z"/>
<path d="M1315 300 c-3 -5 -2 -10 4 -10 5 0 13 5 16 10 3 6 2 10 -4 10 -5 0
-13 -4 -16 -10z"/>
<path d="M1345 292 c-16 -10 -32 -18 -34 -19 -2 -1 -1 -9 3 -18 3 -9 11 -13
17 -9 8 5 8 9 -1 14 -8 5 0 12 24 21 20 7 36 17 36 21 0 11 -10 9 -45 -10z"/>
<path d="M2473 290 c1 -11 5 -20 9 -20 11 0 10 28 -1 35 -6 3 -9 -4 -8 -15z"/>
<path d="M1555 290 c3 -5 8 -10 11 -10 2 0 4 5 4 10 0 6 -5 10 -11 10 -5 0 -7
-4 -4 -10z"/>
<path d="M2340 289 c0 -5 5 -7 10 -4 6 3 10 8 10 11 0 2 -4 4 -10 4 -5 0 -10
-5 -10 -11z"/>
<path d="M2134 263 c-5 -28 -11 -32 -50 -38 -42 -6 -57 -19 -32 -27 6 -2 8
-10 4 -17 -6 -8 -11 -9 -21 -1 -15 12 -29 -2 -38 -40 -6 -23 -5 -24 8 -6 8 10
16 24 18 30 2 6 7 8 11 4 4 -3 0 -20 -8 -37 -29 -56 -16 -57 15 -1 34 60 54
80 79 80 11 0 17 -11 18 -36 2 -20 7 -45 12 -55 6 -10 10 -34 10 -53 0 -27 3
-34 15 -30 10 4 15 0 15 -15 0 -12 5 -21 10 -21 13 0 14 -4 -16 86 -14 44 -27
105 -29 138 -4 67 -12 82 -21 39z"/>
<path d="M2305 280 c3 -5 8 -10 11 -10 2 0 4 5 4 10 0 6 -5 10 -11 10 -5 0 -7
-4 -4 -10z"/>
<path d="M1380 260 c0 -11 5 -20 10 -20 6 0 10 9 10 20 0 11 -4 20 -10 20 -5
0 -10 -9 -10 -20z"/>
<path d="M2190 260 c0 -5 -7 -10 -15 -10 -8 0 -15 -5 -15 -11 0 -6 6 -9 14 -6
19 8 38 -16 30 -37 -3 -9 -1 -16 5 -16 6 0 11 14 11 30 0 40 17 38 25 -2 3
-18 13 -62 21 -98 8 -36 17 -75 20 -88 2 -12 8 -22 13 -22 19 0 19 31 0 85
-10 30 -24 78 -30 105 -9 40 -16 52 -41 65 -37 18 -38 18 -38 5z"/>
<path d="M2377 256 c-3 -8 -2 -18 3 -21 13 -8 20 9 11 24 -6 10 -10 9 -14 -3z"/>
<path d="M2485 247 c-4 -11 -3 -23 4 -30 15 -15 19 -7 11 23 -6 22 -8 23 -15
7z"/>
<path d="M2701 244 c0 -11 3 -14 6 -6 3 7 2 16 -1 19 -3 4 -6 -2 -5 -13z"/>
<path d="M860 236 c0 -18 26 -86 34 -86 5 0 -22 91 -29 98 -3 3 -5 -2 -5 -12z"/>
<path d="M1301 224 c0 -11 3 -14 6 -6 3 7 2 16 -1 19 -3 4 -6 -2 -5 -13z"/>
<path d="M1320 210 c0 -19 3 -21 12 -12 9 9 9 15 0 24 -9 9 -12 7 -12 -12z"/>
<path d="M1382 205 c0 -16 2 -22 5 -12 2 9 2 23 0 30 -3 6 -5 -1 -5 -18z"/>
<path d="M2335 220 c-3 -5 -1 -10 4 -10 6 0 11 5 11 10 0 6 -2 10 -4 10 -3 0
-8 -4 -11 -10z"/>
<path d="M1658 203 c6 -2 9 -10 5 -16 -4 -7 1 -6 10 2 9 7 17 9 17 3 0 -5 9
-8 20 -5 31 8 13 23 -28 22 -20 0 -31 -3 -24 -6z"/>
<path d="M1735 180 c-7 -12 25 -16 80 -9 51 6 44 9 -32 14 -24 2 -45 0 -48 -5z"/>
<path d="M930 170 c0 -5 5 -10 10 -10 6 0 10 5 10 10 0 6 -4 10 -10 10 -5 0
-10 -4 -10 -10z"/>
<path d="M1314 158 c9 -42 28 -84 32 -72 3 6 -5 31 -16 55 -14 28 -19 34 -16
17z"/>
<path d="M947 148 c-16 -17 -17 -25 -6 -76 16 -75 29 -88 29 -29 0 26 -4 47
-10 47 -14 0 -12 16 3 32 13 13 16 33 7 41 -3 2 -13 -5 -23 -15z"/>
<path d="M1890 160 c-12 -7 -10 -9 7 -7 12 0 19 5 17 9 -6 10 -6 10 -24 -2z"/>
<path d="M1256 152 c-16 -27 20 -152 44 -152 14 0 12 18 -2 23 -7 2 -14 19
-15 38 -2 54 -18 106 -27 91z"/>
<path d="M1935 150 c-3 -5 -1 -10 4 -10 6 0 11 5 11 10 0 6 -2 10 -4 10 -3 0
-8 -4 -11 -10z"/>
<path d="M2101 144 c0 -11 3 -14 6 -6 3 7 2 16 -1 19 -3 4 -6 -2 -5 -13z"/>
<path d="M1351 134 c0 -11 3 -14 6 -6 3 7 2 16 -1 19 -3 4 -6 -2 -5 -13z"/>
<path d="M1487 117 c-9 -22 11 -117 25 -117 6 0 7 10 3 27 -5 16 -11 46 -14
68 -5 29 -8 35 -14 22z"/>
<path d="M2420 109 c0 -5 5 -7 10 -4 6 3 10 8 10 11 0 2 -4 4 -10 4 -5 0 -10
-5 -10 -11z"/>
<path d="M2222 65 c0 -16 2 -22 5 -12 2 9 2 23 0 30 -3 6 -5 -1 -5 -18z"/>
<path d="M2492 70 c0 -14 2 -19 5 -12 2 6 2 18 0 25 -3 6 -5 1 -5 -13z"/>
<path d="M2550 80 c0 -5 5 -10 10 -10 6 0 10 5 10 10 0 6 -4 10 -10 10 -5 0
-10 -4 -10 -10z"/>
<path d="M1692 60 c0 -14 2 -19 5 -12 2 6 2 18 0 25 -3 6 -5 1 -5 -13z"/>
<path d="M2001 54 c0 -11 3 -14 6 -6 3 7 2 16 -1 19 -3 4 -6 -2 -5 -13z"/>
<path d="M2413 35 c0 -22 2 -30 4 -17 2 12 2 30 0 40 -3 9 -5 -1 -4 -23z"/>
<path d="M742 31 c-7 -18 -7 -31 -2 -31 11 0 25 48 17 56 -2 3 -9 -9 -15 -25z"/>
<path d="M1130 49 c0 -5 5 -7 10 -4 6 3 10 8 10 11 0 2 -4 4 -10 4 -5 0 -10
-5 -10 -11z"/>
<path d="M1001 38 c9 -7 14 -19 12 -25 -3 -7 2 -13 11 -13 23 0 4 44 -20 48
-17 2 -17 1 -3 -10z"/>
<path d="M1050 23 c0 -16 6 -20 26 -17 14 1 29 6 32 10 4 4 0 4 -8 2 -8 -3
-23 1 -32 10 -16 14 -18 13 -18 -5z"/>
<path d="M1621 14 c0 -11 3 -14 6 -6 3 7 2 16 -1 19 -3 4 -6 -2 -5 -13z"/>
<path d="M1405 10 c3 -5 10 -10 16 -10 5 0 9 5 9 10 0 6 -7 10 -16 10 -8 0
-12 -4 -9 -10z"/>
<path d="M2235 10 c-3 -5 -1 -10 4 -10 6 0 11 5 11 10 0 6 -2 10 -4 10 -3 0
-8 -4 -11 -10z"/>
</g>
</svg>
