<?xml version="1.0" standalone="no"?>
<!DOCTYPE svg PUBLIC "-//W3C//DTD SVG 20010904//EN"
 "http://www.w3.org/TR/2001/REC-SVG-20010904/DTD/svg10.dtd">
<svg version="1.0" xmlns="http://www.w3.org/2000/svg"
 width="300.000000pt" height="300.000000pt" viewBox="0 0 300.000000 300.000000"
 preserveAspectRatio="xMidYMid meet">
<metadata>
Created by potrace 1.10, written by Peter Selinger 2001-2011
</metadata>
<g transform="translate(0.000000,300.000000) scale(0.100000,-0.100000)"
fill="#000000" stroke="none">
<path d="M456 2955 c-4 -25 -6 -122 -5 -215 3 -163 2 -171 -19 -190 -12 -11
-29 -46 -38 -78 -15 -51 -105 -188 -176 -266 -30 -33 -20 -39 16 -9 18 15 33
33 32 38 0 6 5 9 12 7 8 -1 11 2 7 8 -3 6 10 29 29 53 20 23 46 55 58 70 17
20 35 30 66 34 23 3 42 10 42 14 0 5 -3 8 -7 8 -33 -5 -74 3 -70 14 5 16 37
16 64 -1 12 -8 28 -12 35 -9 8 2 0 10 -17 18 -16 8 -36 21 -43 29 -12 13 -13
13 -6 0 7 -13 6 -13 -10 -1 -15 13 -16 15 -2 23 9 5 16 15 16 22 0 7 9 21 20
31 11 10 20 13 20 8 0 -6 7 -10 15 -9 19 1 91 -57 135 -109 41 -49 78 -78 61
-48 -18 33 -157 168 -177 171 -25 5 -32 14 -16 19 6 3 12 16 12 29 0 13 5 24
10 24 6 0 10 13 10 28 0 16 3 32 7 36 4 3 7 15 8 25 1 13 -4 17 -17 13 -14 -3
-18 -14 -18 -51 0 -51 -13 -81 -25 -61 -11 18 -18 127 -9 147 10 23 12 73 2
73 -11 0 -10 25 3 54 7 14 17 22 23 19 6 -4 5 0 -2 9 -7 9 -12 20 -11 24 4 24
-3 44 -15 44 -9 0 -16 -17 -20 -45z"/>
<path d="M653 2993 c9 -2 23 -2 30 0 6 3 -1 5 -18 5 -16 0 -22 -2 -12 -5z"/>
<path d="M700 2993 c0 -5 8 -17 17 -28 14 -18 15 -18 9 -2 -3 10 -6 23 -6 28
0 5 -4 9 -10 9 -5 0 -10 -3 -10 -7z"/>
<path d="M752 2980 c-16 -26 -15 -40 3 -40 8 0 12 6 9 14 -3 8 -1 17 5 21 13
7 15 25 3 25 -4 0 -13 -9 -20 -20z"/>
<path d="M807 2980 c-3 -11 -2 -20 3 -20 4 0 10 9 13 20 3 11 2 20 -3 20 -4 0
-10 -9 -13 -20z"/>
<path d="M878 2993 c6 -2 18 -2 25 0 6 3 1 5 -13 5 -14 0 -19 -2 -12 -5z"/>
<path d="M930 2996 c0 -2 7 -9 15 -16 12 -10 15 -10 15 4 0 9 -7 16 -15 16 -8
0 -15 -2 -15 -4z"/>
<path d="M1583 2950 c0 -30 2 -43 4 -27 2 15 2 39 0 55 -2 15 -4 2 -4 -28z"/>
<path d="M2160 2976 c0 -14 5 -28 10 -31 6 -3 10 5 10 19 0 14 -4 28 -10 31
-6 3 -10 -5 -10 -19z"/>
<path d="M526 2974 c-4 -9 -4 -19 -1 -22 2 -3 7 3 11 12 4 9 4 19 1 22 -2 3
-7 -3 -11 -12z"/>
<path d="M1730 2940 c0 -29 3 -50 7 -47 7 8 6 88 -2 95 -3 3 -5 -19 -5 -48z"/>
<path d="M671 2939 c-7 -12 -10 -23 -8 -26 3 -3 11 5 17 17 15 28 8 35 -9 9z"/>
<path d="M775 2931 c-3 -6 -2 -11 4 -11 5 0 11 -8 13 -17 2 -10 6 -13 10 -8 3
6 0 18 -7 28 -8 12 -15 14 -20 8z"/>
<path d="M917 2911 c-4 -17 -3 -21 5 -13 5 5 8 16 6 23 -3 8 -7 3 -11 -10z"/>
<path d="M726 2905 c4 -8 10 -12 15 -9 14 8 10 24 -6 24 -9 0 -12 -6 -9 -15z"/>
<path d="M640 2890 c-9 -6 -10 -10 -3 -10 6 0 15 5 18 10 8 12 4 12 -15 0z"/>
<path d="M1582 2860 c0 -14 2 -19 5 -12 2 6 2 18 0 25 -3 6 -5 1 -5 -13z"/>
<path d="M1733 2810 c0 -41 2 -58 4 -37 2 20 2 54 0 75 -2 20 -4 3 -4 -38z"/>
<path d="M677 2864 c-3 -3 -3 -12 0 -20 6 -15 -21 -47 -31 -36 -4 3 -4 -2 0
-12 7 -18 8 -18 21 0 12 16 13 16 13 -9 0 -19 -5 -27 -17 -27 -14 0 -14 -3 -5
-12 19 -19 32 8 32 70 0 52 -1 57 -13 46z"/>
<path d="M730 2839 c0 -11 4 -18 10 -14 5 3 7 12 3 20 -7 21 -13 19 -13 -6z"/>
<path d="M833 2854 c-7 -3 -21 -20 -32 -37 -17 -28 -18 -42 -11 -117 9 -92 23
-140 41 -140 7 0 9 11 5 33 -29 155 -28 191 6 240 19 26 17 31 -9 21z"/>
<path d="M2166 2825 c-3 -8 -1 -15 4 -15 6 0 10 7 10 15 0 8 -2 15 -4 15 -2 0
-6 -7 -10 -15z"/>
<path d="M597 2824 c-4 -4 -7 -14 -7 -23 0 -11 3 -12 11 -4 6 6 10 16 7 23 -2
6 -7 8 -11 4z"/>
<path d="M858 2814 c-5 -4 -8 -19 -8 -33 1 -23 2 -24 11 -8 11 19 9 53 -3 41z"/>
<path d="M523 2783 c-3 -10 -8 -22 -11 -27 -3 -5 0 -6 5 -3 11 7 25 47 17 47
-3 0 -7 -8 -11 -17z"/>
<path d="M996 2785 c-9 -26 -7 -32 5 -12 6 10 9 21 6 23 -2 3 -7 -2 -11 -11z"/>
<path d="M891 2774 c0 -11 3 -14 6 -6 3 7 2 16 -1 19 -3 4 -6 -2 -5 -13z"/>
<path d="M480 2765 c0 -8 2 -15 4 -15 2 0 6 7 10 15 3 8 1 15 -4 15 -6 0 -10
-7 -10 -15z"/>
<path d="M712 2768 c-18 -18 -15 -32 11 -47 20 -13 21 -13 8 2 -7 9 -11 26 -8
37 6 23 5 24 -11 8z"/>
<path d="M1581 2764 c0 -11 3 -14 6 -6 3 7 2 16 -1 19 -3 4 -6 -2 -5 -13z"/>
<path d="M900 2725 c0 -14 2 -25 4 -25 2 0 6 11 8 25 3 14 1 25 -3 25 -5 0 -9
-11 -9 -25z"/>
<path d="M616 2721 c-4 -7 -5 -15 -2 -18 9 -9 19 4 14 18 -4 11 -6 11 -12 0z"/>
<path d="M1730 2439 c-1 -162 -2 -399 -3 -527 -1 -127 1 -232 6 -232 8 0 8 27
7 610 0 239 -3 436 -5 439 -3 2 -5 -128 -5 -290z"/>
<path d="M840 2701 c0 -11 5 -23 10 -26 6 -4 10 5 10 19 0 14 -4 26 -10 26 -5
0 -10 -9 -10 -19z"/>
<path d="M586 2681 c-4 -7 -5 -15 -2 -18 9 -9 19 4 14 18 -4 11 -6 11 -12 0z"/>
<path d="M656 2635 c3 -6 13 -16 23 -22 16 -10 17 -8 13 12 -2 15 -11 23 -22
22 -10 0 -16 -6 -14 -12z"/>
<path d="M600 2619 c0 -11 4 -18 10 -14 5 3 7 12 3 20 -7 21 -13 19 -13 -6z"/>
<path d="M901 2617 c-15 -19 -2 -29 15 -12 8 7 14 16 14 19 0 11 -17 6 -29 -7z"/>
<path d="M646 2584 c-11 -8 -16 -14 -10 -14 13 0 39 18 34 24 -3 2 -14 -2 -24
-10z"/>
<path d="M863 2523 c-3 -10 -14 -29 -23 -43 -23 -35 -20 -64 8 -68 12 -2 22 1
22 7 0 6 -7 11 -15 11 -8 0 -15 7 -15 16 0 10 6 14 14 11 10 -4 13 -1 9 9 -3
7 0 14 7 14 7 0 10 7 6 16 -4 9 -1 23 5 30 9 11 9 14 0 14 -6 0 -14 -8 -18
-17z"/>
<path d="M965 2531 c-3 -5 -1 -12 5 -16 5 -3 10 1 10 9 0 18 -6 21 -15 7z"/>
<path d="M2653 2480 c0 -25 2 -35 4 -22 2 12 2 32 0 45 -2 12 -4 2 -4 -23z"/>
<path d="M485 2483 c17 -8 38 -22 48 -31 9 -8 17 -12 17 -7 0 4 7 2 15 -5 8
-7 15 -9 15 -4 -1 16 -79 64 -103 64 -20 -1 -19 -2 8 -17z"/>
<path d="M946 2463 c-10 -57 -16 -73 -27 -73 -6 0 -7 5 -4 10 3 6 1 10 -4 10
-17 0 -13 -37 4 -44 18 -7 33 25 42 91 7 53 -2 57 -11 6z"/>
<path d="M2813 2435 c0 -22 2 -30 4 -17 2 12 2 30 0 40 -3 9 -5 -1 -4 -23z"/>
<path d="M800 2450 c0 -5 5 -10 11 -10 5 0 7 5 4 10 -3 6 -8 10 -11 10 -2 0
-4 -4 -4 -10z"/>
<path d="M1980 2431 c-47 -11 -85 -39 -104 -75 -10 -19 -25 -37 -33 -40 -12
-5 -14 -32 -12 -151 1 -81 6 -148 11 -151 4 -3 8 0 8 7 0 7 11 10 30 7 39 -6
38 4 -3 24 -36 17 -45 48 -16 55 9 3 20 14 23 26 7 27 0 35 -8 9 -4 -11 -14
-23 -23 -26 -13 -5 -15 0 -9 36 4 23 12 48 18 55 5 7 8 20 4 28 -4 11 -2 14 7
9 6 -4 4 2 -5 13 -22 24 -23 39 -2 47 17 7 54 -10 54 -24 0 -6 5 -10 10 -10 7
0 7 6 0 20 -9 16 -8 20 5 20 20 0 40 -49 25 -64 -7 -7 -10 -6 -10 5 -1 10 -5
9 -15 -5 -8 -11 -15 -16 -15 -12 0 5 -7 3 -15 -4 -21 -18 -19 -40 5 -40 11 0
20 6 20 14 0 22 13 27 80 30 47 2 60 0 56 -10 -3 -7 -1 -16 4 -19 5 -3 8 -26
7 -50 -1 -27 3 -49 10 -53 15 -9 37 -146 28 -170 -4 -11 -3 -14 4 -7 13 13 18
134 6 143 -14 10 -35 49 -35 66 0 7 7 19 15 26 9 7 14 19 11 25 -2 7 2 22 10
34 14 19 13 20 -2 14 -12 -4 -15 -3 -10 5 8 13 3 14 -61 16 -24 1 -43 -2 -43
-5 0 -3 -7 -6 -15 -6 -19 0 -19 5 -1 23 9 9 17 10 21 4 3 -5 12 -10 18 -10 7
0 4 7 -5 14 -10 7 -18 18 -18 25 0 6 -4 11 -10 11 -5 0 -7 -7 -4 -15 9 -22
-22 -19 -32 3 -4 9 -7 20 -6 23 1 4 -8 15 -18 24 -28 25 -25 45 6 45 18 0 25
-4 21 -14 -3 -8 0 -17 8 -20 16 -6 17 35 0 47 -5 4 1 6 14 4 24 -4 60 -42 61
-64 0 -6 5 -15 11 -19 6 -4 9 1 7 12 -3 21 2 24 32 24 11 0 20 -4 20 -10 0 -5
-6 -9 -12 -7 -7 1 -14 -9 -15 -23 -2 -21 -1 -22 5 -6 8 19 9 19 17 0 4 -10 7
-23 6 -27 -1 -5 3 -6 8 -3 20 13 30 -55 11 -79 -17 -23 -18 -97 -1 -144 17
-49 17 -49 28 -23 13 29 20 158 10 168 -3 3 -3 21 0 40 6 34 -12 94 -27 94 -5
0 -11 -8 -13 -17 -3 -10 -5 -5 -4 11 2 26 -6 35 -53 67 -58 40 -60 40 -100 30z
m84 -56 c-4 -8 -8 -15 -10 -15 -2 0 -4 7 -4 15 0 8 4 15 10 15 5 0 7 -7 4 -15z
m-129 -42 c16 -13 17 -15 3 -10 -10 4 -18 2 -18 -3 0 -6 -7 -10 -15 -10 -15 0
-21 21 -8 33 9 10 16 8 38 -10z m168 -103 c3 -11 1 -20 -4 -20 -5 0 -9 9 -9
20 0 11 2 20 4 20 2 0 6 -9 9 -20z m57 -110 c0 -22 -4 -28 -16 -23 -8 3 -13
12 -10 20 3 8 6 19 6 24 0 5 5 9 10 9 6 0 10 -13 10 -30z"/>
<path d="M541 2413 c8 -10 20 -24 26 -31 7 -7 29 -46 50 -87 20 -41 43 -77 50
-80 8 -2 12 -1 10 3 -3 4 -19 39 -36 77 -18 39 -46 85 -64 103 -32 33 -60 45
-36 15z"/>
<path d="M798 2375 c-10 -13 -18 -30 -18 -37 0 -8 -5 -19 -11 -25 -6 -6 -7
-13 -2 -16 5 -3 18 11 28 31 11 20 24 40 30 44 6 5 6 10 0 17 -7 6 -16 1 -27
-14z"/>
<path d="M860 2385 c-7 -8 -8 -15 -2 -15 5 0 15 7 22 15 7 8 8 15 2 15 -5 0
-15 -7 -22 -15z"/>
<path d="M1552 2370 c0 -19 2 -27 5 -17 2 9 2 25 0 35 -3 9 -5 1 -5 -18z"/>
<path d="M2000 2391 c0 -5 5 -13 10 -16 6 -3 10 -2 10 4 0 5 -4 13 -10 16 -5
3 -10 2 -10 -4z"/>
<path d="M876 2343 c6 -24 -19 -69 -35 -65 -15 3 -41 -16 -41 -30 0 -6 17 -7
43 -3 41 7 72 23 63 33 -3 2 1 14 9 26 19 26 19 40 1 33 -8 -3 -17 1 -20 9 -8
20 -25 17 -20 -3z"/>
<path d="M1960 2346 c0 -2 7 -9 15 -16 9 -7 15 -8 15 -2 0 5 -7 12 -15 16 -8
3 -15 4 -15 2z"/>
<path d="M2007 2336 c-4 -10 -1 -13 8 -9 8 3 12 9 9 14 -7 12 -11 11 -17 -5z"/>
<path d="M835 2330 c3 -5 11 -10 16 -10 6 0 7 5 4 10 -3 6 -11 10 -16 10 -6 0
-7 -4 -4 -10z"/>
<path d="M1546 2303 c-6 -14 -5 -15 5 -6 7 7 10 15 7 18 -3 3 -9 -2 -12 -12z"/>
<path d="M701 2263 c11 -26 24 -77 29 -113 4 -36 18 -84 29 -107 12 -23 21
-56 21 -73 0 -20 4 -29 11 -25 6 4 8 13 5 21 -3 7 -1 16 4 19 5 3 12 30 16 61
7 56 -3 83 -26 69 -8 -5 -6 -11 5 -19 19 -14 17 -47 -2 -54 -9 -2 -13 7 -13
28 0 17 -4 29 -9 25 -6 -3 -15 3 -20 14 -14 25 -14 42 0 19 5 -10 14 -18 19
-18 14 0 12 33 -4 55 -7 11 -16 33 -20 48 -7 31 -47 97 -58 97 -4 0 2 -21 13
-47z"/>
<path d="M2040 2296 c0 -7 14 -16 32 -20 43 -9 44 -3 3 17 -28 13 -35 14 -35
3z"/>
<path d="M1870 2286 c0 -9 5 -16 10 -16 6 0 10 4 10 9 0 6 -4 13 -10 16 -5 3
-10 -1 -10 -9z"/>
<path d="M2653 2260 c0 -25 2 -35 4 -22 2 12 2 32 0 45 -2 12 -4 2 -4 -23z"/>
<path d="M403 2214 c-13 -9 -12 -12 3 -25 11 -8 15 -9 10 -1 -6 11 5 17 27 13
4 0 7 4 7 10 0 5 4 8 8 5 4 -2 14 -1 21 3 8 5 -2 8 -24 7 -21 0 -44 -6 -52
-12z"/>
<path d="M492 2175 c-33 -41 -102 -187 -102 -213 0 -12 -4 -22 -9 -22 -4 0 -8
-10 -7 -22 1 -13 -9 -51 -21 -85 -19 -52 -20 -63 -8 -63 13 0 21 25 16 53 0 4
4 7 9 7 6 0 10 11 10 24 0 14 5 28 10 31 6 3 10 16 10 27 0 24 80 211 92 216
4 2 8 10 8 17 0 7 5 15 11 17 6 2 10 12 8 23 -4 17 -7 16 -27 -10z"/>
<path d="M1540 2193 c0 -4 5 -15 10 -23 8 -13 10 -13 10 2 0 9 -4 20 -10 23
-5 3 -10 3 -10 -2z"/>
<path d="M380 2186 c0 -2 8 -10 18 -17 15 -13 16 -12 3 4 -13 16 -21 21 -21
13z"/>
<path d="M566 2175 c-3 -8 -1 -15 4 -15 6 0 10 7 10 15 0 8 -2 15 -4 15 -2 0
-6 -7 -10 -15z"/>
<path d="M601 2160 c-7 -17 -10 -34 -7 -37 3 -4 6 1 6 10 0 8 5 17 11 19 6 2
10 12 8 21 -3 13 -7 10 -18 -13z"/>
<path d="M176 2150 c-20 -22 -154 -267 -161 -293 -3 -12 4 -5 15 16 11 20 23
37 26 37 6 0 -5 -80 -12 -92 -3 -5 -1 -8 4 -8 9 0 24 62 26 107 1 12 10 29 21
37 11 9 16 16 11 16 -5 0 -3 7 4 15 7 8 9 15 5 15 -5 0 -1 8 8 18 8 9 15 21
15 25 -1 21 55 108 67 103 7 -2 16 1 19 9 7 19 -31 15 -48 -5z"/>
<path d="M244 2138 c-10 -33 -11 -142 -2 -188 3 -14 13 -56 22 -93 9 -38 13
-79 10 -92 -8 -32 3 -50 22 -34 11 9 14 8 14 -4 0 -9 -5 -19 -10 -22 -6 -4 -7
-12 -3 -18 7 -11 12 -61 16 -164 1 -24 5 -43 10 -43 12 0 6 220 -8 265 -9 28
-13 33 -14 18 -1 -13 -6 -23 -12 -23 -7 0 -9 8 -4 23 9 32 9 34 -10 117 -22
98 -28 137 -28 180 1 36 10 87 19 102 3 4 1 8 -4 8 -5 0 -13 -15 -18 -32z"/>
<path d="M420 2159 c0 -5 5 -7 10 -4 6 3 10 8 10 11 0 2 -4 4 -10 4 -5 0 -10
-5 -10 -11z"/>
<path d="M288 2134 c3 -15 8 -21 12 -14 5 8 11 6 20 -5 7 -8 8 -15 3 -15 -5 0
-9 -9 -10 -20 -1 -11 3 -20 8 -20 6 0 8 4 4 9 -3 6 1 16 8 23 12 10 10 17 -14
40 -34 35 -38 35 -31 2z"/>
<path d="M1978 2143 c-28 -7 -21 -21 7 -15 14 2 22 8 19 13 -3 5 -6 8 -7 8 -1
-1 -10 -3 -19 -6z"/>
<path d="M383 2116 c-12 -13 -20 -26 -17 -28 2 -3 -2 -29 -10 -59 -23 -90 -29
-139 -17 -139 6 0 11 11 11 24 0 13 9 54 20 90 12 37 18 71 15 76 -3 5 2 21
11 35 21 32 14 32 -13 1z"/>
<path d="M201 2114 c0 -11 3 -14 6 -6 3 7 2 16 -1 19 -3 4 -6 -2 -5 -13z"/>
<path d="M571 2104 c0 -11 3 -14 6 -6 3 7 2 16 -1 19 -3 4 -6 -2 -5 -13z"/>
<path d="M551 2098 c0 -10 -5 -18 -11 -18 -5 0 -10 -9 -10 -21 0 -11 -4 -17
-10 -14 -9 5 -12 -1 -9 -21 0 -4 -3 -10 -9 -13 -5 -3 -12 -19 -16 -36 -6 -28
-5 -29 9 -11 8 10 12 23 9 27 -3 5 -1 9 4 9 14 0 54 79 49 98 -4 16 -5 16 -6
0z"/>
<path d="M277 2055 c-4 -8 -3 -16 1 -19 4 -3 9 4 9 15 2 23 -3 25 -10 4z"/>
<path d="M1958 2059 c-10 -5 -18 -16 -18 -24 0 -11 5 -11 31 2 19 10 44 13 66
10 29 -5 33 -4 23 8 -14 17 -76 19 -102 4z"/>
<path d="M1547 2046 c-4 -9 -2 -16 3 -16 6 0 10 -5 10 -11 0 -5 -4 -7 -10 -4
-5 3 -10 1 -10 -4 0 -6 5 -11 11 -11 6 0 9 -7 5 -15 -3 -8 -1 -15 4 -15 12 0
13 60 1 78 -7 11 -9 11 -14 -2z"/>
<path d="M1976 2025 c-19 -19 -14 -48 13 -80 42 -51 51 -56 51 -27 0 9 -8 22
-18 29 -13 7 -18 21 -17 42 2 42 7 44 38 15 18 -17 27 -20 27 -11 0 35 -68 58
-94 32z"/>
<path d="M2177 2003 c6 -34 5 -37 -9 -25 -21 17 -35 -3 -17 -24 10 -12 10 -17
1 -23 -7 -4 -14 -16 -16 -27 -2 -10 -7 -32 -12 -49 l-7 -30 22 19 c17 15 20
27 16 48 -4 18 -2 28 5 28 6 0 8 -4 5 -10 -3 -5 -1 -10 5 -10 7 0 10 7 7 15
-4 8 -2 17 3 20 13 8 13 105 1 105 -6 0 -7 -17 -4 -37z"/>
<path d="M1850 2005 c-15 -19 -7 -129 16 -218 16 -63 8 -91 -18 -69 -9 7 -18
7 -31 -3 -15 -11 -12 -12 28 -10 l45 3 -21 -29 c-21 -29 -30 -34 -42 -22 -4 3
1 12 11 19 19 15 5 19 -17 5 -10 -6 -10 -13 -2 -29 11 -21 6 -52 -10 -52 -4 0
-6 8 -3 18 5 14 4 14 -4 2 -6 -8 -9 -17 -6 -21 2 -4 -7 -10 -21 -13 -28 -7
-34 -35 -7 -32 9 0 17 -5 16 -11 -5 -59 -5 -59 -14 -38 -9 20 -9 20 -9 0 -1
-17 -3 -18 -12 -5 -8 12 -10 12 -7 -5 4 -26 78 -36 78 -11 0 9 5 16 10 16 6 0
10 -9 10 -20 0 -13 9 -22 26 -26 21 -5 24 -11 20 -29 -7 -28 2 -57 16 -49 5 3
16 -2 24 -12 15 -18 15 -18 10 -1 -3 10 -6 23 -6 28 0 4 -6 6 -14 3 -22 -9
-28 24 -6 36 11 6 20 17 20 25 0 7 12 16 28 18 15 3 0 4 -33 4 -56 -2 -60 0
-58 19 2 14 -4 24 -15 26 -24 6 -42 -1 -42 -17 0 -8 -5 -17 -11 -21 -8 -5 -9
5 -4 34 5 33 3 42 -12 51 -17 10 -17 10 0 11 9 0 26 9 37 20 11 11 22 20 25
20 3 0 11 0 19 0 8 0 21 20 30 48 14 40 14 54 2 97 -7 28 -11 56 -8 64 3 8 0
11 -7 7 -17 -11 -13 23 4 41 9 8 19 13 22 9 4 -3 2 -11 -4 -17 -12 -12 4 -56
25 -64 14 -5 17 26 2 41 -5 5 -10 42 -11 82 -1 59 -5 75 -20 82 -24 14 -34 12
-49 -5z m50 -15 c0 -5 -5 -10 -11 -10 -5 0 -7 5 -4 10 3 6 8 10 11 10 2 0 4
-4 4 -10z m-23 -35 c0 -8 -4 -15 -8 -15 -4 0 -9 7 -13 15 -3 9 0 15 8 15 7 0
13 -7 13 -15z m28 -34 c3 -6 -4 -15 -15 -21 -20 -11 -21 -10 -10 9 12 23 16
25 25 12z m-38 -287 c-3 -3 -12 -4 -19 -1 -8 3 -5 6 6 6 11 1 17 -2 13 -5z"/>
<path d="M200 1983 c0 -4 5 -15 10 -23 8 -13 10 -13 10 2 0 9 -4 20 -10 23 -5
3 -10 3 -10 -2z"/>
<path d="M280 1980 c0 -5 5 -10 11 -10 5 0 7 5 4 10 -3 6 -8 10 -11 10 -2 0
-4 -4 -4 -10z"/>
<path d="M766 1915 c3 -16 7 -43 9 -60 3 -16 6 -87 7 -157 2 -80 6 -121 12
-111 14 26 1 283 -17 323 -16 34 -16 34 -11 5z"/>
<path d="M1540 1906 c0 -13 5 -28 12 -32 8 -5 9 -2 5 10 -4 11 -3 15 4 10 7
-4 10 1 7 11 -5 29 -28 30 -28 1z"/>
<path d="M1975 1884 c4 -11 10 -27 12 -36 9 -31 21 -19 14 14 -4 17 -13 34
-20 36 -10 3 -12 0 -6 -14z"/>
<path d="M312 1834 c-1 -24 1 -44 5 -44 5 0 8 10 9 23 0 12 4 29 8 38 4 10 2
18 -7 22 -10 4 -14 -6 -15 -39z"/>
<path d="M1936 1872 c-3 -6 -1 -14 5 -17 15 -10 25 3 12 16 -7 7 -13 7 -17 1z"/>
<path d="M468 1863 c7 -3 16 -2 19 1 4 3 -2 6 -13 5 -11 0 -14 -3 -6 -6z"/>
<path d="M458 1843 c7 -3 16 -2 19 1 4 3 -2 6 -13 5 -11 0 -14 -3 -6 -6z"/>
<path d="M2080 1833 c0 -5 8 -19 17 -32 9 -14 11 -21 4 -17 -8 5 -11 3 -10 -5
6 -28 -22 -86 -56 -119 -23 -23 -35 -29 -35 -19 0 9 -6 16 -14 16 -10 0 -12
-15 -8 -66 2 -36 9 -75 15 -85 5 -11 12 -72 14 -135 3 -64 9 -131 15 -150 13
-41 107 -183 117 -176 11 6 -7 -112 -20 -137 -12 -23 -16 -204 -5 -215 9 -9
26 16 26 37 0 13 -1 13 -11 0 -8 -11 -9 -2 -4 35 3 28 8 73 10 100 2 28 8 76
12 108 l8 58 27 -28 c27 -28 27 -29 13 -82 -8 -30 -12 -57 -10 -61 2 -3 -7
-19 -21 -35 -13 -15 -21 -31 -18 -34 4 -3 9 0 11 7 3 6 13 12 23 12 10 0 20 4
22 8 2 5 18 12 36 15 26 5 32 3 33 -11 0 -14 2 -14 9 3 12 28 12 35 -2 32 -7
-1 -12 6 -10 15 5 31 -17 60 -41 54 -12 -3 -17 -3 -10 0 7 3 9 12 6 20 -3 9 0
13 8 11 8 -2 11 -2 7 0 -12 7 -9 33 3 30 6 -1 13 6 14 16 3 15 1 16 -13 5 -9
-7 -13 -8 -9 -2 4 7 0 27 -9 45 l-15 34 5 -35 6 -35 -22 25 -21 25 5 -28 c4
-22 3 -25 -8 -16 -21 17 -17 27 24 64 25 24 32 35 21 35 -19 0 -30 32 -18 51
5 8 9 31 9 51 0 27 6 40 20 48 17 9 20 8 20 -7 0 -15 2 -16 10 -3 6 10 6 16 0
18 -6 2 -10 8 -10 14 0 6 8 7 17 4 16 -6 15 -5 -1 12 -15 18 -15 21 -1 35 17
17 20 37 6 37 -5 0 -12 8 -14 18 -4 13 -5 11 -6 -5 0 -13 5 -23 12 -24 6 0 2
-5 -9 -11 -13 -6 -21 -19 -21 -34 0 -38 -30 -64 -75 -64 -38 0 -43 -5 -32 -34
8 -20 34 -21 34 -2 0 20 13 27 30 16 12 -7 12 -12 -3 -28 -19 -21 -22 -42 -6
-42 8 0 8 -4 0 -14 -10 -11 -10 -20 -1 -37 8 -14 8 -19 1 -15 -6 4 -13 -5 -17
-21 -7 -25 -8 -25 -15 -8 -4 11 -8 14 -8 8 -1 -7 -6 -13 -12 -13 -5 0 -7 5 -4
10 3 6 1 10 -6 10 -7 0 -5 6 6 13 17 13 17 14 -6 22 -13 4 -27 7 -31 6 -11 -1
-10 16 1 37 14 28 22 84 11 77 -6 -3 -10 -2 -10 4 0 5 5 13 10 16 6 4 8 10 5
15 -3 4 9 7 26 6 16 -1 32 1 35 6 3 4 -9 8 -25 8 -17 0 -31 5 -31 10 0 6 6 10
13 10 8 0 7 4 -3 10 -12 8 -13 13 -2 30 7 12 8 20 2 20 -5 0 -10 5 -10 10 0 6
6 10 14 10 9 0 12 8 8 25 -2 13 -1 33 3 42 8 18 10 32 13 90 1 17 8 38 16 45
8 9 11 20 6 29 -9 16 -7 49 3 66 4 6 2 15 -3 18 -6 4 -10 17 -9 28 3 39 -1 67
-8 67 -5 0 -6 -30 -5 -66 4 -70 -10 -170 -33 -244 -8 -25 -16 -67 -19 -95 -2
-27 -7 -63 -10 -80 -3 -16 -9 -46 -12 -65 -9 -51 -15 -56 -30 -21 -14 34 -10
96 8 119 10 11 9 17 -3 26 -9 6 -14 21 -13 33 2 12 -1 25 -6 28 -6 3 -10 11
-10 16 0 6 4 8 9 5 5 -3 8 2 7 12 0 9 -7 21 -14 25 -8 5 -12 28 -11 61 2 46 6
55 30 72 15 10 26 21 23 25 -2 4 -1 9 4 11 12 5 52 95 52 118 0 12 -4 18 -10
15 -5 -3 -10 1 -10 9 0 8 -4 18 -10 21 -5 3 -10 2 -10 -2z m0 -644 c0 -11 -4
-18 -10 -14 -5 3 -7 12 -3 20 7 21 13 19 13 -6z m164 -291 c-4 -7 -9 -21 -9
-30 -1 -10 -4 -21 -8 -24 -9 -9 -28 6 -22 17 4 5 1 9 -6 9 -7 0 -9 3 -6 6 4 4
14 1 23 -7 16 -13 16 -12 6 8 -16 28 -15 31 6 35 22 5 26 2 16 -14z"/>
<path d="M1550 1824 c-1 -5 -2 -36 -4 -69 -1 -33 -1 -54 2 -46 3 10 6 10 12 2
4 -7 6 15 4 49 -1 34 -5 64 -8 67 -3 4 -6 2 -6 -3z"/>
<path d="M1994 1795 c-4 -17 -10 -23 -18 -17 -6 5 -23 12 -38 14 -31 6 -45
-14 -22 -32 8 -7 14 -9 15 -4 0 5 6 -7 13 -26 10 -26 19 -36 39 -38 36 -4 34
15 -3 36 -36 20 -41 47 -7 37 12 -4 28 -14 36 -24 12 -14 13 -13 6 9 -4 14 -7
35 -7 48 0 29 -6 28 -14 -3z"/>
<path d="M2170 1795 c0 -5 18 -50 39 -95 11 -25 18 -78 22 -185 3 -82 6 -138
7 -123 1 15 6 29 11 32 12 8 20 56 13 75 -5 11 -9 4 -13 -19 l-6 -35 -2 38
c-1 26 4 40 15 44 13 5 13 7 2 14 -10 7 -9 9 5 9 9 0 17 -5 17 -11 0 -6 7 -9
15 -6 8 4 24 -6 38 -22 l24 -29 1 29 c0 16 -2 28 -6 28 -20 -3 -27 3 -28 26
-1 14 2 22 7 19 5 -3 9 -14 9 -25 0 -19 19 -22 32 -4 13 17 9 22 -30 42 -28
13 -47 17 -67 11 -16 -4 -30 -6 -32 -4 -2 1 -4 26 -5 54 -1 29 -6 52 -10 52
-4 0 -7 3 -6 8 2 4 -8 24 -20 45 -22 34 -32 45 -32 32z m100 -209 c0 -8 -7
-16 -15 -20 -9 -3 -15 0 -15 10 0 8 5 12 10 9 6 -3 10 -1 10 4 0 6 2 11 5 11
3 0 5 -6 5 -14z m40 -26 c0 -5 -2 -10 -4 -10 -3 0 -8 5 -11 10 -3 6 -1 10 4
10 6 0 11 -4 11 -10z"/>
<path d="M335 1750 c-3 -5 -1 -10 4 -10 6 0 11 5 11 10 0 6 -2 10 -4 10 -3 0
-8 -4 -11 -10z"/>
<path d="M538 1723 c7 -3 16 -2 19 1 4 3 -2 6 -13 5 -11 0 -14 -3 -6 -6z"/>
<path d="M1921 1700 c-1 -20 -5 -40 -11 -46 -5 -5 -6 -14 -2 -21 5 -8 13 -7
27 4 13 10 16 17 8 20 -7 2 -10 10 -7 17 3 7 0 23 -5 37 -9 22 -10 22 -10 -11z"/>
<path d="M1780 1680 c-8 -5 -12 -11 -9 -14 2 -3 11 -1 19 4 8 5 12 11 9 14 -2
3 -11 1 -19 -4z"/>
<path d="M2100 1679 c0 -5 5 -7 10 -4 6 3 10 8 10 11 0 2 -4 4 -10 4 -5 0 -10
-5 -10 -11z"/>
<path d="M508 1673 c7 -3 16 -2 19 1 4 3 -2 6 -13 5 -11 0 -14 -3 -6 -6z"/>
<path d="M1560 1644 c0 -21 -4 -33 -10 -29 -6 4 -10 -12 -10 -40 0 -32 4 -44
11 -39 8 5 10 -3 5 -27 -8 -35 -8 -133 -1 -169 2 -11 0 -20 -4 -20 -5 0 -11
-11 -13 -24 -3 -17 -1 -23 8 -19 7 3 14 -5 17 -19 2 -13 5 77 6 200 0 122 -1
222 -4 222 -3 0 -5 -16 -5 -36z"/>
<path d="M2328 1658 c5 -5 16 -8 23 -6 8 3 3 7 -10 11 -17 4 -21 3 -13 -5z"/>
<path d="M2250 1646 c0 -8 5 -18 10 -21 6 -3 10 3 10 14 0 12 -4 21 -10 21 -5
0 -10 -6 -10 -14z"/>
<path d="M150 1639 c0 -8 7 -24 15 -35 19 -25 19 -14 0 22 -8 16 -15 22 -15
13z"/>
<path d="M2100 1635 c0 -8 -4 -15 -8 -15 -4 0 -6 -16 -4 -36 5 -43 11 -39 17
11 3 20 8 41 11 46 3 5 0 9 -5 9 -6 0 -11 -7 -11 -15z"/>
<path d="M2371 1634 c0 -11 3 -14 6 -6 3 7 2 16 -1 19 -3 4 -6 -2 -5 -13z"/>
<path d="M2209 1623 c-1 -10 -1 -22 0 -27 1 -5 -1 -16 -5 -25 -4 -9 -8 -28
-10 -42 -2 -14 -13 -48 -24 -75 l-21 -48 22 19 c22 20 22 20 10 -2 -13 -26
-14 -43 -2 -43 10 0 24 38 21 59 -1 8 4 18 12 22 11 7 11 9 -1 9 -9 0 -10 4
-4 13 11 13 18 157 9 157 -4 0 -7 -8 -7 -17z"/>
<path d="M3 1560 c0 -41 2 -58 4 -37 2 20 2 54 0 75 -2 20 -4 3 -4 -38z"/>
<path d="M1932 1617 c-11 -13 -11 -23 -2 -54 7 -21 16 -42 21 -47 10 -11 10
43 0 88 -5 26 -7 27 -19 13z"/>
<path d="M398 1613 c7 -3 16 -2 19 1 4 3 -2 6 -13 5 -11 0 -14 -3 -6 -6z"/>
<path d="M1676 1598 c-7 -13 -16 -57 -19 -98 -3 -41 -8 -82 -12 -91 -3 -9 6
-30 23 -52 37 -46 59 -119 45 -150 -14 -31 -5 -88 17 -112 17 -18 18 -25 8
-60 -7 -22 -12 -97 -12 -167 0 -93 -3 -124 -12 -118 -6 6 -14 7 -18 3 -4 -4
-4 0 -1 9 4 9 2 19 -4 23 -6 3 -11 -1 -11 -11 0 -21 57 -87 65 -74 3 6 3 14 0
20 -11 18 14 10 27 -8 7 -11 23 -24 35 -30 17 -9 22 -9 27 4 5 12 1 14 -16 9
l-21 -7 22 31 c12 17 18 31 12 31 -6 0 -15 -9 -21 -21 -7 -11 -14 -18 -17 -15
-3 3 16 47 42 98 43 86 46 97 40 143 -6 47 -5 49 10 30 14 -16 16 -17 11 -3
-3 10 0 17 6 15 6 -1 13 4 15 11 4 9 -2 11 -20 7 -24 -7 -25 -6 -17 37 5 24
14 56 20 70 9 19 9 39 1 77 -6 29 -11 77 -11 107 0 34 -4 53 -10 49 -13 -8
-13 -73 2 -150 10 -56 9 -68 -7 -102 -14 -28 -18 -60 -18 -118 1 -83 3 -77
-67 -215 -4 -8 -14 -16 -23 -18 -17 -4 -23 16 -33 122 -5 55 -4 67 6 61 10 -6
12 -2 7 15 -9 33 3 86 15 68 7 -9 8 -4 4 14 -3 15 -2 30 4 33 5 3 10 16 10 27
0 11 8 27 18 34 14 10 15 15 5 25 -7 7 -13 20 -13 29 0 8 -9 21 -20 28 -25 15
-25 15 0 -32 10 -22 17 -43 14 -48 -8 -13 -36 13 -30 28 3 7 1 16 -4 19 -15 9
-12 -23 6 -56 21 -41 12 -48 -15 -11 -15 22 -19 38 -14 66 6 36 -14 175 -26
186 -24 21 -42 188 -19 174 7 -5 7 0 0 12 -8 14 -6 25 10 46 10 15 15 28 9 28
-6 0 -17 -10 -25 -22z m4 -208 c0 -5 -5 -10 -11 -10 -5 0 -7 5 -4 10 3 6 8 10
11 10 2 0 4 -4 4 -10z"/>
<path d="M1719 1613 c0 -7 -4 -23 -9 -48 -7 -30 1 -38 16 -17 12 18 13 26 4
37 -9 11 -9 15 -1 15 6 0 11 5 11 10 0 11 -20 14 -21 3z"/>
<path d="M545 1600 c-3 -5 -1 -10 4 -10 6 0 11 5 11 10 0 6 -2 10 -4 10 -3 0
-8 -4 -11 -10z"/>
<path d="M1876 1585 c-6 -15 -9 -17 -16 -6 -10 17 -38 8 -46 -14 -8 -20 4 -34
15 -17 4 7 14 10 23 7 17 -7 42 18 36 37 -3 7 -7 5 -12 -7z"/>
<path d="M2400 1589 c0 -5 5 -7 10 -4 6 3 10 8 10 11 0 2 -4 4 -10 4 -5 0 -10
-5 -10 -11z"/>
<path d="M2436 1584 c-20 -19 -20 -31 -2 -31 8 0 12 6 9 13 -7 20 14 26 31 8
9 -8 16 -11 16 -5 0 6 -9 15 -19 21 -15 7 -23 6 -35 -6z"/>
<path d="M2170 1579 c0 -5 5 -7 10 -4 6 3 10 8 10 11 0 2 -4 4 -10 4 -5 0 -10
-5 -10 -11z"/>
<path d="M180 1570 c0 -6 7 -10 15 -10 8 0 15 2 15 4 0 2 -7 6 -15 10 -8 3
-15 1 -15 -4z"/>
<path d="M548 1573 c7 -3 16 -2 19 1 4 3 -2 6 -13 5 -11 0 -14 -3 -6 -6z"/>
<path d="M1760 1540 c0 -5 5 -10 10 -10 6 0 10 5 10 10 0 6 -4 10 -10 10 -5 0
-10 -4 -10 -10z"/>
<path d="M2430 1530 c0 -5 5 -10 11 -10 5 0 7 5 4 10 -3 6 -8 10 -11 10 -2 0
-4 -4 -4 -10z"/>
<path d="M2480 1532 c0 -5 7 -17 16 -28 14 -17 15 -17 10 -1 -3 10 -6 23 -6
28 0 5 -4 9 -10 9 -5 0 -10 -4 -10 -8z"/>
<path d="M231 1514 c0 -11 3 -14 6 -6 3 7 2 16 -1 19 -3 4 -6 -2 -5 -13z"/>
<path d="M800 1518 c-2 -10 -4 -22 -5 -28 -1 -5 -3 -16 -4 -24 0 -8 -8 -22
-17 -30 -8 -9 -11 -16 -6 -16 4 0 6 -15 4 -32 -5 -37 5 -35 12 3 2 13 5 25 7
27 8 10 21 92 16 104 -4 9 -6 7 -7 -4z"/>
<path d="M1917 1514 c6 -15 23 -19 23 -5 0 5 -7 11 -14 14 -10 4 -13 1 -9 -9z"/>
<path d="M2370 1520 c0 -3 5 -11 12 -18 9 -9 9 -12 -1 -12 -7 0 -9 -5 -5 -11
4 -8 12 -3 20 12 18 32 17 35 -6 35 -11 0 -20 -3 -20 -6z"/>
<path d="M1702 1458 c-2 -34 -1 -60 1 -58 9 10 18 120 10 120 -4 0 -9 -28 -11
-62z"/>
<path d="M275 1500 c3 -5 8 -10 11 -10 2 0 4 5 4 10 0 6 -5 10 -11 10 -5 0 -7
-4 -4 -10z"/>
<path d="M502 1480 c0 -19 2 -27 5 -17 2 9 2 25 0 35 -3 9 -5 1 -5 -18z"/>
<path d="M158 1493 c7 -3 16 -2 19 1 4 3 -2 6 -13 5 -11 0 -14 -3 -6 -6z"/>
<path d="M245 1489 c-4 -6 -5 -12 -2 -15 2 -3 7 2 10 11 7 17 1 20 -8 4z"/>
<path d="M2297 1484 c-2 -11 -5 -35 -6 -54 l-2 -35 36 35 c19 19 35 35 35 36
0 1 -7 5 -16 8 -8 3 -13 2 -10 -3 3 -5 -2 -15 -11 -22 -15 -12 -16 -12 -11 7
3 12 2 27 -2 34 -6 9 -9 7 -13 -6z"/>
<path d="M2412 1477 c-25 -27 -30 -46 -6 -27 15 13 38 50 31 50 -2 0 -13 -10
-25 -23z"/>
<path d="M627 1470 c3 -11 7 -20 9 -20 2 0 4 9 4 20 0 11 -4 20 -9 20 -5 0 -7
-9 -4 -20z"/>
<path d="M295 1468 c17 -11 21 -25 24 -88 3 -70 7 -149 10 -177 1 -7 5 -13 10
-13 7 0 5 270 -3 276 0 1 -14 4 -31 8 -27 6 -28 5 -10 -6z"/>
<path d="M452 1450 c0 -19 2 -27 5 -17 2 9 2 25 0 35 -3 9 -5 1 -5 -18z"/>
<path d="M1776 1448 c-3 -7 -7 -32 -10 -55 -6 -38 -4 -43 21 -55 30 -15 34
-40 21 -136 -5 -36 -4 -42 8 -38 9 4 18 -3 23 -17 5 -14 8 16 7 80 l-1 103
-40 17 c-28 11 -35 18 -22 20 9 3 17 12 17 21 0 15 -2 15 -10 2 -8 -13 -10
-12 -10 3 0 9 8 17 18 17 15 1 15 2 -3 16 -17 13 -18 16 -5 24 10 7 11 10 2
10 -7 0 -14 -6 -16 -12z"/>
<path d="M1819 1456 c-7 -7 -3 -92 6 -105 8 -13 35 -2 35 14 0 7 -6 16 -12 19
-9 3 -8 9 6 20 10 8 15 20 11 27 -6 8 -11 6 -19 -7 -9 -17 -11 -16 -16 9 -3
16 -8 26 -11 23z"/>
<path d="M592 1430 c0 -14 2 -19 5 -12 2 6 2 18 0 25 -3 6 -5 1 -5 -13z"/>
<path d="M1726 1411 c4 -23 3 -31 -5 -27 -6 4 -11 0 -11 -8 0 -28 28 -17 39
15 14 39 14 49 1 49 -5 0 -10 -8 -11 -17 0 -16 -2 -15 -10 2 -7 15 -7 11 -3
-14z"/>
<path d="M1951 1423 c-1 -14 5 -23 14 -23 8 0 15 7 15 16 0 8 -4 13 -9 10 -5
-4 -12 0 -14 6 -3 7 -6 3 -6 -9z"/>
<path d="M2327 1410 c-24 -26 -25 -29 -7 -27 11 1 20 7 20 14 0 7 7 10 16 6
11 -4 12 -8 4 -13 -7 -4 -9 -13 -6 -19 4 -6 3 -11 -1 -11 -5 0 -8 -17 -8 -37
0 -21 -6 -52 -12 -70 -7 -18 -13 -43 -13 -57 0 -32 46 -69 77 -61 13 3 23 1
23 -5 0 -5 9 -10 20 -10 11 0 20 5 20 11 0 5 -4 8 -9 5 -4 -3 -17 1 -27 9 -22
17 -38 19 -29 5 3 -5 1 -10 -4 -10 -6 0 -11 9 -11 21 0 15 -4 19 -19 14 -21
-6 -38 10 -22 20 6 3 7 13 4 22 -5 13 -2 15 15 11 14 -4 20 -2 16 4 -4 6 -1 9
6 6 23 -7 22 -26 0 -33 -12 -4 -19 -9 -17 -12 9 -8 68 27 62 37 -6 10 45 40
70 40 8 0 15 5 15 10 0 15 -37 12 -54 -5 -23 -23 -60 -34 -79 -24 -11 7 -17 6
-17 -1 0 -5 -4 -10 -10 -10 -6 0 -5 10 2 25 6 14 17 25 23 25 17 0 70 48 63
56 -4 3 -14 -1 -23 -10 -9 -9 -25 -21 -36 -27 -19 -10 -20 -8 -13 28 4 21 13
51 21 67 14 26 13 28 -1 23 -9 -4 -16 -2 -16 3 0 17 -14 10 -43 -20z"/>
<path d="M541 1393 c-1 -19 4 -23 27 -22 22 1 23 2 5 6 -12 2 -24 12 -26 21
-3 12 -5 10 -6 -5z"/>
<path d="M630 1368 c0 -26 4 -38 8 -30 8 12 4 72 -4 72 -2 0 -4 -19 -4 -42z"/>
<path d="M2140 1370 c-16 -30 -3 -42 25 -24 23 15 45 12 45 -5 0 -5 -15 -13
-32 -19 l-33 -10 35 -1 c28 -1 32 -4 20 -12 -13 -9 -13 -10 0 -6 10 2 16 19
18 53 1 27 -1 44 -5 39 -5 -6 -20 -16 -34 -22 -24 -10 -26 -10 -22 8 7 25 -3
24 -17 -1z"/>
<path d="M2451 1374 c0 -11 3 -14 6 -6 3 7 2 16 -1 19 -3 4 -6 -2 -5 -13z"/>
<path d="M852 1360 c0 -14 2 -19 5 -12 2 6 2 18 0 25 -3 6 -5 1 -5 -13z"/>
<path d="M2317 1363 c-2 -5 -1 -19 4 -33 7 -23 7 -23 8 8 1 31 -3 40 -12 25z"/>
<path d="M2521 1354 c0 -11 3 -14 6 -6 3 7 2 16 -1 19 -3 4 -6 -2 -5 -13z"/>
<path d="M1640 1351 c0 -6 5 -13 11 -17 8 -5 8 -9 -1 -14 -11 -7 -21 -112 -12
-137 6 -18 32 -16 32 2 0 8 5 15 10 15 17 0 12 87 -5 94 -8 3 -15 10 -15 16 0
6 5 8 11 4 6 -3 3 5 -6 20 -18 27 -25 32 -25 17z"/>
<path d="M754 1305 c7 -40 16 -60 16 -34 0 11 2 11 10 -1 8 -12 10 -11 10 8 0
12 -5 22 -11 22 -5 0 -8 4 -5 9 3 5 -1 15 -10 22 -14 12 -15 9 -10 -26z"/>
<path d="M10 1320 c0 -5 5 -10 11 -10 5 0 7 5 4 10 -3 6 -8 10 -11 10 -2 0 -4
-4 -4 -10z"/>
<path d="M1752 1310 c-7 -11 -8 -20 -3 -20 9 0 24 30 18 36 -1 2 -8 -6 -15
-16z"/>
<path d="M1906 1307 c3 -10 9 -15 12 -12 3 3 0 11 -7 18 -10 9 -11 8 -5 -6z"/>
<path d="M426 1285 c-13 -7 -27 -11 -29 -9 -3 3 -7 -2 -11 -11 -4 -12 -1 -15
12 -11 69 21 232 10 216 -15 -3 -5 3 -9 14 -9 10 0 39 -19 63 -42 24 -23 48
-41 52 -40 5 2 11 -7 14 -18 8 -31 24 -24 21 10 -2 23 -6 29 -19 25 -12 -4
-20 1 -24 15 -20 62 -114 113 -217 116 -39 1 -77 -3 -92 -11z"/>
<path d="M863 1250 c0 -25 2 -35 4 -22 2 12 2 32 0 45 -2 12 -4 2 -4 -23z"/>
<path d="M1775 1280 c3 -5 11 -10 16 -10 6 0 7 5 4 10 -3 6 -11 10 -16 10 -6
0 -7 -4 -4 -10z"/>
<path d="M2302 1276 c7 -8 15 -12 17 -11 5 6 -10 25 -20 25 -5 0 -4 -6 3 -14z"/>
<path d="M2520 1260 c0 -16 4 -30 8 -30 5 0 7 14 4 30 -2 17 -6 30 -8 30 -2 0
-4 -13 -4 -30z"/>
<path d="M28 1253 c5 -21 7 -23 10 -9 2 10 0 22 -6 28 -6 6 -7 0 -4 -19z"/>
<path d="M1525 1250 c3 -5 8 -10 11 -10 2 0 4 5 4 10 0 6 -5 10 -11 10 -5 0
-7 -4 -4 -10z"/>
<path d="M2225 1250 c-4 -6 1 -13 10 -16 15 -6 15 -8 0 -24 -11 -12 -13 -20
-5 -25 6 -3 9 -2 8 4 -2 5 4 16 13 23 15 12 15 14 -2 30 -11 10 -21 13 -24 8z"/>
<path d="M270 1240 c0 -5 5 -10 11 -10 5 0 7 5 4 10 -3 6 -8 10 -11 10 -2 0
-4 -4 -4 -10z"/>
<path d="M1760 1231 c13 -10 28 -17 33 -14 9 6 7 10 -8 13 -5 1 -19 6 -30 12
-14 6 -13 3 5 -11z"/>
<path d="M2453 1236 c-9 -10 -5 -13 17 -12 17 1 26 5 23 14 -6 16 -25 15 -40
-2z"/>
<path d="M1219 1235 c-1 -5 -1 -14 0 -18 1 -5 4 -34 8 -64 5 -49 4 -55 -11
-50 -23 9 -21 -20 3 -33 26 -13 31 -4 33 68 1 42 -3 67 -14 83 -10 13 -18 20
-19 14z"/>
<path d="M1910 1223 c1 -10 7 -36 15 -58 18 -48 18 -48 5 -40 -15 9 -12 -6 6
-26 14 -15 14 -22 0 -70 -18 -68 -29 -142 -16 -114 7 17 9 15 9 -12 1 -25 6
-33 19 -33 9 0 13 4 7 8 -5 4 -11 16 -13 27 -2 16 -1 17 7 5 8 -12 13 -12 23
-2 19 19 48 15 48 -7 0 -33 -30 -152 -47 -185 -8 -17 -26 -45 -39 -63 -13 -17
-24 -39 -24 -47 0 -23 -11 -19 -55 20 l-40 36 -8 -33 c-4 -19 -12 -46 -16 -61
-7 -22 -5 -27 12 -32 23 -6 37 8 37 36 0 24 16 31 33 13 18 -17 37 -20 37 -5
0 6 19 31 42 56 49 53 74 47 39 -10 -20 -31 -21 -39 -10 -74 9 -31 15 -38 30
-35 11 3 19 0 19 -6 0 -6 -4 -11 -10 -11 -20 0 -9 -15 20 -28 50 -23 39 -46
-32 -68 -35 -10 -74 -24 -88 -31 -14 -7 -34 -13 -46 -13 -11 0 -29 -7 -40 -15
-10 -8 -28 -15 -40 -15 -11 0 -24 -3 -28 -7 -3 -4 -14 -8 -23 -9 -9 -2 -20
-10 -25 -18 -5 -8 -15 -13 -23 -10 -11 5 -15 -1 -15 -19 0 -14 -4 -29 -10 -32
-5 -3 -10 -11 -10 -16 0 -6 7 -4 15 5 8 8 15 21 15 28 0 10 3 9 10 -2 8 -13
10 -12 10 3 0 14 5 17 22 11 20 -6 21 -5 9 10 -12 15 -12 16 5 9 10 -3 35 -16
54 -28 19 -12 38 -22 43 -23 15 -2 119 -42 157 -62 44 -22 50 -24 50 -12 0 8
-111 59 -182 83 -21 7 -38 16 -38 20 0 3 -12 9 -27 12 -16 3 -37 13 -48 22
-11 9 -14 13 -6 9 8 -4 25 -8 38 -10 21 -2 22 0 11 13 -11 14 -11 15 7 6 11
-6 26 -8 34 -5 7 2 17 -2 23 -9 6 -10 8 -7 6 11 -2 17 2 25 12 26 8 1 26 6 40
12 22 9 29 6 57 -24 42 -45 53 -44 18 2 -32 42 -29 55 5 19 13 -14 27 -25 31
-25 5 0 -3 12 -18 26 -35 35 -21 42 22 10 40 -31 46 -27 13 7 l-23 22 49 3
c27 2 56 0 65 -3 13 -5 12 -9 -9 -26 l-25 -21 48 6 c58 7 60 -8 3 -37 -20 -11
-35 -21 -32 -24 2 -2 18 3 36 12 18 9 33 15 35 13 2 -2 -10 -23 -26 -46 -26
-38 -27 -42 -7 -28 12 9 28 26 35 38 17 32 16 5 -1 -37 -18 -42 -71 -77 -103
-69 -14 4 -23 2 -23 -5 0 -18 46 -13 83 9 49 29 71 76 65 135 -6 46 17 143 30
131 3 -3 10 4 16 17 7 13 31 29 61 39 47 16 48 17 18 18 -23 0 -33 5 -33 15 0
19 61 47 74 35 5 -5 16 -5 26 0 23 12 43 -10 38 -42 -3 -23 -36 -34 -121 -42
-15 -1 -35 -10 -45 -20 -16 -17 -16 -18 13 -13 138 24 165 32 161 44 -3 7 -1
13 5 13 6 0 7 5 4 11 -4 6 -7 35 -6 65 1 84 -16 154 -50 208 -29 48 -18 48 23
1 10 -11 17 -15 18 -8 0 18 -31 52 -63 70 -34 17 -46 11 -24 -12 35 -34 76
-139 79 -203 4 -57 2 -62 -15 -56 -31 10 -91 7 -95 -5 -2 -6 -7 -9 -12 -6 -12
8 -60 -53 -60 -77 0 -11 -11 -28 -24 -39 -13 -10 -29 -32 -36 -49 -7 -16 -16
-28 -20 -25 -4 3 -11 -2 -14 -11 -4 -9 -9 -14 -12 -11 -7 7 19 56 43 82 10 11
29 37 42 57 l23 38 -34 27 c-36 30 -65 61 -117 123 -30 36 -33 44 -23 65 10
21 6 36 -28 106 -22 45 -41 84 -44 86 -2 3 -13 0 -24 -6 -29 -16 -62 -3 -62
25 0 13 4 24 9 24 5 0 7 10 4 21 -6 21 -5 21 16 3 11 -10 21 -24 21 -31 0 -13
18 -28 26 -21 10 11 -19 66 -37 71 -10 3 -19 11 -19 17 0 9 4 9 17 -1 15 -12
16 -12 9 6 -22 54 -19 61 13 28 17 -18 31 -36 31 -41 0 -6 13 -24 29 -41 15
-16 26 -33 23 -36 -3 -3 0 -5 7 -5 7 0 9 -5 5 -12 -5 -9 -2 -9 9 1 19 15 23
26 5 15 -8 -5 -9 -2 -5 10 4 9 3 15 -2 12 -4 -3 -17 12 -29 32 -28 51 -91 114
-104 106 -7 -4 -8 -2 -4 4 4 6 -1 23 -10 37 -9 14 -13 25 -9 25 4 0 2 7 -5 15
-6 8 -9 19 -6 24 4 5 2 12 -4 16 -5 3 -10 -2 -10 -12z m146 -408 c9 -20 14
-48 11 -67 -3 -26 3 -44 33 -88 21 -30 56 -72 79 -93 22 -21 41 -43 41 -49 0
-6 -11 -26 -25 -44 -14 -18 -25 -36 -25 -39 0 -16 -28 -30 -57 -31 -33 0 -42
9 -23 21 17 11 12 22 -42 86 -49 60 -51 63 -39 93 23 56 23 63 2 83 l-21 19
20 52 c11 29 20 61 20 72 0 29 7 25 26 -15z m244 -309 c0 -3 -4 -8 -10 -11 -5
-3 -10 -1 -10 4 0 6 5 11 10 11 6 0 10 -2 10 -4z"/>
<path d="M2283 1218 c-13 -18 -24 -50 -15 -45 4 2 15 7 26 11 14 5 16 9 7 20
-6 7 -8 16 -4 19 3 4 4 7 1 7 -3 0 -10 -6 -15 -12z"/>
<path d="M0 1208 c0 -4 8 -8 19 -8 10 0 24 -7 31 -15 7 -8 19 -15 26 -15 8 0
14 -3 14 -8 0 -4 10 -18 23 -32 38 -41 103 -158 147 -265 23 -55 48 -113 55
-130 7 -16 30 -74 49 -128 20 -53 50 -128 67 -165 36 -81 66 -155 113 -282 64
-174 68 -182 81 -141 4 13 -1 27 -14 40 -19 19 -23 28 -20 47 0 4 -5 11 -13
15 -10 7 -10 9 0 9 7 0 4 8 -9 21 -14 14 -19 30 -17 52 2 20 -3 37 -12 44 -13
11 -12 13 5 13 20 1 20 1 0 10 -13 6 -15 9 -5 9 9 1 6 6 -9 14 -13 6 -29 29
-36 50 -12 35 -12 37 9 37 12 0 26 -4 32 -9 5 -4 23 -13 41 -19 27 -9 31 -8
26 4 -3 8 -12 13 -19 10 -8 -3 -13 0 -11 6 1 7 -16 16 -38 21 -22 5 -45 11
-52 13 -15 4 -50 82 -74 167 -12 43 -19 102 -20 165 -1 53 -7 128 -14 165 -6
37 -10 78 -8 90 9 46 -15 168 -36 189 -21 19 -21 19 -21 -2 0 -12 5 -18 10
-15 6 3 10 -4 10 -18 0 -13 3 -27 8 -31 4 -4 7 -35 8 -69 1 -34 4 -79 8 -99 4
-27 2 -38 -7 -38 -8 0 -8 -3 -1 -8 5 -4 11 -23 12 -42 0 -19 2 -46 4 -59 2
-19 -2 -25 -19 -26 -13 -1 -21 0 -19 2 1 2 -7 25 -20 51 -18 37 -20 48 -9 52
11 4 10 7 -1 18 -8 7 -14 9 -14 5 -1 -4 -7 4 -15 18 -8 15 -12 36 -10 48 2 13
-1 21 -10 21 -20 0 -57 64 -48 86 5 13 3 16 -10 11 -12 -5 -17 -1 -17 13 0 11
-4 20 -10 20 -5 0 -10 7 -10 15 0 8 -7 15 -15 15 -8 0 -15 6 -15 14 0 8 -14
19 -30 25 -16 5 -30 15 -30 21 0 6 -14 9 -30 8 -17 -1 -30 -6 -30 -10z m370
-480 c0 -15 -19 -8 -29 11 -14 25 0 37 16 15 7 -10 13 -21 13 -26z"/>
<path d="M1561 1208 c0 -9 -4 -25 -7 -35 -5 -14 -4 -15 5 -7 7 7 11 22 8 35
-2 13 -5 16 -6 7z"/>
<path d="M2517 1213 c-11 -20 -16 -62 -8 -67 5 -3 12 10 16 30 6 34 2 54 -8
37z"/>
<path d="M1501 1193 c0 -12 -4 -29 -7 -37 -4 -12 -2 -15 9 -10 9 3 18 12 21
20 3 8 2 12 -3 9 -5 -3 -12 5 -14 17 -4 22 -4 23 -6 1z"/>
<path d="M2110 1191 c0 -5 -3 -16 -6 -24 -3 -8 2 -17 12 -21 13 -5 15 -1 11
21 l-6 28 12 -27 c6 -16 14 -28 19 -28 11 0 10 4 -4 35 -11 24 -38 35 -38 16z"/>
<path d="M210 1180 c0 -5 5 -10 11 -10 5 0 7 5 4 10 -3 6 -8 10 -11 10 -2 0
-4 -4 -4 -10z"/>
<path d="M2229 1153 c-13 -16 -12 -17 4 -4 16 13 21 21 13 21 -2 0 -10 -8 -17
-17z"/>
<path d="M2279 1165 c-1 -3 -2 -9 -3 -14 0 -5 -4 -13 -8 -17 -17 -16 -7 -26
10 -11 19 17 25 47 10 47 -4 0 -9 -2 -9 -5z"/>
<path d="M1652 1144 c10 -10 20 -15 24 -12 3 4 -5 12 -18 18 -22 12 -22 12 -6
-6z"/>
<path d="M2324 1115 c5 -29 0 -44 -29 -86 -38 -56 -43 -80 -20 -99 8 -7 15
-17 15 -22 0 -5 7 -17 16 -25 13 -14 17 -14 25 -2 6 9 4 15 -5 17 -8 2 -22 14
-31 28 -13 20 -13 28 -3 47 11 20 12 20 16 3 2 -10 -1 -22 -8 -26 -8 -5 -5
-12 11 -24 26 -18 64 -22 54 -6 -3 6 -2 10 3 10 5 0 7 13 4 30 -2 16 -9 27
-14 24 -5 -3 -7 -17 -4 -30 6 -24 0 -30 -20 -16 -18 11 -23 86 -8 107 8 11 14
13 14 7 0 -7 5 -12 10 -12 6 0 8 11 4 26 -4 15 -8 36 -9 48 -4 34 -5 36 -16
36 -6 0 -8 -14 -5 -35z"/>
<path d="M291 1114 c0 -11 3 -14 6 -6 3 7 2 16 -1 19 -3 4 -6 -2 -5 -13z"/>
<path d="M1630 1084 c0 -27 4 -43 10 -39 6 3 10 0 10 -8 0 -8 7 -20 15 -27 10
-9 15 -9 15 -1 0 6 -4 11 -10 11 -5 0 -7 7 -4 15 4 8 -1 17 -9 21 -11 4 -14
15 -10 40 4 22 2 34 -6 34 -6 0 -11 -18 -11 -46z"/>
<path d="M2301 1114 c0 -11 3 -14 6 -6 3 7 2 16 -1 19 -3 4 -6 -2 -5 -13z"/>
<path d="M2366 1105 c7 -18 28 -25 45 -15 14 9 14 9 -35 24 -10 3 -13 0 -10
-9z"/>
<path d="M2274 1102 c-12 -8 -29 -52 -20 -52 3 0 12 14 21 30 16 32 16 34 -1
22z"/>
<path d="M1900 1075 c-11 -28 -5 -49 10 -40 5 3 6 13 3 21 -3 9 0 20 7 24 9 5
9 9 1 14 -6 4 -15 -4 -21 -19z"/>
<path d="M862 1070 c0 -14 2 -19 5 -12 2 6 2 18 0 25 -3 6 -5 1 -5 -13z"/>
<path d="M2286 1074 c-5 -14 -4 -15 9 -4 17 14 19 20 6 20 -5 0 -12 -7 -15
-16z"/>
<path d="M2428 1084 c-7 -7 20 -60 45 -88 16 -18 16 -15 -3 29 -23 55 -33 69
-42 59z"/>
<path d="M80 1071 c0 -6 4 -13 10 -16 6 -3 7 1 4 9 -7 18 -14 21 -14 7z"/>
<path d="M746 1065 c-3 -9 0 -15 9 -15 9 0 12 6 9 15 -4 8 -7 15 -9 15 -2 0
-5 -7 -9 -15z"/>
<path d="M798 1073 c7 -3 16 -2 19 1 4 3 -2 6 -13 5 -11 0 -14 -3 -6 -6z"/>
<path d="M1710 1060 c0 -5 5 -10 10 -10 6 0 10 5 10 10 0 6 -4 10 -10 10 -5 0
-10 -4 -10 -10z"/>
<path d="M2390 1059 c0 -5 5 -7 10 -4 6 3 10 8 10 11 0 2 -4 4 -10 4 -5 0 -10
-5 -10 -11z"/>
<path d="M218 1053 c7 -3 16 -2 19 1 4 3 -2 6 -13 5 -11 0 -14 -3 -6 -6z"/>
<path d="M2526 1026 c-8 -31 -1 -45 14 -30 7 7 7 20 2 34 l-9 24 -7 -28z"/>
<path d="M2628 1040 c-13 -31 -17 -80 -7 -80 14 0 21 24 17 62 -3 20 -6 27
-10 18z"/>
<path d="M110 1033 c0 -6 8 -17 18 -24 16 -13 16 -13 2 6 -8 11 -16 22 -17 24
-2 2 -3 0 -3 -6z"/>
<path d="M1623 990 c0 -25 2 -35 4 -22 2 12 2 32 0 45 -2 12 -4 2 -4 -23z"/>
<path d="M2331 1014 c0 -11 3 -14 6 -6 3 7 2 16 -1 19 -3 4 -6 -2 -5 -13z"/>
<path d="M2567 1016 c-3 -8 1 -17 10 -20 22 -9 24 -4 8 17 -10 14 -14 15 -18
3z"/>
<path d="M2991 1014 c0 -11 3 -14 6 -6 3 7 2 16 -1 19 -3 4 -6 -2 -5 -13z"/>
<path d="M1186 995 c-3 -13 -15 -29 -26 -35 -21 -11 -27 -44 -10 -55 6 -3 10
-17 10 -30 0 -13 5 -27 10 -30 10 -6 14 32 10 82 0 12 7 30 17 40 45 46 47 53
20 53 -18 0 -26 -7 -31 -25z"/>
<path d="M2380 1003 c0 -13 5 -23 10 -23 13 0 13 11 0 30 -8 12 -10 11 -10 -7z"/>
<path d="M711 984 c0 -11 3 -14 6 -6 3 7 2 16 -1 19 -3 4 -6 -2 -5 -13z"/>
<path d="M2440 985 c0 -8 -4 -15 -10 -15 -5 0 -10 -5 -10 -10 0 -6 8 -5 20 2
21 13 27 38 10 38 -5 0 -10 -7 -10 -15z"/>
<path d="M1683 958 c-26 -29 -40 -53 -25 -45 6 5 8 0 5 -12 -3 -10 0 -22 6
-25 6 -4 11 -16 11 -27 0 -10 5 -19 11 -19 7 0 8 7 4 18 -4 9 -9 30 -10 45 -2
16 -6 31 -9 34 -9 9 15 34 25 27 5 -3 9 2 9 10 0 21 -3 20 -27 -6z"/>
<path d="M270 966 c0 -4 7 -14 15 -22 8 -9 15 -11 15 -6 0 5 -7 15 -15 22 -8
7 -15 9 -15 6z"/>
<path d="M1196 954 c-10 -26 -7 -32 14 -27 23 6 25 16 6 32 -11 9 -15 8 -20
-5z"/>
<path d="M1766 947 c3 -10 9 -15 12 -12 3 3 0 11 -7 18 -10 9 -11 8 -5 -6z"/>
<path d="M1890 949 c0 -5 5 -7 10 -4 6 3 10 8 10 11 0 2 -4 4 -10 4 -5 0 -10
-5 -10 -11z"/>
<path d="M2569 938 c-1 -13 0 -36 1 -51 1 -15 -4 -35 -12 -44 -7 -10 -8 -14
-1 -10 6 4 14 1 16 -5 3 -7 6 20 6 60 1 39 -1 72 -4 72 -3 0 -5 -10 -6 -22z"/>
<path d="M2440 940 c0 -5 5 -10 10 -10 6 0 10 5 10 10 0 6 -4 10 -10 10 -5 0
-10 -4 -10 -10z"/>
<path d="M2624 885 c3 -38 8 -137 11 -220 9 -278 17 -369 37 -433 11 -35 22
-61 25 -58 3 3 -2 26 -12 52 -11 29 -18 77 -19 129 0 46 -4 81 -8 79 -4 -3 -8
53 -8 123 0 70 -2 153 -4 183 -3 30 -5 85 -7 122 -1 36 -6 72 -11 80 -6 8 -7
-13 -4 -57z"/>
<path d="M720 926 c0 -8 21 -26 46 -41 25 -15 54 -41 65 -58 16 -26 19 -28 19
-11 0 25 -13 41 -71 87 -51 41 -59 44 -59 23z"/>
<path d="M822 920 c0 -14 2 -19 5 -12 2 6 2 18 0 25 -3 6 -5 1 -5 -13z"/>
<path d="M1623 923 c-3 -10 -8 -22 -11 -28 -3 -5 1 -4 8 2 13 12 23 43 14 43
-3 0 -7 -8 -11 -17z"/>
<path d="M1895 898 c3 -14 1 -28 -4 -30 -5 -2 -11 -21 -14 -43 -4 -22 -9 -55
-13 -72 -4 -23 -3 -33 5 -33 7 0 9 -5 5 -12 -4 -7 -3 -8 4 -4 6 4 9 13 6 20
-3 8 6 23 21 34 14 11 22 23 17 26 -4 2 -9 26 -11 51 -1 25 -6 56 -12 68 -9
20 -9 20 -4 -5z"/>
<path d="M2513 870 c0 -30 2 -43 4 -27 2 15 2 39 0 55 -2 15 -4 2 -4 -28z"/>
<path d="M2401 896 c-1 -15 -4 -16 -16 -6 -11 9 -15 9 -15 1 0 -7 -5 -9 -12
-5 -7 4 -8 3 -4 -4 4 -7 15 -12 24 -12 25 0 61 -28 83 -64 10 -17 19 -25 19
-18 0 21 -28 70 -48 84 -11 7 -21 20 -25 28 -4 11 -6 11 -6 -4z"/>
<path d="M1632 880 c-7 -12 -17 -18 -22 -15 -10 6 -26 -62 -16 -72 3 -3 9 8
12 25 3 17 13 33 22 37 9 3 13 3 10 -1 -10 -10 21 -66 32 -59 6 4 6 15 -2 28
-6 12 -14 34 -17 50 -6 27 -6 27 -19 7z"/>
<path d="M2001 874 c0 -11 3 -14 6 -6 3 7 2 16 -1 19 -3 4 -6 -2 -5 -13z"/>
<path d="M1203 864 c-4 -10 1 -22 10 -29 10 -7 17 -20 17 -29 0 -9 7 -16 15
-16 12 0 14 7 9 28 -14 58 -38 80 -51 46z"/>
<path d="M1538 873 c6 -2 18 -2 25 0 6 3 1 5 -13 5 -14 0 -19 -2 -12 -5z"/>
<path d="M318 863 c7 -3 16 -2 19 1 4 3 -2 6 -13 5 -11 0 -14 -3 -6 -6z"/>
<path d="M720 860 c0 -5 3 -10 8 -9 17 3 51 -14 56 -27 3 -8 11 -14 18 -14 17
1 -52 60 -69 60 -7 0 -13 -4 -13 -10z"/>
<path d="M1927 854 c-6 -11 52 -79 60 -70 3 2 -4 15 -16 27 -16 18 -18 25 -9
32 9 6 8 7 -4 4 -9 -3 -18 -1 -21 6 -2 7 -6 7 -10 1z"/>
<path d="M2308 831 c-3 -17 -1 -31 3 -31 13 0 22 41 11 52 -6 6 -11 -1 -14
-21z"/>
<path d="M720 810 c12 -16 30 -30 41 -30 10 0 18 -3 17 -7 -4 -13 26 -53 39
-53 6 0 14 -6 16 -12 3 -7 6 -8 6 -3 1 14 -83 105 -97 105 -7 0 -15 7 -18 15
-4 8 -10 15 -16 15 -5 0 0 -13 12 -30z"/>
<path d="M885 828 c11 -6 22 -14 25 -18 7 -9 46 -30 57 -30 4 0 -6 9 -23 19
-18 11 -35 24 -38 30 -4 6 -15 11 -24 11 -14 -1 -14 -2 3 -12z"/>
<path d="M1614 803 c-3 -10 -10 -26 -15 -35 -14 -28 -11 -60 11 -96 11 -18 20
-41 20 -51 0 -46 105 -55 127 -11 7 14 20 24 29 22 9 -2 13 1 9 7 -10 17 -20
13 -49 -15 -14 -15 -26 -21 -26 -14 0 10 -3 10 -15 0 -26 -22 -26 -6 1 33 13
20 20 37 14 37 -5 0 -10 -5 -10 -10 0 -6 -8 -10 -17 -8 -10 2 -18 -3 -18 -11
0 -8 -6 -16 -12 -18 -7 -3 -13 2 -13 9 0 8 6 20 13 27 8 10 8 12 0 7 -6 -3
-15 -1 -19 5 -4 7 -9 8 -13 1 -3 -6 -6 23 -6 64 0 77 -2 86 -11 57z m6 -83 c0
-11 -2 -20 -4 -20 -2 0 -6 9 -9 20 -3 11 -1 20 4 20 5 0 9 -9 9 -20z m60 -95
c-7 -8 -17 -15 -23 -15 -6 0 -2 7 9 15 25 19 30 19 14 0z"/>
<path d="M2236 802 c-2 -4 4 -8 14 -8 10 0 16 4 14 8 -3 4 -9 8 -14 8 -5 0
-11 -4 -14 -8z"/>
<path d="M2328 749 c-3 -62 -4 -64 -38 -81 -33 -15 -35 -15 -44 2 -6 12 -22
19 -51 22 -40 3 -42 2 -34 -18 4 -12 5 -25 1 -29 -4 -4 0 -5 8 -3 8 2 14 -3
13 -9 -2 -7 2 -13 8 -13 5 0 7 -6 3 -12 -5 -8 -1 -7 10 2 17 13 17 15 -4 32
-38 31 -11 34 41 5 27 -15 49 -22 49 -17 0 6 -8 10 -17 10 -15 0 -16 2 -3 10
22 14 26 13 38 -14 13 -29 7 -36 -27 -36 -22 0 -24 -2 -10 -15 12 -13 19 -13
42 -3 25 12 38 48 17 48 -15 0 -12 37 3 43 9 3 12 23 10 68 -4 83 -11 87 -15
8z"/>
<path d="M870 765 c0 -19 4 -35 8 -35 4 0 6 16 4 35 -2 19 -6 35 -8 35 -2 0
-4 -16 -4 -35z"/>
<path d="M2201 787 c-7 -9 -10 -20 -7 -25 3 -5 -1 -18 -9 -28 -16 -22 -19 -34
-7 -34 12 0 45 75 40 90 -3 9 -8 8 -17 -3z"/>
<path d="M2572 690 l-2 -115 -27 50 c-20 39 -26 63 -25 110 l0 60 -8 -55 c-8
-52 -6 -61 36 -160 44 -102 65 -140 49 -90 -4 14 -11 90 -14 170 l-7 145 -2
-115z"/>
<path d="M2290 771 c-5 -11 -7 -26 -4 -34 3 -8 1 -18 -5 -21 -5 -4 -13 3 -16
15 -6 17 -9 19 -16 8 -5 -8 -9 -18 -9 -24 0 -5 4 -4 8 3 6 9 12 5 21 -15 11
-23 14 -25 22 -12 9 18 21 99 14 99 -2 0 -9 -9 -15 -19z"/>
<path d="M990 765 c7 -8 20 -15 28 -15 13 0 12 3 -4 15 -25 19 -40 19 -24 0z"/>
<path d="M1185 760 c-4 -12 -2 -27 4 -33 15 -15 14 -57 -1 -57 -7 -1 -2 -7 12
-15 31 -17 33 -15 21 19 -9 21 -8 26 4 26 14 0 18 9 13 28 -1 4 -8 6 -15 4 -7
-2 -14 2 -14 8 -3 25 -4 29 -11 35 -3 4 -9 -3 -13 -15z"/>
<path d="M1937 767 c-11 -29 -9 -43 4 -30 6 6 9 19 7 29 -3 18 -4 18 -11 1z"/>
<path d="M2130 770 c0 -5 5 -10 10 -10 6 0 10 5 10 10 0 6 -4 10 -10 10 -5 0
-10 -4 -10 -10z"/>
<path d="M2250 770 c0 -5 5 -10 10 -10 6 0 10 5 10 10 0 6 -4 10 -10 10 -5 0
-10 -4 -10 -10z"/>
<path d="M1965 760 c3 -5 8 -10 11 -10 2 0 4 5 4 10 0 6 -5 10 -11 10 -5 0 -7
-4 -4 -10z"/>
<path d="M2481 754 c0 -11 3 -14 6 -6 3 7 2 16 -1 19 -3 4 -6 -2 -5 -13z"/>
<path d="M1427 737 c-10 -16 -27 -31 -38 -36 -20 -7 -19 -8 5 -19 23 -10 28
-9 42 13 8 13 14 34 12 47 -3 22 -3 22 -21 -5z"/>
<path d="M1650 745 c-7 -9 -11 -17 -9 -20 3 -2 10 5 17 15 14 24 10 26 -8 5z"/>
<path d="M2377 749 c7 -7 15 -10 18 -7 3 3 -2 9 -12 12 -14 6 -15 5 -6 -5z"/>
<path d="M1026 740 c-19 -6 -19 -7 2 -12 12 -4 24 -2 27 2 8 13 -8 18 -29 10z"/>
<path d="M1670 725 c0 -8 -4 -15 -10 -15 -18 0 -10 -16 8 -17 15 -1 18 4 14
23 -5 27 -12 32 -12 9z"/>
<path d="M1953 728 c-19 -24 -24 -38 -15 -38 5 0 14 11 20 25 13 27 10 32 -5
13z"/>
<path d="M1901 714 c0 -10 -4 -36 -9 -57 -8 -28 -7 -37 1 -34 7 2 13 10 13 18
4 42 5 44 15 24 7 -15 7 -11 3 15 -7 39 -23 64 -23 34z"/>
<path d="M2215 720 c-3 -5 -1 -10 4 -10 6 0 11 5 11 10 0 6 -2 10 -4 10 -3 0
-8 -4 -11 -10z"/>
<path d="M2365 720 c3 -5 8 -10 11 -10 2 0 4 5 4 10 0 6 -5 10 -11 10 -5 0 -7
-4 -4 -10z"/>
<path d="M870 706 c0 -8 6 -16 14 -19 10 -4 12 0 9 14 -6 22 -23 26 -23 5z"/>
<path d="M2398 675 c-3 -27 -7 -56 -9 -64 -2 -7 1 -15 7 -18 15 -5 24 55 15
98 -7 34 -7 33 -13 -16z"/>
<path d="M1847 696 c-10 -26 -8 -43 3 -26 8 12 10 12 10 1 0 -8 2 -12 5 -9 3
3 2 15 -3 28 -8 20 -9 21 -15 6z"/>
<path d="M1308 683 c6 -2 18 -2 25 0 6 3 1 5 -13 5 -14 0 -19 -2 -12 -5z"/>
<path d="M1510 680 c-8 -5 -24 -12 -35 -15 -11 -4 -15 -9 -9 -12 7 -2 9 -13 6
-25 -3 -14 -1 -19 6 -14 7 4 12 15 12 25 0 27 41 35 47 10 3 -10 9 -19 14 -19
11 0 11 3 -1 34 -10 28 -16 30 -40 16z"/>
<path d="M1747 664 c6 -16 19 -18 27 -5 3 5 -3 11 -13 14 -14 3 -18 1 -14 -9z"/>
<path d="M1283 662 c-6 -4 -27 -41 -47 -83 -34 -72 -35 -78 -21 -105 8 -16 15
-39 15 -51 0 -12 5 -25 10 -28 14 -9 12 18 -6 71 -12 35 -13 49 -4 58 8 8 13
7 20 -4 5 -8 16 -24 24 -35 12 -16 15 -17 16 -4 0 9 -10 27 -23 40 l-22 24 20
42 c17 37 24 43 52 43 17 0 38 2 46 5 9 4 13 -1 13 -17 -1 -14 6 -24 17 -26
12 -2 17 3 17 17 0 12 -4 21 -10 21 -5 0 -9 5 -7 11 1 6 -8 15 -20 20 -18 6
-23 5 -23 -6 0 -19 -19 -19 -39 -1 -9 8 -22 12 -28 8z"/>
<path d="M928 630 c9 -16 24 -30 32 -30 9 0 24 -6 35 -14 11 -7 31 -17 45 -21
14 -4 37 -18 51 -32 17 -16 36 -23 50 -21 21 3 19 6 -18 23 -24 10 -43 22 -43
26 0 4 -10 10 -22 14 -13 4 -25 8 -28 9 -31 11 -92 50 -97 61 -3 8 -9 15 -14
15 -4 0 0 -13 9 -30z"/>
<path d="M2483 636 c0 -18 3 -24 9 -18 7 7 7 16 0 28 -8 14 -9 13 -9 -10z"/>
<path d="M2361 634 c0 -11 3 -14 6 -6 3 7 2 16 -1 19 -3 4 -6 -2 -5 -13z"/>
<path d="M610 625 c0 -5 5 -17 10 -25 5 -8 10 -10 10 -5 0 6 -5 17 -10 25 -5
8 -10 11 -10 5z"/>
<path d="M2230 622 c0 -5 7 -9 15 -9 8 0 12 4 9 9 -3 4 -9 8 -15 8 -5 0 -9 -4
-9 -8z"/>
<path d="M534 599 c-5 -8 -3 -9 6 -4 10 6 12 4 7 -8 -3 -10 -2 -17 3 -17 13 0
13 27 1 35 -5 3 -13 0 -17 -6z"/>
<path d="M1480 584 c0 -14 8 -16 49 -11 42 5 52 3 68 -16 40 -44 34 -128 -6
-93 -9 8 -31 17 -48 21 -26 5 -33 3 -33 -9 0 -11 9 -16 30 -16 21 0 30 -5 30
-16 0 -11 5 -14 18 -9 9 4 44 16 77 27 32 10 66 25 75 32 8 7 22 16 30 19 10
4 7 6 -7 6 -13 1 -22 4 -22 9 3 20 -2 32 -16 32 -18 0 -20 -17 -2 -23 25 -9
-8 -42 -47 -45 -20 -2 -35 0 -34 5 1 4 -8 29 -21 56 l-23 47 -59 0 c-48 0 -59
-3 -59 -16z"/>
<path d="M2226 585 c4 -8 12 -15 19 -15 7 0 15 -6 18 -12 2 -7 8 -10 12 -6 4
4 -3 16 -16 27 -29 24 -40 26 -33 6z"/>
<path d="M1350 580 c0 -5 5 -10 11 -10 5 0 7 5 4 10 -3 6 -8 10 -11 10 -2 0
-4 -4 -4 -10z"/>
<path d="M1856 571 c-3 -5 1 -14 9 -21 12 -10 15 -10 15 3 0 19 -16 31 -24 18z"/>
<path d="M1930 555 c-8 -9 -8 -15 -2 -15 12 0 26 19 19 26 -2 2 -10 -2 -17
-11z"/>
<path d="M1406 551 c-4 -7 -5 -15 -2 -18 9 -9 19 4 14 18 -4 11 -6 11 -12 0z"/>
<path d="M1667 545 c-13 -9 -15 -15 -7 -20 7 -4 19 -1 27 8 19 19 3 29 -20 12z"/>
<path d="M550 525 c-11 -13 -11 -18 0 -28 10 -9 11 -9 6 1 -4 7 -2 19 4 27 7
8 10 15 7 15 -2 0 -10 -7 -17 -15z"/>
<path d="M1431 505 c-26 -44 -26 -44 -2 -38 12 3 23 17 26 35 10 43 1 44 -24
3z"/>
<path d="M1350 504 c6 -14 10 -36 10 -50 0 -13 5 -24 11 -24 7 0 9 9 5 23 -3
12 -6 32 -6 43 0 12 -7 24 -15 27 -11 5 -12 1 -5 -19z"/>
<path d="M1920 516 c0 -8 5 -18 10 -21 6 -3 10 3 10 14 0 12 -4 21 -10 21 -5
0 -10 -6 -10 -14z"/>
<path d="M2386 514 c-6 -16 2 -18 22 -5 11 7 11 9 -1 14 -9 3 -18 -1 -21 -9z"/>
<path d="M1820 504 c0 -10 71 -74 82 -74 5 0 8 6 8 14 0 8 2 20 3 28 2 7 2 10
0 6 -7 -11 -56 2 -75 19 -10 9 -18 12 -18 7z"/>
<path d="M1960 498 c0 -9 -6 -18 -12 -21 -7 -2 -11 -7 -8 -10 3 -3 14 1 24 9
16 11 17 17 8 26 -9 9 -12 8 -12 -4z"/>
<path d="M1985 450 c3 -5 8 -10 11 -10 2 0 4 5 4 10 0 6 -5 10 -11 10 -5 0 -7
-4 -4 -10z"/>
<path d="M2400 450 c-111 -25 -140 -35 -140 -51 0 -22 26 -43 44 -36 9 4 17
-1 21 -12 3 -10 13 -18 23 -17 10 0 16 -5 14 -14 -3 -11 -1 -12 8 -3 14 13 5
33 -13 33 -7 0 -21 9 -30 21 -10 11 -25 18 -33 15 -8 -3 -14 1 -14 9 0 18 12
19 28 3 9 -9 20 -9 49 0 21 7 52 13 68 14 23 2 31 9 33 26 4 24 -1 25 -58 12z
m37 -16 c-3 -3 -12 -4 -19 -1 -8 3 -5 6 6 6 11 1 17 -2 13 -5z m-60 -10 c-3
-3 -12 -4 -19 -1 -8 3 -5 6 6 6 11 1 17 -2 13 -5z"/>
<path d="M2470 443 c0 -13 4 -23 9 -23 11 0 24 31 16 38 -3 3 -5 -1 -5 -9 0
-11 -2 -11 -10 1 -8 12 -10 11 -10 -7z"/>
<path d="M766 422 c-3 -5 1 -9 9 -9 8 0 12 4 9 9 -3 4 -7 8 -9 8 -2 0 -6 -4
-9 -8z"/>
<path d="M1396 413 c-4 -9 -2 -21 4 -27 7 -7 10 -2 10 17 0 31 -5 34 -14 10z"/>
<path d="M1440 416 c0 -24 12 -46 21 -40 14 9 10 41 -6 48 -9 3 -15 0 -15 -8z"/>
<path d="M1320 391 c0 -17 5 -33 11 -36 15 -10 17 -4 12 33 -6 40 -23 42 -23
3z"/>
<path d="M1528 398 c-37 -19 -50 -49 -28 -63 5 -3 7 0 4 9 -4 9 5 20 24 30 16
8 32 22 35 31 4 8 5 14 4 14 -1 -1 -19 -10 -39 -21z"/>
<path d="M2520 384 c12 -51 12 -56 -1 -48 -8 5 -8 1 0 -14 14 -27 15 -54 1
-32 -8 12 -10 11 -10 -7 0 -24 15 -39 25 -24 13 22 7 133 -8 148 -14 14 -15
12 -7 -23z"/>
<path d="M2415 390 c3 -5 8 -10 11 -10 2 0 4 5 4 10 0 6 -5 10 -11 10 -5 0 -7
-4 -4 -10z"/>
<path d="M2350 380 c-12 -8 -12 -10 5 -10 11 0 27 5 35 10 12 8 12 10 -5 10
-11 0 -27 -5 -35 -10z"/>
<path d="M2431 370 c-25 -10 -38 -19 -30 -22 17 -6 89 22 89 34 0 11 -6 9 -59
-12z"/>
<path d="M2602 368 c2 -12 10 -24 18 -26 13 -5 13 -3 2 11 -8 9 -11 21 -7 27
3 5 1 10 -5 10 -6 0 -10 -10 -8 -22z"/>
<path d="M2249 368 c-4 -11 -6 -149 -2 -145 6 7 15 147 8 147 -3 0 -5 -1 -6
-2z"/>
<path d="M620 330 c-13 -8 -12 -10 3 -10 9 0 17 5 17 10 0 12 -1 12 -20 0z"/>
<path d="M1440 332 c0 -4 4 -13 9 -21 6 -10 0 -22 -20 -42 -16 -16 -29 -31
-29 -34 0 -11 99 49 105 64 4 11 0 9 -16 -5 -16 -14 -20 -15 -19 -4 4 27 0 38
-15 44 -8 3 -15 2 -15 -2z"/>
<path d="M2300 323 c0 -15 18 -35 23 -27 3 5 -1 15 -9 22 -8 7 -14 9 -14 5z"/>
<path d="M2390 319 c0 -7 3 -9 7 -6 3 4 13 1 21 -6 13 -10 14 -9 10 3 -6 19
-38 26 -38 9z"/>
<path d="M2061 297 c-1 -12 -5 -16 -13 -11 -8 5 -7 0 2 -11 14 -16 15 -17 18
-1 2 9 1 22 -1 29 -3 7 -6 4 -6 -6z"/>
<path d="M585 290 c3 -5 8 -10 11 -10 2 0 4 5 4 10 0 6 -5 10 -11 10 -5 0 -7
-4 -4 -10z"/>
<path d="M1125 290 c3 -5 8 -10 11 -10 2 0 4 5 4 10 0 6 -5 10 -11 10 -5 0 -7
-4 -4 -10z"/>
<path d="M1250 291 c0 -5 5 -13 10 -16 6 -3 10 -2 10 4 0 5 -4 13 -10 16 -5 3
-10 2 -10 -4z"/>
<path d="M2380 297 c0 -7 39 -79 47 -87 3 -3 3 8 -1 23 -6 25 -46 81 -46 64z"/>
<path d="M672 274 c-14 -16 -5 -18 17 -5 7 5 9 11 5 14 -5 3 -15 -1 -22 -9z"/>
<path d="M1155 280 c-3 -5 -1 -10 4 -10 6 0 11 5 11 10 0 6 -2 10 -4 10 -3 0
-8 -4 -11 -10z"/>
<path d="M1186 281 c-5 -8 -2 -20 8 -29 17 -17 19 -9 7 22 -6 15 -10 16 -15 7z"/>
<path d="M1580 263 c-41 -14 -97 -33 -125 -44 l-50 -19 45 5 c25 3 65 8 90 11
62 6 130 41 130 66 0 10 1 10 -90 -19z"/>
<path d="M2354 277 c-8 -9 -7 -16 4 -27 13 -12 12 -15 -4 -27 -16 -12 -16 -13
-1 -13 9 0 18 -8 19 -17 2 -33 4 -38 12 -52 7 -11 5 -13 -7 -8 -13 5 -14 2 -4
-26 l11 -32 8 30 c5 17 5 41 2 55 -4 14 -6 31 -5 38 1 6 -2 12 -7 12 -5 0 -8
11 -7 25 2 14 -1 25 -6 25 -4 0 -6 7 -3 15 7 18 3 19 -12 2z"/>
<path d="M1850 270 c8 -5 20 -10 25 -10 6 0 3 5 -5 10 -8 5 -19 10 -25 10 -5
0 -3 -5 5 -10z"/>
<path d="M1920 270 c0 -5 -8 -10 -17 -11 -13 0 -11 -3 6 -10 13 -5 26 -7 29
-4 3 3 0 5 -6 5 -6 0 -9 7 -6 15 4 8 3 15 0 15 -3 0 -6 -4 -6 -10z"/>
<path d="M2560 260 c0 -11 4 -20 9 -20 5 0 7 9 4 20 -3 11 -7 20 -9 20 -2 0
-4 -9 -4 -20z"/>
<path d="M712 206 c-18 -35 -39 -69 -47 -76 -18 -15 -20 -53 -2 -48 15 5 107
170 100 181 -10 16 -20 5 -51 -57z"/>
<path d="M2280 259 c0 -5 -4 -7 -10 -4 -5 3 -10 1 -10 -4 0 -6 4 -11 9 -11 17
0 42 -32 37 -46 -3 -8 -1 -14 4 -14 18 0 11 40 -9 52 -10 6 -17 18 -14 25 3 7
2 13 -1 13 -3 0 -6 -5 -6 -11z"/>
<path d="M2591 260 c-1 -18 16 -46 23 -40 2 3 -2 16 -9 30 -8 15 -14 19 -14
10z"/>
<path d="M623 245 c0 -8 7 -15 15 -15 7 0 12 5 10 12 -6 18 -25 21 -25 3z"/>
<path d="M678 253 c-10 -2 -18 -8 -18 -13 0 -4 9 -6 20 -3 11 3 20 9 20 14 0
5 -1 8 -2 8 -2 -1 -11 -3 -20 -6z"/>
<path d="M786 242 c-3 -5 1 -18 9 -28 13 -18 14 -18 20 -2 4 10 11 15 16 12 5
-3 9 -1 9 5 0 5 -4 13 -10 16 -5 3 -10 1 -10 -6 0 -9 -3 -9 -14 0 -8 7 -17 8
-20 3z"/>
<path d="M2046 237 c3 -10 9 -15 12 -12 3 3 0 11 -7 18 -10 9 -11 8 -5 -6z"/>
<path d="M861 229 c0 -8 -12 -30 -26 -49 -14 -19 -25 -41 -25 -49 -1 -9 -9
-34 -20 -56 -20 -42 -26 -80 -11 -70 5 3 17 29 27 57 14 42 19 49 24 33 4 -11
7 -37 5 -57 -1 -21 2 -35 6 -32 5 3 9 13 9 22 0 13 5 12 20 -8 26 -33 25 -26
-6 50 -25 62 -25 64 -9 100 9 21 15 46 12 56 -3 13 -5 14 -6 3z"/>
<path d="M2500 230 c0 -5 7 -10 16 -10 8 0 12 5 9 10 -3 6 -10 10 -16 10 -5 0
-9 -4 -9 -10z"/>
<path d="M570 220 c0 -16 17 -20 28 -7 8 10 6 13 -9 14 -10 1 -19 -2 -19 -7z"/>
<path d="M890 205 c0 -13 -4 -27 -10 -30 -5 -3 -10 -19 -10 -36 0 -16 5 -29
10 -29 6 0 10 -11 10 -24 0 -42 21 -86 40 -86 11 0 22 5 26 11 4 7 0 9 -14 5
-23 -8 -25 -3 -41 85 -10 57 -6 99 10 99 11 0 12 -9 9 -81 -1 -32 3 -60 9 -63
8 -5 11 16 11 65 0 68 11 84 23 34 4 -17 5 -17 6 4 1 18 5 22 21 18 11 -3 23
-1 26 4 3 5 13 5 24 -1 15 -8 17 -6 13 10 -4 16 -14 20 -52 20 -25 0 -61 4
-79 9 -30 9 -32 8 -32 -14z"/>
<path d="M1700 221 c0 -6 5 -13 10 -16 6 -4 8 -10 6 -14 -3 -4 1 -8 9 -8 11 0
10 5 -2 24 -16 25 -23 29 -23 14z"/>
<path d="M1990 226 c0 -2 7 -9 15 -16 13 -11 14 -10 9 4 -5 14 -24 23 -24 12z"/>
<path d="M2549 213 c-1 -10 -4 -62 -8 -115 l-6 -97 36 1 36 0 -18 48 c-23 62
-36 150 -21 150 6 0 9 7 6 15 -8 21 -24 19 -25 -2z"/>
<path d="M605 200 l-40 -19 40 0 c42 -1 58 6 63 27 3 16 -15 14 -63 -8z"/>
<path d="M1155 210 c11 -5 29 -9 40 -9 17 -1 17 1 5 9 -8 5 -26 9 -40 9 -23 0
-23 -1 -5 -9z"/>
<path d="M1359 215 c-3 -2 -30 -7 -60 -11 -56 -6 -80 -18 -57 -26 17 -7 138
23 138 34 0 9 -14 11 -21 3z"/>
<path d="M1615 183 c13 -79 14 -81 52 -94 21 -6 67 -25 103 -42 66 -30 120
-49 120 -42 0 2 -21 16 -47 31 -27 15 -59 37 -73 48 -18 15 -21 16 -11 3 13
-16 12 -17 -13 -7 -15 5 -37 15 -49 22 -12 7 -25 11 -29 10 -5 -1 -8 7 -8 18
0 12 -7 32 -16 45 -9 13 -13 29 -9 35 3 5 -1 10 -10 10 -13 0 -15 -7 -10 -37z"/>
<path d="M2155 210 c-3 -6 -26 -8 -51 -6 -24 2 -44 0 -44 -4 0 -14 88 -10 100
5 7 8 10 15 7 15 -3 0 -9 -5 -12 -10z"/>
<path d="M2275 194 c0 -13 3 -24 8 -24 4 0 7 9 7 19 0 11 -3 22 -7 24 -5 3 -8
-6 -8 -19z"/>
<path d="M1500 190 c-18 -11 3 -21 39 -18 16 1 28 5 25 9 -6 11 -52 17 -64 9z"/>
<path d="M2612 182 c19 -23 18 -45 -3 -65 -21 -20 -24 -33 -9 -42 6 -4 9 -3 8
2 -2 4 4 18 13 31 15 20 17 21 23 6 4 -10 -1 -25 -10 -36 -10 -10 -15 -20 -12
-23 8 -8 55 49 63 75 5 19 4 21 -4 10 -9 -12 -11 -12 -17 3 -3 9 -4 24 -1 32
4 8 1 17 -5 21 -7 4 -8 3 -4 -4 4 -7 3 -12 -3 -12 -12 0 -9 -18 7 -47 7 -13 9
-23 4 -23 -6 0 -13 10 -17 23 -4 12 -8 25 -10 30 -1 4 -3 13 -4 20 0 8 -8 14
-16 14 -12 0 -12 -3 -3 -15z"/>
<path d="M1125 171 c3 -11 1 -22 -5 -26 -21 -13 -9 -30 23 -32 90 -5 130 -2
150 9 28 16 40 16 49 3 5 -6 8 -4 8 6 0 10 11 15 35 16 19 1 35 -3 35 -8 0 -4
6 -6 14 -3 14 6 30 -22 20 -37 -3 -5 0 -9 5 -9 6 0 11 9 11 20 0 23 0 23 37 8
31 -13 38 -15 54 -17 5 0 7 -6 3 -12 -4 -7 1 -7 16 1 20 11 21 12 4 25 -10 7
-24 11 -31 8 -7 -3 -13 -1 -13 5 0 13 29 24 43 16 9 -5 9 -4 1 5 -9 10 -17 10
-34 1 -19 -10 -36 -8 -96 10 -69 20 -77 21 -117 7 -110 -40 -156 -41 -179 -4
-20 31 -42 37 -33 8z"/>
<path d="M1755 180 c3 -5 8 -10 11 -10 2 0 4 5 4 10 0 6 -5 10 -11 10 -5 0 -7
-4 -4 -10z"/>
<path d="M1855 180 c3 -5 11 -10 16 -10 6 0 7 5 4 10 -3 6 -11 10 -16 10 -6 0
-7 -4 -4 -10z"/>
<path d="M2340 181 c0 -6 4 -13 10 -16 6 -3 7 1 4 9 -7 18 -14 21 -14 7z"/>
<path d="M2570 183 c1 -5 8 -19 16 -33 10 -17 13 -18 8 -5 -3 11 -7 26 -7 33
0 6 -4 12 -9 12 -4 0 -8 -3 -8 -7z"/>
<path d="M2236 158 c3 -13 10 -30 15 -38 7 -13 8 -13 9 0 0 27 -12 60 -22 60
-5 0 -6 -10 -2 -22z"/>
<path d="M2708 155 c-8 -8 4 -65 13 -60 4 3 4 16 -1 29 -5 13 -6 27 -3 30 4 3
4 6 1 6 -2 0 -7 -2 -10 -5z"/>
<path d="M2280 139 c0 -5 5 -7 10 -4 6 3 10 8 10 11 0 2 -4 4 -10 4 -5 0 -10
-5 -10 -11z"/>
<path d="M1032 128 c0 -7 -3 -26 -7 -43 -6 -29 -5 -29 9 -10 16 21 21 65 8 65
-5 0 -9 -6 -10 -12z"/>
<path d="M1843 125 c0 -8 4 -15 9 -15 4 0 8 4 8 9 0 6 -4 12 -8 15 -5 3 -9 -1
-9 -9z"/>
<path d="M740 80 c-25 -27 -58 -57 -75 -65 l-30 -15 37 3 c32 2 42 9 77 56 35
47 48 71 39 71 -2 0 -23 -23 -48 -50z"/>
<path d="M1710 126 c0 -2 8 -10 18 -17 15 -13 16 -12 3 4 -13 16 -21 21 -21
13z"/>
<path d="M1770 120 c0 -5 5 -10 11 -10 5 0 7 5 4 10 -3 6 -8 10 -11 10 -2 0
-4 -4 -4 -10z"/>
<path d="M2336 115 c-3 -9 -6 -26 -5 -38 1 -14 4 -9 9 13 9 37 7 52 -4 25z"/>
<path d="M2041 100 c14 -31 19 -36 19 -24 0 6 -7 19 -16 30 -14 18 -14 18 -3
-6z"/>
<path d="M2280 109 c0 -5 5 -7 10 -4 6 3 10 8 10 11 0 2 -4 4 -10 4 -5 0 -10
-5 -10 -11z"/>
<path d="M521 100 c0 -14 28 -72 29 -59 0 4 -7 22 -15 40 -8 19 -14 27 -14 19z"/>
<path d="M2093 103 c-7 -2 -12 -19 -12 -36 2 -28 2 -29 6 -7 3 14 10 31 15 38
11 13 10 13 -9 5z"/>
<path d="M1303 93 c9 -2 25 -2 35 0 9 3 1 5 -18 5 -19 0 -27 -2 -17 -5z"/>
<path d="M2245 55 c2 -60 15 -70 13 -11 0 25 -4 48 -8 51 -4 2 -6 -16 -5 -40z"/>
<path d="M980 55 c0 -15 4 -24 10 -20 6 3 10 12 10 20 0 8 -4 17 -10 20 -6 4
-10 -5 -10 -20z"/>
<path d="M2706 64 c-4 -9 -4 -19 -1 -22 2 -3 7 3 11 12 4 9 4 19 1 22 -2 3 -7
-3 -11 -12z"/>
<path d="M1440 60 c0 -5 5 -10 10 -10 6 0 10 5 10 10 0 6 -4 10 -10 10 -5 0
-10 -4 -10 -10z"/>
<path d="M2367 44 c-2 -14 -2 -22 1 -19 3 3 14 -2 24 -12 10 -9 18 -11 18 -5
0 6 3 19 6 29 6 17 6 17 -8 -1 -10 -13 -17 -15 -22 -8 -4 7 -2 12 3 12 16 0
13 17 -3 23 -9 4 -16 -3 -19 -19z"/>
<path d="M2298 33 c5 -21 7 -23 10 -9 2 10 0 22 -6 28 -6 6 -7 0 -4 -19z"/>
<path d="M550 15 c0 -8 4 -15 10 -15 5 0 7 7 4 15 -8 19 -14 19 -14 0z"/>
<path d="M2640 19 c0 -5 -4 -7 -10 -4 -5 3 -10 1 -10 -5 0 -15 32 -9 38 8 2 6
-1 12 -7 12 -6 0 -11 -5 -11 -11z"/>
</g>
</svg>
