<?xml version="1.0" standalone="no"?>
<!DOCTYPE svg PUBLIC "-//W3C//DTD SVG 20010904//EN"
 "http://www.w3.org/TR/2001/REC-SVG-20010904/DTD/svg10.dtd">
<svg version="1.0" xmlns="http://www.w3.org/2000/svg"
 width="300.000000pt" height="300.000000pt" viewBox="0 0 300.000000 300.000000"
 preserveAspectRatio="xMidYMid meet">
<metadata>
Created by potrace 1.10, written by Peter Selinger 2001-2011
</metadata>
<g transform="translate(0.000000,300.000000) scale(0.100000,-0.100000)"
fill="#000000" stroke="none">
<path d="M1326 2875 c-107 -17 -204 -60 -235 -103 -47 -67 -64 -162 -40 -233
11 -32 42 -84 88 -146 14 -19 23 -51 27 -94 l7 -65 147 -49 148 -49 -47 -16
c-26 -9 -71 -33 -100 -53 l-51 -37 -31 35 c-52 59 -69 82 -83 116 l-13 31 -41
-37 c-23 -20 -50 -51 -61 -69 -18 -29 -37 -37 -224 -100 -219 -72 -241 -85
-271 -158 -9 -21 -16 -57 -16 -80 0 -24 -11 -88 -25 -142 -36 -141 -65 -322
-65 -403 0 -39 -5 -84 -10 -100 -12 -34 3 -190 20 -207 5 -5 10 -25 10 -43 0
-24 12 -50 39 -86 47 -65 91 -149 91 -177 0 -37 26 -74 104 -143 l76 -68 0
-95 0 -94 38 -24 c20 -13 51 -27 68 -31 35 -7 44 -30 44 -111 0 -24 5 -44 10
-44 14 0 12 110 -3 140 -7 14 -30 31 -52 40 -78 30 -77 28 -83 134 l-5 97 -66
60 c-76 69 -111 114 -111 144 0 28 -42 114 -85 174 -19 26 -35 58 -35 70 0 12
-7 35 -15 52 -22 41 -38 180 -25 213 5 15 10 57 11 94 2 76 41 321 69 427 10
39 21 98 23 133 4 51 11 71 34 100 26 32 44 42 149 76 65 21 135 44 154 51
143 54 148 56 175 99 30 47 67 76 73 57 2 -6 21 -33 43 -59 21 -26 58 -72 81
-102 24 -30 48 -60 53 -67 6 -6 30 -41 55 -77 72 -105 94 -99 103 30 3 47 11
92 17 99 11 13 3 23 -65 78 l-30 25 37 15 c28 12 46 13 82 5 25 -5 46 -12 46
-15 0 -3 -9 -16 -20 -30 -11 -14 -20 -31 -20 -38 0 -17 60 -105 121 -178 25
-30 34 -35 45 -26 19 15 18 110 -1 219 -8 47 -15 86 -15 88 0 6 56 -11 68 -21
21 -17 107 -54 143 -63 19 -4 36 -8 39 -9 3 -1 23 -6 45 -12 22 -7 73 -19 113
-28 39 -8 83 -20 97 -25 29 -11 60 -68 70 -130 4 -25 20 -81 37 -125 16 -44
42 -134 59 -200 17 -66 41 -158 54 -205 35 -124 37 -134 41 -260 2 -63 9 -138
15 -166 6 -28 8 -73 5 -100 -9 -64 -10 -122 -2 -159 9 -40 -32 -117 -65 -125
-24 -6 -24 -7 -23 -136 1 -164 22 -364 38 -364 9 0 8 42 -5 168 -26 263 -28
313 -9 307 36 -11 96 98 85 154 -4 20 -6 54 -4 76 4 68 1 174 -9 335 -8 124
-16 177 -41 262 -17 59 -42 154 -56 210 -14 57 -40 146 -59 198 -18 52 -39
121 -45 152 -14 64 -62 138 -90 138 -10 0 -90 18 -177 40 -124 31 -183 52
-267 94 -76 38 -107 50 -102 38 23 -55 36 -104 31 -109 -3 -4 -24 9 -47 27
-28 22 -55 34 -84 38 l-44 4 61 46 c51 38 59 49 55 70 -5 25 13 50 59 82 40
28 79 191 55 228 -4 7 -3 31 2 52 14 50 -4 113 -42 149 -16 14 -31 38 -35 53
-16 67 -135 91 -310 63z m256 -32 c18 -11 36 -32 42 -51 7 -19 21 -41 33 -50
29 -23 48 -92 36 -129 -6 -15 -8 -56 -5 -91 7 -93 -11 -142 -69 -195 -37 -34
-49 -51 -49 -74 0 -23 -10 -37 -49 -67 -45 -33 -52 -36 -73 -25 -13 7 -72 30
-133 50 -60 21 -113 44 -116 51 -4 7 -11 38 -17 69 -7 41 -22 72 -51 110 -74
97 -87 183 -43 282 11 25 32 53 46 62 40 27 156 63 220 69 33 3 60 7 62 8 10
11 141 -4 166 -19z m91 -907 c3 -56 4 -102 3 -103 -1 -1 -32 40 -69 92 l-67
95 22 34 22 33 42 -25 41 -25 6 -101z m-250 102 c42 -29 47 -36 41 -58 -4 -14
-10 -62 -13 -108 l-6 -83 -84 116 c-45 64 -81 118 -80 119 6 6 84 45 89 46 2
0 26 -15 53 -32z"/>
<path d="M846 1138 c-21 -34 -34 -86 -39 -151 -4 -49 -1 -63 17 -83 19 -23 23
-24 41 -10 17 12 20 30 25 123 8 134 -8 177 -44 121z m22 -113 c-6 -66 -12
-122 -15 -125 -2 -3 -11 4 -18 14 -15 20 -13 75 7 156 11 46 27 84 33 78 1 -1
-2 -57 -7 -123z"/>
<path d="M1652 1058 c-5 -7 -13 -52 -17 -100 -7 -88 -7 -88 16 -89 13 -1 27
-1 31 0 3 0 58 1 122 2 98 1 118 4 137 20 12 10 18 19 13 19 -5 0 -15 20 -22
43 -7 24 -22 58 -32 75 -18 29 -22 31 -45 20 -14 -6 -25 -15 -25 -19 0 -18
-33 -16 -77 5 -70 34 -89 38 -101 24z m80 -38 c34 -16 66 -30 70 -30 5 0 24
11 42 25 l33 25 23 -62 c12 -35 24 -67 26 -73 3 -6 -49 -11 -140 -14 l-144 -3
9 43 c4 24 8 61 9 82 0 20 2 37 5 37 3 0 33 -13 67 -30z"/>
<path d="M1581 38 c-5 -13 -6 -27 -2 -33 3 -6 7 2 9 18 2 15 7 27 11 27 4 0
14 -12 21 -27 7 -16 15 -23 17 -16 6 18 -15 53 -33 53 -8 0 -18 -10 -23 -22z"/>
</g>
</svg>
