<?xml version="1.0" standalone="no"?>
<!DOCTYPE svg PUBLIC "-//W3C//DTD SVG 20010904//EN"
 "http://www.w3.org/TR/2001/REC-SVG-20010904/DTD/svg10.dtd">
<svg version="1.0" xmlns="http://www.w3.org/2000/svg"
 width="300.000000pt" height="300.000000pt" viewBox="0 0 300.000000 300.000000"
 preserveAspectRatio="xMidYMid meet">
<metadata>
Created by potrace 1.10, written by Peter Selinger 2001-2011
</metadata>
<g transform="translate(0.000000,300.000000) scale(0.100000,-0.100000)"
fill="#000000" stroke="none">
<path d="M1547 2973 c-4 -27 -4 -27 -12 -6 -11 33 -25 18 -21 -20 3 -18 5 -34
7 -37 1 -3 1 -8 0 -12 0 -4 6 -5 14 -2 8 4 15 14 15 23 0 12 2 13 9 3 7 -11 9
-11 14 2 3 8 2 18 -2 20 -5 3 -6 17 -3 31 2 14 0 25 -6 25 -6 0 -13 -12 -15
-27z"/>
<path d="M1590 2970 c-5 -14 -7 -83 -2 -70 3 8 9 18 14 21 5 3 4 16 -1 30 -5
13 -10 22 -11 19z"/>
<path d="M1644 2911 c-12 -11 -24 -18 -26 -16 -2 2 -3 -7 -3 -20 1 -14 5 -28
10 -32 4 -5 5 -2 1 5 -4 7 -1 12 8 12 9 0 16 -8 16 -19 0 -10 12 -30 27 -45
15 -15 27 -37 28 -49 0 -12 4 -22 10 -22 11 0 7 56 -5 69 -5 5 -6 14 -3 21 3
10 -2 12 -18 8 -13 -4 -20 -2 -16 4 3 5 3 31 -1 57 l-7 47 -21 -20z"/>
<path d="M1406 2893 c-4 -9 -1 -20 6 -25 18 -11 28 -10 28 2 0 6 -7 10 -15 10
-9 0 -12 6 -9 15 4 8 4 15 1 15 -3 0 -8 -8 -11 -17z"/>
<path d="M1465 2879 c-16 -16 -36 -29 -42 -29 -7 0 -13 -10 -13 -22 1 -22 1
-23 15 -4 15 19 15 19 15 -5 0 -19 2 -21 10 -9 8 13 10 12 10 -2 0 -10 4 -18
9 -18 11 0 2 38 -10 46 -10 6 14 34 28 34 5 0 7 -15 5 -34 -3 -25 1 -35 13
-40 15 -5 16 -4 5 9 -7 8 -8 15 -3 15 8 0 11 49 4 83 -2 13 -16 6 -46 -24z"/>
<path d="M1366 2865 c-3 -8 -15 -15 -26 -15 -12 0 -25 -10 -32 -25 -6 -14 -19
-25 -27 -24 -28 2 -45 -1 -38 -7 3 -4 2 -15 -3 -25 -11 -19 -4 -49 11 -49 5 0
9 9 9 20 0 13 5 18 15 14 9 -4 15 0 15 10 0 10 -5 13 -17 9 -11 -4 -14 -3 -9
5 4 7 14 12 22 12 16 0 20 -45 4 -55 -5 -3 -10 -11 -10 -16 0 -13 24 11 32 32
3 9 2 22 -2 29 -6 9 -2 19 12 28 16 12 17 16 7 23 -21 13 18 12 43 -2 25 -14
31 -8 22 25 -7 29 -19 34 -28 11z"/>
<path d="M1730 2795 c0 -15 4 -24 10 -20 6 3 10 12 10 20 0 8 -4 17 -10 20 -6
4 -10 -5 -10 -20z"/>
<path d="M1336 2793 c-3 -7 0 -15 6 -19 7 -4 8 -3 4 4 -5 8 2 12 18 12 14 0
26 4 26 9 0 13 -49 8 -54 -6z"/>
<path d="M1757 2764 c-3 -3 -3 -12 0 -20 3 -8 0 -14 -7 -14 -10 0 -10 -3 0
-15 20 -24 30 -17 30 20 0 33 -8 43 -23 29z"/>
<path d="M1197 2741 c-3 -12 -1 -19 4 -15 5 3 9 0 9 -6 0 -6 -7 -13 -15 -16
-16 -7 -11 -24 7 -24 6 0 8 3 5 7 -4 3 1 15 10 25 15 17 15 20 1 34 -14 14
-16 14 -21 -5z"/>
<path d="M1234 2687 c1 -12 -4 -21 -11 -19 -7 1 -13 -3 -13 -9 0 -5 -3 -8 -7
-6 -5 3 -8 -10 -9 -28 0 -27 2 -31 13 -20 7 8 10 21 7 29 -7 18 7 21 22 7 5
-6 9 2 9 24 0 18 -3 36 -6 39 -3 3 -5 -4 -5 -17z"/>
<path d="M1730 2701 c0 -10 19 -25 25 -20 1 2 -3 10 -11 17 -8 7 -14 8 -14 3z"/>
<path d="M1794 2692 c4 -11 9 -30 11 -41 2 -12 6 -25 9 -30 3 -5 -1 -11 -9
-15 -8 -3 -15 -10 -15 -16 0 -6 4 -9 9 -6 5 3 13 0 19 -7 11 -13 12 -16 12
-48 0 -19 1 -19 16 -4 14 13 14 23 6 58 -15 57 -39 114 -53 123 -7 4 -9 0 -5
-14z"/>
<path d="M1261 2684 c0 -11 3 -14 6 -6 3 7 2 16 -1 19 -3 4 -6 -2 -5 -13z"/>
<path d="M1770 2672 c0 -11 4 -23 8 -26 10 -6 9 30 -1 40 -4 4 -7 -2 -7 -14z"/>
<path d="M1578 2655 c-3 -13 -2 -22 2 -20 11 7 20 45 10 45 -4 0 -10 -11 -12
-25z"/>
<path d="M1330 2666 c0 -2 8 -10 18 -17 15 -13 16 -12 3 4 -13 16 -21 21 -21
13z"/>
<path d="M1530 2660 c0 -5 5 -10 11 -10 5 0 7 5 4 10 -3 6 -8 10 -11 10 -2 0
-4 -4 -4 -10z"/>
<path d="M1370 2652 c0 -12 19 -26 26 -19 2 2 -2 10 -11 17 -9 8 -15 8 -15 2z"/>
<path d="M1152 2643 c-14 -3 -28 -17 -37 -40 -15 -36 -17 -83 -2 -83 5 0 1 -7
-8 -16 -20 -20 -11 -32 10 -14 9 8 14 21 12 31 -3 13 1 16 18 14 17 -1 23 3
23 19 0 12 2 38 4 59 2 20 3 36 3 36 0 -1 -10 -4 -23 -6z m4 -57 c-3 -11 -6
-24 -6 -28 0 -5 -6 -8 -14 -8 -10 0 -13 7 -10 23 3 12 6 27 6 34 1 6 8 9 15 6
9 -4 12 -14 9 -27z"/>
<path d="M1281 2594 c0 -11 3 -14 6 -6 3 7 2 16 -1 19 -3 4 -6 -2 -5 -13z"/>
<path d="M1720 2599 c0 -5 5 -7 10 -4 6 3 10 8 10 11 0 2 -4 4 -10 4 -5 0 -10
-5 -10 -11z"/>
<path d="M1545 2579 c-4 -6 -5 -12 -2 -15 2 -3 7 2 10 11 7 17 1 20 -8 4z"/>
<path d="M1201 2564 c0 -11 3 -14 6 -6 3 7 2 16 -1 19 -3 4 -6 -2 -5 -13z"/>
<path d="M1748 2573 c7 -3 16 -2 19 1 4 3 -2 6 -13 5 -11 0 -14 -3 -6 -6z"/>
<path d="M1757 2549 c7 -7 15 -10 18 -7 3 3 -2 9 -12 12 -14 6 -15 5 -6 -5z"/>
<path d="M1791 2543 c-1 -12 4 -25 9 -28 12 -7 12 2 0 30 -8 19 -9 19 -9 -2z"/>
<path d="M1514 2537 c-3 -9 -15 -17 -25 -17 -20 0 -26 -15 -9 -25 6 -4 19 4
30 17 15 18 19 19 20 7 0 -22 36 -54 45 -40 3 6 1 11 -5 11 -5 0 -19 14 -30
32 -16 26 -20 29 -26 15z"/>
<path d="M1246 2523 c-6 -14 -5 -15 5 -6 7 7 10 15 7 18 -3 3 -9 -2 -12 -12z"/>
<path d="M1839 2503 c-13 -14 -18 -23 -10 -18 10 6 12 2 6 -14 -3 -11 -2 -21
3 -21 5 0 8 -17 6 -37 -4 -51 -4 -51 -15 -28 -9 20 -9 20 -6 0 1 -12 10 -20
22 -20 14 0 21 -8 23 -25 2 -14 15 -36 29 -49 l26 -25 -6 25 c-4 13 -7 30 -7
38 0 10 -3 11 -13 2 -10 -8 -14 -7 -14 4 0 8 6 15 14 15 7 0 13 5 13 11 0 5
-4 7 -10 4 -6 -3 -10 4 -10 17 0 18 -2 20 -10 8 -8 -13 -10 -12 -11 5 -5 54
-4 73 3 69 4 -3 8 8 8 25 0 41 -13 45 -41 14z"/>
<path d="M1134 2492 c-8 -22 -8 -33 2 -47 12 -16 13 -15 12 11 -1 16 2 37 6
47 5 9 4 17 -1 17 -5 0 -13 -13 -19 -28z"/>
<path d="M1420 2510 c0 -6 -4 -8 -10 -5 -5 3 -10 1 -10 -4 0 -6 -3 -10 -7 -10
-21 3 -34 -2 -32 -13 4 -21 -20 -68 -32 -66 -14 4 -31 -39 -19 -47 6 -4 10 3
10 14 0 19 15 26 43 22 7 -1 11 18 10 46 0 7 8 15 18 18 11 4 19 10 19 15 0
15 33 21 42 8 6 -9 8 -7 6 7 -3 21 -38 35 -38 15z"/>
<path d="M1160 2477 c0 -17 28 -43 37 -33 3 3 1 6 -6 6 -6 0 -11 7 -9 16 2 10
-3 19 -9 21 -7 3 -13 -2 -13 -10z"/>
<path d="M1093 2454 c-4 -10 -2 -19 5 -22 15 -5 16 -32 1 -32 -5 0 -8 3 -5 8
2 4 -2 16 -10 27 -13 18 -14 17 -10 -17 3 -21 1 -40 -3 -43 -5 -2 -8 -17 -8
-32 l0 -28 14 33 c12 30 33 44 33 21 0 -5 -4 -7 -10 -4 -5 3 -9 -2 -8 -12 3
-39 -2 -73 -12 -73 -5 0 -10 7 -10 15 0 8 -4 15 -10 15 -13 0 -13 -13 0 -26 7
-7 8 -19 1 -37 -7 -17 -7 -28 0 -32 5 -4 9 -3 8 2 -2 14 1 27 10 42 8 12 12
12 25 -2 19 -19 21 -37 3 -37 -16 0 -39 -37 -28 -44 5 -3 11 3 14 14 3 11 10
20 17 20 7 0 9 -8 4 -22 -4 -13 -10 -39 -13 -58 -4 -19 -11 -35 -16 -35 -19 0
-35 -16 -35 -36 0 -19 0 -19 20 1 25 25 36 25 49 3 6 -10 11 -16 11 -13 0 3 4
20 9 38 6 18 6 30 1 27 -5 -3 -8 3 -8 12 0 10 0 23 -2 28 -1 6 -2 21 -1 34 1
18 5 22 21 18 11 -3 18 -1 14 4 -3 5 -12 9 -20 9 -10 0 -12 5 -8 12 11 17 12
48 3 48 -4 0 -9 -6 -12 -12 -2 -7 -8 -10 -12 -6 -4 4 -2 14 5 23 10 12 10 15
0 15 -8 0 -9 6 -5 18 4 9 9 28 10 42 1 14 3 28 4 32 0 4 11 7 24 6 39 -2 46 2
57 25 11 21 10 21 -4 3 -9 -11 -16 -17 -16 -13 0 4 -9 3 -20 -3 -13 -7 -20 -7
-20 -1 0 6 -7 8 -16 4 -13 -5 -15 -2 -10 14 9 28 -21 54 -31 27z m32 -313 c3
-5 1 -12 -5 -16 -5 -3 -10 1 -10 9 0 18 6 21 15 7z m2 -53 c-3 -8 -6 -5 -6 6
-1 11 2 17 5 13 3 -3 4 -12 1 -19z"/>
<path d="M1567 2448 c11 -17 32 -98 33 -124 0 -12 7 -27 15 -34 13 -10 15 -9
15 8 0 12 -5 24 -10 27 -6 4 -7 12 -1 23 6 11 4 20 -7 29 -11 8 -12 12 -4 13
6 0 12 5 12 12 0 6 -3 8 -7 5 -4 -4 -12 6 -19 23 -7 16 -18 30 -24 30 -7 0 -8
-5 -3 -12z"/>
<path d="M1274 2379 c-3 -6 -1 -16 4 -21 8 -8 11 -5 9 11 -1 24 -3 25 -13 10z"/>
<path d="M1164 2368 c3 -11 0 -18 -8 -18 -14 0 -19 -47 -7 -54 12 -8 28 62 18
76 -6 9 -7 8 -3 -4z"/>
<path d="M1220 2369 c0 -5 5 -7 10 -4 6 3 10 8 10 11 0 2 -4 4 -10 4 -5 0 -10
-5 -10 -11z"/>
<path d="M1250 2340 c-13 -8 -12 -10 3 -10 9 0 17 5 17 10 0 12 -1 12 -20 0z"/>
<path d="M1842 2338 c-16 -16 -15 -25 1 -25 7 0 13 9 13 19 0 21 1 21 -14 6z"/>
<path d="M1290 2324 c0 -9 -5 -12 -12 -8 -8 5 -8 1 1 -10 13 -15 13 -19 0 -27
-11 -7 -11 -9 4 -9 13 0 17 8 17 35 0 19 -2 35 -5 35 -3 0 -5 -7 -5 -16z"/>
<path d="M1330 2325 c0 -9 -4 -13 -10 -10 -5 3 -10 1 -10 -4 0 -15 15 -14 29
3 8 10 9 16 1 21 -5 3 -10 -1 -10 -10z"/>
<path d="M1630 2331 c0 -5 5 -13 10 -16 6 -3 10 -2 10 4 0 5 -4 13 -10 16 -5
3 -10 2 -10 -4z"/>
<path d="M1820 2293 c0 -5 5 -15 10 -23 7 -12 12 -12 22 -2 9 9 8 12 -6 12 -9
0 -14 5 -11 10 3 6 1 10 -4 10 -6 0 -11 -3 -11 -7z"/>
<path d="M1867 2289 c9 -9 10 -16 2 -26 -7 -8 -8 -13 -1 -13 5 0 14 6 20 13 8
10 5 16 -11 26 -17 10 -19 11 -10 0z"/>
<path d="M1310 2275 c-1 -11 -2 -26 -1 -32 1 -7 -3 -13 -9 -13 -5 0 -10 4 -10
10 0 5 -10 14 -22 20 -22 10 -22 10 -4 -4 10 -8 15 -19 11 -25 -3 -6 -2 -11 4
-11 5 0 8 -7 7 -15 -3 -20 -16 -32 -16 -14 0 8 -9 25 -20 39 -19 24 -19 24
-13 3 3 -13 9 -23 14 -23 5 0 9 -4 9 -10 0 -5 -7 -6 -17 -3 -11 4 -14 3 -9 -5
4 -7 14 -12 22 -12 17 0 17 -1 5 -34 -7 -17 -7 -26 2 -29 7 -2 9 -7 5 -11 -3
-4 -20 -1 -36 8 -28 14 -30 14 -35 -4 -6 -22 9 -28 16 -7 5 16 33 -7 52 -43
15 -29 10 -70 -8 -70 -7 0 -7 -4 1 -12 17 -17 15 -28 -5 -22 -16 5 -16 4 -2
-5 23 -15 25 -91 2 -91 -15 0 -14 -2 3 -15 19 -14 19 -14 -1 -16 -18 -1 -17
-2 3 -7 13 -4 22 -11 20 -17 -2 -5 -7 -9 -13 -7 -5 2 -1 -6 9 -17 11 -12 23
-45 28 -73 5 -29 10 -57 12 -63 13 -46 17 -70 19 -142 2 -65 0 -79 -10 -71
-10 8 -13 5 -13 -11 0 -12 5 -19 10 -16 6 4 10 -10 10 -34 0 -22 -4 -42 -8
-45 -5 -3 -8 -21 -7 -41 l2 -36 -24 23 c-14 13 -24 19 -23 13 5 -22 -1 -46 -9
-41 -5 4 -7 -3 -4 -14 3 -13 0 -20 -8 -20 -10 0 -10 -3 -2 -11 6 -6 9 -19 6
-28 -5 -15 -4 -15 12 1 12 11 17 30 17 60 l-1 43 23 -47 c30 -63 85 -133 120
-153 36 -22 95 -15 136 17 16 12 42 49 57 80 28 57 43 72 43 43 0 -8 5 -15 10
-15 15 0 12 30 -4 36 -16 6 -13 61 4 78 5 5 10 15 10 21 0 5 -7 1 -15 -9 -8
-11 -16 -18 -18 -15 -10 14 -26 102 -21 112 5 9 4 9 -6 0 -10 -10 -11 -25 -1
-75 18 -100 18 -101 -6 -150 -34 -67 -88 -118 -127 -118 -29 0 -106 42 -106
58 0 4 -12 20 -27 36 -24 26 -25 31 -14 62 8 22 12 93 12 198 0 132 -4 178
-21 242 -11 43 -20 88 -20 100 0 12 -7 29 -15 37 -11 12 -13 35 -8 121 7 130
20 136 54 27 16 -51 35 -67 71 -58 31 8 48 47 57 125 4 40 11 58 21 60 12 2
16 -7 17 -37 2 -43 22 -89 47 -110 13 -11 22 -11 44 -2 16 7 29 17 30 24 0 7
3 23 7 37 4 19 2 17 -9 -7 -16 -35 -50 -51 -71 -33 -23 19 -37 81 -22 99 10
12 9 13 -2 6 -29 -17 -2 59 31 87 29 25 34 26 48 13 38 -34 54 -277 30 -447
-11 -79 -73 -264 -97 -290 -28 -31 -58 -22 -101 30 -21 26 -45 58 -51 70 -7
13 -15 22 -17 19 -13 -13 96 -179 112 -170 65 37 86 41 78 16 -5 -15 -4 -15 4
-3 6 8 8 18 6 22 -10 16 8 48 26 48 15 0 18 6 14 26 -3 16 3 40 16 61 22 37
25 47 11 39 -4 -3 -6 6 -3 19 2 14 7 23 11 21 3 -2 5 12 5 32 -1 21 1 41 4 47
6 9 11 73 15 172 1 28 5 55 9 59 4 4 4 12 -1 18 -13 16 -18 106 -6 106 5 0 4
4 -4 9 -8 5 -11 16 -6 30 4 12 2 28 -5 36 -6 8 -9 18 -6 23 8 13 -14 72 -27
72 -5 0 -3 8 6 18 20 21 22 32 6 32 -5 0 -7 -4 -4 -10 10 -17 -7 -11 -22 8
-13 15 -14 14 -9 -17 4 -19 13 -48 21 -64 21 -43 19 -45 -15 -12 -27 26 -32
27 -55 15 -14 -7 -24 -18 -23 -24 3 -21 -25 -64 -45 -70 -12 -3 -21 -4 -22 -3
-5 24 -35 62 -50 62 -19 0 -65 -57 -65 -79 1 -6 8 1 16 17 21 39 67 38 84 -3
22 -54 -14 -190 -52 -190 -20 0 -48 42 -48 73 0 39 -8 52 -37 61 -21 7 -23 14
-23 72 0 39 6 77 16 95 8 17 13 42 11 57 -3 20 -5 22 -7 7z m350 -165 c0 -5
-4 -10 -10 -10 -5 0 -10 5 -10 10 0 6 5 10 10 10 6 0 10 -4 10 -10z"/>
<path d="M1740 2270 c0 -5 5 -10 11 -10 5 0 7 5 4 10 -3 6 -8 10 -11 10 -2 0
-4 -4 -4 -10z"/>
<path d="M1653 2228 c-2 -16 1 -18 10 -9 7 7 8 14 1 21 -6 6 -10 2 -11 -12z"/>
<path d="M1830 2240 c0 -5 5 -10 11 -10 5 0 7 5 4 10 -3 6 -8 10 -11 10 -2 0
-4 -4 -4 -10z"/>
<path d="M1900 2242 c-8 -3 -23 -14 -32 -25 -20 -22 -23 -31 -8 -22 6 3 10 2
10 -3 0 -5 11 -7 25 -4 14 2 25 11 25 20 0 12 -3 13 -12 4 -7 -7 -18 -12 -26
-12 -10 0 -10 4 3 16 22 23 49 10 41 -20 -4 -15 0 -28 9 -36 10 -9 15 -9 15
-1 0 6 -4 11 -8 11 -5 0 -7 13 -4 30 2 17 9 27 15 23 5 -3 7 -1 4 4 -9 14 -38
21 -57 15z"/>
<path d="M1190 2230 c0 -5 5 -10 10 -10 6 0 10 5 10 10 0 6 -4 10 -10 10 -5 0
-10 -4 -10 -10z"/>
<path d="M1040 2201 c0 -5 5 -13 10 -16 6 -3 10 -2 10 4 0 5 -4 13 -10 16 -5
3 -10 2 -10 -4z"/>
<path d="M1210 2177 c0 -15 27 -43 34 -36 3 2 -4 15 -15 28 -13 16 -19 18 -19
8z"/>
<path d="M1814 2174 c-18 -14 -18 -15 4 -4 12 6 22 13 22 15 0 8 -5 6 -26 -11z"/>
<path d="M1350 2148 c-11 -18 -20 -41 -20 -50 0 -9 -3 -24 -7 -34 -4 -11 -3
-15 4 -11 6 4 14 22 17 41 4 19 16 46 27 60 11 14 16 26 10 26 -6 0 -20 -15
-31 -32z"/>
<path d="M1890 2160 c-9 -16 -8 -20 5 -20 8 0 15 9 15 20 0 11 -2 20 -5 20 -2
0 -9 -9 -15 -20z"/>
<path d="M1074 2139 c0 -10 4 -19 8 -19 4 0 8 6 8 14 0 8 -4 17 -8 20 -4 2 -8
-4 -8 -15z"/>
<path d="M1166 2147 c3 -10 9 -15 12 -12 3 3 0 11 -7 18 -10 9 -11 8 -5 -6z"/>
<path d="M1579 2121 c11 -7 9 -11 -8 -20 -11 -7 -21 -16 -21 -21 0 -15 30 -12
30 3 0 6 5 4 11 -6 12 -21 4 -33 -26 -39 -19 -5 -19 -5 -2 -13 13 -5 25 -2 38
11 16 17 17 22 6 44 -8 14 -12 31 -9 38 2 6 -5 12 -15 12 -14 0 -15 -2 -4 -9z"/>
<path d="M1903 2118 c5 -13 1 -18 -13 -18 -11 0 -20 -7 -20 -15 0 -8 5 -15 10
-15 6 0 10 5 10 12 0 6 9 3 21 -8 20 -18 20 -18 13 11 -3 17 -11 35 -17 40 -7
7 -8 4 -4 -7z"/>
<path d="M1397 2086 c-4 -10 -11 -14 -17 -11 -5 3 -10 2 -10 -4 0 -5 -3 -16
-6 -24 -4 -11 1 -15 20 -13 14 0 26 7 26 14 0 7 5 10 10 7 6 -4 7 -11 4 -17
-4 -7 -2 -8 4 -4 16 10 15 17 -7 45 -16 21 -19 21 -24 7z"/>
<path d="M1750 2089 c0 -5 5 -7 10 -4 6 3 10 8 10 11 0 2 -4 4 -10 4 -5 0 -10
-5 -10 -11z"/>
<path d="M1158 2065 c-3 -14 -2 -27 1 -30 4 -2 8 10 9 26 3 36 -4 38 -10 4z"/>
<path d="M1216 2081 c-4 -6 3 -15 14 -21 15 -8 19 -17 15 -31 -4 -11 -2 -19 4
-19 6 0 11 7 11 16 0 22 -37 67 -44 55z"/>
<path d="M1087 2063 c-4 -3 -7 -19 -7 -35 0 -15 -4 -28 -9 -28 -16 0 -22 -36
-12 -63 8 -21 7 -25 -4 -21 -16 6 -28 -26 -19 -50 4 -9 1 -16 -6 -16 -8 0 -11
-11 -8 -30 3 -16 1 -30 -4 -30 -14 0 -9 -81 7 -96 19 -19 19 -30 1 -37 -10 -4
-13 -1 -10 7 3 8 1 17 -5 20 -13 9 -10 -37 4 -46 6 -5 5 -11 -5 -18 -11 -7
-12 -10 -2 -10 9 0 11 -7 7 -20 -4 -12 -2 -20 6 -20 9 0 8 -4 -1 -15 -10 -11
-10 -18 -1 -29 7 -8 9 -26 5 -43 -5 -23 -4 -26 7 -15 23 21 30 13 12 -15 -22
-33 -27 -68 -13 -91 8 -14 10 -12 8 12 -3 31 16 47 25 21 8 -20 -10 -68 -22
-60 -6 3 -9 -3 -8 -13 1 -14 7 -18 22 -14 16 5 18 3 8 -9 -10 -12 -9 -15 5
-15 14 0 16 8 13 43 -2 29 1 43 9 43 9 0 10 3 1 13 -6 8 -7 18 -3 22 4 5 2 5
-5 2 -8 -5 -10 4 -8 30 3 39 -10 67 -26 57 -5 -3 -9 0 -9 5 0 6 5 11 11 11 6
0 9 7 6 15 -4 8 -2 17 3 20 12 7 13 25 2 25 -5 0 -13 -12 -18 -27 -10 -26 -11
-26 -10 14 0 25 6 45 14 48 7 2 17 15 22 27 l9 23 0 -24 c1 -13 -6 -29 -15
-36 -15 -11 -15 -12 0 -12 9 0 16 4 16 9 0 5 5 6 11 2 7 -4 9 1 5 15 -3 11 -9
31 -12 42 -6 21 -7 20 -24 -6 -11 -17 -20 -23 -25 -16 -4 7 -1 19 6 27 15 18
20 54 7 54 -16 0 -7 18 12 23 11 3 20 11 20 17 0 10 -3 10 -14 1 -12 -10 -13
-6 -9 26 2 21 5 45 5 53 1 8 6 18 11 22 6 3 10 26 9 50 -1 23 3 50 8 58 8 12
10 12 11 -5 0 -11 3 -14 6 -7 3 7 -1 20 -8 28 -8 9 -9 18 -3 22 5 4 9 22 9 40
0 31 -5 39 -18 25z m-7 -93 c0 -5 -4 -10 -10 -10 -5 0 -10 5 -10 10 0 6 5 10
10 10 6 0 10 -4 10 -10z m-16 -86 c9 -22 -3 -32 -14 -14 -12 19 -12 30 -1 30
5 0 12 -7 15 -16z m-17 -64 c1 -11 -2 -18 -8 -15 -11 7 -12 35 -1 35 4 0 8 -9
9 -20z m-2 -50 c-3 -5 -11 -10 -16 -10 -6 0 -7 5 -4 10 3 6 11 10 16 10 6 0 7
-4 4 -10z m12 -342 c-3 -8 -6 -5 -6 6 -1 11 2 17 5 13 3 -3 4 -12 1 -19z"/>
<path d="M1700 2061 c0 -6 4 -13 10 -16 6 -3 7 1 4 9 -7 18 -14 21 -14 7z"/>
<path d="M1190 2050 c-7 -41 12 -86 24 -55 3 9 2 13 -3 10 -6 -3 -12 9 -14 27
-2 18 -5 26 -7 18z"/>
<path d="M1887 2042 c1 -8 3 -16 3 -18 0 -2 7 -4 15 -4 13 0 14 -4 5 -20 -8
-14 -8 -26 0 -40 9 -16 8 -19 -7 -14 -16 5 -16 5 0 -6 23 -15 23 -15 30 42 6
46 -9 78 -32 64 -5 -3 -11 -3 -14 1 -2 5 -2 2 0 -5z"/>
<path d="M1771 2034 c0 -11 3 -14 6 -6 3 7 2 16 -1 19 -3 4 -6 -2 -5 -13z"/>
<path d="M1150 2009 c0 -5 5 -7 10 -4 6 3 10 8 10 11 0 2 -4 4 -10 4 -5 0 -10
-5 -10 -11z"/>
<path d="M1400 2004 c-17 -9 -20 -14 -9 -14 9 0 22 7 29 15 15 18 13 18 -20
-1z"/>
<path d="M1875 2000 c-3 -5 -1 -10 4 -10 6 0 11 5 11 10 0 6 -2 10 -4 10 -3 0
-8 -4 -11 -10z"/>
<path d="M1167 1958 c-7 -26 7 -57 17 -39 4 6 2 11 -4 11 -6 0 -8 10 -4 25 3
14 4 25 1 25 -2 0 -7 -10 -10 -22z"/>
<path d="M1213 1963 c-4 -9 -1 -19 5 -21 15 -5 16 -23 1 -19 -6 1 -14 -4 -16
-11 -4 -11 -1 -12 16 -3 23 13 27 26 10 36 -6 4 -8 13 -5 21 3 8 3 14 0 14 -2
0 -8 -8 -11 -17z"/>
<path d="M1520 1920 c0 -11 6 -19 13 -17 18 3 9 -34 -14 -58 -14 -14 -22 -16
-30 -8 -13 13 -42 6 -33 -8 3 -5 10 -7 15 -3 5 3 16 1 24 -6 10 -9 20 -7 39 5
28 19 33 48 14 90 -13 30 -28 33 -28 5z"/>
<path d="M1885 1919 c-4 -5 -4 -13 -1 -16 3 -4 6 -1 6 6 0 7 5 9 10 6 6 -3 10
-17 10 -29 0 -13 7 -29 16 -37 14 -11 14 -13 -1 -21 -8 -5 -13 -14 -10 -19 4
-5 10 -7 15 -4 6 3 9 -14 8 -39 -2 -35 -5 -43 -15 -34 -18 15 -16 -2 3 -23 17
-19 10 -43 -10 -36 -6 3 -12 -3 -12 -13 0 -15 4 -16 18 -9 13 7 18 6 20 -3 0
-7 4 7 7 32 4 25 3 53 -1 62 -4 9 -4 19 1 22 5 4 12 0 15 -6 6 -13 0 16 -10
52 -3 11 -1 20 6 20 6 0 -2 11 -17 24 -15 13 -24 28 -20 32 4 5 12 2 17 -6 6
-8 10 -10 10 -4 0 11 -23 34 -47 48 -6 3 -15 1 -18 -5z"/>
<path d="M1460 1905 c0 -8 4 -15 10 -15 5 0 7 7 4 15 -4 8 -8 15 -10 15 -2 0
-4 -7 -4 -15z"/>
<path d="M1150 1891 c0 -6 4 -13 10 -16 6 -3 7 1 4 9 -7 18 -14 21 -14 7z"/>
<path d="M1442 1880 c0 -14 2 -19 5 -12 2 6 2 18 0 25 -3 6 -5 1 -5 -13z"/>
<path d="M1183 1876 c2 -19 33 -31 42 -16 3 5 -3 7 -12 6 -10 -2 -21 4 -25 13
-6 13 -7 12 -5 -3z"/>
<path d="M1701 1864 c0 -11 3 -14 6 -6 3 7 2 16 -1 19 -3 4 -6 -2 -5 -13z"/>
<path d="M1086 1848 c-3 -13 -5 -36 -5 -53 1 -21 4 -15 10 20 8 52 6 72 -5 33z"/>
<path d="M1417 1860 c-3 -8 -12 -36 -22 -63 -9 -26 -15 -52 -13 -59 2 -6 14
17 27 51 12 34 20 67 18 74 -3 8 -6 7 -10 -3z"/>
<path d="M1180 1816 c7 -7 14 -6 21 1 9 9 7 12 -9 10 -14 -1 -18 -5 -12 -11z"/>
<path d="M1725 1810 c-3 -5 -1 -10 4 -10 6 0 11 5 11 10 0 6 -2 10 -4 10 -3 0
-8 -4 -11 -10z"/>
<path d="M1103 1794 c-3 -8 -2 -19 3 -24 5 -5 9 1 9 16 0 28 -3 30 -12 8z"/>
<path d="M1785 1800 c-3 -5 -2 -10 4 -10 5 0 13 5 16 10 3 6 2 10 -4 10 -5 0
-13 -4 -16 -10z"/>
<path d="M1830 1806 c0 -2 7 -7 16 -10 8 -3 12 -2 9 4 -6 10 -25 14 -25 6z"/>
<path d="M1881 1794 c0 -11 3 -14 6 -6 3 7 2 16 -1 19 -3 4 -6 -2 -5 -13z"/>
<path d="M1163 1780 c-1 -16 1 -17 12 -7 7 6 11 15 8 20 -8 13 -19 7 -20 -13z"/>
<path d="M1203 1773 c4 -3 1 -13 -6 -22 -11 -14 -10 -14 5 -2 16 12 16 31 1
31 -4 0 -3 -3 0 -7z"/>
<path d="M1528 1773 c-16 -2 -28 -8 -28 -13 0 -5 -13 -8 -28 -8 -44 1 -74 -19
-66 -45 12 -38 77 -63 122 -46 31 12 37 7 22 -21 -10 -18 -9 -21 1 -15 9 6 11
3 6 -9 -4 -10 -7 -20 -7 -22 0 -2 -13 -4 -30 -4 -16 0 -30 -5 -30 -11 0 -11
28 -9 62 6 13 5 16 2 12 -17 -4 -17 -3 -19 4 -8 14 21 27 100 13 80 -18 -26
-20 -7 -5 50 24 93 23 94 -48 83z m33 -26 c-1 -4 -1 -18 -1 -32 0 -16 -6 -25
-15 -25 -8 0 -15 -4 -15 -8 0 -16 -79 -7 -97 11 -21 21 -8 38 34 43 50 7 62
10 70 17 8 9 25 5 24 -6z"/>
<path d="M1495 1710 c3 -5 8 -10 11 -10 2 0 4 5 4 10 0 6 -5 10 -11 10 -5 0
-7 -4 -4 -10z"/>
<path d="M1262 1747 c-9 -10 -8 -18 2 -32 12 -16 13 -16 19 -1 4 11 1 16 -11
16 -14 0 -15 2 -2 10 8 5 12 12 9 15 -4 3 -11 -1 -17 -8z"/>
<path d="M1880 1750 c0 -5 5 -10 11 -10 5 0 7 5 4 10 -3 6 -8 10 -11 10 -2 0
-4 -4 -4 -10z"/>
<path d="M1153 1735 c-3 -9 -3 -18 -1 -21 3 -3 8 4 11 16 6 23 -1 27 -10 5z"/>
<path d="M1715 1740 c3 -5 8 -10 11 -10 2 0 4 5 4 10 0 6 -5 10 -11 10 -5 0
-7 -4 -4 -10z"/>
<path d="M1970 1726 c0 -8 4 -17 9 -20 5 -4 7 3 4 14 -6 23 -13 26 -13 6z"/>
<path d="M1080 1719 c0 -5 5 -7 10 -4 6 3 10 8 10 11 0 2 -4 4 -10 4 -5 0 -10
-5 -10 -11z"/>
<path d="M1795 1709 c-10 -30 -2 -32 12 -3 6 13 7 24 3 24 -5 0 -12 -9 -15
-21z"/>
<path d="M1093 1694 c-7 -7 -9 -15 -5 -17 4 -3 13 1 19 9 7 7 9 15 5 17 -4 3
-13 -1 -19 -9z"/>
<path d="M1697 1693 c-11 -11 -8 -20 7 -20 8 0 12 6 9 14 -6 15 -7 15 -16 6z"/>
<path d="M1200 1669 c0 -5 5 -7 10 -4 6 3 10 8 10 11 0 2 -4 4 -10 4 -5 0 -10
-5 -10 -11z"/>
<path d="M1125 1661 c-3 -5 -1 -12 5 -16 5 -3 10 1 10 9 0 18 -6 21 -15 7z"/>
<path d="M1665 1660 c3 -5 8 -10 11 -10 2 0 4 5 4 10 0 6 -5 10 -11 10 -5 0
-7 -4 -4 -10z"/>
<path d="M1425 1640 c10 -34 33 -70 45 -70 6 0 10 2 10 3 0 12 -33 67 -47 78
-14 12 -15 11 -8 -11z"/>
<path d="M1711 1651 c-8 -5 -9 -11 -3 -15 5 -3 12 1 16 9 6 17 6 18 -13 6z"/>
<path d="M1817 1642 c-10 -11 -13 -23 -8 -31 6 -9 11 -10 15 -2 4 6 2 11 -5
11 -7 0 -5 8 6 20 10 11 16 20 13 20 -3 0 -12 -8 -21 -18z"/>
<path d="M1877 1635 c-4 -8 -3 -16 1 -19 4 -3 9 4 9 15 2 23 -3 25 -10 4z"/>
<path d="M1920 1630 c-1 -8 -2 -19 -1 -24 1 -5 -4 -13 -11 -18 -11 -6 -11 -10
1 -17 7 -5 11 -17 7 -27 -3 -11 -2 -23 2 -29 11 -15 34 -17 30 -3 -3 7 2 19
11 26 14 12 14 13 -1 8 -23 -7 -23 10 -1 23 15 8 16 12 4 35 -8 14 -17 23 -22
21 -4 -3 -10 1 -12 7 -4 9 -6 9 -7 -2z m26 -49 c-12 -19 -24 -12 -22 14 1 20
3 22 15 11 7 -8 10 -19 7 -25z"/>
<path d="M1109 1618 c10 -13 10 -21 -1 -37 -7 -12 -16 -21 -20 -21 -5 0 -8 -4
-8 -10 0 -21 19 -9 34 22 15 29 15 33 -1 47 -15 15 -16 15 -4 -1z"/>
<path d="M1470 1619 c0 -5 5 -7 10 -4 6 3 10 8 10 11 0 2 -4 4 -10 4 -5 0 -10
-5 -10 -11z"/>
<path d="M1767 1589 c7 -7 15 -10 18 -7 3 3 -2 9 -12 12 -14 6 -15 5 -6 -5z"/>
<path d="M1238 1583 c7 -3 16 -2 19 1 4 3 -2 6 -13 5 -11 0 -14 -3 -6 -6z"/>
<path d="M1741 1574 c0 -11 3 -14 6 -6 3 7 2 16 -1 19 -3 4 -6 -2 -5 -13z"/>
<path d="M1210 1566 c0 -8 4 -17 9 -20 5 -4 7 3 4 14 -6 23 -13 26 -13 6z"/>
<path d="M1696 1567 c3 -10 9 -15 12 -12 3 3 0 11 -7 18 -10 9 -11 8 -5 -6z"/>
<path d="M1261 1544 c0 -11 3 -14 6 -6 3 7 2 16 -1 19 -3 4 -6 -2 -5 -13z"/>
<path d="M1150 1541 c0 -5 7 -12 16 -15 14 -5 15 -4 4 9 -14 17 -20 19 -20 6z"/>
<path d="M1298 1525 c-3 -16 -1 -25 7 -25 8 0 10 9 7 25 -2 14 -6 25 -7 25 -1
0 -5 -11 -7 -25z"/>
<path d="M1740 1530 c-13 -8 -12 -10 3 -10 9 0 17 5 17 10 0 12 -1 12 -20 0z"/>
<path d="M1821 1514 c0 -11 3 -14 6 -6 3 7 2 16 -1 19 -3 4 -6 -2 -5 -13z"/>
<path d="M1075 1511 c-3 -5 -1 -12 5 -16 5 -3 10 1 10 9 0 18 -6 21 -15 7z"/>
<path d="M1740 1499 c0 -5 5 -7 10 -4 6 3 10 8 10 11 0 2 -4 4 -10 4 -5 0 -10
-5 -10 -11z"/>
<path d="M1178 1493 c7 -3 16 -2 19 1 4 3 -2 6 -13 5 -11 0 -14 -3 -6 -6z"/>
<path d="M1265 1489 c-4 -6 -5 -12 -2 -15 2 -3 7 2 10 11 7 17 1 20 -8 4z"/>
<path d="M1881 1487 c-6 -8 -8 -16 -5 -20 3 -3 -2 -17 -11 -31 -20 -30 -16
-33 11 -8 11 9 20 29 21 45 1 31 0 32 -16 14z"/>
<path d="M1730 1468 c0 -9 5 -20 10 -23 13 -8 13 5 0 25 -8 13 -10 13 -10 -2z"/>
<path d="M1126 1445 c-3 -9 -6 -22 -5 -28 0 -7 5 -1 10 12 5 13 8 26 5 28 -2
2 -6 -3 -10 -12z"/>
<path d="M1182 1448 c-15 -15 -16 -42 -2 -33 6 4 8 10 5 15 -3 4 1 10 7 13 7
2 10 7 7 10 -3 4 -11 1 -17 -5z"/>
<path d="M1265 1450 c-3 -5 1 -10 10 -10 9 0 13 5 10 10 -3 6 -8 10 -10 10 -2
0 -7 -4 -10 -10z"/>
<path d="M1260 1420 c0 -5 5 -10 10 -10 6 0 10 5 10 10 0 6 -4 10 -10 10 -5 0
-10 -4 -10 -10z"/>
<path d="M1886 1415 c-9 -26 -7 -32 5 -12 6 10 9 21 6 23 -2 3 -7 -2 -11 -11z"/>
<path d="M1135 1390 c-4 -6 -11 -7 -17 -4 -7 4 -8 2 -4 -5 6 -9 11 -9 22 0 14
11 18 19 10 19 -3 0 -8 -5 -11 -10z"/>
<path d="M1836 1384 c-3 -9 -6 -24 -6 -34 0 -10 -6 -21 -12 -24 -7 -3 -4 -5 7
-3 13 1 21 11 24 27 1 14 7 28 13 31 5 4 3 9 -5 12 -9 3 -18 -1 -21 -9z"/>
<path d="M1802 1370 c0 -14 2 -19 5 -12 2 6 2 18 0 25 -3 6 -5 1 -5 -13z"/>
<path d="M1096 1344 c-4 -10 1 -22 11 -29 10 -8 15 -17 10 -21 -4 -4 -7 -2 -7
4 0 7 -3 12 -7 12 -5 0 -7 -15 -6 -32 1 -18 2 -33 4 -33 1 0 3 -24 5 -54 2
-46 -1 -57 -20 -72 -64 -50 -107 -202 -105 -371 l1 -103 13 145 c14 154 29
220 64 268 11 17 21 35 21 41 0 6 6 11 14 11 8 0 16 7 20 15 3 8 11 15 18 15
7 0 34 20 61 43 l47 44 -27 13 c-22 11 -25 14 -10 17 9 3 17 9 17 14 0 6 -9 7
-20 4 -15 -5 -20 -2 -21 12 0 17 -1 17 -8 -1 -4 -11 -3 -37 3 -59 9 -34 8 -41
-8 -53 -22 -16 -45 -3 -44 24 1 9 -2 32 -6 50 -9 39 6 42 22 5 l12 -28 -7 30
c-3 17 -6 38 -7 47 0 9 -4 14 -9 11 -4 -2 -5 7 -1 21 4 19 2 26 -9 26 -8 0
-18 -7 -21 -16z m24 -4 c0 -5 -5 -10 -11 -10 -5 0 -7 5 -4 10 3 6 8 10 11 10
2 0 4 -4 4 -10z"/>
<path d="M1170 1348 c0 -4 4 -8 9 -8 6 0 12 4 15 8 3 5 -1 9 -9 9 -8 0 -15 -4
-15 -9z"/>
<path d="M1697 1333 c-4 -3 -7 -11 -7 -17 0 -6 5 -5 12 2 6 6 9 14 7 17 -3 3
-9 2 -12 -2z"/>
<path d="M1780 1330 c0 -5 -6 -7 -14 -4 -11 4 -13 0 -9 -16 5 -20 7 -20 24 -4
10 9 16 21 13 25 -7 12 -14 11 -14 -1z"/>
<path d="M1205 1300 c4 -6 11 -8 16 -5 14 9 11 15 -7 15 -8 0 -12 -5 -9 -10z"/>
<path d="M1679 1275 c5 -16 12 -42 15 -57 9 -40 29 -35 24 6 -3 30 -1 33 22
32 14 -1 31 -5 38 -10 11 -7 11 -4 0 13 -17 27 -68 46 -68 25 0 -19 -10 -18
-26 4 -12 15 -13 13 -5 -13z"/>
<path d="M1790 1272 c0 -13 45 -42 67 -42 25 0 93 -77 119 -135 13 -27 34
-110 47 -183 14 -74 30 -139 36 -145 16 -16 14 43 -3 118 -8 33 -17 81 -20
106 -16 109 -103 236 -178 258 -24 7 -49 18 -55 23 -9 7 -13 7 -13 0z"/>
<path d="M1818 1105 c8 -41 17 -74 19 -71 6 6 -18 129 -27 139 -4 5 -1 -26 8
-68z"/>
<path d="M1661 1124 c0 -11 3 -14 6 -6 3 7 2 16 -1 19 -3 4 -6 -2 -5 -13z"/>
<path d="M1203 1085 c0 -27 2 -38 4 -22 2 15 2 37 0 50 -2 12 -4 0 -4 -28z"/>
<path d="M1713 1095 c0 -22 2 -30 4 -17 2 12 2 30 0 40 -3 9 -5 -1 -4 -23z"/>
<path d="M1901 1063 c-6 -26 -13 -70 -15 -98 l-5 -50 9 45 c25 117 30 143 26
147 -2 2 -9 -18 -15 -44z"/>
<path d="M1130 1091 c0 -5 5 -11 10 -13 6 -2 22 -32 35 -68 28 -77 31 -73 8
11 -10 35 -24 64 -35 70 -11 6 -18 6 -18 0z"/>
<path d="M1123 1021 c12 -27 23 -45 25 -41 3 9 -35 90 -43 90 -2 0 6 -22 18
-49z"/>
<path d="M1241 1054 c0 -11 3 -14 6 -6 3 7 2 16 -1 19 -3 4 -6 -2 -5 -13z"/>
<path d="M1212 1010 c0 -14 2 -19 5 -12 2 6 2 18 0 25 -3 6 -5 1 -5 -13z"/>
<path d="M1941 999 c-6 -18 -9 -34 -7 -36 2 -2 9 10 15 28 6 18 9 34 7 36 -2
2 -9 -10 -15 -28z"/>
<path d="M1252 1000 c0 -14 2 -19 5 -12 2 6 2 18 0 25 -3 6 -5 1 -5 -13z"/>
<path d="M1962 968 c-10 -30 -10 -31 3 -14 13 17 21 46 12 46 -1 0 -8 -15 -15
-32z"/>
<path d="M1262 950 c0 -14 2 -19 5 -12 2 6 2 18 0 25 -3 6 -5 1 -5 -13z"/>
<path d="M1150 945 c0 -5 5 -17 10 -25 5 -8 10 -10 10 -5 0 6 -5 17 -10 25 -5
8 -10 11 -10 5z"/>
<path d="M1211 914 c0 -21 4 -48 9 -59 5 -12 6 1 3 35 -7 66 -13 79 -12 24z"/>
<path d="M1852 925 c0 -16 2 -22 5 -12 2 9 2 23 0 30 -3 6 -5 -1 -5 -18z"/>
<path d="M1282 830 c0 -19 2 -27 5 -17 2 9 2 25 0 35 -3 9 -5 1 -5 -18z"/>
<path d="M1958 731 c-30 -22 -63 -51 -72 -65 -9 -15 -23 -26 -30 -26 -12 0
-12 -7 -4 -37 7 -25 7 -38 0 -41 -7 -2 -7 -14 -1 -35 5 -18 9 -133 8 -257 -1
-177 -4 -230 -15 -247 -8 -13 -11 -23 -6 -23 4 0 15 13 25 29 16 27 17 57 13
303 -2 150 -1 281 3 290 11 31 83 99 98 94 8 -3 11 -2 8 4 -6 9 25 30 44 30 7
0 11 -24 11 -57 0 -32 5 -96 10 -143 5 -47 13 -121 16 -165 3 -44 10 -95 14
-112 5 -20 5 -33 -1 -33 -6 0 -5 -9 2 -21 6 -12 9 -33 6 -48 -2 -14 -1 -53 3
-86 6 -41 7 -18 5 75 -3 136 -7 187 -25 357 -6 50 -10 114 -10 141 0 75 -10
112 -30 112 -9 0 -42 -18 -72 -39z"/>
<path d="M1867 727 c-4 -10 -7 -28 -6 -40 0 -21 1 -21 10 2 5 14 8 32 7 40 -3
13 -5 13 -11 -2z"/>
<path d="M1006 658 c-15 -24 -14 -58 15 -458 14 -194 32 -261 24 -90 -3 63 -7
131 -9 150 -2 19 -7 105 -11 190 -4 85 -9 158 -11 162 -3 5 -2 17 1 28 8 25
76 28 99 4 9 -8 16 -12 16 -8 0 15 49 -39 64 -70 15 -32 20 -69 31 -238 3 -48
14 -138 25 -200 10 -61 16 -116 14 -120 -3 -4 1 -8 8 -8 12 0 10 31 -8 168
-13 92 -27 217 -32 279 -12 138 -30 174 -106 209 -65 30 -101 31 -120 2z"/>
<path d="M1940 178 c-6 -24 -15 -54 -21 -67 -9 -21 -8 -23 5 -11 9 7 16 21 16
31 0 11 3 19 8 19 4 0 7 16 8 35 0 19 -1 35 -2 35 -2 0 -8 -19 -14 -42z"/>
<path d="M1976 197 c8 -34 -25 -167 -43 -174 -14 -5 -8 -23 7 -23 12 0 50 124
50 164 0 17 -5 38 -10 46 -8 11 -9 8 -4 -13z"/>
<path d="M1830 110 c0 -7 -6 -18 -14 -24 -21 -17 -31 -86 -13 -86 8 0 18 7 21
16 3 8 2 12 -4 9 -15 -9 -12 13 6 51 9 19 14 38 10 41 -3 3 -6 0 -6 -7z"/>
</g>
</svg>
