<?xml version="1.0" standalone="no"?>
<!DOCTYPE svg PUBLIC "-//W3C//DTD SVG 20010904//EN"
 "http://www.w3.org/TR/2001/REC-SVG-20010904/DTD/svg10.dtd">
<svg version="1.0" xmlns="http://www.w3.org/2000/svg"
 width="300.000000pt" height="300.000000pt" viewBox="0 0 300.000000 300.000000"
 preserveAspectRatio="xMidYMid meet">
<metadata>
Created by potrace 1.10, written by Peter Selinger 2001-2011
</metadata>
<g transform="translate(0.000000,300.000000) scale(0.100000,-0.100000)"
fill="#000000" stroke="none">
<path d="M821 2984 c0 -11 3 -14 6 -6 3 7 2 16 -1 19 -3 4 -6 -2 -5 -13z"/>
<path d="M1028 2888 c-2 -62 -1 -133 2 -158 5 -44 6 -43 13 25 10 100 9 245
-2 245 -6 0 -11 -51 -13 -112z"/>
<path d="M1087 2938 c8 -84 13 -86 13 -5 0 37 -4 67 -10 67 -6 0 -7 -24 -3
-62z"/>
<path d="M2007 2963 c-4 -3 -21 -6 -39 -6 -25 1 -28 -1 -13 -6 10 -4 39 -4 64
1 25 4 54 5 64 2 13 -4 17 -2 13 5 -8 12 -78 15 -89 4z"/>
<path d="M2128 2963 c6 -2 18 -2 25 0 6 3 1 5 -13 5 -14 0 -19 -2 -12 -5z"/>
<path d="M2183 2963 c9 -2 25 -2 35 0 9 3 1 5 -18 5 -19 0 -27 -2 -17 -5z"/>
<path d="M1608 2933 c-2 -16 0 -44 4 -63 4 -19 8 -100 8 -179 0 -79 2 -142 5
-140 2 3 4 79 4 169 0 91 0 182 1 203 1 43 -17 51 -22 10z"/>
<path d="M1700 2949 c-47 -5 -42 -6 35 -7 50 0 99 3 110 7 23 9 -61 9 -145 0z"/>
<path d="M1893 2953 c9 -2 23 -2 30 0 6 3 -1 5 -18 5 -16 0 -22 -2 -12 -5z"/>
<path d="M1263 2914 c-10 -7 -25 -14 -34 -14 -9 0 -24 -9 -34 -20 -10 -11 -24
-20 -32 -20 -7 0 -17 -8 -20 -17 -4 -10 -20 -33 -37 -51 -32 -33 -59 -95 -48
-107 3 -3 11 11 17 32 13 47 41 53 37 8 -2 -23 -1 -27 7 -15 10 13 11 13 12 0
0 -10 3 -8 9 5 13 29 12 35 -5 35 -8 0 -15 5 -15 10 0 6 0 13 0 18 0 4 13 7
27 7 20 0 28 6 31 20 3 20 3 20 -13 1 -8 -11 -15 -15 -15 -10 0 16 23 34 43
34 10 0 15 5 12 11 -4 6 -1 9 6 8 8 -2 31 0 51 4 31 7 40 4 62 -18 28 -28 33
-40 13 -32 -7 3 -13 -3 -13 -13 0 -16 3 -15 29 4 16 12 23 22 16 25 -18 6 -48
34 -44 41 2 3 -13 7 -33 8 -20 2 -38 5 -41 7 -6 7 20 35 33 34 7 0 6 -2 -1 -6
-7 -2 -13 -8 -13 -13 0 -11 43 0 53 14 6 7 7 5 4 -5 -4 -12 3 -18 24 -23 17
-3 28 -10 25 -15 -3 -5 1 -14 9 -21 8 -7 12 -16 9 -21 -3 -5 2 -9 12 -9 14 0
14 -3 4 -15 -11 -13 -10 -14 5 -8 14 5 17 3 12 -9 -6 -16 20 -35 31 -23 3 3 0
5 -6 5 -7 0 -12 7 -12 16 0 9 5 13 13 9 6 -4 5 -1 -4 7 -8 7 -24 27 -35 43
-16 27 -17 28 -1 16 32 -25 27 -5 -6 26 -39 38 -117 58 -144 37z m-26 -40 c-3
-3 -12 -4 -19 -1 -8 3 -5 6 6 6 11 1 17 -2 13 -5z"/>
<path d="M815 2818 c-4 -57 -5 -116 -3 -133 2 -16 7 28 12 98 4 71 5 131 3
134 -3 2 -8 -42 -12 -99z"/>
<path d="M0 2894 c0 -15 19 -38 145 -171 39 -41 74 -83 79 -93 8 -17 46 -35
46 -22 0 4 -19 27 -43 52 -23 25 -84 91 -134 148 -51 56 -93 95 -93 86z"/>
<path d="M1266 2821 c-4 -5 3 -7 14 -4 23 6 26 13 6 13 -8 0 -17 -4 -20 -9z"/>
<path d="M1458 2808 c19 -21 55 -92 73 -143 6 -18 7 -18 8 4 1 32 -54 147 -74
155 -28 10 -29 7 -7 -16z"/>
<path d="M1275 2782 c-16 -2 -35 -9 -40 -16 -6 -8 -19 -16 -30 -18 -18 -4 -18
-6 -3 -12 11 -5 25 -1 39 13 19 17 23 18 36 5 8 -8 24 -13 36 -13 22 2 22 2 0
6 -25 5 -30 19 -10 26 20 7 4 13 -28 9z"/>
<path d="M1340 2760 c0 -5 6 -10 14 -10 8 0 18 5 21 10 3 6 -3 10 -14 10 -12
0 -21 -4 -21 -10z"/>
<path d="M1160 2730 c0 -5 5 -10 10 -10 6 0 10 5 10 10 0 6 -4 10 -10 10 -5 0
-10 -4 -10 -10z"/>
<path d="M1362 2715 c-11 -13 -22 -22 -24 -19 -10 10 -31 -28 -34 -63 -2 -19
0 -32 4 -28 4 3 7 10 7 13 1 4 7 18 14 31 18 33 36 13 20 -23 -10 -21 -10 -29
1 -39 7 -6 10 -7 7 -1 -10 17 19 99 36 102 13 3 11 -5 -9 -43 -13 -26 -22 -51
-18 -56 3 -6 0 -18 -8 -27 -11 -15 -11 -16 3 -4 9 7 19 25 22 40 3 15 11 41
18 57 7 17 11 36 10 43 -1 7 5 15 14 18 21 8 19 20 -4 20 -11 0 -18 -3 -16 -6
1 -3 -4 -11 -12 -19 -13 -12 -14 -11 -8 8 8 28 1 27 -23 -4z m4 -31 c-4 -9 -9
-15 -11 -12 -3 3 -3 13 1 22 4 9 9 15 11 12 3 -3 3 -13 -1 -22z m-26 -3 c0 -5
-7 -12 -16 -15 -14 -5 -15 -4 -4 9 14 17 20 19 20 6z"/>
<path d="M1466 2724 c-8 -20 8 -51 18 -35 4 6 3 11 -2 11 -6 0 -8 9 -5 20 6
24 -2 27 -11 4z"/>
<path d="M1087 2696 c-4 -9 -2 -16 3 -16 6 0 10 -10 10 -22 0 -23 1 -23 13 2
9 17 10 26 3 29 -6 2 -14 8 -17 13 -3 5 -9 3 -12 -6z"/>
<path d="M1263 2683 c-3 -10 -8 -22 -11 -28 -3 -5 4 -1 16 9 24 20 28 36 12
36 -6 0 -13 -8 -17 -17z"/>
<path d="M1445 2679 c-4 -5 -4 -22 -1 -35 5 -19 3 -24 -5 -18 -7 4 -9 3 -5 -4
3 -6 2 -13 -3 -17 -9 -5 -12 -45 -4 -45 8 0 26 58 29 93 4 38 0 45 -11 26z"/>
<path d="M1057 2649 c6 -23 9 -24 16 -5 3 8 0 17 -7 19 -10 4 -12 -1 -9 -14z"/>
<path d="M1215 2650 c-10 -11 -24 -19 -31 -18 -13 3 -15 -7 -7 -29 7 -19 23
-16 23 4 0 9 10 27 22 40 12 13 19 23 16 23 -3 0 -13 -9 -23 -20z"/>
<path d="M1482 2653 c-4 -33 -2 -65 4 -74 7 -12 24 -11 24 2 0 5 -5 7 -11 3
-9 -5 -10 6 -7 40 3 25 2 46 -2 46 -3 0 -7 -8 -8 -17z"/>
<path d="M811 2634 c0 -11 3 -14 6 -6 3 7 2 16 -1 19 -3 4 -6 -2 -5 -13z"/>
<path d="M1135 2641 c-3 -5 -1 -12 5 -16 5 -3 10 1 10 9 0 18 -6 21 -15 7z"/>
<path d="M1262 2615 c-9 -20 -9 -23 4 -18 8 3 12 8 10 11 -3 3 -1 11 5 19 7 7
7 13 2 13 -5 0 -15 -11 -21 -25z"/>
<path d="M1104 2618 c3 -9 1 -18 -4 -20 -12 -4 -30 -88 -19 -88 11 0 32 40 25
47 -3 3 -1 14 5 24 7 13 6 25 -1 37 -10 15 -11 15 -6 0z"/>
<path d="M1406 2614 c-4 -9 -4 -19 -1 -22 2 -3 7 3 11 12 4 9 4 19 1 22 -2 3
-7 -3 -11 -12z"/>
<path d="M1217 2603 c-12 -11 -8 -25 5 -17 8 5 9 0 6 -14 -4 -12 -2 -22 3 -22
5 0 8 14 7 30 -2 30 -8 36 -21 23z"/>
<path d="M1283 2574 c-5 -13 -7 -13 -14 -2 -5 7 -9 9 -9 3 0 -5 4 -16 8 -23 6
-9 12 -6 20 13 6 14 9 25 6 25 -2 0 -7 -7 -11 -16z"/>
<path d="M1317 2563 c3 -7 6 -13 8 -13 2 0 5 6 8 13 3 8 -1 14 -8 14 -7 0 -11
-6 -8 -14z"/>
<path d="M1036 2562 c-7 -11 -4 -74 3 -67 5 6 10 75 5 75 -2 0 -5 -4 -8 -8z"/>
<path d="M1296 2545 c-9 -26 -7 -32 5 -12 6 10 9 21 6 23 -2 3 -7 -2 -11 -11z"/>
<path d="M1376 2543 c-6 -14 -5 -15 5 -6 7 7 10 15 7 18 -3 3 -9 -2 -12 -12z"/>
<path d="M1484 2519 c7 -42 24 -84 32 -77 2 3 -1 30 -7 61 -14 66 -35 79 -25
16z"/>
<path d="M170 2528 c0 -7 -3 -30 -6 -50 -4 -23 -3 -38 3 -38 6 0 11 23 12 50
0 28 -2 50 -4 50 -3 0 -5 -6 -5 -12z"/>
<path d="M1320 2525 c-7 -9 -10 -18 -7 -22 4 -3 9 2 13 11 3 9 11 13 17 9 6
-3 7 -1 3 5 -9 15 -11 15 -26 -3z"/>
<path d="M2215 2499 c-27 -4 -10 -7 54 -8 52 0 92 1 90 3 -8 8 -103 11 -144 5z"/>
<path d="M1078 2477 c-6 -30 3 -49 18 -39 8 5 7 16 -1 36 l-12 29 -5 -26z"/>
<path d="M1925 2490 c-33 -3 -55 -7 -50 -10 6 -3 42 -3 80 0 39 3 61 7 50 10
-11 3 -47 3 -80 0z"/>
<path d="M2030 2488 c0 -4 6 -8 14 -8 8 0 17 4 20 8 2 4 -4 8 -15 8 -10 0 -19
-4 -19 -8z"/>
<path d="M2388 2493 c12 -2 30 -2 40 0 9 3 -1 5 -23 4 -22 0 -30 -2 -17 -4z"/>
<path d="M1815 2480 c3 -5 12 -7 20 -3 21 7 19 13 -6 13 -11 0 -18 -4 -14 -10z"/>
<path d="M1780 2434 c0 -19 4 -33 8 -30 8 5 4 66 -4 66 -2 0 -4 -16 -4 -36z"/>
<path d="M1047 2403 c8 -50 13 -55 13 -10 0 20 -4 38 -9 42 -6 3 -7 -10 -4
-32z"/>
<path d="M145 2408 c-12 -53 -13 -117 -1 -112 6 2 11 31 12 69 1 68 -2 80 -11
43z"/>
<path d="M1111 2414 c0 -11 3 -14 6 -6 3 7 2 16 -1 19 -3 4 -6 -2 -5 -13z"/>
<path d="M2691 2414 c0 -11 3 -14 6 -6 3 7 2 16 -1 19 -3 4 -6 -2 -5 -13z"/>
<path d="M1091 2384 c0 -11 3 -14 6 -6 3 7 2 16 -1 19 -3 4 -6 -2 -5 -13z"/>
<path d="M1395 2390 c3 -5 8 -10 11 -10 2 0 4 5 4 10 0 6 -5 10 -11 10 -5 0
-7 -4 -4 -10z"/>
<path d="M171 2354 c0 -11 3 -14 6 -6 3 7 2 16 -1 19 -3 4 -6 -2 -5 -13z"/>
<path d="M1788 2343 c5 -21 7 -23 10 -9 2 10 0 22 -6 28 -6 6 -7 0 -4 -19z"/>
<path d="M1017 2353 c-13 -12 -7 -67 13 -138 18 -63 19 -71 4 -82 -10 -7 -11
-13 -5 -18 6 -3 11 -19 11 -35 0 -16 5 -32 10 -35 6 -3 10 -26 10 -51 0 -24 4
-44 8 -44 4 0 9 -12 10 -27 1 -15 11 -45 22 -67 25 -53 51 -126 44 -126 -3 0
2 -7 11 -16 9 -9 14 -23 11 -31 -3 -8 -2 -12 3 -9 9 6 10 -7 13 -129 1 -44 4
-65 6 -47 4 36 22 34 22 -2 0 -24 39 -110 40 -87 0 20 -22 94 -33 109 -5 7
-12 31 -14 55 -3 23 -10 51 -16 62 -9 18 -9 19 6 6 16 -12 16 -11 2 23 -12 28
-12 36 -3 36 8 0 5 5 -4 11 -10 5 -18 18 -18 27 0 9 -13 42 -28 72 -26 51 -36
85 -76 260 -7 30 -11 89 -9 130 3 69 2 73 -12 56 -14 -18 -15 -16 -15 34 0 65
13 58 41 -22 l19 -53 -4 41 c-2 23 -14 56 -27 73 -23 32 -31 36 -42 24z"/>
<path d="M1080 2349 c0 -5 5 -7 10 -4 6 3 10 8 10 11 0 2 -4 4 -10 4 -5 0 -10
-5 -10 -11z"/>
<path d="M1541 2328 c-32 -33 -70 -116 -57 -121 6 -2 8 -8 4 -12 -5 -5 -18 0
-30 11 -12 10 -18 13 -14 7 4 -7 6 -13 4 -13 -2 0 -41 -5 -86 -10 -52 -7 -89
-7 -100 -1 -9 5 -55 13 -101 17 l-84 7 7 -59 c4 -32 8 -66 9 -74 1 -9 8 -16
17 -17 8 -1 33 -6 55 -12 52 -13 87 3 100 47 12 40 35 39 47 -3 10 -40 33 -55
84 -55 71 0 92 27 103 132 11 92 18 113 48 140 18 16 18 15 15 -25 -4 -38 -22
-79 -22 -49 0 7 -4 12 -10 12 -5 0 -10 -20 -10 -45 0 -64 22 -58 43 13 29 99
18 154 -22 110z m-303 -153 c46 -15 14 -115 -37 -115 -46 0 -91 20 -96 43 -14
62 -11 81 15 87 25 6 76 0 118 -15z m226 -1 c16 -6 21 -41 10 -81 -7 -26 -71
-48 -111 -38 -44 11 -60 99 -20 115 26 10 98 13 121 4z m-179 -14 c3 -5 1 -10
-4 -10 -6 0 -11 5 -11 10 0 6 2 10 4 10 3 0 8 -4 11 -10z"/>
<path d="M1150 2162 c0 -8 6 -12 14 -9 7 3 19 0 26 -6 10 -9 11 -9 6 1 -4 6
-2 12 3 12 6 0 11 4 11 8 0 5 -13 9 -30 9 -19 0 -30 -5 -30 -15z"/>
<path d="M1372 2165 c10 -11 48 -14 53 -4 4 5 -8 9 -26 9 -18 0 -30 -2 -27 -5z"/>
<path d="M1375 2140 c3 -5 11 -10 16 -10 6 0 7 5 4 10 -3 6 -11 10 -16 10 -6
0 -7 -4 -4 -10z"/>
<path d="M1170 2316 c0 -2 7 -9 15 -16 9 -7 15 -8 15 -2 0 5 -7 12 -15 16 -8
3 -15 4 -15 2z"/>
<path d="M1792 2275 c0 -16 2 -22 5 -12 2 9 2 23 0 30 -3 6 -5 -1 -5 -18z"/>
<path d="M108 2255 c-6 -28 6 -34 16 -9 8 22 7 34 -3 34 -5 0 -11 -11 -13 -25z"/>
<path d="M140 2264 c0 -8 5 -12 10 -9 6 3 10 10 10 16 0 5 -4 9 -10 9 -5 0
-10 -7 -10 -16z"/>
<path d="M1401 2263 c-14 -9 -40 -22 -59 -29 -34 -11 -35 -12 -13 -23 17 -10
24 -9 36 2 16 17 80 31 95 22 13 -8 13 1 0 26 -13 23 -28 24 -59 2z"/>
<path d="M1130 2254 c-19 -10 -18 -18 3 -13 1 0 19 -7 39 -15 21 -9 54 -16 75
-15 l38 0 -36 14 c-20 7 -49 20 -65 28 -25 13 -33 13 -54 1z"/>
<path d="M67 2253 c-11 -10 -8 -53 3 -53 6 0 10 14 10 30 0 31 -2 35 -13 23z"/>
<path d="M171 2234 c0 -11 3 -14 6 -6 3 7 2 16 -1 19 -3 4 -6 -2 -5 -13z"/>
<path d="M137 2224 c-3 -5 1 -15 9 -22 16 -14 18 -5 5 17 -5 7 -11 9 -14 5z"/>
<path d="M1 2204 c0 -11 3 -14 6 -6 3 7 2 16 -1 19 -3 4 -6 -2 -5 -13z"/>
<path d="M101 2201 c-7 -5 -12 -14 -10 -20 3 -6 9 -7 18 -2 7 5 12 14 10 20
-3 6 -9 7 -18 2z"/>
<path d="M900 2200 c0 -5 7 -10 15 -10 8 0 15 5 15 10 0 6 -7 10 -15 10 -8 0
-15 -4 -15 -10z"/>
<path d="M803 2155 c0 -22 2 -30 4 -17 2 12 2 30 0 40 -3 9 -5 -1 -4 -23z"/>
<path d="M0 2163 c0 -11 15 -25 38 -35 20 -10 52 -31 71 -48 18 -16 36 -28 40
-26 3 2 15 -5 25 -15 19 -19 19 -19 -31 -19 -70 0 -143 -11 -143 -22 0 -5 35
-6 80 -2 57 5 80 4 80 -5 0 -6 5 -11 10 -11 6 0 10 6 10 13 0 9 12 11 40 9 65
-7 53 25 -31 77 -39 24 -74 53 -78 64 -5 13 -10 16 -15 9 -3 -6 9 -23 30 -39
64 -49 99 -82 87 -83 -6 0 -19 8 -29 17 -17 17 -42 34 -74 50 -8 4 -26 17 -40
30 -14 13 -28 23 -32 23 -3 0 -14 7 -22 16 -15 14 -16 14 -16 -3z"/>
<path d="M125 2170 c-3 -5 -1 -10 4 -10 6 0 11 5 11 10 0 6 -2 10 -4 10 -3 0
-8 -4 -11 -10z"/>
<path d="M150 2140 c0 -5 7 -10 16 -10 8 0 12 5 9 10 -3 6 -10 10 -16 10 -5 0
-9 -4 -9 -10z"/>
<path d="M1526 2099 c-9 -29 -16 -64 -16 -78 0 -42 -19 -101 -60 -186 -21 -44
-54 -116 -73 -160 -33 -75 -57 -105 -57 -71 0 9 -8 16 -20 16 -11 0 -20 -4
-20 -9 0 -10 -19 -9 -37 2 -8 5 -13 3 -13 -6 0 -17 42 -37 78 -37 41 1 62 23
82 87 30 96 22 35 -25 -197 -55 -274 -75 -409 -76 -511 0 -69 -3 -80 -17 -77
-15 3 -16 24 -13 208 1 113 5 209 9 214 3 5 0 6 -5 3 -7 -4 -9 9 -5 38 4 37 2
45 -12 45 -9 0 -16 7 -16 15 0 8 -6 12 -13 9 -22 -8 -50 21 -51 53 -1 25 -4
29 -17 23 -9 -5 -21 -16 -29 -24 -7 -9 -18 -16 -26 -16 -14 0 -29 -18 -22 -26
3 -2 19 3 37 12 24 12 35 13 40 5 4 -6 13 -64 19 -128 7 -63 17 -123 22 -132
10 -17 8 12 -11 147 -6 41 -9 76 -7 78 3 2 16 -2 31 -9 27 -13 43 -61 32 -97
-4 -12 -2 -20 4 -20 7 0 11 -35 11 -97 0 -125 -10 -234 -21 -227 -5 3 -9 -2
-9 -11 0 -9 4 -13 10 -10 7 4 7 -2 1 -18 -6 -14 -8 -27 -5 -29 2 -3 -17 -4
-43 -3 -83 3 -86 4 -79 21 5 13 2 15 -14 11 -11 -3 -20 0 -20 5 0 7 -20 9 -55
5 -30 -3 -57 -1 -60 4 -4 5 -11 9 -17 9 -6 0 -3 -10 8 -22 16 -18 17 -21 2
-15 -9 3 -18 1 -21 -6 -9 -28 -6 89 3 124 6 21 11 61 12 88 2 28 6 47 12 44 5
-3 6 -2 3 4 -11 18 -16 65 -23 217 -3 89 -13 180 -24 223 -10 39 -15 83 -13
97 3 13 -2 39 -11 57 -9 17 -13 36 -9 42 3 5 1 7 -4 4 -14 -9 -36 46 -29 70 3
10 1 25 -5 33 -8 11 -9 9 -3 -10 6 -24 5 -24 -17 5 -13 17 -27 32 -31 33 -5 2
-8 10 -8 19 0 20 -24 11 -28 -10 -2 -12 1 -15 12 -11 9 4 16 1 16 -6 0 -7 8
-24 18 -38 29 -41 82 -142 82 -155 0 -6 -14 4 -31 22 -16 18 -33 30 -37 26 -4
-3 1 -11 10 -16 24 -14 54 -68 62 -114 8 -40 9 -50 20 -140 3 -27 9 -68 12
-90 5 -37 4 -39 -11 -21 -8 11 -15 16 -15 12 0 -4 -23 16 -50 44 -28 29 -47
44 -44 34 4 -11 -12 1 -34 26 -23 25 -41 41 -42 37 0 -16 73 -97 85 -95 7 2
24 -8 38 -22 13 -14 36 -35 50 -48 33 -30 42 -95 32 -246 -8 -133 -23 -173
-23 -63 -1 81 -18 133 -42 130 -9 -1 -32 26 -55 63 -22 36 -50 77 -63 90 -41
46 -95 137 -76 130 13 -5 14 -3 6 6 -5 7 -8 26 -5 41 l6 28 29 -33 30 -33 -26
37 c-16 23 -26 50 -26 72 0 45 10 46 34 1 11 -19 23 -35 28 -35 5 0 -3 20 -18
45 -19 33 -25 55 -22 80 2 19 1 35 -2 35 -9 0 -31 -95 -37 -157 -3 -29 -8 -53
-13 -53 -4 0 -10 -35 -14 -77 -4 -43 -11 -98 -16 -123 -5 -25 -11 -74 -14
-110 -5 -54 -4 -62 6 -45 7 11 13 29 14 40 1 11 5 43 9 70 4 28 7 71 8 97 1
26 7 50 13 52 7 3 27 -17 45 -42 18 -26 36 -49 39 -52 14 -11 68 -96 74 -117
5 -16 2 -23 -13 -28 -10 -3 -23 -5 -27 -4 -11 3 -60 -16 -96 -36 -14 -8 -38
-15 -52 -15 -14 0 -25 -3 -23 -8 1 -4 -2 -8 -7 -10 -5 -1 -10 12 -11 28 -2 17
-9 39 -16 48 -12 14 -13 54 -8 207 3 105 5 241 5 303 -1 65 3 112 9 112 5 0 4
5 -3 12 -6 6 -14 10 -16 7 -2 -2 -8 -146 -12 -319 -6 -286 -9 -316 -25 -328
-10 -7 -23 -36 -29 -67 -8 -37 -15 -52 -24 -49 -8 3 -16 -2 -20 -12 -8 -20 12
-47 27 -37 7 4 8 0 3 -13 -18 -42 -27 -87 -22 -100 3 -8 1 -26 -4 -39 -7 -19
-16 -25 -32 -23 -13 2 -25 -1 -28 -6 -3 -5 37 -8 91 -7 l96 2 7 -42 c4 -24 11
-48 15 -54 16 -20 18 -52 5 -70 -8 -10 -14 -16 -14 -13 0 7 0 7 -175 -47 -66
-20 -185 -55 -265 -77 -155 -44 -157 -45 -147 -54 4 -4 39 3 78 16 39 12 79
24 88 25 9 2 16 4 16 5 0 1 7 3 15 5 8 2 29 8 45 14 82 28 128 40 138 34 5 -3
-2 -12 -17 -20 -15 -8 -25 -17 -23 -20 3 -3 39 13 79 35 40 22 106 52 146 66
72 26 162 35 162 17 0 -5 3 -16 6 -24 3 -9 0 -17 -8 -20 -9 -2 -8 -4 2 -3 17
2 77 -49 92 -78 9 -17 7 -17 -21 3 -42 30 -39 21 10 -28 23 -22 39 -47 36 -53
-2 -7 2 -19 9 -26 11 -10 14 -10 14 2 0 31 -62 145 -115 211 -30 39 -83 106
-116 150 -61 80 -78 101 -65 78 5 -10 -6 -13 -43 -13 l-51 0 1 48 c1 76 17 98
20 27 2 -44 3 -50 6 -23 3 28 8 36 19 31 11 -4 6 12 -15 52 -17 32 -31 59 -31
60 0 2 20 8 45 14 25 6 70 23 101 37 30 14 97 40 149 58 l93 33 6 -31 c3 -17
8 -91 12 -164 6 -117 9 -132 23 -126 9 3 30 10 46 16 17 5 40 14 52 20 19 9
31 6 71 -19 46 -28 52 -30 113 -22 35 4 118 10 184 13 152 8 217 15 230 28 13
12 -96 8 -112 -5 -9 -6 -13 -6 -13 2 0 8 -6 7 -16 -3 -18 -18 -51 -20 -88 -6
-19 7 -26 6 -26 -2 0 -8 -3 -8 -9 -3 -19 20 -18 226 1 355 21 143 26 162 38
155 8 -5 10 9 11 75 1 42 31 204 41 217 5 6 6 22 3 35 -3 13 -2 35 3 48 l10
25 7 -30 c12 -54 14 -51 9 15 -5 61 -4 64 10 40 15 -25 15 -25 16 20 1 25 5
54 10 65 7 18 8 18 15 -7 4 -16 11 -28 16 -28 5 0 5 10 0 23 -16 42 0 220 21
233 6 4 7 -9 2 -30 -16 -90 -9 -200 17 -261 6 -14 8 -9 5 20 -3 22 0 45 6 52
7 9 7 13 -1 13 -7 0 -9 5 -6 10 3 6 -2 10 -12 10 -15 0 -16 2 -3 10 11 7 14
25 12 75 -2 36 0 65 5 65 5 0 20 -25 32 -55 25 -60 46 -73 39 -25 -3 17 -2 30
1 30 9 0 61 -64 61 -76 0 -16 39 -62 40 -47 0 6 -4 15 -10 18 -5 3 -10 12 -10
18 0 7 8 2 18 -11 26 -33 20 -66 -26 -153 -22 -41 -43 -94 -47 -117 -4 -23
-11 -42 -16 -42 -6 0 -7 -5 -3 -11 3 -6 0 -15 -7 -20 -11 -7 -10 -9 4 -9 10 0
17 7 17 18 0 10 4 22 8 28 5 5 14 28 20 51 15 52 60 151 73 158 5 3 0 -13 -10
-37 -10 -24 -32 -90 -50 -148 -18 -58 -39 -126 -47 -151 -8 -26 -14 -51 -14
-55 0 -20 34 55 50 111 38 134 75 245 83 245 10 0 9 -53 -2 -82 -17 -46 -21
-78 -11 -78 5 0 10 6 10 13 1 6 7 26 15 42 l14 30 0 -35 c-2 -65 0 -77 10 -61
7 11 11 5 16 -22 12 -62 -2 -102 -56 -162 -28 -30 -47 -55 -41 -55 5 0 31 23
57 51 l47 50 -7 -40 c-5 -28 -3 -41 5 -41 6 0 9 4 6 8 -2 4 -1 14 5 22 7 12 9
11 9 -5 0 -11 3 -36 6 -56 7 -42 -16 -74 -116 -158 -24 -21 -24 -21 14 1 50
28 114 93 122 123 3 13 -2 50 -12 82 -10 32 -19 83 -19 113 -1 30 -15 110 -33
177 -18 68 -32 140 -32 161 0 49 -49 109 -135 164 -35 23 -66 52 -75 70 -23
49 -37 45 -54 -13z m-966 -958 c5 -11 10 -32 9 -48 0 -27 -1 -27 -9 -5 -12 28
-30 29 -22 0 3 -14 2 -19 -6 -14 -7 4 -12 2 -12 -3 0 -6 -4 -11 -9 -11 -12 0
-2 70 12 88 13 17 25 15 37 -7z m60 -383 c0 -6 7 -19 16 -29 9 -10 13 -23 9
-29 -4 -6 -15 5 -26 27 -22 43 -22 43 -9 43 6 0 10 -5 10 -12z"/>
<path d="M966 2128 c-11 -6 -34 -25 -52 -43 -17 -17 -49 -41 -70 -52 -22 -11
-41 -29 -43 -39 -3 -17 -1 -17 21 4 14 12 28 19 31 15 4 -3 7 -1 7 5 0 7 4 12
9 12 6 0 27 16 48 35 21 19 45 35 54 35 19 0 42 24 32 33 -9 9 -15 8 -37 -5z"/>
<path d="M1793 2090 c0 -30 2 -43 4 -27 2 15 2 39 0 55 -2 15 -4 2 -4 -28z"/>
<path d="M1006 2078 c3 -18 10 -49 15 -68 5 -19 9 -56 9 -82 0 -43 7 -57 22
-43 3 3 -1 36 -9 73 -8 37 -16 85 -18 107 -1 21 -8 41 -14 43 -7 2 -9 -8 -5
-30z"/>
<path d="M533 2077 l-153 -9 0 -44 c0 -42 7 -50 35 -44 6 1 30 3 55 3 39 2 50
6 50 21 0 2 -18 0 -41 -4 -32 -6 -42 -4 -47 8 -5 13 -7 12 -13 -4 -6 -17 -7
-18 -14 -2 -11 28 20 49 78 53 28 2 95 7 147 10 52 4 99 11 105 16 5 5 -2 8
-20 7 -17 0 -99 -5 -182 -11z"/>
<path d="M960 2066 c0 -14 5 -28 10 -31 6 -3 10 5 10 19 0 14 -4 28 -10 31 -6
3 -10 -5 -10 -19z"/>
<path d="M1102 2035 c0 -31 13 -71 20 -60 3 6 0 26 -8 45 -7 21 -12 27 -12 15z"/>
<path d="M1226 2024 c-9 -22 -8 -23 13 -17 12 3 17 11 14 19 -7 19 -19 18 -27
-2z"/>
<path d="M1340 2018 c0 -10 4 -18 10 -18 5 0 23 -30 40 -67 27 -58 33 -65 42
-50 5 10 7 21 4 24 -3 4 -6 0 -6 -8 -1 -8 -12 9 -25 36 -33 67 -64 107 -65 83z"/>
<path d="M1446 1979 c-10 -28 -15 -54 -12 -57 3 -3 6 2 6 11 0 10 5 17 10 17
6 0 9 3 8 8 -1 4 2 20 7 35 14 50 -2 39 -19 -14z"/>
<path d="M977 2000 c3 -11 7 -20 9 -20 2 0 4 9 4 20 0 11 -4 20 -9 20 -5 0 -7
-9 -4 -20z"/>
<path d="M900 1999 c0 -5 5 -7 10 -4 6 3 10 8 10 11 0 2 -4 4 -10 4 -5 0 -10
-5 -10 -11z"/>
<path d="M613 1992 c-47 -3 -53 -6 -53 -25 0 -19 6 -22 45 -23 34 -1 43 2 35
11 -8 9 -4 14 12 19 33 8 48 7 48 -4 0 -5 -6 -10 -14 -10 -8 0 -18 -5 -22 -11
-10 -17 77 0 99 19 9 8 17 18 17 21 0 6 -82 8 -167 3z"/>
<path d="M1129 1963 c-12 -14 -12 -16 0 -8 11 6 13 4 8 -8 -3 -9 -2 -27 3 -39
7 -19 9 -14 9 25 1 52 0 54 -20 30z"/>
<path d="M810 1966 c0 -2 6 -9 13 -15 10 -8 14 -7 14 4 0 8 -6 15 -14 15 -7 0
-13 -2 -13 -4z"/>
<path d="M1232 1937 c-1 -17 4 -23 18 -23 21 0 24 5 14 30 -9 24 -29 19 -32
-7z"/>
<path d="M450 1940 c0 -5 9 -14 20 -20 11 -6 20 -9 20 -8 0 2 -9 11 -20 21
-11 9 -20 13 -20 7z"/>
<path d="M1319 1949 c-8 -24 -3 -69 8 -69 9 0 11 9 6 33 -6 30 -11 45 -14 36z"/>
<path d="M518 1923 c7 -3 16 -2 19 1 4 3 -2 6 -13 5 -11 0 -14 -3 -6 -6z"/>
<path d="M840 1929 c0 -4 7 -22 15 -40 8 -19 14 -27 14 -19 0 14 -28 72 -29
59z"/>
<path d="M1278 1895 c-3 -16 -1 -25 7 -25 7 0 12 11 11 25 -1 32 -12 32 -18 0z"/>
<path d="M880 1881 c0 -26 15 -35 17 -11 1 11 -2 22 -8 25 -5 4 -9 -3 -9 -14z"/>
<path d="M550 1873 c0 -27 12 -39 38 -39 30 0 28 8 -8 34 -27 20 -30 21 -30 5z"/>
<path d="M1184 1866 c-5 -12 -15 -20 -22 -18 -7 1 -12 -5 -12 -14 0 -16 12
-12 42 14 14 11 23 12 52 2 20 -6 42 -10 49 -7 6 2 -5 8 -26 12 -21 4 -41 13
-43 20 -8 19 -30 14 -40 -9z"/>
<path d="M1350 1876 c0 -8 7 -17 16 -20 11 -4 15 -14 12 -29 -3 -17 0 -24 11
-24 28 0 30 20 4 54 -27 35 -43 42 -43 19z"/>
<path d="M1719 1863 c-6 -16 -17 -35 -25 -44 -10 -11 -11 -19 -5 -23 5 -4 12
3 16 14 3 11 10 20 15 20 4 0 10 14 12 30 6 37 1 38 -13 3z"/>
<path d="M1627 1840 c3 -25 7 -47 9 -49 8 -9 2 55 -6 74 -6 13 -7 5 -3 -25z"/>
<path d="M1034 1773 c12 -170 18 -223 28 -217 4 3 6 9 3 13 -2 5 -5 72 -6 149
-1 115 -4 142 -17 147 -13 5 -14 -7 -8 -92z"/>
<path d="M1318 1853 c7 -3 16 -2 19 1 4 3 -2 6 -13 5 -11 0 -14 -3 -6 -6z"/>
<path d="M665 1840 c22 -5 44 -4 50 1 5 5 -11 9 -40 8 l-50 -1 40 -8z"/>
<path d="M1545 1821 c-3 -5 -2 -12 3 -15 5 -3 9 1 9 9 0 17 -3 19 -12 6z"/>
<path d="M2671 1814 c0 -11 3 -14 6 -6 3 7 2 16 -1 19 -3 4 -6 -2 -5 -13z"/>
<path d="M721 1804 c0 -11 3 -14 6 -6 3 7 2 16 -1 19 -3 4 -6 -2 -5 -13z"/>
<path d="M1295 1811 c18 -8 19 -9 3 -16 -10 -4 -24 -5 -32 -2 -8 3 -17 -1 -20
-8 -4 -10 3 -14 24 -12 17 1 30 6 30 11 0 4 7 5 16 2 11 -4 14 -1 12 12 -2 10
-14 18 -28 19 -22 2 -23 2 -5 -6z"/>
<path d="M1522 1800 c0 -14 2 -19 5 -12 2 6 2 18 0 25 -3 6 -5 1 -5 -13z"/>
<path d="M1195 1800 c3 -5 11 -10 16 -10 6 0 7 5 4 10 -3 6 -11 10 -16 10 -6
0 -7 -4 -4 -10z"/>
<path d="M1610 1760 c0 -17 -4 -29 -9 -26 -5 4 -3 -20 5 -51 17 -74 17 -76 -2
-69 -9 3 -12 2 -9 -4 10 -16 -55 -39 -82 -29 -22 8 -22 7 -17 -35 5 -32 0 -61
-16 -107 -13 -35 -22 -75 -21 -89 2 -36 -21 -150 -30 -145 -4 3 -5 -4 -2 -15
5 -20 6 -19 19 5 7 14 20 65 29 113 52 274 47 262 93 262 13 0 31 8 41 18 19
18 34 72 20 72 -4 0 -7 27 -6 61 1 33 -1 63 -5 65 -5 3 -8 -9 -8 -26z"/>
<path d="M1554 1758 c0 -12 7 -23 14 -24 7 -1 8 0 3 2 -5 3 -7 14 -4 24 3 11
1 20 -4 20 -6 0 -10 -10 -9 -22z"/>
<path d="M706 1754 c-9 -24 -2 -26 12 -4 7 11 8 20 3 20 -5 0 -12 -7 -15 -16z"/>
<path d="M1340 1750 c0 -5 5 -10 10 -10 6 0 10 5 10 10 0 6 -4 10 -10 10 -5 0
-10 -4 -10 -10z"/>
<path d="M1275 1741 c-3 -6 0 -14 9 -17 9 -3 12 -12 9 -22 -5 -13 -3 -14 7 -5
10 9 9 16 -3 33 -9 13 -17 17 -22 11z"/>
<path d="M1522 1730 c0 -14 2 -19 5 -12 2 6 2 18 0 25 -3 6 -5 1 -5 -13z"/>
<path d="M27 1712 c-8 -12 -12 -91 -5 -98 4 -3 2 -18 -3 -32 -13 -34 -7 -47
23 -49 24 -2 24 -2 24 85 0 78 -7 101 -28 102 -4 0 -9 -3 -11 -8z m27 -153
c-3 -5 -10 -7 -15 -3 -5 3 -7 10 -3 15 3 5 10 7 15 3 5 -3 7 -10 3 -15z"/>
<path d="M780 1718 c0 -4 6 -13 13 -20 6 -7 22 -35 35 -62 13 -26 25 -47 27
-44 6 6 -42 100 -60 118 -8 8 -15 11 -15 8z"/>
<path d="M710 1695 c0 -15 18 -40 24 -34 3 3 -1 14 -9 25 -8 10 -14 15 -15 9z"/>
<path d="M1471 1684 c0 -11 3 -14 6 -6 3 7 2 16 -1 19 -3 4 -6 -2 -5 -13z"/>
<path d="M1547 1687 c-3 -9 -2 -19 4 -22 5 -4 6 -12 3 -18 -5 -9 -4 -9 5 -1 8
7 9 19 3 34 -7 19 -10 20 -15 7z"/>
<path d="M1219 1662 c7 -13 17 -19 27 -15 14 5 11 18 -4 18 -4 0 -13 4 -20 9
-11 7 -12 4 -3 -12z"/>
<path d="M1283 1653 c9 -2 23 -2 30 0 6 3 -1 5 -18 5 -16 0 -22 -2 -12 -5z"/>
<path d="M1470 1637 c0 -8 7 -14 15 -14 11 0 12 4 4 14 -6 7 -13 13 -15 13 -2
0 -4 -6 -4 -13z"/>
<path d="M1564 1629 c-19 -22 -19 -22 4 -10 12 6 22 16 22 21 0 15 -5 12 -26
-11z"/>
<path d="M740 1626 c0 -8 5 -18 10 -21 6 -3 10 3 10 14 0 12 -4 21 -10 21 -5
0 -10 -6 -10 -14z"/>
<path d="M90 1621 c0 -6 9 -9 20 -8 11 1 20 5 20 9 0 4 -9 8 -20 8 -11 0 -20
-4 -20 -9z"/>
<path d="M1111 1604 c0 -11 3 -14 6 -6 3 7 2 16 -1 19 -3 4 -6 -2 -5 -13z"/>
<path d="M1764 1553 c-20 -31 -38 -62 -41 -70 -3 -7 -9 -11 -13 -8 -5 3 -18
-9 -30 -26 -18 -24 -20 -33 -10 -42 7 -7 10 -7 7 -1 -6 11 26 66 37 64 10 -1
82 93 90 118 12 37 -2 25 -40 -35z"/>
<path d="M93 1530 c0 -36 2 -50 4 -32 2 17 2 47 0 65 -2 17 -4 3 -4 -33z"/>
<path d="M127 1519 l6 -70 -42 6 c-45 7 -95 23 -73 24 6 1 12 8 12 17 0 14 -2
14 -16 -1 -25 -24 -10 -42 50 -59 30 -9 62 -19 71 -22 11 -5 15 1 15 25 0 19
8 38 20 48 23 20 27 43 7 43 -7 0 -18 14 -24 30 -20 54 -32 35 -26 -41z"/>
<path d="M779 1575 c14 -30 40 -61 41 -50 0 6 -12 24 -26 40 -14 17 -21 21
-15 10z"/>
<path d="M1443 1571 c-11 -18 -7 -61 7 -71 4 -3 12 -14 18 -25 10 -17 11 -13
8 25 -2 25 -4 55 -5 68 -1 27 -12 28 -28 3z m26 -46 c0 -5 -6 -1 -14 9 -8 10
-11 24 -8 29 6 10 21 -16 22 -38z"/>
<path d="M1816 1564 c-4 -14 -5 -29 -2 -31 3 -3 8 7 12 21 3 15 4 29 1 32 -2
3 -8 -7 -11 -22z"/>
<path d="M860 1575 c0 -5 5 -17 10 -25 5 -8 10 -10 10 -5 0 6 -5 17 -10 25 -5
8 -10 11 -10 5z"/>
<path d="M1127 1538 c4 -26 2 -30 -7 -18 -8 10 -10 11 -8 2 2 -8 8 -14 13 -15
13 -3 19 43 8 54 -6 6 -8 -3 -6 -23z"/>
<path d="M1210 1545 c0 -2 10 -10 23 -16 20 -11 21 -11 8 4 -13 16 -31 23 -31
12z"/>
<path d="M1630 1523 c0 -10 -3 -35 -6 -55 -4 -21 -3 -38 2 -38 5 0 10 25 12
55 1 30 0 55 -3 55 -3 0 -5 -8 -5 -17z"/>
<path d="M1260 1519 c0 -11 34 -16 55 -9 16 6 12 8 -17 12 -21 2 -38 1 -38 -3z"/>
<path d="M1768 1496 c-38 -40 -35 -55 3 -17 17 17 29 35 27 39 -2 4 -15 -6
-30 -22z"/>
<path d="M1570 1504 c0 -8 5 -12 10 -9 6 4 8 11 5 16 -9 14 -15 11 -15 -7z"/>
<path d="M2532 1485 c-15 -18 -8 -19 19 -5 14 8 19 7 19 -2 0 -9 3 -9 10 2 8
12 10 12 10 1 0 -11 3 -11 16 0 13 10 17 10 25 -2 5 -8 9 -11 9 -8 0 4 17 3
38 -2 65 -15 322 -22 322 -9 0 25 -30 40 -77 40 -35 0 -44 -3 -33 -10 10 -7
-14 -9 -78 -8 -50 1 -86 5 -80 10 7 4 8 8 3 8 -6 0 -17 -6 -24 -12 -11 -10
-14 -10 -18 0 -7 18 -144 16 -161 -3z"/>
<path d="M1295 1480 c4 -6 1 -19 -6 -28 -11 -13 -9 -13 8 2 22 18 22 36 2 36
-6 0 -7 -5 -4 -10z"/>
<path d="M2145 1479 c-4 -6 -26 -10 -49 -9 -76 3 -211 -3 -181 -8 l30 -5 -25
-8 c-14 -5 53 -6 150 -4 202 6 200 6 200 17 0 4 -22 8 -50 8 -27 0 -50 5 -50
10 0 13 -17 13 -25 -1z"/>
<path d="M2285 1470 c-3 -5 -1 -10 4 -10 6 0 11 5 11 10 0 6 -2 10 -4 10 -3 0
-8 -4 -11 -10z"/>
<path d="M2340 1472 c-5 -2 -10 -8 -10 -12 0 -10 90 -11 148 -4 17 3 32 9 32
14 0 8 -146 9 -170 2z"/>
<path d="M690 1463 c1 -12 96 -56 109 -52 7 3 -12 17 -41 32 -55 28 -68 32
-68 20z"/>
<path d="M1026 1457 c3 -10 9 -15 12 -12 3 3 0 11 -7 18 -10 9 -11 8 -5 -6z"/>
<path d="M1710 1420 c-9 -6 -10 -10 -3 -10 6 0 15 5 18 10 8 12 4 12 -15 0z"/>
<path d="M1620 1390 c-2 -19 -3 -42 -2 -50 0 -8 -4 -17 -9 -21 -5 -3 -12 -64
-15 -135 -2 -72 -9 -145 -14 -164 -13 -44 -13 -60 0 -60 6 0 10 16 10 36 l0
36 31 -26 c17 -14 38 -26 47 -26 10 0 2 8 -16 17 -19 9 -31 21 -28 29 3 8 0
11 -9 8 -10 -4 -13 5 -10 43 2 26 3 51 4 56 1 4 9 7 19 8 14 0 14 2 2 7 -16 8
-18 52 -6 152 5 40 13 60 29 72 l22 17 -22 -5 c-17 -5 -22 -1 -26 18 -3 18 -5
15 -7 -12z"/>
<path d="M1 1377 c1 -19 3 -24 6 -13 4 15 11 17 46 12 49 -8 47 -5 -10 17
l-43 17 1 -33z"/>
<path d="M742 1393 c17 -16 121 -27 112 -11 -3 5 -25 8 -49 8 -24 0 -47 5 -50
10 -3 6 -11 10 -18 10 -6 0 -4 -7 5 -17z"/>
<path d="M2700 1400 c0 -5 5 -10 10 -10 6 0 10 5 10 10 0 6 -4 10 -10 10 -5 0
-10 -4 -10 -10z"/>
<path d="M1705 1391 c-3 -5 -2 -12 3 -15 5 -3 9 1 9 9 0 17 -3 19 -12 6z"/>
<path d="M2731 1379 c-1 -15 -8 -30 -17 -33 -9 -4 -188 -9 -398 -12 -384 -5
-426 -7 -426 -23 0 -4 44 -7 98 -5 53 1 231 5 395 9 164 3 304 8 311 11 8 3
17 1 20 -5 5 -7 13 -7 26 1 14 9 16 15 8 25 -6 8 -9 15 -7 18 3 2 62 5 132 6
70 1 127 6 127 11 0 6 -56 8 -130 6 -80 -2 -132 1 -134 7 -3 6 -5 -2 -5 -16z"/>
<path d="M207 1373 c5 -14 -24 -14 -96 -1 -3 1 -13 -2 -21 -5 -8 -3 -26 -8
-40 -10 -14 -2 0 -5 32 -6 34 0 59 -6 62 -13 4 -8 8 -9 11 -3 3 6 23 9 45 7
35 -4 40 -1 40 16 0 11 -8 22 -19 25 -14 3 -18 1 -14 -10z"/>
<path d="M1782 1339 c-6 -15 -17 -29 -24 -32 -7 -3 -8 -6 -3 -6 20 -1 47 28
42 46 -3 15 -6 14 -15 -8z"/>
<path d="M2779 1346 c0 0 -1 -20 -3 -44 l-2 -43 113 3 c93 2 113 5 113 18 0
13 -16 14 -100 12 -66 -3 -100 0 -100 7 0 21 40 31 119 31 50 0 81 4 81 10 0
7 -39 10 -110 9 -60 -1 -110 -2 -111 -3z"/>
<path d="M816 1318 c3 -4 11 -5 19 -1 21 7 19 12 -4 10 -11 0 -18 -5 -15 -9z"/>
<path d="M1201 1314 c0 -11 3 -14 6 -6 3 7 2 16 -1 19 -3 4 -6 -2 -5 -13z"/>
<path d="M1376 1307 c3 -10 9 -15 12 -12 3 3 0 11 -7 18 -10 9 -11 8 -5 -6z"/>
<path d="M2734 1303 c-12 -20 19 -18 -474 -27 -235 -5 -369 -11 -377 -18 -7
-6 -13 -7 -14 -2 0 5 -4 -1 -10 -14 -5 -13 -6 -35 -3 -48 8 -30 1 -30 -26 -2
-25 27 -27 6 -2 -30 20 -30 52 -110 52 -131 0 -11 -3 -11 -15 -1 -13 11 -14 8
-9 -20 4 -19 3 -35 -4 -39 -7 -4 -8 -12 -2 -21 8 -13 10 -12 10 3 0 10 5 15
10 12 6 -3 10 -17 10 -31 0 -24 -1 -24 -30 -9 -42 22 -46 19 -17 -11 15 -14
33 -47 41 -73 13 -44 14 -41 14 102 0 81 -4 163 -8 182 -4 19 -5 54 -3 78 l5
45 107 2 c58 1 171 3 251 5 80 3 225 4 323 5 144 0 177 3 177 14 0 8 7 17 16
20 8 3 12 10 9 16 -9 15 -19 12 -31 -7z"/>
<path d="M3 1294 c-3 -8 -2 -39 2 -67 10 -65 10 -105 0 -137 -6 -23 -5 -23 14
5 25 36 26 60 5 132 -15 52 -15 55 3 68 17 14 17 14 0 15 -10 0 -20 -7 -24
-16z"/>
<path d="M1410 1287 c0 -1 -4 -18 -10 -36 -5 -19 -6 -30 -1 -25 10 11 24 64
16 64 -3 0 -5 -1 -5 -3z"/>
<path d="M2749 1255 c-1 -11 -3 -94 -4 -185 -1 -91 -5 -184 -9 -207 -5 -29 -4
-43 3 -43 7 0 11 30 11 83 0 45 4 77 8 70 5 -8 13 -9 22 -3 12 8 12 10 -4 10
-18 0 -19 7 -14 128 3 70 2 136 -3 147 -8 20 -8 20 -10 0z"/>
<path d="M1220 1255 c0 -5 5 -17 10 -25 5 -8 10 -10 10 -5 0 6 -5 17 -10 25
-5 8 -10 11 -10 5z"/>
<path d="M1035 1220 c3 -5 8 -10 11 -10 2 0 4 5 4 10 0 6 -5 10 -11 10 -5 0
-7 -4 -4 -10z"/>
<path d="M1120 1214 c0 -8 5 -12 10 -9 6 4 8 11 5 16 -9 14 -15 11 -15 -7z"/>
<path d="M2808 1203 c6 -2 18 -2 25 0 6 3 1 5 -13 5 -14 0 -19 -2 -12 -5z"/>
<path d="M2862 1204 c8 -7 128 -7 136 0 3 4 -28 6 -68 6 -40 0 -71 -3 -68 -6z"/>
<path d="M1352 1180 c0 -14 2 -19 5 -12 2 6 2 18 0 25 -3 6 -5 1 -5 -13z"/>
<path d="M1700 1190 c-9 -6 -10 -10 -3 -10 6 0 15 5 18 10 8 12 4 12 -15 0z"/>
<path d="M2028 1193 c7 -3 16 -2 19 1 4 3 -2 6 -13 5 -11 0 -14 -3 -6 -6z"/>
<path d="M2278 1193 c6 -2 18 -2 25 0 6 3 1 5 -13 5 -14 0 -19 -2 -12 -5z"/>
<path d="M2618 1193 c7 -3 16 -2 19 1 4 3 -2 6 -13 5 -11 0 -14 -3 -6 -6z"/>
<path d="M1655 1170 c-3 -5 -2 -10 4 -10 5 0 13 5 16 10 3 6 2 10 -4 10 -5 0
-13 -4 -16 -10z"/>
<path d="M1042 1125 c0 -16 2 -22 5 -12 2 9 2 23 0 30 -3 6 -5 -1 -5 -18z"/>
<path d="M1361 1099 c0 -24 4 -53 9 -64 5 -13 7 0 5 38 -3 68 -15 90 -14 26z"/>
<path d="M1657 1133 c-11 -10 -8 -43 3 -43 6 0 10 11 10 25 0 26 -2 29 -13 18z"/>
<path d="M1186 1115 c-14 -37 -7 -61 19 -63 18 -1 25 3 24 16 0 10 -3 12 -6 5
-9 -23 -25 -14 -21 11 6 31 -6 55 -16 31z"/>
<path d="M990 1090 c0 -5 5 -10 11 -10 5 0 7 5 4 10 -3 6 -8 10 -11 10 -2 0
-4 -4 -4 -10z"/>
<path d="M1498 1083 c7 -3 16 -2 19 1 4 3 -2 6 -13 5 -11 0 -14 -3 -6 -6z"/>
<path d="M2006 1078 c3 -4 15 -8 26 -8 12 0 18 3 14 7 -10 10 -46 11 -40 1z"/>
<path d="M2578 1083 c7 -3 16 -2 19 1 4 3 -2 6 -13 5 -11 0 -14 -3 -6 -6z"/>
<path d="M2858 1083 c12 -2 32 -2 45 0 12 2 2 4 -23 4 -25 0 -35 -2 -22 -4z"/>
<path d="M2963 1083 c9 -2 23 -2 30 0 6 3 -1 5 -18 5 -16 0 -22 -2 -12 -5z"/>
<path d="M40 1076 c0 -12 32 -77 36 -73 6 6 -22 77 -30 77 -4 0 -6 -2 -6 -4z"/>
<path d="M1020 1076 c0 -2 7 -7 16 -10 8 -3 12 -2 9 4 -6 10 -25 14 -25 6z"/>
<path d="M1461 1064 c0 -11 3 -14 6 -6 3 7 2 16 -1 19 -3 4 -6 -2 -5 -13z"/>
<path d="M1933 1073 c9 -2 25 -2 35 0 9 3 1 5 -18 5 -19 0 -27 -2 -17 -5z"/>
<path d="M2103 1073 c9 -2 23 -2 30 0 6 3 -1 5 -18 5 -16 0 -22 -2 -12 -5z"/>
<path d="M2168 1073 c7 -3 16 -2 19 1 4 3 -2 6 -13 5 -11 0 -14 -3 -6 -6z"/>
<path d="M2238 1073 c12 -2 30 -2 40 0 9 3 -1 5 -23 4 -22 0 -30 -2 -17 -4z"/>
<path d="M1401 1025 c5 -25 13 -54 19 -63 9 -14 10 -13 5 8 -4 14 -8 38 -11
55 -2 16 -8 33 -13 38 -5 5 -5 -11 0 -38z"/>
<path d="M1830 1060 c0 -5 5 -10 11 -10 5 0 7 5 4 10 -3 6 -8 10 -11 10 -2 0
-4 -4 -4 -10z"/>
<path d="M2843 1010 c0 -25 2 -35 4 -22 2 12 2 32 0 45 -2 12 -4 2 -4 -23z"/>
<path d="M993 1014 c0 -17 2 -22 7 -13 5 6 6 18 3 26 -8 19 -10 16 -10 -13z"/>
<path d="M1180 1026 c0 -11 3 -16 7 -12 4 4 15 -8 25 -26 9 -18 17 -26 18 -18
0 8 -11 29 -25 45 -20 25 -24 27 -25 11z"/>
<path d="M1676 1031 c-3 -5 1 -11 9 -14 9 -4 12 -1 8 9 -6 16 -10 17 -17 5z"/>
<path d="M833 985 c0 -22 2 -30 4 -17 2 12 2 30 0 40 -3 9 -5 -1 -4 -23z"/>
<path d="M1135 1010 c3 -5 10 -10 16 -10 5 0 9 5 9 10 0 6 -7 10 -16 10 -8 0
-12 -4 -9 -10z"/>
<path d="M1465 1010 c3 -5 8 -10 11 -10 2 0 4 5 4 10 0 6 -5 10 -11 10 -5 0
-7 -4 -4 -10z"/>
<path d="M1726 1002 c-3 -6 -1 -14 5 -17 14 -9 20 -2 10 14 -6 8 -11 9 -15 3z"/>
<path d="M2414 973 c1 -21 -2 -41 -7 -44 -5 -3 -2 -9 7 -12 13 -5 16 2 16 43
0 28 -4 50 -9 50 -5 0 -8 -17 -7 -37z"/>
<path d="M2464 974 c3 -9 6 -49 6 -90 0 -59 3 -74 15 -74 8 0 15 5 15 11 0 5
-5 7 -12 3 -8 -5 -9 0 -5 17 4 13 7 35 7 49 l1 25 14 -25 14 -25 1 33 c0 22
-5 32 -15 32 -18 0 -19 12 -3 28 10 10 10 15 -2 22 -24 15 -43 12 -36 -6z"/>
<path d="M0 947 c0 -27 5 -35 30 -44 16 -6 30 -10 30 -7 0 12 -44 84 -51 84
-5 0 -9 -15 -9 -33z"/>
<path d="M2230 965 c0 -8 4 -15 10 -15 5 0 7 7 4 15 -4 8 -8 15 -10 15 -2 0
-4 -7 -4 -15z"/>
<path d="M50 954 c0 -8 5 -12 10 -9 6 3 10 1 10 -4 0 -6 5 -11 10 -11 16 0 11
27 -6 34 -22 9 -24 8 -24 -10z"/>
<path d="M1110 960 c0 -6 7 -10 15 -10 8 0 15 2 15 4 0 2 -7 6 -15 10 -8 3
-15 1 -15 -4z"/>
<path d="M1716 958 c3 -4 21 -8 41 -8 20 0 33 3 30 6 -10 10 -77 12 -71 2z"/>
<path d="M2668 963 c7 -3 16 -2 19 1 4 3 -2 6 -13 5 -11 0 -14 -3 -6 -6z"/>
<path d="M2883 963 c9 -2 23 -2 30 0 6 3 -1 5 -18 5 -16 0 -22 -2 -12 -5z"/>
<path d="M1380 950 c0 -5 5 -10 11 -10 5 0 7 5 4 10 -3 6 -8 10 -11 10 -2 0
-4 -4 -4 -10z"/>
<path d="M2038 953 c7 -3 16 -2 19 1 4 3 -2 6 -13 5 -11 0 -14 -3 -6 -6z"/>
<path d="M2110 936 c0 -33 46 -43 54 -12 9 34 8 36 -24 36 -25 0 -30 -4 -30
-24z"/>
<path d="M2198 953 c7 -3 16 -2 19 1 4 3 -2 6 -13 5 -11 0 -14 -3 -6 -6z"/>
<path d="M2803 953 c9 -2 23 -2 30 0 6 3 -1 5 -18 5 -16 0 -22 -2 -12 -5z"/>
<path d="M1460 930 c0 -5 7 -7 15 -4 8 4 15 8 15 10 0 2 -7 4 -15 4 -8 0 -15
-4 -15 -10z"/>
<path d="M1610 929 c0 -5 5 -9 11 -9 5 0 7 -5 3 -11 -4 -7 0 -9 12 -6 53 15
84 18 84 8 0 -6 7 -11 16 -11 8 0 30 -15 47 -32 18 -18 36 -33 41 -33 13 0 38
-76 31 -94 -7 -19 -20 -5 -34 39 -14 42 -57 94 -71 85 -6 -3 -10 -18 -10 -31
l0 -26 -31 26 c-17 14 -36 26 -42 26 -7 0 3 -13 21 -28 17 -15 32 -33 32 -40
0 -7 5 -10 10 -7 6 3 15 -6 20 -21 11 -27 -3 -50 -22 -38 -9 6 -9 6 -12 -101
-1 -57 -5 -79 -14 -78 -6 2 -12 -1 -12 -6 0 -5 -9 -11 -20 -14 -21 -5 -28 7
-10 18 6 4 8 10 5 14 -2 5 -1 28 4 52 7 35 9 38 10 14 1 -21 4 -26 12 -18 8 8
7 23 -4 53 -16 49 -22 40 -32 -52 -6 -56 -10 -67 -29 -72 -39 -10 -52 -7 -31
8 18 13 18 16 2 98 -18 90 -42 158 -56 158 -5 0 -11 9 -14 20 -3 11 -10 20
-17 20 -6 0 -8 -6 -4 -12 6 -10 4 -10 -7 0 -16 15 -81 16 -95 2 -6 -6 -36 -11
-68 -11 -31 -1 -55 -4 -51 -7 3 -3 53 -6 112 -7 l105 0 27 -32 c26 -31 42 -78
57 -166 8 -48 -15 -77 -62 -77 -39 0 -66 9 -59 21 5 7 -44 21 -87 23 -10 1
-22 7 -27 14 -8 14 -61 7 -61 -8 0 -5 32 -14 71 -21 66 -12 74 -16 100 -53 57
-80 62 -86 67 -81 3 2 -7 23 -22 45 l-26 40 87 1 c79 0 101 2 145 11 8 2 12
-9 11 -34 -1 -21 3 -38 8 -38 6 0 10 47 9 118 -1 64 -1 123 -1 130 1 6 12 12
25 12 l23 0 -18 57 c-22 66 -23 76 -7 71 6 -2 19 -31 28 -64 14 -51 20 -59 42
-62 26 -3 38 16 38 63 0 32 -43 112 -73 135 -39 31 -43 20 -7 -15 17 -16 30
-35 30 -42 0 -8 -13 2 -30 20 -39 45 -88 69 -112 56 -10 -6 -24 -6 -31 -2 -18
11 -37 12 -37 2z"/>
<path d="M2784 921 c-13 -13 1 -21 36 -21 29 0 40 4 40 15 0 11 -10 14 -36 12
-19 -1 -37 -4 -40 -6z"/>
<path d="M92 891 c-7 -18 -7 -31 -2 -31 11 0 25 48 17 56 -2 3 -9 -9 -15 -25z"/>
<path d="M776 903 c-6 -14 -5 -15 5 -6 7 7 10 15 7 18 -3 3 -9 -2 -12 -12z"/>
<path d="M2355 900 c-3 -5 1 -10 10 -10 9 0 13 5 10 10 -3 6 -8 10 -10 10 -2
0 -7 -4 -10 -10z"/>
<path d="M530 876 c0 -31 6 -34 13 -6 3 11 1 23 -4 26 -5 3 -9 -6 -9 -20z"/>
<path d="M1660 891 c0 -6 6 -12 13 -13 6 0 17 -2 22 -2 6 -1 15 -5 22 -9 6 -4
14 -3 17 2 7 11 -22 23 -35 15 -6 -3 -16 0 -24 6 -11 9 -15 9 -15 1z"/>
<path d="M2020 895 c0 -2 7 -23 16 -45 11 -27 22 -40 35 -40 21 0 22 4 13 37
-3 12 -12 19 -19 17 -7 -3 -16 -1 -20 5 -3 6 1 11 11 11 10 0 14 3 10 7 -8 8
-46 15 -46 8z"/>
<path d="M2393 858 c2 -51 11 -62 20 -26 3 11 0 33 -8 47 -14 25 -14 25 -12
-21z"/>
<path d="M2110 866 c0 -11 19 -14 85 -14 80 0 105 8 69 22 -9 3 -47 6 -85 6
-53 0 -69 -3 -69 -14z"/>
<path d="M2295 860 c3 -5 17 -10 31 -10 14 0 22 4 19 10 -3 6 -17 10 -31 10
-14 0 -22 -4 -19 -10z"/>
<path d="M842 840 c0 -14 2 -19 5 -12 2 6 2 18 0 25 -3 6 -5 1 -5 -13z"/>
<path d="M1573 844 c5 -7 12 -25 17 -41 7 -23 8 -24 9 -7 1 12 -7 30 -16 41
-10 10 -14 13 -10 7z"/>
<path d="M2783 846 c4 -9 -1 -17 -11 -19 -9 -3 -2 -5 15 -6 32 -1 32 0 16 19
-21 24 -27 26 -20 6z"/>
<path d="M0 833 c0 -12 7 -14 31 -9 17 3 50 6 72 6 61 0 39 9 -36 14 -56 4
-67 2 -67 -11z"/>
<path d="M1025 820 c-16 -17 -48 -42 -72 -55 -23 -14 -49 -35 -57 -47 -19 -27
-30 -18 -28 25 1 17 -3 39 -8 47 -14 23 -13 -74 2 -124 7 -22 27 -60 45 -84
18 -24 33 -51 33 -60 1 -16 2 -16 14 0 7 10 33 29 57 43 24 14 36 25 27 25
-10 0 -17 3 -17 8 6 36 -20 59 -36 32 -3 -6 1 -7 9 -4 12 5 16 -1 16 -20 0
-16 -7 -29 -17 -33 -10 -4 -21 -11 -26 -17 -5 -7 -12 -5 -21 7 -13 16 -12 23
6 53 23 39 67 74 115 93 17 7 34 19 37 27 8 21 -85 -29 -126 -68 -19 -18 -40
-42 -46 -53 -12 -20 -12 -20 -27 -1 -33 43 -12 94 57 140 57 37 105 83 96 91
-2 3 -17 -9 -33 -25z"/>
<path d="M187 828 c6 -11 63 -10 63 0 0 5 -15 8 -34 8 -19 -1 -32 -4 -29 -8z"/>
<path d="M880 814 c-13 -32 -13 -31 4 -31 8 0 16 13 18 29 6 35 -9 37 -22 2z"/>
<path d="M1140 831 c0 -13 56 -31 96 -31 19 0 34 5 34 11 0 8 -12 10 -36 6
-23 -4 -47 -1 -65 9 -16 8 -29 10 -29 5z"/>
<path d="M1624 797 c17 -30 26 -58 23 -73 -3 -20 -2 -22 9 -13 26 21 16 63
-23 100 l-36 34 27 -48z"/>
<path d="M1913 820 c2 -11 6 -23 10 -26 13 -14 7 -24 -15 -24 -12 0 -18 -3
-14 -7 7 -8 194 -6 235 2 53 10 29 15 -77 15 l-112 0 0 30 c0 20 -5 30 -15 30
-9 0 -14 -8 -12 -20z"/>
<path d="M1965 832 c-13 -13 -2 -22 26 -22 19 0 29 4 27 12 -4 12 -44 19 -53
10z"/>
<path d="M2338 833 c6 -2 18 -2 25 0 6 3 1 5 -13 5 -14 0 -19 -2 -12 -5z"/>
<path d="M2700 830 c0 -5 5 -10 10 -10 6 0 10 5 10 10 0 6 -4 10 -10 10 -5 0
-10 -4 -10 -10z"/>
<path d="M2840 828 c0 -5 16 -8 35 -8 19 0 35 4 35 10 0 5 -16 9 -35 7 -19 -1
-35 -5 -35 -9z"/>
<path d="M2920 832 c0 -4 18 -8 40 -8 22 -1 40 2 40 7 0 5 -18 9 -40 9 -22 0
-40 -3 -40 -8z"/>
<path d="M283 823 c9 -2 23 -2 30 0 6 3 -1 5 -18 5 -16 0 -22 -2 -12 -5z"/>
<path d="M800 815 c0 -8 2 -15 4 -15 2 0 6 7 10 15 3 8 1 15 -4 15 -6 0 -10
-7 -10 -15z"/>
<path d="M2124 821 c-13 -14 19 -21 94 -21 107 0 99 17 -11 22 -43 2 -80 1
-83 -1z"/>
<path d="M1070 805 c0 -16 16 -20 24 -6 3 5 -1 11 -9 15 -9 3 -15 0 -15 -9z"/>
<path d="M2917 793 c-2 -1 -133 -3 -293 -4 -159 0 -298 -5 -309 -9 -24 -10 8
-12 155 -11 52 0 193 1 313 1 184 1 217 4 217 16 0 11 -10 14 -40 12 -22 -1
-42 -3 -43 -5z"/>
<path d="M120 780 c0 -5 7 -7 15 -4 8 4 15 8 15 10 0 2 -7 4 -15 4 -8 0 -15
-4 -15 -10z"/>
<path d="M238 783 c7 -3 16 -2 19 1 4 3 -2 6 -13 5 -11 0 -14 -3 -6 -6z"/>
<path d="M315 780 c3 -5 13 -10 21 -10 8 0 14 5 14 10 0 6 -9 10 -21 10 -11 0
-17 -4 -14 -10z"/>
<path d="M801 760 c14 -31 19 -36 19 -24 0 6 -7 19 -16 30 -14 18 -14 18 -3
-6z"/>
<path d="M1157 769 c7 -7 15 -10 18 -7 3 3 -2 9 -12 12 -14 6 -15 5 -6 -5z"/>
<path d="M0 750 c0 -6 12 -10 28 -11 15 0 36 -2 47 -5 11 -2 130 -6 265 -9
171 -4 242 -3 234 5 -6 6 -92 12 -215 15 -112 3 -239 7 -281 10 -46 2 -78 0
-78 -5z"/>
<path d="M2957 754 c-2 -3 -114 -7 -248 -10 -134 -3 -309 -9 -389 -13 -80 -5
-214 -8 -298 -7 -83 0 -152 -2 -152 -6 0 -14 211 -13 755 7 66 2 177 4 248 4
70 1 127 5 127 10 0 9 -36 22 -43 15z"/>
<path d="M1115 720 c-3 -6 1 -7 9 -4 18 7 21 14 7 14 -6 0 -13 -4 -16 -10z"/>
<path d="M1335 720 c3 -5 8 -10 11 -10 2 0 4 5 4 10 0 6 -5 10 -11 10 -5 0 -7
-4 -4 -10z"/>
<path d="M1259 710 c-8 -22 2 -58 18 -64 9 -4 11 -2 7 6 -4 6 -10 25 -14 42
-4 19 -8 25 -11 16z"/>
<path d="M1190 706 c0 -2 8 -10 18 -17 15 -13 16 -12 3 4 -13 16 -21 21 -21
13z"/>
<path d="M1295 700 c-3 -5 -1 -10 4 -10 6 0 11 5 11 10 0 6 -2 10 -4 10 -3 0
-8 -4 -11 -10z"/>
<path d="M1762 688 c-22 -9 -7 -10 72 -8 90 2 110 16 22 16 -42 -1 -84 -4 -94
-8z"/>
<path d="M1990 680 c0 -5 16 -10 35 -10 19 0 35 5 35 10 0 6 -16 10 -35 10
-19 0 -35 -4 -35 -10z"/>
<path d="M1063 668 c-18 -6 -33 -15 -33 -19 0 -9 47 8 65 23 11 9 10 9 -32 -4z"/>
<path d="M1120 670 c0 -5 7 -10 15 -10 7 0 19 -8 24 -17 10 -17 10 -17 11 -1
0 10 -9 22 -19 28 -25 13 -31 13 -31 0z"/>
<path d="M1950 672 c0 -5 12 -14 26 -21 20 -9 68 -10 178 -4 87 4 138 10 121
13 -16 4 -89 5 -161 2 -90 -3 -134 -1 -138 7 -8 13 -26 15 -26 3z"/>
<path d="M2445 671 c-13 -6 10 -9 65 -9 47 0 91 3 98 7 17 10 -138 12 -163 2z"/>
<path d="M2635 670 c-3 -5 -1 -10 4 -10 6 0 11 5 11 10 0 6 -2 10 -4 10 -3 0
-8 -4 -11 -10z"/>
<path d="M2703 673 c9 -2 23 -2 30 0 6 3 -1 5 -18 5 -16 0 -22 -2 -12 -5z"/>
<path d="M2928 673 c6 -2 18 -2 25 0 6 3 1 5 -13 5 -14 0 -19 -2 -12 -5z"/>
<path d="M2345 660 c-3 -5 -1 -10 4 -10 6 0 11 5 11 10 0 6 -2 10 -4 10 -3 0
-8 -4 -11 -10z"/>
<path d="M2405 660 c-3 -5 -1 -10 4 -10 6 0 11 5 11 10 0 6 -2 10 -4 10 -3 0
-8 -4 -11 -10z"/>
<path d="M1416 634 c-9 -24 -7 -27 9 -10 17 17 19 26 6 26 -5 0 -12 -7 -15
-16z"/>
<path d="M2674 635 c22 -17 40 -20 32 -6 -3 5 -16 11 -28 14 -22 6 -22 5 -4
-8z"/>
<path d="M1041 614 c0 -11 3 -14 6 -6 3 7 2 16 -1 19 -3 4 -6 -2 -5 -13z"/>
<path d="M1969 609 c19 -18 22 -28 17 -63 -10 -71 -12 -77 -26 -86 -8 -5 -12
-11 -9 -15 12 -12 57 35 59 62 6 76 3 96 -15 109 -32 23 -52 17 -26 -7z m31
-119 c0 -5 -5 -10 -11 -10 -5 0 -7 5 -4 10 3 6 8 10 11 10 2 0 4 -4 4 -10z"/>
<path d="M2731 619 c-1 -10 9 -19 23 -23 13 -3 31 -9 40 -12 9 -3 16 -2 16 4
0 5 -15 13 -34 16 -19 4 -37 12 -39 19 -3 7 -6 5 -6 -4z"/>
<path d="M961 594 c0 -11 3 -14 6 -6 3 7 2 16 -1 19 -3 4 -6 -2 -5 -13z"/>
<path d="M1139 579 c-10 -6 -7 -9 14 -9 29 0 35 5 14 13 -8 3 -20 1 -28 -4z"/>
<path d="M1200 570 c8 -5 22 -10 30 -10 13 0 13 1 0 10 -8 5 -22 10 -30 10
-13 0 -13 -1 0 -10z"/>
<path d="M2920 571 c0 -5 7 -11 14 -14 10 -4 13 -1 9 9 -6 15 -23 19 -23 5z"/>
<path d="M2989 545 c-6 -40 -4 -53 7 -43 3 3 4 23 2 44 l-3 39 -6 -40z"/>
<path d="M555 565 c-5 -1 -54 -15 -107 -30 -54 -15 -98 -32 -98 -36 0 -5 12
-4 28 2 15 6 77 24 137 39 61 16 97 29 80 29 -16 0 -34 -2 -40 -4z"/>
<path d="M1380 504 c30 -7 56 -11 58 -9 6 5 -70 25 -93 24 -11 -1 5 -7 35 -15z"/>
<path d="M393 487 c-34 -12 -65 -25 -68 -29 -9 -8 111 29 133 42 27 15 2 10
-65 -13z"/>
<path d="M1042 484 c-48 -24 -92 -65 -92 -86 0 -5 17 4 38 20 74 59 159 63
342 18 109 -28 94 -33 -30 -11 -158 28 -267 13 -333 -45 -28 -24 -125 -70
-149 -70 -5 0 -8 11 -8 24 0 28 -46 71 -100 94 -53 22 -124 10 -314 -52 -93
-31 -171 -56 -174 -56 -3 0 2 8 10 18 24 28 80 132 71 132 -4 0 -13 -10 -19
-23 -36 -71 -49 -90 -75 -109 -16 -12 -29 -27 -29 -32 0 -8 103 -10 333 -9
413 2 527 6 527 16 0 5 5 5 12 1 17 -11 507 -11 501 0 -3 4 0 11 6 15 8 5 6
13 -8 25 -19 17 -19 17 -14 -3 5 -21 3 -21 -138 -21 -205 0 -445 21 -435 39 5
8 56 7 221 -5 55 -3 97 -3 94 0 -4 4 -38 9 -75 12 -38 2 -78 6 -89 8 -11 2
-29 4 -40 5 -15 1 -16 4 -7 13 13 13 205 16 257 4 17 -4 46 -10 65 -13 71 -11
51 -27 -32 -24 -78 2 -72 -7 9 -13 55 -5 62 -3 68 14 8 24 14 24 40 3 13 -10
15 -14 4 -10 -9 3 -22 1 -30 -4 -9 -6 0 -9 29 -9 23 0 42 4 42 9 0 5 2 15 5
23 6 14 -14 22 -155 64 -256 75 -254 75 -328 38z m-300 -101 l22 -22 -58 0
c-31 1 -60 -2 -63 -5 -4 -3 30 -6 75 -6 45 0 82 -4 82 -9 0 -10 -111 -19 -355
-26 -107 -3 -163 -1 -150 4 11 5 42 10 68 10 36 1 46 4 41 14 -6 9 -5 9 7 0
10 -8 25 -9 45 -4 l29 9 -35 1 c-29 1 -32 3 -18 12 10 5 30 12 45 14 16 2 44
11 63 19 53 25 173 18 202 -11z m194 -58 c-11 -8 -25 -15 -30 -15 -6 0 -2 7 8
15 11 8 25 15 30 15 6 0 2 -7 -8 -15z"/>
<path d="M535 350 l-40 -7 43 -2 c23 0 42 4 42 9 0 6 -1 9 -2 9 -2 -1 -21 -5
-43 -9z"/>
<path d="M600 350 c0 -5 7 -10 15 -10 8 0 15 5 15 10 0 6 -7 10 -15 10 -8 0
-15 -4 -15 -10z"/>
<path d="M917 468 c-21 -46 -30 -91 -17 -83 5 3 10 12 10 18 0 7 9 30 20 52
23 45 23 45 11 45 -5 0 -15 -15 -24 -32z"/>
<path d="M1327 489 c7 -7 15 -10 18 -7 3 3 -2 9 -12 12 -14 6 -15 5 -6 -5z"/>
<path d="M1400 470 c34 -11 60 -11 35 0 -11 5 -29 8 -40 8 -16 0 -15 -2 5 -8z"/>
<path d="M353 447 c-52 -20 -50 -28 3 -10 27 9 51 17 53 19 9 8 -25 2 -56 -9z"/>
<path d="M1727 386 c-3 -8 -1 -18 5 -22 6 -4 8 -3 5 3 -4 6 31 8 98 5 74 -3
105 -1 105 7 0 7 -26 11 -74 11 -40 0 -87 3 -103 6 -22 4 -32 2 -36 -10z"/>
<path d="M1950 375 c0 -3 11 -10 25 -15 15 -6 25 -17 25 -30 0 -11 5 -20 11
-20 14 0 2 52 -14 62 -14 9 -47 11 -47 3z"/>
<path d="M1716 313 c-6 -14 -5 -15 5 -6 7 7 10 15 7 18 -3 3 -9 -2 -12 -12z"/>
<path d="M1912 310 c0 -14 2 -19 5 -12 2 6 2 18 0 25 -3 6 -5 1 -5 -13z"/>
<path d="M955 270 c3 -5 8 -10 11 -10 2 0 4 5 4 10 0 6 -5 10 -11 10 -5 0 -7
-4 -4 -10z"/>
<path d="M1705 140 c3 -5 8 -10 11 -10 2 0 4 5 4 10 0 6 -5 10 -11 10 -5 0 -7
-4 -4 -10z"/>
</g>
</svg>
