<?xml version="1.0" standalone="no"?>
<!DOCTYPE svg PUBLIC "-//W3C//DTD SVG 20010904//EN"
 "http://www.w3.org/TR/2001/REC-SVG-20010904/DTD/svg10.dtd">
<svg version="1.0" xmlns="http://www.w3.org/2000/svg"
 width="300.000000pt" height="300.000000pt" viewBox="0 0 300.000000 300.000000"
 preserveAspectRatio="xMidYMid meet">
<metadata>
Created by potrace 1.10, written by Peter Selinger 2001-2011
</metadata>
<g transform="translate(0.000000,300.000000) scale(0.100000,-0.100000)"
fill="#000000" stroke="none">
<path d="M0 2990 c0 -13 20 -13 40 0 12 8 9 10 -12 10 -16 0 -28 -4 -28 -10z"/>
<path d="M85 2990 c-3 -5 1 -10 9 -10 9 0 16 5 16 10 0 6 -4 10 -9 10 -6 0
-13 -4 -16 -10z"/>
<path d="M527 2993 c-12 -11 -8 -42 7 -50 7 -4 16 -15 19 -23 4 -11 6 -10 6 4
1 11 -6 28 -16 38 -22 25 -12 31 22 14 26 -14 30 -13 41 2 16 22 12 25 -20 13
-17 -7 -26 -7 -26 -1 0 11 -23 13 -33 3z"/>
<path d="M656 2974 c11 -16 20 -22 27 -15 6 6 4 15 -6 25 -25 26 -39 19 -21
-10z"/>
<path d="M783 2964 c1 -38 11 -44 26 -16 7 14 5 22 -9 34 -17 15 -18 14 -17
-18z"/>
<path d="M840 2978 c0 -19 2 -20 10 -8 13 19 13 30 0 30 -5 0 -10 -10 -10 -22z"/>
<path d="M932 2988 c6 -17 38 -23 38 -8 0 6 -4 8 -10 5 -5 -3 -10 -1 -10 4 0
6 -5 11 -11 11 -6 0 -9 -6 -7 -12z"/>
<path d="M1037 2993 c-4 -3 -7 -11 -7 -17 0 -6 5 -5 12 2 6 6 9 14 7 17 -3 3
-9 2 -12 -2z"/>
<path d="M1260 2976 c-5 -15 -8 -32 -4 -37 7 -12 34 -12 34 1 0 6 -5 10 -11
10 -8 0 -7 5 1 15 10 12 10 19 2 27 -8 8 -14 4 -22 -16z"/>
<path d="M1320 2985 c0 -8 -5 -15 -10 -15 -7 0 -7 -7 1 -21 12 -22 0 -39 -28
-39 -7 0 -13 -4 -13 -10 0 -14 4 -13 45 11 19 12 40 30 46 40 5 11 18 19 28
19 10 0 23 6 30 13 8 11 4 13 -24 13 -22 -1 -34 -5 -31 -12 5 -13 -13 -34 -27
-34 -5 0 -7 11 -5 25 3 14 1 25 -3 25 -5 0 -9 -7 -9 -15z"/>
<path d="M1455 2990 c3 -5 12 -7 20 -3 21 7 19 13 -6 13 -11 0 -18 -4 -14 -10z"/>
<path d="M1636 2985 c-3 -8 -1 -25 4 -37 8 -20 9 -18 9 15 1 39 -3 47 -13 22z"/>
<path d="M1718 2993 c7 -3 16 -2 19 1 4 3 -2 6 -13 5 -11 0 -14 -3 -6 -6z"/>
<path d="M1792 2987 c18 -19 38 -22 38 -7 0 6 -4 10 -9 10 -5 0 -18 3 -28 7
-17 6 -17 6 -1 -10z"/>
<path d="M1873 2993 c-13 -2 -23 -8 -23 -13 0 -11 67 -18 83 -8 11 7 3 12 -15
9 -5 0 -8 4 -8 9 0 6 -3 9 -7 9 -5 -1 -18 -4 -30 -6z"/>
<path d="M1964 2979 c1 -14 -6 -23 -17 -25 -26 -4 -30 -9 -32 -43 -2 -36 22
-32 31 5 l6 24 36 -34 c28 -28 33 -38 23 -49 -9 -12 -7 -16 11 -22 13 -4 26
-7 31 -6 4 1 7 -6 7 -14 0 -8 5 -15 10 -15 18 0 11 35 -10 48 -11 7 -20 21
-20 32 0 12 -10 25 -25 32 -14 6 -25 16 -26 22 -1 6 -2 22 -2 35 -2 30 -24 40
-23 10z m-24 -59 c0 -5 -4 -10 -10 -10 -5 0 -10 5 -10 10 0 6 5 10 10 10 6 0
10 -4 10 -10z"/>
<path d="M991 2955 c1 -40 1 -40 10 -10 5 18 5 33 -1 39 -7 7 -10 -4 -9 -29z"/>
<path d="M1124 2978 c-3 -4 4 -8 15 -8 11 0 23 -4 26 -10 3 -5 10 -10 16 -10
5 0 4 8 -2 18 -11 18 -46 24 -55 10z"/>
<path d="M1500 2980 c0 -5 5 -10 10 -10 6 0 10 5 10 10 0 6 -4 10 -10 10 -5 0
-10 -4 -10 -10z"/>
<path d="M1560 2980 c0 -5 5 -10 10 -10 6 0 10 5 10 10 0 6 -4 10 -10 10 -5 0
-10 -4 -10 -10z"/>
<path d="M1070 2965 c0 -8 2 -15 4 -15 2 0 6 7 10 15 3 8 1 15 -4 15 -6 0 -10
-7 -10 -15z"/>
<path d="M1730 2970 l-25 -8 28 -1 c15 -1 27 4 27 9 0 6 -1 10 -2 9 -2 -1 -14
-5 -28 -9z"/>
<path d="M390 2961 c0 -5 11 -11 25 -13 20 -4 23 -3 14 8 -13 16 -39 19 -39 5z"/>
<path d="M871 2963 c-1 -7 -8 -13 -17 -13 -14 0 -14 -3 -3 -16 11 -14 13 -14
21 1 5 9 7 21 4 28 -3 9 -5 9 -5 0z"/>
<path d="M1453 2963 c-15 -5 -18 -33 -4 -33 13 0 33 28 24 33 -4 2 -14 2 -20
0z"/>
<path d="M1830 2949 c0 -6 -7 -9 -15 -5 -8 3 -15 1 -15 -4 0 -6 9 -10 20 -10
11 0 20 7 20 15 0 8 -2 15 -5 15 -3 0 -5 -5 -5 -11z"/>
<path d="M600 2930 c0 -19 3 -21 12 -12 9 9 9 15 0 24 -9 9 -12 7 -12 -12z"/>
<path d="M1120 2940 c-13 -8 -12 -10 3 -10 9 0 17 5 17 10 0 12 -1 12 -20 0z"/>
<path d="M1208 2938 c7 -7 12 -20 12 -30 0 -9 10 -23 23 -30 24 -14 77 -17 77
-5 0 4 -12 7 -27 7 -34 0 -44 7 -62 43 -8 15 -19 27 -25 27 -6 0 -5 -5 2 -12z"/>
<path d="M1520 2934 c0 -11 -6 -15 -20 -11 -23 6 -26 -5 -6 -22 11 -9 18 -6
36 19 18 25 19 30 6 30 -9 0 -16 -7 -16 -16z"/>
<path d="M1750 2940 c-8 -5 -11 -12 -7 -16 4 -4 13 -2 19 4 15 15 7 24 -12 12z"/>
<path d="M1874 2936 c-3 -9 -17 -16 -31 -16 -19 0 -24 -4 -19 -16 3 -9 6 -17
6 -19 0 -2 14 9 32 25 17 16 29 32 25 36 -4 4 -9 -1 -13 -10z"/>
<path d="M480 2930 c0 -5 -12 -10 -26 -10 -35 0 -26 -25 9 -26 15 -1 35 -8 45
-16 11 -9 26 -13 42 -8 l25 6 -27 18 c-16 10 -28 25 -28 32 0 8 -9 14 -20 14
-11 0 -20 -4 -20 -10z m45 -40 c3 -5 1 -10 -4 -10 -6 0 -11 5 -11 10 0 6 2 10
4 10 3 0 8 -4 11 -10z"/>
<path d="M712 2920 c-7 -11 -9 -20 -4 -20 10 0 32 22 32 32 0 15 -15 8 -28
-12z"/>
<path d="M931 2924 c0 -11 3 -14 6 -6 3 7 2 16 -1 19 -3 4 -6 -2 -5 -13z"/>
<path d="M1030 2930 c0 -5 6 -10 14 -10 8 0 18 5 21 10 3 6 -3 10 -14 10 -12
0 -21 -4 -21 -10z"/>
<path d="M1374 2929 c-5 -9 -2 -10 9 -6 9 3 19 2 22 -2 2 -5 14 -11 26 -14 19
-5 20 -4 8 7 -21 21 -56 29 -65 15z"/>
<path d="M1566 2910 l-38 -29 26 -7 c15 -3 30 -4 33 0 4 3 -1 6 -10 6 -27 0
-20 16 13 30 33 14 49 30 28 30 -7 0 -30 -14 -52 -30z"/>
<path d="M631 2914 c0 -11 3 -14 6 -6 3 7 2 16 -1 19 -3 4 -6 -2 -5 -13z"/>
<path d="M1715 2920 c3 -5 8 -10 11 -10 2 0 4 5 4 10 0 6 -5 10 -11 10 -5 0
-7 -4 -4 -10z"/>
<path d="M1775 2920 c-8 -13 -1 -24 14 -19 6 3 7 10 2 18 -6 10 -10 10 -16 1z"/>
<path d="M304 2909 c-3 -6 0 -18 9 -26 13 -13 14 -12 10 11 -6 29 -9 31 -19
15z"/>
<path d="M770 2913 c-17 -7 -40 -29 -40 -39 0 -3 6 -1 13 5 8 6 17 8 20 4 4
-3 7 -1 7 5 0 24 64 4 83 -25 11 -18 27 -16 27 2 0 13 17 20 41 17 4 -1 5 8 2
18 -3 11 -11 20 -18 20 -16 0 -37 -25 -28 -33 16 -17 -27 -5 -50 13 -26 21
-32 22 -57 13z m140 -13 c0 -5 -4 -10 -10 -10 -5 0 -10 5 -10 10 0 6 5 10 10
10 6 0 10 -4 10 -10z"/>
<path d="M950 2900 c0 -5 5 -10 10 -10 6 0 10 5 10 10 0 6 -4 10 -10 10 -5 0
-10 -4 -10 -10z"/>
<path d="M1026 2893 c-6 -14 -5 -15 5 -6 7 7 10 15 7 18 -3 3 -9 -2 -12 -12z"/>
<path d="M1170 2900 c0 -5 4 -10 9 -10 6 0 13 5 16 10 3 6 -1 10 -9 10 -9 0
-16 -4 -16 -10z"/>
<path d="M1360 2900 c0 -5 5 -10 11 -10 6 0 8 -9 4 -20 -4 -11 -2 -20 4 -20 6
0 11 7 11 16 0 11 6 14 23 9 18 -5 16 -2 -8 14 -33 23 -45 26 -45 11z"/>
<path d="M1600 2900 c0 -5 5 -10 10 -10 6 0 10 5 10 10 0 6 -4 10 -10 10 -5 0
-10 -4 -10 -10z"/>
<path d="M1700 2903 c0 -6 -16 -14 -35 -17 -19 -4 -35 -11 -35 -16 0 -6 4 -10
9 -10 4 0 20 -11 36 -26 15 -14 30 -22 33 -19 4 3 2 9 -3 13 -6 4 -19 18 -30
31 l-20 24 27 -7 c30 -7 47 9 29 27 -8 8 -11 8 -11 0z"/>
<path d="M1866 2891 c-3 -5 4 -18 17 -28 29 -23 39 -47 24 -62 -15 -15 -36
-14 -54 4 -8 9 -17 14 -20 11 -3 -2 5 -14 18 -27 18 -18 25 -20 38 -10 9 6 24
14 34 17 18 7 24 24 7 24 -26 0 -6 28 32 45 36 15 39 19 23 25 -11 4 -21 3
-23 -1 -2 -5 -10 -9 -17 -9 -7 0 -16 -7 -19 -16 -5 -12 -10 -11 -30 11 -13 14
-27 22 -30 16z"/>
<path d="M210 2870 c0 -14 7 -20 22 -20 20 0 21 1 3 20 -10 11 -20 20 -22 20
-1 0 -3 -9 -3 -20z"/>
<path d="M375 2880 c-3 -5 -2 -10 4 -10 5 0 13 5 16 10 3 6 2 10 -4 10 -5 0
-13 -4 -16 -10z"/>
<path d="M600 2880 c0 -5 5 -10 10 -10 6 0 10 5 10 10 0 6 -4 10 -10 10 -5 0
-10 -4 -10 -10z"/>
<path d="M1082 2879 c2 -7 10 -15 17 -17 8 -3 12 1 9 9 -2 7 -10 15 -17 17 -8
3 -12 -1 -9 -9z"/>
<path d="M1730 2880 c0 -15 21 -23 32 -12 6 6 2 11 -11 15 -12 3 -21 1 -21 -3z"/>
<path d="M415 2869 c-4 -6 -4 -13 0 -17 3 -3 10 0 14 7 5 7 14 10 20 7 18 -12
13 -21 -18 -33 -25 -9 -31 -8 -34 6 -3 11 -5 9 -6 -6 -1 -14 -7 -23 -17 -23
-11 0 -14 -6 -9 -20 8 -26 -22 -28 -41 -2 -12 15 -12 12 -3 -15 8 -25 17 -33
35 -33 13 0 24 -4 24 -10 0 -5 8 -10 18 -10 16 1 16 1 0 11 -24 13 -23 36 1
49 11 5 23 19 26 30 4 11 9 19 13 16 16 -9 52 15 52 34 0 16 -6 20 -34 20 -19
0 -38 -5 -41 -11z"/>
<path d="M678 2873 c6 -2 18 -2 25 0 6 3 1 5 -13 5 -14 0 -19 -2 -12 -5z"/>
<path d="M943 2869 c-11 -11 -6 -49 6 -49 4 0 8 14 8 30 0 34 0 33 -14 19z"/>
<path d="M1183 2865 c-10 -11 -9 -13 7 -12 11 1 20 7 20 14 0 17 -12 16 -27
-2z"/>
<path d="M1453 2869 c12 -7 16 -17 12 -30 -4 -11 -2 -19 5 -19 8 0 8 -6 0 -20
-7 -14 -7 -20 0 -20 5 0 10 6 10 14 0 8 6 17 13 19 9 4 9 7 -1 15 -7 5 -12 13
-11 18 4 24 -3 34 -23 34 -21 -1 -21 -2 -5 -11z"/>
<path d="M754 2858 c-3 -4 -15 -8 -27 -8 -18 0 -19 -2 -7 -10 12 -8 12 -10 1
-10 -8 0 -11 -3 -8 -6 4 -4 14 -1 23 7 9 8 27 12 40 11 15 -2 24 2 24 10 0 15
-38 19 -46 6z"/>
<path d="M985 2860 c-3 -5 -2 -10 4 -10 5 0 13 5 16 10 3 6 2 10 -4 10 -5 0
-13 -4 -16 -10z"/>
<path d="M1130 2860 c0 -5 5 -10 10 -10 6 0 10 5 10 10 0 6 -4 10 -10 10 -5 0
-10 -4 -10 -10z"/>
<path d="M1810 2854 c0 -8 5 -12 10 -9 6 3 10 10 10 16 0 5 -4 9 -10 9 -5 0
-10 -7 -10 -16z"/>
<path d="M346 2851 c-4 -7 -5 -15 -2 -18 9 -9 19 4 14 18 -4 11 -6 11 -12 0z"/>
<path d="M570 2851 c0 -5 7 -12 16 -15 22 -9 24 -8 18 9 -7 16 -34 21 -34 6z"/>
<path d="M1220 2854 c0 -4 11 -16 24 -28 13 -11 29 -30 35 -41 11 -18 12 -17
6 9 -4 19 -2 32 7 37 7 4 9 11 5 16 -5 4 -12 1 -17 -7 -7 -12 -12 -12 -28 3
-19 18 -32 22 -32 11z"/>
<path d="M1345 2851 c-3 -5 -1 -12 5 -16 5 -3 10 1 10 9 0 18 -6 21 -15 7z"/>
<path d="M1600 2851 c0 -6 5 -13 10 -16 6 -3 10 1 10 9 0 9 -4 16 -10 16 -5 0
-10 -4 -10 -9z"/>
<path d="M1840 2845 c0 -8 5 -15 10 -15 6 0 10 7 10 15 0 8 -4 15 -10 15 -5 0
-10 -7 -10 -15z"/>
<path d="M290 2841 c0 -5 9 -11 21 -14 16 -4 18 -3 8 9 -13 16 -29 19 -29 5z"/>
<path d="M808 2829 c-10 -11 -13 -21 -8 -24 6 -4 10 -1 10 4 0 6 7 11 15 11 8
0 15 4 15 9 0 18 -15 18 -32 0z"/>
<path d="M900 2830 c0 -11 -3 -20 -8 -20 -4 0 -13 -10 -21 -22 l-14 -23 25 23
c29 26 38 28 38 5 0 -9 2 -14 5 -11 8 8 -6 68 -16 68 -5 0 -9 -9 -9 -20z"/>
<path d="M1030 2843 c0 -13 29 -38 35 -31 3 3 -4 13 -15 23 -11 10 -20 13 -20
8z"/>
<path d="M1410 2835 c-11 -13 -10 -14 4 -9 9 3 16 10 16 15 0 13 -6 11 -20 -6z"/>
<path d="M1715 2840 c3 -5 8 -10 11 -10 2 0 4 5 4 10 0 6 -5 10 -11 10 -5 0
-7 -4 -4 -10z"/>
<path d="M1781 2841 c-10 -6 -10 -10 -1 -16 13 -8 24 -1 19 14 -3 6 -10 7 -18
2z"/>
<path d="M236 2832 c-3 -5 4 -18 16 -28 21 -19 21 -19 8 6 -17 33 -17 33 -24
22z"/>
<path d="M1140 2825 c-7 -9 -8 -15 -2 -15 5 0 12 7 16 15 3 8 4 15 2 15 -2 0
-9 -7 -16 -15z"/>
<path d="M1190 2830 c0 -5 5 -10 10 -10 6 0 10 5 10 10 0 6 -4 10 -10 10 -5 0
-10 -4 -10 -10z"/>
<path d="M1870 2824 c0 -8 5 -12 10 -9 6 3 10 10 10 16 0 5 -4 9 -10 9 -5 0
-10 -7 -10 -16z"/>
<path d="M516 2801 c11 -18 22 -27 28 -22 16 11 56 11 56 0 0 -5 5 -9 10 -9 6
0 10 9 10 19 0 15 -7 19 -35 18 -19 -1 -35 -5 -35 -9 0 -4 -5 -8 -11 -8 -5 0
-8 4 -5 8 2 4 -4 14 -16 21 -20 12 -20 12 -2 -18z"/>
<path d="M1540 2824 c0 -7 27 -34 35 -34 3 0 1 9 -5 20 -10 18 -30 28 -30 14z"/>
<path d="M1974 2813 c4 -9 1 -20 -6 -24 -7 -4 -9 -12 -4 -16 4 -4 13 0 20 10
17 22 26 22 27 0 0 -11 3 -13 6 -5 8 20 25 13 18 -8 -7 -23 13 -28 21 -5 6 15
-17 45 -35 45 -6 0 -11 5 -11 10 0 6 -9 10 -21 10 -16 0 -19 -4 -15 -17z"/>
<path d="M678 2813 c7 -3 16 -2 19 1 4 3 -2 6 -13 5 -11 0 -14 -3 -6 -6z"/>
<path d="M750 2812 c0 -12 19 -26 26 -19 2 2 -2 10 -11 17 -9 8 -15 8 -15 2z"/>
<path d="M1087 2813 c-12 -11 -8 -23 8 -23 8 0 15 7 15 15 0 16 -12 20 -23 8z"/>
<path d="M1306 2813 c-9 -10 4 -22 18 -17 8 3 16 -4 20 -18 5 -18 8 -20 15 -9
13 20 -36 61 -53 44z"/>
<path d="M1380 2811 c0 -6 4 -13 10 -16 6 -3 7 1 4 9 -7 18 -14 21 -14 7z"/>
<path d="M1640 2810 c0 -6 7 -10 16 -10 12 0 14 -3 6 -13 -8 -9 -6 -19 7 -36
13 -17 20 -20 26 -11 4 7 2 16 -4 20 -7 4 -11 15 -9 25 2 11 -6 21 -19 26 -14
5 -23 5 -23 -1z"/>
<path d="M1740 2800 c0 -5 4 -10 9 -10 6 0 13 5 16 10 3 6 -1 10 -9 10 -9 0
-16 -4 -16 -10z"/>
<path d="M1795 2800 c3 -5 8 -10 11 -10 2 0 4 5 4 10 0 6 -5 10 -11 10 -5 0
-7 -4 -4 -10z"/>
<path d="M450 2788 c0 -3 9 -6 20 -5 11 1 20 5 20 9 0 3 -9 6 -20 5 -11 -1
-20 -5 -20 -9z"/>
<path d="M640 2789 c0 -5 5 -7 10 -4 6 3 10 8 10 11 0 2 -4 4 -10 4 -5 0 -10
-5 -10 -11z"/>
<path d="M956 2785 c4 -8 8 -15 10 -15 2 0 4 7 4 15 0 8 -4 15 -10 15 -5 0 -7
-7 -4 -15z"/>
<path d="M993 2770 c-6 -16 -8 -32 -3 -35 4 -3 11 7 15 22 3 16 12 31 18 35 8
5 7 8 -3 8 -9 0 -21 -13 -27 -30z"/>
<path d="M1161 2784 c0 -11 3 -14 6 -6 3 7 2 16 -1 19 -3 4 -6 -2 -5 -13z"/>
<path d="M1600 2790 c-8 -5 -12 -11 -9 -14 2 -3 11 -1 19 4 8 5 12 11 9 14 -2
3 -11 1 -19 -4z"/>
<path d="M2498 2793 c7 -3 16 -2 19 1 4 3 -2 6 -13 5 -11 0 -14 -3 -6 -6z"/>
<path d="M1410 2774 c0 -8 -4 -12 -10 -9 -5 3 -10 -1 -10 -11 0 -13 3 -14 13
-5 8 6 16 8 20 5 3 -3 3 3 0 15 -6 25 -13 27 -13 5z"/>
<path d="M1711 2774 c0 -11 3 -14 6 -6 3 7 2 16 -1 19 -3 4 -6 -2 -5 -13z"/>
<path d="M2081 2777 c-7 -9 -10 -17 -6 -17 4 0 2 -6 -4 -13 -8 -11 -2 -16 34
-24 42 -9 45 -9 45 9 0 16 -5 19 -24 14 -21 -5 -25 -2 -28 21 -3 24 -4 25 -17
10z"/>
<path d="M210 2770 c0 -5 5 -10 11 -10 5 0 7 5 4 10 -3 6 -8 10 -11 10 -2 0
-4 -4 -4 -10z"/>
<path d="M720 2758 c0 -12 3 -18 7 -14 11 10 12 36 2 36 -5 0 -9 -10 -9 -22z"/>
<path d="M1052 2768 c6 -18 25 -21 31 -5 3 8 -3 13 -15 14 -10 1 -18 -3 -16
-9z"/>
<path d="M1226 2764 c-3 -9 -4 -20 -1 -25 8 -13 33 13 28 28 -7 18 -20 16 -27
-3z"/>
<path d="M1496 2773 c-11 -11 -6 -23 8 -23 7 0 19 -6 25 -14 10 -11 8 -17 -6
-25 -16 -9 -16 -10 6 -11 13 0 21 3 18 7 -4 3 3 17 15 30 12 13 16 23 10 23
-6 0 -14 -4 -17 -10 -9 -15 -25 -12 -25 4 0 15 -24 28 -34 19z"/>
<path d="M1730 2770 c0 -5 5 -10 10 -10 6 0 10 5 10 10 0 6 -4 10 -10 10 -5 0
-10 -4 -10 -10z"/>
<path d="M1800 2760 c-18 -16 -21 -23 -12 -32 9 -9 12 -8 12 5 0 9 8 20 17 26
10 5 15 12 12 15 -3 4 -16 -3 -29 -14z"/>
<path d="M640 2761 c0 -5 -5 -22 -11 -38 l-11 -28 -14 30 -14 30 6 -30 c7 -37
9 -39 29 -32 8 4 15 15 15 25 0 10 5 23 11 29 8 8 8 13 0 17 -6 4 -11 3 -11
-3z"/>
<path d="M1460 2760 c0 -5 5 -10 10 -10 6 0 10 5 10 10 0 6 -4 10 -10 10 -5 0
-10 -4 -10 -10z"/>
<path d="M2180 2760 c0 -5 5 -10 10 -10 6 0 10 5 10 10 0 6 -4 10 -10 10 -5 0
-10 -4 -10 -10z"/>
<path d="M675 2750 c3 -5 8 -10 11 -10 2 0 4 5 4 10 0 6 -5 10 -11 10 -5 0 -7
-4 -4 -10z"/>
<path d="M750 2732 c0 -18 5 -32 10 -32 6 0 8 11 4 28 -10 39 -14 40 -14 4z"/>
<path d="M940 2745 c0 -8 5 -15 10 -15 6 0 10 7 10 15 0 8 -4 15 -10 15 -5 0
-10 -7 -10 -15z"/>
<path d="M1180 2753 c0 -5 5 -15 10 -23 8 -12 10 -11 10 8 0 12 -4 22 -10 22
-5 0 -10 -3 -10 -7z"/>
<path d="M1945 2751 c-3 -5 -1 -12 5 -16 5 -3 10 1 10 9 0 18 -6 21 -15 7z"/>
<path d="M1990 2745 c-10 -12 -10 -15 4 -15 9 0 16 7 16 15 0 8 -2 15 -4 15
-2 0 -9 -7 -16 -15z"/>
<path d="M270 2740 c0 -5 5 -10 11 -10 5 0 7 5 4 10 -3 6 -8 10 -11 10 -2 0
-4 -4 -4 -10z"/>
<path d="M430 2743 c0 -6 -3 -18 -6 -27 -4 -11 -1 -16 10 -16 9 0 16 6 16 13
0 16 -20 46 -20 30z"/>
<path d="M530 2740 c0 -5 5 -10 10 -10 6 0 10 5 10 10 0 6 -4 10 -10 10 -5 0
-10 -4 -10 -10z"/>
<path d="M1717 2744 c-4 -4 -7 -16 -7 -26 0 -18 1 -18 16 -3 11 10 13 20 7 26
-5 5 -12 6 -16 3z"/>
<path d="M1845 2740 c3 -5 10 -10 16 -10 5 0 9 5 9 10 0 6 -7 10 -16 10 -8 0
-12 -4 -9 -10z"/>
<path d="M491 2731 c-9 -6 -7 -10 8 -14 12 -3 21 -1 21 3 0 14 -15 19 -29 11z"/>
<path d="M2251 2724 c0 -11 3 -14 6 -6 3 7 2 16 -1 19 -3 4 -6 -2 -5 -13z"/>
<path d="M305 2720 c3 -5 8 -10 11 -10 2 0 4 5 4 10 0 6 -5 10 -11 10 -5 0 -7
-4 -4 -10z"/>
<path d="M865 2720 c3 -5 11 -10 16 -10 6 0 7 5 4 10 -3 6 -11 10 -16 10 -6 0
-7 -4 -4 -10z"/>
<path d="M920 2720 c0 -5 5 -10 11 -10 5 0 7 5 4 10 -3 6 -8 10 -11 10 -2 0
-4 -4 -4 -10z"/>
<path d="M1014 2714 c3 -9 6 -20 6 -25 0 -21 15 -7 16 16 1 16 -3 25 -13 25
-10 0 -13 -6 -9 -16z"/>
<path d="M1071 2714 c0 -11 3 -14 6 -6 3 7 2 16 -1 19 -3 4 -6 -2 -5 -13z"/>
<path d="M1120 2718 c0 -12 38 -10 45 2 4 6 -5 9 -19 8 -15 -1 -26 -6 -26 -10z"/>
<path d="M1440 2704 c0 -14 4 -23 9 -20 5 3 7 15 4 26 -7 28 -13 25 -13 -6z"/>
<path d="M1580 2721 c0 -8 52 -23 59 -16 1 2 0 8 -4 14 -8 13 -55 15 -55 2z"/>
<path d="M1750 2718 c0 -9 5 -20 11 -23 17 -11 20 0 4 21 -13 17 -14 17 -15 2z"/>
<path d="M2026 2715 c4 -8 1 -15 -5 -15 -6 0 -11 -5 -11 -10 0 -6 7 -6 18 1
21 13 25 39 6 39 -8 0 -11 -6 -8 -15z"/>
<path d="M2186 2714 c-5 -13 -16 -15 -51 -12 -33 4 -48 1 -57 -10 -11 -13 -10
-14 14 -9 30 8 61 -1 52 -14 -3 -5 -10 -6 -16 -3 -8 5 -9 1 -5 -10 4 -10 7
-20 7 -22 0 -2 9 -4 20 -4 16 0 20 -7 20 -30 0 -23 -4 -30 -20 -30 -21 0 -27
-15 -10 -25 18 -11 11 -27 -9 -20 -12 3 -21 0 -25 -11 -4 -10 0 -17 12 -21 10
-2 23 -13 30 -24 14 -21 3 -26 -17 -6 -11 10 -12 7 -6 -13 4 -14 11 -27 15
-30 13 -8 8 -59 -6 -71 -10 -8 -14 -8 -14 0 0 6 -5 11 -11 11 -6 0 -8 -9 -3
-22 4 -13 7 -29 7 -37 0 -9 4 -8 14 5 11 15 13 16 13 2 0 -9 -5 -20 -10 -23
-6 -4 -8 -15 -5 -25 3 -10 0 -20 -9 -23 -8 -3 -12 -14 -10 -25 3 -10 -2 -25
-12 -33 -16 -13 -17 -11 -11 30 3 25 2 40 -2 33 -4 -8 -10 -5 -19 8 -12 20 -1
37 17 25 5 -3 12 -1 15 4 4 5 2 12 -4 16 -5 3 -10 18 -10 32 0 18 -4 24 -15
20 -8 -4 -17 -2 -20 3 -4 6 -1 10 4 10 6 0 11 5 11 10 0 6 -8 10 -17 8 -12 -2
-28 13 -48 44 -18 28 -38 47 -49 47 -16 1 -17 3 -5 17 11 14 10 16 -6 14 -11
-1 -27 -2 -35 -1 -13 1 -13 2 0 11 9 6 10 10 3 10 -6 0 -14 -4 -18 -9 -6 -11
-66 7 -77 22 -4 7 -13 6 -24 -4 -15 -12 -18 -11 -32 9 -16 24 -37 31 -29 9 4
-10 -7 -14 -39 -16 -29 -1 -44 2 -44 10 0 8 -7 6 -18 -5 -18 -15 -21 -15 -45
4 -27 21 -43 25 -51 12 -3 -5 4 -8 16 -8 12 1 23 -5 25 -11 5 -14 -32 -17
-140 -13 -58 2 -147 -17 -147 -32 0 -4 -9 -8 -20 -8 -11 0 -20 -4 -20 -9 0
-11 45 -5 73 11 12 6 70 10 134 10 62 0 113 2 113 6 0 11 128 13 135 2 9 -15
25 -12 25 5 0 8 4 15 9 15 5 0 14 -7 21 -15 8 -9 29 -15 56 -15 23 0 46 -5 49
-11 4 -6 13 -8 21 -5 20 8 44 -4 44 -21 0 -8 4 -12 10 -8 12 7 79 -84 80 -107
0 -21 16 -24 22 -6 3 8 10 4 17 -11 8 -15 9 -21 2 -17 -23 14 -22 -25 1 -91
12 -38 28 -71 35 -75 7 -5 10 -31 9 -67 -3 -64 6 -96 18 -64 4 10 9 54 12 98
2 44 11 98 19 120 8 22 14 56 15 75 0 20 5 41 11 47 16 16 17 111 2 118 -15 5
-18 51 -4 59 4 3 11 20 15 37 5 25 9 29 19 20 19 -15 24 -7 19 28 -4 26 -9 30
-40 33 l-36 3 27 29 c15 16 27 35 27 42 0 19 -7 18 -14 -2z"/>
<path d="M270 2693 c0 -21 3 -24 9 -14 5 8 7 20 4 28 -8 21 -13 15 -13 -14z"/>
<path d="M326 2704 c-8 -21 -8 -21 14 -27 16 -4 20 0 20 19 0 27 -24 33 -34 8z"/>
<path d="M677 2705 c-4 -8 -2 -17 3 -20 6 -4 10 3 10 14 0 25 -6 27 -13 6z"/>
<path d="M720 2708 c0 -9 -3 -25 -6 -35 -6 -17 -6 -17 11 -2 13 13 15 21 6 35
-9 17 -10 17 -11 2z"/>
<path d="M1207 2713 c-10 -9 -8 -33 2 -33 5 0 11 9 14 20 5 20 -3 26 -16 13z"/>
<path d="M1810 2710 c0 -5 5 -10 10 -10 6 0 10 5 10 10 0 6 -4 10 -10 10 -5 0
-10 -4 -10 -10z"/>
<path d="M1875 2710 c-4 -6 -11 -8 -16 -5 -5 4 -9 -1 -9 -9 0 -8 5 -18 10 -21
6 -3 10 -1 10 4 0 6 6 11 14 11 8 0 16 7 20 15 6 17 -19 21 -29 5z"/>
<path d="M560 2696 c0 -9 5 -16 10 -16 6 0 10 4 10 9 0 6 -4 13 -10 16 -5 3
-10 -1 -10 -9z"/>
<path d="M841 2694 c0 -11 3 -14 6 -6 3 7 2 16 -1 19 -3 4 -6 -2 -5 -13z"/>
<path d="M530 2690 c0 -5 5 -10 10 -10 6 0 10 5 10 10 0 6 -4 10 -10 10 -5 0
-10 -4 -10 -10z"/>
<path d="M1278 2693 c7 -3 16 -2 19 1 4 3 -2 6 -13 5 -11 0 -14 -3 -6 -6z"/>
<path d="M1680 2690 c0 -5 5 -10 10 -10 6 0 10 5 10 10 0 6 -4 10 -10 10 -5 0
-10 -4 -10 -10z"/>
<path d="M1965 2690 c-3 -5 -1 -10 6 -10 6 0 18 -8 25 -17 16 -21 18 -53 4
-53 -5 0 -10 -5 -10 -11 0 -8 4 -8 14 0 15 12 46 5 46 -11 0 -5 5 -6 10 -3 16
10 12 22 -10 28 -21 5 -27 31 -10 42 6 3 10 10 10 16 0 5 -4 9 -10 9 -5 0 -10
-7 -10 -15 0 -23 -16 -18 -28 10 -12 26 -26 32 -37 15z"/>
<path d="M2320 2690 c0 -5 5 -10 10 -10 6 0 10 5 10 10 0 6 -4 10 -10 10 -5 0
-10 -4 -10 -10z"/>
<path d="M203 2675 c0 -7 6 -11 14 -8 7 3 13 6 13 8 0 2 -6 5 -13 8 -8 3 -14
-1 -14 -8z"/>
<path d="M900 2680 c-13 -8 -12 -10 3 -10 9 0 17 5 17 10 0 12 -1 12 -20 0z"/>
<path d="M968 2683 c6 -2 18 -2 25 0 6 3 1 5 -13 5 -14 0 -19 -2 -12 -5z"/>
<path d="M1088 2683 c6 -2 18 -2 25 0 6 3 1 5 -13 5 -14 0 -19 -2 -12 -5z"/>
<path d="M130 2673 c1 -4 7 -19 16 -33 l14 -25 -2 29 c-2 16 -9 31 -15 34 -7
2 -13 0 -13 -5z"/>
<path d="M1806 2671 c-3 -4 3 -16 13 -25 17 -16 18 -15 14 9 -5 25 -17 32 -27
16z"/>
<path d="M1910 2664 c0 -8 5 -12 10 -9 6 3 10 10 10 16 0 5 -4 9 -10 9 -5 0
-10 -7 -10 -16z"/>
<path d="M1720 2660 c0 -5 5 -10 11 -10 5 0 7 5 4 10 -3 6 -8 10 -11 10 -2 0
-4 -4 -4 -10z"/>
<path d="M2095 2661 c-3 -6 -11 -9 -16 -6 -5 4 -9 0 -9 -8 0 -25 27 -28 34 -4
6 24 1 34 -9 18z"/>
<path d="M627 2652 c-15 -6 -13 -9 13 -19 28 -10 29 -10 20 8 -6 10 -12 19
-13 18 -1 0 -10 -4 -20 -7z"/>
<path d="M687 2653 c-4 -3 -7 -11 -7 -17 0 -6 5 -5 12 2 6 6 9 14 7 17 -3 3
-9 2 -12 -2z"/>
<path d="M770 2645 c0 -8 5 -15 10 -15 6 0 10 7 10 15 0 8 -4 15 -10 15 -5 0
-10 -7 -10 -15z"/>
<path d="M1950 2652 c0 -5 7 -15 15 -22 8 -7 15 -9 15 -6 0 4 -7 14 -15 22 -8
9 -15 11 -15 6z"/>
<path d="M385 2639 c-4 -6 -5 -13 -2 -16 7 -7 27 6 27 18 0 12 -17 12 -25 -2z"/>
<path d="M830 2640 c0 -5 5 -10 11 -10 5 0 7 5 4 10 -3 6 -8 10 -11 10 -2 0
-4 -4 -4 -10z"/>
<path d="M962 2630 c0 -14 2 -19 5 -12 2 6 2 18 0 25 -3 6 -5 1 -5 -13z"/>
<path d="M1041 2634 c0 -11 3 -14 6 -6 3 7 2 16 -1 19 -3 4 -6 -2 -5 -13z"/>
<path d="M260 2615 c-24 -26 -27 -67 -5 -59 16 6 40 -40 31 -60 -3 -8 -5 -7
-5 1 -1 16 -41 4 -41 -13 0 -7 5 -16 11 -20 8 -4 7 -9 -2 -15 -9 -6 -1 -9 24
-9 41 0 49 16 15 30 -13 5 -18 9 -11 9 20 1 36 40 24 55 -6 8 -9 20 -5 29 3
10 -1 17 -13 19 -16 3 -15 6 6 17 21 12 26 11 36 -3 15 -20 35 -21 35 -1 0 8
-9 15 -20 15 -11 0 -20 6 -20 14 0 21 -37 15 -60 -9z"/>
<path d="M995 2630 c3 -5 8 -10 11 -10 2 0 4 5 4 10 0 6 -5 10 -11 10 -5 0 -7
-4 -4 -10z"/>
<path d="M1690 2625 c0 -8 2 -15 4 -15 2 0 6 7 10 15 3 8 1 15 -4 15 -6 0 -10
-7 -10 -15z"/>
<path d="M1746 2631 c-14 -6 -16 -10 -7 -15 7 -5 10 -15 7 -23 -3 -8 -1 -11 4
-8 6 3 10 15 10 25 0 10 6 21 13 23 6 3 8 5 2 6 -5 0 -19 -4 -29 -8z"/>
<path d="M1912 2610 c0 -19 2 -27 5 -17 2 9 2 25 0 35 -3 9 -5 1 -5 -18z"/>
<path d="M545 2610 c-3 -5 3 -10 15 -10 12 0 18 5 15 10 -3 6 -10 10 -15 10
-5 0 -12 -4 -15 -10z"/>
<path d="M890 2609 c0 -5 9 -9 20 -9 11 0 20 4 20 8 0 4 -9 8 -20 9 -11 1 -20
-2 -20 -8z"/>
<path d="M1508 2603 c7 -3 16 -2 19 1 4 3 -2 6 -13 5 -11 0 -14 -3 -6 -6z"/>
<path d="M2107 2603 c-12 -11 -8 -23 8 -23 8 0 15 7 15 15 0 16 -12 20 -23 8z"/>
<path d="M1708 2593 c7 -3 16 -2 19 1 4 3 -2 6 -13 5 -11 0 -14 -3 -6 -6z"/>
<path d="M1780 2585 c15 -18 36 -19 46 -3 5 8 2 9 -9 5 -9 -3 -19 -2 -22 3 -4
6 -11 10 -17 10 -7 0 -6 -6 2 -15z"/>
<path d="M1860 2586 c0 -9 5 -16 10 -16 6 0 10 4 10 9 0 6 -4 13 -10 16 -5 3
-10 -1 -10 -9z"/>
<path d="M96 2582 c-3 -5 1 -9 9 -9 8 0 15 4 15 9 0 4 -4 8 -9 8 -6 0 -12 -4
-15 -8z"/>
<path d="M410 2580 c0 -5 5 -10 10 -10 6 0 10 5 10 10 0 6 -4 10 -10 10 -5 0
-10 -4 -10 -10z"/>
<path d="M620 2581 c0 -5 7 -11 15 -15 9 -3 15 0 15 9 0 8 -7 15 -15 15 -8 0
-15 -4 -15 -9z"/>
<path d="M975 2580 c3 -5 8 -10 11 -10 2 0 4 5 4 10 0 6 -5 10 -11 10 -5 0 -7
-4 -4 -10z"/>
<path d="M1985 2570 c3 -5 14 -10 23 -10 15 0 15 2 2 10 -20 13 -33 13 -25 0z"/>
<path d="M368 2563 c6 -2 18 -2 25 0 6 3 1 5 -13 5 -14 0 -19 -2 -12 -5z"/>
<path d="M458 2563 c7 -3 16 -2 19 1 4 3 -2 6 -13 5 -11 0 -14 -3 -6 -6z"/>
<path d="M497 2523 c-16 -18 -26 -33 -22 -33 4 0 16 11 26 25 11 13 26 22 33
19 8 -3 17 1 22 8 4 7 4 10 -1 6 -4 -4 -13 -4 -19 1 -7 5 -22 -5 -39 -26z"/>
<path d="M1455 2550 c-18 -8 -17 -9 8 -9 15 -1 27 4 27 9 0 12 -8 12 -35 0z"/>
<path d="M1920 2546 c41 -17 68 -20 55 -7 -6 5 -28 12 -50 15 l-40 6 35 -14z"/>
<path d="M2040 2547 c0 -7 7 -21 15 -31 14 -19 15 -19 15 6 0 14 -7 28 -15 32
-8 3 -15 0 -15 -7z"/>
<path d="M210 2541 c0 -6 5 -13 10 -16 6 -3 10 1 10 9 0 9 -4 16 -10 16 -5 0
-10 -4 -10 -9z"/>
<path d="M1835 2541 c-3 -5 -1 -12 5 -16 5 -3 10 1 10 9 0 18 -6 21 -15 7z"/>
<path d="M365 2510 c-38 -19 -39 -19 -12 -20 16 0 35 7 44 15 8 8 19 13 24 10
5 -4 9 -1 9 4 0 16 -20 13 -65 -9z"/>
<path d="M1986 2505 c4 -8 8 -15 10 -15 2 0 4 7 4 15 0 8 -4 15 -10 15 -5 0
-7 -7 -4 -15z"/>
<path d="M2007 2469 c-6 -21 11 -59 25 -59 15 0 8 31 -7 36 -11 5 -13 10 -5
19 7 8 7 16 2 19 -6 3 -12 -4 -15 -15z"/>
<path d="M2045 2480 c-3 -5 1 -10 9 -10 9 0 16 5 16 10 0 6 -4 10 -9 10 -6 0
-13 -4 -16 -10z"/>
<path d="M412 2455 c0 -16 2 -22 5 -12 2 9 2 23 0 30 -3 6 -5 -1 -5 -18z"/>
<path d="M578 2473 c7 -3 16 -2 19 1 4 3 -2 6 -13 5 -11 0 -14 -3 -6 -6z"/>
<path d="M1170 2460 c0 -5 11 -10 25 -10 14 0 25 5 25 10 0 6 -11 10 -25 10
-14 0 -25 -4 -25 -10z"/>
<path d="M210 2429 c0 -11 5 -17 10 -14 6 3 10 13 10 21 0 8 -4 14 -10 14 -5
0 -10 -9 -10 -21z"/>
<path d="M1070 2430 c0 -5 10 -10 23 -10 18 0 19 2 7 10 -19 13 -30 13 -30 0z"/>
<path d="M250 2407 c-32 -48 -32 -47 -2 -47 26 0 29 3 28 29 -2 40 -9 44 -26
18z"/>
<path d="M309 2418 c-6 -21 -5 -38 2 -38 5 0 9 9 9 20 0 16 -7 28 -11 18z"/>
<path d="M2080 2381 c0 -25 6 -27 13 -6 4 8 2 17 -3 20 -6 4 -10 -3 -10 -14z"/>
<path d="M535 2370 c3 -5 8 -10 11 -10 2 0 4 5 4 10 0 6 -5 10 -11 10 -5 0 -7
-4 -4 -10z"/>
<path d="M865 2356 c-45 -27 -56 -46 -26 -46 12 0 21 6 21 15 0 8 8 15 18 15
21 1 54 25 45 33 -9 10 -13 8 -58 -17z"/>
<path d="M1155 2370 c-3 -5 -1 -10 4 -10 6 0 11 5 11 10 0 6 -2 10 -4 10 -3 0
-8 -4 -11 -10z"/>
<path d="M1475 2370 c-3 -5 -1 -10 4 -10 6 0 11 5 11 10 0 6 -2 10 -4 10 -3 0
-8 -4 -11 -10z"/>
<path d="M1853 2363 c9 -2 23 -2 30 0 6 3 -1 5 -18 5 -16 0 -22 -2 -12 -5z"/>
<path d="M215 2341 c-7 -12 0 -110 9 -118 3 -3 19 -7 35 -7 22 -1 31 4 35 19
7 24 -1 32 -16 17 -17 -17 -44 -16 -30 1 7 8 7 18 2 27 -6 8 -10 27 -10 43 0
26 -13 36 -25 18z"/>
<path d="M300 2340 c0 -5 5 -10 11 -10 5 0 7 5 4 10 -3 6 -8 10 -11 10 -2 0
-4 -4 -4 -10z"/>
<path d="M1500 2319 c0 -5 5 -7 10 -4 6 3 10 8 10 11 0 2 -4 4 -10 4 -5 0 -10
-5 -10 -11z"/>
<path d="M306 2311 c-4 -7 -5 -15 -2 -18 9 -9 19 4 14 18 -4 11 -6 11 -12 0z"/>
<path d="M1390 2310 c0 -5 5 -10 11 -10 5 0 7 5 4 10 -3 6 -8 10 -11 10 -2 0
-4 -4 -4 -10z"/>
<path d="M1970 2308 c0 -9 5 -20 10 -23 13 -8 13 5 0 25 -8 13 -10 13 -10 -2z"/>
<path d="M265 2300 c-3 -5 -1 -10 4 -10 6 0 11 5 11 10 0 6 -2 10 -4 10 -3 0
-8 -4 -11 -10z"/>
<path d="M773 2295 c6 -17 37 -18 37 -1 0 9 -8 14 -20 13 -11 -1 -19 -6 -17
-12z"/>
<path d="M1470 2280 c0 -5 5 -10 10 -10 6 0 10 5 10 10 0 6 -4 10 -10 10 -5 0
-10 -4 -10 -10z"/>
<path d="M141 2264 c0 -11 3 -14 6 -6 3 7 2 16 -1 19 -3 4 -6 -2 -5 -13z"/>
<path d="M370 2260 c-13 -8 -12 -10 3 -10 9 0 17 5 17 10 0 12 -1 12 -20 0z"/>
<path d="M1576 2195 c-3 -8 -1 -15 4 -15 13 0 22 18 11 24 -5 3 -11 -1 -15 -9z"/>
<path d="M240 2156 c0 -24 -5 -46 -11 -48 -7 -2 2 -17 20 -33 17 -17 31 -36
31 -43 0 -7 11 -25 25 -40 17 -17 24 -35 22 -49 -3 -17 1 -23 13 -23 17 0 33
-25 45 -67 4 -13 11 -23 16 -23 5 0 19 -8 30 -19 15 -13 18 -25 13 -45 -4 -17
-2 -26 5 -26 18 0 71 -42 71 -57 0 -9 -6 -10 -26 -3 -35 14 -38 13 -50 -15
-10 -21 -9 -25 8 -31 11 -3 22 -3 25 0 4 3 1 6 -5 6 -7 0 -12 7 -12 15 0 12 5
13 24 4 15 -7 22 -17 19 -26 -4 -10 0 -13 13 -11 11 2 19 -3 19 -12 0 -9 18
-21 45 -29 92 -28 94 -31 101 -118 6 -83 21 -133 40 -133 6 0 8 7 5 16 -3 9
-6 27 -6 40 0 13 -5 23 -10 21 -6 -1 -12 24 -14 61 -3 47 -1 62 9 62 8 0 16
-10 18 -22 2 -13 3 -8 1 11 -4 39 -12 51 -23 32 -6 -9 -11 -10 -15 -2 -4 6
-33 23 -64 38 -69 32 -84 46 -87 81 -1 15 -5 35 -9 45 -3 9 -8 24 -11 32 -2 8
-11 12 -20 9 -8 -3 -15 -1 -15 5 0 6 6 11 13 11 7 1 5 6 -5 14 -10 7 -18 18
-18 23 0 5 -16 23 -35 39 -38 31 -44 44 -20 44 8 0 15 5 15 10 0 6 -12 10 -26
10 -23 0 -25 3 -20 25 3 14 8 37 11 53 4 22 2 20 -13 -10 -18 -40 -32 -50 -28
-20 2 9 -7 27 -19 39 -17 18 -21 33 -20 75 1 29 0 38 -2 21 -4 -33 -23 -47
-23 -18 0 8 -6 15 -14 15 -9 0 -12 7 -9 20 3 11 9 20 14 20 5 0 9 5 9 10 0 6
-6 9 -12 8 -8 -2 -14 9 -16 25 -5 44 -22 31 -22 -17z"/>
<path d="M112 2170 c0 -14 2 -19 5 -12 2 6 2 18 0 25 -3 6 -5 1 -5 -13z"/>
<path d="M680 2172 c0 -14 6 -22 16 -22 14 0 15 3 3 18 -7 9 -15 19 -16 21 -2
2 -3 -5 -3 -17z"/>
<path d="M2231 2154 c0 -11 3 -14 6 -6 3 7 2 16 -1 19 -3 4 -6 -2 -5 -13z"/>
<path d="M2190 2131 c0 -25 6 -27 13 -6 4 8 2 17 -3 20 -6 4 -10 -3 -10 -14z"/>
<path d="M890 2129 c0 -5 5 -7 10 -4 6 3 10 8 10 11 0 2 -4 4 -10 4 -5 0 -10
-5 -10 -11z"/>
<path d="M2031 2084 c0 -11 3 -14 6 -6 3 7 2 16 -1 19 -3 4 -6 -2 -5 -13z"/>
<path d="M2011 2054 c0 -11 3 -14 6 -6 3 7 2 16 -1 19 -3 4 -6 -2 -5 -13z"/>
<path d="M2040 2031 c0 -10 7 -21 15 -25 9 -3 15 0 15 9 0 8 -6 15 -12 15 -9
0 -8 4 2 10 13 8 12 10 -2 10 -11 0 -18 -8 -18 -19z"/>
<path d="M350 2029 c0 -5 5 -7 10 -4 6 3 10 8 10 11 0 2 -4 4 -10 4 -5 0 -10
-5 -10 -11z"/>
<path d="M695 2030 c4 -6 11 -8 16 -5 14 9 11 15 -7 15 -8 0 -12 -5 -9 -10z"/>
<path d="M737 2013 c-11 -10 -8 -43 3 -43 6 0 10 11 10 25 0 26 -2 29 -13 18z"/>
<path d="M1828 2013 c6 -2 18 -2 25 0 6 3 1 5 -13 5 -14 0 -19 -2 -12 -5z"/>
<path d="M826 1995 c-3 -8 -1 -15 4 -15 6 0 10 7 10 15 0 8 -2 15 -4 15 -2 0
-6 -7 -10 -15z"/>
<path d="M245 1990 c3 -5 8 -10 11 -10 2 0 4 5 4 10 0 6 -5 10 -11 10 -5 0 -7
-4 -4 -10z"/>
<path d="M210 1980 c0 -5 5 -10 10 -10 6 0 10 5 10 10 0 6 -4 10 -10 10 -5 0
-10 -4 -10 -10z"/>
<path d="M825 1957 c-4 -10 -5 -21 -1 -24 10 -10 18 4 13 24 -4 17 -4 17 -12
0z"/>
<path d="M675 1950 c-7 -12 27 -22 37 -12 6 6 1 12 -11 15 -12 3 -23 2 -26 -3z"/>
<path d="M210 1940 c0 -5 5 -10 10 -10 6 0 10 5 10 10 0 6 -4 10 -10 10 -5 0
-10 -4 -10 -10z"/>
<path d="M405 1939 c-4 -6 -5 -12 -2 -15 2 -3 7 2 10 11 7 17 1 20 -8 4z"/>
<path d="M1980 1940 c0 -5 -6 -7 -14 -4 -8 3 -20 -1 -26 -8 -8 -8 -28 -12 -52
-9 -38 3 -39 2 -29 -18 14 -24 44 -29 34 -5 -4 12 0 14 20 9 14 -4 33 -2 43 3
12 7 25 6 41 -1 31 -14 29 -31 -3 -23 -19 5 -24 3 -18 -5 5 -9 -1 -10 -23 -6
-18 3 -38 1 -49 -7 -26 -17 -102 -44 -139 -49 -16 -3 -29 -9 -28 -14 5 -24
-198 -68 -269 -59 -29 4 -77 7 -107 7 -34 -1 -58 3 -62 11 -6 10 -11 10 -20 1
-9 -9 -16 -9 -30 0 -14 8 -26 8 -51 -1 -19 -6 -43 -10 -55 -8 -11 3 -40 0 -64
-6 -24 -5 -74 -10 -111 -9 -61 0 -69 -3 -88 -26 -23 -30 -108 -49 -141 -33
-10 6 -28 15 -39 20 -25 13 -80 13 -100 0 -22 -14 -5 -23 45 -23 24 0 42 -3
40 -7 -4 -6 21 -10 78 -11 29 -1 169 30 182 41 6 4 57 16 115 25 86 15 127 16
225 9 204 -15 312 -11 381 13 63 23 120 46 164 68 14 7 50 18 80 25 30 7 66
17 79 22 14 5 88 12 165 15 l141 6 -85 27 c-85 27 -116 29 -84 6 15 -11 11
-14 -32 -19 -52 -5 -84 5 -84 27 0 9 7 12 20 9 11 -3 20 -9 20 -14 0 -5 7 -9
15 -9 21 0 19 17 -4 30 -25 13 -81 13 -81 0z m-1040 -226 c0 -2 -7 -4 -15 -4
-8 0 -15 4 -15 10 0 5 7 7 15 4 8 -4 15 -8 15 -10z"/>
<path d="M640 1914 c0 -14 4 -23 10 -19 6 3 10 15 10 26 0 10 -4 19 -10 19 -5
0 -10 -12 -10 -26z"/>
<path d="M721 1914 c0 -11 3 -14 6 -6 3 7 2 16 -1 19 -3 4 -6 -2 -5 -13z"/>
<path d="M945 1920 c3 -5 8 -10 11 -10 2 0 4 5 4 10 0 6 -5 10 -11 10 -5 0 -7
-4 -4 -10z"/>
<path d="M1668 1923 c6 -2 18 -2 25 0 6 3 1 5 -13 5 -14 0 -19 -2 -12 -5z"/>
<path d="M692 1900 c0 -14 2 -19 5 -12 2 6 2 18 0 25 -3 6 -5 1 -5 -13z"/>
<path d="M2345 1910 c3 -5 10 -10 16 -10 5 0 9 5 9 10 0 6 -7 10 -16 10 -8 0
-12 -4 -9 -10z"/>
<path d="M1790 1900 c0 -13 18 -22 24 -11 3 5 -1 11 -9 15 -8 3 -15 1 -15 -4z"/>
<path d="M1822 1869 c-17 -27 -15 -29 13 -16 28 13 31 22 12 30 -7 3 -19 -3
-25 -14z"/>
<path d="M430 1870 c0 -5 5 -10 10 -10 6 0 10 5 10 10 0 6 -4 10 -10 10 -5 0
-10 -4 -10 -10z"/>
<path d="M1758 1872 c-10 -2 -18 -10 -18 -18 0 -15 6 -16 32 -6 22 9 9 29 -14
24z"/>
<path d="M681 1848 c0 -14 -4 -28 -8 -31 -5 -2 -2 -2 5 -1 6 2 12 -3 12 -11 0
-8 5 -15 12 -15 6 0 8 3 5 6 -3 4 -2 15 4 25 7 15 6 17 -5 13 -9 -4 -16 2 -19
18 -4 21 -4 21 -6 -4z"/>
<path d="M2307 1860 c-16 -5 -84 -9 -151 -9 -123 0 -230 -20 -311 -56 -170
-77 -218 -92 -315 -100 -78 -6 -104 -14 -54 -16 37 -2 48 -2 112 5 58 5 65 1
25 -16 -22 -9 -24 -12 -10 -15 9 -3 17 -11 17 -19 0 -8 5 -14 11 -14 5 0 8 4
5 9 -9 14 4 41 19 41 15 0 25 -33 18 -60 -5 -20 -11 -21 -63 -2 -8 3 9 -19 37
-49 29 -30 76 -87 104 -127 28 -40 73 -96 100 -124 27 -28 54 -63 61 -79 7
-16 16 -29 19 -29 4 0 5 -19 2 -42 -5 -40 -4 -41 9 -23 8 11 18 36 21 57 4 29
2 37 -12 41 -10 2 -25 20 -34 40 -10 19 -33 45 -52 57 -19 12 -45 36 -57 53
l-22 32 25 -22 c106 -96 301 -82 409 29 56 57 84 123 100 236 8 53 19 87 32
101 14 16 18 32 15 64 -4 45 -13 51 -60 37z m-23 -35 c-5 -12 -10 -12 -27 -3
-33 16 -33 18 1 18 24 0 30 -4 26 -15z m-154 -10 c0 -8 4 -15 10 -15 5 0 7 7
4 15 -9 22 38 19 87 -5 52 -27 62 -55 57 -160 -9 -180 -110 -287 -280 -298
-65 -4 -84 -1 -122 18 -89 43 -150 127 -165 227 -5 40 -7 42 -19 23 -8 -14 -9
-20 -1 -20 6 0 9 -7 5 -15 -3 -8 -2 -15 2 -15 4 0 8 -10 9 -22 l2 -21 -22 21
c-19 20 -20 25 -9 64 11 40 10 44 -13 65 -20 17 -21 22 -9 27 9 3 25 6 35 6
11 0 17 5 14 10 -4 6 6 10 23 10 16 0 35 7 42 15 7 8 21 15 31 15 11 0 19 3
19 8 0 11 80 33 92 26 7 -4 8 -2 4 4 -5 8 3 12 26 12 18 0 39 4 46 9 7 4 40 9
73 10 47 1 59 -1 59 -14z m204 0 c11 -8 15 -15 10 -15 -6 0 -11 -6 -12 -12 0
-7 -5 -26 -10 -43 l-9 -30 -7 37 c-3 20 -12 38 -19 41 -9 3 -9 8 2 20 16 20
20 21 45 2z"/>
<path d="M2090 1800 c0 -5 4 -10 9 -10 6 0 13 5 16 10 3 6 -1 10 -9 10 -9 0
-16 -4 -16 -10z"/>
<path d="M1942 1783 c-18 -2 -30 -9 -27 -14 4 -5 -2 -9 -12 -9 -10 0 -28 -7
-40 -15 -12 -8 -29 -12 -38 -9 -11 5 -18 0 -22 -15 -3 -11 -10 -21 -16 -21
-10 0 -36 -30 -37 -42 0 -5 5 -8 10 -8 6 0 10 7 10 15 0 12 9 14 41 10 29 -4
45 -1 53 8 14 18 73 30 80 16 2 -5 3 -4 2 3 -4 19 -64 22 -91 4 -33 -22 -45
-20 -45 5 0 15 4 19 16 15 8 -3 36 3 61 15 25 11 69 23 97 26 42 4 55 1 73
-16 25 -24 38 -15 18 13 -15 19 -72 28 -133 19z"/>
<path d="M2140 1775 c0 -8 5 -15 10 -15 6 0 10 7 10 15 0 8 -4 15 -10 15 -5 0
-10 -7 -10 -15z"/>
<path d="M2190 1781 c0 -5 12 -11 28 -13 22 -2 27 -7 25 -28 -3 -22 -2 -23 8
-6 9 14 8 21 -2 31 -19 18 -59 29 -59 16z"/>
<path d="M1990 1743 c-45 -13 -46 -14 -26 -28 11 -8 29 -12 43 -9 26 7 29 -3
10 -31 -14 -18 -43 -13 -32 6 4 5 -1 9 -10 9 -13 0 -16 -6 -11 -25 6 -22 3
-25 -19 -25 -15 0 -25 -6 -25 -14 0 -11 6 -12 33 -2 46 16 87 46 87 63 0 12 3
13 14 4 17 -14 60 -5 78 17 11 13 10 15 -5 9 -10 -4 -16 -3 -12 2 3 5 1 12 -4
15 -5 3 -11 -1 -15 -9 -7 -19 -30 -19 -45 -1 -14 16 -40 24 -61 19z"/>
<path d="M1730 1709 c0 -5 5 -7 10 -4 6 3 10 8 10 11 0 2 -4 4 -10 4 -5 0 -10
-5 -10 -11z"/>
<path d="M1707 1669 c4 -16 8 -17 14 -7 13 19 11 28 -5 28 -9 0 -12 -7 -9 -21z"/>
<path d="M1900 1665 c0 -10 7 -15 18 -13 21 4 19 22 -2 26 -10 2 -16 -3 -16
-13z"/>
<path d="M2242 1660 c0 -14 2 -19 5 -12 2 6 2 18 0 25 -3 6 -5 1 -5 -13z"/>
<path d="M2090 1645 c-8 -9 -8 -15 -2 -15 12 0 26 19 19 26 -2 2 -10 -2 -17
-11z"/>
<path d="M2120 1645 c0 -8 4 -15 10 -15 5 0 7 7 4 15 -4 8 -8 15 -10 15 -2 0
-4 -7 -4 -15z"/>
<path d="M1768 1633 c-28 -14 -36 -37 -18 -48 6 -3 10 0 10 8 0 22 27 28 94
21 71 -7 69 10 -2 20 -24 3 -46 7 -50 9 -4 2 -19 -3 -34 -10z"/>
<path d="M2006 1625 c-11 -8 -28 -15 -38 -15 -10 0 -18 -4 -18 -10 0 -5 6 -10
13 -10 21 0 77 30 77 41 0 13 -12 11 -34 -6z"/>
<path d="M2055 1620 c-3 -5 -1 -10 4 -10 6 0 11 5 11 10 0 6 -2 10 -4 10 -3 0
-8 -4 -11 -10z"/>
<path d="M2155 1600 c3 -5 8 -10 11 -10 2 0 4 5 4 10 0 6 -5 10 -11 10 -5 0
-7 -4 -4 -10z"/>
<path d="M1814 1581 c-3 -3 -13 -6 -22 -6 -9 0 -18 -9 -20 -20 -4 -15 -1 -17
9 -8 8 6 25 13 38 15 27 3 41 25 16 25 -8 0 -18 -3 -21 -6z"/>
<path d="M1920 1570 c0 -5 5 -10 10 -10 6 0 10 5 10 10 0 6 -4 10 -10 10 -5 0
-10 -4 -10 -10z"/>
<path d="M1964 1545 c-16 -12 -17 -14 -3 -15 9 0 19 7 23 15 7 19 5 19 -20 0z"/>
<path d="M1818 1513 c6 -2 12 -11 12 -19 0 -8 7 -14 15 -14 8 0 15 4 15 10 0
10 -33 31 -47 29 -4 0 -2 -3 5 -6z"/>
<path d="M2120 1516 c0 -3 10 -14 22 -25 20 -19 20 -22 5 -39 -18 -20 -22 -32
-9 -32 4 0 14 12 23 28 15 26 14 28 -13 50 -15 13 -28 21 -28 18z"/>
<path d="M1791 1494 c0 -11 3 -14 6 -6 3 7 2 16 -1 19 -3 4 -6 -2 -5 -13z"/>
<path d="M2170 1501 c0 -5 7 -11 14 -14 10 -4 13 -1 9 9 -6 15 -23 19 -23 5z"/>
<path d="M1896 1486 c3 -9 11 -16 16 -16 13 0 5 23 -10 28 -7 2 -10 -2 -6 -12z"/>
<path d="M1905 1420 c3 -5 8 -10 11 -10 2 0 4 5 4 10 0 6 -5 10 -11 10 -5 0
-7 -4 -4 -10z"/>
<path d="M1870 1401 c0 -9 30 -24 36 -18 2 1 -6 8 -16 15 -11 7 -20 8 -20 3z"/>
<path d="M2420 1845 c0 -8 4 -15 10 -15 5 0 7 7 4 15 -4 8 -8 15 -10 15 -2 0
-4 -7 -4 -15z"/>
<path d="M618 1833 c7 -3 16 -2 19 1 4 3 -2 6 -13 5 -11 0 -14 -3 -6 -6z"/>
<path d="M520 1810 c-8 -16 -8 -18 4 -14 17 6 30 34 16 34 -5 0 -14 -9 -20
-20z"/>
<path d="M563 1803 c1 -19 -2 -27 -11 -25 -8 1 -12 -4 -10 -14 5 -30 26 -27
43 6 13 25 14 35 4 46 -18 22 -28 17 -26 -13z"/>
<path d="M1060 1820 c0 -5 10 -10 23 -10 18 0 19 2 7 10 -19 13 -30 13 -30 0z"/>
<path d="M1155 1820 c3 -5 8 -10 11 -10 2 0 4 5 4 10 0 6 -5 10 -11 10 -5 0
-7 -4 -4 -10z"/>
<path d="M1315 1810 c-3 -5 -2 -10 4 -10 5 0 13 5 16 10 3 6 2 10 -4 10 -5 0
-13 -4 -16 -10z"/>
<path d="M620 1795 c0 -8 5 -15 10 -15 6 0 10 7 10 15 0 8 -4 15 -10 15 -5 0
-10 -7 -10 -15z"/>
<path d="M990 1800 c0 -5 7 -10 15 -10 8 0 15 -4 15 -10 0 -15 26 -12 40 5 9
10 9 15 1 15 -6 0 -11 -5 -11 -11 0 -7 -10 -5 -25 5 -28 19 -35 20 -35 6z"/>
<path d="M1206 1798 c3 -5 10 -6 15 -3 13 9 11 12 -6 12 -8 0 -12 -4 -9 -9z"/>
<path d="M831 1771 c-1 -27 2 -32 11 -23 8 8 8 17 0 34 -10 22 -11 21 -11 -11z"/>
<path d="M890 1789 c0 -5 5 -7 10 -4 6 3 10 8 10 11 0 2 -4 4 -10 4 -5 0 -10
-5 -10 -11z"/>
<path d="M1115 1790 c4 -6 11 -8 16 -5 14 9 11 15 -7 15 -8 0 -12 -5 -9 -10z"/>
<path d="M1170 1789 c0 -5 5 -7 10 -4 6 3 10 8 10 11 0 2 -4 4 -10 4 -5 0 -10
-5 -10 -11z"/>
<path d="M1370 1791 c0 -11 26 -22 34 -14 12 12 5 23 -14 23 -11 0 -20 -4 -20
-9z"/>
<path d="M1668 1793 c7 -3 16 -2 19 1 4 3 -2 6 -13 5 -11 0 -14 -3 -6 -6z"/>
<path d="M2390 1788 c0 -9 5 -20 10 -23 13 -8 13 5 0 25 -8 13 -10 13 -10 -2z"/>
<path d="M951 1776 c-10 -11 -9 -14 1 -12 14 2 23 15 15 22 -2 2 -10 -2 -16
-10z"/>
<path d="M320 1763 c0 -13 5 -23 10 -23 13 0 13 11 0 30 -8 12 -10 11 -10 -7z"/>
<path d="M1475 1770 c-3 -5 -2 -10 4 -10 5 0 13 5 16 10 3 6 2 10 -4 10 -5 0
-13 -4 -16 -10z"/>
<path d="M741 1754 c0 -11 3 -14 6 -6 3 7 2 16 -1 19 -3 4 -6 -2 -5 -13z"/>
<path d="M610 1741 c0 -6 5 -13 10 -16 6 -3 10 1 10 9 0 9 -4 16 -10 16 -5 0
-10 -4 -10 -9z"/>
<path d="M570 1720 c0 -5 -7 -7 -15 -4 -16 7 -21 -11 -5 -21 13 -8 52 14 45
26 -8 12 -25 12 -25 -1z"/>
<path d="M780 1720 c-9 -6 -10 -10 -3 -10 6 0 15 5 18 10 8 12 4 12 -15 0z"/>
<path d="M1147 1713 c-2 -1 -42 -8 -88 -14 -46 -6 -109 -19 -139 -28 -30 -10
-85 -24 -122 -32 -67 -12 -67 -13 -64 -43 2 -17 4 -38 5 -47 1 -10 13 -19 31
-22 30 -7 59 -50 74 -111 8 -31 61 -118 94 -152 11 -12 42 -32 69 -45 41 -21
61 -24 140 -22 80 2 102 7 162 34 39 17 72 38 75 45 3 8 4 14 3 14 -1 0 -38
-18 -82 -40 -74 -37 -86 -40 -162 -40 -45 0 -84 4 -87 9 -3 4 -18 11 -33 14
-16 3 -42 19 -59 34 -33 29 -94 121 -94 142 0 7 -9 30 -20 53 -11 22 -18 44
-15 47 2 4 -8 12 -23 19 -15 7 -36 19 -47 28 -17 13 -18 16 -5 24 8 5 11 10 6
10 -20 0 19 30 40 30 12 0 26 5 29 10 5 8 11 7 21 -1 9 -8 14 -8 14 -1 0 6 17
14 38 18 20 4 50 13 66 21 18 9 41 12 62 8 22 -4 34 -2 34 5 0 6 5 8 11 4 15
-9 96 -7 112 3 19 12 37 12 37 1 0 -6 8 -7 18 -3 30 12 46 13 65 3 11 -6 41
-6 70 -2 l52 7 -85 13 c-76 12 -194 16 -203 7z"/>
<path d="M1398 1673 c6 -2 18 -2 25 0 6 3 1 5 -13 5 -14 0 -19 -2 -12 -5z"/>
<path d="M606 1650 c6 -6 18 -12 25 -13 8 -2 19 -6 26 -10 6 -4 14 -3 18 3 3
5 -7 12 -22 16 -15 3 -35 8 -43 10 -11 4 -12 2 -4 -6z"/>
<path d="M1123 1644 c-64 -14 -142 -48 -155 -68 -17 -26 -5 -25 35 2 23 16 75
38 115 48 39 10 72 22 72 26 0 4 -1 8 -2 7 -2 -1 -31 -7 -65 -15z"/>
<path d="M1230 1649 l-35 -6 42 -2 c23 0 43 -6 45 -13 3 -7 7 -8 11 -2 10 17
-26 30 -63 23z"/>
<path d="M361 1634 c0 -11 3 -14 6 -6 3 7 2 16 -1 19 -3 4 -6 -2 -5 -13z"/>
<path d="M1408 1643 c18 -2 30 -9 27 -14 -7 -11 23 -25 32 -15 12 11 -32 35
-62 34 l-30 -1 33 -4z"/>
<path d="M1516 1635 c-3 -8 0 -15 6 -15 21 0 -4 -117 -48 -224 -5 -13 -4 -17
4 -12 14 9 46 78 66 143 19 62 20 80 4 87 -10 5 -10 7 0 12 6 3 10 10 6 15 -8
14 -31 11 -38 -6z"/>
<path d="M585 1630 c3 -5 8 -10 11 -10 2 0 4 5 4 10 0 6 -5 10 -11 10 -5 0 -7
-4 -4 -10z"/>
<path d="M905 1630 c-3 -5 -2 -10 4 -10 5 0 13 5 16 10 3 6 2 10 -4 10 -5 0
-13 -4 -16 -10z"/>
<path d="M1578 1633 c7 -3 16 -2 19 1 4 3 -2 6 -13 5 -11 0 -14 -3 -6 -6z"/>
<path d="M687 1610 c-3 -11 -1 -20 4 -20 5 0 9 9 9 20 0 11 -2 20 -4 20 -2 0
-6 -9 -9 -20z"/>
<path d="M424 1598 c3 -12 10 -58 16 -101 20 -140 82 -287 143 -339 31 -27 60
-41 107 -52 53 -13 63 -30 65 -113 3 -94 3 -92 15 -73 5 8 19 15 31 15 28 0
48 30 32 46 -9 9 -11 7 -6 -10 6 -25 -4 -26 -32 -5 -16 12 -17 16 -6 23 9 6
10 10 2 16 -7 3 -9 15 -6 26 4 11 2 19 -5 19 -7 0 -10 6 -7 13 3 7 -6 22 -19
33 -14 10 -31 25 -39 32 -8 7 -20 10 -26 7 -11 -8 -69 13 -69 25 0 4 -11 12
-25 18 -14 6 -25 19 -25 28 0 13 3 14 15 4 12 -10 15 -10 15 0 0 7 -18 30 -40
50 -22 20 -40 42 -40 48 0 7 -4 12 -9 12 -4 0 -16 26 -26 57 -16 51 -17 67 -6
142 6 46 11 85 9 86 -2 1 -18 6 -36 10 -31 6 -32 5 -28 -17z m49 -18 c-3 -11
-7 -20 -9 -20 -2 0 -4 9 -4 20 0 11 4 20 9 20 5 0 7 -9 4 -20z"/>
<path d="M950 1610 c-13 -8 -12 -10 3 -10 9 0 17 5 17 10 0 12 -1 12 -20 0z"/>
<path d="M1098 1588 c-13 -9 -35 -20 -50 -23 -15 -4 -30 -15 -33 -25 -4 -11
-12 -17 -21 -13 -8 3 -14 -1 -14 -11 0 -9 -8 -16 -17 -17 -10 0 -13 -3 -7 -5
6 -2 26 2 45 10 19 9 30 15 25 16 -11 0 14 30 26 30 5 0 4 -9 -2 -19 -15 -30
-12 -38 6 -13 8 12 12 27 9 32 -4 6 8 10 29 10 28 0 34 3 29 16 -5 13 1 15 28
14 55 -3 79 -1 79 9 0 16 -108 7 -132 -11z"/>
<path d="M840 1580 c0 -5 7 -7 15 -4 8 4 15 8 15 10 0 2 -7 4 -15 4 -8 0 -15
-4 -15 -10z"/>
<path d="M1460 1581 c0 -10 19 -25 25 -20 1 2 -3 10 -11 17 -8 7 -14 8 -14 3z"/>
<path d="M520 1554 c-17 -44 -11 -54 19 -35 12 8 12 12 2 25 -7 8 -10 20 -6
26 3 5 4 10 0 10 -3 0 -10 -12 -15 -26z"/>
<path d="M780 1576 c0 -2 16 -13 35 -25 19 -11 35 -17 35 -13 0 5 -16 16 -35
25 -19 9 -35 15 -35 13z"/>
<path d="M1170 1550 c0 -11 4 -20 9 -20 11 0 22 26 14 34 -12 12 -23 5 -23
-14z"/>
<path d="M1258 1563 c7 -3 16 -2 19 1 4 3 -2 6 -13 5 -11 0 -14 -3 -6 -6z"/>
<path d="M578 1550 c29 -12 28 -44 -3 -58 -14 -6 -25 -16 -25 -21 0 -15 18
-23 25 -11 9 15 45 12 45 -4 0 -8 -9 -18 -20 -21 -11 -4 -18 -11 -15 -16 8
-13 35 -11 35 2 0 6 7 17 15 25 16 17 21 59 6 49 -6 -3 -15 3 -20 14 -8 14 -8
21 2 24 18 8 -13 27 -43 26 -25 0 -25 0 -2 -9z"/>
<path d="M1200 1520 c0 -5 7 -10 15 -10 8 0 15 5 15 10 0 6 -7 10 -15 10 -8 0
-15 -4 -15 -10z"/>
<path d="M2322 1489 c-15 -27 -17 -37 -7 -29 8 7 15 18 15 25 0 8 5 15 12 17
6 2 9 10 7 17 -3 7 -15 -6 -27 -30z"/>
<path d="M1073 1502 c1 -17 14 -18 107 -12 28 1 -12 17 -62 23 -40 6 -47 4
-45 -11z"/>
<path d="M1468 1504 c-5 -4 -8 -16 -8 -28 0 -14 3 -17 11 -9 6 6 9 19 7 28 -1
9 -6 13 -10 9z"/>
<path d="M495 1454 c-7 -39 -3 -50 15 -39 6 4 8 15 5 26 -5 15 -3 17 11 12 14
-5 15 -3 5 15 -17 32 -28 27 -36 -14z"/>
<path d="M900 1473 c0 -12 5 -25 10 -28 13 -8 13 15 0 35 -8 12 -10 11 -10 -7z"/>
<path d="M1188 1483 c-32 -8 -19 -19 18 -15 25 3 32 7 23 13 -8 5 -16 8 -19 8
-3 -1 -13 -3 -22 -6z"/>
<path d="M1570 1455 c-10 -12 -10 -15 2 -15 8 0 15 7 15 15 0 8 -1 15 -2 15
-2 0 -8 -7 -15 -15z"/>
<path d="M1615 1460 c-3 -5 -1 -10 4 -10 6 0 11 5 11 10 0 6 -2 10 -4 10 -3 0
-8 -4 -11 -10z"/>
<path d="M1270 1452 c0 -7 -11 -12 -24 -12 -28 0 -43 -15 -23 -23 16 -6 65 29
54 39 -4 4 -7 2 -7 -4z"/>
<path d="M801 1434 c0 -11 3 -14 6 -6 3 7 2 16 -1 19 -3 4 -6 -2 -5 -13z"/>
<path d="M1440 1421 c0 -25 6 -27 13 -6 4 8 2 17 -3 20 -6 4 -10 -3 -10 -14z"/>
<path d="M636 1400 c-10 -54 -8 -71 12 -68 12 2 16 -3 14 -18 -2 -12 4 -24 13
-27 19 -8 19 -5 0 40 -8 19 -15 45 -15 57 0 39 -17 50 -24 16z"/>
<path d="M1600 1411 c0 -6 4 -11 10 -11 5 0 7 -7 4 -15 -4 -8 -1 -15 5 -15 16
0 13 25 -4 40 -10 9 -15 9 -15 1z"/>
<path d="M1645 1410 c-3 -5 1 -10 10 -10 9 0 13 5 10 10 -3 6 -8 10 -10 10 -2
0 -7 -4 -10 -10z"/>
<path d="M560 1386 c-6 -38 -30 -47 -30 -12 0 16 -6 26 -15 26 -19 0 -19 -4 1
-46 27 -57 59 -40 52 28 l-4 33 -4 -29z"/>
<path d="M1078 1403 c7 -3 16 -2 19 1 4 3 -2 6 -13 5 -11 0 -14 -3 -6 -6z"/>
<path d="M1158 1403 c6 -2 18 -2 25 0 6 3 1 5 -13 5 -14 0 -19 -2 -12 -5z"/>
<path d="M583 1349 c-12 -50 -12 -51 18 -80 31 -30 41 -33 74 -20 17 7 16 9
-13 15 -44 10 -66 46 -59 96 7 57 -6 50 -20 -11z"/>
<path d="M923 1381 c0 -11 5 -18 9 -15 4 3 5 11 1 19 -7 21 -12 19 -10 -4z"/>
<path d="M2200 1373 c-1 -5 -2 -55 -5 -112 -2 -57 -7 -107 -12 -110 -5 -3 -15
-27 -23 -54 -7 -26 -17 -50 -21 -53 -5 -3 -3 -14 4 -25 10 -16 9 -21 -3 -29
-18 -11 -13 -17 25 -25 27 -6 28 -5 13 8 -21 16 -24 37 -6 37 9 0 9 3 0 12 -7
7 -12 23 -12 38 0 17 3 21 8 12 5 -7 16 -10 26 -6 15 6 16 1 12 -35 -3 -25 -1
-41 6 -41 7 0 7 -5 -1 -14 -10 -11 -7 -14 14 -12 19 1 25 7 25 23 0 12 -4 25
-10 28 -5 3 -10 1 -10 -6 0 -7 -3 -9 -7 -6 -3 4 3 16 14 27 18 16 20 24 11 57
-18 72 -27 132 -29 212 -2 45 -7 81 -11 81 -4 0 -8 -3 -8 -7z m10 -264 c0 -17
-5 -29 -11 -27 -6 2 -10 7 -10 11 1 4 1 16 1 27 0 11 5 20 10 20 6 0 10 -14
10 -31z m30 -29 c0 -5 -5 -10 -11 -10 -5 0 -7 5 -4 10 3 6 8 10 11 10 2 0 4
-4 4 -10z"/>
<path d="M1446 1354 c-8 -21 -8 -21 9 -21 8 0 15 9 15 19 0 22 -16 24 -24 2z"/>
<path d="M1635 1341 c-3 -5 -1 -12 5 -16 5 -3 10 1 10 9 0 18 -6 21 -15 7z"/>
<path d="M830 1330 c0 -5 5 -10 10 -10 6 0 10 5 10 10 0 6 -4 10 -10 10 -5 0
-10 -4 -10 -10z"/>
<path d="M1580 1330 c-8 -5 -10 -10 -5 -10 6 0 17 5 25 10 8 5 11 10 5 10 -5
0 -17 -5 -25 -10z"/>
<path d="M1415 1317 c-4 -10 -5 -21 -1 -24 10 -10 18 4 13 24 -4 17 -4 17 -12
0z"/>
<path d="M1725 1320 c3 -5 8 -10 11 -10 2 0 4 5 4 10 0 6 -5 10 -11 10 -5 0
-7 -4 -4 -10z"/>
<path d="M720 1311 c0 -5 7 -17 16 -26 9 -9 14 -19 11 -22 -4 -3 0 -18 9 -34
8 -16 14 -31 14 -34 -1 -26 1 -35 9 -35 16 0 18 33 5 60 -7 14 -14 34 -16 45
-5 29 -48 70 -48 46z"/>
<path d="M1685 1310 c3 -5 8 -10 11 -10 2 0 4 5 4 10 0 6 -5 10 -11 10 -5 0
-7 -4 -4 -10z"/>
<path d="M2150 1311 c13 -10 13 -12 0 -21 -13 -8 -12 -10 3 -10 22 0 19 31 -3
37 -13 4 -13 3 0 -6z"/>
<path d="M1775 1300 c-3 -5 -1 -10 4 -10 6 0 11 5 11 10 0 6 -2 10 -4 10 -3 0
-8 -4 -11 -10z"/>
<path d="M875 1290 c-3 -5 -1 -10 4 -10 6 0 11 5 11 10 0 6 -2 10 -4 10 -3 0
-8 -4 -11 -10z"/>
<path d="M1456 1292 c-2 -4 -1 -14 5 -22 7 -12 9 -10 9 8 0 23 -5 28 -14 14z"/>
<path d="M1810 1290 c0 -5 5 -10 10 -10 6 0 10 5 10 10 0 6 -4 10 -10 10 -5 0
-10 -4 -10 -10z"/>
<path d="M1975 1280 c3 -5 8 -10 11 -10 2 0 4 5 4 10 0 6 -5 10 -11 10 -5 0
-7 -4 -4 -10z"/>
<path d="M707 1267 c-10 -26 -9 -49 3 -42 6 3 10 -1 10 -9 0 -9 7 -16 17 -16
15 0 15 2 0 18 -8 9 -17 28 -19 42 -3 22 -4 22 -11 7z"/>
<path d="M1038 1273 c-10 -2 -18 -9 -18 -14 0 -13 12 -11 34 6 20 15 16 17
-16 8z"/>
<path d="M420 1261 c0 -6 5 -13 10 -16 6 -3 10 1 10 9 0 9 -4 16 -10 16 -5 0
-10 -4 -10 -9z"/>
<path d="M1827 1251 c-4 -17 -3 -21 5 -13 5 5 8 16 6 23 -3 8 -7 3 -11 -10z"/>
<path d="M1993 1231 c1 -16 5 -27 10 -24 10 6 9 53 -3 53 -5 0 -8 -13 -7 -29z"/>
<path d="M852 1219 c-1 -16 2 -29 7 -29 13 0 20 48 7 53 -7 3 -13 -7 -14 -24z"/>
<path d="M1461 1234 c0 -11 3 -14 6 -6 3 7 2 16 -1 19 -3 4 -6 -2 -5 -13z"/>
<path d="M1395 1227 c-4 -11 -3 -23 4 -30 15 -15 19 -7 11 23 -6 22 -8 23 -15
7z"/>
<path d="M627 1214 c-12 -13 -8 -34 7 -28 8 3 16 -3 19 -15 3 -12 10 -21 17
-21 6 0 9 4 6 9 -3 5 1 14 9 21 24 20 17 33 -14 27 -17 -4 -31 -2 -33 4 -2 6
-7 7 -11 3z"/>
<path d="M945 1210 c-3 -5 -1 -10 4 -10 6 0 11 5 11 10 0 6 -2 10 -4 10 -3 0
-8 -4 -11 -10z"/>
<path d="M1345 1210 c-3 -5 -1 -10 4 -10 6 0 11 5 11 10 0 6 -2 10 -4 10 -3 0
-8 -4 -11 -10z"/>
<path d="M1295 1190 c-3 -6 1 -7 9 -4 18 7 21 14 7 14 -6 0 -13 -4 -16 -10z"/>
<path d="M720 1166 c0 -15 18 -31 26 -23 7 7 -7 37 -17 37 -5 0 -9 -6 -9 -14z"/>
<path d="M1751 1164 c0 -11 3 -14 6 -6 3 7 2 16 -1 19 -3 4 -6 -2 -5 -13z"/>
<path d="M1845 1170 c-3 -6 3 -10 14 -10 29 0 27 -6 -19 -49 -22 -20 -40 -41
-40 -47 -1 -14 -72 -44 -106 -44 -24 -1 -26 -2 -12 -10 34 -20 90 -3 125 37
18 21 32 41 33 44 0 4 11 10 25 13 21 5 46 49 34 60 -12 11 -48 15 -54 6z"/>
<path d="M1385 1156 c-5 -11 -3 -32 4 -52 7 -19 9 -38 6 -44 -4 -6 1 -7 11 -3
14 5 16 3 11 -11 -6 -14 -3 -17 9 -12 9 4 23 1 30 -5 10 -8 18 -8 27 -1 7 6
36 14 65 18 63 8 61 15 -5 18 -31 1 -53 -3 -63 -12 -12 -13 -18 -10 -47 23
-17 20 -33 51 -35 69 -3 26 -5 28 -13 12z"/>
<path d="M1711 1154 c0 -11 3 -14 6 -6 3 7 2 16 -1 19 -3 4 -6 -2 -5 -13z"/>
<path d="M530 1149 c0 -5 5 -7 10 -4 6 3 10 8 10 11 0 2 -4 4 -10 4 -5 0 -10
-5 -10 -11z"/>
<path d="M1999 1156 c-3 -3 -3 -21 -1 -40 3 -24 10 -36 24 -39 18 -5 18 -4 5
11 -9 9 -17 30 -19 45 -1 16 -5 26 -9 23z"/>
<path d="M1796 1141 c-4 -5 -2 -12 3 -15 5 -4 12 -2 15 3 4 5 2 12 -3 15 -5 4
-12 2 -15 -3z"/>
<path d="M810 1115 c0 -18 4 -23 15 -19 8 4 15 12 15 19 0 7 -7 15 -15 19 -11
4 -15 -1 -15 -19z"/>
<path d="M951 1094 c0 -11 3 -14 6 -6 3 7 2 16 -1 19 -3 4 -6 -2 -5 -13z"/>
<path d="M1460 1096 c0 -9 5 -16 10 -16 6 0 10 4 10 9 0 6 -4 13 -10 16 -5 3
-10 -1 -10 -9z"/>
<path d="M1761 1094 c0 -11 3 -14 6 -6 3 7 2 16 -1 19 -3 4 -6 -2 -5 -13z"/>
<path d="M600 1089 c0 -5 9 -9 20 -9 11 0 20 2 20 4 0 2 -9 6 -20 9 -11 3 -20
1 -20 -4z"/>
<path d="M812 1048 c0 -30 1 -31 9 -10 5 13 13 20 19 17 5 -3 10 1 10 9 0 9
-8 16 -18 16 -15 0 -19 -8 -20 -32z"/>
<path d="M1906 1053 c-4 -18 -11 -33 -14 -33 -4 0 -7 -13 -7 -30 0 -35 3 -37
21 -13 9 14 10 21 1 32 -10 11 -8 13 11 7 13 -5 22 -3 22 3 0 6 -4 11 -9 11
-5 0 -11 12 -13 28 l-4 27 -8 -32z"/>
<path d="M1840 1051 c-13 -26 -13 -31 5 -31 8 0 15 4 15 9 0 5 3 16 6 25 9 23
-13 20 -26 -3z"/>
<path d="M2078 1053 c7 -3 16 -2 19 1 4 3 -2 6 -13 5 -11 0 -14 -3 -6 -6z"/>
<path d="M1601 1033 c-13 -15 -12 -16 10 -10 13 4 32 7 42 7 10 0 15 5 12 10
-10 15 -48 11 -64 -7z"/>
<path d="M850 1028 c1 -19 25 -48 41 -48 11 0 11 2 -1 10 -8 5 -16 14 -16 20
-1 5 -2 15 -3 20 -2 15 -21 12 -21 -2z"/>
<path d="M2085 1010 c3 -5 8 -10 11 -10 2 0 4 5 4 10 0 6 -5 10 -11 10 -5 0
-7 -4 -4 -10z"/>
<path d="M1480 1000 c0 -5 5 -10 11 -10 5 0 7 5 4 10 -3 6 -8 10 -11 10 -2 0
-4 -4 -4 -10z"/>
<path d="M1815 1000 c-3 -5 1 -10 10 -10 9 0 13 5 10 10 -3 6 -8 10 -10 10 -2
0 -7 -4 -10 -10z"/>
<path d="M1640 990 c0 -5 5 -10 10 -10 6 0 10 5 10 10 0 6 -4 10 -10 10 -5 0
-10 -4 -10 -10z"/>
<path d="M1935 989 c-4 -6 -1 -9 6 -8 20 3 50 -12 44 -21 -3 -5 -1 -11 4 -14
5 -3 11 5 13 18 3 17 1 23 -8 19 -6 -2 -15 0 -19 6 -8 14 -32 14 -40 0z"/>
<path d="M2032 993 c-6 -3 -9 -9 -6 -14 3 -6 0 -17 -7 -25 -16 -20 -3 -31 20
-17 16 10 18 9 14 -8 -3 -10 -9 -19 -14 -19 -5 0 -6 -7 -3 -15 4 -8 1 -15 -5
-15 -6 0 -11 4 -11 9 0 6 -13 18 -30 28 -16 9 -30 24 -31 33 0 9 -4 6 -9 -7
-11 -27 -51 -31 -74 -7 -15 14 -16 14 -16 0 0 -10 -9 -17 -22 -17 -55 -3 -75
-7 -100 -17 -14 -6 -29 -16 -33 -21 -9 -15 21 -14 53 3 36 18 189 28 216 14
12 -6 28 -19 37 -30 24 -27 39 -22 39 12 0 35 15 40 23 9 4 -15 -1 -27 -15
-38 -18 -15 -19 -20 -7 -39 14 -23 29 -29 29 -13 0 6 -4 12 -10 16 -5 3 -7 12
-4 20 4 8 10 12 15 9 5 -3 8 9 7 26 -1 17 -5 33 -9 36 -4 2 -5 12 -3 22 6 22
-27 70 -44 65z"/>
<path d="M670 979 c0 -5 5 -7 10 -4 6 3 10 8 10 11 0 2 -4 4 -10 4 -5 0 -10
-5 -10 -11z"/>
<path d="M1710 980 c0 -5 7 -10 16 -10 8 0 12 5 9 10 -3 6 -10 10 -16 10 -5 0
-9 -4 -9 -10z"/>
<path d="M1775 980 c3 -5 11 -10 16 -10 6 0 7 5 4 10 -3 6 -11 10 -16 10 -6 0
-7 -4 -4 -10z"/>
<path d="M2335 980 c3 -5 8 -10 11 -10 2 0 4 5 4 10 0 6 -5 10 -11 10 -5 0 -7
-4 -4 -10z"/>
<path d="M910 959 c0 -5 5 -7 10 -4 6 3 10 8 10 11 0 2 -4 4 -10 4 -5 0 -10
-5 -10 -11z"/>
<path d="M1750 956 c0 -9 5 -16 10 -16 6 0 10 4 10 9 0 6 -4 13 -10 16 -5 3
-10 -1 -10 -9z"/>
<path d="M1823 963 c-15 -6 -17 -33 -3 -33 6 0 10 6 10 14 0 8 8 17 18 19 11
3 12 5 2 5 -8 0 -21 -2 -27 -5z"/>
<path d="M1910 950 c-6 -11 -7 -20 -2 -20 6 0 12 9 15 20 3 11 3 20 1 20 -2 0
-8 -9 -14 -20z"/>
<path d="M2117 938 c-8 -29 -5 -30 35 -25 29 3 30 5 11 11 -13 5 -19 14 -16
22 3 8 -1 14 -10 14 -8 0 -17 -10 -20 -22z"/>
<path d="M2280 951 c0 -5 9 -7 20 -4 11 3 20 7 20 9 0 2 -9 4 -20 4 -11 0 -20
-4 -20 -9z"/>
<path d="M2207 919 c3 -15 0 -36 -6 -47 -7 -14 -8 -23 -1 -27 5 -3 10 -17 10
-30 0 -16 8 -26 28 -33 15 -5 47 -29 71 -53 24 -24 37 -34 30 -22 -21 35 -4
37 50 7 33 -17 51 -34 51 -46 0 -10 5 -18 11 -18 5 0 7 5 4 10 -7 11 6 13 30
4 13 -5 14 -8 3 -15 -9 -6 -4 -9 15 -9 31 0 81 -33 69 -45 -4 -5 -2 -5 5 -1 7
3 29 -3 50 -14 22 -12 30 -20 20 -20 -28 0 -11 -18 24 -25 34 -8 90 -43 117
-73 9 -11 31 -23 47 -26 l30 -6 -30 17 c-25 14 -27 18 -12 21 20 4 78 -16 88
-31 3 -5 25 -11 48 -14 32 -4 41 -2 41 10 0 8 -10 17 -22 20 -13 3 -48 13 -78
22 -30 9 -59 18 -65 19 -5 2 -23 7 -40 11 -16 5 -35 14 -42 21 -7 6 -28 22
-48 34 -19 12 -35 26 -35 31 0 5 -7 9 -16 9 -9 0 -27 9 -41 20 -14 11 -32 20
-39 20 -8 0 -14 4 -14 8 0 4 -30 23 -67 42 -38 18 -75 39 -83 46 -8 6 -33 18
-55 25 -22 8 -53 22 -70 31 -16 10 -37 18 -46 18 -22 0 -23 60 -3 98 19 36 18
40 -10 38 -21 -1 -24 -5 -19 -27z"/>
<path d="M1710 926 c0 -9 5 -16 10 -16 6 0 10 4 10 9 0 6 -4 13 -10 16 -5 3
-10 -1 -10 -9z"/>
<path d="M915 910 c3 -5 8 -10 11 -10 2 0 4 5 4 10 0 6 -5 10 -11 10 -5 0 -7
-4 -4 -10z"/>
<path d="M2305 910 c-3 -5 -1 -10 4 -10 6 0 11 5 11 10 0 6 -2 10 -4 10 -3 0
-8 -4 -11 -10z"/>
<path d="M783 890 c1 -22 13 -27 20 -7 2 6 7 9 11 6 13 -12 -6 -35 -71 -84
-37 -27 -74 -57 -82 -66 -32 -31 -168 -139 -176 -139 -19 0 -203 -187 -283
-287 -36 -46 -69 -83 -74 -83 -4 0 -8 -4 -8 -10 0 -5 -14 -29 -30 -52 -55 -77
-77 -113 -84 -135 -6 -18 -4 -20 13 -16 11 3 17 11 15 18 -3 7 4 16 15 20 19
6 25 19 24 53 -1 9 5 8 18 -4 10 -9 19 -12 19 -6 0 6 -5 14 -10 17 -16 10 41
83 70 90 32 9 56 45 29 45 -5 0 -8 -4 -4 -9 3 -6 -4 -15 -16 -21 -33 -18 -33
-5 1 23 16 14 30 28 30 32 0 3 17 28 38 56 24 33 38 45 40 35 2 -9 8 -16 14
-16 6 0 8 11 6 25 -3 13 -1 22 3 19 5 -3 9 2 9 10 0 9 5 16 10 16 6 0 10 6 10
14 0 10 12 14 43 13 l43 -2 -2 44 c-2 24 0 41 3 38 3 -3 12 1 20 9 8 8 19 12
24 9 5 -4 6 0 3 8 -3 9 8 20 31 31 20 10 62 40 93 68 32 27 72 63 90 79 18 16
45 37 59 46 75 49 114 113 77 127 -29 11 -43 6 -41 -14z m-383 -404 c0 -8 -4
-17 -9 -21 -12 -7 -24 12 -16 25 9 15 25 12 25 -4z"/>
<path d="M2120 886 c0 -7 7 -19 15 -26 10 -9 15 -9 15 -1 0 6 9 11 20 11 12 0
20 7 20 16 0 14 -3 14 -15 4 -12 -10 -19 -10 -27 -2 -16 16 -28 15 -28 -2z"/>
<path d="M1660 880 l-25 -8 28 -1 c15 -1 27 4 27 9 0 6 -1 10 -2 9 -2 -1 -14
-5 -28 -9z"/>
<path d="M1854 871 c-26 -5 -30 -9 -24 -26 7 -18 9 -18 15 -3 7 17 45 21 45 5
0 -4 5 -5 10 -2 14 9 12 35 -2 34 -7 -1 -27 -4 -44 -8z"/>
<path d="M996 861 c-3 -5 0 -11 8 -14 15 -6 26 1 26 15 0 11 -27 10 -34 -1z"/>
<path d="M1390 860 c0 -5 5 -10 10 -10 6 0 10 5 10 10 0 6 -4 10 -10 10 -5 0
-10 -4 -10 -10z"/>
<path d="M1560 860 c0 -5 9 -10 21 -10 11 0 17 5 14 10 -3 6 -13 10 -21 10 -8
0 -14 -4 -14 -10z"/>
<path d="M1920 866 c0 -2 9 -6 20 -9 11 -3 18 -1 14 4 -5 9 -34 13 -34 5z"/>
<path d="M1790 850 c0 -5 5 -10 10 -10 6 0 10 5 10 10 0 6 -4 10 -10 10 -5 0
-10 -4 -10 -10z"/>
<path d="M2111 845 c-1 -29 10 -65 20 -65 5 0 9 11 9 25 0 14 -4 25 -9 25 -5
0 -12 8 -14 18 -4 14 -5 14 -6 -3z"/>
<path d="M1755 840 c3 -5 8 -10 11 -10 2 0 4 5 4 10 0 6 -5 10 -11 10 -5 0 -7
-4 -4 -10z"/>
<path d="M1973 839 c-13 -5 -23 -14 -23 -21 0 -9 -2 -10 -8 -1 -8 12 -82 14
-82 2 0 -8 -70 -34 -83 -31 -4 1 -15 -4 -22 -12 -9 -8 -47 -17 -92 -21 -43 -4
-85 -9 -93 -11 -8 -1 -21 -3 -27 -3 -7 -1 -13 -5 -13 -11 0 -14 67 -13 72 1 2
7 11 7 30 -1 20 -10 34 -10 59 -1 25 9 35 8 42 -1 7 -11 10 -10 14 0 3 7 21
19 40 27 40 17 55 19 33 5 -11 -7 -11 -10 -2 -10 7 0 28 11 46 25 33 25 72 33
78 16 2 -6 18 3 37 18 36 29 32 45 -6 30z"/>
<path d="M1697 833 c-12 -11 -7 -23 7 -17 8 3 17 1 21 -5 3 -6 13 -11 21 -11
10 0 9 5 -6 20 -21 21 -32 24 -43 13z"/>
<path d="M2160 831 c0 -6 5 -13 11 -17 8 -4 8 -9 0 -17 -16 -16 -13 -27 4 -21
9 4 15 19 15 35 0 19 -5 29 -15 29 -8 0 -15 -4 -15 -9z"/>
<path d="M820 810 c0 -5 5 -10 10 -10 6 0 10 5 10 10 0 6 -4 10 -10 10 -5 0
-10 -4 -10 -10z"/>
<path d="M1051 804 c0 -11 3 -14 6 -6 3 7 2 16 -1 19 -3 4 -6 -2 -5 -13z"/>
<path d="M1267 792 c-3 -15 -1 -31 4 -36 6 -7 9 -7 10 0 0 5 2 19 3 32 4 33
-11 37 -17 4z"/>
<path d="M2007 791 c-3 -14 -1 -18 9 -14 8 3 14 11 14 19 0 21 -17 17 -23 -5z"/>
<path d="M2378 803 c7 -3 16 -2 19 1 4 3 -2 6 -13 5 -11 0 -14 -3 -6 -6z"/>
<path d="M1700 790 c0 -5 5 -10 10 -10 6 0 10 5 10 10 0 6 -4 10 -10 10 -5 0
-10 -4 -10 -10z"/>
<path d="M2044 774 c3 -8 6 -18 6 -20 0 -2 5 -4 10 -4 16 0 11 27 -6 34 -12 5
-15 2 -10 -10z"/>
<path d="M2200 770 c0 -5 5 -10 11 -10 5 0 7 5 4 10 -3 6 -8 10 -11 10 -2 0
-4 -4 -4 -10z"/>
<path d="M1886 756 c3 -9 11 -16 16 -16 13 0 5 23 -10 28 -7 2 -10 -2 -6 -12z"/>
<path d="M543 753 c-17 -6 -17 -20 0 -26 8 -3 13 3 13 14 0 11 0 19 -1 18 0 0
-6 -3 -12 -6z"/>
<path d="M851 753 c0 -5 4 -17 9 -28 8 -18 9 -17 9 8 1 15 -3 27 -9 27 -5 0
-10 -3 -9 -7z"/>
<path d="M2120 751 c0 -5 5 -13 10 -16 6 -3 10 -2 10 4 0 5 -4 13 -10 16 -5 3
-10 2 -10 -4z"/>
<path d="M2163 735 c0 -14 3 -25 8 -25 5 0 9 7 9 15 0 8 0 18 1 22 0 4 -4 9
-9 11 -5 1 -9 -9 -9 -23z"/>
<path d="M2530 750 c19 -13 30 -13 30 0 0 6 -10 10 -22 10 -19 0 -20 -2 -8
-10z"/>
<path d="M2210 741 c0 -6 5 -13 10 -16 6 -3 10 1 10 9 0 9 -4 16 -10 16 -5 0
-10 -4 -10 -9z"/>
<path d="M1272 720 c0 -14 2 -19 5 -12 2 6 2 18 0 25 -3 6 -5 1 -5 -13z"/>
<path d="M2070 730 c0 -6 7 -10 15 -10 8 0 15 2 15 4 0 2 -7 6 -15 10 -8 3
-15 1 -15 -4z"/>
<path d="M1416 721 c-3 -5 1 -11 9 -15 9 -3 15 0 15 9 0 16 -16 20 -24 6z"/>
<path d="M2240 715 c0 -9 -6 -12 -15 -9 -8 4 -15 2 -15 -3 0 -18 12 -22 31
-10 20 12 26 37 9 37 -5 0 -10 -7 -10 -15z"/>
<path d="M1847 700 c3 -11 12 -20 19 -20 8 0 14 -5 14 -12 0 -6 3 -8 7 -5 3 4
13 1 21 -6 13 -11 14 -9 1 11 -8 12 -19 22 -25 22 -7 0 -14 7 -18 15 -8 22
-25 18 -19 -5z"/>
<path d="M1910 708 c0 -9 5 -20 11 -23 17 -11 18 -2 3 19 -12 17 -14 17 -14 4z"/>
<path d="M1746 683 c7 -39 14 -42 14 -5 0 18 -4 32 -9 32 -5 0 -7 -12 -5 -27z"/>
<path d="M2377 686 c10 -13 22 -22 26 -19 5 3 -1 14 -12 24 -28 26 -35 24 -14
-5z"/>
<path d="M675 690 c3 -5 8 -10 11 -10 2 0 4 5 4 10 0 6 -5 10 -11 10 -5 0 -7
-4 -4 -10z"/>
<path d="M720 692 c0 -12 19 -26 26 -19 2 2 -2 10 -11 17 -9 8 -15 8 -15 2z"/>
<path d="M815 691 c-3 -6 -3 -21 1 -34 10 -31 4 -211 -7 -215 -9 -4 -2 -51 11
-65 11 -13 33 187 27 248 -6 59 -19 86 -32 66z"/>
<path d="M878 666 c2 -19 13 -44 23 -55 10 -11 19 -28 19 -38 0 -11 3 -14 10
-7 5 5 7 27 3 48 -4 24 -9 33 -14 25 -9 -14 -15 -4 -21 35 -6 36 -24 28 -20
-8z"/>
<path d="M1801 683 c0 -11 3 -13 6 -5 9 22 23 2 18 -26 -4 -23 -4 -24 4 -7 16
34 13 55 -9 55 -13 0 -20 -6 -19 -17z"/>
<path d="M2125 690 c-3 -6 1 -7 9 -4 18 7 21 14 7 14 -6 0 -13 -4 -16 -10z"/>
<path d="M2274 685 c-9 -22 1 -29 15 -11 8 10 9 16 1 21 -5 3 -13 -1 -16 -10z"/>
<path d="M2010 683 c0 -5 5 -15 10 -23 8 -12 10 -11 10 8 0 12 -4 22 -10 22
-5 0 -10 -3 -10 -7z"/>
<path d="M627 666 c-4 -9 2 -13 19 -13 27 0 32 12 8 21 -21 8 -21 8 -27 -8z"/>
<path d="M2145 670 c-3 -5 -1 -10 4 -10 6 0 11 5 11 10 0 6 -2 10 -4 10 -3 0
-8 -4 -11 -10z"/>
<path d="M2085 660 c-3 -5 -1 -10 4 -10 6 0 11 5 11 10 0 6 -2 10 -4 10 -3 0
-8 -4 -11 -10z"/>
<path d="M2220 661 c0 -5 5 -13 10 -16 6 -3 10 -2 10 4 0 5 -4 13 -10 16 -5 3
-10 2 -10 -4z"/>
<path d="M2048 643 c7 -3 16 -2 19 1 4 3 -2 6 -13 5 -11 0 -14 -3 -6 -6z"/>
<path d="M2160 628 c0 -11 5 -16 10 -13 6 4 17 1 25 -5 12 -10 15 -10 15 1 0
8 -11 19 -25 26 -22 10 -25 9 -25 -9z"/>
<path d="M1618 633 c7 -3 16 -2 19 1 4 3 -2 6 -13 5 -11 0 -14 -3 -6 -6z"/>
<path d="M1863 615 c-12 -8 -36 -17 -54 -19 -18 -2 -35 -9 -37 -16 -3 -7 1
-10 9 -8 8 3 24 1 37 -3 13 -5 21 -5 18 0 -3 4 7 14 22 21 29 15 29 15 54 5
13 -5 15 -2 11 14 -6 25 -30 27 -60 6z"/>
<path d="M1963 623 c9 -2 23 -2 30 0 6 3 -1 5 -18 5 -16 0 -22 -2 -12 -5z"/>
<path d="M2087 623 c-10 -9 -9 -23 2 -23 5 0 11 7 15 15 5 15 -5 20 -17 8z"/>
<path d="M355 610 c-3 -5 -1 -10 4 -10 6 0 11 5 11 10 0 6 -2 10 -4 10 -3 0
-8 -4 -11 -10z"/>
<path d="M590 609 c0 -5 5 -7 10 -4 6 3 10 8 10 11 0 2 -4 4 -10 4 -5 0 -10
-5 -10 -11z"/>
<path d="M2032 600 c0 -14 2 -19 5 -12 2 6 2 18 0 25 -3 6 -5 1 -5 -13z"/>
<path d="M2120 604 c0 -13 18 -39 24 -34 2 3 -2 14 -10 24 -8 11 -14 16 -14
10z"/>
<path d="M615 589 c-11 -17 1 -21 15 -4 8 9 8 15 2 15 -6 0 -14 -5 -17 -11z"/>
<path d="M1750 581 c0 -5 -12 -11 -27 -13 -25 -3 -24 -4 8 -9 31 -4 35 -2 31
13 -5 19 -12 24 -12 9z"/>
<path d="M365 570 c-3 -5 -1 -10 4 -10 6 0 11 5 11 10 0 6 -2 10 -4 10 -3 0
-8 -4 -11 -10z"/>
<path d="M1855 570 c3 -5 13 -10 21 -10 8 0 12 5 9 10 -3 6 -13 10 -21 10 -8
0 -12 -4 -9 -10z"/>
<path d="M2160 566 c0 -9 5 -16 10 -16 6 0 10 4 10 9 0 6 -4 13 -10 16 -5 3
-10 -1 -10 -9z"/>
<path d="M2580 570 c0 -6 7 -10 15 -10 8 0 15 2 15 4 0 2 -7 6 -15 10 -8 3
-15 1 -15 -4z"/>
<path d="M960 554 c0 -8 5 -12 10 -9 6 4 8 11 5 16 -9 14 -15 11 -15 -7z"/>
<path d="M1611 566 c12 -10 79 -16 79 -6 0 5 -19 10 -42 10 -23 0 -39 -2 -37
-4z"/>
<path d="M2096 563 c-9 -9 -7 -33 3 -33 12 0 22 28 12 34 -5 3 -11 3 -15 -1z"/>
<path d="M2960 540 c-9 -6 -10 -10 -3 -10 6 0 15 5 18 10 8 12 4 12 -15 0z"/>
<path d="M1948 533 c7 -3 16 -2 19 1 4 3 -2 6 -13 5 -11 0 -14 -3 -6 -6z"/>
<path d="M2142 515 c0 -16 2 -22 5 -12 2 9 2 23 0 30 -3 6 -5 -1 -5 -18z"/>
<path d="M230 520 c0 -5 5 -10 10 -10 6 0 10 5 10 10 0 6 -4 10 -10 10 -5 0
-10 -4 -10 -10z"/>
<path d="M2050 520 c0 -5 5 -10 10 -10 6 0 10 5 10 10 0 6 -4 10 -10 10 -5 0
-10 -4 -10 -10z"/>
<path d="M290 499 c0 -5 5 -7 10 -4 6 3 10 8 10 11 0 2 -4 4 -10 4 -5 0 -10
-5 -10 -11z"/>
<path d="M2665 490 c-3 -5 -1 -10 4 -10 6 0 11 5 11 10 0 6 -2 10 -4 10 -3 0
-8 -4 -11 -10z"/>
<path d="M1912 460 c0 -14 2 -19 5 -12 2 6 2 18 0 25 -3 6 -5 1 -5 -13z"/>
<path d="M2060 470 c0 -5 5 -10 10 -10 6 0 10 5 10 10 0 6 -4 10 -10 10 -5 0
-10 -4 -10 -10z"/>
<path d="M2118 455 c-9 -12 -15 -25 -11 -28 9 -9 35 22 31 37 -2 10 -8 8 -20
-9z"/>
<path d="M250 449 c0 -5 5 -7 10 -4 6 3 10 8 10 11 0 2 -4 4 -10 4 -5 0 -10
-5 -10 -11z"/>
<path d="M1835 450 c-3 -5 -1 -10 4 -10 6 0 11 5 11 10 0 6 -2 10 -4 10 -3 0
-8 -4 -11 -10z"/>
<path d="M2019 438 c-1 -7 0 -24 1 -37 2 -30 -19 -71 -37 -71 -7 0 -13 5 -13
10 0 6 -5 10 -10 10 -16 0 12 -38 32 -43 16 -5 17 -8 3 -55 -19 -62 -40 -104
-48 -95 -4 3 -7 -2 -7 -11 0 -19 -29 -64 -67 -106 -24 -26 -29 -40 -14 -40 10
0 71 67 71 78 0 5 8 17 18 28 24 26 58 93 67 132 3 18 11 32 16 32 6 0 8 9 4
19 -3 11 1 25 10 34 18 19 20 31 2 24 -9 -3 -12 9 -11 49 1 30 -3 54 -7 54 -5
0 -9 -6 -10 -12z"/>
<path d="M2060 430 c0 -5 5 -10 10 -10 6 0 10 -7 10 -15 0 -8 5 -15 10 -15 13
0 12 11 -4 33 -15 19 -26 22 -26 7z"/>
<path d="M2715 430 c3 -5 8 -10 11 -10 2 0 4 5 4 10 0 6 -5 10 -11 10 -5 0 -7
-4 -4 -10z"/>
<path d="M1885 410 c-7 -11 12 -23 25 -15 6 3 10 -3 10 -15 0 -12 5 -18 10
-15 7 4 7 12 0 24 -11 22 -37 34 -45 21z"/>
<path d="M2615 409 c-9 -14 -2 -20 14 -10 8 6 9 11 3 15 -6 3 -14 1 -17 -5z"/>
<path d="M2902 388 c5 -15 28 -23 28 -10 0 5 -7 13 -16 16 -10 4 -14 1 -12 -6z"/>
<path d="M2970 394 c0 -3 7 -12 15 -20 16 -17 18 -14 9 10 -6 15 -24 23 -24
10z"/>
<path d="M2095 370 c-3 -5 4 -10 15 -10 16 0 20 -5 16 -15 -3 -9 0 -15 9 -15
20 0 19 13 -3 33 -21 20 -28 21 -37 7z"/>
<path d="M2560 370 c0 -5 5 -10 10 -10 6 0 10 5 10 10 0 6 -4 10 -10 10 -5 0
-10 -4 -10 -10z"/>
<path d="M820 350 c0 -5 5 -10 11 -10 5 0 7 5 4 10 -3 6 -8 10 -11 10 -2 0 -4
-4 -4 -10z"/>
<path d="M2080 340 c0 -5 6 -10 13 -10 7 -1 5 -6 -5 -14 -10 -7 -18 -19 -18
-25 0 -7 9 -4 20 7 13 12 18 25 14 35 -7 18 -24 23 -24 7z"/>
<path d="M120 330 c0 -5 5 -10 11 -10 5 0 7 5 4 10 -3 6 -8 10 -11 10 -2 0 -4
-4 -4 -10z"/>
<path d="M1932 302 c3 -18 1 -35 -4 -38 -13 -9 -9 -24 7 -24 8 0 15 6 15 14 0
8 8 17 18 19 16 4 16 5 0 6 -10 0 -19 6 -19 11 -1 6 -2 14 -3 19 0 5 -5 13
-10 18 -5 4 -7 -6 -4 -25z"/>
<path d="M2160 305 c0 -15 7 -33 15 -41 8 -9 15 -24 15 -35 0 -11 7 -22 15
-25 8 -4 15 -17 15 -30 0 -13 5 -24 10 -24 6 0 10 -6 10 -14 0 -8 4 -17 9 -20
5 -3 8 12 7 34 0 22 -5 40 -11 40 -5 0 -21 25 -34 55 -13 30 -28 55 -33 55 -5
0 -7 4 -3 9 3 5 1 12 -5 16 -6 4 -10 -5 -10 -20z"/>
<path d="M2200 320 c0 -5 5 -10 10 -10 6 0 10 5 10 10 0 6 -4 10 -10 10 -5 0
-10 -4 -10 -10z"/>
<path d="M2958 323 c6 -2 18 -2 25 0 6 3 1 5 -13 5 -14 0 -19 -2 -12 -5z"/>
<path d="M1886 291 c-3 -5 1 -12 10 -15 20 -8 29 -1 19 13 -8 13 -22 14 -29 2z"/>
<path d="M1810 262 c0 -16 37 -52 52 -52 26 0 38 23 24 43 -18 23 -29 22 -21
-3 5 -15 2 -20 -10 -20 -9 0 -19 9 -22 20 -5 19 -23 28 -23 12z"/>
<path d="M2075 240 c-3 -5 -1 -10 4 -10 6 0 11 5 11 10 0 6 -2 10 -4 10 -3 0
-8 -4 -11 -10z"/>
<path d="M2128 244 c-3 -5 -2 -18 2 -28 3 -11 9 -15 12 -10 3 5 2 18 -2 28 -3
11 -9 15 -12 10z"/>
<path d="M10 221 c0 -5 7 -11 14 -14 10 -4 13 -1 9 9 -6 15 -23 19 -23 5z"/>
<path d="M1617 200 c-3 -11 -1 -20 4 -20 5 0 9 9 9 20 0 11 -2 20 -4 20 -2 0
-6 -9 -9 -20z"/>
<path d="M1680 181 c0 -13 1 -22 3 -20 1 2 11 14 21 26 18 21 18 22 -3 20 -15
-1 -21 -8 -21 -26z"/>
<path d="M1733 185 c-28 -27 -29 -35 -3 -28 11 3 20 10 20 15 0 5 13 7 30 3
19 -4 30 -3 30 4 0 6 -9 11 -21 11 -11 0 -17 5 -14 10 12 19 -20 8 -42 -15z"/>
<path d="M1520 192 c0 -15 11 -21 27 -15 12 5 12 7 1 14 -17 11 -28 11 -28 1z"/>
<path d="M50 179 c0 -5 5 -7 10 -4 6 3 10 8 10 11 0 2 -4 4 -10 4 -5 0 -10 -5
-10 -11z"/>
<path d="M196 145 c4 -8 8 -15 10 -15 2 0 4 7 4 15 0 8 -4 15 -10 15 -5 0 -7
-7 -4 -15z"/>
<path d="M1855 150 c4 -6 11 -8 16 -5 14 9 11 15 -7 15 -8 0 -12 -5 -9 -10z"/>
<path d="M2010 150 c0 -5 5 -10 10 -10 6 0 10 5 10 10 0 6 -4 10 -10 10 -5 0
-10 -4 -10 -10z"/>
<path d="M1665 140 c-8 -13 -1 -24 14 -19 6 3 7 10 2 18 -6 10 -10 10 -16 1z"/>
<path d="M1605 130 c-3 -5 -1 -10 4 -10 6 0 11 5 11 10 0 6 -2 10 -4 10 -3 0
-8 -4 -11 -10z"/>
<path d="M2175 130 c-3 -5 -1 -10 4 -10 6 0 11 5 11 10 0 6 -2 10 -4 10 -3 0
-8 -4 -11 -10z"/>
<path d="M2280 99 c3 -27 11 -43 18 -42 7 2 12 -3 12 -10 0 -8 4 -7 10 3 5 8
10 10 10 4 0 -5 7 -19 15 -30 13 -17 14 -17 15 -1 0 21 -37 60 -50 52 -6 -4
-10 2 -10 12 0 11 -6 27 -13 37 -12 16 -13 13 -7 -25z"/>
<path d="M1830 110 c0 -13 5 -18 15 -14 8 4 15 10 15 14 0 4 -7 10 -15 14 -10
4 -15 -1 -15 -14z"/>
<path d="M1990 109 c0 -5 5 -7 10 -4 6 3 10 8 10 11 0 2 -4 4 -10 4 -5 0 -10
-5 -10 -11z"/>
</g>
</svg>
