<?xml version="1.0" standalone="no"?>
<!DOCTYPE svg PUBLIC "-//W3C//DTD SVG 20010904//EN"
 "http://www.w3.org/TR/2001/REC-SVG-20010904/DTD/svg10.dtd">
<svg version="1.0" xmlns="http://www.w3.org/2000/svg"
 width="300.000000pt" height="300.000000pt" viewBox="0 0 300.000000 300.000000"
 preserveAspectRatio="xMidYMid meet">
<metadata>
Created by potrace 1.10, written by Peter Selinger 2001-2011
</metadata>
<g transform="translate(0.000000,300.000000) scale(0.100000,-0.100000)"
fill="#000000" stroke="none">
<path d="M230 2987 c0 -5 -20 -7 -45 -4 -25 2 -45 0 -45 -5 0 -5 -5 -6 -12 -2
-6 4 -8 3 -5 -3 7 -11 33 -10 270 17 66 8 62 8 -45 7 -65 -1 -118 -6 -118 -10z"/>
<path d="M648 2993 c-49 -4 -62 -16 -31 -27 9 -4 21 -2 27 4 5 5 20 10 33 10
13 0 23 5 23 10 0 6 -1 9 -2 8 -2 -1 -24 -3 -50 -5z"/>
<path d="M800 2985 c0 -8 4 -15 10 -15 5 0 7 7 4 15 -4 8 -8 15 -10 15 -2 0
-4 -7 -4 -15z"/>
<path d="M906 2988 c3 -4 -2 -8 -11 -8 -9 0 -14 -4 -10 -10 6 -10 47 2 52 16
2 5 -5 10 -16 10 -11 0 -17 -4 -15 -8z"/>
<path d="M1288 2993 c7 -3 16 -2 19 1 4 3 -2 6 -13 5 -11 0 -14 -3 -6 -6z"/>
<path d="M1450 2991 c0 -6 11 -11 24 -11 14 0 32 -7 40 -16 19 -19 22 -41 4
-27 -13 9 -55 10 -64 1 -8 -9 65 -20 78 -12 6 4 8 3 5 -3 -9 -14 19 -36 35
-30 8 4 4 8 -11 13 l-23 7 23 12 c19 11 29 9 65 -10 35 -19 44 -20 48 -8 3 8
10 11 16 8 6 -4 8 -11 5 -16 -4 -5 0 -9 7 -9 10 0 9 -3 -2 -11 -13 -9 -13 -10
0 -6 8 2 14 13 12 23 -3 18 -3 18 11 -1 9 -11 18 -17 22 -14 9 10 -25 40 -36
33 -6 -3 -13 3 -16 15 -7 27 -33 28 -28 1 2 -11 0 -20 -6 -20 -5 0 -9 4 -9 8
0 4 -16 14 -35 21 -19 7 -35 17 -35 22 0 5 -5 9 -11 9 -6 0 -9 -7 -6 -15 4 -8
1 -17 -5 -21 -7 -4 -8 -3 -4 5 5 7 2 10 -5 9 -7 -2 -13 6 -14 16 0 12 -8 20
-20 22 -11 1 -30 6 -42 9 -15 5 -23 3 -23 -4z"/>
<path d="M1586 2992 c-2 -4 -1 -14 5 -22 7 -12 9 -10 9 8 0 23 -5 28 -14 14z"/>
<path d="M957 2983 c-3 -5 1 -14 9 -21 12 -10 14 -10 14 2 0 17 -16 30 -23 19z"/>
<path d="M994 2968 c0 -12 8 -24 16 -26 13 -5 13 -3 1 11 -17 21 -11 21 25 3
15 -8 32 -12 38 -8 6 4 0 8 -13 10 -13 2 -31 10 -38 18 -20 20 -30 17 -29 -8z"/>
<path d="M1141 2972 c-8 -14 -8 -22 -1 -22 5 0 10 4 10 10 0 14 28 1 34 -17 5
-12 0 -14 -24 -11 -16 3 -30 1 -30 -4 0 -8 23 -12 49 -9 7 2 10 -2 6 -8 -3 -6
-1 -11 5 -11 7 0 10 7 6 15 -3 8 2 19 12 24 9 5 13 13 8 18 -5 4 -11 3 -13 -4
-3 -8 -13 -3 -27 14 l-23 27 -12 -22z"/>
<path d="M1190 2982 c0 -4 9 -8 20 -9 11 -1 20 2 20 8 0 5 -9 9 -20 9 -11 0
-20 -4 -20 -8z"/>
<path d="M1341 2983 c-1 -18 19 -27 32 -13 9 10 8 12 -5 7 -9 -3 -19 -1 -22 6
-3 9 -5 9 -5 0z"/>
<path d="M1396 2979 c7 -13 43 -17 38 -5 -2 6 -13 12 -24 12 -10 0 -17 -3 -14
-7z"/>
<path d="M1634 2978 c-3 -4 -4 -8 -2 -9 32 -7 68 -7 68 0 0 12 -59 20 -66 9z"/>
<path d="M1721 2976 c-9 -11 -9 -15 1 -19 10 -4 10 -6 1 -6 -7 -1 -13 -5 -13
-10 0 -5 10 -7 23 -4 18 4 19 3 7 -6 -8 -6 -10 -11 -4 -11 6 0 14 3 18 7 3 4
17 8 29 9 12 2 17 0 10 -2 -7 -3 -9 -12 -6 -20 3 -9 -1 -14 -13 -14 -13 0 -15
-3 -7 -11 14 -14 42 9 35 29 -2 6 2 12 9 12 8 0 6 7 -6 20 -13 14 -22 17 -31
9 -9 -7 -16 -4 -27 11 -12 17 -16 18 -26 6z"/>
<path d="M37 2969 c-9 -6 -22 -7 -27 -4 -6 3 -10 1 -10 -4 0 -13 39 -14 59 -2
19 12 -1 21 -22 10z"/>
<path d="M559 2971 c-1 -3 -1 -9 0 -13 1 -10 -3 -10 -33 2 -26 10 -31 5 -27
-28 2 -10 -2 -10 -18 0 -16 10 -18 15 -8 28 8 10 5 9 -9 -2 -11 -10 -25 -18
-31 -18 -9 0 -10 -19 -4 -52 0 -4 11 -3 24 1 12 5 21 15 19 23 -1 7 5 4 13 -6
13 -17 15 -17 15 -3 0 19 73 42 99 31 13 -5 11 -8 -9 -13 -22 -6 -23 -8 -7
-14 29 -11 32 -9 35 18 1 19 -3 25 -18 25 -12 0 -17 5 -14 13 3 8 -2 14 -11
14 -8 0 -16 -3 -16 -6z m-96 -56 c-5 -13 -23 -22 -23 -11 0 15 14 35 21 31 4
-3 6 -12 2 -20z"/>
<path d="M834 2965 c3 -10 -1 -15 -13 -15 -14 0 -17 -6 -13 -30 3 -23 0 -30
-12 -30 -9 0 -16 -5 -16 -11 0 -6 9 -8 20 -4 11 4 20 2 20 -4 0 -6 5 -11 11
-11 8 0 8 4 1 13 -5 6 -10 25 -10 41 0 26 2 28 13 13 12 -16 13 -16 19 -1 4
11 14 15 31 12 13 -3 22 -1 19 3 -3 5 -11 9 -19 9 -7 0 -15 7 -19 15 -3 8 -13
15 -22 15 -10 0 -14 -5 -10 -15z m26 -9 c0 -8 -4 -17 -8 -20 -4 -2 -8 4 -8 15
0 10 4 19 8 19 4 0 8 -6 8 -14z"/>
<path d="M1261 2971 c-12 -8 -9 -11 12 -16 15 -4 27 -11 27 -17 0 -5 5 -6 10
-3 7 4 2 14 -11 26 -12 10 -22 19 -23 19 -1 0 -8 -4 -15 -9z"/>
<path d="M660 2966 c0 -2 7 -6 15 -10 8 -3 15 -1 15 4 0 6 -7 10 -15 10 -8 0
-15 -2 -15 -4z"/>
<path d="M713 2956 c2 -6 14 -12 28 -13 15 -1 17 0 6 3 -9 3 -15 9 -13 13 3 4
-2 8 -10 8 -8 0 -13 -5 -11 -11z"/>
<path d="M1610 2960 c0 -5 5 -10 11 -10 5 0 7 5 4 10 -3 6 -8 10 -11 10 -2 0
-4 -4 -4 -10z"/>
<path d="M918 2938 c-2 -16 -12 -25 -33 -29 -33 -7 -28 -9 28 -13 20 -1 37 1
37 6 0 4 11 3 25 -2 20 -7 25 -6 25 5 0 18 16 20 23 3 3 -8 6 -5 6 5 1 10 6
15 11 12 6 -3 10 -1 10 5 0 12 -38 4 -54 -11 -14 -12 -39 -11 -31 1 3 6 1 10
-4 10 -6 0 -11 -4 -11 -10 0 -5 -6 -10 -14 -10 -9 0 -12 8 -8 25 2 14 2 25 -1
25 -3 0 -7 -10 -9 -22z"/>
<path d="M1084 2938 c-4 -7 -4 -10 1 -6 4 4 15 2 23 -5 12 -10 14 -9 11 2 -7
20 -26 25 -35 9z"/>
<path d="M1333 2936 c2 -6 13 -9 23 -8 10 2 35 4 54 3 24 0 30 2 20 8 -22 13
-102 11 -97 -3z"/>
<path d="M636 2929 c3 -5 16 -9 30 -9 14 0 23 -4 20 -9 -4 -5 3 -7 15 -4 11 3
17 9 12 13 -12 12 -84 19 -77 9z"/>
<path d="M1233 2930 c-25 -10 -31 -22 -10 -19 6 1 20 -1 30 -6 10 -4 21 -5 24
-1 4 3 -2 6 -11 6 -12 0 -16 5 -12 15 3 8 4 15 3 14 -1 0 -12 -4 -24 -9z"/>
<path d="M760 2920 c0 -5 9 -10 21 -10 11 0 17 5 14 10 -3 6 -13 10 -21 10 -8
0 -14 -4 -14 -10z"/>
<path d="M1290 2915 c7 -8 16 -12 21 -10 4 3 12 -3 18 -12 6 -10 11 -13 11 -7
0 13 -17 28 -44 38 -16 5 -17 4 -6 -9z"/>
<path d="M735 2910 c3 -5 8 -10 11 -10 2 0 4 5 4 10 0 6 -5 10 -11 10 -5 0 -7
-4 -4 -10z"/>
<path d="M1065 2910 c-15 -6 -11 -7 17 -7 23 1 33 4 25 9 -14 9 -16 9 -42 -2z"/>
<path d="M1442 2908 c5 -15 28 -23 28 -10 0 5 -7 13 -16 16 -10 4 -14 1 -12
-6z"/>
<path d="M1826 2905 c4 -9 0 -15 -10 -15 -9 0 -16 -4 -16 -10 0 -5 10 -10 21
-10 12 0 27 -7 34 -16 11 -15 14 -15 43 0 17 9 40 16 51 16 21 0 37 17 26 28
-3 3 -10 0 -15 -8 -8 -12 -10 -12 -10 4 0 13 -5 17 -20 13 -10 -3 -21 0 -23 6
-2 8 -9 6 -20 -5 -10 -9 -13 -19 -8 -22 5 -4 11 -1 13 6 3 8 9 8 24 0 16 -10
16 -11 2 -12 -9 0 -18 -6 -21 -12 -3 -10 -10 -10 -31 2 -15 8 -23 16 -17 18 9
3 9 8 0 18 -15 19 -30 18 -23 -1z"/>
<path d="M322 2890 c-7 -12 -10 -25 -7 -30 4 -6 -1 -10 -9 -10 -9 0 -16 -8
-16 -17 0 -15 2 -15 9 -4 5 8 26 15 47 16 33 2 38 6 39 29 1 31 -12 35 -23 6
-5 -15 -11 -17 -22 -9 -11 8 -12 12 -2 16 6 2 12 9 12 14 0 16 -15 10 -28 -11z"/>
<path d="M527 2903 c-4 -3 -1 -13 6 -21 10 -13 8 -14 -12 -7 -16 5 -21 4 -17
-4 4 -6 19 -11 33 -11 22 0 24 2 12 16 -10 13 -10 17 2 25 12 7 12 9 -2 9 -9
0 -19 -3 -22 -7z"/>
<path d="M1415 2900 c3 -5 8 -10 11 -10 2 0 4 5 4 10 0 6 -5 10 -11 10 -5 0
-7 -4 -4 -10z"/>
<path d="M1506 2895 c4 -8 8 -15 10 -15 2 0 4 7 4 15 0 8 -4 15 -10 15 -5 0
-7 -7 -4 -15z"/>
<path d="M400 2884 c0 -8 5 -12 10 -9 6 3 10 10 10 16 0 5 -4 9 -10 9 -5 0
-10 -7 -10 -16z"/>
<path d="M576 2885 c4 -8 11 -15 18 -15 6 -1 0 -7 -14 -16 l-25 -15 25 7 c33
9 33 9 18 33 -15 24 -30 28 -22 6z"/>
<path d="M650 2891 c-8 -6 -17 -8 -21 -5 -4 2 -5 -5 -2 -16 3 -11 13 -20 22
-19 10 0 11 2 4 6 -7 2 -13 9 -13 14 0 6 4 8 9 5 5 -3 11 1 15 9 6 17 6 18
-14 6z"/>
<path d="M1130 2890 c-18 -12 -2 -12 25 0 13 6 15 9 5 9 -8 0 -22 -4 -30 -9z"/>
<path d="M1600 2891 c0 -13 25 -20 39 -11 10 5 8 9 -4 14 -23 8 -35 8 -35 -3z"/>
<path d="M721 2878 c8 -7 20 -20 27 -28 11 -13 12 -13 6 4 -4 11 -2 21 7 27
10 6 3 9 -20 9 -29 0 -32 -2 -20 -12z"/>
<path d="M1238 2883 c7 -3 16 -2 19 1 4 3 -2 6 -13 5 -11 0 -14 -3 -6 -6z"/>
<path d="M1295 2880 c-16 -7 -17 -9 -3 -9 9 -1 20 4 23 9 7 11 7 11 -20 0z"/>
<path d="M670 2876 c0 -2 11 -11 25 -20 25 -17 25 -16 13 4 -11 17 -38 29 -38
16z"/>
<path d="M864 2868 c12 -7 21 -7 28 0 6 6 0 10 -18 10 -23 0 -24 -2 -10 -10z"/>
<path d="M1390 2869 c0 -14 18 -19 23 -7 3 10 8 9 22 -2 16 -13 18 -13 13 0
-5 15 -58 24 -58 9z"/>
<path d="M1650 2870 c-13 -8 -12 -10 3 -10 9 0 17 5 17 10 0 12 -1 12 -20 0z"/>
<path d="M455 2860 c4 -6 11 -8 16 -5 5 4 9 1 9 -4 0 -6 -5 -11 -11 -11 -8 0
-8 -4 0 -14 6 -7 24 -13 39 -13 15 0 21 2 14 4 -6 3 -9 10 -5 16 4 7 -1 6 -10
-2 -10 -8 -21 -11 -24 -7 -4 4 -1 11 7 17 13 8 13 10 0 19 -20 13 -43 13 -35
0z"/>
<path d="M1553 2863 c-26 -10 -12 -22 14 -12 20 7 28 6 35 -3 4 -7 8 -8 8 -3
0 6 6 2 13 -7 9 -11 18 -14 27 -8 10 6 3 13 -25 24 -39 16 -51 18 -72 9z"/>
<path d="M1752 2858 c-16 -16 -15 -25 2 -25 8 0 14 9 13 19 -2 21 0 21 -15 6z"/>
<path d="M423 2849 c9 -5 17 -14 17 -19 0 -6 -8 -9 -17 -8 -35 3 -54 -2 -48
-12 3 -5 13 -10 21 -10 9 0 12 5 8 11 -4 7 0 9 14 5 11 -4 23 -2 27 4 8 13
-12 40 -29 40 -6 0 -3 -5 7 -11z"/>
<path d="M1780 2852 c0 -4 14 -9 32 -10 37 -3 35 2 -4 12 -16 3 -28 3 -28 -2z"/>
<path d="M1917 2852 c-3 -4 -1 -16 4 -27 7 -18 8 -18 8 -2 1 10 7 17 14 16 24
-3 50 1 44 7 -9 10 -66 15 -70 6z"/>
<path d="M2002 2829 c0 -16 3 -27 8 -24 4 3 11 -1 13 -7 3 -8 6 -6 6 5 1 9 -5
17 -11 18 -7 0 -5 4 4 7 17 7 17 8 -1 19 -16 10 -18 8 -19 -18z"/>
<path d="M893 2843 c9 -2 23 -2 30 0 6 3 -1 5 -18 5 -16 0 -22 -2 -12 -5z"/>
<path d="M1705 2840 c-3 -6 1 -7 9 -4 18 7 21 14 7 14 -6 0 -13 -4 -16 -10z"/>
<path d="M306 2819 c-20 -12 -34 -15 -42 -8 -8 6 -22 4 -43 -8 -31 -18 -35
-27 -33 -72 1 -23 1 -23 -13 -5 -9 12 -14 14 -15 6 0 -7 -5 -10 -12 -6 -8 5
-9 -3 -5 -29 3 -21 2 -37 -3 -37 -5 0 -20 -11 -33 -23 -17 -18 -21 -30 -16
-50 5 -20 3 -26 -12 -30 -23 -6 -26 -55 -5 -63 14 -5 14 -13 -1 -51 -10 -27
-10 -37 -1 -50 5 -6 4 -14 -2 -18 -8 -5 -8 -11 1 -21 9 -11 9 -17 -1 -29 -9
-11 -10 -15 -1 -15 24 0 41 -29 41 -69 0 -31 5 -43 21 -51 13 -7 18 -17 15
-27 -4 -10 -2 -13 6 -10 9 3 14 -7 15 -28 2 -18 10 -45 18 -61 8 -16 15 -36
15 -44 0 -19 75 -42 150 -45 30 -1 60 -3 65 -5 6 -1 13 -2 16 -2 10 2 23 -87
20 -127 -2 -24 1 -32 10 -29 9 3 13 24 14 60 0 31 -3 54 -6 52 -7 -4 -19 19
-19 35 0 4 85 7 188 7 153 -1 192 -4 207 -16 17 -14 17 -14 6 8 -6 12 -17 22
-24 23 -7 1 -20 2 -29 3 -27 2 -16 21 12 23 14 0 43 4 65 7 22 4 33 3 25 -1
-8 -5 -17 -24 -18 -43 -2 -19 -9 -38 -15 -42 -9 -6 -8 -11 3 -18 8 -5 10 -10
4 -10 -17 0 0 -76 22 -102 26 -29 88 -55 151 -63 29 -4 55 -10 58 -14 6 -11
159 13 229 35 69 22 130 78 171 157 22 41 33 52 53 54 31 1 37 -4 100 -98 28
-42 58 -81 66 -88 9 -8 16 -20 16 -27 0 -8 6 -14 14 -14 20 0 76 -49 76 -66 0
-8 -15 -23 -32 -33 -63 -38 -108 -72 -108 -84 0 -8 3 -7 9 2 5 8 18 12 31 8
12 -3 20 -3 17 0 -3 3 6 16 20 29 23 22 43 29 66 25 5 -1 6 2 3 7 -2 4 2 22
11 39 10 22 20 30 31 26 35 -12 -4 14 -48 32 -25 10 -48 21 -52 24 -4 3 41 6
100 6 192 1 261 38 302 163 12 37 25 69 30 72 5 3 10 19 12 35 3 29 1 30 -47
37 -27 3 -85 7 -127 7 -92 1 -362 -35 -366 -49 -2 -6 -10 -10 -17 -10 -15 0
-31 -36 -26 -60 1 -9 -5 -5 -14 8 -9 12 -25 22 -36 22 -12 0 -19 7 -19 18 0
14 -13 20 -62 29 -35 6 -70 7 -79 2 -8 -4 -22 -3 -30 2 -11 7 -8 9 11 10 29 1
-53 26 -110 34 -19 2 -51 9 -71 13 -69 17 -220 13 -277 -7 -55 -19 -84 -38
-42 -28 14 4 43 7 65 7 27 0 35 3 26 9 -11 7 -9 10 8 16 26 8 63 -3 55 -17 -4
-6 1 -6 14 1 24 13 45 15 39 4 -3 -5 38 -10 91 -11 54 -2 115 -8 137 -12 25
-6 -28 -7 -135 -4 -104 4 -218 1 -280 -6 -58 -6 -160 -11 -228 -11 -68 0 -133
-4 -145 -9 -19 -7 -17 -9 14 -9 22 -1 39 -7 42 -15 10 -24 -285 -10 -341 16
-42 20 -59 40 -57 68 0 8 -2 17 -6 20 -13 10 -20 50 -9 50 14 0 -4 19 -43 44
-29 20 -37 42 -11 32 14 -6 15 -4 4 10 -12 13 -11 17 1 25 11 7 11 9 -4 9 -9
0 -16 3 -15 8 1 4 -3 17 -10 30 -7 12 -10 27 -7 32 3 5 0 12 -6 15 -5 4 -8 14
-4 22 3 9 -3 25 -12 36 -10 11 -13 17 -6 13 8 -4 15 2 19 19 3 14 14 30 23 36
12 8 12 9 1 6 -8 -2 -21 2 -28 9 -11 12 -10 14 5 14 15 0 16 2 3 10 -12 7 -11
12 5 27 11 10 21 33 22 52 3 43 18 60 46 54 l22 -6 -23 23 c-13 12 -21 25 -17
28 3 3 11 0 17 -6 7 -7 17 -12 23 -12 5 0 3 5 -5 10 -12 8 -10 10 10 10 22 1
23 2 8 11 -19 10 -25 49 -9 49 5 0 16 -7 25 -15 17 -17 36 -20 36 -5 0 6 -6 9
-12 8 -7 -2 -14 7 -16 20 -3 18 1 22 25 22 16 0 38 7 50 15 12 8 24 11 27 6 3
-5 -5 -12 -19 -15 -24 -6 -36 -26 -15 -26 6 0 10 5 10 10 0 15 58 12 63 -2 2
-7 7 -10 10 -7 4 3 -8 19 -26 36 l-32 31 -29 -19z m1821 -780 c48 -18 54 -46
27 -126 -19 -56 -56 -100 -101 -119 -43 -18 -157 -28 -226 -20 -71 9 -115 39
-149 101 -59 108 -22 147 151 160 47 3 87 8 90 10 9 10 180 5 208 -6z m-710
-27 c18 -6 41 -8 53 -5 15 4 20 1 19 -13 0 -11 -3 -14 -6 -6 -2 6 -9 12 -15
12 -6 0 -5 -6 2 -15 18 -21 6 -68 -30 -120 -63 -91 -142 -119 -319 -113 -170
5 -210 30 -226 141 -15 97 14 124 148 135 99 8 330 -2 374 -16z m-672 -12 c-3
-5 -31 -10 -61 -10 -30 0 -54 5 -54 10 0 6 27 10 61 10 37 0 58 -4 54 -10z
m790 -19 c-32 -31 -54 -26 -36 8 8 13 21 21 39 21 l27 0 -30 -29z"/>
<path d="M2033 2023 c-7 -2 -13 -11 -13 -19 0 -11 16 -14 65 -14 53 0 65 3 65
16 0 10 -6 14 -15 10 -8 -3 -15 -1 -15 4 0 10 -65 12 -87 3z"/>
<path d="M1807 1993 c-3 -5 26 -8 64 -9 64 -1 99 -13 99 -36 0 -5 -9 -4 -20 2
-31 17 -141 23 -170 11 -22 -10 -20 -11 18 -6 33 4 42 2 42 -10 0 -19 -61 -21
-90 -3 -16 10 -24 10 -40 0 -28 -17 -30 -16 -30 16 0 18 -3 23 -9 14 -4 -7 -6
-23 -4 -36 5 -22 7 -22 131 -21 70 0 132 3 137 7 6 3 21 2 34 -3 20 -8 22 -11
10 -27 -13 -15 -12 -16 3 -4 14 11 18 11 25 -2 5 -9 8 5 9 39 0 49 -2 54 -20
53 -12 0 -34 4 -49 11 -32 12 -133 15 -140 4z m113 -53 c0 -5 -6 -10 -14 -10
-8 0 -21 -3 -30 -6 -11 -4 -16 -1 -16 10 0 11 9 16 30 16 17 0 30 -4 30 -10z
m-180 -10 c0 -5 -7 -10 -16 -10 -8 0 -12 5 -9 10 3 6 10 10 16 10 5 0 9 -4 9
-10z"/>
<path d="M1720 1970 c-9 -6 -10 -10 -3 -10 6 0 15 5 18 10 8 12 4 12 -15 0z"/>
<path d="M1703 1865 c32 -29 44 -31 44 -10 0 8 -14 19 -30 25 -43 15 -45 12
-14 -15z"/>
<path d="M1835 1869 c-69 -10 -90 -17 -57 -18 13 -1 21 -5 18 -9 -2 -4 28 -6
67 -5 40 2 83 4 96 4 18 1 21 3 10 10 -11 7 -10 9 4 9 31 0 57 -20 57 -42 0
-16 3 -19 11 -11 15 15 -5 49 -33 56 -52 12 -117 15 -173 6z m85 -9 c-14 -4
-43 -8 -65 -8 l-40 1 40 7 c22 4 51 7 65 8 l25 0 -25 -8z"/>
<path d="M1295 2000 c-3 -5 1 -10 9 -10 9 0 16 5 16 10 0 6 -4 10 -9 10 -6 0
-13 -4 -16 -10z"/>
<path d="M1025 1981 c-52 -9 -109 -42 -113 -65 -4 -17 1 -18 35 -14 22 3 47 1
56 -4 11 -6 17 -5 17 2 0 5 -4 10 -10 10 -5 0 -10 5 -10 10 0 14 27 13 32 -1
2 -7 26 -12 52 -13 37 -1 51 3 61 18 11 15 20 17 52 11 l38 -8 -38 -7 c-20 -4
-41 -10 -45 -15 -4 -4 13 -4 38 1 25 4 60 7 78 6 20 -1 31 2 27 8 -3 5 -16 10
-29 10 -12 0 -28 6 -34 12 -21 21 -151 19 -226 -4 -60 -18 -90 -19 -73 -2 12
13 163 44 210 44 26 0 63 -7 82 -14 28 -12 35 -12 35 -2 0 23 -138 33 -235 17z
m105 -52 c0 -5 -7 -9 -15 -9 -8 0 -15 5 -15 12 0 9 -3 9 -12 0 -14 -14 -48
-16 -48 -3 0 11 46 18 73 13 9 -3 17 -8 17 -13z"/>
<path d="M1320 1961 c0 -6 14 -11 30 -11 17 0 30 -5 30 -11 0 -5 5 -7 11 -3
16 10 -3 25 -40 30 -18 3 -31 1 -31 -5z"/>
<path d="M1431 1911 c-18 -35 -44 -75 -59 -89 -21 -19 -22 -22 -6 -14 38 20
110 130 101 155 -2 7 -18 -17 -36 -52z"/>
<path d="M1226 1874 c-53 -20 -201 -28 -256 -16 -43 10 -70 8 -36 -3 52 -17
52 -17 31 -25 -34 -14 188 1 225 15 3 1 20 6 37 10 18 4 38 14 44 21 14 17 7
16 -45 -2z"/>
<path d="M1306 1869 c-11 -10 -15 -19 -10 -19 12 1 44 25 44 34 0 11 -15 5
-34 -15z"/>
<path d="M1845 2820 c4 -6 11 -8 16 -5 14 9 11 15 -7 15 -8 0 -12 -5 -9 -10z"/>
<path d="M1950 2810 c-8 -5 -11 -12 -8 -15 4 -4 17 0 30 9 24 17 5 23 -22 6z"/>
<path d="M555 2801 c-3 -6 -13 -8 -23 -5 -9 2 -7 -1 6 -7 16 -9 26 -9 33 -2 7
7 7 13 1 17 -6 3 -13 2 -17 -3z"/>
<path d="M794 2802 c-13 -8 -15 -44 -2 -36 5 4 7 9 4 12 -3 3 -1 11 5 19 13
14 10 17 -7 5z"/>
<path d="M1010 2800 c0 -6 7 -10 15 -10 8 0 15 2 15 4 0 2 -7 6 -15 10 -8 3
-15 1 -15 -4z"/>
<path d="M1695 2800 c3 -5 11 -10 16 -10 6 0 7 5 4 10 -3 6 -11 10 -16 10 -6
0 -7 -4 -4 -10z"/>
<path d="M1865 2800 c-3 -5 1 -10 10 -10 9 0 13 5 10 10 -3 6 -8 10 -10 10 -2
0 -7 -4 -10 -10z"/>
<path d="M738 2793 c7 -3 16 -2 19 1 4 3 -2 6 -13 5 -11 0 -14 -3 -6 -6z"/>
<path d="M1110 2796 c0 -2 7 -6 15 -10 8 -3 15 -1 15 4 0 6 -7 10 -15 10 -8 0
-15 -2 -15 -4z"/>
<path d="M1770 2796 c0 -2 7 -9 15 -16 9 -7 15 -8 15 -2 0 5 -7 12 -15 16 -8
3 -15 4 -15 2z"/>
<path d="M1901 2787 c-8 -10 -7 -14 4 -14 8 0 15 6 15 14 0 7 -2 13 -4 13 -2
0 -9 -6 -15 -13z"/>
<path d="M1163 2783 c9 -2 23 -2 30 0 6 3 -1 5 -18 5 -16 0 -22 -2 -12 -5z"/>
<path d="M1608 2783 c7 -3 16 -2 19 1 4 3 -2 6 -13 5 -11 0 -14 -3 -6 -6z"/>
<path d="M1963 2783 c-7 -2 -13 -11 -13 -19 0 -8 -6 -11 -17 -7 -15 5 -16 3
-6 -7 11 -12 16 -10 33 8 12 12 28 22 37 22 15 0 14 -2 -2 -14 -18 -13 -18
-14 6 -26 22 -12 23 -12 10 3 -9 11 -10 17 -2 17 11 0 15 -13 12 -39 -2 -7 3
-11 10 -9 18 6 31 60 18 73 -7 6 -10 6 -9 0 5 -22 -1 -26 -16 -11 -15 16 -37
19 -61 9z"/>
<path d="M258 2773 c6 -2 18 -2 25 0 6 3 1 5 -13 5 -14 0 -19 -2 -12 -5z"/>
<path d="M1826 2765 c-3 -8 -1 -15 4 -15 6 0 10 7 10 15 0 8 -2 15 -4 15 -2 0
-6 -7 -10 -15z"/>
<path d="M338 2763 c6 -2 18 -2 25 0 6 3 1 5 -13 5 -14 0 -19 -2 -12 -5z"/>
<path d="M667 2756 c-4 -9 0 -13 11 -12 9 2 18 8 20 14 5 17 -25 15 -31 -2z"/>
<path d="M1741 2761 c-7 -5 -9 -11 -5 -14 5 -3 15 1 22 9 14 16 5 18 -17 5z"/>
<path d="M590 2745 c7 -9 15 -13 17 -11 7 7 -7 26 -19 26 -6 0 -6 -6 2 -15z"/>
<path d="M1861 2746 c-9 -10 -8 -16 4 -26 13 -11 15 -8 15 14 0 30 -3 32 -19
12z"/>
<path d="M297 2735 c-13 -9 -15 -14 -5 -17 18 -6 88 12 88 23 0 12 -17 11 -25
-1 -4 -6 -13 -7 -23 -1 -12 6 -23 5 -35 -4z"/>
<path d="M908 2743 c7 -3 16 -2 19 1 4 3 -2 6 -13 5 -11 0 -14 -3 -6 -6z"/>
<path d="M1795 2740 c3 -5 8 -10 11 -10 2 0 4 5 4 10 0 6 -5 10 -11 10 -5 0
-7 -4 -4 -10z"/>
<path d="M1966 2726 c3 -9 11 -16 16 -16 13 0 5 23 -10 28 -7 2 -10 -2 -6 -12z"/>
<path d="M1663 2715 c0 -8 4 -12 9 -9 5 3 6 10 3 15 -9 13 -12 11 -12 -6z"/>
<path d="M1940 2720 c0 -5 5 -10 11 -10 5 0 7 5 4 10 -3 6 -8 10 -11 10 -2 0
-4 -4 -4 -10z"/>
<path d="M405 2709 c-11 -17 1 -21 15 -4 8 9 8 15 2 15 -6 0 -14 -5 -17 -11z"/>
<path d="M1016 2705 c-3 -8 -1 -15 4 -15 6 0 10 7 10 15 0 8 -2 15 -4 15 -2 0
-6 -7 -10 -15z"/>
<path d="M1765 2710 c-3 -5 3 -10 15 -10 12 0 18 5 15 10 -3 6 -10 10 -15 10
-5 0 -12 -4 -15 -10z"/>
<path d="M275 2700 c27 -12 43 -12 25 0 -8 5 -22 9 -30 9 -10 0 -8 -3 5 -9z"/>
<path d="M1310 2706 c0 -2 7 -7 16 -10 8 -3 12 -2 9 4 -6 10 -25 14 -25 6z"/>
<path d="M1440 2700 c0 -5 5 -10 11 -10 5 0 7 5 4 10 -3 6 -8 10 -11 10 -2 0
-4 -4 -4 -10z"/>
<path d="M235 2690 c-3 -5 -1 -10 4 -10 6 0 11 5 11 10 0 6 -2 10 -4 10 -3 0
-8 -4 -11 -10z"/>
<path d="M334 2685 c-18 -14 -18 -14 4 -8 12 3 22 9 22 14 0 12 -3 11 -26 -6z"/>
<path d="M627 2689 c7 -7 15 -10 18 -7 3 3 -2 9 -12 12 -14 6 -15 5 -6 -5z"/>
<path d="M1920 2690 c0 -5 5 -10 10 -10 6 0 10 5 10 10 0 6 -4 10 -10 10 -5 0
-10 -4 -10 -10z"/>
<path d="M1963 2688 c-2 -5 5 -8 17 -8 17 0 20 -4 15 -22 -4 -17 -4 -19 3 -9
8 11 12 10 20 -6 8 -14 8 -23 0 -31 -7 -7 -8 -12 -2 -12 5 0 2 -5 -6 -10 -12
-8 -13 -11 -2 -22 11 -11 17 -9 31 9 10 12 21 20 23 17 3 -2 11 4 19 13 10 14
10 16 0 6 -7 -6 -20 -9 -27 -6 -18 7 -18 37 1 53 8 7 12 17 8 23 -3 6 -10 0
-15 -14 -7 -19 -11 -21 -18 -9 -5 9 -5 19 2 27 8 11 3 13 -27 11 -20 -2 -39
-6 -42 -10z"/>
<path d="M381 2671 c-9 -6 -10 -11 -2 -15 6 -4 11 -2 11 4 0 6 5 8 12 4 7 -4
8 -3 4 4 -8 14 -7 14 -25 3z"/>
<path d="M240 2660 c0 -13 11 -13 30 0 12 8 11 10 -7 10 -13 0 -23 -4 -23 -10z"/>
<path d="M425 2660 c-3 -6 1 -7 9 -4 18 7 21 14 7 14 -6 0 -13 -4 -16 -10z"/>
<path d="M478 2663 c7 -3 16 -2 19 1 4 3 -2 6 -13 5 -11 0 -14 -3 -6 -6z"/>
<path d="M608 2663 c7 -3 16 -2 19 1 4 3 -2 6 -13 5 -11 0 -14 -3 -6 -6z"/>
<path d="M1633 2663 c9 -2 23 -2 30 0 6 3 -1 5 -18 5 -16 0 -22 -2 -12 -5z"/>
<path d="M320 2656 c0 -2 7 -6 15 -10 8 -3 15 -1 15 4 0 6 -7 10 -15 10 -8 0
-15 -2 -15 -4z"/>
<path d="M2100 2649 c0 -5 5 -7 10 -4 6 3 10 8 10 11 0 2 -4 4 -10 4 -5 0 -10
-5 -10 -11z"/>
<path d="M275 2641 c-3 -6 3 -9 14 -8 11 0 17 5 15 9 -7 11 -22 10 -29 -1z"/>
<path d="M205 2630 c3 -5 8 -10 11 -10 2 0 4 5 4 10 0 6 -5 10 -11 10 -5 0 -7
-4 -4 -10z"/>
<path d="M1761 2607 c-13 -21 -12 -21 5 -5 10 10 16 20 13 22 -3 3 -11 -5 -18
-17z"/>
<path d="M1920 2620 c0 -5 10 -10 23 -10 18 0 19 2 7 10 -19 13 -30 13 -30 0z"/>
<path d="M150 2606 c0 -2 7 -9 15 -16 9 -7 15 -8 15 -2 0 5 -7 12 -15 16 -8 3
-15 4 -15 2z"/>
<path d="M318 2603 c7 -3 16 -2 19 1 4 3 -2 6 -13 5 -11 0 -14 -3 -6 -6z"/>
<path d="M363 2603 c9 -2 23 -2 30 0 6 3 -1 5 -18 5 -16 0 -22 -2 -12 -5z"/>
<path d="M1966 2593 c-6 -14 -5 -15 5 -6 7 7 10 15 7 18 -3 3 -9 -2 -12 -12z"/>
<path d="M215 2590 c-3 -5 -1 -10 4 -10 6 0 11 5 11 10 0 6 -2 10 -4 10 -3 0
-8 -4 -11 -10z"/>
<path d="M1398 2583 c7 -3 16 -2 19 1 4 3 -2 6 -13 5 -11 0 -14 -3 -6 -6z"/>
<path d="M460 2570 c-9 -6 -10 -10 -3 -10 6 0 15 5 18 10 8 12 4 12 -15 0z"/>
<path d="M1260 2568 c0 -20 44 -26 56 -7 4 8 -1 9 -16 4 -15 -5 -25 -2 -31 6
-7 11 -9 10 -9 -3z"/>
<path d="M1935 2571 c-3 -5 -1 -12 5 -16 5 -3 10 1 10 9 0 18 -6 21 -15 7z"/>
<path d="M558 2563 c7 -3 16 -2 19 1 4 3 -2 6 -13 5 -11 0 -14 -3 -6 -6z"/>
<path d="M1374 2545 c5 -12 23 -29 38 -38 31 -18 28 -2 -4 21 -10 7 -18 19
-18 26 0 7 -6 13 -13 13 -10 0 -11 -6 -3 -22z"/>
<path d="M1566 2551 c10 -10 21 -17 23 -15 2 2 9 -1 16 -6 8 -6 16 -5 26 3 8
6 13 11 11 11 -2 -1 -24 5 -49 12 -46 14 -46 14 -27 -5z"/>
<path d="M1655 2560 c3 -5 11 -10 16 -10 6 0 7 5 4 10 -3 6 -11 10 -16 10 -6
0 -7 -4 -4 -10z"/>
<path d="M1697 2564 c-12 -12 -8 -44 6 -45 6 0 3 -4 -8 -9 -13 -6 -3 -7 28 -3
30 4 47 2 47 -5 0 -6 -6 -13 -12 -16 -7 -3 -2 -5 12 -4 55 4 96 -31 150 -126
25 -46 60 -151 60 -184 0 -15 5 -22 13 -19 6 2 10 11 8 18 -2 8 -3 35 -3 62 1
26 -3 47 -7 47 -11 0 -12 69 -1 90 15 29 1 53 -26 46 -12 -3 -34 -1 -48 6 -22
9 -24 14 -14 27 7 9 9 13 4 9 -5 -4 -23 4 -41 17 -17 14 -42 25 -53 25 -12 0
-22 3 -22 8 0 14 -48 30 -59 19 -10 -10 -13 -6 -23 31 -2 7 -7 10 -11 6z m267
-167 c3 3 6 -1 6 -10 0 -9 -3 -17 -6 -17 -13 0 -44 22 -44 31 0 6 6 6 19 0 10
-6 21 -7 25 -4z"/>
<path d="M286 2544 c-4 -9 -4 -19 -1 -22 2 -3 7 3 11 12 4 9 4 19 1 22 -2 3
-7 -3 -11 -12z"/>
<path d="M340 2549 c0 -5 5 -7 10 -4 6 3 10 8 10 11 0 2 -4 4 -10 4 -5 0 -10
-5 -10 -11z"/>
<path d="M1335 2550 c3 -5 8 -10 11 -10 2 0 4 5 4 10 0 6 -5 10 -11 10 -5 0
-7 -4 -4 -10z"/>
<path d="M1458 2553 c6 -2 12 -10 12 -17 0 -7 9 -21 20 -31 18 -17 20 -17 14
-2 -3 9 -10 17 -14 17 -4 0 -10 9 -13 20 -3 11 -11 20 -19 19 -10 0 -10 -2 0
-6z"/>
<path d="M1513 2540 c6 -11 15 -20 19 -20 12 0 -3 28 -18 34 -11 4 -12 2 -1
-14z"/>
<path d="M1815 2550 c3 -5 8 -10 11 -10 2 0 4 5 4 10 0 6 -5 10 -11 10 -5 0
-7 -4 -4 -10z"/>
<path d="M2040 2547 c0 -9 -4 -17 -10 -17 -5 0 -10 5 -10 11 0 5 -4 7 -10 4
-21 -13 -9 -25 24 -22 29 2 32 4 23 17 -6 8 -13 17 -14 19 -2 2 -3 -3 -3 -12z"/>
<path d="M884 2535 c20 -11 33 -12 40 -5 5 5 8 10 6 11 -3 0 -21 2 -40 5 l-35
4 29 -15z"/>
<path d="M965 2540 c-4 -6 5 -10 19 -10 14 0 26 5 26 10 0 6 -9 10 -19 10 -11
0 -23 -4 -26 -10z"/>
<path d="M1075 2540 c6 -9 0 -12 -23 -8 -17 2 -29 1 -26 -4 8 -13 76 -10 72 4
-2 6 -10 14 -18 16 -8 3 -10 0 -5 -8z"/>
<path d="M1160 2541 c0 -9 -9 -12 -23 -9 -13 3 -24 0 -24 -6 0 -7 16 -10 40
-7 22 2 35 6 31 10 -5 3 -12 10 -16 15 -5 5 -8 4 -8 -3z"/>
<path d="M166 2524 c-5 -14 -4 -15 9 -4 17 14 19 20 6 20 -5 0 -12 -7 -15 -16z"/>
<path d="M1288 2533 c7 -3 16 -2 19 1 4 3 -2 6 -13 5 -11 0 -14 -3 -6 -6z"/>
<path d="M1440 2531 c0 -5 5 -13 10 -16 6 -3 10 -2 10 4 0 5 -4 13 -10 16 -5
3 -10 2 -10 -4z"/>
<path d="M601 2514 c0 -11 3 -14 6 -6 3 7 2 16 -1 19 -3 4 -6 -2 -5 -13z"/>
<path d="M788 2516 c-10 -7 -18 -24 -17 -37 1 -23 1 -23 11 4 6 17 17 27 29
27 11 0 17 5 14 10 -8 13 -16 12 -37 -4z"/>
<path d="M863 2510 c-13 -5 -23 -12 -23 -15 0 -9 16 -5 36 10 22 16 19 18 -13
5z"/>
<path d="M1974 2504 c15 -15 15 -18 1 -40 -14 -21 -14 -24 4 -34 28 -15 35
-12 20 7 -10 11 -10 14 -1 9 6 -4 12 -2 12 3 0 6 7 11 15 11 8 0 15 5 15 10 0
6 7 10 15 10 15 0 20 12 9 23 -4 3 -13 0 -21 -8 -8 -8 -20 -15 -26 -15 -8 0
-7 3 2 9 15 10 8 15 -33 25 -26 7 -27 6 -12 -10z"/>
<path d="M1525 2500 c3 -5 8 -10 11 -10 2 0 4 5 4 10 0 6 -5 10 -11 10 -5 0
-7 -4 -4 -10z"/>
<path d="M1060 2490 c-9 -6 -10 -10 -3 -10 6 0 15 5 18 10 8 12 4 12 -15 0z"/>
<path d="M210 2470 c0 -5 5 -10 11 -10 5 0 7 5 4 10 -3 6 -8 10 -11 10 -2 0
-4 -4 -4 -10z"/>
<path d="M711 2438 c-1 -21 -5 -22 -32 -7 -18 9 -19 8 -7 -10 14 -23 53 -28
78 -10 12 9 11 10 -7 6 -16 -4 -23 0 -26 17 -3 15 -5 16 -6 4z"/>
<path d="M748 2433 c7 -3 16 -2 19 1 4 3 -2 6 -13 5 -11 0 -14 -3 -6 -6z"/>
<path d="M1485 2400 c-3 -5 -1 -10 4 -10 6 0 11 5 11 10 0 6 -2 10 -4 10 -3 0
-8 -4 -11 -10z"/>
<path d="M654 2354 c3 -8 6 -18 6 -20 0 -2 7 -4 15 -4 18 0 9 26 -12 34 -11 5
-13 2 -9 -10z"/>
<path d="M1200 2360 c-8 -5 -10 -10 -5 -10 6 0 17 5 25 10 8 5 11 10 5 10 -5
0 -17 -5 -25 -10z"/>
<path d="M1263 2363 c9 -2 23 -2 30 0 6 3 -1 5 -18 5 -16 0 -22 -2 -12 -5z"/>
<path d="M1810 2350 c-13 -9 -13 -10 0 -10 8 0 22 5 30 10 13 9 13 10 0 10 -8
0 -22 -5 -30 -10z"/>
<path d="M706 2335 c4 -8 10 -12 15 -9 5 3 9 0 9 -5 0 -6 -4 -11 -9 -11 -5 0
-12 -8 -15 -17 -6 -14 -3 -14 15 4 23 23 20 53 -5 53 -10 0 -13 -6 -10 -15z"/>
<path d="M626 2325 c4 -8 13 -15 21 -15 12 0 12 2 -1 15 -8 8 -17 15 -20 15
-3 0 -3 -7 0 -15z"/>
<path d="M1448 2333 c7 -3 16 -2 19 1 4 3 -2 6 -13 5 -11 0 -14 -3 -6 -6z"/>
<path d="M1696 2331 c-3 -5 5 -11 19 -13 30 -6 32 -2 6 12 -11 6 -22 6 -25 1z"/>
<path d="M1762 2324 c-7 -8 -8 -14 -3 -14 10 0 25 19 20 25 -2 1 -10 -3 -17
-11z"/>
<path d="M1540 2309 c0 -5 5 -7 10 -4 6 3 10 8 10 11 0 2 -4 4 -10 4 -5 0 -10
-5 -10 -11z"/>
<path d="M1875 2300 c10 -11 20 -20 22 -20 2 0 -2 9 -9 20 -7 11 -17 20 -22
20 -5 0 -1 -9 9 -20z"/>
<path d="M750 2301 c0 -5 9 -7 20 -4 11 3 20 7 20 9 0 2 -9 4 -20 4 -11 0 -20
-4 -20 -9z"/>
<path d="M660 2285 c0 -8 -9 -19 -20 -25 -11 -6 -20 -16 -19 -23 0 -9 2 -9 5
0 3 7 12 9 20 6 16 -6 19 -39 4 -48 -5 -3 -10 -11 -10 -18 0 -6 7 -1 16 11 10
15 13 32 9 51 -3 17 -2 32 4 36 14 8 14 25 1 25 -5 0 -10 -7 -10 -15z"/>
<path d="M1780 2296 c0 -2 7 -7 16 -10 8 -3 12 -2 9 4 -6 10 -25 14 -25 6z"/>
<path d="M1738 2283 c7 -3 16 -2 19 1 4 3 -2 6 -13 5 -11 0 -14 -3 -6 -6z"/>
<path d="M1824 2278 c-4 -6 -3 -8 4 -4 5 3 12 1 14 -5 2 -6 15 -9 28 -7 24 3
24 4 -7 15 -24 9 -34 9 -39 1z"/>
<path d="M724 2266 c-20 -11 -20 -14 -7 -31 14 -20 15 -20 11 0 -2 15 2 20 20
19 12 0 22 5 22 13 0 16 -17 15 -46 -1z"/>
<path d="M685 2231 c-3 -5 -1 -12 5 -16 5 -3 10 1 10 9 0 18 -6 21 -15 7z"/>
<path d="M1260 2231 c0 -5 9 -7 20 -4 11 3 20 7 20 9 0 2 -9 4 -20 4 -11 0
-20 -4 -20 -9z"/>
<path d="M1426 2232 c-7 -12 40 -29 51 -18 4 3 -3 6 -14 6 -12 0 -23 5 -25 12
-3 9 -6 9 -12 0z"/>
<path d="M1358 2223 c6 -2 18 -2 25 0 6 3 1 5 -13 5 -14 0 -19 -2 -12 -5z"/>
<path d="M1700 2220 c-20 -6 -21 -8 -5 -8 11 0 29 3 40 8 25 11 -1 11 -35 0z"/>
<path d="M526 2201 c-4 -7 -1 -9 7 -5 8 3 18 1 21 -5 4 -6 13 -8 21 -4 9 3 15
-1 15 -10 0 -10 8 -15 20 -14 19 1 19 2 3 19 -22 22 -78 34 -87 19z"/>
<path d="M390 2190 c0 -5 5 -10 10 -10 6 0 10 5 10 10 0 6 -4 10 -10 10 -5 0
-10 -4 -10 -10z"/>
<path d="M681 2184 c0 -11 3 -14 6 -6 3 7 2 16 -1 19 -3 4 -6 -2 -5 -13z"/>
<path d="M870 2181 c0 -4 11 -6 25 -3 14 2 25 6 25 8 0 2 -11 4 -25 4 -14 0
-25 -4 -25 -9z"/>
<path d="M282 2171 c-11 -6 -9 -9 6 -13 15 -4 19 -2 15 8 -6 16 -4 16 -21 5z"/>
<path d="M451 2173 c0 -6 -4 -20 -7 -30 -5 -14 -4 -15 5 -7 7 7 11 20 8 30 -3
11 -5 14 -6 7z"/>
<path d="M1905 2170 c-19 -8 -19 -9 3 -9 12 -1 22 4 22 9 0 6 -1 10 -2 9 -2 0
-12 -4 -23 -9z"/>
<path d="M513 2156 c0 -22 20 -26 42 -10 16 12 16 14 3 14 -9 0 -23 2 -31 5
-8 4 -14 0 -14 -9z"/>
<path d="M916 2151 c-3 -4 6 -6 19 -3 14 2 25 6 25 8 0 8 -39 4 -44 -5z"/>
<path d="M1785 2150 c3 -5 8 -10 11 -10 2 0 4 5 4 10 0 6 -5 10 -11 10 -5 0
-7 -4 -4 -10z"/>
<path d="M1828 2153 c7 -3 16 -2 19 1 4 3 -2 6 -13 5 -11 0 -14 -3 -6 -6z"/>
<path d="M490 2121 c0 -5 5 -13 10 -16 6 -3 10 -2 10 4 0 5 -4 13 -10 16 -5 3
-10 2 -10 -4z"/>
<path d="M695 2120 c3 -5 8 -10 11 -10 2 0 4 5 4 10 0 6 -5 10 -11 10 -5 0 -7
-4 -4 -10z"/>
<path d="M1826 2088 c3 -4 -5 -8 -18 -8 -13 0 -47 -6 -76 -13 -36 -10 -53 -11
-56 -3 -3 7 -5 6 -5 -1 -1 -7 -8 -13 -17 -13 -8 0 -13 -4 -10 -9 3 -5 33 -3
68 4 51 11 230 34 265 35 4 0 1 5 -7 10 -18 12 -152 11 -144 -2z"/>
<path d="M505 2075 c-3 -8 -7 -22 -10 -30 -2 -8 1 -15 8 -15 7 0 12 13 12 30
1 33 -3 38 -10 15z"/>
<path d="M340 2028 c-11 -4 -26 -6 -33 -4 -6 1 -9 1 -4 -1 4 -3 5 -9 2 -13 -3
-5 9 -5 27 1 18 5 59 9 90 9 33 0 58 4 58 10 0 11 -108 10 -140 -2z"/>
<path d="M1578 2033 c6 -2 18 -2 25 0 6 3 1 5 -13 5 -14 0 -19 -2 -12 -5z"/>
<path d="M1605 2010 c3 -5 8 -10 11 -10 2 0 4 5 4 10 0 6 -5 10 -11 10 -5 0
-7 -4 -4 -10z"/>
<path d="M150 1954 c-18 -45 -11 -84 31 -179 50 -114 84 -152 144 -161 42 -6
45 -9 51 -43 3 -20 10 -49 15 -66 7 -23 8 -16 6 33 -3 54 -1 65 16 73 10 6 20
9 21 7 1 -2 10 -19 19 -38 19 -40 21 -25 6 40 -5 24 -12 65 -14 90 -4 54 -19
98 -28 83 -4 -6 -1 -25 7 -43 14 -34 7 -103 -12 -122 -14 -14 -108 4 -105 20
2 7 -4 12 -12 12 -8 0 -15 4 -15 10 0 5 -7 7 -15 4 -18 -7 -20 7 -3 24 9 9 9
12 -3 12 -24 0 -52 37 -46 59 3 14 -1 22 -14 26 -23 8 -24 33 -4 83 25 59 39
64 91 35 24 -14 44 -28 44 -33 0 -12 -27 -20 -68 -21 -20 0 -31 -3 -24 -6 21
-8 13 -23 -13 -23 -28 0 -33 -15 -9 -24 10 -4 37 6 65 24 26 16 51 25 54 20 3
-5 -11 -16 -31 -25 -40 -16 -41 -32 -2 -19 13 4 25 9 28 9 21 6 53 24 43 24
-6 1 -15 10 -18 21 -9 27 -74 90 -94 90 -9 0 -29 7 -45 15 -40 21 -55 19 -66
-11z m50 -21 c0 -5 -5 -15 -10 -23 -8 -12 -10 -11 -10 8 0 12 5 22 10 22 6 0
10 -3 10 -7z"/>
<path d="M486 1905 c-3 -9 0 -15 9 -15 16 0 20 16 6 24 -5 3 -11 -1 -15 -9z"/>
<path d="M735 1911 c-28 -6 -28 -7 -8 -13 13 -4 27 0 34 8 6 8 10 13 8 13 -2
-1 -17 -4 -34 -8z"/>
<path d="M787 1914 c-13 -13 5 -24 36 -23 28 2 29 2 7 6 -14 3 -28 9 -31 14
-3 5 -8 6 -12 3z"/>
<path d="M265 1900 c-3 -5 -1 -10 4 -10 6 0 11 5 11 10 0 6 -2 10 -4 10 -3 0
-8 -4 -11 -10z"/>
<path d="M360 1906 c0 -2 7 -7 16 -10 8 -3 12 -2 9 4 -6 10 -25 14 -25 6z"/>
<path d="M511 1864 c0 -11 3 -14 6 -6 3 7 2 16 -1 19 -3 4 -6 -2 -5 -13z"/>
<path d="M386 1862 c9 -5 8 -17 -3 -44 -12 -31 -21 -39 -51 -44 -37 -7 -94
-33 -77 -35 6 -1 25 0 44 1 21 1 31 -2 27 -9 -8 -13 33 -24 65 -19 21 4 20 5
-10 14 -19 5 -37 16 -39 24 -3 9 0 11 12 7 53 -22 52 -22 37 -4 -11 14 -11 22
-1 47 7 16 16 30 21 30 15 0 10 28 -7 34 -21 8 -32 7 -18 -2z"/>
<path d="M568 1863 c7 -3 16 -2 19 1 4 3 -2 6 -13 5 -11 0 -14 -3 -6 -6z"/>
<path d="M775 1850 c-13 -6 -5 -7 25 -3 25 3 47 7 49 9 9 8 -55 2 -74 -6z"/>
<path d="M793 1820 c-13 -5 -23 -11 -23 -14 0 -5 82 13 89 20 8 8 -43 3 -66
-6z"/>
<path d="M510 1795 c0 -2 7 -8 15 -15 12 -10 15 -10 15 2 0 8 -7 15 -15 15 -8
0 -15 -1 -15 -2z"/>
<path d="M686 1755 c-4 -13 -2 -14 14 -5 23 13 26 20 6 20 -8 0 -16 -7 -20
-15z"/>
<path d="M545 1740 c27 -12 43 -12 25 0 -8 5 -22 9 -30 9 -10 0 -8 -3 5 -9z"/>
<path d="M650 1729 c0 -5 5 -7 10 -4 6 3 10 8 10 11 0 2 -4 4 -10 4 -5 0 -10
-5 -10 -11z"/>
<path d="M1275 1719 c-33 -10 -67 -22 -75 -26 -8 -3 -18 -5 -22 -5 -5 1 -8 -5
-8 -13 0 -12 8 -11 47 6 25 11 52 18 60 15 7 -3 13 -2 13 3 0 4 29 13 65 19
66 11 125 2 125 -20 0 -5 5 -6 11 -3 7 5 4 14 -7 26 -23 26 -127 25 -209 -2z"/>
<path d="M2087 1719 c-4 -13 -2 -26 3 -27 6 -2 7 -9 4 -14 -12 -19 -13 -59 -1
-51 7 4 8 0 4 -11 -4 -10 -7 -20 -7 -22 0 -2 -7 -4 -16 -4 -8 0 -12 -4 -9 -10
9 -14 -62 -104 -141 -180 -37 -36 -79 -82 -94 -102 -15 -21 -30 -35 -33 -32
-15 16 97 159 116 147 6 -3 7 -1 3 5 -6 11 38 82 57 90 4 2 7 17 7 34 0 23
-13 43 -55 86 -30 31 -57 53 -60 50 -3 -3 17 -27 44 -53 74 -70 70 -93 -34
-203 -38 -40 -92 -130 -153 -252 -15 -30 -30 -56 -34 -58 -5 -2 -8 -9 -8 -15
1 -16 40 32 40 48 0 7 7 18 16 26 13 10 17 10 24 -1 5 -8 5 -21 -1 -31 -12
-23 -12 -26 6 -26 8 0 12 4 9 9 -12 20 19 4 107 -54 87 -58 94 -66 95 -97 l1
-33 -41 7 c-23 4 -50 8 -61 10 -44 6 -123 49 -140 75 -15 23 -25 28 -54 25
-19 -1 -39 -9 -45 -17 -16 -21 -44 -29 -121 -35 -130 -8 -150 -21 -35 -21 84
0 115 4 153 20 26 11 47 24 47 29 0 5 4 9 10 9 13 0 44 -63 84 -173 28 -77 32
-100 26 -137 -9 -57 -18 -77 -36 -84 -9 -3 -12 -10 -9 -16 10 -16 23 -12 30
10 4 11 11 18 16 15 5 -4 9 -1 9 6 0 7 3 9 7 6 3 -4 12 -2 20 4 10 9 18 8 33
-6 11 -10 20 -23 20 -28 0 -6 9 -20 20 -32 16 -17 18 -27 11 -53 -6 -19 -6
-32 -1 -32 5 0 6 -7 3 -17 -5 -12 -3 -14 8 -8 12 8 12 6 0 -9 -12 -15 -12 -17
0 -14 21 5 26 -82 5 -94 -19 -11 -21 -29 -4 -46 9 -9 16 -8 30 5 17 15 18 14
18 -25 0 -22 5 -44 10 -47 6 -3 10 -19 10 -35 0 -16 -4 -32 -10 -35 -5 -3 -10
-11 -10 -18 0 -6 7 -2 15 9 8 10 15 15 16 9 1 -5 2 -21 3 -35 2 -14 7 -36 13
-50 9 -20 8 -27 -5 -37 -13 -11 -13 -13 -1 -13 8 0 20 -14 27 -30 24 -52 31
-22 13 48 -10 37 -33 128 -50 202 -17 74 -38 158 -46 186 -8 28 -15 67 -15 86
0 25 -11 53 -35 89 -20 29 -34 58 -31 66 3 7 0 13 -7 13 -7 0 -20 19 -30 43
-10 23 -29 63 -43 90 -13 26 -24 53 -24 61 0 8 -6 16 -12 19 -7 2 -10 7 -7 11
6 6 73 -7 181 -35 27 -7 51 -9 54 -6 4 4 9 28 12 55 l4 49 -73 49 c-40 27 -78
51 -84 54 -22 11 -85 52 -85 56 0 24 86 133 180 229 157 161 192 230 156 315
-13 31 -13 31 -19 9z m-287 -466 c-1 -5 -9 -23 -19 -42 -12 -23 -20 -30 -26
-21 -4 7 -3 15 2 19 6 3 13 16 17 29 7 20 27 32 26 15z m57 -547 c-2 -6 -14
-12 -26 -14 -20 -3 -21 -1 -12 17 12 21 45 19 38 -3z m96 -351 c4 -8 2 -17 -3
-20 -6 -4 -10 3 -10 14 0 25 6 27 13 6z"/>
<path d="M815 1710 c-3 -6 1 -7 9 -4 18 7 21 14 7 14 -6 0 -13 -4 -16 -10z"/>
<path d="M290 1696 c0 -2 7 -9 15 -16 12 -10 15 -10 15 4 0 9 -7 16 -15 16 -8
0 -15 -2 -15 -4z"/>
<path d="M364 1675 c-10 -8 -14 -14 -9 -15 15 0 40 18 34 24 -3 3 -14 -1 -25
-9z"/>
<path d="M1270 1672 c0 -30 86 -72 147 -72 24 0 32 -4 27 -12 -6 -10 -4 -10 7
0 18 17 39 15 83 -7 36 -19 63 -25 96 -22 8 1 -19 15 -60 31 -55 22 -92 30
-138 30 -63 0 -119 19 -135 46 -9 15 -27 19 -27 6z"/>
<path d="M580 1640 c-6 -11 -7 -20 -2 -20 6 0 12 9 15 20 3 11 3 20 1 20 -2 0
-8 -9 -14 -20z"/>
<path d="M1730 1650 c-9 -6 -10 -10 -3 -10 6 0 15 5 18 10 8 12 4 12 -15 0z"/>
<path d="M820 1639 c0 -5 5 -7 10 -4 6 3 10 8 10 11 0 2 -4 4 -10 4 -5 0 -10
-5 -10 -11z"/>
<path d="M890 1630 c0 -5 5 -10 10 -10 6 0 10 5 10 10 0 6 -4 10 -10 10 -5 0
-10 -4 -10 -10z"/>
<path d="M1130 1622 c-112 -74 -191 -136 -196 -156 -3 -13 1 -39 9 -59 9 -19
12 -39 9 -43 -4 -4 -2 -4 4 -1 8 5 8 17 1 45 -10 39 -3 92 12 92 5 0 7 -8 4
-19 -3 -10 0 -22 6 -25 7 -5 9 4 7 24 -3 23 0 30 13 28 8 -2 16 3 16 11 0 8 6
16 14 19 8 3 11 0 7 -7 -11 -18 9 -13 34 9 13 11 29 20 37 20 8 0 11 5 8 10
-5 8 -11 7 -21 0 -7 -7 -19 -10 -26 -8 -10 4 89 58 132 72 8 2 2 5 -15 5 -16
0 -41 -7 -55 -17z m-70 -72 c0 -5 -5 -10 -11 -10 -5 0 -7 5 -4 10 3 6 8 10 11
10 2 0 4 -4 4 -10z"/>
<path d="M1705 1620 c-3 -5 -1 -10 4 -10 6 0 11 5 11 10 0 6 -2 10 -4 10 -3 0
-8 -4 -11 -10z"/>
<path d="M620 1605 c0 -8 4 -15 10 -15 5 0 7 7 4 15 -4 8 -8 15 -10 15 -2 0
-4 -7 -4 -15z"/>
<path d="M723 1585 c0 -8 4 -12 9 -9 5 3 6 10 3 15 -9 13 -12 11 -12 -6z"/>
<path d="M917 1589 c7 -7 15 -10 18 -7 3 3 -2 9 -12 12 -14 6 -15 5 -6 -5z"/>
<path d="M690 1579 c0 -5 5 -7 10 -4 6 3 10 8 10 11 0 2 -4 4 -10 4 -5 0 -10
-5 -10 -11z"/>
<path d="M825 1580 c-3 -5 -1 -10 4 -10 6 0 11 5 11 10 0 6 -2 10 -4 10 -3 0
-8 -4 -11 -10z"/>
<path d="M1377 1574 c6 -16 19 -18 27 -5 3 5 -3 11 -13 14 -14 3 -18 1 -14 -9z"/>
<path d="M1910 1581 c0 -6 5 -13 10 -16 6 -3 10 1 10 9 0 9 -4 16 -10 16 -5 0
-10 -4 -10 -9z"/>
<path d="M585 1570 c-3 -5 -1 -10 4 -10 6 0 11 5 11 10 0 6 -2 10 -4 10 -3 0
-8 -4 -11 -10z"/>
<path d="M660 1560 c8 -5 20 -10 25 -10 6 0 3 5 -5 10 -8 5 -19 10 -25 10 -5
0 -3 -5 5 -10z"/>
<path d="M605 1550 c-3 -6 1 -7 9 -4 18 7 21 14 7 14 -6 0 -13 -4 -16 -10z"/>
<path d="M2 1510 c3 -24 8 -26 148 -47 80 -12 163 -21 185 -21 l40 0 -41 13
c-23 7 -70 16 -104 19 -34 4 -70 10 -79 15 -9 5 -43 12 -76 16 -33 4 -64 12
-68 19 -5 6 -7 1 -5 -14z"/>
<path d="M170 1519 c63 -12 170 -20 182 -13 23 14 -20 22 -121 22 -89 0 -99
-2 -61 -9z"/>
<path d="M1695 1510 c-3 -5 -1 -10 4 -10 6 0 11 5 11 10 0 6 -2 10 -4 10 -3 0
-8 -4 -11 -10z"/>
<path d="M1818 1477 c-92 -30 -98 -34 -98 -59 0 -16 -9 -37 -20 -48 -11 -11
-20 -27 -20 -35 0 -8 -3 -14 -7 -13 -5 1 -21 -4 -36 -10 -35 -15 -60 -15 -52
-2 3 6 1 10 -4 10 -6 0 -11 -7 -11 -16 0 -11 -8 -15 -27 -13 -16 1 -36 -1 -45
-5 -9 -4 -22 -5 -28 -1 -18 11 0 26 28 24 37 -3 62 10 55 27 -3 8 -2 25 1 39
7 29 53 46 67 24 6 -11 13 -9 30 10 21 23 23 23 29 5 6 -18 7 -17 18 3 18 33
15 36 -25 28 -21 -5 -92 -7 -158 -6 -162 4 -165 4 -165 19 0 11 -29 12 -147 7
-82 -4 -156 -7 -165 -7 -22 1 -24 -14 -3 -22 8 -3 15 -1 15 5 0 6 5 7 10 4 8
-5 7 -11 -1 -21 -10 -12 -10 -15 1 -12 8 2 14 -3 15 -11 0 -23 169 -101 253
-117 138 -26 284 -14 377 32 40 19 98 91 87 108 -3 6 -10 1 -16 -9 -6 -10 -23
-32 -39 -49 l-27 -31 26 47 c31 57 38 62 63 48 16 -8 22 -7 29 6 5 9 31 29 58
45 61 36 53 35 -68 -4z m-682 -48 c16 -17 16 -22 4 -30 -11 -6 -20 -3 -32 12
-10 12 -18 25 -18 30 0 16 27 9 46 -12z m40 3 c6 -4 16 -16 22 -27 11 -19 11
-19 12 3 0 28 17 28 47 0 20 -18 23 -19 23 -5 0 23 26 21 50 -3 19 -19 22 -19
36 -5 20 19 33 19 56 -2 17 -15 19 -15 37 1 27 25 64 17 75 -15 14 -42 2 -59
-42 -59 -21 0 -42 3 -46 8 -4 4 -21 7 -37 7 -22 0 -29 -5 -29 -19 0 -17 -6
-18 -57 -11 -74 9 -90 17 -69 34 16 13 56 6 56 -9 0 -5 11 -4 25 2 34 15 31
29 -5 22 -22 -5 -31 -2 -36 10 -5 12 -10 13 -26 5 -15 -8 -27 -8 -42 -1 -11 6
-30 12 -40 14 -12 2 -23 14 -27 31 -7 27 -3 33 17 19z m-11 -62 c3 -5 2 -10
-4 -10 -5 0 -13 5 -16 10 -3 6 -2 10 4 10 5 0 13 -4 16 -10z m65 -26 c0 -11
-5 -14 -16 -10 -9 3 -18 6 -20 6 -3 0 -2 5 1 10 10 16 35 12 35 -6z m223 -39
c1 -5 -13 -11 -30 -13 -31 -3 -42 6 -26 22 10 10 53 3 56 -9z"/>
<path d="M390 1451 c0 -11 -12 -33 -26 -48 -14 -15 -47 -52 -73 -82 -25 -29
-61 -67 -79 -84 -45 -42 -92 -116 -92 -144 0 -21 15 -67 45 -138 16 -37 69
-195 86 -255 7 -25 14 -76 15 -114 1 -79 -2 -76 114 -116 41 -14 75 -30 75
-36 0 -12 -130 -114 -144 -114 -23 0 -18 -48 11 -105 17 -33 48 -95 70 -137
21 -43 43 -78 48 -78 16 0 13 8 -54 134 -35 67 -66 130 -70 141 -5 16 8 30 69
75 41 30 75 58 75 63 0 4 5 7 11 7 6 0 24 12 41 27 17 16 38 35 48 43 9 8 53
50 97 93 l80 79 20 -44 c12 -24 21 -47 22 -53 1 -5 13 -30 27 -53 l26 -44 -23
-26 c-13 -15 -17 -21 -9 -15 25 23 42 16 36 -14 -3 -16 -1 -35 4 -43 8 -11 9
-7 5 15 l-6 30 15 -25 c10 -17 11 -30 5 -42 -8 -14 -6 -16 7 -11 14 5 15 3 4
-16 -6 -13 -9 -25 -6 -29 3 -3 6 1 7 9 0 8 6 -2 14 -21 7 -19 11 -45 8 -56 -2
-12 0 -25 6 -28 7 -5 9 0 5 11 -5 15 -4 15 4 3 8 -10 7 -19 -1 -29 -9 -12 -9
-13 1 -7 7 4 12 1 12 -8 0 -19 -30 -21 -50 -4 -8 7 -6 3 5 -10 11 -13 27 -21
36 -19 10 3 20 -1 23 -8 3 -8 -2 -15 -11 -17 -14 -3 -14 -5 2 -18 15 -12 17
-12 10 -1 -5 9 -4 12 3 7 6 -3 10 -14 10 -24 -1 -23 19 -72 30 -72 5 0 -6 51
-25 113 -18 61 -38 135 -44 162 -22 102 -86 263 -136 343 -18 29 -33 54 -33
56 0 2 -31 56 -70 120 -38 64 -70 118 -70 120 0 3 -20 39 -46 81 -25 43 -43
79 -41 82 3 2 30 -32 61 -75 123 -175 317 -342 397 -342 18 0 51 -6 74 -14 22
-8 72 -24 110 -36 74 -24 155 -66 155 -81 0 -5 4 -9 9 -9 5 0 8 6 8 13 -1 6 2
28 7 49 9 40 32 66 86 95 30 17 38 29 53 84 10 35 24 85 32 110 13 45 10 99
-6 99 -13 0 -21 -19 -25 -63 -7 -85 -26 -176 -39 -194 -13 -17 -14 -16 -9 7
l5 25 -13 -23 c-8 -12 -30 -33 -50 -47 -21 -14 -42 -40 -49 -60 -12 -33 -27
-43 -42 -29 -11 12 -121 54 -139 54 -9 0 -22 8 -27 18 -6 10 -11 12 -11 4 0
-9 -5 -10 -19 -2 -11 5 -52 17 -91 25 -75 16 -118 39 -186 103 -14 12 -28 22
-32 22 -4 0 -16 14 -27 30 -11 16 -26 30 -32 30 -7 0 -13 7 -13 15 0 8 -4 15
-9 15 -6 0 -31 26 -56 58 -25 31 -65 77 -89 102 -23 25 -55 66 -69 91 -52 88
-104 269 -78 269 14 0 15 37 1 45 -5 3 -10 -3 -10 -14z m-2 -147 c7 -37 21
-79 31 -93 10 -14 30 -49 46 -78 15 -29 31 -50 35 -48 4 2 5 -7 2 -22 -3 -18
1 -30 13 -39 10 -8 16 -17 12 -20 -4 -4 -3 -12 2 -18 4 -6 25 -42 46 -81 20
-38 44 -77 51 -86 8 -8 14 -19 14 -22 0 -4 16 -32 36 -61 28 -43 34 -58 26
-73 -10 -18 -128 -133 -191 -185 l-32 -28 -37 19 c-20 10 -60 26 -89 35 -28 9
-56 22 -61 29 -6 7 -9 37 -8 67 0 35 -5 68 -16 90 -10 19 -14 38 -9 43 5 5 2
21 -6 38 -8 16 -12 33 -8 39 3 5 1 10 -6 10 -6 0 -9 8 -6 20 3 13 0 20 -8 20
-15 0 -31 62 -20 79 3 6 -1 14 -9 17 -8 3 -20 22 -26 42 -6 21 -14 44 -17 52
-16 42 -13 61 17 90 16 16 30 32 30 36 0 12 43 44 59 45 12 0 11 2 -3 8 -22 9
-25 5 62 84 23 21 42 42 42 47 0 6 3 10 8 10 4 0 13 -30 20 -66z"/>
<path d="M185 1100 c-3 -5 -2 -10 4 -10 5 0 13 5 16 10 3 6 2 10 -4 10 -5 0
-13 -4 -16 -10z"/>
<path d="M171 1034 c0 -11 3 -14 6 -6 3 7 2 16 -1 19 -3 4 -6 -2 -5 -13z"/>
<path d="M286 683 c-6 -14 -5 -15 5 -6 7 7 10 15 7 18 -3 3 -9 -2 -12 -12z"/>
<path d="M525 670 c-3 -5 -1 -10 4 -10 6 0 11 5 11 10 0 6 -2 10 -4 10 -3 0
-8 -4 -11 -10z"/>
<path d="M1383 1463 c9 -2 23 -2 30 0 6 3 -1 5 -18 5 -16 0 -22 -2 -12 -5z"/>
<path d="M2315 1450 c-3 -5 1 -10 9 -10 9 0 16 5 16 10 0 6 -4 10 -9 10 -6 0
-13 -4 -16 -10z"/>
<path d="M757 1439 c7 -7 15 -10 18 -7 3 3 -2 9 -12 12 -14 6 -15 5 -6 -5z"/>
<path d="M2238 1403 c7 -3 16 -2 19 1 4 3 -2 6 -13 5 -11 0 -14 -3 -6 -6z"/>
<path d="M560 1386 c0 -2 7 -9 15 -16 9 -7 15 -8 15 -2 0 5 -7 12 -15 16 -8 3
-15 4 -15 2z"/>
<path d="M2338 1383 c7 -3 16 -2 19 1 4 3 -2 6 -13 5 -11 0 -14 -3 -6 -6z"/>
<path d="M2428 1363 c7 -3 16 -2 19 1 4 3 -2 6 -13 5 -11 0 -14 -3 -6 -6z"/>
<path d="M970 1349 c0 -21 53 -84 110 -131 59 -48 100 -72 86 -50 -4 7 -13 12
-19 12 -7 0 -20 8 -28 18 -9 9 -32 31 -51 47 -19 17 -47 49 -63 73 -29 44 -35
49 -35 31z"/>
<path d="M2100 1334 c19 -15 71 -64 116 -108 85 -85 124 -157 124 -229 0 -52
-30 -245 -52 -337 -11 -47 -24 -134 -28 -195 -4 -60 -11 -122 -15 -137 -10
-37 1 -35 21 4 12 22 17 63 19 142 1 82 8 127 23 171 30 87 65 296 60 354 -8
80 -52 157 -140 243 -43 43 -97 87 -121 99 l-42 20 35 -27z"/>
<path d="M2468 1353 c7 -3 16 -2 19 1 4 3 -2 6 -13 5 -11 0 -14 -3 -6 -6z"/>
<path d="M1755 1320 c-16 -16 -34 -30 -41 -30 -20 0 -25 -17 -10 -29 16 -14
38 5 69 58 23 39 18 39 -18 1z"/>
<path d="M0 1325 c0 -11 14 -15 53 -16 28 -1 57 -2 62 -4 6 -1 25 -3 44 -3 36
-2 38 -9 5 -15 -10 -2 -30 -9 -44 -15 -14 -6 -44 -16 -67 -22 -40 -10 -61 -25
-50 -36 9 -10 222 56 234 73 7 9 11 18 10 20 -4 3 -124 20 -194 27 -42 4 -53
2 -53 -9z"/>
<path d="M1155 1308 c11 -7 29 -19 40 -26 20 -12 37 -20 102 -48 31 -13 32
-13 21 5 -10 16 -23 22 -78 35 -3 1 -21 11 -41 24 -20 12 -42 22 -50 22 -8 0
-5 -5 6 -12z"/>
<path d="M900 1302 c0 -5 7 -9 15 -9 8 0 12 4 9 9 -3 4 -9 8 -15 8 -5 0 -9 -4
-9 -8z"/>
<path d="M2230 1273 c14 -9 45 -37 70 -61 l45 -45 123 1 c67 1 122 -2 122 -6
0 -5 25 -8 55 -7 30 0 55 -2 55 -6 0 -3 37 -6 83 -6 45 0 113 -7 150 -16 46
-10 67 -11 64 -4 -2 6 -46 19 -98 29 -52 10 -159 31 -239 48 -80 16 -176 34
-214 40 -74 12 -189 35 -221 45 -16 5 -15 2 5 -12z m142 -47 c4 -6 8 -7 8 -3
0 5 6 5 12 0 7 -4 25 -6 41 -4 31 3 97 -16 97 -29 0 -5 -34 -9 -75 -9 -52 0
-75 3 -75 12 0 7 -3 8 -8 2 -4 -5 -14 -11 -22 -13 -8 -2 -12 0 -8 3 4 4 -6 20
-23 36 l-30 28 38 -6 c21 -3 41 -11 45 -17z"/>
<path d="M1127 1259 c7 -7 15 -10 18 -7 3 3 -2 9 -12 12 -14 6 -15 5 -6 -5z"/>
<path d="M1640 1260 c-20 -12 -10 -19 14 -10 11 3 15 9 10 13 -6 3 -16 2 -24
-3z"/>
<path d="M967 1239 c7 -7 15 -10 18 -7 3 3 -2 9 -12 12 -14 6 -15 5 -6 -5z"/>
<path d="M1547 1230 c-3 -11 -1 -20 4 -20 5 0 9 6 9 14 0 8 6 17 13 19 7 4 6
6 -4 6 -9 1 -19 -8 -22 -19z"/>
<path d="M1355 1229 c-13 -5 -15 -8 -5 -8 8 -1 25 -4 38 -7 12 -4 22 -2 22 4
0 14 -32 20 -55 11z"/>
<path d="M1432 1224 c-11 -12 -7 -14 25 -13 21 0 31 3 23 6 -8 3 -19 9 -25 13
-5 5 -16 2 -23 -6z"/>
<path d="M1635 1230 c-13 -5 -14 -9 -5 -9 8 0 24 4 35 9 13 5 14 9 5 9 -8 0
-24 -4 -35 -9z"/>
<path d="M1010 1215 c7 -8 17 -15 22 -15 6 0 5 7 -2 15 -7 8 -17 15 -22 15 -6
0 -5 -7 2 -15z"/>
<path d="M90 1190 c0 -5 7 -10 16 -10 8 0 12 5 9 10 -3 6 -10 10 -16 10 -5 0
-9 -4 -9 -10z"/>
<path d="M1825 1180 c-3 -6 1 -7 9 -4 18 7 21 14 7 14 -6 0 -13 -4 -16 -10z"/>
<path d="M1513 1170 c-13 -5 -23 -11 -23 -14 0 -7 40 6 46 15 6 10 6 10 -23
-1z"/>
<path d="M60 1162 c-28 -13 -60 -37 -60 -45 0 -5 13 1 29 12 15 11 30 19 32
17 2 -2 10 2 17 10 14 15 7 17 -18 6z"/>
<path d="M1268 1118 c6 -6 18 -8 28 -6 14 3 12 5 -9 10 -19 3 -25 2 -19 -4z"/>
<path d="M1430 1119 c0 -5 5 -7 10 -4 6 3 10 8 10 11 0 2 -4 4 -10 4 -5 0 -10
-5 -10 -11z"/>
<path d="M1820 1066 c7 -7 13 -7 20 0 6 6 3 10 -10 10 -13 0 -16 -4 -10 -10z"/>
<path d="M1288 1053 c7 -3 16 -2 19 1 4 3 -2 6 -13 5 -11 0 -14 -3 -6 -6z"/>
<path d="M32 1039 c-17 -5 -32 -11 -32 -13 0 -7 85 7 95 15 12 11 -20 10 -63
-2z"/>
<path d="M1358 1043 c7 -3 16 -2 19 1 4 3 -2 6 -13 5 -11 0 -14 -3 -6 -6z"/>
<path d="M1853 1036 c0 -8 7 -11 18 -9 9 3 20 -1 24 -8 6 -8 4 -10 -5 -4 -8 5
-11 3 -8 -6 3 -8 14 -14 26 -14 11 0 24 -3 28 -7 4 -5 12 -8 17 -8 9 0 -17 26
-60 60 -18 14 -40 12 -40 -4z"/>
<path d="M1233 1010 c24 -15 57 -21 57 -9 0 5 -9 9 -19 9 -11 0 -28 3 -38 6
-17 5 -17 5 0 -6z"/>
<path d="M42 991 c-9 -5 -4 -8 16 -7 17 1 28 4 25 9 -6 9 -25 9 -41 -2z"/>
<path d="M1350 990 c0 -5 5 -10 10 -10 6 0 10 5 10 10 0 6 -4 10 -10 10 -5 0
-10 -4 -10 -10z"/>
<path d="M1687 993 c-6 -10 9 -49 22 -57 6 -4 7 4 1 25 -11 36 -16 44 -23 32z"/>
<path d="M66 962 c-3 -5 1 -9 9 -9 8 0 15 4 15 9 0 4 -4 8 -9 8 -6 0 -12 -4
-15 -8z"/>
<path d="M1588 958 c-7 -21 26 -95 40 -91 6 3 12 9 12 14 0 6 -4 8 -9 4 -5 -3
-12 -1 -15 4 -3 5 1 12 10 15 18 7 11 21 -9 21 -7 0 -11 11 -10 23 3 23 -12
31 -19 10z"/>
<path d="M76 901 c-4 -7 -5 -15 -2 -18 9 -9 19 4 14 18 -4 11 -6 11 -12 0z"/>
<path d="M1727 881 c-4 -17 -3 -21 5 -13 5 5 8 16 6 23 -3 8 -7 3 -11 -10z"/>
<path d="M2116 878 c3 -4 9 -8 15 -8 5 0 9 4 9 8 0 5 -7 9 -15 9 -8 0 -12 -4
-9 -9z"/>
<path d="M1438 860 c-7 -24 -3 -38 8 -28 3 4 4 17 2 30 l-3 23 -7 -25z"/>
<path d="M1860 860 c0 -5 5 -10 11 -10 5 0 7 5 4 10 -3 6 -8 10 -11 10 -2 0
-4 -4 -4 -10z"/>
<path d="M2021 865 c0 -5 6 -19 14 -29 12 -16 18 -17 27 -8 9 9 9 12 -1 12 -8
0 -20 8 -27 18 -7 9 -13 13 -13 7z"/>
<path d="M1300 849 c0 -5 5 -7 10 -4 6 3 10 8 10 11 0 2 -4 4 -10 4 -5 0 -10
-5 -10 -11z"/>
<path d="M1985 840 c-3 -5 1 -10 10 -10 9 0 13 5 10 10 -3 6 -8 10 -10 10 -2
0 -7 -4 -10 -10z"/>
<path d="M2120 826 c0 -9 5 -16 10 -16 6 0 10 4 10 9 0 6 -4 13 -10 16 -5 3
-10 -1 -10 -9z"/>
<path d="M76 805 c4 -8 11 -15 16 -15 6 0 5 6 -2 15 -7 8 -14 15 -16 15 -2 0
-1 -7 2 -15z"/>
<path d="M1433 785 c0 -22 2 -30 4 -17 2 12 2 30 0 40 -3 9 -5 -1 -4 -23z"/>
<path d="M2893 787 c-17 -7 -35 -16 -40 -21 -5 -5 0 -6 12 -1 11 4 31 8 44 9
14 1 26 7 29 14 4 14 -3 14 -45 -1z"/>
<path d="M2800 751 c0 -5 9 -7 20 -4 11 3 20 7 20 9 0 2 -9 4 -20 4 -11 0 -20
-4 -20 -9z"/>
<path d="M2720 740 c-11 -8 -7 -9 15 -4 37 8 45 14 19 14 -10 0 -26 -5 -34
-10z"/>
<path d="M2230 719 c0 -5 5 -7 10 -4 6 3 10 8 10 11 0 2 -4 4 -10 4 -5 0 -10
-5 -10 -11z"/>
<path d="M740 715 c0 -7 123 -65 129 -60 7 8 -31 34 -49 35 -9 0 -21 5 -28 12
-12 12 -52 22 -52 13z"/>
<path d="M34 668 c-4 -7 -4 -10 1 -6 4 4 15 2 24 -5 14 -11 14 -10 2 6 -16 20
-18 21 -27 5z"/>
<path d="M126 671 c-3 -4 1 -17 10 -27 14 -18 15 -18 5 2 -6 12 -7 24 -4 28 3
3 4 6 0 6 -3 0 -8 -4 -11 -9z"/>
<path d="M815 624 c31 -19 72 -27 57 -12 -5 5 -17 10 -28 12 -10 3 -28 7 -39
11 -11 3 -6 -2 10 -11z"/>
<path d="M100 620 c0 -5 5 -10 11 -10 5 0 7 5 4 10 -3 6 -8 10 -11 10 -2 0 -4
-4 -4 -10z"/>
<path d="M980 611 c30 -25 93 -60 70 -38 -8 8 -33 24 -55 36 -37 22 -38 22
-15 2z"/>
<path d="M2220 626 c0 -2 7 -9 15 -16 9 -7 15 -8 15 -2 0 5 -7 12 -15 16 -8 3
-15 4 -15 2z"/>
<path d="M2935 578 c-83 -71 -291 -238 -343 -275 l-42 -31 -48 18 c-26 10 -72
29 -102 43 -81 37 -100 41 -100 24 0 -8 12 -20 28 -25 15 -6 67 -27 115 -47
58 -24 97 -35 112 -31 18 5 203 143 235 176 3 3 28 23 55 45 28 21 61 49 75
61 14 12 38 33 54 46 16 14 27 30 25 36 -2 7 -30 -11 -64 -40z"/>
<path d="M1722 605 c-10 -12 -10 -15 2 -15 7 0 16 7 20 15 7 19 -5 19 -22 0z"/>
<path d="M10 600 c0 -5 5 -10 11 -10 5 0 7 5 4 10 -3 6 -8 10 -11 10 -2 0 -4
-4 -4 -10z"/>
<path d="M912 584 c10 -10 23 -14 34 -10 21 8 17 11 -21 20 -28 7 -29 6 -13
-10z"/>
<path d="M1675 580 c-3 -5 -2 -10 4 -10 5 0 13 5 16 10 3 6 2 10 -4 10 -5 0
-13 -4 -16 -10z"/>
<path d="M2170 576 c0 -8 5 -18 10 -21 6 -3 10 3 10 14 0 12 -4 21 -10 21 -5
0 -10 -6 -10 -14z"/>
<path d="M160 570 c-9 -6 -10 -10 -3 -10 6 0 15 5 18 10 8 12 4 12 -15 0z"/>
<path d="M711 554 c0 -11 3 -14 6 -6 3 7 2 16 -1 19 -3 4 -6 -2 -5 -13z"/>
<path d="M946 545 c10 -8 26 -14 34 -15 8 0 2 7 -14 15 -36 19 -45 19 -20 0z"/>
<path d="M2982 544 c-7 -8 -8 -14 -3 -14 10 0 25 19 20 25 -2 1 -10 -3 -17
-11z"/>
<path d="M174 542 c4 -7 2 -21 -5 -30 -12 -15 -11 -15 6 0 16 15 17 20 6 30
-11 11 -13 10 -7 0z"/>
<path d="M1088 531 c19 -19 21 -25 10 -33 -10 -8 -10 -9 2 -5 23 6 18 28 -10
45 l-25 16 23 -23z"/>
<path d="M661 524 c0 -11 3 -14 6 -6 3 7 2 16 -1 19 -3 4 -6 -2 -5 -13z"/>
<path d="M771 514 c0 -11 3 -14 6 -6 3 7 2 16 -1 19 -3 4 -6 -2 -5 -13z"/>
<path d="M1035 520 c3 -5 8 -10 11 -10 2 0 4 5 4 10 0 6 -5 10 -11 10 -5 0 -7
-4 -4 -10z"/>
<path d="M1198 511 c-26 -9 -50 -19 -54 -24 -4 -4 12 -1 35 8 55 19 85 19 101
0 15 -19 30 -19 30 -2 0 26 -61 35 -112 18z"/>
<path d="M41 506 c-10 -11 -9 -14 1 -12 14 2 23 15 15 22 -2 2 -10 -2 -16 -10z"/>
<path d="M2914 489 c-19 -22 -19 -22 4 -8 12 8 22 17 22 21 0 12 -6 9 -26 -13z"/>
<path d="M235 490 c-4 -6 -10 -8 -15 -5 -5 3 -11 1 -14 -3 -6 -10 40 -10 49 0
4 3 2 9 -4 12 -5 4 -12 2 -16 -4z"/>
<path d="M790 492 c0 -12 19 -26 26 -19 2 2 -2 10 -11 17 -9 8 -15 8 -15 2z"/>
<path d="M85 460 c-3 -5 -1 -10 4 -10 6 0 11 5 11 10 0 6 -2 10 -4 10 -3 0 -8
-4 -11 -10z"/>
<path d="M1283 408 c-1 -47 2 -56 30 -78 17 -14 55 -49 84 -78 29 -29 53 -48
53 -42 0 11 -90 102 -135 138 -22 18 -25 24 -15 41 10 20 4 71 -9 71 -4 0 -8
-24 -8 -52z"/>
<path d="M2870 450 c-9 -6 -10 -10 -3 -10 6 0 15 5 18 10 8 12 4 12 -15 0z"/>
<path d="M2990 445 c0 -8 -18 -28 -40 -44 -47 -34 -31 -50 18 -19 24 15 32 27
32 49 0 16 -2 29 -5 29 -3 0 -5 -7 -5 -15z"/>
<path d="M206 438 c3 -5 10 -6 15 -3 13 9 11 12 -6 12 -8 0 -12 -4 -9 -9z"/>
<path d="M55 431 c-3 -5 -2 -12 3 -15 5 -3 9 1 9 9 0 17 -3 19 -12 6z"/>
<path d="M1170 430 c0 -5 7 -7 15 -4 8 4 15 8 15 10 0 2 -7 4 -15 4 -8 0 -15
-4 -15 -10z"/>
<path d="M130 426 c0 -2 7 -7 16 -10 8 -3 12 -2 9 4 -6 10 -25 14 -25 6z"/>
<path d="M595 421 c-6 -11 13 -26 22 -17 4 3 1 6 -6 6 -7 0 -9 5 -6 10 3 6 4
10 1 10 -3 0 -7 -4 -11 -9z"/>
<path d="M726 414 c-3 -9 -4 -19 -1 -22 3 -3 5 1 6 9 0 8 4 6 9 -6 6 -13 9
-15 9 -5 0 8 -3 21 -8 28 -6 11 -10 10 -15 -4z"/>
<path d="M2820 409 c0 -5 5 -7 10 -4 6 3 10 8 10 11 0 2 -4 4 -10 4 -5 0 -10
-5 -10 -11z"/>
<path d="M30 390 c0 -5 5 -10 11 -10 5 0 7 5 4 10 -3 6 -8 10 -11 10 -2 0 -4
-4 -4 -10z"/>
<path d="M918 393 c6 -2 18 -2 25 0 6 3 1 5 -13 5 -14 0 -19 -2 -12 -5z"/>
<path d="M2770 368 c-19 -16 -26 -26 -15 -20 18 9 64 53 54 52 -2 -1 -20 -15
-39 -32z"/>
<path d="M119 363 c-13 -17 -13 -17 6 -3 11 8 22 16 24 17 2 2 0 3 -6 3 -6 0
-17 -8 -24 -17z"/>
<path d="M484 368 c10 -6 22 -6 26 -2 5 5 -3 10 -18 11 -22 1 -24 0 -8 -9z"/>
<path d="M560 345 c-7 -9 -11 -17 -9 -20 3 -2 10 5 17 15 14 24 10 26 -8 5z"/>
<path d="M597 341 c-3 -13 -1 -18 9 -14 7 2 10 11 7 19 -7 19 -10 18 -16 -5z"/>
<path d="M640 351 c0 -6 5 -13 12 -17 6 -4 8 -3 4 4 -3 5 0 13 6 15 8 3 6 6
-4 6 -10 1 -18 -3 -18 -8z"/>
<path d="M2820 349 c0 -5 5 -7 10 -4 6 3 10 8 10 11 0 2 -4 4 -10 4 -5 0 -10
-5 -10 -11z"/>
<path d="M2891 335 c-12 -13 -19 -25 -13 -29 11 -7 46 29 41 42 -2 5 -15 -1
-28 -13z"/>
<path d="M20 345 c0 -2 6 -8 13 -14 10 -8 14 -7 14 2 0 8 -6 14 -14 14 -7 0
-13 -1 -13 -2z"/>
<path d="M391 321 c-8 -15 -7 -21 7 -27 9 -4 21 -6 26 -5 5 1 5 -6 2 -16 -6
-14 -4 -15 5 -6 12 12 3 37 -11 28 -10 -6 -22 23 -14 36 3 5 3 9 0 9 -3 0 -10
-9 -15 -19z"/>
<path d="M460 330 c-9 -6 -10 -10 -3 -10 6 0 15 5 18 10 8 12 4 12 -15 0z"/>
<path d="M680 333 c0 -15 18 -35 27 -32 5 2 1 12 -9 22 -10 9 -18 14 -18 10z"/>
<path d="M2080 329 c0 -5 5 -7 10 -4 6 3 10 8 10 11 0 2 -4 4 -10 4 -5 0 -10
-5 -10 -11z"/>
<path d="M199 313 c-13 -16 -12 -17 4 -4 9 7 17 15 17 17 0 8 -8 3 -21 -13z"/>
<path d="M518 323 c7 -3 16 -2 19 1 4 3 -2 6 -13 5 -11 0 -14 -3 -6 -6z"/>
<path d="M806 322 c-3 -6 -1 -14 5 -17 15 -10 25 3 12 16 -7 7 -13 7 -17 1z"/>
<path d="M2699 314 c-7 -9 -36 -32 -64 -51 -32 -22 -41 -32 -25 -28 14 4 34
15 44 24 51 43 69 62 64 66 -3 3 -11 -2 -19 -11z"/>
<path d="M2931 314 c0 -11 3 -14 6 -6 3 7 2 16 -1 19 -3 4 -6 -2 -5 -13z"/>
<path d="M29 297 c10 -12 17 -14 26 -7 6 5 16 6 20 2 5 -4 5 -1 1 6 -6 9 -12
10 -20 3 -9 -7 -17 -7 -26 2 -12 10 -12 9 -1 -6z"/>
<path d="M220 295 c-7 -9 -11 -17 -9 -20 3 -2 10 5 17 15 14 24 10 26 -8 5z"/>
<path d="M500 306 c0 -2 7 -9 15 -16 9 -7 15 -8 15 -2 0 5 -7 12 -15 16 -8 3
-15 4 -15 2z"/>
<path d="M350 289 c0 -5 5 -7 10 -4 6 3 10 8 10 11 0 2 -4 4 -10 4 -5 0 -10
-5 -10 -11z"/>
<path d="M575 282 c-8 -21 -3 -22 17 -2 14 13 15 17 3 17 -8 0 -17 -7 -20 -15z"/>
<path d="M2260 275 c0 -14 2 -25 4 -25 2 0 6 11 8 25 3 14 1 25 -3 25 -5 0 -9
-11 -9 -25z"/>
<path d="M2816 285 c-3 -9 0 -15 10 -15 8 0 13 4 10 9 -4 5 0 12 6 14 8 4 7 6
-3 6 -9 1 -19 -6 -23 -14z"/>
<path d="M115 281 c-3 -5 -2 -12 3 -15 5 -3 9 1 9 9 0 17 -3 19 -12 6z"/>
<path d="M456 255 c-9 -26 -7 -32 5 -12 6 10 9 21 6 23 -2 3 -7 -2 -11 -11z"/>
<path d="M500 261 c0 -7 -5 -9 -12 -5 -7 5 -8 3 -3 -5 5 -9 10 -10 18 -2 6 6
8 14 4 18 -4 3 -7 1 -7 -6z"/>
<path d="M610 265 c0 -5 5 -17 10 -25 5 -8 10 -10 10 -5 0 6 -5 17 -10 25 -5
8 -10 11 -10 5z"/>
<path d="M740 261 c0 -6 4 -13 10 -16 6 -3 7 1 4 9 -7 18 -14 21 -14 7z"/>
<path d="M2760 261 c0 -6 5 -13 10 -16 6 -3 10 -2 10 4 0 6 7 7 17 4 11 -4 14
-3 9 5 -9 14 -46 16 -46 3z"/>
<path d="M705 240 c-3 -5 -1 -10 4 -10 6 0 11 5 11 10 0 6 -2 10 -4 10 -3 0
-8 -4 -11 -10z"/>
<path d="M2673 206 c-33 -33 -46 -59 -18 -36 10 9 15 9 15 1 0 -6 5 -11 11
-11 6 0 8 9 4 20 -4 11 -2 20 4 20 6 0 20 9 31 20 18 18 18 20 3 19 -10 0 -33
-15 -50 -33z"/>
<path d="M545 220 c-3 -5 -1 -10 4 -10 6 0 11 5 11 10 0 6 -2 10 -4 10 -3 0
-8 -4 -11 -10z"/>
<path d="M165 209 c-3 -4 2 -6 10 -5 21 3 28 13 10 13 -9 0 -18 -4 -20 -8z"/>
<path d="M521 205 c0 -5 4 -17 9 -25 6 -9 10 -11 10 -3 0 7 7 10 18 7 14 -5
14 -4 2 4 -8 6 -17 9 -21 6 -4 -2 -10 2 -12 8 -3 7 -6 9 -6 3z"/>
<path d="M714 200 c2 -16 20 -14 24 2 3 10 2 10 -6 -1 -7 -9 -11 -10 -15 -2
-4 7 -5 8 -3 1z"/>
<path d="M40 191 c0 -7 -5 -9 -12 -5 -7 5 -8 3 -3 -5 5 -9 10 -10 18 -2 6 6 8
14 4 18 -4 3 -7 1 -7 -6z"/>
<path d="M620 190 c0 -5 5 -10 11 -10 5 0 7 5 4 10 -3 6 -8 10 -11 10 -2 0 -4
-4 -4 -10z"/>
<path d="M226 178 c3 -5 10 -6 15 -3 13 9 11 12 -6 12 -8 0 -12 -4 -9 -9z"/>
<path d="M683 177 c0 -8 6 -14 14 -14 9 0 10 4 2 14 -6 7 -12 13 -14 13 -1 0
-2 -6 -2 -13z"/>
<path d="M790 175 c0 -8 2 -15 4 -15 2 0 6 7 10 15 3 8 1 15 -4 15 -6 0 -10
-7 -10 -15z"/>
<path d="M1453 167 c3 -16 0 -47 -5 -69 -5 -23 -5 -45 0 -50 5 -5 13 15 18 46
8 43 7 60 -3 78 -14 23 -14 23 -10 -5z"/>
<path d="M1740 180 c-9 -6 -10 -10 -3 -10 6 0 15 5 18 10 8 12 4 12 -15 0z"/>
<path d="M135 151 c-3 -5 -2 -12 3 -15 5 -3 9 1 9 9 0 17 -3 19 -12 6z"/>
<path d="M540 156 c0 -2 7 -7 16 -10 8 -3 12 -2 9 4 -6 10 -25 14 -25 6z"/>
<path d="M26 133 c-6 -14 -5 -15 5 -6 7 7 10 15 7 18 -3 3 -9 -2 -12 -12z"/>
<path d="M2495 129 l-30 -19 26 0 c16 0 30 7 33 16 9 24 5 24 -29 3z"/>
<path d="M74 127 c-4 -6 -4 -9 1 -5 4 4 14 3 22 -4 7 -6 15 -9 18 -7 2 3 -4
10 -15 17 -15 9 -21 9 -26 -1z"/>
<path d="M586 128 c3 -5 10 -6 15 -3 13 9 11 12 -6 12 -8 0 -12 -4 -9 -9z"/>
<path d="M706 124 c-4 -9 -4 -19 -1 -22 3 -3 5 0 5 7 0 7 5 9 10 6 6 -3 10 -2
10 4 0 18 -18 21 -24 5z"/>
<path d="M2635 130 c-3 -5 -15 -10 -27 -10 -11 0 -22 -8 -25 -20 -3 -11 -12
-20 -19 -20 -8 0 -14 -8 -14 -17 0 -14 2 -15 9 -5 4 8 11 13 15 13 16 -2 23 2
54 28 19 16 29 32 24 35 -6 4 -13 2 -17 -4z"/>
<path d="M546 113 c-6 -14 -5 -15 5 -6 7 7 10 15 7 18 -3 3 -9 -2 -12 -12z"/>
<path d="M570 115 c0 -5 5 -17 10 -25 5 -8 10 -10 10 -5 0 6 -5 17 -10 25 -5
8 -10 11 -10 5z"/>
<path d="M788 99 c-4 -10 2 -15 24 -16 20 0 26 2 17 7 -7 5 -16 7 -20 4 -4 -2
-9 1 -11 8 -3 8 -6 7 -10 -3z"/>
<path d="M269 83 c-13 -16 -12 -17 4 -4 16 12 22 9 18 -12 -1 -5 3 -6 9 -2 8
5 7 11 -1 21 -14 18 -14 18 -30 -3z"/>
<path d="M146 74 c-5 -14 -4 -15 9 -4 17 14 19 20 6 20 -5 0 -12 -7 -15 -16z"/>
<path d="M457 73 c3 -7 9 -10 14 -7 14 8 11 21 -5 21 -8 0 -12 -6 -9 -14z"/>
<path d="M566 53 c-6 -14 -5 -15 5 -6 7 7 10 15 7 18 -3 3 -9 -2 -12 -12z"/>
<path d="M716 56 c6 -15 34 -30 34 -18 0 4 -9 13 -20 19 -16 11 -18 10 -14 -1z"/>
<path d="M78 38 c-14 -14 -15 -18 -4 -18 8 0 17 7 20 16 9 23 4 24 -16 2z"/>
<path d="M792 40 c0 -14 2 -19 5 -12 2 6 2 18 0 25 -3 6 -5 1 -5 -13z"/>
<path d="M143 30 c-1 -11 2 -22 6 -24 4 -3 7 4 6 14 -2 27 -10 33 -12 10z"/>
<path d="M605 40 c-3 -5 -1 -10 4 -10 6 0 11 5 11 10 0 6 -2 10 -4 10 -3 0 -8
-4 -11 -10z"/>
<path d="M2285 41 c-3 -5 -1 -12 5 -16 5 -3 10 1 10 9 0 18 -6 21 -15 7z"/>
<path d="M900 36 c0 -2 7 -7 16 -10 8 -3 12 -2 9 4 -6 10 -25 14 -25 6z"/>
<path d="M1446 21 c-4 -7 -5 -15 -2 -18 9 -9 19 4 14 18 -4 11 -6 11 -12 0z"/>
<path d="M2458 3 c7 -3 16 -2 19 1 4 3 -2 6 -13 5 -11 0 -14 -3 -6 -6z"/>
<path d="M2518 3 c6 -2 18 -2 25 0 6 3 1 5 -13 5 -14 0 -19 -2 -12 -5z"/>
</g>
</svg>
