<?xml version="1.0" standalone="no"?>
<!DOCTYPE svg PUBLIC "-//W3C//DTD SVG 20010904//EN"
 "http://www.w3.org/TR/2001/REC-SVG-20010904/DTD/svg10.dtd">
<svg version="1.0" xmlns="http://www.w3.org/2000/svg"
 width="300.000000pt" height="300.000000pt" viewBox="0 0 300.000000 300.000000"
 preserveAspectRatio="xMidYMid meet">
<metadata>
Created by potrace 1.10, written by Peter Selinger 2001-2011
</metadata>
<g transform="translate(0.000000,300.000000) scale(0.100000,-0.100000)"
fill="#000000" stroke="none">
<path d="M1410 2896 c0 -9 -8 -16 -20 -16 -11 0 -23 -7 -26 -15 -4 -8 -17 -15
-30 -15 -13 0 -24 -4 -24 -9 0 -5 -9 -13 -21 -16 -16 -5 -18 -10 -8 -21 9 -12
15 -10 31 11 12 15 29 25 41 24 50 -4 77 2 97 23 15 16 33 23 66 23 47 1 55
-14 13 -26 -13 -4 -37 -12 -54 -18 -23 -10 -26 -14 -15 -21 13 -9 13 -10 0
-11 -8 -1 -19 0 -25 1 -5 1 -7 -2 -3 -5 4 -4 -3 -16 -15 -26 -12 -10 -17 -18
-12 -18 6 -1 21 9 35 20 69 55 128 87 154 82 46 -9 39 -22 -16 -29 -43 -6 -48
-9 -29 -15 14 -6 35 -4 58 6 40 17 97 20 88 5 -3 -5 1 -10 9 -10 9 0 16 -7 16
-15 0 -8 7 -15 15 -15 8 0 15 -4 15 -9 0 -5 9 -11 21 -14 22 -6 22 -28 -1 -35
-7 -3 -10 0 -6 7 4 6 2 11 -4 11 -6 0 -10 -6 -9 -12 1 -7 -1 -21 -6 -31 -4
-10 -5 -33 -2 -52 3 -19 2 -35 -4 -35 -5 0 -9 -5 -9 -12 0 -6 11 -1 25 12 25
23 25 23 25 3 0 -12 -6 -23 -12 -26 -7 -2 -10 -8 -6 -12 11 -12 38 15 38 37 0
11 -7 26 -15 35 -17 17 -12 48 11 73 17 17 18 3 4 -35 -6 -15 -6 -24 -1 -20 5
3 12 -4 16 -15 3 -11 11 -20 16 -20 13 0 11 11 -7 31 -9 10 -13 23 -9 28 9 15
25 14 25 -2 0 -7 7 -22 16 -33 14 -17 15 -17 10 -1 -3 10 -2 16 3 12 5 -3 13
-19 16 -36 4 -18 15 -33 25 -36 19 -5 44 -59 34 -74 -3 -5 2 -12 11 -15 8 -4
14 -16 13 -28 -1 -11 1 -41 6 -65 8 -44 8 -44 23 -20 l14 24 -6 -28 c-3 -16
-2 -26 2 -24 4 3 6 -15 4 -39 -4 -52 -20 -49 -22 4 -1 28 -3 31 -6 12 -3 -14
-10 -28 -17 -32 -8 -6 -7 -11 4 -18 13 -8 12 -10 -2 -10 -19 0 -25 34 -8 45 6
3 10 12 10 18 0 8 -3 8 -9 -1 -7 -11 -9 -11 -14 2 -4 9 -2 16 4 16 7 0 8 7 4
18 -4 9 -9 34 -11 55 -2 20 -8 46 -14 56 -5 11 -10 31 -10 45 0 14 -4 27 -9
31 -16 9 -17 -47 -2 -90 14 -42 19 -181 8 -227 -5 -19 -2 -32 10 -44 17 -16
15 -17 -27 -11 -25 4 -61 10 -79 13 l-35 7 39 -34 c21 -18 44 -48 52 -66 8
-21 21 -33 33 -34 11 -1 25 -3 30 -4 6 -1 15 -3 20 -4 6 0 9 -18 9 -38 -1 -28
-3 -31 -6 -13 -3 14 -9 30 -15 35 -13 13 -1 -46 13 -60 5 -5 25 -9 44 -9 34 0
35 -1 35 -38 0 -26 -5 -41 -16 -45 -10 -4 -14 -13 -10 -29 4 -14 1 -26 -8 -31
-7 -4 -16 -17 -19 -28 -3 -11 -4 4 -1 33 5 42 3 52 -9 52 -18 0 -28 -32 -16
-52 9 -17 -9 -188 -21 -201 -9 -10 10 -67 22 -67 4 0 8 13 8 30 0 16 5 62 11
103 9 59 15 75 32 83 17 7 24 22 30 59 17 115 19 153 9 159 -8 5 -8 15 -2 31
15 39 2 29 -16 -12 -13 -30 -18 -34 -21 -19 -3 10 0 22 6 26 9 5 9 14 1 34 -5
15 -10 38 -10 51 0 20 4 23 28 20 15 -2 22 -2 15 1 -8 4 -9 13 -2 34 7 19 7
35 0 48 -6 11 -8 22 -5 25 3 3 -2 17 -12 31 -9 15 -14 30 -10 34 4 3 11 0 16
-8 25 -39 -8 95 -36 148 -13 25 -24 53 -24 63 0 10 -5 21 -11 24 -5 4 -8 12
-6 18 7 19 -21 65 -43 72 -18 6 -22 12 -19 31 0 4 -4 10 -9 13 -6 3 -24 24
-41 45 -17 21 -31 36 -31 32 0 -4 -11 5 -25 20 -14 15 -25 24 -25 20 0 -4 -19
8 -41 28 -23 19 -46 33 -51 30 -5 -3 -14 -1 -21 4 -7 6 -14 10 -17 10 -3 -1
-31 7 -62 16 -52 15 -106 15 -130 0 -5 -3 -15 0 -23 6 -12 10 -15 9 -15 -4z
m610 -628 c0 -7 3 -30 6 -50 6 -34 4 -38 -15 -38 -18 0 -21 -6 -21 -38 0 -50
-5 -54 -44 -35 -41 19 -64 52 -44 64 34 22 75 -11 61 -48 -3 -7 0 -13 6 -13
12 0 15 76 3 83 -9 6 -8 59 2 75 10 16 46 15 46 0z m-15 -188 c3 -5 1 -10 -4
-10 -6 0 -11 5 -11 10 0 6 2 10 4 10 3 0 8 -4 11 -10z m-8 -62 c-3 -8 -6 -5
-6 6 -1 11 2 17 5 13 3 -3 4 -12 1 -19z"/>
<path d="M1315 2794 c-69 -57 -118 -114 -97 -114 4 0 21 18 38 40 16 22 32 40
35 40 3 0 21 14 39 30 40 36 28 40 -15 4z"/>
<path d="M1625 2810 c-3 -5 1 -10 9 -10 9 0 16 5 16 10 0 6 -4 10 -9 10 -6 0
-13 -4 -16 -10z"/>
<path d="M1218 2779 c-18 -17 -27 -28 -20 -24 14 7 17 -11 2 -20 -5 -3 -10
-14 -9 -23 0 -13 4 -11 17 8 9 14 28 35 41 47 13 13 18 23 12 23 -7 0 -9 5 -6
10 12 19 -5 10 -37 -21z"/>
<path d="M1518 2803 c7 -3 16 -2 19 1 4 3 -2 6 -13 5 -11 0 -14 -3 -6 -6z"/>
<path d="M1530 2774 c0 -21 17 -25 22 -6 3 11 0 19 -8 19 -8 0 -14 -6 -14 -13z"/>
<path d="M1635 2777 c-11 -6 -31 -12 -44 -12 -13 0 -26 -6 -29 -13 -3 -9 3
-11 20 -7 12 3 49 7 80 8 66 3 82 12 44 27 -34 13 -46 12 -71 -3z"/>
<path d="M1321 2753 c-7 -8 -11 -16 -8 -19 2 -2 10 2 17 11 17 20 9 27 -9 8z"/>
<path d="M1365 2759 c-16 -6 -16 -8 -3 -8 9 -1 18 -6 20 -13 3 -7 7 -8 11 -2
10 17 -7 32 -28 23z"/>
<path d="M1471 2739 c-44 -23 -66 -46 -25 -26 17 9 34 14 36 12 3 -3 13 4 23
15 22 24 12 24 -34 -1z"/>
<path d="M1728 2729 c-2 -7 -23 -12 -50 -12 -40 0 -45 -2 -32 -14 20 -20 18
-24 -10 -17 -19 4 -24 1 -28 -20 -4 -17 -1 -26 8 -26 7 0 11 6 8 14 -4 11 1
14 20 12 14 -2 24 0 21 3 -2 4 5 12 15 19 33 20 33 -6 1 -39 -34 -34 -37 -39
-19 -39 19 0 58 50 58 75 0 11 5 26 12 33 6 6 9 14 6 17 -3 4 -8 1 -10 -6z"/>
<path d="M1161 2721 c-7 -5 -10 -14 -7 -20 4 -6 1 -11 -7 -11 -8 0 -18 -7 -21
-16 -5 -12 -2 -15 11 -10 16 6 16 5 1 -11 -9 -10 -27 -40 -40 -67 -12 -27 -27
-48 -32 -47 -14 3 -37 -72 -26 -83 6 -6 10 -17 10 -26 0 -12 -2 -12 -9 -1 -10
15 -15 8 -25 -31 -4 -19 -2 -28 6 -28 8 0 6 -5 -4 -11 -26 -15 -22 -30 5 -20
12 5 21 16 19 25 -2 9 1 16 6 16 5 0 9 6 9 13 1 6 6 39 13 72 13 67 30 96 30
50 0 -42 9 -26 15 28 3 26 19 72 36 102 31 57 36 92 10 76z"/>
<path d="M1348 2723 c7 -3 16 -2 19 1 4 3 -2 6 -13 5 -11 0 -14 -3 -6 -6z"/>
<path d="M1547 2713 c3 -7 9 -13 15 -13 5 0 6 5 3 10 -3 6 -2 10 4 10 5 0 13
-4 16 -10 3 -5 14 -9 23 -9 15 1 15 2 -1 6 -9 2 -15 9 -11 14 3 5 -8 8 -24 7
-20 -1 -28 -6 -25 -15z"/>
<path d="M1293 2686 c-48 -48 -93 -136 -93 -184 0 -23 4 -42 10 -42 5 0 9 3 9
8 -4 25 4 51 21 70 11 12 20 29 20 39 1 17 1 17 11 0 7 -11 7 -23 1 -30 -17
-22 -21 -46 -10 -53 6 -4 8 -3 4 4 -3 6 10 27 30 46 33 32 66 44 107 37 4 0 7
3 7 9 0 5 7 7 15 4 8 -4 15 -1 15 5 0 6 5 10 11 9 6 -2 13 2 16 9 6 15 -51 1
-90 -24 -7 -4 -8 0 -4 11 6 15 4 17 -10 10 -10 -4 -28 -8 -40 -8 -11 -1 -19
-4 -17 -8 7 -11 -8 -38 -18 -32 -6 4 -6 9 2 14 8 5 5 9 -9 13 -15 3 -25 -1
-32 -15 -6 -11 -13 -17 -16 -14 -9 9 37 75 78 110 25 21 35 35 27 38 -7 2 -27
-10 -45 -26z"/>
<path d="M1250 2675 c-13 -14 -22 -27 -19 -29 2 -2 14 10 27 25 29 36 24 38
-8 4z"/>
<path d="M678 2663 c7 -3 16 -2 19 1 4 3 -2 6 -13 5 -11 0 -14 -3 -6 -6z"/>
<path d="M1539 2644 c-8 -10 -15 -12 -23 -4 -16 16 -26 12 -26 -10 0 -11 7
-20 15 -20 7 0 19 -8 25 -17 8 -15 9 -13 4 8 -3 16 -1 30 7 34 7 5 10 4 5 -3
-10 -16 11 -25 31 -13 17 10 16 10 -2 11 -15 0 -17 2 -7 9 11 7 11 9 -1 14 -9
3 -21 -1 -28 -9z"/>
<path d="M1095 2642 c-14 -10 -48 -85 -35 -77 5 3 10 0 11 -7 1 -7 5 5 10 27
5 21 15 42 21 47 7 4 10 9 7 12 -2 3 -9 2 -14 -2z"/>
<path d="M1161 2600 c-13 -26 -21 -58 -20 -88 0 -26 3 -41 6 -33 4 10 7 11 13
1 5 -8 10 -1 15 21 4 19 14 47 22 63 14 27 14 31 -1 42 -11 8 -13 14 -7 19 6
3 11 1 11 -4 0 -6 5 -11 10 -11 6 0 10 7 10 15 0 31 -38 15 -59 -25z m13 -48
c-4 -18 -10 -29 -15 -27 -4 3 -6 12 -4 20 3 8 7 22 10 31 9 28 16 9 9 -24z"/>
<path d="M1395 2630 c-8 -13 5 -13 25 0 13 8 13 10 -2 10 -9 0 -20 -4 -23 -10z"/>
<path d="M1838 2593 c10 -16 24 -41 30 -58 l10 -30 1 30 c1 28 -35 85 -53 85
-4 0 1 -12 12 -27z"/>
<path d="M1485 2590 c-3 -5 -1 -10 4 -10 6 0 11 5 11 10 0 6 -2 10 -4 10 -3 0
-8 -4 -11 -10z"/>
<path d="M1717 2569 c4 -13 8 -18 11 -10 2 7 -1 18 -6 23 -8 8 -9 4 -5 -13z"/>
<path d="M1785 2530 c11 -73 27 -130 38 -137 7 -4 8 0 3 13 -4 10 -13 46 -19
79 -11 64 -32 106 -22 45z"/>
<path d="M1741 2514 c0 -11 3 -14 6 -6 3 7 2 16 -1 19 -3 4 -6 -2 -5 -13z"/>
<path d="M1821 2514 c0 -11 3 -14 6 -6 3 7 2 16 -1 19 -3 4 -6 -2 -5 -13z"/>
<path d="M1106 2474 c-18 -17 -20 -32 -7 -53 6 -9 4 -19 -5 -28 -7 -8 -21 -36
-31 -63 -10 -28 -21 -50 -25 -50 -5 0 0 -8 11 -19 16 -16 18 -30 14 -102 -5
-95 -13 -119 -13 -40 0 44 -3 52 -17 49 -14 -3 -17 -15 -18 -76 0 -39 3 -72 8
-72 14 0 7 -33 -10 -46 -26 -19 -9 -28 24 -12 23 11 29 21 33 58 5 43 6 45 41
48 31 3 37 8 49 40 7 20 28 52 47 69 l34 33 -33 -6 c-18 -4 -37 -11 -42 -15
-13 -12 -86 -11 -86 0 0 6 5 13 11 17 6 4 8 20 5 39 -4 19 -2 36 3 39 5 4 9
19 9 34 0 15 8 51 18 81 12 38 14 56 6 59 -6 2 -8 10 -5 18 7 18 -2 18 -21 -2z
m35 -336 c-8 -23 -49 -51 -62 -43 -3 3 -4 16 -2 29 4 19 13 26 37 29 17 2 32
5 33 5 1 1 -1 -8 -6 -20z m-94 -140 c-3 -8 -6 -5 -6 6 -1 11 2 17 5 13 3 -3 4
-12 1 -19z"/>
<path d="M1462 2450 c0 -19 2 -27 5 -17 2 9 2 25 0 35 -3 9 -5 1 -5 -18z"/>
<path d="M1831 2464 c0 -11 3 -14 6 -6 3 7 2 16 -1 19 -3 4 -6 -2 -5 -13z"/>
<path d="M1478 2393 c-12 -3 -18 -14 -18 -34 l0 -29 -112 -1 c-62 -1 -120 -1
-129 0 -12 1 -18 -9 -21 -36 -3 -21 -3 -45 0 -54 5 -23 61 -31 89 -13 23 15
138 20 146 7 3 -5 8 -71 11 -148 6 -133 6 -142 -16 -184 -28 -55 -68 -85 -112
-85 -26 0 -36 -5 -40 -19 -3 -15 -10 -17 -28 -11 -20 6 -21 5 -9 -10 17 -20
37 -21 45 -1 3 8 18 15 33 15 31 0 103 44 104 63 0 7 4 4 8 -6 5 -14 11 -4 24
40 9 32 18 69 19 83 2 19 11 26 33 31 l30 7 -33 1 c-32 1 -33 2 -27 34 10 42
12 46 33 43 11 -2 19 -15 23 -37 6 -34 6 -34 8 9 1 40 0 42 -29 42 -29 0 -30
1 -31 53 -1 28 0 65 1 81 1 23 -2 28 -14 23 -9 -4 -16 -2 -16 3 0 6 6 10 13
10 8 0 11 16 9 55 l-4 55 37 0 37 0 -6 -57 c-3 -32 -6 -66 -6 -76 -1 -10 -11
-22 -22 -26 -13 -5 -17 -10 -10 -15 6 -3 13 -2 17 4 16 26 27 8 21 -35 -4 -24
-3 -52 2 -62 13 -25 24 -142 12 -123 -7 11 -10 11 -10 2 0 -7 6 -15 14 -18 8
-3 18 -20 21 -37 16 -75 85 -137 153 -137 15 0 33 -5 38 -10 12 -12 47 -2 39
10 -3 5 -1 11 5 15 5 3 10 15 10 26 0 10 7 19 15 19 8 0 15 4 15 9 0 22 -17
17 -50 -12 -19 -17 -26 -28 -16 -24 14 6 17 4 12 -9 -3 -8 -6 -20 -6 -25 0
-16 -18 -10 -24 9 -4 13 -16 17 -44 17 -21 0 -51 8 -65 18 -28 18 -71 90 -60
101 3 3 1 12 -6 20 -9 10 -10 50 -5 145 l7 131 64 0 c36 0 62 4 59 9 -6 9
-131 5 -147 -5 -5 -3 -9 11 -9 31 l0 37 80 -5 c44 -2 83 -6 86 -9 3 -3 6 -19
8 -34 3 -25 8 -29 38 -32 31 -3 36 0 40 21 3 14 3 39 0 56 l-4 31 -128 0 -129
0 -3 28 c-3 28 -28 37 -70 25z m297 -90 c-2 -10 -4 -20 -4 -22 -1 -3 -7 1 -13
7 -10 10 -10 15 2 22 19 12 19 13 15 -7z m-481 -14 c-2 -4 30 -5 72 -2 62 5
76 3 72 -8 -3 -9 -26 -13 -82 -14 -56 0 -80 -5 -86 -15 -9 -14 -14 -7 -11 13
0 4 -3 7 -9 7 -5 0 -10 7 -10 15 0 11 9 15 29 13 16 -1 28 -5 25 -9z m506 -21
c0 -16 -3 -19 -11 -11 -6 6 -8 16 -5 22 11 17 16 13 16 -11z m-560 -13 c0 -8
-7 -15 -15 -15 -16 0 -20 12 -8 23 11 12 23 8 23 -8z m322 -75 c-6 -41 -12
-38 -12 6 0 19 4 33 8 30 5 -3 7 -19 4 -36z"/>
<path d="M1480 2331 c0 -5 11 -8 25 -8 14 0 25 3 25 8 0 5 -11 9 -25 9 -14 0
-25 -4 -25 -9z"/>
<path d="M1010 2320 c-8 -5 -16 -17 -17 -27 -6 -49 -11 -70 -21 -90 -19 -34
-14 -48 7 -24 20 23 37 78 27 88 -3 3 1 18 10 34 16 32 16 33 -6 19z"/>
<path d="M1625 2280 c-3 -5 -1 -10 4 -10 6 0 11 5 11 10 0 6 -2 10 -4 10 -3 0
-8 -4 -11 -10z"/>
<path d="M1660 2280 c0 -5 7 -10 16 -10 8 0 12 5 9 10 -3 6 -10 10 -16 10 -5
0 -9 -4 -9 -10z"/>
<path d="M1502 2260 c0 -14 2 -19 5 -12 2 6 2 18 0 25 -3 6 -5 1 -5 -13z"/>
<path d="M1588 2273 c7 -3 16 -2 19 1 4 3 -2 6 -13 5 -11 0 -14 -3 -6 -6z"/>
<path d="M1848 2273 c-10 -2 -18 -9 -18 -14 0 -15 63 -6 68 9 4 12 -16 14 -50
5z"/>
<path d="M1120 2245 c0 -10 11 -15 35 -15 39 0 47 14 13 24 -36 9 -48 7 -48
-9z"/>
<path d="M1635 2220 c-3 -5 -1 -10 4 -10 6 0 11 5 11 10 0 6 -2 10 -4 10 -3 0
-8 -4 -11 -10z"/>
<path d="M1380 2209 c0 -5 5 -7 10 -4 6 3 10 8 10 11 0 2 -4 4 -10 4 -5 0 -10
-5 -10 -11z"/>
<path d="M1670 2210 c-12 -7 -12 -12 -3 -21 10 -10 14 -9 19 5 8 22 2 27 -16
16z"/>
<path d="M1700 2205 c0 -8 7 -15 15 -15 8 0 15 7 15 15 0 8 -7 15 -15 15 -8 0
-15 -7 -15 -15z"/>
<path d="M1300 2200 c0 -5 5 -10 10 -10 6 0 10 5 10 10 0 6 -4 10 -10 10 -5 0
-10 -4 -10 -10z"/>
<path d="M1340 2200 c0 -6 7 -10 15 -10 8 0 15 2 15 4 0 2 -7 6 -15 10 -8 3
-15 1 -15 -4z"/>
<path d="M1740 2202 c0 -5 7 -9 15 -9 8 0 15 4 15 9 0 4 -7 8 -15 8 -8 0 -15
-4 -15 -8z"/>
<path d="M1260 2189 c0 -5 5 -7 10 -4 6 3 10 8 10 11 0 2 -4 4 -10 4 -5 0 -10
-5 -10 -11z"/>
<path d="M1780 2191 c0 -6 5 -13 10 -16 6 -3 10 1 10 9 0 9 -4 16 -10 16 -5 0
-10 -4 -10 -9z"/>
<path d="M1379 2185 c-3 -2 -24 -5 -47 -6 -23 -2 -42 -6 -42 -10 0 -9 111 -16
116 -8 5 8 -21 31 -27 24z"/>
<path d="M1625 2181 c-6 -11 9 -23 19 -14 9 9 7 23 -3 23 -6 0 -12 -4 -16 -9z"/>
<path d="M1225 2170 c-3 -5 -2 -10 4 -10 5 0 13 5 16 10 3 6 2 10 -4 10 -5 0
-13 -4 -16 -10z"/>
<path d="M1820 2161 c0 -5 5 -13 10 -16 6 -3 10 -2 10 4 0 5 -4 13 -10 16 -5
3 -10 2 -10 -4z"/>
<path d="M1607 2153 c-4 -3 -7 -11 -7 -17 0 -6 5 -5 12 2 6 6 9 14 7 17 -3 3
-9 2 -12 -2z"/>
<path d="M975 2142 c-13 -9 -20 -56 -7 -48 7 4 24 57 18 56 0 0 -5 -4 -11 -8z"/>
<path d="M1197 2143 c-4 -3 -7 -11 -7 -17 0 -6 5 -5 12 2 6 6 9 14 7 17 -3 3
-9 2 -12 -2z"/>
<path d="M1682 2138 c-27 -13 -57 -61 -67 -105 -14 -67 34 -155 93 -170 34 -8
89 23 110 61 23 46 21 124 -6 167 -32 53 -80 70 -130 47z m60 -27 c6 10 7 7 3
-8 -5 -16 -2 -23 8 -23 8 0 17 -7 21 -15 3 -8 12 -15 20 -15 10 0 13 -6 10
-15 -4 -8 -1 -15 5 -15 6 0 11 -7 11 -15 0 -20 -13 -19 -34 4 -18 20 -56 35
-56 22 0 -5 9 -16 19 -25 22 -20 33 -54 20 -61 -4 -3 -6 -12 -3 -19 3 -7 -2
-21 -11 -30 -19 -19 -57 -22 -54 -3 3 26 -2 37 -16 37 -8 0 -15 -4 -15 -10 0
-5 -5 -10 -11 -10 -6 0 -9 6 -6 14 3 7 1 18 -5 24 -16 16 -1 82 20 84 9 0 22
2 29 2 33 3 21 16 -15 16 -43 0 -58 18 -22 27 23 6 26 19 8 26 -7 3 0 6 15 6
16 1 26 -3 22 -8 -3 -5 -1 -13 5 -16 6 -4 10 -3 9 2 -1 4 0 15 1 23 1 12 3 12
7 1 5 -11 7 -11 15 0z m58 -186 c0 -8 -4 -15 -10 -15 -5 0 -10 7 -10 15 0 8 5
15 10 15 6 0 10 -7 10 -15z"/>
<path d="M1677 2013 c-4 -3 -7 -20 -7 -36 0 -22 4 -28 15 -23 8 3 14 1 12 -3
-2 -10 11 -11 31 -4 15 6 16 49 0 59 -6 4 -9 3 -6 -2 3 -5 2 -18 -3 -29 -7
-19 -8 -19 -8 3 -1 24 -16 30 -25 10 -4 -7 -4 -3 -2 10 4 23 3 26 -7 15z"/>
<path d="M1720 1909 c-11 -19 -10 -20 9 -9 22 11 29 30 11 30 -5 0 -14 -9 -20
-21z"/>
<path d="M1251 2115 c-37 -32 -55 -84 -48 -143 4 -36 12 -52 41 -78 91 -84
193 -1 172 139 -15 94 -100 136 -165 82z m98 -25 c1 10 9 6 26 -13 14 -15 25
-32 25 -38 0 -12 -17 -12 -25 1 -3 6 -20 10 -38 10 -22 0 -28 -3 -20 -11 6 -6
19 -12 28 -13 12 -2 20 -13 22 -32 2 -16 8 -30 14 -32 5 -2 9 -9 9 -14 0 -6
-3 -8 -6 -5 -4 3 -18 -2 -32 -13 -13 -11 -29 -17 -36 -13 -6 3 -3 -3 7 -14 14
-16 15 -22 5 -26 -20 -7 -48 11 -42 27 4 10 -5 16 -25 21 -41 9 -40 34 4 81
19 20 34 39 31 41 -6 6 -56 -19 -56 -29 0 -4 -4 -8 -10 -8 -18 0 -10 27 16 54
15 14 23 26 18 27 -5 1 9 7 31 14 37 11 40 11 47 -9 3 -13 7 -15 7 -6z m51
-111 c0 -6 -4 -7 -10 -4 -5 3 -10 11 -10 16 0 6 5 7 10 4 6 -3 10 -11 10 -16z
m-40 -69 c0 -5 -8 -10 -17 -10 -15 0 -16 2 -3 10 19 12 20 12 20 0z"/>
<path d="M1300 2090 c8 -5 20 -10 25 -10 6 0 3 5 -5 10 -8 5 -19 10 -25 10 -5
0 -3 -5 5 -10z"/>
<path d="M1327 1986 c3 -13 -1 -27 -7 -31 -9 -5 -10 -2 -6 13 4 11 2 23 -4 27
-7 4 -14 -2 -17 -14 -3 -12 -10 -21 -16 -21 -6 0 -4 -7 5 -16 13 -13 19 -14
37 -2 21 13 29 52 12 62 -4 3 -6 -5 -4 -18z"/>
<path d="M1271 1984 c0 -11 3 -14 6 -6 3 7 2 16 -1 19 -3 4 -6 -2 -5 -13z"/>
<path d="M2037 2119 c6 -23 9 -24 16 -5 3 8 0 17 -7 19 -10 4 -12 -1 -9 -14z"/>
<path d="M1846 2115 c4 -8 8 -15 10 -15 2 0 4 7 4 15 0 8 -4 15 -10 15 -5 0
-7 -7 -4 -15z"/>
<path d="M1170 2095 c0 -8 5 -15 10 -15 6 0 10 7 10 15 0 8 -4 15 -10 15 -5 0
-10 -7 -10 -15z"/>
<path d="M1866 2066 c3 -9 11 -16 16 -16 13 0 5 23 -10 28 -7 2 -10 -2 -6 -12z"/>
<path d="M1150 2046 c0 -8 5 -18 10 -21 6 -3 10 3 10 14 0 12 -4 21 -10 21 -5
0 -10 -6 -10 -14z"/>
<path d="M1870 2021 c0 -6 5 -13 10 -16 6 -3 10 1 10 9 0 9 -4 16 -10 16 -5 0
-10 -4 -10 -9z"/>
<path d="M1118 1988 c-35 -17 -36 -20 -31 -55 4 -21 12 -44 20 -51 11 -11 15
-9 23 13 5 14 10 41 10 60 0 24 5 35 18 37 9 2 13 6 7 9 -5 3 -27 -3 -47 -13z"/>
<path d="M1900 1976 c0 -19 5 -47 11 -63 l11 -28 19 24 c25 31 25 77 0 91 -32
17 -41 12 -41 -24z"/>
<path d="M1150 1965 c0 -5 5 -17 10 -25 5 -8 10 -10 10 -5 0 6 -5 17 -10 25
-5 8 -10 11 -10 5z"/>
<path d="M1500 1960 c0 -5 9 -10 20 -10 13 0 18 -5 14 -15 -4 -8 -2 -15 3 -15
13 0 12 33 -1 42 -16 11 -36 10 -36 -2z"/>
<path d="M980 1934 c0 -8 5 -12 10 -9 6 4 8 11 5 16 -9 14 -15 11 -15 -7z"/>
<path d="M1847 1943 c-4 -3 -7 -13 -7 -22 1 -13 3 -13 11 2 11 19 8 33 -4 20z"/>
<path d="M1166 1912 c-9 -15 1 -32 19 -32 9 0 12 -6 9 -15 -4 -8 -2 -15 4 -15
14 0 10 22 -9 50 -11 16 -18 20 -23 12z"/>
<path d="M1860 1904 c0 -8 5 -12 10 -9 6 3 10 10 10 16 0 5 -4 9 -10 9 -5 0
-10 -7 -10 -16z"/>
<path d="M1003 1891 c4 -29 17 -39 17 -13 0 11 -5 24 -10 27 -6 4 -9 -2 -7
-14z"/>
<path d="M1036 1878 c-18 -31 -29 -78 -17 -78 6 0 21 23 35 50 19 38 22 50 11
50 -8 0 -21 -10 -29 -22z"/>
<path d="M1568 1870 c-4 -14 -5 -42 -1 -63 3 -24 2 -37 -5 -35 -5 2 -10 0 -11
-4 -3 -26 2 -38 26 -53 25 -17 26 -17 18 1 -4 11 -10 55 -14 99 -4 57 -8 73
-13 55z"/>
<path d="M1856 1855 c-10 -14 -16 -29 -13 -31 7 -8 39 35 35 47 -2 7 -12 0
-22 -16z"/>
<path d="M1232 1853 c2 -9 9 -18 16 -21 18 -6 15 25 -4 32 -11 4 -14 1 -12
-11z"/>
<path d="M1595 1830 c6 -40 28 -90 39 -90 32 0 48 33 21 44 -11 4 -15 -1 -15
-17 -1 -12 -10 5 -21 38 -26 75 -33 83 -24 25z"/>
<path d="M1904 1863 c10 -11 36 -12 36 -2 0 5 -10 9 -22 9 -12 0 -18 -3 -14
-7z"/>
<path d="M1115 1849 c-15 -6 -16 -8 -4 -8 11 -1 19 -13 23 -35 8 -40 35 -55
53 -30 18 25 16 48 -6 68 -15 13 -20 14 -24 4 -4 -9 -8 -10 -14 -2 -5 7 -16 8
-28 3z m73 -37 c2 -7 -3 -12 -10 -12 -8 0 -15 7 -15 15 0 18 19 15 25 -3z"/>
<path d="M1889 1832 c-2 -39 -4 -43 -19 -52 -13 -8 -13 -10 2 -10 10 0 25 12
34 26 16 23 16 26 1 42 -16 15 -17 15 -18 -6z"/>
<path d="M1220 1821 c0 -5 5 -13 10 -16 6 -3 10 -2 10 4 0 5 -4 13 -10 16 -5
3 -10 2 -10 -4z"/>
<path d="M964 1812 c-16 -10 -34 -70 -33 -106 1 -27 2 -25 14 17 7 26 20 59
29 72 16 25 12 32 -10 17z"/>
<path d="M1424 1812 c-6 -4 -14 -27 -18 -51 -4 -24 -13 -56 -21 -72 -8 -15
-15 -41 -15 -58 0 -16 -5 -33 -10 -36 -12 -7 -4 -25 11 -25 5 0 9 16 9 36 0
20 7 50 15 67 14 30 46 140 41 144 -1 1 -6 -1 -12 -5z"/>
<path d="M2060 1816 c0 -2 7 -17 15 -32 9 -17 16 -60 16 -104 l2 -75 6 65 c8
74 -6 150 -26 150 -7 0 -13 -2 -13 -4z"/>
<path d="M1042 1798 c-6 -9 -6 -38 0 -87 8 -62 8 -76 -4 -85 -24 -18 -32 -100
-13 -135 8 -17 17 -31 19 -31 2 0 1 22 -2 50 -2 27 -1 57 3 67 5 15 10 11 22
-19 15 -38 27 -46 38 -28 3 6 -1 10 -9 10 -18 0 -21 23 -5 51 7 15 6 32 -5 67
-8 26 -16 71 -17 100 -3 53 -9 62 -27 40z m33 -178 c3 -5 1 -10 -4 -10 -6 0
-11 5 -11 10 0 6 2 10 4 10 3 0 8 -4 11 -10z"/>
<path d="M1926 1772 c-5 -18 -5 -36 -2 -39 7 -7 19 43 13 59 -2 7 -7 -2 -11
-20z"/>
<path d="M1335 1770 c-4 -6 -11 -8 -16 -5 -5 4 -9 -1 -9 -9 0 -22 17 -20 30 4
11 20 6 29 -5 10z"/>
<path d="M975 1730 c-14 -26 -16 -49 -12 -99 10 -114 25 -129 24 -25 -1 62 3
97 12 107 9 11 10 21 3 33 -8 15 -12 13 -27 -16z"/>
<path d="M1371 1744 c0 -11 3 -14 6 -6 3 7 2 16 -1 19 -3 4 -6 -2 -5 -13z"/>
<path d="M1720 1751 c0 -10 30 -24 37 -17 3 2 -5 9 -16 16 -12 6 -21 7 -21 1z"/>
<path d="M1781 1743 c-6 -13 -5 -22 5 -31 12 -10 14 -10 14 2 0 8 3 21 6 30 8
22 -13 20 -25 -1z"/>
<path d="M1834 1737 c-21 -25 -28 -47 -16 -47 9 0 35 40 38 58 3 17 0 15 -22
-11z"/>
<path d="M2016 1744 c-3 -8 0 -22 8 -30 13 -13 20 -52 29 -154 3 -33 3 -32 11
15 6 34 5 68 -3 105 -7 30 -13 61 -14 68 -1 17 -24 15 -31 -4z"/>
<path d="M1451 1734 c0 -11 3 -14 6 -6 3 7 2 16 -1 19 -3 4 -6 -2 -5 -13z"/>
<path d="M1250 1715 c0 -8 2 -15 4 -15 2 0 6 7 10 15 3 8 1 15 -4 15 -6 0 -10
-7 -10 -15z"/>
<path d="M1625 1693 c25 -64 13 -117 -31 -133 -26 -10 -33 -30 -10 -30 8 0 21
9 29 20 8 11 20 18 28 15 11 -4 14 5 12 42 -1 48 -17 103 -29 103 -3 0 -3 -8
1 -17z"/>
<path d="M1535 1670 c-3 -5 1 -10 9 -10 9 0 16 5 16 10 0 6 -4 10 -9 10 -6 0
-13 -4 -16 -10z"/>
<path d="M926 1655 c-3 -8 -1 -15 4 -15 6 0 10 7 10 15 0 8 -2 15 -4 15 -2 0
-6 -7 -10 -15z"/>
<path d="M1780 1660 c0 -5 5 -10 10 -10 6 0 10 5 10 10 0 6 -4 10 -10 10 -5 0
-10 -4 -10 -10z"/>
<path d="M1232 1640 c0 -14 2 -19 5 -12 2 6 2 18 0 25 -3 6 -5 1 -5 -13z"/>
<path d="M1455 1650 c-3 -5 -1 -10 4 -10 6 0 11 5 11 10 0 6 -2 10 -4 10 -3 0
-8 -4 -11 -10z"/>
<path d="M1501 1651 c-10 -7 -10 -10 -1 -16 6 -4 16 -3 22 3 13 13 -4 23 -21
13z"/>
<path d="M1985 1610 c4 -17 7 -51 7 -75 0 -43 9 -57 24 -34 10 17 10 108 0
101 -5 -3 -7 2 -3 11 3 9 -1 18 -9 21 -25 9 -26 8 -19 -24z"/>
<path d="M1417 1623 c-4 -3 -7 -26 -7 -50 0 -32 4 -43 15 -43 8 0 15 8 15 17
0 9 8 25 17 36 17 18 17 19 -2 33 -21 16 -29 17 -38 7z m15 -55 c-7 -7 -12 -8
-12 -2 0 6 3 14 7 17 3 4 9 5 12 2 2 -3 -1 -11 -7 -17z"/>
<path d="M1548 1619 c-10 -5 -18 -13 -18 -17 0 -12 44 -10 52 2 5 7 8 6 8 -2
0 -7 5 -10 10 -7 6 3 10 13 10 21 0 16 -36 18 -62 3z"/>
<path d="M1763 1593 c-12 -13 -17 -23 -10 -23 11 0 43 39 35 44 -2 1 -13 -8
-25 -21z"/>
<path d="M1500 1582 c0 -14 6 -22 16 -22 14 0 15 3 3 18 -7 9 -15 19 -16 21
-2 2 -3 -5 -3 -17z"/>
<path d="M2090 1590 c0 -5 5 -10 11 -10 5 0 7 5 4 10 -3 6 -8 10 -11 10 -2 0
-4 -4 -4 -10z"/>
<path d="M934 1568 c0 -16 4 -28 8 -28 4 0 7 -8 6 -17 0 -31 35 -138 48 -146
7 -4 11 -14 8 -21 -3 -8 -1 -17 5 -21 7 -3 11 2 11 14 0 11 -4 22 -8 25 -4 3
-18 40 -31 83 -13 43 -29 92 -36 108 l-13 30 2 -27z"/>
<path d="M2066 1505 c-10 -36 -27 -80 -37 -99 -10 -20 -15 -37 -10 -40 20 -13
56 69 66 147 3 31 5 57 3 57 -2 0 -12 -29 -22 -65z"/>
<path d="M1350 1544 c0 -9 5 -14 12 -12 18 6 21 28 4 28 -9 0 -16 -7 -16 -16z"/>
<path d="M1712 1526 c3 -28 13 -34 21 -12 3 8 -1 20 -9 26 -12 10 -14 8 -12
-14z"/>
<path d="M1890 1530 c-8 -14 -8 -26 -2 -32 6 -6 12 0 16 17 9 35 1 43 -14 15z"/>
<path d="M1942 1534 c-7 -8 -10 -19 -6 -26 5 -7 10 -3 16 12 10 28 7 33 -10
14z"/>
<path d="M1235 1530 c-3 -5 -1 -10 4 -10 6 0 11 5 11 10 0 6 -2 10 -4 10 -3 0
-8 -4 -11 -10z"/>
<path d="M1450 1525 c-15 -19 -23 -68 -8 -59 5 3 7 12 5 18 -7 18 9 40 22 32
6 -4 11 -18 11 -31 0 -13 8 -31 17 -41 10 -9 18 -23 18 -31 0 -7 5 -13 10 -12
14 1 7 32 -11 45 -8 6 -14 22 -14 35 0 23 -19 65 -20 44 0 -5 -4 -4 -9 3 -6
10 -10 10 -21 -3z"/>
<path d="M1620 1528 c0 -9 5 -20 11 -23 17 -11 20 0 4 21 -13 17 -14 17 -15 2z"/>
<path d="M1336 1496 c-18 -28 -20 -36 -8 -36 10 0 35 50 29 57 -2 2 -12 -8
-21 -21z"/>
<path d="M1542 1502 c9 -11 13 -11 19 0 7 10 9 10 9 1 0 -7 4 -13 10 -13 5 0
7 6 4 14 -3 8 -16 13 -29 12 -18 -1 -21 -4 -13 -14z"/>
<path d="M1070 1481 c0 -17 4 -32 9 -36 5 -3 9 10 8 30 -2 42 -17 47 -17 6z"/>
<path d="M996 1475 c7 -38 36 -84 42 -67 2 7 -2 20 -10 29 -7 9 -19 28 -26 42
l-12 26 6 -30z"/>
<path d="M1950 1469 c0 -25 17 -59 31 -59 5 0 3 12 -4 28 -8 15 -12 33 -10 40
3 6 0 12 -6 12 -6 0 -11 -9 -11 -21z"/>
<path d="M1208 1456 c-3 -14 -2 -26 2 -26 13 0 21 33 12 42 -6 6 -11 -1 -14
-16z"/>
<path d="M1525 1470 c-3 -5 -1 -10 4 -10 6 0 11 5 11 10 0 6 -2 10 -4 10 -3 0
-8 -4 -11 -10z"/>
<path d="M1100 1454 c0 -8 5 -12 10 -9 6 3 10 10 10 16 0 5 -4 9 -10 9 -5 0
-10 -7 -10 -16z"/>
<path d="M1572 1454 c-8 -9 -9 -14 -2 -14 6 0 9 -4 6 -9 -3 -5 6 -17 21 -26
24 -16 26 -16 20 0 -4 9 -7 21 -7 26 0 5 -3 8 -7 8 -19 -3 -27 2 -14 10 7 5 9
11 5 14 -5 3 -15 -1 -22 -9z"/>
<path d="M2012 1458 c-14 -14 -16 -28 -3 -28 9 0 24 30 18 36 -2 2 -9 -2 -15
-8z"/>
<path d="M1889 1458 c-6 -14 -5 -68 2 -68 5 0 8 16 7 35 -1 30 -5 43 -9 33z"/>
<path d="M1930 1441 c0 -5 5 -13 10 -16 6 -3 10 -2 10 4 0 5 -4 13 -10 16 -5
3 -10 2 -10 -4z"/>
<path d="M1273 1425 c-3 -9 -3 -18 -1 -21 3 -3 8 4 11 16 6 23 -1 27 -10 5z"/>
<path d="M1140 1408 c0 -12 1 -19 3 -17 1 2 9 12 16 22 12 14 11 17 -3 17 -10
0 -16 -8 -16 -22z"/>
<path d="M1420 1420 c0 -5 5 -10 10 -10 6 0 10 5 10 10 0 6 -4 10 -10 10 -5 0
-10 -4 -10 -10z"/>
<path d="M1475 1421 c-3 -5 -1 -12 5 -16 5 -3 10 1 10 9 0 18 -6 21 -15 7z"/>
<path d="M1646 1422 c6 -4 14 -16 18 -27 6 -13 10 -16 13 -7 8 20 -5 42 -24
42 -11 0 -14 -3 -7 -8z"/>
<path d="M1750 1420 c0 -5 5 -10 11 -10 5 0 7 5 4 10 -3 6 -8 10 -11 10 -2 0
-4 -4 -4 -10z"/>
<path d="M1196 1405 c-6 -16 17 -79 26 -69 3 3 0 17 -7 31 -7 14 -11 32 -8 39
3 8 3 14 0 14 -3 0 -7 -7 -11 -15z"/>
<path d="M1920 1410 c0 -5 5 -10 11 -10 5 0 7 5 4 10 -3 6 -8 10 -11 10 -2 0
-4 -4 -4 -10z"/>
<path d="M1360 1401 c0 -5 -3 -18 -6 -28 -5 -16 -4 -16 10 1 18 23 20 36 6 36
-5 0 -10 -4 -10 -9z"/>
<path d="M1641 1403 c-1 -6 -4 -18 -7 -27 -4 -11 -1 -16 10 -16 18 0 19 6 6
35 -5 11 -9 15 -9 8z"/>
<path d="M1078 1375 c2 -14 9 -25 14 -25 6 0 7 7 4 16 -3 9 -6 20 -6 25 0 5
-4 9 -9 9 -4 0 -6 -11 -3 -25z"/>
<path d="M1856 1375 c8 -37 14 -45 14 -19 0 10 -5 26 -10 34 -8 11 -9 7 -4
-15z"/>
<path d="M1256 1375 c-3 -9 -6 -26 -5 -38 1 -16 4 -12 10 12 10 34 6 55 -5 26z"/>
<path d="M1940 1380 c-13 -8 -12 -10 3 -10 9 0 17 5 17 10 0 12 -1 12 -20 0z"/>
<path d="M1689 1369 c-11 -7 -11 -9 -1 -9 19 0 39 -23 45 -51 l4 -24 2 23 c2
33 -31 73 -50 61z"/>
<path d="M1537 1355 c-20 -10 -35 -12 -53 -5 -33 13 -29 15 -74 -26 -21 -20
-44 -33 -49 -30 -5 4 -13 1 -16 -5 -4 -5 -13 -8 -21 -5 -8 3 -11 0 -7 -10 3
-8 -1 -14 -11 -14 -9 0 -16 -5 -16 -11 0 -5 5 -7 10 -4 6 3 10 1 10 -4 0 -6
-6 -11 -14 -11 -14 0 -28 -34 -19 -44 5 -4 45 35 61 59 17 25 75 46 141 50 39
2 75 6 80 10 19 11 119 -29 130 -52 6 -13 17 -23 26 -23 17 0 19 -14 5 -40 -8
-15 -5 -18 20 -22 27 -4 29 -3 15 12 -8 9 -15 29 -15 43 0 15 -5 27 -11 27
-13 0 -33 20 -42 43 -4 10 -17 17 -32 17 -15 0 -35 12 -52 30 -30 35 -29 34
-66 15z m-50 -31 c-3 -3 -12 -4 -19 -1 -8 3 -5 6 6 6 11 1 17 -2 13 -5z"/>
<path d="M1172 1340 c-7 -11 -8 -20 -3 -20 9 0 24 30 18 36 -1 2 -8 -6 -15
-16z"/>
<path d="M1895 1351 c-3 -5 -1 -12 5 -16 5 -3 10 1 10 9 0 18 -6 21 -15 7z"/>
<path d="M1947 1328 c4 -19 1 -28 -7 -28 -8 0 -10 -3 -7 -7 4 -3 2 -12 -3 -18
-7 -8 -7 -21 -1 -36 9 -21 10 -22 11 -4 0 23 23 91 33 101 13 13 7 23 -12 21
-16 -1 -19 -6 -14 -29z"/>
<path d="M1800 1337 c0 -8 7 -14 15 -14 11 0 12 4 4 14 -6 7 -13 13 -15 13 -2
0 -4 -6 -4 -13z"/>
<path d="M1056 1328 c3 -4 12 -8 20 -8 8 0 14 -9 14 -20 0 -11 7 -20 15 -20 8
0 15 9 15 21 0 11 -4 18 -9 15 -5 -4 -11 -1 -13 6 -2 6 -14 12 -26 13 -11 1
-19 -2 -16 -7z"/>
<path d="M1311 1324 c0 -11 3 -14 6 -6 3 7 2 16 -1 19 -3 4 -6 -2 -5 -13z"/>
<path d="M1893 1301 c2 -10 1 -25 -4 -32 -4 -7 -5 -17 -2 -23 8 -12 21 20 22
52 1 12 -4 22 -10 22 -6 0 -9 -9 -6 -19z"/>
<path d="M1186 1301 c-4 -7 -5 -15 -2 -18 9 -9 19 4 14 18 -4 11 -6 11 -12 0z"/>
<path d="M1803 1295 c0 -8 4 -15 9 -15 4 0 8 4 8 9 0 6 -4 12 -8 15 -5 3 -9
-1 -9 -9z"/>
<path d="M1860 1290 c0 -11 4 -20 9 -20 5 0 7 9 4 20 -3 11 -7 20 -9 20 -2 0
-4 -9 -4 -20z"/>
<path d="M1206 1261 c-8 -13 -2 -100 6 -95 5 3 8 11 8 19 0 7 8 16 18 18 12 3
11 5 -6 6 -21 1 -23 5 -17 31 6 29 2 39 -9 21z"/>
<path d="M1781 1229 c-13 -39 -14 -46 -2 -33 9 10 24 64 17 64 -2 0 -9 -14
-15 -31z"/>
<path d="M167 1226 c-42 -34 -35 -86 14 -112 41 -21 145 -29 196 -15 34 9 44
18 50 39 4 15 6 34 4 42 -3 15 -41 56 -41 45 0 -3 -8 -1 -19 4 -10 6 -54 12
-98 15 -69 3 -82 1 -106 -18z m207 -20 c45 -19 57 -53 26 -78 -30 -24 -150
-24 -200 0 -54 26 -52 83 3 96 36 7 134 -3 171 -18z"/>
<path d="M1110 1228 c0 -12 24 -71 54 -132 70 -144 106 -225 106 -240 0 -7 14
-28 30 -46 17 -18 30 -29 30 -24 0 6 -9 20 -20 32 -25 27 -27 50 -2 31 12 -10
11 -6 -4 11 -22 27 -54 76 -54 84 0 3 7 3 15 0 8 -4 15 -1 15 5 0 6 -7 11 -15
11 -9 0 -20 12 -25 28 -6 15 -16 38 -23 51 -6 13 -10 35 -8 49 3 24 1 25 -15
12 -16 -14 -17 -12 -12 18 2 18 1 35 -4 38 -4 3 -8 0 -8 -6 0 -6 -4 -9 -9 -5
-6 3 -8 14 -6 25 2 11 0 20 -5 20 -4 0 -13 14 -19 30 -12 35 -21 39 -21 8z"/>
<path d="M1820 1231 c0 -5 -3 -17 -6 -25 -4 -11 -2 -15 8 -11 14 6 20 45 6 45
-4 0 -8 -4 -8 -9z"/>
<path d="M1160 1222 c0 -5 7 -15 15 -22 8 -7 15 -8 15 -2 0 5 -7 15 -15 22 -8
7 -15 8 -15 2z"/>
<path d="M1455 1220 c-5 -7 2 -9 21 -4 17 4 25 3 21 -3 -6 -10 29 -50 37 -42
3 2 7 16 11 30 6 24 4 25 -39 28 -24 1 -47 -3 -51 -9z"/>
<path d="M1570 1220 c0 -5 5 -10 11 -10 5 0 7 5 4 10 -3 6 -8 10 -11 10 -2 0
-4 -4 -4 -10z"/>
<path d="M1898 1190 c-7 -16 -17 -30 -21 -30 -5 0 -5 -5 -2 -10 9 -15 -4 -50
-20 -50 -16 0 -40 -63 -25 -68 5 -2 10 -8 10 -13 0 -4 -7 -6 -14 -3 -12 4 -14
-1 -10 -22 3 -16 7 -30 8 -31 5 -6 76 142 76 158 0 8 4 19 9 25 14 15 22 62
12 68 -5 4 -15 -7 -23 -24z m-46 -132 c-7 -7 -12 -8 -12 -2 0 14 12 26 19 19
2 -3 -1 -11 -7 -17z"/>
<path d="M1430 1185 c0 -8 9 -15 20 -15 11 0 20 -4 20 -9 0 -14 32 -23 44 -11
7 7 5 10 -7 10 -10 0 -17 8 -17 20 0 16 -7 20 -30 20 -20 0 -30 -5 -30 -15z"/>
<path d="M1561 1188 c-1 -10 6 -18 14 -18 8 0 15 5 15 11 0 5 -4 8 -9 5 -5 -4
-12 0 -14 6 -3 8 -6 6 -6 -4z"/>
<path d="M1290 1155 c-10 -12 -9 -15 6 -15 14 0 15 -3 6 -12 -14 -14 -16 -32
-3 -24 13 8 42 -4 35 -15 -6 -10 9 -12 19 -3 3 4 -3 14 -14 23 -11 9 -21 26
-22 39 -2 26 -10 28 -27 7z"/>
<path d="M1791 1154 c0 -11 3 -14 6 -6 3 7 2 16 -1 19 -3 4 -6 -2 -5 -13z"/>
<path d="M1823 1155 c-7 -8 -9 -16 -5 -19 4 -3 13 4 20 15 14 22 3 25 -15 4z"/>
<path d="M1771 1111 c-1 -33 0 -34 14 -15 16 21 20 38 6 30 -5 -4 -12 0 -14 6
-3 7 -6 -2 -6 -21z"/>
<path d="M1500 1114 c0 -8 5 -12 10 -9 6 4 8 11 5 16 -9 14 -15 11 -15 -7z"/>
<path d="M1680 1105 c0 -18 4 -23 15 -19 17 7 17 7 9 28 -9 24 -24 19 -24 -9z"/>
<path d="M1524 1103 c-10 -15 -15 -16 -33 -5 -18 10 -21 10 -21 -3 0 -8 6 -15
14 -15 7 0 21 -10 30 -22 12 -18 14 -19 9 -4 -4 12 0 22 10 28 17 9 24 38 9
38 -4 0 -12 -8 -18 -17z"/>
<path d="M1920 1042 c0 -47 4 -81 9 -78 12 7 11 129 0 147 -5 9 -9 -19 -9 -69z"/>
<path d="M1254 1096 c-3 -8 -1 -23 6 -33 10 -16 11 -14 7 9 -2 15 1 29 7 32 7
3 6 5 -2 5 -7 1 -15 -5 -18 -13z"/>
<path d="M1560 1099 c0 -14 29 -17 34 -4 3 9 -2 13 -15 12 -10 -1 -19 -4 -19
-8z"/>
<path d="M1720 1091 c0 -6 4 -13 10 -16 6 -3 7 1 4 9 -7 18 -14 21 -14 7z"/>
<path d="M1415 1080 c-19 -8 -19 -9 3 -9 12 -1 22 4 22 9 0 6 -1 10 -2 9 -2 0
-12 -4 -23 -9z"/>
<path d="M1133 1054 c-3 -8 -1 -20 6 -27 8 -8 11 -4 11 16 0 30 -7 35 -17 11z"/>
<path d="M1320 1055 c-7 -9 -11 -18 -8 -20 3 -3 11 1 18 10 7 9 11 18 8 20 -3
3 -11 -1 -18 -10z"/>
<path d="M1450 1041 c0 -11 -4 -23 -10 -26 -5 -3 -10 -11 -10 -18 0 -6 6 -3
13 8 20 29 28 55 17 55 -6 0 -10 -9 -10 -19z"/>
<path d="M1680 1049 c0 -5 5 -7 10 -4 6 3 10 8 10 11 0 2 -4 4 -10 4 -5 0 -10
-5 -10 -11z"/>
<path d="M1771 1034 c0 -11 3 -14 6 -6 3 7 2 16 -1 19 -3 4 -6 -2 -5 -13z"/>
<path d="M1522 1008 c-15 -15 -16 -52 -2 -43 6 4 8 11 4 16 -3 5 0 16 6 24 15
18 9 20 -8 3z"/>
<path d="M1590 1005 c0 -9 5 -15 11 -13 6 2 11 8 11 13 0 5 -5 11 -11 13 -6 2
-11 -4 -11 -13z"/>
<path d="M1696 994 c3 -34 -13 -77 -26 -69 -5 3 -10 2 -10 -3 0 -20 29 -21 35
-1 4 10 10 17 14 14 11 -6 5 65 -7 77 -6 6 -8 -1 -6 -18z"/>
<path d="M1142 985 c0 -16 2 -22 5 -12 2 9 2 23 0 30 -3 6 -5 -1 -5 -18z"/>
<path d="M1630 989 c0 -11 5 -17 10 -14 6 3 10 13 10 21 0 8 -4 14 -10 14 -5
0 -10 -9 -10 -21z"/>
<path d="M1400 993 c0 -4 5 -15 10 -23 8 -13 10 -13 10 2 0 9 -4 20 -10 23 -5
3 -10 3 -10 -2z"/>
<path d="M1555 950 c-4 -27 -11 -50 -16 -50 -5 0 -9 -7 -9 -15 0 -8 7 -15 15
-15 9 0 12 6 9 15 -9 22 5 18 26 -7 l18 -23 -5 27 c-3 15 -10 26 -16 25 -7 -1
-13 8 -15 21 -2 12 1 22 7 22 13 0 15 37 2 44 -5 3 -12 -16 -16 -44z"/>
<path d="M1742 980 c0 -14 2 -19 5 -12 2 6 2 18 0 25 -3 6 -5 1 -5 -13z"/>
<path d="M1290 982 c0 -7 7 -24 17 -38 12 -19 18 -22 25 -12 6 10 10 10 17 -2
6 -8 13 -11 18 -7 4 5 2 12 -5 16 -8 4 -10 15 -6 27 6 14 2 13 -14 -6 -12 -14
-21 -20 -22 -14 0 16 -29 51 -30 36z"/>
<path d="M1768 966 c-6 -11 -33 -43 -60 -70 -43 -44 -47 -51 -31 -57 30 -12
34 -10 27 16 -5 21 -3 24 12 19 15 -5 16 -4 4 5 -12 8 -11 11 8 18 13 5 22 11
21 13 -5 10 27 50 39 50 10 0 12 -8 7 -30 -4 -20 -3 -30 5 -30 8 0 10 -8 7
-21 -4 -16 -3 -18 8 -9 10 8 11 18 5 35 -5 14 -5 26 3 34 8 8 8 11 -1 11 -7 0
-12 8 -12 18 0 25 -28 24 -42 -2z"/>
<path d="M1607 949 c4 -13 8 -18 11 -10 2 7 -1 18 -6 23 -8 8 -9 4 -5 -13z"/>
<path d="M1463 953 c-7 -2 -13 -11 -13 -19 0 -17 26 -8 34 12 6 14 0 16 -21 7z"/>
<path d="M1510 936 c0 -8 4 -17 9 -20 5 -4 7 3 4 14 -6 23 -13 26 -13 6z"/>
<path d="M1926 847 c3 -56 9 -143 15 -194 19 -185 9 -279 -44 -432 -9 -25 -14
-48 -11 -52 2 -4 0 -10 -5 -13 -5 -4 -10 -19 -10 -34 -2 -50 -4 -61 -13 -56
-10 6 -64 -43 -56 -51 3 -3 27 4 53 15 33 14 45 25 41 35 -3 8 4 47 15 87 36
133 61 290 56 356 -4 59 4 82 16 45 3 -10 15 -45 27 -78 37 -104 60 -198 60
-251 0 -46 35 -212 48 -224 2 -3 2 15 -2 40 -8 51 -2 50 18 -6 l15 -39 0 34
c1 18 -8 48 -19 66 -12 19 -22 59 -26 96 -11 126 -68 325 -111 388 -17 24 -23
47 -22 71 2 20 0 40 -3 45 -14 25 -18 65 -6 65 6 0 25 -12 41 -27 35 -32 26
-11 -12 29 -28 30 -42 83 -30 114 7 17 8 17 8 -3 1 -12 5 -25 11 -28 6 -3 7 1
4 9 -3 9 -1 16 4 16 6 0 14 -9 17 -20 3 -11 11 -20 16 -20 5 0 9 -7 9 -15 0
-8 5 -14 12 -13 7 2 12 -4 13 -12 0 -8 7 -14 16 -13 8 2 23 -11 32 -27 10 -17
23 -30 29 -30 5 0 8 -7 5 -14 -4 -11 -1 -13 10 -9 11 4 14 3 9 -6 -5 -7 0 -18
10 -27 11 -9 12 -12 4 -8 -8 4 8 -13 35 -39 28 -25 45 -46 38 -47 -7 0 -3 -10
10 -23 12 -13 26 -21 30 -19 5 2 3 -6 -3 -19 -7 -13 -9 -21 -5 -17 4 4 23 -9
41 -30 36 -40 42 -55 20 -46 -8 3 -17 0 -22 -7 -4 -8 -3 -10 4 -5 12 7 66 -41
99 -89 22 -31 23 -35 23 -61 0 -8 5 -12 10 -9 6 3 10 2 10 -3 0 -4 13 -23 29
-41 16 -17 36 -52 46 -77 9 -24 20 -42 25 -39 5 3 12 -4 15 -16 4 -13 12 -18
22 -15 8 3 34 -8 58 -24 24 -17 52 -30 62 -30 10 0 -12 20 -51 45 -38 25 -72
45 -76 45 -3 0 -17 19 -30 43 -34 60 -321 487 -373 555 -69 89 -164 188 -217
226 l-48 35 4 -102z"/>
<path d="M1402 918 c21 -31 33 -32 33 -4 0 18 -3 22 -12 14 -9 -7 -13 -7 -13
1 0 6 -5 11 -11 11 -7 0 -6 -8 3 -22z"/>
<path d="M1072 858 c-97 -100 -98 -101 -196 -274 -21 -38 -56 -99 -76 -136
-21 -38 -44 -84 -50 -104 -9 -28 -26 -45 -74 -74 -33 -21 -138 -89 -233 -152
-145 -95 -168 -114 -146 -116 18 -3 32 3 42 17 9 11 23 21 31 23 8 2 21 10 27
20 7 9 21 14 31 11 12 -3 25 4 36 22 9 14 21 23 27 20 5 -4 8 -1 7 6 -2 7 7
18 20 24 12 5 22 13 22 17 0 5 7 8 15 8 8 0 15 4 15 8 0 7 59 35 71 34 4 -1
17 10 29 23 22 24 68 36 55 15 -7 -11 8 -14 18 -3 4 3 0 11 -9 17 -13 10 -12
14 10 25 14 8 28 26 31 42 4 16 11 31 16 34 10 7 63 114 64 130 1 6 7 9 13 7
7 -1 12 3 11 10 -3 20 12 49 22 42 5 -3 9 2 9 10 0 9 6 16 13 16 8 0 7 4 -3
10 -13 9 -7 14 12 11 4 0 4 7 1 16 -5 12 -3 14 7 8 10 -6 11 -2 6 19 -4 16 -2
26 4 26 6 0 8 -4 5 -10 -3 -5 -1 -10 4 -10 6 0 11 7 11 15 0 8 5 15 12 15 6 0
3 6 -7 14 -18 13 -18 14 3 25 13 7 20 16 17 20 -2 5 7 21 22 36 18 17 29 22
32 14 2 -7 -4 -18 -14 -25 -11 -8 -15 -19 -10 -33 6 -20 -8 -28 -39 -22 -5 1
-4 -5 3 -13 11 -13 9 -21 -8 -45 -12 -16 -21 -32 -21 -35 0 -4 -12 -25 -27
-49 -15 -23 -26 -46 -25 -50 1 -5 -2 -6 -8 -2 -5 3 -10 -3 -10 -14 0 -12 -5
-21 -11 -21 -5 0 -7 -5 -4 -11 4 -6 -3 -20 -16 -32 -13 -13 -18 -22 -11 -25 8
-2 9 -9 2 -21 -5 -10 -6 -21 -3 -25 3 -3 1 -6 -5 -6 -7 0 -12 -7 -12 -16 0 -8
-4 -13 -8 -10 -4 2 -8 -5 -9 -17 -1 -12 -4 -33 -9 -45 -6 -22 -5 -23 12 -12
11 7 31 48 48 99 39 117 102 236 187 347 60 78 99 117 99 99 0 -19 -35 -85
-45 -85 -12 0 -25 -21 -25 -42 0 -5 6 -8 13 -5 6 2 12 10 12 18 0 7 7 15 16
17 14 2 15 -7 11 -75 -10 -162 -8 -173 85 -375 27 -58 36 -65 136 -107 70 -29
57 -10 -18 28 -64 32 -92 61 -80 81 3 6 -1 10 -9 10 -10 0 -16 9 -16 25 0 14
-4 25 -10 25 -5 0 -7 7 -4 15 4 8 2 15 -3 15 -5 0 -17 24 -27 53 -10 28 -20
59 -23 67 -3 8 -4 58 -3 110 5 195 2 350 -8 350 -5 0 -40 -33 -80 -72z m58
-12 c0 -25 -54 -75 -67 -62 -7 7 46 86 58 86 5 0 9 -11 9 -24z m-74 -101 c-3
-9 -11 -13 -16 -10 -8 5 -7 11 1 21 14 18 24 11 15 -11z"/>
<path d="M1287 912 c2 -10 13 -24 25 -31 20 -12 20 -12 2 18 -20 34 -35 41
-27 13z"/>
<path d="M1852 910 c-14 -23 -15 -30 -3 -30 8 0 24 41 18 47 -2 1 -8 -7 -15
-17z"/>
<path d="M1606 905 c4 -8 8 -15 10 -15 2 0 4 7 4 15 0 8 -4 15 -10 15 -5 0 -7
-7 -4 -15z"/>
<path d="M1200 899 c0 -5 5 -7 10 -4 6 3 10 8 10 11 0 2 -4 4 -10 4 -5 0 -10
-5 -10 -11z"/>
<path d="M1380 882 c0 -13 4 -21 9 -18 5 4 12 0 14 -6 4 -10 6 -10 6 0 1 10 6
10 21 2 14 -7 20 -7 20 0 0 5 -7 11 -15 11 -32 3 -36 4 -45 19 -8 12 -10 10
-10 -8z"/>
<path d="M1641 884 c0 -11 3 -14 6 -6 3 7 2 16 -1 19 -3 4 -6 -2 -5 -13z"/>
<path d="M1770 898 c-1 -5 -3 -13 -4 -18 0 -6 -8 -15 -16 -21 -10 -7 -11 -12
-4 -15 7 -3 10 -14 7 -24 -3 -11 -1 -20 5 -20 14 0 22 38 8 44 -8 3 -7 7 2 14
8 5 12 18 9 28 -3 11 -6 16 -7 12z"/>
<path d="M1205 870 c3 -5 8 -10 11 -10 2 0 4 5 4 10 0 6 -5 10 -11 10 -5 0 -7
-4 -4 -10z"/>
<path d="M1465 870 c-3 -5 1 -10 10 -10 9 0 13 5 10 10 -3 6 -8 10 -10 10 -2
0 -7 -4 -10 -10z"/>
<path d="M1500 870 c0 -5 5 -10 10 -10 6 0 10 5 10 10 0 6 -4 10 -10 10 -5 0
-10 -4 -10 -10z"/>
<path d="M1240 849 c0 -5 5 -7 10 -4 6 3 10 8 10 11 0 2 -4 4 -10 4 -5 0 -10
-5 -10 -11z"/>
<path d="M1804 846 c-10 -8 -16 -18 -11 -22 4 -4 0 -18 -8 -31 -9 -13 -11 -23
-5 -23 5 0 10 5 10 11 0 5 5 7 11 3 8 -5 10 1 7 20 -4 18 -2 26 6 23 7 -3 13
4 13 14 2 23 2 23 -23 5z"/>
<path d="M1353 843 c-7 -2 -13 -9 -13 -15 0 -6 7 -7 16 -4 11 4 15 2 11 -8 -4
-10 -1 -13 8 -10 7 3 15 -2 18 -13 4 -14 5 -14 6 5 0 12 -3 22 -9 22 -5 0 -10
7 -10 15 0 15 -6 17 -27 8z"/>
<path d="M1633 826 c-29 -27 -43 -36 -57 -36 -7 0 -16 -6 -18 -12 -8 -20 2
-38 20 -38 15 1 15 2 -2 15 -17 13 -17 14 10 21 38 9 74 38 66 51 -5 8 -11 7
-19 -1z"/>
<path d="M1575 820 c-3 -5 -2 -10 4 -10 5 0 13 5 16 10 3 6 2 10 -4 10 -5 0
-13 -4 -16 -10z"/>
<path d="M121 803 c7 -12 15 -20 18 -17 3 2 -3 12 -13 22 -17 16 -18 16 -5 -5z"/>
<path d="M1685 810 c-3 -5 -1 -10 4 -10 6 0 11 5 11 10 0 6 -2 10 -4 10 -3 0
-8 -4 -11 -10z"/>
<path d="M1720 810 c-8 -5 -12 -12 -9 -15 4 -3 12 1 19 10 14 17 11 19 -10 5z"/>
<path d="M1866 812 c-14 -23 -25 -62 -17 -62 10 0 34 61 27 67 -2 3 -7 0 -10
-5z"/>
<path d="M1413 785 c-3 -9 1 -23 9 -33 9 -9 13 -23 10 -31 -3 -8 0 -11 7 -7
14 9 14 33 1 38 -6 2 -12 13 -13 26 -2 26 -5 28 -14 7z"/>
<path d="M1358 783 c7 -3 16 -2 19 1 4 3 -2 6 -13 5 -11 0 -14 -3 -6 -6z"/>
<path d="M1520 783 c0 -6 -10 -9 -22 -7 -13 2 -17 2 -10 -2 6 -3 12 -13 12
-21 0 -12 3 -13 14 -4 11 9 15 9 18 -1 3 -8 7 -8 11 -1 3 5 0 19 -8 29 -8 10
-15 14 -15 7z"/>
<path d="M1640 780 c-9 -6 -10 -10 -3 -10 6 0 15 5 18 10 8 12 4 12 -15 0z"/>
<path d="M1672 778 c-7 -7 -12 -18 -12 -25 0 -7 -4 -13 -10 -13 -16 0 11 -48
30 -53 10 -2 24 -1 31 4 10 6 6 9 -14 9 -16 0 -26 4 -23 9 4 5 2 11 -4 13 -6
2 -4 15 5 32 17 32 15 42 -3 24z"/>
<path d="M1714 768 l-19 -23 23 19 c21 18 27 26 19 26 -2 0 -12 -10 -23 -22z"/>
<path d="M1260 765 c0 -8 4 -15 10 -15 5 0 7 7 4 15 -4 8 -8 15 -10 15 -2 0
-4 -7 -4 -15z"/>
<path d="M2556 768 c-86 -12 -114 -60 -65 -113 35 -39 191 -28 226 15 16 20
16 52 -1 75 -16 22 -91 33 -160 23z m144 -38 c13 -25 -1 -56 -29 -65 -11 -3
-52 -7 -92 -7 -78 -2 -102 12 -92 53 8 29 36 38 125 38 67 1 79 -2 88 -19z"/>
<path d="M1320 763 c0 -5 5 -15 10 -23 8 -12 10 -11 10 8 0 12 -4 22 -10 22
-5 0 -10 -3 -10 -7z"/>
<path d="M385 741 c-11 -9 -20 -22 -19 -28 1 -7 2 -24 3 -38 1 -33 31 -47 122
-58 24 -3 51 2 75 14 22 10 28 16 14 12 -40 -12 -135 -7 -166 8 -42 20 -46 65
-7 80 39 15 160 -1 193 -25 8 -6 7 -1 -4 11 -20 24 -44 30 -136 37 -41 3 -61
0 -75 -13z"/>
<path d="M1727 737 c-22 -28 -14 -34 12 -8 11 11 17 22 13 25 -4 2 -15 -5 -25
-17z"/>
<path d="M1461 740 c0 -8 4 -22 9 -30 6 -9 10 -11 10 -3 0 7 7 10 18 7 14 -5
14 -4 2 4 -8 6 -17 9 -21 6 -4 -2 -10 4 -12 13 -3 13 -5 14 -6 3z"/>
<path d="M1258 705 c-3 -14 -4 -25 -3 -25 2 0 10 11 19 25 13 20 14 25 2 25
-7 0 -16 -11 -18 -25z"/>
<path d="M1806 708 c8 -27 12 -33 19 -27 7 8 -7 49 -17 49 -5 0 -6 -10 -2 -22z"/>
<path d="M1335 710 c3 -5 8 -10 11 -10 2 0 4 5 4 10 0 6 -5 10 -11 10 -5 0 -7
-4 -4 -10z"/>
<path d="M2040 708 c0 -5 20 -35 44 -67 24 -33 52 -80 62 -105 11 -25 22 -46
26 -46 8 0 -36 98 -51 113 -6 6 -11 16 -11 21 -1 13 -70 95 -70 84z"/>
<path d="M1635 689 c-4 -6 -5 -12 -2 -15 2 -3 7 2 10 11 7 17 1 20 -8 4z"/>
<path d="M1780 680 c0 -11 2 -20 4 -20 2 0 6 9 9 20 3 11 1 20 -4 20 -5 0 -9
-9 -9 -20z"/>
<path d="M1320 686 c0 -2 7 -9 15 -16 12 -10 15 -10 15 4 0 9 -7 16 -15 16 -8
0 -15 -2 -15 -4z"/>
<path d="M1436 681 c-3 -5 1 -11 9 -15 8 -3 15 -1 15 4 0 13 -18 22 -24 11z"/>
<path d="M1480 681 c0 -6 5 -13 10 -16 6 -3 10 1 10 9 0 9 -4 16 -10 16 -5 0
-10 -4 -10 -9z"/>
<path d="M1520 684 c0 -7 27 -34 34 -34 4 0 1 9 -6 20 -12 19 -28 27 -28 14z"/>
<path d="M1575 670 c-3 -5 -1 -10 4 -10 6 0 11 5 11 10 0 6 -2 10 -4 10 -3 0
-8 -4 -11 -10z"/>
<path d="M1720 669 c0 -5 5 -7 10 -4 6 3 10 8 10 11 0 2 -4 4 -10 4 -5 0 -10
-5 -10 -11z"/>
<path d="M1667 657 c-3 -8 -2 -29 3 -48 8 -33 8 -33 9 14 1 48 -3 58 -12 34z"/>
<path d="M1817 663 c-3 -5 -1 -17 4 -28 7 -17 8 -17 8 8 1 27 -4 34 -12 20z"/>
<path d="M1059 658 c-6 -26 -9 -37 -15 -57 -10 -35 12 -18 24 19 7 18 7 32 1
35 -5 4 -9 5 -10 3z"/>
<path d="M1637 645 c-4 -8 -2 -17 3 -20 6 -4 10 3 10 14 0 25 -6 27 -13 6z"/>
<path d="M1690 650 c0 -5 5 -10 10 -10 6 0 10 5 10 10 0 6 -4 10 -10 10 -5 0
-10 -4 -10 -10z"/>
<path d="M1735 641 c-9 -11 -15 -28 -12 -38 4 -14 5 -13 6 5 0 13 5 21 11 17
5 -3 6 -13 3 -23 -4 -13 -2 -13 10 3 30 37 14 70 -18 36z"/>
<path d="M1345 641 c3 -5 -1 -16 -9 -24 -8 -8 -12 -17 -9 -21 10 -10 20 -7 20
7 0 6 4 20 8 30 4 10 3 17 -5 17 -6 0 -9 -4 -5 -9z"/>
<path d="M1404 642 c-7 -4 -8 -16 -4 -27 7 -19 7 -19 14 3 9 27 5 34 -10 24z"/>
<path d="M1519 623 c-13 -17 -13 -17 6 -3 11 8 22 16 24 17 2 2 0 3 -6 3 -6 0
-17 -8 -24 -17z"/>
<path d="M1291 614 c0 -11 3 -14 6 -6 3 7 2 16 -1 19 -3 4 -6 -2 -5 -13z"/>
<path d="M444 598 c-4 -7 -3 -8 4 -4 7 4 12 1 12 -8 0 -13 19 -16 103 -18
l102 -3 0 -36 c0 -21 5 -36 12 -36 8 0 11 11 7 33 -6 41 5 48 80 45 34 -1 68
3 76 9 16 11 7 12 -130 15 -41 1 -93 3 -115 4 -22 1 -54 -1 -71 -5 -18 -3 -41
-1 -52 5 -15 8 -23 8 -28 -1z"/>
<path d="M1460 599 c0 -5 5 -7 10 -4 6 3 10 8 10 11 0 2 -4 4 -10 4 -5 0 -10
-5 -10 -11z"/>
<path d="M1521 573 c-1 -12 4 -25 9 -28 12 -7 12 2 0 30 -8 19 -9 19 -9 -2z"/>
<path d="M1620 581 c0 -6 4 -13 10 -16 6 -3 7 1 4 9 -7 18 -14 21 -14 7z"/>
<path d="M1090 564 c0 -8 -4 -13 -8 -10 -5 3 -9 0 -10 -7 -15 -122 -24 -209
-23 -235 1 -20 -3 -31 -9 -27 -5 3 -10 2 -10 -4 0 -5 4 -12 8 -15 4 -2 3 -58
-3 -123 -12 -118 -11 -143 6 -143 12 0 17 41 29 235 12 182 23 286 34 323 5
13 3 22 -3 22 -6 0 -11 -7 -11 -16z"/>
<path d="M1685 570 c-3 -5 -1 -10 4 -10 6 0 11 5 11 10 0 6 -2 10 -4 10 -3 0
-8 -4 -11 -10z"/>
<path d="M1657 563 c-4 -3 -7 -11 -7 -17 0 -6 5 -5 12 2 6 6 9 14 7 17 -3 3
-9 2 -12 -2z"/>
<path d="M1783 532 c0 -22 4 -29 10 -23 7 7 7 18 0 33 -9 20 -10 20 -10 -10z"/>
<path d="M1566 524 c-24 -23 -19 -27 9 -8 14 9 25 18 25 20 0 10 -20 3 -34
-12z"/>
<path d="M1602 512 c-11 -25 -11 -25 4 -10 9 9 15 21 13 27 -2 6 -10 -2 -17
-17z"/>
<path d="M1470 520 c0 -5 7 -10 15 -10 20 0 19 -17 -2 -29 -17 -10 -17 -10 -1
-11 22 0 31 15 23 40 -6 20 -35 28 -35 10z"/>
<path d="M1281 464 c0 -11 3 -14 6 -6 3 7 2 16 -1 19 -3 4 -6 -2 -5 -13z"/>
<path d="M1352 454 c10 -10 20 -16 22 -13 3 3 -5 11 -17 18 -21 13 -21 12 -5
-5z"/>
<path d="M1603 445 c-3 -9 -3 -18 -1 -21 3 -3 8 4 11 16 6 23 -1 27 -10 5z"/>
<path d="M667 433 c4 -19 1 -23 -21 -23 -18 0 -24 -4 -20 -15 4 -10 14 -13 29
-9 17 4 26 0 35 -15 6 -12 16 -21 22 -21 6 0 4 8 -5 18 -10 10 -17 25 -17 33
0 9 -7 24 -15 35 -14 18 -14 18 -8 -3z"/>
<path d="M938 443 c7 -3 16 -2 19 1 4 3 -2 6 -13 5 -11 0 -14 -3 -6 -6z"/>
<path d="M1525 420 c-3 -5 1 -10 9 -10 9 0 16 5 16 10 0 6 -4 10 -9 10 -6 0
-13 -4 -16 -10z"/>
<path d="M235 410 c3 -5 8 -10 11 -10 2 0 4 5 4 10 0 6 -5 10 -11 10 -5 0 -7
-4 -4 -10z"/>
<path d="M2191 404 c0 -11 3 -14 6 -6 3 7 2 16 -1 19 -3 4 -6 -2 -5 -13z"/>
<path d="M1440 394 c0 -8 5 -12 10 -9 6 3 10 10 10 16 0 5 -4 9 -10 9 -5 0
-10 -7 -10 -16z"/>
<path d="M946 387 c3 -10 9 -15 12 -12 3 3 0 11 -7 18 -10 9 -11 8 -5 -6z"/>
<path d="M1880 388 c0 -9 5 -20 10 -23 13 -8 13 5 0 25 -8 13 -10 13 -10 -2z"/>
<path d="M604 343 c-22 -30 -19 -73 5 -81 10 -3 11 0 2 16 -15 28 -14 42 4 42
9 0 15 9 15 25 0 31 -2 31 -26 -2z"/>
<path d="M886 353 c-6 -14 -5 -15 5 -6 7 7 10 15 7 18 -3 3 -9 -2 -12 -12z"/>
<path d="M1330 350 c0 -5 5 -10 11 -10 5 0 7 5 4 10 -3 6 -8 10 -11 10 -2 0
-4 -4 -4 -10z"/>
<path d="M1322 299 c2 -7 10 -15 17 -17 8 -3 12 1 9 9 -2 7 -10 15 -17 17 -8
3 -12 -1 -9 -9z"/>
<path d="M2330 281 c0 -5 5 -13 10 -16 6 -3 10 -2 10 4 0 5 -4 13 -10 16 -5 3
-10 2 -10 -4z"/>
<path d="M2893 254 c-11 -11 -2 -13 48 -12 40 1 55 5 44 10 -8 5 -19 7 -24 3
-5 -3 -20 -1 -33 4 -16 6 -27 5 -35 -5z"/>
<path d="M2250 245 c0 -21 13 -25 28 -9 7 8 11 14 10 15 -26 7 -38 5 -38 -6z"/>
<path d="M815 213 c-8 -20 -13 -38 -10 -41 3 -3 5 -3 5 0 0 3 7 22 15 42 8 20
13 36 10 36 -2 0 -12 -16 -20 -37z"/>
<path d="M1131 234 c0 -11 3 -14 6 -6 3 7 2 16 -1 19 -3 4 -6 -2 -5 -13z"/>
<path d="M2370 230 c6 -11 13 -20 16 -20 2 0 0 9 -6 20 -6 11 -13 20 -16 20
-2 0 0 -9 6 -20z"/>
<path d="M767 222 c-10 -10 -17 -24 -17 -32 0 -7 10 -1 21 14 24 31 21 45 -4
18z"/>
<path d="M2827 216 c-17 -17 -11 -67 7 -60 6 2 11 20 11 39 0 40 1 39 -18 21z"/>
<path d="M1176 204 c-11 -10 -16 -34 -16 -70 0 -30 -7 -71 -15 -91 -18 -43
-18 -43 0 -43 8 0 19 17 26 42 l11 43 14 -28 c15 -28 30 -38 20 -12 -3 8 -1
15 4 15 6 0 10 5 10 10 0 6 -6 10 -13 10 -14 0 -37 40 -37 65 0 8 7 15 16 15
9 0 12 -5 8 -12 -4 -7 1 -6 10 3 13 12 15 21 7 42 -12 31 -23 34 -45 11z"/>
<path d="M2880 195 c0 -8 4 -15 10 -15 5 0 7 7 4 15 -4 8 -8 15 -10 15 -2 0
-4 -7 -4 -15z"/>
<path d="M2390 196 c0 -2 7 -9 15 -16 13 -11 14 -10 9 4 -5 14 -24 23 -24 12z"/>
<path d="M866 175 c-3 -8 -1 -15 4 -15 6 0 10 7 10 15 0 8 -2 15 -4 15 -2 0
-6 -7 -10 -15z"/>
<path d="M596 165 c-11 -8 -15 -15 -10 -15 6 0 19 7 30 15 10 8 15 14 9 14 -5
0 -19 -6 -29 -14z"/>
<path d="M649 137 c-9 -12 -19 -32 -23 -45 -7 -22 -6 -22 13 -10 12 7 17 14
11 16 -5 2 -2 14 7 28 20 31 14 40 -8 11z"/>
<path d="M668 79 c-42 -43 -71 -79 -64 -79 20 0 110 90 128 128 9 17 16 32 15
31 -1 -1 -37 -37 -79 -80z"/>
<path d="M785 150 c-3 -5 -4 -10 0 -10 3 0 1 -9 -5 -20 -8 -14 -8 -20 0 -20 9
0 30 40 30 56 0 8 -19 4 -25 -6z"/>
<path d="M1278 148 c7 -7 16 -13 20 -14 4 0 26 -8 50 -18 28 -12 42 -24 42
-37 0 -19 15 -26 24 -10 10 16 -47 55 -119 81 -25 9 -28 9 -17 -2z"/>
<path d="M2436 146 c3 -8 13 -17 22 -21 13 -5 13 -2 -3 15 -21 24 -26 25 -19
6z"/>
<path d="M845 140 c4 -6 11 -8 16 -5 14 9 11 15 -7 15 -8 0 -12 -5 -9 -10z"/>
<path d="M1417 138 c-4 -14 19 -56 40 -73 7 -5 17 -23 23 -38 5 -16 15 -25 20
-22 11 7 -19 63 -52 100 -10 10 -16 25 -14 32 3 7 1 13 -3 13 -5 0 -11 -6 -14
-12z"/>
<path d="M560 79 c-19 -21 -38 -39 -43 -39 -4 0 -17 -9 -29 -20 -12 -11 -18
-20 -12 -20 25 0 129 91 123 108 -2 5 -20 -8 -39 -29z"/>
<path d="M1943 93 c3 -18 -2 -39 -14 -60 l-20 -31 22 5 c11 3 24 15 29 27 7
20 8 20 15 -6 4 -16 14 -28 22 -28 16 0 13 19 -14 83 -19 44 -48 52 -40 10z"/>
<path d="M2485 86 c10 -14 19 -26 22 -26 7 0 -17 39 -28 46 -6 3 -3 -5 6 -20z"/>
<path d="M2665 100 c-8 -13 5 -13 25 0 13 8 13 10 -2 10 -9 0 -20 -4 -23 -10z"/>
<path d="M2770 74 c-14 -35 -13 -44 5 -44 10 0 15 11 15 35 0 41 -7 45 -20 9z"/>
<path d="M765 80 c3 -5 10 -10 16 -10 5 0 9 5 9 10 0 6 -7 10 -16 10 -8 0 -12
-4 -9 -10z"/>
<path d="M1300 60 c-12 -8 -11 -10 8 -10 12 0 22 5 22 10 0 13 -11 13 -30 0z"/>
<path d="M1340 59 c0 -5 5 -7 10 -4 6 3 10 8 10 11 0 2 -4 4 -10 4 -5 0 -10
-5 -10 -11z"/>
<path d="M2063 35 c0 -22 2 -30 4 -17 2 12 2 30 0 40 -3 9 -5 -1 -4 -23z"/>
<path d="M430 50 c0 -5 5 -10 11 -10 5 0 7 5 4 10 -3 6 -8 10 -11 10 -2 0 -4
-4 -4 -10z"/>
<path d="M720 56 c0 -2 7 -6 15 -10 8 -3 15 -1 15 4 0 6 -7 10 -15 10 -8 0
-15 -2 -15 -4z"/>
<path d="M1390 30 c-21 -7 -21 -8 -5 -9 11 0 27 4 35 9 18 11 5 11 -30 0z"/>
<path d="M2630 9 c0 -5 9 -9 20 -9 11 0 20 2 20 4 0 2 -9 6 -20 9 -11 3 -20 1
-20 -4z"/>
<path d="M2915 10 c-3 -5 1 -10 10 -10 9 0 13 5 10 10 -3 6 -8 10 -10 10 -2 0
-7 -4 -10 -10z"/>
<path d="M2968 3 c6 -2 18 -2 25 0 6 3 1 5 -13 5 -14 0 -19 -2 -12 -5z"/>
</g>
</svg>
