<?xml version="1.0" standalone="no"?>
<!DOCTYPE svg PUBLIC "-//W3C//DTD SVG 20010904//EN"
 "http://www.w3.org/TR/2001/REC-SVG-20010904/DTD/svg10.dtd">
<svg version="1.0" xmlns="http://www.w3.org/2000/svg"
 width="300.000000pt" height="300.000000pt" viewBox="0 0 300.000000 300.000000"
 preserveAspectRatio="xMidYMid meet">
<metadata>
Created by potrace 1.10, written by Peter Selinger 2001-2011
</metadata>
<g transform="translate(0.000000,300.000000) scale(0.100000,-0.100000)"
fill="#000000" stroke="none">
<path d="M540 2980 c-14 -11 -20 -20 -14 -20 6 0 19 9 29 20 23 25 17 25 -15
0z"/>
<path d="M606 2992 c-2 -4 -7 -28 -10 -52 -8 -66 -11 -78 -44 -160 -16 -41
-32 -83 -36 -94 -4 -12 -12 -16 -24 -12 -15 5 -15 4 2 -8 17 -14 17 -17 2 -48
-15 -29 -15 -31 -1 -17 9 9 17 27 19 40 2 13 8 37 15 52 6 16 11 32 11 36 0 4
7 16 16 27 8 10 13 14 9 7 -3 -7 -8 -40 -12 -75 -3 -35 -10 -71 -15 -81 -5
-10 -7 -21 -4 -25 3 -3 6 0 6 7 0 7 5 9 12 5 7 -4 8 -3 4 4 -4 7 -2 12 3 12 6
0 11 -6 11 -14 0 -21 -11 -46 -19 -42 -3 2 -6 -13 -6 -35 0 -42 15 -47 27 -8
4 13 5 -37 2 -111 -5 -133 -7 -365 -5 -530 1 -63 4 -81 13 -72 6 6 11 25 10
42 0 17 4 28 9 25 5 -4 9 -1 9 4 0 6 -4 11 -9 11 -4 0 -8 45 -8 100 0 62 4 97
10 93 6 -4 7 -1 2 7 -11 18 -12 110 -2 117 5 3 7 39 6 82 -2 42 1 87 5 100 6
18 5 22 -5 15 -9 -5 -8 1 4 19 19 29 23 52 7 42 -10 -6 -14 11 -12 55 1 23 1
23 -8 5 -8 -19 -9 -19 -9 3 -1 12 3 22 8 22 6 0 5 13 -1 33 -23 73 -25 107
-11 179 8 40 15 82 16 94 1 11 8 28 16 37 11 14 11 20 1 32 -11 14 -7 19 13
16 4 0 7 4 7 9 0 6 -5 10 -11 10 -8 0 -8 4 1 15 6 8 9 19 5 25 -7 12 -22 13
-29 2z m-39 -344 c-3 -8 -6 -5 -6 6 -1 11 2 17 5 13 3 -3 4 -12 1 -19z m30
-420 c-2 -13 -4 -5 -4 17 -1 22 1 32 4 23 2 -10 2 -28 0 -40z"/>
<path d="M715 2965 c-15 -19 -24 -39 -20 -45 3 -5 1 -10 -5 -10 -7 0 -10 -7
-6 -15 3 -8 1 -15 -4 -15 -6 0 -10 -5 -10 -11 0 -5 4 -8 9 -5 5 4 11 1 13 -6
3 -9 6 -9 12 0 4 7 2 12 -4 12 -7 0 -8 6 0 19 5 11 8 26 5 33 -3 7 6 26 20 42
14 16 25 31 25 33 0 10 -12 -1 -35 -32z"/>
<path d="M837 2981 c-2 -10 -1 -25 4 -32 6 -10 9 -4 9 19 0 36 -5 42 -13 13z"/>
<path d="M901 2980 c14 -31 19 -36 19 -24 0 6 -7 19 -16 30 -14 18 -14 18 -3
-6z"/>
<path d="M1093 2985 c0 -8 4 -15 9 -15 4 0 8 4 8 9 0 6 -4 12 -8 15 -5 3 -9
-1 -9 -9z"/>
<path d="M1134 2985 c8 -8 20 -15 27 -15 9 0 8 4 -1 15 -7 8 -19 15 -27 15
-12 0 -12 -2 1 -15z"/>
<path d="M1511 2984 c0 -11 3 -14 6 -6 3 7 2 16 -1 19 -3 4 -6 -2 -5 -13z"/>
<path d="M1533 2978 c1 -21 4 -24 14 -16 7 6 13 18 12 27 0 12 -2 11 -8 -4 -8
-20 -8 -20 -14 0 -3 14 -4 12 -4 -7z"/>
<path d="M1626 2985 c4 -8 8 -15 10 -15 2 0 4 7 4 15 0 8 -4 15 -10 15 -5 0
-7 -7 -4 -15z"/>
<path d="M1774 2985 c-3 -8 -4 -20 -2 -27 3 -7 7 -1 10 15 6 29 1 36 -8 12z"/>
<path d="M1944 2993 c3 -6 1 -24 -5 -40 -7 -15 -14 -43 -16 -62 -3 -31 -2 -33
12 -21 11 9 15 23 12 39 -3 13 0 35 6 48 8 18 7 27 -3 36 -9 8 -11 8 -6 0z"/>
<path d="M1976 2992 c-3 -5 1 -9 9 -9 8 0 15 4 15 9 0 4 -4 8 -9 8 -6 0 -12
-4 -15 -8z"/>
<path d="M2165 2990 c-3 -6 -3 -20 0 -31 5 -16 4 -19 -6 -13 -7 4 -2 -9 10
-30 13 -20 25 -57 26 -81 2 -24 6 -48 9 -54 4 -6 5 -15 1 -20 -3 -5 -1 -12 3
-15 5 -3 7 -17 4 -31 -3 -18 2 -31 14 -41 11 -9 13 -13 7 -9 -15 7 -18 -21 -3
-30 6 -3 10 -14 10 -23 -1 -15 -2 -15 -15 2 -19 25 -19 14 -2 -22 19 -37 23
-167 5 -156 -8 5 -7 1 2 -11 11 -14 12 -19 3 -22 -18 -6 -16 -28 3 -44 8 -7
13 -21 11 -31 -3 -10 -1 -21 4 -24 5 -3 8 -17 8 -32 -1 -17 -3 -21 -6 -9 -2 9
-8 17 -12 17 -4 0 -2 -33 6 -72 20 -100 24 -188 9 -185 -17 3 -10 -209 8 -235
14 -19 14 -19 14 4 0 13 3 82 7 153 5 72 8 137 8 145 -2 33 -14 146 -19 168
-3 16 -1 21 7 17 8 -5 9 -1 3 16 -5 13 -9 42 -9 64 0 22 -3 42 -6 45 -10 9
-20 120 -10 120 5 0 12 -7 15 -16 4 -9 9 -14 13 -10 3 3 -2 15 -11 25 -10 11
-16 28 -15 38 1 10 -1 47 -6 83 -5 36 -8 68 -7 72 1 4 -10 56 -24 115 -24 99
-29 124 -33 161 -1 15 -17 16 -26 2z m105 -1007 c0 -21 -3 -24 -9 -14 -5 8 -7
20 -4 28 8 21 13 15 13 -14z"/>
<path d="M2236 2983 c-6 -14 -5 -15 5 -6 7 7 10 15 7 18 -3 3 -9 -2 -12 -12z"/>
<path d="M1452 2970 c-14 -23 -16 -60 -2 -60 5 0 7 -8 3 -17 -4 -11 -2 -15 3
-10 6 6 15 107 9 107 0 0 -6 -9 -13 -20z"/>
<path d="M1487 2975 c-4 -8 -2 -17 3 -20 6 -4 10 3 10 14 0 25 -6 27 -13 6z"/>
<path d="M1380 2970 c0 -5 5 -10 10 -10 6 0 10 5 10 10 0 6 -4 10 -10 10 -5 0
-10 -4 -10 -10z"/>
<path d="M1578 2958 c-14 -27 -23 -82 -8 -59 6 11 9 9 13 -10 2 -13 3 -7 1 13
-2 20 -1 45 3 55 6 16 8 15 14 -7 6 -23 7 -23 8 -3 1 31 -16 37 -31 11z"/>
<path d="M1885 2970 c-3 -5 -1 -10 4 -10 6 0 11 5 11 10 0 6 -2 10 -4 10 -3 0
-8 -4 -11 -10z"/>
<path d="M2122 2950 c0 -19 2 -27 5 -17 2 9 2 25 0 35 -3 9 -5 1 -5 -18z"/>
<path d="M747 2956 c-4 -10 -1 -13 8 -9 8 3 12 9 9 14 -7 12 -11 11 -17 -5z"/>
<path d="M931 2954 c0 -11 3 -14 6 -6 3 7 2 16 -1 19 -3 4 -6 -2 -5 -13z"/>
<path d="M1300 2959 c0 -5 5 -7 10 -4 6 3 10 8 10 11 0 2 -4 4 -10 4 -5 0 -10
-5 -10 -11z"/>
<path d="M2055 2938 c-9 -48 -3 -67 11 -30 6 15 7 37 4 47 -6 16 -9 13 -15
-17z"/>
<path d="M1978 2923 c3 -21 7 -30 12 -23 8 13 2 47 -9 54 -4 3 -5 -11 -3 -31z"/>
<path d="M1125 2940 c3 -5 10 -10 16 -10 5 0 9 5 9 10 0 6 -7 10 -16 10 -8 0
-12 -4 -9 -10z"/>
<path d="M1745 2939 c-4 -6 -5 -12 -2 -15 2 -3 7 2 10 11 7 17 1 20 -8 4z"/>
<path d="M1790 2941 c0 -7 -4 -10 -9 -7 -5 4 -7 -4 -3 -16 l5 -22 9 24 c5 12
6 25 3 28 -3 3 -5 0 -5 -7z"/>
<path d="M900 2931 c0 -5 5 -13 10 -16 6 -3 10 -2 10 4 0 5 -4 13 -10 16 -5 3
-10 2 -10 -4z"/>
<path d="M1187 2926 c-5 -12 0 -16 17 -16 14 0 27 -6 29 -12 4 -8 6 -9 6 -2 1
6 -6 17 -14 24 -8 7 -15 9 -15 4 0 -5 -4 -3 -9 4 -7 11 -9 11 -14 -2z"/>
<path d="M1285 2929 c-11 -16 -1 -19 13 -3 7 8 8 14 3 14 -5 0 -13 -5 -16 -11z"/>
<path d="M1511 2926 c-7 -8 -11 -23 -8 -33 3 -14 6 -12 16 11 13 33 9 43 -8
22z"/>
<path d="M2029 2908 c-3 -22 -1 -34 4 -29 5 5 7 21 5 37 -3 27 -4 26 -9 -8z"/>
<path d="M1087 2909 c4 -13 8 -18 11 -10 2 7 -1 18 -6 23 -8 8 -9 4 -5 -13z"/>
<path d="M1661 2914 c0 -11 3 -14 6 -6 3 7 2 16 -1 19 -3 4 -6 -2 -5 -13z"/>
<path d="M941 2904 c0 -11 3 -14 6 -6 3 7 2 16 -1 19 -3 4 -6 -2 -5 -13z"/>
<path d="M1376 2907 c3 -10 9 -15 12 -12 3 3 0 11 -7 18 -10 9 -11 8 -5 -6z"/>
<path d="M1607 2906 c-4 -10 -7 -25 -6 -34 0 -11 4 -9 10 7 5 13 8 29 6 35 -2
5 -6 2 -10 -8z"/>
<path d="M2136 2904 c-3 -9 -2 -23 4 -32 7 -14 9 -10 10 16 0 35 -5 41 -14 16z"/>
<path d="M2230 2916 c0 -2 7 -7 16 -10 8 -3 12 -2 9 4 -6 10 -25 14 -25 6z"/>
<path d="M1641 2894 c0 -11 3 -14 6 -6 3 7 2 16 -1 19 -3 4 -6 -2 -5 -13z"/>
<path d="M831 2895 c-1 -5 -4 -26 -6 -44 -2 -27 -1 -31 7 -18 5 10 7 30 5 45
-2 15 -5 23 -6 17z"/>
<path d="M1160 2895 c0 -2 14 -13 30 -25 17 -12 30 -18 30 -13 0 4 -14 16 -30
25 -17 9 -30 15 -30 13z"/>
<path d="M2064 2855 c-3 -25 -4 -49 0 -52 3 -4 6 5 6 20 0 14 4 37 10 51 5 15
6 26 0 26 -5 0 -12 -20 -16 -45z"/>
<path d="M1267 2876 c-4 -10 -1 -13 8 -9 8 3 12 9 9 14 -7 12 -11 11 -17 -5z"/>
<path d="M1746 2882 c-2 -4 -1 -14 5 -22 7 -12 9 -10 9 8 0 23 -5 28 -14 14z"/>
<path d="M1791 2874 c0 -11 3 -14 6 -6 3 7 2 16 -1 19 -3 4 -6 -2 -5 -13z"/>
<path d="M2161 2880 c0 -8 4 -24 9 -35 5 -13 9 -14 9 -5 0 8 -4 24 -9 35 -5
13 -9 14 -9 5z"/>
<path d="M1150 2871 c0 -5 5 -13 10 -16 6 -3 10 -2 10 4 0 5 -4 13 -10 16 -5
3 -10 2 -10 -4z"/>
<path d="M1540 2870 c0 -5 5 -10 10 -10 6 0 10 5 10 10 0 6 -4 10 -10 10 -5 0
-10 -4 -10 -10z"/>
<path d="M1710 2871 c0 -7 -4 -10 -9 -7 -5 4 -7 -4 -3 -16 l5 -22 9 24 c5 12
6 25 3 28 -3 3 -5 0 -5 -7z"/>
<path d="M464 2855 c-24 -18 -7 -19 26 0 16 9 19 14 9 15 -8 0 -24 -7 -35 -15z"/>
<path d="M946 2858 c3 -5 10 -6 15 -3 13 9 11 12 -6 12 -8 0 -12 -4 -9 -9z"/>
<path d="M1111 2859 c0 -9 6 -30 14 -45 8 -16 15 -22 15 -13 0 8 -4 19 -9 25
-5 5 -11 18 -14 29 -3 14 -5 15 -6 4z"/>
<path d="M720 2849 c0 -5 5 -7 10 -4 6 3 10 8 10 11 0 2 -4 4 -10 4 -5 0 -10
-5 -10 -11z"/>
<path d="M1630 2849 c0 -5 5 -7 10 -4 6 3 10 8 10 11 0 2 -4 4 -10 4 -5 0 -10
-5 -10 -11z"/>
<path d="M1388 2843 c7 -3 16 -2 19 1 4 3 -2 6 -13 5 -11 0 -14 -3 -6 -6z"/>
<path d="M1471 2834 c-1 -12 5 -27 13 -34 8 -6 12 -19 9 -28 -4 -15 -3 -15 6
-2 14 20 14 41 -1 38 -6 -2 -15 8 -19 22 -6 22 -7 23 -8 4z"/>
<path d="M1583 2834 c-3 -8 -2 -19 3 -24 5 -5 9 1 9 16 0 28 -3 30 -12 8z"/>
<path d="M1802 2838 c4 -9 10 -36 13 -62 4 -25 12 -49 18 -53 6 -4 8 0 5 9 -4
9 -10 36 -13 62 -4 25 -12 49 -18 53 -6 4 -8 0 -5 -9z"/>
<path d="M1840 2843 c0 -6 8 -17 18 -24 16 -13 16 -13 2 6 -8 11 -16 22 -17
24 -2 2 -3 0 -3 -6z"/>
<path d="M1890 2841 c0 -10 19 -25 25 -20 1 2 -3 10 -11 17 -8 7 -14 8 -14 3z"/>
<path d="M777 2825 c-3 -11 -9 -37 -13 -57 -3 -21 -11 -36 -16 -35 -6 1 -13
-5 -15 -13 -4 -12 -3 -12 5 -2 5 8 13 12 18 10 10 -3 36 90 30 107 -1 6 -6 1
-9 -10z"/>
<path d="M894 2817 c-3 -13 -1 -39 4 -58 9 -31 10 -29 8 23 0 32 -2 58 -3 58
-2 0 -5 -11 -9 -23z"/>
<path d="M970 2829 c0 -5 5 -7 10 -4 6 3 10 8 10 11 0 2 -4 4 -10 4 -5 0 -10
-5 -10 -11z"/>
<path d="M530 2819 c0 -5 5 -7 10 -4 6 3 10 8 10 11 0 2 -4 4 -10 4 -5 0 -10
-5 -10 -11z"/>
<path d="M653 2817 c0 -6 -3 -34 -7 -62 -7 -46 -6 -49 8 -31 10 12 12 22 6 26
-6 3 -4 16 4 32 11 22 12 29 2 37 -9 8 -13 7 -13 -2z"/>
<path d="M717 2823 c-4 -3 -7 -11 -7 -17 0 -6 5 -5 12 2 6 6 9 14 7 17 -3 3
-9 2 -12 -2z"/>
<path d="M1385 2820 c-3 -5 -1 -10 4 -10 6 0 11 5 11 10 0 6 -2 10 -4 10 -3 0
-8 -4 -11 -10z"/>
<path d="M1756 2815 c-4 -11 -4 -16 0 -12 4 4 13 2 21 -4 10 -9 13 -8 13 5 0
10 -4 15 -9 12 -5 -4 -11 -1 -13 6 -3 7 -7 4 -12 -7z"/>
<path d="M2116 2814 c-3 -9 -6 -24 -6 -35 0 -16 2 -18 14 -7 8 7 10 16 5 19
-6 3 -7 13 -3 22 3 9 4 17 1 17 -3 0 -8 -7 -11 -16z"/>
<path d="M746 2805 c-3 -9 -6 -22 -5 -28 0 -7 5 -1 10 12 5 13 8 26 5 28 -2 2
-6 -3 -10 -12z"/>
<path d="M854 2805 c-3 -8 -4 -20 -2 -27 3 -7 7 -1 10 15 6 29 1 36 -8 12z"/>
<path d="M1101 2804 c-1 -32 25 -89 34 -74 6 9 9 9 16 -1 11 -18 10 0 -1 26
-8 19 -9 19 -9 1 -1 -28 -17 -9 -29 34 -7 23 -11 28 -11 14z"/>
<path d="M1151 2815 c0 -5 6 -21 14 -35 8 -14 14 -20 14 -15 0 6 -6 21 -14 35
-8 14 -14 21 -14 15z"/>
<path d="M1196 2809 c3 -5 10 -7 15 -3 5 3 17 0 25 -7 15 -12 33 -5 20 8 -10
11 -67 12 -60 2z"/>
<path d="M1326 2812 c-3 -5 1 -9 9 -9 8 0 15 4 15 9 0 4 -4 8 -9 8 -6 0 -12
-4 -15 -8z"/>
<path d="M1410 2814 c0 -5 7 -18 15 -28 12 -16 15 -17 15 -4 0 8 -7 21 -15 28
-8 7 -15 9 -15 4z"/>
<path d="M1521 2804 c0 -11 3 -14 6 -6 3 7 2 16 -1 19 -3 4 -6 -2 -5 -13z"/>
<path d="M802 2785 c-7 -14 -12 -31 -12 -38 1 -7 7 3 16 22 17 39 13 54 -4 16z"/>
<path d="M622 2780 c0 -14 2 -19 5 -12 2 6 2 18 0 25 -3 6 -5 1 -5 -13z"/>
<path d="M687 2778 c-8 -29 -4 -32 11 -8 6 10 8 21 3 24 -5 3 -11 -4 -14 -16z"/>
<path d="M997 2784 c6 -15 23 -19 23 -5 0 5 -7 11 -14 14 -10 4 -13 1 -9 -9z"/>
<path d="M1906 2774 c4 -26 0 -35 -23 -52 -15 -11 -25 -23 -22 -26 11 -11 67
49 73 79 5 26 5 28 -6 10 -11 -19 -11 -19 -20 0 -5 14 -6 11 -2 -11z"/>
<path d="M1375 2781 c-4 -7 0 -8 11 -4 12 4 15 3 10 -5 -4 -7 -2 -12 4 -12 14
0 8 22 -7 27 -6 2 -14 -1 -18 -6z"/>
<path d="M1681 2774 c0 -11 3 -14 6 -6 3 7 2 16 -1 19 -3 4 -6 -2 -5 -13z"/>
<path d="M1746 2773 c-6 -14 -5 -15 5 -6 7 7 10 15 7 18 -3 3 -9 -2 -12 -12z"/>
<path d="M510 2770 c0 -5 5 -10 10 -10 6 0 10 5 10 10 0 6 -4 10 -10 10 -5 0
-10 -4 -10 -10z"/>
<path d="M928 2768 c7 -7 12 -21 12 -32 0 -10 3 -17 6 -13 10 10 -5 57 -18 57
-9 0 -9 -3 0 -12z"/>
<path d="M1230 2765 c0 -9 6 -12 15 -9 8 4 15 7 15 9 0 2 -7 5 -15 9 -9 3 -15
0 -15 -9z"/>
<path d="M1620 2768 c0 -4 4 -8 9 -8 6 0 12 4 15 8 3 5 -1 9 -9 9 -8 0 -15 -4
-15 -9z"/>
<path d="M2056 2768 c-3 -7 -7 -26 -11 -43 -5 -24 -4 -27 6 -18 7 7 14 26 16
43 3 30 -4 41 -11 18z"/>
<path d="M1290 2766 c0 -2 7 -7 16 -10 8 -3 12 -2 9 4 -6 10 -25 14 -25 6z"/>
<path d="M2082 2740 c0 -19 2 -27 5 -17 2 9 2 25 0 35 -3 9 -5 1 -5 -18z"/>
<path d="M2174 2755 c-3 -8 -4 -20 -2 -27 3 -7 7 -1 10 15 6 29 1 36 -8 12z"/>
<path d="M850 2745 c0 -8 4 -15 10 -15 5 0 7 7 4 15 -4 8 -8 15 -10 15 -2 0
-4 -7 -4 -15z"/>
<path d="M961 2744 c0 -11 3 -14 6 -6 3 7 2 16 -1 19 -3 4 -6 -2 -5 -13z"/>
<path d="M1665 2740 c3 -5 8 -10 11 -10 2 0 4 5 4 10 0 6 -5 10 -11 10 -5 0
-7 -4 -4 -10z"/>
<path d="M685 2729 c-4 -6 -5 -12 -2 -15 2 -3 7 2 10 11 7 17 1 20 -8 4z"/>
<path d="M990 2731 c0 -6 4 -13 10 -16 6 -3 7 1 4 9 -7 18 -14 21 -14 7z"/>
<path d="M1616 2725 c4 -8 8 -15 10 -15 2 0 4 7 4 15 0 8 -4 15 -10 15 -5 0
-7 -7 -4 -15z"/>
<path d="M1761 2723 c-1 -12 4 -25 9 -28 12 -7 12 2 0 30 -8 19 -9 19 -9 -2z"/>
<path d="M1986 2731 c-6 -10 11 -111 20 -120 3 -3 3 10 -1 29 -3 19 -7 50 -8
67 -2 36 -3 37 -11 24z"/>
<path d="M2137 2733 c-4 -3 -7 -13 -7 -22 1 -13 3 -13 11 2 11 19 8 33 -4 20z"/>
<path d="M796 2713 c-6 -14 -5 -15 5 -6 7 7 10 15 7 18 -3 3 -9 -2 -12 -12z"/>
<path d="M1194 2719 c-4 -7 -3 -9 4 -5 5 3 13 0 15 -6 4 -9 6 -10 6 -1 1 17
-16 25 -25 12z"/>
<path d="M1462 2710 c0 -14 2 -19 5 -12 2 6 2 18 0 25 -3 6 -5 1 -5 -13z"/>
<path d="M1700 2714 c0 -14 -2 -15 -17 -3 -15 13 -16 11 -8 -16 4 -16 9 -42
10 -58 2 -15 10 -38 19 -52 9 -13 16 -31 16 -40 0 -8 5 -15 10 -15 6 0 10 -9
10 -21 0 -27 31 -79 47 -79 7 0 13 -8 13 -17 0 -13 4 -11 13 7 18 35 30 93 17
85 -6 -3 -10 -19 -10 -35 0 -16 -4 -32 -10 -35 -5 -3 -10 -1 -10 4 0 6 -7 11
-15 11 -8 0 -18 12 -21 28 -4 15 -15 44 -25 64 -11 21 -19 48 -19 60 0 13 -7
36 -15 52 -18 35 -19 39 -2 30 6 -4 9 -4 5 1 -4 4 -3 16 3 26 6 13 6 19 -1 19
-5 0 -10 -7 -10 -16z"/>
<path d="M1734 2710 c3 -14 8 -43 12 -64 4 -25 3 -37 -3 -33 -10 6 22 -102 33
-112 4 -3 4 3 1 14 -4 11 -9 49 -13 84 -3 35 -12 80 -20 100 -9 22 -13 26 -10
11z"/>
<path d="M911 2704 c0 -11 3 -14 6 -6 3 7 2 16 -1 19 -3 4 -6 -2 -5 -13z"/>
<path d="M1060 2718 c0 -2 9 -11 20 -21 11 -9 20 -13 20 -7 0 5 -9 14 -20 20
-11 6 -20 9 -20 8z"/>
<path d="M1327 2713 c-10 -10 -8 -23 4 -23 5 0 8 4 4 9 -3 5 3 12 12 14 14 4
15 5 2 6 -9 0 -19 -2 -22 -6z"/>
<path d="M1518 2709 c7 -9 11 -25 11 -35 -1 -11 -1 -28 -1 -38 2 -20 2 -20 17
0 13 18 14 16 14 -21 0 -31 -2 -36 -9 -20 -10 23 -13 5 -3 -20 5 -15 8 -14 20
6 l14 24 -6 -28 c-3 -16 -2 -26 3 -23 5 3 15 -6 22 -19 7 -14 17 -25 22 -25
10 0 0 42 -12 50 -5 3 -18 29 -31 58 -12 28 -26 52 -31 52 -4 0 -8 6 -8 14 0
7 -8 20 -17 27 -16 12 -17 12 -5 -2z m27 -49 c3 -5 1 -10 -4 -10 -6 0 -11 5
-11 10 0 6 2 10 4 10 3 0 8 -4 11 -10z"/>
<path d="M1811 2704 c0 -11 3 -14 6 -6 3 7 2 16 -1 19 -3 4 -6 -2 -5 -13z"/>
<path d="M1923 2705 c-3 -9 -3 -18 -1 -21 3 -3 8 4 11 16 6 23 -1 27 -10 5z"/>
<path d="M2112 2690 c0 -19 2 -27 5 -17 2 9 2 25 0 35 -3 9 -5 1 -5 -18z"/>
<path d="M973 2692 c0 -9 10 -26 22 -38 13 -11 26 -30 29 -41 4 -11 15 -30 25
-42 15 -18 20 -19 24 -6 4 8 1 14 -4 12 -6 -1 -21 16 -32 38 -11 22 -27 44
-34 48 -7 4 -13 14 -13 22 0 8 -4 16 -8 19 -5 3 -9 -3 -9 -12z"/>
<path d="M1167 2703 c-4 -3 -7 -13 -7 -22 1 -13 3 -13 11 2 11 19 8 33 -4 20z"/>
<path d="M1255 2700 c3 -5 8 -10 11 -10 2 0 4 5 4 10 0 6 -5 10 -11 10 -5 0
-7 -4 -4 -10z"/>
<path d="M2271 2693 c7 -12 15 -20 18 -17 3 2 -3 12 -13 22 -17 16 -18 16 -5
-5z"/>
<path d="M746 2685 c-3 -9 -6 -22 -5 -28 0 -7 5 -1 10 12 5 13 8 26 5 28 -2 2
-6 -3 -10 -12z"/>
<path d="M1375 2691 c-3 -5 -1 -12 5 -16 5 -3 10 1 10 9 0 18 -6 21 -15 7z"/>
<path d="M1641 2694 c0 -5 7 -25 14 -44 12 -31 14 -32 14 -10 0 14 -6 34 -14
44 -8 11 -15 16 -14 10z"/>
<path d="M1845 2684 c3 -12 6 -38 7 -58 1 -20 5 -36 9 -36 10 0 0 80 -12 100
-8 12 -9 10 -4 -6z"/>
<path d="M1956 2664 c-4 -14 -5 -28 -3 -31 3 -2 8 8 11 23 4 14 5 28 3 31 -3
2 -8 -8 -11 -23z"/>
<path d="M2029 2663 c0 -16 -2 -36 -4 -45 -2 -10 0 -18 4 -18 4 0 9 20 9 45 1
25 0 45 -3 45 -3 0 -5 -12 -6 -27z"/>
<path d="M2133 2650 c0 -25 2 -35 4 -22 2 12 2 32 0 45 -2 12 -4 2 -4 -23z"/>
<path d="M641 2665 c-1 -15 -3 -17 -10 -7 -6 10 -10 9 -14 -7 -3 -12 -1 -23 3
-26 12 -7 33 32 26 48 -2 7 -5 3 -5 -8z"/>
<path d="M790 2675 c0 -5 5 -17 10 -25 5 -8 10 -10 10 -5 0 6 -5 17 -10 25 -5
8 -10 11 -10 5z"/>
<path d="M826 2668 c3 -5 10 -6 15 -3 13 9 11 12 -6 12 -8 0 -12 -4 -9 -9z"/>
<path d="M920 2673 c0 -4 10 -24 22 -43 12 -19 23 -41 24 -47 3 -16 34 -48 34
-35 0 5 -13 29 -30 53 -16 24 -30 49 -30 56 0 6 -4 15 -10 18 -5 3 -10 3 -10
-2z"/>
<path d="M1470 2663 c0 -12 5 -25 10 -28 6 -3 10 -17 10 -29 0 -13 9 -35 20
-48 10 -14 16 -28 13 -32 -4 -4 3 -9 15 -13 21 -5 25 -16 23 -58 -1 -18 0 -18
7 -2 7 17 9 17 26 -2 14 -16 17 -31 14 -63 -3 -24 -1 -52 3 -63 5 -13 8 4 8
48 1 67 -20 124 -40 111 -5 -3 -9 2 -9 10 0 8 -11 28 -25 43 -14 15 -29 33
-35 40 -5 7 -10 22 -10 35 -1 13 -7 34 -15 48 -14 24 -14 24 -15 3z"/>
<path d="M1180 2661 c0 -5 9 -11 21 -14 16 -4 18 -3 8 9 -13 16 -29 19 -29 5z"/>
<path d="M1902 2654 c-7 -8 -8 -14 -3 -14 10 0 25 19 20 25 -2 1 -10 -3 -17
-11z"/>
<path d="M694 2638 l-19 -23 23 19 c12 11 22 21 22 23 0 8 -8 2 -26 -19z"/>
<path d="M2082 2640 c0 -14 2 -19 5 -12 2 6 2 18 0 25 -3 6 -5 1 -5 -13z"/>
<path d="M1087 2633 c3 -7 9 -13 14 -13 5 0 9 6 9 13 0 8 -6 14 -14 14 -8 0
-12 -6 -9 -14z"/>
<path d="M1441 2634 c0 -11 3 -14 6 -6 3 7 2 16 -1 19 -3 4 -6 -2 -5 -13z"/>
<path d="M1620 2640 c0 -5 5 -10 10 -10 6 0 10 5 10 10 0 6 -4 10 -10 10 -5 0
-10 -4 -10 -10z"/>
<path d="M2056 2633 c-6 -14 -5 -15 5 -6 7 7 10 15 7 18 -3 3 -9 -2 -12 -12z"/>
<path d="M723 2623 c1 -17 4 -19 14 -11 7 6 13 16 13 22 0 6 -4 5 -9 -3 -7
-11 -9 -11 -14 0 -3 8 -4 4 -4 -8z"/>
<path d="M806 2613 c-6 -14 -5 -15 5 -6 7 7 10 15 7 18 -3 3 -9 -2 -12 -12z"/>
<path d="M1897 2623 c-4 -3 -7 -13 -7 -22 1 -13 3 -13 11 2 11 19 8 33 -4 20z"/>
<path d="M1925 2619 c3 -9 -4 -25 -18 -40 -14 -13 -27 -33 -29 -44 -2 -11 -9
-19 -15 -18 -7 2 -11 -7 -10 -18 1 -18 3 -18 13 -5 6 9 14 13 17 9 7 -6 11 19
8 44 -1 8 5 10 14 7 10 -4 15 0 15 13 0 10 5 24 12 31 9 9 9 15 -1 25 -10 10
-11 9 -6 -4z"/>
<path d="M922 2592 c0 -18 5 -35 12 -39 7 -5 18 -17 25 -28 11 -18 11 -18 5 5
-4 14 -14 40 -24 59 l-17 34 -1 -31z"/>
<path d="M2297 2609 c7 -7 15 -10 18 -7 3 3 -2 9 -12 12 -14 6 -15 5 -6 -5z"/>
<path d="M1172 2578 c1 -20 5 -35 8 -33 8 5 5 53 -4 62 -4 4 -6 -9 -4 -29z"/>
<path d="M1264 2597 c3 -10 6 -21 6 -23 0 -2 6 -4 14 -4 19 0 58 -110 69 -195
3 -25 4 -23 5 10 3 64 -39 195 -61 195 -5 0 -16 8 -24 18 -14 16 -14 16 -9 -1z"/>
<path d="M1675 2595 c4 -11 7 -29 7 -40 -1 -18 0 -19 9 -2 7 12 6 23 -7 40
-14 19 -15 19 -9 2z"/>
<path d="M1797 2604 c-11 -11 3 -24 26 -23 15 0 17 2 7 6 -8 3 -18 10 -21 15
-3 4 -8 5 -12 2z"/>
<path d="M1942 2583 c-5 -16 -13 -37 -17 -48 -7 -20 -7 -20 7 0 15 20 32 75
24 75 -2 0 -9 -12 -14 -27z"/>
<path d="M1981 2588 c-2 -38 9 -64 21 -46 5 8 6 -4 3 -32 -4 -35 -3 -39 4 -20
7 17 8 5 4 -41 -4 -44 -2 -69 6 -73 6 -4 12 -28 12 -54 l1 -47 9 40 c8 42 10
104 2 72 -2 -9 -8 -15 -13 -12 -5 3 -5 18 -1 33 4 15 5 43 3 62 -2 19 -4 55
-4 80 1 39 -1 43 -12 28 -18 -25 -24 -23 -29 10 l-4 27 -2 -27z"/>
<path d="M1206 2578 c8 -27 35 -70 40 -65 4 4 -36 87 -43 87 -2 0 -1 -10 3
-22z"/>
<path d="M1413 2584 c-3 -8 -2 -19 3 -24 5 -5 9 1 9 16 0 28 -3 30 -12 8z"/>
<path d="M2147 2573 c4 -16 8 -40 8 -55 0 -15 5 -30 10 -32 7 -2 8 15 1 55 -5
33 -14 59 -18 59 -5 0 -5 -12 -1 -27z"/>
<path d="M656 2573 c-6 -14 -5 -15 5 -6 7 7 10 15 7 18 -3 3 -9 -2 -12 -12z"/>
<path d="M800 2579 c0 -5 5 -7 10 -4 6 3 10 8 10 11 0 2 -4 4 -10 4 -5 0 -10
-5 -10 -11z"/>
<path d="M733 2545 c0 -22 2 -30 4 -17 2 12 2 30 0 40 -3 9 -5 -1 -4 -23z"/>
<path d="M1013 2565 c0 -8 4 -15 9 -15 4 0 8 4 8 9 0 6 -4 12 -8 15 -5 3 -9
-1 -9 -9z"/>
<path d="M2116 2550 c-12 -57 -15 -129 -6 -135 4 -3 11 28 15 69 8 82 2 121
-9 66z"/>
<path d="M679 2553 c-13 -16 -12 -17 4 -4 9 7 17 15 17 17 0 8 -8 3 -21 -13z"/>
<path d="M1260 2542 c12 -18 25 -31 28 -27 3 3 -7 18 -23 33 l-28 27 23 -33z"/>
<path d="M1370 2565 c0 -5 5 -17 10 -25 5 -8 10 -10 10 -5 0 6 -5 17 -10 25
-5 8 -10 11 -10 5z"/>
<path d="M2218 2563 c-4 -21 -3 -92 1 -87 6 5 10 94 4 94 -1 0 -4 -3 -5 -7z"/>
<path d="M790 2540 c0 -11 2 -20 4 -20 2 0 6 9 9 20 3 11 1 20 -4 20 -5 0 -9
-9 -9 -20z"/>
<path d="M2180 2555 c0 -5 5 -17 10 -25 5 -8 10 -10 10 -5 0 6 -5 17 -10 25
-5 8 -10 11 -10 5z"/>
<path d="M1350 2541 c0 -6 4 -13 10 -16 6 -3 7 1 4 9 -7 18 -14 21 -14 7z"/>
<path d="M1487 2531 c-4 -17 -3 -21 5 -13 5 5 8 16 6 23 -3 8 -7 3 -11 -10z"/>
<path d="M1703 2517 c0 -20 4 -37 8 -37 13 0 18 -42 7 -60 -8 -12 -8 -22 1
-36 8 -13 11 -14 10 -4 -1 8 -1 24 0 35 2 20 2 20 16 1 19 -25 19 -16 0 20 -8
16 -15 38 -15 49 -1 11 -7 31 -14 45 -14 24 -14 24 -13 -13z"/>
<path d="M1425 2530 c-5 -9 -4 -11 3 -6 8 5 12 -1 12 -14 0 -12 5 -30 11 -41
5 -11 9 -32 7 -47 -3 -26 -4 -25 -36 23 -18 27 -30 55 -28 62 3 7 1 13 -3 13
-18 0 -19 -30 -2 -52 34 -45 78 -133 73 -147 -3 -8 0 -11 7 -7 6 4 11 2 11 -4
0 -6 4 -9 10 -5 5 3 -2 22 -15 41 -14 20 -22 41 -18 48 5 7 9 6 11 -4 2 -8 15
-24 30 -34 l27 -19 -22 24 c-24 27 -44 87 -24 75 6 -4 11 -17 11 -29 0 -14 3
-18 8 -10 6 9 14 3 27 -19 10 -18 20 -27 22 -21 5 14 -32 75 -43 73 -5 -1 -10
4 -13 11 -2 7 1 9 8 5 8 -6 10 0 5 21 l-6 28 21 -30 c25 -36 27 -30 5 15 -12
24 -19 29 -25 19 -5 -8 -9 -23 -9 -34 0 -18 -2 -18 -19 5 -11 13 -18 27 -16
31 3 3 -2 14 -9 24 -10 14 -15 15 -21 5z"/>
<path d="M756 2515 c-3 -9 -6 -26 -5 -38 1 -16 4 -12 10 12 10 34 6 55 -5 26z"/>
<path d="M1590 2511 c5 -11 15 -23 21 -27 6 -3 3 5 -6 20 -20 30 -30 35 -15 7z"/>
<path d="M1681 2514 c0 -11 3 -14 6 -6 3 7 2 16 -1 19 -3 4 -6 -2 -5 -13z"/>
<path d="M1938 2513 c-3 -10 -2 -27 2 -38 6 -17 7 -16 12 7 6 32 -7 60 -14 31z"/>
<path d="M2076 2515 c4 -8 8 -15 10 -15 2 0 4 7 4 15 0 8 -4 15 -10 15 -5 0
-7 -7 -4 -15z"/>
<path d="M1639 2508 c-9 -77 -8 -86 11 -91 13 -3 17 -1 13 9 -3 8 -9 11 -14 8
-5 -3 -7 15 -4 40 2 26 2 46 0 46 -3 0 -6 -6 -6 -12z"/>
<path d="M640 2501 c0 -5 5 -13 10 -16 6 -3 10 -2 10 4 0 5 -4 13 -10 16 -5 3
-10 2 -10 -4z"/>
<path d="M806 2495 c-9 -26 -7 -32 5 -12 6 10 9 21 6 23 -2 3 -7 -2 -11 -11z"/>
<path d="M987 2494 c6 -15 23 -19 23 -5 0 5 -7 11 -14 14 -10 4 -13 1 -9 -9z"/>
<path d="M1040 2501 c0 -5 5 -13 10 -16 6 -3 10 -2 10 4 0 5 -4 13 -10 16 -5
3 -10 2 -10 -4z"/>
<path d="M691 2484 c0 -11 3 -14 6 -6 3 7 2 16 -1 19 -3 4 -6 -2 -5 -13z"/>
<path d="M1250 2489 c0 -6 9 -9 20 -6 10 3 21 1 24 -4 2 -5 3 -4 2 2 -3 16
-46 23 -46 8z"/>
<path d="M1660 2492 c0 -5 7 -15 15 -22 8 -7 15 -8 15 -2 0 5 -7 15 -15 22 -8
7 -15 8 -15 2z"/>
<path d="M2190 2479 c0 -13 5 -31 10 -39 7 -11 8 -5 4 20 -8 43 -14 51 -14 19z"/>
<path d="M1220 2481 c0 -5 5 -13 11 -17 6 -3 9 -14 6 -23 -2 -10 1 -18 8 -18
7 0 10 8 7 21 -6 23 -32 53 -32 37z"/>
<path d="M2300 2486 c0 -2 8 -10 18 -17 15 -13 16 -12 3 4 -13 16 -21 21 -21
13z"/>
<path d="M1160 2458 c0 -11 12 -10 30 2 12 7 10 9 -8 7 -12 0 -22 -5 -22 -9z"/>
<path d="M1880 2459 c0 -5 5 -7 10 -4 6 3 10 8 10 11 0 2 -4 4 -10 4 -5 0 -10
-5 -10 -11z"/>
<path d="M531 2444 c0 -11 3 -14 6 -6 3 7 2 16 -1 19 -3 4 -6 -2 -5 -13z"/>
<path d="M681 2448 c-1 -12 -7 -16 -18 -12 -11 4 -14 3 -7 -3 6 -4 14 -15 17
-23 4 -11 6 -10 6 5 1 17 3 17 11 5 12 -18 12 -2 0 25 -7 17 -9 17 -9 3z"/>
<path d="M1115 2450 c-3 -5 1 -10 9 -10 8 0 18 5 21 10 3 6 -1 10 -9 10 -8 0
-18 -4 -21 -10z"/>
<path d="M1666 2447 c3 -10 9 -15 12 -12 3 3 0 11 -7 18 -10 9 -11 8 -5 -6z"/>
<path d="M716 2424 c-4 -14 -5 -28 -3 -31 3 -2 8 8 11 23 4 14 5 28 3 31 -3 2
-8 -8 -11 -23z"/>
<path d="M803 2434 c-7 -7 -13 -19 -13 -26 0 -7 7 -2 16 10 18 26 16 37 -3 16z"/>
<path d="M861 2434 c0 -11 3 -14 6 -6 3 7 2 16 -1 19 -3 4 -6 -2 -5 -13z"/>
<path d="M1931 2434 c0 -11 3 -14 6 -6 3 7 2 16 -1 19 -3 4 -6 -2 -5 -13z"/>
<path d="M1007 2419 c4 -13 8 -18 11 -10 2 7 -1 18 -6 23 -8 8 -9 4 -5 -13z"/>
<path d="M1281 2430 c-2 -30 14 -41 35 -24 19 15 18 15 -3 9 -15 -4 -23 -1
-26 12 -3 12 -5 13 -6 3z"/>
<path d="M1840 2430 c0 -5 5 -10 11 -10 5 0 7 5 4 10 -3 6 -8 10 -11 10 -2 0
-4 -4 -4 -10z"/>
<path d="M1036 2421 c-4 -5 3 -7 14 -4 23 6 26 13 6 13 -8 0 -17 -4 -20 -9z"/>
<path d="M1190 2420 c0 -5 5 -10 10 -10 6 0 10 5 10 10 0 6 -4 10 -10 10 -5 0
-10 -4 -10 -10z"/>
<path d="M1556 2417 c3 -10 9 -15 12 -12 3 3 0 11 -7 18 -10 9 -11 8 -5 -6z"/>
<path d="M1583 2402 c-1 -22 0 -24 9 -8 6 10 6 22 2 26 -5 5 -10 -3 -11 -18z"/>
<path d="M2180 2423 c0 -4 5 -15 10 -23 8 -13 10 -13 10 2 0 9 -4 20 -10 23
-5 3 -10 3 -10 -2z"/>
<path d="M1770 2410 c0 -5 5 -10 11 -10 5 0 7 5 4 10 -3 6 -8 10 -11 10 -2 0
-4 -4 -4 -10z"/>
<path d="M2076 2398 c3 -5 10 -6 15 -3 13 9 11 12 -6 12 -8 0 -12 -4 -9 -9z"/>
<path d="M950 2389 c0 -5 5 -7 10 -4 6 3 10 8 10 11 0 2 -4 4 -10 4 -5 0 -10
-5 -10 -11z"/>
<path d="M1677 2386 c-4 -10 -1 -13 9 -9 15 6 19 23 5 23 -5 0 -11 -7 -14 -14z"/>
<path d="M526 2375 c-3 -9 -6 -22 -5 -28 0 -7 5 -1 10 12 5 13 8 26 5 28 -2 2
-6 -3 -10 -12z"/>
<path d="M661 2349 c1 -24 5 -55 9 -69 6 -16 7 -1 3 40 -7 76 -13 93 -12 29z"/>
<path d="M770 2366 c0 -13 -5 -27 -10 -29 -6 -3 -5 -4 1 -3 16 3 31 44 19 51
-6 4 -10 -5 -10 -19z"/>
<path d="M2102 2350 c1 -23 4 -36 8 -30 6 10 1 70 -6 70 -2 0 -3 -18 -2 -40z"/>
<path d="M971 2364 c0 -11 3 -14 6 -6 3 7 2 16 -1 19 -3 4 -6 -2 -5 -13z"/>
<path d="M1286 2361 c-4 -5 7 -23 24 -39 16 -17 30 -27 30 -23 0 5 -11 20 -25
34 -18 18 -22 27 -13 30 9 4 9 6 1 6 -6 1 -14 -3 -17 -8z"/>
<path d="M1400 2361 c0 -6 4 -13 10 -16 6 -3 7 1 4 9 -7 18 -14 21 -14 7z"/>
<path d="M2192 2345 c0 -16 2 -22 5 -12 2 9 2 23 0 30 -3 6 -5 -1 -5 -18z"/>
<path d="M706 2345 c-9 -26 -7 -32 5 -12 6 10 9 21 6 23 -2 3 -7 -2 -11 -11z"/>
<path d="M1557 2335 c-4 -8 -2 -17 3 -20 6 -4 10 3 10 14 0 25 -6 27 -13 6z"/>
<path d="M1737 2343 c-2 -4 -7 -21 -10 -38 -6 -30 -6 -30 9 4 8 18 13 35 11
38 -3 2 -7 1 -10 -4z"/>
<path d="M1357 2333 c-3 -5 -1 -17 4 -28 7 -17 8 -17 8 8 1 27 -4 34 -12 20z"/>
<path d="M1531 2324 c0 -11 3 -14 6 -6 3 7 2 16 -1 19 -3 4 -6 -2 -5 -13z"/>
<path d="M1671 2321 c22 -18 55 -18 44 0 -3 4 -12 6 -19 3 -8 -3 -17 -1 -21 5
-3 6 -11 11 -17 11 -5 0 0 -8 13 -19z"/>
<path d="M2072 2313 c2 -14 9 -29 17 -31 10 -3 11 0 5 9 -5 8 -7 22 -6 32 2 9
-2 17 -8 17 -6 0 -10 -12 -8 -27z"/>
<path d="M2125 2321 c-7 -23 2 -139 15 -196 8 -36 9 -34 4 15 -4 30 -6 88 -6
128 0 75 -2 85 -13 53z"/>
<path d="M1145 2320 c-3 -6 1 -7 9 -4 18 7 21 14 7 14 -6 0 -13 -4 -16 -10z"/>
<path d="M1180 2320 c0 -5 4 -10 9 -10 6 0 13 5 16 10 3 6 -1 10 -9 10 -9 0
-16 -4 -16 -10z"/>
<path d="M1255 2320 c3 -5 10 -10 16 -10 5 0 9 5 9 10 0 6 -7 10 -16 10 -8 0
-12 -4 -9 -10z"/>
<path d="M1640 2311 c12 -9 13 -13 2 -20 -11 -6 -10 -10 3 -15 24 -9 35 -8 35
4 0 5 -6 7 -14 4 -9 -3 -13 1 -13 12 1 9 -5 19 -13 21 -13 4 -13 3 0 -6z"/>
<path d="M708 2292 c-3 -12 -2 -22 3 -22 4 0 6 -6 3 -14 -8 -20 11 -53 20 -37
4 6 2 11 -4 11 -7 0 -10 6 -7 14 3 8 2 27 -2 43 -7 26 -8 27 -13 5z"/>
<path d="M2201 2290 c0 -14 4 -32 9 -40 9 -13 10 -13 9 0 -1 8 -5 26 -9 40
l-8 25 -1 -25z"/>
<path d="M643 2225 c0 -70 1 -75 9 -39 5 23 5 57 -1 80 -8 34 -9 29 -8 -41z"/>
<path d="M752 2273 c-8 -19 -9 -30 -1 -37 7 -8 8 -6 4 7 -5 11 -2 17 7 17 7 0
14 9 15 20 2 28 -10 25 -25 -7z"/>
<path d="M1445 2279 c-10 -30 0 -33 13 -4 6 14 7 25 2 25 -5 0 -12 -9 -15 -21z"/>
<path d="M2325 2280 c-3 -5 -1 -10 4 -10 6 0 11 5 11 10 0 6 -2 10 -4 10 -3 0
-8 -4 -11 -10z"/>
<path d="M1370 2261 c0 -6 4 -13 10 -16 6 -3 7 1 4 9 -7 18 -14 21 -14 7z"/>
<path d="M2072 2246 c-1 -13 7 -31 18 -41 19 -18 20 -17 20 6 -1 21 -20 59
-31 59 -3 0 -6 -11 -7 -24z m26 -31 c-3 -3 -9 2 -12 12 -6 14 -5 15 5 6 7 -7
10 -15 7 -18z"/>
<path d="M2172 2235 c-1 -19 3 -35 8 -35 12 0 13 40 1 58 -5 8 -8 0 -9 -23z"/>
<path d="M1441 2223 c0 -12 -4 -30 -7 -40 -5 -17 -5 -17 6 0 6 10 9 28 7 40
-4 22 -4 22 -6 0z"/>
<path d="M1041 2214 c0 -11 3 -14 6 -6 3 7 2 16 -1 19 -3 4 -6 -2 -5 -13z"/>
<path d="M756 2203 c-8 -20 9 -40 19 -22 6 8 4 10 -5 4 -9 -5 -10 -2 -5 14 8
25 0 29 -9 4z"/>
<path d="M2212 2180 c0 -19 2 -27 5 -17 2 9 2 25 0 35 -3 9 -5 1 -5 -18z"/>
<path d="M730 2182 c6 -12 8 -27 5 -32 -3 -6 -1 -10 4 -10 16 0 13 23 -5 46
-14 18 -15 18 -4 -4z"/>
<path d="M517 2183 c-4 -3 -7 -11 -7 -17 0 -6 5 -5 12 2 6 6 9 14 7 17 -3 3
-9 2 -12 -2z"/>
<path d="M2171 2174 c0 -11 3 -14 6 -6 3 7 2 16 -1 19 -3 4 -6 -2 -5 -13z"/>
<path d="M691 2164 c0 -11 3 -14 6 -6 3 7 2 16 -1 19 -3 4 -6 -2 -5 -13z"/>
<path d="M2070 2171 c0 -6 9 -9 20 -8 11 1 20 5 20 9 0 4 -9 8 -20 8 -11 0
-20 -4 -20 -9z"/>
<path d="M1880 2143 c0 -12 99 -83 115 -83 12 0 -37 40 -70 57 -16 9 -33 21
-37 27 -6 8 -8 8 -8 -1z"/>
<path d="M2096 2108 c2 -24 3 -53 3 -66 1 -13 4 -21 9 -19 4 3 8 -13 10 -36 1
-22 7 -46 13 -53 11 -14 69 -24 69 -12 0 4 -7 8 -15 8 -8 0 -15 7 -15 15 0 8
-6 12 -14 9 -7 -3 -16 2 -19 10 -4 10 -1 13 9 9 9 -3 14 2 14 17 0 11 -4 18
-10 15 -5 -3 -10 1 -10 9 0 28 -1 31 -18 50 -9 11 -11 16 -4 12 7 -4 12 -1 12
8 0 9 -5 16 -10 16 -6 0 -10 6 -9 13 3 22 -1 37 -9 37 -5 0 -7 -19 -6 -42z"/>
<path d="M2193 2090 c0 -30 2 -43 4 -27 2 15 2 39 0 55 -2 15 -4 2 -4 -28z"/>
<path d="M671 2114 c0 -11 3 -14 6 -6 3 7 2 16 -1 19 -3 4 -6 -2 -5 -13z"/>
<path d="M947 2106 c-17 -16 -24 -31 -21 -41 5 -12 9 -13 20 -4 16 13 19 33 4
24 -5 -3 -10 -1 -10 4 0 6 6 11 14 11 8 0 16 7 20 15 7 20 3 19 -27 -9z"/>
<path d="M1535 2120 c3 -5 8 -10 11 -10 2 0 4 5 4 10 0 6 -5 10 -11 10 -5 0
-7 -4 -4 -10z"/>
<path d="M2161 2114 c0 -11 3 -14 6 -6 3 7 2 16 -1 19 -3 4 -6 -2 -5 -13z"/>
<path d="M2212 2109 c-1 -15 5 -40 13 -55 l15 -29 0 28 c0 16 -4 26 -9 22 -5
-3 -12 9 -14 27 -3 27 -4 29 -5 7z"/>
<path d="M640 2109 c0 -5 5 -7 10 -4 6 3 10 8 10 11 0 2 -4 4 -10 4 -5 0 -10
-5 -10 -11z"/>
<path d="M1561 2100 c-1 -15 -6 -31 -13 -38 -9 -9 -9 -12 0 -12 13 0 26 43 19
62 -3 7 -6 2 -6 -12z"/>
<path d="M1820 2110 c0 -5 9 -10 19 -10 11 0 23 -5 26 -10 4 -6 11 -7 17 -4 6
4 1 12 -13 20 -29 16 -49 18 -49 4z"/>
<path d="M610 2101 c0 -6 4 -13 10 -16 6 -3 7 1 4 9 -7 18 -14 21 -14 7z"/>
<path d="M856 2102 c-2 -4 -1 -14 5 -22 7 -12 9 -10 9 8 0 23 -5 28 -14 14z"/>
<path d="M967 2077 c-9 -15 -17 -30 -17 -35 0 -12 -35 -43 -42 -37 -2 3 -16
-8 -31 -24 -24 -27 -24 -29 -6 -34 13 -4 19 -1 17 8 -2 8 2 13 7 12 6 -1 9 -6
7 -10 -1 -5 2 -6 7 -2 6 3 8 12 5 19 -3 7 8 24 24 38 33 27 55 63 50 80 -2 6
-12 -1 -21 -15z"/>
<path d="M1079 2071 c-7 -16 -16 -28 -20 -25 -4 2 -10 0 -13 -5 -12 -19 10
-19 34 1 14 11 19 17 13 13 -7 -3 -13 -1 -13 4 0 6 15 17 33 25 32 14 32 14 5
15 -20 1 -29 -6 -39 -28z"/>
<path d="M641 2074 c0 -11 3 -14 6 -6 3 7 2 16 -1 19 -3 4 -6 -2 -5 -13z"/>
<path d="M1015 2064 c4 -19 3 -24 -3 -16 -7 10 -11 10 -22 -3 -7 -8 -10 -18
-7 -22 4 -3 1 -13 -6 -21 -10 -13 -9 -15 6 -9 10 4 21 7 23 7 3 0 3 4 0 9 -3
4 6 19 19 31 14 13 25 31 24 39 0 11 -2 12 -6 3 -4 -10 -8 -10 -20 -1 -12 11
-13 8 -8 -17z m-5 -28 c0 -3 -4 -8 -10 -11 -5 -3 -10 -1 -10 4 0 6 5 11 10 11
6 0 10 -2 10 -4z"/>
<path d="M1910 2083 c5 -2 10 -11 10 -18 0 -8 4 -17 10 -20 6 -4 7 2 1 16 -4
13 -13 24 -20 25 -6 1 -7 0 -1 -3z"/>
<path d="M732 2060 c-16 -27 -15 -41 3 -34 11 5 14 2 9 -12 -4 -11 -10 -23
-14 -29 -4 -5 -11 -21 -14 -35 -6 -19 -5 -21 3 -10 9 13 11 13 11 -2 0 -10 -7
-18 -15 -18 -8 0 -15 -4 -15 -10 0 -5 8 -6 18 -3 15 6 15 5 3 -10 -7 -9 -17
-14 -22 -11 -5 3 -9 0 -9 -6 0 -6 -4 -8 -10 -5 -6 4 -10 -14 -10 -48 0 -41 -5
-59 -22 -77 l-22 -23 -7 27 c-4 15 -5 35 -2 43 4 11 2 14 -8 11 -15 -5 -23
-58 -9 -58 6 0 9 -8 8 -17 -1 -10 0 -34 0 -53 l2 -35 15 29 c8 15 15 35 15 43
0 8 4 12 9 9 4 -3 2 -29 -5 -58 -15 -54 -11 -154 8 -241 8 -37 7 -52 -4 -70
-8 -12 -18 -31 -21 -42 -6 -16 -3 -15 14 5 l20 25 -5 -45 c-8 -72 -14 -137 -9
-112 2 12 11 22 19 22 11 0 14 -15 14 -62 0 -45 -3 -59 -10 -48 -6 9 -10 10
-10 3 0 -6 5 -15 10 -18 8 -5 8 -11 0 -20 -7 -9 -8 -33 -2 -76 5 -35 10 -54
11 -41 0 12 1 25 2 30 0 4 7 11 16 16 24 13 35 -7 23 -40 -7 -18 -8 -30 -1
-32 9 -3 6 -119 -5 -150 -2 -7 1 -23 7 -35 7 -12 12 -34 11 -49 0 -15 4 -30 9
-33 5 -4 8 29 6 78 -1 47 -6 82 -11 79 -5 -3 -6 7 -1 24 13 51 14 78 2 86 -9
6 -9 12 0 27 9 14 10 28 3 46 -5 14 -12 56 -16 92 -3 37 -10 75 -15 85 -6 10
-7 29 -4 41 5 17 4 19 -4 7 -9 -12 -11 -10 -11 12 0 15 4 29 9 32 5 3 8 37 7
76 -2 38 -1 68 1 66 2 -2 10 -44 17 -94 24 -157 58 -195 203 -228 167 -38 235
-28 308 42 45 44 109 159 98 177 -3 5 -10 3 -15 -4 -9 -15 -1 29 13 68 5 12 5
24 1 27 -4 2 -16 -26 -26 -62 -33 -125 -55 -162 -111 -194 -17 -9 -30 -21 -30
-27 0 -5 -4 -13 -9 -18 -5 -5 -6 -3 -2 4 5 10 -7 12 -51 9 -64 -5 -131 16
-167 51 -12 12 -32 43 -46 69 -14 27 -28 51 -31 54 -4 3 -12 25 -19 50 -6 25
-18 68 -26 95 -22 80 -32 174 -26 262 l4 81 57 16 c89 25 224 21 319 -9 148
-47 185 -91 175 -208 -5 -56 -8 -65 -20 -56 -7 7 -17 9 -21 5 -4 -4 1 -14 11
-21 10 -7 17 -17 16 -21 -1 -5 -1 -22 0 -39 1 -22 4 -26 10 -15 15 27 23 216
11 261 -10 38 -17 43 -81 73 -38 18 -66 36 -62 41 5 4 3 5 -4 1 -15 -9 -65 3
-58 14 7 12 -4 17 -55 24 -31 4 -39 3 -25 -3 14 -7 -5 -10 -65 -11 -80 0 -122
-6 -178 -24 -22 -7 -23 -6 -11 15 16 31 29 43 65 62 51 26 138 35 207 21 17
-4 27 -1 27 6 0 10 3 10 14 1 12 -10 13 -8 9 8 -5 21 -22 26 -120 35 -29 2
-53 1 -53 -4 0 -5 21 -11 48 -13 45 -3 45 -3 -13 -6 -108 -4 -195 -56 -214
-129 -6 -21 -12 -68 -13 -104 -2 -36 -6 -64 -10 -61 -5 2 -8 14 -8 27 0 13 -9
31 -20 41 -11 10 -17 22 -14 26 3 5 0 9 -5 9 -6 0 -11 12 -11 27 0 36 -9 25
-12 -15 -1 -18 -5 -32 -9 -32 -12 0 -21 34 -10 38 6 2 11 25 11 52 0 42 3 50
33 70 26 18 33 30 35 63 2 23 5 55 6 70 1 16 -1 30 -6 33 -4 3 -8 10 -8 15 0
6 5 7 10 4 6 -3 17 1 26 9 14 15 14 16 0 16 -9 0 -16 -6 -16 -12 0 -10 -2 -10
-8 -1 -6 9 -11 7 -20 -7z m391 -247 c-7 -2 -19 -2 -25 0 -7 3 -2 5 12 5 14 0
19 -2 13 -5z m-403 -122 c5 -11 10 -31 10 -45 0 -13 4 -26 9 -28 5 -1 16 -46
25 -98 20 -114 60 -258 88 -314 11 -23 34 -56 52 -75 30 -32 30 -33 6 -26 -71
21 -127 56 -143 89 -24 52 -45 192 -53 354 -4 78 -11 142 -15 142 -5 0 -9 5
-9 10 0 17 19 11 30 -9z m-43 -5 c-3 -8 -2 -16 3 -18 5 -2 12 -18 15 -36 3
-20 2 -31 -4 -28 -5 3 -7 -3 -4 -14 3 -11 2 -28 -1 -37 -6 -15 -8 -15 -16 -3
-14 21 -12 64 3 79 10 11 9 13 -6 8 -14 -5 -16 -3 -9 11 5 9 8 25 7 35 -2 9 1
17 7 17 6 0 8 -6 5 -14z m14 -243 c-8 -16 -12 -13 -26 22 -17 39 -17 40 6 58
l24 19 3 -41 c2 -22 -1 -49 -7 -58z m-24 -210 c-3 -10 -5 -4 -5 12 0 17 2 24
5 18 2 -7 2 -21 0 -30z m40 -133 c0 -26 3 -53 8 -59 4 -8 1 -20 -9 -29 -13
-13 -18 -14 -28 -4 -10 10 -10 17 0 32 6 11 12 46 12 77 0 37 3 53 9 44 5 -7
9 -35 8 -61z m258 2 c-3 -3 -11 0 -18 7 -9 10 -8 11 6 5 10 -3 15 -9 12 -12z
m75 -12 c20 -6 21 -8 5 -8 -11 0 -29 3 -40 8 -25 11 1 11 35 0z m77 -6 c-3 -3
-12 -4 -19 -1 -8 3 -5 6 6 6 11 1 17 -2 13 -5z"/>
<path d="M728 1572 c-2 -18 -1 -35 4 -38 16 -10 19 3 10 37 l-9 34 -5 -33z"/>
<path d="M736 1495 c-3 -9 -5 -33 -5 -53 1 -34 2 -33 10 13 8 51 6 68 -5 40z"/>
<path d="M754 1297 c3 -27 13 -58 21 -70 20 -29 20 -2 0 37 -8 15 -12 32 -9
37 3 5 0 17 -6 26 -9 14 -10 8 -6 -30z"/>
<path d="M685 2059 c-4 -6 -5 -12 -2 -15 2 -3 7 2 10 11 7 17 1 20 -8 4z"/>
<path d="M1645 2060 c-3 -5 -1 -10 4 -10 6 0 11 5 11 10 0 6 -2 10 -4 10 -3 0
-8 -4 -11 -10z"/>
<path d="M1887 2056 c-4 -10 -1 -16 8 -16 19 0 19 -14 1 -29 -22 -18 -49 -9
-64 20 -9 18 -20 25 -37 25 -36 -2 -43 -16 -7 -16 34 0 52 -18 31 -31 -8 -5
-16 -3 -21 4 -4 7 -16 13 -27 13 -11 1 -18 -2 -16 -6 3 -4 -2 -11 -11 -14 -9
-4 -14 -13 -10 -22 3 -8 2 -13 -3 -10 -10 7 -47 -32 -38 -40 3 -3 26 14 51 39
46 44 66 45 24 0 -24 -26 -9 -32 17 -7 9 9 25 14 35 11 13 -3 18 -1 13 6 -4 7
-1 7 9 -1 13 -10 17 -10 21 0 3 9 9 7 22 -7 9 -11 14 -14 10 -8 -3 7 -1 22 5
33 l11 21 35 -21 c19 -12 34 -19 34 -15 0 3 7 -1 16 -10 9 -9 19 -14 21 -11 8
8 -24 36 -42 36 -8 0 -18 7 -21 15 -4 8 -10 13 -14 10 -5 -3 -17 7 -28 21 -16
23 -20 24 -25 10z"/>
<path d="M1951 2049 c9 -13 20 -23 25 -22 5 1 20 -8 33 -20 22 -20 23 -21 11
-2 -7 12 -28 31 -48 44 l-37 24 16 -24z"/>
<path d="M2168 2033 c5 -59 10 -63 11 -10 1 26 -3 47 -7 47 -4 0 -6 -17 -4
-37z"/>
<path d="M906 2044 c-8 -20 -4 -25 11 -16 7 4 9 13 4 21 -6 10 -10 9 -15 -5z"/>
<path d="M528 2027 c-3 -19 -2 -25 4 -19 6 6 8 18 6 28 -3 14 -5 12 -10 -9z"/>
<path d="M1137 2034 c2 -7 11 -10 19 -7 19 7 18 10 -5 16 -13 3 -18 1 -14 -9z"/>
<path d="M1088 2029 c-10 -5 -18 -15 -18 -22 0 -8 3 -7 9 2 5 8 16 11 24 8 11
-4 14 -1 10 9 -3 7 -6 14 -7 14 0 0 -9 -5 -18 -11z"/>
<path d="M1162 2020 c-19 -10 -37 -22 -40 -26 -4 -4 -2 -4 5 -1 6 4 13 2 15
-4 2 -6 16 -11 31 -11 20 0 25 -4 17 -12 -6 -9 -6 -16 2 -24 16 -16 31 -15 22
0 -5 7 -9 21 -9 30 -2 25 -15 35 -24 19 -6 -10 -10 -9 -14 4 -4 9 -3 14 1 12
4 -2 15 4 25 15 21 22 13 21 -31 -2z"/>
<path d="M1850 2036 c0 -2 8 -10 18 -17 15 -13 16 -12 3 4 -13 16 -21 21 -21
13z"/>
<path d="M2320 2036 c0 -2 8 -10 18 -17 15 -13 16 -12 3 4 -13 16 -21 21 -21
13z"/>
<path d="M618 1975 c-3 -37 0 -65 7 -73 9 -9 10 3 7 50 -5 87 -9 93 -14 23z"/>
<path d="M1633 2003 c0 -16 1 -20 4 -10 2 9 9 17 14 17 6 0 7 5 4 10 -11 18
-21 10 -22 -17z"/>
<path d="M666 1995 c-3 -8 -1 -15 4 -15 6 0 10 7 10 15 0 8 -2 15 -4 15 -2 0
-6 -7 -10 -15z"/>
<path d="M1027 1984 c-15 -13 -24 -24 -20 -24 11 1 57 40 52 44 -2 3 -17 -7
-32 -20z"/>
<path d="M1210 2000 c0 -5 5 -10 10 -10 6 0 10 5 10 10 0 6 -4 10 -10 10 -5 0
-10 -4 -10 -10z"/>
<path d="M1606 1995 c-3 -8 -1 -15 4 -15 6 0 10 7 10 15 0 8 -2 15 -4 15 -2 0
-6 -7 -10 -15z"/>
<path d="M1679 1993 c-35 -24 -35 -23 -19 -33 11 -7 11 -12 2 -23 -7 -7 -9
-17 -6 -20 3 -3 17 15 30 40 14 25 23 47 21 49 -2 2 -14 -4 -28 -13z"/>
<path d="M685 1955 c-3 -26 -4 -49 -2 -51 3 -3 8 16 12 41 3 26 4 49 2 51 -3
3 -8 -16 -12 -41z"/>
<path d="M939 1983 c-13 -16 -12 -17 4 -4 9 7 17 15 17 17 0 8 -8 3 -21 -13z"/>
<path d="M1910 1990 c0 -5 7 -10 16 -10 8 0 12 5 9 10 -3 6 -10 10 -16 10 -5
0 -9 -4 -9 -10z"/>
<path d="M1290 1979 c0 -5 5 -7 10 -4 6 3 10 8 10 11 0 2 -4 4 -10 4 -5 0 -10
-5 -10 -11z"/>
<path d="M1471 1974 c0 -11 3 -14 6 -6 3 7 2 16 -1 19 -3 4 -6 -2 -5 -13z"/>
<path d="M2217 1983 c-10 -9 -9 -83 1 -83 4 0 7 20 7 45 0 25 0 45 -1 45 0 0
-4 -3 -7 -7z"/>
<path d="M1043 1967 c-4 -7 8 -8 35 -5 29 4 45 2 53 -8 6 -8 18 -14 27 -14 8
0 13 3 10 6 -4 3 -8 4 -10 2 -3 -1 -12 4 -21 14 -18 18 -83 22 -94 5z"/>
<path d="M1232 1969 c2 -7 10 -15 17 -17 8 -3 12 1 9 9 -2 7 -10 15 -17 17 -8
3 -12 -1 -9 -9z"/>
<path d="M651 1944 c0 -11 3 -14 6 -6 3 7 2 16 -1 19 -3 4 -6 -2 -5 -13z"/>
<path d="M1920 1940 c0 -17 7 -20 48 -21 66 -1 130 -41 159 -99 12 -25 22 -39
23 -32 0 7 5 10 10 7 6 -4 3 9 -6 29 -10 19 -22 33 -27 29 -5 -3 -6 3 -3 14 5
17 -2 24 -45 42 -28 11 -62 21 -75 21 -15 0 -24 6 -24 15 0 10 -10 15 -30 15
-23 0 -30 -4 -30 -20z"/>
<path d="M512 1930 c0 -14 2 -19 5 -12 2 6 2 18 0 25 -3 6 -5 1 -5 -13z"/>
<path d="M1765 1932 c-83 -30 -117 -55 -182 -132 -56 -66 -61 -76 -48 -90 8
-9 12 -19 9 -23 -3 -3 -6 -21 -6 -41 l0 -35 -33 17 c-18 9 -31 21 -28 25 7 12
-37 -14 -64 -37 -23 -19 -23 -19 -25 0 0 10 0 28 1 38 1 10 -6 30 -14 43 -12
18 -13 23 -2 23 7 0 18 -5 24 -11 9 -9 11 -8 9 4 -3 26 -116 146 -159 171 -64
37 -84 40 -90 16 -4 -17 4 -25 49 -46 30 -14 71 -45 95 -72 39 -44 46 -56 65
-107 16 -45 -2 -268 -27 -332 -5 -13 -5 -23 0 -23 14 0 28 42 52 164 27 132
42 156 92 137 26 -10 35 -31 52 -121 23 -123 73 -247 132 -327 13 -18 20 -33
15 -33 -14 0 -39 32 -62 80 -16 35 -20 38 -15 15 9 -43 36 -85 65 -100 102
-54 116 -59 185 -59 68 -1 155 25 155 45 0 4 13 10 29 14 67 15 110 92 117
210 1 33 1 49 -2 35 -28 -149 -35 -169 -71 -200 -39 -35 -58 -33 -26 3 30 33
52 89 75 185 12 48 26 92 31 97 7 7 8 4 4 -8 -4 -11 -3 -16 3 -12 6 4 10 -41
10 -124 0 -71 4 -132 9 -136 6 -3 8 24 6 67 -3 58 -2 69 7 53 6 -10 11 -51 11
-90 0 -108 -2 -127 -12 -121 -5 4 -7 -3 -4 -14 8 -32 23 -34 24 -3 0 15 4 62
8 103 4 41 3 95 -2 119 -7 34 -6 45 4 52 9 5 10 9 3 9 -7 0 -12 15 -12 34 0
22 -8 41 -26 59 -40 40 -31 120 10 86 8 -6 17 -9 21 -6 7 8 8 123 1 149 -6 24
-18 34 -19 17 0 -8 -3 -23 -6 -34 -3 -11 -6 -39 -7 -62 -1 -22 -4 -39 -8 -36
-5 2 -8 11 -8 19 0 36 -26 -15 -47 -91 -13 -44 -28 -100 -35 -125 -7 -25 -12
-52 -13 -60 0 -8 -12 -33 -26 -55 -14 -22 -31 -49 -37 -61 -18 -34 -110 -78
-162 -77 -98 1 -168 59 -230 188 -33 69 -36 81 -23 90 13 9 13 16 4 33 -16 30
-23 28 -15 -5 4 -21 3 -24 -5 -13 -13 19 -12 81 2 98 5 7 7 16 3 19 -4 4 -11
1 -15 -6 -25 -41 -23 148 2 194 6 11 12 26 13 34 2 8 22 34 46 58 23 24 43 51
43 61 0 9 9 18 20 20 17 4 18 3 5 -13 -8 -10 -10 -16 -5 -14 6 2 38 15 73 28
45 17 62 29 62 42 0 23 -11 23 -75 1z m5 -26 c0 -2 -9 -6 -20 -9 -11 -3 -18
-1 -14 4 5 9 34 13 34 5z m-555 -34 c-3 -3 -11 0 -18 7 -9 10 -8 11 6 5 10 -3
15 -9 12 -12z m992 -279 c-3 -10 -5 -4 -5 12 0 17 2 24 5 18 2 -7 2 -21 0 -30z
m-177 -433 c0 -5 -10 -15 -22 -21 -23 -12 -23 -12 -4 10 21 23 26 26 26 11z
m-55 -40 c-3 -5 -12 -10 -18 -10 -7 0 -6 4 3 10 19 12 23 12 15 0z m-168 -16
c-3 -3 -12 -4 -19 -1 -8 3 -5 6 6 6 11 1 17 -2 13 -5z m40 -10 c-3 -3 -12 -4
-19 -1 -8 3 -5 6 6 6 11 1 17 -2 13 -5z m53 -4 c-20 -13 -43 -13 -35 0 3 6 16
10 28 10 18 0 19 -2 7 -10z"/>
<path d="M1857 1936 c-7 -17 25 -27 44 -15 11 7 10 9 -3 9 -10 0 -18 5 -18 10
0 15 -17 12 -23 -4z"/>
<path d="M2031 1946 c12 -11 79 -34 79 -26 0 4 -14 13 -31 19 -32 11 -56 15
-48 7z"/>
<path d="M2346 1937 c3 -10 9 -15 12 -12 3 3 0 11 -7 18 -10 9 -11 8 -5 -6z"/>
<path d="M1321 1923 c-1 -24 14 -39 24 -23 3 5 2 10 -4 10 -5 0 -12 8 -14 18
-4 13 -5 12 -6 -5z"/>
<path d="M1415 1930 c3 -5 8 -10 11 -10 2 0 4 5 4 10 0 6 -5 10 -11 10 -5 0
-7 -4 -4 -10z"/>
<path d="M1553 1922 c0 -9 6 -28 14 -42 9 -17 13 -20 13 -8 0 9 -5 20 -11 23
-6 4 -8 13 -5 21 3 7 2 16 -3 18 -4 3 -8 -2 -8 -12z"/>
<path d="M815 1908 c-35 -13 -74 -38 -58 -38 13 0 103 39 103 45 0 7 -10 5
-45 -7z"/>
<path d="M1600 1900 c0 -5 5 -10 11 -10 5 0 7 5 4 10 -3 6 -8 10 -11 10 -2 0
-4 -4 -4 -10z"/>
<path d="M1960 1890 c0 -5 4 -10 9 -10 6 0 13 5 16 10 3 6 -1 10 -9 10 -9 0
-16 -4 -16 -10z"/>
<path d="M1341 1864 c0 -11 3 -14 6 -6 3 7 2 16 -1 19 -3 4 -6 -2 -5 -13z"/>
<path d="M1783 1850 c-32 -13 -28 -21 5 -10 15 5 36 11 47 13 16 4 15 5 -5 5
-14 0 -35 -3 -47 -8z"/>
<path d="M1960 1856 c0 -2 14 -6 30 -8 17 -3 30 -1 30 4 0 4 -13 8 -30 8 -16
0 -30 -2 -30 -4z"/>
<path d="M2170 1850 c0 -5 5 -10 10 -10 6 0 10 5 10 10 0 6 -4 10 -10 10 -5 0
-10 -4 -10 -10z"/>
<path d="M621 1834 c0 -11 3 -14 6 -6 3 7 2 16 -1 19 -3 4 -6 -2 -5 -13z"/>
<path d="M885 1840 c-18 -8 -18 -9 5 -9 14 0 32 4 40 9 12 8 12 10 -5 9 -11 0
-29 -4 -40 -9z"/>
<path d="M950 1842 c0 -5 7 -9 15 -9 8 0 15 4 15 9 0 4 -7 8 -15 8 -8 0 -15
-4 -15 -8z"/>
<path d="M995 1840 c-3 -5 1 -10 10 -10 9 0 13 5 10 10 -3 6 -8 10 -10 10 -2
0 -7 -4 -10 -10z"/>
<path d="M2040 1840 c8 -5 20 -10 25 -10 6 0 3 5 -5 10 -8 5 -19 10 -25 10 -5
0 -3 -5 5 -10z"/>
<path d="M2231 1833 c-1 -26 -21 -32 -21 -6 0 13 -3 14 -12 5 -10 -10 -7 -16
10 -28 27 -18 28 -41 5 -67 -10 -11 -12 -17 -4 -12 8 4 16 2 21 -5 5 -8 12 0
20 24 8 25 9 41 2 49 -6 7 -12 23 -15 37 -4 23 -4 23 -6 3z"/>
<path d="M1710 1830 c-13 -8 -12 -10 3 -10 9 0 17 5 17 10 0 12 -1 12 -20 0z"/>
<path d="M1760 1822 c-68 -20 -144 -55 -155 -72 -9 -15 -2 -13 54 16 59 29
165 54 234 54 68 0 180 -27 219 -54 29 -19 35 -30 45 -86 l11 -65 0 82 c-1 45
-5 80 -10 77 -4 -3 -5 -11 -2 -17 4 -7 -4 -2 -18 11 -69 63 -252 89 -378 54z"/>
<path d="M711 1802 c-1 -30 1 -32 19 -22 11 6 20 18 19 28 0 10 -3 12 -6 5 -7
-18 -21 -16 -26 5 -3 9 -5 2 -6 -16z"/>
<path d="M632 1785 c0 -16 2 -22 5 -12 2 9 2 23 0 30 -3 6 -5 -1 -5 -18z"/>
<path d="M1227 1789 c7 -7 15 -10 18 -7 3 3 -2 9 -12 12 -14 6 -15 5 -6 -5z"/>
<path d="M565 1769 c-4 -6 -5 -12 -2 -15 2 -3 7 2 10 11 7 17 1 20 -8 4z"/>
<path d="M1988 1763 c7 -3 16 -2 19 1 4 3 -2 6 -13 5 -11 0 -14 -3 -6 -6z"/>
<path d="M854 1745 c-12 -8 -25 -11 -29 -7 -5 4 -5 1 -1 -6 8 -13 39 -2 51 18
8 14 3 13 -21 -5z"/>
<path d="M1490 1740 c0 -5 7 -7 15 -4 8 4 15 8 15 10 0 2 -7 4 -15 4 -8 0 -15
-4 -15 -10z"/>
<path d="M2112 1663 c3 -49 7 -99 8 -113 4 -45 19 50 18 110 -1 54 -11 90 -26
90 -4 0 -4 -39 0 -87z"/>
<path d="M895 1721 c-6 -5 -19 -11 -30 -14 -19 -4 -19 -5 1 -6 12 0 27 6 34
14 14 16 10 20 -5 6z"/>
<path d="M1448 1713 c12 -2 30 -2 40 0 9 3 -1 5 -23 4 -22 0 -30 -2 -17 -4z"/>
<path d="M1820 1713 c-49 -8 -124 -56 -144 -92 -9 -14 -8 -15 10 -1 10 8 25
21 33 28 66 63 177 67 239 10 12 -12 22 -17 22 -11 0 26 -87 77 -125 72 -5 -1
-21 -4 -35 -6z"/>
<path d="M2028 1713 c7 -3 16 -2 19 1 4 3 -2 6 -13 5 -11 0 -14 -3 -6 -6z"/>
<path d="M1624 1696 c-18 -14 -18 -15 4 -13 12 1 22 7 22 14 0 16 -2 16 -26
-1z"/>
<path d="M1420 1696 c0 -2 7 -7 16 -10 8 -3 12 -2 9 4 -6 10 -25 14 -25 6z"/>
<path d="M1466 1691 c-4 -5 1 -8 9 -7 21 3 31 16 12 16 -9 0 -18 -4 -21 -9z"/>
<path d="M995 1675 c-33 -18 -85 -70 -85 -86 0 -5 14 6 30 25 29 32 96 64 130
61 8 -1 25 -3 36 -3 12 -1 45 -18 73 -37 63 -43 67 -33 6 13 -56 41 -142 53
-190 27z"/>
<path d="M1278 1666 c-3 -14 -1 -31 3 -38 6 -8 9 1 9 25 0 42 -6 48 -12 13z"/>
<path d="M1751 1630 c-40 -20 -101 -78 -101 -96 0 -8 7 -14 16 -14 9 0 14 6
12 12 -6 17 19 41 33 32 7 -4 10 -3 7 2 -3 5 3 17 14 27 10 9 18 14 18 10 0
-5 5 -1 11 7 8 11 9 5 6 -25 -7 -55 3 -75 46 -90 49 -17 63 -4 72 67 7 50 8
51 21 27 7 -13 13 -18 14 -11 0 10 3 10 14 0 7 -7 11 -19 8 -27 -4 -10 -1 -12
8 -6 9 5 11 4 6 -3 -4 -6 0 -24 8 -39 l15 -28 1 34 c0 30 2 32 17 20 12 -9 10
-4 -5 16 -38 53 -49 65 -57 65 -4 0 -22 7 -41 16 -19 9 -49 14 -69 12 -19 -2
-36 -1 -37 2 -2 3 -18 -2 -37 -10z m117 -27 c2 -7 -3 -13 -12 -13 -9 0 -16 -6
-16 -12 -1 -8 -5 -7 -13 4 -9 11 -18 14 -28 7 -10 -6 -10 -9 -1 -9 6 0 12 -7
12 -16 0 -16 2 -16 48 3 13 5 16 -15 6 -41 -13 -33 -84 -10 -84 27 0 54 11 68
48 65 20 -2 37 -9 40 -15z"/>
<path d="M2031 1634 c0 -11 3 -14 6 -6 3 7 2 16 -1 19 -3 4 -6 -2 -5 -13z"/>
<path d="M1025 1588 c-31 -12 -35 -14 -97 -71 -36 -33 -40 -40 -30 -60 10 -21
11 -21 11 7 1 24 3 27 16 16 12 -10 13 -16 4 -26 -9 -11 -8 -14 5 -14 9 0 15
3 14 8 -6 24 17 75 38 84 13 6 24 15 24 20 0 4 5 8 11 8 7 0 9 -11 6 -27 -8
-44 8 -73 41 -73 45 0 82 35 82 76 0 36 10 43 32 20 8 -7 23 -16 35 -20 11 -4
20 -14 19 -23 0 -9 5 -18 12 -20 24 -9 12 36 -19 72 -23 26 -35 33 -44 25 -9
-7 -21 -7 -39 0 -34 13 -82 12 -121 -2z m105 -50 c0 -23 -3 -39 -6 -35 -4 3
-12 0 -20 -7 -13 -14 -54 -16 -54 -3 0 4 0 19 0 33 0 14 4 23 9 19 5 -3 12 -1
16 5 3 5 -1 10 -9 10 -9 0 -16 5 -16 10 0 6 18 10 40 10 l40 0 0 -42z"/>
<path d="M1086 1544 c-7 -19 14 -29 25 -13 12 20 11 26 -6 26 -8 0 -16 -6 -19
-13z"/>
<path d="M1287 1589 c7 -7 15 -10 18 -7 3 3 -2 9 -12 12 -14 6 -15 5 -6 -5z"/>
<path d="M1920 1555 c0 -5 5 -17 10 -25 5 -8 10 -10 10 -5 0 6 -5 17 -10 25
-5 8 -10 11 -10 5z"/>
<path d="M1700 1540 c-12 -8 -12 -10 2 -15 10 -4 22 -4 28 0 5 3 10 1 10 -6 0
-7 2 -10 5 -7 9 8 -6 38 -19 38 -6 0 -18 -4 -26 -10z"/>
<path d="M1490 1529 c0 -5 5 -7 10 -4 6 3 10 8 10 11 0 2 -4 4 -10 4 -5 0 -10
-5 -10 -11z"/>
<path d="M2221 1501 c-25 -48 -25 -51 -6 -51 14 0 42 77 31 87 -2 3 -14 -13
-25 -36z"/>
<path d="M1176 1512 c-2 -4 6 -9 20 -10 13 -1 24 3 24 8 0 12 -37 14 -44 2z"/>
<path d="M970 1479 c0 -5 5 -7 10 -4 6 3 10 8 10 11 0 2 -4 4 -10 4 -5 0 -10
-5 -10 -11z"/>
<path d="M1686 1465 c-9 -26 -7 -32 5 -12 6 10 9 21 6 23 -2 3 -7 -2 -11 -11z"/>
<path d="M1755 1470 c3 -5 13 -10 21 -10 8 0 12 5 9 10 -3 6 -13 10 -21 10 -8
0 -12 -4 -9 -10z"/>
<path d="M1886 1453 c-6 -14 -5 -15 5 -6 7 7 10 15 7 18 -3 3 -9 -2 -12 -12z"/>
<path d="M1198 1441 c-12 -14 -13 -22 -5 -30 17 -17 0 -25 -20 -10 -16 13 -17
12 -4 -3 11 -15 11 -19 -5 -25 -11 -3 -22 -12 -27 -19 -4 -7 -16 -11 -27 -9
-12 2 -20 -2 -20 -9 0 -17 -31 -26 -87 -26 -24 0 -43 -4 -43 -9 0 -4 25 -7 55
-5 54 3 127 36 155 69 7 8 19 15 27 15 11 0 14 7 10 22 -4 12 -1 28 5 35 6 8
9 15 6 18 -2 2 -11 -4 -20 -14z"/>
<path d="M1236 1444 c-9 -22 -7 -54 2 -54 4 0 9 16 10 35 3 37 -2 45 -12 19z"/>
<path d="M1807 1449 c8 -8 16 -8 30 0 16 9 14 10 -11 11 -22 0 -27 -3 -19 -11z"/>
<path d="M1300 1425 c-6 -17 -7 -32 -2 -37 6 -6 12 4 16 23 8 42 0 50 -14 14z"/>
<path d="M1704 1438 c-4 -7 -4 -10 1 -6 5 5 13 -2 19 -15 14 -27 155 -101 182
-95 18 5 18 5 -1 12 -11 5 -27 11 -35 14 -9 3 -1 8 20 12 l35 6 -35 7 c-19 4
-48 9 -65 11 -44 6 -58 14 -79 41 -21 28 -31 31 -42 13z"/>
<path d="M985 1430 c3 -5 11 -10 16 -10 6 0 7 5 4 10 -3 6 -11 10 -16 10 -6 0
-7 -4 -4 -10z"/>
<path d="M1058 1432 c-21 -2 -38 -7 -38 -12 0 -9 67 -6 77 4 10 9 1 11 -39 8z"/>
<path d="M1527 1419 c4 -13 8 -18 11 -10 2 7 -1 18 -6 23 -8 8 -9 4 -5 -13z"/>
<path d="M925 1409 c-4 -6 -5 -12 -2 -15 2 -3 7 2 10 11 7 17 1 20 -8 4z"/>
<path d="M958 1370 c10 -12 18 -16 21 -9 2 6 -3 15 -10 20 -24 15 -29 10 -11
-11z"/>
<path d="M1206 1361 c-17 -19 -17 -19 3 -14 12 3 21 12 21 19 0 18 -4 18 -24
-5z"/>
<path d="M1665 1370 c3 -5 8 -10 11 -10 2 0 4 5 4 10 0 6 -5 10 -11 10 -5 0
-7 -4 -4 -10z"/>
<path d="M590 1341 c0 -6 4 -13 10 -16 6 -3 7 1 4 9 -7 18 -14 21 -14 7z"/>
<path d="M1556 1307 c3 -10 9 -15 12 -12 3 3 0 11 -7 18 -10 9 -11 8 -5 -6z"/>
<path d="M1370 1301 c0 -5 5 -13 10 -16 6 -3 10 -2 10 4 0 5 -4 13 -10 16 -5
3 -10 2 -10 -4z"/>
<path d="M1134 1279 c-3 -6 -1 -16 6 -22 10 -9 12 -8 7 5 -3 9 -1 19 6 22 9 3
9 5 0 5 -6 1 -15 -4 -19 -10z"/>
<path d="M1166 1273 c-6 -14 -5 -15 5 -6 7 7 10 15 7 18 -3 3 -9 -2 -12 -12z"/>
<path d="M1571 1264 c0 -11 3 -14 6 -6 3 7 2 16 -1 19 -3 4 -6 -2 -5 -13z"/>
<path d="M1030 1256 c0 -2 14 -6 30 -8 17 -3 30 -1 30 4 0 4 -13 8 -30 8 -16
0 -30 -2 -30 -4z"/>
<path d="M2201 1244 c0 -11 3 -14 6 -6 3 7 2 16 -1 19 -3 4 -6 -2 -5 -13z"/>
<path d="M921 1234 c0 -11 3 -14 6 -6 3 7 2 16 -1 19 -3 4 -6 -2 -5 -13z"/>
<path d="M1511 1224 c0 -11 3 -14 6 -6 3 7 2 16 -1 19 -3 4 -6 -2 -5 -13z"/>
<path d="M1755 1200 c-3 -5 -1 -10 4 -10 6 0 11 5 11 10 0 6 -2 10 -4 10 -3 0
-8 -4 -11 -10z"/>
<path d="M2177 1151 c-2 -10 -1 -24 3 -30 4 -7 7 1 8 18 1 35 -3 40 -11 12z"/>
<path d="M661 1144 c0 -11 3 -14 6 -6 3 7 2 16 -1 19 -3 4 -6 -2 -5 -13z"/>
<path d="M1100 1150 c0 -5 5 -10 11 -10 5 0 7 5 4 10 -3 6 -8 10 -11 10 -2 0
-4 -4 -4 -10z"/>
<path d="M1275 1140 c-3 -6 1 -7 9 -4 18 7 21 14 7 14 -6 0 -13 -4 -16 -10z"/>
<path d="M1644 1119 c9 -14 13 -29 9 -33 -4 -4 0 -4 10 0 12 4 19 -1 25 -17 5
-12 11 -18 14 -13 7 11 -6 29 -46 64 l-29 25 17 -26z"/>
<path d="M1250 1105 c-8 -9 -8 -15 -2 -15 12 0 26 19 19 26 -2 2 -10 -2 -17
-11z"/>
<path d="M2176 1070 c7 -40 21 -80 28 -80 6 0 -14 82 -25 99 -7 12 -8 6 -3
-19z"/>
<path d="M1226 1065 c4 -8 11 -15 16 -15 6 0 5 6 -2 15 -7 8 -14 15 -16 15 -2
0 -1 -7 2 -15z"/>
<path d="M1440 1070 c0 -5 5 -10 10 -10 6 0 10 5 10 10 0 6 -4 10 -10 10 -5 0
-10 -4 -10 -10z"/>
<path d="M1480 1060 c0 -5 5 -10 10 -10 6 0 10 5 10 10 0 6 -4 10 -10 10 -5 0
-10 -4 -10 -10z"/>
<path d="M1150 1025 c-11 -13 -10 -14 4 -9 9 3 16 10 16 15 0 13 -6 11 -20 -6z"/>
<path d="M1740 1029 c0 -5 5 -7 10 -4 6 3 10 8 10 11 0 2 -4 4 -10 4 -5 0 -10
-5 -10 -11z"/>
<path d="M1900 1030 c0 -5 5 -10 10 -10 6 0 10 5 10 10 0 6 -4 10 -10 10 -5 0
-10 -4 -10 -10z"/>
<path d="M1966 1027 c3 -10 9 -15 12 -12 3 3 0 11 -7 18 -10 9 -11 8 -5 -6z"/>
<path d="M981 1014 c0 -11 3 -14 6 -6 3 7 2 16 -1 19 -3 4 -6 -2 -5 -13z"/>
<path d="M1103 1015 c-3 -9 -3 -18 -1 -21 3 -3 8 4 11 16 6 23 -1 27 -10 5z"/>
<path d="M790 1005 c0 -8 5 -15 10 -15 6 0 10 7 10 15 0 8 -4 15 -10 15 -5 0
-10 -7 -10 -15z"/>
<path d="M930 996 c0 -9 5 -16 10 -16 6 0 10 4 10 9 0 6 -4 13 -10 16 -5 3
-10 -1 -10 -9z"/>
<path d="M2175 975 c8 -62 8 -371 1 -383 -3 -6 -2 -13 4 -17 5 -3 10 -22 10
-42 0 -20 3 -33 7 -29 9 9 10 146 1 146 -5 0 -8 8 -8 18 0 11 3 13 8 6 4 -7 8
17 9 52 2 38 -1 64 -7 64 -6 0 -10 5 -10 11 0 5 5 7 10 4 14 -9 12 9 -2 24
-11 10 -10 12 1 9 7 -2 16 3 19 11 3 9 0 11 -7 6 -9 -5 -11 2 -6 29 4 21 3 42
-3 49 -6 6 -15 28 -21 47 l-11 35 5 -40z"/>
<path d="M1381 984 c0 -11 3 -14 6 -6 3 7 2 16 -1 19 -3 4 -6 -2 -5 -13z"/>
<path d="M1327 966 c-4 -10 -7 -25 -6 -34 0 -11 4 -9 10 7 5 13 8 29 6 35 -2
5 -6 2 -10 -8z"/>
<path d="M2201 964 c0 -11 3 -14 6 -6 3 7 2 16 -1 19 -3 4 -6 -2 -5 -13z"/>
<path d="M840 961 c0 -5 5 -13 10 -16 6 -3 10 -2 10 4 0 5 -4 13 -10 16 -5 3
-10 2 -10 -4z"/>
<path d="M1241 947 c-13 -21 -12 -21 5 -5 10 10 16 20 13 22 -3 3 -11 -5 -18
-17z"/>
<path d="M1695 951 c-3 -5 -1 -12 5 -16 5 -3 10 1 10 9 0 18 -6 21 -15 7z"/>
<path d="M1380 938 c0 -9 5 -20 10 -23 13 -8 13 5 0 25 -8 13 -10 13 -10 -2z"/>
<path d="M1180 915 c-8 -9 -8 -15 -2 -15 12 0 26 19 19 26 -2 2 -10 -2 -17
-11z"/>
<path d="M691 903 c0 -13 -5 -23 -11 -23 -14 0 -13 -47 2 -56 8 -5 9 -2 5 10
-4 10 -2 26 4 37 5 11 8 28 6 37 -3 12 -5 11 -6 -5z"/>
<path d="M772 890 c0 -19 2 -27 5 -17 2 9 2 25 0 35 -3 9 -5 1 -5 -18z"/>
<path d="M1210 899 c0 -5 5 -7 10 -4 6 3 10 8 10 11 0 2 -4 4 -10 4 -5 0 -10
-5 -10 -11z"/>
<path d="M1065 870 c3 -5 8 -10 11 -10 2 0 4 5 4 10 0 6 -5 10 -11 10 -5 0 -7
-4 -4 -10z"/>
<path d="M1726 848 c13 -55 5 -111 -22 -150 -26 -37 -83 -66 -104 -53 -5 3
-10 1 -10 -4 0 -19 78 -13 98 7 24 24 52 88 52 117 0 13 5 27 11 31 8 5 8 8 0
14 -6 3 -13 21 -14 38 -1 18 -6 32 -10 32 -5 0 -5 -15 -1 -32z"/>
<path d="M1150 840 c-13 -8 -12 -10 3 -10 9 0 17 5 17 10 0 12 -1 12 -20 0z"/>
<path d="M1250 841 c0 -6 4 -13 10 -16 6 -3 7 1 4 9 -7 18 -14 21 -14 7z"/>
<path d="M1600 823 c0 -13 5 -23 10 -23 13 0 13 11 0 30 -8 12 -10 11 -10 -7z"/>
<path d="M1060 810 c-6 -11 -8 -20 -6 -20 3 0 10 9 16 20 6 11 8 20 6 20 -3 0
-10 -9 -16 -20z"/>
<path d="M1111 814 c0 -11 3 -14 6 -6 3 7 2 16 -1 19 -3 4 -6 -2 -5 -13z"/>
<path d="M1940 810 c0 -5 5 -10 11 -10 5 0 7 5 4 10 -3 6 -8 10 -11 10 -2 0
-4 -4 -4 -10z"/>
<path d="M1560 801 c0 -6 4 -13 10 -16 6 -3 7 1 4 9 -7 18 -14 21 -14 7z"/>
<path d="M1796 784 c-8 -22 -4 -25 11 -9 7 8 9 16 4 19 -5 3 -12 -1 -15 -10z"/>
<path d="M1196 753 c7 -38 32 -88 52 -106 9 -8 35 -17 57 -21 37 -6 39 -5 21
9 -11 8 -27 15 -36 15 -21 0 -60 41 -60 62 0 9 -7 21 -15 28 -8 7 -13 16 -10
20 3 5 1 11 -4 15 -6 3 -8 -6 -5 -22z"/>
<path d="M670 765 c1 -6 7 -21 16 -35 l15 -25 -7 25 c-7 26 -24 52 -24 35z"/>
<path d="M1288 729 c-28 -16 -21 -28 16 -27 35 1 86 -24 86 -43 0 -13 24 -38
58 -60 22 -16 26 -16 53 0 16 9 29 24 29 36 0 18 -1 18 -16 -3 -25 -36 -52
-27 -113 37 -60 63 -85 76 -113 60z"/>
<path d="M1589 725 c-15 -8 -29 -21 -32 -29 -5 -12 0 -13 26 -5 18 5 34 14 35
19 2 6 17 1 33 -11 22 -15 29 -17 29 -6 0 18 -32 47 -51 47 -8 -1 -26 -7 -40
-15z"/>
<path d="M716 647 c3 -10 9 -15 12 -12 3 3 0 11 -7 18 -10 9 -11 8 -5 -6z"/>
<path d="M740 621 c0 -6 5 -13 10 -16 6 -3 10 1 10 9 0 9 -4 16 -10 16 -5 0
-10 -4 -10 -9z"/>
<path d="M1016 607 c3 -10 9 -15 12 -12 3 3 0 11 -7 18 -10 9 -11 8 -5 -6z"/>
<path d="M957 603 c-3 -5 -1 -17 4 -28 6 -17 7 -16 6 8 -1 28 -3 32 -10 20z"/>
<path d="M1160 589 c0 -5 5 -7 10 -4 6 3 10 8 10 11 0 2 -4 4 -10 4 -5 0 -10
-5 -10 -11z"/>
<path d="M1840 574 c14 -14 20 -28 15 -32 -13 -9 -15 -40 -4 -69 10 -27 2 -30
-18 -5 -11 12 -10 9 1 -10 9 -15 16 -29 16 -31 0 -12 -45 -15 -53 -4 -6 8 -7
7 -3 -5 8 -26 -44 -74 -105 -98 -30 -12 -59 -26 -64 -30 -6 -5 -22 -7 -37 -6
-19 2 -25 -1 -21 -11 3 -9 0 -11 -10 -8 -8 4 -21 0 -29 -7 -7 -7 -24 -19 -36
-26 -18 -10 -22 -10 -22 3 0 17 -16 21 -22 5 -2 -6 -13 -2 -25 9 -15 14 -23
17 -27 8 -3 -9 -7 -9 -14 1 -5 7 -20 11 -33 9 -13 -2 -18 -2 -11 0 6 3 12 9
12 15 0 6 -7 7 -17 3 -23 -10 -54 -8 -62 2 -8 11 -55 10 -63 -2 -5 -6 -8 -3
-8 6 0 15 -30 47 -59 64 -11 6 -13 4 -8 -9 4 -10 3 -15 -3 -11 -6 3 -10 -3
-10 -14 0 -12 -4 -21 -9 -21 -8 0 -2 40 12 80 12 34 16 81 7 75 -6 -3 -10 -23
-10 -43 -1 -35 -1 -36 -16 -17 -13 18 -14 17 -10 -21 2 -22 0 -61 -4 -87 l-7
-46 26 27 c14 15 26 31 26 36 0 14 25 20 25 6 0 -6 5 -8 10 -5 6 3 10 0 10 -8
0 -17 21 -27 56 -27 13 0 24 -4 24 -9 0 -5 6 -8 13 -8 21 2 89 -13 140 -29 26
-9 60 -14 75 -11 32 6 95 29 102 38 3 4 16 10 30 14 14 4 47 18 73 31 27 12
56 20 64 17 11 -5 14 -3 9 6 -5 7 1 22 14 36 19 20 25 22 36 10 8 -8 14 -18
13 -22 -4 -23 2 -32 18 -26 12 5 15 2 10 -10 -4 -11 -1 -17 8 -17 8 0 15 7 15
15 0 8 -4 15 -9 15 -5 0 -11 17 -14 38 -7 42 -5 58 6 54 8 -2 3 54 -8 79 -3
10 -1 20 5 24 7 4 14 -2 17 -14 5 -19 23 -30 23 -15 0 15 -35 81 -51 97 -28
27 -35 20 -9 -9z m-13 -196 c-3 -8 -6 -5 -6 6 -1 11 2 17 5 13 3 -3 4 -12 1
-19z"/>
<path d="M738 561 c-2 -17 -1 -28 4 -25 10 6 10 6 -1 -34 -5 -17 -6 -32 -2
-32 4 0 13 -16 20 -36 7 -19 15 -34 17 -31 3 2 0 17 -7 33 -6 16 -11 57 -11
92 -1 64 -13 84 -20 33z"/>
<path d="M1766 581 c-4 -7 -5 -15 -2 -18 9 -9 19 4 14 18 -4 11 -6 11 -12 0z"/>
<path d="M860 564 c0 -8 5 -12 10 -9 6 3 10 10 10 16 0 5 -4 9 -10 9 -5 0 -10
-7 -10 -16z"/>
<path d="M1546 518 c-4 -23 -3 -45 1 -49 5 -5 9 14 10 41 3 61 -2 64 -11 8z"/>
<path d="M1390 540 c-1 -8 -2 -21 -1 -27 1 -8 -5 -10 -14 -7 -10 4 -15 0 -15
-11 0 -9 5 -13 11 -9 9 5 10 -3 5 -29 -4 -23 -3 -38 5 -43 8 -5 10 -2 6 8 -3
9 -1 35 4 58 6 24 8 50 6 59 -4 13 -5 14 -7 1z"/>
<path d="M1521 534 c0 -11 3 -14 6 -6 3 7 2 16 -1 19 -3 4 -6 -2 -5 -13z"/>
<path d="M1616 490 c4 -36 14 -76 23 -89 9 -13 22 -33 28 -45 l13 -21 0 23 c0
12 -4 22 -8 22 -14 0 -41 72 -41 107 0 18 -4 40 -10 50 -8 13 -9 1 -5 -47z"/>
<path d="M1055 530 c-3 -5 -1 -10 4 -10 6 0 11 5 11 10 0 6 -2 10 -4 10 -3 0
-8 -4 -11 -10z"/>
<path d="M2000 531 c0 -6 5 -13 10 -16 6 -3 10 1 10 9 0 9 -4 16 -10 16 -5 0
-10 -4 -10 -9z"/>
<path d="M2171 524 c0 -11 3 -14 6 -6 3 7 2 16 -1 19 -3 4 -6 -2 -5 -13z"/>
<path d="M1281 514 c0 -11 3 -14 6 -6 3 7 2 16 -1 19 -3 4 -6 -2 -5 -13z"/>
<path d="M1673 477 c3 -34 2 -55 -4 -52 -5 4 -9 2 -9 -3 0 -5 11 -9 25 -9 21
0 23 2 14 13 -6 8 -14 33 -16 57 -3 23 -8 44 -10 47 -3 3 -3 -21 0 -53z"/>
<path d="M1700 529 c0 -9 31 -69 35 -69 3 0 2 8 -2 18 -7 19 -33 59 -33 51z"/>
<path d="M2151 514 c0 -11 3 -14 6 -6 3 7 2 16 -1 19 -3 4 -6 -2 -5 -13z"/>
<path d="M1651 504 c0 -11 3 -14 6 -6 3 7 2 16 -1 19 -3 4 -6 -2 -5 -13z"/>
<path d="M1739 505 c17 -34 31 -51 31 -39 0 7 -9 22 -21 35 -16 19 -18 20 -10
4z"/>
<path d="M1310 501 c0 -5 5 -13 10 -16 6 -3 10 -2 10 4 0 5 -4 13 -10 16 -5 3
-10 2 -10 -4z"/>
<path d="M1571 493 c-1 -28 8 -53 21 -53 7 0 7 4 0 13 -5 6 -12 23 -15 37 -4
22 -4 22 -6 3z"/>
<path d="M1592 490 c0 -14 2 -19 5 -12 2 6 2 18 0 25 -3 6 -5 1 -5 -13z"/>
<path d="M1420 474 c-14 -35 -12 -53 2 -29 13 22 21 55 13 55 -3 0 -10 -12
-15 -26z"/>
<path d="M1204 476 c-10 -8 -16 -18 -11 -22 4 -4 7 -2 7 4 0 7 7 12 15 12 8 0
15 5 15 10 0 13 -3 13 -26 -4z"/>
<path d="M1252 465 c-14 -31 -15 -46 -2 -25 7 11 10 11 10 2 0 -7 4 -11 9 -8
5 4 11 0 14 -6 3 -7 3 1 2 17 -2 17 -4 33 -4 38 -2 16 -18 6 -29 -18z m28 1
c0 -3 -4 -8 -10 -11 -5 -3 -10 -1 -10 4 0 6 5 11 10 11 6 0 10 -2 10 -4z"/>
<path d="M2170 481 c0 -5 5 -13 10 -16 6 -3 10 -2 10 4 0 5 -4 13 -10 16 -5 3
-10 2 -10 -4z"/>
<path d="M1162 460 c0 -14 2 -19 5 -12 2 6 2 18 0 25 -3 6 -5 1 -5 -13z"/>
<path d="M1800 471 c0 -6 4 -13 10 -16 6 -3 7 1 4 9 -7 18 -14 21 -14 7z"/>
<path d="M1027 463 c-12 -11 -8 -23 8 -23 8 0 15 7 15 15 0 16 -12 20 -23 8z"/>
<path d="M1332 444 c-7 -14 -8 -23 -2 -19 13 8 13 -1 0 -26 -9 -16 -7 -19 8
-19 10 0 24 -6 31 -12 8 -7 11 -8 8 -2 -17 30 -30 71 -28 87 3 24 -4 21 -17
-9z"/>
<path d="M1646 457 c3 -10 9 -15 12 -12 3 3 0 11 -7 18 -10 9 -11 8 -5 -6z"/>
<path d="M1508 454 c-6 -35 -2 -64 10 -69 10 -4 11 4 6 33 -7 38 -13 52 -16
36z"/>
<path d="M1081 434 c0 -11 3 -14 6 -6 3 7 2 16 -1 19 -3 4 -6 -2 -5 -13z"/>
<path d="M1205 441 c-3 -6 -10 -9 -15 -6 -8 5 -24 -25 -16 -32 2 -3 14 5 26
17 12 12 19 24 17 26 -3 3 -8 0 -12 -5z"/>
<path d="M1447 443 c-4 -3 -7 -11 -7 -17 0 -6 5 -5 12 2 6 6 9 14 7 17 -3 3
-9 2 -12 -2z"/>
<path d="M1540 439 c0 -14 26 -39 40 -39 7 0 10 -8 7 -20 -3 -11 -1 -20 4 -20
5 0 9 11 9 25 0 16 -6 25 -15 25 -8 0 -15 6 -15 14 0 8 -7 16 -15 20 -8 3 -15
1 -15 -5z"/>
<path d="M1740 437 c0 -2 6 -10 14 -16 11 -9 16 -9 22 1 4 7 4 10 -1 6 -4 -4
-14 -3 -22 3 -7 6 -13 9 -13 6z"/>
<path d="M740 410 c0 -19 3 -21 12 -12 9 9 9 15 0 24 -9 9 -12 7 -12 -12z"/>
<path d="M1250 400 c0 -11 2 -20 4 -20 2 0 6 9 9 20 3 11 1 20 -4 20 -5 0 -9
-9 -9 -20z"/>
<path d="M1430 401 c0 -17 18 -21 24 -6 3 9 0 15 -9 15 -8 0 -15 -4 -15 -9z"/>
<path d="M1005 390 c-3 -5 -1 -10 4 -10 6 0 11 5 11 10 0 6 -2 10 -4 10 -3 0
-8 -4 -11 -10z"/>
<path d="M1150 384 c0 -8 5 -12 10 -9 6 3 10 10 10 16 0 5 -4 9 -10 9 -5 0
-10 -7 -10 -16z"/>
<path d="M1300 391 c0 -5 -6 -16 -14 -24 -8 -8 -11 -19 -6 -27 6 -9 10 -7 15
9 3 12 10 19 15 16 4 -3 6 4 3 15 -6 21 -13 27 -13 11z"/>
<path d="M1710 396 c0 -2 7 -7 16 -10 8 -3 12 -2 9 4 -6 10 -25 14 -25 6z"/>
<path d="M2171 384 c0 -11 3 -14 6 -6 3 7 2 16 -1 19 -3 4 -6 -2 -5 -13z"/>
<path d="M759 388 c-1 -2 -2 -22 -3 -45 -1 -30 1 -40 9 -33 8 6 10 0 8 -23 -1
-18 2 -41 6 -52 5 -11 21 -58 36 -105 32 -100 49 -130 73 -129 13 1 14 2 2 5
-9 3 -25 36 -39 82 -13 42 -28 82 -32 88 -8 10 -40 157 -38 172 3 22 -2 42
-11 42 -5 0 -10 -1 -11 -2z"/>
<path d="M1189 368 c-12 -23 -12 -23 10 -4 23 21 26 26 11 26 -5 0 -15 -10
-21 -22z"/>
<path d="M840 368 c0 -9 5 -20 10 -23 13 -8 13 5 0 25 -8 13 -10 13 -10 -2z"/>
<path d="M1246 355 c-9 -26 -7 -32 5 -12 6 10 9 21 6 23 -2 3 -7 -2 -11 -11z"/>
<path d="M2152 330 c-7 -17 -8 -40 -3 -52 6 -18 9 -12 14 27 6 60 3 67 -11 25z"/>
<path d="M1400 310 c0 -15 26 -41 34 -33 3 3 12 1 19 -5 8 -7 17 -9 20 -6 10
11 -3 24 -23 24 -10 0 -26 7 -34 16 -10 9 -16 11 -16 4z"/>
<path d="M1568 313 c7 -3 16 -2 19 1 4 3 -2 6 -13 5 -11 0 -14 -3 -6 -6z"/>
<path d="M871 294 c0 -11 3 -14 6 -6 3 7 2 16 -1 19 -3 4 -6 -2 -5 -13z"/>
<path d="M1023 265 c0 -22 2 -30 4 -17 2 12 2 30 0 40 -3 9 -5 -1 -4 -23z"/>
<path d="M1504 286 c-29 -22 -13 -26 21 -5 17 11 23 19 14 19 -8 0 -24 -6 -35
-14z"/>
<path d="M1947 286 c-4 -10 -5 -21 -2 -24 9 -9 17 6 13 25 -3 17 -4 17 -11 -1z"/>
<path d="M2120 265 c0 -8 4 -15 10 -15 5 0 7 7 4 15 -4 8 -8 15 -10 15 -2 0
-4 -7 -4 -15z"/>
<path d="M1866 251 c-3 -5 1 -11 9 -14 9 -4 12 -1 8 9 -6 16 -10 17 -17 5z"/>
<path d="M1215 239 c-4 -6 -5 -12 -2 -15 2 -3 7 2 10 11 7 17 1 20 -8 4z"/>
<path d="M1711 234 c0 -11 3 -14 6 -6 3 7 2 16 -1 19 -3 4 -6 -2 -5 -13z"/>
<path d="M2101 188 c-7 -29 -24 -73 -37 -98 -28 -55 -38 -90 -26 -90 5 0 15
18 22 41 14 42 37 68 28 31 -4 -12 -2 -20 2 -17 5 3 9 22 9 43 0 20 2 46 4 57
3 11 6 27 6 35 1 13 2 13 11 0 7 -11 9 -6 7 17 -3 47 -11 41 -26 -19z"/>
<path d="M1096 214 c-3 -8 -11 -12 -17 -8 -8 4 -9 3 -5 -5 4 -6 2 -18 -4 -26
-7 -8 -9 -15 -6 -15 12 0 33 25 40 48 8 25 1 30 -8 6z"/>
<path d="M1251 225 c1 -19 18 -51 18 -35 0 8 -4 22 -9 30 -5 8 -9 11 -9 5z"/>
<path d="M1647 203 c3 -20 1 -39 -7 -48 -7 -8 -8 -15 -4 -15 5 0 15 9 22 20
10 17 10 25 -3 48 l-14 27 6 -32z"/>
<path d="M911 194 c0 -11 3 -14 6 -6 3 7 2 16 -1 19 -3 4 -6 -2 -5 -13z"/>
<path d="M1232 185 c0 -16 2 -22 5 -12 2 9 2 23 0 30 -3 6 -5 -1 -5 -18z"/>
<path d="M1120 190 c0 -5 5 -10 10 -10 6 0 10 5 10 10 0 6 -4 10 -10 10 -5 0
-10 -4 -10 -10z"/>
<path d="M1681 184 c0 -11 3 -14 6 -6 3 7 2 16 -1 19 -3 4 -6 -2 -5 -13z"/>
<path d="M1270 161 c0 -5 5 -13 10 -16 6 -3 10 -2 10 4 0 5 -4 13 -10 16 -5 3
-10 2 -10 -4z"/>
<path d="M1560 160 c0 -5 5 -10 11 -10 5 0 7 5 4 10 -3 6 -8 10 -11 10 -2 0
-4 -4 -4 -10z"/>
<path d="M1741 165 c0 -5 6 -19 14 -29 8 -11 15 -15 15 -10 0 6 -7 19 -15 30
-8 10 -14 15 -14 9z"/>
<path d="M2133 153 c-3 -10 -8 -22 -11 -27 -3 -5 0 -6 5 -3 11 7 25 47 17 47
-3 0 -7 -8 -11 -17z"/>
<path d="M1981 134 c0 -11 3 -14 6 -6 3 7 2 16 -1 19 -3 4 -6 -2 -5 -13z"/>
<path d="M1583 123 c-12 -2 -27 -11 -33 -19 -14 -16 -8 -18 18 -5 9 5 28 14
42 19 25 11 13 13 -27 5z"/>
<path d="M1945 120 c3 -5 8 -10 11 -10 2 0 4 5 4 10 0 6 -5 10 -11 10 -5 0 -7
-4 -4 -10z"/>
<path d="M1352 108 c5 -15 28 -23 28 -10 0 5 -7 13 -16 16 -10 4 -14 1 -12 -6z"/>
<path d="M1400 100 c0 -5 5 -10 11 -10 5 0 7 5 4 10 -3 6 -8 10 -11 10 -2 0
-4 -4 -4 -10z"/>
<path d="M1430 99 c0 -5 5 -7 10 -4 6 3 10 8 10 11 0 2 -4 4 -10 4 -5 0 -10
-5 -10 -11z"/>
<path d="M1495 100 c-8 -13 5 -13 25 0 13 8 13 10 -2 10 -9 0 -20 -4 -23 -10z"/>
<path d="M1310 88 c0 -9 7 -19 16 -22 15 -6 15 -4 3 11 -7 10 -15 20 -16 22
-2 2 -3 -3 -3 -11z"/>
<path d="M1940 81 c-6 -12 -7 -21 -1 -21 10 0 24 30 17 37 -2 3 -9 -5 -16 -16z"/>
<path d="M1390 50 c0 -5 5 -10 10 -10 6 0 10 5 10 10 0 6 -4 10 -10 10 -5 0
-10 -4 -10 -10z"/>
<path d="M1696 45 c4 -8 8 -15 10 -15 2 0 4 7 4 15 0 8 -4 15 -10 15 -5 0 -7
-7 -4 -15z"/>
<path d="M2075 30 c-3 -5 -1 -10 4 -10 6 0 11 5 11 10 0 6 -2 10 -4 10 -3 0
-8 -4 -11 -10z"/>
<path d="M1580 10 c0 -5 5 -10 10 -10 6 0 10 5 10 10 0 6 -4 10 -10 10 -5 0
-10 -4 -10 -10z"/>
</g>
</svg>
