<?xml version="1.0" standalone="no"?>
<!DOCTYPE svg PUBLIC "-//W3C//DTD SVG 20010904//EN"
 "http://www.w3.org/TR/2001/REC-SVG-20010904/DTD/svg10.dtd">
<svg version="1.0" xmlns="http://www.w3.org/2000/svg"
 width="300.000000pt" height="300.000000pt" viewBox="0 0 300.000000 300.000000"
 preserveAspectRatio="xMidYMid meet">
<metadata>
Created by potrace 1.10, written by Peter Selinger 2001-2011
</metadata>
<g transform="translate(0.000000,300.000000) scale(0.100000,-0.100000)"
fill="#000000" stroke="none">
<path d="M1368 2943 c6 -2 18 -2 25 0 6 3 1 5 -13 5 -14 0 -19 -2 -12 -5z"/>
<path d="M1385 2900 c-3 -5 -1 -10 4 -10 6 0 11 5 11 10 0 6 -2 10 -4 10 -3 0
-8 -4 -11 -10z"/>
<path d="M1338 2893 c6 -2 18 -2 25 0 6 3 1 5 -13 5 -14 0 -19 -2 -12 -5z"/>
<path d="M1500 2847 c3 -3 29 -8 58 -11 30 -3 59 -9 65 -12 8 -5 8 -3 0 6 -7
7 -38 15 -70 18 -32 2 -56 2 -53 -1z"/>
<path d="M1389 2813 c-13 -16 -12 -17 4 -4 16 13 21 21 13 21 -2 0 -10 -8 -17
-17z"/>
<path d="M1650 2806 c0 -2 7 -7 16 -10 8 -3 12 -2 9 4 -6 10 -25 14 -25 6z"/>
<path d="M1700 2780 c8 -5 20 -10 25 -10 6 0 3 5 -5 10 -8 5 -19 10 -25 10 -5
0 -3 -5 5 -10z"/>
<path d="M1613 2763 c9 -2 23 -2 30 0 6 3 -1 5 -18 5 -16 0 -22 -2 -12 -5z"/>
<path d="M1588 2733 c7 -3 16 -2 19 1 4 3 -2 6 -13 5 -11 0 -14 -3 -6 -6z"/>
<path d="M1910 2736 c0 -2 8 -10 18 -17 15 -13 16 -12 3 4 -13 16 -21 21 -21
13z"/>
<path d="M1560 2590 c0 -4 15 -11 33 -15 28 -6 30 -8 12 -15 -18 -8 -17 -9 8
-9 15 -1 30 -8 33 -16 4 -8 11 -15 18 -15 6 0 31 -18 55 -41 30 -28 48 -38 60
-33 14 6 14 7 -1 11 -10 3 -18 11 -18 19 0 8 -4 14 -10 14 -5 0 -10 6 -10 14
0 7 -8 20 -17 27 -15 11 -16 11 -5 -1 26 -30 10 -30 -33 1 -25 18 -45 36 -45
39 0 4 -18 12 -40 18 -22 5 -40 6 -40 2z"/>
<path d="M1645 2590 c4 -6 11 -8 16 -5 14 9 11 15 -7 15 -8 0 -12 -5 -9 -10z"/>
<path d="M1390 2546 c-6 -6 -10 -6 -10 -1 0 5 -15 -5 -32 -22 -36 -34 -115
-50 -139 -29 -9 7 -9 5 0 -7 22 -28 6 -31 -23 -4 -15 14 -38 27 -51 29 -36 7
-31 -9 6 -17 41 -9 69 -56 62 -103 -4 -23 -3 -33 4 -29 15 9 23 60 12 74 -6 7
-6 13 -1 17 6 3 16 -1 23 -10 10 -12 10 -20 1 -35 -10 -15 -9 -19 2 -19 8 0
17 4 20 9 7 11 54 6 71 -9 9 -8 15 -8 15 -2 0 5 -7 12 -15 16 -8 3 -14 9 -14
13 1 4 -1 16 -5 26 -9 19 -46 24 -46 6 0 -6 6 -9 14 -6 8 3 19 0 25 -7 8 -10
4 -13 -19 -13 -17 0 -30 4 -30 8 0 4 -7 15 -16 23 -14 15 -14 17 0 22 9 3 37
3 62 -1 44 -6 45 -7 39 -36 -4 -16 -2 -29 3 -29 5 0 13 -11 16 -25 4 -14 11
-25 16 -25 6 0 3 14 -5 31 -13 24 -14 37 -6 61 6 17 11 32 11 34 0 1 -11 1
-25 -2 -23 -4 -24 -3 -13 15 9 15 14 17 20 8 6 -9 8 -8 9 3 1 8 1 19 0 23 -1
5 3 6 8 2 6 -3 25 1 43 9 33 14 33 14 5 13 -15 -1 -32 -6 -37 -11z"/>
<path d="M1485 2542 c-11 -2 -26 -9 -33 -15 -7 -5 -25 -10 -39 -11 -14 -1 -29
-8 -31 -16 -5 -13 -3 -13 13 0 17 14 17 14 2 -17 -34 -64 -9 -125 51 -127 18
0 32 -4 32 -8 0 -12 38 -10 45 2 4 6 11 8 16 4 5 -3 21 1 34 10 28 18 35 20
35 7 0 -16 -68 -41 -112 -41 -23 1 -54 7 -68 15 -29 17 -40 18 -40 6 0 -5 12
-12 27 -16 19 -4 23 -9 14 -15 -19 -11 53 -33 108 -32 29 0 49 6 57 17 6 8 16
15 20 14 22 -4 33 2 28 16 -4 8 -10 12 -15 9 -5 -3 -6 -11 -3 -17 5 -9 4 -9
-6 0 -10 9 -8 18 14 43 14 17 26 38 26 46 0 9 5 12 11 8 6 -3 8 -17 5 -30 -4
-14 -2 -24 4 -24 5 0 10 5 10 11 0 5 5 7 10 4 19 -12 10 11 -20 52 -25 34 -27
41 -13 39 10 -2 25 -17 33 -35 16 -32 34 -34 23 -3 -11 32 -44 60 -64 55 -10
-3 -19 0 -19 6 0 6 -15 20 -32 31 -31 19 -70 23 -123 12z m74 -24 c6 -13 9
-15 7 -5 -7 22 0 22 25 -1 23 -22 36 -91 16 -88 -23 3 -36 17 -31 30 3 8 1 17
-4 20 -19 12 -20 -33 0 -50 19 -18 18 -18 -14 -36 -18 -9 -41 -17 -51 -18 -10
0 -15 -5 -12 -10 6 -11 -59 23 -82 42 -17 14 -16 59 0 82 10 13 20 16 35 12
26 -8 21 -25 -6 -21 -9 1 -11 0 -4 -2 8 -3 11 -12 8 -21 -4 -10 2 -7 12 7 19
23 19 23 53 6 30 -16 32 -16 20 -2 -7 10 -20 17 -27 17 -8 0 -14 5 -14 10 0
15 26 12 40 -5 9 -11 16 -13 24 -5 7 7 4 17 -12 32 -12 12 -22 17 -22 11 0 -7
-7 -10 -15 -7 -8 4 -15 1 -15 -5 0 -6 -9 -11 -20 -11 -33 0 -23 16 18 27 55
15 58 15 71 -9z m82 -65 c0 -25 1 -26 9 -8 5 11 9 14 9 7 1 -13 -26 -72 -33
-72 -2 0 -3 22 -2 50 1 52 15 71 17 23z m-51 -132 c0 -19 -102 -29 -127 -13
-7 4 9 7 35 6 27 -1 55 2 63 7 18 11 29 11 29 0z"/>
<path d="M1582 2480 c7 -10 14 -18 15 -16 6 6 -9 36 -18 36 -5 0 -4 -9 3 -20z"/>
<path d="M1585 2440 c3 -5 8 -10 11 -10 2 0 4 5 4 10 0 6 -5 10 -11 10 -5 0
-7 -4 -4 -10z"/>
<path d="M1480 2433 c8 -3 23 -12 33 -21 9 -8 17 -11 17 -6 0 17 -23 34 -44
33 -15 0 -17 -2 -6 -6z"/>
<path d="M1013 2509 c-18 -5 -35 -14 -39 -21 -5 -7 -3 -8 7 -2 8 5 39 14 69
20 35 8 44 12 25 12 -16 0 -44 -4 -62 -9z"/>
<path d="M2050 2494 c0 -10 5 -26 10 -34 8 -11 9 -7 4 15 -8 37 -14 45 -14 19z"/>
<path d="M1113 2463 c35 -38 34 -67 -3 -105 -32 -32 -34 -53 -2 -25 10 10 21
15 24 12 3 -3 13 4 23 15 20 23 24 85 7 102 -7 7 -9 -2 -7 -28 1 -22 1 -30 -2
-19 -2 11 -7 27 -10 35 -3 8 -5 18 -5 23 1 4 -2 7 -7 7 -5 0 -18 3 -28 7 -13
4 -11 -2 10 -24z m29 -105 c-7 -7 -12 -8 -12 -2 0 14 12 26 19 19 2 -3 -1 -11
-7 -17z"/>
<path d="M1083 2454 c17 -9 27 -23 27 -38 0 -13 -12 -36 -27 -51 -24 -24 -25
-26 -6 -16 26 13 43 41 43 69 0 22 -30 52 -51 52 -8 -1 -2 -8 14 -16z"/>
<path d="M1790 2440 c-9 -6 -5 -12 15 -23 31 -16 45 -62 16 -52 -13 4 -12 2 2
-9 23 -18 22 -35 -3 -29 -16 4 -20 14 -20 44 0 22 -4 39 -8 39 -4 0 -6 -15 -4
-34 3 -27 0 -35 -15 -39 -16 -4 -16 -5 3 -6 11 0 24 -5 30 -10 5 -6 31 -19 59
-31 49 -21 49 -21 30 -1 -10 12 -24 21 -31 21 -8 0 -14 10 -13 23 1 67 -32
125 -61 107z"/>
<path d="M976 2418 c-9 -12 -16 -32 -16 -43 -1 -18 -2 -18 -15 5 -9 15 -14 19
-15 10 0 -9 7 -26 16 -38 9 -13 13 -26 10 -29 -7 -7 53 -73 67 -73 4 0 5 5 2
10 -3 6 2 10 11 10 20 0 124 51 124 61 0 4 -24 -6 -52 -22 -53 -29 -98 -38
-98 -19 0 6 10 10 21 10 17 0 19 3 10 14 -7 8 -8 15 -2 18 6 2 6 17 1 38 -8
33 -11 33 -14 1 -1 -17 -26 -28 -26 -11 0 6 5 20 11 32 6 11 8 22 5 25 -3 3
-10 -6 -17 -20 -8 -19 -9 -34 -1 -57 9 -24 9 -31 -1 -27 -16 5 -21 85 -6 103
6 8 9 17 6 20 -3 3 -12 -5 -21 -18z"/>
<path d="M902 2417 c-6 -7 -17 -34 -23 -60 -9 -31 -16 -43 -22 -34 -18 25 3
-89 26 -146 22 -52 51 -99 32 -52 -42 108 -56 158 -45 169 6 6 10 7 9 1 -6
-25 16 -67 42 -80 15 -8 31 -20 35 -27 12 -19 22 -97 12 -100 -4 -2 -4 -18 1
-36 12 -41 5 -41 -13 1 -9 21 -10 36 -3 45 14 18 -8 15 -27 -4 -13 -12 -20
-52 -18 -94 2 -43 14 -125 19 -134 5 -7 2 -7 -8 1 -21 17 -118 38 -169 37 -25
-1 -182 -5 -350 -9 -168 -4 -310 -11 -316 -16 -6 -5 -12 -39 -13 -77 -1 -37
-4 -96 -7 -132 -3 -36 -3 -62 1 -58 8 8 14 72 14 158 1 56 4 66 19 67 10 1 19
-5 19 -13 0 -8 -4 -14 -9 -14 -4 0 -8 -8 -7 -17 0 -11 3 -13 6 -5 2 6 15 12
28 12 23 0 50 22 39 33 -4 4 16 4 44 0 37 -4 57 -2 69 8 10 8 14 9 10 2 -5 -8
-1 -10 15 -6 44 11 228 10 228 0 0 -7 4 -7 12 1 9 9 14 7 25 -6 11 -15 12 -15
7 -1 -3 10 -1 20 5 24 6 3 11 -1 11 -9 0 -9 5 -16 11 -16 5 0 7 5 3 11 -4 8 1
9 17 3 13 -4 31 -7 39 -7 8 0 18 -5 22 -11 4 -6 11 -7 15 -2 4 5 2 11 -5 13
-18 7 -4 23 21 23 12 0 28 -9 35 -20 8 -13 9 -20 1 -20 -6 0 -9 -6 -6 -12 2
-7 -2 -32 -8 -56 -7 -23 -10 -44 -6 -46 5 -4 6 -42 2 -65 -1 -2 -10 4 -21 14
-11 10 -20 13 -20 7 0 -6 9 -16 20 -22 16 -9 19 -20 18 -83 0 -39 -5 -78 -11
-84 -6 -9 -6 -13 3 -13 9 0 9 -4 -1 -17 -12 -14 -12 -15 0 -9 10 7 12 3 6 -14
-13 -42 -13 -70 1 -70 8 0 14 -7 14 -16 0 -14 3 -14 15 -4 13 11 14 10 9 -4
-3 -9 -1 -16 5 -16 6 0 11 5 11 11 0 5 4 8 9 4 5 -3 12 -1 16 5 10 17 35 11
35 -7 0 -11 3 -14 8 -7 14 20 42 24 49 7 5 -14 8 -14 17 -1 11 14 59 20 50 6
-2 -4 12 -4 32 -1 35 6 36 5 29 -18 -4 -13 -14 -28 -22 -32 -7 -5 -11 -12 -8
-18 4 -5 1 -9 -4 -9 -6 0 -10 -3 -9 -7 4 -20 -15 -40 -33 -36 -20 6 -27 -13
-8 -19 8 -3 6 -9 -4 -20 -9 -8 -13 -18 -10 -22 4 -3 -62 -5 -145 -2 -110 2
-157 7 -169 17 -11 9 -14 10 -9 2 4 -7 2 -13 -3 -13 -6 0 -11 -4 -11 -9 0 -9
122 -23 203 -23 28 1 59 -4 69 -9 14 -7 24 -7 34 2 8 6 17 9 20 7 5 -6 -126
-105 -166 -126 -14 -6 -42 -28 -63 -47 -40 -36 -83 -51 -56 -19 7 9 24 20 37
25 14 5 22 12 19 15 -8 8 -42 -12 -96 -59 -27 -23 -70 -57 -95 -76 -25 -18
-46 -40 -46 -49 0 -13 2 -13 13 3 8 10 19 15 26 11 6 -4 10 -4 9 1 -4 12 69
76 79 70 4 -2 17 -1 28 4 18 7 18 8 2 8 -32 2 -7 21 27 21 20 0 40 8 50 19 10
11 28 21 40 23 11 2 19 7 18 12 -6 15 21 26 35 14 10 -8 12 -7 8 4 -4 9 1 18
9 21 9 4 16 2 16 -4 0 -6 5 -7 11 -3 8 4 9 0 4 -15 -3 -12 -8 -35 -10 -51 -2
-16 -9 -48 -15 -71 -6 -23 -9 -52 -6 -65 4 -14 2 -24 -5 -24 -11 0 -39 -24
-39 -34 0 -2 15 -2 33 1 24 3 39 0 51 -12 13 -14 19 -15 32 -5 8 7 17 10 20 7
8 -7 -31 -63 -65 -96 l-26 -25 30 -8 c39 -10 78 -64 64 -89 -6 -11 -6 -20 1
-24 11 -7 2 -34 -19 -55 -13 -13 -12 -15 7 -18 11 -2 23 -9 25 -15 2 -7 2 -2
0 11 -2 12 1 22 7 22 6 0 9 4 6 8 -3 5 -1 35 3 68 10 66 8 72 -14 54 -12 -10
-15 -9 -16 6 -1 11 -1 22 0 27 1 4 -13 10 -29 14 -31 6 -36 23 -10 31 7 3 10
0 6 -7 -4 -6 -3 -11 3 -11 5 0 13 5 16 10 3 6 2 10 -4 10 -5 0 1 19 14 41 18
32 20 45 12 54 -7 7 -18 10 -24 8 -20 -8 21 76 51 104 27 25 34 43 15 43 -14
0 -2 60 16 79 13 14 35 8 35 -10 0 -6 -11 -21 -25 -34 -15 -13 -22 -26 -17
-29 5 -3 21 7 34 23 27 29 24 51 -9 78 -9 7 -10 13 -4 17 5 4 21 -10 35 -30
22 -33 24 -39 10 -58 -7 -11 -14 -28 -14 -38 0 -20 -20 -25 -20 -5 0 15 -39
-33 -40 -49 0 -7 -9 -14 -21 -17 -23 -6 -21 -31 2 -33 20 -1 67 -23 52 -23 -8
-1 -13 -17 -13 -45 0 -57 -10 -107 -21 -101 -4 3 -6 12 -3 19 3 8 1 16 -4 20
-14 9 -11 -28 5 -46 8 -9 12 -25 9 -35 -3 -10 -8 -61 -11 -113 -4 -52 -11
-100 -16 -107 -7 -7 -6 -12 2 -15 9 -3 9 -9 0 -25 -7 -14 -8 -24 -1 -28 6 -3
7 -18 4 -32 -5 -18 -3 -24 4 -19 7 4 12 21 11 39 0 34 6 110 15 192 4 28 6 67
6 87 -1 20 4 40 11 43 7 5 7 10 1 14 -5 4 -7 34 -2 76 3 39 9 63 12 55 11 -26
19 -102 11 -97 -5 3 -9 -43 -11 -101 -2 -71 -8 -112 -18 -126 -8 -11 -14 -28
-14 -38 0 -21 37 -33 55 -18 18 15 20 59 2 66 -19 7 -20 107 -3 159 12 35 13
60 6 127 -10 83 -5 184 10 193 5 3 10 -3 12 -12 2 -10 4 -213 3 -450 l0 -433
24 0 c18 0 21 3 13 12 -11 14 -11 7 -15 423 -3 252 -1 292 13 302 13 11 13 12
-4 13 -16 0 -18 7 -13 58 2 31 0 68 -6 82 -6 14 -9 31 -8 38 1 7 -9 34 -23 59
-14 25 -26 54 -26 65 0 23 75 103 88 94 6 -3 13 6 16 19 4 14 11 23 16 20 6
-3 10 1 10 10 0 21 69 87 83 78 5 -3 7 -1 3 5 -3 6 -2 13 4 17 15 9 25 -24 11
-38 -6 -6 -11 -15 -11 -20 0 -14 30 20 30 35 1 7 10 -3 20 -23 11 -20 27 -39
36 -43 20 -8 23 -6 27 20 1 10 6 24 10 30 4 7 0 17 -8 24 -18 15 -18 21 -3 57
14 34 17 74 5 66 -5 -3 -7 -14 -4 -24 6 -23 -11 -26 -20 -3 -3 8 4 25 17 40
13 13 19 24 14 24 -5 0 -19 -11 -31 -23 -15 -16 -19 -28 -12 -38 5 -8 8 -25 8
-39 0 -23 -1 -23 -9 -5 -4 12 -15 26 -23 33 -9 7 -19 32 -22 55 -4 23 -11 50
-16 59 -11 20 -1 50 15 45 6 -2 10 -13 8 -25 -3 -18 3 -23 37 -28 23 -4 41
-10 41 -13 0 -4 9 -8 20 -9 11 -1 29 -3 39 -4 11 -1 17 -6 15 -10 -3 -4 -1 -8
5 -8 5 0 11 10 13 23 2 16 10 22 27 22 14 0 26 6 28 12 3 7 11 9 19 6 10 -3
12 0 8 10 -5 14 -10 14 -44 2 -80 -28 -200 -31 -200 -4 0 6 9 8 23 4 17 -5 19
-4 7 4 -12 9 -11 11 8 11 13 0 21 -4 18 -9 -4 -6 5 -6 21 -1 16 5 61 16 101
25 40 9 85 23 100 31 15 7 35 14 44 14 26 0 12 24 -22 37 -26 10 -29 9 -32
-11 -3 -18 -12 -22 -58 -27 -30 -3 -66 -10 -80 -16 -38 -16 -83 3 -76 31 3 11
6 24 6 29 0 4 9 7 20 7 13 0 22 -9 26 -25 3 -14 11 -25 18 -25 18 0 56 30 56
43 0 7 -7 4 -14 -6 -14 -18 -26 -11 -39 26 -4 9 -12 17 -20 17 -17 0 -37 56
-37 103 0 20 -4 38 -9 41 -10 6 -6 -78 4 -95 5 -7 1 -10 -10 -7 -15 3 -17 21
-21 141 -3 76 -1 137 4 137 5 0 7 11 4 25 -2 15 0 25 7 25 6 0 11 -7 11 -15 0
-8 5 -15 10 -15 15 0 7 50 -10 60 -10 6 -18 1 -27 -17 -7 -14 -11 -29 -8 -33
2 -4 -5 -19 -18 -32 -27 -31 -36 -58 -13 -39 13 11 15 7 15 -36 -1 -36 -13
-72 -47 -143 -26 -52 -47 -101 -48 -108 -2 -8 -6 -17 -10 -20 -4 -4 -4 18 -1
48 3 30 2 47 -2 37 -6 -17 -8 -18 -20 -3 -8 9 -22 14 -32 11 -14 -5 -20 4 -33
47 -9 32 -11 54 -6 56 6 2 10 8 10 13 0 4 -6 6 -14 3 -11 -4 -14 1 -12 20 2
15 -1 29 -5 32 -5 3 -9 12 -9 20 0 8 4 13 8 10 4 -2 14 -1 22 4 11 7 8 10 -12
15 -17 5 -25 12 -21 21 7 19 23 18 23 -1 0 -8 5 -15 11 -15 5 0 7 5 4 10 -3 6
4 10 17 10 13 0 18 3 12 8 -13 8 -25 49 -15 55 3 2 1 3 -5 1 -13 -3 -34 15
-34 28 0 5 28 6 63 3 34 -4 70 -7 80 -8 9 -1 17 -4 17 -8 0 -11 -28 -19 -44
-13 -8 3 -22 -5 -31 -18 l-17 -23 5 23 c3 12 1 20 -4 16 -12 -7 -12 -44 1 -44
5 0 14 9 20 20 6 11 15 20 21 20 5 0 2 -11 -7 -25 -10 -15 -12 -25 -5 -25 6 0
18 11 27 25 12 18 23 24 38 20 11 -2 15 -2 8 1 -6 3 -9 10 -6 15 3 6 16 3 31
-6 14 -10 22 -12 18 -5 -4 6 0 19 8 28 13 15 32 80 19 68 -3 -3 -10 1 -16 10
-9 12 -11 6 -8 -27 3 -32 1 -40 -8 -34 -8 5 -11 4 -7 -2 9 -14 -65 -8 -93 7
-12 7 -31 10 -41 7 -10 -3 -19 -1 -19 4 0 6 -6 9 -12 8 -30 -4 -38 3 -38 30 0
23 6 30 26 35 14 4 40 16 57 28 40 26 117 117 117 137 0 9 -9 0 -21 -19 -39
-66 -153 -146 -170 -119 -4 7 -5 17 -2 22 3 5 -4 6 -15 3 -24 -8 -72 2 -72 16
0 5 5 6 10 3 19 -12 10 2 -30 45 -41 44 -54 73 -22 49 16 -13 16 -13 0 7 -10
11 -18 29 -19 40 0 12 -4 8 -10 -11 -10 -34 -3 -65 19 -81 13 -9 13 -12 -2
-17 -12 -5 -20 1 -27 20 -11 30 -4 111 13 130 6 7 8 13 5 13 -2 0 -9 -6 -15
-13z m63 -178 c-3 -4 3 -17 15 -29 13 -13 15 -20 7 -20 -19 0 -37 21 -38 45
-1 16 -2 16 -6 3 -2 -10 -10 -15 -19 -11 -13 5 -12 8 2 24 13 14 20 16 30 8 8
-6 11 -15 9 -20z m66 -69 c11 0 12 -63 0 -75 -14 -16 -23 -65 -11 -65 5 0 10
7 10 15 0 8 5 15 10 15 13 0 13 -22 -1 -57 -15 -35 -18 -64 -7 -57 4 3 5 -8 2
-23 -5 -25 3 -63 36 -178 31 -107 50 -133 50 -69 0 24 4 34 13 32 11 -4 16
-26 32 -158 8 -60 52 -167 78 -189 14 -11 17 -11 17 0 1 17 23 -19 26 -41 0
-8 9 -32 18 -52 19 -43 19 -48 7 -48 -11 0 -51 80 -51 103 0 9 -3 17 -8 17
-10 0 -114 -90 -132 -115 -24 -33 -113 -125 -117 -121 -2 2 6 21 19 41 12 21
23 46 23 55 2 23 85 121 97 114 5 -3 15 0 23 6 8 6 20 8 27 4 10 -5 11 -4 1 7
-10 10 -16 10 -25 1 -16 -16 -25 -15 -25 3 0 8 4 12 8 10 7 -5 22 21 24 40 0
6 4 16 8 22 10 16 -6 45 -41 75 -26 22 -47 73 -87 216 -4 12 -11 20 -16 17
-13 -9 -11 -45 3 -45 6 0 9 -2 6 -5 -11 -11 -36 7 -42 30 -3 13 -9 31 -13 42
-6 16 -5 17 13 3 15 -11 14 -9 -3 10 -38 43 -55 100 -61 203 -3 53 -9 100 -13
103 -12 7 -11 24 1 24 6 0 10 -6 10 -12 0 -7 7 -25 14 -40 11 -20 12 -36 5
-62 -6 -22 -6 -43 1 -61 6 -15 8 -31 5 -35 -3 -5 8 -24 25 -43 34 -40 37 -49
13 -40 -15 5 -16 3 -5 -8 9 -10 15 -10 23 -2 9 9 7 21 -5 48 -24 50 -38 154
-26 194 5 17 6 61 3 98 -5 60 -4 66 11 60 10 -4 22 -7 27 -7z m59 -176 c0 -8
-4 -12 -10 -9 -5 3 -10 10 -10 16 0 5 5 9 10 9 6 0 10 -7 10 -16z m-110 -60
c0 -8 -5 -12 -10 -9 -6 4 -8 11 -5 16 9 14 15 11 15 -7z m-160 -57 c8 -4 34
-11 57 -17 l43 -11 -5 -42 c-2 -23 -7 -121 -10 -217 -4 -96 -9 -185 -11 -197
-4 -23 -3 -23 98 -24 57 -1 109 -1 116 0 19 3 15 -7 -31 -73 -42 -59 -92 -165
-92 -196 -1 -34 -19 -87 -42 -124 -20 -30 -24 -48 -20 -78 3 -21 1 -41 -4 -44
-6 -3 -24 -30 -40 -60 -17 -30 -35 -54 -39 -54 -18 0 -20 77 -5 135 9 33 18
71 20 85 5 42 9 52 30 75 12 13 49 70 85 127 35 56 76 118 92 136 15 18 28 37
28 42 0 6 -68 10 -171 10 l-172 0 6 68 c4 37 9 141 13 232 4 91 10 167 15 170
4 3 4 12 -1 19 -4 8 -6 19 -4 25 3 8 -34 9 -128 4 -239 -12 -568 -16 -568 -7
0 5 60 10 133 10 72 1 222 5 332 9 204 7 249 6 275 -3z m-663 -54 c3 -7 -4 -9
-16 -6 -12 3 -18 9 -15 15 7 11 26 6 31 -9z m1135 -57 c-3 -73 -3 -74 27 -92
33 -19 42 -38 14 -27 -9 4 -30 22 -46 40 -23 26 -32 31 -38 21 -6 -8 -9 -2 -9
18 0 17 6 37 14 43 8 7 18 26 21 42 12 53 20 30 17 -45z m-342 14 c0 -11 4
-20 9 -20 6 0 14 -19 18 -42 7 -32 17 -48 40 -63 23 -14 35 -32 43 -65 6 -25
16 -50 22 -57 6 -7 8 -19 5 -27 -4 -10 -1 -13 9 -9 16 6 19 -7 4 -25 -7 -9 -7
-9 2 -2 8 6 20 0 39 -20 25 -25 26 -31 16 -54 -14 -30 -27 -29 -43 2 -11 23
-26 20 -18 -3 4 -9 -14 -12 -78 -10 -115 3 -109 2 -104 31 7 37 20 290 18 342
-1 23 3 42 8 42 6 0 10 -9 10 -20z m322 -104 c19 -4 28 -14 33 -36 4 -16 4
-34 0 -40 -4 -6 -1 -17 5 -25 10 -12 7 -17 -16 -25 -18 -7 -31 -7 -37 -1 -7 7
-2 14 14 20 13 5 18 10 10 10 -8 1 -23 -6 -33 -15 -16 -16 -18 -15 -27 7 -5
13 -7 27 -4 31 2 4 -3 5 -12 2 -14 -6 -15 -1 -9 32 8 47 22 68 38 56 6 -5 23
-12 38 -16z m-62 -137 c0 -14 9 -54 21 -88 24 -75 20 -89 -10 -28 -22 44 -41
186 -21 157 5 -8 10 -27 10 -41z m247 15 c-3 -3 -12 -4 -19 -1 -8 3 -5 6 6 6
11 1 17 -2 13 -5z m-117 -14 c0 -5 -12 -10 -27 -10 -22 0 -25 2 -13 10 20 13
40 13 40 0z m73 -77 c-7 -2 -21 -2 -30 0 -10 3 -4 5 12 5 17 0 24 -2 18 -5z
m-343 -137 c0 -2 -7 -9 -15 -16 -13 -11 -14 -10 -9 4 5 14 24 23 24 12z m-216
-301 c-7 -16 -24 -21 -24 -6 0 8 7 13 27 20 1 1 0 -6 -3 -14z m146 -198 c0
-13 -7 -32 -15 -43 -12 -16 -16 -17 -24 -5 -9 15 -5 37 12 59 15 19 27 14 27
-11z m15 -437 c8 -13 -14 -42 -25 -35 -5 3 -8 14 -7 25 1 21 21 27 32 10z"/>
<path d="M1106 1600 c3 -19 10 -42 16 -50 6 -10 7 -3 2 20 -3 19 -10 42 -16
50 -6 10 -7 3 -2 -20z"/>
<path d="M1203 1354 c0 -16 13 -19 21 -5 3 5 0 11 -7 14 -8 3 -14 -1 -14 -9z"/>
<path d="M1136 1275 c-11 -8 -15 -15 -9 -15 6 0 16 7 23 15 16 19 11 19 -14 0z"/>
<path d="M807 1853 c-10 -9 -8 -68 2 -97 6 -13 6 -26 1 -28 -4 -2 -11 -54 -14
-116 -5 -96 -4 -111 8 -100 10 9 11 17 3 26 -7 9 -6 18 6 30 16 15 17 15 17 0
0 -9 6 -18 13 -21 9 -3 9 -7 -2 -20 -11 -15 -11 -17 1 -17 8 0 15 6 15 13 0 7
3 25 7 41 4 17 3 25 -3 22 -5 -4 -12 -2 -16 4 -4 6 -10 8 -15 5 -19 -11 -22
55 -5 98 5 11 2 17 -6 17 -9 1 -8 4 4 11 9 5 17 17 17 25 0 9 -5 12 -12 8 -7
-4 -10 -3 -5 1 4 5 17 10 30 12 16 3 19 1 10 -8 -8 -8 -9 -16 -1 -29 14 -22 3
-54 -17 -46 -19 7 -19 -1 -2 -19 22 -21 43 29 41 98 -1 31 3 57 8 57 5 0 6 5
3 10 -10 17 -25 11 -25 -9 0 -11 -6 -23 -12 -27 -21 -13 -48 -11 -48 2 0 8 6
11 16 7 17 -6 34 12 34 37 -1 12 -4 11 -15 -4 -15 -20 -40 -12 -31 10 6 15 3
18 -7 7z m41 -288 c-3 -3 -9 2 -12 12 -6 14 -5 15 5 6 7 -7 10 -15 7 -18z"/>
<path d="M820 1626 c0 -3 9 -10 20 -16 11 -6 20 -8 20 -6 0 3 -9 10 -20 16
-11 6 -20 8 -20 6z"/>
<path d="M871 1482 c-2 -15 -4 -43 -5 -62 0 -19 -5 -39 -11 -43 -6 -5 -4 -7 5
-4 9 2 15 16 16 33 1 16 5 46 9 67 4 20 3 37 -1 37 -5 0 -11 -12 -13 -28z"/>
<path d="M830 1487 c0 -9 5 -17 11 -17 5 0 7 -4 4 -10 -3 -5 -1 -10 4 -10 15
0 13 11 -4 34 -13 17 -15 18 -15 3z"/>
<path d="M782 1423 c1 -10 -1 -24 -5 -30 -5 -9 -3 -13 7 -13 9 0 15 3 14 8 0
4 2 15 7 25 7 17 8 17 28 0 20 -17 20 -17 14 0 -4 10 -7 21 -7 23 0 2 -14 4
-31 4 -23 0 -30 -4 -27 -17z"/>
<path d="M778 1363 c6 -2 18 -2 25 0 6 3 1 5 -13 5 -14 0 -19 -2 -12 -5z"/>
<path d="M931 1041 c-12 -16 -21 -35 -21 -43 0 -8 -11 -25 -25 -38 -14 -13
-25 -28 -25 -34 0 -24 72 71 90 119 13 33 6 32 -19 -4z"/>
<path d="M874 989 c-19 -22 -19 -22 4 -10 12 6 22 16 22 21 0 15 -5 12 -26
-11z"/>
<path d="M884 912 c4 -7 1 -12 -9 -12 -9 0 -14 -4 -11 -9 4 -5 1 -11 -5 -13
-6 -2 -13 -15 -15 -28 -2 -14 -6 -36 -9 -50 -4 -21 -3 -20 9 5 8 17 12 33 10
37 -2 3 7 15 21 26 27 22 31 37 13 48 -7 4 -8 3 -4 -4z"/>
<path d="M1072 1436 c7 -8 15 -12 17 -11 5 6 -10 25 -20 25 -5 0 -4 -6 3 -14z"/>
<path d="M975 810 c-3 -5 -1 -10 4 -10 6 0 11 5 11 10 0 6 -2 10 -4 10 -3 0
-8 -4 -11 -10z"/>
<path d="M1750 2415 c12 -14 3 -65 -11 -65 -5 0 -7 12 -5 28 2 15 1 20 -1 11
-5 -21 -56 -45 -61 -30 -6 19 -22 12 -22 -10 0 -15 4 -19 16 -15 9 4 22 2 28
-3 8 -6 23 -4 44 6 25 12 32 22 32 44 0 16 1 32 3 36 1 3 -6 7 -16 9 -14 2
-16 -1 -7 -11z"/>
<path d="M1226 2355 c-4 -11 -14 -35 -22 -52 -7 -18 -12 -33 -10 -33 11 0 47
72 43 87 -3 16 -5 16 -11 -2z"/>
<path d="M1176 2347 c3 -9 1 -24 -6 -32 -7 -8 -8 -15 -2 -15 5 0 15 7 22 16
11 12 10 18 -4 32 -16 16 -17 16 -10 -1z"/>
<path d="M1863 2338 c0 -13 1 -17 4 -10 3 6 11 12 19 12 9 0 13 -4 10 -9 -3
-4 1 -17 9 -27 13 -17 14 -18 15 -1 0 17 -33 57 -48 57 -4 0 -8 -10 -9 -22z"/>
<path d="M1334 2318 c-4 -6 -3 -8 4 -4 6 3 13 2 17 -3 7 -13 65 -54 65 -47 0
7 -42 46 -62 57 -11 6 -19 5 -24 -3z"/>
<path d="M1657 2312 c-5 -7 -6 -21 -2 -31 3 -11 -1 -24 -12 -32 -15 -13 -16
-12 -11 7 3 12 2 28 -3 35 -6 10 -9 11 -9 2 0 -7 -11 -13 -24 -13 -33 0 -57
-10 -50 -21 3 -5 -5 -9 -18 -10 l-23 0 23 -10 c26 -10 46 -3 37 12 -4 5 0 9 9
9 8 0 21 3 30 6 11 4 16 0 16 -12 0 -9 -3 -15 -6 -11 -4 3 -13 0 -20 -8 -10
-10 -43 -13 -127 -12 -71 1 -114 -2 -114 -8 0 -5 -1 -32 -3 -60 l-2 -50 -8 40
c-4 22 -6 43 -3 48 2 4 -2 7 -9 7 -8 0 -26 24 -40 53 -18 34 -27 45 -27 31 -1
-11 10 -36 24 -54 27 -37 58 -127 49 -141 -3 -5 -2 -14 2 -20 10 -17 35 59 35
105 -1 35 1 38 22 32 12 -3 30 -6 40 -6 12 0 17 -8 17 -30 0 -16 5 -30 11 -30
7 0 9 11 6 29 l-6 28 73 6 c46 3 88 13 112 26 52 28 77 48 71 58 -3 4 9 9 26
10 17 2 34 -3 38 -9 4 -6 22 -12 40 -13 l33 -3 -39 24 c-49 29 -85 30 -116 3
-13 -11 -17 -17 -9 -13 13 7 13 6 0 -11 -14 -17 -15 -16 -20 16 -3 22 -8 30
-13 21z"/>
<path d="M2071 2294 c0 -11 3 -14 6 -6 3 7 2 16 -1 19 -3 4 -6 -2 -5 -13z"/>
<path d="M1090 2269 c-30 -16 -49 -29 -42 -29 21 0 76 26 91 43 17 21 18 21
-49 -14z"/>
<path d="M1732 2274 c-11 -12 -10 -17 2 -30 9 -8 19 -27 22 -41 5 -18 9 -21
15 -11 7 10 9 10 9 -3 0 -9 7 -30 15 -46 20 -40 24 -104 8 -110 -8 -3 -13 5
-13 22 0 30 -26 85 -40 85 -16 0 -12 -22 15 -71 13 -26 21 -49 18 -53 -10 -9
-35 -7 -29 3 3 5 -1 14 -9 21 -7 6 -21 31 -31 55 -10 28 -29 53 -53 69 -33 23
-40 24 -86 14 -40 -9 -46 -12 -30 -19 20 -8 19 -9 -24 -13 -14 -2 -27 -8 -29
-14 -2 -7 -10 -12 -19 -12 -8 0 -28 -9 -43 -20 -26 -18 -30 -19 -44 -5 -14 14
-16 13 -22 -10 -3 -14 -1 -31 5 -39 9 -10 9 -15 1 -18 -13 -4 53 -76 93 -103
14 -9 30 -14 36 -11 5 3 21 2 36 -4 17 -7 32 -7 43 0 15 8 14 9 -5 10 -12 0
-25 5 -28 10 -4 6 -10 8 -15 5 -5 -3 -22 1 -38 9 -16 8 -32 13 -34 10 -3 -2
-11 3 -18 11 -15 18 -15 18 93 -9 31 -8 55 -10 51 -5 -3 5 4 9 14 9 11 0 25 7
32 15 7 9 18 14 25 11 6 -2 12 2 12 10 0 7 -6 15 -14 18 -7 3 -13 1 -13 -4 0
-6 -7 -10 -16 -10 -9 0 -12 -5 -8 -12 5 -8 -10 -9 -57 -4 -35 4 -78 9 -95 11
-38 4 -76 23 -69 35 3 5 1 11 -5 15 -17 11 -11 23 9 18 10 -3 33 3 50 12 17 8
35 13 40 10 5 -2 11 1 14 8 2 7 29 21 58 31 30 10 60 24 67 29 9 7 17 6 25 -2
9 -10 8 -11 -6 -5 -13 5 -16 2 -11 -9 3 -9 11 -14 18 -11 6 2 20 -3 31 -11 19
-16 19 -16 -5 -9 l-25 6 23 -19 c12 -11 22 -23 22 -26 0 -3 12 -18 26 -32 27
-27 28 -43 6 -113 -10 -31 -9 -33 9 -27 20 7 20 6 2 -21 -11 -17 -13 -25 -4
-20 15 10 41 67 41 91 0 9 -4 14 -9 11 -4 -3 -6 6 -3 20 3 17 9 23 19 20 9 -4
17 1 20 14 8 28 20 25 27 -7 7 -32 1 -128 -9 -158 -6 -15 -3 -14 11 5 10 14
21 27 26 30 21 15 35 81 34 155 -2 84 -11 95 -46 58 -13 -14 -13 -15 3 -10 20
7 19 9 22 -60 2 -29 -1 -53 -6 -53 -6 0 -6 -7 0 -19 8 -13 6 -23 -5 -37 -15
-18 -15 -18 -10 5 6 29 -10 122 -31 179 -9 23 -13 45 -10 48 3 4 9 -5 13 -20
7 -28 24 -36 24 -11 0 18 -60 105 -73 105 -5 0 -7 7 -3 15 3 9 0 15 -10 15
-10 0 -14 6 -11 15 8 20 -5 26 -21 9z m-232 -350 c0 -2 -9 0 -20 6 -11 6 -20
13 -20 16 0 2 9 0 20 -6 11 -6 20 -13 20 -16z m264 1 c-4 -8 -8 -15 -10 -15
-2 0 -4 7 -4 15 0 8 4 15 10 15 5 0 7 -7 4 -15z"/>
<path d="M1129 2255 c-1 -3 -2 -10 -3 -15 0 -6 -8 -15 -16 -20 -8 -5 -12 -11
-9 -14 2 -3 18 6 34 19 19 16 23 23 11 18 -13 -4 -17 -3 -12 5 4 7 5 12 2 12
-3 0 -7 -2 -7 -5z"/>
<path d="M1316 2251 c-5 -8 -2 -20 8 -29 17 -17 19 -9 7 22 -6 15 -10 16 -15
7z"/>
<path d="M1420 2240 c0 -5 5 -10 11 -10 5 0 7 5 4 10 -3 6 -8 10 -11 10 -2 0
-4 -4 -4 -10z"/>
<path d="M1692 2234 c-7 -8 -8 -14 -3 -14 10 0 25 19 20 25 -2 1 -10 -3 -17
-11z"/>
<path d="M1994 2213 c5 -9 0 -13 -14 -13 -11 0 -23 -7 -26 -15 -4 -8 -11 -12
-17 -8 -6 3 -7 1 -3 -6 4 -6 0 -14 -11 -19 -14 -5 -18 -19 -19 -57 l-2 -50 13
37 c36 100 91 124 130 58 16 -28 20 -51 19 -117 0 -78 -3 -88 -48 -177 -26
-52 -54 -97 -63 -100 -11 -5 -24 3 -39 21 l-21 27 -1 -24 c0 -14 -6 -59 -12
-100 -24 -157 -24 -180 -5 -180 10 0 32 -11 49 -23 17 -13 43 -30 58 -38 15
-8 66 -52 113 -98 69 -66 108 -94 188 -135 153 -78 244 -140 330 -224 69 -67
87 -92 139 -197 33 -66 66 -140 74 -165 8 -26 35 -68 64 -100 59 -64 58 -61
40 -122 -5 -17 -5 -28 1 -28 5 0 9 9 9 20 0 11 5 29 12 39 10 16 7 25 -18 56
-16 20 -35 47 -41 59 -7 11 -18 20 -23 18 -12 -3 -17 10 -23 61 -3 21 -11 46
-19 55 -8 9 -20 31 -27 47 -7 17 -19 41 -26 55 -7 14 -10 31 -7 39 2 8 0 11
-5 8 -5 -3 -18 10 -28 29 -15 27 -16 37 -6 47 10 9 15 8 25 -6 7 -9 17 -17 23
-17 16 0 98 -87 104 -112 7 -22 7 -22 8 -1 1 12 -6 29 -15 38 -9 9 -14 18 -11
21 11 11 41 -49 41 -82 1 -19 4 -34 7 -34 4 0 10 -19 13 -43 4 -27 17 -55 36
-75 l29 -32 -1 -191 c0 -104 2 -193 6 -196 3 -4 6 85 6 197 0 201 0 204 -24
229 -16 17 -29 53 -41 106 -9 44 -21 87 -26 96 -14 26 -91 106 -83 87 3 -11 1
-18 -5 -18 -12 0 -26 44 -17 58 3 5 -6 22 -19 38 -18 21 -25 24 -25 13 0 -9 7
-19 15 -23 17 -6 20 -42 5 -51 -5 -3 -10 -2 -10 4 0 19 -125 143 -165 163 -38
19 -38 18 23 -39 34 -32 62 -64 62 -70 0 -6 9 -15 20 -18 19 -6 26 -25 15 -37
-10 -9 -85 74 -78 86 3 6 3 8 -2 4 -5 -5 -32 14 -61 42 -29 27 -73 59 -98 72
-25 12 -46 26 -46 30 0 4 -7 8 -15 8 -8 0 -15 4 -15 9 0 17 192 1 220 -18 44
-31 70 -42 70 -31 0 5 -6 10 -14 10 -8 0 -27 11 -43 24 -28 24 -73 34 -155 35
-30 1 -35 4 -31 20 3 14 12 17 38 14 24 -2 35 1 39 13 4 9 4 19 1 22 -3 3 -5
1 -5 -4 0 -6 -15 -8 -34 -6 -30 3 -35 1 -44 -28 -10 -28 -15 -31 -44 -28 -23
2 -34 9 -36 22 -3 14 0 17 13 13 9 -4 14 -3 10 3 -3 6 -2 10 3 10 6 0 13 -8
17 -17 6 -17 7 -17 21 1 8 11 14 22 14 25 0 5 -41 6 -71 2 -3 -1 -11 -11 -17
-23 -10 -21 -10 -21 -9 10 2 39 9 42 114 38 44 -2 87 0 95 5 12 8 -128 15
-194 10 -16 -1 -28 2 -28 8 0 24 -69 51 -146 56 -72 4 -81 7 -106 35 -23 25
-102 79 -184 126 -15 9 -19 21 -17 65 1 30 3 65 6 79 2 14 5 37 5 53 2 21 7
27 25 27 42 1 67 26 106 108 46 94 65 183 55 250 -5 26 -7 54 -5 62 2 8 -1 12
-5 7 -4 -4 -16 10 -26 30 -10 21 -16 29 -13 18 5 -17 3 -17 -21 5 -15 14 -24
19 -20 13z m240 -905 c-6 -10 -5 -10 7 -1 13 10 22 8 49 -12 18 -13 38 -26 44
-28 8 -3 7 -9 -1 -18 -7 -7 -13 -21 -13 -31 0 -21 -1 -21 -34 -6 -23 10 -25
16 -21 50 3 26 1 37 -5 33 -6 -4 -8 -16 -4 -27 4 -15 3 -18 -7 -13 -9 6 -11 3
-6 -9 5 -12 3 -16 -5 -13 -7 2 -13 16 -13 30 1 25 0 25 -17 10 -17 -15 -18
-15 -18 3 0 11 -3 15 -8 8 -5 -7 -15 -3 -32 12 l-25 24 58 0 c44 0 56 -3 51
-12z m626 -480 c0 -5 -7 -3 -15 6 -8 8 -15 18 -15 22 0 3 7 1 15 -6 8 -7 15
-17 15 -22z"/>
<path d="M1180 2191 c0 -4 25 -8 55 -9 30 -1 55 2 55 6 0 5 -25 9 -55 9 -30 0
-55 -3 -55 -6z"/>
<path d="M1670 2192 c0 -4 5 -13 11 -19 13 -13 59 3 59 19 0 5 -8 5 -17 -1
-11 -6 -24 -6 -35 0 -10 5 -18 6 -18 1z"/>
<path d="M930 2176 c0 -9 5 -16 10 -16 6 0 10 4 10 9 0 6 -4 13 -10 16 -5 3
-10 -1 -10 -9z"/>
<path d="M1980 2150 c0 -5 9 -14 20 -20 32 -17 52 -66 46 -113 -5 -36 -5 -39
5 -17 21 49 -16 160 -53 160 -10 0 -18 -4 -18 -10z"/>
<path d="M936 2135 c4 -8 8 -15 10 -15 2 0 4 7 4 15 0 8 -4 15 -10 15 -5 0 -7
-7 -4 -15z"/>
<path d="M1390 2130 c0 -5 5 -10 10 -10 6 0 10 5 10 10 0 6 -4 10 -10 10 -5 0
-10 -4 -10 -10z"/>
<path d="M1955 2125 c-4 -11 -11 -28 -16 -38 -11 -21 -1 -46 11 -27 11 18 72
-38 65 -60 -3 -9 -1 -28 4 -41 8 -20 10 -17 10 24 1 30 -5 54 -14 63 -8 9 -15
20 -15 27 0 6 7 2 15 -9 14 -17 14 -15 0 14 -8 17 -18 32 -21 32 -3 0 -3 -4 0
-9 3 -5 -3 -11 -15 -14 -16 -4 -18 -3 -9 8 8 10 8 19 1 32 -9 17 -10 17 -16
-2z"/>
<path d="M1221 2103 c6 -7 15 -13 20 -13 5 0 6 6 3 13 -3 8 -11 14 -19 14 -11
0 -12 -4 -4 -14z"/>
<path d="M1542 2103 c-12 -2 -20 -8 -17 -13 3 -4 -11 -20 -31 -35 -19 -15 -33
-29 -30 -32 10 -10 76 -21 70 -11 -4 6 2 8 15 3 13 -4 28 -1 36 5 19 16 19 30
0 30 -8 0 -15 5 -15 10 0 14 13 12 35 -4 19 -14 19 -15 0 -37 l-20 -22 22 11
c12 7 23 17 26 24 3 10 7 10 21 -1 9 -8 19 -11 23 -7 3 3 15 -1 25 -11 16 -14
18 -14 18 0 0 9 -10 19 -21 22 -12 4 -37 23 -56 41 -33 33 -48 37 -101 27z
m75 -30 c10 -10 13 -14 6 -9 -7 5 -28 12 -46 16 -29 7 -30 8 -6 9 15 1 35 -7
46 -16z m-61 -22 c-1 -9 6 -15 16 -15 10 1 15 -2 12 -7 -9 -15 -32 -10 -43 9
-10 16 -10 16 -11 0 0 -20 -15 -24 -25 -7 -8 11 20 36 40 36 7 0 12 -7 11 -16z"/>
<path d="M1449 2049 c-23 -19 -23 -20 -2 -10 12 6 25 16 28 21 10 16 -1 12
-26 -11z"/>
<path d="M1920 2026 c0 0 -4 -16 -9 -34 -11 -36 -9 -39 14 -16 15 15 17 15 35
-1 25 -22 25 -27 1 -53 -22 -26 -31 -28 -31 -6 0 9 9 18 20 21 28 8 15 21 -15
16 -20 -4 -24 -10 -19 -27 3 -12 0 -34 -5 -49 -6 -15 -8 -34 -5 -42 7 -16 44
-21 44 -6 0 16 50 65 57 57 4 -4 -5 -18 -20 -32 -32 -30 -35 -39 -6 -22 22 14
64 86 55 96 -3 3 -6 0 -6 -7 0 -7 -4 -10 -9 -7 -4 3 -29 -15 -53 -39 -42 -41
-58 -47 -58 -22 0 6 3 8 6 4 3 -3 26 17 50 44 l44 50 -25 33 c-14 19 -35 36
-45 39 -11 3 -20 4 -20 3z"/>
<path d="M1187 1984 c-15 -13 -24 -24 -19 -24 14 0 58 37 52 43 -3 3 -18 -6
-33 -19z"/>
<path d="M1360 1960 c0 -24 3 -40 7 -37 3 4 14 0 24 -9 16 -15 16 -13 2 28
-21 63 -33 69 -33 18z"/>
<path d="M1670 1955 c-7 -8 -19 -15 -27 -15 -8 0 -21 -7 -29 -15 -18 -17 -11
-19 16 -5 14 8 21 6 28 -6 9 -16 11 -16 33 0 l24 17 -27 -7 c-16 -3 -28 -3
-28 1 0 11 27 34 34 28 3 -4 6 -1 6 5 0 17 -15 15 -30 -3z"/>
<path d="M1800 1949 c0 -5 5 -7 10 -4 6 3 10 8 10 11 0 2 -4 4 -10 4 -5 0 -10
-5 -10 -11z"/>
<path d="M1160 1934 c-16 -8 -19 -14 -9 -14 8 0 24 7 35 15 24 18 7 18 -26 -1z"/>
<path d="M1108 1923 c7 -3 16 -2 19 1 4 3 -2 6 -13 5 -11 0 -14 -3 -6 -6z"/>
<path d="M1187 1884 c-15 -13 -36 -24 -46 -24 -11 0 -21 -6 -24 -14 -5 -11 0
-12 24 -3 34 13 86 53 79 60 -3 3 -18 -6 -33 -19z"/>
<path d="M1362 1893 c-13 -24 -16 -89 -4 -97 4 -2 7 7 7 22 -1 15 3 35 8 45 4
10 7 26 5 35 -3 14 -6 14 -16 -5z"/>
<path d="M1443 1887 c12 -13 24 -22 26 -20 2 2 11 -3 20 -9 9 -7 3 2 -13 20
-17 18 -35 32 -43 32 -7 0 -3 -9 10 -23z"/>
<path d="M1686 1884 c-4 -9 -9 -14 -13 -11 -3 4 -12 2 -20 -4 -10 -9 -13 -8
-13 4 0 14 -5 15 -45 3 -25 -8 -45 -10 -45 -6 0 5 8 11 18 13 9 3 5 4 -10 4
-16 -1 -28 -4 -28 -7 0 -9 66 -66 86 -74 17 -7 17 -6 -1 14 -14 15 -15 20 -4
21 8 1 3 5 -11 9 -21 7 -21 8 -5 9 11 0 26 -3 34 -8 10 -7 19 -4 29 7 13 16
13 16 8 0 -3 -10 -2 -18 3 -18 5 0 11 10 15 23 5 18 8 19 15 7 6 -8 14 -11 18
-6 4 5 2 11 -5 13 -6 3 -10 9 -6 14 3 5 1 9 -4 9 -6 0 -13 -7 -16 -16z"/>
<path d="M1500 1880 c0 -5 5 -10 11 -10 5 0 7 5 4 10 -3 6 -8 10 -11 10 -2 0
-4 -4 -4 -10z"/>
<path d="M1793 1860 c-6 -17 -8 -32 -3 -35 4 -2 10 9 14 27 8 41 3 45 -11 8z"/>
<path d="M1174 1825 c-34 -31 -36 -34 -12 -24 15 7 35 23 43 36 21 32 14 29
-31 -12z"/>
<path d="M731 1835 c0 -12 -6 -26 -13 -33 -6 -6 -9 -14 -6 -18 10 -9 30 35 25
54 -4 13 -5 13 -6 -3z"/>
<path d="M1420 1840 c0 -5 4 -10 9 -10 6 0 13 5 16 10 3 6 -1 10 -9 10 -9 0
-16 -4 -16 -10z"/>
<path d="M1856 1841 c-4 -5 -2 -12 4 -16 5 -3 7 -18 4 -33 -6 -26 -6 -26 9 -7
11 15 13 25 5 40 -14 27 -15 28 -22 16z"/>
<path d="M1715 1815 c0 -14 3 -25 8 -25 4 0 7 7 7 15 0 8 0 18 1 22 0 4 -3 9
-8 10 -4 2 -8 -8 -8 -22z"/>
<path d="M1400 1823 c-20 -5 -41 -52 -38 -85 3 -30 18 -27 18 2 0 25 21 70 33
70 5 0 6 -7 3 -16 -3 -8 -2 -13 3 -10 13 8 85 -32 133 -73 35 -30 72 -94 116
-201 l10 -25 -2 25 c-1 14 -6 33 -10 42 -4 10 -6 23 -4 30 2 6 -4 20 -14 30
-10 10 -18 26 -18 36 0 9 -17 36 -39 59 -21 23 -35 45 -32 49 3 3 2 4 -4 2 -5
-1 -30 11 -55 28 -47 32 -75 42 -100 37z"/>
<path d="M1638 1823 c7 -3 16 -2 19 1 4 3 -2 6 -13 5 -11 0 -14 -3 -6 -6z"/>
<path d="M1630 1785 c-6 -7 -3 -17 10 -28 18 -15 21 -15 35 0 9 8 14 20 12 26
-4 14 -45 16 -57 2z"/>
<path d="M1797 1783 c-4 -3 -7 -11 -7 -17 0 -6 5 -5 12 2 6 6 9 14 7 17 -3 3
-9 2 -12 -2z"/>
<path d="M1696 1755 c-4 -14 -11 -23 -16 -20 -6 3 -10 2 -10 -4 0 -15 18 -23
25 -11 4 6 12 7 18 4 9 -5 9 -4 0 6 -8 9 -9 19 -2 32 6 10 6 18 0 18 -5 0 -12
-11 -15 -25z"/>
<path d="M275 1751 c-3 -6 -11 -9 -16 -6 -5 4 -9 1 -9 -4 0 -13 10 -14 30 -1
8 5 12 12 8 15 -3 4 -9 1 -13 -4z"/>
<path d="M150 1740 c0 -5 4 -10 9 -10 17 0 23 -41 9 -58 -8 -9 -16 -35 -17
-57 l-3 -40 21 19 c24 22 29 35 6 16 -12 -10 -15 -9 -15 8 0 11 6 23 13 25 9
4 8 6 -2 6 -11 1 -11 4 -1 16 21 26 30 17 30 -30 0 -25 4 -45 8 -45 4 0 5 25
2 55 l-6 54 56 -1 c130 -3 333 3 326 9 -3 4 -92 6 -197 5 -105 -1 -188 2 -185
6 2 4 0 14 -6 22 -8 12 -9 12 -4 -2 7 -22 -12 -24 -20 -3 -7 17 -24 20 -24 5z"/>
<path d="M312 1736 c7 -8 15 -12 17 -11 5 6 -10 25 -20 25 -5 0 -4 -6 3 -14z"/>
<path d="M1460 1740 c0 -5 -13 -10 -28 -10 -16 0 -36 -8 -45 -18 -25 -28 -20
-35 11 -15 16 10 22 11 15 3 -19 -20 -16 -35 3 -19 9 7 26 18 37 24 23 11 36
45 18 45 -6 0 -11 -4 -11 -10z"/>
<path d="M1781 1734 c0 -11 3 -14 6 -6 3 7 2 16 -1 19 -3 4 -6 -2 -5 -13z"/>
<path d="M1848 1733 c-10 -11 -16 -39 -17 -73 -1 -85 -4 -95 -35 -122 -32 -27
-49 -95 -21 -84 11 4 15 -1 15 -19 0 -13 -4 -27 -10 -30 -5 -3 -10 -11 -10
-18 0 -26 32 23 34 51 1 17 5 34 10 39 5 5 6 0 2 -11 -5 -16 -4 -17 8 -7 8 7
13 18 10 26 -3 7 -1 16 5 20 6 3 11 11 11 17 0 7 -14 -1 -32 -18 l-31 -29 32
42 c30 38 33 46 32 113 0 40 -3 75 -6 78 -2 3 3 11 13 18 9 7 14 15 11 18 -3
3 -13 -2 -21 -11z"/>
<path d="M600 1711 c0 -12 -4 -21 -10 -21 -5 0 -10 -4 -10 -9 0 -6 9 -9 20 -8
12 1 20 8 20 19 0 10 0 21 1 25 0 4 -4 9 -10 11 -6 2 -11 -6 -11 -17z"/>
<path d="M1742 1688 c-1 -21 -7 -38 -13 -38 -5 0 -7 -4 -4 -10 3 -5 3 -15 -1
-21 -4 -7 -9 -8 -13 -1 -3 5 -14 -7 -24 -27 -17 -36 -17 -36 1 -12 11 14 24
21 31 17 8 -5 5 -13 -9 -24 -17 -14 -19 -22 -12 -41 5 -15 11 -20 16 -13 3 6
2 14 -4 17 -8 5 -7 11 1 21 6 7 16 11 22 7 6 -4 8 3 3 21 -4 15 -2 26 3 26 6
0 8 7 5 15 -4 10 0 15 12 15 12 0 15 3 7 8 -6 4 -13 23 -16 42 l-4 35 -1 -37z"/>
<path d="M93 1673 c0 -24 5 -43 9 -43 10 0 9 27 -2 60 -7 21 -8 18 -7 -17z"/>
<path d="M151 1694 c0 -11 3 -14 6 -6 3 7 2 16 -1 19 -3 4 -6 -2 -5 -13z"/>
<path d="M1706 1697 c3 -10 9 -15 12 -12 3 3 0 11 -7 18 -10 9 -11 8 -5 -6z"/>
<path d="M649 1687 c-11 -8 -14 -18 -8 -32 8 -20 8 -20 8 1 1 11 6 25 13 32
15 15 8 15 -13 -1z"/>
<path d="M520 1680 c-13 -8 -13 -10 2 -10 9 0 20 5 23 10 8 13 -5 13 -25 0z"/>
<path d="M1490 1680 c0 -5 5 -10 11 -10 5 0 7 5 4 10 -3 6 -8 10 -11 10 -2 0
-4 -4 -4 -10z"/>
<path d="M358 1673 c7 -3 16 -2 19 1 4 3 -2 6 -13 5 -11 0 -14 -3 -6 -6z"/>
<path d="M418 1673 c7 -3 16 -2 19 1 4 3 -2 6 -13 5 -11 0 -14 -3 -6 -6z"/>
<path d="M458 1673 c7 -3 16 -2 19 1 4 3 -2 6 -13 5 -11 0 -14 -3 -6 -6z"/>
<path d="M1450 1668 c0 -7 9 -26 21 -43 16 -24 19 -26 14 -7 -7 23 0 26 40 22
11 -1 17 1 13 5 -11 12 -58 14 -58 4 0 -6 -4 -8 -10 -4 -5 3 -7 12 -3 20 3 8
0 15 -6 15 -6 0 -11 -6 -11 -12z"/>
<path d="M1545 1671 c-3 -5 -2 -12 3 -15 5 -3 9 1 9 9 0 17 -3 19 -12 6z"/>
<path d="M1660 1675 c0 -2 10 -10 23 -16 20 -11 21 -11 8 4 -13 16 -31 23 -31
12z"/>
<path d="M1576 1642 c-3 -5 1 -9 9 -9 8 0 12 4 9 9 -3 4 -7 8 -9 8 -2 0 -6 -4
-9 -8z"/>
<path d="M302 1603 c-26 -64 -52 -183 -56 -253 -2 -41 -4 -81 -5 -87 -1 -7
-10 -13 -21 -13 -18 0 -25 10 -21 33 6 38 7 156 1 152 -4 -3 -9 -43 -12 -90
-4 -71 -8 -88 -26 -103 -12 -11 -19 -22 -15 -26 11 -10 23 -7 21 7 -2 8 11 11
44 9 55 -3 53 -7 64 128 3 47 8 92 9 100 2 8 11 48 19 89 17 78 16 100 -2 54z"/>
<path d="M1500 1615 c0 -9 6 -12 15 -9 8 4 15 7 15 9 0 2 -7 5 -15 9 -9 3 -15
0 -15 -9z"/>
<path d="M327 1578 c-4 -24 -9 -112 -13 -195 -7 -159 -7 -159 34 -154 14 2 16
-15 2 -24 -13 -8 -13 -35 0 -35 5 0 7 7 4 15 -4 8 -1 15 5 15 19 0 12 32 -8
37 -17 4 -19 12 -15 76 6 92 7 298 1 304 -3 2 -7 -15 -10 -39z"/>
<path d="M1760 1601 c0 -5 5 -13 10 -16 6 -3 10 -2 10 4 0 5 -4 13 -10 16 -5
3 -10 2 -10 -4z"/>
<path d="M55 1581 c-3 -5 -1 -12 5 -16 5 -3 10 1 10 9 0 18 -6 21 -15 7z"/>
<path d="M1585 1559 c-3 -4 2 -6 10 -5 21 3 28 13 10 13 -9 0 -18 -4 -20 -8z"/>
<path d="M141 1534 c0 -11 3 -14 6 -6 3 7 2 16 -1 19 -3 4 -6 -2 -5 -13z"/>
<path d="M1607 1539 c-9 -6 -17 -14 -17 -19 0 -17 27 -11 34 6 8 22 5 25 -17
13z"/>
<path d="M190 1501 c0 -6 4 -12 8 -15 5 -3 9 1 9 9 0 8 -4 15 -9 15 -4 0 -8
-4 -8 -9z"/>
<path d="M1630 1495 c0 -17 -16 -20 -25 -4 -7 11 -34 -18 -34 -36 0 -5 6 -1
14 9 12 15 18 17 27 8 9 -9 8 -13 -4 -17 -10 -4 -14 -15 -11 -33 4 -21 2 -24
-6 -12 -6 8 -11 10 -11 4 0 -15 25 -36 33 -28 3 3 3 12 1 19 -3 7 0 16 7 21 8
4 10 3 5 -4 -4 -7 -3 -12 3 -12 6 0 8 15 6 35 -3 20 0 35 5 35 6 0 10 7 10 15
0 8 -4 15 -10 15 -5 0 -10 -7 -10 -15z"/>
<path d="M1517 1483 c-23 -12 -26 -17 -16 -29 6 -8 17 -14 23 -13 7 0 6 2 -1
6 -17 6 -16 23 1 23 7 0 19 7 26 15 15 18 4 18 -33 -2z"/>
<path d="M1697 1494 c-4 -4 -7 -17 -7 -28 0 -14 -3 -17 -8 -9 -8 13 -26 5 -29
-13 -4 -19 36 -4 48 18 11 21 8 44 -4 32z"/>
<path d="M1731 1478 c-5 -13 -5 -24 0 -26 4 -2 -13 -25 -38 -52 -26 -27 -49
-47 -52 -45 -2 3 5 15 16 28 11 12 23 29 27 37 5 8 -13 -7 -37 -35 -25 -27
-56 -62 -69 -76 -19 -21 -31 -25 -61 -21 -34 4 -53 22 -24 22 6 0 4 5 -6 11
-9 5 -21 8 -26 4 -5 -3 -12 1 -14 7 -3 8 -6 6 -6 -4 -1 -10 5 -18 13 -18 8 0
18 -9 21 -21 4 -13 14 -20 28 -18 36 2 43 -1 27 -12 -11 -8 -9 -9 10 -4 20 6
23 5 13 -6 -7 -7 -13 -18 -13 -23 0 -6 7 0 16 12 9 13 22 21 30 18 8 -3 13 -1
11 3 -1 5 29 43 66 85 65 73 91 88 80 48 -2 -10 3 -24 11 -31 11 -9 16 -10 16
-2 0 6 -4 11 -9 11 -5 0 -9 15 -8 34 1 26 5 33 16 30 9 -3 6 1 -6 7 -26 13
-29 29 -11 47 9 9 9 12 0 12 -7 0 -16 -10 -21 -22z m-116 -171 c-14 -20 -33
-38 -41 -41 -8 -3 1 14 22 39 43 52 59 53 19 2z"/>
<path d="M1446 1452 c-6 -18 -3 -29 13 -43 12 -11 22 -15 26 -9 4 6 11 8 16 5
5 -4 9 -1 9 4 0 6 -12 11 -26 11 -14 0 -23 3 -21 8 3 4 1 16 -3 27 -7 19 -7
19 -14 -3z"/>
<path d="M1870 1459 c0 -29 22 -134 31 -145 5 -6 6 -14 2 -18 -4 -4 0 -4 8 -1
11 4 19 -1 23 -12 4 -10 14 -31 23 -48 20 -35 30 -88 42 -209 5 -48 14 -93 20
-99 16 -16 13 -57 -8 -123 -12 -39 -17 -76 -14 -111 3 -29 1 -53 -3 -53 -16 0
-38 19 -31 26 4 4 -1 13 -11 20 -24 19 -37 17 -18 -2 20 -19 12 -34 -17 -34
-13 0 -26 -9 -32 -22 -6 -12 -17 -24 -25 -26 -13 -5 -13 -3 0 14 14 18 14 18
-3 5 -9 -8 -15 -16 -12 -19 3 -3 0 -11 -6 -19 -14 -17 3 -17 20 -1 10 11 12 9
9 -7 -2 -11 -13 -25 -26 -31 -30 -15 -41 -27 -17 -18 11 4 28 14 38 22 19 17
24 3 5 -16 -21 -21 -17 -39 8 -39 13 -1 21 3 18 8 -3 5 -13 9 -22 9 -11 0 -13
3 -6 10 15 15 130 -13 126 -31 -2 -10 2 -9 14 3 23 23 18 27 -52 36 -56 7 -59
9 -62 36 -2 15 -1 40 3 53 6 24 9 25 51 20 25 -2 47 -7 50 -9 2 -3 15 -43 29
-89 l24 -84 -22 -25 c-12 -14 -25 -27 -28 -30 -3 -3 -12 -16 -19 -29 -19 -36
5 -16 41 34 34 47 49 56 49 30 0 -9 7 -30 16 -46 12 -24 13 -34 3 -45 -10 -12
-9 -13 3 -9 16 6 28 -30 28 -82 0 -13 7 -34 14 -46 26 -38 6 -88 -20 -53 -13
19 -14 18 -14 -12 0 -40 11 -40 44 -2 23 28 24 33 12 63 -7 17 -11 38 -9 45 3
6 0 12 -6 12 -6 0 -11 12 -11 26 0 14 -5 35 -11 46 -8 15 -8 27 0 44 6 13 7
24 2 24 -5 0 -12 -6 -14 -12 -3 -8 -6 -5 -6 5 -1 11 -10 32 -22 48 -17 24 -19
32 -8 45 10 12 9 16 -9 21 -17 4 -21 11 -18 34 2 16 -1 29 -5 29 -15 0 -10 27
7 41 14 12 14 14 -6 21 -20 7 -21 13 -17 75 5 74 9 99 20 109 11 11 8 112 -3
119 -6 4 -10 21 -10 38 1 88 -7 151 -18 155 -7 2 -12 8 -12 13 0 6 4 7 10 4 6
-4 7 2 1 17 -5 13 -7 37 -5 54 2 20 -2 37 -11 44 -12 10 -13 16 -4 26 9 11 9
14 0 14 -7 0 -11 6 -9 13 2 6 -17 32 -41 57 -24 25 -50 59 -57 75 -7 17 -13
23 -14 14z m97 -169 c3 -14 10 -31 16 -38 5 -7 7 -15 4 -18 -3 -3 -13 13 -23
35 -10 23 -21 41 -26 41 -4 0 -15 15 -24 33 l-16 32 31 -30 c18 -16 34 -41 38
-55z"/>
<path d="M1532 1429 c-7 -10 -10 -30 -6 -43 7 -31 -15 -45 -33 -21 -7 11 -13
15 -13 9 1 -18 28 -45 35 -35 7 12 26 15 24 4 -3 -19 2 -33 12 -33 6 0 7 5 2
13 -4 6 -8 21 -8 32 0 11 -4 25 -8 32 -9 14 2 45 14 37 5 -3 9 -1 9 5 0 19
-16 19 -28 0z"/>
<path d="M1817 1398 c-5 -27 -12 -48 -16 -48 -9 0 -7 -48 3 -71 4 -8 2 -27 -3
-42 -8 -20 -5 -35 15 -74 13 -26 22 -54 19 -62 -4 -11 -1 -10 13 2 10 9 22 14
25 10 4 -3 7 4 7 16 0 19 4 23 24 19 17 -4 23 -1 19 9 -3 7 -9 10 -14 7 -17
-10 -9 16 11 36 11 11 15 22 10 25 -6 4 -11 18 -11 33 -1 21 -4 17 -13 -18
-13 -53 -43 -110 -56 -110 -12 0 -13 16 -2 23 4 2 2 3 -5 1 -6 -1 -17 11 -23
27 -11 25 -9 37 9 81 11 29 23 69 26 88 6 42 0 31 -16 -30 -9 -37 -13 -41 -19
-25 -4 11 -3 32 2 47 5 14 8 43 6 65 l-3 38 -8 -47z"/>
<path d="M150 1421 c0 -5 5 -13 10 -16 6 -3 10 -2 10 4 0 5 -4 13 -10 16 -5 3
-10 2 -10 -4z"/>
<path d="M1370 1419 c0 -5 5 -7 10 -4 6 3 10 8 10 11 0 2 -4 4 -10 4 -5 0 -10
-5 -10 -11z"/>
<path d="M1915 1420 c3 -5 11 -10 16 -10 6 0 7 5 4 10 -3 6 -11 10 -16 10 -6
0 -7 -4 -4 -10z"/>
<path d="M1426 1394 c-4 -11 -2 -15 8 -11 8 3 17 1 20 -6 3 -8 5 -8 5 -1 1 6
-5 17 -13 23 -11 9 -15 8 -20 -5z"/>
<path d="M1560 1391 c6 -12 10 -32 7 -42 -7 -26 6 -32 20 -9 10 15 7 23 -13
47 -22 24 -24 25 -14 4z"/>
<path d="M1992 1396 c7 -8 15 -12 17 -11 5 6 -10 25 -20 25 -5 0 -4 -6 3 -14z"/>
<path d="M680 1386 c0 -8 4 -17 9 -20 5 -4 7 3 4 14 -6 23 -13 26 -13 6z"/>
<path d="M620 1369 c0 -5 5 -7 10 -4 6 3 10 8 10 11 0 2 -4 4 -10 4 -5 0 -10
-5 -10 -11z"/>
<path d="M1390 1360 c0 -5 5 -10 10 -10 6 0 10 5 10 10 0 6 -4 10 -10 10 -5 0
-10 -4 -10 -10z"/>
<path d="M1430 1360 c0 -5 5 -10 11 -10 5 0 7 5 4 10 -3 6 -8 10 -11 10 -2 0
-4 -4 -4 -10z"/>
<path d="M2027 1359 c7 -7 15 -10 18 -7 3 3 -2 9 -12 12 -14 6 -15 5 -6 -5z"/>
<path d="M1370 1345 c0 -8 4 -15 10 -15 5 0 7 7 4 15 -4 8 -8 15 -10 15 -2 0
-4 -7 -4 -15z"/>
<path d="M610 1340 c0 -5 5 -10 11 -10 5 0 7 5 4 10 -3 6 -8 10 -11 10 -2 0
-4 -4 -4 -10z"/>
<path d="M1415 1329 c-4 -6 -5 -12 -2 -15 2 -3 7 2 10 11 7 17 1 20 -8 4z"/>
<path d="M2050 1331 c0 -5 5 -13 10 -16 6 -3 10 -2 10 4 0 5 -4 13 -10 16 -5
3 -10 2 -10 -4z"/>
<path d="M2807 1330 c-133 -5 -139 -6 -157 -30 -11 -14 -18 -31 -15 -38 2 -7
0 -23 -4 -35 -7 -18 -6 -24 4 -24 8 0 14 3 13 6 0 3 0 20 1 38 2 59 15 63 192
63 120 0 159 3 159 13 0 14 -4 14 -193 7z"/>
<path d="M825 1320 c3 -5 1 -10 -5 -10 -6 0 -8 -5 -4 -11 4 -8 9 -7 15 2 12
19 11 29 -2 29 -5 0 -7 -4 -4 -10z"/>
<path d="M1340 1300 c11 -21 19 -23 82 -24 21 -1 36 3 35 9 -2 6 -24 9 -50 8
-32 -2 -47 2 -51 12 -3 8 -10 15 -16 15 -8 0 -8 -6 0 -20z"/>
<path d="M1732 1299 c-7 -11 -11 -23 -9 -25 7 -7 29 24 25 36 -2 6 -9 1 -16
-11z"/>
<path d="M2027 1306 c-4 -10 -3 -15 3 -11 6 3 10 1 10 -6 0 -7 3 -10 6 -6 3 3
2 13 -4 22 -8 16 -9 16 -15 1z"/>
<path d="M1766 1294 c-5 -14 -4 -15 9 -4 17 14 19 20 6 20 -5 0 -12 -7 -15
-16z"/>
<path d="M154 1289 c-3 -6 -2 -15 3 -20 5 -5 9 -1 9 11 0 23 -2 24 -12 9z"/>
<path d="M2682 1287 c-15 -18 -26 -93 -15 -100 5 -3 10 12 10 33 1 22 7 48 13
60 12 23 8 27 -8 7z"/>
<path d="M2713 1289 c-6 -6 -9 -18 -6 -25 3 -8 0 -14 -6 -14 -13 0 -15 -56 -3
-64 7 -4 36 104 29 111 -2 1 -8 -2 -14 -8z"/>
<path d="M2746 1292 c-3 -5 -8 -27 -12 -49 -8 -49 9 -64 37 -34 23 25 14 28
-13 4 -17 -15 -18 -15 -12 18 4 19 11 39 16 46 5 7 5 14 -1 17 -5 4 -12 2 -15
-2z"/>
<path d="M1626 1264 c-11 -7 -18 -16 -15 -18 2 -2 13 2 23 10 11 7 18 16 15
18 -2 2 -13 -2 -23 -10z"/>
<path d="M2084 1257 c10 -16 24 -45 31 -65 8 -21 14 -30 14 -21 1 25 -26 84
-46 100 -17 13 -17 13 1 -14z"/>
<path d="M2830 1276 c0 -2 7 -7 16 -10 8 -3 12 -2 9 4 -6 10 -25 14 -25 6z"/>
<path d="M40 1182 c0 -78 3 -93 18 -101 23 -12 97 -22 187 -26 39 -1 75 -4 80
-5 24 -6 33 2 31 25 0 14 -5 25 -9 25 -5 0 -7 -8 -5 -17 1 -10 -1 -19 -5 -20
-17 -6 -27 -2 -27 11 0 8 -5 18 -10 21 -6 4 -9 1 -8 -7 2 -10 -13 -13 -57 -14
-33 0 -64 2 -70 5 -5 3 -24 4 -42 2 -66 -5 -71 0 -72 96 -1 48 -3 89 -6 91 -3
3 -5 -36 -5 -86z"/>
<path d="M1731 1257 c-6 -8 -13 -30 -15 -49 -4 -32 -3 -35 15 -31 14 4 17 9 9
18 -7 8 -4 17 9 29 11 10 17 24 14 32 -7 18 -17 18 -32 1z m29 -11 c0 -2 -8
-10 -17 -17 -16 -13 -17 -12 -4 4 13 16 21 21 21 13z"/>
<path d="M2025 1261 c-3 -5 -1 -12 5 -16 5 -3 10 1 10 9 0 18 -6 21 -15 7z"/>
<path d="M2907 1243 c5 -13 2 -15 -14 -11 -15 4 -20 1 -19 -13 1 -11 4 -19 9
-19 4 0 10 0 15 0 4 0 0 5 -8 11 -12 8 -11 9 5 5 17 -5 21 -1 23 19 1 14 -3
25 -8 25 -5 0 -7 -7 -3 -17z"/>
<path d="M616 1241 c-3 -4 4 -17 17 -27 22 -19 22 -19 4 2 -9 11 -14 24 -10
27 3 4 4 7 0 7 -3 0 -8 -4 -11 -9z"/>
<path d="M1408 1243 c6 -2 18 -2 25 0 6 3 1 5 -13 5 -14 0 -19 -2 -12 -5z"/>
<path d="M2563 1238 c-22 -29 -23 -36 -4 -31 11 3 21 13 24 24 6 22 -6 25 -20
7z"/>
<path d="M2934 1225 c3 -8 -2 -19 -12 -24 -9 -6 -12 -11 -6 -11 5 0 16 6 23
13 10 9 15 9 18 1 6 -17 43 -4 42 15 0 10 -2 11 -6 4 -7 -18 -30 -16 -37 2 -3
8 -10 15 -17 15 -6 0 -9 -7 -5 -15z"/>
<path d="M246 1221 c-18 -7 -18 -8 5 -14 13 -4 34 -7 47 -7 15 0 21 -4 16 -12
-4 -7 -3 -8 4 -4 17 10 15 33 -4 40 -20 8 -44 7 -68 -3z"/>
<path d="M432 1223 c-6 -2 -10 -9 -6 -14 3 -5 -3 -9 -13 -9 -11 0 -14 -3 -7
-8 15 -9 16 -99 2 -126 -6 -11 -7 -18 -3 -14 5 5 14 -1 22 -12 18 -26 29 -25
44 2 15 28 18 136 5 166 -9 22 -19 25 -44 15z m34 -29 c-3 -9 -6 -47 -6 -85 0
-41 -4 -69 -10 -69 -7 0 -10 32 -9 85 1 68 5 85 16 85 10 0 13 -6 9 -16z"/>
<path d="M826 1221 c-4 -7 -5 -15 -2 -18 9 -9 19 4 14 18 -4 11 -6 11 -12 0z"/>
<path d="M2015 1220 c-4 -6 -2 -16 3 -23 5 -7 15 -30 22 -52 7 -22 21 -47 32
-56 15 -11 18 -22 13 -38 -5 -16 -10 -19 -19 -12 -9 8 -10 -2 -5 -42 3 -29 11
-65 17 -82 6 -16 13 -61 16 -100 3 -38 8 -100 12 -137 7 -67 7 -67 -17 -62
-20 4 -20 3 4 -7 18 -7 27 -18 27 -32 0 -12 3 -33 7 -46 6 -23 7 -23 13 -5 4
10 4 28 0 39 -4 11 -10 52 -14 90 -3 39 -11 117 -18 175 -13 114 -14 184 -6
272 4 40 2 62 -8 75 -7 10 -14 27 -15 38 -1 16 -2 17 -6 3 -2 -9 3 -31 12 -48
14 -26 14 -33 2 -51 -14 -19 -15 -19 -27 12 -7 17 -13 46 -12 65 1 34 -18 48
-33 24z"/>
<path d="M2170 1221 c0 -5 5 -13 10 -16 6 -3 10 -2 10 4 0 5 -4 13 -10 16 -5
3 -10 2 -10 -4z"/>
<path d="M2843 1222 c-10 -7 -10 -12 1 -27 13 -18 14 -17 14 8 0 15 -1 27 -2
27 0 0 -7 -4 -13 -8z"/>
<path d="M192 1205 c-6 -8 -19 -12 -27 -9 -8 4 -15 2 -15 -3 0 -5 13 -10 28
-11 21 -2 28 3 29 18 2 23 2 24 -15 5z"/>
<path d="M600 1202 c9 -19 30 -23 30 -5 0 4 -3 3 -7 0 -3 -4 -12 1 -20 11 -13
15 -13 15 -3 -6z"/>
<path d="M1593 1213 c-10 -3 -9 -8 2 -20 8 -8 13 -19 10 -24 -4 -5 -1 -9 5 -9
8 0 9 7 5 18 -4 9 -8 23 -8 30 0 6 -1 12 -1 11 -1 0 -7 -3 -13 -6z"/>
<path d="M1665 1209 c-4 -6 -5 -12 -2 -15 2 -3 7 2 10 11 7 17 1 20 -8 4z"/>
<path d="M1830 1208 c0 -4 7 -8 15 -8 8 0 15 4 15 8 0 5 -7 9 -15 9 -8 0 -15
-4 -15 -9z"/>
<path d="M2222 1188 c9 -13 27 -24 42 -26 14 -2 26 -7 26 -12 0 -5 -7 -6 -17
-3 -11 4 -14 3 -9 -5 9 -15 76 -16 76 -1 0 6 -9 8 -20 4 -14 -4 -20 -2 -20 8
0 8 -18 24 -40 36 -51 26 -56 26 -38 -1z"/>
<path d="M2785 1200 c-8 -13 5 -13 25 0 13 8 13 10 -2 10 -9 0 -20 -4 -23 -10z"/>
<path d="M1549 1176 c14 -15 19 -26 12 -31 -6 -3 -11 -14 -11 -23 1 -12 5 -10
15 8 19 33 19 50 0 50 -8 0 -15 5 -15 10 0 6 -5 10 -12 10 -6 0 -1 -11 11 -24z"/>
<path d="M260 1179 c0 -5 5 -7 10 -4 6 3 10 8 10 11 0 2 -4 4 -10 4 -5 0 -10
-5 -10 -11z"/>
<path d="M765 1180 c3 -5 8 -10 11 -10 2 0 4 5 4 10 0 6 -5 10 -11 10 -5 0 -7
-4 -4 -10z"/>
<path d="M1630 1179 c0 -5 5 -7 10 -4 6 3 10 8 10 11 0 2 -4 4 -10 4 -5 0 -10
-5 -10 -11z"/>
<path d="M1830 1185 c0 -7 30 -13 34 -7 3 4 -4 9 -15 9 -10 1 -19 0 -19 -2z"/>
<path d="M2163 1171 c-2 -29 25 -96 37 -93 6 1 9 -2 6 -7 -3 -5 1 -14 9 -21
29 -24 27 0 -4 48 -17 27 -31 56 -31 65 0 22 -16 29 -17 8z"/>
<path d="M685 1170 c3 -5 8 -10 11 -10 2 0 4 5 4 10 0 6 -5 10 -11 10 -5 0 -7
-4 -4 -10z"/>
<path d="M2060 1171 c0 -6 4 -13 10 -16 6 -3 7 1 4 9 -7 18 -14 21 -14 7z"/>
<path d="M70 1147 c0 -30 17 -44 33 -27 9 9 9 11 -2 8 -7 -2 -15 5 -16 15 -5
30 -15 33 -15 4z"/>
<path d="M311 1163 c-1 -6 -4 -20 -7 -30 -5 -17 -5 -17 6 0 6 10 9 23 6 30 -3
9 -5 9 -5 0z"/>
<path d="M340 1149 c0 -5 5 -7 10 -4 6 3 10 8 10 11 0 2 -4 4 -10 4 -5 0 -10
-5 -10 -11z"/>
<path d="M1706 1143 c-4 -13 -4 -27 -1 -33 3 -5 2 -10 -4 -10 -12 0 -32 34
-26 44 3 3 0 2 -7 -4 -9 -7 -6 -16 10 -33 22 -24 28 -38 15 -36 -23 4 -21 -4
5 -26 37 -31 53 -33 24 -2 -17 18 -19 26 -10 35 7 7 9 12 5 12 -4 0 -4 8 1 18
5 9 6 26 2 37 -7 19 -7 19 -14 -2z"/>
<path d="M1627 1143 c-4 -3 -7 -11 -7 -17 0 -6 5 -5 12 2 6 6 9 14 7 17 -3 3
-9 2 -12 -2z"/>
<path d="M1800 1125 c0 -8 4 -15 10 -15 5 0 7 7 4 15 -4 8 -8 15 -10 15 -2 0
-4 -7 -4 -15z"/>
<path d="M2460 1132 c8 -6 65 -27 125 -48 61 -20 133 -51 160 -68 62 -37 186
-156 226 -215 28 -43 29 -44 29 -16 0 16 -8 37 -17 48 -52 58 -173 172 -207
194 -36 23 -124 59 -170 68 -17 4 -101 28 -143 41 -15 4 -15 4 -3 -4z"/>
<path d="M236 1115 c-17 -13 -18 -15 -3 -15 9 0 17 5 17 12 0 6 7 3 16 -8 14
-18 15 -18 4 4 -13 26 -10 25 -34 7z"/>
<path d="M2290 1112 c-20 -7 -9 -22 32 -42 48 -23 52 -24 42 -9 -4 8 1 9 16 4
18 -6 22 -4 17 8 -3 8 -1 19 5 25 7 7 -8 11 -46 14 -31 1 -61 2 -66 0z m60
-23 c0 -5 6 -7 13 -3 9 5 9 4 1 -5 -11 -12 -44 -5 -44 10 0 5 7 9 15 9 8 0 15
-5 15 -11z"/>
<path d="M1420 1092 c-52 -58 -57 -71 -56 -129 1 -32 -2 -61 -7 -64 -5 -4 -5
-9 0 -12 12 -7 53 20 53 34 0 6 -3 8 -7 6 -5 -3 -9 7 -10 21 -1 15 -4 38 -6
52 -5 30 1 50 15 50 11 0 47 40 48 53 0 12 -14 7 -30 -11z"/>
<path d="M1950 1099 c0 -5 5 -7 10 -4 6 3 10 8 10 11 0 2 -4 4 -10 4 -5 0 -10
-5 -10 -11z"/>
<path d="M830 1077 c-19 -13 -57 -32 -85 -42 -57 -21 -124 -62 -143 -87 -7
-10 -20 -18 -28 -18 -8 0 -14 -5 -14 -11 0 -5 -4 -7 -10 -4 -5 3 -10 2 -10 -2
0 -5 -17 -17 -37 -26 -42 -19 -103 -71 -103 -87 0 -5 -4 -10 -9 -10 -5 0 -27
-24 -49 -52 -44 -58 -67 -122 -77 -213 -5 -35 -10 -53 -14 -43 -3 9 -6 -26 -6
-78 0 -73 -3 -97 -15 -104 -8 -5 -10 -10 -5 -10 15 0 3 -178 -13 -190 -9 -7
-10 -100 -1 -100 13 0 17 14 23 74 5 54 16 91 16 54 0 -9 5 -18 12 -20 7 -3
11 -24 10 -59 -1 -35 1 -49 7 -39 12 21 21 111 10 104 -5 -3 -9 0 -9 5 0 6 3
11 8 11 17 -1 32 -19 56 -72 15 -33 33 -58 41 -58 8 0 15 5 15 11 0 6 -7 8
-16 5 -10 -4 -14 -2 -11 6 2 7 10 12 16 10 7 -1 9 3 5 9 -7 12 -21 61 -34 124
l-9 40 5 -45 c2 -25 6 -60 8 -77 6 -48 -7 -40 -25 15 -11 33 -13 56 -6 75 6
19 4 41 -8 77 -11 34 -14 63 -10 91 5 30 3 45 -9 58 -14 15 -14 20 -1 45 8 16
15 45 14 65 0 34 -1 35 -10 11 -6 -14 -16 -54 -24 -90 -13 -64 -11 -101 14
-178 5 -18 7 -41 5 -50 -3 -9 -8 -24 -10 -32 -5 -13 -6 -13 -15 0 -8 11 -9 10
-4 -7 7 -24 -1 -28 -22 -15 -7 4 -10 17 -6 30 3 12 9 19 14 16 12 -7 11 20 -1
32 -11 11 4 202 21 264 5 19 9 52 9 72 0 27 6 40 20 48 11 6 19 16 17 22 -1 7
3 12 10 13 18 0 53 51 53 76 0 19 -4 17 -28 -17 -31 -42 -74 -83 -57 -54 25
44 88 119 95 115 5 -3 10 5 12 17 2 15 28 39 83 75 44 29 98 66 120 82 22 16
78 48 125 71 81 39 157 90 135 90 -6 0 -26 -10 -45 -23z"/>
<path d="M1860 1090 c0 -5 7 -7 15 -4 8 4 15 8 15 10 0 2 -7 4 -15 4 -8 0 -15
-4 -15 -10z"/>
<path d="M2778 1093 c7 -3 16 -2 19 1 4 3 -2 6 -13 5 -11 0 -14 -3 -6 -6z"/>
<path d="M2888 1093 c17 -2 47 -2 65 0 17 2 3 4 -33 4 -36 0 -50 -2 -32 -4z"/>
<path d="M1549 1073 c-13 -16 -12 -17 4 -4 16 13 21 21 13 21 -2 0 -10 -8 -17
-17z"/>
<path d="M1650 1079 c0 -5 5 -7 10 -4 6 3 10 8 10 11 0 2 -4 4 -10 4 -5 0 -10
-5 -10 -11z"/>
<path d="M1805 1080 c-3 -5 -1 -10 4 -10 6 0 11 5 11 10 0 6 -2 10 -4 10 -3 0
-8 -4 -11 -10z"/>
<path d="M2120 1080 c0 -5 7 -7 16 -3 13 5 15 2 10 -15 -4 -11 -2 -23 4 -27 6
-3 8 -11 5 -16 -4 -5 1 -9 10 -9 14 0 13 3 -2 27 -14 21 -14 25 -3 21 8 -2 21
-22 28 -44 7 -21 21 -47 30 -58 16 -18 16 -19 -1 -13 -11 4 -16 3 -12 -3 3 -6
16 -8 29 -4 27 6 41 -9 65 -70 16 -43 17 -44 30 -24 11 18 11 20 -4 15 -10 -4
-14 -3 -10 4 14 21 -16 67 -55 84 -35 16 -60 48 -60 79 0 7 -13 24 -28 39 -28
27 -52 35 -52 17z"/>
<path d="M1495 1060 c3 -5 1 -10 -5 -10 -6 0 -8 -5 -4 -11 4 -8 9 -7 15 2 12
19 11 29 -2 29 -5 0 -7 -4 -4 -10z"/>
<path d="M2260 1060 c0 -5 5 -10 10 -10 6 0 10 5 10 10 0 6 -4 10 -10 10 -5 0
-10 -4 -10 -10z"/>
<path d="M1556 1043 c-6 -14 -5 -15 5 -6 7 7 10 15 7 18 -3 3 -9 -2 -12 -12z"/>
<path d="M1870 1045 c0 -8 2 -15 4 -15 2 0 6 7 10 15 3 8 1 15 -4 15 -6 0 -10
-7 -10 -15z"/>
<path d="M2110 1045 c-4 -38 2 -50 47 -97 l46 -47 1 -88 c1 -67 6 -96 21 -123
21 -38 26 -59 26 -102 0 -16 4 -28 9 -28 5 0 7 7 4 15 -4 8 -1 15 4 15 6 0 10
9 9 20 -1 11 -4 20 -7 20 -8 0 -33 163 -34 223 -1 27 3 47 9 47 7 0 10 -20 9
-52 -2 -29 -1 -46 3 -38 3 8 13 21 21 28 15 11 15 15 -2 47 -16 29 -23 34 -43
29 -27 -7 -54 20 -46 46 4 12 3 12 -5 2 -7 -11 -14 -9 -31 9 -12 13 -24 35
-27 49 -9 41 -12 46 -14 25z"/>
<path d="M2310 1047 c9 -7 14 -20 12 -30 -3 -16 2 -18 35 -15 26 2 39 8 41 20
2 12 -2 15 -17 11 -11 -3 -30 2 -43 11 -26 19 -51 21 -28 3z"/>
<path d="M2435 1049 c-11 -17 1 -21 15 -4 8 9 8 15 2 15 -6 0 -14 -5 -17 -11z"/>
<path d="M1430 1040 c0 -5 5 -10 11 -10 5 0 7 5 4 10 -3 6 -8 10 -11 10 -2 0
-4 -4 -4 -10z"/>
<path d="M1821 1045 c0 -5 6 -19 14 -29 8 -11 15 -15 15 -10 0 6 -7 19 -15 30
-8 10 -14 15 -14 9z"/>
<path d="M2230 1021 c-6 -12 -6 -22 -1 -25 5 -4 12 0 14 6 3 7 6 4 7 -7 1 -18
2 -18 11 3 15 40 -11 59 -31 23z"/>
<path d="M2285 1030 c3 -5 8 -10 11 -10 2 0 4 5 4 10 0 6 -5 10 -11 10 -5 0
-7 -4 -4 -10z"/>
<path d="M1501 1005 c-13 -12 -21 -29 -18 -36 4 -11 6 -11 6 -1 1 7 6 10 13 6
8 -5 9 -2 5 9 -3 10 -2 17 3 17 12 0 23 -37 15 -50 -3 -5 -2 -17 3 -27 9 -15
11 -15 22 4 9 13 20 18 35 15 13 -2 26 2 30 9 6 9 2 11 -13 7 -12 -4 -25 -2
-28 3 -3 5 -1 9 4 9 5 0 12 9 15 19 6 25 -20 36 -40 16 -17 -18 -35 -11 -26
10 7 20 2 18 -26 -10z m71 -23 c-7 -2 -12 -8 -12 -14 0 -5 -7 -16 -15 -25 -14
-14 -15 -13 -9 13 8 33 36 60 43 41 2 -6 -1 -13 -7 -15z"/>
<path d="M1681 1016 c-6 -7 -14 -23 -16 -34 -2 -12 -9 -30 -15 -42 -9 -16 -9
-25 -1 -33 16 -16 13 -27 -5 -20 -14 5 -15 3 -6 -14 6 -11 7 -25 2 -33 -5 -8
-9 -30 -8 -48 1 -18 -4 -38 -9 -43 -8 -8 -5 -17 9 -31 11 -11 23 -17 26 -13 4
3 0 10 -8 16 -11 6 -12 11 -3 17 7 4 10 26 7 55 -2 35 0 47 9 44 6 -2 11 -11
11 -20 -1 -9 2 -14 7 -11 13 8 11 44 -2 42 -6 -2 -14 3 -16 10 -3 8 2 10 14 6
14 -4 15 -4 4 4 -8 5 -14 23 -13 38 0 33 19 117 21 95 1 -12 4 -12 13 -3 8 8
9 15 2 22 -8 8 -15 6 -23 -4z"/>
<path d="M2450 1016 c0 -21 16 -28 29 -12 9 11 8 15 -5 20 -22 8 -24 8 -24 -8z"/>
<path d="M1786 1003 c-6 -14 -5 -15 5 -6 7 7 10 15 7 18 -3 3 -9 -2 -12 -12z"/>
<path d="M2510 1000 c-13 -8 -13 -10 2 -10 9 0 20 5 23 10 8 13 -5 13 -25 0z"/>
<path d="M1239 984 c21 -43 -12 -110 -93 -186 -28 -26 -45 -48 -38 -48 15 0
175 152 205 195 l21 30 -29 -25 c-16 -14 -37 -34 -46 -45 -17 -19 -17 -18 -7
23 9 37 8 46 -7 60 -16 16 -17 16 -6 -4z"/>
<path d="M1416 977 c3 -10 9 -15 12 -12 3 3 0 11 -7 18 -10 9 -11 8 -5 -6z"/>
<path d="M1792 974 c-7 -8 -8 -14 -3 -14 10 0 25 19 20 25 -2 1 -10 -3 -17
-11z"/>
<path d="M1871 982 c-1 -7 -5 -10 -11 -7 -6 3 -7 -1 -4 -10 4 -11 10 -13 16
-7 6 6 8 16 5 24 -4 10 -6 10 -6 0z"/>
<path d="M1910 980 c-12 -7 -10 -9 8 -7 12 0 22 5 22 9 0 11 -12 10 -30 -2z"/>
<path d="M2114 950 c6 -22 16 -114 31 -283 2 -26 9 -56 15 -66 5 -11 10 -27
10 -36 0 -21 29 -89 35 -83 3 3 1 17 -4 32 -6 14 -7 26 -3 26 10 -1 51 -89 56
-122 3 -15 9 -35 15 -45 8 -14 9 -7 5 27 -4 25 -10 52 -15 60 -4 9 -6 30 -5
48 1 17 -1 32 -5 32 -3 0 -9 19 -13 43 -8 49 -46 170 -52 164 -2 -2 3 -24 11
-48 13 -39 13 -42 0 -25 -10 13 -15 15 -15 6 0 -7 7 -21 16 -31 9 -10 17 -33
19 -51 2 -18 8 -46 14 -62 22 -55 3 -37 -33 33 -33 63 -49 107 -27 72 6 -9 8
6 5 40 -6 77 -6 79 -17 72 -6 -4 -8 1 -4 11 4 10 4 23 0 29 -3 6 -8 33 -9 61
-3 52 -1 50 22 -23 2 -8 7 -12 10 -9 7 8 -29 100 -51 129 l-17 24 6 -25z"/>
<path d="M2352 963 c-16 -3 -22 -9 -18 -20 3 -8 6 -23 6 -34 0 -17 3 -18 21
-9 24 13 119 4 119 -12 0 -5 5 -6 10 -3 19 12 10 24 -22 34 -18 5 -25 10 -16
10 24 1 66 -19 72 -35 3 -9 0 -11 -11 -7 -13 5 -15 3 -8 -13 4 -10 7 -29 6
-41 0 -12 7 -27 17 -33 14 -10 15 -11 0 -6 -12 3 -18 -4 -22 -29 -4 -20 -14
-36 -24 -38 -13 -4 -12 -5 5 -6 12 0 25 4 28 9 4 6 10 8 15 5 11 -7 70 53 70
71 0 10 -9 5 -25 -13 l-25 -28 5 25 c9 42 13 108 6 118 -7 11 -153 63 -173 61
-7 -1 -23 -4 -36 -6z m73 -23 c4 -6 -9 -9 -34 -8 -23 1 -41 4 -41 8 0 10 68
11 75 0z m121 -69 c-4 -5 -1 -11 4 -13 7 -2 6 -10 -3 -22 -13 -18 -14 -17 -12
10 3 34 3 34 11 34 3 0 3 -4 0 -9z"/>
<path d="M771 944 c0 -11 3 -14 6 -6 3 7 2 16 -1 19 -3 4 -6 -2 -5 -13z"/>
<path d="M1433 945 c-3 -9 -3 -19 1 -22 3 -4 6 1 6 11 0 10 5 14 12 10 7 -4 8
-3 4 4 -10 16 -15 15 -23 -3z"/>
<path d="M1740 950 c-9 -6 -10 -10 -3 -10 6 0 15 5 18 10 8 12 4 12 -15 0z"/>
<path d="M2305 940 c3 -5 8 -10 11 -10 2 0 4 5 4 10 0 6 -5 10 -11 10 -5 0 -7
-4 -4 -10z"/>
<path d="M1896 915 c15 -24 19 -25 32 -11 18 18 16 21 -21 30 l-28 7 17 -26z"/>
<path d="M1470 920 c0 -5 5 -10 10 -10 6 0 10 5 10 10 0 6 -4 10 -10 10 -5 0
-10 -4 -10 -10z"/>
<path d="M1750 919 c0 -5 5 -7 10 -4 6 3 10 8 10 11 0 2 -4 4 -10 4 -5 0 -10
-5 -10 -11z"/>
<path d="M1441 894 c0 -11 3 -14 6 -6 3 7 2 16 -1 19 -3 4 -6 -2 -5 -13z"/>
<path d="M1550 903 c0 -15 19 -37 26 -31 3 4 -1 14 -10 23 -9 9 -16 13 -16 8z"/>
<path d="M1857 903 c-4 -6 1 -14 11 -18 14 -6 12 -9 -13 -21 -30 -13 -30 -13
-4 -14 24 0 49 16 49 32 0 4 -6 8 -14 8 -8 0 -16 5 -18 12 -3 8 -6 9 -11 1z"/>
<path d="M1415 890 c3 -5 8 -10 11 -10 2 0 4 5 4 10 0 6 -5 10 -11 10 -5 0 -7
-4 -4 -10z"/>
<path d="M1990 889 c0 -5 5 -7 10 -4 6 3 10 8 10 11 0 2 -4 4 -10 4 -5 0 -10
-5 -10 -11z"/>
<path d="M2420 871 c0 -5 7 -11 14 -14 10 -4 13 -1 9 9 -6 15 -23 19 -23 5z"/>
<path d="M1412 864 c9 -3 19 -16 22 -28 3 -13 13 -26 21 -30 13 -5 14 -2 3 17
-7 12 -12 27 -13 32 0 6 -11 11 -25 12 -14 1 -18 -1 -8 -3z"/>
<path d="M1467 856 c-4 -10 -1 -13 8 -9 8 3 12 9 9 14 -7 12 -11 11 -17 -5z"/>
<path d="M1513 860 c2 -8 12 -16 23 -17 13 -2 15 -1 4 4 -8 3 -19 11 -23 17
-6 7 -7 6 -4 -4z"/>
<path d="M612 851 c-8 -4 -12 -18 -10 -30 3 -19 4 -18 20 9 17 30 14 37 -10
21z"/>
<path d="M1765 846 l-30 -13 37 1 c20 0 35 3 32 7 -2 4 2 10 8 12 9 4 8 6 -2
6 -8 0 -28 -6 -45 -13z"/>
<path d="M2622 840 c-10 -17 -10 -20 3 -20 8 0 15 9 15 20 0 11 -1 20 -3 20
-1 0 -8 -9 -15 -20z"/>
<path d="M1255 840 c3 -5 8 -10 11 -10 2 0 4 5 4 10 0 6 -5 10 -11 10 -5 0 -7
-4 -4 -10z"/>
<path d="M1365 840 c3 -5 8 -10 11 -10 2 0 4 5 4 10 0 6 -5 10 -11 10 -5 0 -7
-4 -4 -10z"/>
<path d="M2657 843 c-6 -10 19 -34 26 -26 8 7 -3 33 -13 33 -5 0 -11 -3 -13
-7z"/>
<path d="M2924 800 c20 -30 40 -60 45 -66 6 -7 5 -16 -2 -24 -9 -10 -8 -12 4
-7 12 4 15 1 12 -13 -3 -10 0 -21 6 -24 7 -5 10 8 9 38 -1 25 -5 40 -9 34 -4
-6 -14 4 -23 24 -9 19 -31 48 -47 64 l-31 29 36 -55z"/>
<path d="M1390 825 c-7 -8 -17 -12 -23 -8 -14 9 -67 10 -67 1 0 -9 38 -21 73
-23 16 -1 27 3 27 11 0 9 6 11 18 7 15 -6 15 -5 3 10 -16 21 -16 21 -31 2z"/>
<path d="M657 824 c-9 -9 4 -35 14 -28 5 3 9 12 9 20 0 14 -12 19 -23 8z"/>
<path d="M1532 800 c4 -29 53 -88 65 -77 4 5 1 12 -7 17 -8 6 -10 10 -5 10 6
0 3 6 -5 13 -9 7 -24 23 -34 37 l-17 25 3 -25z"/>
<path d="M1590 800 c-9 -16 -8 -18 5 -14 8 4 15 12 15 20 0 20 -7 17 -20 -6z"/>
<path d="M1716 803 c-6 -14 -5 -15 5 -6 7 7 10 15 7 18 -3 3 -9 -2 -12 -12z"/>
<path d="M434 798 c-10 -15 -11 -20 -13 -49 0 -12 -5 -17 -12 -13 -7 4 -9 0
-5 -13 8 -24 -7 -70 -20 -63 -5 3 -17 -11 -26 -30 -19 -39 -36 -214 -22 -223
5 -3 10 9 10 26 3 64 9 81 39 110 l30 30 13 -54 c7 -30 14 -59 15 -66 2 -7 6
-16 10 -19 4 -4 7 -22 7 -40 0 -36 45 -170 65 -194 7 -8 16 -25 20 -38 3 -12
11 -19 17 -16 7 4 8 2 4 -5 -4 -6 -1 -22 6 -34 8 -12 15 -35 16 -50 l2 -28
-28 20 c-48 35 -121 115 -135 150 -8 19 -17 29 -21 23 -8 -13 7 -37 78 -132
57 -76 61 -81 53 -57 -5 13 -3 17 5 14 7 -2 12 -14 10 -25 -2 -12 2 -22 7 -22
6 0 11 4 11 9 0 18 32 20 56 5 14 -10 24 -12 24 -6 0 6 -9 16 -20 22 -13 7
-20 21 -20 39 0 15 -6 41 -14 57 -39 81 -45 103 -44 149 1 54 -8 95 -22 95 -5
0 -7 -12 -5 -27 17 -106 17 -113 6 -113 -6 0 -11 12 -11 27 0 14 -8 35 -17 46
-13 15 -15 21 -5 24 6 3 12 9 12 14 0 4 -7 6 -15 3 -10 -4 -15 0 -16 12 -4 59
-5 64 -40 178 -13 42 -11 56 6 56 9 0 34 9 57 21 23 12 51 23 62 24 66 10 191
78 180 97 -4 6 -9 6 -14 -2 -4 -6 -14 -12 -22 -14 -8 -1 -23 -9 -32 -19 -13
-13 -22 -14 -36 -7 -24 13 -30 13 -30 0 0 -5 8 -10 18 -10 14 0 15 -2 2 -10
-19 -12 -43 -13 -36 -1 7 11 -21 8 -31 -4 -4 -4 -2 -5 5 -1 6 4 12 2 12 -3 0
-6 -7 -11 -15 -11 -9 0 -32 -7 -53 -17 -20 -9 -39 -17 -42 -18 -33 -11 -58
-26 -70 -40 -19 -23 -51 -39 -45 -23 2 7 6 24 9 38 6 35 25 78 25 60 1 -8 13
5 27 30 14 25 31 48 37 52 8 5 7 10 -1 21 -7 7 -9 17 -5 20 3 4 0 7 -8 7 -12
0 -12 2 1 10 8 5 12 12 8 15 -3 4 -10 0 -14 -7z"/>
<path d="M1950 800 c0 -5 5 -10 10 -10 6 0 10 5 10 10 0 6 -4 10 -10 10 -5 0
-10 -4 -10 -10z"/>
<path d="M2400 743 c1 -37 1 -74 1 -80 -1 -18 -21 -16 -21 2 0 8 -4 15 -10 15
-13 0 -13 -17 0 -25 16 -10 -7 -45 -25 -39 -8 4 -12 10 -9 15 3 5 2 23 -1 41
-5 21 -10 27 -15 17 -7 -10 -11 -10 -23 0 -24 19 -26 0 -6 -49 10 -25 18 -41
18 -36 1 5 7 3 15 -3 17 -15 44 -5 51 20 4 11 11 17 16 14 5 -4 9 -1 9 5 0 6
4 9 9 5 5 -3 17 2 25 11 12 12 15 32 13 82 -3 61 -5 67 -26 70 -22 3 -22 1
-21 -65z m-85 -83 c3 -5 1 -10 -4 -10 -6 0 -11 5 -11 10 0 6 2 10 4 10 3 0 8
-4 11 -10z"/>
<path d="M1230 792 c0 -7 -8 -12 -17 -12 -17 -1 -17 -1 0 -11 25 -14 48 4 29
23 -9 9 -12 9 -12 0z"/>
<path d="M1295 790 c3 -5 8 -10 11 -10 2 0 4 5 4 10 0 6 -5 10 -11 10 -5 0 -7
-4 -4 -10z"/>
<path d="M1841 778 l-14 -23 24 20 c13 11 26 21 28 22 2 2 -2 3 -10 3 -8 0
-20 -10 -28 -22z"/>
<path d="M2267 783 c-10 -10 -8 -45 2 -39 5 4 7 -4 3 -16 -5 -20 -3 -21 10
-10 13 10 17 10 21 0 3 -8 6 -5 7 7 1 20 1 20 10 0 6 -13 9 -15 9 -5 0 8 -4
22 -9 30 -8 13 -10 13 -10 1 0 -13 -2 -13 -12 -2 -11 11 -10 14 0 18 6 3 10 9
6 14 -6 11 -28 12 -37 2z"/>
<path d="M2795 780 c3 -5 8 -10 11 -10 2 0 4 5 4 10 0 6 -5 10 -11 10 -5 0 -7
-4 -4 -10z"/>
<path d="M2640 773 c0 -5 -10 -15 -22 -21 -13 -6 -17 -11 -10 -11 8 -1 10 -6
6 -13 -4 -7 -5 -11 -1 -8 3 3 5 9 6 13 0 5 8 15 18 22 10 7 15 17 10 21 -4 4
-7 3 -7 -3z"/>
<path d="M2700 731 c0 -34 4 -51 15 -55 17 -6 21 -66 4 -66 -7 0 -9 11 -5 30
5 27 3 30 -20 30 -24 0 -24 0 -8 -32 17 -33 17 -33 -3 -15 -11 9 -22 14 -26
11 -9 -9 37 -44 57 -44 10 0 16 -9 17 -22 1 -13 5 -3 10 22 5 25 7 56 4 68 -4
17 -2 22 6 16 8 -4 9 -3 5 4 -4 7 -16 12 -26 12 -17 0 -18 6 -13 45 3 29 1 45
-6 45 -7 0 -11 -20 -11 -49z"/>
<path d="M1761 744 c0 -11 3 -14 6 -6 3 7 2 16 -1 19 -3 4 -6 -2 -5 -13z"/>
<path d="M2742 730 c0 -19 2 -27 5 -17 2 9 2 25 0 35 -3 9 -5 1 -5 -18z"/>
<path d="M1205 740 l-30 -6 28 -6 c15 -3 30 -1 33 4 9 13 3 15 -31 8z"/>
<path d="M1790 740 c0 -5 5 -10 11 -10 5 0 7 5 4 10 -3 6 -8 10 -11 10 -2 0
-4 -4 -4 -10z"/>
<path d="M1147 733 c-4 -3 -7 -20 -7 -36 0 -38 14 -26 16 14 2 31 1 33 -9 22z"/>
<path d="M2660 731 c0 -6 4 -13 10 -16 6 -3 7 1 4 9 -7 18 -14 21 -14 7z"/>
<path d="M1250 714 c0 -12 -6 -15 -21 -11 -16 4 -18 3 -9 -8 8 -10 16 -10 35
-1 29 13 31 21 10 30 -9 3 -15 0 -15 -10z"/>
<path d="M1899 713 c-13 -16 -12 -17 4 -4 16 13 21 21 13 21 -2 0 -10 -8 -17
-17z"/>
<path d="M1500 713 c0 -6 8 -17 18 -24 16 -13 16 -13 2 6 -8 11 -16 22 -17 24
-2 2 -3 0 -3 -6z"/>
<path d="M1693 704 c-18 -9 -30 -20 -27 -25 3 -5 12 -2 20 6 20 19 28 19 20
-1 -3 -8 -2 -13 3 -10 7 5 23 47 18 46 -1 0 -17 -8 -34 -16z"/>
<path d="M2509 696 c-26 -36 -14 -52 37 -48 27 3 51 -1 60 -9 14 -11 18 -10
30 6 12 17 11 21 -14 37 -15 10 -35 17 -44 14 -9 -2 -25 2 -35 9 -15 11 -20 9
-34 -9z m36 -16 c3 -5 -1 -10 -10 -10 -9 0 -13 5 -10 10 3 6 8 10 10 10 2 0 7
-4 10 -10z m48 -7 c-7 -2 -19 -2 -25 0 -7 3 -2 5 12 5 14 0 19 -2 13 -5z"/>
<path d="M742 698 c-16 -16 -15 -26 4 -45 11 -12 21 -14 31 -7 9 5 15 13 14
17 0 4 -1 16 -1 27 0 23 -29 27 -48 8z m31 -25 c-3 -7 -9 -10 -14 -7 -14 8
-11 21 5 21 8 0 12 -6 9 -14z"/>
<path d="M1190 696 c0 -4 7 -14 15 -22 8 -9 15 -11 15 -6 0 5 -7 15 -15 22 -8
7 -15 9 -15 6z"/>
<path d="M1417 693 c-4 -3 -7 -11 -7 -17 0 -6 5 -5 12 2 6 6 9 14 7 17 -3 3
-9 2 -12 -2z"/>
<path d="M1805 690 c-3 -5 -1 -10 4 -10 6 0 11 5 11 10 0 6 -2 10 -4 10 -3 0
-8 -4 -11 -10z"/>
<path d="M2865 690 c-3 -6 1 -7 9 -4 18 7 21 14 7 14 -6 0 -13 -4 -16 -10z"/>
<path d="M1445 680 c-3 -5 -1 -10 4 -10 6 0 11 5 11 10 0 6 -2 10 -4 10 -3 0
-8 -4 -11 -10z"/>
<path d="M1880 680 c0 -6 7 -10 15 -10 8 0 15 2 15 4 0 2 -7 6 -15 10 -8 3
-15 1 -15 -4z"/>
<path d="M1500 661 c0 -25 6 -27 13 -6 4 8 2 17 -3 20 -6 4 -10 -3 -10 -14z"/>
<path d="M1596 661 c10 -10 21 -17 23 -15 6 6 -20 34 -32 34 -6 0 -2 -8 9 -19z"/>
<path d="M1726 665 c-3 -8 -1 -15 4 -15 6 0 10 7 10 15 0 8 -2 15 -4 15 -2 0
-6 -7 -10 -15z"/>
<path d="M440 661 c0 -6 4 -13 10 -16 6 -3 7 1 4 9 -7 18 -14 21 -14 7z"/>
<path d="M1779 654 c-10 -12 -14 -12 -21 -2 -6 9 -7 5 -3 -9 4 -14 2 -23 -5
-23 -6 0 -9 -4 -5 -10 6 -10 40 19 47 41 3 10 6 9 11 -3 4 -12 -6 -27 -30 -48
-19 -17 -33 -33 -31 -36 3 -2 13 4 24 14 10 10 28 16 39 15 20 -3 20 -3 0 7
-20 9 -20 9 1 15 15 5 20 13 17 25 -7 25 -29 32 -44 14z"/>
<path d="M2447 643 c-9 -20 -9 -27 0 -30 7 -3 9 -12 6 -21 -3 -9 -3 -14 2 -10
4 4 17 2 29 -4 21 -11 21 -11 2 10 -10 12 -16 28 -13 37 4 8 2 15 -3 15 -5 0
-7 7 -4 15 10 26 -6 16 -19 -12z"/>
<path d="M2772 650 c0 -14 2 -19 5 -12 2 6 2 18 0 25 -3 6 -5 1 -5 -13z"/>
<path d="M1135 649 c15 -20 19 -69 5 -69 -7 0 -6 -5 2 -14 11 -12 14 -10 19
13 7 34 -3 74 -22 79 -10 4 -11 2 -4 -9z"/>
<path d="M1307 654 c-4 -4 -1 -14 6 -22 10 -13 8 -14 -11 -8 -27 9 -29 0 -3
-13 14 -8 20 -7 24 2 6 16 -7 50 -16 41z"/>
<path d="M1426 644 c-8 -22 -4 -25 11 -9 7 8 9 16 4 19 -5 3 -12 -1 -15 -10z"/>
<path d="M1855 650 c-3 -5 -1 -10 4 -10 6 0 11 5 11 10 0 6 -2 10 -4 10 -3 0
-8 -4 -11 -10z"/>
<path d="M1180 646 c0 -2 7 -7 16 -10 8 -3 12 -2 9 4 -6 10 -25 14 -25 6z"/>
<path d="M1340 635 c7 -8 17 -15 22 -15 6 0 5 7 -2 15 -7 8 -17 15 -22 15 -6
0 -5 -7 2 -15z"/>
<path d="M1523 635 c-6 -6 -7 -18 -3 -25 6 -9 10 -7 15 9 8 27 4 33 -12 16z"/>
<path d="M2987 643 c-2 -5 -1 -19 4 -33 7 -23 7 -23 8 8 1 31 -3 40 -12 25z"/>
<path d="M629 632 c7 -5 11 -14 7 -20 -3 -5 1 -12 9 -15 11 -5 12 -1 6 15 -4
12 -14 24 -22 26 -12 3 -12 2 0 -6z"/>
<path d="M1625 630 c-11 -18 -13 -84 -4 -101 6 -11 4 -21 -6 -29 -8 -7 -15
-18 -15 -24 0 -6 9 0 19 13 10 13 23 21 29 17 6 -3 14 -1 18 5 4 7 3 9 -2 6
-6 -3 -15 -3 -20 1 -14 9 -26 85 -13 76 10 -6 51 38 42 46 -2 3 -13 -6 -25
-20 -19 -24 -20 -25 -15 -2 5 24 2 28 -8 12z"/>
<path d="M1390 612 c6 -13 14 -21 18 -18 3 4 -2 14 -12 24 -18 16 -18 16 -6
-6z"/>
<path d="M1700 615 c-7 -8 -16 -12 -21 -9 -5 3 -9 -2 -9 -10 0 -9 4 -16 8 -16
12 0 46 39 40 45 -3 3 -11 -1 -18 -10z"/>
<path d="M1910 624 c0 -7 27 -34 34 -34 4 0 1 9 -6 20 -12 19 -28 27 -28 14z"/>
<path d="M2188 624 c-4 -5 0 -18 8 -29 15 -20 17 -12 5 19 -4 11 -10 15 -13
10z"/>
<path d="M2491 614 c0 -11 3 -14 6 -6 3 7 2 16 -1 19 -3 4 -6 -2 -5 -13z"/>
<path d="M2527 624 c-9 -10 3 -53 25 -93 11 -19 17 -43 15 -53 -3 -10 -2 -18
3 -18 16 0 19 44 5 71 -13 24 -13 28 1 33 22 9 26 7 18 -6 -4 -6 -3 -8 4 -4 6
3 13 2 17 -4 8 -14 34 11 28 27 -3 7 -1 13 5 13 6 0 12 -6 15 -12 2 -7 8 -10
12 -5 5 4 5 10 2 14 -8 8 -96 11 -94 3 3 -8 -11 -10 -28 -4 -10 4 -13 13 -10
25 6 18 -5 26 -18 13z"/>
<path d="M1225 600 c10 -11 20 -18 23 -16 5 6 -23 36 -34 36 -4 0 1 -9 11 -20z"/>
<path d="M1450 616 c0 -2 8 -10 18 -17 15 -13 16 -12 3 4 -13 16 -21 21 -21
13z"/>
<path d="M2605 610 c3 -5 11 -10 16 -10 6 0 7 5 4 10 -3 6 -11 10 -16 10 -6 0
-7 -4 -4 -10z"/>
<path d="M2912 600 c0 -14 2 -19 5 -12 2 6 2 18 0 25 -3 6 -5 1 -5 -13z"/>
<path d="M1330 606 c0 -2 8 -10 18 -17 15 -13 16 -12 3 4 -13 16 -21 21 -21
13z"/>
<path d="M1588 585 c2 -14 6 -25 8 -25 2 0 4 11 4 25 0 14 -4 25 -9 25 -4 0
-6 -11 -3 -25z"/>
<path d="M2759 598 c-6 -85 -5 -96 8 -91 8 3 12 12 9 19 -3 8 1 14 9 14 16 0
20 12 8 24 -4 4 -8 15 -8 23 0 20 -25 30 -26 11z"/>
<path d="M585 590 c3 -5 8 -10 11 -10 2 0 4 5 4 10 0 6 -5 10 -11 10 -5 0 -7
-4 -4 -10z"/>
<path d="M1370 594 c1 -27 60 -69 60 -44 0 15 -18 21 -23 8 -4 -9 -6 -7 -6 3
-1 9 -8 22 -16 29 -8 7 -15 9 -15 4z"/>
<path d="M1539 598 c-1 -2 -2 -18 -4 -36 -2 -29 -1 -31 10 -15 9 12 10 20 3
24 -6 4 -7 12 -4 18 4 6 5 11 2 11 -3 0 -6 -1 -7 -2z"/>
<path d="M1981 584 c0 -11 3 -14 6 -6 3 7 2 16 -1 19 -3 4 -6 -2 -5 -13z"/>
<path d="M2407 593 c-4 -3 -7 -11 -7 -17 0 -6 5 -5 12 2 6 6 9 14 7 17 -3 3
-9 2 -12 -2z"/>
<path d="M540 581 c0 -5 -13 -18 -29 -27 -16 -10 -31 -28 -34 -40 -6 -36 5
-38 19 -4 7 16 24 35 39 42 26 12 32 23 15 33 -5 3 -10 2 -10 -4z"/>
<path d="M1300 581 c0 -5 6 -14 14 -20 12 -10 13 -8 9 8 -5 21 -23 30 -23 12z"/>
<path d="M1440 583 c1 -14 30 -48 30 -34 0 7 -7 19 -15 27 -8 9 -15 12 -15 7z"/>
<path d="M1950 580 c0 -5 5 -10 10 -10 6 0 10 5 10 10 0 6 -4 10 -10 10 -5 0
-10 -4 -10 -10z"/>
<path d="M2285 580 c-3 -5 -2 -10 4 -10 5 0 13 5 16 10 3 6 2 10 -4 10 -5 0
-13 -4 -16 -10z"/>
<path d="M645 572 c-6 -5 -30 -15 -54 -22 -69 -22 -82 -77 -20 -84 14 -1 30
-6 37 -10 19 -11 14 2 -8 24 -12 12 -25 18 -30 15 -6 -4 -10 -3 -10 2 1 33 77
62 120 46 19 -7 30 -8 30 -1 0 5 -9 12 -20 15 -11 3 -20 9 -20 14 0 11 -13 12
-25 1z"/>
<path d="M1347 559 c12 -12 24 -21 27 -18 2 2 -8 13 -22 23 l-27 19 22 -24z"/>
<path d="M1709 563 c-13 -16 -12 -17 4 -4 16 13 21 21 13 21 -2 0 -10 -8 -17
-17z"/>
<path d="M2687 566 c-20 -15 -23 -30 -4 -23 9 3 12 -25 11 -127 -1 -96 1 -120
7 -91 12 53 13 58 21 70 4 6 3 17 -3 25 -12 20 -11 70 1 70 6 0 8 -11 4 -27
-4 -16 -3 -24 2 -20 5 5 9 12 9 15 0 4 4 13 8 20 5 7 3 12 -3 12 -7 0 -10 7
-7 14 4 10 1 13 -8 9 -12 -4 -14 1 -9 25 7 35 -4 45 -29 28z"/>
<path d="M460 560 c-12 -8 -11 -10 8 -10 12 0 22 5 22 10 0 13 -11 13 -30 0z"/>
<path d="M1218 556 c-15 -8 -29 -12 -32 -8 -3 3 -6 1 -6 -5 0 -6 8 -14 17 -17
10 -4 14 -4 10 1 -4 4 12 15 35 24 26 11 35 18 23 18 -11 1 -32 -5 -47 -13z"/>
<path d="M2311 563 c4 -22 -3 -34 -23 -42 -13 -5 -17 -10 -10 -15 6 -3 20 4
31 16 22 23 28 48 11 48 -5 0 -9 -3 -9 -7z"/>
<path d="M801 534 c-23 -29 -27 -44 -11 -44 6 0 10 7 10 15 0 9 6 18 14 21 17
6 30 34 16 34 -5 0 -18 -12 -29 -26z"/>
<path d="M1280 542 c-12 -14 -11 -15 8 -10 29 8 68 -37 51 -59 -9 -11 -8 -12
5 -7 9 3 16 8 16 10 0 15 -27 56 -44 68 -18 11 -23 11 -36 -2z"/>
<path d="M1501 552 c-1 -8 -11 -22 -23 -32 -22 -18 -22 -20 -5 -36 9 -10 17
-13 17 -7 0 6 -6 14 -12 16 -9 4 -5 12 11 25 13 10 21 25 18 33 -4 11 -6 11
-6 1z"/>
<path d="M1672 553 c-10 -4 -7 -9 8 -20 12 -8 24 -12 27 -9 3 3 -2 8 -11 12
-9 3 -13 10 -10 15 6 10 5 10 -14 2z"/>
<path d="M1798 553 c7 -3 16 -2 19 1 4 3 -2 6 -13 5 -11 0 -14 -3 -6 -6z"/>
<path d="M2420 541 c0 -11 4 -22 9 -25 5 -3 8 5 7 19 -1 29 -16 34 -16 6z"/>
<path d="M2483 553 c4 -3 2 -12 -4 -19 -15 -18 -2 -54 20 -54 9 0 22 -5 29
-12 17 -17 15 -4 -9 47 -12 25 -26 45 -32 45 -6 0 -7 -3 -4 -7z"/>
<path d="M2926 552 c-3 -6 -1 -12 5 -14 6 -2 15 -19 20 -38 l9 -35 -5 39 c-5
42 -18 65 -29 48z"/>
<path d="M1552 526 c-12 -27 -7 -56 10 -56 6 0 5 6 -2 15 -10 12 -10 18 0 30
6 8 10 19 8 26 -2 6 -9 0 -16 -15z"/>
<path d="M2270 540 c0 -5 5 -10 10 -10 6 0 10 5 10 10 0 6 -4 10 -10 10 -5 0
-10 -4 -10 -10z"/>
<path d="M2825 540 c3 -5 8 -10 11 -10 2 0 4 5 4 10 0 6 -5 10 -11 10 -5 0 -7
-4 -4 -10z"/>
<path d="M396 528 c-2 -7 -11 -36 -20 -65 -17 -56 -21 -109 -8 -117 5 -3 6 8
4 25 -3 17 3 40 13 56 10 14 19 46 20 70 2 42 -2 55 -9 31z"/>
<path d="M1240 533 c0 -11 71 -56 78 -49 3 3 0 6 -6 6 -7 0 -12 5 -12 11 0 5
5 7 12 3 7 -4 8 -3 4 5 -4 6 -12 9 -17 5 -5 -3 -21 2 -34 10 -14 9 -25 13 -25
9z"/>
<path d="M2617 533 c-12 -3 -15 -8 -8 -16 9 -12 11 -18 11 -37 0 -5 8 -6 18
-3 15 6 15 5 4 -10 -14 -16 -9 -37 9 -37 12 0 12 67 0 74 -5 4 -12 0 -14 -6
-4 -10 -6 -9 -6 1 -1 8 7 20 17 27 18 14 7 17 -31 7z"/>
<path d="M727 502 c-29 -30 -33 -42 -17 -42 6 0 10 7 10 16 0 10 6 14 15 10 8
-3 19 3 25 14 16 30 -5 32 -33 2z"/>
<path d="M1137 508 c-9 -31 -2 -33 11 -3 6 14 8 25 3 25 -5 0 -11 -10 -14 -22z"/>
<path d="M1410 526 c0 -2 8 -10 18 -17 15 -13 16 -12 3 4 -13 16 -21 21 -21
13z"/>
<path d="M2370 519 c0 -5 5 -7 10 -4 6 3 10 8 10 11 0 2 -4 4 -10 4 -5 0 -10
-5 -10 -11z"/>
<path d="M610 508 c-13 -8 -12 -9 2 -5 22 8 42 -15 26 -31 -8 -8 -8 -12 -1
-12 20 0 35 26 21 37 -25 19 -34 22 -48 11z"/>
<path d="M817 504 c3 -7 9 -14 14 -14 14 0 10 17 -5 23 -10 4 -13 1 -9 -9z"/>
<path d="M1580 505 c-7 -8 -9 -15 -6 -15 4 0 14 7 22 15 9 8 11 15 6 15 -5 0
-15 -7 -22 -15z"/>
<path d="M1709 503 c-13 -15 -12 -15 9 -4 23 12 28 21 13 21 -5 0 -15 -7 -22
-17z"/>
<path d="M1770 511 c0 -10 19 -25 25 -20 1 2 -3 10 -11 17 -8 7 -14 8 -14 3z"/>
<path d="M2154 504 c3 -9 6 -29 6 -46 0 -23 4 -29 15 -24 12 4 15 -3 13 -33
-1 -40 7 -61 23 -61 6 0 6 7 1 18 -5 9 -9 32 -10 50 -3 38 -32 112 -45 112 -5
0 -6 -7 -3 -16z"/>
<path d="M2320 499 c-13 -24 -4 -41 10 -19 10 16 13 40 5 40 -2 0 -9 -9 -15
-21z"/>
<path d="M1090 490 c6 -11 13 -20 16 -20 2 0 0 9 -6 20 -6 11 -13 20 -16 20
-2 0 0 -9 6 -20z"/>
<path d="M1676 493 c-6 -14 -5 -15 5 -6 7 7 10 15 7 18 -3 3 -9 -2 -12 -12z"/>
<path d="M1223 470 l-32 -29 33 6 c20 3 36 1 40 -6 4 -6 16 -11 27 -11 26 0
22 34 -4 36 -12 1 -13 1 -2 -3 16 -5 21 -23 6 -23 -5 0 -20 6 -34 13 -24 13
-25 15 -9 30 27 28 9 18 -25 -13z"/>
<path d="M1743 488 c-6 -7 -13 -20 -18 -28 -6 -12 -5 -12 5 -3 7 6 18 9 25 7
7 -3 16 -1 20 5 3 7 0 8 -10 5 -11 -5 -14 -2 -9 10 7 19 0 21 -13 4z"/>
<path d="M1958 493 c7 -3 16 -2 19 1 4 3 -2 6 -13 5 -11 0 -14 -3 -6 -6z"/>
<path d="M2380 491 c0 -5 5 -13 10 -16 6 -3 10 -2 10 4 0 5 -4 13 -10 16 -5 3
-10 2 -10 -4z"/>
<path d="M1444 473 c5 -25 -4 -29 -22 -11 -9 9 -12 9 -12 1 0 -13 38 -28 47
-19 4 3 1 16 -6 28 l-12 23 5 -22z"/>
<path d="M1639 467 c-8 -11 -23 -20 -32 -20 -9 0 -14 -4 -11 -9 3 -5 1 -15 -5
-22 -9 -10 -8 -15 4 -20 9 -3 13 -2 10 4 -8 13 31 54 44 46 14 -9 24 11 14 28
-6 11 -11 10 -24 -7z"/>
<path d="M1919 468 c8 -23 41 -38 41 -19 0 6 -7 8 -15 5 -10 -4 -15 0 -15 15
0 12 -4 21 -10 21 -6 0 -6 -9 -1 -22z"/>
<path d="M2766 474 c-5 -14 -4 -15 9 -4 17 14 19 20 6 20 -5 0 -12 -7 -15 -16z"/>
<path d="M2821 481 c-7 -5 -11 -15 -9 -22 3 -10 8 -7 17 9 13 24 12 26 -8 13z"/>
<path d="M803 473 c-7 -2 -13 -14 -13 -24 0 -11 -4 -17 -10 -14 -5 3 -10 -1
-10 -11 0 -11 4 -14 13 -7 6 5 27 9 45 9 17 -1 32 2 32 7 0 4 -13 7 -30 7 -16
0 -30 5 -30 10 0 6 7 10 15 10 8 0 15 5 15 10 0 11 -7 12 -27 3z"/>
<path d="M1687 458 c-8 -30 -1 -35 12 -9 6 11 7 22 2 25 -5 3 -11 -4 -14 -16z"/>
<path d="M1819 464 c-5 -6 -6 -14 -2 -17 3 -4 1 -7 -5 -7 -7 0 -12 -4 -12 -9
0 -5 9 -7 20 -4 16 4 18 8 9 19 -9 11 -6 14 14 14 14 0 28 3 30 8 8 11 -44 8
-54 -4z"/>
<path d="M2002 471 c-11 -7 -11 -9 0 -14 9 -3 15 1 15 9 0 8 -1 14 -1 14 -1 0
-7 -4 -14 -9z"/>
<path d="M2135 470 c3 -5 8 -10 11 -10 2 0 4 5 4 10 0 6 -5 10 -11 10 -5 0 -7
-4 -4 -10z"/>
<path d="M737 463 c-4 -3 -7 -11 -7 -17 0 -6 5 -5 12 2 6 6 9 14 7 17 -3 3 -9
2 -12 -2z"/>
<path d="M1128 458 c-6 -16 23 -47 109 -120 40 -33 71 -64 68 -68 -3 -4 3 -7
13 -6 9 0 16 -4 15 -11 -2 -8 4 -10 14 -6 12 5 14 3 8 -7 -5 -8 -4 -11 3 -7
12 8 44 -2 38 -12 -3 -4 3 -7 12 -8 9 -1 45 -8 80 -16 64 -15 82 -9 36 11 -14
7 -23 8 -19 2 9 -14 -1 -13 -35 5 -17 9 -30 13 -30 9 0 -7 -121 59 -147 80
-10 9 -27 22 -38 31 -17 12 -18 16 -5 24 8 6 11 13 7 18 -5 4 -12 1 -16 -6 -7
-11 -18 -5 -50 24 -23 21 -41 44 -41 51 0 18 -17 27 -22 12z"/>
<path d="M2217 463 c-10 -10 -8 -43 2 -43 6 0 13 5 16 10 3 6 2 10 -4 10 -6 0
-8 7 -5 15 6 16 2 20 -9 8z"/>
<path d="M2486 455 c4 -8 8 -15 10 -15 2 0 4 7 4 15 0 8 -4 15 -10 15 -5 0 -7
-7 -4 -15z"/>
<path d="M1504 444 c21 -20 20 -31 -1 -43 -10 -6 -13 -11 -7 -11 5 0 16 6 23
13 10 10 17 6 37 -17 14 -15 28 -25 32 -22 3 4 -10 22 -31 41 -20 19 -37 39
-37 44 0 6 -7 11 -16 11 -14 0 -14 -1 0 -16z"/>
<path d="M1743 440 c-24 -10 -43 -25 -43 -32 0 -8 3 -9 8 -3 4 6 27 20 52 32
56 27 41 30 -17 3z"/>
<path d="M2385 443 c2 -10 4 -20 4 -23 2 -7 21 23 21 33 0 4 -6 7 -14 7 -8 0
-13 -8 -11 -17z"/>
<path d="M505 441 c-3 -5 -1 -12 5 -16 5 -3 10 1 10 9 0 18 -6 21 -15 7z"/>
<path d="M664 432 c-26 -24 -59 -32 -92 -22 -21 5 -34 3 -51 -11 -13 -11 -18
-19 -13 -19 6 0 14 5 18 11 4 7 21 9 40 6 19 -3 47 -2 63 3 30 8 84 50 65 50
-6 0 -19 -8 -30 -18z"/>
<path d="M1384 435 c14 -14 15 -20 4 -26 -10 -7 -9 -9 4 -9 9 0 20 5 23 10 3
6 1 10 -4 10 -6 0 -10 5 -8 12 1 6 -7 14 -17 16 -19 4 -19 3 -2 -13z"/>
<path d="M2145 400 c3 -30 10 -75 15 -100 6 -25 11 -61 13 -80 2 -20 6 -40 10
-46 3 -6 13 -44 23 -85 9 -41 21 -78 26 -84 7 -7 8 -3 4 10 -21 74 -38 152
-57 267 -23 143 -43 211 -34 118z"/>
<path d="M2326 436 c3 -9 11 -16 16 -16 13 0 5 23 -10 28 -7 2 -10 -2 -6 -12z"/>
<path d="M2454 438 c3 -10 1 -18 -4 -18 -6 0 -10 -8 -10 -17 0 -16 1 -16 16
-1 13 13 14 20 4 34 -10 17 -11 17 -6 2z"/>
<path d="M2520 435 c-7 -9 -8 -15 -2 -15 5 0 12 7 16 15 3 8 4 15 2 15 -2 0
-9 -7 -16 -15z"/>
<path d="M2750 434 c0 -8 5 -12 10 -9 6 4 8 11 5 16 -9 14 -15 11 -15 -7z"/>
<path d="M1465 431 c-3 -5 -1 -12 5 -16 5 -3 10 -1 10 5 0 6 5 8 10 5 6 -3 10
-1 10 4 0 13 -27 14 -35 2z"/>
<path d="M1866 425 c-11 -8 -17 -17 -14 -20 2 -3 13 4 23 15 21 23 18 25 -9 5z"/>
<path d="M1910 431 c0 -5 5 -13 10 -16 6 -3 10 -2 10 4 0 5 -4 13 -10 16 -5 3
-10 2 -10 -4z"/>
<path d="M2580 430 c0 -5 5 -10 10 -10 6 0 10 5 10 10 0 6 -4 10 -10 10 -5 0
-10 -4 -10 -10z"/>
<path d="M2842 426 c-10 -14 -9 -25 4 -51 20 -37 9 -90 -27 -136 -18 -24 -42
-50 -51 -57 -23 -17 -23 -44 1 -59 25 -16 50 7 28 26 -8 6 -17 8 -20 4 -4 -3
-7 -1 -7 5 0 7 6 12 13 12 15 0 97 79 97 93 0 4 5 5 12 1 6 -4 8 -3 4 4 -3 6
-2 13 4 17 11 7 9 113 -3 132 -10 16 -45 22 -55 9z m44 -69 c1 -26 -2 -44 -7
-41 -5 3 -8 15 -7 27 1 12 -2 33 -6 46 -6 17 -5 22 5 19 9 -3 15 -22 15 -51z"/>
<path d="M706 414 c-10 -26 0 -28 23 -5 20 20 20 21 2 21 -10 0 -22 -7 -25
-16z"/>
<path d="M1110 421 c0 -5 7 -12 16 -15 14 -5 15 -4 4 9 -14 17 -20 19 -20 6z"/>
<path d="M1221 416 c-9 -11 -9 -16 0 -22 8 -4 9 -3 5 4 -5 8 0 12 13 12 12 0
21 -4 21 -10 0 -5 7 -10 15 -10 12 0 12 3 -2 20 -20 24 -36 25 -52 6z"/>
<path d="M1640 415 c-20 -24 -6 -28 15 -5 10 11 13 20 8 20 -6 0 -16 -7 -23
-15z"/>
<path d="M2410 421 c0 -5 5 -13 10 -16 6 -3 10 -2 10 4 0 5 -4 13 -10 16 -5 3
-10 2 -10 -4z"/>
<path d="M2790 419 c-14 -6 -32 -8 -40 -6 -11 3 -15 -5 -15 -30 0 -38 -1 -38
44 -15 21 10 36 26 38 40 1 12 2 22 0 21 -1 0 -13 -5 -27 -10z"/>
<path d="M428 391 c-3 -17 -1 -31 3 -31 13 0 22 41 11 52 -6 6 -11 -1 -14 -21z"/>
<path d="M1754 398 l-19 -23 23 19 c21 18 27 26 19 26 -2 0 -12 -10 -23 -22z"/>
<path d="M2551 404 c0 -11 3 -14 6 -6 3 7 2 16 -1 19 -3 4 -6 -2 -5 -13z"/>
<path d="M833 385 c0 -14 4 -25 9 -25 7 0 7 -4 0 -12 -6 -7 -9 -32 -8 -56 1
-24 -1 -45 -6 -48 -14 -9 -9 -26 6 -21 19 8 11 -41 -11 -65 -9 -10 -11 -18 -6
-18 6 0 13 7 16 14 3 8 22 18 42 22 40 7 61 -5 77 -46 10 -24 11 -24 18 -5 9
23 3 38 -11 30 -13 -9 -11 9 3 23 9 9 9 15 0 24 -9 9 -20 9 -48 -1 -29 -10
-38 -10 -47 -1 -9 10 -9 11 1 6 6 -4 12 -2 12 3 0 6 -4 11 -10 11 -5 0 -6 7
-3 17 4 11 3 14 -5 9 -7 -4 -12 -3 -12 3 0 5 -3 17 -6 25 -5 12 -2 15 12 10
15 -5 16 -4 8 5 -7 8 -9 25 -4 47 5 19 4 32 -1 28 -5 -3 -9 6 -9 20 0 14 -4
26 -9 26 -5 0 -8 -11 -8 -25z"/>
<path d="M1309 396 c6 -7 8 -16 4 -19 -3 -4 1 -7 10 -7 24 0 21 27 -4 33 -15
4 -18 2 -10 -7z"/>
<path d="M1720 399 c0 -5 5 -7 10 -4 6 3 10 8 10 11 0 2 -4 4 -10 4 -5 0 -10
-5 -10 -11z"/>
<path d="M1815 399 c-11 -17 1 -21 15 -4 8 9 8 15 2 15 -6 0 -14 -5 -17 -11z"/>
<path d="M1874 396 c-10 -8 -16 -18 -11 -22 4 -4 7 -2 7 4 0 7 7 12 15 12 8 0
15 5 15 10 0 13 -3 13 -26 -4z"/>
<path d="M2350 400 c0 -5 5 -10 10 -10 6 0 10 5 10 10 0 6 -4 10 -10 10 -5 0
-10 -4 -10 -10z"/>
<path d="M2515 382 c-1 -15 2 -29 5 -32 3 -3 11 -17 17 -32 8 -17 20 -28 32
-28 11 0 22 -6 25 -12 3 -7 4 0 2 15 -2 17 2 31 9 33 23 9 4 43 -29 50 -17 3
-38 12 -46 19 -13 12 -15 10 -15 -13z m83 -39 c2 -7 -1 -13 -8 -13 -6 0 -8 5
-5 10 3 6 1 10 -4 10 -6 0 -11 -6 -11 -14 0 -8 -5 -18 -12 -22 -8 -5 -9 -2 -4
11 4 11 1 22 -6 27 -9 6 -3 8 16 6 16 -2 31 -9 34 -15z"/>
<path d="M397 379 c-3 -12 -2 -31 3 -43 10 -26 68 -91 76 -84 6 7 -34 86 -48
94 -6 4 -4 -4 3 -17 11 -22 11 -23 -5 -10 -12 10 -17 25 -14 48 4 37 -7 45
-15 12z"/>
<path d="M762 375 c-7 -14 -12 -37 -12 -51 0 -13 -7 -40 -14 -59 -11 -26 -12
-35 -3 -35 8 0 7 -4 -2 -9 -11 -7 -12 -13 -3 -23 7 -9 8 -19 2 -28 -6 -8 -10
-31 -10 -50 0 -20 -6 -42 -12 -49 -10 -11 -10 -14 0 -18 6 -3 12 -16 12 -29 0
-13 5 -24 10 -24 12 0 11 -7 16 105 2 50 4 96 5 103 3 16 16 16 21 0 3 -7 7
-2 10 10 4 12 2 20 -3 16 -14 -8 -23 27 -12 45 5 9 9 24 7 34 -1 9 1 17 4 17
4 0 7 16 8 35 1 41 -8 45 -24 10z"/>
<path d="M1105 390 c3 -5 8 -10 11 -10 2 0 4 5 4 10 0 6 -5 10 -11 10 -5 0 -7
-4 -4 -10z"/>
<path d="M1670 389 c0 -5 5 -7 10 -4 6 3 10 8 10 11 0 2 -4 4 -10 4 -5 0 -10
-5 -10 -11z"/>
<path d="M2225 380 c3 -14 7 -32 7 -40 0 -8 6 -21 12 -29 9 -11 7 -13 -9 -8
-34 11 -48 -5 -37 -44 8 -25 10 -28 11 -12 1 13 12 30 26 39 20 13 23 21 18
47 -3 18 -13 41 -21 52 -14 19 -14 19 -7 -5z"/>
<path d="M344 360 c2 -19 11 -59 19 -87 8 -29 11 -53 6 -53 -4 0 -13 17 -19
38 -11 40 -30 75 -30 55 0 -21 39 -103 50 -103 5 0 10 -14 10 -31 0 -16 4 -28
9 -24 5 3 12 1 16 -5 3 -5 1 -10 -5 -10 -6 0 2 -14 20 -31 17 -17 37 -44 46
-60 8 -16 19 -27 25 -24 5 4 -6 27 -26 53 -46 61 -76 118 -81 154 -2 17 -6 40
-9 52 -5 15 -1 12 13 -9 11 -16 31 -42 45 -57 14 -15 23 -28 22 -30 -2 -2 10
-4 26 -4 37 -2 37 4 0 19 -36 15 -121 119 -132 161 l-8 31 3 -35z"/>
<path d="M1080 389 c0 -16 28 -58 34 -52 4 4 9 -3 13 -15 3 -12 9 -22 13 -22
12 0 70 -57 70 -69 0 -13 10 -14 28 -2 10 6 7 12 -12 25 -14 9 -53 44 -86 79
-33 34 -60 59 -60 56z"/>
<path d="M1467 370 c-3 -11 -2 -20 3 -20 12 0 21 28 11 35 -5 2 -11 -4 -14
-15z"/>
<path d="M1516 374 c-24 -24 -17 -45 19 -57 17 -6 17 -5 -2 9 -30 22 -30 41 0
21 23 -15 24 -15 19 9 -6 32 -17 38 -36 18z"/>
<path d="M1756 369 c-11 -10 -17 -21 -14 -24 2 -3 15 6 28 20 27 29 14 33 -14
4z"/>
<path d="M1826 364 c-10 -14 -16 -30 -14 -35 2 -6 11 6 21 25 20 42 16 47 -7
10z"/>
<path d="M2660 380 c0 -5 5 -10 10 -10 6 0 10 5 10 10 0 6 -4 10 -10 10 -5 0
-10 -4 -10 -10z"/>
<path d="M694 369 c-9 -16 2 -22 21 -11 15 8 16 10 1 15 -8 3 -18 2 -22 -4z"/>
<path d="M1351 366 c-23 -13 -23 -13 10 -14 21 0 28 2 20 7 -11 7 -11 10 0 14
8 3 10 6 4 6 -5 0 -21 -6 -34 -13z"/>
<path d="M1403 361 c0 -11 7 -17 14 -14 18 7 33 -5 26 -23 -4 -11 -8 -12 -19
-3 -12 9 -13 9 -9 -3 8 -20 84 -60 98 -51 6 4 8 0 4 -10 -4 -11 -2 -14 9 -10
8 3 14 -1 14 -10 0 -9 3 -18 8 -21 4 -2 6 13 4 35 -2 21 -8 41 -12 44 -5 3 -6
-5 -3 -17 5 -21 2 -20 -21 7 -14 17 -25 33 -26 38 0 4 -5 7 -11 7 -6 0 -1 -13
11 -30 26 -36 12 -40 -17 -6 -13 15 -20 35 -19 50 2 15 -1 29 -5 32 -5 3 -9 0
-9 -6 0 -7 -6 -8 -19 0 -16 8 -20 7 -18 -9z"/>
<path d="M1596 348 c-8 -53 -5 -69 11 -57 10 9 13 6 13 -14 0 -14 4 -28 9 -31
12 -8 9 47 -3 56 -6 4 -5 13 3 22 7 8 11 21 8 28 -3 8 -6 6 -6 -5 -1 -11 -6
-15 -13 -11 -6 4 -8 3 -5 -2 3 -6 1 -16 -4 -24 -8 -11 -9 -3 -5 28 4 23 4 42
2 42 -3 0 -7 -15 -10 -32z"/>
<path d="M1882 367 c-8 -10 -6 -13 7 -13 11 0 17 6 14 13 -3 7 -6 13 -8 13 -1
0 -7 -6 -13 -13z"/>
<path d="M2390 363 c0 -7 -4 -13 -10 -13 -5 0 -10 -5 -10 -11 0 -5 4 -8 9 -5
5 3 12 -1 15 -10 11 -27 7 -36 -14 -31 -22 6 -37 -8 -20 -18 7 -4 7 -12 0 -25
-6 -11 -6 -21 -1 -24 5 -4 12 7 16 24 4 16 11 30 17 30 6 0 8 -7 4 -15 -4 -11
1 -15 19 -15 14 0 25 5 25 10 0 18 18 10 23 -10 3 -11 10 -20 16 -20 8 0 7 9
-2 28 -8 15 -12 33 -9 41 4 11 -2 13 -26 8 -26 -5 -30 -3 -35 21 -4 18 0 31
10 39 13 10 13 12 -6 10 -11 -1 -21 -7 -21 -14z m40 -83 c0 -5 -4 -10 -9 -10
-6 0 -13 5 -16 10 -3 6 1 10 9 10 9 0 16 -4 16 -10z"/>
<path d="M2450 375 c0 -5 5 -17 10 -25 5 -8 10 -10 10 -5 0 6 -5 17 -10 25 -5
8 -10 11 -10 5z"/>
<path d="M2480 365 c0 -7 6 -18 14 -24 11 -10 14 -7 12 12 -1 24 -26 35 -26
12z"/>
<path d="M893 355 c0 -8 4 -12 9 -9 5 3 6 10 3 15 -9 13 -12 11 -12 -6z"/>
<path d="M1177 359 c7 -7 15 -10 18 -7 3 3 -2 9 -12 12 -14 6 -15 5 -6 -5z"/>
<path d="M2341 356 c-8 -10 -9 -16 -1 -21 6 -3 8 -11 5 -16 -4 -5 3 -9 15 -9
20 0 20 1 5 16 -14 15 -14 17 2 30 16 12 16 13 2 14 -9 0 -22 -6 -28 -14z"/>
<path d="M1288 353 c7 -3 16 -2 19 1 4 3 -2 6 -13 5 -11 0 -14 -3 -6 -6z"/>
<path d="M1661 344 c0 -11 3 -14 6 -6 3 7 2 16 -1 19 -3 4 -6 -2 -5 -13z"/>
<path d="M1680 349 c0 -5 5 -7 10 -4 6 3 10 8 10 11 0 2 -4 4 -10 4 -5 0 -10
-5 -10 -11z"/>
<path d="M2632 333 c2 -55 -2 -79 -11 -64 -15 24 -24 -25 -11 -64 9 -28 9 -41
-3 -65 -9 -16 -12 -30 -7 -30 12 0 21 15 47 80 28 67 30 95 7 86 -13 -5 -14
-3 -6 7 19 22 22 65 5 71 -22 9 -22 8 -21 -21z m21 -95 c-4 -7 -8 -19 -9 -26
-5 -29 -14 -24 -14 6 0 22 5 32 16 32 10 0 12 -5 7 -12z"/>
<path d="M2787 353 c-4 -3 -7 -13 -7 -22 1 -13 3 -13 11 2 11 19 8 33 -4 20z"/>
<path d="M2270 329 c7 -11 14 -19 16 -16 7 7 -7 37 -17 37 -6 0 -5 -9 1 -21z"/>
<path d="M602 306 c2 -19 1 -34 -2 -34 -20 2 -21 -4 -4 -18 18 -15 18 -15 -11
-10 l-30 5 27 -12 c22 -10 25 -16 16 -25 -9 -9 -9 -17 -1 -34 7 -13 16 -36 22
-53 9 -27 9 -26 4 13 -4 28 -2 42 6 42 6 0 11 -6 11 -14 0 -8 10 -18 22 -22
16 -5 27 -1 40 16 23 28 23 32 -2 48 -15 9 -26 10 -38 3 -14 -9 -14 -11 -2
-12 8 -1 21 -1 28 0 14 2 16 -18 3 -38 -12 -18 -42 -6 -35 14 4 10 0 15 -11
15 -11 0 -16 7 -15 23 1 12 1 27 0 32 -2 9 -4 29 -8 78 -1 9 -7 17 -13 17 -7
0 -10 -13 -7 -34z"/>
<path d="M1213 323 c9 -10 31 -26 49 -36 l33 -18 -25 20 c-14 12 -32 28 -41
36 -22 21 -36 19 -16 -2z"/>
<path d="M1770 329 c0 -5 5 -7 10 -4 6 3 10 8 10 11 0 2 -4 4 -10 4 -5 0 -10
-5 -10 -11z"/>
<path d="M1875 330 c-3 -6 1 -7 9 -4 18 7 21 14 7 14 -6 0 -13 -4 -16 -10z"/>
<path d="M1907 285 c-31 -30 -72 -58 -89 -63 -17 -4 -33 -13 -34 -20 -1 -7 0
-8 3 -2 2 5 15 10 27 10 12 0 46 18 75 40 34 26 57 37 61 30 4 -7 16 -3 33 10
15 12 31 19 36 15 5 -3 13 0 17 6 4 8 3 9 -4 5 -7 -4 -12 -1 -12 8 0 23 -8 20
-35 -11 -13 -16 -27 -24 -32 -20 -4 5 0 13 10 18 17 10 24 29 10 29 -5 -1 -34
-25 -66 -55z"/>
<path d="M1209 292 c52 -47 166 -115 242 -143 36 -13 88 -21 154 -24 l100 -4
-87 9 c-48 4 -113 16 -145 25 -58 17 -210 100 -274 151 -19 14 -14 8 10 -14z"/>
<path d="M1380 320 c0 -5 5 -10 11 -10 5 0 7 5 4 10 -3 6 -8 10 -11 10 -2 0
-4 -4 -4 -10z"/>
<path d="M1690 319 c0 -5 5 -7 10 -4 6 3 10 8 10 11 0 2 -4 4 -10 4 -5 0 -10
-5 -10 -11z"/>
<path d="M2298 309 c-10 -10 -18 -25 -18 -33 0 -10 -8 -13 -27 -10 -16 2 -23
1 -17 -3 13 -10 27 -41 30 -68 1 -11 9 -38 18 -60 14 -38 15 -39 16 -11 0 16
-7 38 -17 48 -15 17 -15 19 2 38 10 11 15 23 12 27 -4 3 -7 1 -7 -5 0 -7 -5
-12 -11 -12 -6 0 -9 8 -7 18 2 9 9 16 16 15 7 -2 9 4 5 15 -4 12 -3 14 5 7 13
-12 16 -44 9 -88 -2 -15 -1 -30 3 -32 4 -3 8 -15 8 -27 0 -13 7 -39 15 -58
l16 -35 -4 35 c-9 69 -10 75 -19 82 -5 3 -4 18 3 35 13 31 12 54 -2 64 -5 3
-4 23 1 43 12 41 -1 48 -30 15z"/>
<path d="M2480 313 c0 -28 16 -47 34 -40 23 9 20 22 -9 41 -23 15 -25 15 -25
-1z"/>
<path d="M1080 288 c0 -36 4 -35 14 5 4 16 2 27 -4 27 -5 0 -10 -14 -10 -32z"/>
<path d="M2028 271 c-30 -31 -43 -51 -35 -54 8 -3 6 -10 -8 -21 -11 -8 -15
-16 -9 -16 6 0 19 9 29 20 12 14 14 20 5 20 -7 0 2 15 21 34 18 19 38 32 44
29 5 -4 7 -3 3 2 -4 4 -3 14 3 22 6 7 8 13 3 13 -5 0 -30 -22 -56 -49z"/>
<path d="M2699 271 c-9 -25 -24 -63 -33 -84 -9 -22 -12 -36 -7 -32 6 3 11 14
12 23 0 9 8 -8 18 -38 19 -60 48 -117 36 -70 -28 103 -29 121 -14 181 19 72
10 86 -12 20z"/>
<path d="M2950 305 c-7 -53 -7 -66 2 -57 5 5 8 25 5 43 -2 19 -5 25 -7 14z"/>
<path d="M961 294 c0 -11 3 -14 6 -6 3 7 2 16 -1 19 -3 4 -6 -2 -5 -13z"/>
<path d="M1013 295 c-9 -10 -9 -16 -2 -20 14 -9 22 0 17 18 -2 13 -5 13 -15 2z"/>
<path d="M1730 295 c-11 -13 -10 -14 4 -9 9 3 16 10 16 15 0 13 -6 11 -20 -6z"/>
<path d="M1850 300 c-9 -6 -10 -10 -3 -10 6 0 15 5 18 10 8 12 4 12 -15 0z"/>
<path d="M2770 285 c-5 -13 -18 -33 -29 -44 -18 -18 -38 -61 -27 -61 11 0 53
47 73 82 18 30 19 37 7 42 -9 4 -18 -3 -24 -19z"/>
<path d="M1350 290 c0 -5 7 -7 15 -4 8 4 15 8 15 10 0 2 -7 4 -15 4 -8 0 -15
-4 -15 -10z"/>
<path d="M1571 290 c-1 -24 25 -64 33 -51 4 6 3 11 -3 11 -5 0 -14 12 -19 28
-6 15 -11 20 -11 12z"/>
<path d="M1874 284 c-18 -14 -18 -15 4 -4 12 6 22 13 22 15 0 8 -5 6 -26 -11z"/>
<path d="M802 270 c0 -14 2 -19 5 -12 2 6 2 18 0 25 -3 6 -5 1 -5 -13z"/>
<path d="M1974 259 c-35 -38 -106 -75 -199 -105 -80 -26 -67 -32 16 -8 91 27
185 85 212 131 13 21 3 15 -29 -18z"/>
<path d="M2736 273 c-6 -14 -5 -15 5 -6 7 7 10 15 7 18 -3 3 -9 -2 -12 -12z"/>
<path d="M271 258 c0 -13 4 -32 9 -43 7 -16 9 -13 9 17 1 20 -3 40 -9 43 -6 3
-10 -4 -9 -17z"/>
<path d="M1130 270 c0 -5 5 -10 10 -10 6 0 10 5 10 10 0 6 -4 10 -10 10 -5 0
-10 -4 -10 -10z"/>
<path d="M1444 265 c11 -8 24 -15 30 -15 5 0 1 7 -10 15 -10 8 -23 14 -29 14
-5 0 -1 -6 9 -14z"/>
<path d="M1775 260 c-3 -5 -1 -10 4 -10 6 0 11 5 11 10 0 6 -2 10 -4 10 -3 0
-8 -4 -11 -10z"/>
<path d="M913 245 c-3 -9 -3 -18 -1 -21 3 -3 8 4 11 16 6 23 -1 27 -10 5z"/>
<path d="M1166 247 c3 -10 9 -15 12 -12 3 3 0 11 -7 18 -10 9 -11 8 -5 -6z"/>
<path d="M2046 245 c-3 -8 -1 -15 3 -15 5 0 11 7 15 15 3 8 1 15 -3 15 -5 0
-11 -7 -15 -15z"/>
<path d="M2520 250 c0 -5 6 -10 13 -10 6 0 2 -8 -10 -18 -19 -15 -20 -20 -9
-41 9 -15 16 -20 20 -12 4 6 4 16 1 21 -4 6 -1 17 5 25 7 8 10 22 6 30 -6 17
-26 21 -26 5z"/>
<path d="M1000 242 c0 -5 7 -9 15 -9 8 0 12 4 9 9 -3 4 -9 8 -15 8 -5 0 -9 -4
-9 -8z"/>
<path d="M1899 233 c-13 -16 -12 -17 4 -4 16 13 21 21 13 21 -2 0 -10 -8 -17
-17z"/>
<path d="M1111 224 c0 -11 3 -14 6 -6 3 7 2 16 -1 19 -3 4 -6 -2 -5 -13z"/>
<path d="M1142 220 c0 -14 2 -19 5 -12 2 6 2 18 0 25 -3 6 -5 1 -5 -13z"/>
<path d="M1250 215 c-10 -12 -10 -15 1 -17 8 0 19 -2 24 -3 6 -2 16 -3 23 -4
6 0 12 -6 12 -12 0 -6 -9 -8 -21 -4 -15 5 -19 4 -14 -5 4 -7 17 -9 31 -6 14 4
37 -2 61 -15 50 -28 128 -49 178 -47 32 1 34 2 10 5 -82 10 -197 54 -265 103
-24 17 -29 18 -40 5z"/>
<path d="M2223 193 c-10 -40 15 -165 36 -186 15 -15 14 -3 -4 39 -8 20 -13 40
-10 44 3 5 1 11 -4 14 -10 7 -8 57 3 99 5 16 4 27 -2 27 -5 0 -14 -17 -19 -37z"/>
<path d="M2877 223 c-4 -3 -7 -11 -7 -17 0 -6 5 -5 12 2 6 6 9 14 7 17 -3 3
-9 2 -12 -2z"/>
<path d="M1651 206 c-1 -16 -7 -18 -46 -13 -28 4 -45 3 -45 -4 0 -6 28 -9 70
-8 39 1 70 6 70 10 0 5 -9 9 -19 9 -11 0 -22 6 -24 13 -3 6 -6 4 -6 -7z"/>
<path d="M2936 181 c-3 -21 -9 -47 -13 -57 -4 -11 -3 -15 5 -10 11 7 28 93 20
102 -3 2 -8 -13 -12 -35z"/>
<path d="M1190 191 c0 -11 -12 -29 -27 -41 -26 -20 -26 -20 -3 -8 14 7 28 11
33 10 4 -1 7 12 7 28 0 17 -2 30 -5 30 -3 0 -5 -9 -5 -19z"/>
<path d="M1945 201 c-6 -5 -32 -21 -60 -36 -27 -14 -39 -23 -25 -19 48 13 130
64 103 64 -5 0 -13 -4 -18 -9z"/>
<path d="M2035 199 c4 -6 -2 -13 -14 -16 -30 -8 -26 -21 4 -15 25 4 37 42 14
42 -5 0 -7 -5 -4 -11z"/>
<path d="M1011 184 c0 -11 3 -14 6 -6 3 7 2 16 -1 19 -3 4 -6 -2 -5 -13z"/>
<path d="M2100 196 c0 -2 7 -9 15 -16 9 -7 15 -8 15 -2 0 5 -7 12 -15 16 -8 3
-15 4 -15 2z"/>
<path d="M2355 190 c-4 -6 1 -7 11 -3 13 5 15 2 9 -18 -7 -23 -7 -23 11 -6 17
15 17 19 4 27 -19 12 -27 12 -35 0z"/>
<path d="M2452 181 c7 -11 16 -17 20 -14 10 5 -10 33 -23 33 -5 0 -4 -9 3 -19z"/>
<path d="M772 170 c-12 -19 -11 -20 8 -8 20 13 27 28 12 28 -4 0 -13 -9 -20
-20z"/>
<path d="M1110 180 c0 -5 5 -10 10 -10 6 0 10 5 10 10 0 6 -4 10 -10 10 -5 0
-10 -4 -10 -10z"/>
<path d="M1141 174 c0 -11 3 -14 6 -6 3 7 2 16 -1 19 -3 4 -6 -2 -5 -13z"/>
<path d="M2585 181 c-3 -6 -9 -9 -13 -7 -4 2 -8 -15 -8 -38 -1 -22 1 -31 3
-18 3 13 9 19 15 16 7 -5 9 0 6 14 -3 12 -1 23 6 25 6 2 8 7 5 11 -4 4 -10 2
-14 -3z"/>
<path d="M2856 173 c-6 -14 -5 -15 5 -6 7 7 10 15 7 18 -3 3 -9 -2 -12 -12z"/>
<path d="M1234 155 c1 -27 10 -32 22 -13 4 6 2 14 -4 16 -7 2 -10 8 -6 13 3 5
1 9 -4 9 -6 0 -9 -11 -8 -25z"/>
<path d="M1485 170 c27 -12 43 -12 25 0 -8 5 -22 9 -30 9 -10 0 -8 -3 5 -9z"/>
<path d="M1092 150 c0 -14 2 -19 5 -12 2 6 2 18 0 25 -3 6 -5 1 -5 -13z"/>
<path d="M1645 160 l-80 -6 75 -2 c41 -1 82 3 90 8 8 5 11 9 5 8 -5 -1 -46 -5
-90 -8z"/>
<path d="M2031 151 c-9 -6 -10 -11 -2 -15 6 -4 9 -12 6 -17 -4 -5 -2 -9 4 -9
15 0 23 18 14 34 -5 10 -13 12 -22 7z"/>
<path d="M2070 151 c0 -6 4 -13 10 -16 6 -3 7 1 4 9 -7 18 -14 21 -14 7z"/>
<path d="M1115 141 c-3 -5 -1 -12 5 -16 5 -3 10 1 10 9 0 18 -6 21 -15 7z"/>
<path d="M1945 140 c26 -11 55 -12 55 -2 0 4 -17 8 -37 9 -29 0 -33 -1 -18 -7z"/>
<path d="M2250 136 c0 -8 5 -18 10 -21 6 -3 10 1 10 9 0 8 -4 18 -10 21 -5 3
-10 -1 -10 -9z"/>
<path d="M2502 136 c3 -13 -19 -55 -39 -74 -7 -7 -13 -19 -13 -26 0 -7 -10
-18 -22 -24 l-23 -11 24 0 c13 -1 30 7 38 17 14 16 14 16 9 0 -3 -11 0 -18 8
-18 22 0 25 11 10 35 -13 19 -13 25 -1 37 8 7 17 20 20 28 4 8 5 -3 2 -25 l-5
-40 15 35 c18 39 13 77 -10 77 -8 0 -14 -5 -13 -11z"/>
<path d="M2881 115 c-11 -19 -17 -35 -13 -35 5 0 16 16 25 35 9 19 15 35 13
35 -2 0 -13 -16 -25 -35z"/>
<path d="M2959 124 c-5 -15 -12 -31 -15 -35 -3 -5 1 -9 9 -9 9 0 16 13 19 35
5 42 1 44 -13 9z"/>
<path d="M2991 134 c0 -11 3 -14 6 -6 3 7 2 16 -1 19 -3 4 -6 -2 -5 -13z"/>
<path d="M1336 125 c-9 -26 -7 -32 5 -12 6 10 9 21 6 23 -2 3 -7 -2 -11 -11z"/>
<path d="M1791 129 c-13 -5 -21 -12 -18 -15 3 -3 18 1 34 10 31 17 21 20 -16
5z"/>
<path d="M2358 133 c6 -2 12 -11 12 -19 0 -8 4 -14 9 -14 5 0 7 9 4 20 -3 11
-13 20 -22 19 -10 0 -11 -2 -3 -6z"/>
<path d="M2853 132 c-7 -4 -9 -13 -4 -21 6 -9 10 -7 14 8 3 12 4 21 4 21 -1 0
-7 -4 -14 -8z"/>
<path d="M782 118 c-16 -16 -15 -25 2 -25 8 0 17 9 19 19 6 21 -4 23 -21 6z"/>
<path d="M858 119 c-22 -12 -24 -39 -3 -39 18 0 20 -17 3 -23 -22 -8 0 -19 23
-12 12 4 17 10 12 14 -15 10 -24 53 -10 48 7 -2 12 -9 12 -14 0 -23 16 -26 22
-4 4 17 8 19 14 9 7 -10 9 -10 9 0 0 7 -12 17 -26 22 -31 12 -34 12 -56 -1z"/>
<path d="M1000 115 c0 -9 6 -12 15 -9 8 4 12 10 9 15 -8 14 -24 10 -24 -6z"/>
<path d="M1291 123 c-2 -22 11 -43 27 -43 14 0 14 1 0 13 -9 6 -18 19 -21 27
-3 8 -6 10 -6 3z"/>
<path d="M2172 105 c0 -16 2 -22 5 -12 2 9 2 23 0 30 -3 6 -5 -1 -5 -18z"/>
<path d="M647 114 c-10 -10 -9 -33 4 -77 14 -51 28 -38 22 20 -6 49 -14 68
-26 57z"/>
<path d="M1092 100 c0 -14 2 -19 5 -12 2 6 2 18 0 25 -3 6 -5 1 -5 -13z"/>
<path d="M1140 112 c0 -4 9 -13 20 -20 23 -14 26 -7 6 14 -16 15 -26 18 -26 6z"/>
<path d="M1190 111 c0 -5 7 -11 15 -15 8 -3 15 -1 15 3 0 5 -7 11 -15 15 -8 3
-15 1 -15 -3z"/>
<path d="M1361 104 c0 -11 3 -14 6 -6 3 7 2 16 -1 19 -3 4 -6 -2 -5 -13z"/>
<path d="M1740 110 c0 -5 5 -10 10 -10 6 0 10 5 10 10 0 6 -4 10 -10 10 -5 0
-10 -4 -10 -10z"/>
<path d="M1955 111 c3 -5 -5 -17 -17 -25 -12 -9 -18 -16 -12 -16 12 0 44 32
44 43 0 4 -5 7 -11 7 -5 0 -8 -4 -4 -9z"/>
<path d="M536 97 c3 -10 9 -15 12 -12 3 3 0 11 -7 18 -10 9 -11 8 -5 -6z"/>
<path d="M1242 90 c0 -14 2 -19 5 -12 2 6 2 18 0 25 -3 6 -5 1 -5 -13z"/>
<path d="M1645 100 c3 -5 8 -10 11 -10 2 0 4 5 4 10 0 6 -5 10 -11 10 -5 0 -7
-4 -4 -10z"/>
<path d="M1691 107 c2 -1 11 -8 20 -15 13 -9 16 -9 16 3 0 8 -9 15 -20 15 -11
0 -18 -1 -16 -3z"/>
<path d="M1997 99 c6 -6 9 -19 6 -28 -4 -14 -3 -14 6 -1 9 13 11 13 11 -2 0
-10 5 -18 10 -18 6 0 10 3 10 8 0 14 -31 52 -43 52 -8 0 -8 -3 0 -11z"/>
<path d="M2074 94 c3 -8 6 -18 6 -20 0 -3 5 -2 10 1 15 9 12 22 -6 29 -12 5
-15 2 -10 -10z"/>
<path d="M2796 94 c-9 -24 -7 -28 9 -14 17 14 20 30 6 30 -5 0 -12 -7 -15 -16z"/>
<path d="M960 75 c-6 -16 -8 -36 -4 -44 5 -11 9 -4 16 23 10 47 3 60 -12 21z"/>
<path d="M1015 91 c-3 -5 -1 -12 5 -16 5 -3 10 1 10 9 0 18 -6 21 -15 7z"/>
<path d="M1770 75 c1 -26 2 -28 11 -12 8 14 8 22 0 30 -8 8 -11 3 -11 -18z"/>
<path d="M2589 95 c-4 -5 -10 -25 -14 -43 -3 -17 -11 -32 -16 -32 -5 0 -9 -4
-9 -10 0 -5 10 -8 23 -6 15 2 23 11 25 30 4 35 -1 73 -9 61z"/>
<path d="M2900 76 c-15 -41 -10 -56 6 -17 8 18 13 36 10 39 -3 2 -10 -7 -16
-22z"/>
<path d="M401 85 c0 -20 47 -87 53 -76 4 6 2 16 -3 23 -6 7 -20 24 -31 38 -10
14 -19 21 -19 15z"/>
<path d="M1473 74 c16 -8 31 -13 35 -10 8 8 1 12 -33 20 l-30 6 28 -16z"/>
<path d="M2298 72 c-4 -12 -2 -20 3 -16 5 3 9 -1 9 -9 0 -19 32 -47 54 -47 15
0 16 2 2 15 -8 8 -19 15 -23 15 -5 0 -16 14 -25 32 -14 30 -15 30 -20 10z"/>
<path d="M1143 61 c0 -11 5 -18 9 -15 4 3 5 11 1 19 -7 21 -12 19 -10 -4z"/>
<path d="M1181 57 c-13 -21 -12 -21 5 -5 10 10 16 20 13 22 -3 3 -11 -5 -18
-17z"/>
<path d="M1350 71 c0 -5 7 -14 15 -21 16 -14 18 -10 9 14 -6 17 -24 22 -24 7z"/>
<path d="M2815 60 c-10 -11 -15 -23 -12 -27 7 -6 36 25 37 40 0 11 -6 8 -25
-13z"/>
<path d="M2992 55 c0 -16 2 -22 5 -12 2 9 2 23 0 30 -3 6 -5 -1 -5 -18z"/>
<path d="M2541 54 c0 -11 3 -14 6 -6 3 7 2 16 -1 19 -3 4 -6 -2 -5 -13z"/>
<path d="M2841 44 c-14 -31 -4 -53 14 -27 13 19 16 53 5 53 -4 0 -12 -12 -19
-26z"/>
<path d="M913 32 c1 -31 27 -48 27 -17 0 8 -4 15 -9 15 -5 0 -12 8 -14 18 -3
9 -5 2 -4 -16z"/>
<path d="M1098 53 c7 -3 16 -2 19 1 4 3 -2 6 -13 5 -11 0 -14 -3 -6 -6z"/>
<path d="M1245 50 c-3 -5 -2 -10 4 -10 5 0 13 5 16 10 3 6 2 10 -4 10 -5 0
-13 -4 -16 -10z"/>
<path d="M1871 44 c0 -11 3 -14 6 -6 3 7 2 16 -1 19 -3 4 -6 -2 -5 -13z"/>
<path d="M2945 49 c-11 -16 -1 -19 13 -3 7 8 8 14 3 14 -5 0 -13 -5 -16 -11z"/>
<path d="M1695 40 c-3 -5 -1 -10 4 -10 6 0 11 5 11 10 0 6 -2 10 -4 10 -3 0
-8 -4 -11 -10z"/>
<path d="M1925 34 c9 -9 19 -13 23 -10 3 4 0 11 -8 16 -24 15 -33 11 -15 -6z"/>
<path d="M1965 40 c3 -5 8 -10 11 -10 2 0 4 5 4 10 0 6 -5 10 -11 10 -5 0 -7
-4 -4 -10z"/>
<path d="M2188 25 c2 -14 6 -25 8 -25 2 0 4 11 4 25 0 14 -4 25 -9 25 -4 0 -6
-11 -3 -25z"/>
<path d="M1306 25 c-11 -8 -17 -17 -14 -20 2 -3 13 4 23 15 21 23 18 25 -9 5z"/>
<path d="M1400 30 c0 -5 5 -10 11 -10 5 0 7 5 4 10 -3 6 -8 10 -11 10 -2 0 -4
-4 -4 -10z"/>
<path d="M1121 14 c0 -11 3 -14 6 -6 3 7 2 16 -1 19 -3 4 -6 -2 -5 -13z"/>
<path d="M1256 21 c-4 -7 -5 -15 -2 -18 9 -9 19 4 14 18 -4 11 -6 11 -12 0z"/>
<path d="M2015 20 c-3 -5 -1 -10 4 -10 6 0 11 5 11 10 0 6 -2 10 -4 10 -3 0
-8 -4 -11 -10z"/>
<path d="M2151 14 c0 -11 3 -14 6 -6 3 7 2 16 -1 19 -3 4 -6 -2 -5 -13z"/>
<path d="M1345 10 c3 -5 8 -10 11 -10 2 0 4 5 4 10 0 6 -5 10 -11 10 -5 0 -7
-4 -4 -10z"/>
</g>
</svg>
