<?xml version="1.0" standalone="no"?>
<!DOCTYPE svg PUBLIC "-//W3C//DTD SVG 20010904//EN"
 "http://www.w3.org/TR/2001/REC-SVG-20010904/DTD/svg10.dtd">
<svg version="1.0" xmlns="http://www.w3.org/2000/svg"
 width="300.000000pt" height="300.000000pt" viewBox="0 0 300.000000 300.000000"
 preserveAspectRatio="xMidYMid meet">
<metadata>
Created by potrace 1.10, written by Peter Selinger 2001-2011
</metadata>
<g transform="translate(0.000000,300.000000) scale(0.100000,-0.100000)"
fill="#000000" stroke="none">
<path d="M230 2943 c0 -31 2 -54 4 -52 8 8 12 109 4 109 -4 0 -8 -25 -8 -57z"/>
<path d="M318 2808 c2 -106 7 -211 11 -233 l8 -40 11 39 c10 35 9 111 -3 221
-2 22 -4 77 -4 123 -1 59 -5 82 -13 82 -10 0 -12 -43 -10 -192z"/>
<path d="M450 2974 c0 -14 4 -23 10 -19 11 7 14 -77 3 -89 -11 -10 -12 -37 -2
-30 5 3 9 -7 8 -23 0 -25 -1 -26 -9 -8 -6 13 -9 -19 -8 -93 1 -79 6 -116 15
-124 9 -7 13 -7 13 1 0 6 -6 11 -12 11 -10 0 -10 2 -1 8 9 6 18 94 14 142 -1
13 -2 13 -11 0 -8 -13 -10 -12 -10 3 0 9 5 17 10 17 6 0 10 45 10 115 0 96 -3
115 -15 115 -9 0 -15 -10 -15 -26z"/>
<path d="M1290 2996 c0 -2 7 -6 15 -10 8 -3 15 -1 15 4 0 6 -7 10 -15 10 -8 0
-15 -2 -15 -4z"/>
<path d="M1500 2835 c0 -140 -2 -164 -14 -153 -7 7 -11 18 -9 25 6 16 -16 55
-28 48 -5 -4 -9 -1 -9 5 0 21 -19 -1 -38 -43 -12 -26 -17 -56 -14 -75 5 -35
-2 -40 -24 -17 -26 25 -47 19 -40 -11 5 -17 1 -35 -9 -51 -9 -13 -14 -30 -11
-36 2 -7 5 -4 5 5 1 21 21 35 21 14 0 -8 -7 -21 -15 -30 -16 -16 -20 -31 -7
-22 13 8 -3 -75 -21 -110 -23 -45 -45 -60 -65 -47 -10 6 -16 19 -15 29 1 11 0
13 -3 6 -3 -6 -11 -9 -17 -5 -7 4 -5 -4 4 -17 11 -16 26 -25 43 -25 28 1 31
-9 17 -47 -13 -35 -23 -116 -11 -98 8 12 10 12 16 -3 12 -32 22 -17 11 18 -7
25 -7 42 1 60 7 14 12 41 12 59 0 18 3 36 7 39 7 8 33 -58 33 -85 0 -9 5 -20
10 -23 12 -8 41 55 32 70 -6 10 -11 80 -15 218 -2 64 1 77 13 75 11 -2 16 -20
18 -72 2 -43 8 -74 17 -83 8 -8 15 -21 15 -29 0 -8 5 -14 11 -14 5 0 8 -4 4
-9 -3 -5 0 -13 7 -17 7 -4 10 -4 6 1 -4 4 -2 15 5 23 9 12 9 16 -1 19 -6 3 -9
10 -6 15 4 6 3 8 -3 5 -5 -3 -17 3 -26 14 -14 15 -16 32 -12 78 2 33 10 71 16
85 12 25 23 31 74 38 23 4 30 36 40 177 3 52 6 97 7 100 3 33 -4 61 -17 61
-13 0 -15 -25 -15 -165z m-47 -127 c-3 -18 -10 -35 -15 -36 -4 -2 -15 -10 -23
-19 -13 -13 -15 -12 -15 6 0 15 6 21 21 21 18 0 20 4 15 26 -5 17 -3 23 4 19
5 -3 10 -1 10 4 0 6 2 11 5 11 2 0 2 -15 -2 -32z m-114 -375 c1 -37 0 -65 -4
-62 -9 10 -15 140 -6 135 4 -3 9 -36 10 -73z"/>
<path d="M1839 2988 c-7 -172 11 -311 25 -187 10 83 3 192 -11 197 -7 2 -13
-2 -14 -10z"/>
<path d="M1950 2880 c0 -73 4 -120 10 -120 6 0 10 15 11 33 1 28 1 180 -1 200
0 4 -4 7 -10 7 -6 0 -10 -47 -10 -120z"/>
<path d="M2161 2909 c-1 -68 2 -90 11 -87 9 3 14 33 16 91 3 72 1 87 -11 87
-12 0 -15 -17 -16 -91z"/>
<path d="M2267 2979 c-4 -13 -2 -28 3 -33 14 -14 24 19 12 40 -8 14 -10 13
-15 -7z"/>
<path d="M2350 2936 c0 -67 19 -96 21 -31 1 19 1 47 2 62 1 15 -4 28 -11 31
-9 3 -12 -15 -12 -62z"/>
<path d="M2672 2941 c4 -82 25 -90 24 -8 -1 40 -5 62 -14 65 -10 3 -13 -10
-10 -57z"/>
<path d="M2790 2785 c0 -118 3 -215 8 -215 4 0 7 97 7 215 0 118 -3 215 -7
215 -5 0 -8 -97 -8 -215z"/>
<path d="M2060 2935 c0 -27 3 -45 7 -42 7 8 6 77 -2 85 -3 3 -5 -16 -5 -43z"/>
<path d="M1373 2959 c9 -5 17 -15 17 -20 0 -6 -4 -8 -9 -5 -5 3 -11 -8 -13
-25 -3 -16 -1 -32 4 -35 5 -3 6 -9 4 -13 -3 -4 -1 -13 5 -21 6 -11 9 -3 11 28
1 23 2 56 3 72 2 24 -2 30 -19 30 -19 -1 -19 -2 -3 -11z"/>
<path d="M2266 2922 c-3 -5 1 -9 9 -9 8 0 12 4 9 9 -3 4 -7 8 -9 8 -2 0 -6 -4
-9 -8z"/>
<path d="M1653 2889 c-2 -23 3 -25 10 -4 4 8 3 16 -1 19 -4 3 -9 -4 -9 -15z"/>
<path d="M935 2890 c-4 -6 -12 -7 -18 -3 -9 5 -9 3 0 -8 6 -8 15 -42 19 -77 3
-34 11 -65 15 -68 5 -3 9 -26 9 -51 0 -58 7 -53 13 10 2 31 -1 51 -9 58 -7 6
-13 23 -13 37 1 43 -3 112 -7 112 -1 0 -6 -5 -9 -10z"/>
<path d="M571 2874 c0 -11 3 -14 6 -6 3 7 2 16 -1 19 -3 4 -6 -2 -5 -13z"/>
<path d="M231 2853 c-1 -18 4 -33 9 -33 12 0 12 17 0 45 -7 17 -9 15 -9 -12z"/>
<path d="M2058 2863 c-6 -24 6 -61 15 -46 4 7 2 15 -4 19 -8 4 -7 9 2 15 10 6
11 11 3 19 -8 8 -13 6 -16 -7z"/>
<path d="M1033 2782 c-14 -107 -25 -133 -34 -82 l-6 35 -2 -43 c0 -24 3 -41 8
-37 11 6 25 -30 17 -43 -3 -5 -1 -22 3 -38 6 -23 9 -14 9 41 1 39 6 94 12 123
6 29 10 72 8 95 -2 33 -6 21 -15 -51z"/>
<path d="M2687 2823 c3 -48 13 -55 13 -10 0 20 -4 38 -8 41 -5 3 -7 -11 -5
-31z"/>
<path d="M1201 2826 c-8 -9 -8 -16 -2 -20 5 -4 13 -2 16 4 4 7 13 4 23 -8 10
-10 24 -21 32 -24 9 -3 10 -7 3 -11 -6 -4 -18 -1 -26 7 -11 11 -17 12 -27 3
-9 -9 -14 -9 -17 -1 -7 20 -63 -14 -63 -37 0 -11 5 -17 10 -14 6 3 11 -4 11
-17 1 -20 2 -21 6 -3 3 11 12 28 21 38 33 37 114 -4 127 -64 4 -16 11 -29 17
-29 6 0 8 11 3 28 -3 15 -9 42 -12 60 -3 17 -9 32 -14 32 -5 0 -6 -8 -3 -17 5
-15 4 -16 -5 -3 -6 8 -11 22 -11 31 0 9 -7 22 -15 29 -13 11 -15 10 -9 -6 4
-14 -1 -11 -18 9 -27 31 -31 32 -47 13z"/>
<path d="M1166 2804 c-4 -9 -4 -19 -1 -22 2 -3 7 3 11 12 4 9 4 19 1 22 -2 3
-7 -3 -11 -12z"/>
<path d="M1400 2813 c5 -2 8 -9 5 -13 -3 -5 0 -12 6 -15 7 -5 10 -1 7 10 -1
10 -9 20 -16 21 -7 1 -8 0 -2 -3z"/>
<path d="M236 2658 c2 -84 4 -156 4 -160 0 -5 4 -8 10 -8 6 0 8 23 5 58 -3 31
-7 101 -9 156 -7 156 -15 123 -10 -46z"/>
<path d="M2165 2800 c3 -5 8 -10 11 -10 2 0 4 5 4 10 0 6 -5 10 -11 10 -5 0
-7 -4 -4 -10z"/>
<path d="M1099 2713 c49 -43 52 -48 47 -82 l-5 -36 13 35 14 35 -51 48 c-28
26 -56 47 -62 47 -5 0 14 -21 44 -47z"/>
<path d="M881 2669 c-1 -39 -4 -75 -7 -80 -3 -5 0 -9 5 -9 7 0 11 24 11 59 0
33 5 63 10 66 14 9 28 -34 24 -75 -3 -30 -2 -32 5 -10 15 42 13 110 -3 110 -8
0 -21 3 -29 6 -12 4 -15 -8 -16 -67z"/>
<path d="M1266 2692 c13 -26 24 -63 25 -82 0 -29 2 -31 9 -15 15 35 11 68 -12
102 -35 50 -48 47 -22 -5z"/>
<path d="M2677 2671 c-4 -16 -14 -31 -24 -34 -17 -4 -17 -5 0 -6 9 0 17 -9 18
-18 1 -25 7 -596 10 -904 1 -141 -1 -261 -5 -268 -4 -6 -2 -11 4 -11 6 0 9 -4
5 -9 -3 -6 -2 -28 1 -51 15 -91 24 -8 19 175 -2 105 -5 407 -5 673 -1 437 -6
538 -23 453z"/>
<path d="M790 2670 c0 -5 7 -7 15 -4 8 4 15 8 15 10 0 2 -7 4 -15 4 -8 0 -15
-4 -15 -10z"/>
<path d="M1195 2660 c-16 -7 -13 -9 17 -9 24 -1 41 -7 47 -18 6 -10 11 -13 11
-6 0 11 -38 44 -50 42 -3 0 -14 -4 -25 -9z"/>
<path d="M1481 2613 c5 -21 9 -56 10 -78 l2 -40 7 40 7 40 1 -35 c1 -19 -1
-60 -5 -90 -6 -49 -8 -52 -14 -25 -4 18 -7 -8 -8 -68 -1 -102 9 -118 29 -49
16 53 26 302 12 302 -6 0 -14 9 -17 20 -3 11 -12 20 -20 20 -10 0 -11 -9 -4
-37z"/>
<path d="M1533 2630 c8 -14 17 -35 20 -45 5 -20 5 -20 6 0 0 11 -9 31 -20 45
l-21 25 15 -25z"/>
<path d="M1170 2621 c0 -5 7 -24 15 -42 l15 -34 -6 39 c-5 28 -4 37 5 32 6 -4
11 -14 11 -22 0 -10 5 -12 13 -8 8 5 8 2 -2 -9 -7 -9 -12 -17 -10 -18 34 -7
36 -6 32 12 -3 10 -1 19 5 19 16 0 24 -54 12 -85 -6 -15 -8 -30 -5 -33 3 -3 5
0 5 7 0 7 4 10 8 7 5 -3 10 19 11 48 2 49 -1 56 -28 75 -29 21 -81 29 -81 12z"/>
<path d="M2400 2600 c-9 -6 -10 -10 -3 -10 6 0 15 5 18 10 8 12 4 12 -15 0z"/>
<path d="M1410 2585 c0 -9 6 -12 15 -9 8 4 22 1 30 -6 10 -8 15 -9 15 -2 0 12
-31 32 -49 32 -6 0 -11 -7 -11 -15z"/>
<path d="M933 2532 c-2 -31 -9 -65 -17 -78 -14 -20 -13 -22 10 -27 24 -4 26
-2 21 22 -3 14 -2 44 2 67 5 26 4 47 -3 56 -9 12 -12 2 -13 -40z"/>
<path d="M1955 2571 c-10 -17 -1 -748 10 -748 10 0 11 714 1 724 -2 3 -2 11 1
19 6 16 -3 19 -12 5z"/>
<path d="M882 2540 c0 -14 2 -19 5 -12 2 6 2 18 0 25 -3 6 -5 1 -5 -13z"/>
<path d="M1414 2530 c3 -19 1 -30 -6 -30 -6 0 -3 -9 8 -21 l18 -20 8 20 c5 14
13 19 24 14 20 -8 13 9 -20 44 -29 31 -40 29 -32 -7z"/>
<path d="M2791 2500 c1 -33 5 -60 9 -60 4 0 7 27 7 60 0 33 -4 60 -9 60 -5 0
-8 -27 -7 -60z"/>
<path d="M1550 2540 c0 -5 5 -10 11 -10 5 0 7 5 4 10 -3 6 -8 10 -11 10 -2 0
-4 -4 -4 -10z"/>
<path d="M1850 2538 c0 -9 -5 -18 -12 -20 -9 -3 -9 -11 1 -35 8 -21 11 -74 9
-171 -1 -78 1 -144 5 -148 8 -9 9 9 9 219 0 87 -3 161 -6 164 -3 4 -6 -1 -6
-9z"/>
<path d="M1170 2533 c0 -5 9 -18 20 -28 20 -18 21 -18 38 -1 16 16 16 17 -1
10 -11 -4 -25 0 -37 11 -11 10 -20 14 -20 8z"/>
<path d="M1017 2523 c-4 -3 -7 -50 -7 -104 0 -69 4 -105 16 -125 15 -28 15
-26 8 41 -4 39 -7 98 -8 133 0 34 -1 62 -1 62 -1 0 -5 -3 -8 -7z m10 -185 c-3
-8 -6 -5 -6 6 -1 11 2 17 5 13 3 -3 4 -12 1 -19z"/>
<path d="M1549 2480 c0 -74 -25 -189 -44 -210 -32 -36 -60 -26 -84 29 -11 27
-21 60 -22 73 0 13 -4 32 -9 43 -16 36 -12 -25 5 -82 19 -62 51 -106 74 -98
15 5 16 -8 5 -178 -7 -100 -10 -184 -8 -186 2 -3 -2 -14 -9 -25 -8 -12 -17
-42 -21 -68 -4 -26 -11 -50 -17 -53 -5 -4 -9 -23 -9 -43 -1 -20 -7 -54 -14
-75 -10 -28 -11 -48 -4 -73 5 -19 6 -45 2 -57 -6 -20 -8 -18 -21 18 -7 22 -20
54 -27 70 -8 17 -18 44 -23 60 l-8 30 -5 -40 c-6 -40 -6 -40 -18 -13 -6 14
-16 29 -21 33 -6 3 -11 11 -11 16 0 6 5 7 12 3 8 -5 9 0 5 17 -4 13 -7 33 -8
44 0 14 -3 11 -10 -10 -5 -16 -7 -49 -4 -72 6 -43 1 -49 -40 -44 -5 1 -1 -6 9
-14 12 -9 22 -11 26 -5 8 13 42 6 74 -15 19 -12 28 -31 36 -73 6 -31 15 -73
19 -92 l9 -35 1 30 c1 17 5 46 11 65 5 19 19 96 30 170 12 74 24 149 27 166
l5 32 59 -40 c33 -22 70 -41 82 -43 12 -3 37 -20 54 -40 18 -19 44 -37 58 -41
18 -5 33 -23 56 -70 16 -35 36 -64 43 -64 22 0 73 -64 104 -130 77 -166 135
-492 149 -825 4 -115 16 -175 34 -175 4 0 3 15 -2 32 -5 18 -9 82 -9 143 -1
60 -7 162 -15 225 -9 77 -10 117 -3 121 7 4 7 9 0 13 -6 3 -14 32 -18 64 -3
31 -10 64 -15 73 -20 38 -49 228 -47 302 2 42 0 77 -4 77 -4 0 -7 10 -7 23 4
91 -4 338 -11 342 -5 3 -7 -102 -5 -232 l3 -238 -27 55 c-39 79 -86 152 -94
144 -3 -4 -12 5 -18 19 -7 15 -15 24 -20 22 -4 -3 -13 11 -19 31 -9 26 -26 44
-61 67 -27 16 -49 35 -50 41 -1 11 -3 90 -7 274 -1 51 -6 92 -12 92 -6 0 -8
-64 -5 -170 3 -103 1 -170 -4 -170 -22 0 -68 23 -93 48 -26 24 -28 32 -29 106
0 47 -4 73 -8 62 -4 -11 -6 -46 -5 -78 3 -52 1 -59 -14 -56 -20 4 -23 52 -10
133 7 42 14 152 17 268 1 15 6 27 12 27 6 0 9 -6 6 -14 -3 -8 1 -22 8 -33 12
-16 14 -14 12 19 -1 21 -7 38 -14 38 -6 0 -9 9 -6 21 4 16 8 17 14 7 5 -8 8 4
8 32 -1 25 4 76 11 114 8 48 8 72 1 79 -8 8 -11 -2 -12 -33z"/>
<path d="M1151 2484 c0 -11 3 -14 6 -6 3 7 2 16 -1 19 -3 4 -6 -2 -5 -13z"/>
<path d="M239 2379 c0 -52 0 -141 1 -199 1 -58 2 -167 2 -242 1 -76 5 -138 10
-138 4 0 8 6 9 13 2 21 -1 266 -6 461 -5 198 -15 266 -16 105z"/>
<path d="M1162 2445 c0 -11 3 -29 8 -40 11 -25 11 1 0 35 -6 20 -8 21 -8 5z"/>
<path d="M1270 2445 c0 -8 5 -15 10 -15 6 0 10 7 10 15 0 8 -4 15 -10 15 -5 0
-10 -7 -10 -15z"/>
<path d="M960 2430 c-6 -12 -9 -26 -6 -33 2 -7 8 -1 13 13 7 22 9 18 14 -25
l6 -50 1 52 c2 57 -11 76 -28 43z"/>
<path d="M2790 2400 c0 -16 3 -30 8 -30 4 0 8 14 8 30 1 17 -2 30 -7 30 -5 0
-9 -13 -9 -30z"/>
<path d="M1265 2389 c-4 -6 -5 -12 -2 -15 2 -3 7 2 10 11 7 17 1 20 -8 4z"/>
<path d="M925 2380 c3 -5 8 -10 11 -10 2 0 4 5 4 10 0 6 -5 10 -11 10 -5 0 -7
-4 -4 -10z"/>
<path d="M326 2119 c-4 -134 -7 -307 -6 -384 1 -77 1 -142 0 -145 -7 -23 -7
-39 1 -34 13 8 11 -10 -3 -24 -9 -9 -9 -15 -2 -20 6 -4 11 -70 12 -177 2 -291
3 -302 12 -280 7 17 4 639 -4 905 -1 41 2 95 7 120 11 56 10 246 -2 267 -5 9
-11 -85 -15 -228z"/>
<path d="M2796 2048 c2 -380 14 -754 24 -738 4 6 6 24 5 40 -1 20 3 30 13 30
11 0 13 7 8 28 -7 26 -7 38 -5 65 1 6 -2 46 -6 87 -4 41 -9 197 -11 345 -3
149 -6 284 -8 300 -1 17 -4 58 -4 93 -1 34 -6 62 -10 62 -5 0 -8 -141 -6 -312z"/>
<path d="M959 2333 c-4 -43 -3 -65 3 -69 4 -3 8 13 8 35 0 23 -2 41 -5 41 -3
0 -5 -3 -6 -7z"/>
<path d="M2941 2315 c0 -5 6 -66 13 -135 27 -234 38 -415 35 -527 -2 -64 0
-105 4 -96 11 19 2 411 -12 564 -9 95 -37 230 -40 194z"/>
<path d="M1013 2265 c0 -22 2 -30 4 -17 2 12 2 30 0 40 -3 9 -5 -1 -4 -23z"/>
<path d="M1390 2268 c0 -7 5 -20 10 -28 8 -12 10 -11 10 7 0 12 -4 25 -10 28
-5 3 -10 0 -10 -7z"/>
<path d="M1568 2264 c-11 -16 -6 -66 5 -55 5 5 7 21 5 37 -2 17 -6 24 -10 18z"/>
<path d="M1290 2225 c0 -38 32 -106 49 -103 9 2 17 11 19 21 2 10 -2 16 -8 15
-7 -2 -17 11 -24 29 -15 42 -36 65 -36 38z"/>
<path d="M1000 2199 c0 -11 4 -18 10 -14 5 3 7 12 3 20 -7 21 -13 19 -13 -6z"/>
<path d="M1387 2180 c-9 -22 -17 -46 -17 -54 0 -8 -7 -16 -15 -20 -17 -6 -22
-116 -5 -116 6 0 10 3 11 8 0 4 2 20 3 35 1 16 8 32 16 37 13 8 12 10 -2 10
-10 0 -18 -5 -18 -12 0 -6 -3 -8 -7 -5 -3 4 1 15 9 24 9 10 22 36 29 58 12 35
14 37 16 15 12 -97 15 -112 23 -100 5 7 4 23 0 36 -5 12 -6 24 -4 27 3 3 -1
26 -8 51 l-13 46 -18 -40z"/>
<path d="M963 2145 c0 -27 2 -38 4 -22 2 15 2 37 0 50 -2 12 -4 0 -4 -28z"/>
<path d="M2359 2158 c-1 -7 0 -17 1 -23 2 -5 4 -106 6 -224 2 -117 5 -216 8
-219 3 -3 6 6 6 20 0 15 6 28 13 31 9 3 9 9 0 24 -7 13 -12 77 -12 177 -1 86
-5 166 -10 178 -4 13 -6 29 -4 36 3 6 2 12 -1 12 -3 0 -7 -6 -7 -12z"/>
<path d="M999 2114 c-2 -66 1 -98 10 -106 3 -4 6 26 6 67 -1 83 -14 116 -16
39z"/>
<path d="M398 2124 c3 -15 8 -22 14 -16 9 9 1 42 -12 42 -4 0 -5 -12 -2 -26z"/>
<path d="M1070 2121 c0 -25 6 -27 13 -6 4 8 2 17 -3 20 -6 4 -10 -3 -10 -14z"/>
<path d="M1267 2091 c-18 -31 -16 -51 6 -51 7 0 6 4 -3 11 -13 9 -13 10 0 6 8
-2 16 -11 18 -20 3 -12 -1 -15 -14 -10 -11 4 -15 3 -11 -4 4 -6 -4 -14 -18
-17 -14 -4 -25 -10 -25 -15 0 -11 19 -9 38 2 6 5 16 6 21 3 11 -7 35 44 32 67
-1 10 2 24 9 31 8 10 7 15 -5 19 -8 4 -14 3 -14 -1 1 -4 0 -18 -1 -32 -2 -21
-4 -20 -9 8 l-6 34 -18 -31z"/>
<path d="M963 2050 c0 -25 2 -35 4 -22 2 12 2 32 0 45 -2 12 -4 2 -4 -23z"/>
<path d="M1090 2085 c0 -5 5 -17 10 -25 5 -8 10 -10 10 -5 0 6 -5 17 -10 25
-5 8 -10 11 -10 5z"/>
<path d="M1191 2074 c0 -11 3 -14 6 -6 3 7 2 16 -1 19 -3 4 -6 -2 -5 -13z"/>
<path d="M2840 2065 c0 -8 4 -15 10 -15 5 0 7 7 4 15 -4 8 -8 15 -10 15 -2 0
-4 -7 -4 -15z"/>
<path d="M1382 2038 c3 -16 1 -28 -3 -28 -5 0 -9 -5 -9 -11 0 -5 5 -7 11 -3 7
4 10 1 7 -7 -3 -8 1 -28 9 -46 15 -38 17 -87 3 -78 -5 3 -10 15 -10 25 0 10
-5 31 -11 47 -8 21 -12 24 -19 13 -6 -10 -4 -20 6 -31 19 -21 18 -35 -1 -19
-12 10 -15 10 -15 -3 0 -9 -5 -19 -11 -22 -6 -5 -9 10 -8 42 3 61 -5 77 -32
63 -22 -12 -26 -32 -4 -24 11 4 15 0 15 -16 0 -16 -4 -20 -16 -16 -9 3 -20 6
-25 6 -6 0 -7 5 -3 11 4 8 -1 9 -17 4 -35 -11 -35 -13 -9 -38 17 -16 20 -17 9
-3 -13 18 -12 19 15 12 27 -7 55 -31 56 -48 0 -4 13 -5 29 -2 24 5 30 2 36
-16 6 -18 9 -20 16 -9 6 10 9 3 10 -21 l1 -35 10 40 c10 44 6 144 -7 166 -5 7
-10 22 -10 32 -1 10 -8 23 -15 30 -10 10 -12 7 -8 -15z"/>
<path d="M2236 2047 c3 -10 9 -15 12 -12 3 3 0 11 -7 18 -10 9 -11 8 -5 -6z"/>
<path d="M1031 2034 c0 -11 3 -14 6 -6 3 7 2 16 -1 19 -3 4 -6 -2 -5 -13z"/>
<path d="M1193 2043 c-15 -5 -28 -66 -19 -89 3 -8 10 -13 16 -9 6 4 5 13 -3
26 -8 13 -9 22 -2 27 6 4 10 14 10 22 0 9 9 15 22 14 12 0 20 3 17 8 -6 9 -22
9 -41 1z"/>
<path d="M1086 2013 c-6 -14 -5 -15 5 -6 7 7 10 15 7 18 -3 3 -9 -2 -12 -12z"/>
<path d="M1521 2014 c0 -11 3 -14 6 -6 3 7 2 16 -1 19 -3 4 -6 -2 -5 -13z"/>
<path d="M406 1973 c-6 -14 -5 -15 5 -6 7 7 10 15 7 18 -3 3 -9 -2 -12 -12z"/>
<path d="M1121 1964 c0 -11 3 -14 6 -6 3 7 2 16 -1 19 -3 4 -6 -2 -5 -13z"/>
<path d="M1008 1965 c-6 -7 27 -153 37 -163 4 -4 4 3 1 15 -4 12 -9 44 -11 72
-3 49 -16 86 -27 76z"/>
<path d="M1809 1953 c-2 -18 -1 -92 0 -127 1 -11 4 -16 9 -12 9 10 9 156 0
156 -5 0 -9 -8 -9 -17z"/>
<path d="M2242 1945 c0 -16 2 -22 5 -12 2 9 2 23 0 30 -3 6 -5 -1 -5 -18z"/>
<path d="M571 1944 c0 -11 3 -14 6 -6 3 7 2 16 -1 19 -3 4 -6 -2 -5 -13z"/>
<path d="M1111 1924 c0 -11 3 -14 6 -6 3 7 2 16 -1 19 -3 4 -6 -2 -5 -13z"/>
<path d="M481 1865 c-2 -64 -1 -577 2 -761 1 -90 4 -108 14 -95 11 14 12 14
13 -3 0 -11 3 -17 6 -13 4 3 1 20 -5 37 -6 20 -11 167 -13 398 -1 202 -5 396
-8 432 l-7 65 -2 -60z"/>
<path d="M2241 1625 c1 -159 6 -301 10 -315 4 -14 5 114 3 285 -3 170 -7 312
-10 315 -3 2 -4 -126 -3 -285z"/>
<path d="M441 1884 c0 -11 3 -14 6 -6 3 7 2 16 -1 19 -3 4 -6 -2 -5 -13z"/>
<path d="M1107 1893 c-4 -3 -7 -13 -7 -22 1 -13 3 -13 11 2 11 19 8 33 -4 20z"/>
<path d="M1060 1870 c0 -11 4 -20 9 -20 5 0 7 9 4 20 -3 11 -7 20 -9 20 -2 0
-4 -9 -4 -20z"/>
<path d="M1220 1860 c5 -16 11 -34 15 -40 6 -10 -36 -104 -57 -125 -6 -6 -7
11 -3 48 4 41 3 57 -5 52 -6 -4 -10 -33 -9 -69 1 -42 -4 -74 -17 -101 -10 -21
-20 -33 -22 -27 -9 27 -17 9 -19 -40 -9 -196 -14 -412 -10 -408 2 3 7 81 11
173 7 178 17 226 59 260 12 10 16 16 10 12 -22 -11 -14 20 24 96 36 72 38 73
44 44 6 -28 7 -28 9 -5 1 14 1 35 0 48 -3 39 15 24 52 -45 74 -137 71 -132 64
-101 -3 15 -1 39 4 54 11 29 4 47 -9 25 -6 -9 -11 -10 -15 -2 -4 6 -4 16 -1
21 3 6 1 10 -4 10 -6 0 -11 7 -11 15 0 8 -3 14 -7 13 -13 -4 -83 73 -89 98 -3
13 -10 24 -14 24 -5 0 -5 -13 0 -30z"/>
<path d="M653 1845 c0 -22 2 -30 4 -17 2 12 2 30 0 40 -3 9 -5 -1 -4 -23z"/>
<path d="M901 1854 c0 -11 3 -14 6 -6 3 7 2 16 -1 19 -3 4 -6 -2 -5 -13z"/>
<path d="M1282 1850 c0 -14 2 -19 5 -12 2 6 2 18 0 25 -3 6 -5 1 -5 -13z"/>
<path d="M413 1785 c0 -33 2 -45 4 -27 2 18 2 45 0 60 -2 15 -4 0 -4 -33z"/>
<path d="M961 1794 c0 -11 3 -14 6 -6 3 7 2 16 -1 19 -3 4 -6 -2 -5 -13z"/>
<path d="M1127 1770 c3 -25 7 -47 9 -49 8 -9 2 55 -6 74 -6 13 -7 5 -3 -25z"/>
<path d="M1050 1780 c0 -20 42 -145 53 -155 7 -7 8 -4 3 10 -4 11 -9 29 -12
40 -9 48 -27 106 -35 111 -5 3 -9 0 -9 -6z"/>
<path d="M1382 1765 c-6 -14 -7 -25 -2 -25 9 0 25 39 18 46 -3 2 -10 -7 -16
-21z"/>
<path d="M810 1766 c0 -2 7 -7 16 -10 8 -3 12 -2 9 4 -6 10 -25 14 -25 6z"/>
<path d="M947 1757 c-4 -10 -7 -29 -7 -43 0 -14 -10 -30 -25 -40 -14 -9 -25
-23 -25 -31 0 -11 7 -10 30 7 29 21 46 67 38 107 -3 17 -4 17 -11 0z"/>
<path d="M974 1718 c-4 -24 -6 -67 -6 -95 2 -84 48 -338 91 -508 42 -160 47
-190 34 -182 -5 3 -7 -18 -5 -46 2 -34 -2 -63 -12 -82 -9 -17 -16 -23 -16 -14
0 9 -6 29 -14 44 -8 15 -12 35 -9 44 4 14 3 14 -6 -1 -8 -12 -8 -24 1 -45 6
-15 12 -32 12 -38 1 -5 6 -14 13 -20 9 -8 7 -28 -9 -85 -11 -41 -26 -100 -33
-130 -7 -30 -13 -48 -14 -40 -1 11 -4 11 -13 2 -10 -10 -10 -14 0 -21 10 -6 7
-23 -11 -79 -20 -60 -21 -75 -10 -94 17 -31 16 -58 -2 -58 -8 0 -15 3 -16 8 0
4 -2 21 -5 37 -2 17 -4 38 -5 48 0 9 -4 17 -9 17 -5 0 -11 10 -13 23 -2 12 -4
-3 -5 -33 -1 -92 -8 -159 -19 -183 -38 -82 -74 -187 -64 -187 16 0 29 25 57
107 20 61 31 80 40 72 8 -7 13 -2 17 18 6 31 0 44 -12 25 -4 -7 -8 6 -8 32 l0
45 24 -47 c23 -45 23 -48 8 -75 -13 -22 -15 -34 -6 -59 6 -17 11 -43 11 -58 0
-14 7 -35 15 -46 14 -18 14 -18 15 8 0 29 15 46 23 26 2 -7 1 -20 -4 -29 -7
-13 -3 -16 15 -16 15 0 26 7 29 18 3 10 0 17 -7 16 -6 -1 -11 8 -10 21 0 15
-4 21 -12 18 -10 -4 -11 1 -4 20 13 32 12 37 -1 29 -6 -4 -9 -1 -8 6 2 8 -3
25 -10 38 -7 12 -11 31 -8 42 3 10 2 17 -2 16 -10 -3 -13 12 -6 43 4 17 13 30
21 30 9 0 14 10 13 28 -1 16 -3 20 -6 10 -6 -22 -23 -24 -23 -2 0 8 -4 12 -10
9 -5 -3 -10 -1 -10 4 0 6 7 11 15 11 8 0 14 3 14 7 -4 25 2 43 12 37 8 -5 10
1 7 19 -3 15 -1 25 6 24 6 -1 9 11 7 31 -1 17 2 32 7 32 5 0 10 27 11 59 1 32
9 85 18 117 9 33 16 73 16 91 0 19 5 29 11 27 7 -3 12 6 13 18 1 13 8 52 15
87 11 57 10 64 -5 76 -13 9 -17 28 -17 79 0 40 -4 65 -10 61 -22 -14 -101 407
-102 547 -1 48 -2 88 -4 88 -1 0 -6 -19 -10 -42z m-3 -1601 c-8 -8 -11 -4 -11
14 0 33 14 47 18 19 2 -12 -1 -27 -7 -33z m29 -14 c0 -22 -17 -50 -25 -42 -6
7 11 59 20 59 3 0 5 -8 5 -17z"/>
<path d="M710 1704 c0 -14 4 -23 9 -20 5 3 7 15 4 26 -7 28 -13 25 -13 -6z"/>
<path d="M1813 1715 c0 -8 4 -12 9 -9 5 3 6 10 3 15 -9 13 -12 11 -12 -6z"/>
<path d="M412 1700 c0 -14 2 -19 5 -12 2 6 2 18 0 25 -3 6 -5 1 -5 -13z"/>
<path d="M1500 1709 c0 -9 7 -22 15 -29 19 -16 19 0 0 26 -12 16 -14 16 -15 3z"/>
<path d="M818 1703 c7 -3 16 -2 19 1 4 3 -2 6 -13 5 -11 0 -14 -3 -6 -6z"/>
<path d="M1462 1682 c-1 -17 7 -137 19 -265 20 -229 23 -574 4 -619 -4 -10 -3
-18 3 -18 6 0 13 6 15 13 4 7 6 6 6 -5 1 -9 -5 -19 -11 -21 -10 -4 -10 -6 0
-6 9 -1 10 -6 3 -18 -5 -10 -8 -36 -6 -58 1 -24 -3 -45 -13 -54 -10 -10 -11
-16 -3 -19 6 -2 12 -18 12 -35 2 -35 15 37 24 131 2 29 7 57 10 63 10 15 -5
50 -18 43 -7 -3 -4 1 7 10 14 12 17 23 12 50 -4 23 -3 36 4 36 5 0 10 5 10 11
0 5 -6 7 -12 3 -9 -6 -9 -3 0 9 8 9 11 24 8 34 -3 10 -8 83 -11 163 -3 80 -10
179 -15 220 -5 41 -12 102 -14 135 -3 33 -8 78 -11 100 -5 30 -4 36 4 25 9
-12 11 -11 11 8 0 12 -6 22 -14 22 -10 0 -16 13 -19 38 -3 36 -4 36 -5 4z m50
-824 c-7 -7 -12 -8 -12 -2 0 14 12 26 19 19 2 -3 -1 -11 -7 -17z"/>
<path d="M1541 1694 c0 -11 3 -14 6 -6 3 7 2 16 -1 19 -3 4 -6 -2 -5 -13z"/>
<path d="M1610 1701 c0 -5 5 -13 10 -16 6 -3 10 -2 10 4 0 5 -4 13 -10 16 -5
3 -10 2 -10 -4z"/>
<path d="M828 1663 c5 -21 7 -23 10 -9 2 10 0 22 -6 28 -6 6 -7 0 -4 -19z"/>
<path d="M1637 1663 c-3 -10 -5 -38 -6 -62 -1 -24 -3 -47 -4 -51 -1 -5 3 -8 8
-9 6 -1 10 16 10 37 1 29 5 37 18 36 22 -2 22 8 -2 25 -11 8 -17 20 -14 28 3
7 3 13 0 13 -3 0 -8 -8 -10 -17z"/>
<path d="M712 1650 c0 -14 2 -19 5 -12 2 6 2 18 0 25 -3 6 -5 1 -5 -13z"/>
<path d="M1550 1649 c0 -11 4 -18 10 -14 5 3 7 12 3 20 -7 21 -13 19 -13 -6z"/>
<path d="M1602 1640 c0 -14 2 -19 5 -12 2 6 2 18 0 25 -3 6 -5 1 -5 -13z"/>
<path d="M2370 1649 c0 -5 5 -7 10 -4 6 3 10 8 10 11 0 2 -4 4 -10 4 -5 0 -10
-5 -10 -11z"/>
<path d="M2411 1493 c-1 -109 3 -174 9 -178 13 -8 12 298 0 330 -4 11 -8 -57
-9 -152z"/>
<path d="M1521 1634 c0 -11 3 -14 6 -6 3 7 2 16 -1 19 -3 4 -6 -2 -5 -13z"/>
<path d="M932 1598 c-5 -24 -13 -51 -17 -60 -4 -11 -3 -18 4 -18 6 0 11 -4 11
-10 0 -5 -7 -10 -15 -10 -8 0 -15 -7 -15 -15 0 -8 5 -15 10 -15 15 0 1 -112
-16 -130 -12 -12 -14 -12 -15 5 0 11 -3 15 -5 8 -3 -6 2 -25 11 -42 12 -23 14
-48 10 -103 -3 -40 -10 -74 -15 -76 -12 -5 -13 -32 -1 -32 5 0 9 -29 8 -65 0
-36 -4 -65 -9 -65 -5 0 -4 -10 3 -21 6 -12 9 -36 6 -54 -3 -18 -1 -37 5 -43 6
-6 11 -30 11 -54 0 -30 2 -37 7 -23 7 19 8 19 18 -5 5 -14 8 -29 7 -35 -1 -5
0 -6 3 -1 2 4 9 2 14 -5 7 -10 8 -5 3 15 -3 17 -12 35 -19 40 -19 16 -27 51
-32 144 -4 59 -2 82 7 82 9 0 9 3 -1 14 -11 15 -8 147 7 236 3 19 7 55 8 80 1
25 8 100 14 168 13 127 10 166 -7 90z"/>
<path d="M572 1600 c0 -19 2 -27 5 -17 2 9 2 25 0 35 -3 9 -5 1 -5 -18z"/>
<path d="M831 1625 c-1 -6 -12 -22 -25 -37 l-25 -26 24 2 c13 0 23 3 23 6 -1
3 2 13 6 22 4 10 6 23 3 30 -3 7 -6 8 -6 3z"/>
<path d="M1714 1606 c1 -12 6 -28 11 -36 4 -7 10 -47 11 -88 2 -41 6 -77 9
-80 3 -3 5 1 6 9 0 8 4 6 9 -6 4 -11 6 -30 3 -42 -4 -17 -1 -23 11 -23 9 0 16
5 16 10 0 6 6 10 14 10 10 0 12 7 8 22 -3 12 -7 17 -10 10 -9 -28 -21 -9 -18
28 2 22 -1 40 -6 40 -6 0 -8 11 -6 25 3 13 1 22 -3 19 -8 -5 -13 10 -24 78 -6
40 -35 63 -31 24z"/>
<path d="M1550 1605 c0 -8 5 -15 10 -15 6 0 10 7 10 15 0 8 -4 15 -10 15 -5 0
-10 -7 -10 -15z"/>
<path d="M2642 1595 c0 -16 2 -22 5 -12 2 9 2 23 0 30 -3 6 -5 -1 -5 -18z"/>
<path d="M875 1580 c3 -5 8 -10 11 -10 2 0 4 5 4 10 0 6 -5 10 -11 10 -5 0 -7
-4 -4 -10z"/>
<path d="M577 1536 c-4 -15 -6 -31 -2 -34 10 -10 16 6 13 35 l-3 28 -8 -29z"/>
<path d="M880 1544 c0 -8 5 -12 10 -9 6 3 10 10 10 16 0 5 -4 9 -10 9 -5 0
-10 -7 -10 -16z"/>
<path d="M1210 1532 c6 -13 14 -21 18 -18 3 4 -2 14 -12 24 -18 16 -18 16 -6
-6z"/>
<path d="M1535 1540 c-3 -5 1 -13 10 -16 22 -9 29 1 11 15 -10 8 -16 9 -21 1z"/>
<path d="M1761 1534 c0 -11 3 -14 6 -6 3 7 2 16 -1 19 -3 4 -6 -2 -5 -13z"/>
<path d="M735 1530 c-4 -6 -11 -8 -16 -5 -5 4 -9 2 -9 -4 0 -5 -6 -16 -13 -23
-19 -19 -97 -140 -98 -152 -1 -6 -5 0 -9 14 -7 21 -8 19 -9 -16 -1 -23 -12
-76 -26 -119 -14 -43 -23 -80 -21 -83 3 -2 8 9 12 24 4 16 10 34 14 39 4 6 23
46 41 90 37 91 47 108 107 188 24 31 41 57 38 57 -3 0 -8 -5 -11 -10z"/>
<path d="M830 1528 c0 -7 4 -19 9 -27 7 -10 9 -7 8 12 -2 26 -17 39 -17 15z"/>
<path d="M1606 1514 c7 -28 20 -44 37 -44 4 0 7 5 7 10 0 6 -4 10 -10 10 -5 0
-10 5 -10 11 0 6 -7 17 -15 26 -14 14 -15 13 -9 -13z"/>
<path d="M1663 1533 c-18 -7 -16 -28 3 -44 13 -10 17 -10 25 2 5 8 8 21 8 29
-1 11 -3 10 -6 -2 -2 -10 -9 -18 -15 -18 -6 0 -8 9 -5 20 3 11 4 20 4 19 -1 0
-8 -3 -14 -6z"/>
<path d="M1183 1522 c-25 -16 -36 -82 -14 -82 8 0 35 79 29 85 -2 2 -9 1 -15
-3z"/>
<path d="M1431 1514 c0 -11 3 -14 6 -6 3 7 2 16 -1 19 -3 4 -6 -2 -5 -13z"/>
<path d="M746 1503 c-4 -9 -2 -21 4 -27 7 -7 10 -2 10 17 0 31 -5 34 -14 10z"/>
<path d="M782 1495 c0 -16 2 -22 5 -12 2 9 2 23 0 30 -3 6 -5 -1 -5 -18z"/>
<path d="M1505 1501 c-3 -5 -1 -12 5 -16 5 -3 10 1 10 9 0 18 -6 21 -15 7z"/>
<path d="M1259 1486 c7 -9 20 -16 28 -16 7 0 16 -7 19 -15 4 -8 12 -15 19 -15
7 0 16 -6 18 -12 4 -9 6 -7 6 3 1 25 -31 56 -69 64 -31 7 -33 6 -21 -9z"/>
<path d="M575 1480 c-3 -5 -1 -10 4 -10 6 0 11 5 11 10 0 6 -2 10 -4 10 -3 0
-8 -4 -11 -10z"/>
<path d="M2907 1450 c3 -25 7 -47 9 -49 8 -9 2 55 -6 74 -6 13 -7 5 -3 -25z"/>
<path d="M855 1470 c3 -5 8 -10 11 -10 2 0 4 5 4 10 0 6 -5 10 -11 10 -5 0 -7
-4 -4 -10z"/>
<path d="M1695 1471 c-3 -5 -1 -12 5 -16 5 -3 10 1 10 9 0 18 -6 21 -15 7z"/>
<path d="M800 1451 c-5 -11 -10 -28 -9 -38 0 -15 2 -14 9 5 5 12 14 22 20 22
5 0 10 7 10 15 0 21 -17 19 -30 -4z"/>
<path d="M1510 1451 c0 -25 6 -27 13 -6 4 8 2 17 -3 20 -6 4 -10 -3 -10 -14z"/>
<path d="M1591 1454 c0 -11 3 -14 6 -6 3 7 2 16 -1 19 -3 4 -6 -2 -5 -13z"/>
<path d="M582 1440 c0 -14 2 -19 5 -12 2 6 2 18 0 25 -3 6 -5 1 -5 -13z"/>
<path d="M702 1440 c-7 -11 -12 -26 -12 -34 0 -8 -6 -16 -12 -19 -10 -3 -10
-8 -2 -17 9 -9 15 0 28 36 17 52 17 64 -2 34z"/>
<path d="M1667 1446 c-3 -8 0 -22 7 -32 12 -16 14 -15 14 9 0 31 -13 44 -21
23z"/>
<path d="M1848 1433 c5 -21 7 -23 10 -9 2 10 0 22 -6 28 -6 6 -7 0 -4 -19z"/>
<path d="M758 1426 c-3 -16 -1 -23 7 -19 7 2 11 13 8 24 -7 25 -10 24 -15 -5z"/>
<path d="M1201 1441 c-11 -7 -14 -48 -15 -186 -1 -97 2 -179 6 -181 9 -6 10
17 12 211 1 72 6 136 10 143 10 16 43 7 72 -20 19 -17 22 -17 28 -3 8 23 9 22
-23 28 -16 3 -39 9 -52 12 -13 3 -30 1 -38 -4z"/>
<path d="M1561 1434 c0 -11 3 -14 6 -6 3 7 2 16 -1 19 -3 4 -6 -2 -5 -13z"/>
<path d="M1620 1439 c0 -6 -7 -17 -15 -26 -8 -8 -12 -20 -8 -26 4 -7 10 -3 16
11 6 12 16 22 24 22 18 0 17 16 -2 24 -8 3 -15 1 -15 -5z"/>
<path d="M836 1409 c-9 -48 -6 -57 9 -24 16 35 19 55 6 55 -5 0 -11 -14 -15
-31z"/>
<path d="M1700 1426 c0 -9 5 -16 10 -16 6 0 10 4 10 9 0 6 -4 13 -10 16 -5 3
-10 -1 -10 -9z"/>
<path d="M872 1410 c0 -14 2 -19 5 -12 2 6 2 18 0 25 -3 6 -5 1 -5 -13z"/>
<path d="M1800 1426 c0 -2 7 -9 15 -16 9 -7 15 -8 15 -2 0 5 -7 12 -15 16 -8
3 -15 4 -15 2z"/>
<path d="M961 1404 c0 -11 3 -14 6 -6 3 7 2 16 -1 19 -3 4 -6 -2 -5 -13z"/>
<path d="M1510 1411 c0 -6 5 -13 10 -16 6 -3 10 1 10 9 0 9 -4 16 -10 16 -5 0
-10 -4 -10 -9z"/>
<path d="M2642 1400 c0 -14 2 -19 5 -12 2 6 2 18 0 25 -3 6 -5 1 -5 -13z"/>
<path d="M726 1393 c-3 -10 -9 -24 -12 -30 -3 -7 -1 -13 4 -13 5 0 13 12 16
26 8 30 2 44 -8 17z"/>
<path d="M1320 1401 c0 -6 4 -11 9 -11 5 0 12 -8 14 -17 4 -15 5 -15 6 -2 0 9
-6 22 -14 29 -10 9 -15 9 -15 1z"/>
<path d="M1657 1392 c1 -7 -7 -22 -18 -33 -15 -15 -18 -24 -10 -32 17 -17 13
-27 -11 -27 -17 0 -19 3 -9 9 8 5 9 11 3 15 -6 3 -8 16 -5 29 l5 22 -15 -21
c-16 -21 -13 -64 5 -64 6 0 7 -8 4 -17 -4 -9 -1 -20 6 -24 11 -7 11 -12 0 -29
-10 -16 -10 -20 2 -20 7 0 16 10 20 23 9 33 7 49 -4 42 -5 -3 -10 0 -10 8 0 8
9 17 21 20 18 5 20 11 14 36 -4 20 -3 31 4 31 10 0 17 -47 12 -74 -1 -5 6 -3
15 5 16 13 17 12 12 -8 -4 -13 -2 -23 3 -23 12 0 12 57 0 64 -5 4 -12 0 -14
-6 -3 -7 -6 -3 -6 9 -1 16 3 21 14 17 11 -5 15 0 14 17 0 13 -3 18 -6 12 -8
-20 -28 -15 -39 10 -6 12 -9 16 -7 9z"/>
<path d="M1870 1400 c-9 -6 -10 -10 -3 -10 6 0 15 5 18 10 8 12 4 12 -15 0z"/>
<path d="M1621 1374 c0 -11 3 -14 6 -6 3 7 2 16 -1 19 -3 4 -6 -2 -5 -13z"/>
<path d="M1740 1379 c0 -5 5 -7 10 -4 6 3 10 8 10 11 0 2 -4 4 -10 4 -5 0 -10
-5 -10 -11z"/>
<path d="M805 1367 c-4 -10 -5 -21 -1 -24 10 -10 18 4 13 24 -4 17 -4 17 -12
0z"/>
<path d="M1870 1368 c0 -8 7 -21 15 -28 19 -16 19 -1 0 24 -12 16 -15 17 -15
4z"/>
<path d="M770 1335 c0 -8 5 -15 10 -15 6 0 10 7 10 15 0 8 -4 15 -10 15 -5 0
-10 -7 -10 -15z"/>
<path d="M950 1335 c0 -8 2 -15 4 -15 2 0 6 7 10 15 3 8 1 15 -4 15 -6 0 -10
-7 -10 -15z"/>
<path d="M1310 1338 c0 -9 5 -20 10 -23 12 -8 13 -55 1 -74 -6 -9 -11 1 -15
30 -11 72 -25 80 -19 11 3 -33 2 -69 -1 -79 -4 -10 -8 -68 -9 -130 -1 -62 1
-105 5 -95 4 9 7 31 7 47 1 34 33 164 52 210 10 26 9 37 -9 75 -12 25 -21 37
-22 28z"/>
<path d="M740 1322 c6 -13 14 -21 18 -18 3 4 -2 14 -12 24 -18 16 -18 16 -6
-6z"/>
<path d="M1787 1333 c-3 -5 -7 -21 -8 -37 -3 -22 0 -30 14 -32 27 -4 30 -10
29 -49 -1 -25 3 -35 13 -35 23 0 18 32 -15 83 -16 26 -25 47 -20 47 6 0 10 7
10 15 0 16 -15 21 -23 8z"/>
<path d="M691 1314 c0 -11 3 -14 6 -6 3 7 2 16 -1 19 -3 4 -6 -2 -5 -13z"/>
<path d="M821 1314 c0 -12 -8 -27 -16 -34 -8 -7 -15 -18 -15 -24 0 -6 9 0 19
13 l19 25 -1 -52 c0 -29 5 -58 11 -64 9 -9 12 -6 12 13 0 14 -4 29 -10 35 -12
12 -1 56 12 48 5 -3 7 -11 5 -18 -2 -6 -1 -20 4 -31 5 -14 8 -7 8 27 1 41 -1
46 -18 41 -14 -4 -21 1 -24 19 -4 21 -4 21 -6 2z"/>
<path d="M966 1315 c-9 -26 -7 -32 5 -12 6 10 9 21 6 23 -2 3 -7 -2 -11 -11z"/>
<path d="M1555 1310 c2 -14 7 -46 10 -72 3 -27 11 -48 16 -48 12 0 1 75 -17
115 -12 26 -13 27 -9 5z"/>
<path d="M1761 1318 c-1 -10 -8 -18 -16 -18 -8 0 -15 -8 -14 -17 0 -11 3 -13
6 -5 2 6 9 10 14 6 11 -7 23 21 16 38 -4 8 -6 6 -6 -4z"/>
<path d="M1822 1310 c0 -14 2 -19 5 -12 2 6 2 18 0 25 -3 6 -5 1 -5 -13z"/>
<path d="M1432 1300 c0 -14 2 -19 5 -12 2 6 2 18 0 25 -3 6 -5 1 -5 -13z"/>
<path d="M1860 1286 c0 -22 4 -35 10 -31 6 3 8 18 6 32 -8 40 -16 40 -16 -1z"/>
<path d="M2695 1309 c-4 -6 -5 -12 -2 -15 2 -3 7 2 10 11 7 17 1 20 -8 4z"/>
<path d="M1225 1245 c3 -38 10 -74 15 -79 13 -13 4 93 -10 126 -7 17 -9 4 -5
-47z"/>
<path d="M1371 1284 c0 -11 3 -14 6 -6 3 7 2 16 -1 19 -3 4 -6 -2 -5 -13z"/>
<path d="M970 1264 c0 -8 5 -12 10 -9 6 3 10 10 10 16 0 5 -4 9 -10 9 -5 0
-10 -7 -10 -16z"/>
<path d="M630 1254 c0 -8 5 -12 10 -9 6 4 8 11 5 16 -9 14 -15 11 -15 -7z"/>
<path d="M1750 1260 c0 -9 5 -21 11 -27 7 -7 9 -30 5 -60 -3 -26 -7 -61 -8
-78 -2 -20 -8 -29 -17 -27 -12 3 -12 0 -1 -12 10 -13 10 -22 0 -45 -15 -38 -5
-71 23 -71 19 0 19 1 4 13 -15 11 -16 19 -8 62 6 28 13 68 15 90 3 22 5 42 5
45 1 3 6 -2 11 -10 8 -13 10 -12 10 3 0 9 -4 17 -10 17 -5 0 -9 19 -9 43 2 33
3 36 6 12 6 -39 23 -57 23 -24 0 23 -29 76 -30 55 0 -6 -7 -1 -15 10 -11 15
-14 16 -15 4z"/>
<path d="M1890 1256 c0 -9 5 -16 10 -16 6 0 10 4 10 9 0 6 -4 13 -10 16 -5 3
-10 -1 -10 -9z"/>
<path d="M671 1244 c0 -11 3 -14 6 -6 3 7 2 16 -1 19 -3 4 -6 -2 -5 -13z"/>
<path d="M1387 1253 c-4 -3 -7 -13 -7 -22 1 -13 3 -13 11 2 11 19 8 33 -4 20z"/>
<path d="M1651 1242 c-8 -16 -9 -42 -2 -106 1 -6 5 -6 11 0 6 6 6 23 -2 47
-10 32 -9 40 7 57 10 11 13 20 7 20 -6 0 -16 -8 -21 -18z"/>
<path d="M597 1244 c-3 -3 1 -17 9 -32 8 -15 14 -34 14 -43 0 -9 7 -19 15 -23
9 -3 15 0 15 9 0 8 -4 15 -10 15 -5 0 -10 6 -10 14 0 19 -26 67 -33 60z"/>
<path d="M932 1230 c0 -14 2 -19 5 -12 2 6 2 18 0 25 -3 6 -5 1 -5 -13z"/>
<path d="M691 1224 c0 -11 3 -14 6 -6 3 7 2 16 -1 19 -3 4 -6 -2 -5 -13z"/>
<path d="M951 1224 c0 -11 3 -14 6 -6 3 7 2 16 -1 19 -3 4 -6 -2 -5 -13z"/>
<path d="M1442 1215 c0 -16 2 -22 5 -12 2 9 2 23 0 30 -3 6 -5 -1 -5 -18z"/>
<path d="M750 1219 c0 -5 5 -7 10 -4 6 3 10 8 10 11 0 2 -4 4 -10 4 -5 0 -10
-5 -10 -11z"/>
<path d="M1006 1215 c-3 -9 -6 -24 -5 -33 0 -9 5 -4 10 12 9 32 6 48 -5 21z"/>
<path d="M1700 1216 c0 -9 5 -16 10 -16 6 0 10 4 10 9 0 6 -4 13 -10 16 -5 3
-10 -1 -10 -9z"/>
<path d="M1871 1214 c0 -11 3 -14 6 -6 3 7 2 16 -1 19 -3 4 -6 -2 -5 -13z"/>
<path d="M660 1211 c0 -5 5 -13 10 -16 6 -3 10 -2 10 4 0 5 -4 13 -10 16 -5 3
-10 2 -10 -4z"/>
<path d="M795 1211 c-3 -6 -11 -9 -16 -6 -5 4 -9 -4 -9 -16 l0 -23 21 23 c12
12 19 25 16 27 -3 3 -8 0 -12 -5z"/>
<path d="M1332 1154 c-7 -30 -11 -58 -7 -63 3 -5 1 -12 -5 -16 -5 -3 -10 -18
-10 -33 l1 -27 14 30 c14 29 15 29 9 -24 -4 -35 -3 -51 4 -47 6 3 8 16 4 28
-3 14 -1 19 6 14 7 -4 9 -31 7 -72 -3 -36 -1 -62 4 -59 13 7 0 -38 -12 -47 -7
-4 -7 -12 2 -21 7 -10 8 -17 2 -21 -5 -4 -14 2 -20 11 -9 16 -10 16 -11 -4 0
-13 5 -23 11 -23 6 0 9 -7 5 -15 -3 -8 -1 -15 5 -15 6 0 13 9 16 20 3 11 10
20 15 20 6 0 8 13 4 31 -5 25 -3 29 7 21 9 -8 11 2 9 46 -2 31 -8 61 -13 67
-5 5 -9 49 -9 97 0 48 -4 88 -8 88 -5 0 -7 13 -4 29 7 52 -14 41 -26 -15z"/>
<path d="M1675 1197 c-4 -10 -5 -21 -1 -24 10 -10 18 4 13 24 -4 17 -4 17 -12
0z"/>
<path d="M1935 1200 c-3 -5 -1 -10 4 -10 6 0 11 5 11 10 0 6 -2 10 -4 10 -3 0
-8 -4 -11 -10z"/>
<path d="M711 1168 c0 -28 2 -30 9 -13 12 28 12 45 0 45 -5 0 -10 -15 -9 -32z"/>
<path d="M937 1193 c-12 -19 -16 -133 -5 -133 5 0 8 10 5 23 -3 12 -2 42 3 67
8 45 7 60 -3 43z"/>
<path d="M961 1184 c0 -11 3 -14 6 -6 3 7 2 16 -1 19 -3 4 -6 -2 -5 -13z"/>
<path d="M1702 1165 c0 -16 2 -22 5 -12 2 9 2 23 0 30 -3 6 -5 -1 -5 -18z"/>
<path d="M1725 1170 c10 -33 25 -49 25 -26 0 9 -7 25 -16 34 -15 15 -16 14 -9
-8z"/>
<path d="M811 1173 c-1 -7 -11 -22 -23 -34 -13 -12 -17 -18 -9 -14 11 6 13 4
8 -8 -3 -10 -2 -17 3 -17 6 0 10 8 10 18 0 10 5 23 11 29 6 6 9 17 6 25 -4 9
-6 9 -6 1z"/>
<path d="M1600 1164 c0 -11 7 -29 15 -40 14 -19 14 -19 15 2 0 11 -7 29 -15
40 -14 19 -14 19 -15 -2z"/>
<path d="M1902 1160 c0 -14 2 -19 5 -12 2 6 2 18 0 25 -3 6 -5 1 -5 -13z"/>
<path d="M680 1150 c0 -20 -2 -22 -10 -10 -9 13 -10 13 -10 -1 0 -22 21 -46
48 -52 15 -3 22 -1 22 9 0 8 -3 13 -7 13 -24 -4 -34 3 -29 19 3 9 1 24 -4 32
-8 12 -10 10 -10 -10z"/>
<path d="M745 1161 c-3 -5 -1 -12 5 -16 5 -3 10 1 10 9 0 18 -6 21 -15 7z"/>
<path d="M1221 1143 c-1 -12 4 -25 9 -28 12 -7 12 2 0 30 -8 19 -9 19 -9 -2z"/>
<path d="M1858 1143 c-2 -10 1 -26 6 -36 8 -12 8 -20 0 -25 -6 -4 -13 -15 -17
-25 -4 -10 -11 -16 -17 -12 -5 3 -9 -7 -9 -22 0 -15 -2 -53 -5 -83 -3 -30 -2
-45 0 -32 5 23 6 23 25 6 24 -22 25 -4 1 22 -15 15 -17 24 -8 46 6 16 14 28
18 28 4 0 5 7 2 15 -3 8 -3 19 0 24 11 17 36 1 36 -23 1 -21 1 -21 15 -2 8 11
15 27 14 35 0 11 -3 10 -9 -4 -7 -18 -9 -18 -20 10 -7 17 -13 42 -14 57 -2 33
-13 46 -18 21z"/>
<path d="M1920 1150 c0 -5 5 -10 11 -10 5 0 7 5 4 10 -3 6 -8 10 -11 10 -2 0
-4 -4 -4 -10z"/>
<path d="M595 1120 c7 -45 20 -57 39 -37 20 20 21 33 1 17 -13 -10 -17 -7 -31
21 l-15 34 6 -35z"/>
<path d="M831 1134 c0 -11 3 -14 6 -6 3 7 2 16 -1 19 -3 4 -6 -2 -5 -13z"/>
<path d="M975 1110 c-1 -22 2 -35 6 -29 4 8 9 7 13 -2 3 -8 4 2 1 21 -8 50
-20 56 -20 10z"/>
<path d="M1950 1141 c0 -5 5 -13 10 -16 6 -3 10 -2 10 4 0 5 -4 13 -10 16 -5
3 -10 2 -10 -4z"/>
<path d="M550 1131 c0 -6 5 -13 10 -16 6 -3 10 1 10 9 0 9 -4 16 -10 16 -5 0
-10 -4 -10 -9z"/>
<path d="M1404 1111 c3 -18 6 -88 6 -155 0 -88 3 -117 11 -106 8 12 10 9 6
-12 -2 -16 0 -28 4 -28 5 0 9 11 9 24 0 14 4 27 9 30 5 4 7 -4 3 -16 -3 -14
-2 -19 6 -14 18 11 14 51 -18 180 -27 110 -51 174 -36 97z"/>
<path d="M1574 1129 c-3 -6 -1 -16 5 -22 8 -8 11 -5 11 11 0 24 -5 28 -16 11z"/>
<path d="M1146 1114 c-5 -14 -4 -15 9 -4 17 14 19 20 6 20 -5 0 -12 -7 -15
-16z"/>
<path d="M1675 1117 c-4 -10 -5 -21 -1 -24 10 -10 18 4 13 24 -4 17 -4 17 -12
0z"/>
<path d="M1698 1098 c-3 -18 -2 -44 2 -58 5 -18 7 -9 8 33 1 63 -3 74 -10 25z"/>
<path d="M845 1082 c-3 -21 -2 -49 3 -62 7 -19 9 -11 10 38 0 34 -1 62 -3 62
-2 0 -6 -17 -10 -38z"/>
<path d="M1790 1106 c0 -8 -2 -23 -5 -33 -3 -10 0 -7 7 7 7 14 17 28 23 32 6
5 3 8 -7 8 -10 0 -18 -6 -18 -14z"/>
<path d="M751 1094 c0 -11 3 -14 6 -6 3 7 2 16 -1 19 -3 4 -6 -2 -5 -13z"/>
<path d="M1210 1093 c0 -13 5 -23 10 -23 13 0 13 11 0 30 -8 12 -10 11 -10 -7z"/>
<path d="M1638 1103 c-4 -24 -2 -73 4 -73 4 0 6 18 5 40 -1 37 -5 51 -9 33z"/>
<path d="M1720 1094 c0 -8 5 -12 10 -9 6 3 10 10 10 16 0 5 -4 9 -10 9 -5 0
-10 -7 -10 -16z"/>
<path d="M1832 1090 c0 -14 2 -19 5 -12 2 6 2 18 0 25 -3 6 -5 1 -5 -13z"/>
<path d="M1910 1095 c0 -8 4 -15 10 -15 5 0 7 7 4 15 -4 8 -8 15 -10 15 -2 0
-4 -7 -4 -15z"/>
<path d="M1936 1097 c3 -10 9 -15 12 -12 3 3 0 11 -7 18 -10 9 -11 8 -5 -6z"/>
<path d="M2815 860 c3 -140 5 -333 5 -429 0 -96 3 -172 6 -168 3 3 5 74 5 158
-1 84 0 151 3 149 2 -3 7 -76 11 -162 7 -152 3 -196 -16 -167 -5 8 -8 -35 -6
-103 2 -131 14 -145 20 -23 l3 80 2 -85 c1 -48 -2 -90 -8 -96 -6 -6 -3 -10 11
-11 l21 -2 -7 447 c-6 349 -5 461 5 505 8 35 18 57 27 57 7 0 13 5 13 11 0 6
-7 9 -16 7 -10 -2 -24 -25 -34 -58 -14 -42 -20 -51 -25 -37 -4 10 -5 33 -2 51
3 19 -1 56 -9 83 -12 43 -13 23 -9 -207z"/>
<path d="M1595 1087 c-4 -11 -3 -23 4 -30 15 -15 19 -7 11 23 -6 22 -8 23 -15
7z"/>
<path d="M537 1069 c-4 -15 -2 -19 9 -15 12 5 14 1 9 -17 -6 -16 -4 -19 4 -11
13 12 5 64 -9 64 -4 0 -10 -9 -13 -21z"/>
<path d="M1451 1074 c0 -11 3 -14 6 -6 3 7 2 16 -1 19 -3 4 -6 -2 -5 -13z"/>
<path d="M670 1058 c-12 -22 -12 -22 6 -6 10 10 15 20 12 24 -4 3 -12 -5 -18
-18z"/>
<path d="M1016 1067 c3 -10 9 -15 12 -12 3 3 0 11 -7 18 -10 9 -11 8 -5 -6z"/>
<path d="M1661 1064 c0 -11 3 -14 6 -6 3 7 2 16 -1 19 -3 4 -6 -2 -5 -13z"/>
<path d="M624 1045 c-9 -14 -14 -28 -11 -31 3 -3 12 9 20 25 19 38 14 40 -9 6z"/>
<path d="M708 1046 c-25 -21 -37 -46 -23 -46 10 0 42 35 48 53 8 22 7 22 -25
-7z"/>
<path d="M590 1050 c0 -5 5 -10 10 -10 6 0 10 5 10 10 0 6 -4 10 -10 10 -5 0
-10 -4 -10 -10z"/>
<path d="M1200 1053 c0 -13 29 -38 35 -31 3 3 -4 13 -15 23 -11 10 -20 13 -20
8z"/>
<path d="M963 1034 c0 -8 6 -14 14 -14 7 0 13 4 13 9 0 5 -6 11 -13 14 -8 3
-14 -1 -14 -9z"/>
<path d="M1181 1025 c0 -16 4 -39 9 -50 7 -16 9 -14 9 15 0 19 -4 42 -9 50 -7
11 -10 8 -9 -15z"/>
<path d="M2690 1026 c0 -13 -6 -27 -12 -29 -10 -4 -10 -7 0 -15 9 -6 13 -44
13 -141 0 -72 -3 -137 -7 -143 -4 -6 -3 -8 3 -5 6 4 11 -9 12 -31 6 -93 8
-112 15 -119 4 -5 5 78 2 182 -3 105 -5 220 -5 258 -1 37 -5 67 -11 67 -5 0
-10 -11 -10 -24z"/>
<path d="M632 1011 c-16 -45 -15 -67 3 -99 22 -41 38 -84 40 -112 1 -14 5 -38
9 -53 5 -15 4 -27 0 -26 -21 4 -24 -2 -13 -23 15 -27 22 -158 9 -158 -6 0 -10
5 -10 11 0 5 -5 7 -12 3 -7 -5 -5 -11 8 -21 16 -12 20 -11 31 9 12 22 12 21
13 -14 0 -20 -5 -38 -11 -40 -9 -3 -9 -9 -1 -23 19 -36 32 -86 20 -79 -7 5 -9
-4 -4 -30 4 -23 3 -36 -4 -36 -5 0 -10 -7 -10 -16 0 -14 2 -14 15 0 8 8 15 26
15 40 0 14 4 26 10 26 6 0 6 9 1 23 -5 13 -12 64 -16 113 -3 49 -12 130 -20
179 -8 50 -15 110 -17 135 -2 25 -6 47 -10 50 -4 3 -14 44 -21 90 -13 84 -13
85 -25 51z m10 -51 c3 -16 1 -30 -4 -30 -4 0 -8 14 -8 30 0 17 2 30 4 30 2 0
6 -13 8 -30z m55 -352 c-3 -8 -6 -5 -6 6 -1 11 2 17 5 13 3 -3 4 -12 1 -19z"/>
<path d="M783 1024 c-15 -16 -17 -34 -4 -34 10 0 26 39 19 45 -1 2 -9 -3 -15
-11z"/>
<path d="M810 1032 c0 -4 9 -24 20 -44 13 -25 18 -47 14 -68 -4 -18 -2 -30 4
-30 5 0 8 -8 5 -19 -3 -10 1 -22 8 -26 9 -6 11 1 6 31 -4 21 -7 56 -7 77 0 21
-4 36 -9 33 -5 -4 -12 7 -16 24 -6 26 -25 43 -25 22z"/>
<path d="M1011 1027 c-34 -42 -85 -194 -75 -222 6 -15 9 -14 20 6 16 30 17 42
3 33 -8 -5 -8 -1 0 13 6 11 8 23 5 25 -8 9 18 58 27 52 5 -3 9 1 9 9 0 8 7 18
16 21 10 4 14 14 11 26 -9 33 11 33 28 -1 21 -40 27 -34 12 14 -12 38 -35 48
-56 24z"/>
<path d="M1461 1033 c0 -5 4 -17 9 -28 8 -18 9 -17 9 8 1 15 -3 27 -9 27 -5 0
-10 -3 -9 -7z"/>
<path d="M1721 1024 c0 -11 3 -14 6 -6 3 7 2 16 -1 19 -3 4 -6 -2 -5 -13z"/>
<path d="M1789 1040 c0 -3 -2 -13 -4 -22 -2 -10 1 -18 5 -18 15 0 19 15 9 30
-5 8 -9 13 -10 10z"/>
<path d="M2964 1025 c3 -9 6 -195 6 -413 0 -420 7 -612 22 -612 5 0 6 170 2
413 -4 226 -7 458 -8 514 -1 77 -4 104 -15 108 -9 4 -11 0 -7 -10z"/>
<path d="M581 1014 c0 -11 3 -14 6 -6 3 7 2 16 -1 19 -3 4 -6 -2 -5 -13z"/>
<path d="M1590 1008 c0 -10 2 -18 5 -18 2 0 9 8 14 18 8 14 6 19 -5 19 -7 0
-14 -9 -14 -19z"/>
<path d="M1670 1014 c0 -8 5 -12 10 -9 6 3 10 10 10 16 0 5 -4 9 -10 9 -5 0
-10 -7 -10 -16z"/>
<path d="M531 1008 c-1 -9 -4 -25 -7 -35 -5 -15 -4 -15 5 -3 9 13 11 12 11 -4
0 -11 3 -17 6 -14 3 3 1 21 -5 39 -5 19 -10 26 -10 17z"/>
<path d="M726 1011 c-4 -7 -5 -15 -2 -18 9 -9 19 4 14 18 -4 11 -6 11 -12 0z"/>
<path d="M935 1011 c-3 -5 -1 -12 5 -16 5 -3 10 1 10 9 0 18 -6 21 -15 7z"/>
<path d="M1639 994 c0 -11 -3 -13 -6 -6 -2 6 -9 10 -14 6 -14 -9 -10 -24 6
-24 17 0 32 27 21 37 -3 4 -6 -2 -7 -13z"/>
<path d="M1900 989 c0 -5 5 -7 10 -4 6 3 10 8 10 11 0 2 -4 4 -10 4 -5 0 -10
-5 -10 -11z"/>
<path d="M1981 984 c0 -11 3 -14 6 -6 3 7 2 16 -1 19 -3 4 -6 -2 -5 -13z"/>
<path d="M750 976 c0 -8 5 -18 10 -21 6 -3 10 1 10 9 0 8 -4 18 -10 21 -5 3
-10 -1 -10 -9z"/>
<path d="M910 969 c0 -11 5 -17 10 -14 6 3 10 13 10 21 0 8 -4 14 -10 14 -5 0
-10 -9 -10 -21z"/>
<path d="M957 983 c-4 -3 -7 -11 -7 -17 0 -6 5 -5 12 2 6 6 9 14 7 17 -3 3 -9
2 -12 -2z"/>
<path d="M1863 955 c7 -40 13 -52 23 -42 4 4 2 13 -5 20 -6 8 -9 21 -5 30 3 8
0 18 -7 23 -9 5 -11 -2 -6 -31z"/>
<path d="M690 966 c0 -9 5 -16 10 -16 6 0 10 4 10 9 0 6 -4 13 -10 16 -5 3
-10 -1 -10 -9z"/>
<path d="M796 965 c-3 -9 -6 -22 -5 -28 0 -7 5 -1 10 12 5 13 8 26 5 28 -2 2
-6 -3 -10 -12z"/>
<path d="M1293 940 c0 -25 2 -35 4 -22 2 12 2 32 0 45 -2 12 -4 2 -4 -23z"/>
<path d="M1590 956 c0 -14 5 -28 10 -31 6 -3 10 5 10 19 0 14 -4 28 -10 31 -6
3 -10 -5 -10 -19z"/>
<path d="M1691 964 c0 -11 3 -14 6 -6 3 7 2 16 -1 19 -3 4 -6 -2 -5 -13z"/>
<path d="M1932 960 c0 -14 2 -19 5 -12 2 6 2 18 0 25 -3 6 -5 1 -5 -13z"/>
<path d="M490 960 c-8 -5 -12 -12 -9 -15 4 -3 12 1 19 10 14 17 11 19 -10 5z"/>
<path d="M559 947 c-7 -15 -16 -24 -20 -21 -5 3 -9 0 -9 -5 0 -6 6 -11 13 -11
12 0 40 50 32 58 -2 3 -10 -7 -16 -21z"/>
<path d="M1660 956 c0 -8 5 -18 10 -21 6 -3 10 3 10 14 0 12 -4 21 -10 21 -5
0 -10 -6 -10 -14z"/>
<path d="M1897 940 c7 -40 10 -46 20 -37 3 4 -1 22 -10 40 l-16 32 6 -35z"/>
<path d="M1037 947 c-3 -8 -1 -20 4 -28 6 -10 9 -7 9 14 0 29 -5 35 -13 14z"/>
<path d="M1630 930 c0 -39 -36 -62 -43 -27 -3 17 -5 15 -6 -8 -1 -20 6 -37 20
-48 20 -18 21 -18 14 4 -5 14 -4 19 4 15 6 -4 12 -2 12 3 3 26 4 30 12 37 11
11 9 54 -3 54 -5 0 -10 -13 -10 -30z"/>
<path d="M722 941 c2 -7 7 -12 11 -12 12 1 9 15 -3 20 -7 2 -11 -2 -8 -8z"/>
<path d="M1317 937 c-3 -8 -1 -20 4 -28 6 -10 9 -7 9 14 0 29 -5 35 -13 14z"/>
<path d="M1971 934 c0 -11 3 -14 6 -6 3 7 2 16 -1 19 -3 4 -6 -2 -5 -13z"/>
<path d="M822 920 c0 -14 2 -19 5 -12 2 6 2 18 0 25 -3 6 -5 1 -5 -13z"/>
<path d="M1711 922 c0 -12 -8 -25 -16 -28 -8 -4 -15 -10 -15 -16 0 -5 5 -6 10
-3 7 4 8 -3 4 -21 -5 -19 -4 -25 5 -20 6 4 11 21 11 38 l0 31 20 -23 c26 -30
34 -21 21 21 -5 19 -10 26 -10 17 -1 -26 -19 -22 -24 5 l-4 22 -2 -23z"/>
<path d="M471 914 c0 -11 3 -14 6 -6 3 7 2 16 -1 19 -3 4 -6 -2 -5 -13z"/>
<path d="M500 916 c0 -8 -3 -23 -6 -33 -3 -10 2 -7 10 7 18 30 20 40 6 40 -5
0 -10 -6 -10 -14z"/>
<path d="M580 913 c0 -10 4 -14 8 -8 4 6 11 13 16 18 5 4 2 7 -7 7 -10 0 -17
-8 -17 -17z"/>
<path d="M1006 915 c-3 -8 -1 -15 4 -15 6 0 10 7 10 15 0 8 -2 15 -4 15 -2 0
-6 -7 -10 -15z"/>
<path d="M1195 903 c1 -13 5 -26 9 -30 3 -3 1 -12 -6 -20 -9 -11 -8 -13 3 -11
24 5 28 20 13 44 -14 20 -13 23 3 33 16 9 16 10 -3 8 -17 -1 -21 -7 -19 -24z"/>
<path d="M1770 905 c0 -14 5 -25 10 -25 6 0 10 11 10 25 0 14 -4 25 -10 25 -5
0 -10 -11 -10 -25z"/>
<path d="M923 905 c-3 -9 -3 -18 -1 -21 3 -3 8 4 11 16 6 23 -1 27 -10 5z"/>
<path d="M1062 900 c0 -14 2 -19 5 -12 2 6 2 18 0 25 -3 6 -5 1 -5 -13z"/>
<path d="M1272 847 c1 -80 7 -87 26 -30 8 23 8 32 0 30 -6 -1 -13 4 -15 11 -3
6 2 12 11 12 9 0 16 5 16 12 0 6 -3 8 -7 4 -4 -3 -13 4 -20 16 -11 20 -12 13
-11 -55z"/>
<path d="M2001 879 c-6 -18 -11 -41 -11 -53 0 -15 -3 -17 -9 -8 -6 9 -8 5 -8
-15 0 -15 -7 -46 -16 -67 -12 -32 -16 -36 -20 -20 -2 10 -5 2 -6 -19 -1 -23
-5 -36 -11 -32 -6 4 -10 -7 -10 -25 0 -17 -4 -29 -9 -26 -5 3 -9 -4 -9 -17 0
-25 -19 -98 -21 -79 -2 23 -18 12 -18 -13 0 -15 5 -25 13 -25 9 0 14 -11 14
-27 1 -25 2 -26 11 -10 7 11 7 23 2 28 -11 11 -4 79 8 79 5 0 9 9 9 20 0 10 7
36 16 57 9 21 20 47 25 58 4 11 17 43 28 70 20 47 43 146 36 153 -1 2 -8 -11
-14 -29z"/>
<path d="M600 885 c0 -8 5 -15 10 -15 6 0 10 7 10 15 0 8 -4 15 -10 15 -5 0
-10 -7 -10 -15z"/>
<path d="M760 880 c0 -11 5 -20 10 -20 6 0 10 9 10 20 0 11 -4 20 -10 20 -5 0
-10 -9 -10 -20z"/>
<path d="M1971 884 c0 -11 3 -14 6 -6 3 7 2 16 -1 19 -3 4 -6 -2 -5 -13z"/>
<path d="M741 874 c0 -11 3 -14 6 -6 3 7 2 16 -1 19 -3 4 -6 -2 -5 -13z"/>
<path d="M807 867 c-4 -15 -12 -27 -17 -27 -6 0 -10 -4 -10 -10 0 -5 5 -10 10
-10 12 0 32 48 27 64 -2 6 -7 -1 -10 -17z"/>
<path d="M992 870 c0 -14 2 -19 5 -12 2 6 2 18 0 25 -3 6 -5 1 -5 -13z"/>
<path d="M1872 870 c0 -14 2 -19 5 -12 2 6 2 18 0 25 -3 6 -5 1 -5 -13z"/>
<path d="M436 833 c-4 -26 -8 -56 -9 -65 -1 -10 -4 -18 -7 -18 -3 0 -6 -19 -7
-43 -5 -94 -15 -167 -23 -172 -5 -3 -7 -14 -5 -25 2 -11 0 -22 -6 -25 -13 -9
-11 59 2 72 7 7 8 17 3 25 -5 7 -10 36 -11 63 -2 31 0 45 6 37 6 -10 9 -8 13
10 5 29 -1 50 -13 42 -5 -3 -9 7 -10 23 l-1 28 -9 -30 c-5 -16 -7 -55 -4 -85
2 -30 4 -194 4 -364 1 -273 3 -307 16 -296 10 9 15 9 15 1 0 -6 3 -11 8 -11 4
0 8 100 10 223 2 215 13 383 33 517 9 63 12 131 5 137 -2 2 -6 -18 -10 -44z
m-54 -418 c0 -26 -3 -49 -6 -52 -3 -4 -6 20 -6 52 0 32 3 56 6 53 3 -4 6 -27
6 -53z m0 -107 c-7 -7 -12 -8 -12 -2 0 14 12 26 19 19 2 -3 -1 -11 -7 -17z"/>
<path d="M575 870 c-3 -5 -1 -10 4 -10 6 0 11 5 11 10 0 6 -2 10 -4 10 -3 0
-8 -4 -11 -10z"/>
<path d="M710 865 c0 -8 5 -15 10 -15 6 0 10 7 10 15 0 8 -4 15 -10 15 -5 0
-10 -7 -10 -15z"/>
<path d="M1800 860 c0 -19 3 -21 12 -12 9 9 9 15 0 24 -9 9 -12 7 -12 -12z"/>
<path d="M1830 840 c0 -22 4 -40 8 -40 4 0 8 18 9 40 1 22 -2 40 -8 40 -5 0
-9 -18 -9 -40z"/>
<path d="M530 855 c-7 -9 -10 -18 -7 -22 8 -7 37 15 37 28 0 14 -16 11 -30 -6z"/>
<path d="M1640 847 c0 -15 -4 -27 -10 -27 -5 0 -10 -7 -10 -15 0 -8 4 -15 10
-15 11 0 25 68 16 77 -3 4 -6 -6 -6 -20z"/>
<path d="M1721 848 c-1 -14 5 -28 12 -31 9 -3 9 -7 -1 -19 -11 -13 -10 -22 1
-50 l14 -33 -2 55 c-1 30 -7 66 -13 80 l-11 25 0 -27z"/>
<path d="M1922 845 c0 -16 2 -22 5 -12 2 9 2 23 0 30 -3 6 -5 -1 -5 -18z"/>
<path d="M626 844 c-9 -22 -8 -24 9 -18 8 4 15 12 15 20 0 19 -16 18 -24 -2z"/>
<path d="M826 825 c-4 -20 -5 -40 -2 -43 3 -3 6 4 6 16 0 11 5 22 12 24 8 3 8
9 1 22 -9 16 -11 13 -17 -19z"/>
<path d="M1770 817 c0 -26 5 -47 10 -47 7 0 9 16 6 41 -6 58 -16 61 -16 6z"/>
<path d="M570 834 c0 -8 5 -12 10 -9 6 3 10 10 10 16 0 5 -4 9 -10 9 -5 0 -10
-7 -10 -16z"/>
<path d="M1570 840 c0 -5 5 -10 10 -10 6 0 10 5 10 10 0 6 -4 10 -10 10 -5 0
-10 -4 -10 -10z"/>
<path d="M721 824 c0 -11 3 -14 6 -6 3 7 2 16 -1 19 -3 4 -6 -2 -5 -13z"/>
<path d="M1000 824 c0 -8 5 -12 10 -9 6 4 8 11 5 16 -9 14 -15 11 -15 -7z"/>
<path d="M2923 765 c0 -44 2 -61 4 -37 2 23 2 59 0 80 -2 20 -4 1 -4 -43z"/>
<path d="M490 820 c0 -6 -5 -8 -12 -4 -7 4 -8 3 -4 -4 9 -14 36 -16 36 -3 0 6
-4 13 -10 16 -5 3 -10 1 -10 -5z"/>
<path d="M752 818 c-7 -7 -12 -19 -11 -27 0 -11 2 -12 6 -3 2 6 9 10 14 6 5
-3 9 4 9 15 0 24 -2 25 -18 9z"/>
<path d="M1940 804 c0 -14 4 -23 9 -20 5 3 7 15 4 26 -7 28 -13 25 -13 -6z"/>
<path d="M553 796 c0 -14 3 -26 8 -26 11 0 11 21 0 39 -6 9 -8 5 -8 -13z"/>
<path d="M1591 812 c-1 -7 -5 -11 -10 -7 -6 3 -6 -7 0 -27 6 -22 5 -50 -3 -86
-9 -42 -9 -55 0 -61 7 -4 11 -24 10 -44 -3 -38 -18 -52 -18 -17 0 11 -4 20
-10 20 -14 0 -13 -12 7 -51 9 -18 18 -28 21 -21 3 9 11 5 24 -10 l20 -23 -8
30 c-4 17 -11 32 -16 33 -11 5 -10 32 2 32 6 0 10 7 10 15 0 8 -5 15 -12 15
-6 0 -8 3 -5 6 3 4 0 16 -8 28 -19 26 -19 37 0 30 8 -4 15 -14 15 -23 0 -13 2
-13 9 -2 5 8 3 25 -6 42 -8 17 -12 40 -9 52 3 13 1 36 -3 52 -5 17 -10 24 -10
17z"/>
<path d="M1662 790 c0 -19 2 -27 5 -17 2 9 2 25 0 35 -3 9 -5 1 -5 -18z"/>
<path d="M874 785 c-4 -14 -4 -43 0 -65 3 -22 2 -41 -4 -45 -5 -3 -10 -12 -10
-18 0 -7 4 -6 10 3 7 11 11 9 19 -13 14 -36 14 -77 1 -77 -5 0 -10 -5 -10 -11
0 -5 4 -8 9 -4 6 3 13 -10 17 -30 3 -19 10 -35 15 -35 4 0 10 -17 12 -37 2
-21 3 -14 1 15 -1 29 -8 60 -14 67 -7 9 -9 27 -5 45 4 19 2 36 -5 45 -7 8 -9
15 -5 15 4 0 2 7 -5 15 -7 8 -9 22 -6 31 4 9 1 23 -5 30 -7 9 -9 30 -5 54 7
44 0 54 -10 15z"/>
<path d="M970 797 c0 -10 7 -25 15 -33 19 -19 19 -14 0 22 -11 21 -15 24 -15
11z"/>
<path d="M1185 779 c-1 -16 3 -29 8 -29 4 0 5 -4 2 -10 -3 -5 -8 -33 -10 -60
-3 -50 16 -110 35 -110 10 0 3 27 -12 46 -4 6 -7 32 -6 56 2 36 6 44 18 40 12
-5 13 -3 3 10 -7 8 -11 17 -8 20 3 3 -1 11 -9 17 -8 7 -13 18 -10 26 3 7 2 15
-3 18 -4 3 -8 -8 -8 -24z"/>
<path d="M1217 790 c3 -11 7 -20 9 -20 2 0 4 9 4 20 0 11 -4 20 -9 20 -5 0 -7
-9 -4 -20z"/>
<path d="M1390 789 c0 -11 5 -17 10 -14 6 3 10 13 10 21 0 8 -4 14 -10 14 -5
0 -10 -9 -10 -21z"/>
<path d="M1690 790 c0 -11 4 -20 9 -20 6 0 9 9 8 20 -1 11 -5 20 -9 20 -4 0
-8 -9 -8 -20z"/>
<path d="M1808 765 c-3 -27 -3 -54 1 -58 13 -13 17 14 11 63 l-5 45 -7 -50z"/>
<path d="M1858 793 c-6 -23 16 -71 26 -55 3 5 0 24 -8 42 -11 27 -14 29 -18
13z"/>
<path d="M1911 794 c0 -11 3 -14 6 -6 3 7 2 16 -1 19 -3 4 -6 -2 -5 -13z"/>
<path d="M615 790 c3 -5 10 -10 16 -10 5 0 9 5 9 10 0 6 -7 10 -16 10 -8 0
-12 -4 -9 -10z"/>
<path d="M580 774 c0 -8 5 -12 10 -9 6 3 10 10 10 16 0 5 -4 9 -10 9 -5 0 -10
-7 -10 -16z"/>
<path d="M782 770 c0 -14 2 -19 5 -12 2 6 2 18 0 25 -3 6 -5 1 -5 -13z"/>
<path d="M261 740 c-2 -58 1 -341 4 -400 1 -25 3 -112 4 -194 0 -82 3 -147 6
-144 9 9 5 699 -4 743 l-9 40 -1 -45z"/>
<path d="M1410 764 c0 -8 5 -12 10 -9 6 3 10 10 10 16 0 5 -4 9 -10 9 -5 0
-10 -7 -10 -16z"/>
<path d="M496 753 c-4 -13 -3 -30 2 -39 13 -24 22 -2 13 32 -7 28 -8 28 -15 7z"/>
<path d="M661 754 c0 -11 3 -14 6 -6 3 7 2 16 -1 19 -3 4 -6 -2 -5 -13z"/>
<path d="M811 753 c-1 -12 -4 -30 -8 -40 -7 -17 -6 -17 11 0 15 14 16 23 8 40
l-11 22 0 -22z"/>
<path d="M1293 730 c1 -22 5 -40 9 -40 4 0 6 18 5 40 -1 22 -5 40 -9 40 -4 0
-6 -18 -5 -40z"/>
<path d="M1465 750 c-3 -11 -2 -28 4 -37 8 -15 10 -11 11 20 0 41 -5 47 -15
17z"/>
<path d="M1562 745 c0 -16 2 -22 5 -12 2 9 2 23 0 30 -3 6 -5 -1 -5 -18z"/>
<path d="M1617 755 c-5 -12 -4 -21 2 -23 6 -2 11 -12 11 -23 0 -10 5 -19 10
-19 12 0 13 23 1 36 -5 5 -11 18 -13 29 -4 20 -4 20 -11 0z"/>
<path d="M461 744 c0 -11 3 -14 6 -6 3 7 2 16 -1 19 -3 4 -6 -2 -5 -13z"/>
<path d="M620 750 c0 -5 5 -10 10 -10 6 0 10 5 10 10 0 6 -4 10 -10 10 -5 0
-10 -4 -10 -10z"/>
<path d="M712 740 c0 -14 2 -19 5 -12 2 6 2 18 0 25 -3 6 -5 1 -5 -13z"/>
<path d="M751 744 c0 -11 3 -14 6 -6 3 7 2 16 -1 19 -3 4 -6 -2 -5 -13z"/>
<path d="M1761 723 c1 -21 -1 -57 -5 -80 -6 -31 -4 -43 4 -43 9 0 9 -4 2 -13
-6 -7 -12 -61 -14 -120 -2 -84 0 -107 10 -107 11 0 12 12 7 51 -5 37 -4 50 4
45 7 -5 11 3 11 21 0 15 3 39 7 52 4 17 3 22 -5 17 -13 -8 -16 6 -5 18 12 11
14 56 3 56 -5 0 -10 16 -10 35 0 41 20 48 21 8 l0 -28 10 25 c8 19 6 27 -5 36
-9 6 -16 23 -16 38 0 14 -4 26 -10 26 -5 0 -9 -17 -9 -37z m6 -215 c-3 -8 -6
-5 -6 6 -1 11 2 17 5 13 3 -3 4 -12 1 -19z"/>
<path d="M585 740 c-4 -6 -11 -8 -16 -5 -5 4 -9 0 -9 -8 0 -10 7 -13 20 -10
11 3 20 12 20 19 0 16 -6 18 -15 4z"/>
<path d="M1026 735 c4 -8 8 -15 10 -15 2 0 4 7 4 15 0 8 -4 15 -10 15 -5 0 -7
-7 -4 -15z"/>
<path d="M1133 683 c-2 -75 -7 -111 -22 -161 -12 -41 -5 -68 13 -49 7 7 16 53
19 102 4 50 10 101 13 115 3 14 -1 33 -8 43 -11 15 -13 8 -15 -50z m-11 -195
c-7 -7 -12 -8 -12 -2 0 14 12 26 19 19 2 -3 -1 -11 -7 -17z"/>
<path d="M1375 740 c3 -5 8 -10 11 -10 2 0 4 5 4 10 0 6 -5 10 -11 10 -5 0 -7
-4 -4 -10z"/>
<path d="M1532 730 c0 -14 2 -19 5 -12 2 6 2 18 0 25 -3 6 -5 1 -5 -13z"/>
<path d="M1707 743 c-14 -13 -7 -42 8 -37 19 8 20 -19 1 -35 -11 -10 -15 -8
-19 6 -3 10 -3 1 0 -20 3 -25 0 -45 -11 -62 -18 -27 -21 -45 -7 -45 5 0 12 11
15 25 4 14 11 23 16 20 15 -9 12 -59 -5 -81 -14 -19 -14 -19 -15 1 -1 11 -4
14 -7 7 -2 -6 -8 -10 -13 -7 -10 6 -25 -53 -16 -62 3 -4 6 3 6 14 0 12 7 23
15 27 8 3 15 1 15 -4 0 -6 -4 -10 -9 -10 -4 0 -11 -17 -14 -37 -3 -21 -9 -48
-12 -59 -5 -16 -2 -23 14 -27 23 -6 28 12 11 43 -7 13 -7 21 0 25 5 3 10 17
10 29 0 13 8 34 19 47 24 32 34 108 15 116 -12 4 -11 8 1 26 8 12 15 29 15 38
0 23 -25 70 -33 62z"/>
<path d="M1905 741 c-3 -5 -1 -12 5 -16 5 -3 10 1 10 9 0 18 -6 21 -15 7z"/>
<path d="M971 724 c0 -11 3 -14 6 -6 3 7 2 16 -1 19 -3 4 -6 -2 -5 -13z"/>
<path d="M996 723 c-4 -9 -2 -21 4 -27 7 -7 10 -2 10 17 0 31 -5 34 -14 10z"/>
<path d="M1664 726 c-8 -22 3 -33 18 -18 9 9 9 15 0 24 -9 9 -13 7 -18 -6z"/>
<path d="M2021 724 c0 -11 3 -14 6 -6 3 7 2 16 -1 19 -3 4 -6 -2 -5 -13z"/>
<path d="M724 706 c-3 -14 -4 -31 -1 -38 3 -7 6 0 6 15 1 16 5 26 11 22 6 -3
10 -2 10 4 0 22 -20 20 -26 -3z"/>
<path d="M845 717 c-4 -10 -5 -21 -1 -24 10 -10 18 4 13 24 -4 17 -4 17 -12 0z"/>
<path d="M1340 688 c-22 -46 -25 -68 -10 -68 6 0 10 6 9 13 -4 21 13 67 22 61
5 -3 9 4 9 15 0 31 -7 26 -30 -21z"/>
<path d="M1430 713 c0 -13 -4 -23 -10 -23 -5 0 -10 -11 -10 -25 0 -14 5 -25
10 -25 6 0 10 8 10 18 0 10 5 23 11 29 8 8 8 16 0 30 -10 17 -10 16 -11 -4z"/>
<path d="M1836 703 c-4 -9 -2 -21 4 -27 7 -7 10 -2 10 17 0 31 -5 34 -14 10z"/>
<path d="M613 690 c1 -11 5 -20 9 -20 4 0 8 9 8 20 0 11 -4 20 -9 20 -6 0 -9
-9 -8 -20z"/>
<path d="M640 703 c0 -4 5 -15 10 -23 8 -13 10 -13 10 2 0 9 -4 20 -10 23 -5
3 -10 3 -10 -2z"/>
<path d="M567 687 c-3 -7 3 -13 14 -13 22 0 25 12 5 19 -8 3 -16 0 -19 -6z"/>
<path d="M955 687 c-4 -10 -5 -21 -1 -24 10 -10 18 4 13 24 -4 17 -4 17 -12 0z"/>
<path d="M1890 689 c0 -5 -4 -7 -10 -4 -5 3 -10 0 -10 -8 0 -7 7 -14 15 -14 8
0 15 9 15 19 0 10 -2 18 -5 18 -3 0 -5 -5 -5 -11z"/>
<path d="M2429 580 c-2 -69 -3 -127 -2 -129 1 -2 14 -1 28 3 28 7 32 21 10 42
-11 11 -15 12 -15 3 0 -7 -3 -9 -6 -6 -4 4 -2 12 4 20 14 17 12 117 -2 117 -6
0 -4 5 4 10 9 6 10 10 3 10 -6 0 -13 12 -15 28 -2 15 -6 -29 -9 -98z"/>
<path d="M482 665 c1 -14 5 -25 9 -25 10 0 20 30 13 41 -11 18 -24 9 -22 -16z"/>
<path d="M520 675 c0 -8 5 -15 10 -15 6 0 10 7 10 15 0 8 -4 15 -10 15 -5 0
-10 -7 -10 -15z"/>
<path d="M980 678 c0 -9 -3 -25 -6 -35 -5 -13 -1 -11 11 5 13 18 14 27 6 35
-8 8 -11 7 -11 -5z"/>
<path d="M1261 684 c-1 -5 6 -19 14 -30 14 -18 14 -18 15 4 0 13 -4 21 -9 18
-5 -4 -12 0 -14 6 -3 7 -6 8 -6 2z"/>
<path d="M1671 674 c0 -11 3 -14 6 -6 3 7 2 16 -1 19 -3 4 -6 -2 -5 -13z"/>
<path d="M2340 665 c0 -14 -3 -25 -7 -25 -5 0 -7 -36 -5 -81 2 -48 -1 -85 -7
-93 -14 -16 10 -29 34 -20 12 5 13 10 4 20 -7 8 -10 51 -7 119 1 58 0 105 -4
105 -5 0 -8 -11 -8 -25z"/>
<path d="M755 670 c3 -5 8 -10 11 -10 2 0 4 5 4 10 0 6 -5 10 -11 10 -5 0 -7
-4 -4 -10z"/>
<path d="M786 665 c-3 -9 -6 -22 -5 -28 0 -7 5 -1 10 12 5 13 8 26 5 28 -2 2
-6 -3 -10 -12z"/>
<path d="M2923 645 c0 -22 2 -30 4 -17 2 12 2 30 0 40 -3 9 -5 -1 -4 -23z"/>
<path d="M454 646 c2 -15 6 -29 9 -32 3 -4 5 6 3 20 -1 14 -5 29 -9 32 -3 3
-4 -6 -3 -20z"/>
<path d="M1370 646 c0 -31 6 -34 13 -6 3 11 1 23 -4 26 -5 3 -9 -6 -9 -20z"/>
<path d="M1442 645 c-6 -13 -7 -28 -1 -36 9 -15 13 -6 9 24 -1 9 4 16 11 15 6
-2 13 2 16 8 7 21 -25 10 -35 -11z"/>
<path d="M550 651 c0 -6 5 -13 10 -16 6 -3 10 1 10 9 0 9 -4 16 -10 16 -5 0
-10 -4 -10 -9z"/>
<path d="M587 646 c-3 -8 -2 -18 3 -21 13 -8 24 15 12 27 -6 6 -11 4 -15 -6z"/>
<path d="M840 651 c0 -7 -4 -9 -10 -6 -5 3 -10 -3 -10 -14 0 -12 4 -21 9 -21
12 0 25 39 17 47 -3 4 -6 1 -6 -6z"/>
<path d="M1252 640 c0 -14 2 -19 5 -12 2 6 2 18 0 25 -3 6 -5 1 -5 -13z"/>
<path d="M1831 630 c0 -33 1 -34 11 -12 8 17 8 26 0 34 -9 9 -12 4 -11 -22z"/>
<path d="M511 634 c0 -11 3 -14 6 -6 3 7 2 16 -1 19 -3 4 -6 -2 -5 -13z"/>
<path d="M530 633 c0 -13 -5 -23 -11 -23 -5 0 -7 -5 -3 -11 4 -8 9 -7 15 2 6
10 9 6 9 -13 0 -16 3 -28 8 -28 10 0 32 -50 32 -72 0 -10 5 -18 11 -18 7 0 9
-10 5 -24 -4 -16 -1 -28 7 -33 14 -8 34 -53 40 -88 8 -40 47 -105 47 -76 0 5
-4 13 -10 16 -5 3 -10 15 -10 25 0 10 -20 74 -45 141 -24 67 -42 127 -38 133
3 6 2 8 -2 3 -5 -4 -19 14 -32 40 -16 35 -23 42 -23 26z"/>
<path d="M931 640 c0 -8 4 -24 9 -35 5 -13 9 -14 9 -5 0 8 -4 24 -9 35 -5 13
-9 14 -9 5z"/>
<path d="M1001 633 c0 -12 -6 -23 -12 -25 -7 -2 -10 -11 -7 -18 7 -21 31 26
25 48 -4 13 -5 11 -6 -5z"/>
<path d="M1070 631 c0 -25 6 -27 13 -6 4 8 2 17 -3 20 -6 4 -10 -3 -10 -14z"/>
<path d="M1666 627 c-5 -15 -6 -31 -2 -34 11 -11 18 5 14 34 l-4 28 -8 -28z"/>
<path d="M1860 621 c0 -16 -7 -34 -15 -41 -8 -7 -15 -22 -14 -34 1 -19 2 -18
9 4 7 21 8 22 9 5 1 -13 7 -6 16 20 17 47 19 75 5 75 -5 0 -10 -13 -10 -29z"/>
<path d="M2598 574 c2 -41 0 -74 -5 -75 -63 -6 -64 -19 0 -19 31 0 59 5 62 10
3 6 -3 10 -14 10 -19 0 -21 6 -21 64 0 39 -5 68 -12 74 -10 8 -12 -5 -10 -64z"/>
<path d="M1297 633 c-4 -3 -7 -13 -7 -22 1 -13 3 -13 11 2 11 19 8 33 -4 20z"/>
<path d="M861 606 c-6 -16 -10 -34 -7 -40 2 -6 5 -3 5 6 1 9 6 18 12 20 6 2 9
13 7 23 -4 17 -6 16 -17 -9z"/>
<path d="M640 606 c0 -8 5 -18 10 -21 6 -3 10 3 10 14 0 12 -4 21 -10 21 -5 0
-10 -6 -10 -14z"/>
<path d="M762 611 c-10 -6 -10 -10 3 -21 13 -11 15 -9 15 9 0 24 0 24 -18 12z"/>
<path d="M790 611 c0 -6 5 -13 10 -16 6 -3 10 1 10 9 0 9 -4 16 -10 16 -5 0
-10 -4 -10 -9z"/>
<path d="M1390 610 c0 -5 5 -10 11 -10 7 0 9 -10 5 -26 -4 -15 -3 -23 3 -20 5
3 11 3 14 -1 2 -5 2 -2 0 5 -1 8 -3 25 -3 38 0 15 -6 24 -15 24 -8 0 -15 -4
-15 -10z"/>
<path d="M1942 595 c0 -16 2 -22 5 -12 2 9 2 23 0 30 -3 6 -5 -1 -5 -18z"/>
<path d="M591 594 c0 -11 3 -14 6 -6 3 7 2 16 -1 19 -3 4 -6 -2 -5 -13z"/>
<path d="M1247 603 c-3 -5 -8 -35 -12 -68 -4 -33 -11 -65 -16 -71 -13 -16 -5
-284 9 -310 9 -17 8 -25 -3 -40 -17 -22 -20 -54 -5 -54 6 0 10 11 10 24 0 14
4 28 10 31 13 8 4 -73 -11 -91 -6 -8 -9 -14 -6 -14 3 0 12 -3 21 -6 14 -5 16
7 16 102 -1 98 -2 106 -14 84 -13 -22 -14 -16 -11 63 2 48 0 87 -4 87 -4 0 -7
27 -6 59 0 42 5 65 18 78 19 22 23 38 5 27 -8 -5 -9 -2 -3 12 17 39 19 116 2
87z"/>
<path d="M1966 595 c4 -8 8 -15 10 -15 2 0 4 7 4 15 0 8 -4 15 -10 15 -5 0 -7
-7 -4 -15z"/>
<path d="M1330 586 c0 -8 5 -18 10 -21 6 -3 10 3 10 14 0 12 -4 21 -10 21 -5
0 -10 -6 -10 -14z"/>
<path d="M2920 432 c0 -122 3 -172 11 -172 9 0 10 45 5 167 -4 92 -9 169 -11
172 -3 2 -5 -73 -5 -167z"/>
<path d="M467 584 c-4 -4 -7 -17 -7 -28 1 -19 1 -20 11 -3 11 19 8 43 -4 31z"/>
<path d="M736 572 c-4 -13 -5 -26 -2 -29 10 -11 18 4 14 29 l-4 23 -8 -23z"/>
<path d="M831 574 c0 -11 3 -14 6 -6 3 7 2 16 -1 19 -3 4 -6 -2 -5 -13z"/>
<path d="M1465 581 c-3 -5 -1 -12 5 -16 5 -3 10 1 10 9 0 18 -6 21 -15 7z"/>
<path d="M800 562 c0 -19 27 -38 38 -27 3 3 0 5 -6 5 -7 0 -12 6 -12 14 0 8
-4 18 -10 21 -5 3 -10 -3 -10 -13z"/>
<path d="M1172 560 c0 -14 2 -19 5 -12 2 6 2 18 0 25 -3 6 -5 1 -5 -13z"/>
<path d="M1307 565 c-4 -8 -2 -17 3 -20 6 -4 10 3 10 14 0 25 -6 27 -13 6z"/>
<path d="M1365 570 c-3 -5 1 -10 9 -10 9 0 16 5 16 10 0 6 -4 10 -9 10 -6 0
-13 -4 -16 -10z"/>
<path d="M1520 561 c0 -25 6 -27 13 -6 4 8 2 17 -3 20 -6 4 -10 -3 -10 -14z"/>
<path d="M513 543 c0 -18 4 -33 9 -33 10 0 9 18 -2 45 -6 16 -8 14 -7 -12z"/>
<path d="M612 558 c6 -18 28 -21 28 -4 0 9 -7 16 -16 16 -9 0 -14 -5 -12 -12z"/>
<path d="M972 550 c0 -14 2 -19 5 -12 2 6 2 18 0 25 -3 6 -5 1 -5 -13z"/>
<path d="M442 540 c0 -14 2 -19 5 -12 2 6 2 18 0 25 -3 6 -5 1 -5 -13z"/>
<path d="M1640 540 c0 -19 3 -21 12 -12 9 9 9 15 0 24 -9 9 -12 7 -12 -12z"/>
<path d="M2006 524 c-4 -20 -5 -38 -3 -40 3 -3 8 11 11 32 4 20 5 38 3 40 -3
3 -8 -11 -11 -32z"/>
<path d="M771 543 c0 -4 4 -17 9 -28 8 -19 9 -19 9 2 1 12 -3 25 -9 28 -5 3
-10 3 -9 -2z"/>
<path d="M1204 542 c-6 -4 -14 -29 -17 -57 -5 -41 -4 -45 5 -25 9 23 28 90 24
90 0 0 -6 -4 -12 -8z"/>
<path d="M1350 540 c-9 -6 -11 -10 -3 -10 8 0 10 -7 6 -17 -6 -16 -5 -17 11
-3 11 8 14 16 7 18 -6 2 -9 8 -5 13 7 11 3 11 -16 -1z"/>
<path d="M1448 543 c6 -2 12 -14 13 -26 0 -12 4 -31 9 -42 6 -16 8 -13 8 15
-1 37 -13 61 -32 59 -7 0 -6 -2 2 -6z"/>
<path d="M1802 520 c0 -19 2 -27 5 -17 2 9 2 25 0 35 -3 9 -5 1 -5 -18z"/>
<path d="M475 499 c-4 -22 -4 -43 -1 -46 3 -4 6 3 6 15 0 11 5 24 10 27 13 8
13 45 1 45 -5 0 -12 -18 -16 -41z"/>
<path d="M848 518 c-19 -23 -20 -42 -9 -93 5 -22 8 -26 13 -14 3 9 2 22 -3 30
-14 23 -11 59 6 59 8 0 15 2 15 4 0 2 3 11 6 20 9 23 -8 19 -28 -6z"/>
<path d="M1981 524 c0 -11 3 -14 6 -6 3 7 2 16 -1 19 -3 4 -6 -2 -5 -13z"/>
<path d="M2030 531 c0 -6 4 -13 10 -16 6 -3 7 1 4 9 -7 18 -14 21 -14 7z"/>
<path d="M1392 506 c-15 -33 -11 -44 7 -22 7 8 11 23 9 32 -2 14 -6 11 -16
-10z"/>
<path d="M1490 516 c0 -8 5 -18 10 -21 6 -3 10 3 10 14 0 12 -4 21 -10 21 -5
0 -10 -6 -10 -14z"/>
<path d="M2706 521 c-4 -6 -11 -9 -16 -6 -4 3 -10 -1 -13 -9 -3 -8 2 -16 13
-19 32 -8 43 -100 37 -305 -5 -141 -3 -182 6 -179 9 3 12 60 13 218 2 182 -1
221 -16 263 -10 28 -20 44 -24 37z"/>
<path d="M634 504 c3 -9 6 -21 6 -27 0 -8 3 -8 11 0 13 13 5 43 -12 43 -6 0
-8 -7 -5 -16z"/>
<path d="M740 500 c0 -11 5 -20 10 -20 6 0 10 9 10 20 0 11 -4 20 -10 20 -5 0
-10 -9 -10 -20z"/>
<path d="M1296 511 c-4 -7 -5 -15 -2 -18 9 -9 19 4 14 18 -4 11 -6 11 -12 0z"/>
<path d="M1940 500 c0 -11 -4 -20 -10 -20 -5 0 -10 -7 -10 -15 0 -23 16 -18
28 10 15 32 15 45 2 45 -5 0 -10 -9 -10 -20z"/>
<path d="M1422 490 c0 -14 2 -19 5 -12 2 6 2 18 0 25 -3 6 -5 1 -5 -13z"/>
<path d="M1531 494 c0 -11 3 -14 6 -6 3 7 2 16 -1 19 -3 4 -6 -2 -5 -13z"/>
<path d="M1552 490 c0 -14 2 -19 5 -12 2 6 2 18 0 25 -3 6 -5 1 -5 -13z"/>
<path d="M801 481 c-1 -19 -4 -21 -15 -11 -13 10 -13 8 -3 -14 12 -25 12 -25
20 -4 4 12 6 29 4 37 -3 9 -5 6 -6 -8z"/>
<path d="M877 493 c-11 -10 -8 -43 3 -43 6 0 10 11 10 25 0 26 -2 29 -13 18z"/>
<path d="M1583 487 c-6 -6 -13 -20 -16 -30 -6 -15 -4 -16 15 -6 18 10 20 9 15
-5 -4 -10 -1 -16 7 -16 8 0 11 10 8 30 -5 35 -16 45 -29 27z"/>
<path d="M1719 498 c0 -2 -2 -20 -4 -41 -2 -21 -7 -48 -11 -60 -4 -15 -3 -19
4 -12 11 11 27 115 18 115 -3 0 -6 -1 -7 -2z"/>
<path d="M560 476 c0 -9 -4 -14 -10 -11 -5 3 -10 -1 -10 -9 0 -9 4 -16 9 -16
12 0 25 39 17 47 -3 4 -6 -1 -6 -11z"/>
<path d="M1360 476 c0 -8 4 -17 9 -20 5 -4 7 3 4 14 -6 23 -13 26 -13 6z"/>
<path d="M1821 483 c-1 -6 -4 -20 -7 -30 -5 -17 -5 -17 6 0 6 10 9 23 6 30 -3
9 -5 9 -5 0z"/>
<path d="M500 474 c1 -16 29 -60 29 -44 0 8 -6 24 -14 34 -8 11 -15 16 -15 10z"/>
<path d="M901 464 c0 -11 3 -14 6 -6 3 7 2 16 -1 19 -3 4 -6 -2 -5 -13z"/>
<path d="M1142 468 c-7 -7 -12 -23 -13 -37 0 -23 -1 -24 -9 -6 -6 15 -7 11 -7
-18 1 -52 18 -41 32 21 7 29 11 52 11 52 -1 0 -7 -5 -14 -12z"/>
<path d="M1320 465 c0 -11 8 -29 16 -40 15 -19 15 -19 8 10 -8 37 -24 57 -24
30z"/>
<path d="M1445 352 c2 -71 9 -141 15 -156 13 -35 13 -43 -2 -49 -10 -3 -10 -9
0 -26 14 -25 16 -68 2 -73 -14 -5 0 -48 16 -48 16 0 19 16 4 25 -6 4 -6 15 0
31 7 17 6 32 0 45 -7 13 -7 19 0 19 12 0 14 47 1 54 -4 3 -8 39 -7 81 1 41 -1
75 -4 75 -5 0 -6 7 -10 98 -1 28 -6 52 -11 52 -4 0 -6 -58 -4 -128z"/>
<path d="M433 437 c0 -20 5 -34 9 -31 11 7 10 35 -1 53 -6 10 -9 3 -8 -22z"/>
<path d="M1240 455 c-6 -8 -8 -20 -4 -27 4 -7 7 -27 6 -46 -2 -18 1 -31 5 -29
9 5 17 117 9 117 -2 0 -9 -7 -16 -15z"/>
<path d="M1290 446 c0 -14 5 -28 10 -31 6 -3 10 5 10 19 0 14 -4 28 -10 31 -6
3 -10 -5 -10 -19z"/>
<path d="M1840 469 c0 -2 -9 -29 -20 -59 -13 -36 -15 -49 -6 -37 11 14 15 15
19 5 2 -7 3 0 1 16 -3 21 0 27 10 23 10 -4 13 1 11 19 -2 20 -15 48 -15 33z"/>
<path d="M1960 450 c0 -11 2 -20 4 -20 2 0 6 9 9 20 3 11 1 20 -4 20 -5 0 -9
-9 -9 -20z"/>
<path d="M682 440 c0 -14 2 -19 5 -12 2 6 2 18 0 25 -3 6 -5 1 -5 -13z"/>
<path d="M740 444 c0 -8 5 -12 10 -9 6 4 8 11 5 16 -9 14 -15 11 -15 -7z"/>
<path d="M1503 453 c-15 -5 -17 -23 -4 -23 5 0 11 7 15 15 3 8 4 15 3 14 -1 0
-8 -3 -14 -6z"/>
<path d="M2216 445 c-2 -7 2 -16 10 -19 9 -3 12 -1 9 4 -3 6 1 10 9 10 25 0
26 15 1 16 -13 1 -26 -4 -29 -11z"/>
<path d="M492 425 c0 -16 2 -22 5 -12 2 9 2 23 0 30 -3 6 -5 -1 -5 -18z"/>
<path d="M1421 434 c0 -11 3 -14 6 -6 3 7 2 16 -1 19 -3 4 -6 -2 -5 -13z"/>
<path d="M1630 433 c0 -13 5 -23 10 -23 13 0 13 11 0 30 -8 12 -10 11 -10 -7z"/>
<path d="M1991 434 c0 -11 3 -14 6 -6 3 7 2 16 -1 19 -3 4 -6 -2 -5 -13z"/>
<path d="M2042 430 c0 -14 2 -19 5 -12 2 6 2 18 0 25 -3 6 -5 1 -5 -13z"/>
<path d="M661 424 c0 -11 3 -14 6 -6 3 7 2 16 -1 19 -3 4 -6 -2 -5 -13z"/>
<path d="M1361 424 c0 -11 3 -14 6 -6 3 7 2 16 -1 19 -3 4 -6 -2 -5 -13z"/>
<path d="M1391 424 c0 -11 3 -14 6 -6 3 7 2 16 -1 19 -3 4 -6 -2 -5 -13z"/>
<path d="M1917 433 c-11 -10 -8 -43 3 -43 6 0 10 -8 11 -17 0 -15 2 -15 8 2 5
12 3 25 -6 33 -7 8 -11 18 -8 23 7 10 1 12 -8 2z"/>
<path d="M2110 430 c0 -5 5 -10 10 -10 6 0 10 5 10 10 0 6 -4 10 -10 10 -5 0
-10 -4 -10 -10z"/>
<path d="M2150 436 c0 -2 7 -6 15 -10 8 -3 15 -1 15 4 0 6 -7 10 -15 10 -8 0
-15 -2 -15 -4z"/>
<path d="M555 420 c-3 -5 -1 -18 4 -27 9 -16 10 -14 11 10 0 28 -5 34 -15 17z"/>
<path d="M807 409 c-3 -12 -2 -29 2 -37 6 -11 10 -8 15 13 4 15 3 32 -2 37 -6
6 -12 1 -15 -13z"/>
<path d="M1176 418 c-20 -71 -42 -178 -35 -178 4 0 10 10 12 23 2 12 3 -16 2
-63 -2 -47 -6 -93 -10 -102 -4 -9 -3 -23 1 -30 12 -18 14 -59 3 -53 -5 4 -9 1
-9 -4 0 -6 9 -11 20 -11 18 0 19 9 22 215 2 118 2 215 0 215 -1 0 -4 -6 -6
-12z"/>
<path d="M1470 411 c0 -11 5 -23 10 -26 6 -4 10 5 10 19 0 14 -4 26 -10 26 -5
0 -10 -9 -10 -19z"/>
<path d="M1551 414 c0 -11 3 -14 6 -6 3 7 2 16 -1 19 -3 4 -6 -2 -5 -13z"/>
<path d="M1571 414 c0 -11 3 -14 6 -6 3 7 2 16 -1 19 -3 4 -6 -2 -5 -13z"/>
<path d="M1785 417 c-4 -10 -5 -21 -1 -24 10 -10 18 4 13 24 -4 17 -4 17 -12
0z"/>
<path d="M870 405 c0 -8 5 -15 10 -15 6 0 10 7 10 15 0 8 -4 15 -10 15 -5 0
-10 -7 -10 -15z"/>
<path d="M1084 406 c-3 -8 -1 -22 4 -32 7 -13 9 -10 8 15 -1 34 -4 38 -12 17z"/>
<path d="M1590 399 c0 -11 5 -17 10 -14 6 3 10 13 10 21 0 8 -4 14 -10 14 -5
0 -10 -9 -10 -21z"/>
<path d="M1321 394 c0 -11 3 -14 6 -6 3 7 2 16 -1 19 -3 4 -6 -2 -5 -13z"/>
<path d="M1508 381 c-3 -21 -1 -28 9 -24 14 6 18 53 4 53 -5 0 -11 -13 -13
-29z"/>
<path d="M535 387 c-4 -10 -5 -21 -1 -24 10 -10 18 4 13 24 -4 17 -4 17 -12 0z"/>
<path d="M682 375 c0 -16 2 -22 5 -12 2 9 2 23 0 30 -3 6 -5 -1 -5 -18z"/>
<path d="M760 378 c0 -31 -25 -100 -33 -92 -3 3 -9 -11 -13 -31 -4 -26 -3 -40
6 -45 9 -5 10 -19 6 -45 -5 -23 -4 -35 3 -31 5 3 12 0 15 -6 3 -7 3 24 0 68
-4 58 -2 84 6 89 16 10 30 -14 29 -50 l-1 -30 -8 30 c-5 20 -6 9 -5 -35 2 -36
4 -65 5 -65 2 0 7 -29 16 -88 4 -27 10 -44 14 -37 6 10 1 55 -16 140 -9 44 5
33 16 -12 l8 -33 1 41 c1 30 -4 44 -15 48 -12 4 -13 10 -6 19 12 14 -9 113
-21 101 -4 -4 -7 0 -7 10 0 9 4 15 8 12 4 -2 6 11 4 30 -5 38 -12 46 -12 12z"/>
<path d="M590 381 c0 -5 5 -13 10 -16 6 -3 10 -2 10 4 0 5 -4 13 -10 16 -5 3
-10 2 -10 -4z"/>
<path d="M1340 355 c-6 -19 -9 -41 -7 -48 3 -6 6 -2 6 11 1 13 5 20 11 17 6
-4 10 7 10 24 0 40 -6 39 -20 -4z"/>
<path d="M1880 369 c0 -11 5 -17 10 -14 6 3 10 13 10 21 0 8 -4 14 -10 14 -5
0 -10 -9 -10 -21z"/>
<path d="M1965 381 c-3 -5 -1 -12 5 -16 5 -3 10 1 10 9 0 18 -6 21 -15 7z"/>
<path d="M427 358 c-8 -29 -4 -32 11 -8 6 10 8 21 3 24 -5 3 -11 -4 -14 -16z"/>
<path d="M460 358 c0 -19 2 -20 10 -8 13 19 13 30 0 30 -5 0 -10 -10 -10 -22z"/>
<path d="M1382 360 c0 -14 2 -19 5 -12 2 6 2 18 0 25 -3 6 -5 1 -5 -13z"/>
<path d="M1542 360 c0 -14 2 -19 5 -12 2 6 2 18 0 25 -3 6 -5 1 -5 -13z"/>
<path d="M1610 364 c0 -10 5 -26 10 -34 8 -11 9 -7 4 15 -8 37 -14 45 -14 19z"/>
<path d="M1300 349 c0 -11 5 -17 10 -14 6 3 10 13 10 21 0 8 -4 14 -10 14 -5
0 -10 -9 -10 -21z"/>
<path d="M1401 354 c0 -11 3 -14 6 -6 3 7 2 16 -1 19 -3 4 -6 -2 -5 -13z"/>
<path d="M1591 354 c0 -11 3 -14 6 -6 3 7 2 16 -1 19 -3 4 -6 -2 -5 -13z"/>
<path d="M1707 363 c-4 -3 -7 -11 -7 -17 0 -6 5 -5 12 2 6 6 9 14 7 17 -3 3
-9 2 -12 -2z"/>
<path d="M490 351 c0 -6 5 -13 10 -16 6 -3 10 1 10 9 0 9 -4 16 -10 16 -5 0
-10 -4 -10 -9z"/>
<path d="M1263 344 c-7 -7 -13 -21 -13 -31 0 -12 5 -9 15 11 17 33 16 41 -2
20z"/>
<path d="M560 340 c-12 -8 -10 -10 8 -10 19 0 22 -4 18 -20 -3 -11 -9 -30 -12
-42 -6 -20 -5 -21 10 -6 9 9 16 27 16 39 0 22 0 22 15 3 8 -10 14 -14 14 -9 0
13 -35 55 -46 55 -4 0 -15 -5 -23 -10z"/>
<path d="M811 334 c0 -11 3 -14 6 -6 3 7 2 16 -1 19 -3 4 -6 -2 -5 -13z"/>
<path d="M860 324 c0 -14 4 -23 10 -19 6 3 10 15 10 26 0 10 -4 19 -10 19 -5
0 -10 -12 -10 -26z"/>
<path d="M520 320 c0 -19 3 -21 12 -12 9 9 9 15 0 24 -9 9 -12 7 -12 -12z"/>
<path d="M440 320 c0 -5 5 -10 10 -10 6 0 10 5 10 10 0 6 -4 10 -10 10 -5 0
-10 -4 -10 -10z"/>
<path d="M681 314 c0 -11 3 -14 6 -6 3 7 2 16 -1 19 -3 4 -6 -2 -5 -13z"/>
<path d="M1050 314 c0 -8 5 -12 10 -9 6 4 8 11 5 16 -9 14 -15 11 -15 -7z"/>
<path d="M1517 307 c-19 -24 -22 -37 -7 -37 10 0 34 49 28 56 -2 1 -11 -7 -21
-19z"/>
<path d="M1414 270 c-6 -27 -8 -50 -5 -50 11 0 30 74 22 87 -4 8 -11 -7 -17
-37z"/>
<path d="M475 297 c-3 -9 -7 -23 -9 -31 -3 -10 2 -14 15 -13 21 1 27 17 7 17
-9 0 -8 3 2 10 12 7 12 12 3 21 -10 10 -14 9 -18 -4z"/>
<path d="M545 300 c-3 -5 -1 -10 4 -10 6 0 11 5 11 10 0 6 -2 10 -4 10 -3 0
-8 -4 -11 -10z"/>
<path d="M1087 304 c-11 -11 -8 -26 3 -19 6 4 11 -6 11 -22 1 -23 2 -24 6 -6
5 25 -9 57 -20 47z"/>
<path d="M1273 294 c-3 -9 -1 -19 5 -23 5 -3 12 -17 15 -31 2 -14 4 -4 3 22
-1 48 -11 62 -23 32z"/>
<path d="M1345 268 c-34 -84 -36 -91 -27 -100 6 -6 12 7 16 31 3 23 11 41 16
41 6 0 10 10 10 23 0 13 5 28 12 35 7 7 8 12 2 12 -6 0 -19 -19 -29 -42z"/>
<path d="M1546 302 c-2 -4 -1 -14 5 -22 7 -12 9 -10 9 8 0 23 -5 28 -14 14z"/>
<path d="M442 262 c1 -23 5 -42 10 -42 5 0 6 17 2 38 -9 51 -14 53 -12 4z"/>
<path d="M832 280 c0 -14 2 -19 5 -12 2 6 2 18 0 25 -3 6 -5 1 -5 -13z"/>
<path d="M1385 291 c-3 -5 -1 -12 5 -16 5 -3 10 1 10 9 0 18 -6 21 -15 7z"/>
<path d="M796 277 c3 -10 9 -15 12 -12 3 3 0 11 -7 18 -10 9 -11 8 -5 -6z"/>
<path d="M867 277 c-3 -8 -1 -20 4 -28 6 -10 9 -7 9 14 0 29 -5 35 -13 14z"/>
<path d="M1003 265 c0 -8 4 -15 9 -15 4 0 8 4 8 9 0 6 -4 12 -8 15 -5 3 -9 -1
-9 -9z"/>
<path d="M1240 260 c0 -11 5 -20 10 -20 6 0 10 9 10 20 0 11 -4 20 -10 20 -5
0 -10 -9 -10 -20z"/>
<path d="M511 254 c0 -11 3 -14 6 -6 3 7 2 16 -1 19 -3 4 -6 -2 -5 -13z"/>
<path d="M1043 252 c-3 -12 -10 -22 -15 -22 -5 0 -6 -5 -2 -11 4 -8 12 -2 21
15 8 15 12 31 8 34 -3 3 -8 -4 -12 -16z"/>
<path d="M631 223 c1 -34 2 -35 9 -13 11 36 11 50 0 50 -5 0 -10 -17 -9 -37z"/>
<path d="M1485 250 c-3 -5 -1 -18 4 -27 9 -16 10 -14 11 10 0 28 -5 34 -15 17z"/>
<path d="M1530 233 c0 -21 3 -24 9 -14 5 8 7 20 4 28 -8 21 -13 15 -13 -14z"/>
<path d="M833 235 c-3 -9 -3 -18 -1 -21 3 -3 8 4 11 16 6 23 -1 27 -10 5z"/>
<path d="M471 224 c0 -11 3 -14 6 -6 3 7 2 16 -1 19 -3 4 -6 -2 -5 -13z"/>
<path d="M518 233 c-10 -2 -18 -8 -18 -13 0 -5 7 -7 15 -4 9 4 15 0 15 -7 0
-11 2 -11 8 -1 7 10 15 10 36 2 35 -13 36 -13 36 6 0 11 -6 13 -19 9 -11 -3
-22 -1 -26 5 -6 10 -17 11 -47 3z"/>
<path d="M656 215 c4 -8 8 -15 10 -15 2 0 4 7 4 15 0 8 -4 15 -10 15 -5 0 -7
-7 -4 -15z"/>
<path d="M850 219 c0 -4 7 -9 15 -13 9 -3 15 0 15 8 0 7 -7 13 -15 13 -8 0
-15 -4 -15 -8z"/>
<path d="M1367 223 c-11 -10 -8 -43 3 -43 6 0 10 11 10 25 0 26 -2 29 -13 18z"/>
<path d="M2920 212 c0 -12 4 -22 9 -22 10 0 9 26 -2 36 -4 4 -7 -2 -7 -14z"/>
<path d="M431 194 c0 -11 3 -14 6 -6 3 7 2 16 -1 19 -3 4 -6 -2 -5 -13z"/>
<path d="M1430 184 c0 -14 4 -23 9 -20 5 3 7 15 4 26 -7 28 -13 25 -13 -6z"/>
<path d="M507 177 c4 -22 2 -26 -10 -21 -9 3 -18 13 -20 22 -3 10 -5 4 -6 -11
-1 -18 3 -26 10 -21 7 4 9 -2 7 -17 -2 -13 4 -29 12 -36 10 -8 11 -12 3 -13
-8 0 -11 -11 -9 -28 2 -15 1 -19 -1 -9 -5 20 -23 23 -23 4 0 -18 27 -53 34
-46 4 3 7 31 8 62 1 31 5 54 10 51 4 -3 8 -1 8 5 0 5 -6 11 -12 14 -10 4 -10
7 0 18 14 15 17 43 3 35 -5 -4 -12 0 -15 6 -3 7 -3 1 1 -15z"/>
<path d="M690 191 c0 -6 5 -13 10 -16 6 -3 10 1 10 9 0 9 -4 16 -10 16 -5 0
-10 -4 -10 -9z"/>
<path d="M1033 170 c4 -18 7 -43 7 -57 0 -13 4 -22 9 -19 5 4 5 22 1 43 -5 20
-7 40 -4 44 2 4 -1 11 -7 15 -9 5 -10 -2 -6 -26z"/>
<path d="M1271 194 c0 -7 6 -25 14 -40 14 -27 15 -27 15 -6 0 12 -4 22 -9 22
-5 0 -12 8 -14 18 -3 9 -5 12 -6 6z"/>
<path d="M1395 187 c-4 -10 -5 -21 -1 -24 10 -10 18 4 13 24 -4 17 -4 17 -12
0z"/>
<path d="M1500 181 c0 -12 5 -21 10 -21 6 0 10 6 10 14 0 8 -4 18 -10 21 -5 3
-10 -3 -10 -14z"/>
<path d="M1539 193 c-5 -39 -5 -140 0 -166 4 -20 8 7 9 71 1 56 -1 102 -3 102
-3 0 -5 -3 -6 -7z"/>
<path d="M575 180 c-3 -5 -1 -10 4 -10 6 0 11 5 11 10 0 6 -2 10 -4 10 -3 0
-8 -4 -11 -10z"/>
<path d="M846 174 c-8 -21 -8 -24 3 -24 12 0 22 28 12 35 -5 3 -12 -2 -15 -11z"/>
<path d="M610 161 c0 -10 7 -22 16 -25 12 -5 15 -2 10 10 -3 8 -6 20 -6 25 0
5 -4 9 -10 9 -5 0 -10 -9 -10 -19z"/>
<path d="M2920 163 c0 -10 5 -25 10 -33 8 -12 10 -9 10 12 0 15 -4 30 -10 33
-5 3 -10 -2 -10 -12z"/>
<path d="M441 154 c0 -11 3 -14 6 -6 3 7 2 16 -1 19 -3 4 -6 -2 -5 -13z"/>
<path d="M1117 155 c-4 -8 -2 -17 3 -20 6 -4 10 3 10 14 0 25 -6 27 -13 6z"/>
<path d="M556 144 c-4 -10 -1 -14 6 -12 15 5 23 28 10 28 -5 0 -13 -7 -16 -16z"/>
<path d="M667 153 c-10 -9 -9 -53 2 -53 6 0 11 60 5 60 0 0 -4 -3 -7 -7z"/>
<path d="M690 142 c1 -13 38 -52 49 -52 6 0 11 -19 11 -45 0 -29 4 -45 13 -45
7 0 11 12 10 32 -2 46 -14 79 -24 72 -5 -3 -20 6 -34 20 -14 14 -25 22 -25 18z"/>
<path d="M1201 134 c0 -11 3 -14 6 -6 3 7 2 16 -1 19 -3 4 -6 -2 -5 -13z"/>
<path d="M1330 124 c0 -14 4 -23 10 -19 6 3 10 15 10 26 0 10 -4 19 -10 19 -5
0 -10 -12 -10 -26z"/>
<path d="M1411 134 c0 -11 3 -14 6 -6 3 7 2 16 -1 19 -3 4 -6 -2 -5 -13z"/>
<path d="M586 132 c-2 -4 -1 -14 5 -22 7 -12 9 -10 9 8 0 23 -5 28 -14 14z"/>
<path d="M1364 129 c-3 -6 -1 -16 5 -22 8 -8 11 -5 11 11 0 24 -5 28 -16 11z"/>
<path d="M1098 125 c-4 -4 -4 -13 -1 -21 3 -8 -1 -14 -8 -14 -10 0 -14 -12
-12 -41 0 -22 3 -43 7 -46 8 -8 19 45 13 61 -3 8 -1 16 5 18 5 2 8 14 6 27 -1
12 -6 20 -10 16z"/>
<path d="M450 99 c0 -11 4 -18 10 -14 5 3 7 12 3 20 -7 21 -13 19 -13 -6z"/>
<path d="M550 90 c0 -16 5 -30 10 -30 6 0 10 14 10 30 0 17 -4 30 -10 30 -5 0
-10 -13 -10 -30z"/>
<path d="M641 104 c0 -11 3 -14 6 -6 3 7 2 16 -1 19 -3 4 -6 -2 -5 -13z"/>
<path d="M690 87 c0 -16 4 -26 10 -22 14 8 13 -8 -1 -22 -17 -17 -3 -43 23
-42 l23 1 -23 6 c-30 9 -31 14 -9 37 10 10 14 21 9 24 -5 3 -14 15 -20 26 -11
19 -11 18 -12 -8z"/>
<path d="M1282 90 c0 -14 2 -19 5 -12 2 6 2 18 0 25 -3 6 -5 1 -5 -13z"/>
<path d="M1312 90 c0 -14 2 -19 5 -12 2 6 2 18 0 25 -3 6 -5 1 -5 -13z"/>
<path d="M1412 80 c0 -19 2 -27 5 -17 2 9 2 25 0 35 -3 9 -5 1 -5 -18z"/>
<path d="M1451 84 c0 -11 3 -14 6 -6 3 7 2 16 -1 19 -3 4 -6 -2 -5 -13z"/>
<path d="M1345 70 c-21 -23 -8 -27 20 -7 11 8 14 16 8 20 -6 4 -18 -2 -28 -13z"/>
<path d="M2932 65 c0 -16 2 -22 5 -12 2 9 2 23 0 30 -3 6 -5 -1 -5 -18z"/>
<path d="M590 61 c0 -19 22 -23 37 -6 4 4 2 5 -4 1 -8 -4 -13 -1 -13 8 0 9 -4
16 -10 16 -5 0 -10 -9 -10 -19z"/>
<path d="M1122 60 c0 -14 2 -19 5 -12 2 6 2 18 0 25 -3 6 -5 1 -5 -13z"/>
<path d="M421 54 c0 -11 3 -14 6 -6 3 7 2 16 -1 19 -3 4 -6 -2 -5 -13z"/>
<path d="M645 45 c-14 -14 -25 -31 -25 -38 0 -8 3 -9 8 -1 4 6 14 13 23 16 9
4 19 16 22 27 7 27 3 26 -28 -4z"/>
<path d="M811 54 c0 -11 3 -14 6 -6 3 7 2 16 -1 19 -3 4 -6 -2 -5 -13z"/>
<path d="M1190 55 c0 -8 4 -15 10 -15 5 0 7 7 4 15 -4 8 -8 15 -10 15 -2 0 -4
-7 -4 -15z"/>
<path d="M1282 40 c0 -14 2 -19 5 -12 2 6 2 18 0 25 -3 6 -5 1 -5 -13z"/>
<path d="M1431 44 c0 -11 3 -14 6 -6 3 7 2 16 -1 19 -3 4 -6 -2 -5 -13z"/>
<path d="M520 41 c0 -5 5 -13 10 -16 6 -3 10 -2 10 4 0 5 -4 13 -10 16 -5 3
-10 2 -10 -4z"/>
<path d="M568 25 c-4 -20 -2 -23 8 -14 7 6 10 17 7 25 -7 20 -10 18 -15 -11z"/>
<path d="M1302 30 c0 -14 2 -19 5 -12 2 6 2 18 0 25 -3 6 -5 1 -5 -13z"/>
<path d="M1362 25 c0 -17 2 -22 5 -12 2 9 2 23 0 30 -3 6 -5 -1 -5 -18z"/>
<path d="M441 14 c0 -11 3 -14 6 -6 3 7 2 16 -1 19 -3 4 -6 -2 -5 -13z"/>
<path d="M1501 14 c0 -11 3 -14 6 -6 3 7 2 16 -1 19 -3 4 -6 -2 -5 -13z"/>
</g>
</svg>
