<?xml version="1.0" standalone="no"?>
<!DOCTYPE svg PUBLIC "-//W3C//DTD SVG 20010904//EN"
 "http://www.w3.org/TR/2001/REC-SVG-20010904/DTD/svg10.dtd">
<svg version="1.0" xmlns="http://www.w3.org/2000/svg"
 width="300.000000pt" height="300.000000pt" viewBox="0 0 300.000000 300.000000"
 preserveAspectRatio="xMidYMid meet">
<metadata>
Created by potrace 1.10, written by Peter Selinger 2001-2011
</metadata>
<g transform="translate(0.000000,300.000000) scale(0.100000,-0.100000)"
fill="#000000" stroke="none">
<path d="M204 2974 c5 -28 15 -44 17 -28 6 43 5 54 -8 54 -9 0 -12 -8 -9 -26z"/>
<path d="M610 2984 c0 -22 19 -56 29 -50 13 8 0 66 -15 66 -8 0 -14 -7 -14
-16z"/>
<path d="M730 2996 c0 -2 7 -9 15 -16 13 -11 14 -10 9 4 -5 14 -24 23 -24 12z"/>
<path d="M960 2970 c0 -32 14 -40 24 -14 10 27 7 44 -9 44 -10 0 -15 -10 -15
-30z"/>
<path d="M1080 2980 c0 -11 7 -20 15 -20 8 0 15 5 15 11 0 5 -4 7 -10 4 -5 -3
-10 -2 -10 4 0 5 6 12 13 14 7 3 5 6 -5 6 -12 1 -18 -6 -18 -19z"/>
<path d="M1194 2970 c-1 -17 3 -30 7 -30 5 0 9 6 9 14 0 8 3 21 6 30 4 10 1
16 -7 16 -9 0 -14 -12 -15 -30z"/>
<path d="M1350 2980 c0 -11 2 -20 4 -20 2 0 6 9 9 20 3 11 1 20 -4 20 -5 0 -9
-9 -9 -20z"/>
<path d="M1795 2923 c6 -92 13 -107 13 -26 0 32 1 63 2 68 4 19 0 35 -10 35
-5 0 -7 -31 -5 -77z"/>
<path d="M1820 2990 c0 -5 5 -10 10 -10 6 0 10 5 10 10 0 6 -4 10 -10 10 -5 0
-10 -4 -10 -10z"/>
<path d="M2226 2991 c-9 -13 19 -32 37 -25 14 5 14 8 2 20 -16 16 -31 18 -39
5z"/>
<path d="M2497 2979 c-10 -11 -22 -17 -27 -14 -6 4 -10 1 -10 -4 0 -6 7 -11
15 -11 16 0 55 30 55 42 0 13 -14 7 -33 -13z"/>
<path d="M2570 2990 c-9 -6 -10 -10 -3 -10 6 0 15 5 18 10 8 12 4 12 -15 0z"/>
<path d="M1486 2981 c-4 -6 -13 -8 -21 -4 -16 5 -21 -12 -6 -21 11 -7 48 20
39 29 -3 3 -9 2 -12 -4z"/>
<path d="M836 2965 c-9 -26 -7 -32 5 -12 6 10 9 21 6 23 -2 3 -7 -2 -11 -11z"/>
<path d="M2329 2969 c-9 -6 -11 -11 -3 -16 6 -5 16 -17 22 -28 11 -20 11 -19
12 2 0 19 4 22 35 18 20 -3 35 0 35 5 0 9 -22 15 -43 11 -4 -1 -16 3 -25 8
-11 6 -24 6 -33 0z"/>
<path d="M780 2958 c0 -8 7 -23 15 -34 15 -18 15 -18 13 10 -3 29 -28 50 -28
24z"/>
<path d="M1909 2924 c-1 -27 -1 -54 0 -61 1 -6 -3 -14 -9 -18 -5 -3 -10 -13
-10 -21 0 -8 5 -12 10 -9 6 4 13 -8 17 -26 6 -30 7 -31 14 -11 5 12 5 32 0 45
-4 12 -9 49 -10 81 -2 74 -11 87 -12 20z"/>
<path d="M208 2907 c-3 -19 -2 -25 4 -19 6 6 8 18 6 28 -3 14 -5 12 -10 -9z"/>
<path d="M1015 2916 c-16 -8 -44 -19 -60 -25 -45 -17 -55 -40 -44 -92 11 -47
24 -67 36 -55 4 4 3 10 -3 14 -13 9 -35 83 -27 95 3 5 10 2 15 -7 5 -9 6 -21
2 -28 -5 -7 -3 -8 5 -3 7 4 10 16 7 27 -6 24 18 52 38 45 8 -3 23 1 35 9 24
17 59 10 78 -15 10 -14 14 -14 33 7 11 12 28 22 36 22 8 0 13 4 10 8 -3 5 -27
6 -53 2 -27 -5 -49 -4 -51 1 -5 12 -22 11 -57 -5z m105 -16 c0 -5 -4 -10 -10
-10 -5 0 -10 5 -10 10 0 6 5 10 10 10 6 0 10 -4 10 -10z"/>
<path d="M1830 2919 c0 -5 5 -7 10 -4 6 3 10 8 10 11 0 2 -4 4 -10 4 -5 0 -10
-5 -10 -11z"/>
<path d="M2130 2870 c0 -36 6 -83 12 -105 6 -22 12 -64 12 -93 1 -43 4 -51 16
-45 8 3 40 9 70 13 54 6 54 6 21 14 -19 5 -43 17 -54 27 -11 10 -24 16 -28 13
-5 -3 -6 1 -3 9 3 8 0 18 -5 22 -6 3 -9 11 -5 16 3 5 0 17 -8 26 -7 9 -8 14
-2 10 17 -10 5 124 -12 143 -12 12 -14 5 -14 -50z"/>
<path d="M619 2918 c0 -2 -3 -18 -5 -35 -4 -25 -1 -33 10 -33 18 0 20 17 6 40
-6 9 -5 17 3 22 9 6 9 8 0 8 -7 0 -13 -1 -14 -2z"/>
<path d="M886 2885 c-8 -19 -19 -35 -24 -35 -16 0 -24 33 -10 42 8 5 0 8 -22
8 -29 -1 -32 -2 -17 -11 9 -6 15 -14 12 -20 -4 -5 -1 -9 6 -9 10 0 10 -3 2
-11 -13 -13 -33 -4 -33 17 0 8 -9 14 -21 14 -19 0 -19 -1 -3 -17 11 -11 13
-18 5 -21 -11 -4 -16 -32 -5 -32 4 0 13 8 20 18 13 16 13 16 14 -3 1 -17 2
-18 13 -5 15 19 35 19 48 0 9 -13 10 -13 8 0 -3 17 32 80 44 80 5 0 5 5 2 10
-11 19 -25 10 -39 -25z"/>
<path d="M1190 2895 c-7 -8 -18 -15 -25 -15 -6 0 -25 -12 -41 -26 -16 -14 -41
-31 -55 -39 -15 -8 -29 -21 -32 -30 -4 -8 -11 -15 -16 -15 -6 0 -7 7 -4 17 4
11 3 14 -5 9 -18 -11 -14 13 4 31 12 13 18 13 24 4 5 -10 11 -8 22 8 8 11 18
18 22 14 4 -4 4 0 1 9 -10 26 -36 31 -52 9 -9 -13 -20 -18 -31 -14 -15 6 -15
5 -3 -10 12 -15 10 -18 -10 -26 -13 -5 -18 -10 -11 -10 14 -1 17 -71 2 -71 -5
0 -10 6 -10 13 0 6 -5 4 -11 -6 -6 -10 -8 -25 -5 -32 3 -8 1 -17 -5 -21 -6 -4
-6 -11 1 -19 7 -8 8 -20 4 -26 -4 -8 -3 -9 5 -5 7 5 10 23 7 49 -4 28 -2 37 4
27 8 -13 11 -12 24 5 9 11 16 23 16 28 0 4 6 7 13 7 7 0 19 9 27 20 8 11 20
20 27 20 7 0 27 15 44 33 20 20 33 27 36 20 3 -7 11 -13 19 -13 8 0 11 6 8 15
-4 10 -2 13 8 10 8 -3 21 1 28 10 7 8 19 15 28 15 21 0 13 6 -19 13 -18 5 -31
2 -39 -8z m25 -15 c-3 -5 -10 -10 -16 -10 -5 0 -9 5 -9 10 0 6 7 10 16 10 8 0
12 -4 9 -10z m-155 -25 c0 -8 -4 -15 -10 -15 -5 0 -10 7 -10 15 0 8 5 15 10
15 6 0 10 -7 10 -15z"/>
<path d="M1260 2871 c0 -6 9 -11 20 -11 11 0 20 -4 20 -10 0 -5 6 -10 14 -10
7 0 26 -6 41 -14 15 -8 34 -12 41 -9 8 3 14 1 14 -5 0 -6 13 -13 30 -17 16 -4
33 -11 36 -17 4 -7 2 -8 -4 -4 -7 4 -12 2 -12 -5 0 -6 8 -9 20 -6 11 3 18 1
14 -4 -3 -5 -2 -9 3 -9 4 0 14 -4 22 -9 12 -8 12 -12 2 -25 -11 -13 -11 -16 1
-16 23 0 58 -44 58 -73 0 -14 4 -29 10 -32 10 -6 2 -63 -12 -81 -5 -7 -2 -16
8 -25 14 -11 16 -10 14 6 -4 36 0 55 11 55 6 0 13 -9 16 -20 6 -21 6 -21 642
-13 350 4 657 8 684 8 32 0 47 4 47 13 0 10 -128 12 -682 10 -376 -1 -688 1
-694 5 -6 3 -11 18 -11 31 0 46 -38 128 -76 166 -42 42 -114 80 -152 80 -14 0
-25 5 -25 10 0 6 -11 10 -24 10 -13 0 -26 4 -28 9 -5 13 -48 24 -48 12z"/>
<path d="M1839 2880 c0 -3 -2 -14 -5 -25 -5 -28 5 -75 17 -75 6 0 7 5 4 10 -3
6 -1 10 6 10 8 0 9 10 5 32 -5 28 -24 61 -27 48z"/>
<path d="M2255 2870 c-3 -5 -1 -18 5 -29 5 -11 7 -26 4 -34 -3 -8 -1 -18 5
-22 7 -4 11 3 11 17 0 13 4 29 9 37 5 8 7 20 4 28 -6 15 -29 17 -38 3z"/>
<path d="M718 2863 c-10 -2 -18 -11 -18 -19 0 -12 4 -12 25 2 36 23 34 28 -7
17z"/>
<path d="M2717 2864 c-3 -4 -26 -8 -49 -9 -46 -2 -100 -14 -108 -24 -3 -3 -18
-14 -35 -23 -18 -10 -31 -26 -32 -40 l-2 -23 7 23 c4 13 10 23 15 23 30 -3 47
1 59 13 8 7 25 17 38 22 26 8 38 8 134 -2 61 -7 73 7 19 21 -15 3 -30 11 -34
16 -3 5 -8 6 -12 3z"/>
<path d="M1195 2830 c-19 -13 -24 -20 -14 -20 9 0 22 7 29 15 11 13 15 13 22
3 6 -10 10 -10 17 2 14 21 25 5 12 -18 -9 -17 -7 -19 16 -14 18 3 24 1 19 -7
-4 -6 -3 -11 3 -11 5 0 12 4 16 10 3 6 15 5 31 -2 18 -9 27 -9 36 0 9 9 5 12
-19 12 -18 0 -35 5 -38 10 -4 6 -10 8 -15 5 -5 -3 -14 4 -20 15 -14 26 -56 26
-95 0z"/>
<path d="M615 2830 c-3 -5 -1 -10 4 -10 6 0 11 5 11 10 0 6 -2 10 -4 10 -3 0
-8 -4 -11 -10z"/>
<path d="M737 2821 c-3 -11 -1 -23 3 -26 14 -8 22 13 12 31 -8 14 -10 14 -15
-5z"/>
<path d="M206 2818 c3 -4 9 -8 15 -8 5 0 9 4 9 8 0 5 -7 9 -15 9 -8 0 -12 -4
-9 -9z"/>
<path d="M655 2813 c-15 -12 -16 -14 -3 -10 9 3 26 -3 39 -14 24 -21 39 -18
20 5 -7 8 -8 16 -4 18 4 3 2 3 -6 1 -8 -2 -17 1 -20 6 -4 5 -15 3 -26 -6z"/>
<path d="M1661 2804 c0 -11 3 -14 6 -6 3 7 2 16 -1 19 -3 4 -6 -2 -5 -13z"/>
<path d="M600 2805 c0 -14 31 -36 46 -33 11 2 6 8 -15 21 -17 10 -31 15 -31
12z"/>
<path d="M1121 2799 c-1 -10 -10 -15 -23 -15 -19 1 -23 -4 -23 -28 0 -16 -6
-31 -14 -34 -8 -3 -11 0 -7 7 4 6 3 11 -3 11 -16 0 -8 -39 12 -57 16 -15 17
-15 12 -1 -4 9 -2 25 4 35 10 17 10 17 11 1 0 -10 5 -18 10 -18 13 0 13 17 0
25 -5 3 -7 12 -3 20 3 8 0 15 -6 15 -6 0 -11 5 -11 10 0 13 27 13 32 0 2 -5
17 0 33 11 25 17 26 20 8 16 -12 -3 -24 0 -27 7 -2 6 -5 4 -5 -5z"/>
<path d="M1585 2800 c-3 -5 1 -10 10 -10 9 0 13 5 10 10 -3 6 -8 10 -10 10 -2
0 -7 -4 -10 -10z"/>
<path d="M570 2789 c0 -5 5 -7 10 -4 6 3 10 8 10 11 0 2 -4 4 -10 4 -5 0 -10
-5 -10 -11z"/>
<path d="M831 2791 c-1 -9 -9 -11 -23 -8 l-23 6 23 -16 c12 -8 22 -23 22 -32
0 -20 22 -71 31 -71 8 0 19 38 19 68 0 13 -4 21 -9 18 -5 -3 -7 -15 -4 -25 3
-10 0 -22 -6 -25 -6 -4 -13 9 -16 31 -10 59 -13 70 -14 54z"/>
<path d="M2838 2760 c3 -26 9 -40 18 -40 8 0 14 5 14 11 0 5 4 7 10 4 6 -3 7
1 4 9 -3 9 -10 13 -15 10 -5 -3 -13 6 -19 20 -13 36 -16 32 -12 -14z"/>
<path d="M870 2782 c0 -4 9 -13 19 -19 16 -10 18 -9 14 8 -5 18 -33 28 -33 11z"/>
<path d="M950 2780 c0 -5 5 -10 10 -10 6 0 10 5 10 10 0 6 -4 10 -10 10 -5 0
-10 -4 -10 -10z"/>
<path d="M1410 2779 c0 -5 5 -7 10 -4 6 3 10 8 10 11 0 2 -4 4 -10 4 -5 0 -10
-5 -10 -11z"/>
<path d="M200 2760 c0 -22 22 -39 28 -22 2 7 8 9 14 6 6 -4 9 -1 6 6 -2 7 -14
17 -26 21 -18 7 -22 5 -22 -11z"/>
<path d="M750 2765 c-10 -12 -9 -16 6 -21 11 -4 29 -19 41 -33 28 -34 34 -25
11 19 -10 19 -18 30 -18 23 0 -7 -7 -10 -15 -7 -12 5 -13 10 -4 20 7 8 7 14 1
14 -5 0 -15 -7 -22 -15z"/>
<path d="M1160 2770 c-13 -8 -12 -10 3 -10 9 0 17 5 17 10 0 12 -1 12 -20 0z"/>
<path d="M570 2755 c-7 -8 -18 -15 -24 -15 -7 0 -21 -7 -32 -16 -19 -15 -19
-16 1 -8 11 3 34 6 50 5 23 -1 26 1 15 9 -10 6 -3 8 25 6 22 -2 42 -4 44 -5 3
-1 -4 -8 -15 -16 -18 -14 -18 -14 4 -8 12 3 22 13 22 23 0 10 6 21 13 23 6 3
-2 3 -19 0 -18 -3 -35 0 -38 6 -10 16 -31 14 -46 -4z"/>
<path d="M1180 2750 c-20 -11 -28 -19 -19 -20 9 0 27 9 40 20 30 24 24 24 -21
0z"/>
<path d="M1373 2763 c-21 -8 -15 -22 7 -16 11 3 20 9 20 14 0 10 -8 10 -27 2z"/>
<path d="M2263 2755 c-18 -20 -16 -25 12 -25 18 0 25 5 25 20 0 23 -19 26 -37
5z"/>
<path d="M1240 2750 c0 -5 5 -10 10 -10 6 0 10 5 10 10 0 6 -4 10 -10 10 -5 0
-10 -4 -10 -10z"/>
<path d="M685 2740 c-3 -5 3 -10 14 -10 11 0 31 -12 45 -27 14 -15 28 -24 32
-20 8 8 -56 67 -73 67 -6 0 -15 -4 -18 -10z"/>
<path d="M1120 2740 c-9 -6 -10 -10 -3 -10 6 0 15 5 18 10 8 12 4 12 -15 0z"/>
<path d="M1305 2740 c-19 -8 -19 -9 2 -9 12 -1 25 4 28 9 7 12 -2 12 -30 0z"/>
<path d="M1401 2741 c-7 -4 8 -8 34 -9 25 0 43 3 40 7 -6 10 -58 12 -74 2z"/>
<path d="M1800 2726 c0 -31 6 -34 13 -6 3 11 1 23 -4 26 -5 3 -9 -6 -9 -20z"/>
<path d="M2900 2737 c0 -6 3 -7 6 -4 4 3 15 2 25 -4 14 -7 19 -6 19 4 0 9 -10
15 -25 15 -14 0 -25 -5 -25 -11z"/>
<path d="M2487 2710 c5 -27 3 -30 -21 -30 -15 0 -37 -6 -49 -14 -12 -7 -43
-13 -69 -12 -47 1 -64 -8 -30 -16 36 -8 122 4 122 17 0 17 102 13 108 -4 5
-15 29 -14 35 2 4 10 6 10 6 0 1 -18 38 -16 45 2 6 17 36 20 36 4 0 -6 -7 -8
-16 -5 -8 3 -12 2 -9 -4 3 -6 18 -10 32 -10 25 0 26 0 8 20 -10 11 -15 23 -11
27 4 4 10 3 14 -3 4 -6 17 -13 29 -16 19 -5 20 -3 11 11 -16 27 -77 31 -91 6
-8 -15 -15 -16 -95 -1 -14 3 -40 26 -28 26 4 0 1 7 -8 15 -22 22 -26 19 -19
-15z"/>
<path d="M910 2719 c0 -5 5 -7 10 -4 6 3 10 8 10 11 0 2 -4 4 -10 4 -5 0 -10
-5 -10 -11z"/>
<path d="M1230 2719 c0 -5 -8 -9 -18 -7 -11 2 -31 -3 -45 -11 -27 -14 -36 -31
-17 -31 6 0 10 4 10 9 0 5 20 14 44 20 45 11 71 31 42 31 -9 0 -16 -5 -16 -11z"/>
<path d="M675 2710 c3 -5 16 -10 28 -9 21 0 21 1 2 9 -28 12 -37 12 -30 0z"/>
<path d="M1129 2703 c-13 -16 -12 -17 4 -4 9 7 17 15 17 17 0 8 -8 3 -21 -13z"/>
<path d="M529 2700 c-47 -27 -59 -81 -63 -281 -1 -40 -5 -49 -31 -65 -16 -9
-33 -17 -37 -16 -12 3 -9 -13 4 -26 7 -7 8 -12 2 -12 -5 0 -3 -4 3 -8 7 -5 14
-21 15 -38 1 -16 7 -32 13 -36 6 -5 6 -8 -2 -8 -7 0 -13 -4 -13 -10 0 -6 6 -9
13 -8 6 2 11 -5 11 -14 -1 -10 2 -18 6 -18 13 0 20 30 11 48 -5 9 -14 39 -20
66 -11 45 -10 51 10 72 25 27 43 20 53 -21 4 -17 11 -23 24 -19 15 5 15 4 -2
-10 -18 -14 -18 -17 -2 -41 9 -14 14 -25 10 -25 -4 0 -1 -7 6 -15 7 -8 18 -15
24 -15 6 0 3 5 -6 11 -9 5 -15 16 -12 23 3 8 1 17 -5 21 -8 4 -8 12 0 26 8 16
7 26 -6 46 -12 18 -14 28 -6 36 15 15 14 40 -1 31 -7 -4 -2 6 10 23 12 17 22
33 22 36 0 12 -34 16 -47 6 -18 -15 -29 -4 -14 14 6 8 23 12 39 10 20 -4 24
-2 12 6 -12 9 -10 21 17 85 30 75 27 97 -9 59 -9 -10 -24 -24 -32 -31 -18 -14
-21 -32 -6 -32 6 0 10 -7 10 -15 0 -8 -8 -15 -18 -15 -20 0 -28 45 -11 66 5 7
9 19 7 26 -4 16 31 62 52 71 13 5 13 5 0 6 -8 0 -22 -4 -31 -9z m-28 -197 c-8
-15 -10 -15 -11 -2 0 17 10 32 18 25 2 -3 -1 -13 -7 -23z m15 -77 c-9 -14 -13
-32 -10 -40 3 -9 1 -16 -5 -16 -21 0 -16 50 7 68 24 18 26 15 8 -12z"/>
<path d="M1010 2700 c0 -5 5 -10 11 -10 5 0 7 5 4 10 -3 6 -8 10 -11 10 -2 0
-4 -4 -4 -10z"/>
<path d="M1435 2700 c3 -5 -5 -11 -17 -13 -22 -4 -22 -4 2 -5 35 -2 58 13 31
21 -12 3 -19 1 -16 -3z"/>
<path d="M885 2691 c-3 -5 -1 -12 5 -16 5 -3 10 1 10 9 0 18 -6 21 -15 7z"/>
<path d="M1254 2684 c5 -13 4 -14 -7 -6 -8 7 -17 8 -21 4 -4 -4 -11 -7 -14 -8
-4 0 -23 -8 -42 -17 -34 -16 -34 -16 -5 -11 17 3 37 8 45 11 8 3 31 5 50 5 19
-1 29 1 23 4 -7 3 -13 12 -13 20 0 8 -5 14 -11 14 -6 0 -8 -7 -5 -16z"/>
<path d="M1290 2692 c0 -5 7 -13 16 -16 10 -4 14 -1 12 6 -5 15 -28 23 -28 10z"/>
<path d="M1340 2690 c0 -5 5 -10 10 -10 6 0 10 5 10 10 0 6 -4 10 -10 10 -5 0
-10 -4 -10 -10z"/>
<path d="M2788 2693 c7 -3 16 -2 19 1 4 3 -2 6 -13 5 -11 0 -14 -3 -6 -6z"/>
<path d="M575 2678 c-39 -14 -56 -28 -49 -40 3 -5 11 -2 18 8 7 9 23 18 37 20
13 2 40 8 59 13 l35 9 -35 0 c-19 0 -48 -4 -65 -10z"/>
<path d="M732 2670 c7 -11 16 -20 20 -20 5 0 3 9 -4 20 -7 11 -16 20 -20 20
-5 0 -3 -9 4 -20z"/>
<path d="M1096 2665 c4 -8 7 -15 9 -15 2 0 5 7 9 15 3 9 0 15 -9 15 -9 0 -12
-6 -9 -15z"/>
<path d="M690 2660 c20 -13 33 -13 25 0 -3 6 -14 10 -23 10 -15 0 -15 -2 -2
-10z"/>
<path d="M1364 2658 c-3 -5 -19 -6 -35 -3 -18 4 -29 3 -29 -4 0 -6 6 -11 13
-11 6 0 23 -3 36 -7 18 -5 22 -3 16 7 -6 10 -2 11 18 6 14 -3 28 -2 31 3 3 5
-6 11 -19 14 -14 2 -28 0 -31 -5z"/>
<path d="M1490 2661 c0 -13 29 -35 37 -27 3 3 15 -2 26 -11 15 -13 19 -14 15
-4 -2 8 -11 18 -19 21 -8 4 -24 12 -36 19 -13 6 -23 7 -23 2z"/>
<path d="M235 2649 c-4 -5 8 -9 26 -9 35 0 35 8 1 15 -12 2 -24 0 -27 -6z"/>
<path d="M340 2649 c-40 -4 -41 -6 -15 -10 37 -5 95 1 95 10 0 8 -19 8 -80 0z"/>
<path d="M860 2646 c0 -9 5 -16 10 -16 6 0 10 4 10 9 0 6 -4 13 -10 16 -5 3
-10 -1 -10 -9z"/>
<path d="M2940 2650 c0 -5 14 -10 30 -10 17 0 30 4 30 8 0 4 -13 9 -30 10 -16
1 -30 -2 -30 -8z"/>
<path d="M13 2637 c6 -18 35 -20 52 -4 13 13 10 15 -21 15 -22 0 -34 -4 -31
-11z"/>
<path d="M1925 2632 c3 -8 5 -16 5 -18 0 -9 37 -3 49 9 10 10 11 9 6 -5 -6
-15 -2 -18 20 -16 26 2 53 24 42 34 -3 3 -15 0 -27 -6 -12 -7 -20 -7 -16 -2 3
6 -12 11 -39 14 -35 2 -44 0 -40 -10z"/>
<path d="M975 2631 c-3 -5 4 -13 16 -16 28 -9 33 -2 9 13 -11 6 -21 8 -25 3z"/>
<path d="M1251 2631 c-8 -6 -9 -11 -3 -15 6 -3 14 -1 17 5 9 14 2 20 -14 10z"/>
<path d="M1399 2619 c14 -5 31 -7 38 -5 7 3 13 1 13 -4 0 -6 -5 -10 -12 -10
-9 0 -9 -3 -1 -11 6 -6 9 -18 6 -25 -5 -14 7 -18 36 -15 7 2 10 -2 7 -7 -3 -5
3 -17 14 -27 11 -10 20 -14 20 -9 0 12 -30 56 -44 66 -6 4 -11 13 -12 20 0 7
-2 18 -2 24 -1 6 -21 11 -44 12 -38 1 -40 0 -19 -9z"/>
<path d="M1087 2583 c-3 -5 6 -9 20 -10 19 -1 22 1 12 8 -17 11 -26 11 -32 2z"/>
<path d="M1505 2580 c28 -12 37 -12 30 0 -3 6 -16 10 -28 9 -21 0 -21 -1 -2
-9z"/>
<path d="M1556 2573 c-6 -14 -5 -15 5 -6 7 7 10 15 7 18 -3 3 -9 -2 -12 -12z"/>
<path d="M1530 2547 c0 -8 7 -17 15 -21 8 -3 15 -2 15 3 0 5 -7 14 -15 21 -12
10 -15 10 -15 -3z"/>
<path d="M5 2541 c-15 -14 5 -19 102 -25 210 -15 366 -6 342 18 -6 7 -438 13
-444 7z"/>
<path d="M1460 2521 c0 -5 5 -13 10 -16 6 -4 7 -11 4 -17 -4 -6 -2 -8 3 -5 6
4 16 -7 23 -23 11 -27 31 -42 29 -22 -4 34 -69 114 -69 83z"/>
<path d="M690 2516 c0 -2 7 -7 16 -10 8 -3 12 -2 9 4 -6 10 -25 14 -25 6z"/>
<path d="M1005 2510 c-4 -6 3 -10 14 -10 25 0 27 6 6 13 -8 4 -17 2 -20 -3z"/>
<path d="M217 2489 c7 -7 15 -10 18 -7 3 3 -2 9 -12 12 -14 6 -15 5 -6 -5z"/>
<path d="M1530 2480 c0 -5 7 -10 16 -10 8 0 12 5 9 10 -3 6 -10 10 -16 10 -5
0 -9 -4 -9 -10z"/>
<path d="M1017 2469 c7 -7 15 -10 18 -7 3 3 -2 9 -12 12 -14 6 -15 5 -6 -5z"/>
<path d="M1555 2459 c-19 -7 -19 -8 3 -8 16 -1 22 -7 23 -23 1 -17 3 -18 6 -6
7 28 -9 47 -32 37z"/>
<path d="M591 2444 c0 -11 3 -14 6 -6 3 7 2 16 -1 19 -3 4 -6 -2 -5 -13z"/>
<path d="M1610 2445 c0 -8 5 -15 10 -15 6 0 10 7 10 15 0 8 -4 15 -10 15 -5 0
-10 -7 -10 -15z"/>
<path d="M733 2443 c9 -2 25 -2 35 0 9 3 1 5 -18 5 -19 0 -27 -2 -17 -5z"/>
<path d="M950 2446 c0 -2 7 -7 16 -10 8 -3 12 -2 9 4 -6 10 -25 14 -25 6z"/>
<path d="M220 2430 c-19 -4 -21 -7 -9 -12 9 -3 22 -2 30 2 19 13 8 18 -21 10z"/>
<path d="M1080 2430 c0 -5 5 -10 11 -10 5 0 7 5 4 10 -3 6 -8 10 -11 10 -2 0
-4 -4 -4 -10z"/>
<path d="M1470 2436 c0 -6 23 -29 68 -66 9 -8 12 -7 12 4 0 8 4 16 9 18 4 2 5
12 0 23 -7 19 -8 18 -8 -4 -1 -20 -3 -21 -16 -11 -8 7 -15 9 -15 4 0 -4 -11 3
-25 16 -14 13 -25 20 -25 16z"/>
<path d="M1770 2430 c-13 -8 -12 -10 3 -10 9 0 17 5 17 10 0 12 -1 12 -20 0z"/>
<path d="M1805 2430 c-5 -8 47 -15 103 -13 12 1 16 -27 12 -99 -2 -39 4 -44
29 -29 10 7 11 13 2 30 -7 12 -9 25 -7 30 8 13 -22 81 -37 82 -6 1 -31 3 -54
5 -23 2 -45 -1 -48 -6z"/>
<path d="M2881 2424 c0 -11 3 -14 6 -6 3 7 2 16 -1 19 -3 4 -6 -2 -5 -13z"/>
<path d="M1725 2420 c-3 -5 -1 -10 4 -10 6 0 11 5 11 10 0 6 -2 10 -4 10 -3 0
-8 -4 -11 -10z"/>
<path d="M730 2411 c0 -5 10 -11 23 -15 32 -8 39 -7 32 4 -4 6 -10 8 -15 5 -5
-3 -11 -1 -15 5 -8 12 -25 13 -25 1z"/>
<path d="M2990 2412 c0 -5 -10 -14 -22 -20 -23 -10 -23 -11 5 -11 21 -1 27 4
27 19 0 11 -2 20 -5 20 -3 0 -5 -4 -5 -8z"/>
<path d="M1410 2400 c0 -5 5 -10 10 -10 6 0 10 5 10 10 0 6 -4 10 -10 10 -5 0
-10 -4 -10 -10z"/>
<path d="M1596 2395 c-3 -8 -3 -22 0 -30 7 -18 -7 -20 -24 -3 -9 9 -12 9 -12
0 0 -7 5 -12 10 -12 6 0 10 -9 10 -20 0 -24 -8 -25 -38 -4 -12 8 -22 10 -22 5
0 -6 -9 -11 -20 -11 -11 0 -23 -7 -26 -15 -4 -8 -12 -15 -19 -15 -7 0 -24 -9
-38 -20 -14 -11 -34 -20 -45 -20 -12 0 -24 -4 -27 -10 -11 -18 31 -10 81 15
62 32 65 31 58 -5 -8 -38 13 -41 22 -3 5 19 2 30 -11 40 -18 12 -18 13 3 13
13 0 25 -7 28 -15 5 -13 8 -13 27 0 43 30 82 17 122 -40 13 -19 14 -18 7 9 -5
19 -20 36 -39 45 -25 13 -32 23 -35 54 -2 20 0 37 4 37 5 0 8 5 8 10 0 15 -17
12 -24 -5z"/>
<path d="M1702 2395 c1 -11 -2 -20 -9 -20 -20 0 -28 -16 -13 -25 20 -13 60
-13 60 0 0 6 -5 10 -11 10 -6 0 -9 6 -6 14 3 8 -1 20 -9 27 -13 11 -15 10 -12
-6z"/>
<path d="M1097 2393 c-14 -14 -6 -23 21 -22 16 0 21 3 12 6 -8 3 -18 10 -21
15 -3 4 -8 5 -12 1z"/>
<path d="M1646 2382 c-3 -9 -9 -23 -12 -31 -4 -8 -2 -12 6 -9 16 5 32 46 21
53 -5 2 -11 -3 -15 -13z"/>
<path d="M1453 2367 c16 -24 16 -26 -1 -30 -13 -4 -14 -5 -1 -6 8 0 24 6 35
15 10 8 13 13 7 9 -7 -3 -13 -2 -13 2 0 5 -10 14 -22 22 -22 14 -22 14 -5 -12z"/>
<path d="M234 2365 c-4 -10 -10 -12 -18 -6 -6 5 -57 9 -114 8 -79 0 -102 -3
-102 -13 0 -8 8 -14 18 -14 10 0 23 -5 30 -12 9 -9 12 -9 12 0 0 8 26 12 85
12 l85 0 -5 -57 c-4 -32 -8 -66 -11 -75 -4 -13 0 -18 17 -18 21 0 22 2 17 85
-3 47 -2 85 3 85 5 0 9 5 9 10 0 16 -20 12 -26 -5z"/>
<path d="M943 2352 c10 -10 17 -23 17 -29 0 -6 7 -16 15 -23 12 -10 12 -14 1
-25 -14 -14 -106 -9 -106 6 0 5 7 9 15 9 22 0 18 18 -6 31 -17 9 -23 8 -30 -2
-7 -11 -9 -10 -9 3 0 14 -9 17 -54 15 -33 -2 -62 3 -72 10 -37 27 -139 5 -120
-25 9 -15 39 -15 53 -1 8 8 26 8 64 0 30 -6 71 -13 91 -16 21 -3 41 -13 46
-22 14 -24 -9 -72 -46 -95 -17 -11 -30 -24 -26 -29 7 -12 67 34 84 66 11 21
21 25 57 25 28 0 43 -4 43 -13 0 -17 57 -85 83 -99 22 -11 22 -10 4 10 -10 11
-15 22 -10 24 4 3 2 3 -5 2 -7 -2 -22 17 -34 41 -19 40 -20 47 -7 60 8 8 39
16 69 19 30 2 91 7 134 12 59 5 77 4 72 -4 -5 -8 1 -12 17 -12 26 0 55 -26 43
-38 -4 -4 -14 2 -22 12 -7 11 -16 17 -19 14 -3 -3 1 -11 10 -18 18 -15 19 -41
3 -59 -11 -11 -10 -13 1 -9 8 2 18 11 21 19 4 8 12 24 18 36 10 19 9 26 -8 43
-11 11 -27 20 -36 20 -8 0 -13 4 -10 9 7 10 -41 21 -91 21 -19 0 -32 -4 -28
-10 3 -6 -20 -8 -62 -6 -37 2 -73 0 -80 -6 -18 -14 -48 -1 -63 27 -7 14 -18
25 -23 25 -6 0 -3 -8 6 -18z"/>
<path d="M2300 2340 c0 -5 -6 -7 -14 -4 -9 4 -14 0 -12 -10 3 -24 12 -28 26
-11 14 17 37 20 42 6 2 -5 9 -11 17 -13 15 -3 24 29 10 38 -5 3 -9 -2 -9 -11
0 -15 -1 -15 -16 -1 -17 18 -44 21 -44 6z"/>
<path d="M2390 2333 c0 -27 12 -38 43 -38 23 -1 27 3 27 27 0 28 -13 37 -25
18 -4 -7 -13 -7 -26 0 -15 9 -19 7 -19 -7z"/>
<path d="M363 2328 c-8 -9 -10 -34 -6 -72 3 -32 9 -52 14 -45 4 7 5 17 3 24
-3 6 -1 22 4 36 5 13 6 35 3 48 -5 20 -8 21 -18 9z"/>
<path d="M2161 2324 c0 -11 3 -14 6 -6 3 7 2 16 -1 19 -3 4 -6 -2 -5 -13z"/>
<path d="M2855 2332 c-4 -4 4 -91 10 -109 2 -7 1 -13 -3 -13 -4 0 -8 -72 -10
-160 -2 -148 7 -203 22 -129 5 27 9 30 38 29 61 -4 73 3 18 9 l-55 6 0 115 c0
63 1 141 3 173 4 50 7 57 26 57 11 0 39 7 61 15 l40 15 -73 -2 c-40 -1 -74 -4
-77 -6z"/>
<path d="M456 2322 c-9 -14 9 -31 23 -23 7 5 10 14 7 20 -8 13 -23 14 -30 3z"/>
<path d="M2015 2310 c-11 -4 -24 -5 -29 -2 -6 3 -6 -2 0 -14 9 -19 15 -328 6
-352 -2 -7 -12 -12 -21 -11 -35 3 -51 -2 -51 -16 0 -10 11 -15 35 -15 25 0 35
4 35 16 0 10 6 14 14 11 8 -3 20 1 26 9 7 8 20 14 29 14 13 0 14 2 2 9 -8 5
-21 7 -29 4 -12 -5 -13 1 -8 33 8 53 8 55 2 87 -6 27 8 39 17 15 3 -7 6 -3 6
10 1 13 -3 21 -8 18 -5 -4 -12 12 -16 35 -5 30 -3 44 6 50 9 5 9 9 3 9 -7 0
-14 11 -16 25 -5 25 7 36 14 13 8 -22 15 6 9 33 -5 21 -10 25 -26 19z"/>
<path d="M2220 2305 c0 -8 5 -15 10 -15 6 0 10 7 10 15 0 8 -4 15 -10 15 -5 0
-10 -7 -10 -15z"/>
<path d="M100 2299 c0 -5 5 -7 10 -4 6 3 10 8 10 11 0 2 -4 4 -10 4 -5 0 -10
-5 -10 -11z"/>
<path d="M910 2300 c0 -5 4 -10 9 -10 6 0 13 5 16 10 3 6 -1 10 -9 10 -9 0
-16 -4 -16 -10z"/>
<path d="M1385 2280 c-16 -7 -17 -9 -3 -9 9 -1 20 4 23 9 7 11 7 11 -20 0z"/>
<path d="M470 2256 c0 -13 4 -26 10 -28 9 -3 19 -74 20 -150 0 -21 4 -38 8
-38 11 0 2 194 -9 198 -5 2 -9 12 -9 23 0 10 -4 19 -10 19 -5 0 -10 -11 -10
-24z"/>
<path d="M564 2264 c3 -9 6 -20 6 -25 0 -12 27 -12 35 1 3 6 -1 7 -9 4 -9 -4
-16 -1 -16 6 0 9 15 11 55 7 30 -3 60 -9 67 -13 19 -12 81 -16 74 -5 -7 10 12
27 20 18 11 -11 -11 -38 -40 -46 -24 -7 -26 -9 -9 -10 32 -1 72 19 67 34 -3 7
2 15 11 19 9 3 13 11 10 16 -4 7 -12 7 -18 2 -7 -4 -21 -7 -32 -6 -11 1 -67 4
-124 8 -92 5 -102 4 -97 -10z"/>
<path d="M1158 2273 c6 -2 18 -2 25 0 6 3 1 5 -13 5 -14 0 -19 -2 -12 -5z"/>
<path d="M1580 2269 c0 -6 9 -13 20 -16 11 -3 20 -10 20 -17 0 -16 -38 -84
-61 -109 -10 -11 -19 -25 -19 -31 0 -5 -7 -18 -17 -28 -9 -10 -13 -21 -9 -25
3 -4 14 4 23 18 9 13 31 38 48 54 17 17 39 50 48 74 16 39 16 45 2 67 -16 24
-55 33 -55 13z"/>
<path d="M100 2254 c0 -8 5 -12 10 -9 6 3 10 10 10 16 0 5 -4 9 -10 9 -5 0
-10 -7 -10 -16z"/>
<path d="M1004 2259 c-4 -7 -1 -10 7 -7 8 3 24 -4 37 -16 20 -18 33 -20 90
-17 37 2 84 4 105 3 24 0 37 5 37 13 0 11 -23 14 -101 13 -58 0 -95 -4 -87 -9
10 -7 10 -9 1 -9 -7 0 -18 9 -25 20 -14 22 -53 27 -64 9z"/>
<path d="M1533 2235 c-15 -17 -16 -25 -3 -25 5 0 14 9 20 20 12 23 1 26 -17 5z"/>
<path d="M160 2230 c0 -19 5 -25 23 -27 23 -4 22 9 -3 25 -12 7 -20 8 -20 2z"/>
<path d="M102 2218 c3 -7 13 -15 24 -17 16 -3 17 -1 5 13 -16 19 -34 21 -29 4z"/>
<path d="M1030 2222 c0 -4 9 -13 20 -20 11 -7 20 -9 20 -4 0 4 -9 13 -20 20
-11 7 -20 9 -20 4z"/>
<path d="M1463 2195 c-1 -19 3 -32 8 -29 11 6 11 35 1 51 -5 8 -8 -1 -9 -22z"/>
<path d="M1 2204 c0 -11 3 -14 6 -6 3 7 2 16 -1 19 -3 4 -6 -2 -5 -13z"/>
<path d="M40 2205 c0 -8 5 -15 10 -15 6 0 10 7 10 15 0 8 -4 15 -10 15 -5 0
-10 -7 -10 -15z"/>
<path d="M2281 2204 c0 -11 3 -14 6 -6 3 7 2 16 -1 19 -3 4 -6 -2 -5 -13z"/>
<path d="M2310 2209 c0 -5 0 -12 0 -16 -1 -13 54 -13 62 0 5 8 8 8 8 1 0 -7
16 -10 42 -9 23 1 55 -1 70 -6 21 -6 28 -4 28 7 0 9 -11 14 -35 14 -19 0 -35
4 -35 9 0 5 -31 8 -70 8 -38 0 -70 -4 -70 -8z"/>
<path d="M2541 2206 c-16 -20 4 -24 104 -22 64 1 80 4 80 16 0 12 -15 16 -67
18 -57 2 -68 0 -68 -13 0 -9 -6 -15 -12 -12 -7 2 -12 10 -10 16 3 16 -13 14
-27 -3z"/>
<path d="M648 2183 c7 -3 16 -2 19 1 4 3 -2 6 -13 5 -11 0 -14 -3 -6 -6z"/>
<path d="M1080 2180 c0 -5 7 -10 15 -10 8 0 15 5 15 10 0 6 -7 10 -15 10 -8 0
-15 -4 -15 -10z"/>
<path d="M1188 2183 c6 -2 18 -2 25 0 6 3 1 5 -13 5 -14 0 -19 -2 -12 -5z"/>
<path d="M1496 2155 c4 -25 1 -41 -13 -62 -31 -45 -35 -63 -14 -63 14 0 18 5
14 19 -3 11 2 21 11 24 28 11 33 117 5 117 -6 0 -7 -14 -3 -35z"/>
<path d="M10 2171 c0 -6 5 -13 10 -16 6 -3 10 1 10 9 0 9 -4 16 -10 16 -5 0
-10 -4 -10 -9z"/>
<path d="M75 2170 c-3 -5 3 -10 15 -10 12 0 18 5 15 10 -3 6 -10 10 -15 10 -5
0 -12 -4 -15 -10z"/>
<path d="M1150 2165 c0 -8 5 -15 10 -15 6 0 10 7 10 15 0 8 -4 15 -10 15 -5 0
-10 -7 -10 -15z"/>
<path d="M2030 2175 c0 -5 5 -17 10 -25 5 -8 10 -10 10 -5 0 6 -5 17 -10 25
-5 8 -10 11 -10 5z"/>
<path d="M2221 2164 c0 -11 3 -14 6 -6 3 7 2 16 -1 19 -3 4 -6 -2 -5 -13z"/>
<path d="M1268 2163 c6 -2 18 -2 25 0 6 3 1 5 -13 5 -14 0 -19 -2 -12 -5z"/>
<path d="M306 2152 c-7 -11 -1 -60 7 -69 4 -3 7 12 7 35 0 41 -4 50 -14 34z"/>
<path d="M2241 2135 c-1 -17 -3 -18 -11 -5 -9 13 -10 13 -10 0 0 -20 17 -46
25 -38 4 3 5 19 2 35 -2 17 -5 20 -6 8z"/>
<path d="M778 2113 c-14 -16 -29 -38 -33 -50 -3 -13 -11 -23 -16 -23 -5 0 -9
-7 -9 -15 0 -8 -4 -15 -9 -15 -10 0 -34 -55 -36 -82 -1 -10 4 -18 11 -18 18 0
29 21 15 30 -9 5 -9 11 3 23 9 8 16 19 16 23 0 4 11 22 25 40 14 18 25 39 25
47 0 8 11 22 25 31 14 9 25 21 25 26 0 17 -15 11 -42 -17z"/>
<path d="M1456 2124 c-9 -23 -7 -36 3 -30 12 8 21 46 11 46 -4 0 -11 -7 -14
-16z"/>
<path d="M350 2123 c0 -5 4 -14 9 -21 7 -11 9 -11 14 1 3 8 3 18 0 21 -9 8
-23 7 -23 -1z"/>
<path d="M425 2120 c-3 -5 0 -20 7 -32 6 -13 13 -29 14 -36 4 -23 14 -26 14
-5 0 59 -19 99 -35 73z"/>
<path d="M848 2113 c7 -3 16 -2 19 1 4 3 -2 6 -13 5 -11 0 -14 -3 -6 -6z"/>
<path d="M1006 2112 c-3 -5 3 -17 14 -27 24 -22 25 -38 4 -56 -12 -10 -20 -10
-35 -1 -26 16 -54 15 -69 -3 -17 -20 -43 -19 -89 5 -21 10 -41 16 -45 13 -9
-9 26 -32 50 -33 22 0 57 -33 68 -64 5 -15 9 -16 21 -6 14 11 14 15 -1 31 -19
21 -19 21 13 38 17 8 28 8 49 -1 23 -11 28 -10 44 10 10 12 23 22 28 22 15 0
94 -90 90 -102 -8 -22 -114 -46 -165 -38 -26 5 -70 11 -97 14 -42 5 -47 4 -36
-9 11 -13 3 -15 -59 -13 -71 2 -73 2 -106 -33 -31 -33 -36 -68 -6 -50 7 5 11
11 9 14 -1 3 10 16 26 28 27 21 41 24 140 25 61 0 123 4 139 8 38 11 35 -8 -6
-33 -38 -23 -143 -36 -182 -21 -16 6 -25 6 -25 0 0 -6 8 -10 18 -11 11 -1 9
-4 -8 -9 -19 -6 -13 -8 30 -9 l55 -2 -27 -17 c-16 -9 -28 -25 -28 -34 0 -10
-6 -18 -14 -18 -11 0 -13 -7 -6 -29 7 -25 5 -30 -12 -34 -17 -5 -19 -2 -15 19
4 24 -6 33 -18 14 -9 -14 -33 -12 -32 3 2 34 -17 97 -29 97 -8 0 -14 -9 -14
-20 0 -11 5 -20 10 -20 6 0 10 -4 10 -10 0 -12 -27 -14 -32 -2 -1 4 -17 17
-35 29 -37 26 -39 22 -38 -64 0 -35 -2 -63 -5 -63 -10 0 -28 43 -36 86 -6 34
-4 40 22 61 16 12 23 23 17 23 -7 0 -13 11 -13 24 0 25 -34 75 -44 65 -4 -4 1
-20 11 -37 17 -29 17 -30 -11 -66 -23 -31 -27 -43 -21 -75 11 -68 100 -186
195 -261 25 -19 46 -38 48 -42 2 -5 9 -8 16 -8 7 0 21 -9 31 -20 14 -16 16
-23 7 -32 -8 -8 -12 -8 -12 -1 0 11 -50 35 -66 32 -28 -5 -47 7 -102 63 -34
34 -64 59 -68 56 -6 -7 74 -86 119 -117 17 -12 18 -16 5 -25 -8 -6 -20 -28
-27 -48 -13 -39 -25 -48 -35 -25 -3 6 -3 2 0 -10 4 -18 2 -22 -11 -17 -12 5
-16 2 -13 -12 4 -24 -49 -45 -61 -25 -5 7 -11 9 -14 4 -9 -14 -79 -15 -89 -1
-6 9 -10 10 -15 2 -5 -6 -18 -14 -30 -18 -17 -6 -22 -2 -26 16 l-4 23 -2 -22
c-2 -32 -61 -28 -61 3 0 8 -3 14 -7 14 -5 0 -21 23 -38 50 -16 28 -33 50 -38
50 -4 0 -5 5 -2 10 3 6 -2 13 -12 17 -25 9 -34 26 -20 35 8 5 5 9 -8 14 -11 4
-36 20 -56 36 -38 29 -69 37 -69 17 0 -6 9 -8 20 -4 14 4 20 2 20 -9 0 -8 12
-24 26 -35 15 -12 24 -21 20 -21 -6 0 17 -27 79 -94 24 -26 53 -73 57 -91 1
-11 7 -23 11 -26 4 -3 76 -4 160 -1 l152 4 31 30 c17 16 41 51 54 78 13 28 31
52 41 55 21 7 89 -20 89 -34 0 -6 15 -11 33 -10 29 0 30 1 10 9 -25 10 -28 22
-13 49 8 15 -2 25 -58 64 -103 70 -172 171 -172 251 0 56 13 65 45 29 21 -24
26 -26 35 -13 8 12 10 10 10 -10 0 -16 12 -35 34 -53 28 -24 81 -57 90 -57 2
0 3 21 4 48 1 86 11 113 48 128 18 8 40 14 49 14 8 0 40 20 69 44 75 60 168
90 270 84 74 -3 97 4 55 17 -12 4 -47 7 -78 6 -55 0 -57 1 -96 47 -58 68 -132
135 -139 124z m-72 -224 c-15 -7 -28 -7 -40 1 -16 9 -12 10 21 10 35 0 37 -2
19 -11z m-138 -238 c8 0 14 -4 14 -10 0 -15 -24 -12 -46 6 -17 14 -17 15 -1
10 10 -3 25 -6 33 -6z m-186 -31 c0 -6 -4 -7 -10 -4 -5 3 -10 11 -10 16 0 6 5
7 10 4 6 -3 10 -11 10 -16z"/>
<path d="M1220 2101 c0 -6 4 -13 10 -16 6 -3 7 1 4 9 -7 18 -14 21 -14 7z"/>
<path d="M560 2090 c0 -5 5 -10 11 -10 5 0 7 5 4 10 -3 6 -8 10 -11 10 -2 0
-4 -4 -4 -10z"/>
<path d="M2350 2091 c0 -5 -10 -7 -22 -3 -12 3 -19 1 -15 -4 3 -6 22 -11 43
-12 32 -3 36 -1 24 13 -14 17 -30 20 -30 6z"/>
<path d="M2420 2089 c0 -5 -6 -7 -12 -3 -9 6 -9 3 1 -9 10 -13 18 -14 32 -6
25 13 24 29 -1 29 -11 0 -20 -5 -20 -11z"/>
<path d="M2472 2088 c5 -15 28 -18 29 -3 0 6 -7 12 -17 13 -10 3 -15 -1 -12
-10z"/>
<path d="M800 2075 c-7 -9 -8 -15 -2 -15 5 0 12 7 16 15 3 8 4 15 2 15 -2 0
-9 -7 -16 -15z"/>
<path d="M1147 2079 c7 -7 15 -10 18 -7 3 3 -2 9 -12 12 -14 6 -15 5 -6 -5z"/>
<path d="M1290 2070 c-13 -8 -13 -10 2 -10 9 0 20 5 23 10 8 13 -5 13 -25 0z"/>
<path d="M1562 2053 c-12 -17 -22 -37 -22 -45 0 -16 -44 -58 -60 -58 -22 0 -8
-16 23 -28 29 -10 30 -10 13 3 -19 15 -17 17 14 19 9 1 19 18 25 42 6 23 16
48 23 57 8 9 12 22 10 28 -2 7 -14 -1 -26 -18z"/>
<path d="M2608 2073 c6 -2 18 -2 25 0 6 3 1 5 -13 5 -14 0 -19 -2 -12 -5z"/>
<path d="M560 2055 c-8 -9 -8 -15 -2 -15 12 0 26 19 19 26 -2 2 -10 -2 -17
-11z"/>
<path d="M830 2059 c0 -5 5 -7 10 -4 6 3 10 8 10 11 0 2 -4 4 -10 4 -5 0 -10
-5 -10 -11z"/>
<path d="M1595 2052 c-7 -20 -7 -21 15 -19 12 1 28 9 37 19 16 18 15 18 -15
16 -17 -1 -34 -8 -37 -16z"/>
<path d="M145 2040 c-38 -4 -62 -7 -52 -8 9 -1 17 -5 17 -9 0 -5 34 -8 75 -9
53 0 76 3 79 13 3 7 -1 13 -8 13 -8 0 -20 1 -28 3 -7 2 -44 0 -83 -3z"/>
<path d="M508 2001 c3 -24 7 -27 17 -18 9 9 9 16 1 29 -16 26 -23 22 -18 -11z"/>
<path d="M1500 2014 c0 -8 5 -12 10 -9 6 3 10 10 10 16 0 5 -4 9 -10 9 -5 0
-10 -7 -10 -16z"/>
<path d="M1607 2023 c-3 -5 -1 -17 4 -28 7 -17 8 -17 8 8 1 27 -4 34 -12 20z"/>
<path d="M1395 2000 c3 -5 8 -10 11 -10 2 0 4 5 4 10 0 6 -5 10 -11 10 -5 0
-7 -4 -4 -10z"/>
<path d="M1444 1994 c3 -9 6 -20 6 -25 0 -6 4 -8 9 -5 12 8 2 46 -11 46 -6 0
-7 -7 -4 -16z"/>
<path d="M793 1985 c-9 -10 -10 -16 -2 -21 6 -3 15 0 20 7 18 29 4 40 -18 14z"/>
<path d="M2235 1990 c-3 -5 -1 -10 4 -10 6 0 11 5 11 10 0 6 -2 10 -4 10 -3 0
-8 -4 -11 -10z"/>
<path d="M128 1983 c7 -3 16 -2 19 1 4 3 -2 6 -13 5 -11 0 -14 -3 -6 -6z"/>
<path d="M386 1965 c4 -8 11 -15 16 -15 6 0 5 6 -2 15 -7 8 -14 15 -16 15 -2
0 -1 -7 2 -15z"/>
<path d="M825 1970 c3 -5 8 -10 11 -10 2 0 4 5 4 10 0 6 -5 10 -11 10 -5 0 -7
-4 -4 -10z"/>
<path d="M964 1963 c2 -10 -2 -22 -8 -26 -7 -6 -5 -7 5 -4 9 3 22 0 28 -6 6
-6 13 -8 16 -5 3 3 0 12 -8 19 -7 8 -12 20 -9 27 2 6 -3 12 -11 12 -9 0 -14
-7 -13 -17z"/>
<path d="M1000 1965 c0 -8 10 -20 23 -27 29 -16 47 -19 47 -7 0 6 4 8 9 4 5
-3 12 -1 15 4 4 5 -6 8 -21 6 -35 -4 -53 4 -53 21 0 8 -4 14 -10 14 -5 0 -10
-7 -10 -15z"/>
<path d="M1040 1969 c0 -5 5 -7 10 -4 6 3 10 8 10 11 0 2 -4 4 -10 4 -5 0 -10
-5 -10 -11z"/>
<path d="M1410 1970 c0 -5 5 -10 11 -10 5 0 7 5 4 10 -3 6 -8 10 -11 10 -2 0
-4 -4 -4 -10z"/>
<path d="M2332 1965 c-11 -12 -10 -15 3 -15 8 0 15 7 15 15 0 18 -2 18 -18 0z"/>
<path d="M2360 1965 c0 -10 10 -15 30 -15 17 0 30 5 30 11 0 8 4 8 13 2 21
-16 87 -16 87 0 0 11 -19 15 -80 16 -66 1 -80 -1 -80 -14z"/>
<path d="M2530 1966 c0 -9 5 -16 10 -16 6 0 10 4 10 9 0 6 -4 13 -10 16 -5 3
-10 -1 -10 -9z"/>
<path d="M865 1960 c-4 -7 -1 -16 6 -21 17 -10 26 8 11 23 -6 6 -12 6 -17 -2z"/>
<path d="M530 1944 c0 -8 -4 -12 -10 -9 -5 3 -10 1 -10 -5 0 -7 7 -9 16 -6 9
3 18 6 20 6 2 0 4 7 4 15 0 8 -4 15 -10 15 -5 0 -10 -7 -10 -16z"/>
<path d="M581 1944 c0 -11 3 -14 6 -6 3 7 2 16 -1 19 -3 4 -6 -2 -5 -13z"/>
<path d="M756 1945 c4 -8 1 -15 -5 -15 -6 0 -11 -4 -11 -10 0 -14 13 -12 36 5
16 13 17 16 4 25 -21 14 -30 12 -24 -5z"/>
<path d="M38 1943 c7 -3 16 -2 19 1 4 3 -2 6 -13 5 -11 0 -14 -3 -6 -6z"/>
<path d="M808 1943 c6 -2 18 -2 25 0 6 3 1 5 -13 5 -14 0 -19 -2 -12 -5z"/>
<path d="M1389 1936 c10 -12 8 -15 -11 -19 l-23 -4 23 -2 c32 -2 38 -26 14
-56 -16 -20 -22 -23 -29 -12 -4 8 -18 16 -31 19 -12 4 -20 2 -17 -2 3 -5 -14
-9 -37 -9 -24 0 -61 -3 -82 -6 -31 -6 -42 -4 -52 9 -8 11 -14 13 -19 7 -3 -6
-1 -11 4 -11 6 0 11 -7 11 -16 0 -14 8 -16 53 -10 28 4 71 7 95 8 23 0 42 5
42 9 0 5 7 6 15 3 22 -9 18 -17 -15 -36 -37 -21 -38 -29 -1 -51 23 -13 30 -14
34 -4 3 7 22 18 44 25 21 6 47 19 58 27 11 9 14 13 6 9 -8 -4 -32 -8 -54 -10
-22 -2 -48 -11 -57 -19 -18 -16 -40 -20 -40 -7 0 5 20 18 44 30 48 25 78 74
57 95 -6 6 -11 19 -11 29 0 10 -7 18 -16 18 -13 0 -14 -3 -5 -14z"/>
<path d="M1590 1938 c0 -10 -7 -18 -15 -18 -43 0 4 -30 55 -35 9 -1 25 -7 35
-12 11 -6 39 -13 63 -17 32 -5 42 -3 42 8 0 17 -48 28 -70 16 -12 -6 -27 1
-53 25 -20 19 -37 31 -37 27 0 -4 -5 0 -10 8 -8 13 -10 12 -10 -2z"/>
<path d="M1440 1922 c0 -11 78 -62 93 -62 14 0 -26 34 -65 56 -16 8 -28 11
-28 6z"/>
<path d="M190 1900 c0 -5 5 -10 11 -10 5 0 7 5 4 10 -3 6 -8 10 -11 10 -2 0
-4 -4 -4 -10z"/>
<path d="M670 1890 c0 -5 5 -10 10 -10 6 0 10 5 10 10 0 6 -4 10 -10 10 -5 0
-10 -4 -10 -10z"/>
<path d="M170 1876 c0 -9 5 -16 10 -16 6 0 10 4 10 9 0 6 -4 13 -10 16 -5 3
-10 -1 -10 -9z"/>
<path d="M615 1880 c3 -5 8 -10 11 -10 2 0 4 5 4 10 0 6 -5 10 -11 10 -5 0 -7
-4 -4 -10z"/>
<path d="M40 1870 c0 -5 5 -10 10 -10 6 0 10 5 10 10 0 6 -4 10 -10 10 -5 0
-10 -4 -10 -10z"/>
<path d="M2463 1860 c4 -14 7 -28 7 -32 0 -5 5 -8 10 -8 16 0 11 36 -7 51 -15
13 -16 11 -10 -11z"/>
<path d="M2851 1843 c-1 -40 0 -41 24 -30 20 10 21 13 7 18 -9 3 -20 17 -23
30 -6 19 -7 15 -8 -18z"/>
<path d="M1477 1854 c6 -15 23 -19 23 -5 0 5 -7 11 -14 14 -10 4 -13 1 -9 -9z"/>
<path d="M1608 1845 c18 -15 36 -25 39 -21 9 9 -17 32 -47 41 -23 7 -22 5 8
-20z"/>
<path d="M2348 1859 c-16 -10 13 -24 55 -25 29 -1 37 2 35 15 -2 11 -15 15
-42 16 -21 0 -42 -3 -48 -6z"/>
<path d="M2533 1863 c-18 -7 -16 -33 2 -33 8 0 15 9 15 20 0 11 -1 20 -2 19
-2 0 -9 -3 -15 -6z"/>
<path d="M2584 1851 c-9 -9 -4 -21 9 -21 6 1 26 7 42 14 l30 14 -38 -2 c-21 0
-40 -3 -43 -5z"/>
<path d="M453 1836 c1 -5 -4 -11 -12 -14 -9 -3 -11 0 -6 8 5 9 4 11 -4 6 -6
-4 -9 -11 -6 -16 8 -13 -17 -18 -48 -9 -22 6 -28 5 -24 -5 8 -20 -4 -28 -20
-14 -11 9 -17 9 -24 -3 -6 -10 -9 -10 -9 -1 0 8 -19 11 -65 10 -36 -1 -65 -5
-65 -9 0 -11 63 -17 82 -8 10 6 29 3 50 -6 22 -9 27 -14 14 -15 -11 0 -17 -3
-13 -6 11 -11 112 26 167 61 l55 35 -37 -2 c-20 -2 -36 -7 -35 -12z"/>
<path d="M1444 1835 c-10 -8 -14 -14 -9 -15 15 0 40 18 34 24 -3 3 -14 -1 -25
-9z"/>
<path d="M1525 1841 c-3 -5 -1 -12 5 -16 13 -8 13 -82 0 -90 -5 -3 -10 -16
-10 -28 0 -68 -95 -243 -162 -300 l-43 -36 -32 31 -32 31 -10 -24 c-5 -14 -30
-55 -55 -92 -25 -37 -46 -71 -46 -76 0 -19 -26 -17 -70 7 -33 17 -39 19 -22 5
23 -19 21 -19 -150 -19 -128 0 -176 4 -186 13 -16 16 -32 17 -32 2 0 -5 5 -7
12 -3 7 4 8 3 4 -4 -4 -6 -13 -9 -21 -5 -8 3 -15 0 -15 -5 0 -6 -8 -13 -17
-15 -10 -3 82 -5 204 -6 158 -1 222 2 225 10 3 9 10 9 26 0 14 -8 45 -10 84
-7 67 6 129 -8 152 -33 15 -17 32 -152 41 -336 3 -60 8 -129 11 -152 3 -24 7
-78 10 -120 2 -43 5 -94 7 -113 2 -19 7 -91 11 -160 5 -69 12 -129 17 -134 10
-11 238 10 524 48 99 13 224 27 278 31 77 5 97 10 97 22 0 11 5 13 18 8 9 -4
73 -7 142 -6 69 1 159 -3 200 -8 127 -16 317 -24 300 -12 -8 6 -40 11 -70 11
-30 0 -80 4 -112 9 -31 5 -100 13 -155 16 -54 4 -105 10 -113 14 -8 5 -45 3
-82 -4 -38 -6 -68 -7 -68 -3 0 4 -9 8 -19 8 -11 0 -23 5 -27 12 -5 7 -3 8 6 3
9 -5 11 -4 6 3 -10 17 -45 -7 -39 -27 4 -14 3 -14 -5 -2 -6 8 -9 27 -7 42 4
33 -20 120 -36 130 -6 4 -8 16 -4 28 3 12 11 19 16 16 5 -3 6 1 3 9 -3 9 -2
16 4 16 12 0 82 209 86 257 2 19 6 36 8 39 3 2 0 31 -7 64 -7 33 -10 62 -7 64
3 3 0 12 -7 20 -17 20 -11 185 7 179 6 -3 12 0 12 6 0 7 -7 14 -15 17 -11 5
-12 11 -4 25 7 14 6 19 -3 19 -9 0 -10 3 -2 8 6 4 14 20 18 37 7 29 7 29 -13
11 -12 -11 -19 -21 -16 -24 3 -3 -1 -12 -7 -20 -16 -18 -14 -192 2 -282 22
-117 22 -139 4 -207 -17 -63 -18 -65 -26 -37 -5 16 -6 37 -4 47 2 9 0 15 -5
11 -15 -9 -10 1 11 26 21 24 27 50 11 50 -5 0 -12 -8 -15 -17 -5 -11 -10 -13
-17 -6 -7 7 -7 22 0 49 6 22 10 57 10 79 -1 28 -3 32 -6 15 -3 -14 -9 -30 -15
-37 -16 -20 -11 -159 7 -207 15 -39 15 -47 0 -107 -11 -41 -27 -75 -45 -94
-28 -30 -34 -55 -32 -128 1 -23 6 -36 12 -32 6 4 9 9 7 13 -2 4 -1 30 2 57 l6
50 17 -37 c22 -44 26 -172 6 -165 -7 2 -21 0 -30 -5 -20 -10 -24 2 -6 20 9 9
9 12 -1 12 -7 0 -15 -10 -18 -21 -5 -19 -11 -21 -59 -16 -31 3 -56 1 -60 -4
-3 -6 -16 -9 -27 -8 -12 1 -29 -1 -37 -4 -25 -9 -100 -13 -100 -5 0 5 -5 8
-11 8 -5 0 -7 -5 -3 -11 5 -8 -3 -10 -25 -7 -17 2 -31 1 -31 -2 0 -7 -63 -16
-242 -36 -36 -4 -48 -2 -48 8 0 10 -2 10 -9 -1 -6 -9 -22 -12 -50 -9 -22 2
-42 -1 -45 -7 -8 -22 -20 8 -23 58 -9 140 -11 172 -13 172 -7 0 -3 95 5 95 5
0 1 7 -9 15 -22 17 -21 20 14 35 25 10 25 10 -2 5 -16 -3 -28 -1 -28 4 0 16
27 31 45 24 13 -4 16 -3 11 5 -4 7 -18 12 -32 12 -19 0 -24 5 -24 25 0 14 6
25 13 25 9 0 9 2 -1 8 -19 13 -25 55 -7 48 8 -3 15 -1 15 4 0 6 -5 10 -11 10
-6 0 -9 7 -5 15 3 8 0 15 -6 15 -6 0 -9 11 -6 28 3 15 2 41 -1 57 -5 21 -2 34
9 42 13 11 13 12 -4 13 -15 0 -17 5 -13 29 3 16 3 32 0 35 -14 13 -14 139 -1
149 9 6 8 7 -5 3 -12 -4 -17 -2 -14 6 2 7 11 12 18 10 9 -1 8 3 -3 11 -22 17
-22 21 -2 41 8 9 11 16 5 16 -5 0 -14 -7 -19 -17 -9 -15 -11 -14 -21 4 -6 11
-22 24 -37 27 l-26 7 29 22 c15 12 34 27 41 34 7 7 16 13 20 13 12 1 106 93
133 130 14 19 33 51 43 70 10 19 24 46 32 60 7 14 14 33 14 43 0 9 4 17 8 17
5 0 9 6 10 13 13 87 14 99 3 93 -6 -4 -8 -18 -5 -31 3 -12 1 -26 -5 -29 -6 -4
-11 -14 -11 -23 0 -20 -40 -105 -53 -114 -5 -3 -8 -9 -8 -13 2 -11 -32 -60
-51 -74 -10 -7 -18 -19 -18 -26 0 -15 -100 -107 -162 -148 -31 -21 -51 -27
-89 -26 -27 0 -49 3 -49 7 1 3 15 15 33 27 114 74 165 110 191 133 35 32 100
127 111 161 4 14 11 27 14 30 9 6 38 102 47 153 8 48 -3 107 -21 107 -8 0 -16
-4 -20 -9z m-273 -518 c-55 -39 -68 -26 -22 22 27 28 36 32 50 22 16 -10 13
-14 -28 -44z"/>
<path d="M2955 1830 l-40 -7 43 -2 c23 0 42 4 42 9 0 6 -1 9 -2 9 -2 -1 -21
-5 -43 -9z"/>
<path d="M68 1823 c6 -2 18 -2 25 0 6 3 1 5 -13 5 -14 0 -19 -2 -12 -5z"/>
<path d="M730 1820 c0 -5 7 -10 16 -10 8 0 12 5 9 10 -3 6 -10 10 -16 10 -5 0
-9 -4 -9 -10z"/>
<path d="M1080 1820 c-8 -5 -23 -7 -32 -4 -10 3 -26 1 -35 -5 -15 -8 -10 -10
22 -11 48 0 85 9 85 21 0 12 -21 11 -40 -1z"/>
<path d="M1496 1818 c4 -6 11 -25 15 -42 7 -30 7 -30 8 -4 1 32 -8 58 -21 58
-5 0 -6 -5 -2 -12z"/>
<path d="M1664 1821 c4 -6 19 -11 34 -11 15 0 54 -9 86 -20 33 -11 89 -25 125
-31 219 -34 352 -81 458 -160 55 -41 63 -45 63 -30 0 17 -141 104 -204 126
-34 13 -115 34 -181 49 -66 15 -167 38 -225 53 -139 34 -165 39 -156 24z"/>
<path d="M2190 1820 c-19 -4 -30 -8 -25 -10 27 -6 92 -9 105 -4 13 4 13 6 0
14 -17 11 -29 11 -80 0z"/>
<path d="M1920 1811 c0 -7 86 -34 149 -47 23 -4 31 -3 27 5 -4 6 -18 11 -32
11 -14 0 -23 4 -20 9 4 5 -4 7 -16 3 -17 -4 -20 -2 -15 11 4 11 1 17 -9 17 -8
0 -12 -4 -9 -10 8 -12 -1 -13 -43 -1 -17 5 -32 6 -32 2z"/>
<path d="M479 1792 c-37 -25 -60 -50 -51 -56 4 -2 14 -1 22 4 9 5 19 5 27 -2
16 -13 17 4 2 19 -8 8 -4 17 12 32 28 26 23 27 -12 3z"/>
<path d="M24 1789 c-5 -9 34 -18 65 -16 13 1 26 7 28 12 3 11 -86 14 -93 4z"/>
<path d="M1623 1765 c2 -36 17 -50 17 -16 0 11 3 26 6 35 4 10 1 16 -9 16 -11
0 -15 -9 -14 -35z"/>
<path d="M1700 1792 c0 -5 6 -15 14 -21 12 -10 14 -9 12 5 -3 19 -26 33 -26
16z"/>
<path d="M1145 1780 c-21 -4 -7 -8 49 -13 43 -4 86 -12 95 -19 13 -9 12 -8 -1
7 -19 20 -95 34 -143 25z"/>
<path d="M788 1773 c7 -3 16 -2 19 1 4 3 -2 6 -13 5 -11 0 -14 -3 -6 -6z"/>
<path d="M1785 1760 c-4 -6 3 -10 14 -10 25 0 27 6 6 13 -8 4 -17 2 -20 -3z"/>
<path d="M1740 1745 c0 -8 4 -15 10 -15 5 0 7 7 4 15 -4 8 -8 15 -10 15 -2 0
-4 -7 -4 -15z"/>
<path d="M2160 1740 c64 -23 86 -25 50 -5 -14 7 -43 16 -65 19 -37 6 -35 4 15
-14z"/>
<path d="M1108 1733 c7 -3 16 -2 19 1 4 3 -2 6 -13 5 -11 0 -14 -3 -6 -6z"/>
<path d="M2980 1731 c0 -5 -3 -16 -6 -24 -3 -8 2 -17 10 -20 12 -5 16 1 16 23
0 17 -4 30 -10 30 -5 0 -10 -4 -10 -9z"/>
<path d="M356 1719 c-25 -15 -56 -47 -56 -58 0 -14 -51 -29 -120 -35 -75 -7
-190 -40 -167 -49 8 -3 34 1 58 10 48 16 217 35 233 26 5 -4 7 0 3 9 -8 22 55
88 84 88 19 0 21 2 9 10 -19 12 -21 12 -44 -1z"/>
<path d="M1875 1720 c3 -5 8 -10 11 -10 2 0 4 5 4 10 0 6 -5 10 -11 10 -5 0
-7 -4 -4 -10z"/>
<path d="M885 1710 c-3 -5 -1 -10 4 -10 6 0 11 5 11 10 0 6 -2 10 -4 10 -3 0
-8 -4 -11 -10z"/>
<path d="M910 1700 c-6 -12 -9 -24 -7 -27 3 -2 11 5 17 17 6 12 9 24 7 27 -3
2 -11 -5 -17 -17z"/>
<path d="M1327 1713 c-4 -3 -1 -13 6 -21 7 -9 12 -45 12 -89 l0 -73 30 0 c26
1 28 2 13 13 -11 9 -17 31 -19 67 -2 30 -9 67 -17 83 -15 29 -16 30 -25 20z"/>
<path d="M1382 1706 c7 -8 15 -12 17 -11 5 6 -10 25 -20 25 -5 0 -4 -6 3 -14z"/>
<path d="M85 1701 c-65 -24 -85 -34 -85 -47 0 -11 11 -8 48 10 77 41 94 57 37
37z"/>
<path d="M158 1691 c-31 -9 -59 -18 -61 -21 -3 -3 36 -4 86 -3 76 2 94 5 111
23 l20 20 -37 0 c-25 0 -36 -4 -31 -11 4 -8 1 -8 -12 -1 -13 6 -37 4 -76 -7z"/>
<path d="M435 1701 c-3 -6 1 -13 9 -18 8 -4 14 -10 14 -13 -2 -11 42 -86 65
-112 35 -40 44 -35 13 6 -14 19 -26 39 -26 45 0 6 -4 11 -9 11 -5 0 -15 20
-22 45 -13 42 -30 57 -44 36z"/>
<path d="M1581 1694 c0 -11 3 -14 6 -6 3 7 2 16 -1 19 -3 4 -6 -2 -5 -13z"/>
<path d="M1126 1691 c-3 -5 -16 -7 -29 -4 -20 4 -20 3 -4 -7 10 -6 24 -9 31
-7 7 3 25 -6 40 -20 32 -29 48 -23 20 8 -25 28 -51 41 -58 30z"/>
<path d="M404 1674 c2 -10 8 -20 14 -22 17 -5 15 13 -2 27 -12 10 -14 9 -12
-5z"/>
<path d="M997 1678 c17 -4 41 -4 53 0 16 6 8 8 -32 9 -47 0 -49 -1 -21 -9z"/>
<path d="M945 1656 c15 -23 15 -25 -2 -29 -13 -3 -14 -5 -2 -6 8 0 24 5 34 13
18 13 18 14 -3 20 -12 4 -22 12 -22 17 0 5 -5 9 -10 9 -6 0 -3 -11 5 -24z"/>
<path d="M1237 1662 c-10 -10 -17 -28 -17 -40 0 -11 -4 -24 -10 -27 -5 -3 -10
1 -10 9 0 9 -8 16 -17 16 -10 0 -29 3 -43 5 -24 5 -24 5 -3 -4 32 -14 75 -88
81 -139 3 -28 8 -40 15 -33 5 5 16 7 23 4 19 -7 18 5 -3 25 -16 16 -16 17 3
20 20 4 70 59 61 68 -3 3 -13 -3 -23 -13 -45 -45 -51 -46 -67 -14 -19 39 -3
67 34 58 13 -3 31 -2 39 3 12 8 10 10 -10 10 -44 1 -55 14 -35 44 20 30 7 35
-18 8z"/>
<path d="M1780 1660 c0 -13 11 -13 30 0 12 8 11 10 -7 10 -13 0 -23 -4 -23
-10z"/>
<path d="M1970 1660 c0 -5 5 -10 11 -10 5 0 7 5 4 10 -3 6 -8 10 -11 10 -2 0
-4 -4 -4 -10z"/>
<path d="M2989 1668 c-5 -13 -3 -91 3 -101 4 -6 8 14 8 46 0 31 -2 57 -5 57
-3 0 -5 -1 -6 -2z"/>
<path d="M330 1640 c-7 -13 -7 -20 0 -20 5 0 10 -6 10 -14 0 -8 3 -16 8 -18 4
-1 18 -28 32 -58 14 -30 43 -73 65 -97 22 -23 46 -49 53 -58 7 -8 20 -15 28
-15 10 0 7 7 -10 24 -15 13 -26 29 -26 35 0 7 -4 10 -8 7 -8 -5 -50 43 -50 57
0 4 -8 19 -16 32 -14 21 -22 47 -25 78 -1 4 -12 12 -26 17 -14 5 -25 14 -25
20 0 6 5 8 10 5 6 -3 10 -2 10 4 0 20 -19 21 -30 1z"/>
<path d="M1055 1620 c32 -21 45 -25 45 -12 0 8 -48 32 -64 32 -6 0 3 -9 19
-20z"/>
<path d="M2010 1636 c0 -2 7 -6 15 -10 8 -3 15 -1 15 4 0 6 -7 10 -15 10 -8 0
-15 -2 -15 -4z"/>
<path d="M55 1620 c-3 -6 1 -7 9 -4 18 7 21 14 7 14 -6 0 -13 -4 -16 -10z"/>
<path d="M1563 1618 c-20 -31 -33 -62 -33 -76 0 -18 13 -8 16 13 1 8 9 28 17
45 15 30 15 41 0 18z"/>
<path d="M1698 1622 c-19 -4 -24 -17 -9 -26 5 -3 14 1 21 9 15 18 12 23 -12
17z"/>
<path d="M1835 1620 c3 -5 10 -10 16 -10 5 0 9 5 9 10 0 6 -7 10 -16 10 -8 0
-12 -4 -9 -10z"/>
<path d="M425 1610 c-3 -5 -1 -10 4 -10 6 0 11 5 11 10 0 6 -2 10 -4 10 -3 0
-8 -4 -11 -10z"/>
<path d="M2097 1589 c6 -23 9 -24 16 -5 3 8 0 17 -7 19 -10 4 -12 -1 -9 -14z"/>
<path d="M1958 1593 c6 -2 18 -2 25 0 6 3 1 5 -13 5 -14 0 -19 -2 -12 -5z"/>
<path d="M2135 1590 c-3 -5 0 -10 9 -10 8 0 17 -6 19 -12 4 -8 6 -9 6 -2 1 18
-26 37 -34 24z"/>
<path d="M143 1575 c-3 -9 -2 -19 1 -23 8 -8 38 10 44 26 6 18 -38 14 -45 -3z"/>
<path d="M768 1583 c7 -3 16 -2 19 1 4 3 -2 6 -13 5 -11 0 -14 -3 -6 -6z"/>
<path d="M1070 1580 c0 -4 9 -10 20 -13 11 -3 20 -2 20 3 0 4 -9 10 -20 13
-11 3 -20 2 -20 -3z"/>
<path d="M2190 1579 c0 -5 5 -7 10 -4 6 3 10 8 10 11 0 2 -4 4 -10 4 -5 0 -10
-5 -10 -11z"/>
<path d="M1630 1570 c0 -5 5 -10 11 -10 5 0 7 5 4 10 -3 6 -8 10 -11 10 -2 0
-4 -4 -4 -10z"/>
<path d="M2460 1556 c5 -14 30 -53 55 -87 46 -63 72 -113 115 -219 25 -62 79
-161 127 -235 18 -27 34 -54 36 -60 3 -5 8 -6 13 -2 5 4 4 11 -2 15 -6 4 -15
18 -19 32 -4 13 -14 30 -22 38 -8 8 -12 21 -9 29 3 8 2 12 -3 9 -12 -8 -59 85
-53 103 3 8 0 11 -6 7 -10 -6 -25 21 -19 35 1 4 -6 15 -15 26 -9 10 -22 40
-28 67 -6 27 -23 65 -39 85 -15 20 -26 43 -23 51 3 8 1 12 -3 8 -9 -9 -56 42
-49 54 3 5 14 6 25 3 31 -10 127 -7 146 4 14 9 -5 11 -77 10 -124 0 -120 -1
-120 14 0 7 -9 18 -20 25 -18 11 -19 10 -10 -12z"/>
<path d="M87 1555 c3 -8 9 -12 14 -9 12 7 11 11 -5 17 -10 4 -13 1 -9 -8z"/>
<path d="M481 1554 c0 -11 3 -14 6 -6 3 7 2 16 -1 19 -3 4 -6 -2 -5 -13z"/>
<path d="M1732 1558 c2 -6 18 -12 36 -12 18 -1 27 3 22 8 -14 14 -62 17 -58 4z"/>
<path d="M1968 1563 c7 -3 16 -2 19 1 4 3 -2 6 -13 5 -11 0 -14 -3 -6 -6z"/>
<path d="M208 1553 c-9 -2 -19 -10 -21 -17 -4 -10 1 -12 14 -9 10 3 19 9 19
13 0 5 10 11 23 13 18 3 18 4 2 4 -11 1 -27 -1 -37 -4z"/>
<path d="M831 1543 c-1 -25 14 -39 25 -22 4 7 3 9 -4 5 -6 -3 -12 3 -15 16 -4
23 -4 23 -6 1z"/>
<path d="M2085 1550 c-3 -5 -1 -10 4 -10 6 0 11 5 11 10 0 6 -2 10 -4 10 -3 0
-8 -4 -11 -10z"/>
<path d="M2968 1550 c-2 -5 -23 -10 -48 -11 -116 -4 -209 -12 -205 -18 2 -4
54 -6 114 -5 78 1 111 -1 111 -10 0 -6 5 -4 10 4 8 12 10 12 10 1 0 -11 3 -11
15 -1 8 7 13 16 10 20 -3 5 0 10 7 12 8 3 6 7 -4 11 -9 3 -18 2 -20 -3z"/>
<path d="M1860 1540 c0 -5 7 -7 15 -4 8 4 15 8 15 10 0 2 -7 4 -15 4 -8 0 -15
-4 -15 -10z"/>
<path d="M2230 1541 c0 -17 18 -21 24 -6 3 9 0 15 -9 15 -8 0 -15 -4 -15 -9z"/>
<path d="M235 1530 c-3 -5 -1 -10 4 -10 6 0 11 5 11 10 0 6 -2 10 -4 10 -3 0
-8 -4 -11 -10z"/>
<path d="M1166 1523 c-6 -14 -5 -15 5 -6 7 7 10 15 7 18 -3 3 -9 -2 -12 -12z"/>
<path d="M1675 1530 c-3 -5 -1 -10 4 -10 6 0 11 5 11 10 0 6 -2 10 -4 10 -3 0
-8 -4 -11 -10z"/>
<path d="M2010 1525 c-18 -10 -20 -14 -8 -15 9 0 20 5 24 11 3 6 18 8 33 5 19
-5 22 -4 11 4 -20 13 -30 12 -60 -5z"/>
<path d="M2115 1530 c-3 -5 -1 -10 4 -10 6 0 11 5 11 10 0 6 -2 10 -4 10 -3 0
-8 -4 -11 -10z"/>
<path d="M1890 1522 c0 -5 7 -9 15 -9 8 0 15 4 15 9 0 4 -7 8 -15 8 -8 0 -15
-4 -15 -8z"/>
<path d="M1493 1480 c-12 -22 -17 -40 -12 -40 5 0 14 11 19 24 5 13 14 27 19
31 13 7 15 25 4 25 -5 0 -18 -18 -30 -40z"/>
<path d="M1705 1510 c-3 -5 1 -10 9 -10 9 0 16 5 16 10 0 6 -4 10 -9 10 -6 0
-13 -4 -16 -10z"/>
<path d="M2320 1495 c9 -10 9 -15 1 -15 -6 0 -11 -7 -11 -15 0 -9 9 -15 23
-15 17 0 19 2 8 9 -12 8 -12 13 -3 24 10 12 9 16 -4 21 -24 9 -28 7 -14 -9z"/>
<path d="M0 1495 c0 -20 34 -65 71 -95 24 -19 46 -38 47 -42 2 -4 10 -8 18 -8
8 0 14 -3 14 -8 0 -4 10 -13 23 -21 12 -7 -20 27 -70 76 -51 50 -90 93 -86 96
3 4 1 7 -5 7 -7 0 -12 -2 -12 -5z"/>
<path d="M476 1487 c3 -10 9 -15 12 -12 3 3 0 11 -7 18 -10 9 -11 8 -5 -6z"/>
<path d="M535 1489 c-4 -6 -4 -13 -1 -16 3 -4 6 -1 6 6 0 7 5 9 12 5 7 -4 8
-3 4 4 -9 15 -13 15 -21 1z"/>
<path d="M840 1494 c0 -4 8 -13 18 -20 15 -12 15 -15 2 -24 -13 -8 -12 -10 4
-10 14 0 17 -5 12 -24 -4 -15 -1 -26 7 -29 7 -3 5 -6 -5 -6 -10 -1 -18 -8 -18
-16 0 -12 3 -13 19 -3 24 15 22 90 -4 118 -18 20 -35 26 -35 14z"/>
<path d="M1125 1490 c-16 -7 -17 -9 -3 -9 9 -1 20 4 23 9 7 11 7 11 -20 0z"/>
<path d="M2013 1492 c-24 -4 -32 -22 -10 -22 15 0 43 18 37 22 -3 2 -15 2 -27
0z"/>
<path d="M2211 1496 c2 -2 18 -6 34 -10 22 -5 26 -4 15 4 -14 9 -59 15 -49 6z"/>
<path d="M2370 1490 c0 -5 5 -10 11 -10 5 0 7 5 4 10 -3 6 -8 10 -11 10 -2 0
-4 -4 -4 -10z"/>
<path d="M1620 1480 c0 -5 7 -7 15 -4 8 4 15 8 15 10 0 2 -7 4 -15 4 -8 0 -15
-4 -15 -10z"/>
<path d="M1575 1470 c3 -5 8 -10 11 -10 2 0 4 5 4 10 0 6 -5 10 -11 10 -5 0
-7 -4 -4 -10z"/>
<path d="M1840 1470 c0 -5 10 -10 23 -10 18 0 19 2 7 10 -19 13 -30 13 -30 0z"/>
<path d="M2225 1470 c-3 -5 -1 -10 4 -10 6 0 11 5 11 10 0 6 -2 10 -4 10 -3 0
-8 -4 -11 -10z"/>
<path d="M228 1463 c12 -3 19 -9 16 -15 -4 -6 -1 -9 6 -6 30 10 21 28 -12 27
-23 -1 -26 -3 -10 -6z"/>
<path d="M504 1450 c1 -8 10 -16 21 -17 15 -1 15 0 3 3 -9 3 -19 11 -21 17 -2
7 -3 5 -3 -3z"/>
<path d="M1796 1455 c4 -8 8 -15 10 -15 2 0 4 7 4 15 0 8 -4 15 -10 15 -5 0
-7 -7 -4 -15z"/>
<path d="M2185 1460 c-3 -5 -2 -10 4 -10 5 0 13 5 16 10 3 6 2 10 -4 10 -5 0
-13 -4 -16 -10z"/>
<path d="M305 1450 c3 -5 11 -10 16 -10 6 0 7 5 4 10 -3 6 -11 10 -16 10 -6 0
-7 -4 -4 -10z"/>
<path d="M550 1456 c0 -9 30 -14 35 -6 4 6 -3 10 -14 10 -12 0 -21 -2 -21 -4z"/>
<path d="M1748 1453 c-10 -2 -18 -9 -18 -14 0 -6 8 -5 20 1 11 6 20 13 20 15
0 3 -1 4 -2 4 -2 -1 -11 -3 -20 -6z"/>
<path d="M1910 1450 c-13 -8 -12 -10 3 -10 9 0 17 5 17 10 0 12 -1 12 -20 0z"/>
<path d="M2090 1451 c0 -6 4 -13 10 -16 6 -3 7 1 4 9 -7 18 -14 21 -14 7z"/>
<path d="M2430 1450 c0 -5 5 -10 10 -10 6 0 10 5 10 10 0 6 -4 10 -10 10 -5 0
-10 -4 -10 -10z"/>
<path d="M1595 1437 c-8 -4 -19 -6 -24 -2 -5 3 -12 1 -15 -4 -10 -15 13 -24
29 -11 7 6 31 13 51 16 21 3 40 7 43 10 9 8 -68 1 -84 -9z"/>
<path d="M2155 1440 c-3 -5 -1 -10 4 -10 6 0 11 5 11 10 0 6 -2 10 -4 10 -3 0
-8 -4 -11 -10z"/>
<path d="M2357 1439 c-10 -6 -26 -8 -35 -4 -16 6 -16 5 0 -11 15 -16 18 -15
44 5 28 22 22 28 -9 10z"/>
<path d="M2116 1423 c-6 -14 -5 -15 5 -6 7 7 10 15 7 18 -3 3 -9 -2 -12 -12z"/>
<path d="M2212 1431 c-11 -7 -11 -9 1 -14 16 -6 27 0 27 15 0 10 -11 10 -28
-1z"/>
<path d="M2257 1433 c-4 -3 -7 -11 -7 -17 0 -6 5 -5 12 2 6 6 9 14 7 17 -3 3
-9 2 -12 -2z"/>
<path d="M265 1420 c3 -5 11 -10 16 -10 6 0 7 5 4 10 -3 6 -11 10 -16 10 -6 0
-7 -4 -4 -10z"/>
<path d="M1690 1419 c0 -5 5 -7 10 -4 6 3 10 8 10 11 0 2 -4 4 -10 4 -5 0 -10
-5 -10 -11z"/>
<path d="M1765 1420 c-8 -13 5 -13 25 0 13 8 13 10 -2 10 -9 0 -20 -4 -23 -10z"/>
<path d="M1860 1420 c0 -5 5 -10 10 -10 6 0 10 5 10 10 0 6 -4 10 -10 10 -5 0
-10 -4 -10 -10z"/>
<path d="M2425 1420 c-3 -5 -1 -10 4 -10 6 0 11 5 11 10 0 6 -2 10 -4 10 -3 0
-8 -4 -11 -10z"/>
<path d="M302 1408 c-16 -16 -15 -28 1 -28 7 0 13 9 13 20 0 11 -1 20 -1 20
-1 0 -6 -5 -13 -12z"/>
<path d="M535 1410 c3 -5 11 -10 16 -10 6 0 7 5 4 10 -3 6 -11 10 -16 10 -6 0
-7 -4 -4 -10z"/>
<path d="M2510 1415 c0 -5 5 -17 10 -25 5 -8 10 -10 10 -5 0 6 -5 17 -10 25
-5 8 -10 11 -10 5z"/>
<path d="M1 1391 c-1 -14 10 -31 27 -44 46 -36 122 -109 122 -118 0 -16 -40
-4 -46 13 -3 10 -12 18 -19 18 -8 0 -18 6 -22 13 -11 17 -63 39 -63 26 0 -5 7
-12 15 -15 8 -4 12 -10 9 -15 -3 -5 1 -9 10 -9 8 0 27 -14 43 -30 26 -28 33
-30 96 -29 66 2 86 12 47 24 -11 3 -24 4 -28 1 -13 -8 -55 40 -47 53 3 6 0 11
-7 11 -7 0 -24 10 -38 21 -17 15 -19 19 -7 15 11 -3 16 -2 12 4 -3 6 -15 10
-26 10 -13 0 -19 7 -20 23 0 19 -1 20 -8 4 -6 -18 -7 -18 -23 0 -8 10 -18 25
-21 33 -3 10 -6 6 -6 -9z"/>
<path d="M390 1395 c12 -15 30 -12 30 6 0 5 -10 9 -21 9 -18 0 -19 -2 -9 -15z"/>
<path d="M1800 1399 c0 -5 5 -7 10 -4 6 3 10 8 10 11 0 2 -4 4 -10 4 -5 0 -10
-5 -10 -11z"/>
<path d="M1968 1396 c-22 -16 -22 -22 -2 -30 9 -3 12 -2 9 5 -4 5 -1 16 5 24
15 18 11 19 -12 1z"/>
<path d="M2068 1403 c6 -2 18 -2 25 0 6 3 1 5 -13 5 -14 0 -19 -2 -12 -5z"/>
<path d="M2316 1378 c3 -18 6 -50 5 -71 0 -21 4 -35 10 -32 5 4 7 26 5 50 -3
25 0 47 5 51 6 4 6 11 -2 20 -19 24 -30 16 -23 -18z"/>
<path d="M2393 1395 c0 -7 6 -11 14 -8 7 3 13 6 13 8 0 2 -6 5 -13 8 -8 3 -14
-1 -14 -8z"/>
<path d="M2451 1399 c0 -9 -7 -19 -14 -22 -10 -4 -13 -22 -11 -64 1 -32 2 -70
3 -84 1 -29 29 -43 52 -27 11 8 10 9 -3 4 -10 -3 -18 -1 -18 5 0 6 -4 7 -10 4
-5 -3 -10 -1 -10 4 0 6 5 11 10 11 6 0 10 5 10 11 0 5 -3 8 -7 6 -5 -3 -9 8
-10 24 -1 17 2 27 7 24 6 -4 10 -1 10 4 0 6 -4 11 -10 11 -14 0 -13 37 1 42 6
2 9 17 6 33 -2 17 -5 23 -6 14z"/>
<path d="M1565 1390 c-18 -8 -17 -9 8 -9 15 -1 27 4 27 9 0 12 -8 12 -35 0z"/>
<path d="M2180 1380 c-6 -11 -8 -20 -6 -20 3 0 10 9 16 20 6 11 8 20 6 20 -3
0 -10 -9 -16 -20z"/>
<path d="M1069 1379 c-10 -6 -4 -9 19 -9 17 0 32 2 32 4 0 9 -39 13 -51 5z"/>
<path d="M2090 1380 c0 -5 5 -10 11 -10 5 0 7 5 4 10 -3 6 -8 10 -11 10 -2 0
-4 -4 -4 -10z"/>
<path d="M2235 1380 c3 -5 10 -10 16 -10 5 0 9 5 9 10 0 6 -7 10 -16 10 -8 0
-12 -4 -9 -10z"/>
<path d="M332 1373 c-6 -3 -10 -9 -6 -14 8 -13 54 -11 54 2 0 6 -6 9 -14 6 -8
-3 -16 -2 -18 2 -2 4 -9 6 -16 4z"/>
<path d="M1740 1368 c0 -4 7 -8 15 -8 8 0 15 4 15 8 0 5 -7 9 -15 9 -8 0 -15
-4 -15 -9z"/>
<path d="M1877 1359 c4 -13 8 -18 11 -10 2 7 -1 18 -6 23 -8 8 -9 4 -5 -13z"/>
<path d="M2045 1370 c3 -5 11 -10 16 -10 6 0 7 5 4 10 -3 6 -11 10 -16 10 -6
0 -7 -4 -4 -10z"/>
<path d="M575 1360 c3 -5 11 -10 16 -10 6 0 7 5 4 10 -3 6 -11 10 -16 10 -6 0
-7 -4 -4 -10z"/>
<path d="M1545 1360 c-3 -5 1 -10 10 -10 9 0 13 5 10 10 -3 6 -8 10 -10 10 -2
0 -7 -4 -10 -10z"/>
<path d="M2210 1363 c0 -6 -10 -13 -22 -16 -12 -4 -19 -9 -15 -13 3 -3 14 -3
24 1 10 5 25 7 33 6 9 -1 11 1 5 6 -5 5 -13 12 -17 17 -5 5 -8 5 -8 -1z"/>
<path d="M270 1354 c0 -3 7 -12 15 -20 13 -13 15 -13 15 -1 0 8 -7 17 -15 21
-8 3 -15 3 -15 0z"/>
<path d="M722 1348 c-8 -10 -3 -13 18 -14 24 -1 26 1 15 12 -17 17 -20 17 -33
2z"/>
<path d="M950 1350 c0 -5 5 -10 11 -10 5 0 7 5 4 10 -3 6 -8 10 -11 10 -2 0
-4 -4 -4 -10z"/>
<path d="M2020 1350 c-9 -6 -10 -10 -3 -10 6 0 15 5 18 10 8 12 4 12 -15 0z"/>
<path d="M404 1332 c0 -14 6 -17 31 -13 25 4 26 6 8 9 -13 2 -23 8 -23 13 0 5
-4 9 -8 9 -4 0 -8 -8 -8 -18z"/>
<path d="M2270 1340 c0 -5 5 -10 10 -10 6 0 10 5 10 10 0 6 -4 10 -10 10 -5 0
-10 -4 -10 -10z"/>
<path d="M2510 1340 c0 -5 7 -10 16 -10 8 0 12 5 9 10 -3 6 -10 10 -16 10 -5
0 -9 -4 -9 -10z"/>
<path d="M1510 1336 c0 -2 9 -6 20 -9 11 -3 20 -1 20 4 0 5 -9 9 -20 9 -11 0
-20 -2 -20 -4z"/>
<path d="M1568 1333 c7 -3 16 -2 19 1 4 3 -2 6 -13 5 -11 0 -14 -3 -6 -6z"/>
<path d="M2033 1327 c-3 -5 -3 -10 -1 -12 7 -7 48 7 48 16 0 10 -40 7 -47 -4z"/>
<path d="M780 1319 c0 -5 5 -7 10 -4 6 3 10 8 10 11 0 2 -4 4 -10 4 -5 0 -10
-5 -10 -11z"/>
<path d="M970 1320 c-9 -6 -10 -10 -3 -10 6 0 15 5 18 10 8 12 4 12 -15 0z"/>
<path d="M1475 1320 c4 -6 11 -8 16 -5 14 9 11 15 -7 15 -8 0 -12 -5 -9 -10z"/>
<path d="M1716 1315 c4 -8 10 -15 15 -15 4 0 6 7 3 15 -4 8 -10 15 -15 15 -4
0 -6 -7 -3 -15z"/>
<path d="M1976 1314 c-5 -14 -4 -15 9 -4 17 14 19 20 6 20 -5 0 -12 -7 -15
-16z"/>
<path d="M568 1295 c3 -21 7 -23 23 -14 11 5 19 15 19 22 0 8 -3 8 -9 -1 -7
-11 -9 -11 -14 2 -10 25 -25 19 -19 -9z"/>
<path d="M725 1310 c-3 -5 1 -10 9 -10 9 0 16 5 16 10 0 6 -4 10 -9 10 -6 0
-13 -4 -16 -10z"/>
<path d="M1608 1308 c6 -6 18 -8 28 -6 14 3 12 5 -9 10 -19 3 -25 2 -19 -4z"/>
<path d="M2530 1299 c7 -11 14 -18 17 -15 8 8 -5 36 -17 36 -7 0 -7 -6 0 -21z"/>
<path d="M360 1300 c0 -5 7 -10 16 -10 8 0 12 5 9 10 -3 6 -10 10 -16 10 -5 0
-9 -4 -9 -10z"/>
<path d="M815 1300 c3 -5 8 -10 11 -10 2 0 4 5 4 10 0 6 -5 10 -11 10 -5 0 -7
-4 -4 -10z"/>
<path d="M840 1302 c1 -16 17 -27 43 -30 39 -4 34 13 -8 25 -19 6 -35 8 -35 5z"/>
<path d="M1570 1306 c0 -2 7 -9 15 -16 9 -7 15 -8 15 -2 0 5 -7 12 -15 16 -8
3 -15 4 -15 2z"/>
<path d="M2213 1291 c0 -11 5 -18 9 -15 4 3 5 11 1 19 -7 21 -12 19 -10 -4z"/>
<path d="M1483 1293 c9 -2 17 -9 17 -14 0 -5 5 -9 11 -9 8 0 8 5 -1 15 -7 8
-20 14 -29 14 -13 -1 -13 -2 2 -6z"/>
<path d="M700 1282 c0 -5 7 -9 15 -9 8 0 12 4 9 9 -3 4 -9 8 -15 8 -5 0 -9 -4
-9 -8z"/>
<path d="M1107 1270 c-3 -11 -1 -20 4 -20 5 0 9 9 9 20 0 11 -2 20 -4 20 -2 0
-6 -9 -9 -20z"/>
<path d="M1740 1280 c0 -6 7 -10 15 -10 8 0 15 2 15 4 0 2 -7 6 -15 10 -8 3
-15 1 -15 -4z"/>
<path d="M1978 1283 c6 -2 18 -2 25 0 6 3 1 5 -13 5 -14 0 -19 -2 -12 -5z"/>
<path d="M2080 1280 c-9 -6 -10 -10 -3 -10 6 0 15 5 18 10 8 12 4 12 -15 0z"/>
<path d="M2470 1280 c0 -5 5 -10 10 -10 6 0 10 5 10 10 0 6 -4 10 -10 10 -5 0
-10 -4 -10 -10z"/>
<path d="M2570 1285 c0 -5 5 -17 10 -25 5 -8 10 -10 10 -5 0 6 -5 17 -10 25
-5 8 -10 11 -10 5z"/>
<path d="M465 1270 c3 -5 8 -10 11 -10 2 0 4 5 4 10 0 6 -5 10 -11 10 -5 0 -7
-4 -4 -10z"/>
<path d="M917 1267 c-3 -9 6 -13 31 -14 36 -1 36 -1 12 13 -31 17 -37 17 -43
1z"/>
<path d="M990 1276 c0 -2 7 -6 15 -10 8 -3 15 -1 15 4 0 6 -7 10 -15 10 -8 0
-15 -2 -15 -4z"/>
<path d="M1260 1270 c0 -6 7 -10 15 -10 8 0 15 2 15 4 0 2 -7 6 -15 10 -8 3
-15 1 -15 -4z"/>
<path d="M1450 1270 c0 -5 5 -10 11 -10 5 0 7 5 4 10 -3 6 -8 10 -11 10 -2 0
-4 -4 -4 -10z"/>
<path d="M2266 1271 c-3 -5 1 -11 9 -14 9 -4 12 -1 8 9 -6 16 -10 17 -17 5z"/>
<path d="M1794 1259 c-3 -6 -1 -16 6 -22 10 -9 11 -9 5 2 -4 8 -2 17 6 22 9 6
10 9 2 9 -6 0 -15 -5 -19 -11z"/>
<path d="M2175 1260 c-3 -5 -1 -10 4 -10 6 0 11 5 11 10 0 6 -2 10 -4 10 -3 0
-8 -4 -11 -10z"/>
<path d="M745 1250 c3 -5 10 -10 16 -10 5 0 9 5 9 10 0 6 -7 10 -16 10 -8 0
-12 -4 -9 -10z"/>
<path d="M820 1249 c0 -5 5 -7 10 -4 6 3 10 8 10 11 0 2 -4 4 -10 4 -5 0 -10
-5 -10 -11z"/>
<path d="M878 1253 c7 -3 16 -2 19 1 4 3 -2 6 -13 5 -11 0 -14 -3 -6 -6z"/>
<path d="M1360 1250 c-9 -6 -10 -10 -3 -10 6 0 15 5 18 10 8 12 4 12 -15 0z"/>
<path d="M1497 1249 c7 -7 15 -10 18 -7 3 3 -2 9 -12 12 -14 6 -15 5 -6 -5z"/>
<path d="M1545 1250 c3 -5 13 -10 21 -10 8 0 12 5 9 10 -3 6 -13 10 -21 10 -8
0 -12 -4 -9 -10z"/>
<path d="M1875 1250 c3 -5 14 -10 23 -10 15 0 15 2 2 10 -20 13 -33 13 -25 0z"/>
<path d="M2215 1250 c-3 -5 1 -10 9 -10 9 0 16 5 16 10 0 6 -4 10 -9 10 -6 0
-13 -4 -16 -10z"/>
<path d="M2480 1245 c-7 -9 -11 -18 -8 -20 3 -3 11 1 18 10 7 9 11 18 8 20 -3
3 -11 -1 -18 -10z"/>
<path d="M1845 1240 c-3 -5 -1 -10 4 -10 6 0 11 5 11 10 0 6 -2 10 -4 10 -3 0
-8 -4 -11 -10z"/>
<path d="M2060 1240 c0 -5 6 -10 14 -10 8 0 17 -6 19 -12 4 -10 6 -10 6 -1 1
7 -8 17 -19 23 -14 7 -20 7 -20 0z"/>
<path d="M0 1213 c0 -8 13 -13 36 -13 41 0 38 16 -6 22 -20 3 -30 0 -30 -9z"/>
<path d="M1360 1219 c0 -5 5 -7 10 -4 6 3 10 8 10 11 0 2 -4 4 -10 4 -5 0 -10
-5 -10 -11z"/>
<path d="M1416 1222 c-2 -4 4 -8 14 -8 10 0 16 4 14 8 -3 4 -9 8 -14 8 -5 0
-11 -4 -14 -8z"/>
<path d="M1670 1216 c0 -8 4 -17 9 -21 6 -3 9 4 8 15 -1 23 -17 28 -17 6z"/>
<path d="M1780 1220 c0 -5 5 -10 11 -10 5 0 7 5 4 10 -3 6 -8 10 -11 10 -2 0
-4 -4 -4 -10z"/>
<path d="M1940 1222 c0 -10 41 -24 49 -17 6 7 0 11 -26 19 -13 4 -23 3 -23 -2z"/>
<path d="M2017 1214 c3 -7 9 -14 14 -14 14 0 10 17 -5 23 -10 4 -13 1 -9 -9z"/>
<path d="M2155 1220 c-3 -5 1 -10 10 -10 9 0 13 5 10 10 -3 6 -8 10 -10 10 -2
0 -7 -4 -10 -10z"/>
<path d="M2291 1214 c0 -11 3 -14 6 -6 3 7 2 16 -1 19 -3 4 -6 -2 -5 -13z"/>
<path d="M2587 1223 c-12 -11 -8 -23 8 -23 8 0 15 7 15 15 0 16 -12 20 -23 8z"/>
<path d="M1500 1210 c0 -5 7 -10 16 -10 8 0 12 5 9 10 -3 6 -10 10 -16 10 -5
0 -9 -4 -9 -10z"/>
<path d="M1582 1209 c16 -11 48 -12 48 -1 0 4 -14 7 -31 8 -20 1 -26 -2 -17
-7z"/>
<path d="M2210 1210 c0 -5 5 -10 11 -10 5 0 7 5 4 10 -3 6 -8 10 -11 10 -2 0
-4 -4 -4 -10z"/>
<path d="M1776 1191 c-4 -7 -5 -15 -2 -18 9 -9 19 4 14 18 -4 11 -6 11 -12 0z"/>
<path d="M1805 1190 c-3 -5 1 -10 9 -10 9 0 16 5 16 10 0 6 -4 10 -9 10 -6 0
-13 -4 -16 -10z"/>
<path d="M2152 1184 c-14 -16 -5 -18 17 -5 7 5 9 11 5 14 -5 3 -15 -1 -22 -9z"/>
<path d="M912 1178 c-9 -4 8 -7 38 -7 30 0 60 3 67 7 14 9 -81 9 -105 0z"/>
<path d="M1090 1180 c0 -5 5 -10 10 -10 6 0 10 5 10 10 0 6 -4 10 -10 10 -5 0
-10 -4 -10 -10z"/>
<path d="M1125 1180 c4 -6 11 -8 16 -5 14 9 11 15 -7 15 -8 0 -12 -5 -9 -10z"/>
<path d="M1188 1183 c6 -2 18 -2 25 0 6 3 1 5 -13 5 -14 0 -19 -2 -12 -5z"/>
<path d="M2036 1181 c-3 -5 3 -11 15 -14 16 -4 18 -3 8 9 -13 16 -16 17 -23 5z"/>
<path d="M2271 1174 c0 -11 3 -14 6 -6 3 7 2 16 -1 19 -3 4 -6 -2 -5 -13z"/>
<path d="M2440 1175 c-11 -13 -10 -14 2 -10 11 5 16 -1 16 -19 0 -18 -5 -23
-17 -19 -9 3 -3 -4 13 -15 16 -11 35 -18 42 -15 22 8 16 22 -6 16 -22 -6 -28
12 -7 20 6 3 3 6 -7 6 -19 1 -19 1 -1 15 18 13 18 14 -2 24 -16 9 -24 8 -33
-3z"/>
<path d="M65 1170 c3 -5 19 -7 36 -5 46 6 45 11 -2 13 -23 1 -38 -2 -34 -8z"/>
<path d="M146 1164 c-5 -14 -4 -15 9 -4 17 14 19 20 6 20 -5 0 -12 -7 -15 -16z"/>
<path d="M208 1173 c18 -2 45 -2 60 0 15 2 0 4 -33 4 -33 0 -45 -2 -27 -4z"/>
<path d="M328 1173 c17 -2 47 -2 65 0 17 2 3 4 -33 4 -36 0 -50 -2 -32 -4z"/>
<path d="M528 1173 c29 -2 74 -2 100 0 26 2 2 3 -53 3 -55 0 -76 -1 -47 -3z"/>
<path d="M718 1173 c23 -2 61 -2 85 0 23 2 4 4 -43 4 -47 0 -66 -2 -42 -4z"/>
<path d="M858 1173 c6 -2 18 -2 25 0 6 3 1 5 -13 5 -14 0 -19 -2 -12 -5z"/>
<path d="M1286 1165 c4 -8 11 -15 16 -15 6 0 5 6 -2 15 -7 8 -14 15 -16 15 -2
0 -1 -7 2 -15z"/>
<path d="M1562 1165 c-7 -8 -9 -15 -4 -15 5 0 15 7 22 15 16 19 -1 19 -18 0z"/>
<path d="M1615 1170 c-3 -6 1 -7 9 -4 18 7 21 14 7 14 -6 0 -13 -4 -16 -10z"/>
<path d="M1446 1160 c6 -6 26 -12 45 -14 19 -2 25 -1 14 1 -11 3 -24 9 -29 14
-14 13 -43 12 -30 -1z"/>
<path d="M2225 1160 c3 -5 11 -10 16 -10 6 0 7 5 4 10 -3 6 -11 10 -16 10 -6
0 -7 -4 -4 -10z"/>
<path d="M1695 1150 c-3 -5 -1 -10 4 -10 6 0 11 5 11 10 0 6 -2 10 -4 10 -3 0
-8 -4 -11 -10z"/>
<path d="M1730 1150 c-13 -8 -13 -10 2 -10 9 0 20 5 23 10 8 13 -5 13 -25 0z"/>
<path d="M1790 1154 c0 -10 28 -33 33 -27 3 3 0 12 -8 19 -14 15 -25 18 -25 8z"/>
<path d="M1875 1150 c3 -5 10 -10 16 -10 5 0 9 5 9 10 0 6 -7 10 -16 10 -8 0
-12 -4 -9 -10z"/>
<path d="M2160 1150 c0 -6 7 -10 15 -10 8 0 15 2 15 4 0 2 -7 6 -15 10 -8 3
-15 1 -15 -4z"/>
<path d="M2600 1151 c0 -5 7 -11 14 -14 10 -4 13 -1 9 9 -6 15 -23 19 -23 5z"/>
<path d="M2976 1151 c-4 -6 -2 -11 3 -11 6 0 11 -8 12 -17 0 -10 3 -13 5 -6 8
18 -11 49 -20 34z"/>
<path d="M1620 1140 c20 -13 33 -13 25 0 -3 6 -14 10 -23 10 -15 0 -15 -2 -2
-10z"/>
<path d="M2038 1143 c7 -3 16 -2 19 1 4 3 -2 6 -13 5 -11 0 -14 -3 -6 -6z"/>
<path d="M2267 1133 c-15 -8 -25 -19 -22 -24 4 -5 12 -3 20 5 8 8 20 16 27 19
7 2 11 6 8 9 -3 2 -17 -2 -33 -9z"/>
<path d="M2505 1140 c3 -5 8 -10 11 -10 2 0 4 5 4 10 0 6 -5 10 -11 10 -5 0
-7 -4 -4 -10z"/>
<path d="M1546 1128 c3 -5 10 -6 15 -3 13 9 11 12 -6 12 -8 0 -12 -4 -9 -9z"/>
<path d="M2130 1130 c0 -5 5 -10 10 -10 6 0 10 5 10 10 0 6 -4 10 -10 10 -5 0
-10 -4 -10 -10z"/>
<path d="M2530 1130 c0 -5 5 -10 10 -10 6 0 10 5 10 10 0 6 -4 10 -10 10 -5 0
-10 -4 -10 -10z"/>
<path d="M1990 1120 c0 -5 5 -10 10 -10 6 0 10 5 10 10 0 6 -4 10 -10 10 -5 0
-10 -4 -10 -10z"/>
<path d="M2634 1105 c-18 -14 -18 -14 9 -15 15 0 27 4 27 9 0 18 -17 20 -36 6z"/>
<path d="M1560 1094 c0 -8 6 -11 15 -8 8 4 15 9 15 13 0 4 -7 8 -15 8 -8 0
-15 -6 -15 -13z"/>
<path d="M1790 1100 c0 -5 7 -7 15 -4 8 4 15 8 15 10 0 2 -7 4 -15 4 -8 0 -15
-4 -15 -10z"/>
<path d="M2055 1100 c-7 -12 2 -12 30 0 19 8 19 9 -2 9 -12 1 -25 -3 -28 -9z"/>
<path d="M1640 1090 c-9 -6 -10 -10 -3 -10 6 0 15 5 18 10 8 12 4 12 -15 0z"/>
<path d="M1720 1090 c-8 -5 -10 -10 -5 -10 6 0 17 5 25 10 8 5 11 10 5 10 -5
0 -17 -5 -25 -10z"/>
<path d="M1965 1090 c-3 -5 1 -10 9 -10 9 0 16 5 16 10 0 6 -4 10 -9 10 -6 0
-13 -4 -16 -10z"/>
<path d="M2136 1081 c-3 -5 1 -11 9 -14 9 -4 12 -1 8 9 -6 16 -10 17 -17 5z"/>
<path d="M1390 1070 c0 -5 5 -10 10 -10 6 0 10 5 10 10 0 6 -4 10 -10 10 -5 0
-10 -4 -10 -10z"/>
<path d="M1850 1066 c0 -7 -10 -16 -22 -19 -12 -4 -19 -9 -16 -12 10 -10 48
14 48 30 0 8 -2 15 -5 15 -3 0 -5 -6 -5 -14z"/>
<path d="M1928 1073 c7 -3 16 -2 19 1 4 3 -2 6 -13 5 -11 0 -14 -3 -6 -6z"/>
<path d="M2443 1073 c9 -2 23 -2 30 0 6 3 -1 5 -18 5 -16 0 -22 -2 -12 -5z"/>
<path d="M2540 1071 c0 -5 5 -13 10 -16 6 -3 10 -2 10 4 0 5 -4 13 -10 16 -5
3 -10 2 -10 -4z"/>
<path d="M2666 1068 c5 -8 2 -9 -9 -5 -10 3 -17 2 -17 -4 0 -14 32 -7 38 9 2
6 -1 12 -8 12 -6 0 -8 -5 -4 -12z"/>
<path d="M1608 1063 c-10 -3 -18 -9 -18 -14 0 -10 7 -11 34 0 23 9 9 19 -16
14z"/>
<path d="M1418 1048 c-10 -8 -9 -9 4 -5 9 3 18 1 20 -5 2 -6 11 -9 21 -7 13 3
12 6 -7 15 -16 7 -29 8 -38 2z"/>
<path d="M2280 1050 c-9 -6 -10 -10 -3 -10 6 0 15 5 18 10 8 12 4 12 -15 0z"/>
<path d="M2390 1045 c0 -8 -7 -15 -15 -15 -8 0 -15 -5 -15 -10 0 -7 6 -7 20 0
17 9 29 40 15 40 -3 0 -5 -7 -5 -15z"/>
<path d="M2456 1043 c-6 -14 -5 -15 5 -6 7 7 10 15 7 18 -3 3 -9 -2 -12 -12z"/>
<path d="M1545 1040 c-3 -5 -1 -10 4 -10 6 0 11 5 11 10 0 6 -2 10 -4 10 -3 0
-8 -4 -11 -10z"/>
<path d="M1700 1039 c0 -5 5 -7 10 -4 6 3 10 8 10 11 0 2 -4 4 -10 4 -5 0 -10
-5 -10 -11z"/>
<path d="M2110 1043 c14 -3 32 -10 40 -16 13 -11 13 -10 1 6 -7 9 -25 16 -40
16 l-26 -2 25 -4z"/>
<path d="M1956 1019 c-11 -10 -15 -19 -10 -19 12 1 44 25 44 34 0 11 -15 5
-34 -15z"/>
<path d="M2170 1031 c0 -5 7 -12 16 -15 24 -9 27 -7 10 9 -17 17 -26 19 -26 6z"/>
<path d="M2674 1025 c11 -8 22 -12 25 -9 6 6 -19 24 -34 24 -5 -1 -1 -7 9 -15z"/>
<path d="M1846 1021 c-15 -6 -16 -10 -7 -16 7 -4 16 -3 20 2 3 6 13 13 21 16
13 5 13 5 0 6 -8 0 -24 -4 -34 -8z"/>
<path d="M2486 1022 c-8 -13 11 -35 23 -28 6 4 11 15 10 24 0 11 -3 12 -6 5
-2 -7 -9 -13 -14 -13 -6 0 -7 5 -4 10 3 6 4 10 1 10 -3 0 -7 -4 -10 -8z"/>
<path d="M2530 1026 c0 -2 7 -7 16 -10 8 -3 12 -2 9 4 -6 10 -25 14 -25 6z"/>
<path d="M1507 1004 c3 -8 11 -14 19 -14 21 0 17 17 -5 23 -14 3 -18 1 -14 -9z"/>
<path d="M1595 1010 c-3 -5 -1 -10 4 -10 6 0 11 5 11 10 0 6 -2 10 -4 10 -3 0
-8 -4 -11 -10z"/>
<path d="M1760 1010 c0 -5 5 -10 11 -10 5 0 7 5 4 10 -3 6 -8 10 -11 10 -2 0
-4 -4 -4 -10z"/>
<path d="M2289 1011 c9 -6 10 -10 2 -14 -8 -4 -8 -5 1 -3 20 4 21 26 1 26 -14
0 -15 -2 -4 -9z"/>
<path d="M2985 1010 c3 -5 8 -10 11 -10 2 0 4 5 4 10 0 6 -5 10 -11 10 -5 0
-7 -4 -4 -10z"/>
<path d="M1406 995 c4 -8 8 -15 10 -15 2 0 4 7 4 15 0 8 -4 15 -10 15 -5 0 -7
-7 -4 -15z"/>
<path d="M1695 996 c-17 -12 -16 -13 12 -12 24 1 29 4 21 14 -13 15 -10 15
-33 -2z"/>
<path d="M2620 1006 c0 -2 7 -6 15 -10 8 -3 15 -1 15 4 0 6 -7 10 -15 10 -8 0
-15 -2 -15 -4z"/>
<path d="M2128 993 c7 -3 16 -2 19 1 4 3 -2 6 -13 5 -11 0 -14 -3 -6 -6z"/>
<path d="M1951 970 c-28 -24 -21 -26 20 -5 16 9 34 13 39 10 5 -3 11 -1 15 5
11 18 -49 10 -74 -10z"/>
<path d="M2180 979 c-12 -9 -12 -10 4 -5 10 4 25 1 32 -5 9 -7 14 -8 14 -1 0
5 -7 13 -16 16 -19 7 -16 8 -34 -5z"/>
<path d="M2660 986 c0 -2 7 -7 16 -10 8 -3 12 -2 9 4 -6 10 -25 14 -25 6z"/>
<path d="M1617 964 c3 -8 11 -14 19 -14 21 0 17 17 -5 23 -14 3 -18 1 -14 -9z"/>
<path d="M1900 970 c0 -5 5 -10 11 -10 5 0 7 5 4 10 -3 6 -8 10 -11 10 -2 0
-4 -4 -4 -10z"/>
<path d="M2486 965 c-19 -14 -19 -15 7 -15 17 0 27 5 27 15 0 19 -9 19 -34 0z"/>
<path d="M2625 970 c3 -5 8 -10 11 -10 2 0 4 5 4 10 0 6 -5 10 -11 10 -5 0 -7
-4 -4 -10z"/>
<path d="M1515 960 c-17 -7 -14 -9 13 -9 20 -1 31 3 27 9 -7 12 -13 12 -40 0z"/>
<path d="M1786 959 c3 -5 12 -9 21 -9 19 0 9 13 -12 16 -8 1 -13 -2 -9 -7z"/>
<path d="M2240 960 c0 -5 7 -7 15 -4 8 4 15 8 15 10 0 2 -7 4 -15 4 -8 0 -15
-4 -15 -10z"/>
<path d="M2745 960 c-3 -5 -1 -10 4 -10 6 0 11 5 11 10 0 6 -2 10 -4 10 -3 0
-8 -4 -11 -10z"/>
<path d="M1570 950 c0 -5 5 -10 11 -10 5 0 7 5 4 10 -3 6 -8 10 -11 10 -2 0
-4 -4 -4 -10z"/>
<path d="M2125 950 c-3 -4 7 -10 20 -13 14 -2 28 -1 30 3 3 4 -7 10 -20 13
-14 2 -28 1 -30 -3z"/>
<path d="M2202 946 c10 -7 15 -16 11 -19 -3 -4 -1 -7 5 -7 7 0 12 4 12 8 0 12
-22 32 -34 32 -6 0 -3 -7 6 -14z"/>
<path d="M2665 950 c3 -5 11 -10 16 -10 6 0 7 5 4 10 -3 6 -11 10 -16 10 -6 0
-7 -4 -4 -10z"/>
<path d="M1448 933 c6 -2 18 -2 25 0 6 3 1 5 -13 5 -14 0 -19 -2 -12 -5z"/>
<path d="M1618 933 c7 -3 16 -2 19 1 4 3 -2 6 -13 5 -11 0 -14 -3 -6 -6z"/>
<path d="M1900 936 c0 -2 7 -9 15 -16 13 -11 14 -10 9 4 -5 14 -24 23 -24 12z"/>
<path d="M1960 930 c-9 -6 -10 -10 -3 -10 6 0 15 5 18 10 8 12 4 12 -15 0z"/>
<path d="M2476 931 c-14 -5 -16 -10 -8 -15 7 -4 22 0 34 8 24 17 9 21 -26 7z"/>
<path d="M2667 923 c-10 -10 -8 -33 3 -33 5 0 6 8 3 17 -5 12 -2 15 10 10 9
-3 17 -2 17 3 0 11 -23 13 -33 3z"/>
<path d="M1488 913 c7 -3 16 -2 19 1 4 3 -2 6 -13 5 -11 0 -14 -3 -6 -6z"/>
<path d="M1980 910 c0 -5 5 -10 11 -10 5 0 7 5 4 10 -3 6 -8 10 -11 10 -2 0
-4 -4 -4 -10z"/>
<path d="M1607 903 c13 -2 30 -14 38 -26 8 -11 18 -18 22 -14 11 12 -34 47
-59 46 l-23 -2 22 -4z"/>
<path d="M1795 900 c3 -5 11 -10 16 -10 6 0 7 5 4 10 -3 6 -11 10 -16 10 -6 0
-7 -4 -4 -10z"/>
<path d="M2213 903 c-9 -3 -10 -10 -3 -22 5 -10 6 -21 3 -25 -3 -3 -2 -6 4 -6
6 0 10 13 9 30 -1 16 -1 30 -1 29 0 0 -6 -3 -12 -6z"/>
<path d="M2517 903 c-11 -10 -8 -35 3 -28 6 4 8 10 5 15 -3 5 3 11 12 13 14 4
15 5 2 6 -9 0 -19 -2 -22 -6z"/>
<path d="M2989 893 c-2 -10 -1 -52 2 -93 l5 -75 2 93 c2 88 -1 113 -9 75z"/>
<path d="M1518 893 c6 -2 12 -11 12 -19 0 -8 8 -14 18 -13 10 0 12 3 5 6 -7 2
-13 11 -13 19 0 8 -8 14 -17 13 -11 0 -13 -3 -5 -6z"/>
<path d="M1688 893 c7 -3 16 -2 19 1 4 3 -2 6 -13 5 -11 0 -14 -3 -6 -6z"/>
<path d="M2145 889 c-11 -4 -15 -8 -10 -9 44 -7 68 -8 55 -3 -8 3 -17 9 -20
13 -3 4 -14 4 -25 -1z"/>
<path d="M2240 890 c-9 -6 -10 -10 -3 -10 6 0 15 5 18 10 8 12 4 12 -15 0z"/>
<path d="M1926 883 c-4 -4 -24 -8 -46 -8 -45 -1 -45 -1 -54 -35 -6 -23 -6 -23
5 -5 18 30 27 33 90 31 46 -1 62 -6 77 -24 11 -12 24 -22 30 -22 6 0 -1 13
-16 28 -29 29 -73 47 -86 35z"/>
<path d="M2098 873 c7 -3 16 -2 19 1 4 3 -2 6 -13 5 -11 0 -14 -3 -6 -6z"/>
<path d="M2715 870 c-3 -5 -1 -10 4 -10 6 0 11 5 11 10 0 6 -2 10 -4 10 -3 0
-8 -4 -11 -10z"/>
<path d="M2760 860 c0 -5 5 -10 10 -10 6 0 10 5 10 10 0 6 -4 10 -10 10 -5 0
-10 -4 -10 -10z"/>
<path d="M2516 847 c3 -10 9 -15 12 -12 3 3 0 11 -7 18 -10 9 -11 8 -5 -6z"/>
<path d="M1439 833 c-13 -16 -12 -17 4 -4 16 13 21 21 13 21 -2 0 -10 -8 -17
-17z"/>
<path d="M1598 843 c7 -3 16 -2 19 1 4 3 -2 6 -13 5 -11 0 -14 -3 -6 -6z"/>
<path d="M1878 843 c7 -3 16 -2 19 1 4 3 -2 6 -13 5 -11 0 -14 -3 -6 -6z"/>
<path d="M2150 840 c8 -5 20 -10 25 -10 6 0 3 5 -5 10 -8 5 -19 10 -25 10 -5
0 -3 -5 5 -10z"/>
<path d="M2790 838 c0 -7 11 -18 25 -24 23 -11 24 -11 8 12 -17 26 -33 32 -33
12z"/>
<path d="M1675 830 c4 -6 11 -8 16 -5 14 9 11 15 -7 15 -8 0 -12 -5 -9 -10z"/>
<path d="M1720 830 c0 -5 5 -10 10 -10 6 0 10 5 10 10 0 6 -4 10 -10 10 -5 0
-10 -4 -10 -10z"/>
<path d="M1765 833 c11 -3 26 -10 33 -15 9 -8 11 -7 6 6 -4 10 -16 16 -33 15
-20 -1 -22 -2 -6 -6z"/>
<path d="M2225 831 c-3 -5 -1 -12 5 -16 5 -3 10 1 10 9 0 18 -6 21 -15 7z"/>
<path d="M2460 829 c0 -5 5 -7 10 -4 6 3 10 8 10 11 0 2 -4 4 -10 4 -5 0 -10
-5 -10 -11z"/>
<path d="M2495 830 c-3 -5 -1 -10 4 -10 6 0 11 5 11 10 0 6 -2 10 -4 10 -3 0
-8 -4 -11 -10z"/>
<path d="M2736 833 c5 -5 12 -12 16 -18 4 -6 8 -2 8 8 0 9 -7 17 -17 17 -9 0
-12 -3 -7 -7z"/>
<path d="M1894 821 c-5 -5 -17 -11 -26 -13 -11 -2 -15 -8 -10 -15 5 -8 14 -7
32 7 14 10 22 21 19 24 -3 3 -10 2 -15 -3z"/>
<path d="M1930 820 c8 -5 20 -10 25 -10 6 0 3 5 -5 10 -8 5 -19 10 -25 10 -5
0 -3 -5 5 -10z"/>
<path d="M1455 810 c-3 -5 -1 -10 4 -10 6 0 11 5 11 10 0 6 -2 10 -4 10 -3 0
-8 -4 -11 -10z"/>
<path d="M1495 800 c4 -6 11 -8 16 -5 14 9 11 15 -7 15 -8 0 -12 -5 -9 -10z"/>
<path d="M1535 799 c-4 -6 -5 -12 -2 -15 2 -3 7 2 10 11 7 17 1 20 -8 4z"/>
<path d="M1565 800 c-3 -5 1 -10 9 -10 9 0 16 5 16 10 0 6 -4 10 -9 10 -6 0
-13 -4 -16 -10z"/>
<path d="M1620 800 c0 -5 5 -10 10 -10 6 0 10 5 10 10 0 6 -4 10 -10 10 -5 0
-10 -4 -10 -10z"/>
<path d="M1825 800 c3 -5 8 -10 11 -10 2 0 4 5 4 10 0 6 -5 10 -11 10 -5 0 -7
-4 -4 -10z"/>
<path d="M2880 803 c0 -4 16 -31 36 -60 33 -48 36 -57 30 -98 -4 -25 -12 -45
-18 -45 -6 0 6 -13 27 -30 21 -16 39 -30 41 -30 7 0 0 61 -7 66 -5 3 -6 -2 -3
-10 3 -9 1 -16 -4 -16 -20 0 -23 19 -11 59 6 22 8 48 4 58 -5 10 -7 26 -6 36
1 9 -4 17 -11 17 -7 0 -28 14 -45 31 -18 16 -33 26 -33 22z"/>
<path d="M2210 784 c0 -8 6 -11 15 -8 8 4 15 9 15 13 0 4 -7 8 -15 8 -8 0 -15
-6 -15 -13z"/>
<path d="M2446 784 c-4 -9 -4 -19 -1 -22 3 -3 5 0 5 7 0 7 4 9 10 6 6 -3 7 1
4 9 -8 20 -10 20 -18 0z"/>
<path d="M2518 778 c-21 -21 -10 -24 17 -5 10 8 14 16 9 19 -5 3 -17 -3 -26
-14z"/>
<path d="M2010 786 c0 -2 6 -9 13 -15 10 -8 14 -7 14 4 0 8 -6 15 -14 15 -7 0
-13 -2 -13 -4z"/>
<path d="M2160 786 c0 -2 7 -6 15 -10 8 -3 15 -1 15 4 0 6 -7 10 -15 10 -8 0
-15 -2 -15 -4z"/>
<path d="M1505 771 c-3 -5 -1 -12 5 -16 5 -3 10 1 10 9 0 18 -6 21 -15 7z"/>
<path d="M1610 765 c7 -8 20 -14 29 -14 13 1 13 2 -1 6 -10 2 -18 9 -18 14 0
5 -5 9 -11 9 -8 0 -8 -5 1 -15z"/>
<path d="M1990 771 c0 -6 4 -13 10 -16 6 -3 7 1 4 9 -7 18 -14 21 -14 7z"/>
<path d="M2556 772 c-3 -5 1 -9 9 -9 8 0 15 4 15 9 0 4 -4 8 -9 8 -6 0 -12 -4
-15 -8z"/>
<path d="M1480 755 c0 -8 4 -15 10 -15 5 0 7 7 4 15 -4 8 -8 15 -10 15 -2 0
-4 -7 -4 -15z"/>
<path d="M1725 760 c-3 -5 -2 -10 4 -10 5 0 13 5 16 10 3 6 2 10 -4 10 -5 0
-13 -4 -16 -10z"/>
<path d="M1885 760 c3 -5 8 -10 11 -10 2 0 4 5 4 10 0 6 -5 10 -11 10 -5 0 -7
-4 -4 -10z"/>
<path d="M1680 749 c0 -5 5 -7 10 -4 6 3 10 8 10 11 0 2 -4 4 -10 4 -5 0 -10
-5 -10 -11z"/>
<path d="M1788 753 c7 -3 16 -2 19 1 4 3 -2 6 -13 5 -11 0 -14 -3 -6 -6z"/>
<path d="M2185 750 c3 -5 10 -10 16 -10 5 0 9 5 9 10 0 6 -7 10 -16 10 -8 0
-12 -4 -9 -10z"/>
<path d="M2610 750 c0 -5 5 -10 10 -10 6 0 10 5 10 10 0 6 -4 10 -10 10 -5 0
-10 -4 -10 -10z"/>
<path d="M2740 745 c-7 -8 -8 -15 -2 -15 5 0 15 7 22 15 7 8 8 15 2 15 -5 0
-15 -7 -22 -15z"/>
<path d="M2795 750 c3 -5 8 -10 11 -10 2 0 4 5 4 10 0 6 -5 10 -11 10 -5 0 -7
-4 -4 -10z"/>
<path d="M2870 751 c0 -6 4 -13 10 -16 6 -3 7 1 4 9 -7 18 -14 21 -14 7z"/>
<path d="M1930 740 c0 -5 5 -10 11 -10 5 0 7 5 4 10 -3 6 -8 10 -11 10 -2 0
-4 -4 -4 -10z"/>
<path d="M2150 740 c0 -5 5 -10 11 -10 5 0 7 5 4 10 -3 6 -8 10 -11 10 -2 0
-4 -4 -4 -10z"/>
<path d="M2510 741 c0 -5 5 -13 10 -16 6 -3 10 -2 10 4 0 5 -4 13 -10 16 -5 3
-10 2 -10 -4z"/>
<path d="M2695 740 c-3 -5 -1 -10 4 -10 6 0 11 5 11 10 0 6 -2 10 -4 10 -3 0
-8 -4 -11 -10z"/>
<path d="M2632 725 c-11 -12 -10 -15 3 -15 8 0 15 7 15 15 0 18 -2 18 -18 0z"/>
<path d="M1470 722 c0 -5 8 -12 18 -16 9 -3 23 -9 30 -12 6 -3 12 -1 12 4 0 5
-8 12 -17 16 -10 3 -24 9 -30 12 -7 3 -13 1 -13 -4z"/>
<path d="M1638 723 c7 -3 16 -2 19 1 4 3 -2 6 -13 5 -11 0 -14 -3 -6 -6z"/>
<path d="M2183 723 c-13 -2 -23 -8 -23 -13 0 -11 53 -5 77 9 16 9 15 10 -7 9
-14 0 -35 -3 -47 -5z"/>
<path d="M2426 713 c-6 -14 -5 -15 5 -6 7 7 10 15 7 18 -3 3 -9 -2 -12 -12z"/>
<path d="M1856 712 c-3 -6 1 -13 10 -16 23 -9 28 -2 10 13 -8 7 -17 8 -20 3z"/>
<path d="M2050 710 c0 -5 5 -10 11 -10 5 0 7 5 4 10 -3 6 -8 10 -11 10 -2 0
-4 -4 -4 -10z"/>
<path d="M2110 710 c0 -13 11 -13 30 0 12 8 11 10 -7 10 -13 0 -23 -4 -23 -10z"/>
<path d="M1765 700 c-3 -5 -2 -10 4 -10 5 0 13 5 16 10 3 6 2 10 -4 10 -5 0
-13 -4 -16 -10z"/>
<path d="M1965 700 c3 -5 8 -10 11 -10 2 0 4 5 4 10 0 6 -5 10 -11 10 -5 0 -7
-4 -4 -10z"/>
<path d="M2991 694 c0 -11 3 -14 6 -6 3 7 2 16 -1 19 -3 4 -6 -2 -5 -13z"/>
<path d="M1730 690 c-9 -6 -10 -10 -3 -10 6 0 15 5 18 10 8 12 4 12 -15 0z"/>
<path d="M1687 679 c7 -7 15 -10 18 -7 3 3 -2 9 -12 12 -14 6 -15 5 -6 -5z"/>
<path d="M2080 683 c0 -12 28 -38 34 -32 2 2 -5 13 -15 23 -11 11 -19 15 -19
9z"/>
<path d="M2226 674 c-5 -14 -4 -15 9 -4 17 14 19 20 6 20 -5 0 -12 -7 -15 -16z"/>
<path d="M2725 680 c-3 -6 1 -7 9 -4 18 7 21 14 7 14 -6 0 -13 -4 -16 -10z"/>
<path d="M1450 665 c0 -8 5 -15 10 -15 6 0 10 7 10 15 0 8 -4 15 -10 15 -5 0
-10 -7 -10 -15z"/>
<path d="M1970 670 c0 -5 5 -10 11 -10 5 0 7 5 4 10 -3 6 -8 10 -11 10 -2 0
-4 -4 -4 -10z"/>
<path d="M2186 666 c21 -15 30 -14 19 3 -3 6 -14 11 -23 11 -13 0 -13 -2 4
-14z"/>
<path d="M2855 667 c-10 -8 -15 -19 -11 -25 10 -16 36 -15 36 1 0 7 8 3 17 -8
12 -15 14 -16 10 -3 -3 9 -1 18 5 20 7 3 8 10 4 17 -7 11 -10 11 -17 0 -7 -11
-11 -11 -17 -2 -7 10 -12 10 -27 0z m15 -17 c0 -5 -2 -10 -4 -10 -3 0 -8 5
-11 10 -3 6 -1 10 4 10 6 0 11 -4 11 -10z"/>
<path d="M1915 654 c9 -9 19 -13 23 -10 3 4 0 11 -8 16 -24 15 -33 11 -15 -6z"/>
<path d="M1610 655 c0 -5 5 -17 10 -25 5 -8 10 -10 10 -5 0 6 -5 17 -10 25 -5
8 -10 11 -10 5z"/>
<path d="M1705 650 c-8 -13 5 -13 25 0 13 8 13 10 -2 10 -9 0 -20 -4 -23 -10z"/>
<path d="M1760 650 c0 -6 12 -10 27 -10 29 0 24 12 -7 17 -11 2 -20 -2 -20 -7z"/>
<path d="M2450 651 c0 -6 4 -13 10 -16 6 -3 7 1 4 9 -7 18 -14 21 -14 7z"/>
<path d="M2740 650 c0 -13 33 -21 42 -12 6 6 -1 11 -16 14 -14 3 -26 2 -26 -2z"/>
<path d="M1870 646 c0 -2 7 -9 15 -16 13 -11 14 -10 9 4 -5 14 -24 23 -24 12z"/>
<path d="M2668 633 c-16 -8 -28 -18 -28 -24 0 -14 16 -11 30 6 7 8 19 15 26
15 8 0 14 5 14 10 0 13 -8 11 -42 -7z"/>
<path d="M1523 625 c0 -8 4 -12 9 -9 5 3 6 10 3 15 -9 13 -12 11 -12 -6z"/>
<path d="M1978 633 c12 -2 30 -2 40 0 9 3 -1 5 -23 4 -22 0 -30 -2 -17 -4z"/>
<path d="M2400 630 c0 -6 7 -10 15 -10 8 0 15 2 15 4 0 2 -7 6 -15 10 -8 3
-15 1 -15 -4z"/>
<path d="M2797 622 c-23 -26 -22 -52 3 -52 11 0 20 5 20 10 0 6 -7 10 -15 10
-21 0 -19 9 8 31 12 10 17 18 11 19 -6 0 -18 -8 -27 -18z"/>
<path d="M2721 616 c-9 -11 -7 -13 13 -13 17 0 23 4 19 13 -3 8 -9 14 -13 14
-4 0 -13 -6 -19 -14z"/>
<path d="M1573 613 c-7 -2 -13 -11 -13 -19 0 -8 -8 -14 -17 -15 -10 0 -13 -3
-7 -5 6 -3 22 0 35 5 13 5 18 10 10 10 -11 1 -11 4 -1 16 13 16 13 16 -7 8z"/>
<path d="M1785 610 c-3 -5 1 -10 9 -10 9 0 16 5 16 10 0 6 -4 10 -9 10 -6 0
-13 -4 -16 -10z"/>
<path d="M2020 610 c0 -5 5 -10 10 -10 6 0 10 5 10 10 0 6 -4 10 -10 10 -5 0
-10 -4 -10 -10z"/>
<path d="M2215 611 c-3 -6 -15 -11 -27 -11 -17 0 -18 -2 -8 -15 7 -8 20 -15
29 -15 13 0 13 2 2 9 -11 7 -10 11 5 19 10 6 16 13 12 17 -3 3 -9 2 -13 -4z"/>
<path d="M2858 613 c7 -3 16 -2 19 1 4 3 -2 6 -13 5 -11 0 -14 -3 -6 -6z"/>
<path d="M2251 594 c0 -11 3 -14 6 -6 3 7 2 16 -1 19 -3 4 -6 -2 -5 -13z"/>
<path d="M1898 593 c6 -2 18 -2 25 0 6 3 1 5 -13 5 -14 0 -19 -2 -12 -5z"/>
<path d="M1495 580 c3 -5 8 -10 11 -10 2 0 4 5 4 10 0 6 -5 10 -11 10 -5 0 -7
-4 -4 -10z"/>
<path d="M1950 580 c0 -6 7 -10 15 -10 8 0 15 2 15 4 0 2 -7 6 -15 10 -8 3
-15 1 -15 -4z"/>
<path d="M2435 580 c-3 -5 1 -10 9 -10 9 0 16 5 16 10 0 6 -4 10 -9 10 -6 0
-13 -4 -16 -10z"/>
<path d="M1720 572 c-17 -6 -40 -27 -40 -37 0 -4 12 3 27 15 18 14 29 17 33 9
5 -7 10 -8 14 -1 7 12 -14 21 -34 14z"/>
<path d="M2078 563 c7 -3 16 -2 19 1 4 3 -2 6 -13 5 -11 0 -14 -3 -6 -6z"/>
<path d="M2118 563 c7 -3 16 -2 19 1 4 3 -2 6 -13 5 -11 0 -14 -3 -6 -6z"/>
<path d="M2545 560 c-3 -5 -1 -10 4 -10 6 0 11 5 11 10 0 6 -2 10 -4 10 -3 0
-8 -4 -11 -10z"/>
<path d="M2588 563 c7 -3 16 -2 19 1 4 3 -2 6 -13 5 -11 0 -14 -3 -6 -6z"/>
<path d="M1798 545 c18 -13 27 -14 35 -6 8 8 7 11 -5 11 -9 0 -25 3 -35 6 -13
5 -11 1 5 -11z"/>
<path d="M2035 550 c-3 -5 -1 -10 4 -10 6 0 11 5 11 10 0 6 -2 10 -4 10 -3 0
-8 -4 -11 -10z"/>
<path d="M2727 553 c-4 -3 -7 -11 -7 -17 0 -6 5 -5 12 2 6 6 9 14 7 17 -3 3
-9 2 -12 -2z"/>
<path d="M2650 545 c0 -10 29 -24 34 -17 3 6 -3 12 -14 15 -11 3 -20 4 -20 2z"/>
<path d="M2859 531 c-19 -16 -22 -22 -11 -32 10 -11 12 -10 12 4 0 9 4 17 9
17 5 0 11 7 15 15 7 20 3 19 -25 -4z"/>
<path d="M1460 536 c0 -2 7 -6 15 -10 8 -3 15 -1 15 4 0 6 -7 10 -15 10 -8 0
-15 -2 -15 -4z"/>
<path d="M1508 533 c7 -3 16 -2 19 1 4 3 -2 6 -13 5 -11 0 -14 -3 -6 -6z"/>
<path d="M1745 519 c7 -10 55 -18 55 -9 0 4 -13 10 -29 12 -17 2 -28 1 -26 -3z"/>
<path d="M1856 515 c4 -8 12 -15 20 -15 20 0 17 7 -6 20 -16 9 -18 8 -14 -5z"/>
<path d="M1958 523 c7 -3 16 -2 19 1 4 3 -2 6 -13 5 -11 0 -14 -3 -6 -6z"/>
<path d="M2538 523 c7 -3 16 -2 19 1 4 3 -2 6 -13 5 -11 0 -14 -3 -6 -6z"/>
<path d="M2625 520 c-3 -5 -1 -10 4 -10 6 0 11 5 11 10 0 6 -2 10 -4 10 -3 0
-8 -4 -11 -10z"/>
<path d="M2907 523 c-4 -3 -7 -11 -7 -17 0 -6 5 -5 12 2 6 6 9 14 7 17 -3 3
-9 2 -12 -2z"/>
<path d="M2175 510 c3 -5 8 -10 11 -10 2 0 4 5 4 10 0 6 -5 10 -11 10 -5 0 -7
-4 -4 -10z"/>
<path d="M2495 510 c-3 -5 -1 -10 4 -10 6 0 11 5 11 10 0 6 -2 10 -4 10 -3 0
-8 -4 -11 -10z"/>
<path d="M1445 500 c-3 -6 1 -7 9 -4 18 7 21 14 7 14 -6 0 -13 -4 -16 -10z"/>
<path d="M1700 505 c0 -2 9 -9 20 -15 16 -9 20 -8 20 5 0 8 -9 15 -20 15 -11
0 -20 -2 -20 -5z"/>
<path d="M1976 501 c-4 -5 3 -7 14 -4 23 6 26 13 6 13 -8 0 -17 -4 -20 -9z"/>
<path d="M2030 501 c0 -6 4 -13 10 -16 6 -3 7 1 4 9 -7 18 -14 21 -14 7z"/>
<path d="M2985 500 c3 -6 -2 -13 -12 -16 -35 -11 -85 -35 -81 -39 2 -2 27 3
56 11 39 12 52 20 52 35 0 10 -5 19 -11 19 -5 0 -7 -5 -4 -10z"/>
<path d="M1598 493 c7 -3 16 -2 19 1 4 3 -2 6 -13 5 -11 0 -14 -3 -6 -6z"/>
<path d="M2147 486 c-4 -10 0 -14 13 -13 14 1 16 4 8 14 -13 16 -15 16 -21 -1z"/>
<path d="M1463 476 c-13 -7 -20 -15 -17 -18 6 -7 54 14 54 25 0 10 -10 8 -37
-7z"/>
<path d="M1519 473 c-13 -17 -13 -17 6 -3 11 8 22 16 24 17 2 2 0 3 -6 3 -6 0
-17 -8 -24 -17z"/>
<path d="M1815 480 c-3 -6 1 -7 9 -4 18 7 21 14 7 14 -6 0 -13 -4 -16 -10z"/>
<path d="M2774 479 c-3 -5 -10 -6 -16 -3 -6 4 -13 2 -17 -3 -7 -11 -155 -78
-211 -96 -19 -6 -38 -16 -42 -21 -4 -6 -10 -7 -13 -4 -4 4 -18 3 -30 -2 -16
-6 -25 -5 -27 2 -3 8 -11 7 -27 -4 -22 -15 -20 -16 28 -12 58 4 123 24 275 85
89 35 109 40 117 28 7 -11 9 -9 9 7 0 23 -35 40 -46 23z"/>
<path d="M1594 461 c20 -22 26 -25 26 -13 0 4 -10 13 -22 21 -23 14 -23 14 -4
-8z"/>
<path d="M1745 469 c-4 -6 -5 -12 -2 -15 2 -3 7 2 10 11 7 17 1 20 -8 4z"/>
<path d="M1880 469 c0 -5 5 -7 10 -4 6 3 10 8 10 11 0 2 -4 4 -10 4 -5 0 -10
-5 -10 -11z"/>
<path d="M2010 470 c0 -5 5 -10 11 -10 5 0 7 5 4 10 -3 6 -8 10 -11 10 -2 0
-4 -4 -4 -10z"/>
<path d="M2688 473 c6 -2 18 -2 25 0 6 3 1 5 -13 5 -14 0 -19 -2 -12 -5z"/>
<path d="M2090 454 c0 -8 5 -12 10 -9 6 4 8 11 5 16 -9 14 -15 11 -15 -7z"/>
<path d="M2640 460 c0 -5 5 -10 10 -10 6 0 10 5 10 10 0 6 -4 10 -10 10 -5 0
-10 -4 -10 -10z"/>
<path d="M1826 447 c3 -10 9 -15 12 -12 3 3 0 11 -7 18 -10 9 -11 8 -5 -6z"/>
<path d="M2600 450 c0 -5 5 -10 11 -10 5 0 7 5 4 10 -3 6 -8 10 -11 10 -2 0
-4 -4 -4 -10z"/>
<path d="M1660 440 c0 -5 5 -10 11 -10 5 0 7 5 4 10 -3 6 -8 10 -11 10 -2 0
-4 -4 -4 -10z"/>
<path d="M1913 433 c0 -7 4 -13 8 -13 4 0 9 6 12 13 3 8 0 14 -7 14 -7 0 -13
-6 -13 -14z"/>
<path d="M2146 435 c-3 -8 -1 -15 3 -15 5 0 11 7 15 15 3 8 1 15 -3 15 -5 0
-11 -7 -15 -15z"/>
<path d="M2847 443 c-25 -24 22 -35 76 -18 l42 14 -43 -5 c-25 -3 -48 -1 -56
5 -7 6 -16 8 -19 4z"/>
<path d="M1860 430 c-12 -8 -11 -10 8 -10 12 0 22 5 22 10 0 13 -11 13 -30 0z"/>
<path d="M2015 430 c-3 -5 -1 -10 4 -10 6 0 11 5 11 10 0 6 -2 10 -4 10 -3 0
-8 -4 -11 -10z"/>
<path d="M2978 433 c7 -3 16 -2 19 1 4 3 -2 6 -13 5 -11 0 -14 -3 -6 -6z"/>
<path d="M1690 420 c-8 -5 -10 -10 -5 -10 6 0 17 5 25 10 8 5 11 10 5 10 -5 0
-17 -5 -25 -10z"/>
<path d="M1750 420 c0 -5 5 -10 10 -10 6 0 10 5 10 10 0 6 -4 10 -10 10 -5 0
-10 -4 -10 -10z"/>
<path d="M2075 420 c-3 -5 -2 -10 4 -10 5 0 13 5 16 10 3 6 2 10 -4 10 -5 0
-13 -4 -16 -10z"/>
<path d="M2758 401 c-26 -10 -51 -20 -55 -24 -3 -4 -13 -7 -22 -7 -9 -1 -34
-9 -56 -20 -22 -11 -48 -19 -57 -20 -23 0 -24 -30 -2 -30 9 0 33 10 52 22 20
12 32 16 28 9 -6 -10 -3 -12 10 -8 45 14 145 37 219 52 110 22 119 25 107 37
-6 6 -16 6 -29 0 -11 -6 -44 -14 -74 -18 -30 -4 -87 -18 -128 -31 -41 -12 -79
-23 -85 -23 -15 1 125 60 141 60 7 0 13 5 13 10 0 13 -5 12 -62 -9z"/>
<path d="M1520 400 c0 -5 5 -10 11 -10 5 0 7 5 4 10 -3 6 -8 10 -11 10 -2 0
-4 -4 -4 -10z"/>
<path d="M2017 403 c-4 -3 -7 -11 -7 -17 0 -6 5 -5 12 2 6 6 9 14 7 17 -3 3
-9 2 -12 -2z"/>
<path d="M1591 381 c13 -11 26 -17 28 -15 5 5 -30 33 -43 34 -4 0 2 -9 15 -19z"/>
<path d="M1705 393 c11 -3 27 -10 35 -17 13 -10 13 -9 1 7 -7 9 -23 16 -35 16
-20 -1 -20 -2 -1 -6z"/>
<path d="M1860 390 c-12 -7 -12 -12 -2 -22 9 -9 12 -9 12 4 0 9 6 19 13 21 6
3 8 6 2 6 -5 0 -17 -4 -25 -9z"/>
<path d="M1928 393 c7 -3 16 -2 19 1 4 3 -2 6 -13 5 -11 0 -14 -3 -6 -6z"/>
<path d="M2097 389 c7 -7 15 -10 18 -7 3 3 -2 9 -12 12 -14 6 -15 5 -6 -5z"/>
<path d="M1460 379 c0 -5 5 -7 10 -4 6 3 10 8 10 11 0 2 -4 4 -10 4 -5 0 -10
-5 -10 -11z"/>
<path d="M1940 370 c0 -5 5 -10 11 -10 5 0 7 5 4 10 -3 6 -8 10 -11 10 -2 0
-4 -4 -4 -10z"/>
<path d="M1675 350 c3 -5 8 -10 11 -10 2 0 4 5 4 10 0 6 -5 10 -11 10 -5 0 -7
-4 -4 -10z"/>
<path d="M1700 349 c0 -5 5 -7 10 -4 6 3 10 8 10 11 0 2 -4 4 -10 4 -5 0 -10
-5 -10 -11z"/>
<path d="M2120 353 c5 -2 8 -9 4 -14 -3 -5 0 -9 6 -9 15 0 7 23 -8 26 -7 1 -8
0 -2 -3z"/>
<path d="M2950 352 c20 -9 24 -32 6 -32 -8 0 -21 7 -30 15 -15 15 -51 21 -43
7 3 -4 -7 -7 -21 -7 -15 0 -29 -4 -32 -10 -3 -6 29 -11 85 -12 50 -2 85 1 79
5 -6 4 -13 15 -17 25 -3 9 -14 17 -24 16 -15 0 -15 -2 -3 -7z"/>
<path d="M1515 340 c3 -5 11 -10 16 -10 6 0 7 5 4 10 -3 6 -11 10 -16 10 -6 0
-7 -4 -4 -10z"/>
<path d="M1640 339 c0 -5 5 -7 10 -4 6 3 10 8 10 11 0 2 -4 4 -10 4 -5 0 -10
-5 -10 -11z"/>
<path d="M2015 339 c-16 -6 -14 -8 13 -8 33 -1 41 4 20 12 -7 2 -22 1 -33 -4z"/>
<path d="M1770 330 c0 -5 5 -10 10 -10 6 0 10 5 10 10 0 6 -4 10 -10 10 -5 0
-10 -4 -10 -10z"/>
<path d="M1850 329 c0 -5 5 -7 10 -4 6 3 10 8 10 11 0 2 -4 4 -10 4 -5 0 -10
-5 -10 -11z"/>
<path d="M1644 306 c-3 -8 -1 -23 6 -33 10 -16 10 -16 5 4 -5 18 -1 24 19 29
14 3 30 3 37 -2 8 -4 9 -3 5 4 -10 17 -66 15 -72 -2z"/>
<path d="M1987 309 c7 -7 15 -10 18 -7 3 3 -2 9 -12 12 -14 6 -15 5 -6 -5z"/>
<path d="M2078 313 c7 -3 16 -2 19 1 4 3 -2 6 -13 5 -11 0 -14 -3 -6 -6z"/>
<path d="M2145 310 c-3 -5 -2 -10 4 -10 5 0 13 5 16 10 3 6 2 10 -4 10 -5 0
-13 -4 -16 -10z"/>
<path d="M2780 312 c0 -6 -8 -13 -17 -15 -10 -3 -2 -5 17 -6 19 0 31 3 25 7
-5 4 -13 11 -17 16 -5 5 -8 5 -8 -2z"/>
<path d="M1888 293 c7 -3 16 -2 19 1 4 3 -2 6 -13 5 -11 0 -14 -3 -6 -6z"/>
<path d="M2080 290 c0 -5 5 -10 11 -10 5 0 7 5 4 10 -3 6 -8 10 -11 10 -2 0
-4 -4 -4 -10z"/>
<path d="M2837 288 c-6 -4 20 -8 60 -8 39 0 78 -3 87 -6 10 -4 16 -1 16 9 0
13 -13 16 -75 15 -41 -1 -81 -5 -88 -10z"/>
<path d="M1527 279 c7 -7 15 -10 18 -7 3 3 -2 9 -12 12 -14 6 -15 5 -6 -5z"/>
<path d="M1685 280 c3 -5 8 -10 11 -10 2 0 4 5 4 10 0 6 -5 10 -11 10 -5 0 -7
-4 -4 -10z"/>
<path d="M1716 274 c-5 -14 -4 -15 9 -4 17 14 19 20 6 20 -5 0 -12 -7 -15 -16z"/>
<path d="M2155 280 c-3 -5 -2 -10 4 -10 5 0 13 5 16 10 3 6 2 10 -4 10 -5 0
-13 -4 -16 -10z"/>
<path d="M1765 270 c-3 -5 -1 -10 4 -10 6 0 11 5 11 10 0 6 -2 10 -4 10 -3 0
-8 -4 -11 -10z"/>
<path d="M1860 270 c8 -5 20 -10 25 -10 6 0 3 5 -5 10 -8 5 -19 10 -25 10 -5
0 -3 -5 5 -10z"/>
<path d="M1928 273 c7 -3 16 -2 19 1 4 3 -2 6 -13 5 -11 0 -14 -3 -6 -6z"/>
<path d="M1605 260 c3 -5 10 -10 16 -10 5 0 9 5 9 10 0 6 -7 10 -16 10 -8 0
-12 -4 -9 -10z"/>
<path d="M1480 250 c-13 -8 -12 -10 3 -10 9 0 17 5 17 10 0 12 -1 12 -20 0z"/>
<path d="M1515 250 c-3 -5 0 -10 9 -10 8 0 16 -6 19 -12 2 -7 8 -10 12 -6 4 4
0 14 -8 23 -18 18 -24 19 -32 5z"/>
<path d="M1695 220 c-8 -13 5 -13 25 0 13 8 13 10 -2 10 -9 0 -20 -4 -23 -10z"/>
<path d="M1483 213 c9 -2 25 -2 35 0 9 3 1 5 -18 5 -19 0 -27 -2 -17 -5z"/>
<path d="M1422 129 c4 -12 19 -14 128 -22 30 -3 55 -9 55 -15 0 -6 -17 -29
-38 -52 -42 -44 -30 -56 14 -14 l27 26 166 -21 c92 -12 231 -23 309 -25 117
-3 126 -3 52 4 -49 4 -124 12 -165 18 -41 6 -129 19 -195 27 -66 9 -122 19
-125 22 -3 3 18 2 45 -1 28 -4 69 -8 91 -11 23 -2 61 -6 85 -9 24 -3 71 -8
104 -10 255 -21 324 -28 356 -37 30 -9 583 -7 652 3 21 3 24 48 3 48 -8 0 -48
-4 -88 -10 -40 -5 -95 -12 -123 -15 -27 -3 -79 -10 -115 -15 -96 -14 -230 -12
-302 4 -35 8 -119 19 -188 26 -197 17 -477 49 -575 64 -167 26 -177 27 -173
15z m1493 -99 c-27 -12 -43 -12 -25 0 8 5 22 9 30 9 10 0 8 -3 -5 -9z m58 3
c-7 -2 -19 -2 -25 0 -7 3 -2 5 12 5 14 0 19 -2 13 -5z m-148 -13 c4 -6 -9 -10
-32 -9 -38 1 -38 1 -8 9 17 4 31 8 32 9 1 0 5 -3 8 -9z m42 4 c-3 -3 -12 -4
-19 -1 -8 3 -5 6 6 6 11 1 17 -2 13 -5z"/>
<path d="M2978 103 c7 -3 16 -2 19 1 4 3 -2 6 -13 5 -11 0 -14 -3 -6 -6z"/>
<path d="M1439 98 c-6 -21 -5 -38 2 -38 5 0 9 9 9 20 0 16 -7 28 -11 18z"/>
<path d="M2918 93 c7 -3 16 -2 19 1 4 3 -2 6 -13 5 -11 0 -14 -3 -6 -6z"/>
<path d="M2853 83 c9 -2 25 -2 35 0 9 3 1 5 -18 5 -19 0 -27 -2 -17 -5z"/>
<path d="M2778 73 c7 -3 16 -2 19 1 4 3 -2 6 -13 5 -11 0 -14 -3 -6 -6z"/>
<path d="M2593 53 c9 -2 23 -2 30 0 6 3 -1 5 -18 5 -16 0 -22 -2 -12 -5z"/>
<path d="M2513 43 c9 -2 25 -2 35 0 9 3 1 5 -18 5 -19 0 -27 -2 -17 -5z"/>
<path d="M2445 29 c18 -5 33 -5 39 1 7 7 -4 10 -29 9 -40 -1 -40 -1 -10 -10z"/>
</g>
</svg>
