<?xml version="1.0" standalone="no"?>
<!DOCTYPE svg PUBLIC "-//W3C//DTD SVG 20010904//EN"
 "http://www.w3.org/TR/2001/REC-SVG-20010904/DTD/svg10.dtd">
<svg version="1.0" xmlns="http://www.w3.org/2000/svg"
 width="300.000000pt" height="300.000000pt" viewBox="0 0 300.000000 300.000000"
 preserveAspectRatio="xMidYMid meet">
<metadata>
Created by potrace 1.10, written by Peter Selinger 2001-2011
</metadata>
<g transform="translate(0.000000,300.000000) scale(0.100000,-0.100000)"
fill="#000000" stroke="none">
<path d="M9 2793 c-1 -115 -3 -292 -4 -396 -1 -170 1 -189 17 -207 10 -11 22
-20 27 -20 9 0 10 -4 15 -110 2 -47 6 -95 9 -107 3 -12 1 -38 -4 -57 -9 -32
-12 -35 -39 -29 -23 4 -30 2 -30 -11 0 -13 11 -16 55 -16 54 0 55 -1 55 -28 0
-41 -24 -70 -47 -57 -20 12 -63 8 -63 -4 0 -12 67 -21 102 -14 19 4 27 10 24
20 -4 10 -1 11 13 4 15 -8 24 -4 45 19 26 29 34 46 18 36 -5 -3 -15 6 -22 19
-10 18 -22 25 -54 27 l-41 3 -2 70 c-3 155 -2 220 5 227 4 3 44 2 90 -3 134
-15 122 -58 122 426 0 394 -1 415 -18 415 -17 0 -18 -6 -11 -62 11 -89 11
-750 0 -767 -6 -9 -15 -11 -27 -6 -11 4 -37 9 -59 11 -22 2 -56 6 -75 10 -19
4 -43 6 -54 5 -10 -2 -22 3 -27 10 -4 8 -6 190 -3 406 4 281 3 393 -5 393 -8
0 -11 -65 -12 -207z m159 -978 c3 -26 -13 -50 -27 -41 -6 4 -11 21 -11 37 0
24 4 30 18 27 9 -2 18 -12 20 -23z"/>
<path d="M321 2985 c-1 -11 -4 -31 -6 -45 l-6 -25 11 25 c6 13 9 33 7 45 -4
19 -4 19 -6 0z"/>
<path d="M434 2778 c3 -123 5 -273 5 -334 l1 -111 68 17 c37 10 130 32 207 50
77 18 161 39 187 46 44 12 47 11 61 -9 15 -22 91 -52 107 -42 26 16 67 149 50
160 -6 3 -11 -6 -12 -22 0 -15 -2 -32 -3 -38 -2 -5 -4 -17 -6 -25 -1 -8 -5 12
-9 45 l-7 60 -1 -77 c-1 -42 -6 -79 -10 -82 -4 -2 -29 0 -55 6 l-47 10 0 284
c0 181 -4 284 -10 284 -6 0 -9 -90 -8 -250 2 -180 -1 -253 -9 -261 -22 -22
-26 36 -20 277 6 202 4 234 -8 234 -12 0 -15 -23 -15 -130 -1 -71 -1 -180 -1
-241 0 -61 2 -113 5 -117 3 -3 6 -13 6 -23 0 -13 -12 -21 -42 -29 -24 -6 -52
-15 -63 -20 -20 -9 -70 -19 -116 -24 -14 -1 -30 -5 -35 -8 -21 -13 -163 -41
-178 -35 -14 6 -15 39 -13 317 2 295 1 310 -16 310 -18 0 -18 -11 -13 -222z"/>
<path d="M650 2714 c0 -177 4 -283 9 -279 14 8 15 565 1 565 -7 0 -10 -98 -10
-286z"/>
<path d="M1082 2798 c2 -203 6 -179 10 70 2 72 0 132 -4 132 -5 0 -7 -91 -6
-202z"/>
<path d="M1265 2955 c2 -25 0 -43 -5 -40 -5 3 -12 0 -16 -6 -5 -8 -3 -9 6 -4
10 6 11 1 7 -21 -9 -47 -39 -124 -46 -120 -4 3 -8 -4 -8 -15 -1 -10 0 -19 2
-19 2 0 19 26 39 58 29 48 36 71 41 135 5 64 4 77 -8 77 -11 0 -14 -11 -12
-45z"/>
<path d="M1613 2925 c0 -44 2 -61 4 -37 2 23 2 59 0 80 -2 20 -4 1 -4 -43z"/>
<path d="M1750 2803 c0 -111 5 -205 10 -213 6 -10 10 57 10 198 0 135 -4 212
-10 212 -6 0 -10 -72 -10 -197z"/>
<path d="M1840 2883 c0 -65 -3 -197 -7 -294 -3 -97 -2 -189 2 -205 l8 -29 7
27 c5 16 8 89 9 163 0 74 0 203 1 286 0 96 4 148 10 144 6 -3 7 1 4 9 -3 9
-12 16 -20 16 -11 0 -14 -24 -14 -117z"/>
<path d="M1926 2969 c-6 -34 -9 -835 -2 -828 15 15 33 859 18 859 -5 0 -12
-14 -16 -31z"/>
<path d="M2020 2793 c0 -115 -2 -356 -5 -538 -2 -181 -1 -320 1 -307 3 12 9
22 13 22 5 0 9 172 10 383 0 210 4 442 7 515 6 117 4 132 -10 132 -14 0 -16
-23 -16 -207z"/>
<path d="M2125 2988 c-2 -7 -6 -244 -9 -526 -3 -282 -7 -516 -10 -520 -7 -11
-47 -244 -43 -248 7 -7 25 69 37 151 7 44 16 87 20 95 4 8 11 227 15 485 4
259 8 494 10 523 2 47 -10 71 -20 40z"/>
<path d="M2217 2693 c-4 -170 -7 -403 -7 -520 0 -184 2 -212 15 -207 8 4 12
11 9 16 -10 16 1 946 12 996 3 14 0 22 -9 22 -11 0 -15 -58 -20 -307z"/>
<path d="M2340 2883 c0 -65 -3 -301 -7 -525 l-6 -408 21 0 c25 0 30 18 7 26
-11 5 -13 20 -9 67 4 62 13 588 13 810 0 75 4 117 11 117 5 0 10 7 10 15 0 8
-9 15 -20 15 -19 0 -20 -7 -20 -117z"/>
<path d="M2459 2968 c0 -18 -2 -49 -4 -68 -2 -19 -6 -241 -9 -492 l-7 -458 23
0 c16 0 19 3 10 9 -19 12 -13 471 6 471 7 0 10 5 7 10 -4 6 -9 8 -13 6 -4 -2
-6 24 -5 57 9 314 10 497 2 497 -5 0 -9 -15 -10 -32z"/>
<path d="M2576 2758 c-10 -385 -12 -818 -3 -815 5 1 9 102 10 224 1 121 4 220
7 218 3 -2 5 63 6 143 1 81 3 220 6 310 5 128 3 162 -7 162 -10 0 -14 -55 -19
-242z"/>
<path d="M2717 2888 c-4 -62 -10 -305 -13 -540 l-7 -428 23 0 c17 0 20 3 12
13 -15 18 -16 46 -8 397 8 415 16 632 22 653 3 10 0 17 -9 17 -11 0 -15 -25
-20 -112z"/>
<path d="M2857 2898 c-4 -57 -9 -272 -12 -478 -3 -206 -8 -405 -11 -442 l-5
-68 33 0 c30 1 32 2 14 15 -17 13 -18 30 -12 347 4 183 9 387 11 453 2 66 4
152 4 192 1 59 4 72 19 76 11 3 8 5 -9 6 l-26 1 -6 -102z"/>
<path d="M2992 2960 c0 -19 2 -27 5 -17 2 9 2 25 0 35 -3 9 -5 1 -5 -18z"/>
<path d="M1395 2901 c-22 -11 -48 -22 -59 -25 -11 -4 -16 -12 -12 -22 3 -8 -1
-28 -9 -44 -8 -16 -15 -33 -15 -37 1 -4 9 8 19 27 19 35 40 45 53 25 5 -6 8
-6 8 2 0 6 -5 15 -11 19 -7 4 3 16 27 30 40 25 84 32 84 14 0 -10 -2 -11 -36
-15 -27 -3 -44 -13 -44 -27 0 -6 9 -3 19 6 15 13 20 14 24 4 3 -10 9 -8 26 6
21 19 22 19 49 0 33 -25 90 -108 98 -143 3 -14 8 -33 11 -41 4 -8 5 -21 4 -27
-1 -7 3 -13 10 -13 6 0 8 -7 5 -16 -3 -8 -2 -13 3 -9 13 7 57 -93 65 -146 13
-82 18 -99 27 -93 5 3 9 0 9 -6 0 -27 16 2 17 32 2 27 0 29 -7 13 -8 -19 -9
-19 -9 3 -1 34 -39 139 -65 180 -12 20 -21 42 -19 49 2 7 -1 21 -7 32 -6 12
-7 21 -3 21 14 0 34 -40 27 -53 -4 -7 -3 -9 1 -4 9 8 64 -133 66 -167 0 -13 3
-16 6 -7 7 17 -15 113 -38 165 -9 22 -15 46 -12 55 4 12 3 13 -5 3 -7 -11 -16
-5 -41 24 -35 44 -39 56 -13 47 9 -3 0 10 -20 29 -21 20 -38 40 -38 45 0 8
-58 47 -71 48 -3 0 -13 8 -23 18 -22 22 -50 21 -101 -2z m-42 -45 c4 -10 1
-13 -8 -9 -8 3 -12 9 -9 14 7 12 11 11 17 -5z"/>
<path d="M2986 2458 c-3 -244 -8 -469 -12 -500 -5 -49 -3 -58 10 -58 14 0 16
49 16 500 0 275 -2 500 -4 500 -2 0 -7 -199 -10 -442z"/>
<path d="M310 2881 c0 -6 4 -13 10 -16 6 -3 7 1 4 9 -7 18 -14 21 -14 7z"/>
<path d="M208 2768 c-6 -162 3 -568 12 -568 6 0 10 123 10 325 0 192 -4 325
-9 325 -5 0 -11 -37 -13 -82z"/>
<path d="M1284 2817 c-12 -18 -25 -43 -29 -56 -4 -13 -20 -44 -36 -69 -31 -49
-63 -173 -53 -204 4 -13 2 -18 -4 -14 -9 5 -25 -46 -27 -84 0 -9 -7 -30 -14
-48 -11 -25 -11 -36 -2 -45 6 -6 11 -20 11 -31 0 -21 1 -21 18 0 9 12 32 29
50 38 17 9 32 20 32 25 0 4 24 34 53 67 54 59 107 146 107 174 0 20 -49 -40
-50 -61 0 -20 -82 -119 -95 -115 -5 2 -9 13 -7 25 3 17 -1 21 -15 19 -25 -4
-62 -67 -63 -105 0 -18 -4 -33 -10 -33 -15 0 -2 81 20 118 11 18 15 30 9 27
-7 -5 -8 5 -3 32 4 21 8 46 10 57 2 10 10 26 19 36 17 19 20 34 5 25 -12 -7
-12 11 -1 39 7 19 8 19 13 -2 7 -26 28 -30 28 -4 0 15 -2 15 -11 2 -7 -11 -8
-6 -3 20 5 27 43 117 82 193 2 4 0 7 -5 7 -4 0 -17 -15 -29 -33z m-55 -435 c7
-13 4 -24 -10 -42 -18 -24 -19 -25 -19 -3 0 12 5 24 10 26 6 3 5 4 -2 3 -7 -1
-15 -13 -16 -27 -5 -35 -22 -48 -22 -17 0 64 37 101 59 60z"/>
<path d="M1479 2833 c-11 -15 -11 -16 1 -5 17 14 34 16 25 2 -3 -5 3 -10 15
-10 19 0 20 2 6 15 -19 20 -31 19 -47 -2z"/>
<path d="M1401 2786 c-34 -62 -36 -66 -20 -66 5 0 8 4 4 9 -3 5 -1 12 5 16 5
3 10 1 10 -4 0 -16 21 -13 44 6 12 10 15 11 9 3 -7 -8 -13 -18 -13 -23 0 -13
19 2 31 25 9 16 8 19 -2 13 -9 -6 -10 -3 -5 11 6 14 0 12 -22 -9 -15 -15 -31
-24 -35 -20 -11 10 -8 23 5 21 10 -3 32 62 23 70 -1 2 -17 -22 -34 -52z"/>
<path d="M1330 2785 c-12 -19 -26 -33 -30 -30 -5 3 -12 0 -16 -6 -5 -8 -3 -9
6 -4 10 6 12 4 6 -10 -5 -14 -4 -16 7 -7 8 7 18 8 22 4 5 -4 5 -1 1 6 -4 7 2
26 14 43 12 16 20 32 17 35 -2 3 -15 -11 -27 -31z"/>
<path d="M1520 2800 c-12 -8 -11 -10 8 -10 12 0 22 5 22 10 0 13 -11 13 -30 0z"/>
<path d="M1514 2761 c-18 -11 -60 -48 -95 -84 -35 -36 -88 -77 -117 -92 -30
-14 -52 -28 -49 -31 2 -2 24 7 48 21 48 27 89 35 54 10 -11 -8 -26 -19 -32
-25 -7 -6 -39 -14 -70 -18 -37 -5 -51 -10 -38 -13 29 -8 111 14 145 39 27 20
29 20 44 3 9 -10 16 -28 16 -41 0 -36 9 -19 15 29 7 58 32 90 68 87 21 -3 27
1 27 15 0 22 0 22 -35 9 -25 -9 -24 -8 7 24 32 32 78 53 78 35 0 -5 -6 -9 -12
-9 -9 0 -8 -4 2 -10 13 -8 13 -10 -1 -10 -9 0 -16 -7 -16 -15 0 -10 6 -14 14
-10 8 3 17 5 19 5 11 0 2 53 -12 75 -20 30 -21 30 -60 6z m18 -30 c-86 -49
-93 -55 -89 -84 4 -29 -32 -74 -40 -50 -2 7 -11 9 -19 6 -32 -12 -10 19 61 85
56 52 80 69 95 65 19 -5 18 -7 -8 -22z"/>
<path d="M1404 2639 c-11 -18 14 -35 29 -20 10 12 9 13 -7 7 -14 -5 -17 -2
-12 9 6 17 0 20 -10 4z"/>
<path d="M322 2750 c0 -14 2 -19 5 -12 2 6 2 18 0 25 -3 6 -5 1 -5 -13z"/>
<path d="M1340 2723 c-13 -27 -26 -52 -28 -56 -2 -5 5 -3 16 4 12 7 19 16 16
21 -3 4 2 21 11 39 9 17 15 33 12 35 -2 2 -14 -17 -27 -43z"/>
<path d="M1670 2751 c0 -6 4 -13 10 -16 6 -3 7 1 4 9 -7 18 -14 21 -14 7z"/>
<path d="M1305 2709 c-4 -6 -5 -12 -2 -15 2 -3 7 2 10 11 7 17 1 20 -8 4z"/>
<path d="M1397 2698 c-3 -10 -9 -17 -14 -16 -5 2 -36 -21 -69 -51 -58 -53 -44
-54 26 -2 37 28 45 35 73 67 13 16 14 21 3 21 -8 0 -17 -9 -19 -19z"/>
<path d="M321 2694 c0 -11 3 -14 6 -6 3 7 2 16 -1 19 -3 4 -6 -2 -5 -13z"/>
<path d="M1273 2651 c-1 -24 -1 -25 13 -6 17 23 18 32 2 32 -7 0 -14 -12 -15
-26z"/>
<path d="M1585 2661 c3 -5 -7 -12 -22 -14 -23 -3 -21 -4 9 -6 29 -1 36 2 32
14 -4 8 -10 15 -16 15 -5 0 -7 -4 -3 -9z"/>
<path d="M1136 2651 c-4 -7 -5 -15 -2 -18 9 -9 19 4 14 18 -4 11 -6 11 -12 0z"/>
<path d="M1125 2581 c-3 -5 -1 -12 5 -16 5 -3 10 1 10 9 0 18 -6 21 -15 7z"/>
<path d="M322 2545 c0 -16 2 -22 5 -12 2 9 2 23 0 30 -3 6 -5 -1 -5 -18z"/>
<path d="M1465 2506 c-35 -41 -37 -46 -26 -60 15 -18 3 -44 -38 -78 -36 -31
-141 -235 -148 -289 -3 -21 -9 -39 -13 -39 -4 0 -19 -24 -35 -52 -15 -29 -34
-61 -42 -70 -12 -13 -13 -23 -5 -45 l10 -28 1 31 c1 16 8 39 16 50 14 18 14
18 15 -11 0 -16 5 -37 10 -45 7 -11 9 1 6 38 -3 29 -2 62 2 73 7 18 13 12 40
-44 42 -85 132 -182 161 -174 12 3 21 2 21 -2 0 -9 -45 -56 -72 -75 -12 -9
-19 -19 -15 -22 4 -4 28 14 54 41 44 46 46 47 39 19 -5 -23 -4 -25 4 -11 6 9
15 17 19 17 4 0 11 -75 15 -167 4 -92 9 -177 12 -190 10 -40 -25 -28 -43 15
-12 27 -16 70 -17 165 0 84 -3 122 -9 111 -5 -9 -7 -73 -5 -143 4 -97 10 -138
27 -179 48 -120 12 -336 -83 -495 -29 -48 -48 -69 -66 -73 -14 -3 -34 -10 -45
-14 -35 -16 -159 -48 -206 -55 -43 -5 -47 -8 -58 -44 -13 -46 -14 -54 -2 -47
4 3 11 19 14 34 6 30 27 42 73 42 12 0 66 14 120 31 108 33 178 38 239 16 34
-12 48 -12 94 -1 43 12 57 12 69 2 10 -8 5 6 -10 32 -24 41 -27 58 -30 164 -2
65 -6 120 -10 123 -17 10 -11 -229 8 -290 6 -21 5 -21 -11 -5 -13 12 -17 32
-17 87 1 41 -4 73 -10 77 -7 5 -9 -2 -4 -22 4 -20 4 -24 -3 -15 -12 19 -5 -68
9 -105 6 -15 8 -30 4 -33 -8 -9 -63 -7 -57 2 2 4 -1 7 -6 7 -6 0 -11 -6 -11
-12 -1 -8 -6 -6 -14 5 -11 14 -15 15 -19 5 -4 -8 -6 -7 -6 5 -1 9 5 17 12 18
6 0 2 4 -11 9 -12 5 -29 7 -37 4 -24 -10 -17 17 12 48 17 18 22 28 13 28 -12
0 -12 2 -1 13 11 10 15 9 19 -3 3 -8 11 12 18 45 l11 60 3 -65 c2 -77 12 -120
23 -103 5 7 3 38 -2 70 -14 74 -14 153 0 153 7 0 8 12 4 33 -4 20 -3 27 3 19
6 -8 9 -2 9 20 0 18 2 65 4 103 1 39 -1 81 -5 94 -6 16 -5 21 3 17 6 -4 11
-22 12 -39 0 -28 2 -29 10 -12 7 15 8 12 3 -13 -3 -18 -1 -32 4 -32 6 0 9 15
7 33 -28 297 -33 461 -12 455 6 -3 14 -18 18 -34 l5 -29 8 25 c5 14 16 34 26
45 10 11 25 33 33 48 l15 28 4 -31 c3 -16 2 -30 -2 -30 -3 0 -7 -30 -8 -67 -2
-36 -5 -70 -8 -74 -2 -4 0 -10 6 -14 6 -4 10 9 11 32 1 48 13 91 21 78 3 -6 5
-60 5 -122 -2 -111 -10 -123 -26 -40 -7 34 -9 37 -9 12 -1 -16 5 -48 13 -70
20 -55 19 -76 -2 -50 -16 20 -16 20 -8 0 14 -38 15 -60 1 -30 -12 27 -18 55
-44 211 -5 28 -5 61 0 74 16 44 -2 32 -22 -14 -22 -53 -24 -60 -11 -52 4 3 6
-6 3 -21 -3 -18 -1 -24 6 -19 8 5 10 -5 8 -32 -2 -22 3 -47 10 -57 8 -10 14
-24 14 -29 0 -6 -5 -4 -10 4 -8 13 -10 13 -10 -1 0 -9 4 -29 9 -45 6 -16 15
-55 21 -87 6 -31 16 -55 21 -52 5 4 9 -13 9 -37 1 -38 2 -41 13 -23 7 11 13
56 14 100 1 44 7 136 13 205 10 108 9 136 -6 204 -10 51 -14 102 -11 140 l5
61 -24 -55 c-62 -142 -86 -161 -153 -117 -22 15 -50 27 -61 27 -20 0 -119 113
-120 138 0 6 -4 12 -9 12 -9 0 -24 43 -25 70 0 21 13 71 25 92 5 10 9 23 9 30
0 26 86 186 122 227 33 39 40 42 68 36 18 -4 48 -18 67 -31 39 -26 49 -29 58
-14 7 12 -94 60 -128 60 -28 0 -37 15 -14 23 8 3 7 10 -7 26 -11 11 -15 21
-10 21 5 0 15 9 22 21 15 23 13 34 -3 15z"/>
<path d="M324 2425 c0 -49 1 -71 3 -48 2 23 2 64 0 90 -2 26 -3 8 -3 -42z"/>
<path d="M1190 2500 c0 -5 5 -10 11 -10 5 0 7 5 4 10 -3 6 -8 10 -11 10 -2 0
-4 -4 -4 -10z"/>
<path d="M1303 2502 c3 -11 -29 -53 -36 -47 -4 3 -5 2 -2 -2 3 -3 -1 -13 -7
-22 -7 -9 7 2 30 24 23 21 42 40 42 41 0 1 -7 4 -15 8 -8 3 -14 2 -12 -2z"/>
<path d="M1258 2493 c7 -3 16 -2 19 1 4 3 -2 6 -13 5 -11 0 -14 -3 -6 -6z"/>
<path d="M1396 2418 c-19 -27 -21 -45 -3 -26 28 30 39 48 29 48 -6 0 -18 -10
-26 -22z"/>
<path d="M1347 2400 c-4 -14 -24 -48 -45 -75 -21 -28 -49 -69 -62 -92 -13 -24
-32 -46 -43 -49 -14 -5 -16 -8 -7 -14 9 -6 4 -12 -16 -24 -16 -8 -25 -15 -19
-16 5 0 -4 -13 -20 -28 -46 -43 -95 -103 -95 -115 0 -6 21 13 48 43 26 30 72
80 103 110 30 31 62 70 69 87 8 17 18 29 24 26 5 -3 6 -1 2 6 -8 12 18 44 28
34 3 -4 6 0 6 8 0 8 11 30 24 49 15 23 21 42 16 55 -6 18 -7 17 -13 -5z"/>
<path d="M1803 2365 c-6 -16 -4 -31 21 -133 8 -34 10 -59 5 -56 -6 3 -7 -6 -3
-23 10 -41 22 -61 44 -73 23 -12 27 2 6 19 -18 15 -27 49 -15 57 5 3 5 13 -1
23 -5 10 -12 38 -15 60 -3 23 -9 51 -15 61 -14 26 -13 43 3 34 9 -5 9 -4 0 6
-6 7 -9 19 -6 26 3 8 0 14 -6 14 -7 0 -14 -7 -18 -15z"/>
<path d="M1269 2352 c-9 -9 -28 -35 -42 -57 -14 -22 -45 -59 -69 -82 -23 -22
-51 -56 -61 -75 l-18 -33 28 34 c15 19 54 61 85 94 32 32 60 68 64 80 4 11 16
29 28 39 11 9 17 17 11 17 -5 0 -17 -8 -26 -17z"/>
<path d="M1680 2349 c-10 -17 -8 -18 20 -13 26 6 30 4 30 -15 0 -24 -3 -25
-29 -9 -24 14 -53 3 -49 -19 1 -10 -1 -24 -6 -31 -4 -7 -5 -16 -2 -19 10 -10
19 5 19 32 0 30 14 42 30 26 7 -7 7 -11 1 -11 -6 0 -11 -18 -12 -40 -2 -22 1
-40 5 -40 5 0 9 10 10 22 3 32 25 40 43 15 20 -29 40 -86 34 -101 -5 -14 33
-53 42 -43 3 3 -1 16 -10 29 -9 12 -16 32 -16 45 0 12 -4 25 -10 28 -5 3 -10
15 -10 25 0 10 -6 25 -14 33 -8 8 -14 28 -14 44 1 37 -6 49 -32 56 -13 3 -24
-1 -30 -14z"/>
<path d="M1425 2340 c-3 -5 -1 -10 4 -10 6 0 11 5 11 10 0 6 -2 10 -4 10 -3 0
-8 -4 -11 -10z"/>
<path d="M545 2314 c28 -9 65 -17 82 -18 18 -2 36 -6 40 -10 5 -4 7 -76 6
-159 -2 -98 1 -145 6 -132 5 11 10 76 10 146 1 77 5 129 12 136 19 19 2 30
-53 36 -29 3 -75 8 -103 11 l-50 6 50 -16z"/>
<path d="M1485 2321 c-11 -5 -23 -7 -26 -5 -10 6 0 -59 11 -70 6 -6 10 -7 10
-3 0 4 10 3 21 -4 18 -9 24 -8 31 5 5 9 14 13 20 10 7 -5 9 2 4 20 -5 20 -4
26 5 20 9 -5 10 -2 6 10 -4 10 -7 21 -7 24 0 4 -5 0 -10 -8 -6 -10 -10 -11
-10 -2 0 13 -25 15 -55 3z m42 -44 c-6 -12 -13 -23 -14 -25 -3 -6 -43 19 -43
26 0 10 52 30 62 25 4 -2 2 -14 -5 -26z"/>
<path d="M321 2220 c-4 -116 -4 -284 0 -315 1 -11 9 -26 16 -34 8 -7 12 -19 9
-26 -3 -8 2 -16 11 -19 11 -5 13 -2 8 11 -4 10 -8 25 -9 33 0 8 -8 18 -16 21
-8 3 26 9 75 13 50 3 104 10 120 15 20 6 4 7 -50 3 -44 -4 -96 -7 -115 -7
l-35 0 -5 205 c-4 159 -6 182 -9 100z"/>
<path d="M1591 2297 c-1 -19 -5 -26 -13 -21 -8 5 -9 2 -5 -11 4 -9 2 -25 -5
-34 -12 -14 -11 -14 5 -2 15 12 17 11 17 -7 0 -11 -5 -33 -10 -49 -9 -26 -9
-27 5 -9 8 11 16 17 16 13 1 -4 3 -11 4 -17 1 -5 3 -17 4 -25 0 -8 6 -15 11
-15 6 0 10 19 9 43 0 23 -3 36 -6 30 -10 -27 -21 -11 -16 25 3 20 0 53 -5 72
-10 33 -10 34 -11 7z"/>
<path d="M1092 2273 c2 -42 -29 -135 -55 -163 -31 -33 -65 -52 -69 -39 -6 18
-73 -18 -100 -53 -48 -63 -78 -196 -59 -264 6 -22 10 -10 20 61 7 50 14 101
16 113 11 72 76 138 112 116 10 -6 27 -8 38 -3 13 5 15 8 5 8 -13 1 -13 2 0
11 9 6 17 5 22 -3 5 -8 8 -7 8 4 0 9 11 29 25 45 14 16 25 33 25 38 0 4 14 24
30 43 17 18 30 39 30 46 0 7 -10 -3 -21 -20 -24 -38 -34 -42 -24 -10 14 46 17
97 6 97 -6 0 -10 -12 -9 -27z"/>
<path d="M1776 2281 c10 -39 35 -94 40 -89 2 3 -7 29 -21 59 -14 30 -22 43
-19 30z"/>
<path d="M597 2257 c-3 -12 -4 -51 -2 -86 2 -45 0 -60 -6 -50 -12 16 -5 -71 9
-131 6 -28 9 -31 13 -15 10 37 11 293 1 299 -6 3 -12 -4 -15 -17z"/>
<path d="M1974 2249 c-4 -6 -13 -48 -21 -92 -7 -45 -19 -84 -24 -88 -12 -7 16
-59 31 -59 7 0 21 77 26 150 1 19 4 47 7 63 5 29 -7 45 -19 26z"/>
<path d="M1711 2216 c-1 -16 17 -60 39 -101 39 -71 50 -115 30 -115 -7 0 -9
-14 -5 -37 l6 -38 -16 29 c-12 20 -14 31 -6 39 13 13 15 30 2 22 -5 -3 -12 3
-16 14 -3 11 -12 24 -20 31 -12 10 -13 7 -6 -17 4 -15 6 -33 4 -40 -5 -13 10
-38 80 -135 27 -38 54 -68 61 -68 7 0 21 -19 32 -41 16 -36 18 -67 18 -218 0
-179 -8 -261 -24 -245 -5 5 -12 24 -15 42 -3 19 -19 57 -35 85 l-30 52 6 -45
c4 -25 11 -46 16 -48 4 -2 8 -15 8 -30 0 -14 3 -22 7 -18 16 16 29 -50 20
-104 -8 -52 -6 -132 9 -262 4 -33 3 -58 -3 -58 -13 0 -41 53 -36 68 3 8 -1 10
-11 6 -12 -5 -16 0 -16 17 0 13 -5 31 -11 39 -16 23 -5 -37 17 -90 18 -45 63
-130 69 -130 8 0 9 181 0 290 -6 91 6 192 19 155 4 -11 11 -28 14 -38 4 -11 8
1 8 30 1 26 5 71 10 98 9 61 10 188 1 270 -16 141 -16 139 -71 205 -66 77 -84
128 -60 165 15 24 14 27 -31 111 -26 48 -51 98 -55 113 l-8 26 -1 -29z"/>
<path d="M1737 2202 c3 -12 9 -25 14 -28 14 -8 11 10 -6 32 -13 18 -14 18 -8
-4z"/>
<path d="M1350 2151 c0 -6 4 -13 10 -16 6 -3 7 1 4 9 -7 18 -14 21 -14 7z"/>
<path d="M1690 2138 c0 -13 -3 -41 -6 -63 l-6 -40 16 29 c18 31 22 96 6 96 -5
0 -10 -10 -10 -22z"/>
<path d="M1190 2116 c0 -2 8 -10 18 -17 15 -13 16 -12 3 4 -13 16 -21 21 -21
13z"/>
<path d="M1560 2101 c-16 -32 -12 -62 10 -68 20 -5 24 -13 21 -43 -1 -10 5 -7
15 8 9 12 23 22 30 22 8 0 14 5 14 10 0 6 -8 10 -17 8 -10 -2 -17 2 -16 9 2 7
-8 10 -26 8 -25 -3 -27 -1 -23 21 5 28 17 31 31 7 9 -16 10 -16 11 3 0 12 -7
25 -16 28 -22 8 -22 8 -34 -13z"/>
<path d="M1392 2086 c-7 -16 -8 -26 -1 -26 12 0 22 25 17 41 -2 6 -9 0 -16
-15z"/>
<path d="M1741 2074 c0 -11 3 -14 6 -6 3 7 2 16 -1 19 -3 4 -6 -2 -5 -13z"/>
<path d="M800 2010 c0 -16 2 -30 4 -30 2 0 6 14 8 30 3 17 1 30 -4 30 -4 0 -8
-13 -8 -30z"/>
<path d="M1668 1996 c-21 -42 -23 -62 -5 -28 11 20 15 2 27 -135 14 -154 16
-204 10 -348 -1 -38 1 -90 5 -114 6 -36 12 -46 36 -54 24 -10 29 -17 29 -45 0
-22 4 -32 13 -30 28 10 18 46 -22 83 l-41 38 2 76 c2 105 -8 338 -17 385 -6
30 -5 37 5 31 9 -6 10 -3 1 12 -5 11 -9 35 -7 54 2 19 1 25 -2 14 -4 -12 -9 4
-12 39 l-5 59 -17 -37z"/>
<path d="M231 2003 c-2 -20 18 -63 29 -63 15 0 12 28 -4 37 -7 4 -16 15 -19
23 -3 8 -6 10 -6 3z"/>
<path d="M976 1987 c-26 -27 -53 -110 -61 -187 -6 -60 -11 -96 -32 -220 -4
-25 -7 -62 -8 -82 0 -21 -3 -38 -7 -38 -5 0 -8 -19 -8 -42 l1 -43 14 40 c8 22
13 45 10 52 -2 7 0 15 4 18 9 5 25 104 24 140 0 11 4 23 11 28 8 5 7 9 -3 16
-7 5 -9 11 -4 14 5 3 15 35 23 71 17 81 32 86 25 9 l-4 -58 13 50 c18 64 19
102 4 107 -9 3 -7 16 5 49 14 36 15 40 2 25 -15 -19 -15 -19 -15 3 0 13 7 29
16 36 9 6 15 16 13 21 -2 6 -12 1 -23 -9z m-23 -117 c3 -11 1 -20 -4 -20 -5 0
-9 9 -9 20 0 11 2 20 4 20 2 0 6 -9 9 -20z"/>
<path d="M1290 2004 c0 -6 7 -19 16 -30 14 -18 14 -18 3 6 -14 31 -19 36 -19
24z"/>
<path d="M1917 1988 c-4 -12 -2 -27 3 -33 5 -6 7 -31 4 -55 -3 -34 1 -54 18
-84 24 -42 53 -62 41 -29 -3 10 -10 21 -15 24 -5 3 -11 34 -14 69 -3 35 -10
72 -15 82 -5 10 -7 23 -4 28 3 5 1 11 -4 14 -5 3 -11 -4 -14 -16z"/>
<path d="M1500 1941 c0 -4 20 -14 44 -21 44 -12 86 -7 86 11 0 12 -7 11 -31
-1 -15 -8 -19 -7 -19 5 0 11 -11 15 -40 15 -22 0 -40 -4 -40 -9z"/>
<path d="M1741 1841 c-1 -41 2 -72 5 -68 10 10 12 100 3 122 -5 13 -8 -6 -8
-54z"/>
<path d="M229 1868 c-2 -18 -2 -55 1 -83 5 -50 5 -50 12 25 4 41 3 79 -1 83
-5 5 -10 -6 -12 -25z"/>
<path d="M1336 1892 c-3 -5 1 -15 9 -22 21 -17 27 -9 10 13 -7 10 -16 14 -19
9z"/>
<path d="M1513 1880 c6 -22 -12 -27 -31 -8 -7 7 -12 8 -12 2 0 -6 9 -19 20
-29 11 -10 20 -13 20 -8 0 7 15 9 39 6 23 -3 41 -1 45 6 5 7 -1 11 -14 11 -11
0 -28 9 -37 20 -10 11 -21 20 -26 20 -5 0 -7 -9 -4 -20z"/>
<path d="M280 1876 c0 -9 7 -16 16 -16 9 0 14 5 12 12 -6 18 -28 21 -28 4z"/>
<path d="M1114 1862 c-11 -20 -24 -30 -33 -27 -10 4 -11 2 -4 -7 6 -8 7 -22 2
-33 -4 -11 -8 -36 -7 -55 0 -31 1 -29 13 18 16 68 30 84 45 51 9 -19 7 -48
-10 -129 -26 -130 -29 -140 -42 -140 -5 0 -8 7 -4 15 3 8 2 15 -2 15 -12 0
-32 -245 -30 -375 1 -117 1 -116 9 55 6 150 11 186 34 250 14 41 36 125 50
185 22 99 23 115 11 159 l-13 49 -19 -31z"/>
<path d="M1395 1870 c-3 -6 1 -7 9 -4 18 7 21 14 7 14 -6 0 -13 -4 -16 -10z"/>
<path d="M2011 1864 c0 -11 3 -14 6 -6 3 7 2 16 -1 19 -3 4 -6 -2 -5 -13z"/>
<path d="M1225 1840 c3 -5 11 -10 16 -10 6 0 7 5 4 10 -3 6 -11 10 -16 10 -6
0 -7 -4 -4 -10z"/>
<path d="M1180 1834 c0 -8 71 -134 75 -134 6 0 -22 64 -46 104 -20 34 -29 43
-29 30z"/>
<path d="M1380 1832 c0 -5 10 -17 22 -28 l21 -19 -18 28 c-18 28 -25 33 -25
19z"/>
<path d="M1420 1832 c0 -5 11 -19 25 -32 28 -26 33 -16 9 18 -15 22 -34 30
-34 14z"/>
<path d="M2020 1821 c0 -11 5 -23 10 -26 6 -3 10 3 10 14 0 11 -4 23 -10 26
-5 3 -10 -3 -10 -14z"/>
<path d="M1820 1657 c0 -103 3 -156 10 -152 13 8 13 275 0 295 -6 10 -10 -37
-10 -143z"/>
<path d="M1921 1789 c-1 -9 8 -24 19 -34 10 -9 19 -20 18 -24 0 -3 1 -10 2
-16 1 -5 1 -36 0 -67 -1 -36 3 -58 9 -58 7 0 11 25 11 63 0 74 -8 107 -25 107
-6 0 -17 10 -23 23 -7 15 -11 17 -11 6z"/>
<path d="M289 1759 c-11 -7 -10 -11 9 -24 24 -17 29 -54 10 -73 -18 -18 -62
-14 -78 7 -7 11 -18 17 -24 13 -6 -4 -42 -8 -81 -8 -38 -1 -81 -3 -95 -4 -44
-4 49 -19 122 -19 37 -1 69 -5 72 -9 4 -7 136 -6 142 1 1 1 -12 30 -30 64 -25
47 -36 59 -47 52z"/>
<path d="M2041 1754 c0 -11 3 -14 6 -6 3 7 2 16 -1 19 -3 4 -6 -2 -5 -13z"/>
<path d="M371 1734 c0 -11 3 -14 6 -6 3 7 2 16 -1 19 -3 4 -6 -2 -5 -13z"/>
<path d="M470 1730 c0 -5 10 -10 23 -10 18 0 19 2 7 10 -19 13 -30 13 -30 0z"/>
<path d="M617 1726 c-3 -8 0 -17 8 -20 11 -4 25 13 25 30 0 11 -29 2 -33 -10z"/>
<path d="M660 1725 c0 -14 37 -27 45 -16 2 4 18 6 35 3 24 -3 30 -9 30 -28 0
-26 -27 -33 -48 -12 -9 9 -12 7 -12 -10 0 -15 -6 -22 -20 -22 -11 0 -20 5 -20
11 0 5 -5 7 -11 3 -6 -3 -15 0 -20 7 -7 11 -9 10 -9 -5 0 -14 -5 -17 -22 -12
-13 3 -38 6 -55 6 -27 0 -33 4 -34 23 l0 22 -9 -21 c-13 -33 -31 -39 -37 -13
l-6 23 -9 -24 c-5 -12 -7 -24 -6 -25 2 -2 78 -6 169 -10 l166 -7 0 61 0 60
-63 0 c-46 -1 -64 -4 -64 -14z"/>
<path d="M1317 1729 c7 -7 15 -10 18 -7 3 3 -2 9 -12 12 -14 6 -15 5 -6 -5z"/>
<path d="M406 1705 c-14 -59 -14 -66 0 -72 21 -8 22 -4 14 52 -6 47 -7 48 -14
20z"/>
<path d="M40 1705 c-10 -12 -10 -15 4 -15 9 0 16 7 16 15 0 8 -2 15 -4 15 -2
0 -9 -7 -16 -15z"/>
<path d="M1740 1683 c0 -7 7 -37 15 -68 8 -31 12 -62 9 -69 -3 -8 0 -17 5 -21
6 -3 9 -10 6 -15 -6 -9 23 -35 31 -27 3 3 -1 18 -9 34 -7 15 -19 55 -26 88
-13 58 -30 103 -31 78z"/>
<path d="M840 1634 c0 -26 3 -44 6 -41 10 10 12 77 2 83 -4 3 -8 -16 -8 -42z"/>
<path d="M1152 1649 c-1 -20 -7 -61 -13 -90 -5 -30 -12 -68 -15 -85 -2 -17
-13 -62 -25 -98 -11 -37 -18 -75 -16 -84 4 -13 5 -12 6 4 0 12 7 37 15 55 24
58 58 242 53 289 -3 40 -4 41 -5 9z"/>
<path d="M2036 1635 c-4 -27 -9 -57 -11 -66 -14 -75 -15 -84 -5 -61 13 30 33
148 28 164 -3 7 -8 -9 -12 -37z"/>
<path d="M970 1659 c0 -5 5 -7 10 -4 6 3 10 8 10 11 0 2 -4 4 -10 4 -5 0 -10
-5 -10 -11z"/>
<path d="M1285 1660 c3 -5 11 -10 16 -10 6 0 7 5 4 10 -3 6 -11 10 -16 10 -6
0 -7 -4 -4 -10z"/>
<path d="M1512 1640 c0 -14 2 -19 5 -12 2 6 2 18 0 25 -3 6 -5 1 -5 -13z"/>
<path d="M806 1619 c-3 -8 -7 -30 -9 -49 -3 -19 -9 -60 -15 -90 -11 -54 -23
-317 -14 -290 3 8 11 21 19 28 7 7 13 24 13 36 0 13 5 37 11 54 6 17 12 43 13
59 2 15 7 36 11 47 5 11 4 26 -2 35 -8 12 -8 23 -1 36 8 13 7 16 -1 11 -7 -5
-11 1 -11 16 0 16 3 19 9 10 7 -11 9 -11 14 1 3 9 0 18 -7 20 -7 3 -13 22 -14
42 -2 41 -9 56 -16 34z m3 -141 c4 -59 4 -57 -3 -113 -16 -136 -25 -136 -19 0
5 126 8 155 17 155 1 0 4 -19 5 -42z"/>
<path d="M98 1593 c12 -2 30 -2 40 0 9 3 -1 5 -23 4 -22 0 -30 -2 -17 -4z"/>
<path d="M165 1590 c-4 -6 6 -10 22 -10 22 0 25 2 13 10 -19 12 -27 12 -35 0z"/>
<path d="M712 1575 c0 -16 2 -22 5 -12 2 9 2 23 0 30 -3 6 -5 -1 -5 -18z"/>
<path d="M1683 1555 c0 -27 2 -38 4 -22 2 15 2 37 0 50 -2 12 -4 0 -4 -28z"/>
<path d="M305 1579 c44 -4 105 -8 135 -9 97 -3 120 -9 120 -35 0 -13 -3 -25
-7 -28 -5 -2 -3 -2 4 -1 7 2 14 0 16 -4 3 -4 7 -101 11 -217 3 -115 3 -204 0
-197 -5 10 -9 10 -20 2 -29 -25 -33 0 -28 183 3 100 1 196 -4 212 -8 27 -13
31 -63 37 -105 13 -354 28 -375 22 -20 -5 -21 -10 -16 -142 3 -75 5 -310 6
-521 1 -373 0 -384 -18 -387 -44 -6 -66 -15 -66 -25 0 -7 9 -9 23 -5 12 3 38
9 58 12 l37 6 -4 257 c-5 302 -11 502 -20 662 -5 81 -3 118 4 123 6 4 49 2 94
-4 46 -6 134 -14 196 -19 62 -4 117 -12 123 -18 6 -6 7 -82 3 -206 -6 -168 -9
-197 -23 -200 -9 -1 19 -6 62 -10 43 -4 82 -9 85 -11 13 -8 -2 -434 -16 -448
-6 -6 -12 -19 -11 -28 0 -10 3 -8 9 6 5 13 21 24 39 27 24 5 31 12 31 29 0 17
-3 19 -9 9 -14 -22 -33 -2 -27 27 12 59 10 360 -3 380 -4 7 -17 15 -27 16 -18
3 -19 15 -22 219 -2 148 -6 217 -13 217 -7 0 -10 14 -7 34 l4 33 -105 7 c-57
3 -138 5 -180 5 l-76 -2 80 -8z"/>
<path d="M1381 1544 c0 -11 3 -14 6 -6 3 7 2 16 -1 19 -3 4 -6 -2 -5 -13z"/>
<path d="M1522 1535 c0 -16 2 -22 5 -12 2 9 2 23 0 30 -3 6 -5 -1 -5 -18z"/>
<path d="M952 1530 c0 -14 2 -19 5 -12 2 6 2 18 0 25 -3 6 -5 1 -5 -13z"/>
<path d="M667 1500 c3 -19 6 -52 6 -72 0 -21 4 -38 9 -38 4 0 8 25 8 55 0 52
2 56 23 54 38 -3 57 1 57 12 0 6 -7 8 -17 5 -9 -4 -20 -1 -25 6 -8 10 -11 10
-15 1 -2 -7 -13 -13 -23 -13 -10 0 -21 6 -24 13 -3 6 -3 -4 1 -23z"/>
<path d="M620 1500 c0 -5 4 -10 9 -10 6 0 13 5 16 10 3 6 -1 10 -9 10 -9 0
-16 -4 -16 -10z"/>
<path d="M1536 1430 c10 -118 24 -173 19 -70 -3 47 -9 99 -15 115 -7 23 -8 12
-4 -45z"/>
<path d="M1347 1335 c7 -384 6 -437 -17 -467 -24 -32 -24 -35 -6 -35 30 0 39
76 37 312 -1 127 -6 257 -10 290 -5 39 -6 4 -4 -100z"/>
<path d="M153 1455 c0 -8 4 -15 9 -15 4 0 8 7 8 15 0 8 -4 15 -8 15 -5 0 -9
-7 -9 -15z"/>
<path d="M1391 1460 c0 -8 7 -46 14 -85 14 -69 14 -69 9 -14 -5 55 -22 129
-23 99z"/>
<path d="M315 1440 c3 -5 8 -10 11 -10 2 0 4 5 4 10 0 6 -5 10 -11 10 -5 0 -7
-4 -4 -10z"/>
<path d="M1751 1404 c0 -11 3 -14 6 -6 3 7 2 16 -1 19 -3 4 -6 -2 -5 -13z"/>
<path d="M1661 1378 c0 -7 4 -22 9 -33 8 -18 9 -17 9 7 1 15 -3 30 -9 33 -5 3
-10 0 -9 -7z"/>
<path d="M1140 1347 c0 -41 -27 -141 -60 -227 -29 -75 -8 -51 25 29 33 79 57
199 45 221 -7 11 -9 4 -10 -23z"/>
<path d="M841 1333 c1 -22 2 -23 6 -8 3 11 10 23 17 27 7 5 5 8 -6 8 -13 0
-18 -7 -17 -27z"/>
<path d="M1666 1312 c6 -4 10 -15 8 -24 -1 -10 3 -18 8 -18 6 0 17 -8 25 -17
13 -17 13 -17 11 2 -2 11 -12 25 -23 32 -14 9 -16 12 -5 13 13 0 13 1 0 10 -8
5 -19 10 -25 10 -6 0 -5 -3 1 -8z"/>
<path d="M1421 1286 c-1 -27 21 -153 25 -141 2 6 -2 44 -10 85 -8 41 -14 66
-15 56z"/>
<path d="M1576 1195 c3 -44 8 -96 11 -115 3 -19 5 -45 4 -57 -1 -11 2 -24 7
-27 15 -9 24 42 11 65 -7 13 -8 43 -4 80 5 40 3 59 -4 59 -6 0 -11 10 -11 23
0 12 -4 29 -10 37 -5 9 -7 -15 -4 -65z"/>
<path d="M1707 1212 c23 -23 51 -59 63 -82 11 -22 22 -40 24 -40 9 0 -3 42
-17 58 -19 21 -23 37 -5 26 7 -4 8 -3 4 5 -4 6 -11 9 -16 6 -5 -3 -14 4 -20
15 -6 11 -25 27 -43 36 -31 16 -31 16 10 -24z"/>
<path d="M8 1223 c7 -3 16 -2 19 1 4 3 -2 6 -13 5 -11 0 -14 -3 -6 -6z"/>
<path d="M1647 1194 c-5 -28 6 -54 24 -54 13 0 10 31 -5 59 l-13 24 -6 -29z"/>
<path d="M45 1200 c-3 -5 -1 -10 4 -10 6 0 11 5 11 10 0 6 -2 10 -4 10 -3 0
-8 -4 -11 -10z"/>
<path d="M1516 1190 c-2 -8 -5 -23 -5 -32 -3 -122 -2 -181 3 -186 3 -3 7 15 8
39 2 62 2 67 11 75 10 10 8 86 -3 104 -8 13 -9 13 -14 0z"/>
<path d="M1915 1191 c-6 -11 13 -26 22 -17 4 3 0 6 -8 6 -11 0 -11 2 1 10 9 6
10 10 3 10 -6 0 -14 -4 -18 -9z"/>
<path d="M835 1179 c-4 -6 -4 -13 -1 -16 3 -4 6 -1 6 6 0 7 5 9 12 5 7 -4 8
-3 4 4 -9 15 -13 15 -21 1z"/>
<path d="M1695 1171 c-3 -11 1 -36 10 -56 19 -47 19 -51 -2 -34 -15 13 -15 12
-4 -8 6 -13 16 -23 21 -23 5 0 7 -6 4 -13 -3 -8 2 -20 11 -27 8 -7 15 -9 15
-4 0 4 6 -1 14 -12 19 -25 31 -12 15 15 -9 14 -17 17 -25 10 -8 -6 -13 -5 -17
5 -3 8 2 16 14 19 20 6 26 32 8 42 -6 4 -13 -2 -16 -14 -3 -11 -9 -18 -14 -16
-4 3 -5 16 0 28 10 26 4 49 -15 60 -8 4 -14 13 -14 18 0 6 4 7 10 4 6 -3 7 1
4 9 -8 21 -11 20 -19 -3z"/>
<path d="M785 1158 c-23 -59 -26 -415 -4 -487 11 -37 69 -108 69 -84 0 6 -7
17 -16 24 -20 16 -34 53 -40 99 -2 19 -6 52 -8 74 -3 21 -7 40 -10 43 -3 3 -1
15 5 26 9 15 8 18 -1 12 -10 -6 -11 -1 -5 21 4 16 8 38 10 49 1 11 3 20 4 20
1 0 3 41 5 92 2 50 7 96 10 101 3 6 2 13 -4 17 -6 3 -12 0 -15 -7z"/>
<path d="M829 1108 c4 -28 6 -29 9 -9 2 13 0 27 -5 32 -6 6 -7 -3 -4 -23z"/>
<path d="M1629 1125 c-4 -5 -6 -41 -6 -80 0 -38 -3 -81 -7 -95 l-7 -25 14 24
c13 22 14 21 26 -35 6 -34 22 -72 36 -89 21 -26 23 -27 18 -7 -3 12 -10 25
-15 28 -5 3 -4 11 2 19 8 10 6 17 -8 27 -10 7 -22 22 -26 33 -6 17 -4 17 18
-4 32 -30 35 -14 4 19 -12 13 -23 32 -25 44 -1 12 -6 50 -10 86 -5 36 -11 61
-14 55z"/>
<path d="M1914 1096 c-3 -8 -4 -25 -2 -38 3 -17 5 -13 9 15 5 38 2 47 -7 23z"/>
<path d="M303 1059 c-18 -5 -33 -12 -33 -14 0 -8 53 6 65 16 10 10 11 10 -32
-2z"/>
<path d="M358 1063 c7 -3 16 -2 19 1 4 3 -2 6 -13 5 -11 0 -14 -3 -6 -6z"/>
<path d="M1046 1043 c-3 -10 -8 -49 -11 -88 -3 -38 -12 -106 -21 -149 -15 -84
-12 -115 5 -50 9 34 19 111 36 262 5 43 0 56 -9 25z"/>
<path d="M2973 975 c-12 -49 -33 -129 -47 -177 -22 -80 -22 -86 -5 -75 13 8
15 13 6 19 -9 6 -9 8 2 8 8 0 11 7 8 20 -4 15 0 20 13 20 25 0 50 10 50 20 0
5 -11 7 -25 4 -20 -3 -25 0 -25 16 0 11 5 20 11 20 5 0 8 4 5 9 -3 5 3 37 15
71 11 34 19 78 17 98 -3 31 -6 23 -25 -53z"/>
<path d="M599 1045 c-6 -5 -45 -13 -71 -14 -10 -1 -18 -5 -18 -11 0 -9 23 -7
88 6 12 2 22 9 22 14 0 10 -13 14 -21 5z"/>
<path d="M1669 1023 c6 -12 16 -25 22 -28 20 -13 15 0 -9 25 -22 23 -24 23
-13 3z"/>
<path d="M218 993 c-26 -31 -15 -131 25 -223 39 -92 46 -114 51 -175 9 -88 24
-123 41 -95 9 15 25 12 25 -4 0 -9 59 -27 193 -59 266 -64 281 -66 300 -52 18
13 23 65 7 65 -5 0 -10 -14 -10 -31 0 -19 -4 -28 -11 -23 -6 3 -8 17 -5 29 5
21 1 25 -46 38 -59 16 -129 31 -140 29 -6 -1 -103 17 -216 41 -55 12 -64 12
-71 -2 -8 -13 -12 -13 -25 -2 -9 8 -15 19 -13 25 2 5 -2 35 -10 66 -7 30 -13
73 -14 95 -1 33 -2 35 -8 15 -6 -22 -8 -21 -23 20 -10 25 -16 52 -15 60 1 8
-2 38 -7 67 -9 58 -1 113 17 113 8 0 11 -17 9 -52 -2 -29 1 -78 6 -108 9 -53
10 -52 12 50 3 92 4 98 10 50 l7 -55 1 46 c2 51 10 58 65 60 23 1 16 4 -23 11
-103 17 -118 17 -132 1z m187 -483 c3 -5 -1 -10 -9 -10 -9 0 -16 5 -16 10 0 6
4 10 9 10 6 0 13 -4 16 -10z m137 -24 c42 -9 80 -16 83 -16 3 0 5 -7 5 -15 0
-8 -2 -15 -4 -15 -7 0 -180 40 -194 45 -19 7 -3 27 16 21 10 -3 52 -12 94 -20z
m203 -46 c52 -11 83 -25 75 -34 -5 -4 -142 19 -168 29 -21 8 -2 27 22 21 12
-3 44 -10 71 -16z"/>
<path d="M1666 974 c-3 -9 -1 -12 4 -9 6 3 13 0 16 -9 4 -10 17 -13 41 -11 28
3 36 -1 40 -16 6 -22 23 -26 23 -5 0 22 -28 39 -53 32 -16 -4 -31 1 -44 14
-18 16 -22 17 -27 4z"/>
<path d="M1581 950 c0 -14 -4 -36 -7 -50 -5 -22 -4 -23 6 -7 6 9 9 32 7 50 -3
25 -4 26 -6 7z"/>
<path d="M1487 947 c-3 -8 -1 -20 4 -28 6 -10 9 -7 9 14 0 29 -5 35 -13 14z"/>
<path d="M1722 908 c-8 -8 -3 -22 21 -52 17 -23 39 -46 47 -53 13 -11 13 -12
-3 -13 -11 0 -21 8 -24 18 -2 10 -14 24 -25 31 -17 10 -15 6 8 -28 29 -40 68
-55 76 -29 5 15 -21 70 -39 81 -7 4 -13 14 -13 22 0 21 -34 37 -48 23z m38
-33 c0 -7 10 -20 23 -28 12 -9 17 -16 10 -16 -7 -1 -23 14 -37 32 -29 38 -34
56 -11 37 8 -7 15 -18 15 -25z"/>
<path d="M1623 880 c3 -19 2 -41 0 -47 -7 -20 -23 -15 -23 6 0 11 -4 23 -10
26 -19 11 -10 -41 13 -86 19 -35 29 -43 46 -41 20 3 21 1 11 -18 -17 -32 -6
-35 23 -6 14 14 27 22 30 20 3 -3 13 -7 24 -9 10 -2 20 -4 22 -4 2 -1 -4 -10
-14 -21 -13 -14 -30 -20 -54 -19 -20 1 -47 -2 -61 -5 -14 -4 -51 -10 -82 -13
-32 -3 -56 -9 -53 -12 2 -4 -16 -7 -41 -6 -24 0 -44 -3 -44 -6 0 -4 -15 -10
-32 -14 -18 -4 -40 -9 -48 -12 -8 -2 -26 -5 -40 -7 -14 -1 -32 -5 -40 -9 -34
-13 -46 -14 -68 -6 -15 6 -21 5 -17 -1 3 -6 -1 -10 -9 -10 -9 0 -16 -5 -16
-10 0 -6 10 -8 23 -5 95 21 421 86 453 90 73 9 148 25 157 34 13 13 4 66 -10
64 -7 -2 -13 4 -13 12 0 17 -16 20 -24 6 -4 -5 0 -11 6 -14 7 -2 11 -7 8 -10
-3 -4 -18 0 -33 8 -15 8 -29 10 -32 4 -13 -19 -25 -8 -25 24 -1 17 -8 55 -16
82 -11 40 -14 43 -11 15z m7 -91 c0 -11 -4 -17 -10 -14 -5 3 -10 13 -10 21 0
8 5 14 10 14 6 0 10 -9 10 -21z"/>
<path d="M742 860 c0 -19 2 -27 5 -17 2 9 2 25 0 35 -3 9 -5 1 -5 -18z"/>
<path d="M308 778 c5 -89 9 -97 11 -20 0 39 -2 72 -6 72 -5 0 -7 -24 -5 -52z"/>
<path d="M727 766 c-4 -32 -5 -61 -3 -63 7 -7 19 82 14 103 -2 11 -7 -8 -11
-40z"/>
<path d="M870 752 c0 -38 4 -61 10 -57 5 3 6 13 3 21 -3 9 -1 19 6 23 9 6 8
16 -3 42 l-15 34 -1 -63z"/>
<path d="M1861 769 c-7 -23 -15 -47 -18 -55 -3 -8 -1 -14 5 -14 5 0 12 8 15
18 3 9 10 32 15 49 6 18 7 35 3 38 -5 2 -14 -14 -20 -36z"/>
<path d="M1797 738 c4 -7 6 -21 5 -30 -3 -19 13 -25 23 -8 7 12 -12 50 -26 50
-6 0 -7 -6 -2 -12z"/>
<path d="M1545 710 c25 -11 88 -13 81 -2 -3 5 -26 9 -53 10 -35 1 -43 -1 -28
-8z"/>
<path d="M711 673 c0 -12 -4 -28 -7 -36 -4 -12 0 -14 16 -10 12 3 17 9 12 12
-6 3 -12 17 -15 31 -4 22 -4 22 -6 3z"/>
<path d="M2888 663 c-4 -14 2 -18 26 -19 17 0 43 -4 57 -8 19 -5 26 -4 26 7 0
9 -7 12 -19 10 -10 -3 -26 -2 -35 2 -10 5 -21 7 -25 7 -5 -1 -8 3 -8 8 0 17
-17 11 -22 -7z"/>
<path d="M1725 640 c4 -6 11 -8 16 -5 14 9 11 15 -7 15 -8 0 -12 -5 -9 -10z"/>
<path d="M961 619 c0 -9 -9 -24 -20 -33 -23 -21 -101 -17 -148 7 -18 10 -45
17 -60 16 l-28 0 25 -12 c59 -26 180 -86 240 -119 60 -33 73 -36 179 -42 146
-8 153 -12 105 -66 -42 -47 -184 -259 -184 -275 0 -25 9 -17 31 27 12 24 44
75 73 113 28 39 58 82 65 98 8 15 19 27 24 27 12 0 0 -136 -14 -162 -9 -16 -8
-19 3 -16 7 3 15 19 18 37 7 45 90 97 90 56 0 -8 5 -15 10 -15 15 0 12 16 -5
30 -8 7 -31 10 -50 8 -35 -4 -35 -4 -35 34 0 52 17 56 83 19 30 -17 57 -27 60
-24 4 3 13 0 21 -6 9 -7 17 -8 20 -2 6 8 -28 29 -204 124 -60 32 -68 34 -95
23 -38 -16 -119 -7 -162 19 -18 10 -30 21 -28 25 2 3 -8 7 -21 8 -14 1 -35 9
-47 17 l-21 15 24 2 c14 0 32 1 40 2 16 1 25 34 17 64 -4 14 -5 14 -6 1z"/>
<path d="M1602 621 c-10 -6 -9 -10 7 -14 12 -3 19 -1 16 3 -3 5 7 11 22 13
l28 4 -30 1 c-16 1 -36 -2 -43 -7z"/>
<path d="M1670 586 c0 -2 7 -7 16 -10 8 -3 12 -2 9 4 -6 10 -25 14 -25 6z"/>
<path d="M215 527 c-16 -6 -36 -11 -44 -14 -8 -2 -11 -6 -8 -9 8 -8 117 17
117 27 0 10 -25 8 -65 -4z"/>
<path d="M1140 526 c0 -18 26 -39 39 -32 12 8 277 -125 309 -154 16 -15 27
-18 39 -12 26 14 42 5 101 -52 37 -36 61 -51 82 -52 17 -1 30 2 30 7 0 5 -7 9
-16 9 -26 0 -79 37 -91 63 -13 29 -76 61 -102 52 -13 -4 -76 24 -188 81 -92
48 -172 91 -177 95 -15 13 -26 11 -26 -5z"/>
<path d="M1755 520 c-78 -22 -163 -43 -190 -47 -34 -5 -41 -10 -32 -20 4 -3
24 -1 44 5 20 6 40 9 45 6 13 -9 -1 -24 -23 -24 -11 0 -17 -4 -14 -10 3 -5 13
-10 22 -10 9 0 24 -6 32 -13 9 -8 32 -20 51 -27 19 -7 48 -22 63 -33 16 -10
31 -16 35 -12 9 8 -24 34 -60 47 -16 5 -25 14 -22 19 9 15 44 10 50 -6 6 -14
34 -22 34 -9 0 13 -35 33 -57 34 -13 0 -23 4 -23 9 0 6 -17 11 -37 13 -32 3
-35 5 -18 13 11 5 26 15 33 22 14 14 102 16 102 2 0 -5 -18 -8 -40 -7 -23 1
-46 -4 -53 -11 -9 -10 -8 -11 7 -5 15 6 17 4 11 -6 -6 -10 -4 -12 11 -6 10 4
34 10 52 13 25 5 32 10 29 23 -2 9 0 25 5 34 10 18 -6 20 -57 6z m32 -16 c-3
-3 -12 -4 -19 -1 -8 3 -5 6 6 6 11 1 17 -2 13 -5z m-97 -84 c13 -9 13 -10 0
-10 -8 0 -22 5 -30 10 -13 9 -13 10 0 10 8 0 22 -5 30 -10z"/>
<path d="M250 480 c-24 -8 -23 -8 8 -9 20 -1 31 3 27 9 -3 6 -7 10 -8 9 -1 -1
-13 -5 -27 -9z"/>
<path d="M877 479 c7 -7 15 -10 18 -7 3 3 -2 9 -12 12 -14 6 -15 5 -6 -5z"/>
<path d="M2765 475 c-5 -2 -91 -29 -190 -60 -99 -31 -270 -85 -380 -120 -110
-35 -246 -78 -302 -95 -65 -21 -108 -30 -120 -25 -10 5 -20 9 -23 9 -17 4 -76
31 -81 38 -3 5 -19 4 -35 -1 -16 -5 -45 -12 -65 -14 -33 -5 -41 -1 -79 39 -23
25 -44 43 -46 41 -6 -6 38 -87 47 -87 5 0 9 -6 9 -14 0 -9 -8 -12 -25 -8 -17
3 -25 11 -25 26 0 11 -7 30 -15 40 -8 11 -13 28 -10 37 3 10 2 20 -4 23 -5 3
-12 -6 -15 -20 -5 -19 -1 -33 13 -48 12 -13 21 -36 21 -54 0 -29 -3 -32 -30
-32 -16 0 -30 -5 -30 -11 0 -14 -36 -45 -82 -69 -21 -11 -38 -27 -38 -35 0 -8
0 -18 -1 -22 0 -4 5 -9 12 -12 6 -2 9 1 6 6 -9 15 5 28 66 57 32 16 89 48 125
73 60 39 72 44 110 39 25 -4 42 -2 42 5 0 5 11 -2 25 -16 14 -14 31 -25 38
-24 7 0 2 7 -10 16 -22 15 -32 43 -15 43 14 0 52 -31 47 -39 -2 -5 22 -9 55
-10 48 -1 93 10 237 58 98 33 266 87 373 121 107 34 242 77 300 96 58 19 113
34 123 34 9 0 17 5 17 10 0 10 -24 12 -45 5z"/>
<path d="M930 450 c14 -11 36 -25 49 -31 43 -18 31 -4 -22 25 -40 21 -46 23
-27 6z"/>
<path d="M1772 443 c-26 -5 -20 -23 9 -23 10 0 19 7 19 15 0 8 -1 14 -2 14 -2
-1 -13 -4 -26 -6z"/>
<path d="M140 409 c0 -25 20 -47 105 -114 27 -22 59 -48 70 -58 11 -10 43 -34
70 -52 28 -19 61 -46 74 -60 12 -13 27 -22 32 -19 5 3 9 1 9 -3 0 -12 55 -43
77 -43 20 0 98 49 90 56 -3 3 -25 -5 -50 -17 -50 -24 -109 -21 -87 6 9 11 2
20 -32 45 -192 138 -270 197 -310 237 -44 42 -48 44 -48 22z"/>
<path d="M2770 426 c0 -9 40 -13 46 -5 3 5 -6 9 -20 9 -14 0 -26 -2 -26 -4z"/>
<path d="M47 410 c10 -13 7 -18 -18 -29 -16 -7 -29 -19 -29 -26 0 -15 15 -9
67 25 22 14 34 38 13 25 -6 -4 -19 -1 -28 7 -15 11 -15 11 -5 -2z"/>
<path d="M1015 370 c-3 -5 -1 -10 4 -10 6 0 11 5 11 10 0 6 -2 10 -4 10 -3 0
-8 -4 -11 -10z"/>
<path d="M2850 370 c20 -13 33 -13 25 0 -3 6 -14 10 -23 10 -15 0 -15 -2 -2
-10z"/>
<path d="M1480 312 c0 -6 14 -26 30 -44 19 -21 30 -27 30 -17 0 8 -13 28 -30
44 -16 16 -30 24 -30 17z"/>
<path d="M1767 283 c-4 -15 -10 -39 -13 -52 -5 -16 -4 -22 4 -18 5 4 13 25 17
48 8 46 1 64 -8 22z"/>
<path d="M1025 250 c-55 -27 -106 -49 -112 -50 -7 0 -13 -4 -13 -9 0 -11 135
36 198 68 23 12 42 26 42 31 0 15 -6 13 -115 -40z"/>
<path d="M1224 242 c-6 -4 -27 -31 -47 -61 -29 -41 -37 -63 -37 -96 0 -36 -5
-48 -27 -65 l-28 -22 30 4 c22 2 31 9 33 26 4 23 48 52 69 45 6 -2 14 1 18 6
3 6 14 11 24 11 10 0 34 7 52 15 l34 15 -35 -6 c-31 -5 -39 -1 -68 30 -36 40
-39 52 -15 78 17 19 15 32 -3 20z m-24 -102 c0 -5 7 -10 15 -10 8 0 15 -9 15
-19 0 -15 -7 -19 -30 -19 -37 1 -45 11 -30 38 11 21 30 27 30 10z"/>
<path d="M2270 150 c0 -13 36 -40 53 -40 28 0 19 15 -18 32 -19 8 -35 12 -35
8z"/>
<path d="M1035 27 c-4 -10 -5 -21 -1 -24 10 -10 18 4 13 24 -4 17 -4 17 -12 0z"/>
<path d="M1190 10 c-13 -9 -13 -10 0 -10 8 0 22 5 30 10 13 9 13 10 0 10 -8 0
-22 -5 -30 -10z"/>
</g>
</svg>
