<?xml version="1.0" standalone="no"?>
<!DOCTYPE svg PUBLIC "-//W3C//DTD SVG 20010904//EN"
 "http://www.w3.org/TR/2001/REC-SVG-20010904/DTD/svg10.dtd">
<svg version="1.0" xmlns="http://www.w3.org/2000/svg"
 width="300.000000pt" height="300.000000pt" viewBox="0 0 300.000000 300.000000"
 preserveAspectRatio="xMidYMid meet">
<metadata>
Created by potrace 1.10, written by Peter Selinger 2001-2011
</metadata>
<g transform="translate(0.000000,300.000000) scale(0.100000,-0.100000)"
fill="#000000" stroke="none">
<path d="M650 2990 c-8 -5 -11 -10 -7 -10 5 0 -1 -13 -12 -28 -16 -23 -17 -32
-8 -41 9 -9 9 -14 0 -19 -15 -9 -9 -142 7 -152 9 -6 9 -9 1 -14 -6 -4 -13 -1
-15 6 -13 39 -14 42 -15 20 -1 -13 9 -32 22 -43 l22 -18 -24 -1 c-13 0 -21 -3
-18 -6 8 -9 -11 -44 -24 -44 -6 0 -7 6 -2 13 4 6 8 18 10 26 1 8 8 18 15 23
10 8 10 9 -2 6 -31 -8 -51 -69 -48 -146 2 -39 0 -72 -4 -72 -9 0 -18 -47 -24
-117 -3 -32 -8 -80 -12 -108 -6 -38 -4 -57 7 -77 18 -33 30 -36 28 -9 0 11 -4
18 -8 15 -14 -8 -21 18 -9 29 10 9 11 9 5 -2 -5 -9 -4 -12 3 -7 7 4 12 16 12
27 0 13 -4 18 -12 13 -7 -5 -8 -3 -3 7 5 7 10 29 12 47 2 19 10 47 18 63 8 15
15 33 15 38 0 6 8 20 17 30 19 22 26 51 13 51 -10 0 -24 -20 -25 -35 -2 -23
-28 -69 -32 -57 -3 7 0 19 7 27 6 8 9 19 5 24 -3 6 -1 20 5 31 6 11 7 20 2 20
-14 0 8 123 25 142 8 9 21 14 28 12 7 -3 16 0 21 7 5 9 2 10 -9 6 -10 -3 -17
-2 -17 2 0 5 6 11 14 14 11 4 14 18 11 47 -3 22 0 38 4 35 11 -6 9 14 -3 33
-4 8 -1 23 8 37 9 13 16 28 16 32 0 4 -5 0 -11 -10 -10 -18 -11 -18 -24 0 -12
16 -11 19 8 26 18 7 19 10 7 18 -13 8 -11 13 9 29 25 22 49 17 30 -6 -18 -21
-1 -17 24 7 12 11 17 19 11 17 -7 -2 -11 2 -10 7 0 6 3 9 6 8 3 -1 6 7 6 18 0
12 -6 18 -16 16 -8 -1 -14 -10 -14 -19 1 -10 -9 -18 -25 -21 -23 -5 -24 -4 -8
8 31 22 19 46 -13 25z"/>
<path d="M744 2989 c-3 -6 -1 -16 5 -22 13 -13 15 -41 1 -32 -5 3 -5 -8 2 -26
12 -36 21 -27 32 34 6 31 10 37 26 32 19 -6 37 11 25 23 -3 3 -10 0 -14 -7 -6
-9 -11 -10 -15 -2 -11 18 -26 13 -26 -9 0 -11 -5 -20 -11 -20 -5 0 -7 5 -4 10
3 6 0 10 -7 10 -9 0 -9 3 2 10 9 6 10 10 3 10 -6 0 -15 -5 -19 -11z"/>
<path d="M930 2989 c0 -5 -4 -7 -10 -4 -13 8 -13 -5 0 -25 9 -14 11 -13 14 10
0 6 8 15 16 20 13 8 12 10 -2 10 -10 0 -18 -5 -18 -11z"/>
<path d="M980 2980 c0 -11 4 -20 9 -20 5 0 11 9 14 20 3 13 0 20 -9 20 -8 0
-14 -9 -14 -20z"/>
<path d="M1169 2983 c-13 -16 -12 -17 4 -4 9 7 17 15 17 17 0 8 -8 3 -21 -13z"/>
<path d="M1247 2993 c-13 -12 -7 -25 6 -14 8 6 16 8 19 5 3 -3 9 -1 13 5 7 12
-27 15 -38 4z"/>
<path d="M1373 2993 c4 -3 2 -12 -5 -20 -8 -10 -8 -17 0 -25 9 -9 12 -8 12 4
0 9 3 23 6 32 4 10 1 16 -7 16 -7 0 -9 -3 -6 -7z"/>
<path d="M1418 2993 c6 -2 18 -2 25 0 6 3 1 5 -13 5 -14 0 -19 -2 -12 -5z"/>
<path d="M1525 2975 c17 -16 31 -23 33 -16 2 6 10 11 18 11 8 0 14 7 14 15 0
19 -5 19 -24 0 -14 -14 -18 -14 -43 1 l-28 16 30 -27z"/>
<path d="M1635 2989 c7 -11 35 -12 35 -1 0 4 -9 8 -20 9 -11 1 -18 -2 -15 -8z"/>
<path d="M1700 2984 c0 -20 42 -15 48 6 4 12 2 13 -9 3 -16 -15 -33 -17 -24
-3 3 6 1 10 -4 10 -6 0 -11 -7 -11 -16z"/>
<path d="M1770 2985 c0 -8 7 -15 15 -15 8 0 15 7 15 15 0 8 -7 15 -15 15 -8 0
-15 -7 -15 -15z"/>
<path d="M1816 2991 c-4 -5 -2 -12 3 -15 5 -4 12 -2 15 3 4 5 2 12 -3 15 -5 4
-12 2 -15 -3z"/>
<path d="M1860 2985 c-7 -9 -8 -15 -2 -15 5 0 12 7 16 15 3 8 4 15 2 15 -2 0
-9 -7 -16 -15z"/>
<path d="M1925 2944 c0 -43 2 -50 13 -41 11 8 13 7 12 -4 -5 -29 0 -50 10 -44
6 3 10 1 10 -4 0 -6 -5 -11 -11 -11 -5 0 -7 -5 -3 -11 4 -8 9 -7 14 2 7 10 11
10 24 0 14 -12 16 -11 16 6 0 11 -11 26 -25 33 -18 10 -24 19 -21 37 3 12 0
23 -5 23 -6 0 -10 10 -9 23 3 35 1 44 -12 44 -9 0 -13 -17 -13 -53z"/>
<path d="M1973 2985 c0 -8 4 -15 9 -15 4 0 8 4 8 9 0 6 -4 12 -8 15 -5 3 -9
-1 -9 -9z"/>
<path d="M2005 2990 c3 -5 8 -10 11 -10 2 0 4 5 4 10 0 6 -5 10 -11 10 -5 0
-7 -4 -4 -10z"/>
<path d="M2041 2971 c8 -23 7 -35 -6 -55 -12 -18 -14 -30 -7 -43 8 -13 6 -26
-10 -50 -11 -18 -16 -33 -11 -33 5 0 8 -13 5 -30 -4 -31 -22 -42 -22 -15 0 8
-9 23 -20 32 -11 10 -20 23 -20 29 0 6 -6 26 -14 44 l-13 32 -5 -25 c-3 -15
-1 -24 4 -21 5 4 9 -2 7 -12 -3 -27 11 -54 27 -54 8 0 14 -9 14 -20 0 -11 -4
-20 -10 -20 -5 0 -10 -4 -10 -9 0 -4 14 -7 31 -5 28 4 30 2 18 -13 -10 -12
-10 -14 -1 -9 6 4 12 2 12 -3 0 -6 -4 -11 -10 -11 -5 0 -10 -8 -10 -17 0 -15
2 -16 10 -3 8 13 10 12 10 -4 0 -12 5 -16 15 -12 9 3 19 -3 25 -14 6 -11 8
-20 4 -20 -3 0 -1 -7 7 -16 10 -13 10 -17 -1 -24 -12 -7 -12 -13 0 -36 11 -20
12 -28 3 -31 -7 -2 -9 -11 -6 -19 3 -8 0 -14 -7 -14 -6 0 -8 -5 -5 -10 4 -6
11 -8 16 -5 5 3 6 0 3 -8 -3 -8 -1 -18 5 -22 6 -3 11 -14 11 -23 -1 -12 -6 -8
-16 11 -19 35 -24 34 -24 -5 0 -26 3 -30 11 -18 11 15 10 9 -4 -55 -2 -11 -2
-14 0 -7 3 6 11 12 19 12 11 0 13 6 9 23 -7 22 -7 22 9 2 17 -23 21 -39 6 -30
-9 6 -16 -5 -36 -60 -8 -23 -15 -66 -8 -47 3 6 11 9 17 5 7 -4 8 0 4 11 -4 9
0 27 8 40 8 12 12 26 8 29 -3 4 -2 7 4 7 18 0 24 -30 11 -53 -6 -12 -11 -24
-10 -27 2 -10 -31 -115 -40 -127 -5 -7 -8 -22 -5 -35 4 -20 4 -19 6 5 0 17 5
26 11 22 6 -4 9 -20 6 -36 -2 -16 0 -27 4 -24 5 3 8 -13 7 -35 -2 -38 15 -71
32 -62 3 2 7 -2 9 -10 2 -9 0 -8 -7 2 -9 13 -11 13 -11 -2 0 -10 4 -18 10 -18
5 0 6 -7 3 -17 -4 -11 -3 -14 5 -9 8 4 12 0 12 -10 0 -14 3 -15 12 -6 10 10
10 15 1 20 -7 4 -12 18 -13 30 -1 56 -2 62 -10 62 -4 0 -11 -6 -13 -12 -4 -10
-6 -10 -6 -1 -1 6 3 15 9 18 6 3 6 13 1 23 -33 65 -41 101 -32 144 7 33 25 25
35 -15 4 -19 3 -26 -6 -25 -7 2 -12 -4 -10 -12 5 -29 45 -109 52 -105 4 3 7
-16 6 -41 -1 -25 2 -48 7 -51 5 -3 6 -12 3 -20 -4 -9 -1 -22 5 -29 6 -8 9 -27
7 -44 -3 -16 -1 -30 4 -30 4 0 8 16 8 35 0 19 5 35 10 35 15 0 12 -80 -4 -96
-9 -9 -15 -34 -14 -64 0 -27 -3 -54 -7 -60 -7 -12 23 -85 32 -77 2 3 0 14 -6
25 -14 26 -14 55 -1 47 12 -7 12 2 1 68 -6 37 -5 47 6 47 10 0 12 -11 8 -42
-3 -28 -2 -36 3 -24 6 14 11 16 16 8 4 -7 5 -16 1 -22 -12 -19 -17 -197 -6
-204 6 -4 11 -1 11 6 0 7 5 52 10 100 7 56 7 96 0 112 -5 14 -5 28 -1 31 5 3
7 14 4 25 -3 11 -9 17 -14 14 -5 -3 -9 22 -9 55 0 32 -3 66 -6 75 -5 14 -8 14
-21 1 -8 -9 -19 -12 -25 -9 -7 4 -7 9 0 13 7 4 8 29 3 68 -4 34 -4 60 0 57 4
-2 10 3 13 12 9 23 8 24 -11 17 -13 -5 -15 -2 -10 11 4 10 7 21 7 24 0 4 5 0
11 -8 9 -12 10 -10 6 8 -4 19 -2 22 14 17 16 -5 19 -1 18 27 0 32 -1 32 -10 8
-8 -19 -12 -22 -19 -10 -5 8 -6 19 -3 24 9 14 10 55 2 67 -3 6 -11 4 -19 -6
-10 -12 -10 -15 0 -15 10 0 10 -3 1 -14 -6 -8 -11 -18 -10 -22 3 -20 -2 -28
-10 -15 -7 10 -9 7 -8 -12 2 -19 5 -23 15 -15 16 14 14 2 -7 -47 l-18 -40 -7
70 c-4 38 -14 77 -22 86 -21 23 -4 64 27 66 13 1 26 -3 30 -9 4 -6 14 -8 23
-5 13 5 15 11 6 26 -5 11 -10 31 -10 45 0 14 -5 26 -11 26 -7 0 -9 -10 -5 -25
5 -18 2 -25 -9 -25 -12 0 -14 8 -11 35 3 26 1 35 -10 35 -8 0 -14 10 -14 23 0
13 -3 27 -7 31 -8 7 -9 11 -12 37 0 6 -8 9 -15 6 -20 -8 -28 21 -16 58 10 30
10 30 5 -5 -4 -31 -3 -33 8 -14 6 12 18 19 25 17 6 -3 12 0 12 7 0 6 -4 9 -9
6 -5 -3 -14 1 -21 9 -7 8 -16 12 -21 9 -10 -6 -11 11 -3 44 4 12 10 22 15 22
5 0 4 -11 -1 -24 -6 -18 -5 -26 4 -29 9 -4 13 5 12 31 -1 30 -5 38 -23 40 -14
2 -20 8 -16 18 4 11 9 12 19 3 11 -9 14 -8 14 5 0 18 -21 21 -37 5 -8 -8 -15
-5 -24 12 -17 31 -22 69 -10 69 6 0 7 8 4 18 -6 15 -5 15 10 3 15 -12 17 -11
17 2 0 9 -5 19 -10 22 -6 4 -7 11 -4 17 4 6 10 5 15 -3 6 -10 9 -10 9 -2 0 6
-4 14 -9 18 -6 3 -6 16 0 34 7 18 6 37 -1 55 -5 15 -6 25 -1 22 14 -9 20 16 9
37 -5 10 -7 25 -4 33 3 9 -1 14 -14 14 -17 0 -18 -4 -9 -29z m7 -96 c-3 -3 -9
2 -12 12 -6 14 -5 15 5 6 7 -7 10 -15 7 -18z m68 -507 c2 -10 0 -18 -5 -18
-12 0 -21 26 -20 58 l0 27 11 -25 c6 -14 13 -33 14 -42z m27 -65 c6 -49 -5
-61 -20 -23 -6 17 -7 28 -2 24 5 -3 9 1 9 10 0 8 -6 17 -12 19 -8 4 -7 6 3 6
12 1 18 -10 22 -36z m47 -48 c0 -8 -2 -15 -4 -15 -2 0 -6 7 -10 15 -3 8 -1 15
4 15 6 0 10 -7 10 -15z m-60 -173 c0 -15 -2 -15 -10 -2 -13 20 -13 33 0 25 6
-3 10 -14 10 -23z"/>
<path d="M2105 2992 c-3 -3 -5 -15 -5 -26 0 -12 -7 -31 -15 -44 -11 -15 -13
-27 -7 -39 16 -29 11 -136 -6 -149 -12 -9 -13 -13 -2 -19 9 -5 11 -4 6 3 -4 7
-1 12 7 12 16 0 32 -36 35 -83 1 -10 6 -16 12 -12 5 3 7 12 3 20 -3 9 1 15 10
15 8 0 17 -9 20 -19 3 -13 1 -18 -8 -15 -7 3 -16 -4 -20 -16 -7 -21 1 -106 12
-123 3 -6 1 -7 -4 -4 -6 4 -13 1 -16 -6 -7 -20 4 -68 15 -61 5 3 6 14 3 25 -5
15 -1 19 19 19 17 0 24 -4 20 -13 -3 -8 2 -20 10 -27 13 -10 17 -9 24 11 10
27 -5 86 -24 93 -19 7 -13 -35 6 -52 12 -10 11 -11 -10 -3 -19 6 -26 16 -28
44 -2 20 3 46 12 59 17 25 20 118 4 118 -5 0 -7 4 -3 9 3 6 -4 9 -15 8 -22 -1
-27 -13 -8 -19 9 -3 9 -6 0 -12 -8 -5 -16 3 -24 21 -13 32 -11 57 6 128 11 43
11 56 -5 100 -9 27 -16 51 -15 52 7 8 46 -12 43 -21 -6 -14 15 -101 26 -113 5
-4 6 -1 3 7 -5 13 -11 45 -20 105 -2 11 -4 23 -5 26 -1 8 -48 9 -56 1z m-2
-78 c-7 -3 -9 -13 -6 -22 5 -13 3 -14 -7 -5 -14 13 -5 33 13 32 9 0 9 -2 0 -5z
m13 -81 c-10 -10 -19 5 -10 18 6 11 8 11 12 0 2 -7 1 -15 -2 -18z"/>
<path d="M1026 2968 c-8 -13 -17 -36 -21 -53 -5 -27 -4 -26 15 9 11 22 25 43
31 47 8 4 8 8 1 13 -6 4 -18 -4 -26 -16z"/>
<path d="M1107 2976 c-4 -10 -5 -21 -2 -24 9 -9 17 6 13 25 -3 17 -4 17 -11
-1z"/>
<path d="M1316 2981 c-4 -6 0 -18 8 -27 12 -12 16 -12 16 -2 0 22 -17 42 -24
29z"/>
<path d="M866 2951 c3 -14 7 -35 11 -45 5 -19 6 -19 19 -1 19 25 18 46 -1 39
-8 -4 -15 -2 -15 4 0 6 6 12 12 14 7 3 3 7 -9 10 -18 5 -21 2 -17 -21z"/>
<path d="M1410 2963 c0 -12 5 -25 10 -28 13 -8 13 15 0 35 -8 12 -10 11 -10
-7z"/>
<path d="M1490 2961 c0 -6 4 -13 10 -16 6 -3 7 1 4 9 -7 18 -14 21 -14 7z"/>
<path d="M1652 2954 c10 -10 20 -16 22 -13 3 3 -5 11 -17 18 -21 13 -21 12 -5
-5z"/>
<path d="M2000 2954 c-9 -11 -10 -15 -2 -10 6 4 12 2 12 -3 0 -6 -4 -11 -9
-11 -5 0 -11 -7 -15 -15 -3 -10 1 -15 11 -15 9 0 13 3 10 7 -4 3 0 11 7 17 8
7 11 18 7 29 -7 18 -8 18 -21 1z"/>
<path d="M820 2951 c0 -5 -8 -11 -17 -13 -16 -3 -16 -4 -2 -10 9 -4 20 1 27
13 8 12 8 19 2 19 -5 0 -10 -4 -10 -9z"/>
<path d="M960 2896 c0 -35 -3 -73 -6 -83 -5 -12 -4 -15 4 -8 14 14 25 142 12
150 -6 4 -10 -18 -10 -59z"/>
<path d="M1050 2944 c0 -8 5 -12 10 -9 6 3 10 10 10 16 0 5 -4 9 -10 9 -5 0
-10 -7 -10 -16z"/>
<path d="M1202 2948 c2 -6 10 -13 16 -14 7 -1 8 0 2 3 -5 2 -8 9 -4 14 3 5 0
9 -6 9 -7 0 -10 -5 -8 -12z"/>
<path d="M1566 2937 c-7 -27 -1 -33 17 -15 11 11 11 16 2 25 -10 9 -14 7 -19
-10z"/>
<path d="M1710 2951 c0 -5 5 -13 10 -16 6 -3 10 -2 10 4 0 5 -4 13 -10 16 -5
3 -10 2 -10 -4z"/>
<path d="M1801 2944 c0 -11 3 -14 6 -6 3 7 2 16 -1 19 -3 4 -6 -2 -5 -13z"/>
<path d="M1780 2894 c14 -29 28 -53 32 -53 10 -1 4 25 -10 42 -7 7 -13 26 -14
40 -1 16 -8 25 -18 24 -12 -1 -11 -10 10 -53z"/>
<path d="M835 2930 c-5 -9 -4 -11 3 -6 8 5 12 -3 12 -24 0 -18 4 -29 10 -25
14 9 12 28 -3 50 -11 14 -16 15 -22 5z"/>
<path d="M1394 2918 c4 -15 1 -28 -5 -30 -6 -2 -10 -11 -8 -21 3 -13 8 -10 21
12 14 26 15 32 1 48 -13 17 -14 16 -9 -9z"/>
<path d="M1694 2921 c0 -11 5 -17 13 -14 10 4 11 9 2 19 -15 18 -15 18 -15 -5z"/>
<path d="M1075 2920 c-3 -5 -1 -10 4 -10 6 0 11 5 11 10 0 6 -2 10 -4 10 -3 0
-8 -4 -11 -10z"/>
<path d="M1601 2913 c-7 -8 -11 -16 -8 -19 2 -2 10 2 17 11 17 20 9 27 -9 8z"/>
<path d="M921 2904 c0 -11 3 -14 6 -6 3 7 2 16 -1 19 -3 4 -6 -2 -5 -13z"/>
<path d="M1230 2901 c0 -11 -6 -21 -12 -24 -10 -3 -9 -9 3 -22 16 -16 17 -14
17 24 0 23 -1 41 -4 41 -2 0 -4 -9 -4 -19z"/>
<path d="M1314 2912 c4 -6 0 -22 -7 -34 -8 -13 -17 -49 -20 -80 -4 -46 -3 -56
9 -51 15 5 17 17 14 70 -1 18 2 38 6 45 14 21 14 47 2 54 -7 4 -8 3 -4 -4z"/>
<path d="M730 2902 c0 -7 -6 -10 -12 -7 -7 4 -4 -1 7 -9 19 -16 19 -16 -3 -38
l-21 -22 -9 24 -9 24 -6 -23 c-3 -13 -3 -20 0 -17 4 3 13 1 20 -6 11 -9 17 -9
24 3 6 10 9 10 9 2 0 -18 13 -16 26 5 8 13 6 24 -8 47 -10 17 -18 24 -18 17z"/>
<path d="M792 2890 c-7 -11 -8 -20 -3 -20 9 0 24 30 18 36 -1 2 -8 -6 -15 -16z"/>
<path d="M1096 2894 c-4 -9 -4 -19 -1 -22 2 -3 7 3 11 12 4 9 4 19 1 22 -2 3
-7 -3 -11 -12z"/>
<path d="M1030 2878 c0 -16 5 -28 10 -28 13 0 13 20 0 40 -8 12 -10 9 -10 -12z"/>
<path d="M1859 2879 c-4 -40 4 -76 23 -107 18 -30 23 -33 28 -17 8 23 -11 69
-22 52 -4 -7 -8 -10 -8 -7 -7 68 -18 109 -21 79z"/>
<path d="M901 2864 c0 -11 3 -14 6 -6 3 7 2 16 -1 19 -3 4 -6 -2 -5 -13z"/>
<path d="M1136 2848 c-3 -17 -4 -33 -1 -36 3 -3 5 2 5 10 0 19 24 30 47 21 15
-6 16 -5 3 9 -12 12 -18 13 -29 4 -12 -9 -14 -8 -8 7 3 9 3 17 -2 17 -5 0 -11
-14 -15 -32z"/>
<path d="M870 2844 c0 -8 5 -12 10 -9 6 4 8 11 5 16 -9 14 -15 11 -15 -7z"/>
<path d="M780 2839 c0 -5 4 -8 9 -4 6 3 14 -3 20 -12 6 -11 13 -14 18 -8 5 6
7 9 4 8 -2 -1 -10 4 -18 12 -17 18 -33 19 -33 4z"/>
<path d="M1740 2841 c0 -6 4 -13 10 -16 6 -3 7 1 4 9 -7 18 -14 21 -14 7z"/>
<path d="M1248 2834 c-5 -4 -8 -16 -8 -28 0 -14 3 -17 11 -9 6 6 9 19 7 28 -1
9 -6 13 -10 9z"/>
<path d="M1416 2831 c-19 -7 -19 -8 2 -13 15 -4 22 -2 22 8 0 8 -1 14 -2 13
-2 0 -12 -4 -22 -8z"/>
<path d="M1480 2830 c-8 -5 -12 -11 -9 -14 2 -3 11 -1 19 4 8 5 12 11 9 14 -2
3 -11 1 -19 -4z"/>
<path d="M1804 2809 c0 -10 4 -19 8 -19 4 0 8 6 8 14 0 8 -4 17 -8 20 -4 2 -8
-4 -8 -15z"/>
<path d="M770 2803 c0 -34 17 -46 18 -14 0 17 -4 31 -9 31 -5 0 -9 -8 -9 -17z"/>
<path d="M880 2809 c0 -9 7 -22 16 -30 8 -7 13 -21 11 -31 -3 -10 -1 -18 4
-18 16 0 9 47 -11 71 -15 19 -19 20 -20 8z"/>
<path d="M1975 2809 c-4 -6 -5 -12 -2 -15 2 -3 7 2 10 11 7 17 1 20 -8 4z"/>
<path d="M1770 2800 c0 -5 5 -10 11 -10 5 0 7 5 4 10 -3 6 -8 10 -11 10 -2 0
-4 -4 -4 -10z"/>
<path d="M2150 2805 c0 -4 11 -22 24 -39 25 -34 34 -66 38 -134 1 -24 6 -46
11 -49 10 -6 -1 108 -14 153 -9 29 -59 88 -59 69z"/>
<path d="M684 2760 c0 -22 3 -40 8 -40 4 0 8 8 8 19 0 10 7 24 15 31 9 7 13
15 10 18 -3 3 -12 -3 -21 -14 -15 -18 -15 -18 -9 4 4 12 3 22 -2 22 -5 0 -9
-18 -9 -40z"/>
<path d="M853 2768 c3 -18 7 -40 9 -48 1 -8 -3 -14 -9 -12 -15 2 -18 -14 -4
-22 4 -3 15 2 24 12 13 14 14 25 5 60 -12 49 -33 57 -25 10z"/>
<path d="M1045 2790 c-3 -5 1 -10 9 -10 9 0 19 -14 25 -32 5 -18 10 -25 10
-16 1 24 -17 68 -28 68 -5 0 -13 -4 -16 -10z"/>
<path d="M804 2769 c-3 -6 -2 -15 3 -20 5 -5 9 -1 10 11 2 22 -2 25 -13 9z"/>
<path d="M980 2780 c-1 -3 -4 -14 -5 -25 -2 -11 -6 -29 -10 -40 -6 -17 -5 -17
9 3 10 12 15 32 13 45 -2 12 -5 20 -7 17z"/>
<path d="M754 2746 c-10 -21 -9 -23 9 -18 18 4 19 2 13 -24 -4 -16 -3 -24 1
-18 4 6 14 13 22 15 11 4 11 7 -1 19 -8 8 -19 23 -24 32 -8 15 -10 14 -20 -6z"/>
<path d="M1222 2750 c0 -14 2 -19 5 -12 2 6 2 18 0 25 -3 6 -5 1 -5 -13z"/>
<path d="M1621 2754 c0 -11 3 -14 6 -6 3 7 2 16 -1 19 -3 4 -6 -2 -5 -13z"/>
<path d="M1666 2757 c3 -10 9 -15 12 -12 3 3 0 11 -7 18 -10 9 -11 8 -5 -6z"/>
<path d="M1320 2729 c-6 -11 -9 -28 -7 -37 4 -14 5 -14 6 2 1 19 1 19 15 1 12
-17 13 -17 18 8 4 19 1 27 -9 27 -8 0 -11 5 -8 10 3 6 4 10 1 10 -3 0 -10 -9
-16 -21z"/>
<path d="M1827 2733 c3 -7 6 -13 8 -13 2 0 5 6 8 13 3 8 -1 14 -8 14 -7 0 -11
-6 -8 -14z"/>
<path d="M1874 2721 c9 -16 16 -44 18 -64 1 -20 7 -33 13 -31 6 3 11 -11 11
-34 1 -21 9 -53 19 -72 12 -23 16 -47 12 -76 -2 -24 -1 -41 3 -39 4 3 10 -2
14 -10 3 -8 1 -15 -4 -15 -9 0 -7 -33 5 -90 3 -14 5 -123 5 -242 l1 -218 33
-35 c18 -19 38 -35 45 -35 6 0 11 -15 11 -34 0 -25 -5 -35 -19 -39 -16 -4 -19
-15 -20 -94 -1 -49 -7 -116 -13 -149 -6 -32 -12 -160 -13 -284 -1 -164 -7
-273 -23 -400 -37 -293 -49 -348 -131 -619 -22 -74 -39 -137 -36 -139 7 -7 39
30 40 47 1 9 2 26 3 38 1 14 7 20 15 17 9 -3 12 6 9 35 -2 21 1 42 7 45 6 4
11 22 11 39 0 38 16 71 23 47 27 -96 27 -140 -1 -140 -12 0 -13 -3 -4 -12 18
-18 39 7 57 67 26 92 38 258 32 470 -5 207 5 201 18 -10 8 -139 -8 -377 -30
-449 -19 -61 -19 -66 0 -66 8 0 15 -6 15 -14 0 -16 28 -41 36 -33 4 3 -1 13
-10 22 -9 9 -19 28 -22 43 -3 15 -7 31 -8 37 -2 5 3 16 11 23 7 7 13 31 13 53
0 21 3 39 8 39 4 0 5 27 4 60 -3 39 0 60 7 60 6 0 11 8 11 18 0 14 2 15 10 2
7 -11 10 -7 12 20 6 95 3 140 -9 140 -12 0 -17 13 -14 34 1 4 -3 14 -9 20 -5
7 -7 16 -3 19 12 12 23 7 23 -10 0 -23 17 -49 26 -41 12 13 -25 78 -41 72 -10
-4 -15 0 -15 11 0 9 4 14 9 11 11 -7 33 87 25 108 -3 8 -12 17 -21 20 -8 4
-13 13 -9 21 3 8 1 17 -4 20 -5 3 -11 -3 -13 -12 -3 -13 -5 -12 -6 5 0 13 4
33 10 44 7 13 7 24 1 30 -5 5 -6 26 -3 46 4 20 4 51 0 67 -4 17 -6 48 -6 70 0
39 0 39 4 5 3 -19 13 -45 24 -56 16 -18 20 -34 18 -80 -2 -68 7 -104 27 -104
8 0 14 -7 14 -15 0 -8 4 -15 10 -15 14 0 30 -68 30 -127 0 -53 13 -71 23 -33
9 36 -5 169 -19 181 -8 7 -14 32 -15 58 0 25 -5 55 -10 66 -6 14 -8 4 -6 -38
2 -32 0 -60 -4 -63 -11 -7 -32 35 -25 51 3 8 1 17 -5 21 -6 4 -4 13 7 25 14
15 16 33 11 106 -3 49 -8 96 -12 106 -11 26 -29 21 -20 -5 5 -13 10 -43 12
-68 2 -25 6 -64 9 -86 3 -23 2 -44 -4 -48 -5 -3 -7 5 -4 19 2 14 -3 36 -13 51
-9 14 -16 37 -15 52 3 41 1 54 -8 48 -4 -2 -6 13 -4 35 3 26 0 39 -8 39 -8 0
-10 9 -6 28 5 20 4 23 -4 12 -8 -12 -10 -11 -10 8 0 14 4 21 11 17 7 -5 8 5 3
30 -5 30 -4 36 6 30 10 -6 12 1 6 33 -5 35 -3 43 16 56 19 14 20 16 5 16 -15
0 -17 6 -12 43 4 23 7 58 7 77 0 32 1 33 9 11 14 -36 21 -19 8 18 -9 27 -9 35
2 42 22 14 31 10 21 -8 -6 -10 -6 -27 0 -45 14 -39 29 -35 17 4 -11 41 -11 41
1 33 6 -3 10 3 10 14 0 12 -4 21 -9 21 -5 0 -12 11 -15 24 -3 13 -9 32 -12 41
-6 15 -4 16 14 6 26 -14 32 -14 32 1 0 6 -2 9 -6 6 -3 -3 -26 15 -51 41 l-45
46 22 -38 c12 -21 20 -41 16 -44 -3 -4 -6 -1 -6 5 0 7 -7 12 -15 12 -17 0 -39
36 -30 50 4 6 1 9 -7 8 -7 -2 -14 8 -16 21 -3 16 0 21 9 16 9 -6 10 0 5 26
-12 54 -14 83 -4 96 5 6 5 14 0 17 -6 3 -10 35 -11 71 0 37 3 64 8 61 5 -3 9
5 9 19 0 14 -4 22 -9 19 -12 -7 -11 33 1 57 8 15 7 21 -4 25 -12 4 -14 16 -11
44 3 20 -2 59 -10 85 -8 28 -11 55 -6 63 5 9 2 27 -7 46 -9 17 -16 54 -16 83
-1 39 -4 49 -13 41 -9 -8 -15 -4 -22 13 -5 14 -5 25 0 27 5 2 9 8 9 13 0 6 -5
7 -12 3 -8 -5 -9 -2 -5 9 4 11 1 17 -8 17 -8 0 -15 5 -15 10 0 6 -5 10 -10 10
-6 0 -4 -12 4 -29z m176 -1895 c0 -2 -7 -7 -16 -10 -8 -3 -12 -2 -9 4 6 10 25
14 25 6z m-11 -48 c-8 -14 -14 -18 -17 -10 -4 13 17 46 25 38 3 -2 -1 -15 -8
-28z m23 -236 c-5 -1 -8 -12 -5 -22 3 -11 0 -20 -6 -20 -6 0 -11 16 -11 36 0
32 2 35 16 23 9 -7 12 -15 6 -17z m-87 -69 c-5 -38 -8 -84 -7 -103 1 -19 -4
-66 -10 -105 l-11 -70 -12 40 c-7 23 -9 49 -4 62 5 14 4 23 -3 25 -9 3 -9 12
0 34 7 16 14 38 16 49 2 11 6 38 10 60 17 97 32 103 21 8z"/>
<path d="M2155 2740 c3 -5 8 -10 11 -10 2 0 4 5 4 10 0 6 -5 10 -11 10 -5 0
-7 -4 -4 -10z"/>
<path d="M929 2725 c-1 -5 -1 -14 0 -19 1 -5 -3 -12 -9 -16 -7 -4 -10 -18 -8
-31 4 -23 5 -23 13 -4 5 11 12 23 17 26 5 3 4 16 -1 30 -5 13 -11 20 -12 14z"/>
<path d="M1010 2710 c0 -11 -11 -27 -24 -35 -21 -14 -43 -45 -32 -45 5 0 56
50 80 78 19 22 19 22 -2 22 -15 0 -22 -6 -22 -20z"/>
<path d="M1270 2728 c-2 -5 -3 -11 -4 -15 -1 -5 -5 -15 -10 -23 -7 -11 -4 -11
9 2 9 9 15 22 12 30 -3 7 -6 10 -7 6z"/>
<path d="M1756 2708 c3 -5 10 -6 15 -3 13 9 11 12 -6 12 -8 0 -12 -4 -9 -9z"/>
<path d="M2053 2694 c18 -16 32 -23 38 -17 6 6 -5 16 -28 27 l-38 17 28 -27z"/>
<path d="M736 2698 c3 -5 10 -6 15 -3 13 9 11 12 -6 12 -8 0 -12 -4 -9 -9z"/>
<path d="M690 2685 c0 -8 2 -15 4 -15 2 0 11 -3 20 -6 23 -9 20 9 -4 24 -17
10 -20 10 -20 -3z"/>
<path d="M1067 2681 c-4 -17 -3 -21 5 -13 5 5 8 16 6 23 -3 8 -7 3 -11 -10z"/>
<path d="M1566 2685 c4 -8 11 -15 16 -15 6 0 5 6 -2 15 -7 8 -14 15 -16 15 -2
0 -1 -7 2 -15z"/>
<path d="M1615 2679 c-4 -6 -5 -12 -2 -15 2 -3 7 2 10 11 7 17 1 20 -8 4z"/>
<path d="M817 2667 c-3 -9 -9 -40 -11 -69 -3 -29 -3 -44 0 -33 3 11 8 27 11
35 4 8 7 17 7 20 1 3 8 16 15 29 7 13 8 21 3 17 -6 -3 -12 -1 -14 6 -3 8 -7 6
-11 -5z"/>
<path d="M862 2631 c-25 -56 -28 -73 -8 -65 14 6 41 84 35 103 -2 6 -14 -11
-27 -38z"/>
<path d="M730 2642 c-15 -14 -19 -22 -10 -20 15 3 46 37 39 42 -2 1 -15 -9
-29 -22z"/>
<path d="M1330 2662 c0 -12 19 -26 26 -19 2 2 -2 10 -11 17 -9 8 -15 8 -15 2z"/>
<path d="M1630 2666 c0 -2 8 -10 18 -17 15 -13 16 -12 3 4 -13 16 -21 21 -21
13z"/>
<path d="M1971 2654 c0 -11 3 -14 6 -6 3 7 2 16 -1 19 -3 4 -6 -2 -5 -13z"/>
<path d="M675 2650 c4 -6 -7 -13 -24 -16 -17 -4 -28 -11 -25 -16 3 -5 12 -7
20 -4 9 4 14 -2 15 -17 1 -17 2 -18 6 -4 3 10 9 14 16 10 7 -4 5 2 -3 12 -8
10 -10 16 -4 12 7 -4 14 -1 17 7 3 8 -1 17 -9 20 -9 3 -12 1 -9 -4z"/>
<path d="M1016 2634 c-8 -21 -8 -24 3 -24 5 0 11 9 14 20 6 24 -8 27 -17 4z"/>
<path d="M1140 2635 c0 -8 2 -15 4 -15 2 0 6 7 10 15 3 8 1 15 -4 15 -6 0 -10
-7 -10 -15z"/>
<path d="M1305 2626 c-5 -11 -3 -21 4 -25 7 -5 10 -22 7 -44 -2 -20 0 -37 5
-37 5 0 9 18 9 39 0 22 3 47 7 57 4 11 3 15 -4 11 -6 -4 -13 -1 -16 5 -3 9 -7
7 -12 -6z"/>
<path d="M907 2617 c-3 -7 -3 -25 0 -40 5 -24 2 -27 -17 -25 -13 2 -25 -3 -27
-12 -4 -13 -3 -13 6 0 15 22 26 3 13 -25 -9 -19 -9 -24 1 -22 14 2 47 82 47
115 0 24 -15 30 -23 9z"/>
<path d="M1695 2620 c3 -5 8 -10 11 -10 2 0 4 5 4 10 0 6 -5 10 -11 10 -5 0
-7 -4 -4 -10z"/>
<path d="M1830 2619 c0 -5 5 -7 10 -4 6 3 10 8 10 11 0 2 -4 4 -10 4 -5 0 -10
-5 -10 -11z"/>
<path d="M2005 2614 c4 -11 10 -29 12 -42 7 -32 18 -35 21 -6 1 13 -2 24 -7
24 -5 0 -8 7 -7 16 0 9 -5 19 -13 22 -11 3 -12 0 -6 -14z"/>
<path d="M1654 2605 c22 -17 40 -20 32 -6 -3 5 -16 11 -28 14 -22 6 -22 5 -4
-8z"/>
<path d="M706 2601 c-3 -5 1 -11 9 -15 9 -3 15 0 15 9 0 16 -16 20 -24 6z"/>
<path d="M1055 2600 c3 -5 10 -10 16 -10 5 0 9 5 9 10 0 6 -7 10 -16 10 -8 0
-12 -4 -9 -10z"/>
<path d="M1170 2564 c0 -27 -3 -67 -6 -89 -5 -37 -4 -39 10 -21 11 14 14 35
11 84 -5 78 -15 95 -15 26z"/>
<path d="M951 2584 c0 -11 3 -14 6 -6 3 7 2 16 -1 19 -3 4 -6 -2 -5 -13z"/>
<path d="M1124 2588 c3 -10 1 -20 -4 -23 -14 -8 -13 -42 1 -51 8 -4 9 1 4 16
-4 14 -3 25 5 30 10 6 10 12 0 26 -9 16 -11 16 -6 2z"/>
<path d="M1237 2593 c-4 -3 -7 -11 -7 -17 0 -6 5 -5 12 2 6 6 9 14 7 17 -3 3
-9 2 -12 -2z"/>
<path d="M422 2581 c-10 -6 -10 -10 2 -20 12 -10 15 -9 13 8 -1 12 -1 21 -2
21 0 0 -6 -4 -13 -9z"/>
<path d="M1760 2568 c0 -4 4 -8 9 -8 6 0 12 4 15 8 3 5 -1 9 -9 9 -8 0 -15 -4
-15 -9z"/>
<path d="M1965 2570 c3 -5 11 -10 16 -10 6 0 7 5 4 10 -3 6 -11 10 -16 10 -6
0 -7 -4 -4 -10z"/>
<path d="M2180 2571 c0 -6 8 -15 18 -18 9 -4 25 -16 35 -28 10 -11 17 -14 15
-6 -5 19 -68 67 -68 52z"/>
<path d="M1535 2550 c3 -5 8 -10 11 -10 2 0 4 5 4 10 0 6 -5 10 -11 10 -5 0
-7 -4 -4 -10z"/>
<path d="M1626 2550 c6 -8 13 -22 16 -30 3 -9 7 -10 11 -3 4 6 -3 19 -16 29
-12 11 -17 12 -11 4z"/>
<path d="M1735 2539 c-4 -6 -5 -12 -2 -15 2 -3 7 2 10 11 7 17 1 20 -8 4z"/>
<path d="M1974 2533 c3 -19 16 -28 16 -10 0 8 6 17 13 20 6 3 2 5 -9 4 -12 -1
-21 -7 -20 -14z"/>
<path d="M625 2530 c3 -5 8 -10 11 -10 2 0 4 5 4 10 0 6 -5 10 -11 10 -5 0 -7
-4 -4 -10z"/>
<path d="M2030 2522 c0 -5 7 -9 15 -9 8 0 12 4 9 9 -3 4 -9 8 -15 8 -5 0 -9
-4 -9 -8z"/>
<path d="M1250 2501 c0 -11 4 -22 9 -25 4 -3 6 6 3 19 -5 30 -12 33 -12 6z"/>
<path d="M921 2494 c0 -11 3 -14 6 -6 3 7 2 16 -1 19 -3 4 -6 -2 -5 -13z"/>
<path d="M1210 2499 c0 -5 5 -7 10 -4 6 3 10 8 10 11 0 2 -4 4 -10 4 -5 0 -10
-5 -10 -11z"/>
<path d="M2015 2490 c5 -15 2 -20 -12 -20 -13 0 -15 -2 -5 -9 7 -4 12 -12 11
-17 -4 -22 2 -45 10 -39 5 3 8 17 5 30 -2 14 0 34 6 44 7 14 6 20 -6 25 -12 4
-14 1 -9 -14z"/>
<path d="M651 2484 c0 -11 3 -14 6 -6 3 7 2 16 -1 19 -3 4 -6 -2 -5 -13z"/>
<path d="M1674 2473 c1 -19 5 -28 10 -23 6 6 5 18 -1 32 -10 21 -10 21 -9 -9z"/>
<path d="M1115 2479 c-11 -16 -1 -19 13 -3 7 8 8 14 3 14 -5 0 -13 -5 -16 -11z"/>
<path d="M691 2468 c0 -9 -4 -25 -7 -35 -5 -17 -5 -17 6 0 6 10 9 25 7 35 -4
15 -5 15 -6 0z"/>
<path d="M791 2464 c0 -11 3 -14 6 -6 3 7 2 16 -1 19 -3 4 -6 -2 -5 -13z"/>
<path d="M1082 2439 c-2 -21 -1 -39 2 -39 7 0 13 71 6 75 -3 2 -7 -14 -8 -36z"/>
<path d="M1890 2470 c0 -5 5 -10 11 -10 5 0 7 5 4 10 -3 6 -8 10 -11 10 -2 0
-4 -4 -4 -10z"/>
<path d="M1307 2455 c-4 -11 -10 -27 -13 -35 -3 -8 1 -5 11 8 9 12 15 28 13
34 -3 7 -7 4 -11 -7z"/>
<path d="M926 2434 c-4 -14 -5 -28 -3 -31 3 -2 8 8 11 23 4 14 5 28 3 31 -3 2
-8 -8 -11 -23z"/>
<path d="M1246 2451 c-14 -22 -25 -81 -15 -81 13 0 31 49 27 74 -2 16 -5 18
-12 7z"/>
<path d="M2287 2439 c7 -7 15 -10 18 -7 3 3 -2 9 -12 12 -14 6 -15 5 -6 -5z"/>
<path d="M2150 2418 c-7 -15 -9 -35 -6 -45 7 -16 9 -15 22 10 10 19 12 33 5
44 -8 16 -11 14 -21 -9z"/>
<path d="M651 2413 c0 -12 -7 -28 -13 -35 -16 -16 -21 -38 -10 -38 15 0 34 46
29 71 -4 22 -4 22 -6 2z"/>
<path d="M795 2420 c-3 -5 -3 -10 1 -10 3 0 -1 -12 -11 -26 -9 -15 -12 -23 -6
-20 16 10 14 -16 -5 -52 -19 -40 -39 -54 -29 -21 4 13 4 21 0 17 -5 -5 -9 -20
-11 -35 -3 -36 -23 -114 -34 -134 -4 -9 -5 -21 -1 -28 4 -7 15 15 25 51 10 35
30 88 45 118 34 66 56 189 26 140z"/>
<path d="M986 2383 c-8 -61 -2 -65 11 -8 6 25 7 48 3 50 -4 2 -10 -16 -14 -42z"/>
<path d="M1145 2420 c-3 -5 -1 -10 4 -10 6 0 11 5 11 10 0 6 -2 10 -4 10 -3 0
-8 -4 -11 -10z"/>
<path d="M1890 2414 c0 -8 5 -12 10 -9 6 4 8 11 5 16 -9 14 -15 11 -15 -7z"/>
<path d="M867 2372 c-4 -29 -11 -51 -15 -48 -5 3 -14 -5 -21 -17 -11 -18 -11
-20 0 -9 18 17 40 15 33 -3 -4 -8 -10 -12 -15 -9 -5 3 -9 -2 -9 -10 0 -9 -4
-16 -10 -16 -16 0 -38 -53 -46 -109 -6 -45 -5 -51 10 -45 9 3 16 17 16 31 0
45 23 104 49 126 17 14 26 31 25 47 -1 14 3 31 8 38 7 8 7 12 0 12 -6 0 -12
15 -14 33 -3 27 -4 24 -11 -21z"/>
<path d="M2340 2385 c64 -103 68 -298 9 -430 -8 -16 -18 -34 -24 -38 -6 -5 -5
-7 3 -5 18 5 57 82 70 137 5 24 9 89 7 145 -4 131 -5 136 -13 136 -4 0 -18 20
-32 45 -14 25 -28 45 -33 45 -5 0 1 -16 13 -35z"/>
<path d="M707 2370 c-8 -11 -17 -17 -22 -12 -5 4 -5 1 -1 -5 4 -7 10 -13 14
-13 11 1 44 50 33 50 -5 0 -16 -9 -24 -20z"/>
<path d="M1083 2337 c-1 -37 1 -46 7 -31 13 33 16 77 5 81 -6 1 -11 -20 -12
-50z"/>
<path d="M922 2320 c-6 -11 -8 -21 -3 -25 5 -3 13 4 16 16 9 28 2 33 -13 9z"/>
<path d="M1194 2304 c-2 -28 -1 -28 15 4 9 17 9 22 -1 22 -7 0 -14 -12 -14
-26z"/>
<path d="M1301 2314 c0 -11 3 -14 6 -6 3 7 2 16 -1 19 -3 4 -6 -2 -5 -13z"/>
<path d="M1660 2320 c0 -5 5 -10 11 -10 5 0 7 5 4 10 -3 6 -8 10 -11 10 -2 0
-4 -4 -4 -10z"/>
<path d="M683 2312 c-7 -4 -9 -13 -4 -21 6 -9 10 -7 14 8 3 12 4 21 4 21 -1 0
-7 -4 -14 -8z"/>
<path d="M581 2292 c-14 -26 -14 -72 -1 -72 6 0 8 11 4 25 -4 15 -1 32 6 40 7
9 10 18 7 21 -3 3 -10 -3 -16 -14z"/>
<path d="M957 2290 c-3 -11 -3 -20 -1 -20 2 0 8 9 14 20 6 11 7 20 2 20 -6 0
-12 -9 -15 -20z"/>
<path d="M645 2277 c-22 -28 -35 -57 -25 -57 5 0 10 5 10 10 0 6 7 10 15 10 9
0 15 9 15 25 0 28 -1 29 -15 12z"/>
<path d="M982 2246 c0 -29 2 -36 9 -24 5 10 5 26 0 40 -7 20 -9 17 -9 -16z"/>
<path d="M1136 2258 c-3 -7 -7 -29 -10 -48 -3 -19 -9 -47 -12 -62 -4 -18 -2
-28 5 -28 6 0 11 9 11 21 0 11 3 18 8 16 4 -3 7 21 7 54 0 59 -2 70 -9 47z"/>
<path d="M673 2243 c-4 -10 -11 -21 -16 -24 -5 -4 -5 -9 1 -13 6 -3 15 8 21
24 10 31 5 43 -6 13z"/>
<path d="M775 2249 c-4 -6 -5 -12 -2 -15 2 -3 7 2 10 11 7 17 1 20 -8 4z"/>
<path d="M1035 2230 c-3 -5 -1 -10 4 -10 6 0 11 5 11 10 0 6 -2 10 -4 10 -3 0
-8 -4 -11 -10z"/>
<path d="M1685 2230 c3 -5 8 -10 11 -10 2 0 4 5 4 10 0 6 -5 10 -11 10 -5 0
-7 -4 -4 -10z"/>
<path d="M2136 2217 c5 -14 2 -16 -12 -11 -16 6 -16 4 3 -15 40 -38 57 -24 23
19 -13 15 -18 18 -14 7z"/>
<path d="M749 2168 c-7 -29 -12 -65 -11 -80 1 -15 -2 -29 -8 -33 -5 -3 -10
-14 -9 -23 0 -11 2 -12 6 -4 2 6 8 10 12 8 3 -2 7 17 8 42 0 26 6 67 13 91 6
23 9 45 7 48 -3 2 -11 -20 -18 -49z"/>
<path d="M890 2205 c-6 -8 -10 -21 -8 -31 2 -11 7 -6 15 15 13 34 11 38 -7 16z"/>
<path d="M1191 2197 c-13 -21 -12 -21 5 -5 10 10 16 20 13 22 -3 3 -11 -5 -18
-17z"/>
<path d="M475 2170 c-4 -21 -4 -44 0 -50 3 -5 8 -33 10 -61 4 -51 4 -51 -15
-34 -11 10 -23 16 -26 12 -8 -8 15 -49 25 -43 14 9 16 -101 2 -118 -6 -7 -6
-18 -1 -26 5 -8 5 -19 1 -25 -18 -23 -41 -117 -41 -164 0 -28 -11 -85 -25
-128 -25 -74 -27 -129 -9 -177 3 -7 -2 -21 -11 -30 -18 -18 -44 -144 -45 -218
0 -26 5 -68 12 -93 10 -38 10 -47 -4 -57 -20 -17 -35 -64 -33 -108 l2 -35 -13
30 -13 30 1 -30 c0 -16 -5 -57 -11 -90 -11 -61 -14 -142 -4 -115 3 8 12 19 20
23 9 6 10 13 3 27 -14 25 -13 30 6 30 11 0 14 4 8 12 -14 20 -11 71 5 76 10 3
12 0 8 -12 -4 -10 -3 -15 3 -11 6 4 15 -7 21 -24 6 -17 15 -31 21 -31 5 0 6
-5 3 -10 -4 -6 -10 -8 -15 -5 -4 3 -10 -5 -13 -16 -3 -12 -10 -18 -16 -14 -6
3 -9 11 -6 16 4 5 2 9 -4 9 -5 0 -8 -12 -7 -27 2 -15 -2 -41 -9 -57 -8 -19
-10 -40 -5 -58 8 -27 6 -32 -15 -28 -5 1 -7 -2 -3 -6 4 -4 0 -13 -10 -20 -15
-11 -18 -8 -23 29 l-7 42 2 -45 c1 -36 4 -44 18 -42 12 2 15 -3 11 -18 -3 -11
-1 -20 5 -20 6 0 9 11 8 24 -2 14 3 27 10 30 19 7 26 -10 10 -24 -8 -6 -13
-20 -11 -30 2 -10 -3 -21 -12 -24 -9 -4 -14 -9 -11 -11 10 -11 38 8 38 25 0
10 6 23 14 29 11 9 15 7 19 -8 6 -23 -1 -34 -30 -50 -17 -9 -23 -21 -23 -47 0
-25 -3 -33 -12 -28 -9 6 -9 3 0 -9 8 -9 11 -21 7 -27 -3 -5 1 -10 9 -10 9 0
16 -6 17 -12 6 -78 7 -93 9 -93 1 0 3 -11 4 -25 2 -15 -6 -34 -22 -50 l-24
-25 12 25 c10 24 10 24 -4 6 -9 -11 -16 -32 -16 -48 0 -39 -14 -35 -27 7 -12
36 -7 45 31 59 11 4 16 12 12 22 -3 8 -2 12 4 9 6 -4 10 17 10 53 0 44 -4 61
-15 66 -18 7 -20 -5 -3 -23 11 -10 5 -20 -28 -49 l-41 -38 -2 -79 c-2 -88 2
-99 39 -102 20 -2 25 2 26 20 3 44 11 62 29 65 16 4 16 2 1 -19 -19 -28 -21
-69 -3 -69 9 0 12 10 9 30 -4 25 -1 29 12 24 19 -7 59 33 52 52 -3 7 0 14 5
16 6 2 -2 36 -20 81 -17 43 -31 88 -30 100 0 20 1 21 8 3 5 -14 10 -16 15 -7
4 6 3 17 -3 24 -11 15 -3 31 19 35 11 2 10 -1 -3 -12 -10 -8 -14 -17 -8 -20
19 -12 43 26 38 59 -3 17 0 41 7 53 10 18 11 9 10 -59 -2 -68 -5 -84 -24 -104
-25 -27 -23 -70 6 -122 15 -26 15 -27 9 -3 -16 61 -13 90 11 90 8 0 14 5 14
11 0 5 -5 7 -10 4 -6 -3 -10 -2 -10 4 0 5 6 11 12 13 9 3 13 28 14 71 0 36 -3
64 -8 61 -5 -3 -6 7 -3 23 11 49 14 55 27 47 7 -4 5 1 -4 12 -16 19 -16 20 2
32 11 7 20 22 19 35 l0 22 -11 -22 c-14 -28 -35 -36 -42 -16 -4 10 -2 14 8 10
12 -5 13 -1 6 17 -5 13 -7 26 -5 27 15 16 25 161 12 170 -5 3 -12 22 -17 42
-6 29 -4 39 11 53 11 9 19 23 19 31 0 7 5 13 11 13 5 0 7 -4 4 -10 -3 -5 -1
-10 4 -10 12 0 13 5 13 45 0 42 -2 46 -13 39 -8 -4 -7 -9 2 -15 11 -7 11 -9 1
-9 -7 0 -15 -8 -19 -17 -3 -10 -17 -27 -31 -38 -18 -16 -26 -35 -32 -80 -4
-33 -8 -52 -9 -43 0 9 -9 22 -18 27 -12 7 -14 10 -4 11 8 0 11 7 8 20 -3 11
-1 18 4 14 5 -3 9 4 9 16 0 14 -5 20 -17 18 -25 -4 -26 46 -2 68 10 9 16 21
13 25 -3 5 2 6 10 3 8 -3 16 2 20 13 7 24 -1 82 -14 98 -8 9 -8 14 1 17 8 3 6
9 -5 21 -10 9 -13 17 -7 17 6 0 11 5 11 11 0 5 -4 7 -10 4 -16 -10 -12 21 5
35 8 7 12 17 8 24 -4 6 0 5 9 -2 18 -15 34 0 22 20 -5 7 -3 8 7 2 21 -13 39
-14 39 -2 0 6 -7 8 -15 4 -10 -3 -15 1 -15 14 0 10 -5 22 -10 25 -6 4 -7 11
-4 17 4 6 10 5 15 -3 6 -9 9 -2 9 23 0 28 -5 38 -20 43 -11 4 -18 10 -16 14 3
4 0 24 -6 43 -10 35 -4 97 10 84 3 -4 5 -24 3 -45 -1 -22 3 -42 8 -46 6 -3 8
-11 5 -17 -4 -7 2 -8 17 -3 34 11 36 15 16 29 -9 7 -17 21 -17 30 0 10 -5 14
-11 10 -7 -4 -10 -1 -7 7 3 8 10 13 15 12 5 -1 9 8 10 20 0 12 -1 16 -4 10 -8
-22 -23 -14 -23 12 0 14 7 28 15 31 8 4 12 10 9 15 -3 5 -10 7 -15 4 -16 -11
-10 7 9 22 10 9 11 12 2 7 -12 -6 -13 -4 -2 7 14 15 16 33 3 25 -5 -4 -7 3 -4
14 5 21 33 28 33 9 0 -5 4 -8 8 -5 5 3 9 -1 9 -8 0 -9 -7 -12 -16 -8 -13 5
-14 3 -3 -10 7 -8 10 -23 6 -32 -3 -9 -2 -16 4 -16 10 0 23 44 28 98 2 19 8
40 15 48 9 11 9 14 -1 14 -7 0 -10 7 -6 16 3 8 2 13 -2 10 -5 -3 -9 -22 -10
-42 -1 -35 -23 -66 -30 -44 -2 6 -8 8 -13 4 -5 -3 -14 -2 -20 2 -7 4 -1 17 16
34 22 23 28 41 32 87 3 32 9 66 14 75 5 9 9 23 9 30 -1 7 -8 1 -16 -14 -8 -16
-16 -28 -18 -28 -7 0 6 44 17 58 5 6 5 12 1 12 -14 0 -5 141 11 172 14 28 11
56 -8 96 -15 32 -24 27 -32 -18z m35 -41 c0 -18 -4 -28 -10 -24 -5 3 -10 20
-10 36 0 18 4 28 10 24 6 -3 10 -20 10 -36z m-43 -406 c-16 -16 -17 -16 -17 0
0 11 4 15 12 11 8 -5 9 -1 4 12 -6 15 -5 17 5 6 11 -10 10 -15 -4 -29z m-61
-449 c-9 -13 -21 -24 -27 -24 -8 0 -7 5 1 15 7 8 10 22 6 30 -3 9 -2 13 4 10
6 -3 10 2 10 12 1 17 1 17 11 0 8 -14 7 -24 -5 -43z m34 46 c0 -5 -5 -10 -11
-10 -5 0 -7 5 -4 10 3 6 8 10 11 10 2 0 4 -4 4 -10z m-26 -85 c-4 -8 -12 -15
-20 -15 -8 0 -14 -5 -14 -12 0 -9 -3 -9 -12 0 -10 10 -10 15 2 22 8 5 17 7 21
4 4 -2 10 0 14 6 9 15 15 12 9 -5z m-35 -215 l0 -35 -15 34 c-16 38 -11 78 6
51 6 -8 10 -31 9 -50z m61 -144 c0 -3 -4 -8 -10 -11 -5 -3 -10 -1 -10 4 0 6 5
11 10 11 6 0 10 -2 10 -4z m-24 -109 c1 -7 5 -32 8 -57 l6 -45 -14 35 c-15 36
-21 99 -9 86 4 -3 8 -12 9 -19z m-17 -108 c-12 -8 -12 -10 0 -18 9 -6 10 -10
2 -16 -8 -5 -9 -11 -2 -19 8 -9 7 -13 -2 -13 -6 0 -21 -4 -32 -9 -19 -8 -20
-7 -2 19 9 15 14 27 10 27 -5 0 -15 -12 -24 -26 -13 -21 -17 -23 -22 -10 -4 9
-2 16 4 16 6 0 8 4 5 9 -3 5 8 23 24 41 17 18 30 40 31 49 0 9 5 3 11 -13 8
-22 7 -30 -3 -37z m0 -141 c-1 -77 -7 -101 -24 -95 -12 5 -61 -50 -52 -59 2
-3 14 10 26 28 11 18 21 31 22 28 8 -27 4 -50 -8 -50 -8 0 -22 -13 -31 -30
-22 -38 -29 -38 -28 3 0 23 11 43 37 69 37 38 41 59 25 131 -4 19 -3 26 4 22
5 -3 10 -1 10 4 0 6 5 11 10 11 6 0 10 -27 9 -62z m-53 26 c-6 -31 -16 -45
-16 -21 0 18 10 47 16 47 3 0 2 -12 0 -26z m45 -301 c-12 -20 -14 -14 -5 12 4
9 9 14 11 11 3 -2 0 -13 -6 -23z m-46 -33 c3 -5 1 -10 -4 -10 -6 0 -11 5 -11
10 0 6 2 10 4 10 3 0 8 -4 11 -10z m-67 -12 c-2 -6 -10 -14 -16 -16 -7 -2 -10
2 -6 12 7 18 28 22 22 4z m82 -52 c-5 -5 -6 -15 -3 -22 3 -8 0 -14 -5 -14 -18
0 -23 18 -9 32 8 7 12 22 10 33 -3 20 -3 20 6 0 5 -11 5 -24 1 -29z m-104 9
c-11 -8 -25 -15 -30 -15 -6 0 -2 7 8 15 11 8 25 15 30 15 6 0 2 -7 -8 -15z
m104 -64 c0 -12 -20 -25 -27 -18 -7 7 6 27 18 27 5 0 9 -4 9 -9z m-114 -63
c-12 -8 -26 9 -26 31 0 11 5 9 19 -5 12 -12 14 -21 7 -26z"/>
<path d="M560 2200 c0 -5 5 -10 11 -10 5 0 7 5 4 10 -3 6 -8 10 -11 10 -2 0
-4 -4 -4 -10z"/>
<path d="M1078 2133 c-4 -82 3 -106 25 -84 9 10 9 12 0 7 -9 -5 -12 13 -10 74
3 103 -10 105 -15 3z"/>
<path d="M976 2174 c-4 -14 -5 -28 -3 -31 3 -2 8 8 11 23 4 14 5 28 3 31 -3 2
-8 -8 -11 -23z"/>
<path d="M590 2178 c0 -9 5 -20 10 -23 13 -8 13 5 0 25 -8 13 -10 13 -10 -2z"/>
<path d="M1041 2174 c0 -11 3 -14 6 -6 3 7 2 16 -1 19 -3 4 -6 -2 -5 -13z"/>
<path d="M635 2170 c3 -5 8 -10 11 -10 2 0 4 5 4 10 0 6 -5 10 -11 10 -5 0 -7
-4 -4 -10z"/>
<path d="M691 2164 c0 -11 3 -14 6 -6 3 7 2 16 -1 19 -3 4 -6 -2 -5 -13z"/>
<path d="M1546 2165 c-3 -8 -1 -15 4 -15 6 0 10 7 10 15 0 8 -2 15 -4 15 -2 0
-6 -7 -10 -15z"/>
<path d="M2031 2164 c0 -11 3 -14 6 -6 3 7 2 16 -1 19 -3 4 -6 -2 -5 -13z"/>
<path d="M1935 2160 c-3 -5 -1 -10 4 -10 6 0 11 5 11 10 0 6 -2 10 -4 10 -3 0
-8 -4 -11 -10z"/>
<path d="M535 2140 c-3 -5 1 -10 10 -10 9 0 13 5 10 10 -3 6 -8 10 -10 10 -2
0 -7 -4 -10 -10z"/>
<path d="M848 2117 c-3 -19 -2 -25 4 -19 6 6 8 18 6 28 -3 14 -5 12 -10 -9z"/>
<path d="M2276 2127 c3 -10 9 -15 12 -12 3 3 0 11 -7 18 -10 9 -11 8 -5 -6z"/>
<path d="M673 2115 c0 -8 4 -15 9 -15 4 0 8 4 8 9 0 6 -4 12 -8 15 -5 3 -9 -1
-9 -9z"/>
<path d="M1041 2114 c0 -11 3 -14 6 -6 3 7 2 16 -1 19 -3 4 -6 -2 -5 -13z"/>
<path d="M550 2110 c-12 -8 -13 -10 -1 -10 9 0 6 -7 -8 -19 -21 -19 -22 -20
-3 -18 11 0 24 8 30 17 14 22 1 42 -18 30z"/>
<path d="M646 2107 c3 -10 9 -15 12 -12 3 3 0 11 -7 18 -10 9 -11 8 -5 -6z"/>
<path d="M1885 2110 c-3 -5 1 -10 10 -10 9 0 13 5 10 10 -3 6 -8 10 -10 10 -2
0 -7 -4 -10 -10z"/>
<path d="M1723 2095 c0 -8 4 -12 9 -9 4 3 8 9 8 15 0 5 -4 9 -8 9 -5 0 -9 -7
-9 -15z"/>
<path d="M1941 2094 c0 -11 3 -14 6 -6 3 7 2 16 -1 19 -3 4 -6 -2 -5 -13z"/>
<path d="M620 2079 c0 -6 -10 -8 -22 -4 -18 5 -20 4 -8 -4 12 -9 12 -13 2 -19
-8 -5 -10 -16 -5 -28 6 -17 8 -17 13 6 4 16 13 25 25 25 23 0 31 21 10 28 -8
4 -15 2 -15 -4z"/>
<path d="M1898 2083 c6 -2 10 -9 7 -14 -4 -5 1 -6 10 -2 13 5 14 7 3 14 -7 5
-17 8 -23 8 -5 0 -4 -3 3 -6z"/>
<path d="M790 2070 c0 -5 5 -10 11 -10 5 0 7 5 4 10 -3 6 -8 10 -11 10 -2 0
-4 -4 -4 -10z"/>
<path d="M961 2054 c0 -11 3 -14 6 -6 3 7 2 16 -1 19 -3 4 -6 -2 -5 -13z"/>
<path d="M1830 2060 c0 -5 5 -10 10 -10 6 0 10 5 10 10 0 6 -4 10 -10 10 -5 0
-10 -4 -10 -10z"/>
<path d="M1865 2062 c10 -6 11 -16 6 -39 -4 -20 -31 -44 -41 -38 -8 5 -4 15
11 31 l22 24 -21 0 c-15 0 -20 -5 -16 -15 4 -9 0 -15 -10 -15 -9 0 -16 5 -16
11 0 5 -4 7 -10 4 -5 -3 -10 -1 -10 4 0 6 -4 11 -9 11 -5 0 -7 -9 -4 -20 3
-11 0 -27 -7 -35 -10 -12 -15 -13 -28 -3 -13 11 -14 10 -10 -2 3 -8 1 -23 -4
-33 -9 -17 -8 -17 15 -3 13 9 30 27 37 41 16 29 27 28 48 -3 12 -18 12 -22 1
-22 -8 0 -22 -12 -32 -25 -17 -24 -17 -25 1 -22 23 3 73 42 65 51 -3 3 -1 6 5
6 5 0 12 -5 14 -11 2 -7 9 -5 18 5 10 13 10 16 1 14 -8 -2 -15 5 -16 15 -2 9
1 17 6 17 5 0 8 3 8 8 -3 20 3 23 18 11 13 -11 13 -8 -2 13 -11 15 -27 27 -35
28 -9 0 -11 -3 -5 -8z"/>
<path d="M2216 2029 c4 -30 2 -39 -7 -33 -9 5 -10 0 -5 -20 4 -16 2 -26 -4
-26 -7 0 -7 -7 1 -22 12 -22 12 -22 20 -2 15 42 15 144 0 144 -6 0 -8 -18 -5
-41z"/>
<path d="M510 2034 c0 -8 5 -12 10 -9 6 4 8 11 5 16 -9 14 -15 11 -15 -7z"/>
<path d="M540 2035 c0 -8 4 -15 10 -15 5 0 7 7 4 15 -4 8 -8 15 -10 15 -2 0
-4 -7 -4 -15z"/>
<path d="M680 2038 c0 -9 5 -20 10 -23 13 -8 13 5 0 25 -8 13 -10 13 -10 -2z"/>
<path d="M1566 2037 c3 -10 9 -15 12 -12 3 3 0 11 -7 18 -10 9 -11 8 -5 -6z"/>
<path d="M1707 2037 c-4 -10 -7 -26 -7 -35 1 -15 2 -15 11 1 6 10 9 25 7 35
-3 16 -4 15 -11 -1z"/>
<path d="M640 2030 c0 -5 5 -10 10 -10 6 0 10 5 10 10 0 6 -4 10 -10 10 -5 0
-10 -4 -10 -10z"/>
<path d="M1280 2030 c0 -5 5 -10 11 -10 5 0 7 5 4 10 -3 6 -8 10 -11 10 -2 0
-4 -4 -4 -10z"/>
<path d="M1230 2010 c13 -25 30 -26 30 -2 0 14 -2 15 -10 2 -8 -13 -10 -12
-10 3 0 9 -5 17 -10 17 -7 0 -7 -6 0 -20z"/>
<path d="M1382 2015 c0 -11 4 -31 8 -45 6 -20 8 -21 8 -5 0 11 -4 31 -8 45 -6
20 -8 21 -8 5z"/>
<path d="M921 2004 c0 -11 3 -14 6 -6 3 7 2 16 -1 19 -3 4 -6 -2 -5 -13z"/>
<path d="M1017 2013 c-10 -9 -9 -23 1 -23 5 0 9 7 9 15 0 17 -1 18 -10 8z"/>
<path d="M1362 2000 c0 -14 2 -19 5 -12 2 6 2 18 0 25 -3 6 -5 1 -5 -13z"/>
<path d="M1745 2009 c-4 -6 -5 -12 -2 -15 2 -3 7 2 10 11 7 17 1 20 -8 4z"/>
<path d="M512 1974 c2 -27 5 -32 13 -21 5 8 13 14 17 13 3 -1 10 3 15 8 5 5 3
6 -4 2 -8 -4 -13 -1 -13 7 0 8 -7 18 -15 21 -13 4 -15 -2 -13 -30z"/>
<path d="M578 1975 c5 -36 20 -55 17 -23 -1 13 3 30 9 38 9 13 9 13 -6 2 -13
-11 -17 -11 -21 0 -2 7 -2 0 1 -17z"/>
<path d="M636 1995 c4 -8 8 -15 10 -15 2 0 4 7 4 15 0 8 -4 15 -10 15 -5 0 -7
-7 -4 -15z"/>
<path d="M718 1980 c-2 -16 0 -32 6 -34 6 -3 -1 -16 -16 -30 -16 -14 -28 -36
-28 -50 0 -14 -5 -28 -10 -31 -8 -5 -8 -11 0 -20 8 -10 7 -14 -2 -18 -11 -4
-10 -6 0 -6 7 -1 11 -5 8 -9 -2 -4 -1 -14 5 -22 6 -11 9 -1 9 30 0 30 10 67
31 109 21 42 29 71 25 87 -9 33 -23 30 -28 -6z"/>
<path d="M799 2008 c-7 -26 -7 -53 1 -66 7 -13 9 -7 10 26 0 23 -2 42 -5 42
-3 0 -5 -1 -6 -2z"/>
<path d="M1070 1935 c0 -43 2 -76 4 -74 8 7 10 139 3 146 -4 3 -7 -29 -7 -72z"/>
<path d="M1331 1985 c0 -16 4 -37 9 -45 8 -12 10 -10 9 10 0 14 -4 34 -9 45
-7 17 -9 16 -9 -10z"/>
<path d="M1896 2001 c-4 -5 3 -7 14 -4 23 6 26 13 6 13 -8 0 -17 -4 -20 -9z"/>
<path d="M660 1980 c0 -5 5 -10 10 -10 6 0 10 5 10 10 0 6 -4 10 -10 10 -5 0
-10 -4 -10 -10z"/>
<path d="M1918 1983 c6 -2 18 -2 25 0 6 3 1 5 -13 5 -14 0 -19 -2 -12 -5z"/>
<path d="M2031 1974 c0 -11 3 -14 6 -6 3 7 2 16 -1 19 -3 4 -6 -2 -5 -13z"/>
<path d="M861 1964 c0 -11 3 -14 6 -6 3 7 2 16 -1 19 -3 4 -6 -2 -5 -13z"/>
<path d="M425 1957 c-9 -21 14 -99 26 -91 13 8 10 44 -5 79 -12 26 -15 28 -21
12z"/>
<path d="M634 1956 c-10 -25 0 -38 13 -17 8 13 9 22 3 26 -6 4 -13 -1 -16 -9z"/>
<path d="M1920 1966 c0 -2 7 -7 16 -10 8 -3 12 -2 9 4 -6 10 -25 14 -25 6z"/>
<path d="M1311 1934 c0 -11 3 -14 6 -6 3 7 2 16 -1 19 -3 4 -6 -2 -5 -13z"/>
<path d="M1665 1940 c-4 -6 -8 -25 -11 -42 -5 -40 11 -24 21 20 7 32 2 42 -10
22z"/>
<path d="M530 1925 c-8 -9 -8 -15 -2 -15 12 0 26 19 19 26 -2 2 -10 -2 -17
-11z"/>
<path d="M1109 1920 c-1 -14 -2 -41 -3 -60 -2 -19 -14 -58 -29 -87 -24 -47
-25 -54 -13 -78 15 -29 31 -18 21 14 -14 44 53 131 106 137 50 6 171 -16 193
-35 48 -42 89 -160 89 -255 -1 -206 -89 -430 -180 -452 -59 -15 -126 20 -166
89 -42 72 -88 259 -66 273 5 3 9 13 9 22 0 11 -6 6 -15 -12 -17 -32 -20 -122
-5 -131 6 -3 10 -17 10 -31 0 -14 -4 -22 -10 -19 -19 12 -10 -13 10 -26 16
-11 21 -26 21 -72 1 -31 6 -60 10 -63 5 -3 9 4 9 15 0 36 19 32 26 -5 4 -20 9
-31 13 -26 4 7 29 -1 66 -19 38 -18 63 -25 69 -19 6 6 15 5 25 -3 10 -8 13 -9
8 0 -4 7 1 14 12 18 10 3 31 18 46 33 l28 27 -7 -35 c-3 -19 -9 -46 -12 -60
-16 -73 -16 -102 1 -147 20 -51 44 -85 57 -77 4 3 8 -2 8 -10 0 -17 25 -22 35
-6 3 5 -11 18 -32 29 -54 27 -67 63 -59 162 4 44 18 117 31 162 78 260 86 297
79 372 -7 79 3 100 36 70 12 -11 20 -13 25 -6 3 6 -2 11 -12 12 -14 0 -14 2 5
9 41 17 49 5 41 -58 -10 -66 0 -118 12 -67 l7 30 1 -32 c0 -17 -3 -34 -7 -37
-10 -6 18 -106 30 -106 11 0 10 8 -3 50 -5 19 -10 78 -9 132 l1 96 -31 7 c-17
4 -48 4 -70 0 -32 -5 -40 -4 -40 8 0 26 109 37 132 13 10 -11 17 -1 39 56 15
38 34 80 43 93 21 32 164 79 221 72 37 -5 38 -4 20 9 -11 8 -25 12 -32 10 -6
-3 -14 5 -16 17 -4 21 -4 21 -6 -2 -1 -15 -6 -21 -15 -18 -7 3 -18 1 -24 -5
-5 -5 -26 -10 -46 -10 -20 0 -36 -3 -36 -7 0 -3 -20 -17 -44 -31 -45 -24 -78
-71 -92 -133 -6 -26 -8 -27 -60 -24 -30 2 -54 0 -54 -4 0 -4 -7 -6 -16 -5 -18
3 -67 84 -58 97 3 5 -4 23 -16 40 -14 19 -20 39 -17 55 2 13 0 27 -4 30 -5 3
-9 -10 -9 -29 l0 -35 -47 6 c-27 3 -54 12 -61 21 -10 12 -12 12 -6 1 7 -13 6
-13 -10 -1 -11 10 -20 11 -24 4 -4 -5 -33 -13 -64 -17 l-58 -6 0 32 c0 24 3
29 10 18 8 -12 10 -12 16 3 4 10 2 23 -5 30 -8 8 -11 7 -11 -3 0 -13 -2 -13
-10 0 -8 12 -10 10 -11 -10z"/>
<path d="M1180 1921 c13 -26 27 -34 35 -21 3 5 1 10 -4 10 -6 0 -11 7 -11 15
0 8 -7 15 -15 15 -12 0 -14 -4 -5 -19z"/>
<path d="M1740 1930 c0 -5 -7 -10 -15 -10 -9 0 -15 -9 -15 -22 0 -22 0 -22 25
4 27 29 31 38 15 38 -5 0 -10 -4 -10 -10z"/>
<path d="M680 1919 c0 -5 5 -7 10 -4 6 3 10 8 10 11 0 2 -4 4 -10 4 -5 0 -10
-5 -10 -11z"/>
<path d="M770 1920 c0 -5 5 -10 11 -10 5 0 7 5 4 10 -3 6 -8 10 -11 10 -2 0
-4 -4 -4 -10z"/>
<path d="M1350 1911 c0 -6 4 -13 10 -16 6 -3 7 1 4 9 -7 18 -14 21 -14 7z"/>
<path d="M2071 1903 c-1 -12 -6 -25 -12 -28 -6 -4 0 -16 15 -29 15 -12 26 -27
26 -34 0 -10 19 -17 42 -13 4 0 6 -31 5 -69 -1 -39 -5 -70 -9 -70 -3 0 -4 -9
-1 -20 3 -11 2 -28 -2 -37 -5 -10 -7 -21 -7 -25 3 -13 -16 -9 -22 5 -3 6 -3
-8 0 -33 9 -65 20 -69 28 -9 4 31 11 48 16 43 5 -5 5 -25 0 -49 -6 -25 -5 -44
0 -49 6 -6 10 -18 10 -28 0 -10 5 -18 10 -18 6 0 9 3 8 8 -1 4 2 24 6 45 6 27
4 47 -9 73 -10 22 -16 55 -15 87 5 113 0 218 -10 212 -5 -3 -10 -16 -10 -28 0
-18 -2 -19 -10 -7 -8 12 -10 12 -10 -5 -1 -16 -4 -14 -17 10 -9 17 -20 44 -24
60 -5 23 -7 25 -8 8z m102 -398 c-7 -21 -13 -19 -13 6 0 11 4 18 10 14 5 -3 7
-12 3 -20z"/>
<path d="M564 1876 c4 -28 0 -46 -13 -65 -25 -36 -36 -60 -17 -37 16 20 16 20
17 0 0 -12 5 -6 13 16 24 66 26 86 10 106 -14 18 -15 16 -10 -20z"/>
<path d="M1296 1885 c20 -30 24 -31 17 -6 -3 11 -11 22 -19 25 -11 4 -11 0 2
-19z"/>
<path d="M1330 1888 c0 -9 5 -20 10 -23 13 -8 13 5 0 25 -8 13 -10 13 -10 -2z"/>
<path d="M788 1865 c-19 -25 -25 -70 -8 -60 8 5 32 76 27 81 -1 1 -10 -8 -19
-21z"/>
<path d="M893 1845 c0 -22 2 -30 4 -17 2 12 2 30 0 40 -3 9 -5 -1 -4 -23z"/>
<path d="M537 1856 c-6 -14 0 -26 14 -26 8 0 6 26 -3 35 -3 3 -8 -1 -11 -9z"/>
<path d="M1885 1863 c-43 -9 -131 -36 -156 -49 -38 -19 -94 -159 -94 -234 1
-121 30 -263 70 -340 19 -37 71 -80 97 -80 33 0 86 30 104 58 15 25 13 24 -18
-5 -36 -35 -53 -41 -61 -20 -4 10 -6 9 -6 0 -1 -18 -30 -16 -38 3 -3 9 -12 13
-21 9 -9 -3 -13 -3 -9 1 4 4 -3 12 -16 19 -15 7 -22 19 -21 38 1 14 -2 24 -7
22 -4 -3 -11 0 -15 6 -3 6 -1 15 6 19 9 6 9 10 -3 17 -9 4 -17 24 -19 43 -1
19 -6 38 -10 41 -5 3 -11 50 -14 105 -6 100 1 139 48 244 14 32 64 57 123 62
22 2 42 6 45 10 3 3 17 9 32 13 24 6 29 3 38 -20 5 -14 11 -81 11 -148 1 -67
4 -176 8 -242 l6 -120 12 53 c19 79 36 284 29 335 -4 26 -13 48 -22 51 -8 3
-13 10 -9 16 11 17 -43 102 -63 99 -4 -1 -16 -3 -27 -6z m92 -165 c-3 -7 -5
-2 -5 12 0 14 2 19 5 13 2 -7 2 -19 0 -25z m12 -65 c0 -36 -2 -43 -9 -27 -7
18 -3 74 6 74 2 0 4 -21 3 -47z"/>
<path d="M1060 1830 c-9 -16 -8 -18 5 -14 8 4 15 12 15 20 0 20 -7 17 -20 -6z"/>
<path d="M606 1805 c4 -16 2 -25 -6 -25 -6 0 -8 -5 -5 -10 3 -6 0 -13 -8 -16
-9 -3 -12 -14 -9 -31 l5 -26 13 25 c19 37 29 108 15 108 -7 0 -9 -9 -5 -25z"/>
<path d="M1895 1820 c3 -5 8 -10 11 -10 2 0 4 5 4 10 0 6 -5 10 -11 10 -5 0
-7 -4 -4 -10z"/>
<path d="M1162 1808 c-6 -6 -12 -19 -12 -27 1 -12 4 -10 13 5 7 12 20 20 29
19 9 -2 34 -6 55 -9 59 -8 128 -31 128 -41 0 -6 4 -16 8 -22 5 -7 6 -17 3 -22
-4 -5 -1 -11 5 -13 6 -2 11 -37 12 -86 1 -45 4 -82 8 -82 3 0 6 6 7 13 5 48
11 90 15 94 3 2 8 -10 12 -27 7 -32 -9 -114 -27 -137 -6 -7 -7 -30 -3 -52 4
-26 1 -60 -10 -98 -18 -62 -54 -133 -67 -133 -4 0 -17 -9 -28 -20 -25 -25 -80
-26 -106 -2 -30 26 -64 78 -64 96 0 9 -4 16 -9 16 -11 0 -41 107 -35 123 2 7
-2 21 -9 31 -12 17 -13 11 -6 -41 20 -144 87 -249 166 -260 73 -10 123 43 169
177 26 78 30 116 13 122 -7 2 -3 23 10 58 12 30 21 70 21 88 0 41 -54 184 -78
205 -9 9 -42 18 -72 22 -30 3 -73 8 -95 11 -25 3 -45 0 -53 -8z m261 -138 c3
-11 1 -18 -4 -14 -5 3 -9 12 -9 20 0 20 7 17 13 -6z"/>
<path d="M741 1784 c0 -11 3 -14 6 -6 3 7 2 16 -1 19 -3 4 -6 -2 -5 -13z"/>
<path d="M811 1774 c0 -11 3 -14 6 -6 3 7 2 16 -1 19 -3 4 -6 -2 -5 -13z"/>
<path d="M870 1765 c0 -14 2 -25 4 -25 2 0 6 11 8 25 3 14 1 25 -3 25 -5 0 -9
-11 -9 -25z"/>
<path d="M2000 1785 c0 -5 5 -17 10 -25 5 -8 10 -10 10 -5 0 6 -5 17 -10 25
-5 8 -10 11 -10 5z"/>
<path d="M1761 1758 c-39 -26 -66 -67 -76 -113 -4 -21 1 -15 20 23 29 57 54
78 101 87 37 7 76 -25 93 -77 7 -21 17 -38 22 -38 13 0 11 12 -10 56 -38 79
-93 101 -150 62z"/>
<path d="M1115 1755 c-5 -11 -10 -24 -13 -30 -3 -5 3 -3 13 7 9 9 15 22 12 30
-3 9 -7 7 -12 -7z"/>
<path d="M636 1733 c-6 -14 -5 -15 5 -6 7 7 10 15 7 18 -3 3 -9 -2 -12 -12z"/>
<path d="M702 1706 c1 -26 -3 -40 -17 -50 -26 -19 -13 -31 14 -14 15 9 21 23
21 50 0 20 -5 40 -10 43 -7 4 -10 -6 -8 -29z"/>
<path d="M760 1730 c0 -5 5 -10 10 -10 6 0 10 5 10 10 0 6 -4 10 -10 10 -5 0
-10 -4 -10 -10z"/>
<path d="M1219 1726 c-36 -19 -66 -49 -74 -78 -4 -12 -14 -32 -21 -43 -19 -27
-17 -45 2 -20 8 11 19 21 24 21 20 3 21 4 11 22 -15 28 36 77 92 88 30 5 68
-35 88 -91 7 -19 17 -35 21 -35 12 0 11 4 -17 65 -19 44 -32 59 -59 70 -42 18
-35 18 -67 1z"/>
<path d="M851 1714 c0 -11 3 -14 6 -6 3 7 2 16 -1 19 -3 4 -6 -2 -5 -13z"/>
<path d="M990 1716 c0 -8 4 -17 9 -20 5 -4 7 3 4 14 -6 23 -13 26 -13 6z"/>
<path d="M1746 1696 c-31 -35 -73 -122 -63 -132 3 -3 28 -1 55 4 34 6 54 6 61
-1 8 -8 11 -7 11 1 0 7 3 11 8 10 4 -1 16 3 28 9 17 10 25 9 42 -3 16 -11 27
-12 39 -5 16 9 16 10 -4 11 -33 0 -39 20 -6 21 16 0 21 3 13 6 -8 3 -25 14
-37 25 -13 12 -27 17 -34 12 -8 -5 -11 -2 -6 8 3 10 -3 19 -19 27 -13 6 -24
17 -24 26 0 26 -31 17 -64 -19z m47 -3 c3 -10 4 -36 3 -57 -2 -45 -22 -59 -43
-30 -12 17 -13 17 -13 -4 0 -13 -6 -22 -15 -22 -19 0 -19 24 0 44 8 8 18 29
21 45 4 17 10 28 15 25 5 -3 9 0 9 5 0 18 18 12 23 -6z m43 -91 c-21 -21 -28
-12 -20 27 7 31 7 31 22 10 13 -19 13 -23 -2 -37z m49 20 c-3 -3 -11 0 -18 7
-9 10 -8 11 6 5 10 -3 15 -9 12 -12z"/>
<path d="M1760 1640 c0 -11 4 -20 8 -20 4 0 8 9 8 20 0 11 -4 20 -8 20 -4 0
-8 -9 -8 -20z"/>
<path d="M1548 1713 c7 -3 16 -2 19 1 4 3 -2 6 -13 5 -11 0 -14 -3 -6 -6z"/>
<path d="M375 1703 c-31 -7 -40 -21 -11 -16 15 3 29 9 32 14 3 5 4 8 2 8 -2
-1 -12 -3 -23 -6z"/>
<path d="M660 1699 c0 -5 5 -7 10 -4 6 3 10 8 10 11 0 2 -4 4 -10 4 -5 0 -10
-5 -10 -11z"/>
<path d="M485 1691 c-3 -5 -1 -12 5 -16 5 -3 10 1 10 9 0 18 -6 21 -15 7z"/>
<path d="M740 1643 c-8 -21 -16 -41 -18 -45 -2 -5 2 -8 9 -8 7 0 10 3 6 6 -3
4 1 20 9 36 8 16 14 34 12 39 -2 6 -10 -7 -18 -28z"/>
<path d="M1228 1673 c16 -3 22 -12 23 -31 2 -24 2 -24 6 -4 2 12 8 22 13 22
15 0 18 -26 4 -44 -7 -11 -11 -23 -8 -28 3 -5 3 -20 0 -33 -8 -32 -34 -22 -38
13 -4 34 -24 30 -21 -4 2 -20 -2 -24 -13 -20 -10 4 -14 1 -11 -6 2 -7 11 -12
20 -10 8 1 18 -5 20 -15 4 -17 5 -17 6 0 0 10 4 16 9 14 4 -3 38 -2 76 2 l69
6 -26 31 c-15 18 -27 35 -27 38 0 4 -12 23 -27 42 -23 28 -34 34 -63 33 -23
-1 -28 -3 -12 -6z m92 -109 c0 -6 -7 -14 -15 -18 -12 -4 -15 3 -15 32 1 35 2
36 15 18 8 -11 15 -25 15 -32z"/>
<path d="M892 1650 c0 -14 2 -19 5 -12 2 6 2 18 0 25 -3 6 -5 1 -5 -13z"/>
<path d="M560 1642 c0 -13 -7 -37 -16 -53 -8 -17 -14 -35 -11 -42 2 -6 13 10
26 36 17 35 20 51 12 64 -9 16 -10 16 -11 -5z"/>
<path d="M832 1640 c0 -14 2 -19 5 -12 2 6 2 18 0 25 -3 6 -5 1 -5 -13z"/>
<path d="M350 1646 c0 -2 8 -10 18 -17 15 -13 16 -12 3 4 -13 16 -21 21 -21
13z"/>
<path d="M605 1601 c-3 -16 -13 -35 -21 -42 -8 -6 -14 -16 -14 -22 0 -6 6 -3
13 8 13 16 14 15 12 -16 -6 -93 23 -56 34 44 5 41 3 57 -5 57 -7 0 -15 -13
-19 -29z"/>
<path d="M801 1592 c2 -23 7 -42 11 -42 5 0 6 17 2 38 -9 52 -16 54 -13 4z"/>
<path d="M1165 1580 c-4 -11 -10 -18 -14 -16 -4 3 -7 -7 -8 -22 0 -15 1 -19 4
-9 2 9 8 17 12 17 4 0 13 11 19 25 6 14 7 25 2 25 -5 0 -12 -9 -15 -20z"/>
<path d="M862 1568 c0 -7 -3 -31 -6 -53 l-6 -40 14 35 c8 19 15 43 15 53 1 19
-15 24 -17 5z"/>
<path d="M2060 1560 c0 -11 4 -20 9 -20 5 0 7 9 4 20 -3 11 -7 20 -9 20 -2 0
-4 -9 -4 -20z"/>
<path d="M696 1536 c-19 -30 -20 -36 -4 -36 6 0 8 3 5 7 -4 3 0 15 10 25 9 10
14 20 11 23 -3 3 -13 -6 -22 -19z"/>
<path d="M454 1525 c-16 -12 -17 -14 -3 -15 9 0 19 7 23 15 7 19 5 19 -20 0z"/>
<path d="M1858 1517 c-15 -13 -30 -36 -33 -53 -6 -26 -5 -27 8 -12 8 10 17 16
20 13 4 -3 5 -2 2 2 -3 3 5 21 16 40 24 39 23 41 -13 10z"/>
<path d="M491 1517 c1 -6 -1 -29 -6 -51 -5 -26 -4 -40 4 -45 7 -4 13 -26 14
-49 2 -51 14 -42 19 13 2 30 -1 40 -12 40 -8 0 -16 9 -17 20 -2 11 0 14 3 8 3
-7 10 -13 15 -13 6 0 7 6 0 17 -5 10 -5 26 -1 39 7 16 5 24 -6 28 -9 3 -14 0
-13 -7z"/>
<path d="M646 1522 c-3 -5 1 -9 9 -9 8 0 15 4 15 9 0 4 -4 8 -9 8 -6 0 -12 -4
-15 -8z"/>
<path d="M1107 1516 c-12 -31 -9 -50 6 -37 8 6 18 7 23 3 4 -4 3 0 -2 8 -6 8
-13 22 -16 29 -3 12 -6 11 -11 -3z"/>
<path d="M1383 1475 c0 -27 2 -38 4 -22 2 15 2 37 0 50 -2 12 -4 0 -4 -28z"/>
<path d="M2087 1500 c-4 -16 -2 -29 7 -36 9 -6 16 -36 19 -77 7 -102 19 -98
30 10 4 30 1 43 -9 47 -8 3 -14 10 -14 16 0 6 5 8 12 4 7 -5 8 -3 4 5 -5 7
-11 10 -14 6 -3 -3 -11 7 -17 22 l-11 28 -7 -25z"/>
<path d="M1697 1490 c3 -11 7 -20 9 -20 2 0 4 9 4 20 0 11 -4 20 -9 20 -5 0
-7 -9 -4 -20z"/>
<path d="M525 1490 c3 -5 8 -10 11 -10 2 0 4 5 4 10 0 6 -5 10 -11 10 -5 0 -7
-4 -4 -10z"/>
<path d="M983 1485 c-3 -9 -3 -18 -1 -21 3 -3 8 4 11 16 6 23 -1 27 -10 5z"/>
<path d="M2247 1458 c-5 -39 -3 -57 7 -47 10 10 17 89 8 89 -5 0 -12 -19 -15
-42z"/>
<path d="M1726 1475 c4 -8 11 -15 16 -15 6 0 5 6 -2 15 -7 8 -14 15 -16 15 -2
0 -1 -7 2 -15z"/>
<path d="M641 1464 c0 -11 3 -14 6 -6 3 7 2 16 -1 19 -3 4 -6 -2 -5 -13z"/>
<path d="M902 1450 c0 -14 2 -19 5 -12 2 6 2 18 0 25 -3 6 -5 1 -5 -13z"/>
<path d="M1760 1460 c0 -21 28 -60 43 -60 8 0 8 3 -2 9 -9 6 -10 11 -2 15 16
11 13 29 -4 22 -8 -3 -19 2 -24 12 -9 14 -10 14 -11 2z"/>
<path d="M2194 1445 c8 -30 -2 -54 -14 -35 -5 8 -9 7 -13 -4 -4 -9 -2 -16 4
-16 6 0 7 -5 2 -12 -4 -7 -13 -32 -19 -56 -10 -38 -9 -43 5 -40 10 2 17 15 19
38 4 55 11 80 24 80 13 0 3 -122 -13 -151 -12 -23 0 -151 13 -143 6 4 7 -2 3
-16 -5 -15 -4 -20 4 -16 27 17 15 -58 -20 -126 -11 -21 -10 -92 2 -133 7 -24
7 -21 4 17 -3 26 -1 50 4 53 12 7 25 -90 15 -107 -5 -7 -10 -22 -11 -33 -2
-11 -7 -21 -12 -23 -4 -1 -5 -16 -3 -32 4 -29 -6 -37 -40 -31 -5 0 -8 -6 -8
-15 0 -14 2 -15 17 -3 15 13 16 11 9 -14 -5 -22 -4 -28 6 -25 20 7 39 54 45
113 3 30 9 55 13 55 3 0 14 -27 24 -60 17 -56 17 -62 1 -103 -18 -47 -8 -97
18 -97 11 0 14 20 13 98 -1 78 -6 105 -23 137 -35 64 -51 186 -33 250 10 35
10 58 0 109 -11 57 -10 71 5 111 19 49 13 76 -6 29 -9 -22 -13 -25 -16 -12 -2
9 3 31 12 48 9 18 12 29 6 26 -7 -5 -9 7 -5 36 7 48 -11 128 -27 128 -7 0 -9
-10 -5 -25z"/>
<path d="M578 1442 c-4 -12 -2 -25 4 -28 15 -10 19 1 10 26 l-9 24 -5 -22z"/>
<path d="M1581 1408 c12 -29 26 -69 31 -88 5 -19 19 -62 30 -95 11 -33 20 -76
19 -96 0 -21 5 -42 13 -48 12 -10 13 -5 9 31 -9 84 -91 329 -114 344 -5 3 0
-19 12 -48z"/>
<path d="M686 1425 c-9 -26 -7 -32 5 -12 6 10 9 21 6 23 -2 3 -7 -2 -11 -11z"/>
<path d="M1847 1426 c-4 -10 -3 -15 3 -11 6 3 10 1 10 -6 0 -7 3 -10 6 -6 3 3
2 13 -4 22 -8 16 -9 16 -15 1z"/>
<path d="M543 1392 c0 -22 4 -29 10 -23 7 7 7 18 0 33 -9 20 -10 20 -10 -10z"/>
<path d="M2240 1390 c0 -5 5 -10 11 -10 5 0 7 5 4 10 -3 6 -8 10 -11 10 -2 0
-4 -4 -4 -10z"/>
<path d="M710 1379 c0 -5 5 -7 10 -4 6 3 10 8 10 11 0 2 -4 4 -10 4 -5 0 -10
-5 -10 -11z"/>
<path d="M440 1359 c-12 -8 -10 -9 10 -7 17 2 24 -1 22 -10 -1 -8 2 -11 8 -7
8 5 7 11 -1 21 -14 17 -19 17 -39 3z"/>
<path d="M1275 1360 c-16 -7 -17 -9 -3 -9 9 -1 20 4 23 9 7 11 7 11 -20 0z"/>
<path d="M1770 1360 c0 -5 5 -10 10 -10 6 0 10 5 10 10 0 6 -4 10 -10 10 -5 0
-10 -4 -10 -10z"/>
<path d="M695 1350 c-3 -6 1 -7 9 -4 18 7 21 14 7 14 -6 0 -13 -4 -16 -10z"/>
<path d="M550 1334 c0 -8 5 -12 10 -9 6 4 8 11 5 16 -9 14 -15 11 -15 -7z"/>
<path d="M1860 1335 c0 -8 4 -15 10 -15 5 0 7 7 4 15 -4 8 -8 15 -10 15 -2 0
-4 -7 -4 -15z"/>
<path d="M1733 1325 c0 -8 4 -12 9 -9 5 3 6 10 3 15 -9 13 -12 11 -12 -6z"/>
<path d="M520 1310 c0 -19 3 -21 12 -12 9 9 9 15 0 24 -9 9 -12 7 -12 -12z"/>
<path d="M610 1310 c-12 -12 -17 -26 -13 -37 5 -13 7 -14 11 -2 11 40 15 44
22 19 6 -24 7 -24 11 8 6 37 -3 40 -31 12z"/>
<path d="M921 1314 c0 -11 3 -14 6 -6 3 7 2 16 -1 19 -3 4 -6 -2 -5 -13z"/>
<path d="M2077 1324 c-3 -4 -2 -14 3 -23 16 -31 40 -152 40 -205 0 -28 5 -57
11 -63 6 -6 11 -27 12 -46 0 -20 5 -34 9 -31 4 3 6 24 3 46 -3 23 0 47 6 54
12 15 6 117 -11 184 -7 32 -9 33 -15 13 -11 -34 -25 -28 -25 11 0 53 -14 79
-33 60z"/>
<path d="M2262 1310 c0 -14 2 -19 5 -12 2 6 2 18 0 25 -3 6 -5 1 -5 -13z"/>
<path d="M3 1265 c0 -33 2 -45 4 -27 2 18 2 45 0 60 -2 15 -4 0 -4 -33z"/>
<path d="M480 1308 c0 -7 4 -19 9 -27 11 -17 23 1 15 23 -7 19 -24 21 -24 4z"/>
<path d="M689 1308 c0 -2 -2 -16 -4 -32 -2 -16 -8 -32 -12 -35 -10 -8 -13 -52
-3 -46 8 5 40 91 40 107 0 7 -19 12 -21 6z"/>
<path d="M1941 1294 c0 -11 3 -14 6 -6 3 7 2 16 -1 19 -3 4 -6 -2 -5 -13z"/>
<path d="M546 1284 c-15 -14 -20 -28 -18 -45 1 -4 -7 -14 -18 -24 -10 -9 -16
-23 -13 -31 3 -8 -1 -14 -8 -14 -7 0 -9 -3 -6 -6 8 -9 -12 -46 -21 -40 -7 4
-8 -50 -2 -64 1 -3 3 -11 4 -19 0 -8 9 -15 19 -17 15 -2 16 0 6 12 -10 12 -9
21 5 45 16 27 14 33 -7 30 -4 -1 -3 7 2 16 5 10 15 33 21 51 7 17 16 32 20 32
4 0 11 16 14 35 4 20 11 33 17 30 5 -4 9 1 9 9 0 20 -5 20 -24 0z m-61 -194
c3 -5 2 -10 -4 -10 -5 0 -13 5 -16 10 -3 6 -2 10 4 10 5 0 13 -4 16 -10z"/>
<path d="M458 1265 c-3 -14 -2 -25 2 -25 11 0 20 39 10 45 -4 3 -10 -6 -12
-20z"/>
<path d="M1861 1273 c0 -12 2 -14 6 -4 5 11 7 11 15 0 8 -12 9 -12 6 0 -6 22
-28 25 -27 4z"/>
<path d="M1666 1260 c7 -28 12 -35 18 -29 2 2 -2 15 -10 29 l-15 25 7 -25z"/>
<path d="M490 1240 c-6 -11 -7 -20 -2 -20 6 0 12 9 15 20 3 11 3 20 1 20 -2 0
-8 -9 -14 -20z"/>
<path d="M615 1250 c-3 -5 -1 -10 4 -10 6 0 11 5 11 10 0 6 -2 10 -4 10 -3 0
-8 -4 -11 -10z"/>
<path d="M921 1224 c0 -11 3 -14 6 -6 3 7 2 16 -1 19 -3 4 -6 -2 -5 -13z"/>
<path d="M802 1195 c0 -16 2 -22 5 -12 2 9 2 23 0 30 -3 6 -5 -1 -5 -18z"/>
<path d="M2251 1204 c-1 -12 -3 -37 -6 -55 l-5 -34 15 32 c10 22 12 39 5 55
-8 22 -9 22 -9 2z"/>
<path d="M561 1194 c0 -11 3 -14 6 -6 3 7 2 16 -1 19 -3 4 -6 -2 -5 -13z"/>
<path d="M3 1135 c0 -38 2 -53 4 -32 2 20 2 52 0 70 -2 17 -4 1 -4 -38z"/>
<path d="M450 1184 c0 -8 5 -12 10 -9 6 4 8 11 5 16 -9 14 -15 11 -15 -7z"/>
<path d="M585 1169 c-5 -19 -8 -40 -8 -47 1 -10 -2 -10 -16 0 -14 12 -15 11
-2 -5 12 -15 11 -20 -5 -39 -11 -12 -13 -18 -6 -14 8 5 12 1 12 -11 1 -10 8 0
16 22 9 22 16 49 15 60 0 11 5 22 11 26 7 4 7 12 1 24 -9 15 -11 12 -18 -16z"/>
<path d="M1705 1143 c2 -32 7 -89 10 -128 4 -41 2 -81 -4 -97 -7 -18 -7 -28
-1 -28 6 0 15 12 21 27 11 31 10 141 -3 149 -4 3 -8 14 -8 25 0 11 5 17 10 14
13 -8 13 1 -1 26 -10 19 -9 20 13 8 13 -6 32 -19 42 -28 11 -9 16 -10 12 -3
-4 6 -3 12 3 12 5 0 17 3 26 6 9 4 15 2 13 -4 -2 -5 1 -12 6 -13 5 -2 13 8 17
23 6 25 5 27 -11 18 -37 -20 -85 -12 -118 21 l-31 31 4 -59z"/>
<path d="M1920 1192 c0 -6 -9 -14 -20 -17 -11 -4 -18 -11 -15 -16 4 -5 16 0
27 11 12 11 18 23 15 27 -4 3 -7 1 -7 -5z"/>
<path d="M417 1173 c-3 -5 -3 -31 2 -59 5 -35 9 -43 13 -29 13 39 0 112 -15
88z"/>
<path d="M650 1145 c0 -11 5 -27 10 -35 8 -12 10 -12 10 5 0 11 -5 27 -10 35
-8 12 -10 12 -10 -5z"/>
<path d="M821 1144 c0 -11 3 -14 6 -6 3 7 2 16 -1 19 -3 4 -6 -2 -5 -13z"/>
<path d="M631 1098 c0 -13 4 -32 8 -42 7 -18 8 -18 14 -3 4 10 2 17 -4 17 -7
0 -9 11 -7 25 3 14 1 25 -3 25 -5 0 -9 -10 -8 -22z"/>
<path d="M1072 1080 c0 -14 2 -19 5 -12 2 6 2 18 0 25 -3 6 -5 1 -5 -13z"/>
<path d="M1450 1075 c0 -14 4 -25 8 -25 5 0 8 -13 7 -30 -2 -26 13 -69 16 -45
0 6 2 18 4 28 2 9 0 17 -5 17 -4 0 -8 11 -9 25 -3 48 -4 55 -13 55 -4 0 -8
-11 -8 -25z"/>
<path d="M1611 1084 c0 -11 3 -14 6 -6 3 7 2 16 -1 19 -3 4 -6 -2 -5 -13z"/>
<path d="M720 1061 c0 -6 4 -13 10 -16 6 -3 7 1 4 9 -7 18 -14 21 -14 7z"/>
<path d="M2178 1054 c-5 -4 -8 -23 -8 -43 0 -25 3 -32 11 -24 6 6 9 25 7 43
-2 17 -6 28 -10 24z"/>
<path d="M525 1029 c-4 -11 -4 -23 -1 -26 3 -4 6 1 6 10 0 8 5 17 12 19 9 3 9
6 1 11 -7 4 -14 -1 -18 -14z"/>
<path d="M671 1027 c-13 -21 -12 -21 5 -5 10 10 16 20 13 22 -3 3 -11 -5 -18
-17z"/>
<path d="M2250 1023 c0 -4 5 -22 12 -40 10 -28 9 -41 -6 -83 -21 -57 -16 -75
9 -36 23 35 30 99 15 136 -11 27 -30 41 -30 23z"/>
<path d="M491 994 c0 -11 3 -14 6 -6 3 7 2 16 -1 19 -3 4 -6 -2 -5 -13z"/>
<path d="M596 993 c-6 -14 -5 -15 5 -6 7 7 10 15 7 18 -3 3 -9 -2 -12 -12z"/>
<path d="M907 979 c-6 -42 -3 -46 10 -16 6 13 8 30 3 36 -5 8 -9 1 -13 -20z"/>
<path d="M640 990 c0 -7 -3 -10 -7 -7 -7 8 -33 -38 -33 -59 0 -8 3 -14 8 -14
9 0 44 82 37 88 -3 3 -5 -1 -5 -8z"/>
<path d="M690 993 c-1 -7 -4 -17 -5 -23 -1 -5 -3 -15 -4 -21 0 -5 -5 -8 -10
-5 -4 3 -13 -6 -20 -20 -17 -39 -13 -40 20 -6 23 23 29 38 26 59 -2 15 -5 22
-7 16z"/>
<path d="M1771 984 c0 -11 3 -14 6 -6 3 7 2 16 -1 19 -3 4 -6 -2 -5 -13z"/>
<path d="M3 760 c2 -129 9 -253 15 -275 10 -37 10 -35 5 25 -3 36 -7 157 -8
268 -2 112 -6 207 -10 210 -3 3 -4 -99 -2 -228z"/>
<path d="M522 960 c0 -14 2 -19 5 -12 2 6 2 18 0 25 -3 6 -5 1 -5 -13z"/>
<path d="M1072 973 c1 -4 -4 -19 -11 -31 -7 -13 -10 -26 -7 -30 3 -3 6 0 6 7
0 7 4 10 9 7 5 -3 11 6 14 19 2 14 0 28 -5 31 -4 3 -7 2 -6 -3z"/>
<path d="M1796 948 c3 -5 10 -6 15 -3 13 9 11 12 -6 12 -8 0 -12 -4 -9 -9z"/>
<path d="M366 928 c-12 -11 -15 -18 -7 -18 7 0 11 -6 8 -14 -3 -8 1 -17 8 -20
19 -7 22 2 16 40 -6 30 -6 30 -25 12z"/>
<path d="M410 950 c-1 -3 -4 -16 -6 -30 -3 -18 -2 -22 7 -13 6 6 9 19 6 29 -3
11 -6 17 -7 14z"/>
<path d="M820 930 c0 -5 5 -10 10 -10 6 0 10 5 10 10 0 6 -4 10 -10 10 -5 0
-10 -4 -10 -10z"/>
<path d="M536 885 c-3 -8 -1 -15 4 -15 6 0 10 7 10 15 0 8 -2 15 -4 15 -2 0
-6 -7 -10 -15z"/>
<path d="M570 876 c0 -13 -3 -33 -7 -43 -3 -10 -3 -15 1 -12 13 12 25 69 15
74 -5 4 -9 -5 -9 -19z"/>
<path d="M2050 880 c6 -11 13 -20 16 -20 2 0 0 9 -6 20 -6 11 -13 20 -16 20
-2 0 0 -9 6 -20z"/>
<path d="M806 875 c-3 -9 -6 -22 -5 -28 0 -7 5 -1 10 12 5 13 8 26 5 28 -2 2
-6 -3 -10 -12z"/>
<path d="M1056 881 c-3 -5 1 -14 9 -21 12 -10 15 -10 15 3 0 19 -16 31 -24 18z"/>
<path d="M1266 873 c-6 -14 -5 -15 5 -6 7 7 10 15 7 18 -3 3 -9 -2 -12 -12z"/>
<path d="M1592 870 c0 -14 2 -19 5 -12 2 6 2 18 0 25 -3 6 -5 1 -5 -13z"/>
<path d="M1623 822 c-28 -50 -30 -58 -14 -58 10 0 18 6 18 12 0 6 7 28 17 48
15 33 26 41 49 37 5 -1 6 3 2 9 -15 25 -42 7 -72 -48z"/>
<path d="M475 850 c-4 -11 -11 -18 -16 -15 -5 3 -6 -1 -3 -10 4 -9 7 -15 8
-13 1 2 10 15 19 31 10 15 13 27 8 27 -5 0 -13 -9 -16 -20z"/>
<path d="M2089 829 c-1 -19 -4 -45 -8 -59 -4 -16 0 -43 11 -72 13 -35 17 -67
14 -125 -2 -43 -2 -72 1 -64 4 10 12 3 24 -20 22 -41 25 -25 4 24 -8 20 -15
44 -15 54 1 16 2 16 15 -2 8 -11 19 -25 24 -31 6 -7 6 -26 0 -50 -11 -50 -11
-67 0 -60 4 3 6 -6 3 -19 -3 -20 -1 -24 12 -19 9 3 16 1 16 -6 0 -6 7 -18 16
-27 17 -17 11 -71 -11 -88 -7 -6 -14 -26 -17 -45 -3 -19 -9 -43 -13 -54 -6
-13 -4 -17 4 -15 15 5 71 144 71 177 0 12 -7 25 -16 29 -13 5 -15 21 -12 97 2
55 -1 92 -7 94 -20 7 -35 25 -28 35 3 6 1 7 -5 3 -7 -4 -12 -2 -12 4 0 6 -4 9
-9 5 -12 -7 -17 13 -26 88 -4 31 -11 55 -16 52 -5 -4 -9 3 -9 15 0 12 5 18 10
15 16 -10 11 58 -5 79 -14 19 -15 18 -16 -15z m102 -374 l-9 -40 -1 47 c-1 54
12 100 17 58 1 -14 -1 -43 -7 -65z"/>
<path d="M514 814 c-8 -20 -13 -41 -11 -47 2 -6 10 10 19 36 18 56 13 62 -8
11z"/>
<path d="M1023 835 c-3 -9 -3 -18 -1 -21 3 -3 8 4 11 16 6 23 -1 27 -10 5z"/>
<path d="M684 826 c-3 -8 -4 -23 -2 -33 3 -11 6 -6 9 15 6 34 2 42 -7 18z"/>
<path d="M772 820 c0 -14 2 -19 5 -12 2 6 2 18 0 25 -3 6 -5 1 -5 -13z"/>
<path d="M1491 835 c0 -5 11 -23 24 -40 14 -16 25 -25 25 -18 0 22 -12 43 -25
43 -7 0 -16 6 -18 13 -3 6 -6 8 -6 2z"/>
<path d="M563 784 c3 -18 1 -24 -9 -20 -8 3 -11 0 -8 -8 3 -7 0 -24 -5 -39 -7
-17 -7 -28 0 -32 5 -4 8 -3 7 2 -1 4 7 26 18 48 21 40 21 75 2 75 -6 0 -8 -11
-5 -26z"/>
<path d="M440 790 c0 -5 5 -10 11 -10 5 0 7 5 4 10 -3 6 -8 10 -11 10 -2 0 -4
-4 -4 -10z"/>
<path d="M1065 787 c-4 -10 -5 -21 -1 -24 10 -10 18 4 13 24 -4 17 -4 17 -12
0z"/>
<path d="M1821 785 c1 -19 18 -51 18 -35 0 8 -4 22 -9 30 -5 8 -9 11 -9 5z"/>
<path d="M1870 775 c7 -9 15 -13 17 -11 7 7 -7 26 -19 26 -6 0 -6 -6 2 -15z"/>
<path d="M474 769 c-3 -6 -2 -15 3 -20 5 -5 9 -1 9 11 0 23 -2 24 -12 9z"/>
<path d="M845 770 c-3 -5 -1 -10 4 -10 6 0 11 5 11 10 0 6 -2 10 -4 10 -3 0
-8 -4 -11 -10z"/>
<path d="M1898 678 c-10 -70 -12 -106 -5 -113 7 -7 8 -6 3 3 -4 7 -3 19 3 26
11 13 28 186 19 186 -2 0 -11 -46 -20 -102z"/>
<path d="M992 730 c0 -19 2 -27 5 -17 2 9 2 25 0 35 -3 9 -5 1 -5 -18z"/>
<path d="M601 733 c-1 -12 4 -25 9 -28 12 -7 12 2 0 30 -8 19 -9 19 -9 -2z"/>
<path d="M1780 736 c0 -8 4 -17 9 -20 5 -4 7 3 4 14 -6 23 -13 26 -13 6z"/>
<path d="M1069 691 c-6 -76 7 -97 16 -28 5 37 4 62 -3 69 -7 7 -11 -6 -13 -41z"/>
<path d="M1180 692 c-9 -30 -13 -62 -8 -87 l6 -40 -1 40 c0 22 5 57 12 78 7
20 11 41 9 46 -2 5 -10 -12 -18 -37z"/>
<path d="M1255 719 c-10 -30 -2 -32 12 -3 6 13 7 24 3 24 -5 0 -12 -9 -15 -21z"/>
<path d="M476 722 c-2 -4 -1 -14 3 -21 5 -7 7 -23 4 -35 -4 -19 -3 -19 7 -3 6
10 8 26 4 35 -4 9 -6 20 -6 25 3 9 -6 9 -12 -1z"/>
<path d="M1860 694 c0 -8 5 -12 10 -9 6 3 10 10 10 16 0 5 -4 9 -10 9 -5 0
-10 -7 -10 -16z"/>
<path d="M1800 686 c0 -8 4 -17 9 -20 5 -4 7 3 4 14 -6 23 -13 26 -13 6z"/>
<path d="M622 670 c0 -14 2 -19 5 -12 2 6 2 18 0 25 -3 6 -5 1 -5 -13z"/>
<path d="M1611 674 c0 -11 3 -14 6 -6 3 7 2 16 -1 19 -3 4 -6 -2 -5 -13z"/>
<path d="M917 661 c-4 -17 -3 -21 5 -13 5 5 8 16 6 23 -3 8 -7 3 -11 -10z"/>
<path d="M1142 633 c-3 -44 3 -42 11 5 4 17 3 32 -1 32 -4 0 -9 -17 -10 -37z"/>
<path d="M527 646 c-3 -8 0 -19 6 -24 9 -8 12 -4 12 14 0 27 -10 32 -18 10z"/>
<path d="M730 648 c0 -7 5 -20 10 -28 8 -12 10 -11 10 7 0 12 -4 25 -10 28 -5
3 -10 0 -10 -7z"/>
<path d="M1306 647 c3 -10 9 -15 12 -12 3 3 0 11 -7 18 -10 9 -11 8 -5 -6z"/>
<path d="M1840 649 c0 -5 5 -7 10 -4 6 3 10 8 10 11 0 2 -4 4 -10 4 -5 0 -10
-5 -10 -11z"/>
<path d="M459 643 c0 -5 -2 -20 -4 -35 -2 -16 1 -28 6 -28 5 0 9 16 9 35 0 19
-2 35 -5 35 -3 0 -5 -3 -6 -7z"/>
<path d="M1810 621 c0 -25 6 -27 13 -6 4 8 2 17 -3 20 -6 4 -10 -3 -10 -14z"/>
<path d="M575 609 c-4 -12 -3 -24 3 -28 6 -3 12 -20 15 -36 3 -24 4 -21 6 13
0 27 -3 41 -9 37 -5 -3 -10 -2 -10 4 0 5 5 11 12 13 9 3 9 6 1 11 -7 4 -14 -2
-18 -14z"/>
<path d="M814 622 c3 -5 1 -12 -5 -14 -6 -2 -10 -11 -8 -21 3 -13 6 -12 16 8
8 17 8 27 1 32 -6 3 -8 1 -4 -5z"/>
<path d="M1341 614 c0 -11 3 -14 6 -6 3 7 2 16 -1 19 -3 4 -6 -2 -5 -13z"/>
<path d="M1753 600 c-28 -25 -33 -38 -44 -112 -6 -46 -13 -85 -15 -87 -2 -2
-10 1 -18 8 -11 9 -13 7 -13 -14 0 -25 -21 -60 -31 -50 -3 3 -10 -5 -16 -18
-10 -18 -21 -22 -69 -25 -46 -2 -57 1 -57 13 0 9 -6 15 -12 14 -28 -3 -39 2
-48 24 -5 12 -9 16 -9 10 -2 -25 -21 -13 -21 12 0 26 -15 34 -23 13 -3 -7 -6
-3 -6 9 -1 12 -5 23 -11 25 -5 2 -17 33 -26 71 -13 50 -21 67 -34 67 -21 0
-46 -27 -35 -38 4 -4 10 -1 12 6 5 13 23 7 23 -9 0 -6 -4 -7 -10 -4 -16 10
-12 0 21 -61 45 -85 60 -101 106 -124 28 -13 41 -25 37 -34 -4 -10 6 -14 42
-14 26 -1 49 -3 51 -6 3 -2 26 3 51 12 49 16 81 46 82 75 0 9 4 17 8 17 5 0
26 44 46 98 21 53 45 104 52 113 15 17 19 39 7 39 -5 0 -22 -14 -40 -30z"/>
<path d="M691 594 c0 -11 3 -14 6 -6 3 7 2 16 -1 19 -3 4 -6 -2 -5 -13z"/>
<path d="M521 593 c0 -5 4 -17 9 -28 8 -18 9 -17 9 8 1 15 -3 27 -9 27 -5 0
-10 -3 -9 -7z"/>
<path d="M1045 589 c-4 -6 -5 -12 -2 -15 2 -3 7 2 10 11 7 17 1 20 -8 4z"/>
<path d="M895 580 c-3 -5 -1 -10 4 -10 6 0 11 5 11 10 0 6 -2 10 -4 10 -3 0
-8 -4 -11 -10z"/>
<path d="M1674 576 c-3 -7 -23 -21 -45 -31 -37 -17 -57 -44 -23 -31 13 5 15 1
10 -22 -3 -15 -2 -43 3 -62 8 -31 9 -28 10 31 1 50 5 68 16 73 11 4 15 -3 16
-27 1 -29 2 -28 10 12 4 24 16 49 26 57 17 13 17 13 0 14 -10 0 -20 -6 -23
-14z"/>
<path d="M1100 570 c-8 -45 -6 -68 5 -90 7 -14 15 -41 19 -61 4 -21 13 -42 21
-49 12 -10 12 -6 4 27 -6 21 -15 47 -20 59 -6 12 -14 45 -19 75 -4 30 -9 47
-10 39z"/>
<path d="M1156 537 c4 -43 30 -157 68 -302 7 -27 25 -81 40 -119 14 -37 26
-79 26 -92 0 -13 5 -24 11 -24 14 0 6 37 -42 182 -21 65 -50 168 -64 230 -38
160 -45 185 -39 125z"/>
<path d="M1241 554 c0 -11 3 -14 6 -6 3 7 2 16 -1 19 -3 4 -6 -2 -5 -13z"/>
<path d="M1330 560 c0 -5 5 -10 11 -12 7 -2 20 -28 30 -58 l18 -55 -6 53 c-5
42 -3 52 9 52 25 0 43 -27 29 -44 -11 -13 -5 -72 8 -80 4 -3 8 14 9 37 4 67 6
82 16 89 11 8 36 -1 36 -13 0 -4 -7 -6 -15 -3 -8 4 -15 1 -15 -5 0 -6 7 -11
15 -11 12 0 13 -4 4 -18 -9 -14 -9 -32 -2 -68 l11 -49 2 48 c1 26 4 52 5 57 1
6 3 20 5 33 1 12 4 16 7 10 2 -7 11 -13 19 -13 8 0 14 -7 14 -15 0 -8 5 -15
10 -15 6 0 10 13 10 28 0 26 -4 29 -58 41 -73 16 -172 22 -172 11z"/>
<path d="M655 550 c-3 -5 -1 -10 4 -10 6 0 11 5 11 10 0 6 -2 10 -4 10 -3 0
-8 -4 -11 -10z"/>
<path d="M1041 540 c0 -14 4 -43 8 -65 l9 -40 0 45 c0 25 -3 54 -8 65 -8 18
-9 18 -9 -5z"/>
<path d="M555 541 c-3 -6 -3 -15 0 -21 3 -5 0 -10 -8 -10 -8 0 -17 -11 -19
-24 -4 -18 -1 -22 13 -19 10 3 20 19 24 40 6 36 2 52 -10 34z"/>
<path d="M1575 539 c-11 -17 1 -21 15 -4 8 9 8 15 2 15 -6 0 -14 -5 -17 -11z"/>
<path d="M492 494 c-17 -40 -21 -118 -8 -136 8 -11 11 2 10 51 0 36 4 69 9 72
5 4 7 15 5 25 -3 15 -6 13 -16 -12z"/>
<path d="M747 506 c-3 -8 0 -17 7 -19 10 -4 12 1 9 14 -6 23 -9 24 -16 5z"/>
<path d="M601 494 c0 -11 3 -14 6 -6 3 7 2 16 -1 19 -3 4 -6 -2 -5 -13z"/>
<path d="M1815 480 c3 -5 8 -10 11 -10 2 0 4 5 4 10 0 6 -5 10 -11 10 -5 0 -7
-4 -4 -10z"/>
<path d="M243 454 c-13 -54 -8 -169 10 -195 19 -26 22 -14 7 26 -7 17 -7 24 0
20 12 -8 13 -3 0 29 -5 14 -6 26 -2 26 9 0 9 106 0 115 -4 4 -10 -6 -15 -21z"/>
<path d="M1258 453 c2 -16 10 -35 17 -43 6 -8 15 -24 19 -34 3 -10 9 -17 12
-14 5 5 -43 118 -50 118 -2 0 -1 -12 2 -27z"/>
<path d="M599 448 c-1 -13 -1 -29 0 -36 1 -7 -9 -26 -23 -42 -13 -17 -22 -37
-19 -47 7 -28 32 -57 40 -49 5 4 0 13 -10 20 -24 18 -21 42 9 81 15 21 21 36
14 40 -7 4 -7 12 0 25 7 13 7 21 0 25 -5 3 -11 -4 -11 -17z"/>
<path d="M1541 420 c2 -58 15 -58 21 0 2 26 -1 41 -9 45 -10 3 -13 -8 -12 -45z"/>
<path d="M523 434 c-7 -7 -13 -21 -13 -31 0 -15 3 -14 16 5 18 26 15 47 -3 26z"/>
<path d="M2083 420 c-4 -16 -8 -18 -20 -9 -12 11 -13 5 -7 -39 4 -32 3 -52 -3
-52 -6 0 -9 -12 -9 -27 1 -16 -2 -33 -7 -40 -5 -7 -2 -24 6 -40 14 -29 12 -63
-4 -63 -5 0 -9 -7 -9 -17 0 -14 2 -14 20 2 17 15 20 31 20 101 0 45 4 93 9
107 12 32 22 97 15 97 -3 0 -8 -9 -11 -20z"/>
<path d="M211 414 c0 -11 3 -14 6 -6 3 7 2 16 -1 19 -3 4 -6 -2 -5 -13z"/>
<path d="M1721 373 c-17 -78 -40 -140 -57 -157 -8 -8 -14 -19 -14 -25 0 -5
-10 -17 -22 -25 -23 -16 -21 -30 3 -21 22 8 57 66 75 121 9 27 18 56 21 64 3
8 7 22 9 30 1 8 5 27 8 43 11 54 -11 26 -23 -30z"/>
<path d="M667 401 c-4 -17 -3 -21 5 -13 5 5 8 16 6 23 -3 8 -7 3 -11 -10z"/>
<path d="M741 404 c0 -11 3 -14 6 -6 3 7 2 16 -1 19 -3 4 -6 -2 -5 -13z"/>
<path d="M1841 404 c0 -11 3 -14 6 -6 3 7 2 16 -1 19 -3 4 -6 -2 -5 -13z"/>
<path d="M2102 348 c-6 -40 -14 -104 -16 -142 -3 -38 -10 -74 -16 -80 -5 -5
-10 -26 -10 -46 0 -19 -7 -46 -16 -58 -14 -20 -14 -22 3 -22 27 1 53 67 53
133 0 55 1 57 20 45 13 -9 20 -24 20 -45 0 -17 4 -34 9 -37 12 -8 23 23 14 37
-4 7 -8 30 -9 52 -3 103 -4 107 -19 102 -11 -5 -12 -1 -6 16 5 12 9 45 9 72 0
28 -2 44 -5 36 -4 -10 -7 -10 -13 -2 -4 7 -12 -21 -18 -61z m34 -145 c-10 -10
-19 5 -10 18 6 11 8 11 12 0 2 -7 1 -15 -2 -18z"/>
<path d="M36 387 c3 -12 6 -29 8 -36 1 -8 7 -16 12 -18 15 -5 4 65 -11 71 -10
3 -12 -2 -9 -17z"/>
<path d="M752 365 c-16 -34 -15 -39 2 -23 8 7 12 16 9 21 -2 4 1 7 6 7 6 0 11
5 11 10 0 19 -17 10 -28 -15z"/>
<path d="M642 345 c-6 -14 -8 -25 -3 -25 4 0 13 11 19 25 6 14 8 25 3 25 -4 0
-13 -11 -19 -25z"/>
<path d="M1314 349 c-3 -6 4 -21 17 -33 22 -20 22 -20 6 0 -21 26 -22 38 -1
30 8 -3 12 -2 9 4 -8 13 -22 13 -31 -1z"/>
<path d="M2160 339 c0 -7 28 -39 34 -39 2 0 1 11 -1 23 -4 21 -33 35 -33 16z"/>
<path d="M1157 304 c3 -21 9 -43 14 -48 5 -5 6 8 2 30 -3 21 -9 43 -14 48 -5
5 -6 -8 -2 -30z"/>
<path d="M610 310 c0 -5 5 -10 11 -10 5 0 7 5 4 10 -3 6 -8 10 -11 10 -2 0 -4
-4 -4 -10z"/>
<path d="M1780 315 c-1 -5 -3 -19 -4 -30 -5 -37 -37 -190 -43 -205 -11 -28
-13 -81 -3 -75 6 3 10 21 10 40 0 19 4 37 10 40 5 3 10 16 9 28 0 28 8 80 22
139 6 26 9 53 6 60 -3 7 -6 9 -7 3z"/>
<path d="M50 301 c0 -6 5 -13 10 -16 6 -3 10 1 10 9 0 9 -4 16 -10 16 -5 0
-10 -4 -10 -9z"/>
<path d="M355 269 c-4 -6 -5 -12 -2 -15 2 -3 7 2 10 11 7 17 1 20 -8 4z"/>
<path d="M1366 247 c19 -39 28 -45 40 -25 4 6 3 8 -4 4 -6 -3 -13 2 -17 13 -3
11 -13 25 -21 32 -13 10 -12 6 2 -24z"/>
<path d="M1650 250 c-6 -11 -8 -20 -6 -20 3 0 10 9 16 20 6 11 8 20 6 20 -3 0
-10 -9 -16 -20z"/>
<path d="M756 243 c-6 -14 -5 -15 5 -6 7 7 10 15 7 18 -3 3 -9 -2 -12 -12z"/>
<path d="M503 234 c3 -4 1 -16 -6 -28 -6 -11 -12 -31 -14 -43 -2 -25 12 -39
22 -23 3 5 1 10 -4 10 -6 0 -2 15 8 33 18 33 18 57 -1 57 -6 0 -8 -3 -5 -6z"/>
<path d="M1021 224 c0 -11 3 -14 6 -6 3 7 2 16 -1 19 -3 4 -6 -2 -5 -13z"/>
<path d="M419 225 c-6 -3 -5 -36 2 -46 7 -12 9 -12 9 0 0 8 7 22 16 32 15 17
15 18 -5 16 -12 -1 -21 -1 -22 -2z"/>
<path d="M1430 214 c0 -8 -4 -13 -9 -10 -5 4 -8 -2 -7 -11 5 -31 26 -26 26 6
0 17 -2 31 -5 31 -3 0 -5 -7 -5 -16z"/>
<path d="M610 212 c0 -7 -6 -12 -14 -12 -8 0 -17 -16 -21 -37 -4 -21 -14 -46
-22 -55 -10 -11 -12 -18 -5 -18 7 0 12 -12 13 -27 0 -16 5 -37 10 -48 7 -14 8
-3 4 37 -3 32 -1 66 3 75 5 10 16 33 26 52 9 18 14 36 11 39 -3 3 -5 0 -5 -6z"/>
<path d="M1067 199 c4 -13 8 -18 11 -10 2 7 -1 18 -6 23 -8 8 -9 4 -5 -13z"/>
<path d="M1193 192 c2 -18 6 -35 10 -38 3 -3 4 8 2 26 -3 18 -7 35 -10 38 -3
3 -4 -9 -2 -26z"/>
<path d="M2210 150 c0 -31 -26 -95 -47 -118 -17 -18 -16 -32 2 -32 9 0 20 10
26 23 5 12 16 33 24 47 17 28 20 110 5 110 -5 0 -10 -13 -10 -30z"/>
<path d="M455 160 c-3 -5 -1 -10 4 -10 6 0 11 5 11 10 0 6 -2 10 -4 10 -3 0
-8 -4 -11 -10z"/>
<path d="M1070 155 c0 -8 4 -15 10 -15 5 0 7 7 4 15 -4 8 -8 15 -10 15 -2 0
-4 -7 -4 -15z"/>
<path d="M1550 146 c0 -2 7 -6 15 -10 8 -3 15 -1 15 4 0 6 -7 10 -15 10 -8 0
-15 -2 -15 -4z"/>
<path d="M459 113 c-13 -16 -12 -17 4 -4 16 13 21 21 13 21 -2 0 -10 -8 -17
-17z"/>
<path d="M1216 117 c3 -10 9 -15 12 -12 3 3 0 11 -7 18 -10 9 -11 8 -5 -6z"/>
<path d="M390 105 c0 -8 5 -15 10 -15 6 0 10 7 10 15 0 8 -4 15 -10 15 -5 0
-10 -7 -10 -15z"/>
<path d="M490 108 c0 -9 -8 -19 -17 -21 -16 -4 -16 -5 -1 -6 10 -1 18 -11 20
-28 3 -25 4 -23 9 10 3 20 1 43 -3 50 -5 8 -8 7 -8 -5z"/>
<path d="M992 115 c4 -4 3 -15 -2 -24 -5 -10 -5 -23 -1 -30 6 -9 10 -3 13 18
3 18 0 35 -6 38 -6 3 -8 3 -4 -2z"/>
<path d="M1781 104 c0 -11 3 -14 6 -6 3 7 2 16 -1 19 -3 4 -6 -2 -5 -13z"/>
<path d="M1950 100 c-8 -15 -8 -20 3 -20 7 0 13 9 14 20 1 11 0 20 -2 20 -2 0
-9 -9 -15 -20z"/>
<path d="M751 84 c0 -11 3 -14 6 -6 3 7 2 16 -1 19 -3 4 -6 -2 -5 -13z"/>
<path d="M434 71 c-6 -21 -8 -22 -19 -8 -11 15 -14 15 -33 -4 -23 -20 -30 -59
-12 -59 6 0 10 6 9 13 -3 23 1 37 10 37 5 0 8 -11 5 -25 -3 -19 -1 -23 11 -19
8 4 15 11 15 16 0 6 6 8 14 5 18 -7 29 30 16 52 -8 14 -11 12 -16 -8z"/>
<path d="M1772 50 c0 -14 2 -19 5 -12 2 6 2 18 0 25 -3 6 -5 1 -5 -13z"/>
<path d="M1917 50 c3 -11 7 -20 9 -20 2 0 4 9 4 20 0 11 -4 20 -9 20 -5 0 -7
-9 -4 -20z"/>
<path d="M1216 47 c3 -10 9 -15 12 -12 3 3 0 11 -7 18 -10 9 -11 8 -5 -6z"/>
<path d="M620 18 c-12 -22 -12 -22 6 -6 10 10 15 20 12 24 -4 3 -12 -5 -18
-18z"/>
<path d="M2006 23 c-6 -14 -5 -15 5 -6 7 7 10 15 7 18 -3 3 -9 -2 -12 -12z"/>
<path d="M2105 10 c-3 -5 -1 -10 4 -10 6 0 11 5 11 10 0 6 -2 10 -4 10 -3 0
-8 -4 -11 -10z"/>
</g>
</svg>
