<?xml version="1.0" standalone="no"?>
<!DOCTYPE svg PUBLIC "-//W3C//DTD SVG 20010904//EN"
 "http://www.w3.org/TR/2001/REC-SVG-20010904/DTD/svg10.dtd">
<svg version="1.0" xmlns="http://www.w3.org/2000/svg"
 width="300.000000pt" height="300.000000pt" viewBox="0 0 300.000000 300.000000"
 preserveAspectRatio="xMidYMid meet">
<metadata>
Created by potrace 1.10, written by Peter Selinger 2001-2011
</metadata>
<g transform="translate(0.000000,300.000000) scale(0.100000,-0.100000)"
fill="#000000" stroke="none">
<path d="M1360 2989 c0 -5 5 -7 10 -4 6 3 10 8 10 11 0 2 -4 4 -10 4 -5 0 -10
-5 -10 -11z"/>
<path d="M1403 2993 c9 -2 23 -2 30 0 6 3 -1 5 -18 5 -16 0 -22 -2 -12 -5z"/>
<path d="M1531 2975 c46 -35 75 -96 88 -184 5 -41 15 -79 20 -84 25 -25 3 154
-26 211 -23 46 -7 53 27 12 32 -37 54 -97 65 -170 4 -25 10 -49 13 -55 3 -5 5
-28 4 -50 -1 -35 0 -37 8 -16 12 28 5 130 -10 145 -5 5 -10 22 -10 36 0 39
-69 150 -94 150 -12 0 -30 7 -40 15 -23 17 -40 20 -31 5 3 -5 1 -10 -4 -10 -6
0 -11 5 -11 10 0 6 -8 10 -17 10 -11 0 -5 -8 18 -25z"/>
<path d="M1326 2964 c-9 -9 -19 -14 -23 -11 -16 17 -113 -123 -112 -163 0 -8
9 3 19 25 21 41 54 75 73 75 6 0 -5 -16 -26 -36 -52 -51 -40 -54 14 -4 24 22
47 40 51 40 5 0 8 4 8 10 0 5 -14 7 -32 3 -26 -4 -31 -3 -21 7 31 33 107 3
140 -55 12 -22 23 -33 22 -25 0 21 -42 92 -59 101 -8 4 -24 10 -35 14 -16 5
-17 8 -5 15 8 5 12 12 8 15 -3 3 -13 -2 -22 -11z"/>
<path d="M1470 2955 c27 -29 37 -27 20 4 -6 12 -18 21 -27 21 -13 0 -12 -5 7
-25z"/>
<path d="M1528 2920 c13 -27 33 -89 42 -137 18 -85 18 -86 19 -37 1 76 -50
224 -78 224 -4 0 3 -22 17 -50z"/>
<path d="M1699 2959 c27 -11 111 -93 111 -109 0 -5 4 -10 9 -10 20 0 -5 46
-47 87 -30 30 -52 43 -70 42 l-27 0 24 -10z"/>
<path d="M1450 2930 c0 -5 3 -10 8 -10 11 0 44 -87 62 -163 9 -37 20 -69 26
-70 16 -4 16 78 -1 93 -8 7 -15 26 -15 42 0 16 -7 42 -14 57 -16 29 -66 69
-66 51z m100 -207 c0 -45 -5 -40 -13 10 -3 22 -2 35 4 32 5 -4 9 -22 9 -42z"/>
<path d="M1424 2915 c3 -11 12 -40 20 -65 8 -25 17 -58 21 -74 3 -15 8 -26 11
-23 7 7 -25 127 -42 157 -11 18 -14 20 -10 5z"/>
<path d="M1690 2922 c0 -6 9 -16 20 -22 11 -6 18 -15 15 -21 -4 -5 -1 -9 4 -9
21 0 10 24 -21 49 -11 8 -18 9 -18 3z"/>
<path d="M1763 2857 c1 -22 4 -32 9 -24 5 7 8 -2 8 -22 l0 -34 -30 38 c-16 21
-30 31 -30 23 0 -8 16 -32 35 -54 19 -21 35 -49 35 -61 0 -12 5 -23 11 -25 9
-3 9 -10 -1 -27 -7 -15 -8 -21 -1 -17 19 12 12 -50 -9 -77 -16 -20 -17 -26 -5
-30 9 -4 12 -1 8 9 -3 8 1 14 11 14 10 0 16 -9 16 -22 0 -19 2 -20 10 -8 8 12
10 11 10 -7 0 -13 -4 -23 -9 -23 -24 0 -16 -40 16 -76 38 -44 86 -124 73 -124
-13 0 -18 -36 -8 -54 6 -10 5 -16 -2 -16 -6 0 -13 8 -16 18 -3 9 -13 32 -22
51 -9 19 -18 38 -18 43 -1 4 -2 13 -3 19 0 5 -5 7 -11 4 -5 -3 -10 -1 -10 6 0
7 -3 10 -6 6 -6 -5 41 -152 55 -172 23 -34 35 -102 36 -220 4 -208 10 -247 52
-286 l35 -34 -6 45 c-3 25 -8 126 -11 225 -3 99 -10 205 -15 235 -13 75 -33
164 -40 170 -13 13 -40 70 -40 87 0 15 -2 15 -10 3 -5 -8 -12 -11 -17 -7 -13
14 -7 112 10 138 9 13 18 53 21 89 l5 65 -14 -70 c-20 -96 -24 -104 -35 -84
-5 9 -11 30 -12 48 -1 17 -5 31 -8 31 -4 0 -14 44 -24 98 -9 53 -23 108 -31
122 -13 24 -13 24 -12 -13z m176 -599 c1 -5 -3 -8 -9 -8 -5 0 -10 12 -9 28 0
24 1 25 9 7 5 -11 9 -23 9 -27z m6 -28 c3 -5 2 -18 -4 -28 -6 -11 -6 -24 1
-35 12 -22 26 -215 20 -279 -4 -52 -17 -63 -24 -23 -3 13 -1 22 3 19 4 -2 6
18 4 46 -3 27 -7 74 -10 103 -3 38 -2 48 6 37 13 -19 3 40 -15 85 -18 48 -3
110 19 75z"/>
<path d="M1650 2877 c0 -5 4 -16 10 -26 5 -10 10 -65 11 -122 2 -57 4 -96 6
-86 3 9 9 17 14 17 6 0 7 6 2 13 -4 6 -8 44 -9 83 -1 43 -8 83 -18 100 -8 16
-15 25 -16 21z"/>
<path d="M1325 2860 c-3 -4 8 -13 24 -18 16 -6 40 -26 55 -44 27 -36 34 -54
16 -43 -6 3 -7 -1 -4 -9 3 -9 9 -14 13 -12 3 2 7 -6 7 -17 3 -48 9 -77 16 -77
3 0 9 -12 11 -27 4 -27 4 -27 6 4 2 53 -27 182 -46 202 -23 24 -91 53 -98 41z"/>
<path d="M1263 2813 c-14 -7 -34 -22 -43 -33 -10 -11 -24 -20 -32 -20 -8 0
-26 -21 -41 -47 -22 -42 -36 -85 -93 -287 -7 -26 -17 -53 -22 -60 -4 -6 -6
-40 -4 -76 2 -36 3 -87 2 -115 -3 -148 -4 -552 -1 -567 2 -10 8 -18 13 -18 6
0 8 7 4 15 -6 17 10 60 32 87 9 11 14 38 12 80 -1 35 -2 72 -1 83 0 10 -5 25
-10 32 -6 6 -7 18 -3 25 6 11 5 11 -8 0 -13 -10 -15 -8 -15 15 0 16 -3 62 -6
103 -4 41 -3 66 2 55 8 -19 8 -19 18 0 7 14 6 46 -2 102 -7 47 -9 97 -5 115 4
18 9 26 10 18 2 -15 13 35 25 114 4 22 9 45 13 50 4 6 5 20 3 30 -3 21 17 93
31 112 5 6 6 19 2 27 -3 9 4 32 16 52 26 42 33 45 20 9 -6 -15 -12 -42 -15
-61 -2 -20 -7 -43 -10 -52 -12 -39 -22 -110 -14 -105 5 3 9 13 9 22 0 9 9 53
20 97 17 68 25 85 57 112 24 20 32 33 23 33 -9 0 -21 -5 -28 -12 -9 -9 -12 -9
-12 0 0 16 47 45 60 37 5 -3 10 1 10 9 0 19 1 19 35 6 17 -7 24 -7 20 0 -9 15
2 12 33 -7 l27 -17 -18 21 c-22 26 -80 34 -114 16z m-196 -415 c-3 -8 -6 -5
-6 6 -1 11 2 17 5 13 3 -3 4 -12 1 -19z m-16 -65 c-9 -16 -10 -16 -11 -1 0 9
3 25 7 35 7 16 8 17 11 1 2 -10 -1 -25 -7 -35z m16 -510 c0 -50 -1 -54 -8 -28
-8 25 -4 85 5 85 2 0 3 -26 3 -57z m0 -105 c-3 -7 -5 -2 -5 12 0 14 2 19 5 13
2 -7 2 -19 0 -25z"/>
<path d="M1847 2809 c4 -13 8 -18 11 -10 2 7 -1 18 -6 23 -8 8 -9 4 -5 -13z"/>
<path d="M1491 2784 c0 -11 3 -14 6 -6 3 7 2 16 -1 19 -3 4 -6 -2 -5 -13z"/>
<path d="M1860 2764 c0 -10 5 -26 10 -34 8 -11 9 -7 4 15 -8 37 -14 45 -14 19z"/>
<path d="M1922 2760 c0 -14 2 -19 5 -12 2 6 2 18 0 25 -3 6 -5 1 -5 -13z"/>
<path d="M2994 2550 c0 -124 2 -174 3 -112 2 61 2 163 0 225 -1 61 -3 11 -3
-113z"/>
<path d="M1501 2744 c0 -11 3 -14 6 -6 3 7 2 16 -1 19 -3 4 -6 -2 -5 -13z"/>
<path d="M1374 2723 c1 -17 4 -29 8 -27 4 2 6 -9 6 -26 -1 -17 2 -33 5 -37 12
-12 6 61 -7 92 l-13 30 1 -32z"/>
<path d="M1336 2725 c4 -8 10 -15 15 -15 4 0 6 7 3 15 -4 8 -10 15 -15 15 -4
0 -6 -7 -3 -15z"/>
<path d="M1756 2725 c4 -11 7 -33 6 -48 -1 -24 1 -27 13 -17 16 13 20 40 7 40
-5 0 -14 10 -21 23 -8 16 -10 16 -5 2z"/>
<path d="M1491 2663 c0 -28 2 -54 7 -57 4 -2 6 14 4 37 -5 68 -10 76 -11 20z"/>
<path d="M1923 2675 c0 -22 2 -30 4 -17 2 12 2 30 0 40 -3 9 -5 -1 -4 -23z"/>
<path d="M1623 2635 c0 -22 2 -30 4 -17 2 12 2 30 0 40 -3 9 -5 -1 -4 -23z"/>
<path d="M1754 2625 c3 -24 11 -25 24 -5 10 17 10 20 -7 20 -11 0 -18 -6 -17
-15z"/>
<path d="M1422 2590 c0 -14 2 -19 5 -12 2 6 2 18 0 25 -3 6 -5 1 -5 -13z"/>
<path d="M1613 2515 c-3 -9 -3 -19 1 -22 3 -4 6 1 6 10 0 8 6 18 13 20 9 4 9
6 -1 6 -7 1 -15 -6 -19 -14z"/>
<path d="M1747 2523 c-11 -10 -8 -35 3 -28 6 4 8 10 5 15 -3 4 1 11 7 13 7 3
8 6 2 6 -6 1 -14 -2 -17 -6z"/>
<path d="M1530 2495 c0 -9 6 -12 15 -9 8 4 15 7 15 9 0 2 -7 5 -15 9 -9 3 -15
0 -15 -9z"/>
<path d="M1490 2489 c0 -5 5 -7 10 -4 6 3 10 8 10 11 0 2 -4 4 -10 4 -5 0 -10
-5 -10 -11z"/>
<path d="M1766 2484 c-9 -24 -7 -31 4 -14 8 12 10 10 10 -10 0 -14 6 -35 14
-48 10 -19 14 -21 24 -10 9 11 7 24 -9 56 -23 45 -33 51 -43 26z"/>
<path d="M1405 2470 c3 -5 11 -10 16 -10 6 0 7 5 4 10 -3 6 -11 10 -16 10 -6
0 -7 -4 -4 -10z"/>
<path d="M1273 2445 c0 -8 4 -15 9 -15 4 0 8 7 8 15 0 8 -4 15 -8 15 -5 0 -9
-7 -9 -15z"/>
<path d="M1220 2425 c-7 -8 -8 -15 -2 -15 5 0 15 7 22 15 7 8 8 15 2 15 -5 0
-15 -7 -22 -15z"/>
<path d="M2374 2370 c0 -39 3 -70 8 -70 4 0 8 32 8 70 0 39 -3 70 -7 70 -5 0
-8 -32 -9 -70z"/>
<path d="M1147 2373 c-4 -3 -7 -16 -7 -27 0 -12 -7 -31 -15 -43 -9 -13 -17
-57 -21 -115 -3 -51 -9 -97 -12 -103 -4 -5 -7 -39 -7 -74 -1 -58 0 -61 11 -35
7 16 15 70 18 119 9 127 16 172 37 233 16 47 14 64 -4 45z"/>
<path d="M1186 2334 c-4 -9 -4 -19 -1 -22 2 -3 7 3 11 12 4 9 4 19 1 22 -2 3
-7 -3 -11 -12z"/>
<path d="M2941 2334 c0 -11 3 -14 6 -6 3 7 2 16 -1 19 -3 4 -6 -2 -5 -13z"/>
<path d="M2993 2285 c0 -22 2 -30 4 -17 2 12 2 30 0 40 -3 9 -5 -1 -4 -23z"/>
<path d="M2377 2258 c-3 -18 -1 -37 4 -42 5 -6 9 7 9 32 0 50 -6 54 -13 10z"/>
<path d="M1162 2250 c0 -14 2 -19 5 -12 2 6 2 18 0 25 -3 6 -5 1 -5 -13z"/>
<path d="M2149 2199 c0 -24 -2 -51 -4 -60 -1 -8 3 -26 11 -40 12 -21 13 -15 9
55 -6 88 -15 114 -16 45z"/>
<path d="M1141 2164 c0 -11 3 -14 6 -6 3 7 2 16 -1 19 -3 4 -6 -2 -5 -13z"/>
<path d="M37 2123 c-4 -3 -7 -15 -7 -27 0 -20 0 -20 15 0 8 10 15 22 15 27 0
9 -14 9 -23 0z"/>
<path d="M205 2027 c-4 -8 -1 -25 5 -37 6 -12 12 -65 13 -118 1 -61 3 -84 7
-62 10 51 3 211 -9 223 -7 7 -12 5 -16 -6z"/>
<path d="M360 1875 c0 -8 7 -15 15 -15 8 0 15 7 15 15 0 8 -7 15 -15 15 -8 0
-15 -7 -15 -15z"/>
<path d="M1791 1873 c-1 -12 4 -25 9 -28 12 -7 12 2 0 30 -8 19 -9 19 -9 -2z"/>
<path d="M2992 1840 c0 -14 2 -19 5 -12 2 6 2 18 0 25 -3 6 -5 1 -5 -13z"/>
<path d="M1690 1835 c-6 -7 -17 -12 -24 -9 -8 3 -16 -5 -20 -18 -5 -14 -9 -18
-13 -10 -7 17 -23 15 -23 -3 0 -8 5 -15 11 -15 5 0 7 -5 4 -10 -3 -6 10 -1 30
11 29 18 48 21 105 17 55 -3 70 -1 70 10 0 10 -8 13 -26 9 -17 -3 -28 0 -31
10 -3 8 -15 13 -27 11 -11 -1 -26 1 -32 5 -7 4 -17 0 -24 -8z"/>
<path d="M1275 1801 c-4 -8 40 -21 71 -21 17 0 19 16 2 17 -7 0 -25 3 -40 6
-15 3 -30 2 -33 -2z"/>
<path d="M1375 1788 c1 -12 6 -23 12 -25 14 -5 11 23 -3 37 -7 7 -10 4 -9 -12z"/>
<path d="M2528 1803 c7 -3 16 -2 19 1 4 3 -2 6 -13 5 -11 0 -14 -3 -6 -6z"/>
<path d="M1190 1790 c0 -5 7 -7 15 -4 8 4 15 8 15 10 0 2 -7 4 -15 4 -8 0 -15
-4 -15 -10z"/>
<path d="M1232 1780 c3 -9 -12 -22 -41 -36 -85 -39 -142 -102 -119 -131 7 -9
3 -21 -11 -39 -32 -40 -28 -151 5 -157 5 -1 10 -33 10 -70 2 -74 -24 -189 -40
-180 -18 12 3 -70 24 -89 l21 -20 -2 44 c0 24 4 94 9 155 7 71 8 152 2 220 -4
59 -6 110 -4 112 10 10 16 -12 24 -81 15 -119 39 -187 86 -235 34 -36 47 -43
80 -43 44 0 88 25 113 64 17 26 17 25 14 -37 -1 -34 -5 -89 -7 -122 -4 -48 -3
-55 5 -35 6 14 14 84 20 155 5 72 15 154 23 183 9 30 18 88 22 130 7 77 19
102 48 102 26 0 43 -41 50 -118 3 -40 17 -103 29 -141 13 -38 22 -83 19 -99
-3 -25 8 -106 32 -217 3 -17 4 -17 5 3 0 13 5 21 10 17 5 -3 13 0 17 6 4 6 -1
16 -10 21 -10 6 -16 22 -16 46 0 21 -4 42 -9 48 -5 5 -11 29 -15 54 l-7 44 33
-38 c42 -49 104 -59 156 -26 58 36 112 185 112 311 0 21 8 45 20 59 11 13 20
29 20 36 0 32 -86 88 -162 103 -60 13 -92 8 -149 -20 -20 -10 -40 -15 -44 -11
-5 4 -5 2 -1 -5 9 -16 -11 -27 -54 -30 -84 -7 -111 -3 -153 25 -26 17 -57 27
-95 30 -31 3 -61 10 -65 16 -6 7 -7 6 -5 -4z m588 -25 c16 -8 39 -29 52 -47
21 -30 23 -43 22 -143 -1 -85 -6 -123 -22 -169 -37 -102 -102 -145 -173 -116
-61 26 -109 154 -109 292 0 101 20 152 69 178 44 23 121 26 161 5z m-450 -18
c40 -19 70 -91 70 -165 0 -81 -26 -208 -52 -249 -66 -108 -175 -96 -226 24
-26 61 -46 189 -40 248 7 56 45 116 89 138 40 20 124 22 159 4z m563 -57 c3
-11 1 -18 -4 -14 -5 3 -9 13 -9 22 0 15 -2 15 -10 2 -5 -8 -10 -10 -10 -4 0
30 25 26 33 -6z m-468 -7 c-9 -8 -19 -13 -22 -9 -9 8 18 37 28 30 5 -3 2 -12
-6 -21z m115 2 c0 -9 -6 -12 -15 -9 -8 4 -15 10 -15 15 0 5 7 9 15 9 8 0 15
-7 15 -15z m-475 -37 c-15 -21 -16 -21 -13 -3 2 11 7 23 13 27 17 12 17 0 0
-24z"/>
<path d="M1695 1745 l-30 -14 35 6 c40 7 45 9 33 16 -4 3 -21 -1 -38 -8z"/>
<path d="M1758 1743 c6 -2 18 -2 25 0 6 3 1 5 -13 5 -14 0 -19 -2 -12 -5z"/>
<path d="M1634 1708 l-19 -23 23 19 c12 11 22 21 22 23 0 8 -8 2 -26 -19z"/>
<path d="M1648 1663 c-8 -10 -23 -31 -33 -48 -15 -24 -15 -27 -2 -17 9 8 19
22 22 32 3 10 26 24 53 33 l47 16 -36 0 c-23 1 -41 -6 -51 -16z"/>
<path d="M1766 1651 c17 -11 36 -34 43 -51 11 -32 11 -32 -27 10 -33 37 -42
42 -66 36 -25 -6 -27 -10 -24 -49 3 -39 5 -42 33 -42 25 0 31 5 35 30 l5 30
40 -57 c40 -57 61 -74 51 -40 -2 9 -10 36 -17 60 -13 45 -58 92 -87 92 -11 0
-6 -7 14 -19z m-16 -35 c0 -28 -12 -46 -31 -46 -13 0 -19 7 -19 23 0 13 3 27
7 30 12 13 43 7 43 -7z"/>
<path d="M1710 1590 c0 -5 5 -10 10 -10 6 0 10 5 10 10 0 6 -4 10 -10 10 -5 0
-10 -4 -10 -10z"/>
<path d="M1851 1644 c0 -11 3 -14 6 -6 3 7 2 16 -1 19 -3 4 -6 -2 -5 -13z"/>
<path d="M1645 1595 c-25 -21 -28 -26 -15 -35 23 -15 29 -12 23 13 -3 16 -2
18 5 9 7 -11 11 -8 14 12 3 14 5 26 4 26 0 0 -14 -11 -31 -25z"/>
<path d="M1755 1530 c-3 -5 -1 -10 4 -10 6 0 11 5 11 10 0 6 -2 10 -4 10 -3 0
-8 -4 -11 -10z"/>
<path d="M1631 1513 c8 -10 22 -25 33 -33 10 -8 26 -22 35 -30 18 -17 71 -25
71 -11 0 6 -15 11 -32 13 -24 2 -33 8 -32 21 1 9 -2 17 -7 17 -5 0 -9 -5 -9
-11 0 -6 -12 3 -26 20 -27 32 -57 44 -33 14z"/>
<path d="M1700 1526 c0 -2 9 -6 20 -9 11 -3 20 -1 20 4 0 5 -9 9 -20 9 -11 0
-20 -2 -20 -4z"/>
<path d="M1728 1478 c-10 -6 -8 -8 5 -8 9 0 20 0 24 -1 4 0 9 4 11 9 3 11 -23
11 -40 0z"/>
<path d="M1776 1317 c3 -10 9 -15 12 -12 3 3 0 11 -7 18 -10 9 -11 8 -5 -6z"/>
<path d="M1697 1309 c7 -7 15 -10 18 -7 3 3 -2 9 -12 12 -14 6 -15 5 -6 -5z"/>
<path d="M1738 1293 c7 -3 16 -2 19 1 4 3 -2 6 -13 5 -11 0 -14 -3 -6 -6z"/>
<path d="M1285 1733 c-54 -10 -66 -15 -90 -41 -25 -27 -36 -92 -15 -92 6 0 10
7 10 16 0 25 31 84 41 78 5 -3 9 -1 9 5 0 5 18 9 40 8 22 -2 42 2 44 8 3 7 7
7 13 0 4 -5 16 -11 27 -12 26 -2 6 16 -30 25 -16 5 -38 7 -49 5z"/>
<path d="M1315 1640 c-3 -6 4 -10 17 -10 40 0 67 -11 62 -25 -6 -15 12 -29 20
-16 4 5 -4 21 -17 35 -25 26 -70 35 -82 16z"/>
<path d="M1135 1595 c-4 -25 -3 -66 3 -92 9 -46 10 -43 11 45 0 50 -1 92 -3
92 -3 0 -8 -20 -11 -45z"/>
<path d="M1226 1589 c-14 -17 -26 -43 -26 -58 0 -14 -7 -37 -16 -49 -19 -27
-1 -29 26 -2 21 21 53 90 45 98 -2 3 -12 -10 -20 -29 -16 -34 -16 -34 -10 -4
3 17 17 40 31 53 17 14 20 22 10 22 -8 0 -26 -14 -40 -31z"/>
<path d="M1278 1600 c-10 -6 -15 -17 -11 -26 4 -12 8 -11 20 6 16 23 33 27 33
7 0 -17 -36 -47 -46 -39 -4 4 -4 -1 -1 -11 4 -10 7 -21 7 -23 0 -2 8 -4 19 -4
27 0 43 24 39 62 -3 36 -28 47 -60 28z m52 -44 c0 -8 -7 -16 -15 -20 -13 -4
-14 -2 -5 14 13 23 20 26 20 6z"/>
<path d="M1360 1577 c0 -10 41 -49 46 -45 2 3 -7 15 -21 28 -14 13 -25 20 -25
17z"/>
<path d="M1415 1570 c-3 -5 -1 -10 4 -10 6 0 11 5 11 10 0 6 -2 10 -4 10 -3 0
-8 -4 -11 -10z"/>
<path d="M1365 1530 c3 -5 8 -10 11 -10 2 0 4 5 4 10 0 6 -5 10 -11 10 -5 0
-7 -4 -4 -10z"/>
<path d="M1386 1484 c-9 -24 -7 -28 9 -14 17 14 20 30 6 30 -5 0 -12 -7 -15
-16z"/>
<path d="M1326 1459 c-10 -6 -33 -9 -52 -6 -39 7 -47 -9 -9 -19 26 -6 34 -29
13 -37 -10 -4 -10 -6 0 -6 7 -1 17 10 22 24 10 26 35 34 43 13 2 -7 6 -1 9 15
6 30 2 32 -26 16z"/>
<path d="M1290 1329 c0 -5 5 -7 10 -4 6 3 10 8 10 11 0 2 -4 4 -10 4 -5 0 -10
-5 -10 -11z"/>
<path d="M1315 1290 c-3 -5 -1 -10 4 -10 6 0 11 5 11 10 0 6 -2 10 -4 10 -3 0
-8 -4 -11 -10z"/>
<path d="M1268 1273 c7 -3 16 -2 19 1 4 3 -2 6 -13 5 -11 0 -14 -3 -6 -6z"/>
<path d="M220 1751 c0 -25 6 -27 13 -6 4 8 2 17 -3 20 -6 4 -10 -3 -10 -14z"/>
<path d="M1970 1662 c0 -12 19 -26 26 -19 2 2 -2 10 -11 17 -9 8 -15 8 -15 2z"/>
<path d="M385 1619 c-3 -4 -2 -15 1 -24 4 -9 2 -20 -4 -24 -10 -6 -15 -32 -13
-66 1 -11 10 5 20 35 10 30 21 62 25 71 5 10 2 16 -9 16 -9 0 -18 -4 -20 -8z"/>
<path d="M517 1606 c10 -13 19 -23 21 -21 5 5 -22 45 -31 45 -4 0 0 -11 10
-24z"/>
<path d="M1946 1621 c-6 -9 1 -260 8 -296 14 -74 19 -115 17 -147 -1 -44 1
-45 29 -16 25 27 26 80 3 108 -27 32 -43 99 -43 185 1 65 3 76 12 60 11 -19
11 -19 19 0 14 36 10 81 -9 98 -21 19 -28 21 -36 8z"/>
<path d="M541 1548 c1 -7 5 -24 9 -38 7 -21 8 -20 7 12 -1 21 -5 38 -9 38 -5
0 -8 -6 -7 -12z"/>
<path d="M2050 1536 c0 -15 34 -78 37 -69 4 11 -23 73 -32 73 -3 0 -5 -2 -5
-4z"/>
<path d="M372 1455 c0 -16 4 -43 8 -60 11 -42 11 -1 1 50 -7 34 -9 35 -9 10z"/>
<path d="M545 1433 c-8 -58 -29 -99 -55 -113 -11 -6 -20 -16 -20 -22 0 -22 62
39 74 72 12 37 21 110 13 110 -3 0 -8 -21 -12 -47z"/>
<path d="M976 1445 c-10 -15 -19 -43 -22 -63 -3 -30 -2 -32 4 -12 5 14 17 40
26 58 21 41 15 53 -8 17z"/>
<path d="M1987 1434 c-11 -11 -8 -74 3 -74 6 0 10 9 10 19 0 11 4 22 9 26 14
8 31 -59 38 -153 8 -111 27 -83 25 37 -3 119 -11 145 -48 149 -16 2 -33 0 -37
-4z"/>
<path d="M1462 1370 c0 -14 2 -19 5 -12 2 6 2 18 0 25 -3 6 -5 1 -5 -13z"/>
<path d="M402 1341 c6 -10 20 -24 30 -30 20 -12 20 -12 2 13 -23 31 -50 45
-32 17z"/>
<path d="M985 1351 c-7 -12 -3 -203 5 -226 4 -11 10 12 14 55 3 41 9 96 12
121 5 36 3 47 -10 52 -8 3 -18 2 -21 -2z"/>
<path d="M0 1342 c0 -5 7 -16 16 -23 14 -12 16 -11 13 5 -4 20 -29 35 -29 18z"/>
<path d="M1040 1325 c0 -28 16 -50 24 -36 4 6 0 21 -8 33 -15 21 -16 21 -16 3z"/>
<path d="M772 1280 c0 -14 2 -19 5 -12 2 6 2 18 0 25 -3 6 -5 1 -5 -13z"/>
<path d="M507 1269 c7 -7 15 -10 18 -7 3 3 -2 9 -12 12 -14 6 -15 5 -6 -5z"/>
<path d="M305 1260 c3 -5 10 -10 16 -10 5 0 9 5 9 10 0 6 -7 10 -16 10 -8 0
-12 -4 -9 -10z"/>
<path d="M578 1263 c7 -3 16 -2 19 1 4 3 -2 6 -13 5 -11 0 -14 -3 -6 -6z"/>
<path d="M56 1245 c4 -8 13 -15 21 -15 13 0 13 3 3 15 -7 8 -16 15 -21 15 -5
0 -6 -7 -3 -15z"/>
<path d="M197 1247 c-6 -16 30 -20 39 -4 4 7 4 9 -1 5 -4 -4 -14 -3 -20 2 -9
7 -14 7 -18 -3z"/>
<path d="M1450 1234 c0 -17 4 -34 9 -39 5 -6 11 -19 14 -30 6 -20 1 35 -6 67
-6 31 -17 32 -17 2z"/>
<path d="M1560 1230 c0 -5 5 -10 10 -10 6 0 10 5 10 10 0 6 -4 10 -10 10 -5 0
-10 -4 -10 -10z"/>
<path d="M1327 1193 c-10 -9 -9 -23 2 -23 5 0 11 7 15 15 5 15 -5 20 -17 8z"/>
<path d="M220 1150 c0 -5 5 -10 10 -10 6 0 10 5 10 10 0 6 -4 10 -10 10 -5 0
-10 -4 -10 -10z"/>
<path d="M1873 1144 c-3 -8 -1 -20 6 -27 8 -8 11 -4 11 16 0 30 -7 35 -17 11z"/>
<path d="M2021 1131 c-9 -16 -10 -26 -2 -34 13 -13 25 12 19 40 -3 16 -5 15
-17 -6z"/>
<path d="M1526 1125 c4 -8 8 -15 10 -15 2 0 4 7 4 15 0 8 -4 15 -10 15 -5 0
-7 -7 -4 -15z"/>
<path d="M2992 1120 c0 -14 2 -19 5 -12 2 6 2 18 0 25 -3 6 -5 1 -5 -13z"/>
<path d="M1941 1081 c-1 -19 2 -31 6 -28 10 10 53 -71 47 -88 -4 -8 -10 -15
-15 -15 -12 0 -29 35 -29 59 0 12 -4 21 -10 21 -16 0 -12 -63 6 -88 21 -30 41
-28 58 7 14 26 14 32 -4 69 -11 22 -25 44 -31 47 -6 4 -14 17 -19 29 -8 18 -9
16 -9 -13z"/>
<path d="M1670 1090 c0 -5 5 -10 11 -10 5 0 7 5 4 10 -3 6 -8 10 -11 10 -2 0
-4 -4 -4 -10z"/>
<path d="M1006 1065 c8 -34 12 -41 20 -33 3 4 -2 19 -10 35 l-16 28 6 -30z"/>
<path d="M1431 1064 c-23 -27 -24 -29 -8 -57 10 -16 17 -37 17 -47 0 -18 27
-47 35 -38 3 3 0 10 -8 16 -18 15 -10 82 10 82 13 0 13 3 3 15 -7 8 -20 15
-29 15 -13 0 -13 2 -2 9 7 5 12 14 10 20 -3 7 -14 1 -28 -15z"/>
<path d="M1536 1082 c-11 -19 -16 -73 -6 -67 5 3 10 17 10 31 0 13 5 24 10 24
6 0 10 5 10 10 0 12 -17 13 -24 2z"/>
<path d="M1480 1070 c0 -5 5 -10 10 -10 6 0 10 5 10 10 0 6 -4 10 -10 10 -5 0
-10 -4 -10 -10z"/>
<path d="M1575 1057 c-14 -14 -16 -21 -7 -24 6 -3 12 -16 12 -30 l0 -26 20 26
c22 28 27 74 8 74 -7 0 -22 -9 -33 -20z"/>
<path d="M205 1060 c-3 -5 -1 -10 4 -10 6 0 11 5 11 10 0 6 -2 10 -4 10 -3 0
-8 -4 -11 -10z"/>
<path d="M1685 1050 c4 -14 18 -40 32 -58 40 -54 65 -122 74 -202 l8 -75 -4
85 c-3 92 -20 143 -60 186 -14 15 -25 33 -25 41 0 8 -7 22 -16 31 -15 15 -16
14 -9 -8z"/>
<path d="M2056 1043 c-6 -14 -5 -15 5 -6 7 7 10 15 7 18 -3 3 -9 -2 -12 -12z"/>
<path d="M0 1035 c0 -8 5 -15 10 -15 6 0 10 7 10 15 0 8 -4 15 -10 15 -5 0
-10 -7 -10 -15z"/>
<path d="M1088 1022 c-4 -12 -2 -22 2 -22 5 0 11 -12 13 -27 4 -28 4 -28 5 2
0 17 -3 39 -7 49 -7 19 -8 19 -13 -2z"/>
<path d="M1544 999 c-3 -6 -18 -8 -33 -5 -14 4 -21 3 -14 -1 16 -11 28 -63 14
-63 -6 0 -11 -8 -11 -17 1 -17 1 -17 14 0 18 23 30 22 23 -3 -6 -24 8 -36 17
-14 12 30 7 56 -9 50 -9 -3 -15 0 -15 10 0 8 4 13 9 10 5 -3 11 5 13 19 6 27
3 31 -8 14z"/>
<path d="M1142 980 c0 -14 2 -19 5 -12 2 6 2 18 0 25 -3 6 -5 1 -5 -13z"/>
<path d="M1066 973 c-6 -14 -5 -15 5 -6 7 7 10 15 7 18 -3 3 -9 -2 -12 -12z"/>
<path d="M695 970 c-3 -5 -1 -10 4 -10 6 0 11 5 11 10 0 6 -2 10 -4 10 -3 0
-8 -4 -11 -10z"/>
<path d="M1595 927 c4 -17 10 -36 14 -40 10 -10 8 24 -2 40 -4 6 -2 13 5 15 7
3 5 7 -6 11 -15 6 -17 3 -11 -26z"/>
<path d="M1028 945 c-7 -8 18 -83 34 -100 10 -11 57 42 58 66 0 26 -13 30 -24
7 -17 -33 -34 -33 -48 2 -7 17 -16 28 -20 25z"/>
<path d="M1398 911 c-9 -10 -19 -33 -23 -50 -4 -17 -11 -29 -16 -25 -5 3 -7
15 -3 26 5 18 4 19 -9 7 -9 -9 -12 -20 -7 -29 11 -21 -16 -119 -37 -136 -17
-12 -16 -13 9 -14 14 0 28 5 30 12 6 16 61 22 159 17 38 -2 69 3 93 15 20 9
41 14 46 11 15 -9 89 -15 94 -7 2 4 0 27 -5 52 -6 25 -10 56 -10 70 l1 25 -13
-25 c-8 -14 -12 -42 -9 -63 5 -42 -12 -51 -22 -12 -7 27 -36 35 -36 9 0 -8 5
-12 10 -9 6 3 10 1 10 -4 0 -6 -13 -11 -28 -11 -16 0 -37 -7 -48 -15 -26 -19
-37 -19 -30 3 6 16 5 16 -7 0 -11 -13 -28 -16 -80 -15 -68 2 -74 13 -17 32 29
10 29 11 10 22 -15 10 -18 10 -15 0 3 -7 -5 -13 -20 -13 -31 -2 -58 -23 -51
-40 3 -8 0 -11 -10 -7 -18 7 -18 57 0 72 7 6 16 26 20 43 3 17 14 40 23 50 9
10 14 20 12 23 -3 2 -12 -4 -21 -14z"/>
<path d="M1427 900 c-3 -11 -1 -20 4 -20 5 0 9 2 9 4 0 2 3 11 6 20 3 9 2 16
-4 16 -5 0 -12 -9 -15 -20z"/>
<path d="M1670 904 c0 -8 -4 -13 -9 -10 -5 4 -7 -3 -4 -14 8 -31 23 -34 23 -5
0 15 4 24 10 20 6 -3 7 1 4 9 -8 21 -24 21 -24 0z"/>
<path d="M1732 890 c0 -14 2 -19 5 -12 2 6 2 18 0 25 -3 6 -5 1 -5 -13z"/>
<path d="M1173 855 c0 -8 4 -12 9 -9 5 3 6 10 3 15 -9 13 -12 11 -12 -6z"/>
<path d="M1141 844 c0 -11 3 -14 6 -6 3 7 2 16 -1 19 -3 4 -6 -2 -5 -13z"/>
<path d="M1314 837 c3 -10 1 -27 -4 -37 -6 -11 -6 -21 -1 -24 14 -9 23 43 11
62 -11 16 -11 16 -6 -1z"/>
<path d="M1734 838 c-4 -6 -3 -8 4 -4 5 3 13 0 15 -6 3 -8 6 -6 6 5 1 19 -14
23 -25 5z"/>
<path d="M1551 816 c-17 -18 -19 -26 -10 -31 7 -5 10 -4 5 3 -3 6 3 13 14 17
11 3 20 13 20 21 0 19 -3 18 -29 -10z"/>
<path d="M1192 810 c0 -14 2 -19 5 -12 2 6 2 18 0 25 -3 6 -5 1 -5 -13z"/>
<path d="M1266 808 c-3 -13 -5 -36 -5 -53 1 -21 4 -15 10 20 8 52 6 72 -5 33z"/>
<path d="M1606 810 c-11 -3 -15 -9 -10 -13 10 -6 42 9 34 16 -3 3 -14 1 -24
-3z"/>
<path d="M1490 800 c0 -5 7 -7 15 -4 8 4 15 8 15 10 0 2 -7 4 -15 4 -8 0 -15
-4 -15 -10z"/>
<path d="M1890 795 c0 -8 2 -15 4 -15 2 0 6 7 10 15 3 8 1 15 -4 15 -6 0 -10
-7 -10 -15z"/>
<path d="M2915 791 c-3 -5 -1 -12 5 -16 5 -3 10 1 10 9 0 18 -6 21 -15 7z"/>
<path d="M1752 747 c-12 -14 -5 -57 9 -57 5 0 4 11 -1 24 -5 15 -5 27 3 35 6
6 8 11 5 11 -3 0 -10 -6 -16 -13z"/>
<path d="M2909 720 c-3 -66 2 -105 15 -115 7 -5 15 -17 19 -25 4 -12 6 -11 6
3 1 24 -3 32 -14 29 -5 -2 -7 0 -3 3 4 4 1 16 -6 27 -10 14 -12 29 -5 50 5 19
5 37 -1 47 -7 12 -10 8 -11 -19z"/>
<path d="M1261 704 c0 -11 3 -14 6 -6 3 7 2 16 -1 19 -3 4 -6 -2 -5 -13z"/>
<path d="M1610 689 c0 -4 -11 -10 -25 -13 -14 -4 -25 -11 -25 -16 0 -11 23 -3
64 21 26 16 27 18 8 16 -12 -1 -22 -4 -22 -8z"/>
<path d="M1425 680 c-18 -7 -18 -9 -3 -15 23 -9 39 -3 30 11 -4 7 -15 8 -27 4z"/>
<path d="M1307 674 c-4 -4 -7 -14 -7 -23 0 -11 3 -12 11 -4 6 6 10 16 7 23 -2
6 -7 8 -11 4z"/>
<path d="M1750 670 c0 -8 -3 -32 -6 -52 -4 -23 -3 -38 3 -38 14 0 24 82 12 95
-6 5 -9 4 -9 -5z"/>
<path d="M1160 658 c0 -7 5 -20 10 -28 8 -12 10 -11 10 7 0 12 -4 25 -10 28
-5 3 -10 0 -10 -7z"/>
<path d="M1515 660 c-3 -5 -1 -10 4 -10 6 0 11 5 11 10 0 6 -2 10 -4 10 -3 0
-8 -4 -11 -10z"/>
<path d="M1478 653 c7 -3 16 -2 19 1 4 3 -2 6 -13 5 -11 0 -14 -3 -6 -6z"/>
<path d="M1281 634 c0 -11 3 -14 6 -6 3 7 2 16 -1 19 -3 4 -6 -2 -5 -13z"/>
<path d="M1578 635 c-2 -3 -24 -6 -47 -8 -22 -1 -41 -7 -41 -12 0 -16 95 -1
106 16 5 10 -9 13 -18 4z"/>
<path d="M1371 614 c0 -11 3 -14 6 -6 3 7 2 16 -1 19 -3 4 -6 -2 -5 -13z"/>
<path d="M1440 620 c0 -5 4 -10 9 -10 6 0 13 5 16 10 3 6 -1 10 -9 10 -9 0
-16 -4 -16 -10z"/>
<path d="M2992 570 c0 -19 2 -27 5 -17 2 9 2 25 0 35 -3 9 -5 1 -5 -18z"/>
<path d="M1297 584 c-8 -8 3 -34 14 -34 11 0 12 27 0 34 -4 3 -11 3 -14 0z"/>
<path d="M1545 581 c-3 -5 -1 -12 5 -16 5 -3 10 1 10 9 0 18 -6 21 -15 7z"/>
<path d="M1950 579 c0 -6 -7 -8 -15 -5 -9 3 -18 0 -20 -7 -2 -6 -6 -127 -8
-267 -3 -140 -8 -265 -12 -277 -9 -27 9 -32 19 -6 4 9 9 60 13 112 3 53 10
104 15 115 8 14 7 17 -4 11 -9 -6 -10 -5 -2 4 7 7 9 61 7 152 -3 134 -2 139
16 130 21 -12 58 -70 62 -98 2 -10 -5 -34 -16 -53 -23 -44 -22 -110 2 -158 78
-150 103 -203 103 -216 0 -9 5 -16 10 -16 6 0 10 14 10 32 0 40 -29 120 -41
112 -5 -3 -13 5 -18 18 -5 13 -22 39 -38 58 -24 29 -28 42 -27 94 1 66 19 115
36 98 7 -7 7 -21 -1 -43 -16 -48 -14 -68 16 -131 31 -66 48 -75 40 -20 -4 20
-9 69 -13 107 -7 68 -43 155 -98 238 -19 28 -36 36 -36 16z m114 -255 c3 -9 6
-25 6 -36 0 -17 -3 -18 -15 -8 -16 13 -21 60 -6 60 5 0 12 -7 15 -16z"/>
<path d="M1140 543 c0 -10 -26 -45 -57 -78 -111 -119 -121 -135 -133 -210 -14
-90 -20 -255 -9 -255 9 0 13 42 10 98 -2 18 3 39 9 47 9 11 9 15 1 15 -6 0
-11 7 -11 15 0 8 4 15 8 15 5 0 9 8 9 18 -1 121 18 121 31 0 l11 -93 -5 110
-4 111 61 67 c34 37 65 67 69 67 4 0 11 -80 15 -177 3 -98 8 -191 11 -208 9
-63 16 -85 26 -85 6 0 8 9 3 23 -5 17 -20 334 -24 510 -1 29 -21 39 -21 10z"/>
<path d="M1507 540 c-5 -18 -3 -19 10 -8 9 7 18 12 20 11 1 -2 3 0 4 5 1 18
-29 11 -34 -8z"/>
<path d="M1745 550 c3 -5 8 -10 11 -10 2 0 4 5 4 10 0 6 -5 10 -11 10 -5 0 -7
-4 -4 -10z"/>
<path d="M1322 506 c16 -31 18 -32 18 -4 0 15 -6 25 -14 25 -12 0 -13 -5 -4
-21z"/>
<path d="M1861 469 c-33 -93 -118 -247 -162 -296 -21 -22 -40 -39 -42 -37 -3
3 -7 -2 -10 -10 -8 -21 21 -9 51 21 13 13 26 23 31 23 4 0 29 39 56 86 34 60
50 82 56 72 6 -9 9 -4 9 15 0 16 9 60 21 98 27 89 20 111 -10 28z"/>
<path d="M1538 512 c-10 -2 -18 -10 -18 -18 0 -16 9 -18 29 -5 18 12 10 28
-11 23z"/>
<path d="M1211 494 c0 -11 3 -14 6 -6 3 7 2 16 -1 19 -3 4 -6 -2 -5 -13z"/>
<path d="M1455 500 c3 -5 8 -10 11 -10 2 0 4 5 4 10 0 6 -5 10 -11 10 -5 0 -7
-4 -4 -10z"/>
<path d="M1357 463 c-4 -3 -7 -11 -7 -17 0 -6 5 -5 12 2 6 6 9 14 7 17 -3 3
-9 2 -12 -2z"/>
<path d="M1275 450 c-3 -5 -1 -10 4 -10 6 0 11 5 11 10 0 6 -2 10 -4 10 -3 0
-8 -4 -11 -10z"/>
<path d="M1196 425 c13 -69 100 -259 115 -250 5 4 9 -8 9 -24 0 -17 4 -31 9
-31 5 0 12 -8 14 -17 4 -16 5 -16 6 -1 0 9 -3 20 -9 23 -5 3 -10 14 -10 23 0
12 9 8 30 -17 17 -18 30 -30 30 -25 0 5 4 3 8 -4 10 -15 52 -25 52 -11 0 5 -8
9 -17 9 -22 0 -100 80 -105 106 -2 11 -13 27 -25 37 -12 10 -33 41 -46 70 -59
128 -67 143 -61 112z"/>
<path d="M1630 430 c-9 -6 -10 -10 -3 -10 6 0 15 5 18 10 8 12 4 12 -15 0z"/>
<path d="M1521 404 c0 -11 3 -14 6 -6 3 7 2 16 -1 19 -3 4 -6 -2 -5 -13z"/>
<path d="M1330 391 c0 -25 6 -27 13 -6 4 8 2 17 -3 20 -6 4 -10 -3 -10 -14z"/>
<path d="M1763 384 c-6 -13 -7 -24 -3 -24 9 0 25 39 18 45 -2 2 -8 -7 -15 -21z"/>
<path d="M1543 373 c-7 -2 -13 -12 -13 -21 0 -14 2 -14 9 -3 7 11 9 11 14 0 3
-8 6 -4 6 9 1 12 0 22 -1 21 -2 0 -9 -3 -15 -6z"/>
<path d="M1436 343 c-6 -14 -5 -15 5 -6 7 7 10 15 7 18 -3 3 -9 -2 -12 -12z"/>
<path d="M1325 330 c3 -5 8 -10 11 -10 2 0 4 5 4 10 0 6 -5 10 -11 10 -5 0 -7
-4 -4 -10z"/>
<path d="M1571 314 c0 -11 3 -14 6 -6 3 7 2 16 -1 19 -3 4 -6 -2 -5 -13z"/>
<path d="M1617 309 c4 -13 8 -18 11 -10 2 7 -1 18 -6 23 -8 8 -9 4 -5 -13z"/>
<path d="M1450 305 c-11 -13 -10 -14 4 -9 9 3 16 10 16 15 0 13 -6 11 -20 -6z"/>
<path d="M1541 293 c-16 -17 -11 -25 8 -14 7 5 12 13 10 19 -2 6 -10 4 -18 -5z"/>
<path d="M1663 280 c0 -16 4 -30 9 -30 10 0 10 31 0 48 -6 8 -9 2 -9 -18z"/>
<path d="M1491 289 c0 -9 -8 -22 -16 -29 -12 -10 -12 -14 0 -26 19 -19 31 -18
14 2 -10 13 -10 17 0 23 7 5 11 17 8 27 -4 15 -5 15 -6 3z"/>
<path d="M1420 265 c0 -15 4 -24 10 -20 6 3 10 12 10 20 0 8 -4 17 -10 20 -6
4 -10 -5 -10 -20z"/>
<path d="M1701 273 c0 -13 -5 -23 -11 -23 -5 0 -10 -8 -10 -17 0 -16 -2 -16
-11 -3 -8 12 -9 10 -5 -10 3 -14 6 -31 6 -38 0 -7 4 -11 10 -7 5 3 7 12 4 20
-3 7 2 25 11 39 9 14 15 33 12 43 -4 14 -5 13 -6 -4z"/>
<path d="M1125 269 c-4 -6 -5 -12 -2 -15 2 -3 7 2 10 11 7 17 1 20 -8 4z"/>
<path d="M1550 238 c0 -12 3 -18 7 -14 11 10 12 36 2 36 -5 0 -9 -10 -9 -22z"/>
<path d="M1370 225 c0 -8 4 -15 10 -15 5 0 7 7 4 15 -4 8 -8 15 -10 15 -2 0
-4 -7 -4 -15z"/>
<path d="M1437 201 c-4 -17 -3 -21 5 -13 5 5 8 16 6 23 -3 8 -7 3 -11 -10z"/>
<path d="M1461 215 c0 -18 28 -61 29 -44 0 8 -7 24 -15 35 -8 10 -14 15 -14 9z"/>
<path d="M1598 190 c10 -12 18 -16 21 -9 2 6 -3 15 -10 20 -24 15 -29 10 -11
-11z"/>
<path d="M1400 161 c0 -5 5 -13 10 -16 6 -3 10 -2 10 4 0 5 -4 13 -10 16 -5 3
-10 2 -10 -4z"/>
<path d="M1440 160 c0 -5 5 -10 11 -10 5 0 7 5 4 10 -3 6 -8 10 -11 10 -2 0
-4 -4 -4 -10z"/>
<path d="M1725 140 c-3 -5 -1 -10 4 -10 6 0 11 5 11 10 0 6 -2 10 -4 10 -3 0
-8 -4 -11 -10z"/>
<path d="M1615 89 c-4 -11 -4 -23 -1 -26 3 -4 6 1 6 9 0 9 5 18 12 20 9 3 9 6
1 11 -7 4 -14 -1 -18 -14z"/>
<path d="M1561 44 c0 -11 3 -14 6 -6 3 7 2 16 -1 19 -3 4 -6 -2 -5 -13z"/>
</g>
</svg>
