<?xml version="1.0" standalone="no"?>
<!DOCTYPE svg PUBLIC "-//W3C//DTD SVG 20010904//EN"
 "http://www.w3.org/TR/2001/REC-SVG-20010904/DTD/svg10.dtd">
<svg version="1.0" xmlns="http://www.w3.org/2000/svg"
 width="300.000000pt" height="300.000000pt" viewBox="0 0 300.000000 300.000000"
 preserveAspectRatio="xMidYMid meet">
<metadata>
Created by potrace 1.10, written by Peter Selinger 2001-2011
</metadata>
<g transform="translate(0.000000,300.000000) scale(0.100000,-0.100000)"
fill="#000000" stroke="none">
<path d="M1606 2963 c-4 -9 -2 -21 4 -27 7 -7 10 -2 10 17 0 31 -5 34 -14 10z"/>
<path d="M1355 2946 c-17 -6 -54 -28 -82 -48 -28 -21 -55 -38 -60 -38 -11 0
-75 -47 -106 -77 -17 -17 -17 -18 3 -25 11 -4 20 -14 20 -21 0 -8 7 -20 15
-27 9 -8 15 -9 15 -2 0 6 -4 14 -10 17 -15 9 -12 25 4 19 14 -5 63 -102 59
-116 -2 -4 1 -8 5 -8 5 0 20 -10 33 -21 l24 -22 -25 6 c-14 4 -31 7 -37 7 -7
0 -13 7 -13 16 0 10 -6 14 -14 11 -16 -6 -56 32 -56 53 0 9 9 5 25 -10 45 -43
34 -16 -16 38 -45 48 -69 53 -34 6 8 -10 15 -28 15 -39 1 -45 63 -92 130 -99
25 -2 69 -14 98 -25 59 -24 87 -27 76 -9 -5 8 -2 9 12 4 10 -5 35 -13 54 -18
19 -6 41 -15 48 -20 7 -6 15 -8 18 -5 12 12 -8 26 -49 32 -23 4 -45 12 -48 16
-3 5 -23 12 -43 14 -81 11 -175 77 -211 148 -13 25 -13 28 0 23 8 -3 15 -1 15
3 0 14 -28 21 -33 8 -3 -7 -10 1 -16 16 -15 37 -1 63 39 71 35 6 87 -12 109
-37 18 -23 2 -21 -29 3 -27 21 -40 25 -40 12 0 -8 97 -66 110 -67 3 0 21 -10
40 -23 26 -18 29 -22 11 -17 -16 5 -21 4 -17 -4 4 -6 23 -11 42 -11 19 0 34
-4 34 -10 0 -10 -17 -13 -50 -11 -10 0 -11 -1 -2 -5 6 -3 12 -12 12 -20 0 -8
5 -14 11 -14 19 0 79 -32 75 -39 -3 -4 11 -7 30 -7 20 0 38 -4 42 -9 4 -6 18
-11 32 -12 25 -2 -81 55 -143 76 -16 6 -28 14 -25 17 3 3 23 -2 43 -10 21 -9
40 -16 43 -16 3 0 -35 38 -84 85 -49 47 -92 85 -96 85 -5 0 -8 5 -8 10 0 6 -5
10 -11 10 -5 0 -7 -5 -3 -11 4 -7 1 -10 -7 -7 -8 3 -13 10 -12 16 1 6 -11 16
-27 24 -32 14 -39 32 -17 41 35 13 126 18 145 8 13 -7 23 -7 27 -2 7 12 -29
32 -47 27 -36 -11 -78 -14 -78 -6 0 6 19 10 42 10 33 0 39 3 30 12 -19 19 -14
29 13 22 15 -4 25 -2 25 5 0 14 -35 12 -75 -3z m40 -205 c5 -12 3 -12 -11 0
-9 8 -22 14 -28 14 -11 0 -16 7 -16 25 0 14 47 -20 55 -39z"/>
<path d="M1443 2941 c1 -13 11 -21 31 -25 16 -3 26 -9 23 -12 -3 -4 4 -15 16
-24 29 -24 19 -32 -23 -20 -19 5 -29 6 -24 1 18 -17 61 -21 73 -7 9 10 7 16
-4 26 -9 8 -21 23 -26 34 -6 13 -1 10 16 -9 43 -50 70 -78 129 -130 73 -65 77
-67 41 -25 -16 19 -36 38 -42 43 -20 12 -16 38 4 30 11 -4 14 -3 9 6 -5 7 -15
10 -23 6 -9 -3 -31 6 -49 20 -28 21 -32 28 -21 40 10 12 16 10 40 -17 32 -38
35 -32 6 16 -17 29 -24 34 -39 26 -13 -7 -19 -6 -24 5 -3 9 -19 15 -41 15 -20
0 -45 5 -55 10 -15 8 -19 7 -17 -9z"/>
<path d="M1630 2911 c0 -20 48 -49 80 -49 31 1 67 -12 158 -55 12 -6 18 -13
12 -17 -10 -6 76 -75 95 -75 13 0 63 -48 58 -57 -6 -12 18 -21 29 -10 8 8 15
6 25 -4 8 -8 24 -14 36 -14 12 -1 33 -7 47 -15 42 -24 47 -17 8 10 -20 14 -49
25 -63 25 -15 0 -24 4 -20 10 4 6 11 8 16 5 5 -4 9 -1 9 6 0 7 -13 10 -36 7
-29 -3 -38 -1 -42 14 -2 10 -9 18 -14 18 -9 0 -47 27 -88 62 -52 45 -94 68
-165 92 -44 15 -84 31 -90 35 -15 12 -55 20 -55 12z"/>
<path d="M1360 2866 c19 -18 60 -30 60 -18 0 6 -14 15 -31 21 -42 14 -46 14
-29 -3z"/>
<path d="M1735 2835 c17 -13 26 -25 20 -25 -11 -1 64 -40 77 -40 11 0 47 -37
42 -43 -3 -3 8 -9 25 -15 25 -9 29 -8 24 4 -3 8 -9 14 -13 14 -5 0 -32 20 -61
45 -29 25 -58 45 -63 45 -6 0 -22 9 -36 20 -37 29 -50 24 -15 -5z"/>
<path d="M1305 2840 c3 -5 10 -10 16 -10 5 0 9 5 9 10 0 6 -7 10 -16 10 -8 0
-12 -4 -9 -10z"/>
<path d="M1430 2835 c-9 -11 -5 -17 20 -30 36 -18 121 -95 116 -104 -2 -3 8
-15 22 -25 23 -18 23 -15 -9 30 -18 27 -46 61 -61 75 -14 15 -25 29 -23 31 2
2 -9 11 -25 20 -24 14 -31 14 -40 3z"/>
<path d="M1715 2820 c3 -5 11 -10 16 -10 6 0 7 5 4 10 -3 6 -11 10 -16 10 -6
0 -7 -4 -4 -10z"/>
<path d="M1680 2810 c0 -6 7 -13 15 -16 8 -4 13 -10 10 -14 -3 -4 11 -20 30
-36 19 -15 33 -30 30 -32 -9 -10 70 -93 104 -109 20 -10 42 -24 49 -33 11 -13
11 -13 6 2 -3 9 -28 31 -54 48 -49 31 -80 60 -64 60 5 0 34 -16 64 -35 58 -37
125 -49 114 -20 -4 10 -11 12 -23 6 -17 -10 -81 11 -81 26 0 4 -12 14 -27 21
-16 7 -39 22 -52 33 -21 17 -23 22 -10 30 10 8 11 12 2 15 -7 3 -31 18 -55 34
-46 32 -58 36 -58 20z m55 -40 c3 -5 1 -10 -4 -10 -6 0 -11 5 -11 10 0 6 2 10
4 10 3 0 8 -4 11 -10z m65 -80 c0 -5 -2 -10 -4 -10 -3 0 -8 5 -11 10 -3 6 -1
10 4 10 6 0 11 -4 11 -10z"/>
<path d="M1193 2803 c9 -2 25 -2 35 0 9 3 1 5 -18 5 -19 0 -27 -2 -17 -5z"/>
<path d="M1551 2805 c0 -13 38 -59 44 -54 2 3 -7 18 -20 34 -13 17 -24 26 -24
20z"/>
<path d="M1460 2765 c7 -8 17 -15 22 -15 5 0 3 7 -6 15 -8 8 -18 15 -22 15 -3
0 -1 -7 6 -15z"/>
<path d="M1223 2749 c22 -11 42 -18 45 -14 3 3 -4 8 -16 12 -12 3 -22 9 -22
14 0 5 -10 9 -22 9 -19 -1 -16 -5 15 -21z"/>
<path d="M1410 2766 c0 -2 9 -6 20 -9 11 -3 18 -1 14 4 -5 9 -34 13 -34 5z"/>
<path d="M1653 2723 c20 -22 34 -43 30 -48 -5 -4 -3 -5 3 -2 6 3 28 -12 49
-33 22 -22 34 -40 28 -40 -5 0 -21 13 -34 29 -21 25 -67 41 -53 19 3 -5 9 -6
13 -4 4 3 21 -8 37 -25 15 -16 34 -27 41 -25 7 3 19 -3 25 -14 7 -11 19 -20
27 -20 10 0 7 8 -10 26 -16 19 -20 28 -11 31 6 3 9 9 6 15 -4 7 -9 6 -13 -1
-4 -7 -32 12 -72 50 -74 70 -122 100 -66 42z"/>
<path d="M2010 2750 c0 -6 7 -10 15 -10 8 0 15 2 15 4 0 2 -7 6 -15 10 -8 3
-15 1 -15 -4z"/>
<path d="M1047 2727 c-15 -12 -27 -28 -27 -35 0 -7 -4 -11 -9 -9 -10 2 -61
-62 -114 -145 -32 -51 -34 -58 -18 -63 10 -3 34 1 53 10 30 12 38 12 47 1 9
-11 6 -13 -16 -10 -16 2 -21 1 -13 -2 8 -4 24 -14 34 -23 11 -9 16 -10 12 -3
-4 7 -1 12 8 12 9 0 16 -6 16 -12 0 -7 14 -21 30 -30 37 -21 38 -15 3 18 -17
14 -21 22 -10 18 9 -3 17 -10 17 -15 0 -5 6 -9 14 -9 8 0 21 -6 28 -13 24 -24
56 -37 93 -37 32 0 35 2 26 19 -6 10 -28 28 -50 38 -36 18 -39 18 -31 3 5 -10
17 -20 25 -24 17 -6 12 -26 -6 -26 -6 0 -8 4 -5 9 3 4 -11 17 -32 27 -20 10
-59 34 -86 52 -54 36 -55 36 -89 23 -20 -8 -27 -6 -31 6 -4 9 -4 18 -1 21 3 3
5 0 5 -7 0 -7 5 -9 10 -6 6 3 10 15 10 25 0 21 19 37 29 24 10 -15 65 -51 89
-58 12 -4 22 -12 22 -17 0 -5 7 -9 15 -9 8 0 15 -4 15 -9 0 -6 8 -9 18 -9 9 0
26 -3 37 -8 18 -7 18 -6 6 9 -7 9 -19 17 -26 17 -6 0 -20 9 -30 20 -10 11 -28
20 -41 20 -29 0 -129 66 -114 75 6 4 21 -1 33 -12 42 -36 62 -45 25 -11 -21
20 -38 41 -38 49 0 7 19 -5 41 -26 43 -42 40 -20 -4 27 -17 19 -22 30 -14 35
6 3 13 1 15 -5 6 -20 25 -13 19 8 -3 11 0 18 7 17 6 -1 10 8 9 21 -5 39 13 24
36 -34 13 -30 25 -53 28 -51 2 3 -3 22 -12 43 -9 22 -19 50 -21 64 -7 33 -7
33 -37 7z"/>
<path d="M1610 2715 c13 -14 28 -25 33 -25 12 0 -35 50 -47 50 -5 0 1 -11 14
-25z"/>
<path d="M1239 2717 c7 -9 18 -17 23 -17 5 0 22 -10 38 -22 16 -12 32 -19 36
-16 3 4 -4 9 -15 13 -12 3 -21 10 -21 15 0 11 23 3 68 -23 17 -10 32 -15 32
-10 0 10 -64 41 -100 49 -14 3 -29 6 -35 7 -5 2 -17 7 -25 12 -13 8 -13 7 -1
-8z"/>
<path d="M1495 2717 c10 -8 15 -19 11 -25 -4 -6 8 -18 29 -28 19 -9 38 -21 42
-27 4 -6 1 -7 -7 -2 -8 5 -11 4 -7 -2 4 -6 23 -18 42 -27 20 -10 33 -20 31
-24 -2 -4 7 -12 20 -19 31 -14 30 -12 -6 27 -16 18 -28 36 -25 40 3 5 0 12 -6
16 -7 4 -9 3 -6 -3 4 -6 0 -13 -8 -16 -8 -4 -12 -1 -9 7 5 13 -87 96 -107 96
-7 0 -5 -6 6 -13z"/>
<path d="M1820 2720 c0 -5 5 -10 11 -10 5 0 7 5 4 10 -3 6 -8 10 -11 10 -2 0
-4 -4 -4 -10z"/>
<path d="M1357 2709 c7 -7 15 -10 18 -7 3 3 -2 9 -12 12 -14 6 -15 5 -6 -5z"/>
<path d="M1220 2695 c0 -2 20 -18 44 -34 25 -17 51 -37 58 -44 11 -12 16 -12
26 0 8 8 9 13 2 14 -5 1 -14 2 -19 3 -4 0 -23 12 -41 26 -31 24 -70 44 -70 35z"/>
<path d="M1745 2680 c10 -11 20 -20 23 -20 3 0 -3 9 -13 20 -10 11 -20 20 -23
20 -3 0 3 -9 13 -20z"/>
<path d="M1628 2665 c26 -47 82 -100 106 -100 13 -1 22 3 19 7 -2 5 -13 6 -24
3 -13 -5 -20 0 -25 17 -3 13 -25 39 -47 58 -25 22 -36 28 -29 15z"/>
<path d="M1975 2670 c3 -5 8 -10 11 -10 2 0 4 5 4 10 0 6 -5 10 -11 10 -5 0
-7 -4 -4 -10z"/>
<path d="M914 2655 c-10 -8 -14 -15 -8 -15 6 0 17 7 24 15 16 19 9 19 -16 0z"/>
<path d="M1046 2645 c-5 -19 2 -38 26 -75 17 -27 35 -48 39 -47 4 1 15 -7 23
-18 8 -11 16 -14 16 -8 0 7 -16 30 -35 52 -19 21 -35 44 -35 50 0 6 -4 11 -8
11 -4 0 -9 12 -10 27 -3 36 -8 39 -16 8z"/>
<path d="M1405 2630 c3 -5 8 -10 11 -10 2 0 4 5 4 10 0 6 -5 10 -11 10 -5 0
-7 -4 -4 -10z"/>
<path d="M883 2623 c-15 -5 -17 -23 -4 -23 5 0 11 7 15 15 3 8 4 15 3 14 -1 0
-8 -3 -14 -6z"/>
<path d="M2112 2613 c-9 -3 -6 -13 9 -34 26 -36 38 -31 14 5 -22 34 -7 34 22
0 23 -27 23 -27 3 -44 -11 -9 -17 -20 -13 -24 3 -3 -1 -6 -10 -6 -9 0 -19 5
-22 10 -3 6 -11 10 -16 10 -17 0 16 -28 61 -51 30 -16 38 -24 28 -30 -10 -7
-9 -9 5 -9 20 0 21 4 5 33 -6 12 -11 38 -9 57 1 26 -5 42 -24 63 -26 28 -31
29 -53 20z m60 -115 c-9 -9 -12 -7 -12 12 0 19 3 21 12 12 9 -9 9 -15 0 -24z"/>
<path d="M1355 2600 c3 -5 29 -16 58 -25 28 -10 56 -21 62 -26 5 -5 25 -9 45
-8 32 0 30 2 -25 18 -33 10 -79 25 -102 33 -24 9 -40 12 -38 8z"/>
<path d="M1440 2596 c0 -2 7 -7 16 -10 8 -3 12 -2 9 4 -6 10 -25 14 -25 6z"/>
<path d="M1951 2593 l-23 -5 27 -14 c30 -16 48 -19 25 -4 -18 11 -8 23 14 14
9 -3 13 -11 9 -18 -3 -6 0 -5 8 2 12 11 12 14 -1 22 -16 10 -19 10 -59 3z"/>
<path d="M2079 2591 c11 -7 11 -10 -2 -17 -12 -8 -13 -11 -2 -21 11 -10 15 -9
20 7 7 23 -1 40 -18 40 -8 0 -7 -3 2 -9z"/>
<path d="M856 2573 c-6 -14 -5 -15 5 -6 7 7 10 15 7 18 -3 3 -9 -2 -12 -12z"/>
<path d="M1120 2589 c0 -4 12 -27 26 -52 32 -57 77 -97 103 -90 10 2 22 0 25
-6 9 -14 76 -14 76 0 0 6 -7 9 -15 6 -8 -4 -17 -2 -20 2 -7 13 -52 19 -66 10
-7 -4 -17 -5 -22 -2 -5 3 -3 9 3 13 9 6 0 17 -28 37 -23 15 -39 34 -37 40 2 7
0 12 -5 10 -5 -1 -16 7 -24 18 -8 11 -16 17 -16 14z m75 -89 c10 -11 16 -20
13 -20 -3 0 -13 9 -23 20 -10 11 -16 20 -13 20 3 0 13 -9 23 -20z"/>
<path d="M1870 2566 c0 -2 7 -6 15 -10 8 -3 15 -1 15 4 0 6 -7 10 -15 10 -8 0
-15 -2 -15 -4z"/>
<path d="M1202 2536 c25 -23 35 -25 110 -24 65 1 76 3 53 10 -16 5 -51 7 -77
4 -27 -2 -48 -1 -48 4 0 4 -8 10 -17 14 -10 3 -25 9 -33 12 -8 3 -3 -6 12 -20z"/>
<path d="M1270 2550 c0 -5 10 -10 23 -10 18 0 19 2 7 10 -19 13 -30 13 -30 0z"/>
<path d="M2110 2551 c0 -5 5 -13 10 -16 6 -3 10 -2 10 4 0 5 -4 13 -10 16 -5
3 -10 2 -10 -4z"/>
<path d="M845 2539 c-11 -17 1 -21 15 -4 8 9 8 15 2 15 -6 0 -14 -5 -17 -11z"/>
<path d="M1910 2531 c0 -10 19 -25 25 -20 1 2 -3 10 -11 17 -8 7 -14 8 -14 3z"/>
<path d="M2035 2530 c3 -5 11 -10 16 -10 6 0 7 5 4 10 -3 6 -11 10 -16 10 -6
0 -7 -4 -4 -10z"/>
<path d="M1688 2523 c7 -3 16 -2 19 1 4 3 -2 6 -13 5 -11 0 -14 -3 -6 -6z"/>
<path d="M1369 2497 c-18 -5 -54 -7 -78 -4 -34 4 -40 3 -27 -5 12 -7 48 -8 93
-4 49 5 73 4 69 -3 -4 -6 -13 -8 -20 -5 -8 3 -17 1 -20 -5 -8 -12 36 -9 68 5
16 6 18 4 13 -9 -3 -9 -2 -17 3 -17 6 0 10 7 10 15 0 8 8 15 18 15 16 1 16 1
-1 11 -9 5 -22 7 -29 3 -6 -4 -8 -3 -5 2 7 13 -48 13 -94 1z"/>
<path d="M1580 2500 c0 -5 5 -10 11 -10 5 0 7 5 4 10 -3 6 -8 10 -11 10 -2 0
-4 -4 -4 -10z"/>
<path d="M1735 2480 c-3 -5 1 -10 9 -10 9 0 16 5 16 10 0 6 -4 10 -9 10 -6 0
-13 -4 -16 -10z"/>
<path d="M2080 2483 c0 -4 5 -15 10 -23 8 -13 10 -13 10 2 0 9 -4 20 -10 23
-5 3 -10 3 -10 -2z"/>
<path d="M1490 2466 c0 -2 13 -6 29 -8 17 -2 28 -1 25 4 -5 8 -54 12 -54 4z"/>
<path d="M1917 2463 c-4 -3 -7 -11 -7 -17 0 -6 5 -5 12 2 6 6 9 14 7 17 -3 3
-9 2 -12 -2z"/>
<path d="M849 2438 c-7 -13 -19 -34 -28 -48 -15 -23 -15 -24 2 -11 15 12 17
11 17 -3 0 -9 -4 -16 -8 -16 -5 0 -9 -6 -10 -12 -1 -7 -4 -26 -7 -43 -5 -28
-5 -28 6 -7 12 23 29 30 29 12 0 -5 -4 -10 -9 -10 -4 0 -15 -17 -24 -37 l-15
-38 -1 33 c-1 18 -5 31 -9 28 -5 -3 -7 -45 -6 -93 2 -61 -2 -94 -11 -109 -10
-16 -11 -31 -4 -65 6 -24 14 -93 18 -154 4 -64 14 -125 23 -145 9 -19 19 -45
23 -58 4 -12 11 -20 16 -17 10 7 11 1 13 -81 l1 -61 -22 16 c-24 17 -29 45
-13 85 5 14 6 26 1 26 -5 0 -14 14 -20 32 -6 17 -14 28 -18 25 -9 -10 17 -177
28 -177 5 0 9 -8 9 -17 0 -10 11 -36 25 -58 20 -33 24 -53 25 -120 0 -54 5
-86 15 -99 24 -32 17 -42 -10 -16 -14 13 -25 18 -25 11 0 -6 7 -14 15 -17 8
-4 13 -10 10 -14 -3 -5 4 -11 15 -15 11 -3 22 -16 25 -28 9 -36 46 -231 48
-249 1 -10 4 -18 8 -18 4 0 10 -12 14 -27 3 -15 10 -30 13 -33 10 -7 64 -110
58 -110 -3 0 6 -12 19 -26 14 -15 25 -31 25 -36 0 -15 58 -73 66 -66 3 4 -4
20 -17 36 -72 88 -111 159 -106 190 3 18 2 20 -9 11 -11 -9 -14 -7 -14 9 0 11
-3 22 -8 24 -9 4 -45 113 -49 148 -1 13 5 32 14 42 9 10 11 18 5 18 -6 0 -12
-5 -14 -12 -3 -9 -6 -9 -11 -1 -4 6 1 19 10 29 16 16 16 16 -5 10 -17 -6 -21
-4 -16 8 3 9 10 14 14 11 5 -3 6 4 3 16 -4 13 -8 16 -13 9 -11 -18 -50 128
-61 230 -13 120 -13 135 -11 249 2 78 4 92 16 82 7 -6 17 -30 20 -53 4 -23 15
-61 26 -84 16 -37 25 -45 62 -55 50 -13 214 -17 273 -5 l40 8 -28 -30 c-20
-21 -25 -32 -17 -37 7 -4 16 -1 21 6 35 53 79 143 94 189 23 71 31 80 70 80
41 0 49 -10 70 -85 19 -66 83 -195 97 -195 13 0 10 9 -14 43 -21 29 -21 30 -2
23 44 -19 125 -28 221 -24 120 4 143 18 162 96 18 73 31 101 52 107 10 4 19
13 19 21 0 20 -38 17 -43 -3 -4 -14 -5 -13 -6 4 0 12 -6 23 -13 25 -9 3 -9 6
0 12 7 4 12 3 12 -2 0 -5 11 -7 25 -4 16 3 25 11 25 23 0 24 22 24 43 1 27
-30 21 -56 -15 -71 -26 -11 -29 -15 -15 -18 28 -7 67 24 67 52 0 14 -10 35
-22 47 -13 13 -22 27 -20 33 2 5 0 6 -5 2 -4 -5 -13 8 -20 30 l-11 38 -1 -47
-1 -47 -52 2 c-29 1 -56 5 -59 10 -3 4 -53 12 -111 19 -83 9 -122 9 -180 0
-220 -37 -241 -37 -383 3 -112 32 -405 8 -405 -34 0 -5 6 -12 13 -15 10 -5 10
-7 0 -12 -7 -3 -13 -14 -13 -25 0 -20 -15 -26 -25 -9 -10 15 14 90 29 90 9 0
16 20 20 58 4 31 11 64 16 72 5 9 5 19 -2 27 -6 7 -8 25 -5 40 12 65 27 108
36 111 6 2 11 9 11 14 0 6 -3 8 -7 5 -3 -4 -11 -3 -17 2 -8 6 -12 -2 -14 -26
-3 -43 -12 -60 -22 -43 -4 6 -6 -19 -5 -56 1 -41 -4 -79 -12 -94 -7 -14 -13
-39 -13 -57 0 -17 -7 -38 -15 -47 -8 -8 -15 -23 -15 -32 0 -14 -3 -15 -12 -6
-8 8 -11 46 -11 112 1 55 -2 102 -8 105 -15 10 -10 43 9 54 15 9 15 10 -5 11
-24 0 -31 14 -13 25 6 3 10 19 10 34 0 15 5 32 12 39 9 9 7 13 -5 18 -22 8
-22 28 1 54 21 25 54 119 46 132 -3 5 0 15 6 23 6 8 9 19 5 25 -4 6 -1 11 6 9
31 -4 49 2 49 15 0 9 -8 12 -24 9 -13 -3 -27 0 -30 6 -5 7 2 11 16 12 22 0 22
1 3 9 -30 13 -33 12 -46 -12z m442 -658 c90 -27 107 -50 92 -124 -31 -145 -52
-161 -223 -161 -150 0 -178 10 -196 70 -19 61 -18 180 2 195 49 42 218 52 325
20z m627 -15 c64 -19 75 -34 73 -96 -1 -56 -28 -166 -43 -175 -45 -28 -288
-19 -336 12 -28 18 -49 65 -62 136 -17 89 -3 109 95 135 60 15 201 9 273 -12z
m-963 5 c-3 -5 -11 -10 -16 -10 -6 0 -7 5 -4 10 3 6 11 10 16 10 6 0 7 -4 4
-10z m461 -56 c-8 -21 -11 -17 -20 21 -7 28 -6 29 10 13 10 -10 14 -23 10 -34z
m589 36 c3 -5 2 -10 -4 -10 -5 0 -13 5 -16 10 -3 6 -2 10 4 10 5 0 13 -4 16
-10z m-1071 -15 c-4 -8 -8 -15 -10 -15 -2 0 -4 7 -4 15 0 8 4 15 10 15 5 0 7
-7 4 -15z m601 -23 c-6 -15 -8 -15 -15 3 -4 12 -3 23 4 27 14 9 20 -7 11 -30z
m-63 16 c-17 -8 -26 -8 -34 0 -9 9 -4 12 23 11 32 0 33 -1 11 -11z"/>
<path d="M1198 1769 c-66 -10 -128 -33 -128 -49 0 -6 5 -8 12 -4 7 4 8 3 4 -5
-4 -6 -11 -9 -16 -6 -5 3 -19 -4 -30 -15 -11 -11 -32 -25 -47 -31 -35 -13 -22
-23 22 -15 23 5 35 13 36 24 0 14 2 14 8 -2 7 -18 8 -18 14 -3 8 22 33 22 46
0 13 -23 14 -12 2 21 -7 18 -6 27 4 36 8 7 14 7 17 1 1 -6 13 -8 25 -5 13 4
20 10 17 15 -3 5 -1 9 4 9 15 0 21 -25 11 -41 -7 -12 -9 -12 -9 1 0 10 -3 11
-11 3 -6 -6 -18 -9 -27 -6 -10 4 -13 1 -10 -8 6 -19 88 -25 99 -7 5 7 6 21 3
31 -7 21 9 22 26 2 10 -12 10 -18 -1 -32 -13 -15 -12 -16 9 -11 12 4 20 2 16
-3 -3 -5 7 -9 22 -9 21 0 25 -4 21 -20 -3 -11 -1 -20 4 -20 35 0 -28 121 -71
135 -11 3 -18 11 -15 16 4 5 5 8 3 8 -2 -1 -29 -5 -60 -10z m73 -26 c15 -9 31
-24 34 -32 4 -10 -1 -9 -16 5 -11 10 -37 24 -58 30 -28 9 -31 12 -13 13 13 1
37 -7 53 -16z m-37 -48 c-4 -8 -8 -15 -10 -15 -2 0 -4 7 -4 15 0 8 4 15 10 15
5 0 7 -7 4 -15z"/>
<path d="M1014 1751 c3 -5 -3 -11 -14 -14 -14 -4 -20 -13 -20 -34 1 -25 2 -26
14 -10 7 9 19 17 27 18 8 1 3 5 -11 9 -23 7 -23 8 -3 9 27 1 38 17 17 25 -8 3
-13 2 -10 -3z"/>
<path d="M1155 1650 c3 -5 16 -10 28 -9 21 0 21 1 2 9 -28 12 -37 12 -30 0z"/>
<path d="M1230 1618 c-32 -11 -65 -17 -80 -13 -61 14 -90 16 -107 5 -16 -9
-15 -10 6 -4 15 4 27 1 32 -7 14 -24 136 -17 187 10 68 37 51 42 -38 9z"/>
<path d="M1317 1603 c-4 -3 -7 -11 -7 -17 0 -6 5 -5 12 2 6 6 9 14 7 17 -3 3
-9 2 -12 -2z"/>
<path d="M1018 1563 c7 -3 16 -2 19 1 4 3 -2 6 -13 5 -11 0 -14 -3 -6 -6z"/>
<path d="M1621 1759 c-31 -12 -21 -22 10 -11 13 5 61 8 106 7 86 -2 114 -13
161 -62 28 -31 28 -16 -1 18 -37 44 -82 59 -171 58 -45 0 -92 -5 -105 -10z"/>
<path d="M1650 1730 c-13 -11 -19 -20 -13 -20 14 0 49 28 42 34 -3 3 -16 -3
-29 -14z"/>
<path d="M1733 1733 c-23 -4 -30 -32 -17 -67 8 -21 77 -22 94 -1 9 10 9 15 1
15 -6 0 -11 -4 -11 -10 0 -5 -4 -10 -10 -10 -5 0 -7 7 -4 14 4 11 -1 14 -20
10 -27 -5 -34 9 -18 34 7 10 12 8 25 -6 12 -13 26 -17 42 -14 18 3 25 0 25
-12 0 -9 5 -16 10 -16 17 0 11 -18 -7 -23 -10 -2 -3 -3 15 -2 18 2 36 5 39 8
8 9 -7 27 -23 27 -8 0 -14 7 -14 15 0 8 -9 15 -20 15 -11 0 -20 4 -20 8 0 4
-8 8 -17 8 -10 1 -25 3 -33 6 -8 3 -25 3 -37 1z"/>
<path d="M1680 1717 c-9 -7 -14 -21 -12 -32 3 -16 1 -18 -9 -7 -17 16 -49 15
-49 -2 0 -17 45 -27 59 -13 8 8 11 7 11 -1 0 -7 5 -12 11 -12 8 0 7 5 -1 15
-10 12 -10 21 -2 40 13 28 13 29 -8 12z"/>
<path d="M1571 1664 c-1 -13 22 -64 30 -64 3 0 6 7 6 15 0 8 -4 15 -9 15 -5 0
-13 10 -18 23 -5 12 -9 17 -9 11z"/>
<path d="M1917 1643 c-3 -4 6 -16 19 -26 23 -17 23 -17 15 5 -8 23 -26 34 -34
21z"/>
<path d="M1758 1623 c7 -3 16 -2 19 1 4 3 -2 6 -13 5 -11 0 -14 -3 -6 -6z"/>
<path d="M1673 1606 c52 -53 227 -56 227 -4 0 7 -5 6 -13 0 -18 -16 -179 -11
-185 6 -2 6 -13 12 -24 12 -17 0 -17 -2 -5 -14z"/>
<path d="M930 2450 c0 -5 5 -10 11 -10 5 0 7 -4 4 -10 -3 -5 -2 -10 4 -10 20
0 21 19 1 30 -13 7 -20 7 -20 0z"/>
<path d="M1766 2443 c-6 -14 -5 -15 5 -6 7 7 10 15 7 18 -3 3 -9 -2 -12 -12z"/>
<path d="M1980 2450 c0 -5 5 -10 11 -10 5 0 7 5 4 10 -3 6 -8 10 -11 10 -2 0
-4 -4 -4 -10z"/>
<path d="M2147 2453 c-4 -6 -29 -15 -55 -19 -40 -6 -43 -9 -22 -14 14 -4 36
-3 49 2 13 5 26 6 28 4 10 -10 -9 -26 -30 -26 -18 0 -19 -2 -7 -10 8 -5 24
-10 35 -10 11 0 31 -12 44 -25 13 -14 27 -25 32 -25 18 0 8 19 -25 48 -21 18
-36 41 -38 59 -2 17 -6 24 -11 16z"/>
<path d="M1405 2435 l-30 -14 33 -1 c17 0 32 -5 32 -10 0 -6 10 -9 23 -7 12 2
16 2 9 0 -7 -3 -10 -8 -8 -12 6 -8 -164 -4 -173 5 -3 3 -6 11 -6 17 0 6 -17
12 -37 12 -21 1 -38 1 -38 -1 0 -1 19 -17 43 -34 27 -21 35 -31 21 -27 -12 2
-28 1 -35 -4 -10 -6 -3 -9 19 -9 20 0 35 6 38 15 4 8 10 15 16 15 5 0 7 -4 4
-9 -3 -4 28 -8 69 -7 54 1 78 6 93 19 23 21 32 22 32 2 0 -8 4 -15 9 -15 5 0
8 8 7 18 -1 12 -15 20 -46 28 -25 6 -44 16 -42 22 1 7 1 12 0 11 -2 0 -16 -7
-33 -14z m-128 -30 c0 -8 -4 -15 -9 -15 -4 0 -8 7 -8 15 0 8 4 15 8 15 5 0 9
-7 9 -15z"/>
<path d="M980 2424 c0 -2 15 -13 33 -24 17 -11 25 -20 16 -20 -8 0 -24 7 -35
15 -26 20 -34 19 -34 -5 0 -15 7 -20 26 -20 14 0 23 -4 19 -10 -3 -6 4 -10 17
-10 18 0 20 2 8 10 -12 8 -9 10 13 10 16 0 26 -4 22 -10 -3 -5 2 -9 12 -8 10
0 27 0 38 -1 34 -5 -45 -20 -87 -17 -21 2 -38 -1 -38 -5 0 -5 3 -9 8 -9 4 0
24 -4 44 -9 21 -5 36 -5 33 -1 -5 8 66 22 74 15 2 -3 -3 -5 -13 -5 -9 0 -14
-5 -11 -10 4 -6 10 -8 15 -5 5 3 47 7 94 8 46 1 82 5 80 9 -3 5 4 8 15 8 10 0
21 -6 24 -12 2 -7 8 -10 12 -6 19 17 -10 28 -66 24 -76 -5 -160 15 -249 58
-39 19 -70 33 -70 30z"/>
<path d="M1327 2403 c18 -2 50 -2 70 0 21 2 7 4 -32 4 -38 0 -55 -2 -38 -4z"/>
<path d="M1594 2368 c3 -13 5 -24 7 -25 1 -2 2 -8 3 -15 0 -6 7 -13 14 -16 6
-2 10 2 8 10 -2 7 -7 25 -10 41 -8 32 -28 37 -22 5z"/>
<path d="M1970 2364 c0 -8 5 -12 10 -9 6 3 10 10 10 16 0 5 -4 9 -10 9 -5 0
-10 -7 -10 -16z"/>
<path d="M1834 2352 c11 -12 19 -13 27 -5 7 7 3 12 -16 15 -25 5 -25 4 -11
-10z"/>
<path d="M2007 2340 c-9 -11 -12 -20 -6 -20 6 0 8 -8 4 -19 -3 -11 0 -21 8
-24 9 -3 12 4 9 30 -3 23 0 38 9 44 8 5 9 9 4 9 -6 0 -18 -9 -28 -20z"/>
<path d="M2096 2348 c3 -5 10 -6 15 -3 13 9 11 12 -6 12 -8 0 -12 -4 -9 -9z"/>
<path d="M1440 2340 c0 -5 7 -7 15 -4 8 4 15 8 15 10 0 2 -7 4 -15 4 -8 0 -15
-4 -15 -10z"/>
<path d="M903 2328 c-16 -19 -44 -78 -38 -78 7 0 57 81 52 86 -2 3 -9 -1 -14
-8z"/>
<path d="M2180 2320 c0 -5 5 -10 10 -10 6 0 10 5 10 10 0 6 -4 10 -10 10 -5 0
-10 -4 -10 -10z"/>
<path d="M2270 2320 c0 -5 5 -10 11 -10 5 0 7 5 4 10 -3 6 -8 10 -11 10 -2 0
-4 -4 -4 -10z"/>
<path d="M945 2309 c-11 -16 -1 -19 13 -3 7 8 8 14 3 14 -5 0 -13 -5 -16 -11z"/>
<path d="M2205 2310 c-4 -6 1 -32 9 -58 9 -26 18 -85 20 -132 3 -68 3 -75 -4
-37 -11 65 -20 72 -13 11 13 -127 15 -166 5 -160 -7 4 -10 -14 -7 -54 2 -34
-1 -60 -7 -60 -5 0 -6 -9 -3 -20 4 -12 2 -27 -4 -33 -5 -7 -9 -26 -9 -42 1
-17 -2 -40 -6 -53 -4 -13 -3 -22 3 -22 5 0 7 -10 4 -22 -6 -23 -12 -238 -7
-238 20 0 43 283 24 295 -5 3 -3 23 5 48 19 62 36 166 40 238 1 35 4 66 5 69
1 3 1 10 0 15 -1 6 -4 61 -6 124 -4 105 -13 141 -35 141 -4 0 -11 -5 -14 -10z"/>
<path d="M1005 2300 c27 -12 43 -12 25 0 -8 5 -22 9 -30 9 -10 0 -8 -3 5 -9z"/>
<path d="M1145 2289 c-11 -4 -14 -8 -7 -8 26 -2 10 -21 -18 -21 -16 0 -30 -5
-30 -11 0 -7 -11 -9 -30 -5 -21 4 -29 2 -24 -5 4 -6 19 -8 38 -5 17 4 42 7 54
6 15 0 26 7 29 19 3 11 15 21 27 23 20 3 20 4 1 9 -11 3 -29 2 -40 -2z"/>
<path d="M2110 2281 c0 -5 5 -13 10 -16 6 -3 10 -2 10 4 0 5 -4 13 -10 16 -5
3 -10 2 -10 -4z"/>
<path d="M2026 2238 c8 -27 12 -33 19 -27 7 8 -7 49 -17 49 -5 0 -6 -10 -2
-22z"/>
<path d="M2170 2211 c0 -11 4 -22 9 -25 4 -3 6 6 3 19 -5 30 -12 33 -12 6z"/>
<path d="M862 2190 c0 -19 2 -27 5 -17 2 9 2 25 0 35 -3 9 -5 1 -5 -18z"/>
<path d="M832 2194 c-11 -12 -10 -17 2 -30 15 -14 16 -12 16 15 0 35 0 36 -18
15z"/>
<path d="M1018 2193 c7 -3 16 -2 19 1 4 3 -2 6 -13 5 -11 0 -14 -3 -6 -6z"/>
<path d="M2047 2194 c-4 -4 -7 -14 -7 -23 0 -11 3 -12 11 -4 6 6 10 16 7 23
-2 6 -7 8 -11 4z"/>
<path d="M2205 2190 c-3 -5 -1 -10 4 -10 6 0 11 5 11 10 0 6 -2 10 -4 10 -3 0
-8 -4 -11 -10z"/>
<path d="M891 2145 c-1 -16 -4 -40 -7 -52 -4 -14 -2 -23 5 -23 7 0 9 5 5 11
-3 6 -3 14 2 18 5 3 7 22 3 41 -6 34 -6 34 -8 5z"/>
<path d="M955 2149 c-4 -6 -5 -12 -2 -15 2 -3 7 2 10 11 7 17 1 20 -8 4z"/>
<path d="M2060 2138 c0 -13 4 -29 8 -36 5 -8 8 1 8 23 -1 19 -4 35 -8 35 -5 0
-8 -10 -8 -22z"/>
<path d="M2071 2064 c0 -11 3 -14 6 -6 3 7 2 16 -1 19 -3 4 -6 -2 -5 -13z"/>
<path d="M850 2060 c0 -5 5 -10 11 -10 5 0 7 5 4 10 -3 6 -8 10 -11 10 -2 0
-4 -4 -4 -10z"/>
<path d="M2081 2024 c0 -11 3 -14 6 -6 3 7 2 16 -1 19 -3 4 -6 -2 -5 -13z"/>
<path d="M1988 1953 c5 -21 7 -23 10 -9 2 10 0 22 -6 28 -6 6 -7 0 -4 -19z"/>
<path d="M1418 1943 c7 -3 16 -2 19 1 4 3 -2 6 -13 5 -11 0 -14 -3 -6 -6z"/>
<path d="M1966 1935 c-3 -8 -1 -15 4 -15 6 0 10 7 10 15 0 8 -2 15 -4 15 -2 0
-6 -7 -10 -15z"/>
<path d="M1870 1910 c0 -5 5 -10 10 -10 6 0 10 5 10 10 0 6 -4 10 -10 10 -5 0
-10 -4 -10 -10z"/>
<path d="M2071 1904 c0 -11 3 -14 6 -6 3 7 2 16 -1 19 -3 4 -6 -2 -5 -13z"/>
<path d="M1673 1895 c-24 -13 -21 -25 7 -25 23 0 45 -26 30 -35 -5 -3 -10 1
-10 9 0 9 -5 16 -11 16 -5 0 -8 -4 -4 -9 3 -5 1 -12 -5 -16 -5 -3 -10 1 -10 9
0 9 -4 16 -10 16 -5 0 -7 -6 -4 -14 3 -8 1 -17 -5 -21 -7 -4 -11 7 -11 29 0
20 -4 36 -8 36 -17 0 -21 -12 -11 -37 8 -22 7 -24 -11 -18 -13 4 -20 2 -20 -7
0 -8 -12 -19 -27 -26 -26 -11 -24 -11 17 -6 25 3 72 10 105 15 33 5 88 6 121
3 42 -5 64 -3 68 5 6 8 0 10 -21 5 l-28 -6 30 22 30 22 -34 -6 -34 -6 23 20
c13 11 20 23 15 28 -4 4 -10 1 -12 -5 -5 -15 -53 -18 -53 -3 0 15 -27 12 -44
-5 -17 -17 -30 -20 -21 -5 3 6 0 10 -9 10 -8 0 -16 4 -18 8 -1 4 -13 3 -25 -3z
m108 -20 c-1 -6 -7 -10 -13 -10 -7 -1 -12 -6 -10 -13 1 -7 -2 -12 -8 -12 -13
0 -13 6 1 31 10 20 31 22 30 4z m33 -44 c-2 -2 -11 -1 -20 3 -14 5 -14 9 -3
22 12 14 14 14 20 -3 3 -10 5 -20 3 -22z"/>
<path d="M1075 1880 c3 -5 8 -10 11 -10 2 0 4 5 4 10 0 6 -5 10 -11 10 -5 0
-7 -4 -4 -10z"/>
<path d="M1160 1878 c0 -10 -7 -18 -16 -18 -8 0 -12 -4 -9 -10 3 -5 1 -10 -4
-10 -6 0 -11 5 -11 10 0 6 -6 10 -13 10 -8 0 -14 -6 -14 -14 0 -10 24 -15 92
-19 50 -3 109 -12 130 -21 46 -20 59 -14 17 8 -17 9 -39 26 -49 39 -25 32 -51
40 -56 19 -4 -16 -5 -15 -6 1 0 9 -5 17 -10 17 -6 0 -8 -10 -6 -22 4 -22 4
-22 -10 -4 -8 11 -15 16 -15 10 0 -5 -5 -2 -10 6 -8 13 -10 12 -10 -2z"/>
<path d="M1296 1865 c9 -14 18 -24 21 -22 7 8 -12 42 -25 45 -9 1 -8 -5 4 -23z"/>
<path d="M1903 1879 c9 -6 17 -15 17 -21 0 -6 -8 -7 -17 -3 -12 4 -15 3 -8 -4
6 -5 21 -11 35 -14 14 -2 20 -2 13 0 -7 2 -9 11 -6 19 3 8 0 14 -7 14 -6 0 -9
4 -6 8 2 4 -5 9 -17 9 -20 2 -20 1 -4 -8z"/>
<path d="M1030 1871 c0 -9 30 -24 36 -18 2 1 -6 8 -16 15 -11 7 -20 8 -20 3z"/>
<path d="M842 1825 c0 -16 2 -22 5 -12 2 9 2 23 0 30 -3 6 -5 -1 -5 -18z"/>
<path d="M1330 1836 c0 -3 14 -12 32 -20 23 -12 35 -13 42 -5 7 6 7 10 1 8 -5
-1 -23 3 -38 9 -31 13 -37 14 -37 8z"/>
<path d="M1900 1810 c-13 -8 -12 -10 3 -10 9 0 17 5 17 10 0 12 -1 12 -20 0z"/>
<path d="M2170 1711 c0 -25 6 -27 13 -6 4 8 2 17 -3 20 -6 4 -10 -3 -10 -14z"/>
<path d="M2074 1580 c0 -33 5 -60 9 -60 5 0 6 -9 2 -19 -3 -11 -2 -22 3 -25
15 -9 21 58 11 100 -6 22 -11 45 -11 52 -1 6 -5 12 -9 12 -4 0 -6 -27 -5 -60z"/>
<path d="M1421 1574 c0 -11 3 -14 6 -6 3 7 2 16 -1 19 -3 4 -6 -2 -5 -13z"/>
<path d="M1530 1489 c0 -46 1 -49 16 -34 11 11 14 23 8 43 -4 15 -7 30 -6 35
1 4 -2 7 -8 7 -5 0 -10 -23 -10 -51z"/>
<path d="M915 1450 c0 -15 3 -26 7 -23 10 6 10 40 0 47 -4 2 -8 -8 -7 -24z"/>
<path d="M2083 1453 c-7 -2 -13 -11 -13 -18 0 -7 -6 -35 -14 -61 -32 -108 -63
-304 -48 -304 2 0 10 6 17 14 12 12 12 15 -1 20 -11 4 -12 10 -4 25 5 11 10
29 10 41 0 13 4 19 12 14 7 -4 8 -3 4 5 -4 7 -3 34 4 60 10 42 14 48 33 45 13
-3 16 -2 7 2 -8 4 -18 11 -21 16 -9 15 14 88 25 80 6 -3 4 3 -4 13 -9 11 -10
16 -2 11 8 -5 12 1 12 18 0 14 -1 26 -2 25 -2 0 -9 -3 -15 -6z"/>
<path d="M2011 1434 c0 -11 3 -14 6 -6 3 7 2 16 -1 19 -3 4 -6 -2 -5 -13z"/>
<path d="M1562 1409 c6 -17 21 -41 34 -54 24 -24 30 -58 18 -102 -5 -17 -14
-23 -36 -23 -18 0 -43 -11 -60 -25 -40 -34 -82 -33 -125 5 -18 17 -39 30 -45
30 -7 0 -22 10 -35 22 -13 12 -23 16 -23 10 0 -6 4 -13 9 -16 4 -3 12 -33 15
-67 4 -34 14 -72 22 -85 14 -20 14 -23 -1 -31 -15 -9 -15 -11 -1 -22 9 -8 16
-22 16 -32 0 -11 4 -19 10 -19 5 0 7 6 4 13 -3 8 2 20 11 27 8 7 15 17 15 23
0 5 -9 2 -19 -7 -18 -17 -19 -16 -18 21 0 21 7 47 16 57 9 11 11 16 4 13 -6
-4 -14 -1 -16 5 -3 7 -6 3 -6 -9 -1 -13 -6 -23 -11 -23 -6 0 -4 15 5 35 8 21
10 33 3 29 -6 -4 -9 -1 -6 7 3 8 11 14 19 14 17 0 58 -37 52 -48 -3 -4 7 -5
21 -2 14 3 37 7 50 10 14 3 32 13 42 22 9 10 22 18 28 20 6 1 21 4 33 7 13 3
24 -1 27 -10 3 -8 2 -14 -2 -14 -4 0 -7 -13 -8 -29 -1 -19 3 -28 11 -25 18 7
30 -47 13 -57 -10 -6 -8 -9 6 -9 16 0 18 5 12 48 -16 128 -18 179 -7 186 8 5
9 12 2 20 -5 6 -12 25 -15 41 -5 26 -49 75 -68 75 -4 0 -2 -14 4 -31z"/>
<path d="M1090 1420 c0 -5 5 -10 11 -10 5 0 7 5 4 10 -3 6 -8 10 -11 10 -2 0
-4 -4 -4 -10z"/>
<path d="M1301 1393 c-24 -22 -37 -42 -34 -52 4 -14 3 -14 -6 -1 -5 8 -13 11
-18 7 -4 -5 3 -17 17 -27 l25 -19 16 37 c9 20 26 46 38 56 11 11 21 23 21 28
0 17 -22 7 -59 -29z"/>
<path d="M1471 1404 c0 -11 3 -14 6 -6 3 7 2 16 -1 19 -3 4 -6 -2 -5 -13z"/>
<path d="M832 1380 c0 -14 2 -19 5 -12 2 6 2 18 0 25 -3 6 -5 1 -5 -13z"/>
<path d="M1725 1390 c-15 -6 -11 -8 17 -6 20 1 40 5 44 9 10 10 -36 8 -61 -3z"/>
<path d="M922 1360 c0 -14 2 -19 5 -12 2 6 2 18 0 25 -3 6 -5 1 -5 -13z"/>
<path d="M2005 1369 c-9 -14 -2 -20 14 -10 8 6 9 11 3 15 -6 3 -14 1 -17 -5z"/>
<path d="M2120 1345 c-11 -13 -10 -14 4 -9 9 3 16 10 16 15 0 13 -6 11 -20 -6z"/>
<path d="M1575 1322 c4 -12 0 -36 -9 -53 -14 -28 -14 -30 0 -25 9 3 20 6 25 6
14 0 10 42 -7 70 -14 23 -14 23 -9 2z"/>
<path d="M840 1320 c0 -5 5 -10 11 -10 5 0 7 5 4 10 -3 6 -8 10 -11 10 -2 0
-4 -4 -4 -10z"/>
<path d="M1203 1288 c-17 -24 -33 -52 -35 -63 -2 -11 -10 -19 -17 -17 -7 1
-10 -2 -7 -7 4 -5 -9 -27 -29 -48 -29 -32 -34 -44 -32 -78 3 -55 15 -68 46
-48 21 13 26 14 35 1 13 -16 95 -49 134 -53 15 -1 62 -8 105 -14 71 -11 85
-10 146 9 77 23 141 24 134 0 -3 -8 4 -3 14 13 10 15 23 25 30 23 6 -3 14 2
17 10 3 9 11 12 17 8 8 -4 9 -3 5 4 -4 7 -1 12 8 12 9 0 16 -4 16 -10 0 -5 5
-10 11 -10 8 0 8 4 1 13 -6 6 -10 17 -9 22 1 6 -9 11 -23 12 -14 1 -19 0 -12
-3 20 -9 -105 -64 -146 -64 -21 -1 -55 -7 -77 -15 -47 -17 -94 -19 -115 -4
-12 9 -11 10 8 6 12 -3 20 -1 17 4 -3 5 -34 8 -68 7 -44 -1 -85 7 -142 26 -44
15 -90 26 -102 23 -15 -3 -23 1 -25 12 -6 27 4 61 15 54 6 -4 8 0 4 10 -4 10
1 18 13 22 10 3 22 15 25 26 4 12 13 18 20 15 9 -3 12 0 9 9 -3 8 -2 20 2 27
5 7 9 20 11 28 1 8 7 16 12 18 6 2 11 10 11 17 0 7 6 15 13 18 8 3 9 8 1 16
-8 8 -19 0 -41 -31z"/>
<path d="M1975 1300 c4 -6 11 -8 16 -5 14 9 11 15 -7 15 -8 0 -12 -5 -9 -10z"/>
<path d="M1320 1291 c0 -12 29 -41 41 -41 5 0 -1 11 -13 25 -24 27 -28 30 -28
16z"/>
<path d="M2140 1275 c-7 -9 -11 -18 -8 -20 3 -3 11 1 18 10 7 9 11 18 8 20 -3
3 -11 -1 -18 -10z"/>
<path d="M1716 1255 c9 -14 20 -22 26 -19 5 3 2 14 -8 25 -25 27 -37 23 -18
-6z"/>
<path d="M1086 1247 c8 -22 46 -30 42 -9 -2 9 -13 18 -26 20 -16 3 -20 -1 -16
-11z"/>
<path d="M1427 1226 c-3 -8 -3 -17 0 -20 10 -9 46 -7 63 5 13 9 13 10 0 7 -8
-1 -25 3 -37 10 -17 9 -22 9 -26 -2z"/>
<path d="M2170 1230 c0 -5 5 -10 11 -10 5 0 7 5 4 10 -3 6 -8 10 -11 10 -2 0
-4 -4 -4 -10z"/>
<path d="M1742 1210 c-11 -18 -10 -20 10 -20 18 0 20 -2 9 -9 -12 -8 -12 -12
2 -25 8 -9 19 -16 24 -16 14 -1 48 -53 36 -57 -6 -2 -9 -19 -6 -38 3 -23 -1
-40 -11 -50 -11 -12 -14 -30 -12 -64 3 -26 0 -54 -5 -62 -6 -10 -9 -7 -9 14 0
15 -5 27 -11 27 -6 0 -8 -9 -4 -20 5 -14 2 -20 -10 -20 -9 0 -14 -4 -11 -9 3
-5 -2 -19 -12 -32 -29 -41 -54 -89 -44 -89 5 0 17 18 27 40 18 40 29 48 40 30
3 -5 11 -10 18 -10 6 0 2 6 -8 14 -23 17 -13 50 12 42 21 -7 49 42 34 57 -5 5
-5 22 -1 38 5 16 7 29 4 29 -2 0 2 10 10 23 33 54 26 107 -24 157 -10 10 -25
30 -32 44 -13 25 -14 25 -26 6z"/>
<path d="M2115 1220 c-3 -5 -1 -10 4 -10 6 0 11 5 11 10 0 6 -2 10 -4 10 -3 0
-8 -4 -11 -10z"/>
<path d="M956 1195 c4 -8 11 -15 16 -15 6 0 5 6 -2 15 -7 8 -14 15 -16 15 -2
0 -1 -7 2 -15z"/>
<path d="M1065 1200 c-3 -5 -2 -10 4 -10 5 0 13 5 16 10 3 6 2 10 -4 10 -5 0
-13 -4 -16 -10z"/>
<path d="M1257 1203 c-4 -3 -7 -11 -7 -17 0 -6 5 -5 12 2 6 6 9 14 7 17 -3 3
-9 2 -12 -2z"/>
<path d="M1898 1203 c7 -3 16 -2 19 1 4 3 -2 6 -13 5 -11 0 -14 -3 -6 -6z"/>
<path d="M1684 1164 c-18 -14 -18 -15 4 -4 12 6 22 13 22 15 0 8 -5 6 -26 -11z"/>
<path d="M2127 1166 c-4 -10 -1 -13 9 -9 15 6 19 23 5 23 -5 0 -11 -7 -14 -14z"/>
<path d="M960 1154 c0 -8 5 -12 10 -9 6 4 8 11 5 16 -9 14 -15 11 -15 -7z"/>
<path d="M1156 1123 c-6 -14 -5 -15 5 -6 7 7 10 15 7 18 -3 3 -9 -2 -12 -12z"/>
<path d="M1708 1112 c3 -20 10 -28 25 -29 20 -2 21 -1 5 11 -10 7 -18 18 -18
24 0 6 -4 13 -8 16 -5 3 -7 -7 -4 -22z"/>
<path d="M2086 1124 c-30 -29 -19 -33 14 -4 13 11 18 20 12 20 -6 0 -18 -7
-26 -16z"/>
<path d="M1745 1120 c-3 -5 1 -10 10 -10 9 0 13 5 10 10 -3 6 -8 10 -10 10 -2
0 -7 -4 -10 -10z"/>
<path d="M1199 1103 c-6 -7 -19 -13 -28 -13 -9 0 -25 -8 -36 -17 -20 -16 -20
-16 0 -8 52 18 86 18 100 -1 13 -17 14 -18 15 -1 0 9 -5 17 -11 17 -6 0 -8 8
-5 18 7 22 -18 26 -35 5z"/>
<path d="M1680 1086 c0 -20 4 -36 8 -36 12 0 13 58 1 65 -5 4 -9 -10 -9 -29z"/>
<path d="M1920 1108 c0 -8 6 -21 14 -27 11 -9 15 -8 20 5 4 10 2 22 -4 28 -8
8 -9 5 -5 -9 7 -20 6 -20 -9 -1 -13 16 -16 17 -16 4z"/>
<path d="M1795 1100 c3 -5 8 -10 11 -10 2 0 4 5 4 10 0 6 -5 10 -11 10 -5 0
-7 -4 -4 -10z"/>
<path d="M1292 1070 c0 -14 2 -19 5 -12 2 6 2 18 0 25 -3 6 -5 1 -5 -13z"/>
<path d="M1478 1073 c7 -3 16 -2 19 1 4 3 -2 6 -13 5 -11 0 -14 -3 -6 -6z"/>
<path d="M1440 1041 c0 -25 6 -27 13 -6 4 8 2 17 -3 20 -6 4 -10 -3 -10 -14z"/>
<path d="M1920 1031 c0 -11 5 -23 10 -26 6 -3 10 3 10 14 0 11 -4 23 -10 26
-5 3 -10 -3 -10 -14z"/>
<path d="M1010 1020 c0 -5 5 -10 11 -10 5 0 7 5 4 10 -3 6 -8 10 -11 10 -2 0
-4 -4 -4 -10z"/>
<path d="M1902 1010 c0 -14 2 -19 5 -12 2 6 2 18 0 25 -3 6 -5 1 -5 -13z"/>
<path d="M1116 985 c4 -8 8 -15 10 -15 2 0 4 7 4 15 0 8 -4 15 -10 15 -5 0 -7
-7 -4 -15z"/>
<path d="M1017 973 c-3 -5 -2 -15 2 -22 5 -7 11 -9 14 -4 3 5 2 15 -2 22 -5 7
-11 9 -14 4z"/>
<path d="M1874 948 c-9 -18 -13 -29 -8 -25 4 4 13 -1 18 -12 9 -16 11 -12 12
25 0 24 -1 44 -2 44 -2 0 -11 -15 -20 -32z"/>
<path d="M1732 948 c-14 -14 -16 -28 -3 -28 9 0 24 30 18 36 -2 2 -9 -2 -15
-8z"/>
<path d="M1384 925 c11 -8 27 -15 35 -16 9 0 25 -2 35 -4 16 -3 17 -2 5 9 -8
8 -32 16 -54 19 -37 6 -38 5 -21 -8z"/>
<path d="M1028 913 c-3 -10 1 -34 7 -53 l12 -35 -1 53 c0 51 -9 68 -18 35z"/>
<path d="M1126 921 c-3 -5 4 -11 16 -14 29 -8 32 -4 8 11 -10 6 -21 8 -24 3z"/>
<path d="M1480 910 c0 -5 5 -10 11 -10 5 0 7 5 4 10 -3 6 -8 10 -11 10 -2 0
-4 -4 -4 -10z"/>
<path d="M1070 886 c0 -31 6 -34 13 -6 3 11 1 23 -4 26 -5 3 -9 -6 -9 -20z"/>
<path d="M1690 894 c0 -14 3 -14 15 -4 8 7 15 14 15 16 0 2 -7 4 -15 4 -8 0
-15 -7 -15 -16z"/>
<path d="M1841 892 c-14 -27 -14 -29 5 -36 13 -5 14 -4 6 7 -9 10 -8 17 0 25
6 6 9 14 6 18 -4 3 -11 -3 -17 -14z"/>
<path d="M1103 862 c11 -11 17 -24 14 -29 -2 -4 -1 -17 4 -28 6 -16 8 -13 8
15 1 26 -5 39 -21 49 -23 14 -23 14 -5 -7z"/>
<path d="M1484 861 c-14 -15 -20 -17 -27 -8 -5 7 -6 3 -2 -10 4 -13 2 -23 -4
-23 -6 0 -8 -6 -5 -14 4 -11 0 -13 -15 -9 -16 4 -20 1 -18 -16 1 -12 5 -21 9
-21 4 0 4 -7 1 -17 -4 -11 -3 -14 6 -9 6 4 10 15 9 23 -2 9 3 18 10 20 8 3 10
-1 6 -14 -5 -13 -4 -15 4 -8 10 9 19 45 21 83 1 7 5 11 10 8 5 -3 12 1 15 10
10 26 -1 28 -20 5z"/>
<path d="M1658 873 c-10 -3 -18 -13 -18 -24 0 -10 -4 -19 -10 -19 -5 0 -10 5
-10 12 0 6 -2 9 -5 6 -8 -7 5 -38 16 -38 5 0 14 12 19 26 6 14 14 23 19 19 5
-3 12 -1 15 4 8 12 -4 19 -26 14z"/>
<path d="M1287 859 c7 -7 15 -10 18 -7 3 3 -2 9 -12 12 -14 6 -15 5 -6 -5z"/>
<path d="M1534 845 c5 -11 14 -35 21 -53 6 -18 14 -30 17 -26 10 9 -9 62 -28
82 -17 16 -17 16 -10 -3z"/>
<path d="M1346 834 c-8 -20 -8 -24 2 -22 4 0 15 -2 25 -7 10 -4 21 -4 24 -1 4
4 -3 9 -15 13 -12 3 -22 9 -22 14 0 13 24 11 37 -2 6 -6 16 -8 22 -5 21 13 11
21 -28 23 -28 2 -41 -2 -45 -13z"/>
<path d="M1511 834 c0 -11 3 -14 6 -6 3 7 2 16 -1 19 -3 4 -6 -2 -5 -13z"/>
<path d="M1801 810 c-1 -19 -6 -42 -11 -50 -9 -13 -12 -12 -25 4 -13 17 -15
18 -15 3 0 -9 5 -17 10 -17 13 0 13 -27 0 -35 -6 -3 -7 1 -4 12 5 16 4 16 -6
-1 -10 -14 -10 -20 1 -27 16 -10 29 -2 29 17 0 8 7 25 16 39 9 14 14 37 11 57
l-4 33 -2 -35z"/>
<path d="M1076 799 c-4 -20 -1 -38 6 -47 7 -8 18 -25 23 -38 9 -21 11 -22 30
-7 14 11 15 14 3 10 -11 -4 -20 3 -28 24 -7 16 -16 29 -19 29 -4 0 -6 14 -3
30 6 40 -4 39 -12 -1z"/>
<path d="M1488 798 c-5 -25 -3 -28 23 -28 16 0 29 5 29 10 0 6 -3 9 -7 9 -21
-3 -32 3 -35 19 -3 12 -6 9 -10 -10z"/>
<path d="M1893 763 c-9 -21 -19 -40 -22 -43 -9 -8 -30 -43 -40 -67 -6 -12 -17
-25 -26 -30 -15 -9 -12 -43 4 -43 10 0 42 61 36 70 -3 4 2 11 11 14 8 3 12 10
9 16 -3 5 -2 10 4 10 5 0 13 10 17 23 4 12 10 24 14 27 8 6 23 60 16 60 -3 0
-13 -17 -23 -37z"/>
<path d="M1325 780 c3 -5 8 -10 11 -10 2 0 4 5 4 10 0 6 -5 10 -11 10 -5 0 -7
-4 -4 -10z"/>
<path d="M1600 779 c0 -5 5 -7 10 -4 6 3 10 8 10 11 0 2 -4 4 -10 4 -5 0 -10
-5 -10 -11z"/>
<path d="M1127 761 c-4 -17 -3 -21 5 -13 5 5 8 16 6 23 -3 8 -7 3 -11 -10z"/>
<path d="M1660 701 c-5 -11 -10 -26 -9 -33 0 -7 6 -2 12 12 6 14 16 28 22 32
6 5 6 8 -2 8 -7 0 -17 -9 -23 -19z"/>
<path d="M961 694 c0 -11 3 -14 6 -6 3 7 2 16 -1 19 -3 4 -6 -2 -5 -13z"/>
<path d="M1016 702 c-9 -15 -4 -344 6 -334 9 9 12 92 8 250 -2 90 -4 100 -14
84z"/>
<path d="M1157 695 c-13 -9 -17 -20 -12 -34 9 -28 22 -19 27 19 3 16 4 30 4
30 -1 0 -9 -7 -19 -15z"/>
<path d="M987 675 c-4 -8 -2 -17 3 -20 6 -4 10 3 10 14 0 25 -6 27 -13 6z"/>
<path d="M1703 651 c-8 -24 -8 -38 -1 -42 7 -4 7 -8 -1 -12 -7 -3 -7 -5 1 -3
7 1 13 9 14 17 2 35 5 40 15 33 6 -3 9 -17 6 -30 -2 -13 0 -21 4 -18 15 9 10
45 -9 69 l-18 22 -11 -36z"/>
<path d="M1933 610 c-1 -38 2 -68 6 -65 11 6 13 108 3 123 -5 8 -9 -16 -9 -58z"/>
<path d="M1566 655 c4 -8 10 -15 15 -15 4 0 6 7 3 15 -4 8 -10 15 -15 15 -4 0
-6 -7 -3 -15z"/>
<path d="M1170 640 c0 -5 5 -10 11 -10 6 0 9 -7 6 -15 -4 -8 -2 -17 3 -20 4
-3 11 1 13 7 4 10 6 10 6 0 1 -7 -3 -22 -9 -32 -12 -23 -2 -59 11 -38 6 10 11
10 21 0 19 -19 30 -14 16 7 -6 11 -18 17 -26 13 -12 -4 -14 0 -9 19 7 28 -12
79 -30 79 -7 0 -13 -4 -13 -10z"/>
<path d="M1315 640 c-3 -5 -1 -10 4 -10 6 0 11 5 11 10 0 6 -2 10 -4 10 -3 0
-8 -4 -11 -10z"/>
<path d="M1406 635 c-9 -26 -7 -32 5 -12 6 10 9 21 6 23 -2 3 -7 -2 -11 -11z"/>
<path d="M1255 624 c-9 -9 -15 -26 -13 -38 3 -23 34 -34 51 -17 7 7 4 8 -11 5
-26 -7 -35 24 -14 49 19 22 9 23 -13 1z"/>
<path d="M1618 613 c-8 -15 7 -53 18 -45 7 5 7 14 -2 30 -6 13 -14 20 -16 15z"/>
<path d="M1650 610 c0 -5 5 -10 11 -10 5 0 7 5 4 10 -3 6 -8 10 -11 10 -2 0
-4 -4 -4 -10z"/>
<path d="M1415 599 c-17 -6 -17 -8 -2 -8 21 -1 23 -27 2 -35 -8 -3 -15 -15
-15 -26 0 -15 7 -20 25 -20 17 0 25 5 25 18 0 13 -2 14 -9 3 -5 -7 -14 -10
-20 -7 -15 10 -14 26 3 26 14 0 29 47 17 54 -3 2 -15 0 -26 -5z"/>
<path d="M1508 603 c7 -3 16 -2 19 1 4 3 -2 6 -13 5 -11 0 -14 -3 -6 -6z"/>
<path d="M991 584 c0 -11 3 -14 6 -6 3 7 2 16 -1 19 -3 4 -6 -2 -5 -13z"/>
<path d="M1381 584 c0 -11 3 -14 6 -6 3 7 2 16 -1 19 -3 4 -6 -2 -5 -13z"/>
<path d="M1882 580 c0 -14 2 -19 5 -12 2 6 2 18 0 25 -3 6 -5 1 -5 -13z"/>
<path d="M1080 580 c0 -5 5 -10 10 -10 6 0 10 5 10 10 0 6 -4 10 -10 10 -5 0
-10 -4 -10 -10z"/>
<path d="M1537 583 c-4 -3 -7 -11 -7 -17 0 -6 5 -5 12 2 6 6 9 14 7 17 -3 3
-9 2 -12 -2z"/>
<path d="M1567 574 c-11 -11 -8 -26 3 -19 6 3 10 -3 10 -14 0 -12 4 -21 8 -21
12 0 8 38 -4 50 -6 6 -13 7 -17 4z"/>
<path d="M1165 550 c-3 -5 -1 -10 4 -10 6 0 11 5 11 10 0 6 -2 10 -4 10 -3 0
-8 -4 -11 -10z"/>
<path d="M1347 539 c-4 -16 -2 -17 14 -8 23 12 23 15 5 22 -8 3 -16 -2 -19
-14z"/>
<path d="M1780 545 c0 -8 2 -15 4 -15 2 0 6 7 10 15 3 8 1 15 -4 15 -6 0 -10
-7 -10 -15z"/>
<path d="M1510 530 c-9 -16 -8 -18 5 -14 8 4 15 12 15 20 0 20 -7 17 -20 -6z"/>
<path d="M1467 533 c-4 -3 -7 -11 -7 -17 0 -6 5 -5 12 2 6 6 9 14 7 17 -3 3
-9 2 -12 -2z"/>
<path d="M1761 514 c0 -11 3 -14 6 -6 3 7 2 16 -1 19 -3 4 -6 -2 -5 -13z"/>
<path d="M1140 509 c0 -5 5 -7 10 -4 6 3 10 8 10 11 0 2 -4 4 -10 4 -5 0 -10
-5 -10 -11z"/>
<path d="M1615 509 c-11 -17 -2 -18 19 -3 17 12 17 14 4 14 -9 0 -20 -5 -23
-11z"/>
<path d="M1250 495 c7 -9 15 -13 17 -11 7 7 -7 26 -19 26 -6 0 -6 -6 2 -15z"/>
<path d="M1336 495 c4 -8 9 -15 13 -15 8 0 37 19 31 21 -3 0 -15 2 -27 5 -17
3 -21 0 -17 -11z"/>
<path d="M1560 499 c0 -6 -7 -8 -17 -4 -15 5 -16 4 -5 -6 10 -11 15 -10 29 4
11 11 13 17 5 17 -7 0 -12 -5 -12 -11z"/>
<path d="M1290 490 c0 -5 5 -10 10 -10 6 0 10 -5 10 -11 0 -6 -10 -8 -22 -5
l-23 6 23 -12 c27 -14 36 -7 27 21 -6 21 -25 29 -25 11z"/>
<path d="M1385 483 c-8 -23 -6 -29 5 -13 9 13 11 13 20 0 7 -12 9 -11 8 6 -2
23 -24 28 -33 7z"/>
<path d="M1487 486 c-21 -16 -22 -33 -2 -33 8 0 15 6 15 13 0 7 5 14 12 16 7
3 8 7 2 10 -5 4 -17 1 -27 -6z"/>
<path d="M1948 475 c-3 -14 -1 -25 3 -25 5 0 9 11 9 25 0 14 -2 25 -4 25 -2 0
-6 -11 -8 -25z"/>
<path d="M1185 470 c3 -5 11 -10 16 -10 6 0 7 5 4 10 -3 6 -11 10 -16 10 -6 0
-7 -4 -4 -10z"/>
<path d="M1531 453 c-1 -13 -6 -23 -13 -23 -6 0 -9 -3 -5 -6 13 -13 34 11 26
31 -7 19 -8 19 -8 -2z"/>
<path d="M1640 450 c0 -5 5 -10 11 -10 5 0 7 5 4 10 -3 6 -8 10 -11 10 -2 0
-4 -4 -4 -10z"/>
<path d="M1425 440 c3 -5 10 -10 16 -10 5 0 9 5 9 10 0 6 -7 10 -16 10 -8 0
-12 -4 -9 -10z"/>
<path d="M1333 433 c-7 -2 -13 -11 -13 -19 0 -8 -5 -14 -12 -14 -6 0 -9 -2 -6
-5 10 -10 43 10 44 28 1 9 1 17 0 16 0 0 -7 -3 -13 -6z"/>
<path d="M1950 419 c0 -14 10 -34 21 -45 22 -19 22 -19 14 6 -4 14 -14 34 -21
45 -13 19 -14 18 -14 -6z"/>
<path d="M1652 404 c-7 -8 -8 -14 -3 -14 10 0 25 19 20 25 -2 1 -10 -3 -17
-11z"/>
<path d="M1380 390 c0 -5 5 -10 10 -10 6 0 10 5 10 10 0 6 -4 10 -10 10 -5 0
-10 -4 -10 -10z"/>
<path d="M1551 365 c-1 -22 16 -45 33 -45 5 0 3 6 -6 13 -9 6 -18 21 -21 32
-5 20 -5 20 -6 0z"/>
<path d="M1306 353 c-6 -14 -5 -15 5 -6 7 7 10 15 7 18 -3 3 -9 -2 -12 -12z"/>
<path d="M1400 360 c0 -5 5 -10 10 -10 6 0 10 5 10 10 0 6 -4 10 -10 10 -5 0
-10 -4 -10 -10z"/>
<path d="M1016 309 c0 -21 -3 -39 -7 -39 -4 0 -9 -10 -11 -22 -2 -14 -15 -28
-33 -37 -16 -7 -54 -30 -83 -50 -30 -20 -63 -40 -73 -46 -10 -5 -19 -13 -19
-17 0 -5 -7 -8 -15 -8 -8 0 -15 -4 -15 -10 0 -5 -5 -10 -11 -10 -13 0 -81 -51
-75 -57 5 -5 148 84 156 97 3 5 11 10 18 12 8 2 28 16 45 32 18 16 46 35 62
42 17 7 39 22 49 33 20 22 34 105 20 114 -5 3 -9 -12 -8 -34z"/>
<path d="M1340 346 c0 -2 7 -7 16 -10 8 -3 12 -2 9 4 -6 10 -25 14 -25 6z"/>
<path d="M2005 340 c3 -5 11 -10 16 -10 6 0 7 5 4 10 -3 6 -11 10 -16 10 -6 0
-7 -4 -4 -10z"/>
<path d="M1265 330 c3 -5 11 -10 16 -10 6 0 7 5 4 10 -3 6 -11 10 -16 10 -6 0
-7 -4 -4 -10z"/>
<path d="M2045 310 c-3 -5 -1 -10 4 -10 6 0 11 5 11 10 0 6 -2 10 -4 10 -3 0
-8 -4 -11 -10z"/>
<path d="M1660 299 c0 -5 5 -7 10 -4 6 3 10 8 10 11 0 2 -4 4 -10 4 -5 0 -10
-5 -10 -11z"/>
<path d="M1360 295 c0 -2 10 -10 23 -16 20 -11 21 -11 8 4 -13 16 -31 23 -31
12z"/>
<path d="M1458 293 c7 -3 16 -2 19 1 4 3 -2 6 -13 5 -11 0 -14 -3 -6 -6z"/>
<path d="M2073 286 c0 -8 7 -11 17 -9 10 3 24 -2 31 -9 7 -8 22 -13 34 -10 12
2 43 -8 69 -22 27 -14 54 -26 61 -26 7 0 23 -10 37 -23 14 -13 54 -34 89 -47
35 -13 66 -27 69 -30 3 -4 33 -20 68 -35 34 -15 62 -31 62 -35 0 -4 11 -11 24
-14 13 -3 32 -9 43 -13 17 -6 17 -6 1 10 -9 9 -19 17 -22 17 -3 0 -27 13 -53
29 -27 16 -59 32 -73 36 -14 4 -28 12 -32 18 -3 6 -16 12 -29 14 -12 2 -27 7
-33 12 -6 5 -22 12 -35 16 -14 4 -33 15 -44 25 -35 33 -118 70 -183 81 -35 6
-67 15 -70 20 -8 14 -31 11 -31 -5z"/>
<path d="M1320 268 c0 -12 3 -17 8 -12 4 5 11 12 15 15 5 3 2 9 -7 12 -12 5
-16 0 -16 -15z"/>
<path d="M1520 280 c0 -5 5 -10 11 -10 5 0 7 5 4 10 -3 6 -8 10 -11 10 -2 0
-4 -4 -4 -10z"/>
<path d="M1581 254 c0 -11 3 -14 6 -6 3 7 2 16 -1 19 -3 4 -6 -2 -5 -13z"/>
<path d="M1578 213 c7 -3 16 -2 19 1 4 3 -2 6 -13 5 -11 0 -14 -3 -6 -6z"/>
<path d="M2170 201 c0 -6 5 -11 11 -11 7 0 9 -10 7 -25 -3 -13 -1 -22 3 -19 5
3 9 -2 9 -10 0 -9 -4 -16 -10 -16 -5 0 -10 -7 -10 -15 0 -26 18 -16 24 13 7
33 -5 84 -22 90 -7 2 -12 -1 -12 -7z"/>
<path d="M1431 134 c0 -11 3 -14 6 -6 3 7 2 16 -1 19 -3 4 -6 -2 -5 -13z"/>
<path d="M913 80 c0 -25 2 -35 4 -22 2 12 2 32 0 45 -2 12 -4 2 -4 -23z"/>
<path d="M2177 67 c-4 -10 -7 -28 -6 -40 0 -21 1 -21 10 2 5 14 8 32 7 40 -3
13 -5 13 -11 -2z"/>
</g>
</svg>
