<?xml version="1.0" standalone="no"?>
<!DOCTYPE svg PUBLIC "-//W3C//DTD SVG 20010904//EN"
 "http://www.w3.org/TR/2001/REC-SVG-20010904/DTD/svg10.dtd">
<svg version="1.0" xmlns="http://www.w3.org/2000/svg"
 width="300.000000pt" height="300.000000pt" viewBox="0 0 300.000000 300.000000"
 preserveAspectRatio="xMidYMid meet">
<metadata>
Created by potrace 1.10, written by Peter Selinger 2001-2011
</metadata>
<g transform="translate(0.000000,300.000000) scale(0.100000,-0.100000)"
fill="#000000" stroke="none">
<path d="M1487 2730 c-110 -28 -189 -97 -243 -216 -42 -91 -101 -293 -116
-399 -7 -44 -13 -82 -15 -84 -1 -2 -9 2 -18 9 -8 7 -22 10 -30 6 -18 -6 -55
-65 -55 -86 0 -8 8 -1 18 15 34 55 48 60 75 31 46 -50 48 -143 8 -391 -43
-266 -53 -383 -53 -636 l-1 -228 -156 -158 c-186 -187 -309 -323 -333 -367
-22 -38 -68 -180 -68 -207 0 -10 5 -19 10 -19 6 0 10 7 10 15 0 8 3 15 8 15 4
0 8 12 9 26 0 14 13 59 28 99 23 63 40 88 128 185 112 125 264 280 273 280 3
0 -5 -19 -19 -43 -50 -85 -69 -163 -69 -282 0 -109 12 -198 32 -235 6 -11 8
-20 5 -20 -3 0 -1 -9 5 -20 6 -11 17 -20 25 -20 11 0 11 5 -1 29 -42 83 -57
305 -30 411 18 66 66 160 112 217 19 23 34 51 34 63 0 18 3 20 13 11 11 -9 14
-4 13 22 -1 17 -5 37 -9 44 -10 16 -5 73 6 73 5 0 6 -14 2 -30 -7 -33 -1 -38
21 -16 15 15 20 41 6 32 -4 -2 -6 13 -4 35 4 40 -4 49 -26 27 -9 -9 -12 -9
-12 0 0 6 9 17 19 24 15 9 17 15 9 26 -8 9 -8 16 0 24 7 7 11 23 11 37 -2 24
-2 24 -6 4 -2 -13 -8 -23 -12 -23 -5 0 -6 64 -4 143 4 171 6 193 16 203 11 11
9 26 -3 19 -16 -10 -12 5 10 32 21 26 28 69 10 58 -5 -3 -10 -2 -10 4 0 5 8
15 18 21 12 8 13 13 5 16 -7 3 -13 10 -13 15 0 6 4 8 8 5 5 -3 9 12 9 32 1 56
12 162 18 173 6 9 15 77 16 112 0 9 4 17 8 17 5 0 11 10 14 23 6 22 6 22 -10
2 -14 -18 -15 -18 -9 -2 3 10 6 25 6 33 0 8 5 13 11 11 6 -1 14 4 17 12 3 8 0
11 -7 7 -7 -5 -11 1 -11 14 0 12 -4 18 -11 15 -6 -4 -8 -14 -5 -22 3 -8 3 -20
0 -25 -4 -6 -15 11 -25 38 -33 85 -8 83 145 -14 66 -41 68 -44 62 -75 -48
-236 -48 -300 -3 -434 20 -56 38 -106 41 -112 14 -22 146 -101 169 -101 15 0
38 13 56 31 39 39 124 212 150 308 11 41 23 76 25 78 2 3 9 -4 15 -15 8 -15 8
-29 1 -48 -7 -16 -8 -60 -4 -108 4 -51 2 -109 -7 -156 -7 -41 -13 -138 -14
-215 -2 -102 -6 -150 -18 -177 -19 -46 -53 -58 -91 -32 -31 20 -46 12 -22 -11
9 -9 16 -25 16 -35 0 -10 9 -20 20 -23 20 -5 22 -15 23 -115 0 -12 2 -20 5
-17 3 2 12 -1 21 -8 14 -10 14 -10 4 3 -6 8 -15 43 -19 78 -3 34 -11 65 -15
68 -13 8 -1 24 17 24 18 0 30 12 64 60 24 34 25 40 22 177 -2 79 -1 143 1 143
2 0 12 -25 21 -55 22 -67 79 -129 136 -146 40 -12 41 -12 80 26 44 43 67 97
100 227 12 46 27 97 35 115 27 57 20 75 -57 150 -40 38 -81 74 -92 80 -17 9
-18 16 -7 94 12 92 18 258 12 359 -8 146 -60 325 -125 437 -77 130 -192 206
-321 210 -38 1 -87 -2 -108 -7z m163 -26 c59 -10 140 -57 187 -109 44 -49 107
-167 117 -217 2 -14 12 -40 21 -58 9 -18 15 -41 12 -51 -3 -10 -1 -19 4 -21
14 -5 21 -77 24 -263 2 -146 -8 -309 -20 -323 -1 -1 -23 9 -48 24 -26 14 -55
23 -64 20 -26 -8 -78 27 -106 72 -28 43 -117 127 -183 173 -69 47 -187 100
-235 104 -55 6 -148 23 -160 30 -5 4 -9 -1 -9 -10 0 -9 4 -14 9 -11 5 3 28 -1
51 -9 23 -8 56 -15 72 -15 17 0 31 -6 35 -16 4 -11 13 -13 34 -9 19 4 36 1 51
-10 14 -11 16 -15 6 -12 -10 4 -26 -4 -41 -19 -25 -25 -25 -25 -32 -5 -3 12
-11 21 -18 21 -8 0 -8 -3 1 -12 7 -7 12 -23 12 -37 0 -25 -1 -25 -33 12 -19
20 -37 37 -41 37 -4 0 -36 14 -71 30 -35 17 -69 30 -75 30 -5 0 -10 7 -10 16
0 12 6 15 21 11 19 -5 20 -4 5 12 -18 20 -21 57 -6 66 6 4 8 11 5 16 -4 5 -2
9 3 9 5 0 12 12 15 28 3 15 8 38 12 52 4 14 8 35 9 47 0 12 4 24 8 28 4 4 4
13 2 20 -3 7 -1 16 5 20 6 3 11 15 11 25 0 27 68 170 81 170 5 0 8 4 5 8 -6
10 49 73 58 65 3 -3 6 -1 6 5 0 13 60 41 100 48 14 3 39 8 55 13 17 5 41 7 55
5 14 -2 41 -7 60 -10z m-101 -766 c55 -28 81 -52 165 -148 12 -14 28 -41 36
-59 17 -42 7 -82 -55 -228 -25 -58 -42 -110 -38 -116 3 -5 1 -7 -5 -3 -6 3
-13 -3 -17 -14 -9 -29 -59 -52 -92 -44 -56 14 -141 73 -162 113 -10 18 -10 36
3 94 8 40 20 101 26 136 6 35 17 72 23 82 14 23 37 25 37 3 0 -8 -4 -12 -10
-9 -15 9 -12 -12 5 -28 8 -8 11 -18 7 -22 -4 -4 3 -2 15 6 13 7 27 26 32 41
12 34 18 34 48 6 15 -14 23 -33 23 -54 0 -18 4 -35 9 -39 5 -3 9 -19 9 -35 -1
-23 -4 -27 -14 -19 -29 24 -28 -39 2 -69 12 -11 14 -11 15 5 0 10 3 36 5 57 3
22 1 51 -5 65 -5 14 -12 42 -15 61 -9 53 11 16 25 -48 8 -33 15 -48 20 -40 9
17 -22 111 -45 137 -25 28 -104 51 -133 40 -40 -15 -44 -11 -26 26 9 19 21 35
26 35 5 0 4 7 -3 15 -23 28 -38 17 -45 -32 -3 -27 -5 -51 -3 -54 2 -4 -5 -16
-15 -27 -11 -12 -14 -21 -7 -24 8 -2 4 -41 -12 -127 -24 -128 -35 -135 -37
-21 -1 72 35 272 59 328 17 38 22 42 53 42 19 0 62 -14 96 -32z m-49 -178 c0
-5 -4 -10 -10 -10 -5 0 -10 5 -10 10 0 6 5 10 10 10 6 0 10 -4 10 -10z m296
-39 c-3 -5 8 -14 24 -21 17 -7 30 -17 30 -22 0 -5 9 -4 19 2 28 14 38 13 60
-9 11 -11 34 -27 50 -36 20 -10 28 -20 25 -30 -8 -19 -19 -19 -38 1 -23 22
-20 7 4 -23 11 -14 18 -29 15 -33 -3 -4 2 -13 10 -20 19 -16 19 -34 0 -50 -8
-7 -15 -19 -15 -27 0 -8 -8 -31 -17 -50 -14 -31 -18 -33 -24 -17 -11 28 -10
41 1 24 7 -11 10 -6 10 20 -1 20 -9 45 -21 59 -22 27 -36 23 -21 -6 5 -10 10
-58 11 -106 1 -92 -8 -131 -20 -87 -6 21 -7 19 -8 -13 -1 -21 -6 -47 -11 -58
-7 -13 -7 -19 0 -19 5 0 10 7 10 16 0 8 5 12 10 9 6 -4 8 -28 6 -58 l-5 -52
10 45 c36 162 52 216 69 239 10 15 21 38 25 52 l6 25 67 -23 67 -22 -2 -43
c-2 -24 -14 -81 -29 -128 -14 -47 -27 -95 -28 -107 0 -12 -2 -20 -4 -18 -2 2
-20 -14 -39 -36 -19 -21 -43 -39 -52 -39 -33 0 -111 61 -133 104 -19 35 -22
61 -25 179 -3 109 -1 137 9 131 10 -6 10 -4 2 7 -18 23 -23 71 -9 85 19 19 6
63 -26 87 -27 19 -38 55 -22 70 9 10 15 9 9 -2z m291 -166 c31 -30 55 -57 52
-59 -3 -3 -32 3 -64 13 -60 19 -60 19 -63 60 -2 25 1 41 8 41 6 0 36 -25 67
-55z m-356 -43 c-6 -22 -20 -51 -31 -64 -16 -19 -15 -13 7 44 29 74 41 84 24
20z m329 -22 c0 -5 -4 -10 -9 -10 -6 0 -13 5 -16 10 -3 6 1 10 9 10 9 0 16 -4
16 -10z m113 -41 c-5 -19 -6 -19 -25 -2 -10 9 -26 18 -34 19 -9 1 -19 5 -22 9
-4 3 5 4 20 1 19 -3 28 1 33 12 6 16 8 16 20 -1 7 -10 11 -27 8 -38z m-1053
-9 c0 -5 -2 -10 -4 -10 -3 0 -8 5 -11 10 -3 6 -1 10 4 10 6 0 11 -4 11 -10z
m420 -145 c19 -4 41 -1 62 9 17 9 33 14 35 12 5 -5 -46 -41 -67 -48 -27 -9
-180 78 -180 102 0 5 27 -8 60 -30 34 -21 74 -42 90 -45z"/>
<path d="M1540 2604 c0 -6 7 -19 16 -30 14 -18 14 -18 3 6 -14 31 -19 36 -19
24z"/>
<path d="M1430 2580 c0 -5 7 -7 15 -4 8 4 15 8 15 10 0 2 -7 4 -15 4 -8 0 -15
-4 -15 -10z"/>
<path d="M1416 2535 c4 -8 11 -15 16 -15 6 0 5 6 -2 15 -7 8 -14 15 -16 15 -2
0 -1 -7 2 -15z"/>
<path d="M1390 2499 c0 -5 5 -7 10 -4 6 3 10 8 10 11 0 2 -4 4 -10 4 -5 0 -10
-5 -10 -11z"/>
<path d="M1333 2473 c-19 -7 -16 -19 6 -19 11 0 17 5 14 13 -3 7 -6 13 -7 12
0 0 -7 -3 -13 -6z"/>
<path d="M1398 2463 c7 -3 16 -2 19 1 4 3 -2 6 -13 5 -11 0 -14 -3 -6 -6z"/>
<path d="M1310 2425 c8 -11 15 -21 16 -23 1 -1 7 5 15 15 10 12 10 15 1 9 -7
-4 -20 -2 -30 6 -16 12 -16 11 -2 -7z"/>
<path d="M1365 2423 c-4 -10 -9 -26 -10 -35 -1 -14 1 -15 12 -7 9 8 13 8 13 0
0 -6 5 -11 10 -11 18 0 10 22 -10 27 -16 4 -18 8 -9 19 7 8 10 17 7 20 -3 3
-9 -3 -13 -13z"/>
<path d="M1600 2426 c0 -2 7 -7 16 -10 8 -3 12 -2 9 4 -6 10 -25 14 -25 6z"/>
<path d="M1605 2380 c-3 -5 -2 -10 4 -10 5 0 13 5 16 10 3 6 2 10 -4 10 -5 0
-13 -4 -16 -10z"/>
<path d="M1320 2350 c0 -11 2 -20 4 -20 2 0 6 9 9 20 3 11 1 20 -4 20 -5 0 -9
-9 -9 -20z"/>
<path d="M1440 2359 c0 -5 5 -7 10 -4 6 3 10 8 10 11 0 2 -4 4 -10 4 -5 0 -10
-5 -10 -11z"/>
<path d="M1420 2351 c0 -8 -7 -11 -15 -7 -8 3 -15 1 -15 -3 0 -17 28 -20 34
-4 4 9 4 18 1 21 -3 3 -5 0 -5 -7z"/>
<path d="M1345 2339 c-4 -6 -5 -12 -2 -15 2 -3 7 2 10 11 7 17 1 20 -8 4z"/>
<path d="M1650 2340 c-9 -6 -10 -10 -3 -10 6 0 15 5 18 10 8 12 4 12 -15 0z"/>
<path d="M1766 2337 c3 -10 9 -15 12 -12 3 3 0 11 -7 18 -10 9 -11 8 -5 -6z"/>
<path d="M1230 2329 c0 -5 5 -7 10 -4 6 3 10 8 10 11 0 2 -4 4 -10 4 -5 0 -10
-5 -10 -11z"/>
<path d="M1371 2324 c0 -11 3 -14 6 -6 3 7 2 16 -1 19 -3 4 -6 -2 -5 -13z"/>
<path d="M1711 2314 c0 -11 3 -14 6 -6 3 7 2 16 -1 19 -3 4 -6 -2 -5 -13z"/>
<path d="M1294 2308 c-4 -6 -3 -8 4 -4 6 3 13 -2 15 -11 4 -14 5 -13 6 5 1 23
-13 30 -25 10z"/>
<path d="M1781 2306 c-7 -8 -21 -13 -32 -11 -10 2 -19 0 -19 -6 0 -5 9 -9 19
-9 11 0 22 -5 24 -10 3 -6 4 -5 3 2 -2 7 3 21 12 31 8 9 13 17 10 17 -3 0 -11
-6 -17 -14z"/>
<path d="M1236 2301 c-4 -5 -1 -11 6 -13 19 -7 16 -110 -4 -132 -10 -11 -16
-22 -13 -24 2 -3 13 6 24 19 15 18 18 36 16 84 -2 33 -3 63 -4 68 -1 10 -19 9
-25 -2z"/>
<path d="M1805 2300 c-3 -5 -1 -10 4 -10 6 0 11 5 11 10 0 6 -2 10 -4 10 -3 0
-8 -4 -11 -10z"/>
<path d="M1388 2293 c6 -2 18 -2 25 0 6 3 1 5 -13 5 -14 0 -19 -2 -12 -5z"/>
<path d="M1385 2271 c-3 -5 -1 -12 4 -15 5 -3 11 1 15 9 6 16 -9 21 -19 6z"/>
<path d="M1307 2251 c-4 -17 -3 -21 5 -13 5 5 8 16 6 23 -3 8 -7 3 -11 -10z"/>
<path d="M1500 2255 c0 -8 4 -15 10 -15 5 0 7 7 4 15 -4 8 -8 15 -10 15 -2 0
-4 -7 -4 -15z"/>
<path d="M1528 2263 c7 -3 16 -2 19 1 4 3 -2 6 -13 5 -11 0 -14 -3 -6 -6z"/>
<path d="M1740 2255 c0 -8 4 -15 10 -15 5 0 7 7 4 15 -4 8 -8 15 -10 15 -2 0
-4 -7 -4 -15z"/>
<path d="M1410 2249 c0 -5 5 -7 10 -4 6 3 10 8 10 11 0 2 -4 4 -10 4 -5 0 -10
-5 -10 -11z"/>
<path d="M1582 2246 c8 -8 15 -10 19 -4 4 7 9 6 13 -1 4 -6 12 -9 17 -5 17 10
-1 24 -32 24 -25 0 -28 -2 -17 -14z"/>
<path d="M1329 2233 c-13 -17 -13 -17 6 -3 11 8 22 16 24 17 2 2 0 3 -6 3 -6
0 -17 -8 -24 -17z"/>
<path d="M1650 2242 c0 -4 9 -13 20 -20 16 -10 20 -10 20 2 0 8 -7 17 -16 20
-20 8 -24 8 -24 -2z"/>
<path d="M1367 2226 c-14 -11 -15 -15 -3 -19 8 -3 16 2 19 14 3 10 4 19 4 19
-1 0 -10 -7 -20 -14z"/>
<path d="M1550 2230 c0 -5 5 -10 11 -10 5 0 7 5 4 10 -3 6 -8 10 -11 10 -2 0
-4 -4 -4 -10z"/>
<path d="M1710 2221 c0 -5 7 -11 14 -14 10 -4 13 -1 9 9 -6 15 -23 19 -23 5z"/>
<path d="M1790 2226 c0 -2 7 -9 15 -16 9 -7 15 -8 15 -2 0 5 -7 12 -15 16 -8
3 -15 4 -15 2z"/>
<path d="M1292 2199 c-7 -10 -8 -19 -3 -19 13 0 33 28 23 33 -4 3 -13 -3 -20
-14z"/>
<path d="M1430 2211 c0 -6 4 -13 10 -16 6 -3 7 1 4 9 -7 18 -14 21 -14 7z"/>
<path d="M1830 2206 c0 -2 8 -10 18 -17 15 -13 16 -12 3 4 -13 16 -21 21 -21
13z"/>
<path d="M1339 2173 c-1 -2 -2 -8 -3 -14 0 -5 -12 -19 -26 -29 -14 -10 -21
-22 -17 -26 4 -4 7 -2 7 4 0 7 5 12 11 12 5 0 7 -4 4 -10 -3 -5 -2 -10 4 -10
5 0 13 9 16 20 4 12 15 29 25 38 19 17 19 18 0 18 -11 0 -21 -2 -21 -3z"/>
<path d="M1640 2170 c0 -5 5 -10 11 -10 5 0 7 5 4 10 -3 6 -8 10 -11 10 -2 0
-4 -4 -4 -10z"/>
<path d="M1175 2140 c-3 -5 -1 -10 4 -10 6 0 11 5 11 10 0 6 -2 10 -4 10 -3 0
-8 -4 -11 -10z"/>
<path d="M1259 2148 c-6 -12 -5 -46 2 -43 4 3 7 14 6 25 -1 18 -5 25 -8 18z"/>
<path d="M1590 2143 c0 -5 10 -18 23 -29 l22 -19 -20 25 c-11 14 -21 27 -22
29 -2 2 -3 0 -3 -6z"/>
<path d="M1661 2124 c0 -11 3 -14 6 -6 3 7 2 16 -1 19 -3 4 -6 -2 -5 -13z"/>
<path d="M1720 2136 c0 -2 8 -10 18 -17 15 -13 16 -12 3 4 -13 16 -21 21 -21
13z"/>
<path d="M1505 2120 c3 -5 8 -10 11 -10 2 0 4 5 4 10 0 6 -5 10 -11 10 -5 0
-7 -4 -4 -10z"/>
<path d="M1866 2114 c-8 -21 -8 -69 0 -61 6 6 14 77 9 77 -2 0 -6 -7 -9 -16z"/>
<path d="M1221 2104 c0 -11 3 -14 6 -6 3 7 2 16 -1 19 -3 4 -6 -2 -5 -13z"/>
<path d="M1770 2117 c0 -10 41 -49 46 -45 2 3 -7 15 -21 28 -14 13 -25 20 -25
17z"/>
<path d="M1660 2091 c0 -7 7 -19 15 -27 19 -20 19 -5 0 20 -9 11 -15 14 -15 7z"/>
<path d="M1588 2083 c7 -3 16 -2 19 1 4 3 -2 6 -13 5 -11 0 -14 -3 -6 -6z"/>
<path d="M1660 2039 c14 -11 34 -28 45 -38 26 -23 59 -36 49 -18 -10 16 -41
37 -84 59 l-35 17 25 -20z"/>
<path d="M1777 2030 c9 -11 19 -17 21 -15 6 6 -18 35 -29 35 -5 0 -1 -9 8 -20z"/>
<path d="M1847 2029 c6 -23 9 -24 16 -5 3 8 0 17 -7 19 -10 4 -12 -1 -9 -14z"/>
<path d="M1880 2010 c0 -6 7 -10 15 -10 8 0 15 2 15 4 0 2 -7 6 -15 10 -8 3
-15 1 -15 -4z"/>
<path d="M1600 1996 c0 -2 7 -7 16 -10 8 -3 12 -2 9 4 -6 10 -25 14 -25 6z"/>
<path d="M1852 1980 c0 -14 2 -19 5 -12 2 6 2 18 0 25 -3 6 -5 1 -5 -13z"/>
<path d="M1794 1972 c3 -15 -3 -31 -16 -44 -18 -18 -19 -21 -4 -34 9 -8 12 -9
7 -3 -6 8 -2 21 11 39 16 23 18 31 8 46 -10 17 -11 17 -6 -4z"/>
<path d="M1821 1910 c-6 -22 -10 -44 -7 -48 3 -5 1 -25 -4 -46 -6 -28 -5 -42
4 -52 11 -10 13 -7 13 14 0 64 8 137 14 142 5 3 4 11 0 18 -5 8 -12 -1 -20
-28z"/>
<path d="M1911 1924 c0 -11 3 -14 6 -6 3 7 2 16 -1 19 -3 4 -6 -2 -5 -13z"/>
<path d="M1887 1869 c7 -7 15 -10 18 -7 3 3 -2 9 -12 12 -14 6 -15 5 -6 -5z"/>
<path d="M1770 1865 c0 -5 5 -17 10 -25 5 -8 10 -10 10 -5 0 6 -5 17 -10 25
-5 8 -10 11 -10 5z"/>
<path d="M1897 1813 c-9 -9 -9 -43 1 -43 4 0 8 11 8 25 2 27 1 29 -9 18z"/>
<path d="M1885 1749 c-4 -6 -5 -12 -2 -15 2 -3 7 2 10 11 7 17 1 20 -8 4z"/>
<path d="M1977 1710 c-3 -11 -3 -20 -1 -20 2 0 8 9 14 20 6 11 7 20 2 20 -6 0
-12 -9 -15 -20z"/>
<path d="M1416 1924 c-8 -22 -9 -22 19 -16 15 2 25 0 25 -7 0 -6 18 -11 41
-11 39 0 41 -1 35 -25 -5 -20 -1 -27 26 -42 41 -22 66 -24 64 -7 -3 18 -16 31
-16 15 0 -7 -5 -9 -12 -5 -7 5 -21 9 -30 9 -10 1 -20 4 -23 6 -7 8 7 49 17 49
5 0 7 -4 4 -9 -3 -5 3 -11 14 -14 27 -7 34 7 12 25 -52 45 -163 65 -176 32z"/>
<path d="M1503 1855 c0 -8 4 -12 9 -9 4 3 8 9 8 15 0 5 -4 9 -8 9 -5 0 -9 -7
-9 -15z"/>
<path d="M1621 1857 c2 -1 13 -9 24 -17 19 -14 19 -14 6 3 -7 9 -18 17 -24 17
-6 0 -8 -1 -6 -3z"/>
<path d="M1630 1769 c0 -8 18 -33 40 -57 37 -39 59 -55 45 -32 -3 6 1 10 9 10
23 0 20 17 -5 31 -13 7 -19 7 -15 1 3 -6 2 -13 -3 -16 -5 -3 -23 13 -40 36
-17 23 -31 35 -31 27z"/>
<path d="M1690 1770 c-11 -7 -12 -12 -4 -20 8 -8 13 -6 17 9 3 12 4 21 4 21
-1 0 -9 -5 -17 -10z"/>
<path d="M1560 1686 c0 -9 5 -16 10 -16 6 0 10 4 10 9 0 6 -4 13 -10 16 -5 3
-10 -1 -10 -9z"/>
<path d="M1487 1684 c-3 -4 -1 -11 4 -18 5 -6 16 -20 24 -31 12 -16 14 -16 9
-2 -3 9 -2 17 3 17 6 0 14 -15 20 -32 8 -30 10 -31 15 -10 3 12 2 20 -3 16 -5
-3 -9 -1 -9 5 0 5 6 12 13 14 9 4 9 6 -1 6 -8 1 -26 10 -42 21 -15 11 -30 17
-33 14z"/>
<path d="M1667 1605 c-4 -8 -2 -17 3 -20 6 -4 10 3 10 14 0 25 -6 27 -13 6z"/>
<path d="M1534 1578 c5 -20 2 -27 -11 -30 -16 -3 -16 -4 -2 -10 30 -12 41 6
23 38 l-16 29 6 -27z"/>
<path d="M1461 1573 c7 -12 15 -20 18 -17 3 2 -3 12 -13 22 -17 16 -18 16 -5
-5z"/>
<path d="M1657 1559 c7 -7 15 -10 18 -7 3 3 -2 9 -12 12 -14 6 -15 5 -6 -5z"/>
<path d="M1567 1509 c-10 -6 -15 -14 -12 -18 2 -5 -3 -8 -12 -7 -10 0 -18 -7
-20 -19 -1 -11 0 -14 3 -7 3 6 14 12 25 12 10 0 19 5 19 10 0 6 7 10 15 10 8
0 15 4 15 9 0 16 -14 20 -33 10z"/>
<path d="M1438 1503 c7 -3 16 -2 19 1 4 3 -2 6 -13 5 -11 0 -14 -3 -6 -6z"/>
<path d="M1465 1490 c-3 -6 1 -7 9 -4 11 4 16 0 16 -11 0 -9 5 -13 10 -10 8 5
7 11 -1 21 -13 16 -25 18 -34 4z"/>
<path d="M1441 1454 c0 -11 3 -14 6 -6 3 7 2 16 -1 19 -3 4 -6 -2 -5 -13z"/>
<path d="M1546 1423 c-6 -14 -5 -15 5 -6 7 7 10 15 7 18 -3 3 -9 -2 -12 -12z"/>
<path d="M1848 1502 c10 -7 11 -23 2 -74 -6 -42 -7 -75 -1 -90 9 -20 10 -18
10 18 1 22 8 63 16 89 8 27 13 50 12 51 -1 1 -13 5 -27 8 -16 5 -20 4 -12 -2z"/>
<path d="M1881 1394 c0 -11 3 -14 6 -6 3 7 2 16 -1 19 -3 4 -6 -2 -5 -13z"/>
<path d="M1054 1978 c-3 -13 -12 -30 -19 -38 -23 -27 -38 -132 -42 -290 -3
-134 -2 -152 10 -135 10 14 14 56 15 140 1 140 13 211 47 279 13 28 22 53 19
58 -9 15 -23 8 -30 -14z"/>
<path d="M1097 1906 c-9 -24 -9 -28 3 -21 6 3 10 -2 11 -12 0 -10 3 -13 5 -7
3 6 1 21 -4 34 -8 20 -9 21 -15 6z"/>
<path d="M1250 1879 c0 -5 5 -7 10 -4 6 3 10 8 10 11 0 2 -4 4 -10 4 -5 0 -10
-5 -10 -11z"/>
<path d="M1080 1840 c0 -5 7 -10 16 -10 8 0 12 5 9 10 -3 6 -10 10 -16 10 -5
0 -9 -4 -9 -10z"/>
<path d="M1068 1781 c-21 -24 -35 -185 -18 -196 6 -4 15 -17 20 -29 8 -20 9
-20 9 5 1 14 -4 30 -10 36 -18 18 -2 137 22 159 22 20 25 44 6 44 -7 0 -20 -9
-29 -19z"/>
<path d="M1180 1781 c0 -6 4 -13 10 -16 6 -3 7 1 4 9 -7 18 -14 21 -14 7z"/>
<path d="M1091 1724 c0 -11 3 -14 6 -6 3 7 2 16 -1 19 -3 4 -6 -2 -5 -13z"/>
<path d="M1240 1680 c-9 -6 -10 -10 -3 -10 6 0 15 5 18 10 8 12 4 12 -15 0z"/>
<path d="M1013 1497 c-20 -40 -22 -54 -12 -98 9 -40 30 -69 51 -69 16 0 7 18
-11 23 -25 6 -39 102 -21 137 6 12 10 24 7 26 -2 2 -8 -6 -14 -19z"/>
<path d="M1020 1450 c0 -5 5 -10 11 -10 5 0 7 5 4 10 -3 6 -8 10 -11 10 -2 0
-4 -4 -4 -10z"/>
<path d="M1125 1398 c-12 -35 -12 -78 -1 -78 7 0 11 17 11 45 0 46 -2 54 -10
33z"/>
<path d="M1720 1365 c0 -8 5 -15 10 -15 6 0 10 7 10 15 0 8 -4 15 -10 15 -5 0
-10 -7 -10 -15z"/>
<path d="M1113 1290 c1 -14 6 -24 12 -22 5 2 12 -5 16 -15 6 -13 8 -14 8 -3 0
8 -4 22 -9 30 -9 13 -10 13 -11 0 0 -8 -5 -4 -10 10 l-8 25 2 -25z"/>
<path d="M1680 1299 c0 -5 5 -7 10 -4 6 3 10 8 10 11 0 2 -4 4 -10 4 -5 0 -10
-5 -10 -11z"/>
<path d="M1720 1279 c0 -5 5 -7 10 -4 6 3 10 8 10 11 0 2 -4 4 -10 4 -5 0 -10
-5 -10 -11z"/>
<path d="M1300 1251 c0 -6 4 -13 10 -16 6 -3 7 1 4 9 -7 18 -14 21 -14 7z"/>
<path d="M1093 1236 c-3 -6 -3 -8 2 -4 4 4 14 0 22 -8 12 -12 13 -17 3 -30 -7
-8 -10 -17 -6 -21 3 -3 6 -1 6 6 0 7 4 10 9 7 5 -3 7 -16 4 -29 -5 -21 -4 -21
16 3 11 14 21 20 21 13 0 -6 3 -19 7 -29 4 -12 3 -15 -6 -10 -16 10 -4 -44 15
-64 12 -12 14 -12 14 3 0 10 -4 15 -10 12 -6 -4 -8 9 -5 36 6 44 -7 71 -30 63
-8 -3 -15 7 -19 29 -6 33 -30 46 -43 23z"/>
<path d="M1186 1233 c-6 -14 -5 -15 5 -6 7 7 10 15 7 18 -3 3 -9 -2 -12 -12z"/>
<path d="M1640 1230 c0 -5 5 -10 10 -10 6 0 10 5 10 10 0 6 -4 10 -10 10 -5 0
-10 -4 -10 -10z"/>
<path d="M1506 1115 c4 -135 6 -152 11 -137 3 6 13 12 23 12 10 0 22 4 25 10
13 22 51 2 74 -39 13 -23 25 -40 28 -38 7 7 -43 101 -62 117 -14 12 -19 10
-40 -16 -13 -16 -27 -26 -31 -21 -13 13 -18 127 -5 140 14 14 14 28 -1 25 -6
-2 -15 8 -19 22 -4 14 -5 -20 -3 -75z"/>
<path d="M1698 1203 c7 -3 16 -2 19 1 4 3 -2 6 -13 5 -11 0 -14 -3 -6 -6z"/>
<path d="M1285 1177 c-4 -10 -5 -21 -1 -24 10 -10 18 4 13 24 -4 17 -4 17 -12
0z"/>
<path d="M1206 1148 c-13 -51 -1 -63 33 -29 12 12 16 23 10 32 -5 8 -9 9 -9 3
0 -5 -6 -18 -13 -29 -13 -16 -14 -15 -9 13 5 37 -3 43 -12 10z"/>
<path d="M1107 1153 c-4 -3 -7 -11 -7 -17 0 -6 5 -5 12 2 6 6 9 14 7 17 -3 3
-9 2 -12 -2z"/>
<path d="M1635 1129 c-4 -6 -5 -12 -2 -15 2 -3 7 2 10 11 7 17 1 20 -8 4z"/>
<path d="M1553 1115 c-3 -9 -3 -19 1 -22 3 -4 6 -1 6 5 0 7 14 12 30 12 17 0
30 5 30 10 0 17 -60 12 -67 -5z"/>
<path d="M1270 1095 c0 -8 2 -15 4 -15 2 0 6 7 10 15 3 8 1 15 -4 15 -6 0 -10
-7 -10 -15z"/>
<path d="M1464 1101 c3 -5 -1 -12 -10 -15 -8 -3 -12 -11 -9 -17 5 -7 13 -5 26
7 18 16 17 34 -2 34 -6 0 -8 -4 -5 -9z"/>
<path d="M1650 1084 c0 -8 5 -12 10 -9 6 4 8 11 5 16 -9 14 -15 11 -15 -7z"/>
<path d="M1217 1083 c-4 -3 -7 -13 -7 -22 1 -13 3 -13 11 2 11 19 8 33 -4 20z"/>
<path d="M1133 1040 c0 -25 2 -35 4 -22 2 12 2 32 0 45 -2 12 -4 2 -4 -23z"/>
<path d="M1861 1037 c-3 -63 -4 -67 -13 -67 -5 0 -8 -20 -7 -44 2 -25 6 -43
11 -40 4 3 8 0 8 -6 0 -7 23 -11 68 -10 93 2 88 3 124 -29 54 -47 109 -81 132
-81 30 0 44 -12 49 -40 9 -45 25 -77 66 -131 23 -30 41 -59 41 -66 0 -6 3 -13
8 -15 4 -2 17 -15 30 -29 32 -36 182 -409 186 -463 1 -5 6 -11 13 -13 10 -4
-17 98 -45 167 -6 14 -34 85 -62 159 -50 128 -60 145 -171 292 -15 20 -31 54
-34 75 -11 59 -31 86 -63 83 -20 -3 -48 12 -106 56 l-78 59 -79 -3 c-89 -3
-86 -7 -64 84 18 76 18 92 1 98 -10 4 -14 -5 -15 -36z"/>
<path d="M1153 1051 c0 -11 5 -18 9 -15 4 3 5 11 1 19 -7 21 -12 19 -10 -4z"/>
<path d="M1415 1050 c3 -5 8 -10 11 -10 2 0 4 5 4 10 0 6 -5 10 -11 10 -5 0
-7 -4 -4 -10z"/>
<path d="M1187 1036 c-4 -10 -3 -15 3 -11 19 11 10 -22 -10 -40 -11 -10 -20
-23 -19 -29 0 -6 3 -5 6 3 5 11 7 11 14 0 6 -11 9 -9 9 7 0 14 8 24 23 28 13
4 18 9 11 13 -6 5 -15 16 -21 27 -9 16 -11 17 -16 2z"/>
<path d="M1387 1036 c-4 -9 -2 -18 3 -21 6 -4 10 -2 10 3 0 6 10 8 23 6 12 -2
15 -1 7 2 -8 4 -20 11 -26 16 -8 5 -14 3 -17 -6z"/>
<path d="M1136 975 c-3 -8 -1 -15 4 -15 6 0 10 7 10 15 0 8 -2 15 -4 15 -2 0
-6 -7 -10 -15z"/>
<path d="M1215 960 c-3 -5 1 -10 9 -10 8 0 18 5 21 10 3 6 -1 10 -9 10 -8 0
-18 -4 -21 -10z"/>
<path d="M1121 934 c0 -11 3 -14 6 -6 3 7 2 16 -1 19 -3 4 -6 -2 -5 -13z"/>
<path d="M1150 915 c-7 -14 -10 -28 -7 -31 4 -4 11 6 17 21 14 36 7 42 -10 10z"/>
<path d="M1212 919 c-15 -24 -15 -26 2 -26 8 0 12 6 9 14 -4 9 0 11 11 7 9 -3
13 -10 10 -15 -3 -5 0 -9 5 -9 17 0 13 14 -7 31 -17 15 -20 15 -30 -2z"/>
<path d="M1573 913 c-19 -13 -23 -13 -24 -2 0 8 -4 4 -9 -8 -5 -11 -6 -32 -2
-45 6 -22 6 -22 12 6 5 32 30 48 30 21 0 -14 3 -15 15 -5 16 13 20 36 8 43 -5
3 -18 -2 -30 -10z"/>
<path d="M1475 900 c3 -5 8 -10 11 -10 2 0 4 5 4 10 0 6 -5 10 -11 10 -5 0 -7
-4 -4 -10z"/>
<path d="M1509 893 c-13 -16 -12 -17 4 -4 16 13 21 21 13 21 -2 0 -10 -8 -17
-17z"/>
<path d="M1153 854 c-26 -24 -32 -44 -7 -23 22 18 36 -6 23 -39 -5 -14 -7 -27
-4 -30 3 -3 5 0 5 6 0 7 8 12 17 12 13 0 14 -3 5 -12 -7 -7 -12 -20 -12 -30 0
-10 -4 -18 -10 -18 -5 0 -10 -5 -10 -11 0 -18 21 1 31 29 8 21 12 23 19 12 7
-10 10 -11 10 -2 0 6 -8 20 -18 30 -14 14 -15 23 -8 45 6 15 14 27 19 27 4 0
6 -4 2 -9 -3 -5 -1 -12 4 -16 6 -3 9 7 8 25 -3 39 -15 38 -32 -2 l-13 -33 -4
30 -3 30 -22 -21z"/>
<path d="M1440 871 c0 -6 4 -13 10 -16 6 -3 7 1 4 9 -7 18 -14 21 -14 7z"/>
<path d="M1480 854 c9 -21 7 -29 -7 -40 -10 -7 -13 -13 -8 -14 17 0 32 14 40
39 6 19 9 21 17 10 8 -12 9 -12 6 0 -6 22 -26 24 -31 4 -4 -14 -5 -13 -6 5 0
12 -5 22 -11 22 -6 0 -6 -9 0 -26z"/>
<path d="M1603 856 c3 -7 1 -18 -5 -24 -8 -8 -6 -22 6 -47 10 -20 19 -35 20
-33 7 10 -8 118 -16 118 -6 0 -8 -6 -5 -14z"/>
<path d="M1561 848 c0 -9 -9 -18 -18 -20 -11 -2 -14 -6 -8 -10 17 -11 37 8 32
28 -4 15 -5 16 -6 2z"/>
<path d="M1241 834 c0 -11 3 -14 6 -6 3 7 2 16 -1 19 -3 4 -6 -2 -5 -13z"/>
<path d="M1364 831 c5 -7 14 -10 22 -7 7 3 16 1 19 -4 8 -12 45 -13 45 -2 0 5
-6 9 -12 9 -7 1 -28 4 -47 9 -26 5 -32 4 -27 -5z"/>
<path d="M1107 807 c-3 -7 -2 -29 3 -48 l7 -34 12 28 c14 37 14 37 -6 31 -15
-5 -16 -4 -3 5 11 7 12 13 4 21 -8 8 -13 8 -17 -3z"/>
<path d="M1226 795 c-9 -26 -7 -32 5 -12 6 10 9 21 6 23 -2 3 -7 -2 -11 -11z"/>
<path d="M1255 799 c-4 -6 -5 -12 -2 -15 2 -3 7 2 10 11 7 17 1 20 -8 4z"/>
<path d="M1674 794 c3 -9 6 -18 6 -20 0 -3 5 -2 10 1 16 10 12 35 -6 35 -11 0
-14 -5 -10 -16z"/>
<path d="M1556 788 c3 -5 10 -6 15 -3 13 9 11 12 -6 12 -8 0 -12 -4 -9 -9z"/>
<path d="M1400 779 c0 -5 5 -7 10 -4 6 3 10 8 10 11 0 2 -4 4 -10 4 -5 0 -10
-5 -10 -11z"/>
<path d="M1351 764 c0 -11 3 -14 6 -6 3 7 2 16 -1 19 -3 4 -6 -2 -5 -13z"/>
<path d="M1267 755 c-8 -8 -17 -12 -20 -9 -3 3 -3 -3 0 -15 7 -27 10 -27 28 9
17 33 14 38 -8 15z"/>
<path d="M1374 758 c3 -15 26 -23 26 -8 0 6 -4 9 -9 6 -5 -4 -12 -1 -14 4 -3
6 -4 5 -3 -2z"/>
<path d="M1680 731 c0 -36 5 -39 19 -12 8 14 7 22 -4 31 -13 11 -15 8 -15 -19z"/>
<path d="M1576 736 c7 -18 -51 -27 -88 -14 -34 12 -80 7 -86 -10 -3 -9 2 -10
20 -3 15 5 31 5 41 -1 9 -5 36 -12 60 -16 l42 -8 2 -55 c2 -45 0 -56 -12 -56
-12 0 -14 7 -9 31 6 30 5 30 -10 11 -16 -19 -17 -19 -11 12 5 26 4 32 -7 28
-9 -4 -20 4 -26 17 -12 23 -12 23 -7 -4 3 -14 8 -33 11 -41 3 -10 -1 -17 -13
-20 -16 -4 -16 -5 2 -6 11 -1 26 -5 34 -10 12 -8 12 -12 2 -25 -7 -8 -11 -21
-8 -28 3 -9 8 -6 13 7 5 11 18 20 29 20 17 0 20 8 23 48 2 26 8 47 13 47 17 0
52 -21 79 -46 24 -22 26 -23 26 -4 0 11 -4 20 -8 20 -4 0 -8 6 -8 14 0 8 -8
13 -17 12 -12 -1 -18 7 -19 22 -1 12 3 22 7 22 5 0 9 -4 9 -10 0 -5 5 -10 12
-10 6 0 3 9 -7 20 -24 26 -33 25 -41 -6 -4 -15 -12 -24 -22 -22 -20 4 -24 35
-6 52 19 20 18 26 -6 26 -12 0 -17 -5 -14 -14z"/>
<path d="M1131 726 c-10 -11 -8 -31 9 -88 20 -67 72 -208 106 -285 8 -17 11
-39 7 -49 -4 -11 -2 -15 4 -11 5 4 25 -16 42 -43 18 -28 37 -50 42 -50 5 0 8
-6 7 -12 -2 -7 5 -12 14 -10 12 2 16 -2 12 -13 -6 -14 39 -85 58 -93 11 -5 10
-40 -2 -47 -12 -8 -13 -25 -1 -25 5 0 18 15 29 34 12 19 15 33 9 31 -12 -5
-77 87 -77 107 0 6 9 8 19 5 12 -3 22 1 25 10 9 23 7 28 -6 15 -20 -20 -33
-14 -14 7 9 10 16 22 14 27 -2 5 1 9 5 9 15 0 31 39 33 78 1 21 -1 36 -4 32
-7 -7 -12 -31 -14 -60 -1 -24 -38 -32 -38 -9 0 8 -7 14 -15 14 -9 0 -12 -6 -9
-15 4 -8 1 -15 -5 -15 -6 0 -11 -8 -10 -17 0 -11 3 -13 6 -6 3 10 8 10 19 -1
18 -19 18 -30 -1 -46 -13 -10 -15 -9 -15 9 0 20 -14 29 -23 14 -2 -5 -3 -3 -1
2 1 6 -4 19 -12 30 -8 10 -14 15 -14 11 0 -4 -7 0 -16 8 -8 9 -16 33 -17 55
-1 34 -3 37 -14 23 -12 -15 -13 -13 -11 13 2 21 -1 29 -10 27 -8 -1 -12 3 -9
10 2 7 13 13 25 12 12 0 18 4 15 9 -3 5 -14 7 -24 4 -11 -3 -19 -1 -19 5 0 5
-6 6 -12 2 -7 -4 -10 -4 -6 1 4 4 1 17 -7 29 -18 24 -19 59 -5 87 6 10 7 19 2
19 -4 0 -13 -12 -19 -27 -11 -28 -11 -28 -6 5 4 20 1 32 -6 32 -6 0 -14 6 -17
14 -7 18 25 88 37 80 5 -3 9 7 9 23 l0 28 -20 -25 c-11 -14 -23 -35 -26 -47
-8 -31 -23 -20 -16 12 2 15 0 25 -7 25 -7 0 -9 9 -5 25 7 28 2 32 -15 11z m59
-166 c0 -5 -2 -10 -4 -10 -3 0 -8 5 -11 10 -3 6 -1 10 4 10 6 0 11 -4 11 -10z"/>
<path d="M1233 695 c0 -15 -7 -32 -14 -37 -12 -8 -12 -9 0 -6 18 5 31 41 21
57 -5 8 -7 3 -7 -14z"/>
<path d="M1356 703 c-6 -14 -5 -15 5 -6 7 7 10 15 7 18 -3 3 -9 -2 -12 -12z"/>
<path d="M1280 678 c0 -12 4 -16 11 -12 8 4 9 -1 4 -17 -4 -13 -4 -21 0 -17
14 14 13 65 -2 65 -7 0 -13 -9 -13 -19z"/>
<path d="M1376 684 c-9 -23 -8 -24 12 -23 9 0 12 3 5 5 -7 3 -9 12 -6 20 3 8
3 14 0 14 -3 0 -8 -7 -11 -16z"/>
<path d="M1076 673 c-6 -14 -5 -15 5 -6 7 7 10 15 7 18 -3 3 -9 -2 -12 -12z"/>
<path d="M1710 660 c0 -11 2 -20 4 -20 2 0 6 9 9 20 3 11 1 20 -4 20 -5 0 -9
-9 -9 -20z"/>
<path d="M1331 653 c0 -12 -7 -23 -13 -26 -10 -3 -10 -8 1 -18 8 -8 11 -9 7
-2 -3 6 -1 13 5 15 6 2 9 15 6 28 -4 22 -4 23 -6 3z"/>
<path d="M1251 638 c0 -9 -11 -24 -23 -32 -12 -9 -18 -16 -13 -16 21 1 47 29
42 47 -4 15 -5 16 -6 1z"/>
<path d="M1085 630 c-3 -5 -4 -14 -1 -19 4 -5 2 -11 -3 -13 -6 -2 -6 -37 0
-88 5 -47 9 -132 9 -190 1 -69 4 -100 10 -90 12 19 3 290 -10 326 -6 15 -7 31
-2 38 8 10 13 46 6 46 -2 0 -6 -4 -9 -10z"/>
<path d="M1195 631 c-3 -2 -2 -7 0 -11 6 -10 45 -1 45 11 0 8 -37 8 -45 0z"/>
<path d="M1241 569 c-14 -39 -14 -49 -1 -29 9 13 12 13 24 -3 14 -18 21 -14
41 23 6 10 2 9 -12 -3 -17 -15 -23 -16 -29 -5 -5 7 -7 21 -6 31 5 28 -5 20
-17 -14z"/>
<path d="M1652 588 c-7 -7 -12 -21 -12 -32 1 -18 3 -17 16 7 17 31 15 44 -4
25z"/>
<path d="M1111 574 c0 -11 3 -14 6 -6 3 7 2 16 -1 19 -3 4 -6 -2 -5 -13z"/>
<path d="M1326 574 c-3 -9 -4 -19 -2 -23 3 -4 -4 -14 -15 -21 -10 -8 -19 -21
-19 -30 0 -13 1 -13 10 0 9 13 11 13 21 0 9 -13 10 -13 6 1 -3 9 -2 20 2 25
13 14 22 64 12 64 -5 0 -12 -7 -15 -16z"/>
<path d="M1603 560 c-13 -34 -2 -48 18 -23 11 13 11 15 1 9 -10 -6 -11 -1 -6
18 8 35 1 33 -13 -4z"/>
<path d="M1443 538 c3 -9 -1 -22 -9 -28 -16 -14 -19 -40 -4 -40 5 0 7 7 4 15
-8 19 14 19 52 1 16 -8 41 -16 55 -18 14 -2 37 -11 52 -21 23 -15 27 -15 41
-1 9 8 16 12 16 7 1 -16 23 31 30 64 10 42 -7 34 -26 -13 -10 -23 -21 -34 -35
-34 -11 0 -17 4 -14 10 3 5 0 7 -8 4 -8 -3 -20 2 -27 11 -7 8 -24 15 -38 15
-13 0 -41 10 -60 22 -29 18 -34 19 -29 6z"/>
<path d="M1561 534 c0 -11 3 -14 6 -6 3 7 2 16 -1 19 -3 4 -6 -2 -5 -13z"/>
<path d="M1146 499 c5 -52 11 -60 19 -26 4 16 1 34 -8 47 -15 21 -15 20 -11
-21z"/>
<path d="M1711 513 c0 -12 -4 -30 -7 -40 -5 -17 -5 -17 6 0 6 10 9 28 7 40 -4
22 -4 22 -6 0z"/>
<path d="M1377 496 c-4 -9 -16 -16 -27 -16 -18 0 -19 -2 -8 -15 32 -35 38 -45
34 -57 -2 -7 -7 -28 -10 -47 -10 -56 8 -25 20 35 8 43 8 54 -3 54 -17 0 -17
10 2 24 9 7 11 16 6 24 -7 11 -9 11 -14 -2z"/>
<path d="M1227 481 c5 -19 37 -19 49 1 4 6 -2 8 -15 3 -12 -4 -21 -2 -21 4 0
6 -4 11 -9 11 -5 0 -7 -8 -4 -19z"/>
<path d="M1290 460 c0 -5 5 -10 10 -10 6 0 10 5 10 10 0 6 -4 10 -10 10 -5 0
-10 -4 -10 -10z"/>
<path d="M1485 430 c-3 -5 -1 -10 4 -10 6 0 11 5 11 10 0 6 -2 10 -4 10 -3 0
-8 -4 -11 -10z"/>
<path d="M1136 422 c-2 -4 -1 -14 5 -22 7 -12 9 -10 9 8 0 23 -5 28 -14 14z"/>
<path d="M1636 401 c-14 -26 -14 -30 0 -35 8 -3 12 -2 9 4 -3 6 -2 10 3 10 5
0 12 11 14 25 7 34 -8 32 -26 -4z"/>
<path d="M1315 408 c-7 -24 0 -77 9 -68 12 12 14 60 3 60 -4 0 -5 5 -2 10 3 6
4 10 0 10 -3 0 -7 -6 -10 -12z"/>
<path d="M1541 387 c4 -15 5 -35 2 -43 -3 -8 -1 -14 5 -14 5 0 12 20 14 44 2
36 0 44 -13 43 -13 -1 -15 -7 -8 -30z"/>
<path d="M1596 405 c-3 -8 -1 -15 4 -15 6 0 10 7 10 15 0 8 -2 15 -4 15 -2 0
-6 -7 -10 -15z"/>
<path d="M1396 378 c-3 -13 -5 -34 -5 -48 0 -23 1 -23 8 -5 5 11 6 25 4 31 -2
7 0 15 6 19 13 8 14 25 2 25 -5 0 -11 -10 -15 -22z"/>
<path d="M1460 391 c0 -6 4 -13 10 -16 6 -3 7 1 4 9 -7 18 -14 21 -14 7z"/>
<path d="M1501 388 c0 -9 -4 -24 -7 -33 -4 -10 -2 -15 7 -13 9 2 14 -6 14 -24
-1 -14 3 -24 7 -22 4 3 8 -5 8 -17 0 -18 3 -20 12 -11 9 9 9 15 0 24 -7 7 -12
27 -12 46 0 18 -4 31 -9 27 -5 -3 -12 5 -14 17 -2 14 -5 16 -6 6z"/>
<path d="M1195 359 c-11 -17 1 -21 15 -4 8 9 8 15 2 15 -6 0 -14 -5 -17 -11z"/>
<path d="M1420 350 c0 -11 4 -20 9 -20 6 0 9 9 8 20 -1 11 -5 20 -9 20 -4 0
-8 -9 -8 -20z"/>
<path d="M1150 335 c1 -26 2 -28 11 -12 8 14 8 22 0 30 -8 8 -11 3 -11 -18z"/>
<path d="M1618 329 c-3 -17 -1 -32 4 -35 4 -3 8 6 8 20 0 13 5 26 12 28 8 3 6
6 -4 10 -12 5 -17 -1 -20 -23z"/>
<path d="M1572 310 c0 -14 2 -19 5 -12 2 6 2 18 0 25 -3 6 -5 1 -5 -13z"/>
<path d="M1490 294 c-13 -32 -13 -43 0 -24 8 13 10 12 10 -3 0 -10 -7 -20 -15
-23 -8 -4 -15 -13 -15 -22 0 -12 5 -10 25 8 19 18 22 27 14 42 -6 11 -8 26 -5
34 3 8 3 14 0 14 -2 0 -9 -12 -14 -26z"/>
<path d="M1340 297 c0 -8 6 -14 14 -14 8 0 12 6 9 14 -3 7 -9 13 -14 13 -5 0
-9 -6 -9 -13z"/>
<path d="M1168 243 c5 -21 7 -23 10 -9 2 10 0 22 -6 28 -6 6 -7 0 -4 -19z"/>
<path d="M1181 194 c0 -11 3 -14 6 -6 3 7 2 16 -1 19 -3 4 -6 -2 -5 -13z"/>
<path d="M1490 201 c0 -5 7 -11 15 -15 8 -3 15 -1 15 3 0 5 -7 11 -15 15 -8 3
-15 1 -15 -3z"/>
<path d="M1445 183 c-8 -21 -7 -23 12 -23 9 0 13 3 10 7 -4 3 -2 11 3 18 7 8
5 12 -5 12 -8 0 -17 -7 -20 -14z"/>
<path d="M1192 116 c7 -8 15 -12 17 -11 5 6 -10 25 -20 25 -5 0 -4 -6 3 -14z"/>
<path d="M1200 76 c0 -21 30 -76 42 -76 8 0 -9 44 -29 75 -12 18 -13 18 -13 1z"/>
<path d="M1323 38 c0 -24 1 -35 4 -25 2 9 8 15 12 13 4 -3 6 5 5 17 -1 12 -3
25 -3 30 -1 4 -5 7 -9 7 -5 0 -9 -19 -9 -42z"/>
<path d="M1041 43 c0 -5 4 -17 9 -28 8 -18 9 -17 9 8 1 15 -3 27 -9 27 -5 0
-10 -3 -9 -7z"/>
<path d="M103 3 c59 -2 155 -2 215 0 59 1 10 3 -108 3 -118 0 -167 -2 -107 -3z"/>
</g>
</svg>
