<?xml version="1.0" standalone="no"?>
<!DOCTYPE svg PUBLIC "-//W3C//DTD SVG 20010904//EN"
 "http://www.w3.org/TR/2001/REC-SVG-20010904/DTD/svg10.dtd">
<svg version="1.0" xmlns="http://www.w3.org/2000/svg"
 width="300.000000pt" height="300.000000pt" viewBox="0 0 300.000000 300.000000"
 preserveAspectRatio="xMidYMid meet">
<metadata>
Created by potrace 1.10, written by Peter Selinger 2001-2011
</metadata>
<g transform="translate(0.000000,300.000000) scale(0.100000,-0.100000)"
fill="#000000" stroke="none">
<path d="M1401 2594 c-19 -13 -27 -24 -19 -24 9 0 21 7 28 15 7 9 19 14 26 11
8 -3 11 0 7 10 -3 7 -6 14 -7 13 0 0 -16 -12 -35 -25z"/>
<path d="M1503 2603 c-12 -2 -27 -12 -35 -21 -12 -15 -11 -16 4 -4 9 8 26 11
36 8 13 -4 19 -1 19 9 0 8 -1 14 -1 14 -1 -1 -11 -4 -23 -6z"/>
<path d="M1569 2596 c11 -12 51 -29 51 -21 0 2 -14 10 -31 19 -23 12 -28 12
-20 2z"/>
<path d="M1648 2583 c6 -2 12 -10 12 -17 0 -7 10 -21 21 -32 29 -26 113 -171
117 -202 2 -14 7 -33 11 -41 5 -9 18 -72 30 -141 12 -69 26 -140 31 -159 8
-30 -1 -81 -15 -81 -2 0 -14 19 -26 43 -43 84 -63 103 -135 123 -91 24 -143
11 -201 -51 -34 -38 -47 -45 -78 -45 -27 0 -42 6 -56 24 -42 53 -129 57 -225
11 -59 -29 -64 -39 -64 -142 0 -50 -4 -73 -12 -73 -9 0 -9 -3 0 -12 6 -6 14
-10 16 -7 5 6 15 85 16 134 0 33 2 37 11 22 6 -10 9 -32 7 -50 -4 -47 31 -144
64 -178 24 -24 38 -29 75 -29 42 0 51 5 87 43 30 31 46 59 59 105 18 65 22
101 7 67 -8 -19 -9 -19 -9 2 -1 12 6 28 14 37 16 15 45 12 45 -6 0 -5 -4 -7
-9 -4 -16 10 39 -138 60 -160 17 -19 18 -22 4 -34 -8 -7 -15 -22 -14 -34 0
-17 2 -16 11 7 8 23 14 27 32 22 97 -29 145 -11 182 70 37 79 28 201 -20 254
-16 18 -15 18 24 8 44 -12 58 -35 39 -64 -9 -16 -7 -26 15 -57 22 -33 31 -69
29 -123 -1 -7 6 -13 14 -13 10 0 13 6 9 17 -13 33 -27 106 -21 112 6 5 20 -12
28 -34 2 -5 14 -2 25 9 12 10 28 16 35 13 25 -9 27 -64 11 -215 -16 -153 -40
-232 -68 -232 -10 0 -16 -9 -16 -22 0 -13 -9 -61 -20 -107 -11 -46 -23 -123
-27 -170 -5 -83 -5 -87 22 -119 15 -17 32 -32 38 -32 25 -1 87 -70 88 -98 0
-24 1 -25 9 -7 8 20 8 20 15 0 4 -11 16 -42 26 -68 27 -66 42 -250 35 -431 -3
-83 -7 -184 -8 -223 -2 -40 -6 -73 -10 -73 -4 0 -3 -13 2 -30 5 -16 5 -30 1
-30 -4 0 -6 -14 -3 -30 5 -34 27 -40 35 -11 6 23 9 199 8 471 0 215 -5 307
-14 317 -4 3 -7 16 -7 27 0 12 -7 30 -15 40 -8 11 -15 27 -15 37 0 9 -7 19
-15 23 -8 3 -14 10 -13 15 3 10 -43 53 -90 82 -58 37 -85 119 -38 119 13 0 26
-7 30 -15 3 -8 9 -14 13 -14 31 7 67 -26 153 -142 39 -53 111 -117 138 -124
13 -3 36 -14 51 -24 14 -10 51 -33 81 -52 30 -19 66 -45 80 -59 14 -14 50 -45
79 -70 49 -41 104 -94 165 -160 39 -41 45 -62 47 -164 1 -53 5 -99 9 -101 3
-2 4 47 2 108 -5 127 -3 123 -114 237 -105 108 -218 198 -333 265 -148 86
-149 87 -209 168 -75 102 -136 155 -186 163 -22 4 -40 9 -40 13 0 3 7 33 15
67 14 60 16 70 30 149 4 22 15 49 25 60 44 50 65 145 74 341 4 77 2 95 -14
122 -11 17 -29 84 -40 149 -26 146 -67 315 -79 322 -4 4 -11 15 -15 26 -3 11
-16 32 -28 47 -60 72 -84 102 -91 114 -4 8 -13 14 -20 13 -9 0 -9 -2 1 -6z
m32 -543 c30 -30 40 -63 40 -136 0 -99 -31 -154 -98 -173 -62 -18 -113 31
-136 130 -21 92 -6 142 54 183 36 24 115 21 140 -4z m-375 -24 c69 -29 91
-149 43 -244 -57 -115 -169 -101 -213 27 -34 101 -7 193 65 218 47 16 64 16
105 -1z m483 -52 c7 -14 8 -23 2 -19 -15 9 -32 45 -22 45 5 0 14 -12 20 -26z"/>
<path d="M1566 2041 c-5 -7 -1 -8 9 -5 17 7 88 -23 81 -34 -2 -4 2 -16 10 -27
14 -18 14 -18 14 4 0 12 -8 30 -17 41 -22 22 -88 37 -97 21z"/>
<path d="M1527 1996 c-3 -7 -1 -18 4 -23 6 -6 2 -16 -11 -28 -21 -19 -27 -55
-9 -55 6 0 9 -9 6 -20 -8 -31 3 -24 14 10 15 41 29 38 22 -4 -6 -41 6 -50 65
-47 25 1 48 -3 52 -9 4 -6 11 0 18 14 11 24 10 25 -14 16 -25 -10 -120 -13
-97 -4 9 4 8 15 -3 46 -8 23 -12 50 -8 60 4 12 1 18 -8 16 -8 -2 -13 6 -12 20
1 24 -11 30 -19 8z m23 -60 c0 -3 -4 -8 -10 -11 -5 -3 -10 -1 -10 4 0 6 5 11
10 11 6 0 10 -2 10 -4z"/>
<path d="M1580 1928 c0 -12 7 -29 16 -39 15 -17 19 -17 46 -3 16 8 38 12 48 9
14 -5 20 -2 20 10 0 9 -4 13 -10 10 -5 -3 -17 3 -27 15 -10 11 -21 20 -26 20
-5 0 -4 -7 3 -15 11 -13 10 -14 -4 -9 -9 3 -16 1 -16 -5 0 -6 5 -11 11 -11 5
0 7 -4 4 -10 -3 -5 -16 -10 -28 -9 -12 0 -16 3 -9 6 6 2 12 9 12 14 0 6 -4 7
-10 4 -5 -3 -10 -1 -10 4 0 6 7 11 16 11 8 0 12 5 9 10 -12 20 -45 11 -45 -12z"/>
<path d="M1670 1879 c0 -5 5 -7 10 -4 6 3 10 8 10 11 0 2 -4 4 -10 4 -5 0 -10
-5 -10 -11z"/>
<path d="M1277 1989 c7 -7 15 -10 18 -7 3 3 -2 9 -12 12 -14 6 -15 5 -6 -5z"/>
<path d="M1211 1953 c-10 -22 -10 -25 4 -19 9 3 19 6 21 6 2 0 4 6 4 14 0 26
-17 26 -29 -1z"/>
<path d="M1136 1913 c-4 -9 -1 -21 5 -27 9 -8 10 -7 6 5 -3 9 0 22 6 28 8 8 8
11 0 11 -6 0 -14 -8 -17 -17z"/>
<path d="M1287 1923 c-3 -5 8 -8 25 -9 20 -1 25 2 16 7 -16 11 -35 11 -41 2z"/>
<path d="M1261 1893 c-13 -3 -38 -18 -55 -33 -22 -22 -33 -26 -43 -18 -9 7
-13 7 -13 -1 0 -6 5 -11 10 -11 6 0 10 -5 10 -11 0 -6 -7 -9 -15 -5 -8 3 -15
1 -15 -4 0 -20 19 -18 41 3 14 13 35 21 49 20 14 -1 20 0 13 3 -10 4 -10 10 0
25 6 10 15 19 20 19 4 0 5 -4 2 -10 -3 -5 1 -10 9 -10 9 0 16 7 16 16 0 10 6
14 15 10 8 -3 15 -1 15 4 0 10 -16 11 -59 3z"/>
<path d="M1330 1853 c0 -42 9 -39 16 6 3 18 1 31 -5 31 -6 0 -11 -16 -11 -37z"/>
<path d="M1258 1806 c-38 -16 -59 -20 -61 -12 -2 6 -8 8 -12 4 -13 -12 0 -20
42 -24 26 -3 32 -1 19 4 -16 7 -11 11 27 22 26 7 47 17 47 21 0 11 5 12 -62
-15z"/>
<path d="M1334 2563 c-12 -27 -12 -53 -2 -53 6 0 7 7 4 15 -3 9 0 18 8 21 13
5 18 34 5 34 -4 0 -10 -8 -15 -17z"/>
<path d="M1518 2564 c6 -3 9 -11 5 -17 -4 -7 -1 -7 9 1 11 9 18 10 23 2 3 -5
0 -10 -7 -11 -7 0 -2 -6 12 -12 63 -29 180 -179 180 -230 0 -21 12 -28 26 -16
10 8 4 27 -27 89 -22 44 -44 82 -49 85 -6 4 -10 11 -10 17 0 6 10 3 21 -8 22
-19 22 -19 10 3 -6 12 -19 21 -29 21 -22 -1 -94 41 -87 52 8 13 -15 23 -55 26
-19 2 -29 1 -22 -2z"/>
<path d="M1610 2552 c0 -15 38 -44 44 -34 6 9 -4 20 -31 36 -7 4 -13 3 -13 -2z"/>
<path d="M1445 2542 c-6 -4 -11 -14 -13 -22 -3 -12 0 -12 14 2 18 18 17 33 -1
20z"/>
<path d="M1355 2529 c-11 -17 1 -21 15 -4 8 9 8 15 2 15 -6 0 -14 -5 -17 -11z"/>
<path d="M1264 2495 c-4 -16 -13 -25 -25 -25 -12 0 -19 -7 -19 -20 0 -11 -4
-20 -9 -20 -6 0 -22 -22 -38 -50 -15 -27 -35 -52 -43 -55 -12 -5 -13 -4 -2 6
6 7 12 21 12 31 0 10 5 18 10 18 6 0 15 11 20 25 5 14 17 28 25 31 8 4 15 14
15 23 -1 29 -77 -70 -96 -124 -13 -39 -3 -68 15 -39 14 25 14 11 0 -20 -7 -14
-15 -24 -18 -22 -3 2 -7 -19 -8 -48 -2 -51 11 -48 20 5 12 70 74 186 133 247
30 30 54 56 54 58 0 2 -9 4 -20 4 -13 0 -22 -9 -26 -25z"/>
<path d="M1456 2504 c-6 -15 -4 -15 11 -3 10 7 20 15 22 16 2 2 -3 3 -11 3 -9
0 -19 -7 -22 -16z"/>
<path d="M1401 2476 c-9 -11 -6 -12 14 -8 14 2 22 8 19 13 -8 13 -20 11 -33
-5z"/>
<path d="M1726 2427 c3 -10 9 -15 12 -12 3 3 0 11 -7 18 -10 9 -11 8 -5 -6z"/>
<path d="M1498 2353 c7 -3 16 -2 19 1 4 3 -2 6 -13 5 -11 0 -14 -3 -6 -6z"/>
<path d="M1590 2290 c8 -5 20 -10 25 -10 6 0 3 5 -5 10 -8 5 -19 10 -25 10 -5
0 -3 -5 5 -10z"/>
<path d="M1336 2265 c4 -8 7 -15 9 -15 2 0 5 7 9 15 3 9 0 15 -9 15 -9 0 -12
-6 -9 -15z"/>
<path d="M1580 2265 c0 -8 4 -15 10 -15 5 0 7 7 4 15 -4 8 -8 15 -10 15 -2 0
-4 -7 -4 -15z"/>
<path d="M1785 2237 c2 -27 9 -56 15 -65 7 -12 8 -4 4 28 -10 66 -26 97 -19
37z"/>
<path d="M1221 2254 c0 -11 3 -14 6 -6 3 7 2 16 -1 19 -3 4 -6 -2 -5 -13z"/>
<path d="M1308 2217 c-3 -19 -2 -25 4 -19 6 6 8 18 6 28 -3 14 -5 12 -10 -9z"/>
<path d="M1350 2193 c0 -14 3 -23 7 -19 10 10 11 46 1 46 -4 0 -8 -12 -8 -27z"/>
<path d="M1511 2203 c-7 -8 -10 -17 -7 -20 9 -9 29 13 25 25 -2 6 -10 3 -18
-5z"/>
<path d="M1581 2204 c0 -11 3 -14 6 -6 3 7 2 16 -1 19 -3 4 -6 -2 -5 -13z"/>
<path d="M1081 2184 c0 -11 3 -14 6 -6 3 7 2 16 -1 19 -3 4 -6 -2 -5 -13z"/>
<path d="M1316 2173 c-6 -14 -5 -15 5 -6 7 7 10 15 7 18 -3 3 -9 -2 -12 -12z"/>
<path d="M1730 2170 c0 -11 4 -20 9 -20 5 0 7 9 4 20 -3 11 -7 20 -9 20 -2 0
-4 -9 -4 -20z"/>
<path d="M1259 2153 c-13 -16 -12 -17 4 -4 9 7 17 15 17 17 0 8 -8 3 -21 -13z"/>
<path d="M1402 2134 c-1 -13 0 -24 2 -24 7 0 14 40 7 44 -4 3 -8 -6 -9 -20z"/>
<path d="M1447 2105 c5 -56 23 -114 22 -75 0 8 -6 42 -14 75 l-14 60 6 -60z"/>
<path d="M1075 2138 c-29 -81 -45 -205 -25 -193 6 3 10 30 10 58 0 29 7 73 15
100 8 26 12 47 9 47 -2 0 -7 -6 -9 -12z"/>
<path d="M1300 2125 c0 -8 5 -15 10 -15 6 0 10 7 10 15 0 8 -4 15 -10 15 -5 0
-10 -7 -10 -15z"/>
<path d="M1465 2130 c-3 -6 1 -7 9 -4 18 7 21 14 7 14 -6 0 -13 -4 -16 -10z"/>
<path d="M1356 2116 c3 -9 11 -16 16 -16 13 0 5 23 -10 28 -7 2 -10 -2 -6 -12z"/>
<path d="M1118 2085 c-3 -14 -1 -25 3 -25 5 0 9 11 9 25 0 14 -2 25 -4 25 -2
0 -6 -11 -8 -25z"/>
<path d="M1392 2068 c-1 -20 -5 -45 -8 -55 -5 -14 -4 -15 5 -7 7 7 11 29 8 55
-3 42 -4 42 -5 7z"/>
<path d="M1525 2090 c-3 -5 -2 -10 4 -10 5 0 13 5 16 10 3 6 2 10 -4 10 -5 0
-13 -4 -16 -10z"/>
<path d="M1362 2070 c0 -14 2 -19 5 -12 2 6 2 18 0 25 -3 6 -5 1 -5 -13z"/>
<path d="M1042 1890 c0 -14 2 -19 5 -12 2 6 2 18 0 25 -3 6 -5 1 -5 -13z"/>
<path d="M1874 1869 c10 -32 7 -181 -5 -221 -10 -38 -3 -51 10 -16 5 13 11 75
12 138 3 90 1 114 -10 118 -11 4 -12 -1 -7 -19z"/>
<path d="M1830 1866 c0 -8 4 -17 9 -20 5 -4 7 3 4 14 -6 23 -13 26 -13 6z"/>
<path d="M1395 1765 c-3 -30 -2 -62 3 -71 7 -13 10 -1 11 45 0 34 3 66 6 72 4
5 2 9 -3 9 -5 0 -13 -25 -17 -55z"/>
<path d="M1096 1782 c-2 -4 -1 -23 4 -42 l8 -35 1 43 c1 41 -3 50 -13 34z"/>
<path d="M1040 1758 c0 -22 50 -271 55 -276 11 -12 16 8 6 26 -5 10 -15 54
-20 98 -20 144 -24 164 -32 164 -5 0 -9 -6 -9 -12z"/>
<path d="M1832 1725 c1 -27 -2 -61 -7 -74 -5 -17 -4 -21 5 -16 23 14 29 53 15
97 l-13 43 0 -50z"/>
<path d="M1802 1700 c0 -19 2 -27 5 -17 2 9 2 25 0 35 -3 9 -5 1 -5 -18z"/>
<path d="M1351 1704 c0 -11 3 -14 6 -6 3 7 2 16 -1 19 -3 4 -6 -2 -5 -13z"/>
<path d="M1542 1679 c1 -19 4 -26 9 -17 6 10 12 8 23 -7 9 -11 16 -25 16 -30
0 -6 13 -26 29 -45 38 -47 46 -74 26 -94 -19 -19 -35 -123 -17 -112 8 5 12 -5
12 -31 1 -32 2 -35 11 -20 6 11 8 37 5 61 -8 49 1 86 15 64 6 -8 9 4 9 32 0
33 -8 57 -30 90 -16 25 -30 53 -30 62 0 17 -55 78 -71 78 -4 0 -7 -14 -7 -31z"/>
<path d="M1309 1670 c-19 -31 -67 -150 -73 -184 -7 -37 10 -32 18 5 3 17 18
58 32 89 l26 58 39 -26 c21 -15 43 -38 48 -52 9 -25 9 -25 10 -2 1 13 7 22 14
21 24 -3 34 1 61 26 15 14 31 25 37 25 5 0 9 5 9 10 0 21 -29 9 -53 -21 -19
-24 -30 -30 -53 -27 -17 2 -28 8 -26 16 1 6 -1 11 -5 11 -5 -1 -12 0 -18 1 -5
1 -17 3 -25 4 -9 0 -17 15 -20 36 l-5 34 -16 -24z"/>
<path d="M1373 1664 c-3 -8 -2 -19 3 -24 5 -5 10 1 10 16 2 27 -4 31 -13 8z"/>
<path d="M1166 1653 c-6 -14 -5 -15 5 -6 7 7 10 15 7 18 -3 3 -9 -2 -12 -12z"/>
<path d="M1103 1605 c0 -27 2 -38 4 -22 2 15 2 37 0 50 -2 12 -4 0 -4 -28z"/>
<path d="M1811 1604 c0 -11 3 -14 6 -6 3 7 2 16 -1 19 -3 4 -6 -2 -5 -13z"/>
<path d="M1590 1568 c0 -9 5 -20 10 -23 13 -8 13 5 0 25 -8 13 -10 13 -10 -2z"/>
<path d="M1727 1503 c-3 -43 -17 -114 -31 -157 -14 -44 -24 -82 -21 -84 10
-10 57 171 62 241 3 42 3 77 1 77 -3 0 -8 -35 -11 -77z"/>
<path d="M1440 1550 c0 -6 -6 -8 -12 -4 -7 4 -10 3 -5 -1 11 -13 48 -14 44 -1
-5 14 -27 20 -27 6z"/>
<path d="M1851 1544 c0 -11 3 -14 6 -6 3 7 2 16 -1 19 -3 4 -6 -2 -5 -13z"/>
<path d="M1357 1533 c-10 -9 -9 -23 1 -23 5 0 9 7 9 15 0 17 -1 18 -10 8z"/>
<path d="M1590 1526 c0 -2 7 -6 15 -10 8 -3 15 -1 15 4 0 6 -7 10 -15 10 -8 0
-15 -2 -15 -4z"/>
<path d="M1164 1458 c4 -37 24 -102 47 -158 56 -134 60 -142 53 -100 -3 19
-12 45 -20 57 -17 27 -18 37 -3 27 6 -3 4 7 -5 24 -8 16 -12 33 -8 37 4 5 -1
5 -10 2 -18 -6 -24 10 -20 56 1 11 -2 15 -9 11 -8 -4 -9 0 -4 15 4 14 2 21 -7
21 -10 0 -9 3 2 10 9 6 10 10 3 10 -7 0 -10 10 -7 25 3 15 0 25 -7 25 -8 0
-10 -18 -5 -62z"/>
<path d="M1415 1501 c3 -5 1 -12 -5 -16 -5 -3 -10 0 -10 7 0 9 -3 9 -8 2 -4
-6 -15 -13 -24 -17 -11 -4 -15 -12 -12 -22 6 -14 8 -13 20 2 12 16 14 15 15
-12 1 -25 2 -26 6 -7 3 15 10 22 21 19 9 -2 16 -9 15 -15 -2 -7 2 -12 7 -12 6
0 10 8 8 17 -2 10 4 19 15 21 12 2 17 -3 18 -20 1 -23 1 -23 8 2 6 21 12 25
41 22 47 -5 56 -16 41 -48 -10 -22 -16 -25 -39 -19 -15 4 -31 7 -37 7 -26 -1
-103 -14 -127 -22 -14 -5 -29 -6 -32 -3 -10 10 -7 43 4 43 6 0 10 7 10 15 0
18 -21 20 -38 3 -8 -8 -15 -8 -27 2 -22 18 -30 6 -17 -27 9 -23 23 -84 26
-115 1 -3 4 -10 9 -14 11 -12 8 26 -7 85 l-14 54 24 -31 c21 -26 33 -31 87
-37 91 -10 169 14 202 63 30 44 31 52 7 52 -10 0 -22 3 -26 8 -4 4 -34 7 -67
7 -32 0 -59 -3 -59 -7 0 -5 -4 -8 -10 -8 -5 0 -10 7 -10 15 0 8 -5 15 -11 15
-5 0 -8 -4 -4 -9z m80 -121 c-11 -5 -29 -9 -40 -9 -31 -1 -1 14 32 16 24 1 25
0 8 -7z"/>
<path d="M1320 1479 c0 -5 5 -7 10 -4 6 3 10 8 10 11 0 2 -4 4 -10 4 -5 0 -10
-5 -10 -11z"/>
<path d="M1086 1387 c3 -10 9 -15 12 -12 3 3 0 11 -7 18 -10 9 -11 8 -5 -6z"/>
<path d="M1121 1364 c0 -11 3 -14 6 -6 3 7 2 16 -1 19 -3 4 -6 -2 -5 -13z"/>
<path d="M1500 1350 c-9 -6 -10 -10 -3 -10 6 0 15 5 18 10 8 12 4 12 -15 0z"/>
<path d="M1350 1341 c0 -6 4 -13 10 -16 6 -3 7 1 4 9 -7 18 -14 21 -14 7z"/>
<path d="M1131 1324 c0 -11 3 -14 6 -6 3 7 2 16 -1 19 -3 4 -6 -2 -5 -13z"/>
<path d="M1461 1324 c0 -11 3 -14 6 -6 3 7 2 16 -1 19 -3 4 -6 -2 -5 -13z"/>
<path d="M1336 1294 c-9 -23 -2 -28 13 -10 7 8 8 17 3 20 -6 3 -13 -1 -16 -10z"/>
<path d="M1755 1299 c-4 -6 -5 -12 -2 -15 2 -3 7 2 10 11 7 17 1 20 -8 4z"/>
<path d="M1464 1293 c4 -7 3 -13 -3 -13 -6 0 -8 -7 -4 -16 5 -15 7 -15 16 1 6
12 5 21 -3 28 -10 9 -11 9 -6 0z"/>
<path d="M1490 1293 c0 -6 8 -17 18 -24 16 -13 16 -13 2 6 -8 11 -16 22 -17
24 -2 2 -3 0 -3 -6z"/>
<path d="M1143 1275 c0 -8 4 -15 8 -15 4 0 14 -19 23 -41 9 -23 19 -39 22 -36
5 5 -42 107 -50 107 -1 0 -3 -7 -3 -15z"/>
<path d="M1397 1273 c-12 -12 -7 -22 8 -17 8 4 15 10 15 15 0 11 -14 12 -23 2z"/>
<path d="M1691 1258 c0 -9 -4 -25 -7 -35 -5 -17 -5 -17 6 0 6 10 9 25 7 35 -4
15 -5 15 -6 0z"/>
<path d="M1435 1240 c-3 -5 -1 -10 4 -10 6 0 11 5 11 10 0 6 -2 10 -4 10 -3 0
-8 -4 -11 -10z"/>
<path d="M1580 1230 c-6 -11 -7 -20 -2 -20 6 0 12 9 15 20 3 11 3 20 1 20 -2
0 -8 -9 -14 -20z"/>
<path d="M1325 1229 c-11 -16 -1 -19 13 -3 7 8 8 14 3 14 -5 0 -13 -5 -16 -11z"/>
<path d="M1487 1214 c-3 -3 -3 -12 -1 -19 4 -10 -1 -12 -18 -9 -13 2 -17 2
-10 -2 22 -11 35 -44 22 -59 -9 -11 -8 -18 5 -31 15 -15 16 -15 9 10 -4 17 -2
26 6 26 6 0 8 5 4 12 -5 7 -7 27 -5 45 3 33 0 39 -12 27z"/>
<path d="M1426 1165 c4 -8 8 -15 10 -15 2 0 4 7 4 15 0 8 -4 15 -10 15 -5 0
-7 -7 -4 -15z"/>
<path d="M1555 1170 c-3 -6 1 -7 9 -4 18 7 21 14 7 14 -6 0 -13 -4 -16 -10z"/>
<path d="M1701 1167 c-1 -10 -5 -15 -11 -12 -5 3 -10 -2 -10 -12 0 -16 1 -16
16 -1 9 9 14 22 11 30 -4 9 -6 7 -6 -5z"/>
<path d="M1250 1151 c0 -6 4 -13 10 -16 6 -3 7 1 4 9 -7 18 -14 21 -14 7z"/>
<path d="M1400 1151 c0 -5 5 -13 10 -16 6 -3 10 -2 10 4 0 5 -4 13 -10 16 -5
3 -10 2 -10 -4z"/>
<path d="M1651 1112 c-17 -31 -13 -40 5 -14 9 13 14 26 11 29 -3 2 -10 -4 -16
-15z"/>
<path d="M1200 1052 c-13 -20 -30 -48 -37 -61 -57 -105 -64 -112 -213 -194
-153 -84 -346 -238 -382 -304 -34 -62 -83 -227 -98 -328 -6 -44 -16 -95 -21
-113 -6 -18 -9 -38 -6 -45 3 -6 10 9 17 36 7 26 17 47 22 47 6 0 8 6 5 13 -6
17 7 117 23 172 6 22 16 60 21 85 15 63 58 148 94 182 45 42 183 148 194 148
5 0 11 4 13 8 5 14 90 67 167 106 84 41 119 75 174 165 21 35 41 61 44 58 10
-11 21 -142 12 -153 -5 -6 -6 -14 -2 -17 3 -4 1 -7 -6 -7 -18 0 -4 -66 24
-115 30 -52 71 -90 117 -109 52 -22 70 -19 28 4 -19 11 -32 19 -28 20 4 0 -5
12 -19 26 -16 16 -28 22 -32 15 -4 -6 -18 11 -31 37 -14 26 -30 51 -37 57 -19
16 -19 48 0 76 16 24 17 36 6 120 -6 52 -14 97 -18 101 -3 4 -17 -10 -31 -30z"/>
<path d="M1575 1067 c-4 -10 -13 -16 -20 -14 -6 3 -12 -1 -12 -9 0 -17 7 -17
31 1 10 7 16 20 13 27 -3 9 -7 8 -12 -5z"/>
<path d="M1272 1050 c0 -14 2 -19 5 -12 2 6 2 18 0 25 -3 6 -5 1 -5 -13z"/>
<path d="M1690 1059 c0 -5 5 -7 10 -4 6 3 10 8 10 11 0 2 -4 4 -10 4 -5 0 -10
-5 -10 -11z"/>
<path d="M1360 1041 c0 -5 7 -12 16 -15 24 -9 27 -7 10 9 -17 17 -26 19 -26 6z"/>
<path d="M1520 1037 c0 -10 -7 -15 -20 -12 -11 2 -20 -2 -20 -8 0 -7 -4 -6
-10 3 -7 10 -10 11 -10 2 0 -8 -9 -11 -27 -7 -27 5 -27 5 -4 -5 44 -19 123 11
97 37 -3 4 -6 -1 -6 -10z"/>
<path d="M1832 952 c-2 -37 -11 -70 -27 -97 -30 -52 -157 -173 -201 -191 -18
-7 -35 -18 -39 -24 -3 -5 -10 -10 -16 -10 -5 0 0 17 11 37 11 21 20 42 20 48
0 6 11 27 25 48 20 29 24 41 15 56 -13 25 -13 61 0 61 6 0 10 5 10 11 0 8 -5
8 -15 -1 -17 -14 -19 -43 -5 -71 10 -18 4 -24 -22 -20 -4 0 -4 -7 -1 -16 5
-12 3 -14 -7 -8 -8 5 -11 4 -7 -2 8 -12 -21 -95 -36 -105 -22 -14 -60 -9 -54
7 4 8 -8 29 -28 50 -41 41 -47 44 -32 11 7 -13 14 -23 18 -21 3 3 11 -12 17
-32 9 -29 9 -39 -1 -45 -9 -6 -8 -8 3 -8 11 -1 10 -4 -4 -15 -19 -14 -18 -15
16 -15 41 0 148 38 148 52 0 5 4 7 9 4 5 -3 47 31 93 77 93 91 128 151 128
221 0 66 -15 63 -18 -2z"/>
<path d="M1341 984 c0 -11 3 -14 6 -6 3 7 2 16 -1 19 -3 4 -6 -2 -5 -13z"/>
<path d="M1786 985 c4 -8 11 -15 16 -15 6 0 5 6 -2 15 -7 8 -14 15 -16 15 -2
0 -1 -7 2 -15z"/>
<path d="M1403 940 c2 -8 12 -16 23 -17 13 -2 15 -1 4 4 -8 3 -19 11 -23 17
-6 7 -7 6 -4 -4z"/>
<path d="M1470 940 c0 -5 5 -10 11 -10 5 0 7 5 4 10 -3 6 -8 10 -11 10 -2 0
-4 -4 -4 -10z"/>
<path d="M1520 930 c0 -5 5 -10 11 -10 5 0 7 5 4 10 -3 6 -8 10 -11 10 -2 0
-4 -4 -4 -10z"/>
<path d="M1480 910 c0 -5 5 -10 10 -10 6 0 10 5 10 10 0 6 -4 10 -10 10 -5 0
-10 -4 -10 -10z"/>
<path d="M1326 867 c3 -10 9 -15 12 -12 3 3 0 11 -7 18 -10 9 -11 8 -5 -6z"/>
<path d="M1901 843 c-6 -21 -20 -53 -31 -70 -11 -18 -16 -33 -12 -33 9 0 49
78 58 113 10 41 -4 32 -15 -10z"/>
<path d="M2141 845 c0 -18 28 -61 29 -44 0 8 -7 24 -15 35 -8 10 -14 15 -14 9z"/>
<path d="M1175 763 c-10 -43 -20 -85 -23 -93 -2 -11 -5 -552 -2 -657 0 -7 7
-13 15 -13 12 0 14 12 10 68 -10 135 -13 582 -3 582 5 0 5 6 0 16 -5 9 -7 25
-4 36 4 18 5 18 18 1 12 -16 13 -8 14 60 0 42 -1 77 -3 77 -2 0 -12 -35 -22
-77z"/>
<path d="M1850 831 c0 -6 4 -13 10 -16 6 -3 7 1 4 9 -7 18 -14 21 -14 7z"/>
<path d="M1374 799 c-3 -6 -1 -16 5 -22 8 -8 16 -5 31 11 12 12 16 22 11 22
-5 0 -13 -4 -16 -10 -3 -5 -11 -10 -16 -10 -6 0 -7 5 -4 10 3 6 4 10 1 10 -3
0 -8 -5 -12 -11z"/>
<path d="M1816 788 c-7 -21 -3 -48 6 -48 4 0 8 7 8 15 0 7 8 18 17 24 10 5 14
13 9 18 -5 4 -11 2 -13 -4 -3 -7 -9 -13 -14 -13 -6 0 -7 5 -4 10 3 6 4 10 0
10 -3 0 -7 -6 -9 -12z"/>
<path d="M1478 783 c7 -3 16 -2 19 1 4 3 -2 6 -13 5 -11 0 -14 -3 -6 -6z"/>
<path d="M2190 731 c0 -6 4 -13 10 -16 6 -3 7 1 4 9 -7 18 -14 21 -14 7z"/>
<path d="M1780 722 c0 -5 7 -9 15 -9 8 0 12 4 9 9 -3 4 -9 8 -15 8 -5 0 -9 -4
-9 -8z"/>
<path d="M1763 642 c-45 -47 -80 -88 -78 -91 5 -5 129 124 151 157 8 12 13 22
12 22 -2 -1 -40 -40 -85 -88z"/>
<path d="M1890 714 c8 -10 15 -20 16 -22 1 -2 4 1 7 5 3 5 -4 15 -16 23 -21
12 -21 12 -7 -6z"/>
<path d="M1733 689 c-10 -24 -9 -29 5 -29 8 0 12 3 9 7 -4 3 0 14 8 23 13 14
13 18 2 23 -8 3 -18 -6 -24 -24z"/>
<path d="M1845 690 c3 -5 8 -10 11 -10 2 0 4 5 4 10 0 6 -5 10 -11 10 -5 0 -7
-4 -4 -10z"/>
<path d="M1410 678 c0 -4 7 -8 15 -8 8 0 15 4 15 8 0 5 -7 9 -15 9 -8 0 -15
-4 -15 -9z"/>
<path d="M1885 670 c3 -5 14 -10 23 -10 15 0 15 2 2 10 -20 13 -33 13 -25 0z"/>
<path d="M1261 654 c0 -11 3 -14 6 -6 3 7 2 16 -1 19 -3 4 -6 -2 -5 -13z"/>
<path d="M1686 661 c-3 -5 1 -11 9 -14 9 -4 12 -1 8 9 -6 16 -10 17 -17 5z"/>
<path d="M1838 653 c7 -3 16 -2 19 1 4 3 -2 6 -13 5 -11 0 -14 -3 -6 -6z"/>
<path d="M1892 634 c10 -10 20 -15 24 -12 3 4 -5 12 -18 18 -22 12 -22 12 -6
-6z"/>
<path d="M1673 625 c0 -8 4 -12 9 -9 5 3 6 10 3 15 -9 13 -12 11 -12 -6z"/>
<path d="M1692 609 c-17 -16 -36 -28 -40 -25 -4 2 -9 -4 -9 -15 -2 -17 0 -17
13 -4 8 8 23 20 32 27 18 14 47 48 41 48 -2 0 -19 -14 -37 -31z"/>
<path d="M1277 615 c-4 -8 -3 -16 1 -19 4 -3 9 4 9 15 2 23 -3 25 -10 4z"/>
<path d="M1762 590 c-12 -24 -15 -41 -9 -43 7 -2 4 -13 -6 -27 -23 -32 -21
-50 3 -50 23 0 26 10 8 28 -9 9 -9 12 2 12 7 0 10 3 7 7 -4 3 -3 11 2 17 9 12
24 96 17 96 -2 0 -13 -18 -24 -40z"/>
<path d="M2195 620 c-3 -5 -1 -10 4 -10 6 0 11 5 11 10 0 6 -2 10 -4 10 -3 0
-8 -4 -11 -10z"/>
<path d="M1616 607 c3 -10 9 -15 12 -12 3 3 0 11 -7 18 -10 9 -11 8 -5 -6z"/>
<path d="M2240 603 c0 -9 -7 -37 -17 -61 -15 -41 -15 -44 2 -60 17 -15 17 -15
7 0 -11 13 -9 27 7 72 11 32 15 58 10 61 -5 4 -9 -2 -9 -12z"/>
<path d="M1880 600 c-13 -8 -12 -10 3 -10 9 0 17 5 17 10 0 12 -1 12 -20 0z"/>
<path d="M1373 585 c0 -8 4 -12 9 -9 4 3 8 1 8 -4 0 -6 9 -8 19 -5 16 4 19 1
15 -19 l-5 -23 12 23 c7 13 18 21 26 18 7 -3 13 0 13 5 0 6 -9 9 -20 6 -11 -3
-20 -1 -20 5 0 6 -7 7 -16 4 -9 -4 -22 -2 -29 4 -8 7 -12 5 -12 -5z"/>
<path d="M1807 580 c-3 -11 -1 -20 4 -20 5 0 9 9 9 20 0 11 -2 20 -4 20 -2 0
-6 -9 -9 -20z"/>
<path d="M1210 586 c0 -2 8 -10 18 -17 15 -13 16 -12 3 4 -13 16 -21 21 -21
13z"/>
<path d="M1327 579 c7 -7 15 -10 18 -7 3 3 -2 9 -12 12 -14 6 -15 5 -6 -5z"/>
<path d="M1595 580 c3 -5 8 -10 11 -10 2 0 4 5 4 10 0 6 -5 10 -11 10 -5 0 -7
-4 -4 -10z"/>
<path d="M1535 570 c3 -5 8 -10 11 -10 2 0 4 5 4 10 0 6 -5 10 -11 10 -5 0 -7
-4 -4 -10z"/>
<path d="M1270 561 c0 -5 5 -13 10 -16 6 -3 10 -2 10 4 0 5 -4 13 -10 16 -5 3
-10 2 -10 -4z"/>
<path d="M1830 560 c0 -5 7 -7 15 -4 8 4 15 8 15 10 0 2 -7 4 -15 4 -8 0 -15
-4 -15 -10z"/>
<path d="M1319 533 c26 -32 21 -39 -16 -20 -23 12 -30 13 -40 1 -8 -8 -9 -15
-3 -19 6 -3 10 -1 10 5 0 7 6 10 13 7 6 -3 29 -12 50 -21 21 -9 37 -12 37 -6
0 5 -7 10 -17 10 -9 0 -13 3 -10 6 8 8 -24 64 -36 64 -5 0 1 -12 12 -27z"/>
<path d="M2130 556 c0 -2 8 -10 18 -17 15 -13 16 -12 3 4 -13 16 -21 21 -21
13z"/>
<path d="M1187 530 c-3 -11 -2 -20 1 -20 4 0 8 -30 9 -68 1 -37 3 -150 5 -251
3 -131 8 -186 16 -189 7 -2 12 6 12 18 0 12 5 18 10 15 6 -3 10 1 10 10 0 9
-4 14 -8 11 -5 -3 -8 10 -8 28 1 19 4 32 8 29 5 -2 8 1 8 6 0 6 -6 11 -12 12
-7 0 -4 4 7 9 17 7 17 9 3 9 -10 1 -18 5 -18 10 0 5 8 12 18 14 16 4 16 5 0 6
-10 0 -18 4 -18 7 0 4 8 13 18 20 16 13 16 14 -2 7 -13 -4 -17 -2 -14 8 3 8 1
22 -4 32 -7 13 -5 17 9 17 14 0 15 2 4 9 -8 6 -11 16 -6 31 4 12 3 20 -1 17
-5 -3 -8 14 -8 38 1 24 -4 69 -10 101 -7 33 -13 63 -13 67 -2 18 -11 17 -16
-3z"/>
<path d="M1236 541 c-4 -5 -2 -12 3 -15 5 -4 12 -2 15 3 4 5 2 12 -3 15 -5 4
-12 2 -15 -3z"/>
<path d="M1461 534 c0 -11 3 -14 6 -6 3 7 2 16 -1 19 -3 4 -6 -2 -5 -13z"/>
<path d="M1530 538 c-12 -8 -11 -9 4 -4 13 5 17 2 12 -9 -3 -8 -1 -15 4 -15
12 0 13 27 2 34 -4 2 -14 0 -22 -6z"/>
<path d="M1625 524 c-22 -13 -59 -29 -83 -35 -43 -12 -52 -32 -16 -36 18 -3
18 -2 -1 6 -17 7 -14 10 23 20 24 7 50 15 58 18 8 3 14 -1 14 -11 0 -9 5 -16
10 -16 8 0 8 6 1 18 -8 13 -4 22 17 39 35 29 27 28 -23 -3z"/>
<path d="M1440 521 c0 -11 4 -22 9 -25 4 -3 6 6 3 19 -5 30 -12 33 -12 6z"/>
<path d="M1490 530 c-8 -6 -11 -10 -6 -10 5 0 3 -7 -4 -15 -11 -13 -10 -14 3
-9 14 5 31 33 24 40 -1 2 -9 -1 -17 -6z"/>
<path d="M1838 533 c7 -3 16 -2 19 1 4 3 -2 6 -13 5 -11 0 -14 -3 -6 -6z"/>
<path d="M1366 517 c3 -10 9 -15 12 -12 3 3 0 11 -7 18 -10 9 -11 8 -5 -6z"/>
<path d="M1795 510 c-3 -5 -1 -10 4 -10 6 0 11 5 11 10 0 6 -2 10 -4 10 -3 0
-8 -4 -11 -10z"/>
<path d="M1872 511 c-11 -7 -11 -9 2 -14 10 -4 16 -1 16 8 0 17 -1 17 -18 6z"/>
<path d="M1390 502 c0 -6 6 -13 13 -15 6 -3 3 -6 -8 -7 -20 -1 -20 -1 0 -10
29 -13 95 -12 95 1 0 6 -7 8 -16 5 -9 -4 -23 -1 -30 5 -8 6 -14 8 -14 4 0 -5
-9 0 -20 10 -11 10 -20 13 -20 7z"/>
<path d="M1654 489 c0 -14 4 -15 18 -8 10 5 18 14 18 19 0 5 -8 8 -18 7 -10 0
-18 -9 -18 -18z"/>
<path d="M1255 470 c-7 -12 19 -24 37 -17 8 3 6 6 -5 6 -10 1 -15 6 -12 11 3
6 2 10 -4 10 -5 0 -13 -5 -16 -10z"/>
<path d="M1603 458 c2 -7 0 -21 -5 -30 -5 -10 -6 -18 -2 -18 8 0 33 31 34 41
0 4 -7 10 -16 13 -10 4 -14 2 -11 -6z"/>
<path d="M1900 460 c-13 -8 -12 -10 3 -10 9 0 17 5 17 10 0 12 -1 12 -20 0z"/>
<path d="M1743 452 c-13 -8 -14 -52 -1 -52 13 0 18 18 6 22 -21 7 3 29 25 23
17 -5 19 -4 7 4 -18 13 -21 13 -37 3z"/>
<path d="M1316 434 c-3 -9 -11 -12 -18 -8 -8 5 -7 0 2 -11 13 -16 15 -16 18
-2 2 10 8 17 13 17 5 0 9 5 9 10 0 16 -17 12 -24 -6z"/>
<path d="M1357 437 c3 -5 16 -7 29 -4 13 2 24 0 24 -4 0 -5 5 -9 12 -9 9 0 9
3 0 13 -14 13 -73 17 -65 4z"/>
<path d="M1640 440 c0 -6 7 -10 15 -10 8 0 15 2 15 4 0 2 -7 6 -15 10 -8 3
-15 1 -15 -4z"/>
<path d="M1540 432 c0 -7 -12 -13 -27 -13 -26 -2 -26 -2 -4 -6 24 -5 50 11 38
24 -4 3 -7 1 -7 -5z"/>
<path d="M1888 423 c6 -2 18 -2 25 0 6 3 1 5 -13 5 -14 0 -19 -2 -12 -5z"/>
<path d="M1260 410 c0 -5 5 -10 10 -10 6 0 10 5 10 10 0 6 -4 10 -10 10 -5 0
-10 -4 -10 -10z"/>
<path d="M1430 405 c-7 -9 -8 -15 -2 -15 5 0 12 7 16 15 3 8 4 15 2 15 -2 0
-9 -7 -16 -15z"/>
<path d="M1819 403 c-13 -16 -12 -17 4 -4 16 13 21 21 13 21 -2 0 -10 -8 -17
-17z"/>
<path d="M1651 394 c0 -11 3 -14 6 -6 3 7 2 16 -1 19 -3 4 -6 -2 -5 -13z"/>
<path d="M1777 399 c7 -7 15 -10 18 -7 3 3 -2 9 -12 12 -14 6 -15 5 -6 -5z"/>
<path d="M1554 389 c-3 -5 -10 -7 -15 -4 -5 4 -9 1 -9 -6 0 -7 8 -9 23 -5 57
17 67 17 60 -1 -5 -14 -3 -15 7 -6 7 6 10 15 6 21 -7 12 -64 13 -72 1z"/>
<path d="M1270 379 c0 -5 5 -7 10 -4 6 3 10 8 10 11 0 2 -4 4 -10 4 -5 0 -10
-5 -10 -11z"/>
<path d="M1350 386 c0 -2 7 -7 16 -10 8 -3 12 -2 9 4 -6 10 -25 14 -25 6z"/>
<path d="M1698 383 c7 -3 16 -2 19 1 4 3 -2 6 -13 5 -11 0 -14 -3 -6 -6z"/>
<path d="M1407 365 c3 -8 9 -12 14 -9 12 7 11 11 -5 17 -10 4 -13 1 -9 -8z"/>
<path d="M1297 358 c-12 -9 -14 -17 -7 -28 8 -13 10 -12 10 3 0 10 10 22 23
27 13 5 16 9 6 9 -8 1 -23 -5 -32 -11z"/>
<path d="M1710 360 c0 -13 11 -13 30 0 12 8 11 10 -7 10 -13 0 -23 -4 -23 -10z"/>
<path d="M1795 360 c-3 -6 1 -7 9 -4 18 7 21 14 7 14 -6 0 -13 -4 -16 -10z"/>
<path d="M1327 335 c-15 -14 -27 -29 -27 -32 0 -4 10 3 23 15 19 18 26 19 37
9 12 -10 12 -9 2 4 -6 9 -9 19 -5 22 19 19 -6 3 -30 -18z"/>
<path d="M1453 345 c0 -8 4 -12 9 -9 4 3 8 9 8 15 0 5 -4 9 -8 9 -5 0 -9 -7
-9 -15z"/>
<path d="M1518 353 c7 -3 16 -2 19 1 4 3 -2 6 -13 5 -11 0 -14 -3 -6 -6z"/>
<path d="M1570 345 c-7 -8 -23 -15 -36 -15 -12 0 -26 -4 -29 -10 -4 -6 6 -7
27 -3 18 3 35 10 36 15 2 4 10 8 18 8 8 0 14 5 14 10 0 15 -16 12 -30 -5z"/>
<path d="M1755 350 c-3 -5 -1 -10 4 -10 6 0 11 5 11 10 0 6 -2 10 -4 10 -3 0
-8 -4 -11 -10z"/>
<path d="M1895 350 c-3 -6 1 -7 9 -4 18 7 21 14 7 14 -6 0 -13 -4 -16 -10z"/>
<path d="M1636 337 c3 -10 9 -15 12 -12 3 3 0 11 -7 18 -10 9 -11 8 -5 -6z"/>
<path d="M1840 329 c0 -5 5 -7 10 -4 6 3 10 8 10 11 0 2 -4 4 -10 4 -5 0 -10
-5 -10 -11z"/>
<path d="M1685 320 c27 -12 43 -12 25 0 -8 5 -22 9 -30 9 -10 0 -8 -3 5 -9z"/>
<path d="M1437 296 c10 -13 22 -21 28 -18 5 3 4 7 -3 10 -7 2 -12 10 -12 18 0
8 -7 14 -15 14 -14 0 -13 -3 2 -24z"/>
<path d="M1345 297 c3 -7 15 -13 26 -14 24 -2 23 0 -8 16 -18 9 -22 9 -18 -2z"/>
<path d="M1580 295 c0 -8 -6 -12 -14 -9 -8 3 -17 1 -20 -4 -3 -5 5 -9 18 -9
15 0 26 6 29 18 3 11 1 19 -4 19 -5 0 -9 -7 -9 -15z"/>
<path d="M2631 294 c0 -11 3 -14 6 -6 3 7 2 16 -1 19 -3 4 -6 -2 -5 -13z"/>
<path d="M1510 290 c-9 -6 -10 -10 -3 -10 6 0 15 5 18 10 8 12 4 12 -15 0z"/>
<path d="M1903 284 c-3 -8 0 -21 7 -27 10 -10 11 -7 5 12 -5 18 -4 22 5 16 9
-5 11 -4 6 3 -10 16 -15 15 -23 -4z"/>
<path d="M1305 280 c3 -5 8 -10 11 -10 2 0 4 5 4 10 0 6 -5 10 -11 10 -5 0 -7
-4 -4 -10z"/>
<path d="M1850 285 c0 -5 5 -17 10 -25 5 -8 10 -10 10 -5 0 6 -5 17 -10 25 -5
8 -10 11 -10 5z"/>
<path d="M1408 273 c7 -3 16 -2 19 1 4 3 -2 6 -13 5 -11 0 -14 -3 -6 -6z"/>
<path d="M1615 269 c-4 -6 -5 -12 -2 -15 2 -3 7 2 10 11 7 17 1 20 -8 4z"/>
<path d="M1668 268 c-9 -5 -4 -8 15 -8 15 0 27 4 27 8 0 11 -25 11 -42 0z"/>
<path d="M1730 264 c0 -8 5 -12 10 -9 6 4 8 11 5 16 -9 14 -15 11 -15 -7z"/>
<path d="M2722 260 c0 -14 2 -19 5 -12 2 6 2 18 0 25 -3 6 -5 1 -5 -13z"/>
<path d="M1517 250 c3 -11 9 -17 15 -14 5 3 4 12 -3 20 -16 19 -18 18 -12 -6z"/>
<path d="M1765 260 c-3 -5 -1 -10 4 -10 6 0 11 5 11 10 0 6 -2 10 -4 10 -3 0
-8 -4 -11 -10z"/>
<path d="M1450 256 c0 -2 13 -9 29 -14 25 -9 29 -8 24 4 -4 12 -53 21 -53 10z"/>
<path d="M1810 250 c-13 -8 -12 -10 3 -10 9 0 17 5 17 10 0 12 -1 12 -20 0z"/>
<path d="M1281 234 c0 -11 3 -14 6 -6 3 7 2 16 -1 19 -3 4 -6 -2 -5 -13z"/>
<path d="M1300 246 c0 -2 7 -7 16 -10 8 -3 12 -2 9 4 -6 10 -25 14 -25 6z"/>
<path d="M1385 240 c-3 -6 1 -7 9 -4 18 7 21 14 7 14 -6 0 -13 -4 -16 -10z"/>
<path d="M1665 240 c-3 -6 1 -7 9 -4 18 7 21 14 7 14 -6 0 -13 -4 -16 -10z"/>
<path d="M1877 224 c-2 -13 0 -24 4 -24 5 0 9 7 9 16 0 8 5 12 10 9 6 -3 10
-2 10 3 0 6 -6 12 -14 15 -9 4 -16 -3 -19 -19z"/>
<path d="M1340 229 c0 -5 5 -7 10 -4 6 3 10 8 10 11 0 2 -4 4 -10 4 -5 0 -10
-5 -10 -11z"/>
<path d="M1436 226 c3 -8 14 -16 25 -19 23 -6 24 -3 3 17 -19 20 -35 21 -28 2z"/>
<path d="M1575 220 c-3 -5 -1 -10 4 -10 6 0 11 5 11 10 0 6 -2 10 -4 10 -3 0
-8 -4 -11 -10z"/>
<path d="M1710 216 c0 -9 5 -16 10 -16 6 0 10 4 10 9 0 6 -4 13 -10 16 -5 3
-10 -1 -10 -9z"/>
<path d="M1365 210 c-4 -6 -10 -8 -14 -6 -4 3 -12 2 -18 -2 -8 -5 -7 -13 4
-27 15 -20 15 -20 9 2 -6 18 -4 21 13 18 14 -2 21 1 21 11 0 16 -6 18 -15 4z"/>
<path d="M1527 199 c3 -11 0 -19 -6 -19 -7 0 -9 -4 -6 -10 6 -10 -6 -14 -35
-11 -12 1 -12 -1 2 -9 19 -12 48 -3 48 15 0 7 7 15 15 19 21 8 19 23 -4 29
-14 3 -17 0 -14 -14z"/>
<path d="M1678 213 c7 -3 16 -2 19 1 4 3 -2 6 -13 5 -11 0 -14 -3 -6 -6z"/>
<path d="M1784 205 c8 -8 18 -15 22 -15 3 0 1 7 -6 15 -7 8 -17 15 -22 15 -5
0 -3 -7 6 -15z"/>
<path d="M2727 201 c-4 -17 -3 -21 5 -13 5 5 8 16 6 23 -3 8 -7 3 -11 -10z"/>
<path d="M2662 190 c0 -14 2 -19 5 -12 2 6 2 18 0 25 -3 6 -5 1 -5 -13z"/>
<path d="M1845 190 c-4 -6 3 -10 14 -10 25 0 27 6 6 13 -8 4 -17 2 -20 -3z"/>
<path d="M1380 180 c-8 -5 -12 -12 -9 -15 4 -3 12 1 19 10 14 17 11 19 -10 5z"/>
<path d="M1415 182 c8 -9 55 -11 55 -3 0 4 -13 7 -30 7 -16 0 -28 -2 -25 -4z"/>
<path d="M1566 182 c-3 -6 -1 -14 5 -17 15 -10 25 3 12 16 -7 7 -13 7 -17 1z"/>
<path d="M1646 167 c3 -10 9 -15 12 -12 3 3 0 11 -7 18 -10 9 -11 8 -5 -6z"/>
<path d="M1756 155 c-3 -8 -1 -15 4 -15 6 0 10 7 10 15 0 8 -2 15 -4 15 -2 0
-6 -7 -10 -15z"/>
<path d="M1877 156 c-4 -9 -11 -14 -17 -11 -5 3 -10 1 -10 -5 0 -7 7 -10 15
-6 8 3 19 -2 24 -12 8 -13 10 -14 10 -2 0 8 -4 24 -8 34 -7 18 -8 18 -14 2z"/>
<path d="M1280 145 c-7 -8 -9 -15 -6 -15 4 0 14 7 22 15 9 8 11 15 6 15 -5 0
-15 -7 -22 -15z"/>
<path d="M1395 150 c-3 -5 -1 -10 4 -10 6 0 11 5 11 10 0 6 -2 10 -4 10 -3 0
-8 -4 -11 -10z"/>
<path d="M1443 138 c-10 -22 -8 -23 26 -24 35 -1 35 0 10 10 -14 6 -24 17 -22
24 8 21 -3 13 -14 -10z"/>
<path d="M1790 150 c13 -9 13 -11 0 -21 -13 -9 -13 -10 1 -6 9 3 22 0 29 -6 7
-7 5 0 -5 16 -9 15 -22 27 -29 27 -6 0 -4 -5 4 -10z"/>
<path d="M1930 140 c0 -5 5 -10 11 -10 5 0 7 5 4 10 -3 6 -8 10 -11 10 -2 0
-4 -4 -4 -10z"/>
<path d="M1516 125 c-3 -8 -1 -15 4 -15 6 0 10 7 10 15 0 8 -2 15 -4 15 -2 0
-6 -7 -10 -15z"/>
<path d="M1610 128 c0 -4 -7 -8 -15 -8 -8 0 -15 -5 -15 -12 0 -6 3 -9 6 -5 4
3 13 0 21 -8 8 -8 20 -15 26 -15 7 0 4 7 -5 14 -23 17 -23 26 2 26 11 0 20 4
20 9 0 6 -9 9 -20 8 -11 -1 -20 -5 -20 -9z"/>
<path d="M1704 125 c-10 -8 -14 -15 -8 -15 6 0 17 7 24 15 16 19 9 19 -16 0z"/>
<path d="M1351 122 c0 -7 -8 -21 -17 -29 -13 -14 -17 -14 -26 -2 -8 12 -9 12
-5 -1 2 -8 14 -17 26 -18 15 -2 21 0 17 7 -4 6 0 11 8 11 8 0 18 5 22 12 4 6
3 8 -4 4 -6 -3 -13 2 -15 11 -3 10 -5 12 -6 5z"/>
<path d="M1736 113 c-11 -12 -6 -19 14 -19 11 0 20 3 20 7 0 10 -27 19 -34 12z"/>
<path d="M1855 110 c-3 -5 -2 -10 4 -10 5 0 13 5 16 10 3 6 2 10 -4 10 -5 0
-13 -4 -16 -10z"/>
<path d="M2744 97 c4 -16 1 -27 -7 -30 -7 -3 -5 -6 6 -6 20 -1 25 43 6 55 -8
5 -10 -1 -5 -19z"/>
<path d="M1405 100 c-3 -5 -1 -10 4 -10 6 0 11 5 11 10 0 6 -2 10 -4 10 -3 0
-8 -4 -11 -10z"/>
<path d="M1540 99 c0 -5 5 -7 10 -4 6 3 10 8 10 11 0 2 -4 4 -10 4 -5 0 -10
-5 -10 -11z"/>
<path d="M2650 101 c0 -6 4 -13 10 -16 6 -3 7 1 4 9 -7 18 -14 21 -14 7z"/>
<path d="M1430 85 c0 -8 4 -15 10 -15 5 0 7 7 4 15 -4 8 -8 15 -10 15 -2 0 -4
-7 -4 -15z"/>
<path d="M1880 71 c0 -35 10 -44 28 -25 11 12 10 14 -4 14 -10 0 -14 5 -11 15
4 8 2 17 -3 20 -6 4 -10 -7 -10 -24z"/>
<path d="M1508 83 c7 -3 16 -2 19 1 4 3 -2 6 -13 5 -11 0 -14 -3 -6 -6z"/>
<path d="M1557 83 c-4 -4 7 -13 25 -20 23 -10 35 -10 42 -3 8 8 6 9 -5 5 -9
-3 -23 1 -32 9 -18 18 -21 19 -30 9z"/>
<path d="M1785 79 c-4 -6 -5 -12 -2 -15 2 -3 7 2 10 11 7 17 1 20 -8 4z"/>
<path d="M1366 64 c-5 -13 -3 -14 6 -7 7 6 20 13 28 16 10 4 8 6 -6 6 -12 1
-25 -6 -28 -15z"/>
<path d="M1740 70 c0 -5 5 -10 11 -10 5 0 7 5 4 10 -3 6 -8 10 -11 10 -2 0 -4
-4 -4 -10z"/>
<path d="M1642 35 c-1 -13 2 -26 6 -29 4 -2 7 6 7 20 -2 32 -10 39 -13 9z"/>
<path d="M1435 40 c-3 -6 1 -7 9 -4 18 7 21 14 7 14 -6 0 -13 -4 -16 -10z"/>
<path d="M1482 35 c-10 -12 -8 -16 9 -25 11 -7 23 -9 27 -6 3 3 0 6 -7 6 -8 0
-11 8 -8 20 6 23 -3 25 -21 5z"/>
<path d="M1719 41 c9 -6 10 -11 2 -15 -6 -4 -11 -12 -11 -17 0 -6 7 -4 15 5
20 20 19 36 -2 36 -14 0 -15 -2 -4 -9z"/>
<path d="M1335 30 c4 -6 11 -8 16 -5 14 9 11 15 -7 15 -8 0 -12 -5 -9 -10z"/>
<path d="M1525 31 c-3 -5 -2 -12 3 -15 5 -3 9 1 9 9 0 17 -3 19 -12 6z"/>
<path d="M1605 10 c-3 -5 -1 -10 4 -10 6 0 11 5 11 10 0 6 -2 10 -4 10 -3 0
-8 -4 -11 -10z"/>
</g>
</svg>
